%
M48
M72
T01C0.01575
T02C0.01969
T03C0.02362
T04C0.02756
T05C0.03543
T06C0.05512
T07C0.09843
%
T01
X43750Y71800
X43750Y101800
X63750Y116800
X73750Y111800
X73750Y101800
X83750Y101800
X93750Y96800
X106250Y96800
X111250Y86800
X93750Y76800
X83750Y71800
X73750Y71800
X93750Y111800
X93750Y121800
X93750Y141800
X63750Y146800
X132000Y149300
X132000Y159300
X131750Y169300
X148750Y156800
X161750Y169300
X148750Y136800
X148750Y126800
X161250Y126800
X176250Y126800
X186250Y126800
X193750Y136800
X196250Y126800
X206250Y126800
X186250Y106800
X196250Y96800
X206250Y96800
X176250Y96800
X161250Y96800
X148750Y96800
X136250Y96800
X131250Y86800
X148750Y81800
X158750Y81800
X193750Y156800
T02
X176250Y156800
X176250Y136800
X153750Y179300
X133750Y179300
X136250Y136800
X136250Y126800
X136250Y116800
X136250Y106800
X106250Y106800
X106250Y116800
X106250Y126800
X106250Y136800
X83750Y141800
X73750Y141800
X73750Y121800
X83750Y121800
X58750Y101800
X58750Y91800
X58750Y81800
X53750Y121800
X43750Y121800
X43750Y141800
X53750Y141800
X111250Y69300
X131250Y69300
T03
X118750Y181800
T04
X116250Y29300
X116250Y19300
X106250Y19300
X106250Y29300
X126250Y29300
X126250Y19300
X136250Y19300
X136250Y29300
T05
X28750Y49113
X48750Y49113
X68750Y49113
X68750Y169363
X48750Y169363
X28750Y169363
X173750Y169363
X193750Y169363
X213750Y169363
X213750Y49113
X193750Y49113
X173750Y49113
T06
X143801Y214550
X143801Y239550
X143801Y264550
X98699Y264550
X98699Y239550
X98699Y214550
X34801Y214550
X34801Y239550
X34801Y264550
X207699Y264550
X207699Y239550
X207699Y214550
T07
X121250Y232388
X121250Y256010
M30
