G75*
%MOIN*%
%OFA0B0*%
%FSLAX25Y25*%
%IPPOS*%
%LPD*%
%AMOC8*
5,1,8,0,0,1.08239X$1,22.5*
%
%ADD10R,0.06299X0.06299*%
%ADD11C,0.06299*%
%ADD12C,0.03937*%
%ADD13C,0.04331*%
%ADD14R,0.03937X0.03937*%
%ADD15C,0.04724*%
%ADD16R,0.04724X0.04724*%
%ADD17C,0.08268*%
%ADD18C,0.13843*%
%ADD19C,0.05512*%
%ADD20C,0.00000*%
%ADD21C,0.03200*%
%ADD22R,0.03562X0.03562*%
%ADD23C,0.01600*%
%ADD24C,0.01000*%
D10*
X0068750Y0049113D03*
X0068750Y0169363D03*
X0213750Y0169363D03*
X0213750Y0049113D03*
D11*
X0193750Y0049113D03*
X0173750Y0049113D03*
X0173750Y0169363D03*
X0193750Y0169363D03*
X0048750Y0169363D03*
X0028750Y0169363D03*
X0028750Y0049113D03*
X0048750Y0049113D03*
D12*
X0073750Y0111800D03*
X0093750Y0111800D03*
X0093750Y0121800D03*
X0093750Y0141800D03*
X0132000Y0159300D03*
X0148750Y0156800D03*
X0148750Y0136800D03*
X0186250Y0126800D03*
X0186250Y0106800D03*
X0158750Y0081800D03*
D13*
X0161250Y0096800D03*
X0148750Y0096800D03*
X0136250Y0096800D03*
X0131250Y0086800D03*
X0131250Y0069300D03*
X0111250Y0069300D03*
X0111250Y0086800D03*
X0106250Y0096800D03*
X0093750Y0096800D03*
X0083750Y0101800D03*
X0073750Y0101800D03*
X0063750Y0116800D03*
X0043750Y0101800D03*
X0043750Y0071800D03*
X0073750Y0071800D03*
X0083750Y0071800D03*
X0093750Y0076800D03*
X0148750Y0126800D03*
X0161250Y0126800D03*
X0176250Y0126800D03*
X0176250Y0136800D03*
X0176250Y0156800D03*
X0161750Y0169300D03*
X0131750Y0169300D03*
X0176250Y0096800D03*
X0196250Y0096800D03*
X0206250Y0096800D03*
X0206250Y0126800D03*
X0196250Y0126800D03*
X0193750Y0136800D03*
X0193750Y0156800D03*
X0063750Y0146800D03*
D14*
X0132000Y0149300D03*
X0148750Y0081800D03*
D15*
X0136250Y0106800D03*
X0136250Y0116800D03*
X0136250Y0126800D03*
X0136250Y0136800D03*
X0106250Y0126800D03*
X0106250Y0116800D03*
X0106250Y0106800D03*
X0083750Y0121800D03*
X0073750Y0121800D03*
X0058750Y0101800D03*
X0058750Y0091800D03*
X0053750Y0141800D03*
X0043750Y0141800D03*
X0153750Y0179300D03*
D16*
X0133750Y0179300D03*
X0106250Y0136800D03*
X0083750Y0141800D03*
X0073750Y0141800D03*
X0053750Y0121800D03*
X0043750Y0121800D03*
X0058750Y0081800D03*
D17*
X0034801Y0214550D03*
X0034801Y0239550D03*
X0034801Y0264550D03*
X0098699Y0264550D03*
X0098699Y0239550D03*
X0098699Y0214550D03*
X0143801Y0214550D03*
X0143801Y0239550D03*
X0143801Y0264550D03*
X0207699Y0264550D03*
X0207699Y0239550D03*
X0207699Y0214550D03*
D18*
X0121250Y0232388D03*
X0121250Y0256010D03*
D19*
X0116250Y0029300D03*
X0116250Y0019300D03*
X0106250Y0019300D03*
X0106250Y0029300D03*
X0126250Y0029300D03*
X0126250Y0019300D03*
X0136250Y0019300D03*
X0136250Y0029300D03*
D20*
X0237283Y0005800D02*
X0005000Y0005800D01*
X0005000Y0258831D01*
X0026654Y0258831D01*
X0026654Y0286391D01*
X0215630Y0286391D01*
X0215630Y0258831D01*
X0237283Y0258831D01*
X0237283Y0005800D01*
D21*
X0118750Y0044300D02*
X0118750Y0181800D01*
X0118750Y0044300D02*
X0116250Y0041800D01*
X0116250Y0029300D01*
D22*
X0118750Y0181800D03*
D23*
X0115169Y0181530D02*
X0007800Y0181530D01*
X0007800Y0179932D02*
X0115169Y0179932D01*
X0115169Y0179273D02*
X0115350Y0179092D01*
X0115350Y0045708D01*
X0113368Y0043726D01*
X0112850Y0042476D01*
X0112850Y0032343D01*
X0112388Y0031881D01*
X0111694Y0030206D01*
X0111694Y0028394D01*
X0112388Y0026719D01*
X0113669Y0025438D01*
X0115344Y0024744D01*
X0117156Y0024744D01*
X0118831Y0025438D01*
X0120112Y0026719D01*
X0120700Y0028138D01*
X0120700Y0025304D01*
X0121754Y0024250D01*
X0130746Y0024250D01*
X0131800Y0025304D01*
X0131800Y0028138D01*
X0132388Y0026719D01*
X0133669Y0025438D01*
X0135344Y0024744D01*
X0137156Y0024744D01*
X0138831Y0025438D01*
X0140112Y0026719D01*
X0140806Y0028394D01*
X0140806Y0030206D01*
X0140112Y0031881D01*
X0138831Y0033162D01*
X0137156Y0033856D01*
X0135344Y0033856D01*
X0133669Y0033162D01*
X0132388Y0031881D01*
X0131800Y0030462D01*
X0131800Y0032546D01*
X0130746Y0033600D01*
X0130050Y0033600D01*
X0130050Y0045046D01*
X0127550Y0047546D01*
X0127550Y0067871D01*
X0127888Y0067054D01*
X0129004Y0065938D01*
X0130461Y0065335D01*
X0132039Y0065335D01*
X0133496Y0065938D01*
X0134612Y0067054D01*
X0135215Y0068511D01*
X0135215Y0070089D01*
X0134612Y0071546D01*
X0133496Y0072662D01*
X0132039Y0073265D01*
X0130461Y0073265D01*
X0129004Y0072662D01*
X0127888Y0071546D01*
X0127550Y0070729D01*
X0127550Y0085371D01*
X0127888Y0084554D01*
X0129004Y0083438D01*
X0130461Y0082835D01*
X0132039Y0082835D01*
X0133496Y0083438D01*
X0134612Y0084554D01*
X0135215Y0086011D01*
X0135215Y0087589D01*
X0134612Y0089046D01*
X0133496Y0090162D01*
X0132039Y0090765D01*
X0130461Y0090765D01*
X0129004Y0090162D01*
X0127888Y0089046D01*
X0127550Y0088229D01*
X0127550Y0141250D01*
X0140950Y0141250D01*
X0140950Y0073554D01*
X0142004Y0072500D01*
X0169496Y0072500D01*
X0170550Y0073554D01*
X0170550Y0165563D01*
X0170946Y0165167D01*
X0172765Y0164413D01*
X0174735Y0164413D01*
X0176554Y0165167D01*
X0177946Y0166559D01*
X0178700Y0168378D01*
X0178700Y0170348D01*
X0177946Y0172167D01*
X0176554Y0173559D01*
X0174735Y0174313D01*
X0172765Y0174313D01*
X0170946Y0173559D01*
X0170550Y0173163D01*
X0170550Y0175046D01*
X0151996Y0193600D01*
X0146996Y0193600D01*
X0138050Y0202546D01*
X0138050Y0210046D01*
X0136996Y0211100D01*
X0135504Y0211100D01*
X0134450Y0210046D01*
X0134450Y0201054D01*
X0135504Y0200000D01*
X0145504Y0190000D01*
X0150504Y0190000D01*
X0166950Y0173554D01*
X0166950Y0076100D01*
X0144550Y0076100D01*
X0144550Y0141250D01*
X0155746Y0141250D01*
X0156800Y0142304D01*
X0156800Y0161753D01*
X0156837Y0162450D01*
X0156800Y0162491D01*
X0156800Y0162546D01*
X0156306Y0163039D01*
X0145550Y0174991D01*
X0145550Y0185046D01*
X0133050Y0197546D01*
X0133050Y0210046D01*
X0131996Y0211100D01*
X0130504Y0211100D01*
X0129450Y0210046D01*
X0129450Y0196054D01*
X0130504Y0195000D01*
X0141950Y0183554D01*
X0141950Y0174347D01*
X0141913Y0173650D01*
X0141950Y0173609D01*
X0141950Y0173554D01*
X0142444Y0173061D01*
X0153200Y0161109D01*
X0153200Y0144850D01*
X0127550Y0144850D01*
X0127550Y0210046D01*
X0126496Y0211100D01*
X0125004Y0211100D01*
X0123950Y0210046D01*
X0123950Y0046054D01*
X0126450Y0043554D01*
X0126450Y0033856D01*
X0126250Y0033856D01*
X0126250Y0029300D01*
X0126250Y0029300D01*
X0126250Y0033856D01*
X0126050Y0033856D01*
X0126050Y0041753D01*
X0126087Y0042450D01*
X0126050Y0042491D01*
X0126050Y0042546D01*
X0125556Y0043039D01*
X0123800Y0044991D01*
X0123800Y0210046D01*
X0122746Y0211100D01*
X0121254Y0211100D01*
X0120200Y0210046D01*
X0120200Y0185381D01*
X0116223Y0185381D01*
X0115169Y0184327D01*
X0115169Y0179273D01*
X0115350Y0178333D02*
X0007800Y0178333D01*
X0007800Y0176735D02*
X0115350Y0176735D01*
X0115350Y0175136D02*
X0007800Y0175136D01*
X0007800Y0173538D02*
X0025925Y0173538D01*
X0025946Y0173559D02*
X0024554Y0172167D01*
X0023800Y0170348D01*
X0023800Y0168378D01*
X0024554Y0166559D01*
X0025946Y0165167D01*
X0027765Y0164413D01*
X0029735Y0164413D01*
X0031554Y0165167D01*
X0032946Y0166559D01*
X0033700Y0168378D01*
X0033700Y0170348D01*
X0032946Y0172167D01*
X0031554Y0173559D01*
X0029735Y0174313D01*
X0027765Y0174313D01*
X0025946Y0173559D01*
X0024460Y0171939D02*
X0007800Y0171939D01*
X0007800Y0170341D02*
X0023800Y0170341D01*
X0023800Y0168742D02*
X0007800Y0168742D01*
X0007800Y0167144D02*
X0024312Y0167144D01*
X0025568Y0165545D02*
X0007800Y0165545D01*
X0007800Y0163947D02*
X0115350Y0163947D01*
X0115350Y0165545D02*
X0073700Y0165545D01*
X0073700Y0165468D02*
X0073700Y0173258D01*
X0072645Y0174313D01*
X0064855Y0174313D01*
X0063800Y0173258D01*
X0063800Y0165468D01*
X0064855Y0164413D01*
X0072645Y0164413D01*
X0073700Y0165468D01*
X0073700Y0167144D02*
X0115350Y0167144D01*
X0115350Y0168742D02*
X0073700Y0168742D01*
X0073700Y0170341D02*
X0115350Y0170341D01*
X0115350Y0171939D02*
X0073700Y0171939D01*
X0073420Y0173538D02*
X0115350Y0173538D01*
X0123800Y0173538D02*
X0123950Y0173538D01*
X0123950Y0175136D02*
X0123800Y0175136D01*
X0123800Y0176735D02*
X0123950Y0176735D01*
X0123950Y0178333D02*
X0123800Y0178333D01*
X0123800Y0179932D02*
X0123950Y0179932D01*
X0123950Y0181530D02*
X0123800Y0181530D01*
X0123800Y0183129D02*
X0123950Y0183129D01*
X0123950Y0184727D02*
X0123800Y0184727D01*
X0123800Y0186326D02*
X0123950Y0186326D01*
X0123950Y0187924D02*
X0123800Y0187924D01*
X0123800Y0189523D02*
X0123950Y0189523D01*
X0123950Y0191121D02*
X0123800Y0191121D01*
X0123800Y0192720D02*
X0123950Y0192720D01*
X0123950Y0194318D02*
X0123800Y0194318D01*
X0123800Y0195917D02*
X0123950Y0195917D01*
X0123950Y0197515D02*
X0123800Y0197515D01*
X0123800Y0199114D02*
X0123950Y0199114D01*
X0123950Y0200712D02*
X0123800Y0200712D01*
X0123800Y0202311D02*
X0123950Y0202311D01*
X0123950Y0203909D02*
X0123800Y0203909D01*
X0123800Y0205508D02*
X0123950Y0205508D01*
X0123950Y0207106D02*
X0123800Y0207106D01*
X0123800Y0208705D02*
X0123950Y0208705D01*
X0124208Y0210303D02*
X0123542Y0210303D01*
X0120458Y0210303D02*
X0108050Y0210303D01*
X0108050Y0208705D02*
X0120200Y0208705D01*
X0120200Y0207106D02*
X0108050Y0207106D01*
X0108050Y0205508D02*
X0120200Y0205508D01*
X0120200Y0203909D02*
X0108050Y0203909D01*
X0108050Y0202311D02*
X0120200Y0202311D01*
X0120200Y0200712D02*
X0108050Y0200712D01*
X0108050Y0199114D02*
X0120200Y0199114D01*
X0120200Y0197515D02*
X0107011Y0197515D01*
X0106996Y0197500D02*
X0108050Y0198554D01*
X0108050Y0225046D01*
X0106996Y0226100D01*
X0105504Y0226100D01*
X0104450Y0225046D01*
X0104450Y0216171D01*
X0103729Y0217911D01*
X0102060Y0219580D01*
X0099879Y0220484D01*
X0097518Y0220484D01*
X0095338Y0219580D01*
X0093668Y0217911D01*
X0092765Y0215730D01*
X0092765Y0213370D01*
X0093668Y0211189D01*
X0095338Y0209520D01*
X0097518Y0208616D01*
X0099879Y0208616D01*
X0102060Y0209520D01*
X0103729Y0211189D01*
X0104450Y0212929D01*
X0104450Y0201100D01*
X0090550Y0201100D01*
X0090550Y0225046D01*
X0089496Y0226100D01*
X0007800Y0226100D01*
X0007800Y0256031D01*
X0027210Y0256031D01*
X0028240Y0256458D01*
X0029027Y0257245D01*
X0029454Y0258275D01*
X0029454Y0261975D01*
X0029726Y0261440D01*
X0030275Y0260684D01*
X0030936Y0260024D01*
X0031691Y0259475D01*
X0032523Y0259051D01*
X0033412Y0258762D01*
X0034223Y0258634D01*
X0034223Y0263972D01*
X0035379Y0263972D01*
X0035379Y0258634D01*
X0036191Y0258762D01*
X0037079Y0259051D01*
X0037911Y0259475D01*
X0038667Y0260024D01*
X0039327Y0260684D01*
X0039876Y0261440D01*
X0040300Y0262272D01*
X0040589Y0263160D01*
X0040717Y0263972D01*
X0035379Y0263972D01*
X0035379Y0265128D01*
X0034223Y0265128D01*
X0034223Y0270466D01*
X0033412Y0270338D01*
X0032523Y0270049D01*
X0031691Y0269625D01*
X0030936Y0269076D01*
X0030275Y0268416D01*
X0029726Y0267660D01*
X0029454Y0267125D01*
X0029454Y0283591D01*
X0119450Y0283591D01*
X0119450Y0264704D01*
X0116310Y0263404D01*
X0113856Y0260950D01*
X0112529Y0257745D01*
X0112529Y0254275D01*
X0113856Y0251070D01*
X0116310Y0248617D01*
X0119515Y0247289D01*
X0122985Y0247289D01*
X0126190Y0248617D01*
X0128644Y0251070D01*
X0129971Y0254275D01*
X0129971Y0257745D01*
X0128644Y0260950D01*
X0126190Y0263404D01*
X0123050Y0264704D01*
X0123050Y0283591D01*
X0212830Y0283591D01*
X0212830Y0267668D01*
X0212729Y0267911D01*
X0211060Y0269580D01*
X0208879Y0270484D01*
X0206518Y0270484D01*
X0204338Y0269580D01*
X0202668Y0267911D01*
X0201765Y0265730D01*
X0201765Y0263370D01*
X0202668Y0261189D01*
X0204338Y0259520D01*
X0206518Y0258616D01*
X0208879Y0258616D01*
X0211060Y0259520D01*
X0212729Y0261189D01*
X0212830Y0261432D01*
X0212830Y0258275D01*
X0213256Y0257245D01*
X0214044Y0256458D01*
X0215073Y0256031D01*
X0234483Y0256031D01*
X0234483Y0208600D01*
X0200550Y0208600D01*
X0200550Y0232546D01*
X0199496Y0233600D01*
X0145504Y0233600D01*
X0144450Y0232546D01*
X0144450Y0231054D01*
X0145504Y0230000D01*
X0196950Y0230000D01*
X0196950Y0206054D01*
X0198004Y0205000D01*
X0214450Y0205000D01*
X0214450Y0174313D01*
X0213836Y0174313D01*
X0213836Y0169449D01*
X0213664Y0169449D01*
X0213664Y0174313D01*
X0213050Y0174313D01*
X0213050Y0202546D01*
X0211996Y0203600D01*
X0195550Y0203600D01*
X0195550Y0227546D01*
X0194496Y0228600D01*
X0145504Y0228600D01*
X0144450Y0227546D01*
X0144450Y0226054D01*
X0145504Y0225000D01*
X0191950Y0225000D01*
X0191950Y0201054D01*
X0193004Y0200000D01*
X0209450Y0200000D01*
X0209450Y0174546D01*
X0208450Y0173546D01*
X0208450Y0165054D01*
X0209504Y0164000D01*
X0210996Y0164000D01*
X0216504Y0164000D01*
X0217996Y0164000D01*
X0219050Y0165054D01*
X0219050Y0173546D01*
X0218050Y0174546D01*
X0218050Y0205000D01*
X0234483Y0205000D01*
X0234483Y0008600D01*
X0007800Y0008600D01*
X0007800Y0222500D01*
X0086950Y0222500D01*
X0086950Y0198554D01*
X0088004Y0197500D01*
X0106996Y0197500D01*
X0104450Y0202311D02*
X0090550Y0202311D01*
X0090550Y0203909D02*
X0104450Y0203909D01*
X0104450Y0205508D02*
X0090550Y0205508D01*
X0090550Y0207106D02*
X0104450Y0207106D01*
X0104450Y0208705D02*
X0100094Y0208705D01*
X0102844Y0210303D02*
X0104450Y0210303D01*
X0104450Y0211902D02*
X0104025Y0211902D01*
X0104232Y0216698D02*
X0104450Y0216698D01*
X0104450Y0218296D02*
X0103345Y0218296D01*
X0104450Y0219895D02*
X0101302Y0219895D01*
X0104450Y0221493D02*
X0090550Y0221493D01*
X0090550Y0219895D02*
X0096096Y0219895D01*
X0094053Y0218296D02*
X0090550Y0218296D01*
X0090550Y0216698D02*
X0093166Y0216698D01*
X0092765Y0215099D02*
X0090550Y0215099D01*
X0090550Y0213501D02*
X0092765Y0213501D01*
X0093373Y0211902D02*
X0090550Y0211902D01*
X0090550Y0210303D02*
X0094554Y0210303D01*
X0097304Y0208705D02*
X0090550Y0208705D01*
X0086950Y0208705D02*
X0036196Y0208705D01*
X0035981Y0208616D02*
X0038162Y0209520D01*
X0039832Y0211189D01*
X0040735Y0213370D01*
X0040735Y0215730D01*
X0039832Y0217911D01*
X0038162Y0219580D01*
X0035981Y0220484D01*
X0033621Y0220484D01*
X0031440Y0219580D01*
X0029771Y0217911D01*
X0028867Y0215730D01*
X0028867Y0213370D01*
X0029771Y0211189D01*
X0031440Y0209520D01*
X0033621Y0208616D01*
X0035981Y0208616D01*
X0033406Y0208705D02*
X0007800Y0208705D01*
X0007800Y0210303D02*
X0030656Y0210303D01*
X0029475Y0211902D02*
X0007800Y0211902D01*
X0007800Y0213501D02*
X0028867Y0213501D01*
X0028867Y0215099D02*
X0007800Y0215099D01*
X0007800Y0216698D02*
X0029268Y0216698D01*
X0030155Y0218296D02*
X0007800Y0218296D01*
X0007800Y0219895D02*
X0032198Y0219895D01*
X0037404Y0219895D02*
X0086950Y0219895D01*
X0086950Y0221493D02*
X0007800Y0221493D01*
X0007800Y0226289D02*
X0115016Y0226289D01*
X0114679Y0226625D02*
X0115487Y0225817D01*
X0116394Y0225121D01*
X0117384Y0224549D01*
X0118441Y0224112D01*
X0119545Y0223816D01*
X0120450Y0223697D01*
X0120450Y0231588D01*
X0112559Y0231588D01*
X0112678Y0230683D01*
X0112974Y0229579D01*
X0113411Y0228522D01*
X0113983Y0227532D01*
X0114679Y0226625D01*
X0113778Y0227887D02*
X0007800Y0227887D01*
X0007800Y0229486D02*
X0113012Y0229486D01*
X0112625Y0231084D02*
X0007800Y0231084D01*
X0007800Y0232683D02*
X0120450Y0232683D01*
X0120450Y0233188D02*
X0120450Y0231588D01*
X0122050Y0231588D01*
X0122050Y0233188D01*
X0120450Y0233188D01*
X0120450Y0241079D01*
X0119545Y0240960D01*
X0118441Y0240664D01*
X0117384Y0240227D01*
X0116394Y0239655D01*
X0115487Y0238959D01*
X0114679Y0238151D01*
X0113983Y0237244D01*
X0113411Y0236254D01*
X0112974Y0235197D01*
X0112678Y0234093D01*
X0112559Y0233188D01*
X0120450Y0233188D01*
X0120450Y0234281D02*
X0122050Y0234281D01*
X0122050Y0233188D02*
X0122050Y0241079D01*
X0122955Y0240960D01*
X0124059Y0240664D01*
X0125116Y0240227D01*
X0126106Y0239655D01*
X0127013Y0238959D01*
X0127821Y0238151D01*
X0128517Y0237244D01*
X0129089Y0236254D01*
X0129526Y0235197D01*
X0129822Y0234093D01*
X0129941Y0233188D01*
X0122050Y0233188D01*
X0122050Y0232683D02*
X0144587Y0232683D01*
X0144981Y0233616D02*
X0147162Y0234520D01*
X0148832Y0236189D01*
X0149735Y0238370D01*
X0149735Y0240730D01*
X0148832Y0242911D01*
X0147162Y0244580D01*
X0144981Y0245484D01*
X0142621Y0245484D01*
X0140440Y0244580D01*
X0138771Y0242911D01*
X0137867Y0240730D01*
X0137867Y0238370D01*
X0138771Y0236189D01*
X0140440Y0234520D01*
X0142621Y0233616D01*
X0144981Y0233616D01*
X0146587Y0234281D02*
X0204913Y0234281D01*
X0204338Y0234520D02*
X0206518Y0233616D01*
X0208879Y0233616D01*
X0211060Y0234520D01*
X0212729Y0236189D01*
X0213633Y0238370D01*
X0213633Y0240730D01*
X0212729Y0242911D01*
X0211060Y0244580D01*
X0208879Y0245484D01*
X0206518Y0245484D01*
X0204338Y0244580D01*
X0202668Y0242911D01*
X0201765Y0240730D01*
X0201765Y0238370D01*
X0202668Y0236189D01*
X0204338Y0234520D01*
X0202977Y0235880D02*
X0148523Y0235880D01*
X0149366Y0237478D02*
X0202134Y0237478D01*
X0201765Y0239077D02*
X0149735Y0239077D01*
X0149735Y0240675D02*
X0201765Y0240675D01*
X0202404Y0242274D02*
X0149096Y0242274D01*
X0147871Y0243872D02*
X0203629Y0243872D01*
X0206487Y0245471D02*
X0145013Y0245471D01*
X0142589Y0245471D02*
X0099911Y0245471D01*
X0099879Y0245484D02*
X0097518Y0245484D01*
X0095338Y0244580D01*
X0093668Y0242911D01*
X0092765Y0240730D01*
X0092765Y0238370D01*
X0093668Y0236189D01*
X0095338Y0234520D01*
X0097518Y0233616D01*
X0099879Y0233616D01*
X0102060Y0234520D01*
X0103729Y0236189D01*
X0104633Y0238370D01*
X0104633Y0240730D01*
X0103729Y0242911D01*
X0102060Y0244580D01*
X0099879Y0245484D01*
X0097487Y0245471D02*
X0036013Y0245471D01*
X0035981Y0245484D02*
X0033621Y0245484D01*
X0031440Y0244580D01*
X0029771Y0242911D01*
X0028867Y0240730D01*
X0028867Y0238370D01*
X0029771Y0236189D01*
X0031440Y0234520D01*
X0033621Y0233616D01*
X0035981Y0233616D01*
X0038162Y0234520D01*
X0039832Y0236189D01*
X0040735Y0238370D01*
X0040735Y0240730D01*
X0039832Y0242911D01*
X0038162Y0244580D01*
X0035981Y0245484D01*
X0033589Y0245471D02*
X0007800Y0245471D01*
X0007800Y0247069D02*
X0234483Y0247069D01*
X0234483Y0245471D02*
X0208911Y0245471D01*
X0211768Y0243872D02*
X0234483Y0243872D01*
X0234483Y0242274D02*
X0212993Y0242274D01*
X0213633Y0240675D02*
X0234483Y0240675D01*
X0234483Y0239077D02*
X0213633Y0239077D01*
X0213263Y0237478D02*
X0234483Y0237478D01*
X0234483Y0235880D02*
X0212420Y0235880D01*
X0210485Y0234281D02*
X0234483Y0234281D01*
X0234483Y0232683D02*
X0200413Y0232683D01*
X0200550Y0231084D02*
X0234483Y0231084D01*
X0234483Y0229486D02*
X0200550Y0229486D01*
X0200550Y0227887D02*
X0234483Y0227887D01*
X0234483Y0226289D02*
X0200550Y0226289D01*
X0200550Y0224690D02*
X0234483Y0224690D01*
X0234483Y0223092D02*
X0200550Y0223092D01*
X0200550Y0221493D02*
X0234483Y0221493D01*
X0234483Y0219895D02*
X0210302Y0219895D01*
X0211060Y0219580D02*
X0208879Y0220484D01*
X0206518Y0220484D01*
X0204338Y0219580D01*
X0202668Y0217911D01*
X0201765Y0215730D01*
X0201765Y0213370D01*
X0202668Y0211189D01*
X0204338Y0209520D01*
X0206518Y0208616D01*
X0208879Y0208616D01*
X0211060Y0209520D01*
X0212729Y0211189D01*
X0213633Y0213370D01*
X0213633Y0215730D01*
X0212729Y0217911D01*
X0211060Y0219580D01*
X0212345Y0218296D02*
X0234483Y0218296D01*
X0234483Y0216698D02*
X0213232Y0216698D01*
X0213633Y0215099D02*
X0234483Y0215099D01*
X0234483Y0213501D02*
X0213633Y0213501D01*
X0213025Y0211902D02*
X0234483Y0211902D01*
X0234483Y0210303D02*
X0211844Y0210303D01*
X0209094Y0208705D02*
X0234483Y0208705D01*
X0234483Y0203909D02*
X0218050Y0203909D01*
X0218050Y0202311D02*
X0234483Y0202311D01*
X0234483Y0200712D02*
X0218050Y0200712D01*
X0218050Y0199114D02*
X0234483Y0199114D01*
X0234483Y0197515D02*
X0218050Y0197515D01*
X0218050Y0195917D02*
X0234483Y0195917D01*
X0234483Y0194318D02*
X0218050Y0194318D01*
X0218050Y0192720D02*
X0234483Y0192720D01*
X0234483Y0191121D02*
X0218050Y0191121D01*
X0218050Y0189523D02*
X0234483Y0189523D01*
X0234483Y0187924D02*
X0218050Y0187924D01*
X0218050Y0186326D02*
X0234483Y0186326D01*
X0234483Y0184727D02*
X0218050Y0184727D01*
X0218050Y0183129D02*
X0234483Y0183129D01*
X0234483Y0181530D02*
X0218050Y0181530D01*
X0218050Y0179932D02*
X0234483Y0179932D01*
X0234483Y0178333D02*
X0218050Y0178333D01*
X0218050Y0176735D02*
X0234483Y0176735D01*
X0234483Y0175136D02*
X0218050Y0175136D01*
X0219050Y0173538D02*
X0234483Y0173538D01*
X0234483Y0171939D02*
X0219050Y0171939D01*
X0219050Y0170341D02*
X0234483Y0170341D01*
X0234483Y0168742D02*
X0219050Y0168742D01*
X0219050Y0167144D02*
X0234483Y0167144D01*
X0234483Y0165545D02*
X0219050Y0165545D01*
X0219703Y0161600D02*
X0204707Y0161600D01*
X0198485Y0167861D01*
X0198700Y0168378D01*
X0198700Y0170348D01*
X0197946Y0172167D01*
X0196554Y0173559D01*
X0194735Y0174313D01*
X0192765Y0174313D01*
X0190946Y0173559D01*
X0189554Y0172167D01*
X0188800Y0170348D01*
X0188800Y0168378D01*
X0189554Y0166559D01*
X0190946Y0165167D01*
X0192765Y0164413D01*
X0194735Y0164413D01*
X0195224Y0164616D01*
X0201450Y0158352D01*
X0201450Y0158347D01*
X0202120Y0157677D01*
X0202790Y0157003D01*
X0202794Y0157003D01*
X0202797Y0157000D01*
X0203747Y0157000D01*
X0204695Y0156997D01*
X0204698Y0157000D01*
X0217797Y0157000D01*
X0226450Y0148347D01*
X0226450Y0030253D01*
X0217797Y0021600D01*
X0140229Y0021600D01*
X0140112Y0021881D01*
X0138831Y0023162D01*
X0137156Y0023856D01*
X0135344Y0023856D01*
X0133669Y0023162D01*
X0132388Y0021881D01*
X0131694Y0020206D01*
X0131694Y0018394D01*
X0132388Y0016719D01*
X0133669Y0015438D01*
X0135344Y0014744D01*
X0137156Y0014744D01*
X0138831Y0015438D01*
X0140112Y0016719D01*
X0140229Y0017000D01*
X0219703Y0017000D01*
X0229703Y0027000D01*
X0231050Y0028347D01*
X0231050Y0150253D01*
X0221050Y0160253D01*
X0219703Y0161600D01*
X0220553Y0160750D02*
X0234483Y0160750D01*
X0234483Y0162348D02*
X0203963Y0162348D01*
X0202375Y0163947D02*
X0234483Y0163947D01*
X0234483Y0159151D02*
X0222152Y0159151D01*
X0223750Y0157553D02*
X0234483Y0157553D01*
X0234483Y0155954D02*
X0225349Y0155954D01*
X0226947Y0154356D02*
X0234483Y0154356D01*
X0234483Y0152757D02*
X0228546Y0152757D01*
X0230144Y0151159D02*
X0234483Y0151159D01*
X0234483Y0149560D02*
X0231050Y0149560D01*
X0231050Y0147962D02*
X0234483Y0147962D01*
X0234483Y0146363D02*
X0231050Y0146363D01*
X0231050Y0144765D02*
X0234483Y0144765D01*
X0234483Y0143166D02*
X0231050Y0143166D01*
X0231050Y0141568D02*
X0234483Y0141568D01*
X0234483Y0139969D02*
X0231050Y0139969D01*
X0231050Y0138370D02*
X0234483Y0138370D01*
X0234483Y0136772D02*
X0231050Y0136772D01*
X0231050Y0135173D02*
X0234483Y0135173D01*
X0234483Y0133575D02*
X0231050Y0133575D01*
X0231050Y0131976D02*
X0234483Y0131976D01*
X0234483Y0130378D02*
X0231050Y0130378D01*
X0231050Y0128779D02*
X0234483Y0128779D01*
X0234483Y0127181D02*
X0231050Y0127181D01*
X0231050Y0125582D02*
X0234483Y0125582D01*
X0234483Y0123984D02*
X0231050Y0123984D01*
X0231050Y0122385D02*
X0234483Y0122385D01*
X0234483Y0120787D02*
X0231050Y0120787D01*
X0231050Y0119188D02*
X0234483Y0119188D01*
X0234483Y0117590D02*
X0231050Y0117590D01*
X0231050Y0115991D02*
X0234483Y0115991D01*
X0234483Y0114393D02*
X0231050Y0114393D01*
X0231050Y0112794D02*
X0234483Y0112794D01*
X0234483Y0111196D02*
X0231050Y0111196D01*
X0231050Y0109597D02*
X0234483Y0109597D01*
X0234483Y0107999D02*
X0231050Y0107999D01*
X0231050Y0106400D02*
X0234483Y0106400D01*
X0234483Y0104802D02*
X0231050Y0104802D01*
X0231050Y0103203D02*
X0234483Y0103203D01*
X0234483Y0101605D02*
X0231050Y0101605D01*
X0231050Y0100006D02*
X0234483Y0100006D01*
X0234483Y0098408D02*
X0231050Y0098408D01*
X0231050Y0096809D02*
X0234483Y0096809D01*
X0234483Y0095211D02*
X0231050Y0095211D01*
X0231050Y0093612D02*
X0234483Y0093612D01*
X0234483Y0092014D02*
X0231050Y0092014D01*
X0231050Y0090415D02*
X0234483Y0090415D01*
X0234483Y0088817D02*
X0231050Y0088817D01*
X0231050Y0087218D02*
X0234483Y0087218D01*
X0234483Y0085620D02*
X0231050Y0085620D01*
X0231050Y0084021D02*
X0234483Y0084021D01*
X0234483Y0082423D02*
X0231050Y0082423D01*
X0231050Y0080824D02*
X0234483Y0080824D01*
X0234483Y0079226D02*
X0231050Y0079226D01*
X0231050Y0077627D02*
X0234483Y0077627D01*
X0234483Y0076029D02*
X0231050Y0076029D01*
X0231050Y0074430D02*
X0234483Y0074430D01*
X0234483Y0072832D02*
X0231050Y0072832D01*
X0231050Y0071233D02*
X0234483Y0071233D01*
X0234483Y0069634D02*
X0231050Y0069634D01*
X0231050Y0068036D02*
X0234483Y0068036D01*
X0234483Y0066437D02*
X0231050Y0066437D01*
X0231050Y0064839D02*
X0234483Y0064839D01*
X0234483Y0063240D02*
X0231050Y0063240D01*
X0231050Y0061642D02*
X0234483Y0061642D01*
X0234483Y0060043D02*
X0231050Y0060043D01*
X0231050Y0058445D02*
X0234483Y0058445D01*
X0234483Y0056846D02*
X0231050Y0056846D01*
X0231050Y0055248D02*
X0234483Y0055248D01*
X0234483Y0053649D02*
X0231050Y0053649D01*
X0231050Y0052051D02*
X0234483Y0052051D01*
X0234483Y0050452D02*
X0231050Y0050452D01*
X0231050Y0048854D02*
X0234483Y0048854D01*
X0234483Y0047255D02*
X0231050Y0047255D01*
X0231050Y0045657D02*
X0234483Y0045657D01*
X0234483Y0044058D02*
X0231050Y0044058D01*
X0231050Y0042460D02*
X0234483Y0042460D01*
X0234483Y0040861D02*
X0231050Y0040861D01*
X0231050Y0039263D02*
X0234483Y0039263D01*
X0234483Y0037664D02*
X0231050Y0037664D01*
X0231050Y0036066D02*
X0234483Y0036066D01*
X0234483Y0034467D02*
X0231050Y0034467D01*
X0231050Y0032869D02*
X0234483Y0032869D01*
X0234483Y0031270D02*
X0231050Y0031270D01*
X0231050Y0029672D02*
X0234483Y0029672D01*
X0234483Y0028073D02*
X0230776Y0028073D01*
X0229177Y0026475D02*
X0234483Y0026475D01*
X0234483Y0024876D02*
X0227579Y0024876D01*
X0225980Y0023278D02*
X0234483Y0023278D01*
X0234483Y0021679D02*
X0224382Y0021679D01*
X0222783Y0020081D02*
X0234483Y0020081D01*
X0234483Y0018482D02*
X0221185Y0018482D01*
X0217876Y0021679D02*
X0140196Y0021679D01*
X0138552Y0023278D02*
X0219475Y0023278D01*
X0221073Y0024876D02*
X0137475Y0024876D01*
X0135025Y0024876D02*
X0131372Y0024876D01*
X0131800Y0026475D02*
X0132632Y0026475D01*
X0131827Y0028073D02*
X0131800Y0028073D01*
X0131800Y0031270D02*
X0132135Y0031270D01*
X0131477Y0032869D02*
X0133376Y0032869D01*
X0130050Y0034467D02*
X0226450Y0034467D01*
X0226450Y0032869D02*
X0139124Y0032869D01*
X0140365Y0031270D02*
X0226450Y0031270D01*
X0225869Y0029672D02*
X0140806Y0029672D01*
X0140673Y0028073D02*
X0224271Y0028073D01*
X0222672Y0026475D02*
X0139868Y0026475D01*
X0133948Y0023278D02*
X0128552Y0023278D01*
X0128831Y0023162D02*
X0127156Y0023856D01*
X0125344Y0023856D01*
X0123669Y0023162D01*
X0122388Y0021881D01*
X0121694Y0020206D01*
X0121694Y0018394D01*
X0122388Y0016719D01*
X0123669Y0015438D01*
X0125344Y0014744D01*
X0127156Y0014744D01*
X0128831Y0015438D01*
X0130112Y0016719D01*
X0130806Y0018394D01*
X0130806Y0020206D01*
X0130112Y0021881D01*
X0128831Y0023162D01*
X0130196Y0021679D02*
X0132304Y0021679D01*
X0131694Y0020081D02*
X0130806Y0020081D01*
X0130806Y0018482D02*
X0131694Y0018482D01*
X0132320Y0016884D02*
X0130180Y0016884D01*
X0128462Y0015285D02*
X0134038Y0015285D01*
X0138462Y0015285D02*
X0234483Y0015285D01*
X0234483Y0013687D02*
X0007800Y0013687D01*
X0007800Y0015285D02*
X0104038Y0015285D01*
X0103669Y0015438D02*
X0105344Y0014744D01*
X0107156Y0014744D01*
X0108831Y0015438D01*
X0110112Y0016719D01*
X0110806Y0018394D01*
X0110806Y0020206D01*
X0110112Y0021881D01*
X0108831Y0023162D01*
X0107156Y0023856D01*
X0105344Y0023856D01*
X0105063Y0023740D01*
X0101050Y0027753D01*
X0101050Y0072753D01*
X0099703Y0074100D01*
X0097715Y0076087D01*
X0097715Y0077589D01*
X0097112Y0079046D01*
X0095996Y0080162D01*
X0094539Y0080765D01*
X0092961Y0080765D01*
X0091504Y0080162D01*
X0090388Y0079046D01*
X0089785Y0077589D01*
X0089785Y0076011D01*
X0090388Y0074554D01*
X0091504Y0073438D01*
X0092961Y0072835D01*
X0094463Y0072835D01*
X0096450Y0070847D01*
X0096450Y0025847D01*
X0097797Y0024500D01*
X0097797Y0024500D01*
X0101810Y0020487D01*
X0101694Y0020206D01*
X0101694Y0018394D01*
X0102388Y0016719D01*
X0103669Y0015438D01*
X0102320Y0016884D02*
X0007800Y0016884D01*
X0007800Y0018482D02*
X0101694Y0018482D01*
X0101694Y0020081D02*
X0007800Y0020081D01*
X0007800Y0021679D02*
X0100618Y0021679D01*
X0099020Y0023278D02*
X0007800Y0023278D01*
X0007800Y0024876D02*
X0097421Y0024876D01*
X0096450Y0026475D02*
X0007800Y0026475D01*
X0007800Y0028073D02*
X0096450Y0028073D01*
X0096450Y0029672D02*
X0007800Y0029672D01*
X0007800Y0031270D02*
X0096450Y0031270D01*
X0096450Y0032869D02*
X0007800Y0032869D01*
X0007800Y0034467D02*
X0096450Y0034467D01*
X0096450Y0036066D02*
X0007800Y0036066D01*
X0007800Y0037664D02*
X0096450Y0037664D01*
X0096450Y0039263D02*
X0007800Y0039263D01*
X0007800Y0040861D02*
X0096450Y0040861D01*
X0096450Y0042460D02*
X0007800Y0042460D01*
X0007800Y0044058D02*
X0096450Y0044058D01*
X0096450Y0045657D02*
X0073700Y0045657D01*
X0073700Y0045218D02*
X0073700Y0053008D01*
X0072645Y0054063D01*
X0064855Y0054063D01*
X0063800Y0053008D01*
X0063800Y0045218D01*
X0064855Y0044163D01*
X0072645Y0044163D01*
X0073700Y0045218D01*
X0073700Y0047255D02*
X0096450Y0047255D01*
X0096450Y0048854D02*
X0073700Y0048854D01*
X0073700Y0050452D02*
X0096450Y0050452D01*
X0096450Y0052051D02*
X0073700Y0052051D01*
X0073058Y0053649D02*
X0096450Y0053649D01*
X0096450Y0055248D02*
X0007800Y0055248D01*
X0007800Y0056846D02*
X0096450Y0056846D01*
X0096450Y0058445D02*
X0007800Y0058445D01*
X0007800Y0060043D02*
X0096450Y0060043D01*
X0096450Y0061642D02*
X0007800Y0061642D01*
X0007800Y0063240D02*
X0096450Y0063240D01*
X0096450Y0064839D02*
X0007800Y0064839D01*
X0007800Y0066437D02*
X0096450Y0066437D01*
X0096450Y0068036D02*
X0085025Y0068036D01*
X0084539Y0067835D02*
X0085996Y0068438D01*
X0087112Y0069554D01*
X0087715Y0071011D01*
X0087715Y0072589D01*
X0087112Y0074046D01*
X0085996Y0075162D01*
X0084539Y0075765D01*
X0082961Y0075765D01*
X0081504Y0075162D01*
X0080388Y0074046D01*
X0079785Y0072589D01*
X0079785Y0071011D01*
X0080388Y0069554D01*
X0081504Y0068438D01*
X0082961Y0067835D01*
X0084539Y0067835D01*
X0082475Y0068036D02*
X0075025Y0068036D01*
X0074539Y0067835D02*
X0075996Y0068438D01*
X0077112Y0069554D01*
X0077715Y0071011D01*
X0077715Y0072589D01*
X0077112Y0074046D01*
X0075996Y0075162D01*
X0074539Y0075765D01*
X0072961Y0075765D01*
X0071504Y0075162D01*
X0070388Y0074046D01*
X0069785Y0072589D01*
X0069785Y0071011D01*
X0070388Y0069554D01*
X0071504Y0068438D01*
X0072961Y0067835D01*
X0074539Y0067835D01*
X0072475Y0068036D02*
X0045025Y0068036D01*
X0044539Y0067835D02*
X0045996Y0068438D01*
X0047112Y0069554D01*
X0047715Y0071011D01*
X0047715Y0072589D01*
X0047112Y0074046D01*
X0045996Y0075162D01*
X0044539Y0075765D01*
X0042961Y0075765D01*
X0041504Y0075162D01*
X0040388Y0074046D01*
X0039785Y0072589D01*
X0039785Y0071011D01*
X0040388Y0069554D01*
X0041504Y0068438D01*
X0042961Y0067835D01*
X0044539Y0067835D01*
X0042475Y0068036D02*
X0007800Y0068036D01*
X0007800Y0069634D02*
X0040355Y0069634D01*
X0039785Y0071233D02*
X0007800Y0071233D01*
X0007800Y0072832D02*
X0039885Y0072832D01*
X0040772Y0074430D02*
X0007800Y0074430D01*
X0007800Y0076029D02*
X0089785Y0076029D01*
X0089801Y0077627D02*
X0007800Y0077627D01*
X0007800Y0079226D02*
X0054588Y0079226D01*
X0054588Y0078692D02*
X0055642Y0077638D01*
X0061858Y0077638D01*
X0062912Y0078692D01*
X0062912Y0084908D01*
X0061858Y0085962D01*
X0055642Y0085962D01*
X0054588Y0084908D01*
X0054588Y0078692D01*
X0054588Y0080824D02*
X0007800Y0080824D01*
X0007800Y0082423D02*
X0054588Y0082423D01*
X0054588Y0084021D02*
X0007800Y0084021D01*
X0007800Y0085620D02*
X0055300Y0085620D01*
X0056392Y0088271D02*
X0057922Y0087638D01*
X0059578Y0087638D01*
X0061108Y0088271D01*
X0062279Y0089442D01*
X0062912Y0090972D01*
X0062912Y0092628D01*
X0062279Y0094158D01*
X0061108Y0095329D01*
X0059578Y0095962D01*
X0057922Y0095962D01*
X0056392Y0095329D01*
X0055221Y0094158D01*
X0054588Y0092628D01*
X0054588Y0090972D01*
X0055221Y0089442D01*
X0056392Y0088271D01*
X0055847Y0088817D02*
X0007800Y0088817D01*
X0007800Y0090415D02*
X0054818Y0090415D01*
X0054588Y0092014D02*
X0007800Y0092014D01*
X0007800Y0093612D02*
X0054995Y0093612D01*
X0056274Y0095211D02*
X0007800Y0095211D01*
X0007800Y0096809D02*
X0089785Y0096809D01*
X0089785Y0097589D02*
X0089785Y0096011D01*
X0090388Y0094554D01*
X0091504Y0093438D01*
X0092961Y0092835D01*
X0094539Y0092835D01*
X0095996Y0093438D01*
X0097112Y0094554D01*
X0097715Y0096011D01*
X0097715Y0097589D01*
X0097112Y0099046D01*
X0095996Y0100162D01*
X0094539Y0100765D01*
X0092961Y0100765D01*
X0091504Y0100162D01*
X0090388Y0099046D01*
X0089785Y0097589D01*
X0090124Y0098408D02*
X0085811Y0098408D01*
X0085628Y0098286D02*
X0086278Y0098720D01*
X0086830Y0099272D01*
X0087264Y0099922D01*
X0087563Y0100643D01*
X0087715Y0101409D01*
X0087715Y0101800D01*
X0087715Y0102191D01*
X0087563Y0102957D01*
X0087264Y0103678D01*
X0086830Y0104328D01*
X0086278Y0104880D01*
X0085628Y0105314D01*
X0084907Y0105613D01*
X0084141Y0105765D01*
X0083750Y0105765D01*
X0083359Y0105765D01*
X0082593Y0105613D01*
X0081872Y0105314D01*
X0081222Y0104880D01*
X0080670Y0104328D01*
X0080236Y0103678D01*
X0079937Y0102957D01*
X0079785Y0102191D01*
X0079785Y0101800D01*
X0079785Y0101409D01*
X0079937Y0100643D01*
X0080236Y0099922D01*
X0080670Y0099272D01*
X0081222Y0098720D01*
X0081872Y0098286D01*
X0082593Y0097987D01*
X0083359Y0097835D01*
X0083750Y0097835D01*
X0084141Y0097835D01*
X0084907Y0097987D01*
X0085628Y0098286D01*
X0083750Y0098408D02*
X0083750Y0098408D01*
X0083750Y0097835D02*
X0083750Y0101800D01*
X0083750Y0101800D01*
X0083750Y0105765D01*
X0083750Y0101800D01*
X0087715Y0101800D01*
X0083750Y0101800D01*
X0083750Y0101800D01*
X0083750Y0101800D01*
X0079785Y0101800D01*
X0083750Y0101800D01*
X0083750Y0101800D01*
X0083750Y0097835D01*
X0081689Y0098408D02*
X0075922Y0098408D01*
X0075996Y0098438D02*
X0077112Y0099554D01*
X0077715Y0101011D01*
X0077715Y0102589D01*
X0077112Y0104046D01*
X0075996Y0105162D01*
X0074539Y0105765D01*
X0072961Y0105765D01*
X0071504Y0105162D01*
X0070388Y0104046D01*
X0069785Y0102589D01*
X0069785Y0101011D01*
X0070388Y0099554D01*
X0071504Y0098438D01*
X0072961Y0097835D01*
X0074539Y0097835D01*
X0075996Y0098438D01*
X0077299Y0100006D02*
X0080201Y0100006D01*
X0079785Y0101605D02*
X0077715Y0101605D01*
X0077461Y0103203D02*
X0080039Y0103203D01*
X0081144Y0104802D02*
X0076356Y0104802D01*
X0074849Y0108176D02*
X0075535Y0108460D01*
X0076152Y0108873D01*
X0076677Y0109398D01*
X0077090Y0110015D01*
X0077374Y0110701D01*
X0077518Y0111429D01*
X0077518Y0111800D01*
X0077518Y0112171D01*
X0077374Y0112899D01*
X0077090Y0113585D01*
X0076677Y0114202D01*
X0076152Y0114727D01*
X0075535Y0115140D01*
X0074849Y0115424D01*
X0074121Y0115568D01*
X0073750Y0115568D01*
X0073379Y0115568D01*
X0072651Y0115424D01*
X0071965Y0115140D01*
X0071348Y0114727D01*
X0070823Y0114202D01*
X0070410Y0113585D01*
X0070126Y0112899D01*
X0069981Y0112171D01*
X0069981Y0111800D01*
X0069981Y0111429D01*
X0070126Y0110701D01*
X0070410Y0110015D01*
X0070823Y0109398D01*
X0071348Y0108873D01*
X0071965Y0108460D01*
X0072651Y0108176D01*
X0073379Y0108031D01*
X0073750Y0108031D01*
X0073750Y0111800D01*
X0077518Y0111800D01*
X0073750Y0111800D01*
X0073750Y0111800D01*
X0073750Y0111800D01*
X0073750Y0115568D01*
X0073750Y0111800D01*
X0073750Y0108031D01*
X0074121Y0108031D01*
X0074849Y0108176D01*
X0073750Y0109597D02*
X0073750Y0109597D01*
X0073750Y0111196D02*
X0073750Y0111196D01*
X0073750Y0111800D02*
X0073750Y0111800D01*
X0073750Y0111800D01*
X0069981Y0111800D01*
X0073750Y0111800D01*
X0073750Y0112794D02*
X0073750Y0112794D01*
X0073750Y0114393D02*
X0073750Y0114393D01*
X0071013Y0114393D02*
X0066951Y0114393D01*
X0067112Y0114554D02*
X0067715Y0116011D01*
X0067715Y0117589D01*
X0067112Y0119046D01*
X0065996Y0120162D01*
X0064539Y0120765D01*
X0062961Y0120765D01*
X0061504Y0120162D01*
X0060388Y0119046D01*
X0059785Y0117589D01*
X0059785Y0116011D01*
X0060388Y0114554D01*
X0061504Y0113438D01*
X0062961Y0112835D01*
X0064539Y0112835D01*
X0065996Y0113438D01*
X0067112Y0114554D01*
X0067707Y0115991D02*
X0099689Y0115991D01*
X0101287Y0117590D02*
X0067715Y0117590D01*
X0066969Y0119188D02*
X0070475Y0119188D01*
X0070221Y0119442D02*
X0071392Y0118271D01*
X0072922Y0117638D01*
X0074578Y0117638D01*
X0076108Y0118271D01*
X0077279Y0119442D01*
X0077912Y0120972D01*
X0077912Y0122628D01*
X0077279Y0124158D01*
X0076108Y0125329D01*
X0074578Y0125962D01*
X0072922Y0125962D01*
X0071392Y0125329D01*
X0070221Y0124158D01*
X0069588Y0122628D01*
X0069588Y0120972D01*
X0070221Y0119442D01*
X0069665Y0120787D02*
X0057912Y0120787D01*
X0057912Y0122385D02*
X0069588Y0122385D01*
X0070149Y0123984D02*
X0057912Y0123984D01*
X0057912Y0124908D02*
X0056858Y0125962D01*
X0050642Y0125962D01*
X0049588Y0124908D01*
X0049588Y0118692D01*
X0050642Y0117638D01*
X0056858Y0117638D01*
X0057912Y0118692D01*
X0057912Y0124908D01*
X0057238Y0125582D02*
X0072005Y0125582D01*
X0075495Y0125582D02*
X0082005Y0125582D01*
X0081392Y0125329D02*
X0080221Y0124158D01*
X0079588Y0122628D01*
X0079588Y0120972D01*
X0080221Y0119442D01*
X0081392Y0118271D01*
X0082922Y0117638D01*
X0084578Y0117638D01*
X0086108Y0118271D01*
X0087279Y0119442D01*
X0087912Y0120972D01*
X0087912Y0122628D01*
X0087279Y0124158D01*
X0086108Y0125329D01*
X0084578Y0125962D01*
X0082922Y0125962D01*
X0081392Y0125329D01*
X0080149Y0123984D02*
X0077351Y0123984D01*
X0077912Y0122385D02*
X0079588Y0122385D01*
X0079665Y0120787D02*
X0077835Y0120787D01*
X0077025Y0119188D02*
X0080475Y0119188D01*
X0076487Y0114393D02*
X0091013Y0114393D01*
X0090555Y0113935D02*
X0089981Y0112550D01*
X0089981Y0111050D01*
X0090555Y0109665D01*
X0091615Y0108605D01*
X0093000Y0108031D01*
X0094500Y0108031D01*
X0095885Y0108605D01*
X0096779Y0109500D01*
X0099703Y0109500D01*
X0103683Y0113481D01*
X0103892Y0113271D01*
X0105422Y0112638D01*
X0107078Y0112638D01*
X0108608Y0113271D01*
X0109779Y0114442D01*
X0110412Y0115972D01*
X0110412Y0117628D01*
X0109779Y0119158D01*
X0108608Y0120329D01*
X0107078Y0120962D01*
X0105422Y0120962D01*
X0103892Y0120329D01*
X0102721Y0119158D01*
X0102627Y0118930D01*
X0101450Y0117753D01*
X0097797Y0114100D01*
X0096779Y0114100D01*
X0095885Y0114995D01*
X0094500Y0115568D01*
X0093000Y0115568D01*
X0091615Y0114995D01*
X0090555Y0113935D01*
X0090083Y0112794D02*
X0077395Y0112794D01*
X0077472Y0111196D02*
X0089981Y0111196D01*
X0090623Y0109597D02*
X0076811Y0109597D01*
X0070689Y0109597D02*
X0007800Y0109597D01*
X0007800Y0107999D02*
X0101818Y0107999D01*
X0102133Y0109177D02*
X0101496Y0106800D01*
X0102133Y0104423D01*
X0103873Y0102683D01*
X0106250Y0102046D01*
X0108627Y0102683D01*
X0110367Y0104423D01*
X0111004Y0106800D01*
X0110367Y0109177D01*
X0108627Y0110917D01*
X0106250Y0111554D01*
X0103873Y0110917D01*
X0102133Y0109177D01*
X0102554Y0109597D02*
X0099800Y0109597D01*
X0101398Y0111196D02*
X0104914Y0111196D01*
X0105044Y0112794D02*
X0102997Y0112794D01*
X0107456Y0112794D02*
X0115350Y0112794D01*
X0115350Y0111196D02*
X0107586Y0111196D01*
X0109946Y0109597D02*
X0115350Y0109597D01*
X0115350Y0107999D02*
X0110682Y0107999D01*
X0110897Y0106400D02*
X0115350Y0106400D01*
X0115350Y0104802D02*
X0110468Y0104802D01*
X0109147Y0103203D02*
X0115350Y0103203D01*
X0115350Y0101605D02*
X0087715Y0101605D01*
X0087461Y0103203D02*
X0103353Y0103203D01*
X0102032Y0104802D02*
X0086356Y0104802D01*
X0083750Y0104802D02*
X0083750Y0104802D01*
X0083750Y0103203D02*
X0083750Y0103203D01*
X0083750Y0101605D02*
X0083750Y0101605D01*
X0083750Y0100006D02*
X0083750Y0100006D01*
X0087299Y0100006D02*
X0091348Y0100006D01*
X0096152Y0100006D02*
X0103848Y0100006D01*
X0104004Y0100162D02*
X0102888Y0099046D01*
X0102285Y0097589D01*
X0102285Y0096011D01*
X0102888Y0094554D01*
X0104004Y0093438D01*
X0105461Y0092835D01*
X0107039Y0092835D01*
X0108496Y0093438D01*
X0109612Y0094554D01*
X0110215Y0096011D01*
X0110215Y0097589D01*
X0109612Y0099046D01*
X0108496Y0100162D01*
X0107039Y0100765D01*
X0105461Y0100765D01*
X0104004Y0100162D01*
X0102624Y0098408D02*
X0097376Y0098408D01*
X0097715Y0096809D02*
X0102285Y0096809D01*
X0102616Y0095211D02*
X0097384Y0095211D01*
X0096170Y0093612D02*
X0103830Y0093612D01*
X0108670Y0093612D02*
X0115350Y0093612D01*
X0115350Y0092014D02*
X0062912Y0092014D01*
X0062681Y0090415D02*
X0109616Y0090415D01*
X0109004Y0090162D02*
X0110461Y0090765D01*
X0112039Y0090765D01*
X0113496Y0090162D01*
X0114612Y0089046D01*
X0115215Y0087589D01*
X0115215Y0086011D01*
X0114612Y0084554D01*
X0113496Y0083438D01*
X0112039Y0082835D01*
X0110461Y0082835D01*
X0109004Y0083438D01*
X0107888Y0084554D01*
X0107285Y0086011D01*
X0107285Y0087589D01*
X0107888Y0089046D01*
X0109004Y0090162D01*
X0107793Y0088817D02*
X0061653Y0088817D01*
X0062200Y0085620D02*
X0107447Y0085620D01*
X0107285Y0087218D02*
X0007800Y0087218D01*
X0007800Y0098408D02*
X0041578Y0098408D01*
X0041504Y0098438D02*
X0042961Y0097835D01*
X0044539Y0097835D01*
X0045996Y0098438D01*
X0047112Y0099554D01*
X0047715Y0101011D01*
X0047715Y0102589D01*
X0047112Y0104046D01*
X0045996Y0105162D01*
X0044539Y0105765D01*
X0042961Y0105765D01*
X0041504Y0105162D01*
X0040388Y0104046D01*
X0039785Y0102589D01*
X0039785Y0101011D01*
X0040388Y0099554D01*
X0041504Y0098438D01*
X0040201Y0100006D02*
X0007800Y0100006D01*
X0007800Y0101605D02*
X0039785Y0101605D01*
X0040039Y0103203D02*
X0007800Y0103203D01*
X0007800Y0104802D02*
X0041144Y0104802D01*
X0046356Y0104802D02*
X0055866Y0104802D01*
X0056392Y0105329D02*
X0055221Y0104158D01*
X0054588Y0102628D01*
X0054588Y0100972D01*
X0055221Y0099442D01*
X0056392Y0098271D01*
X0057922Y0097638D01*
X0059578Y0097638D01*
X0061108Y0098271D01*
X0062279Y0099442D01*
X0062912Y0100972D01*
X0062912Y0102628D01*
X0062279Y0104158D01*
X0061108Y0105329D01*
X0059578Y0105962D01*
X0057922Y0105962D01*
X0056392Y0105329D01*
X0054826Y0103203D02*
X0047461Y0103203D01*
X0047715Y0101605D02*
X0054588Y0101605D01*
X0054988Y0100006D02*
X0047299Y0100006D01*
X0045922Y0098408D02*
X0056256Y0098408D01*
X0061244Y0098408D02*
X0071578Y0098408D01*
X0070201Y0100006D02*
X0062512Y0100006D01*
X0062912Y0101605D02*
X0069785Y0101605D01*
X0070039Y0103203D02*
X0062674Y0103203D01*
X0061634Y0104802D02*
X0071144Y0104802D01*
X0070028Y0111196D02*
X0007800Y0111196D01*
X0007800Y0112794D02*
X0070105Y0112794D01*
X0060549Y0114393D02*
X0007800Y0114393D01*
X0007800Y0115991D02*
X0059793Y0115991D01*
X0059785Y0117590D02*
X0007800Y0117590D01*
X0007800Y0119188D02*
X0039588Y0119188D01*
X0039588Y0118692D02*
X0040642Y0117638D01*
X0046858Y0117638D01*
X0047912Y0118692D01*
X0047912Y0124908D01*
X0046858Y0125962D01*
X0040642Y0125962D01*
X0039588Y0124908D01*
X0039588Y0118692D01*
X0039588Y0120787D02*
X0007800Y0120787D01*
X0007800Y0122385D02*
X0039588Y0122385D01*
X0039588Y0123984D02*
X0007800Y0123984D01*
X0007800Y0125582D02*
X0040262Y0125582D01*
X0047238Y0125582D02*
X0050262Y0125582D01*
X0049588Y0123984D02*
X0047912Y0123984D01*
X0047912Y0122385D02*
X0049588Y0122385D01*
X0049588Y0120787D02*
X0047912Y0120787D01*
X0047912Y0119188D02*
X0049588Y0119188D01*
X0057912Y0119188D02*
X0060530Y0119188D01*
X0054578Y0137638D02*
X0056108Y0138271D01*
X0057279Y0139442D01*
X0057912Y0140972D01*
X0057912Y0142628D01*
X0057279Y0144158D01*
X0056108Y0145329D01*
X0054578Y0145962D01*
X0052922Y0145962D01*
X0051392Y0145329D01*
X0050221Y0144158D01*
X0049588Y0142628D01*
X0049588Y0140972D01*
X0050221Y0139442D01*
X0051392Y0138271D01*
X0052922Y0137638D01*
X0054578Y0137638D01*
X0056207Y0138370D02*
X0069910Y0138370D01*
X0069588Y0138692D02*
X0070642Y0137638D01*
X0076858Y0137638D01*
X0077912Y0138692D01*
X0077912Y0144908D01*
X0076858Y0145962D01*
X0070642Y0145962D01*
X0069588Y0144908D01*
X0069588Y0138692D01*
X0069588Y0139969D02*
X0057497Y0139969D01*
X0057912Y0141568D02*
X0069588Y0141568D01*
X0069588Y0143166D02*
X0065339Y0143166D01*
X0065996Y0143438D02*
X0067112Y0144554D01*
X0067715Y0146011D01*
X0067715Y0147589D01*
X0067112Y0149046D01*
X0065996Y0150162D01*
X0064539Y0150765D01*
X0062961Y0150765D01*
X0061504Y0150162D01*
X0060388Y0149046D01*
X0059785Y0147589D01*
X0059785Y0146011D01*
X0060388Y0144554D01*
X0061504Y0143438D01*
X0062961Y0142835D01*
X0064539Y0142835D01*
X0065996Y0143438D01*
X0067199Y0144765D02*
X0069588Y0144765D01*
X0067715Y0146363D02*
X0115350Y0146363D01*
X0115350Y0144765D02*
X0096115Y0144765D01*
X0095885Y0144995D02*
X0096779Y0144100D01*
X0099703Y0144100D01*
X0101050Y0142753D01*
X0102991Y0140811D01*
X0103142Y0140962D01*
X0109358Y0140962D01*
X0110412Y0139908D01*
X0110412Y0133692D01*
X0109358Y0132638D01*
X0103142Y0132638D01*
X0102088Y0133692D01*
X0102088Y0135210D01*
X0097797Y0139500D01*
X0096779Y0139500D01*
X0095885Y0138605D01*
X0094500Y0138031D01*
X0093000Y0138031D01*
X0091615Y0138605D01*
X0090555Y0139665D01*
X0089981Y0141050D01*
X0089981Y0142550D01*
X0090555Y0143935D01*
X0091615Y0144995D01*
X0093000Y0145568D01*
X0094500Y0145568D01*
X0095885Y0144995D01*
X0091385Y0144765D02*
X0087912Y0144765D01*
X0087912Y0144908D02*
X0086858Y0145962D01*
X0080642Y0145962D01*
X0079588Y0144908D01*
X0079588Y0138692D01*
X0080642Y0137638D01*
X0086858Y0137638D01*
X0087912Y0138692D01*
X0087912Y0144908D01*
X0087912Y0143166D02*
X0090237Y0143166D01*
X0089981Y0141568D02*
X0087912Y0141568D01*
X0087912Y0139969D02*
X0090429Y0139969D01*
X0092182Y0138370D02*
X0087590Y0138370D01*
X0079910Y0138370D02*
X0077590Y0138370D01*
X0077912Y0139969D02*
X0079588Y0139969D01*
X0079588Y0141568D02*
X0077912Y0141568D01*
X0077912Y0143166D02*
X0079588Y0143166D01*
X0079588Y0144765D02*
X0077912Y0144765D01*
X0067561Y0147962D02*
X0115350Y0147962D01*
X0115350Y0149560D02*
X0066598Y0149560D01*
X0060902Y0149560D02*
X0007800Y0149560D01*
X0007800Y0147962D02*
X0059939Y0147962D01*
X0059785Y0146363D02*
X0007800Y0146363D01*
X0007800Y0144765D02*
X0040828Y0144765D01*
X0041392Y0145329D02*
X0040221Y0144158D01*
X0039588Y0142628D01*
X0039588Y0140972D01*
X0040221Y0139442D01*
X0041392Y0138271D01*
X0042922Y0137638D01*
X0044578Y0137638D01*
X0046108Y0138271D01*
X0047279Y0139442D01*
X0047912Y0140972D01*
X0047912Y0142628D01*
X0047279Y0144158D01*
X0046108Y0145329D01*
X0044578Y0145962D01*
X0042922Y0145962D01*
X0041392Y0145329D01*
X0039811Y0143166D02*
X0007800Y0143166D01*
X0007800Y0141568D02*
X0039588Y0141568D01*
X0040003Y0139969D02*
X0007800Y0139969D01*
X0007800Y0138370D02*
X0041293Y0138370D01*
X0046207Y0138370D02*
X0051293Y0138370D01*
X0050003Y0139969D02*
X0047497Y0139969D01*
X0047912Y0141568D02*
X0049588Y0141568D01*
X0049811Y0143166D02*
X0047689Y0143166D01*
X0046672Y0144765D02*
X0050828Y0144765D01*
X0056672Y0144765D02*
X0060301Y0144765D01*
X0062161Y0143166D02*
X0057689Y0143166D01*
X0049735Y0164413D02*
X0051554Y0165167D01*
X0052946Y0166559D01*
X0053700Y0168378D01*
X0053700Y0170348D01*
X0052946Y0172167D01*
X0051554Y0173559D01*
X0049735Y0174313D01*
X0047765Y0174313D01*
X0045946Y0173559D01*
X0044554Y0172167D01*
X0043800Y0170348D01*
X0043800Y0168378D01*
X0044554Y0166559D01*
X0045946Y0165167D01*
X0047765Y0164413D01*
X0049735Y0164413D01*
X0051932Y0165545D02*
X0063800Y0165545D01*
X0063800Y0167144D02*
X0053188Y0167144D01*
X0053700Y0168742D02*
X0063800Y0168742D01*
X0063800Y0170341D02*
X0053700Y0170341D01*
X0053040Y0171939D02*
X0063800Y0171939D01*
X0064080Y0173538D02*
X0051575Y0173538D01*
X0045925Y0173538D02*
X0031575Y0173538D01*
X0033040Y0171939D02*
X0044460Y0171939D01*
X0043800Y0170341D02*
X0033700Y0170341D01*
X0033700Y0168742D02*
X0043800Y0168742D01*
X0044312Y0167144D02*
X0033188Y0167144D01*
X0031932Y0165545D02*
X0045568Y0165545D01*
X0038946Y0210303D02*
X0086950Y0210303D01*
X0086950Y0211902D02*
X0040127Y0211902D01*
X0040735Y0213501D02*
X0086950Y0213501D01*
X0086950Y0215099D02*
X0040735Y0215099D01*
X0040334Y0216698D02*
X0086950Y0216698D01*
X0086950Y0218296D02*
X0039447Y0218296D01*
X0037587Y0234281D02*
X0095913Y0234281D01*
X0093977Y0235880D02*
X0039523Y0235880D01*
X0040366Y0237478D02*
X0093134Y0237478D01*
X0092765Y0239077D02*
X0040735Y0239077D01*
X0040735Y0240675D02*
X0092765Y0240675D01*
X0093404Y0242274D02*
X0040096Y0242274D01*
X0038871Y0243872D02*
X0094629Y0243872D01*
X0102768Y0243872D02*
X0139732Y0243872D01*
X0138507Y0242274D02*
X0103993Y0242274D01*
X0104633Y0240675D02*
X0118482Y0240675D01*
X0120450Y0240675D02*
X0122050Y0240675D01*
X0122050Y0239077D02*
X0120450Y0239077D01*
X0120450Y0237478D02*
X0122050Y0237478D01*
X0122050Y0235880D02*
X0120450Y0235880D01*
X0122050Y0231588D02*
X0129941Y0231588D01*
X0129822Y0230683D01*
X0129526Y0229579D01*
X0129089Y0228522D01*
X0128517Y0227532D01*
X0127821Y0226625D01*
X0127013Y0225817D01*
X0126106Y0225121D01*
X0125116Y0224549D01*
X0124059Y0224112D01*
X0122955Y0223816D01*
X0122050Y0223697D01*
X0122050Y0231588D01*
X0122050Y0231084D02*
X0120450Y0231084D01*
X0120450Y0229486D02*
X0122050Y0229486D01*
X0122050Y0227887D02*
X0120450Y0227887D01*
X0120450Y0226289D02*
X0122050Y0226289D01*
X0122050Y0224690D02*
X0120450Y0224690D01*
X0117141Y0224690D02*
X0108050Y0224690D01*
X0108050Y0223092D02*
X0191950Y0223092D01*
X0191950Y0224690D02*
X0125359Y0224690D01*
X0127484Y0226289D02*
X0144450Y0226289D01*
X0144792Y0227887D02*
X0128722Y0227887D01*
X0129488Y0229486D02*
X0196950Y0229486D01*
X0196950Y0227887D02*
X0195208Y0227887D01*
X0195550Y0226289D02*
X0196950Y0226289D01*
X0196950Y0224690D02*
X0195550Y0224690D01*
X0195550Y0223092D02*
X0196950Y0223092D01*
X0196950Y0221493D02*
X0195550Y0221493D01*
X0195550Y0219895D02*
X0196950Y0219895D01*
X0196950Y0218296D02*
X0195550Y0218296D01*
X0195550Y0216698D02*
X0196950Y0216698D01*
X0196950Y0215099D02*
X0195550Y0215099D01*
X0195550Y0213501D02*
X0196950Y0213501D01*
X0196950Y0211902D02*
X0195550Y0211902D01*
X0195550Y0210303D02*
X0196950Y0210303D01*
X0196950Y0208705D02*
X0195550Y0208705D01*
X0195550Y0207106D02*
X0196950Y0207106D01*
X0197496Y0205508D02*
X0195550Y0205508D01*
X0195550Y0203909D02*
X0214450Y0203909D01*
X0214450Y0202311D02*
X0213050Y0202311D01*
X0213050Y0200712D02*
X0214450Y0200712D01*
X0214450Y0199114D02*
X0213050Y0199114D01*
X0213050Y0197515D02*
X0214450Y0197515D01*
X0214450Y0195917D02*
X0213050Y0195917D01*
X0213050Y0194318D02*
X0214450Y0194318D01*
X0214450Y0192720D02*
X0213050Y0192720D01*
X0213050Y0191121D02*
X0214450Y0191121D01*
X0214450Y0189523D02*
X0213050Y0189523D01*
X0213050Y0187924D02*
X0214450Y0187924D01*
X0214450Y0186326D02*
X0213050Y0186326D01*
X0213050Y0184727D02*
X0214450Y0184727D01*
X0214450Y0183129D02*
X0213050Y0183129D01*
X0213050Y0181530D02*
X0214450Y0181530D01*
X0214450Y0179932D02*
X0213050Y0179932D01*
X0213050Y0178333D02*
X0214450Y0178333D01*
X0214450Y0176735D02*
X0213050Y0176735D01*
X0213050Y0175136D02*
X0214450Y0175136D01*
X0213836Y0173538D02*
X0213664Y0173538D01*
X0213664Y0171939D02*
X0213836Y0171939D01*
X0213836Y0170341D02*
X0213664Y0170341D01*
X0208450Y0170341D02*
X0198700Y0170341D01*
X0198700Y0168742D02*
X0208450Y0168742D01*
X0208450Y0167144D02*
X0199198Y0167144D01*
X0200786Y0165545D02*
X0208450Y0165545D01*
X0208450Y0171939D02*
X0198040Y0171939D01*
X0196575Y0173538D02*
X0208450Y0173538D01*
X0209450Y0175136D02*
X0170459Y0175136D01*
X0170550Y0173538D02*
X0170925Y0173538D01*
X0168861Y0176735D02*
X0209450Y0176735D01*
X0209450Y0178333D02*
X0167262Y0178333D01*
X0165664Y0179932D02*
X0209450Y0179932D01*
X0209450Y0181530D02*
X0164065Y0181530D01*
X0162467Y0183129D02*
X0209450Y0183129D01*
X0209450Y0184727D02*
X0160868Y0184727D01*
X0159270Y0186326D02*
X0209450Y0186326D01*
X0209450Y0187924D02*
X0157671Y0187924D01*
X0156073Y0189523D02*
X0209450Y0189523D01*
X0209450Y0191121D02*
X0154474Y0191121D01*
X0152876Y0192720D02*
X0209450Y0192720D01*
X0209450Y0194318D02*
X0146277Y0194318D01*
X0144679Y0195917D02*
X0209450Y0195917D01*
X0209450Y0197515D02*
X0143080Y0197515D01*
X0141482Y0199114D02*
X0209450Y0199114D01*
X0206304Y0208705D02*
X0200550Y0208705D01*
X0200550Y0210303D02*
X0203554Y0210303D01*
X0202373Y0211902D02*
X0200550Y0211902D01*
X0200550Y0213501D02*
X0201765Y0213501D01*
X0201765Y0215099D02*
X0200550Y0215099D01*
X0200550Y0216698D02*
X0202166Y0216698D01*
X0203053Y0218296D02*
X0200550Y0218296D01*
X0200550Y0219895D02*
X0205096Y0219895D01*
X0191950Y0219895D02*
X0146404Y0219895D01*
X0147162Y0219580D02*
X0144981Y0220484D01*
X0142621Y0220484D01*
X0140440Y0219580D01*
X0138771Y0217911D01*
X0137867Y0215730D01*
X0137867Y0213370D01*
X0138771Y0211189D01*
X0140440Y0209520D01*
X0142621Y0208616D01*
X0144981Y0208616D01*
X0147162Y0209520D01*
X0148832Y0211189D01*
X0149735Y0213370D01*
X0149735Y0215730D01*
X0148832Y0217911D01*
X0147162Y0219580D01*
X0148447Y0218296D02*
X0191950Y0218296D01*
X0191950Y0216698D02*
X0149334Y0216698D01*
X0149735Y0215099D02*
X0191950Y0215099D01*
X0191950Y0213501D02*
X0149735Y0213501D01*
X0149127Y0211902D02*
X0191950Y0211902D01*
X0191950Y0210303D02*
X0147946Y0210303D01*
X0145196Y0208705D02*
X0191950Y0208705D01*
X0191950Y0207106D02*
X0138050Y0207106D01*
X0138050Y0205508D02*
X0191950Y0205508D01*
X0191950Y0203909D02*
X0138050Y0203909D01*
X0138285Y0202311D02*
X0191950Y0202311D01*
X0192292Y0200712D02*
X0139883Y0200712D01*
X0137989Y0197515D02*
X0133080Y0197515D01*
X0133050Y0199114D02*
X0136390Y0199114D01*
X0134792Y0200712D02*
X0133050Y0200712D01*
X0133050Y0202311D02*
X0134450Y0202311D01*
X0134450Y0203909D02*
X0133050Y0203909D01*
X0133050Y0205508D02*
X0134450Y0205508D01*
X0134450Y0207106D02*
X0133050Y0207106D01*
X0133050Y0208705D02*
X0134450Y0208705D01*
X0134708Y0210303D02*
X0132792Y0210303D01*
X0129708Y0210303D02*
X0127292Y0210303D01*
X0127550Y0208705D02*
X0129450Y0208705D01*
X0129450Y0207106D02*
X0127550Y0207106D01*
X0127550Y0205508D02*
X0129450Y0205508D01*
X0129450Y0203909D02*
X0127550Y0203909D01*
X0127550Y0202311D02*
X0129450Y0202311D01*
X0129450Y0200712D02*
X0127550Y0200712D01*
X0127550Y0199114D02*
X0129450Y0199114D01*
X0129450Y0197515D02*
X0127550Y0197515D01*
X0127550Y0195917D02*
X0129588Y0195917D01*
X0131186Y0194318D02*
X0127550Y0194318D01*
X0127550Y0192720D02*
X0132785Y0192720D01*
X0134383Y0191121D02*
X0127550Y0191121D01*
X0127550Y0189523D02*
X0135982Y0189523D01*
X0137580Y0187924D02*
X0127550Y0187924D01*
X0127550Y0186326D02*
X0139179Y0186326D01*
X0140777Y0184727D02*
X0127550Y0184727D01*
X0127550Y0183129D02*
X0130309Y0183129D01*
X0130642Y0183462D02*
X0129588Y0182408D01*
X0129588Y0176192D01*
X0130642Y0175138D01*
X0136858Y0175138D01*
X0137912Y0176192D01*
X0137912Y0182408D01*
X0136858Y0183462D01*
X0130642Y0183462D01*
X0129588Y0181530D02*
X0127550Y0181530D01*
X0127550Y0179932D02*
X0129588Y0179932D01*
X0129588Y0178333D02*
X0127550Y0178333D01*
X0127550Y0176735D02*
X0129588Y0176735D01*
X0127550Y0175136D02*
X0141950Y0175136D01*
X0141967Y0173538D02*
X0127550Y0173538D01*
X0127550Y0171939D02*
X0128781Y0171939D01*
X0128388Y0171546D02*
X0129504Y0172662D01*
X0130961Y0173265D01*
X0132539Y0173265D01*
X0133996Y0172662D01*
X0135112Y0171546D01*
X0135715Y0170089D01*
X0135715Y0168511D01*
X0135112Y0167054D01*
X0133996Y0165938D01*
X0132539Y0165335D01*
X0130961Y0165335D01*
X0129504Y0165938D01*
X0128388Y0167054D01*
X0127785Y0168511D01*
X0127785Y0170089D01*
X0128388Y0171546D01*
X0127889Y0170341D02*
X0127550Y0170341D01*
X0127550Y0168742D02*
X0127785Y0168742D01*
X0127550Y0167144D02*
X0128351Y0167144D01*
X0127550Y0165545D02*
X0130453Y0165545D01*
X0133047Y0165545D02*
X0149208Y0165545D01*
X0150646Y0163947D02*
X0127550Y0163947D01*
X0127550Y0162348D02*
X0129779Y0162348D01*
X0129598Y0162227D02*
X0129073Y0161702D01*
X0128660Y0161085D01*
X0128376Y0160399D01*
X0128231Y0159671D01*
X0128231Y0159300D01*
X0132000Y0159300D01*
X0132000Y0159300D01*
X0132000Y0163068D01*
X0131629Y0163068D01*
X0130901Y0162924D01*
X0130215Y0162640D01*
X0129598Y0162227D01*
X0128521Y0160750D02*
X0127550Y0160750D01*
X0127550Y0159151D02*
X0128231Y0159151D01*
X0128231Y0159300D02*
X0128231Y0158929D01*
X0128376Y0158201D01*
X0128660Y0157515D01*
X0129073Y0156898D01*
X0129598Y0156373D01*
X0130215Y0155960D01*
X0130901Y0155676D01*
X0131629Y0155531D01*
X0132000Y0155531D01*
X0132371Y0155531D01*
X0133099Y0155676D01*
X0133785Y0155960D01*
X0134402Y0156373D01*
X0134927Y0156898D01*
X0135340Y0157515D01*
X0135624Y0158201D01*
X0135768Y0158929D01*
X0135768Y0159300D01*
X0135768Y0159671D01*
X0135624Y0160399D01*
X0135340Y0161085D01*
X0134927Y0161702D01*
X0134402Y0162227D01*
X0133785Y0162640D01*
X0133099Y0162924D01*
X0132371Y0163068D01*
X0132000Y0163068D01*
X0132000Y0159300D01*
X0135768Y0159300D01*
X0132000Y0159300D01*
X0132000Y0159300D01*
X0132000Y0159300D01*
X0132000Y0155531D01*
X0132000Y0159300D01*
X0132000Y0159300D01*
X0128231Y0159300D01*
X0128645Y0157553D02*
X0127550Y0157553D01*
X0127550Y0155954D02*
X0130230Y0155954D01*
X0132000Y0155954D02*
X0132000Y0155954D01*
X0132000Y0157553D02*
X0132000Y0157553D01*
X0132000Y0159151D02*
X0132000Y0159151D01*
X0132000Y0160750D02*
X0132000Y0160750D01*
X0132000Y0162348D02*
X0132000Y0162348D01*
X0134221Y0162348D02*
X0152085Y0162348D01*
X0153200Y0160750D02*
X0135479Y0160750D01*
X0135768Y0159151D02*
X0145789Y0159151D01*
X0145823Y0159202D02*
X0145410Y0158585D01*
X0145126Y0157899D01*
X0144981Y0157171D01*
X0144981Y0156800D01*
X0148750Y0156800D01*
X0148750Y0156800D01*
X0148750Y0160568D01*
X0148379Y0160568D01*
X0147651Y0160424D01*
X0146965Y0160140D01*
X0146348Y0159727D01*
X0145823Y0159202D01*
X0145057Y0157553D02*
X0135355Y0157553D01*
X0133770Y0155954D02*
X0145076Y0155954D01*
X0145126Y0155701D02*
X0145410Y0155015D01*
X0145823Y0154398D01*
X0146348Y0153873D01*
X0146965Y0153460D01*
X0147651Y0153176D01*
X0148379Y0153031D01*
X0148750Y0153031D01*
X0149121Y0153031D01*
X0149849Y0153176D01*
X0150535Y0153460D01*
X0151152Y0153873D01*
X0151677Y0154398D01*
X0152090Y0155015D01*
X0152374Y0155701D01*
X0152518Y0156429D01*
X0152518Y0156800D01*
X0152518Y0157171D01*
X0152374Y0157899D01*
X0152090Y0158585D01*
X0151677Y0159202D01*
X0151152Y0159727D01*
X0150535Y0160140D01*
X0149849Y0160424D01*
X0149121Y0160568D01*
X0148750Y0160568D01*
X0148750Y0156800D01*
X0152518Y0156800D01*
X0148750Y0156800D01*
X0148750Y0156800D01*
X0148750Y0156800D01*
X0148750Y0153031D01*
X0148750Y0156800D01*
X0148750Y0156800D01*
X0144981Y0156800D01*
X0144981Y0156429D01*
X0145126Y0155701D01*
X0145865Y0154356D02*
X0127550Y0154356D01*
X0127550Y0152757D02*
X0128974Y0152757D01*
X0129286Y0153068D02*
X0128231Y0152014D01*
X0128231Y0146586D01*
X0129286Y0145531D01*
X0134714Y0145531D01*
X0135768Y0146586D01*
X0135768Y0152014D01*
X0134714Y0153068D01*
X0129286Y0153068D01*
X0128231Y0151159D02*
X0127550Y0151159D01*
X0127550Y0149560D02*
X0128231Y0149560D01*
X0128231Y0147962D02*
X0127550Y0147962D01*
X0127550Y0146363D02*
X0128454Y0146363D01*
X0123950Y0146363D02*
X0123800Y0146363D01*
X0123800Y0144765D02*
X0123950Y0144765D01*
X0123950Y0143166D02*
X0123800Y0143166D01*
X0123800Y0141568D02*
X0123950Y0141568D01*
X0123950Y0139969D02*
X0123800Y0139969D01*
X0123800Y0138370D02*
X0123950Y0138370D01*
X0123950Y0136772D02*
X0123800Y0136772D01*
X0123800Y0135173D02*
X0123950Y0135173D01*
X0123950Y0133575D02*
X0123800Y0133575D01*
X0123800Y0131976D02*
X0123950Y0131976D01*
X0123950Y0130378D02*
X0123800Y0130378D01*
X0123800Y0128779D02*
X0123950Y0128779D01*
X0123950Y0127181D02*
X0123800Y0127181D01*
X0123800Y0125582D02*
X0123950Y0125582D01*
X0123950Y0123984D02*
X0123800Y0123984D01*
X0123800Y0122385D02*
X0123950Y0122385D01*
X0123950Y0120787D02*
X0123800Y0120787D01*
X0123800Y0119188D02*
X0123950Y0119188D01*
X0123950Y0117590D02*
X0123800Y0117590D01*
X0123800Y0115991D02*
X0123950Y0115991D01*
X0123950Y0114393D02*
X0123800Y0114393D01*
X0123800Y0112794D02*
X0123950Y0112794D01*
X0123950Y0111196D02*
X0123800Y0111196D01*
X0123800Y0109597D02*
X0123950Y0109597D01*
X0123950Y0107999D02*
X0123800Y0107999D01*
X0123800Y0106400D02*
X0123950Y0106400D01*
X0123950Y0104802D02*
X0123800Y0104802D01*
X0123800Y0103203D02*
X0123950Y0103203D01*
X0123950Y0101605D02*
X0123800Y0101605D01*
X0123800Y0100006D02*
X0123950Y0100006D01*
X0123950Y0098408D02*
X0123800Y0098408D01*
X0123800Y0096809D02*
X0123950Y0096809D01*
X0123950Y0095211D02*
X0123800Y0095211D01*
X0123800Y0093612D02*
X0123950Y0093612D01*
X0123950Y0092014D02*
X0123800Y0092014D01*
X0123800Y0090415D02*
X0123950Y0090415D01*
X0123950Y0088817D02*
X0123800Y0088817D01*
X0123800Y0087218D02*
X0123950Y0087218D01*
X0123950Y0085620D02*
X0123800Y0085620D01*
X0123800Y0084021D02*
X0123950Y0084021D01*
X0123950Y0082423D02*
X0123800Y0082423D01*
X0123800Y0080824D02*
X0123950Y0080824D01*
X0123950Y0079226D02*
X0123800Y0079226D01*
X0123800Y0077627D02*
X0123950Y0077627D01*
X0123950Y0076029D02*
X0123800Y0076029D01*
X0123800Y0074430D02*
X0123950Y0074430D01*
X0123950Y0072832D02*
X0123800Y0072832D01*
X0123800Y0071233D02*
X0123950Y0071233D01*
X0123950Y0069634D02*
X0123800Y0069634D01*
X0123800Y0068036D02*
X0123950Y0068036D01*
X0123950Y0066437D02*
X0123800Y0066437D01*
X0123800Y0064839D02*
X0123950Y0064839D01*
X0123950Y0063240D02*
X0123800Y0063240D01*
X0123800Y0061642D02*
X0123950Y0061642D01*
X0123950Y0060043D02*
X0123800Y0060043D01*
X0123800Y0058445D02*
X0123950Y0058445D01*
X0123950Y0056846D02*
X0123800Y0056846D01*
X0123800Y0055248D02*
X0123950Y0055248D01*
X0123950Y0053649D02*
X0123800Y0053649D01*
X0123800Y0052051D02*
X0123950Y0052051D01*
X0123950Y0050452D02*
X0123800Y0050452D01*
X0123800Y0048854D02*
X0123950Y0048854D01*
X0123950Y0047255D02*
X0123800Y0047255D01*
X0123800Y0045657D02*
X0124348Y0045657D01*
X0124639Y0044058D02*
X0125946Y0044058D01*
X0126078Y0042460D02*
X0126450Y0042460D01*
X0126450Y0040861D02*
X0126050Y0040861D01*
X0126050Y0039263D02*
X0126450Y0039263D01*
X0126450Y0037664D02*
X0126050Y0037664D01*
X0126050Y0036066D02*
X0126450Y0036066D01*
X0126450Y0034467D02*
X0126050Y0034467D01*
X0126250Y0032869D02*
X0126250Y0032869D01*
X0126250Y0031270D02*
X0126250Y0031270D01*
X0126250Y0029672D02*
X0126250Y0029672D01*
X0120700Y0028073D02*
X0120673Y0028073D01*
X0120700Y0026475D02*
X0119868Y0026475D01*
X0121128Y0024876D02*
X0117475Y0024876D01*
X0117156Y0023856D02*
X0115344Y0023856D01*
X0113669Y0023162D01*
X0112388Y0021881D01*
X0111694Y0020206D01*
X0111694Y0018394D01*
X0112388Y0016719D01*
X0113669Y0015438D01*
X0115344Y0014744D01*
X0117156Y0014744D01*
X0118831Y0015438D01*
X0120112Y0016719D01*
X0120806Y0018394D01*
X0120806Y0020206D01*
X0120112Y0021881D01*
X0118831Y0023162D01*
X0117156Y0023856D01*
X0118552Y0023278D02*
X0123948Y0023278D01*
X0122304Y0021679D02*
X0120196Y0021679D01*
X0120806Y0020081D02*
X0121694Y0020081D01*
X0121694Y0018482D02*
X0120806Y0018482D01*
X0120180Y0016884D02*
X0122320Y0016884D01*
X0124038Y0015285D02*
X0118462Y0015285D01*
X0114038Y0015285D02*
X0108462Y0015285D01*
X0110180Y0016884D02*
X0112320Y0016884D01*
X0111694Y0018482D02*
X0110806Y0018482D01*
X0110806Y0020081D02*
X0111694Y0020081D01*
X0112304Y0021679D02*
X0110196Y0021679D01*
X0108552Y0023278D02*
X0113948Y0023278D01*
X0115025Y0024876D02*
X0107475Y0024876D01*
X0107156Y0024744D02*
X0108831Y0025438D01*
X0110112Y0026719D01*
X0110806Y0028394D01*
X0110806Y0030206D01*
X0110112Y0031881D01*
X0108831Y0033162D01*
X0107156Y0033856D01*
X0105344Y0033856D01*
X0103669Y0033162D01*
X0102388Y0031881D01*
X0101694Y0030206D01*
X0101694Y0028394D01*
X0102388Y0026719D01*
X0103669Y0025438D01*
X0105344Y0024744D01*
X0107156Y0024744D01*
X0105025Y0024876D02*
X0103926Y0024876D01*
X0102632Y0026475D02*
X0102328Y0026475D01*
X0101827Y0028073D02*
X0101050Y0028073D01*
X0101050Y0029672D02*
X0101694Y0029672D01*
X0102135Y0031270D02*
X0101050Y0031270D01*
X0101050Y0032869D02*
X0103376Y0032869D01*
X0101050Y0034467D02*
X0112850Y0034467D01*
X0112850Y0032869D02*
X0109124Y0032869D01*
X0110365Y0031270D02*
X0112135Y0031270D01*
X0111694Y0029672D02*
X0110806Y0029672D01*
X0110673Y0028073D02*
X0111827Y0028073D01*
X0112632Y0026475D02*
X0109868Y0026475D01*
X0112850Y0036066D02*
X0101050Y0036066D01*
X0101050Y0037664D02*
X0112850Y0037664D01*
X0112850Y0039263D02*
X0101050Y0039263D01*
X0101050Y0040861D02*
X0112850Y0040861D01*
X0112850Y0042460D02*
X0101050Y0042460D01*
X0101050Y0044058D02*
X0113700Y0044058D01*
X0115299Y0045657D02*
X0101050Y0045657D01*
X0101050Y0047255D02*
X0115350Y0047255D01*
X0115350Y0048854D02*
X0101050Y0048854D01*
X0101050Y0050452D02*
X0115350Y0050452D01*
X0115350Y0052051D02*
X0101050Y0052051D01*
X0101050Y0053649D02*
X0115350Y0053649D01*
X0115350Y0055248D02*
X0101050Y0055248D01*
X0101050Y0056846D02*
X0115350Y0056846D01*
X0115350Y0058445D02*
X0101050Y0058445D01*
X0101050Y0060043D02*
X0115350Y0060043D01*
X0115350Y0061642D02*
X0101050Y0061642D01*
X0101050Y0063240D02*
X0115350Y0063240D01*
X0115350Y0064839D02*
X0101050Y0064839D01*
X0101050Y0066437D02*
X0108505Y0066437D01*
X0109004Y0065938D02*
X0110461Y0065335D01*
X0112039Y0065335D01*
X0113496Y0065938D01*
X0114612Y0067054D01*
X0115215Y0068511D01*
X0115215Y0070089D01*
X0114612Y0071546D01*
X0113496Y0072662D01*
X0112039Y0073265D01*
X0110461Y0073265D01*
X0109004Y0072662D01*
X0107888Y0071546D01*
X0107285Y0070089D01*
X0107285Y0068511D01*
X0107888Y0067054D01*
X0109004Y0065938D01*
X0107481Y0068036D02*
X0101050Y0068036D01*
X0101050Y0069634D02*
X0107285Y0069634D01*
X0107759Y0071233D02*
X0101050Y0071233D01*
X0100971Y0072832D02*
X0109414Y0072832D01*
X0113086Y0072832D02*
X0115350Y0072832D01*
X0115350Y0074430D02*
X0099373Y0074430D01*
X0097774Y0076029D02*
X0115350Y0076029D01*
X0115350Y0077627D02*
X0097699Y0077627D01*
X0096932Y0079226D02*
X0115350Y0079226D01*
X0115350Y0080824D02*
X0062912Y0080824D01*
X0062912Y0079226D02*
X0090568Y0079226D01*
X0090512Y0074430D02*
X0086728Y0074430D01*
X0087615Y0072832D02*
X0094466Y0072832D01*
X0096064Y0071233D02*
X0087715Y0071233D01*
X0087145Y0069634D02*
X0096450Y0069634D01*
X0108421Y0084021D02*
X0062912Y0084021D01*
X0062912Y0082423D02*
X0115350Y0082423D01*
X0115350Y0084021D02*
X0114079Y0084021D01*
X0115053Y0085620D02*
X0115350Y0085620D01*
X0115350Y0087218D02*
X0115215Y0087218D01*
X0115350Y0088817D02*
X0114707Y0088817D01*
X0115350Y0090415D02*
X0112884Y0090415D01*
X0115350Y0095211D02*
X0109884Y0095211D01*
X0110215Y0096809D02*
X0115350Y0096809D01*
X0115350Y0098408D02*
X0109876Y0098408D01*
X0108652Y0100006D02*
X0115350Y0100006D01*
X0115350Y0114393D02*
X0109729Y0114393D01*
X0110412Y0115991D02*
X0115350Y0115991D01*
X0115350Y0117590D02*
X0110412Y0117590D01*
X0109748Y0119188D02*
X0115350Y0119188D01*
X0115350Y0120787D02*
X0107501Y0120787D01*
X0107078Y0122638D02*
X0108608Y0123271D01*
X0109779Y0124442D01*
X0110412Y0125972D01*
X0110412Y0127628D01*
X0109779Y0129158D01*
X0108608Y0130329D01*
X0107078Y0130962D01*
X0105422Y0130962D01*
X0103892Y0130329D01*
X0102721Y0129158D01*
X0102627Y0128930D01*
X0097797Y0124100D01*
X0096779Y0124100D01*
X0095885Y0124995D01*
X0094500Y0125568D01*
X0093000Y0125568D01*
X0091615Y0124995D01*
X0090555Y0123935D01*
X0089981Y0122550D01*
X0089981Y0121050D01*
X0090555Y0119665D01*
X0091615Y0118605D01*
X0093000Y0118031D01*
X0094500Y0118031D01*
X0095885Y0118605D01*
X0096779Y0119500D01*
X0099703Y0119500D01*
X0101050Y0120847D01*
X0103683Y0123481D01*
X0103892Y0123271D01*
X0105422Y0122638D01*
X0107078Y0122638D01*
X0109320Y0123984D02*
X0115350Y0123984D01*
X0115350Y0125582D02*
X0110251Y0125582D01*
X0110412Y0127181D02*
X0115350Y0127181D01*
X0115350Y0128779D02*
X0109935Y0128779D01*
X0108488Y0130378D02*
X0115350Y0130378D01*
X0115350Y0131976D02*
X0007800Y0131976D01*
X0007800Y0130378D02*
X0104012Y0130378D01*
X0102477Y0128779D02*
X0007800Y0128779D01*
X0007800Y0127181D02*
X0100878Y0127181D01*
X0099280Y0125582D02*
X0085495Y0125582D01*
X0087351Y0123984D02*
X0090604Y0123984D01*
X0089981Y0122385D02*
X0087912Y0122385D01*
X0087835Y0120787D02*
X0090091Y0120787D01*
X0091032Y0119188D02*
X0087025Y0119188D01*
X0096468Y0119188D02*
X0102752Y0119188D01*
X0100990Y0120787D02*
X0104999Y0120787D01*
X0102588Y0122385D02*
X0115350Y0122385D01*
X0115350Y0133575D02*
X0110295Y0133575D01*
X0110412Y0135173D02*
X0115350Y0135173D01*
X0115350Y0136772D02*
X0110412Y0136772D01*
X0110412Y0138370D02*
X0115350Y0138370D01*
X0115350Y0139969D02*
X0110351Y0139969D01*
X0115350Y0141568D02*
X0102235Y0141568D01*
X0100637Y0143166D02*
X0115350Y0143166D01*
X0115350Y0151159D02*
X0007800Y0151159D01*
X0007800Y0152757D02*
X0115350Y0152757D01*
X0115350Y0154356D02*
X0007800Y0154356D01*
X0007800Y0155954D02*
X0115350Y0155954D01*
X0115350Y0157553D02*
X0007800Y0157553D01*
X0007800Y0159151D02*
X0115350Y0159151D01*
X0115350Y0160750D02*
X0007800Y0160750D01*
X0007800Y0162348D02*
X0115350Y0162348D01*
X0123800Y0162348D02*
X0123950Y0162348D01*
X0123950Y0160750D02*
X0123800Y0160750D01*
X0123800Y0159151D02*
X0123950Y0159151D01*
X0123950Y0157553D02*
X0123800Y0157553D01*
X0123800Y0155954D02*
X0123950Y0155954D01*
X0123950Y0154356D02*
X0123800Y0154356D01*
X0123800Y0152757D02*
X0123950Y0152757D01*
X0123950Y0151159D02*
X0123800Y0151159D01*
X0123800Y0149560D02*
X0123950Y0149560D01*
X0123950Y0147962D02*
X0123800Y0147962D01*
X0127550Y0139969D02*
X0133533Y0139969D01*
X0133892Y0140329D02*
X0132721Y0139158D01*
X0132088Y0137628D01*
X0132088Y0135972D01*
X0132721Y0134442D01*
X0133892Y0133271D01*
X0135422Y0132638D01*
X0137078Y0132638D01*
X0138608Y0133271D01*
X0139779Y0134442D01*
X0140412Y0135972D01*
X0140412Y0137628D01*
X0139779Y0139158D01*
X0138608Y0140329D01*
X0137078Y0140962D01*
X0135422Y0140962D01*
X0133892Y0140329D01*
X0132395Y0138370D02*
X0127550Y0138370D01*
X0127550Y0136772D02*
X0132088Y0136772D01*
X0132419Y0135173D02*
X0127550Y0135173D01*
X0127550Y0133575D02*
X0133589Y0133575D01*
X0135422Y0130962D02*
X0133892Y0130329D01*
X0132721Y0129158D01*
X0132088Y0127628D01*
X0132088Y0125972D01*
X0132721Y0124442D01*
X0133892Y0123271D01*
X0135422Y0122638D01*
X0137078Y0122638D01*
X0138608Y0123271D01*
X0139779Y0124442D01*
X0140412Y0125972D01*
X0140412Y0127628D01*
X0139779Y0129158D01*
X0138608Y0130329D01*
X0137078Y0130962D01*
X0135422Y0130962D01*
X0134012Y0130378D02*
X0127550Y0130378D01*
X0127550Y0131976D02*
X0140950Y0131976D01*
X0140950Y0130378D02*
X0138488Y0130378D01*
X0139935Y0128779D02*
X0140950Y0128779D01*
X0140950Y0127181D02*
X0140412Y0127181D01*
X0140251Y0125582D02*
X0140950Y0125582D01*
X0140950Y0123984D02*
X0139320Y0123984D01*
X0140950Y0122385D02*
X0127550Y0122385D01*
X0127550Y0120787D02*
X0134999Y0120787D01*
X0135422Y0120962D02*
X0133892Y0120329D01*
X0132721Y0119158D01*
X0132088Y0117628D01*
X0132088Y0115972D01*
X0132721Y0114442D01*
X0133892Y0113271D01*
X0135422Y0112638D01*
X0137078Y0112638D01*
X0138608Y0113271D01*
X0139779Y0114442D01*
X0140412Y0115972D01*
X0140412Y0117628D01*
X0139779Y0119158D01*
X0138608Y0120329D01*
X0137078Y0120962D01*
X0135422Y0120962D01*
X0137501Y0120787D02*
X0140950Y0120787D01*
X0140950Y0119188D02*
X0139748Y0119188D01*
X0140412Y0117590D02*
X0140950Y0117590D01*
X0140950Y0115991D02*
X0140412Y0115991D01*
X0140950Y0114393D02*
X0139729Y0114393D01*
X0140950Y0112794D02*
X0137456Y0112794D01*
X0137078Y0110962D02*
X0135422Y0110962D01*
X0133892Y0110329D01*
X0132721Y0109158D01*
X0132088Y0107628D01*
X0132088Y0105972D01*
X0132721Y0104442D01*
X0133892Y0103271D01*
X0135422Y0102638D01*
X0137078Y0102638D01*
X0138608Y0103271D01*
X0139779Y0104442D01*
X0140412Y0105972D01*
X0140412Y0107628D01*
X0139779Y0109158D01*
X0138608Y0110329D01*
X0137078Y0110962D01*
X0139339Y0109597D02*
X0140950Y0109597D01*
X0140950Y0107999D02*
X0140259Y0107999D01*
X0140412Y0106400D02*
X0140950Y0106400D01*
X0140950Y0104802D02*
X0139927Y0104802D01*
X0140950Y0103203D02*
X0138443Y0103203D01*
X0137039Y0100765D02*
X0135461Y0100765D01*
X0134004Y0100162D01*
X0132888Y0099046D01*
X0132285Y0097589D01*
X0132285Y0096011D01*
X0132888Y0094554D01*
X0134004Y0093438D01*
X0135461Y0092835D01*
X0137039Y0092835D01*
X0138496Y0093438D01*
X0139612Y0094554D01*
X0140215Y0096011D01*
X0140215Y0097589D01*
X0139612Y0099046D01*
X0138496Y0100162D01*
X0137039Y0100765D01*
X0138652Y0100006D02*
X0140950Y0100006D01*
X0140950Y0098408D02*
X0139876Y0098408D01*
X0140215Y0096809D02*
X0140950Y0096809D01*
X0140950Y0095211D02*
X0139884Y0095211D01*
X0140950Y0093612D02*
X0138670Y0093612D01*
X0140950Y0092014D02*
X0127550Y0092014D01*
X0127550Y0093612D02*
X0133830Y0093612D01*
X0132616Y0095211D02*
X0127550Y0095211D01*
X0127550Y0096809D02*
X0132285Y0096809D01*
X0132624Y0098408D02*
X0127550Y0098408D01*
X0127550Y0100006D02*
X0133848Y0100006D01*
X0134057Y0103203D02*
X0127550Y0103203D01*
X0127550Y0101605D02*
X0140950Y0101605D01*
X0144550Y0101605D02*
X0166950Y0101605D01*
X0166950Y0103203D02*
X0144550Y0103203D01*
X0144550Y0104802D02*
X0166950Y0104802D01*
X0166950Y0106400D02*
X0144550Y0106400D01*
X0144550Y0107999D02*
X0166950Y0107999D01*
X0166950Y0109597D02*
X0144550Y0109597D01*
X0144550Y0111196D02*
X0166950Y0111196D01*
X0166950Y0112794D02*
X0144550Y0112794D01*
X0144550Y0114393D02*
X0166950Y0114393D01*
X0166950Y0115991D02*
X0144550Y0115991D01*
X0144550Y0117590D02*
X0166950Y0117590D01*
X0166950Y0119188D02*
X0144550Y0119188D01*
X0144550Y0120787D02*
X0166950Y0120787D01*
X0166950Y0122385D02*
X0144550Y0122385D01*
X0144550Y0123984D02*
X0145958Y0123984D01*
X0146504Y0123438D02*
X0147961Y0122835D01*
X0149539Y0122835D01*
X0150996Y0123438D01*
X0152112Y0124554D01*
X0152715Y0126011D01*
X0152715Y0127589D01*
X0152112Y0129046D01*
X0150996Y0130162D01*
X0149539Y0130765D01*
X0147961Y0130765D01*
X0146504Y0130162D01*
X0145388Y0129046D01*
X0144785Y0127589D01*
X0144785Y0126011D01*
X0145388Y0124554D01*
X0146504Y0123438D01*
X0144962Y0125582D02*
X0144550Y0125582D01*
X0144550Y0127181D02*
X0144785Y0127181D01*
X0144550Y0128779D02*
X0145278Y0128779D01*
X0144550Y0130378D02*
X0147026Y0130378D01*
X0148000Y0133031D02*
X0146615Y0133605D01*
X0145555Y0134665D01*
X0144981Y0136050D01*
X0144981Y0137550D01*
X0145555Y0138935D01*
X0146615Y0139995D01*
X0148000Y0140568D01*
X0149500Y0140568D01*
X0150885Y0139995D01*
X0151945Y0138935D01*
X0152518Y0137550D01*
X0152518Y0136050D01*
X0151945Y0134665D01*
X0150885Y0133605D01*
X0149500Y0133031D01*
X0148000Y0133031D01*
X0146688Y0133575D02*
X0144550Y0133575D01*
X0144550Y0135173D02*
X0145345Y0135173D01*
X0144981Y0136772D02*
X0144550Y0136772D01*
X0144550Y0138370D02*
X0145322Y0138370D01*
X0144550Y0139969D02*
X0146590Y0139969D01*
X0150910Y0139969D02*
X0166950Y0139969D01*
X0166950Y0138370D02*
X0152178Y0138370D01*
X0152518Y0136772D02*
X0166950Y0136772D01*
X0166950Y0135173D02*
X0152155Y0135173D01*
X0150812Y0133575D02*
X0166950Y0133575D01*
X0166950Y0131976D02*
X0144550Y0131976D01*
X0140950Y0133575D02*
X0138911Y0133575D01*
X0140081Y0135173D02*
X0140950Y0135173D01*
X0140950Y0136772D02*
X0140412Y0136772D01*
X0140105Y0138370D02*
X0140950Y0138370D01*
X0140950Y0139969D02*
X0138967Y0139969D01*
X0135546Y0146363D02*
X0153200Y0146363D01*
X0153200Y0147962D02*
X0135768Y0147962D01*
X0135768Y0149560D02*
X0153200Y0149560D01*
X0153200Y0151159D02*
X0135768Y0151159D01*
X0135025Y0152757D02*
X0153200Y0152757D01*
X0153200Y0154356D02*
X0151635Y0154356D01*
X0152424Y0155954D02*
X0153200Y0155954D01*
X0153200Y0157553D02*
X0152443Y0157553D01*
X0151711Y0159151D02*
X0153200Y0159151D01*
X0156800Y0159151D02*
X0166950Y0159151D01*
X0166950Y0157553D02*
X0156800Y0157553D01*
X0156800Y0155954D02*
X0166950Y0155954D01*
X0166950Y0154356D02*
X0156800Y0154356D01*
X0156800Y0152757D02*
X0166950Y0152757D01*
X0166950Y0151159D02*
X0156800Y0151159D01*
X0156800Y0149560D02*
X0166950Y0149560D01*
X0166950Y0147962D02*
X0156800Y0147962D01*
X0156800Y0146363D02*
X0166950Y0146363D01*
X0166950Y0144765D02*
X0156800Y0144765D01*
X0156800Y0143166D02*
X0166950Y0143166D01*
X0166950Y0141568D02*
X0156063Y0141568D01*
X0160093Y0130613D02*
X0159372Y0130314D01*
X0158722Y0129880D01*
X0158170Y0129328D01*
X0157736Y0128678D01*
X0157437Y0127957D01*
X0157285Y0127191D01*
X0157285Y0126800D01*
X0157285Y0126409D01*
X0157437Y0125643D01*
X0157736Y0124922D01*
X0158170Y0124272D01*
X0158722Y0123720D01*
X0159372Y0123286D01*
X0160093Y0122987D01*
X0160859Y0122835D01*
X0161250Y0122835D01*
X0161641Y0122835D01*
X0162407Y0122987D01*
X0163128Y0123286D01*
X0163778Y0123720D01*
X0164330Y0124272D01*
X0164764Y0124922D01*
X0165063Y0125643D01*
X0165215Y0126409D01*
X0165215Y0126800D01*
X0165215Y0127191D01*
X0165063Y0127957D01*
X0164764Y0128678D01*
X0164330Y0129328D01*
X0163778Y0129880D01*
X0163128Y0130314D01*
X0162407Y0130613D01*
X0161641Y0130765D01*
X0161250Y0130765D01*
X0160859Y0130765D01*
X0160093Y0130613D01*
X0159526Y0130378D02*
X0150474Y0130378D01*
X0152222Y0128779D02*
X0157804Y0128779D01*
X0157285Y0127181D02*
X0152715Y0127181D01*
X0152538Y0125582D02*
X0157462Y0125582D01*
X0157285Y0126800D02*
X0161250Y0126800D01*
X0161250Y0126800D01*
X0161250Y0130765D01*
X0161250Y0126800D01*
X0165215Y0126800D01*
X0161250Y0126800D01*
X0161250Y0126800D01*
X0161250Y0126800D01*
X0157285Y0126800D01*
X0158458Y0123984D02*
X0151542Y0123984D01*
X0161250Y0123984D02*
X0161250Y0123984D01*
X0161250Y0122835D02*
X0161250Y0126800D01*
X0161250Y0126800D01*
X0161250Y0122835D01*
X0161250Y0125582D02*
X0161250Y0125582D01*
X0161250Y0127181D02*
X0161250Y0127181D01*
X0161250Y0128779D02*
X0161250Y0128779D01*
X0161250Y0130378D02*
X0161250Y0130378D01*
X0162974Y0130378D02*
X0166950Y0130378D01*
X0166950Y0128779D02*
X0164696Y0128779D01*
X0165215Y0127181D02*
X0166950Y0127181D01*
X0166950Y0125582D02*
X0165038Y0125582D01*
X0164042Y0123984D02*
X0166950Y0123984D01*
X0170550Y0123984D02*
X0173458Y0123984D01*
X0174004Y0123438D02*
X0172888Y0124554D01*
X0172285Y0126011D01*
X0172285Y0127589D01*
X0172888Y0129046D01*
X0174004Y0130162D01*
X0175461Y0130765D01*
X0177039Y0130765D01*
X0178496Y0130162D01*
X0179558Y0129100D01*
X0179703Y0129100D01*
X0182203Y0126600D01*
X0182481Y0126321D01*
X0182481Y0127550D01*
X0183055Y0128935D01*
X0184115Y0129995D01*
X0185500Y0130568D01*
X0187000Y0130568D01*
X0188385Y0129995D01*
X0189445Y0128935D01*
X0190018Y0127550D01*
X0190018Y0126050D01*
X0189445Y0124665D01*
X0188385Y0123605D01*
X0187000Y0123031D01*
X0185500Y0123031D01*
X0184115Y0123605D01*
X0183550Y0124171D01*
X0183550Y0110253D01*
X0183962Y0109841D01*
X0184115Y0109995D01*
X0185500Y0110568D01*
X0187000Y0110568D01*
X0188385Y0109995D01*
X0189445Y0108935D01*
X0190018Y0107550D01*
X0190018Y0106050D01*
X0189445Y0104665D01*
X0188385Y0103605D01*
X0187000Y0103031D01*
X0185500Y0103031D01*
X0184115Y0103605D01*
X0183221Y0104500D01*
X0182797Y0104500D01*
X0181450Y0105847D01*
X0178950Y0108347D01*
X0178950Y0123347D01*
X0178678Y0123620D01*
X0178496Y0123438D01*
X0177039Y0122835D01*
X0175461Y0122835D01*
X0174004Y0123438D01*
X0172462Y0125582D02*
X0170550Y0125582D01*
X0170550Y0127181D02*
X0172285Y0127181D01*
X0172778Y0128779D02*
X0170550Y0128779D01*
X0170550Y0130378D02*
X0174526Y0130378D01*
X0175461Y0132835D02*
X0177039Y0132835D01*
X0178496Y0133438D01*
X0179612Y0134554D01*
X0180215Y0136011D01*
X0180215Y0137589D01*
X0179612Y0139046D01*
X0178496Y0140162D01*
X0177039Y0140765D01*
X0175461Y0140765D01*
X0174004Y0140162D01*
X0172888Y0139046D01*
X0172285Y0137589D01*
X0172285Y0136011D01*
X0172888Y0134554D01*
X0174004Y0133438D01*
X0175461Y0132835D01*
X0173867Y0133575D02*
X0170550Y0133575D01*
X0170550Y0135173D02*
X0172632Y0135173D01*
X0172285Y0136772D02*
X0170550Y0136772D01*
X0170550Y0138370D02*
X0172608Y0138370D01*
X0173811Y0139969D02*
X0170550Y0139969D01*
X0170550Y0141568D02*
X0226450Y0141568D01*
X0226450Y0143166D02*
X0170550Y0143166D01*
X0170550Y0144765D02*
X0226450Y0144765D01*
X0226450Y0146363D02*
X0170550Y0146363D01*
X0170550Y0147962D02*
X0226450Y0147962D01*
X0225237Y0149560D02*
X0170550Y0149560D01*
X0170550Y0151159D02*
X0223639Y0151159D01*
X0222040Y0152757D02*
X0170550Y0152757D01*
X0170550Y0154356D02*
X0173087Y0154356D01*
X0172888Y0154554D02*
X0174004Y0153438D01*
X0175461Y0152835D01*
X0177039Y0152835D01*
X0178496Y0153438D01*
X0179612Y0154554D01*
X0180215Y0156011D01*
X0180215Y0157589D01*
X0179612Y0159046D01*
X0178496Y0160162D01*
X0177039Y0160765D01*
X0175461Y0160765D01*
X0174004Y0160162D01*
X0172888Y0159046D01*
X0172285Y0157589D01*
X0172285Y0156011D01*
X0172888Y0154554D01*
X0172308Y0155954D02*
X0170550Y0155954D01*
X0170550Y0157553D02*
X0172285Y0157553D01*
X0172993Y0159151D02*
X0170550Y0159151D01*
X0170550Y0160750D02*
X0175423Y0160750D01*
X0177077Y0160750D02*
X0193281Y0160750D01*
X0193359Y0160765D02*
X0192593Y0160613D01*
X0191872Y0160314D01*
X0191222Y0159880D01*
X0190670Y0159328D01*
X0190236Y0158678D01*
X0189937Y0157957D01*
X0189785Y0157191D01*
X0189785Y0156800D01*
X0189785Y0156409D01*
X0189937Y0155643D01*
X0190236Y0154922D01*
X0190670Y0154272D01*
X0191222Y0153720D01*
X0191872Y0153286D01*
X0192593Y0152987D01*
X0193359Y0152835D01*
X0193750Y0152835D01*
X0194141Y0152835D01*
X0194907Y0152987D01*
X0195628Y0153286D01*
X0196278Y0153720D01*
X0196830Y0154272D01*
X0197264Y0154922D01*
X0197563Y0155643D01*
X0197715Y0156409D01*
X0197715Y0156800D01*
X0197715Y0157191D01*
X0197563Y0157957D01*
X0197264Y0158678D01*
X0196830Y0159328D01*
X0196278Y0159880D01*
X0195628Y0160314D01*
X0194907Y0160613D01*
X0194141Y0160765D01*
X0193750Y0160765D01*
X0193359Y0160765D01*
X0193750Y0160765D02*
X0193750Y0156800D01*
X0193750Y0156800D01*
X0193750Y0160765D01*
X0193750Y0160750D02*
X0193750Y0160750D01*
X0194219Y0160750D02*
X0199067Y0160750D01*
X0197478Y0162348D02*
X0170550Y0162348D01*
X0170550Y0163947D02*
X0195890Y0163947D01*
X0196948Y0159151D02*
X0200655Y0159151D01*
X0202244Y0157553D02*
X0197643Y0157553D01*
X0197715Y0156800D02*
X0193750Y0156800D01*
X0193750Y0156800D01*
X0193750Y0156800D01*
X0189785Y0156800D01*
X0193750Y0156800D01*
X0197715Y0156800D01*
X0197625Y0155954D02*
X0218843Y0155954D01*
X0220442Y0154356D02*
X0196886Y0154356D01*
X0193750Y0154356D02*
X0193750Y0154356D01*
X0193750Y0152835D02*
X0193750Y0156800D01*
X0193750Y0156800D01*
X0193750Y0152835D01*
X0193750Y0155954D02*
X0193750Y0155954D01*
X0193750Y0157553D02*
X0193750Y0157553D01*
X0193750Y0159151D02*
X0193750Y0159151D01*
X0190552Y0159151D02*
X0179507Y0159151D01*
X0180215Y0157553D02*
X0189857Y0157553D01*
X0189875Y0155954D02*
X0180192Y0155954D01*
X0179413Y0154356D02*
X0190614Y0154356D01*
X0190568Y0165545D02*
X0176932Y0165545D01*
X0178188Y0167144D02*
X0189312Y0167144D01*
X0188800Y0168742D02*
X0178700Y0168742D01*
X0178700Y0170341D02*
X0188800Y0170341D01*
X0189460Y0171939D02*
X0178040Y0171939D01*
X0176575Y0173538D02*
X0190925Y0173538D01*
X0170568Y0165545D02*
X0170550Y0165545D01*
X0166950Y0165545D02*
X0163047Y0165545D01*
X0162539Y0165335D02*
X0163996Y0165938D01*
X0165112Y0167054D01*
X0165715Y0168511D01*
X0165715Y0170089D01*
X0165112Y0171546D01*
X0163996Y0172662D01*
X0162539Y0173265D01*
X0160961Y0173265D01*
X0159504Y0172662D01*
X0158388Y0171546D01*
X0157785Y0170089D01*
X0157785Y0168511D01*
X0158388Y0167054D01*
X0159504Y0165938D01*
X0160961Y0165335D01*
X0162539Y0165335D01*
X0160453Y0165545D02*
X0154051Y0165545D01*
X0155490Y0163947D02*
X0166950Y0163947D01*
X0166950Y0162348D02*
X0156831Y0162348D01*
X0156800Y0160750D02*
X0166950Y0160750D01*
X0166950Y0167144D02*
X0165149Y0167144D01*
X0165715Y0168742D02*
X0166950Y0168742D01*
X0166950Y0170341D02*
X0165611Y0170341D01*
X0164719Y0171939D02*
X0166950Y0171939D01*
X0166950Y0173538D02*
X0146858Y0173538D01*
X0145550Y0175136D02*
X0165368Y0175136D01*
X0163770Y0176735D02*
X0157071Y0176735D01*
X0157279Y0176942D02*
X0156108Y0175771D01*
X0154578Y0175138D01*
X0152922Y0175138D01*
X0151392Y0175771D01*
X0150221Y0176942D01*
X0149588Y0178472D01*
X0149588Y0180128D01*
X0150221Y0181658D01*
X0151392Y0182829D01*
X0152922Y0183462D01*
X0154578Y0183462D01*
X0156108Y0182829D01*
X0157279Y0181658D01*
X0157912Y0180128D01*
X0157912Y0178472D01*
X0157279Y0176942D01*
X0157855Y0178333D02*
X0162171Y0178333D01*
X0160573Y0179932D02*
X0157912Y0179932D01*
X0157331Y0181530D02*
X0158974Y0181530D01*
X0157376Y0183129D02*
X0155383Y0183129D01*
X0155777Y0184727D02*
X0145550Y0184727D01*
X0145550Y0183129D02*
X0152117Y0183129D01*
X0150169Y0181530D02*
X0145550Y0181530D01*
X0145550Y0179932D02*
X0149588Y0179932D01*
X0149645Y0178333D02*
X0145550Y0178333D01*
X0145550Y0176735D02*
X0150429Y0176735D01*
X0148296Y0171939D02*
X0158781Y0171939D01*
X0157889Y0170341D02*
X0149735Y0170341D01*
X0151174Y0168742D02*
X0157785Y0168742D01*
X0158351Y0167144D02*
X0152612Y0167144D01*
X0147769Y0167144D02*
X0135149Y0167144D01*
X0135715Y0168742D02*
X0146330Y0168742D01*
X0144892Y0170341D02*
X0135611Y0170341D01*
X0134719Y0171939D02*
X0143453Y0171939D01*
X0141950Y0176735D02*
X0137912Y0176735D01*
X0137912Y0178333D02*
X0141950Y0178333D01*
X0141950Y0179932D02*
X0137912Y0179932D01*
X0137912Y0181530D02*
X0141950Y0181530D01*
X0141950Y0183129D02*
X0137191Y0183129D01*
X0142671Y0187924D02*
X0152580Y0187924D01*
X0154179Y0186326D02*
X0144270Y0186326D01*
X0141073Y0189523D02*
X0150982Y0189523D01*
X0144383Y0191121D02*
X0139474Y0191121D01*
X0137876Y0192720D02*
X0142785Y0192720D01*
X0141186Y0194318D02*
X0136277Y0194318D01*
X0134679Y0195917D02*
X0139588Y0195917D01*
X0138050Y0208705D02*
X0142406Y0208705D01*
X0139656Y0210303D02*
X0137792Y0210303D01*
X0138475Y0211902D02*
X0108050Y0211902D01*
X0108050Y0213501D02*
X0137867Y0213501D01*
X0137867Y0215099D02*
X0108050Y0215099D01*
X0108050Y0216698D02*
X0138268Y0216698D01*
X0139155Y0218296D02*
X0108050Y0218296D01*
X0108050Y0219895D02*
X0141198Y0219895D01*
X0144450Y0231084D02*
X0129875Y0231084D01*
X0129772Y0234281D02*
X0141015Y0234281D01*
X0139080Y0235880D02*
X0129244Y0235880D01*
X0128337Y0237478D02*
X0138237Y0237478D01*
X0137867Y0239077D02*
X0126859Y0239077D01*
X0124018Y0240675D02*
X0137867Y0240675D01*
X0128973Y0251865D02*
X0234483Y0251865D01*
X0234483Y0253463D02*
X0129635Y0253463D01*
X0129971Y0255062D02*
X0234483Y0255062D01*
X0234483Y0250266D02*
X0127840Y0250266D01*
X0126241Y0248668D02*
X0234483Y0248668D01*
X0213841Y0256660D02*
X0129971Y0256660D01*
X0129758Y0258259D02*
X0212836Y0258259D01*
X0212830Y0259857D02*
X0211398Y0259857D01*
X0204000Y0259857D02*
X0147438Y0259857D01*
X0147667Y0260024D02*
X0148327Y0260684D01*
X0148876Y0261440D01*
X0149300Y0262272D01*
X0149589Y0263160D01*
X0149717Y0263972D01*
X0144379Y0263972D01*
X0144379Y0258634D01*
X0145191Y0258762D01*
X0146079Y0259051D01*
X0146911Y0259475D01*
X0147667Y0260024D01*
X0148884Y0261456D02*
X0202558Y0261456D01*
X0201896Y0263054D02*
X0149554Y0263054D01*
X0149717Y0265128D02*
X0149589Y0265940D01*
X0149300Y0266828D01*
X0148876Y0267660D01*
X0148327Y0268416D01*
X0147667Y0269076D01*
X0146911Y0269625D01*
X0146079Y0270049D01*
X0145191Y0270338D01*
X0144379Y0270466D01*
X0144379Y0265128D01*
X0143223Y0265128D01*
X0143223Y0263972D01*
X0137885Y0263972D01*
X0138013Y0263160D01*
X0138302Y0262272D01*
X0138726Y0261440D01*
X0139275Y0260684D01*
X0139936Y0260024D01*
X0140691Y0259475D01*
X0141523Y0259051D01*
X0142412Y0258762D01*
X0143223Y0258634D01*
X0143223Y0263972D01*
X0144379Y0263972D01*
X0144379Y0265128D01*
X0149717Y0265128D01*
X0149488Y0266251D02*
X0201981Y0266251D01*
X0201765Y0264653D02*
X0144379Y0264653D01*
X0143223Y0264653D02*
X0123174Y0264653D01*
X0123050Y0266251D02*
X0138115Y0266251D01*
X0138013Y0265940D02*
X0137885Y0265128D01*
X0143223Y0265128D01*
X0143223Y0270466D01*
X0142412Y0270338D01*
X0141523Y0270049D01*
X0140691Y0269625D01*
X0139936Y0269076D01*
X0139275Y0268416D01*
X0138726Y0267660D01*
X0138302Y0266828D01*
X0138013Y0265940D01*
X0138864Y0267850D02*
X0123050Y0267850D01*
X0123050Y0269448D02*
X0140448Y0269448D01*
X0143223Y0269448D02*
X0144379Y0269448D01*
X0144379Y0267850D02*
X0143223Y0267850D01*
X0143223Y0266251D02*
X0144379Y0266251D01*
X0144379Y0263054D02*
X0143223Y0263054D01*
X0143223Y0261456D02*
X0144379Y0261456D01*
X0144379Y0259857D02*
X0143223Y0259857D01*
X0140165Y0259857D02*
X0129096Y0259857D01*
X0128138Y0261456D02*
X0138718Y0261456D01*
X0138048Y0263054D02*
X0126539Y0263054D01*
X0119326Y0264653D02*
X0104633Y0264653D01*
X0104633Y0265730D02*
X0103729Y0267911D01*
X0102060Y0269580D01*
X0099879Y0270484D01*
X0097518Y0270484D01*
X0095338Y0269580D01*
X0093668Y0267911D01*
X0092765Y0265730D01*
X0092765Y0263370D01*
X0093668Y0261189D01*
X0095338Y0259520D01*
X0097518Y0258616D01*
X0099879Y0258616D01*
X0102060Y0259520D01*
X0103729Y0261189D01*
X0104633Y0263370D01*
X0104633Y0265730D01*
X0104417Y0266251D02*
X0119450Y0266251D01*
X0119450Y0267850D02*
X0103755Y0267850D01*
X0102192Y0269448D02*
X0119450Y0269448D01*
X0119450Y0271047D02*
X0029454Y0271047D01*
X0029454Y0272645D02*
X0119450Y0272645D01*
X0119450Y0274244D02*
X0029454Y0274244D01*
X0029454Y0275842D02*
X0119450Y0275842D01*
X0119450Y0277441D02*
X0029454Y0277441D01*
X0029454Y0279039D02*
X0119450Y0279039D01*
X0119450Y0280638D02*
X0029454Y0280638D01*
X0029454Y0282237D02*
X0119450Y0282237D01*
X0123050Y0282237D02*
X0212830Y0282237D01*
X0212830Y0280638D02*
X0123050Y0280638D01*
X0123050Y0279039D02*
X0212830Y0279039D01*
X0212830Y0277441D02*
X0123050Y0277441D01*
X0123050Y0275842D02*
X0212830Y0275842D01*
X0212830Y0274244D02*
X0123050Y0274244D01*
X0123050Y0272645D02*
X0212830Y0272645D01*
X0212830Y0271047D02*
X0123050Y0271047D01*
X0115961Y0263054D02*
X0104502Y0263054D01*
X0103840Y0261456D02*
X0114362Y0261456D01*
X0113404Y0259857D02*
X0102398Y0259857D01*
X0095000Y0259857D02*
X0038438Y0259857D01*
X0039884Y0261456D02*
X0093558Y0261456D01*
X0092896Y0263054D02*
X0040554Y0263054D01*
X0040717Y0265128D02*
X0040589Y0265940D01*
X0040300Y0266828D01*
X0039876Y0267660D01*
X0039327Y0268416D01*
X0038667Y0269076D01*
X0037911Y0269625D01*
X0037079Y0270049D01*
X0036191Y0270338D01*
X0035379Y0270466D01*
X0035379Y0265128D01*
X0040717Y0265128D01*
X0040488Y0266251D02*
X0092981Y0266251D01*
X0092765Y0264653D02*
X0035379Y0264653D01*
X0035379Y0266251D02*
X0034223Y0266251D01*
X0034223Y0267850D02*
X0035379Y0267850D01*
X0035379Y0269448D02*
X0034223Y0269448D01*
X0031448Y0269448D02*
X0029454Y0269448D01*
X0029454Y0267850D02*
X0029864Y0267850D01*
X0029718Y0261456D02*
X0029454Y0261456D01*
X0029454Y0259857D02*
X0031165Y0259857D01*
X0029447Y0258259D02*
X0112742Y0258259D01*
X0112529Y0256660D02*
X0028442Y0256660D01*
X0034223Y0259857D02*
X0035379Y0259857D01*
X0035379Y0261456D02*
X0034223Y0261456D01*
X0034223Y0263054D02*
X0035379Y0263054D01*
X0039738Y0267850D02*
X0093643Y0267850D01*
X0095205Y0269448D02*
X0038154Y0269448D01*
X0030732Y0243872D02*
X0007800Y0243872D01*
X0007800Y0242274D02*
X0029507Y0242274D01*
X0028867Y0240675D02*
X0007800Y0240675D01*
X0007800Y0239077D02*
X0028867Y0239077D01*
X0029237Y0237478D02*
X0007800Y0237478D01*
X0007800Y0235880D02*
X0030080Y0235880D01*
X0032015Y0234281D02*
X0007800Y0234281D01*
X0007800Y0248668D02*
X0116259Y0248668D01*
X0114660Y0250266D02*
X0007800Y0250266D01*
X0007800Y0251865D02*
X0113527Y0251865D01*
X0112865Y0253463D02*
X0007800Y0253463D01*
X0007800Y0255062D02*
X0112529Y0255062D01*
X0115641Y0239077D02*
X0104633Y0239077D01*
X0104263Y0237478D02*
X0114163Y0237478D01*
X0113256Y0235880D02*
X0103420Y0235880D01*
X0101485Y0234281D02*
X0112728Y0234281D01*
X0104450Y0224690D02*
X0090550Y0224690D01*
X0090550Y0223092D02*
X0104450Y0223092D01*
X0108050Y0221493D02*
X0191950Y0221493D01*
X0202643Y0267850D02*
X0148738Y0267850D01*
X0147154Y0269448D02*
X0204205Y0269448D01*
X0211192Y0269448D02*
X0212830Y0269448D01*
X0212830Y0267850D02*
X0212755Y0267850D01*
X0148750Y0159151D02*
X0148750Y0159151D01*
X0148750Y0157553D02*
X0148750Y0157553D01*
X0148750Y0155954D02*
X0148750Y0155954D01*
X0148750Y0154356D02*
X0148750Y0154356D01*
X0132565Y0128779D02*
X0127550Y0128779D01*
X0127550Y0127181D02*
X0132088Y0127181D01*
X0132249Y0125582D02*
X0127550Y0125582D01*
X0127550Y0123984D02*
X0133180Y0123984D01*
X0132752Y0119188D02*
X0127550Y0119188D01*
X0127550Y0117590D02*
X0132088Y0117590D01*
X0132088Y0115991D02*
X0127550Y0115991D01*
X0127550Y0114393D02*
X0132771Y0114393D01*
X0135044Y0112794D02*
X0127550Y0112794D01*
X0127550Y0111196D02*
X0140950Y0111196D01*
X0144550Y0100006D02*
X0146348Y0100006D01*
X0146504Y0100162D02*
X0145388Y0099046D01*
X0144785Y0097589D01*
X0144785Y0096011D01*
X0145388Y0094554D01*
X0146504Y0093438D01*
X0147961Y0092835D01*
X0149539Y0092835D01*
X0150996Y0093438D01*
X0152112Y0094554D01*
X0152715Y0096011D01*
X0152715Y0097589D01*
X0152112Y0099046D01*
X0150996Y0100162D01*
X0149539Y0100765D01*
X0147961Y0100765D01*
X0146504Y0100162D01*
X0145124Y0098408D02*
X0144550Y0098408D01*
X0144550Y0096809D02*
X0144785Y0096809D01*
X0144550Y0095211D02*
X0145116Y0095211D01*
X0144550Y0093612D02*
X0146330Y0093612D01*
X0144550Y0092014D02*
X0166950Y0092014D01*
X0166950Y0093612D02*
X0163670Y0093612D01*
X0163496Y0093438D02*
X0164612Y0094554D01*
X0165215Y0096011D01*
X0165215Y0097589D01*
X0164612Y0099046D01*
X0163496Y0100162D01*
X0162039Y0100765D01*
X0160461Y0100765D01*
X0159004Y0100162D01*
X0157888Y0099046D01*
X0157285Y0097589D01*
X0157285Y0096011D01*
X0157888Y0094554D01*
X0159004Y0093438D01*
X0160461Y0092835D01*
X0162039Y0092835D01*
X0163496Y0093438D01*
X0164884Y0095211D02*
X0166950Y0095211D01*
X0166950Y0096809D02*
X0165215Y0096809D01*
X0164876Y0098408D02*
X0166950Y0098408D01*
X0166950Y0100006D02*
X0163652Y0100006D01*
X0158848Y0100006D02*
X0151152Y0100006D01*
X0152376Y0098408D02*
X0157624Y0098408D01*
X0157285Y0096809D02*
X0152715Y0096809D01*
X0152384Y0095211D02*
X0157616Y0095211D01*
X0158830Y0093612D02*
X0151170Y0093612D01*
X0151464Y0085568D02*
X0146036Y0085568D01*
X0144981Y0084514D01*
X0144981Y0079086D01*
X0146036Y0078031D01*
X0151464Y0078031D01*
X0152518Y0079086D01*
X0152518Y0084514D01*
X0151464Y0085568D01*
X0152518Y0084021D02*
X0155702Y0084021D01*
X0155823Y0084202D02*
X0155410Y0083585D01*
X0155126Y0082899D01*
X0154981Y0082171D01*
X0154981Y0081800D01*
X0154981Y0081429D01*
X0155126Y0080701D01*
X0155410Y0080015D01*
X0155823Y0079398D01*
X0156348Y0078873D01*
X0156965Y0078460D01*
X0157651Y0078176D01*
X0158379Y0078031D01*
X0158750Y0078031D01*
X0158750Y0081800D01*
X0162518Y0081800D01*
X0162518Y0082171D01*
X0162374Y0082899D01*
X0162090Y0083585D01*
X0161677Y0084202D01*
X0161152Y0084727D01*
X0160535Y0085140D01*
X0159849Y0085424D01*
X0159121Y0085568D01*
X0158750Y0085568D01*
X0158379Y0085568D01*
X0157651Y0085424D01*
X0156965Y0085140D01*
X0156348Y0084727D01*
X0155823Y0084202D01*
X0155032Y0082423D02*
X0152518Y0082423D01*
X0152518Y0080824D02*
X0155102Y0080824D01*
X0154981Y0081800D02*
X0158750Y0081800D01*
X0158750Y0081800D01*
X0158750Y0081800D01*
X0158750Y0085568D01*
X0158750Y0081800D01*
X0162518Y0081800D01*
X0162518Y0081429D01*
X0162374Y0080701D01*
X0162090Y0080015D01*
X0161677Y0079398D01*
X0161152Y0078873D01*
X0160535Y0078460D01*
X0159849Y0078176D01*
X0159121Y0078031D01*
X0158750Y0078031D01*
X0158750Y0081800D01*
X0158750Y0081800D01*
X0158750Y0081800D01*
X0154981Y0081800D01*
X0155995Y0079226D02*
X0152518Y0079226D01*
X0158750Y0079226D02*
X0158750Y0079226D01*
X0158750Y0080824D02*
X0158750Y0080824D01*
X0158750Y0082423D02*
X0158750Y0082423D01*
X0158750Y0084021D02*
X0158750Y0084021D01*
X0161798Y0084021D02*
X0166950Y0084021D01*
X0166950Y0082423D02*
X0162468Y0082423D01*
X0162398Y0080824D02*
X0166950Y0080824D01*
X0166950Y0079226D02*
X0161505Y0079226D01*
X0166950Y0077627D02*
X0144550Y0077627D01*
X0144550Y0079226D02*
X0144981Y0079226D01*
X0144981Y0080824D02*
X0144550Y0080824D01*
X0144550Y0082423D02*
X0144981Y0082423D01*
X0144981Y0084021D02*
X0144550Y0084021D01*
X0144550Y0085620D02*
X0166950Y0085620D01*
X0166950Y0087218D02*
X0144550Y0087218D01*
X0144550Y0088817D02*
X0166950Y0088817D01*
X0166950Y0090415D02*
X0144550Y0090415D01*
X0140950Y0090415D02*
X0132884Y0090415D01*
X0134707Y0088817D02*
X0140950Y0088817D01*
X0140950Y0087218D02*
X0135215Y0087218D01*
X0135053Y0085620D02*
X0140950Y0085620D01*
X0140950Y0084021D02*
X0134079Y0084021D01*
X0129616Y0090415D02*
X0127550Y0090415D01*
X0127550Y0088817D02*
X0127793Y0088817D01*
X0127550Y0084021D02*
X0128421Y0084021D01*
X0127550Y0082423D02*
X0140950Y0082423D01*
X0140950Y0080824D02*
X0127550Y0080824D01*
X0127550Y0079226D02*
X0140950Y0079226D01*
X0140950Y0077627D02*
X0127550Y0077627D01*
X0127550Y0076029D02*
X0140950Y0076029D01*
X0140950Y0074430D02*
X0127550Y0074430D01*
X0127550Y0072832D02*
X0129414Y0072832D01*
X0127759Y0071233D02*
X0127550Y0071233D01*
X0127550Y0066437D02*
X0128505Y0066437D01*
X0127550Y0064839D02*
X0226450Y0064839D01*
X0226450Y0066437D02*
X0133995Y0066437D01*
X0135018Y0068036D02*
X0226450Y0068036D01*
X0226450Y0069634D02*
X0135215Y0069634D01*
X0134741Y0071233D02*
X0226450Y0071233D01*
X0226450Y0072832D02*
X0169827Y0072832D01*
X0170550Y0074430D02*
X0226450Y0074430D01*
X0226450Y0076029D02*
X0170550Y0076029D01*
X0170550Y0077627D02*
X0226450Y0077627D01*
X0226450Y0079226D02*
X0170550Y0079226D01*
X0170550Y0080824D02*
X0226450Y0080824D01*
X0226450Y0082423D02*
X0170550Y0082423D01*
X0170550Y0084021D02*
X0226450Y0084021D01*
X0226450Y0085620D02*
X0170550Y0085620D01*
X0170550Y0087218D02*
X0226450Y0087218D01*
X0226450Y0088817D02*
X0170550Y0088817D01*
X0170550Y0090415D02*
X0226450Y0090415D01*
X0226450Y0092014D02*
X0170550Y0092014D01*
X0170550Y0093612D02*
X0173830Y0093612D01*
X0174004Y0093438D02*
X0172888Y0094554D01*
X0172285Y0096011D01*
X0172285Y0097589D01*
X0172888Y0099046D01*
X0174004Y0100162D01*
X0175461Y0100765D01*
X0177039Y0100765D01*
X0178496Y0100162D01*
X0179612Y0099046D01*
X0180215Y0097589D01*
X0180215Y0096011D01*
X0179612Y0094554D01*
X0178496Y0093438D01*
X0177039Y0092835D01*
X0175461Y0092835D01*
X0174004Y0093438D01*
X0172616Y0095211D02*
X0170550Y0095211D01*
X0170550Y0096809D02*
X0172285Y0096809D01*
X0172624Y0098408D02*
X0170550Y0098408D01*
X0170550Y0100006D02*
X0173848Y0100006D01*
X0170550Y0101605D02*
X0226450Y0101605D01*
X0226450Y0103203D02*
X0187414Y0103203D01*
X0185086Y0103203D02*
X0170550Y0103203D01*
X0170550Y0104802D02*
X0182496Y0104802D01*
X0180897Y0106400D02*
X0170550Y0106400D01*
X0170550Y0107999D02*
X0179299Y0107999D01*
X0178950Y0109597D02*
X0170550Y0109597D01*
X0170550Y0111196D02*
X0178950Y0111196D01*
X0178950Y0112794D02*
X0170550Y0112794D01*
X0170550Y0114393D02*
X0178950Y0114393D01*
X0178950Y0115991D02*
X0170550Y0115991D01*
X0170550Y0117590D02*
X0178950Y0117590D01*
X0178950Y0119188D02*
X0170550Y0119188D01*
X0170550Y0120787D02*
X0178950Y0120787D01*
X0178950Y0122385D02*
X0170550Y0122385D01*
X0170550Y0131976D02*
X0226450Y0131976D01*
X0226450Y0130378D02*
X0207974Y0130378D01*
X0208496Y0130162D02*
X0207039Y0130765D01*
X0205461Y0130765D01*
X0204004Y0130162D01*
X0202888Y0129046D01*
X0202285Y0127589D01*
X0202285Y0126011D01*
X0202888Y0124554D01*
X0204004Y0123438D01*
X0205461Y0122835D01*
X0207039Y0122835D01*
X0208496Y0123438D01*
X0209612Y0124554D01*
X0210215Y0126011D01*
X0210215Y0127589D01*
X0209612Y0129046D01*
X0208496Y0130162D01*
X0209722Y0128779D02*
X0226450Y0128779D01*
X0226450Y0127181D02*
X0210215Y0127181D01*
X0210038Y0125582D02*
X0226450Y0125582D01*
X0226450Y0123984D02*
X0209042Y0123984D01*
X0203458Y0123984D02*
X0199042Y0123984D01*
X0198496Y0123438D02*
X0199612Y0124554D01*
X0200215Y0126011D01*
X0200215Y0127589D01*
X0199612Y0129046D01*
X0198496Y0130162D01*
X0197039Y0130765D01*
X0195461Y0130765D01*
X0194004Y0130162D01*
X0192888Y0129046D01*
X0192285Y0127589D01*
X0192285Y0126011D01*
X0192888Y0124554D01*
X0194004Y0123438D01*
X0195461Y0122835D01*
X0197039Y0122835D01*
X0198496Y0123438D01*
X0200038Y0125582D02*
X0202462Y0125582D01*
X0202285Y0127181D02*
X0200215Y0127181D01*
X0199722Y0128779D02*
X0202778Y0128779D01*
X0204526Y0130378D02*
X0197974Y0130378D01*
X0195996Y0133438D02*
X0197112Y0134554D01*
X0197715Y0136011D01*
X0197715Y0137589D01*
X0197112Y0139046D01*
X0195996Y0140162D01*
X0194539Y0140765D01*
X0192961Y0140765D01*
X0191504Y0140162D01*
X0190388Y0139046D01*
X0189785Y0137589D01*
X0189785Y0136011D01*
X0190388Y0134554D01*
X0191504Y0133438D01*
X0192961Y0132835D01*
X0194539Y0132835D01*
X0195996Y0133438D01*
X0196133Y0133575D02*
X0226450Y0133575D01*
X0226450Y0135173D02*
X0197368Y0135173D01*
X0197715Y0136772D02*
X0226450Y0136772D01*
X0226450Y0138370D02*
X0197392Y0138370D01*
X0196189Y0139969D02*
X0226450Y0139969D01*
X0226450Y0122385D02*
X0183550Y0122385D01*
X0183550Y0120787D02*
X0226450Y0120787D01*
X0226450Y0119188D02*
X0183550Y0119188D01*
X0183550Y0117590D02*
X0226450Y0117590D01*
X0226450Y0115991D02*
X0183550Y0115991D01*
X0183550Y0114393D02*
X0226450Y0114393D01*
X0226450Y0112794D02*
X0183550Y0112794D01*
X0183550Y0111196D02*
X0226450Y0111196D01*
X0226450Y0109597D02*
X0188782Y0109597D01*
X0189832Y0107999D02*
X0226450Y0107999D01*
X0226450Y0106400D02*
X0190018Y0106400D01*
X0189501Y0104802D02*
X0226450Y0104802D01*
X0226450Y0100006D02*
X0208652Y0100006D01*
X0208496Y0100162D02*
X0207039Y0100765D01*
X0205461Y0100765D01*
X0204004Y0100162D01*
X0202888Y0099046D01*
X0202285Y0097589D01*
X0202285Y0096011D01*
X0202888Y0094554D01*
X0204004Y0093438D01*
X0205461Y0092835D01*
X0207039Y0092835D01*
X0208496Y0093438D01*
X0209612Y0094554D01*
X0210215Y0096011D01*
X0210215Y0097589D01*
X0209612Y0099046D01*
X0208496Y0100162D01*
X0209876Y0098408D02*
X0226450Y0098408D01*
X0226450Y0096809D02*
X0210215Y0096809D01*
X0209884Y0095211D02*
X0226450Y0095211D01*
X0226450Y0093612D02*
X0208670Y0093612D01*
X0203830Y0093612D02*
X0198670Y0093612D01*
X0198496Y0093438D02*
X0199612Y0094554D01*
X0200215Y0096011D01*
X0200215Y0097589D01*
X0199612Y0099046D01*
X0198496Y0100162D01*
X0197039Y0100765D01*
X0195461Y0100765D01*
X0194004Y0100162D01*
X0192888Y0099046D01*
X0192285Y0097589D01*
X0192285Y0096011D01*
X0192888Y0094554D01*
X0194004Y0093438D01*
X0195461Y0092835D01*
X0197039Y0092835D01*
X0198496Y0093438D01*
X0199884Y0095211D02*
X0202616Y0095211D01*
X0202285Y0096809D02*
X0200215Y0096809D01*
X0199876Y0098408D02*
X0202624Y0098408D01*
X0203848Y0100006D02*
X0198652Y0100006D01*
X0193848Y0100006D02*
X0178652Y0100006D01*
X0179876Y0098408D02*
X0192624Y0098408D01*
X0192285Y0096809D02*
X0180215Y0096809D01*
X0179884Y0095211D02*
X0192616Y0095211D01*
X0193830Y0093612D02*
X0178670Y0093612D01*
X0183550Y0123984D02*
X0183737Y0123984D01*
X0182481Y0127181D02*
X0181622Y0127181D01*
X0182991Y0128779D02*
X0180023Y0128779D01*
X0177974Y0130378D02*
X0185040Y0130378D01*
X0187460Y0130378D02*
X0194526Y0130378D01*
X0192778Y0128779D02*
X0189509Y0128779D01*
X0190018Y0127181D02*
X0192285Y0127181D01*
X0192462Y0125582D02*
X0189825Y0125582D01*
X0188763Y0123984D02*
X0193458Y0123984D01*
X0191367Y0133575D02*
X0178633Y0133575D01*
X0179868Y0135173D02*
X0190132Y0135173D01*
X0189785Y0136772D02*
X0180215Y0136772D01*
X0179892Y0138370D02*
X0190108Y0138370D01*
X0191311Y0139969D02*
X0178689Y0139969D01*
X0133161Y0109597D02*
X0127550Y0109597D01*
X0127550Y0107999D02*
X0132241Y0107999D01*
X0132088Y0106400D02*
X0127550Y0106400D01*
X0127550Y0104802D02*
X0132573Y0104802D01*
X0133086Y0072832D02*
X0141673Y0072832D01*
X0127550Y0063240D02*
X0226450Y0063240D01*
X0226450Y0061642D02*
X0127550Y0061642D01*
X0127550Y0060043D02*
X0226450Y0060043D01*
X0226450Y0058445D02*
X0127550Y0058445D01*
X0127550Y0056846D02*
X0226450Y0056846D01*
X0226450Y0055248D02*
X0127550Y0055248D01*
X0127550Y0053649D02*
X0171768Y0053649D01*
X0170946Y0053309D02*
X0172765Y0054063D01*
X0174735Y0054063D01*
X0176554Y0053309D01*
X0177946Y0051917D01*
X0178700Y0050098D01*
X0178700Y0048128D01*
X0177946Y0046309D01*
X0176554Y0044917D01*
X0174735Y0044163D01*
X0172765Y0044163D01*
X0170946Y0044917D01*
X0169554Y0046309D01*
X0168800Y0048128D01*
X0168800Y0050098D01*
X0169554Y0051917D01*
X0170946Y0053309D01*
X0169688Y0052051D02*
X0127550Y0052051D01*
X0127550Y0050452D02*
X0168947Y0050452D01*
X0168800Y0048854D02*
X0127550Y0048854D01*
X0127840Y0047255D02*
X0169162Y0047255D01*
X0170206Y0045657D02*
X0129439Y0045657D01*
X0130050Y0044058D02*
X0226450Y0044058D01*
X0226450Y0042460D02*
X0130050Y0042460D01*
X0130050Y0040861D02*
X0226450Y0040861D01*
X0226450Y0039263D02*
X0130050Y0039263D01*
X0130050Y0037664D02*
X0226450Y0037664D01*
X0226450Y0036066D02*
X0130050Y0036066D01*
X0140180Y0016884D02*
X0234483Y0016884D01*
X0234483Y0012088D02*
X0007800Y0012088D01*
X0007800Y0010490D02*
X0234483Y0010490D01*
X0234483Y0008891D02*
X0007800Y0008891D01*
X0007800Y0045657D02*
X0025206Y0045657D01*
X0024554Y0046309D02*
X0025946Y0044917D01*
X0027765Y0044163D01*
X0029735Y0044163D01*
X0031554Y0044917D01*
X0032946Y0046309D01*
X0033700Y0048128D01*
X0033700Y0050098D01*
X0032946Y0051917D01*
X0031554Y0053309D01*
X0029735Y0054063D01*
X0027765Y0054063D01*
X0025946Y0053309D01*
X0024554Y0051917D01*
X0023800Y0050098D01*
X0023800Y0048128D01*
X0024554Y0046309D01*
X0024162Y0047255D02*
X0007800Y0047255D01*
X0007800Y0048854D02*
X0023800Y0048854D01*
X0023947Y0050452D02*
X0007800Y0050452D01*
X0007800Y0052051D02*
X0024688Y0052051D01*
X0026768Y0053649D02*
X0007800Y0053649D01*
X0030732Y0053649D02*
X0046768Y0053649D01*
X0045946Y0053309D02*
X0044554Y0051917D01*
X0043800Y0050098D01*
X0043800Y0048128D01*
X0044554Y0046309D01*
X0045946Y0044917D01*
X0047765Y0044163D01*
X0049735Y0044163D01*
X0051554Y0044917D01*
X0052946Y0046309D01*
X0053700Y0048128D01*
X0053700Y0050098D01*
X0052946Y0051917D01*
X0051554Y0053309D01*
X0049735Y0054063D01*
X0047765Y0054063D01*
X0045946Y0053309D01*
X0044688Y0052051D02*
X0032812Y0052051D01*
X0033553Y0050452D02*
X0043947Y0050452D01*
X0043800Y0048854D02*
X0033700Y0048854D01*
X0033338Y0047255D02*
X0044162Y0047255D01*
X0045206Y0045657D02*
X0032294Y0045657D01*
X0052294Y0045657D02*
X0063800Y0045657D01*
X0063800Y0047255D02*
X0053338Y0047255D01*
X0053700Y0048854D02*
X0063800Y0048854D01*
X0063800Y0050452D02*
X0053553Y0050452D01*
X0052812Y0052051D02*
X0063800Y0052051D01*
X0064442Y0053649D02*
X0050732Y0053649D01*
X0047145Y0069634D02*
X0070355Y0069634D01*
X0069785Y0071233D02*
X0047715Y0071233D01*
X0047615Y0072832D02*
X0069885Y0072832D01*
X0070772Y0074430D02*
X0046728Y0074430D01*
X0062505Y0093612D02*
X0091330Y0093612D01*
X0090116Y0095211D02*
X0061226Y0095211D01*
X0076728Y0074430D02*
X0080772Y0074430D01*
X0079885Y0072832D02*
X0077615Y0072832D01*
X0077715Y0071233D02*
X0079785Y0071233D01*
X0080355Y0069634D02*
X0077145Y0069634D01*
X0101603Y0106400D02*
X0007800Y0106400D01*
X0007800Y0133575D02*
X0102205Y0133575D01*
X0102088Y0135173D02*
X0007800Y0135173D01*
X0007800Y0136772D02*
X0100525Y0136772D01*
X0098927Y0138370D02*
X0095318Y0138370D01*
X0096487Y0114393D02*
X0098090Y0114393D01*
X0114741Y0071233D02*
X0115350Y0071233D01*
X0115350Y0069634D02*
X0115215Y0069634D01*
X0115350Y0068036D02*
X0115018Y0068036D01*
X0115350Y0066437D02*
X0113995Y0066437D01*
X0175732Y0053649D02*
X0191768Y0053649D01*
X0190946Y0053309D02*
X0189554Y0051917D01*
X0188800Y0050098D01*
X0188800Y0048128D01*
X0189554Y0046309D01*
X0190946Y0044917D01*
X0192765Y0044163D01*
X0194735Y0044163D01*
X0196554Y0044917D01*
X0197946Y0046309D01*
X0198700Y0048128D01*
X0198700Y0050098D01*
X0197946Y0051917D01*
X0196554Y0053309D01*
X0194735Y0054063D01*
X0192765Y0054063D01*
X0190946Y0053309D01*
X0189688Y0052051D02*
X0177812Y0052051D01*
X0178553Y0050452D02*
X0188947Y0050452D01*
X0188800Y0048854D02*
X0178700Y0048854D01*
X0178338Y0047255D02*
X0189162Y0047255D01*
X0190206Y0045657D02*
X0177294Y0045657D01*
X0197294Y0045657D02*
X0208800Y0045657D01*
X0208800Y0045218D02*
X0209855Y0044163D01*
X0217645Y0044163D01*
X0218700Y0045218D01*
X0218700Y0053008D01*
X0217645Y0054063D01*
X0209855Y0054063D01*
X0208800Y0053008D01*
X0208800Y0045218D01*
X0208800Y0047255D02*
X0198338Y0047255D01*
X0198700Y0048854D02*
X0208800Y0048854D01*
X0208800Y0050452D02*
X0198553Y0050452D01*
X0197812Y0052051D02*
X0208800Y0052051D01*
X0209442Y0053649D02*
X0195732Y0053649D01*
X0218058Y0053649D02*
X0226450Y0053649D01*
X0226450Y0052051D02*
X0218700Y0052051D01*
X0218700Y0050452D02*
X0226450Y0050452D01*
X0226450Y0048854D02*
X0218700Y0048854D01*
X0218700Y0047255D02*
X0226450Y0047255D01*
X0226450Y0045657D02*
X0218700Y0045657D01*
X0123950Y0163947D02*
X0123800Y0163947D01*
X0123800Y0165545D02*
X0123950Y0165545D01*
X0123950Y0167144D02*
X0123800Y0167144D01*
X0123800Y0168742D02*
X0123950Y0168742D01*
X0123950Y0170341D02*
X0123800Y0170341D01*
X0123800Y0171939D02*
X0123950Y0171939D01*
X0115169Y0183129D02*
X0007800Y0183129D01*
X0007800Y0184727D02*
X0115570Y0184727D01*
X0120200Y0186326D02*
X0007800Y0186326D01*
X0007800Y0187924D02*
X0120200Y0187924D01*
X0120200Y0189523D02*
X0007800Y0189523D01*
X0007800Y0191121D02*
X0120200Y0191121D01*
X0120200Y0192720D02*
X0007800Y0192720D01*
X0007800Y0194318D02*
X0120200Y0194318D01*
X0120200Y0195917D02*
X0007800Y0195917D01*
X0007800Y0197515D02*
X0087989Y0197515D01*
X0086950Y0199114D02*
X0007800Y0199114D01*
X0007800Y0200712D02*
X0086950Y0200712D01*
X0086950Y0202311D02*
X0007800Y0202311D01*
X0007800Y0203909D02*
X0086950Y0203909D01*
X0086950Y0205508D02*
X0007800Y0205508D01*
X0007800Y0207106D02*
X0086950Y0207106D01*
D24*
X0093750Y0141800D02*
X0098750Y0141800D01*
X0103750Y0136800D01*
X0106250Y0136800D01*
X0106250Y0126800D02*
X0103750Y0126800D01*
X0098750Y0121800D01*
X0093750Y0121800D01*
X0093750Y0111800D02*
X0098750Y0111800D01*
X0103750Y0116800D01*
X0106250Y0116800D01*
X0093750Y0076800D02*
X0098750Y0071800D01*
X0098750Y0026800D01*
X0106250Y0019300D01*
X0136250Y0019300D02*
X0218750Y0019300D01*
X0228750Y0029300D01*
X0228750Y0149300D01*
X0218750Y0159300D01*
X0203750Y0159300D01*
X0193750Y0169363D01*
X0178750Y0126800D02*
X0176250Y0126800D01*
X0178750Y0126800D02*
X0181250Y0124300D01*
X0181250Y0109300D01*
X0183750Y0106800D01*
X0186250Y0106800D01*
M02*
