G75*
%MOIN*%
%OFA0B0*%
%FSLAX25Y25*%
%IPPOS*%
%LPD*%
%AMOC8*
5,1,8,0,0,1.08239X$1,22.5*
%
%ADD10R,0.06299X0.06299*%
%ADD11C,0.06299*%
%ADD12C,0.03937*%
%ADD13C,0.04331*%
%ADD14R,0.03937X0.03937*%
%ADD15C,0.04724*%
%ADD16R,0.04724X0.04724*%
%ADD17C,0.08268*%
%ADD18C,0.13843*%
%ADD19C,0.05512*%
%ADD20C,0.00000*%
D10*
X0068750Y0049113D03*
X0068750Y0169363D03*
X0213750Y0169363D03*
X0213750Y0049113D03*
D11*
X0193750Y0049113D03*
X0173750Y0049113D03*
X0173750Y0169363D03*
X0193750Y0169363D03*
X0048750Y0169363D03*
X0028750Y0169363D03*
X0028750Y0049113D03*
X0048750Y0049113D03*
D12*
X0073750Y0111800D03*
X0093750Y0111800D03*
X0093750Y0121800D03*
X0093750Y0141800D03*
X0132000Y0159300D03*
X0148750Y0156800D03*
X0148750Y0136800D03*
X0186250Y0126800D03*
X0186250Y0106800D03*
X0158750Y0081800D03*
D13*
X0161250Y0096800D03*
X0148750Y0096800D03*
X0136250Y0096800D03*
X0131250Y0086800D03*
X0131250Y0069300D03*
X0111250Y0069300D03*
X0111250Y0086800D03*
X0106250Y0096800D03*
X0093750Y0096800D03*
X0083750Y0101800D03*
X0073750Y0101800D03*
X0063750Y0116800D03*
X0043750Y0101800D03*
X0043750Y0071800D03*
X0073750Y0071800D03*
X0083750Y0071800D03*
X0093750Y0076800D03*
X0148750Y0126800D03*
X0161250Y0126800D03*
X0176250Y0126800D03*
X0176250Y0136800D03*
X0176250Y0156800D03*
X0161750Y0169300D03*
X0131750Y0169300D03*
X0176250Y0096800D03*
X0196250Y0096800D03*
X0206250Y0096800D03*
X0206250Y0126800D03*
X0196250Y0126800D03*
X0193750Y0136800D03*
X0193750Y0156800D03*
X0063750Y0146800D03*
D14*
X0132000Y0149300D03*
X0148750Y0081800D03*
D15*
X0136250Y0106800D03*
X0136250Y0116800D03*
X0136250Y0126800D03*
X0136250Y0136800D03*
X0106250Y0126800D03*
X0106250Y0116800D03*
X0106250Y0106800D03*
X0083750Y0121800D03*
X0073750Y0121800D03*
X0058750Y0101800D03*
X0058750Y0091800D03*
X0053750Y0141800D03*
X0043750Y0141800D03*
X0153750Y0179300D03*
D16*
X0133750Y0179300D03*
X0106250Y0136800D03*
X0083750Y0141800D03*
X0073750Y0141800D03*
X0053750Y0121800D03*
X0043750Y0121800D03*
X0058750Y0081800D03*
D17*
X0034801Y0214550D03*
X0034801Y0239550D03*
X0034801Y0264550D03*
X0098699Y0264550D03*
X0098699Y0239550D03*
X0098699Y0214550D03*
X0143801Y0214550D03*
X0143801Y0239550D03*
X0143801Y0264550D03*
X0207699Y0264550D03*
X0207699Y0239550D03*
X0207699Y0214550D03*
D18*
X0121250Y0232388D03*
X0121250Y0256010D03*
D19*
X0116250Y0029300D03*
X0116250Y0019300D03*
X0106250Y0019300D03*
X0106250Y0029300D03*
X0126250Y0029300D03*
X0126250Y0019300D03*
X0136250Y0019300D03*
X0136250Y0029300D03*
D20*
X0237283Y0005800D02*
X0005000Y0005800D01*
X0005000Y0258831D01*
X0026654Y0258831D01*
X0026654Y0286391D01*
X0215630Y0286391D01*
X0215630Y0258831D01*
X0237283Y0258831D01*
X0237283Y0005800D01*
M02*
