G75*
%MOIN*%
%OFA0B0*%
%FSLAX25Y25*%
%IPPOS*%
%LPD*%
%AMOC8*
5,1,8,0,0,1.08239X$1,22.5*
%
%ADD10C,0.08268*%
%ADD11C,0.05512*%
%ADD12R,0.05512X0.05512*%
%ADD13R,0.07087X0.07087*%
%ADD14C,0.07087*%
%ADD15R,0.04331X0.04331*%
%ADD16C,0.04331*%
%ADD17C,0.13843*%
%ADD18C,0.06299*%
%ADD19C,0.05118*%
%ADD20C,0.00000*%
%ADD21C,0.05000*%
%ADD22C,0.04724*%
%ADD23R,0.04724X0.04724*%
%ADD24R,0.12661X0.12661*%
%ADD25C,0.12661*%
%ADD26C,0.05906*%
%ADD27R,0.05906X0.05906*%
D10*
X0034425Y0215413D03*
X0034425Y0240413D03*
X0034425Y0265413D03*
X0098323Y0265413D03*
X0098323Y0240413D03*
X0098323Y0215413D03*
X0143801Y0215350D03*
X0143801Y0240350D03*
X0143801Y0265350D03*
X0207699Y0265350D03*
X0207699Y0240350D03*
X0207699Y0215350D03*
D11*
X0098750Y0179100D03*
D12*
X0098750Y0159100D03*
D13*
X0068750Y0169163D03*
X0068750Y0052663D03*
X0213750Y0052663D03*
X0213750Y0169163D03*
D14*
X0193750Y0169163D03*
X0173750Y0169163D03*
X0173750Y0052663D03*
X0193750Y0052663D03*
X0048750Y0052663D03*
X0028750Y0052663D03*
X0028750Y0169163D03*
X0048750Y0169163D03*
D15*
X0046250Y0144160D03*
X0026245Y0086420D03*
X0026245Y0065170D03*
X0101190Y0102600D03*
X0117320Y0124105D03*
X0203745Y0134170D03*
D16*
X0203748Y0142030D03*
X0203750Y0119100D03*
X0213750Y0119100D03*
X0213750Y0089100D03*
X0203750Y0089100D03*
X0211250Y0079100D03*
X0181250Y0079100D03*
X0171250Y0089100D03*
X0171250Y0119100D03*
X0125180Y0124102D03*
X0098750Y0114100D03*
X0093310Y0102600D03*
X0091250Y0091600D03*
X0101250Y0091600D03*
X0088750Y0114100D03*
X0071250Y0094100D03*
X0051250Y0094100D03*
X0041250Y0094100D03*
X0026248Y0094280D03*
X0026248Y0073030D03*
X0041250Y0064100D03*
X0051250Y0064100D03*
X0071250Y0064100D03*
X0091250Y0061600D03*
X0101250Y0061600D03*
X0098750Y0144100D03*
X0088750Y0144100D03*
X0088750Y0159100D03*
X0058750Y0159100D03*
X0046250Y0152040D03*
D17*
X0121000Y0233163D03*
X0121000Y0256785D03*
D18*
X0116250Y0026600D03*
X0116250Y0016600D03*
X0106250Y0016600D03*
X0106250Y0026600D03*
X0126250Y0026600D03*
X0126250Y0016600D03*
X0136250Y0016600D03*
X0136250Y0026600D03*
D19*
X0181250Y0094100D03*
X0193750Y0094100D03*
X0193750Y0114100D03*
X0181250Y0114100D03*
X0081250Y0086600D03*
X0081250Y0066600D03*
X0061250Y0066600D03*
X0061250Y0086600D03*
X0036250Y0109100D03*
X0023750Y0109100D03*
X0023750Y0129100D03*
X0036250Y0129100D03*
X0058750Y0144100D03*
X0078750Y0144100D03*
D20*
X0005000Y0006600D02*
X0237283Y0006600D01*
X0237283Y0259631D01*
X0215630Y0259631D01*
X0215630Y0287191D01*
X0026654Y0287191D01*
X0026654Y0259631D01*
X0005000Y0259631D01*
X0005000Y0006600D01*
D21*
X0048750Y0104100D03*
X0058750Y0104100D03*
X0068750Y0104100D03*
X0078750Y0104100D03*
X0078750Y0134100D03*
X0068750Y0134100D03*
X0058750Y0134100D03*
X0048750Y0134100D03*
D22*
X0136250Y0114100D03*
X0146250Y0094100D03*
X0146250Y0066600D03*
X0136250Y0046600D03*
X0181250Y0124100D03*
X0181250Y0134100D03*
X0181250Y0144100D03*
D23*
X0146250Y0114100D03*
X0136250Y0094100D03*
X0136250Y0066600D03*
X0146250Y0046600D03*
D24*
X0121250Y0053350D03*
D25*
X0121250Y0071600D03*
X0121250Y0089750D03*
D26*
X0138750Y0085350D03*
X0153250Y0075350D03*
D27*
X0153250Y0085350D03*
X0138750Y0075350D03*
M02*
