%
M48
M72
T01C0.01575
T02C0.01969
T03C0.02362
T04C0.02756
T05C0.03150
T06C0.03200
T07C0.03543
T08C0.04331
T09C0.05512
T10C0.08661
T11C0.09843
%
T01
X41250Y64100
X51250Y64100
X71250Y64100
X91250Y61600
X101250Y61600
X101250Y91600
X101190Y102600
X93310Y102600
X91250Y91600
X88750Y114100
X98750Y114100
X98750Y144100
X88750Y144100
X88750Y159100
X58750Y159100
X46250Y152040
X46250Y144160
X41250Y94100
X51250Y94100
X71250Y94100
X171250Y89100
X181250Y79100
X203750Y89100
X213750Y89100
X211250Y79100
X213750Y119100
X203750Y119100
X171250Y119100
T02
X9500Y10850
X9500Y41600
X26245Y65170
X26248Y73030
X19500Y81600
X26245Y86420
X26248Y94280
X9500Y81600
X38750Y57100
X38750Y48350
X42000Y31600
X41250Y10850
X81250Y10850
X81250Y30850
X84500Y49100
X84500Y59100
X84500Y74100
X102000Y80350
X114500Y80350
X136250Y66600
X146250Y66600
X141250Y52100
X136250Y46600
X141250Y42100
X146250Y46600
X161250Y20850
X161250Y10850
X183750Y48350
X183750Y57100
X201250Y41600
X201250Y20850
X201250Y10850
X233000Y10850
X233000Y41600
X233000Y81600
X219500Y81600
X187750Y87600
X187750Y100100
X195250Y122600
X203745Y134170
X203748Y142030
X195500Y161600
X181250Y144100
X181250Y134100
X181250Y124100
X158750Y119600
X158750Y129600
X158750Y142100
X146250Y114100
X136250Y114100
X125180Y124102
X117320Y124105
X113000Y129350
X113250Y119100
X103750Y119100
X103750Y129350
X102000Y151600
X113750Y152100
X102000Y166600
X74000Y156850
X64000Y156850
X64250Y139100
X73250Y139100
X46500Y128350
X46500Y113350
X46500Y98350
X64500Y74100
X102000Y41600
X119500Y41600
X121250Y10850
X161250Y71100
X161250Y79600
X146250Y94100
X136250Y94100
X138750Y182100
X125500Y201600
X153000Y201600
X153000Y241600
X125500Y244100
X125500Y279850
X153000Y279850
X190500Y279850
X190500Y241600
X190500Y201600
X233000Y201600
X233000Y161600
X233000Y121600
X219500Y121600
X233000Y241600
X90500Y241600
X90500Y279850
X48000Y279850
X48000Y241600
X48000Y201600
X39500Y174100
X39500Y164100
X22000Y161600
X9500Y161600
X9500Y121600
X19500Y121600
X22000Y201350
X9500Y201600
X9500Y241600
X90500Y201600
T03
X78750Y144100
X58750Y144100
X36250Y129100
X23750Y129100
X23750Y109100
X36250Y109100
X61250Y86600
X61250Y66600
X81250Y66600
X81250Y86600
X181250Y94100
X193750Y94100
X193750Y114100
X181250Y114100
T04
X98750Y159100
X98750Y179100
T05
X138750Y85350
X138750Y75350
X153250Y75350
X153250Y85350
T06
X78750Y104100
X68750Y104100
X58750Y104100
X48750Y104100
X48750Y134100
X58750Y134100
X68750Y134100
X78750Y134100
T07
X106250Y26600
X106250Y16600
X116250Y16600
X116250Y26600
X126250Y26600
X126250Y16600
X136250Y16600
X136250Y26600
T08
X173750Y52663
X193750Y52663
X213750Y52663
X213750Y169163
X193750Y169163
X173750Y169163
X68750Y169163
X48750Y169163
X28750Y169163
X28750Y52663
X48750Y52663
X68750Y52663
T09
X98323Y215413
X98323Y240413
X98323Y265413
X143801Y265350
X143801Y240350
X143801Y215350
X207699Y215350
X207699Y240350
X207699Y265350
X34425Y265413
X34425Y240413
X34425Y215413
T10
X121250Y89750
X121250Y71600
X121250Y53350
T11
X121000Y233163
X121000Y256785
M30
