G75*
%MOIN*%
%OFA0B0*%
%FSLAX25Y25*%
%IPPOS*%
%LPD*%
%AMOC8*
5,1,8,0,0,1.08239X$1,22.5*
%
%ADD10C,0.08268*%
%ADD11C,0.05512*%
%ADD12R,0.05512X0.05512*%
%ADD13R,0.07087X0.07087*%
%ADD14C,0.07087*%
%ADD15R,0.04331X0.04331*%
%ADD16C,0.04331*%
%ADD17C,0.13843*%
%ADD18C,0.06299*%
%ADD19C,0.05118*%
%ADD20C,0.00000*%
%ADD21C,0.05000*%
%ADD22C,0.04724*%
%ADD23R,0.04724X0.04724*%
%ADD24R,0.12661X0.12661*%
%ADD25C,0.12661*%
%ADD26C,0.05906*%
%ADD27R,0.05906X0.05906*%
%ADD28C,0.01200*%
%ADD29C,0.03346*%
%ADD30C,0.01000*%
%ADD31C,0.02400*%
D10*
X0034425Y0215413D03*
X0034425Y0240413D03*
X0034425Y0265413D03*
X0098323Y0265413D03*
X0098323Y0240413D03*
X0098323Y0215413D03*
X0143801Y0215350D03*
X0143801Y0240350D03*
X0143801Y0265350D03*
X0207699Y0265350D03*
X0207699Y0240350D03*
X0207699Y0215350D03*
D11*
X0098750Y0179100D03*
D12*
X0098750Y0159100D03*
D13*
X0068750Y0169163D03*
X0068750Y0052663D03*
X0213750Y0052663D03*
X0213750Y0169163D03*
D14*
X0193750Y0169163D03*
X0173750Y0169163D03*
X0173750Y0052663D03*
X0193750Y0052663D03*
X0048750Y0052663D03*
X0028750Y0052663D03*
X0028750Y0169163D03*
X0048750Y0169163D03*
D15*
X0046250Y0144160D03*
X0026245Y0086420D03*
X0026245Y0065170D03*
X0101190Y0102600D03*
X0117320Y0124105D03*
X0203745Y0134170D03*
D16*
X0203748Y0142030D03*
X0203750Y0119100D03*
X0213750Y0119100D03*
X0213750Y0089100D03*
X0203750Y0089100D03*
X0211250Y0079100D03*
X0181250Y0079100D03*
X0171250Y0089100D03*
X0171250Y0119100D03*
X0125180Y0124102D03*
X0098750Y0114100D03*
X0093310Y0102600D03*
X0091250Y0091600D03*
X0101250Y0091600D03*
X0088750Y0114100D03*
X0071250Y0094100D03*
X0051250Y0094100D03*
X0041250Y0094100D03*
X0026248Y0094280D03*
X0026248Y0073030D03*
X0041250Y0064100D03*
X0051250Y0064100D03*
X0071250Y0064100D03*
X0091250Y0061600D03*
X0101250Y0061600D03*
X0098750Y0144100D03*
X0088750Y0144100D03*
X0088750Y0159100D03*
X0058750Y0159100D03*
X0046250Y0152040D03*
D17*
X0121000Y0233163D03*
X0121000Y0256785D03*
D18*
X0116250Y0026600D03*
X0116250Y0016600D03*
X0106250Y0016600D03*
X0106250Y0026600D03*
X0126250Y0026600D03*
X0126250Y0016600D03*
X0136250Y0016600D03*
X0136250Y0026600D03*
D19*
X0181250Y0094100D03*
X0193750Y0094100D03*
X0193750Y0114100D03*
X0181250Y0114100D03*
X0081250Y0086600D03*
X0081250Y0066600D03*
X0061250Y0066600D03*
X0061250Y0086600D03*
X0036250Y0109100D03*
X0023750Y0109100D03*
X0023750Y0129100D03*
X0036250Y0129100D03*
X0058750Y0144100D03*
X0078750Y0144100D03*
D20*
X0005000Y0006600D02*
X0237283Y0006600D01*
X0237283Y0259631D01*
X0215630Y0259631D01*
X0215630Y0287191D01*
X0026654Y0287191D01*
X0026654Y0259631D01*
X0005000Y0259631D01*
X0005000Y0006600D01*
D21*
X0048750Y0104100D03*
X0058750Y0104100D03*
X0068750Y0104100D03*
X0078750Y0104100D03*
X0078750Y0134100D03*
X0068750Y0134100D03*
X0058750Y0134100D03*
X0048750Y0134100D03*
D22*
X0136250Y0114100D03*
X0146250Y0094100D03*
X0146250Y0066600D03*
X0136250Y0046600D03*
X0181250Y0124100D03*
X0181250Y0134100D03*
X0181250Y0144100D03*
D23*
X0146250Y0114100D03*
X0136250Y0094100D03*
X0136250Y0066600D03*
X0146250Y0046600D03*
D24*
X0121250Y0053350D03*
D25*
X0121250Y0071600D03*
X0121250Y0089750D03*
D26*
X0138750Y0085350D03*
X0153250Y0075350D03*
D27*
X0153250Y0085350D03*
X0138750Y0075350D03*
D28*
X0142365Y0070797D02*
X0135134Y0070797D01*
X0134197Y0071734D01*
X0134197Y0078965D01*
X0135134Y0079903D01*
X0142365Y0079903D01*
X0143303Y0078965D01*
X0143303Y0071734D01*
X0142365Y0070797D01*
X0143094Y0071526D02*
X0150636Y0071526D01*
X0150671Y0071490D02*
X0152344Y0070797D01*
X0154156Y0070797D01*
X0155829Y0071490D01*
X0157110Y0072771D01*
X0157803Y0074444D01*
X0157803Y0076256D01*
X0157110Y0077929D01*
X0155829Y0079210D01*
X0154156Y0079903D01*
X0152344Y0079903D01*
X0150671Y0079210D01*
X0149390Y0077929D01*
X0148697Y0076256D01*
X0148697Y0074444D01*
X0149390Y0072771D01*
X0150671Y0071490D01*
X0149437Y0072724D02*
X0143303Y0072724D01*
X0143303Y0073923D02*
X0148913Y0073923D01*
X0148697Y0075121D02*
X0143303Y0075121D01*
X0143303Y0076320D02*
X0148724Y0076320D01*
X0149220Y0077518D02*
X0143303Y0077518D01*
X0143303Y0078717D02*
X0150178Y0078717D01*
X0150087Y0080797D02*
X0153063Y0080797D01*
X0153063Y0085163D01*
X0153437Y0085163D01*
X0153437Y0080797D01*
X0156413Y0080797D01*
X0156820Y0080906D01*
X0157185Y0081117D01*
X0157483Y0081415D01*
X0157694Y0081780D01*
X0157803Y0082187D01*
X0157803Y0085163D01*
X0153437Y0085163D01*
X0153437Y0085537D01*
X0153063Y0085537D01*
X0153063Y0085163D01*
X0148697Y0085163D01*
X0148697Y0082187D01*
X0148806Y0081780D01*
X0149017Y0081415D01*
X0149315Y0081117D01*
X0149680Y0080906D01*
X0150087Y0080797D01*
X0149320Y0081114D02*
X0140445Y0081114D01*
X0140498Y0081131D02*
X0141136Y0081456D01*
X0141716Y0081877D01*
X0142223Y0082384D01*
X0142644Y0082964D01*
X0142969Y0083602D01*
X0143191Y0084284D01*
X0143303Y0084992D01*
X0143303Y0085163D01*
X0138937Y0085163D01*
X0138937Y0080797D01*
X0139108Y0080797D01*
X0139816Y0080909D01*
X0140498Y0081131D01*
X0138937Y0081114D02*
X0138563Y0081114D01*
X0138563Y0080797D02*
X0138563Y0085163D01*
X0134197Y0085163D01*
X0134197Y0084992D01*
X0134309Y0084284D01*
X0134531Y0083602D01*
X0134856Y0082964D01*
X0135277Y0082384D01*
X0135784Y0081877D01*
X0136364Y0081456D01*
X0137002Y0081131D01*
X0137684Y0080909D01*
X0138392Y0080797D01*
X0138563Y0080797D01*
X0138563Y0082312D02*
X0138937Y0082312D01*
X0138937Y0083511D02*
X0138563Y0083511D01*
X0138563Y0084709D02*
X0138937Y0084709D01*
X0138937Y0085163D02*
X0138563Y0085163D01*
X0138563Y0085537D01*
X0134197Y0085537D01*
X0134197Y0085708D01*
X0134309Y0086416D01*
X0134531Y0087098D01*
X0134856Y0087736D01*
X0135277Y0088316D01*
X0135784Y0088823D01*
X0136364Y0089244D01*
X0137002Y0089569D01*
X0137684Y0089791D01*
X0138392Y0089903D01*
X0138563Y0089903D01*
X0138563Y0085537D01*
X0138937Y0085537D01*
X0138937Y0089903D01*
X0139108Y0089903D01*
X0139816Y0089791D01*
X0140498Y0089569D01*
X0141136Y0089244D01*
X0141716Y0088823D01*
X0142223Y0088316D01*
X0142644Y0087736D01*
X0142969Y0087098D01*
X0143191Y0086416D01*
X0143303Y0085708D01*
X0143303Y0085537D01*
X0138937Y0085537D01*
X0138937Y0085163D01*
X0138937Y0085908D02*
X0138563Y0085908D01*
X0138563Y0087106D02*
X0138937Y0087106D01*
X0138937Y0088305D02*
X0138563Y0088305D01*
X0138563Y0089503D02*
X0138937Y0089503D01*
X0139275Y0090138D02*
X0140212Y0091075D01*
X0140212Y0097125D01*
X0139275Y0098062D01*
X0133225Y0098062D01*
X0132288Y0097125D01*
X0132288Y0091075D01*
X0133225Y0090138D01*
X0139275Y0090138D01*
X0139839Y0090702D02*
X0144100Y0090702D01*
X0144006Y0090741D02*
X0145462Y0090138D01*
X0147038Y0090138D01*
X0148494Y0090741D01*
X0149609Y0091856D01*
X0150212Y0093312D01*
X0150212Y0094888D01*
X0149609Y0096344D01*
X0148494Y0097459D01*
X0147038Y0098062D01*
X0145462Y0098062D01*
X0144006Y0097459D01*
X0142891Y0096344D01*
X0142288Y0094888D01*
X0142288Y0093312D01*
X0142891Y0091856D01*
X0144006Y0090741D01*
X0142872Y0091900D02*
X0140212Y0091900D01*
X0140212Y0093099D02*
X0142376Y0093099D01*
X0142288Y0094297D02*
X0140212Y0094297D01*
X0140212Y0095496D02*
X0142540Y0095496D01*
X0143241Y0096694D02*
X0140212Y0096694D01*
X0139444Y0097893D02*
X0145053Y0097893D01*
X0147447Y0097893D02*
X0179539Y0097893D01*
X0178894Y0097626D02*
X0177724Y0096456D01*
X0177091Y0094927D01*
X0177091Y0093273D01*
X0177724Y0091744D01*
X0178894Y0090574D01*
X0180423Y0089941D01*
X0182077Y0089941D01*
X0183606Y0090574D01*
X0184776Y0091744D01*
X0185409Y0093273D01*
X0185409Y0094927D01*
X0184776Y0096456D01*
X0183606Y0097626D01*
X0182077Y0098259D01*
X0180423Y0098259D01*
X0178894Y0097626D01*
X0177963Y0096694D02*
X0149259Y0096694D01*
X0149960Y0095496D02*
X0177326Y0095496D01*
X0177091Y0094297D02*
X0150212Y0094297D01*
X0150124Y0093099D02*
X0177163Y0093099D01*
X0177659Y0091900D02*
X0173775Y0091900D01*
X0173383Y0092292D02*
X0171999Y0092865D01*
X0170501Y0092865D01*
X0169117Y0092292D01*
X0168058Y0091233D01*
X0167485Y0089849D01*
X0167485Y0088351D01*
X0168058Y0086967D01*
X0169117Y0085908D01*
X0170501Y0085335D01*
X0171999Y0085335D01*
X0173383Y0085908D01*
X0174442Y0086967D01*
X0175015Y0088351D01*
X0175015Y0089849D01*
X0174442Y0091233D01*
X0173383Y0092292D01*
X0174662Y0090702D02*
X0178766Y0090702D01*
X0175015Y0089503D02*
X0199991Y0089503D01*
X0199985Y0089471D02*
X0199985Y0089100D01*
X0199985Y0088729D01*
X0200129Y0088002D01*
X0200413Y0087316D01*
X0200825Y0086700D01*
X0201350Y0086175D01*
X0201966Y0085763D01*
X0202652Y0085479D01*
X0203379Y0085335D01*
X0203750Y0085335D01*
X0204121Y0085335D01*
X0204848Y0085479D01*
X0205534Y0085763D01*
X0206150Y0086175D01*
X0206675Y0086700D01*
X0207087Y0087316D01*
X0207371Y0088002D01*
X0207515Y0088729D01*
X0207515Y0089100D01*
X0207515Y0089471D01*
X0207371Y0090198D01*
X0207087Y0090884D01*
X0206675Y0091500D01*
X0206150Y0092025D01*
X0205534Y0092437D01*
X0204848Y0092721D01*
X0204121Y0092865D01*
X0203750Y0092865D01*
X0203379Y0092865D01*
X0202652Y0092721D01*
X0201966Y0092437D01*
X0201350Y0092025D01*
X0200825Y0091500D01*
X0200413Y0090884D01*
X0200129Y0090198D01*
X0199985Y0089471D01*
X0199985Y0089100D02*
X0203750Y0089100D01*
X0203750Y0089100D01*
X0203750Y0092865D01*
X0203750Y0089100D01*
X0207515Y0089100D01*
X0203750Y0089100D01*
X0203750Y0089100D01*
X0203750Y0089100D01*
X0203750Y0085335D01*
X0203750Y0089100D01*
X0203750Y0089100D01*
X0199985Y0089100D01*
X0200069Y0088305D02*
X0174996Y0088305D01*
X0174500Y0087106D02*
X0200554Y0087106D01*
X0201750Y0085908D02*
X0173382Y0085908D01*
X0169118Y0085908D02*
X0157803Y0085908D01*
X0157803Y0085537D02*
X0157803Y0088513D01*
X0157694Y0088920D01*
X0157483Y0089285D01*
X0157185Y0089583D01*
X0156820Y0089794D01*
X0156413Y0089903D01*
X0153437Y0089903D01*
X0153437Y0085537D01*
X0157803Y0085537D01*
X0157803Y0084709D02*
X0221650Y0084709D01*
X0221650Y0083511D02*
X0157803Y0083511D01*
X0157803Y0082312D02*
X0179166Y0082312D01*
X0179117Y0082292D02*
X0178058Y0081233D01*
X0177485Y0079849D01*
X0177485Y0078351D01*
X0178058Y0076967D01*
X0179117Y0075908D01*
X0180501Y0075335D01*
X0181999Y0075335D01*
X0183383Y0075908D01*
X0184442Y0076967D01*
X0185015Y0078351D01*
X0185015Y0079849D01*
X0184442Y0081233D01*
X0183383Y0082292D01*
X0181999Y0082865D01*
X0180501Y0082865D01*
X0179117Y0082292D01*
X0178009Y0081114D02*
X0157180Y0081114D01*
X0156322Y0078717D02*
X0177485Y0078717D01*
X0177512Y0079915D02*
X0111550Y0079915D01*
X0111550Y0078717D02*
X0117707Y0078717D01*
X0116758Y0078323D02*
X0114527Y0076092D01*
X0113319Y0073178D01*
X0113319Y0070022D01*
X0114527Y0067108D01*
X0116758Y0064877D01*
X0119672Y0063669D01*
X0122828Y0063669D01*
X0125742Y0064877D01*
X0127973Y0067108D01*
X0129181Y0070022D01*
X0129181Y0073178D01*
X0127973Y0076092D01*
X0125742Y0078323D01*
X0122828Y0079531D01*
X0119672Y0079531D01*
X0116758Y0078323D01*
X0115952Y0077518D02*
X0111550Y0077518D01*
X0111550Y0076320D02*
X0114754Y0076320D01*
X0114124Y0075121D02*
X0111550Y0075121D01*
X0111550Y0073923D02*
X0113628Y0073923D01*
X0113319Y0072724D02*
X0111550Y0072724D01*
X0111550Y0071526D02*
X0113319Y0071526D01*
X0113319Y0070327D02*
X0111550Y0070327D01*
X0111550Y0069129D02*
X0113690Y0069129D01*
X0114186Y0067930D02*
X0111550Y0067930D01*
X0111550Y0066732D02*
X0114903Y0066732D01*
X0116101Y0065533D02*
X0111550Y0065533D01*
X0111550Y0064334D02*
X0118067Y0064334D01*
X0114257Y0061281D02*
X0113319Y0060343D01*
X0113319Y0046357D01*
X0111550Y0046357D01*
X0111550Y0047555D02*
X0113319Y0047555D01*
X0113319Y0046357D02*
X0114257Y0045419D01*
X0128243Y0045419D01*
X0129181Y0046357D01*
X0132288Y0046357D01*
X0132288Y0045812D02*
X0132891Y0044356D01*
X0134006Y0043241D01*
X0135462Y0042638D01*
X0137038Y0042638D01*
X0138494Y0043241D01*
X0139609Y0044356D01*
X0140212Y0045812D01*
X0140212Y0047388D01*
X0139609Y0048844D01*
X0138494Y0049959D01*
X0137038Y0050562D01*
X0135462Y0050562D01*
X0134006Y0049959D01*
X0132891Y0048844D01*
X0132288Y0047388D01*
X0132288Y0045812D01*
X0132559Y0045158D02*
X0111550Y0045158D01*
X0111550Y0043960D02*
X0133287Y0043960D01*
X0135164Y0042761D02*
X0111550Y0042761D01*
X0111550Y0042760D02*
X0111550Y0157157D01*
X0111124Y0158186D01*
X0108624Y0160686D01*
X0107836Y0161474D01*
X0106807Y0161900D01*
X0103106Y0161900D01*
X0103106Y0162519D01*
X0102169Y0163456D01*
X0095331Y0163456D01*
X0094394Y0162519D01*
X0094394Y0155681D01*
X0095331Y0154744D01*
X0102169Y0154744D01*
X0103106Y0155681D01*
X0103106Y0156300D01*
X0105090Y0156300D01*
X0105950Y0155440D01*
X0105950Y0041043D01*
X0106376Y0040014D01*
X0107164Y0039226D01*
X0113450Y0032940D01*
X0113450Y0030517D01*
X0112223Y0029290D01*
X0111500Y0027545D01*
X0111500Y0025655D01*
X0112223Y0023910D01*
X0113560Y0022573D01*
X0115305Y0021850D01*
X0117195Y0021850D01*
X0118940Y0022573D01*
X0120277Y0023910D01*
X0121000Y0025655D01*
X0121000Y0027545D01*
X0120277Y0029290D01*
X0119050Y0030517D01*
X0119050Y0034657D01*
X0118624Y0035686D01*
X0111550Y0042760D01*
X0112747Y0041563D02*
X0221650Y0041563D01*
X0221650Y0042761D02*
X0149398Y0042761D01*
X0149275Y0042638D02*
X0150212Y0043575D01*
X0150212Y0049625D01*
X0149275Y0050562D01*
X0143225Y0050562D01*
X0142288Y0049625D01*
X0142288Y0043575D01*
X0143225Y0042638D01*
X0149275Y0042638D01*
X0150212Y0043960D02*
X0221650Y0043960D01*
X0221650Y0045158D02*
X0150212Y0045158D01*
X0150212Y0046357D02*
X0221650Y0046357D01*
X0221650Y0047555D02*
X0217992Y0047555D01*
X0217956Y0047520D02*
X0218893Y0048457D01*
X0218893Y0056869D01*
X0217956Y0057806D01*
X0209544Y0057806D01*
X0208607Y0056869D01*
X0208607Y0048457D01*
X0209544Y0047520D01*
X0217956Y0047520D01*
X0218893Y0048754D02*
X0221650Y0048754D01*
X0221650Y0049952D02*
X0218893Y0049952D01*
X0218893Y0051151D02*
X0221650Y0051151D01*
X0221650Y0052349D02*
X0218893Y0052349D01*
X0218893Y0053548D02*
X0221650Y0053548D01*
X0221650Y0054746D02*
X0218893Y0054746D01*
X0218893Y0055945D02*
X0221650Y0055945D01*
X0221650Y0057143D02*
X0218619Y0057143D01*
X0221650Y0058342D02*
X0129181Y0058342D01*
X0129181Y0059540D02*
X0221650Y0059540D01*
X0221650Y0060739D02*
X0128785Y0060739D01*
X0129181Y0060343D02*
X0128243Y0061281D01*
X0114257Y0061281D01*
X0113715Y0060739D02*
X0111550Y0060739D01*
X0111550Y0061937D02*
X0221650Y0061937D01*
X0221650Y0063136D02*
X0148198Y0063136D01*
X0148127Y0063089D02*
X0148776Y0063522D01*
X0149328Y0064074D01*
X0149761Y0064723D01*
X0150060Y0065444D01*
X0150212Y0066210D01*
X0150212Y0066600D01*
X0150212Y0066990D01*
X0150060Y0067756D01*
X0149761Y0068477D01*
X0149328Y0069126D01*
X0148776Y0069678D01*
X0148127Y0070111D01*
X0147406Y0070410D01*
X0146640Y0070562D01*
X0146250Y0070562D01*
X0146250Y0066600D01*
X0146250Y0066600D01*
X0150212Y0066600D01*
X0146250Y0066600D01*
X0146250Y0066600D01*
X0146250Y0066600D01*
X0142288Y0066600D01*
X0142288Y0066990D01*
X0142440Y0067756D01*
X0142739Y0068477D01*
X0143172Y0069126D01*
X0143724Y0069678D01*
X0144373Y0070111D01*
X0145094Y0070410D01*
X0145860Y0070562D01*
X0146250Y0070562D01*
X0146250Y0066600D01*
X0146250Y0062638D01*
X0146640Y0062638D01*
X0147406Y0062790D01*
X0148127Y0063089D01*
X0149502Y0064334D02*
X0221650Y0064334D01*
X0221650Y0065533D02*
X0150078Y0065533D01*
X0150212Y0066732D02*
X0221650Y0066732D01*
X0221650Y0067930D02*
X0149988Y0067930D01*
X0149325Y0069129D02*
X0221650Y0069129D01*
X0221650Y0070327D02*
X0147606Y0070327D01*
X0146250Y0070327D02*
X0146250Y0070327D01*
X0146250Y0069129D02*
X0146250Y0069129D01*
X0146250Y0067930D02*
X0146250Y0067930D01*
X0146250Y0066732D02*
X0146250Y0066732D01*
X0146250Y0066600D02*
X0142288Y0066600D01*
X0142288Y0066210D01*
X0142440Y0065444D01*
X0142739Y0064723D01*
X0143172Y0064074D01*
X0143724Y0063522D01*
X0144373Y0063089D01*
X0145094Y0062790D01*
X0145860Y0062638D01*
X0146250Y0062638D01*
X0146250Y0066600D01*
X0146250Y0066600D01*
X0146250Y0065533D02*
X0146250Y0065533D01*
X0146250Y0064334D02*
X0146250Y0064334D01*
X0146250Y0063136D02*
X0146250Y0063136D01*
X0144302Y0063136D02*
X0139773Y0063136D01*
X0139893Y0063255D02*
X0140103Y0063620D01*
X0140212Y0064027D01*
X0140212Y0066600D01*
X0140212Y0069173D01*
X0140103Y0069580D01*
X0139893Y0069945D01*
X0139595Y0070243D01*
X0139230Y0070453D01*
X0138823Y0070562D01*
X0136250Y0070562D01*
X0136250Y0066600D01*
X0136250Y0066600D01*
X0140212Y0066600D01*
X0136250Y0066600D01*
X0136250Y0066600D01*
X0136250Y0062638D01*
X0138823Y0062638D01*
X0139230Y0062747D01*
X0139595Y0062957D01*
X0139893Y0063255D01*
X0140212Y0064334D02*
X0142998Y0064334D01*
X0142422Y0065533D02*
X0140212Y0065533D01*
X0140212Y0066732D02*
X0142288Y0066732D01*
X0142512Y0067930D02*
X0140212Y0067930D01*
X0140212Y0069129D02*
X0143175Y0069129D01*
X0144894Y0070327D02*
X0139448Y0070327D01*
X0136250Y0070327D02*
X0136250Y0070327D01*
X0136250Y0070562D02*
X0133677Y0070562D01*
X0133270Y0070453D01*
X0132905Y0070243D01*
X0132607Y0069945D01*
X0132397Y0069580D01*
X0132288Y0069173D01*
X0132288Y0066600D01*
X0136250Y0066600D01*
X0136250Y0066600D01*
X0136250Y0066600D01*
X0136250Y0070562D01*
X0136250Y0069129D02*
X0136250Y0069129D01*
X0136250Y0067930D02*
X0136250Y0067930D01*
X0136250Y0066732D02*
X0136250Y0066732D01*
X0136250Y0066600D02*
X0132288Y0066600D01*
X0132288Y0064027D01*
X0132397Y0063620D01*
X0132607Y0063255D01*
X0132905Y0062957D01*
X0133270Y0062747D01*
X0133677Y0062638D01*
X0136250Y0062638D01*
X0136250Y0066600D01*
X0136250Y0065533D02*
X0136250Y0065533D01*
X0136250Y0064334D02*
X0136250Y0064334D01*
X0136250Y0063136D02*
X0136250Y0063136D01*
X0132727Y0063136D02*
X0111550Y0063136D01*
X0111550Y0059540D02*
X0113319Y0059540D01*
X0113319Y0058342D02*
X0111550Y0058342D01*
X0111550Y0057143D02*
X0113319Y0057143D01*
X0113319Y0055945D02*
X0111550Y0055945D01*
X0111550Y0054746D02*
X0113319Y0054746D01*
X0113319Y0053548D02*
X0111550Y0053548D01*
X0111550Y0052349D02*
X0113319Y0052349D01*
X0113319Y0051151D02*
X0111550Y0051151D01*
X0111550Y0049952D02*
X0113319Y0049952D01*
X0113319Y0048754D02*
X0111550Y0048754D01*
X0105950Y0048754D02*
X0093350Y0048754D01*
X0093350Y0049952D02*
X0105950Y0049952D01*
X0105950Y0051151D02*
X0093350Y0051151D01*
X0093350Y0052349D02*
X0105950Y0052349D01*
X0105950Y0053548D02*
X0093350Y0053548D01*
X0093350Y0054746D02*
X0105950Y0054746D01*
X0105950Y0055945D02*
X0093350Y0055945D01*
X0093350Y0057143D02*
X0105950Y0057143D01*
X0105950Y0058342D02*
X0103224Y0058342D01*
X0103383Y0058408D02*
X0101999Y0057835D01*
X0100501Y0057835D01*
X0099117Y0058408D01*
X0098058Y0059467D01*
X0097485Y0060851D01*
X0097485Y0062349D01*
X0098058Y0063733D01*
X0099117Y0064792D01*
X0100501Y0065365D01*
X0101999Y0065365D01*
X0103383Y0064792D01*
X0104442Y0063733D01*
X0105015Y0062349D01*
X0105015Y0060851D01*
X0104442Y0059467D01*
X0103383Y0058408D01*
X0104472Y0059540D02*
X0105950Y0059540D01*
X0105950Y0060739D02*
X0104969Y0060739D01*
X0105015Y0061937D02*
X0105950Y0061937D01*
X0105950Y0063136D02*
X0104689Y0063136D01*
X0103841Y0064334D02*
X0105950Y0064334D01*
X0105950Y0065533D02*
X0085310Y0065533D01*
X0085409Y0065773D02*
X0084776Y0064244D01*
X0083606Y0063074D01*
X0082077Y0062441D01*
X0080423Y0062441D01*
X0078894Y0063074D01*
X0077724Y0064244D01*
X0077091Y0065773D01*
X0077091Y0067427D01*
X0077724Y0068956D01*
X0078894Y0070126D01*
X0080423Y0070759D01*
X0082077Y0070759D01*
X0083606Y0070126D01*
X0084776Y0068956D01*
X0085409Y0067427D01*
X0085409Y0065773D01*
X0085409Y0066732D02*
X0105950Y0066732D01*
X0105950Y0067930D02*
X0085201Y0067930D01*
X0084603Y0069129D02*
X0105950Y0069129D01*
X0105950Y0070327D02*
X0083120Y0070327D01*
X0079380Y0070327D02*
X0063096Y0070327D01*
X0062847Y0070454D02*
X0062224Y0070657D01*
X0061577Y0070759D01*
X0061250Y0070759D01*
X0061250Y0066600D01*
X0061250Y0066600D01*
X0065409Y0066600D01*
X0065409Y0066927D01*
X0065307Y0067574D01*
X0065104Y0068197D01*
X0064807Y0068780D01*
X0064422Y0069309D01*
X0063959Y0069772D01*
X0063430Y0070157D01*
X0062847Y0070454D01*
X0061250Y0070327D02*
X0061250Y0070327D01*
X0061250Y0070759D02*
X0061250Y0066600D01*
X0061250Y0066600D01*
X0061250Y0066600D01*
X0057091Y0066600D01*
X0057091Y0066927D01*
X0057193Y0067574D01*
X0057396Y0068197D01*
X0057693Y0068780D01*
X0058078Y0069309D01*
X0058541Y0069772D01*
X0059070Y0070157D01*
X0059653Y0070454D01*
X0060276Y0070657D01*
X0060923Y0070759D01*
X0061250Y0070759D01*
X0061250Y0069129D02*
X0061250Y0069129D01*
X0061250Y0067930D02*
X0061250Y0067930D01*
X0061250Y0066732D02*
X0061250Y0066732D01*
X0061250Y0066600D02*
X0057091Y0066600D01*
X0057091Y0066273D01*
X0057193Y0065626D01*
X0057396Y0065003D01*
X0057693Y0064420D01*
X0058078Y0063891D01*
X0058541Y0063428D01*
X0059070Y0063043D01*
X0059653Y0062746D01*
X0060276Y0062543D01*
X0060923Y0062441D01*
X0061250Y0062441D01*
X0061577Y0062441D01*
X0062224Y0062543D01*
X0062847Y0062746D01*
X0063430Y0063043D01*
X0063959Y0063428D01*
X0064422Y0063891D01*
X0064807Y0064420D01*
X0065104Y0065003D01*
X0065307Y0065626D01*
X0065409Y0066273D01*
X0065409Y0066600D01*
X0061250Y0066600D01*
X0061250Y0062441D01*
X0061250Y0066600D01*
X0061250Y0066600D01*
X0061250Y0065533D02*
X0061250Y0065533D01*
X0061250Y0064334D02*
X0061250Y0064334D01*
X0061250Y0063136D02*
X0061250Y0063136D01*
X0063558Y0063136D02*
X0067574Y0063136D01*
X0067485Y0063351D02*
X0068058Y0061967D01*
X0069117Y0060908D01*
X0070501Y0060335D01*
X0071999Y0060335D01*
X0073383Y0060908D01*
X0074442Y0061967D01*
X0075015Y0063351D01*
X0075015Y0064849D01*
X0074442Y0066233D01*
X0073383Y0067292D01*
X0071999Y0067865D01*
X0070501Y0067865D01*
X0069117Y0067292D01*
X0068058Y0066233D01*
X0067485Y0064849D01*
X0067485Y0063351D01*
X0067485Y0064334D02*
X0064745Y0064334D01*
X0065276Y0065533D02*
X0067768Y0065533D01*
X0068557Y0066732D02*
X0065409Y0066732D01*
X0065191Y0067930D02*
X0077299Y0067930D01*
X0077091Y0066732D02*
X0073943Y0066732D01*
X0074732Y0065533D02*
X0077190Y0065533D01*
X0077687Y0064334D02*
X0075015Y0064334D01*
X0074926Y0063136D02*
X0078832Y0063136D01*
X0074412Y0061937D02*
X0087485Y0061937D01*
X0087485Y0062349D02*
X0087485Y0060851D01*
X0088058Y0059467D01*
X0089117Y0058408D01*
X0089150Y0058394D01*
X0089150Y0025730D01*
X0090380Y0024500D01*
X0100380Y0014500D01*
X0101979Y0014500D01*
X0102223Y0013910D01*
X0103560Y0012573D01*
X0105305Y0011850D01*
X0107195Y0011850D01*
X0108940Y0012573D01*
X0110277Y0013910D01*
X0111000Y0015655D01*
X0111000Y0017545D01*
X0110277Y0019290D01*
X0108940Y0020627D01*
X0107195Y0021350D01*
X0105305Y0021350D01*
X0103560Y0020627D01*
X0102223Y0019290D01*
X0102020Y0018800D01*
X0093350Y0027470D01*
X0093350Y0058394D01*
X0093383Y0058408D01*
X0094442Y0059467D01*
X0095015Y0060851D01*
X0095015Y0062349D01*
X0094442Y0063733D01*
X0093383Y0064792D01*
X0091999Y0065365D01*
X0090501Y0065365D01*
X0089117Y0064792D01*
X0088058Y0063733D01*
X0087485Y0062349D01*
X0087811Y0063136D02*
X0083668Y0063136D01*
X0084813Y0064334D02*
X0088659Y0064334D01*
X0087531Y0060739D02*
X0072975Y0060739D01*
X0072956Y0057806D02*
X0064544Y0057806D01*
X0063607Y0056869D01*
X0063607Y0048457D01*
X0064544Y0047520D01*
X0072956Y0047520D01*
X0073893Y0048457D01*
X0073893Y0056869D01*
X0072956Y0057806D01*
X0073619Y0057143D02*
X0089150Y0057143D01*
X0089150Y0055945D02*
X0073893Y0055945D01*
X0073893Y0054746D02*
X0089150Y0054746D01*
X0089150Y0053548D02*
X0073893Y0053548D01*
X0073893Y0052349D02*
X0089150Y0052349D01*
X0089150Y0051151D02*
X0073893Y0051151D01*
X0073893Y0049952D02*
X0089150Y0049952D01*
X0089150Y0048754D02*
X0073893Y0048754D01*
X0072992Y0047555D02*
X0089150Y0047555D01*
X0089150Y0046357D02*
X0007600Y0046357D01*
X0007600Y0047555D02*
X0027641Y0047555D01*
X0027727Y0047520D02*
X0029773Y0047520D01*
X0031663Y0048303D01*
X0033110Y0049750D01*
X0033893Y0051640D01*
X0033893Y0053686D01*
X0033110Y0055576D01*
X0031663Y0057023D01*
X0029773Y0057806D01*
X0027727Y0057806D01*
X0025837Y0057023D01*
X0024390Y0055576D01*
X0023607Y0053686D01*
X0023607Y0051640D01*
X0024390Y0049750D01*
X0025837Y0048303D01*
X0027727Y0047520D01*
X0029859Y0047555D02*
X0047641Y0047555D01*
X0047727Y0047520D02*
X0049773Y0047520D01*
X0051663Y0048303D01*
X0053110Y0049750D01*
X0053893Y0051640D01*
X0053893Y0053686D01*
X0053110Y0055576D01*
X0051663Y0057023D01*
X0049773Y0057806D01*
X0047727Y0057806D01*
X0045837Y0057023D01*
X0044390Y0055576D01*
X0043607Y0053686D01*
X0043607Y0051640D01*
X0044390Y0049750D01*
X0045837Y0048303D01*
X0047727Y0047520D01*
X0049859Y0047555D02*
X0064508Y0047555D01*
X0063607Y0048754D02*
X0052115Y0048754D01*
X0053194Y0049952D02*
X0063607Y0049952D01*
X0063607Y0051151D02*
X0053691Y0051151D01*
X0053893Y0052349D02*
X0063607Y0052349D01*
X0063607Y0053548D02*
X0053893Y0053548D01*
X0053454Y0054746D02*
X0063607Y0054746D01*
X0063607Y0055945D02*
X0052742Y0055945D01*
X0051373Y0057143D02*
X0063881Y0057143D01*
X0068088Y0061937D02*
X0054412Y0061937D01*
X0054442Y0061967D02*
X0055015Y0063351D01*
X0055015Y0064849D01*
X0054442Y0066233D01*
X0053383Y0067292D01*
X0051999Y0067865D01*
X0050501Y0067865D01*
X0049117Y0067292D01*
X0048058Y0066233D01*
X0047485Y0064849D01*
X0047485Y0063351D01*
X0048058Y0061967D01*
X0049117Y0060908D01*
X0050501Y0060335D01*
X0051999Y0060335D01*
X0053383Y0060908D01*
X0054442Y0061967D01*
X0054926Y0063136D02*
X0058942Y0063136D01*
X0057755Y0064334D02*
X0055015Y0064334D01*
X0054732Y0065533D02*
X0057224Y0065533D01*
X0057091Y0066732D02*
X0053943Y0066732D01*
X0057309Y0067930D02*
X0030010Y0067930D01*
X0030010Y0067998D02*
X0029073Y0068935D01*
X0023417Y0068935D01*
X0022480Y0067998D01*
X0022480Y0062342D01*
X0023417Y0061405D01*
X0029073Y0061405D01*
X0030010Y0062342D01*
X0030010Y0067998D01*
X0030010Y0066732D02*
X0038557Y0066732D01*
X0038058Y0066233D02*
X0039117Y0067292D01*
X0040501Y0067865D01*
X0041999Y0067865D01*
X0043383Y0067292D01*
X0044442Y0066233D01*
X0045015Y0064849D01*
X0045015Y0063351D01*
X0044442Y0061967D01*
X0043383Y0060908D01*
X0041999Y0060335D01*
X0040501Y0060335D01*
X0039117Y0060908D01*
X0038058Y0061967D01*
X0037485Y0063351D01*
X0037485Y0064849D01*
X0038058Y0066233D01*
X0037768Y0065533D02*
X0030010Y0065533D01*
X0030010Y0064334D02*
X0037485Y0064334D01*
X0037574Y0063136D02*
X0030010Y0063136D01*
X0029606Y0061937D02*
X0038088Y0061937D01*
X0039525Y0060739D02*
X0007600Y0060739D01*
X0007600Y0061937D02*
X0022884Y0061937D01*
X0022480Y0063136D02*
X0007600Y0063136D01*
X0007600Y0064334D02*
X0022480Y0064334D01*
X0022480Y0065533D02*
X0007600Y0065533D01*
X0007600Y0066732D02*
X0022480Y0066732D01*
X0022480Y0067930D02*
X0007600Y0067930D01*
X0007600Y0069129D02*
X0057946Y0069129D01*
X0059404Y0070327D02*
X0028870Y0070327D01*
X0028648Y0070105D02*
X0029172Y0070630D01*
X0029584Y0071246D01*
X0029868Y0071932D01*
X0030013Y0072659D01*
X0030013Y0073030D01*
X0030013Y0073401D01*
X0029868Y0074128D01*
X0029584Y0074814D01*
X0029172Y0075430D01*
X0028648Y0075955D01*
X0028031Y0076367D01*
X0027346Y0076651D01*
X0026618Y0076795D01*
X0026248Y0076795D01*
X0026248Y0073030D01*
X0030013Y0073030D01*
X0026248Y0073030D01*
X0026248Y0073030D01*
X0026247Y0073030D01*
X0022482Y0073030D01*
X0026247Y0073030D01*
X0026247Y0073030D01*
X0026247Y0076795D01*
X0025877Y0076795D01*
X0025149Y0076651D01*
X0024464Y0076367D01*
X0023847Y0075955D01*
X0023323Y0075430D01*
X0022911Y0074814D01*
X0022627Y0074128D01*
X0022482Y0073401D01*
X0022482Y0073030D01*
X0022482Y0072659D01*
X0022627Y0071932D01*
X0022911Y0071246D01*
X0023323Y0070630D01*
X0023847Y0070105D01*
X0024464Y0069693D01*
X0025149Y0069409D01*
X0025877Y0069265D01*
X0026247Y0069265D01*
X0026247Y0073030D01*
X0026248Y0073030D01*
X0026248Y0069265D01*
X0026618Y0069265D01*
X0027346Y0069409D01*
X0028031Y0069693D01*
X0028648Y0070105D01*
X0029700Y0071526D02*
X0105950Y0071526D01*
X0105950Y0072724D02*
X0030013Y0072724D01*
X0029909Y0073923D02*
X0105950Y0073923D01*
X0105950Y0075121D02*
X0029379Y0075121D01*
X0028102Y0076320D02*
X0105950Y0076320D01*
X0105950Y0077518D02*
X0007600Y0077518D01*
X0007600Y0076320D02*
X0024393Y0076320D01*
X0023116Y0075121D02*
X0007600Y0075121D01*
X0007600Y0073923D02*
X0022586Y0073923D01*
X0022482Y0072724D02*
X0007600Y0072724D01*
X0007600Y0071526D02*
X0022795Y0071526D01*
X0023625Y0070327D02*
X0007600Y0070327D01*
X0007600Y0078717D02*
X0105950Y0078717D01*
X0105950Y0079915D02*
X0007600Y0079915D01*
X0007600Y0081114D02*
X0105950Y0081114D01*
X0105950Y0082312D02*
X0007600Y0082312D01*
X0007600Y0083511D02*
X0022561Y0083511D01*
X0022480Y0083592D02*
X0023417Y0082655D01*
X0029073Y0082655D01*
X0030010Y0083592D01*
X0030010Y0089248D01*
X0029073Y0090185D01*
X0023417Y0090185D01*
X0022480Y0089248D01*
X0022480Y0083592D01*
X0022480Y0084709D02*
X0007600Y0084709D01*
X0007600Y0085908D02*
X0022480Y0085908D01*
X0022480Y0087106D02*
X0007600Y0087106D01*
X0007600Y0088305D02*
X0022480Y0088305D01*
X0022735Y0089503D02*
X0007600Y0089503D01*
X0007600Y0090702D02*
X0025047Y0090702D01*
X0025149Y0090659D02*
X0025877Y0090515D01*
X0026247Y0090515D01*
X0026247Y0094280D01*
X0022482Y0094280D01*
X0026247Y0094280D01*
X0026247Y0094280D01*
X0026247Y0098045D01*
X0025877Y0098045D01*
X0025149Y0097901D01*
X0024464Y0097617D01*
X0023847Y0097205D01*
X0023323Y0096680D01*
X0022911Y0096064D01*
X0022627Y0095378D01*
X0022482Y0094651D01*
X0022482Y0094280D01*
X0022482Y0093909D01*
X0022627Y0093182D01*
X0022911Y0092496D01*
X0023323Y0091880D01*
X0023847Y0091355D01*
X0024464Y0090943D01*
X0025149Y0090659D01*
X0026247Y0090702D02*
X0026248Y0090702D01*
X0026248Y0090515D02*
X0026618Y0090515D01*
X0027346Y0090659D01*
X0028031Y0090943D01*
X0028648Y0091355D01*
X0029172Y0091880D01*
X0029584Y0092496D01*
X0029868Y0093182D01*
X0030013Y0093909D01*
X0030013Y0094280D01*
X0030013Y0094651D01*
X0029868Y0095378D01*
X0029584Y0096064D01*
X0029172Y0096680D01*
X0028648Y0097205D01*
X0028031Y0097617D01*
X0027346Y0097901D01*
X0026618Y0098045D01*
X0026248Y0098045D01*
X0026248Y0094280D01*
X0030013Y0094280D01*
X0026248Y0094280D01*
X0026248Y0094280D01*
X0026247Y0094280D01*
X0026248Y0094280D01*
X0026248Y0090515D01*
X0027448Y0090702D02*
X0039615Y0090702D01*
X0039117Y0090908D02*
X0040501Y0090335D01*
X0041999Y0090335D01*
X0043383Y0090908D01*
X0044442Y0091967D01*
X0045015Y0093351D01*
X0045015Y0094849D01*
X0044442Y0096233D01*
X0043383Y0097292D01*
X0041999Y0097865D01*
X0040501Y0097865D01*
X0039117Y0097292D01*
X0038058Y0096233D01*
X0037485Y0094849D01*
X0037485Y0093351D01*
X0038058Y0091967D01*
X0039117Y0090908D01*
X0038125Y0091900D02*
X0029186Y0091900D01*
X0029834Y0093099D02*
X0037589Y0093099D01*
X0037485Y0094297D02*
X0030013Y0094297D01*
X0029819Y0095496D02*
X0037753Y0095496D01*
X0038519Y0096694D02*
X0029158Y0096694D01*
X0027365Y0097893D02*
X0105950Y0097893D01*
X0105950Y0099091D02*
X0104275Y0099091D01*
X0104018Y0098835D02*
X0104955Y0099772D01*
X0104955Y0105428D01*
X0104018Y0106365D01*
X0098362Y0106365D01*
X0097425Y0105428D01*
X0097425Y0099772D01*
X0098362Y0098835D01*
X0104018Y0098835D01*
X0104955Y0100290D02*
X0105950Y0100290D01*
X0105950Y0101488D02*
X0104955Y0101488D01*
X0104955Y0102687D02*
X0105950Y0102687D01*
X0105950Y0103885D02*
X0104955Y0103885D01*
X0104955Y0105084D02*
X0105950Y0105084D01*
X0105950Y0106282D02*
X0104101Y0106282D01*
X0105950Y0107481D02*
X0081072Y0107481D01*
X0080899Y0107607D02*
X0080324Y0107900D01*
X0079710Y0108099D01*
X0079073Y0108200D01*
X0078950Y0108200D01*
X0078950Y0104300D01*
X0078550Y0104300D01*
X0078550Y0108200D01*
X0078427Y0108200D01*
X0077790Y0108099D01*
X0077176Y0107900D01*
X0076601Y0107607D01*
X0076079Y0107227D01*
X0075623Y0106771D01*
X0075243Y0106249D01*
X0074950Y0105674D01*
X0074751Y0105060D01*
X0074650Y0104423D01*
X0074650Y0104300D01*
X0078550Y0104300D01*
X0078550Y0103900D01*
X0074650Y0103900D01*
X0074650Y0103777D01*
X0074751Y0103140D01*
X0074950Y0102526D01*
X0075243Y0101951D01*
X0075623Y0101429D01*
X0076079Y0100973D01*
X0076601Y0100593D01*
X0077176Y0100300D01*
X0077790Y0100101D01*
X0078427Y0100000D01*
X0078550Y0100000D01*
X0078550Y0103900D01*
X0078950Y0103900D01*
X0078950Y0104300D01*
X0082850Y0104300D01*
X0082850Y0104423D01*
X0082749Y0105060D01*
X0082550Y0105674D01*
X0082257Y0106249D01*
X0081877Y0106771D01*
X0081421Y0107227D01*
X0080899Y0107607D01*
X0082232Y0106282D02*
X0092522Y0106282D01*
X0092212Y0106221D02*
X0091526Y0105937D01*
X0090910Y0105525D01*
X0090385Y0105000D01*
X0089973Y0104384D01*
X0089689Y0103698D01*
X0089545Y0102971D01*
X0089545Y0102600D01*
X0089545Y0102229D01*
X0089689Y0101502D01*
X0089973Y0100816D01*
X0090385Y0100200D01*
X0090910Y0099675D01*
X0091526Y0099263D01*
X0092212Y0098979D01*
X0092939Y0098835D01*
X0093310Y0098835D01*
X0093681Y0098835D01*
X0094408Y0098979D01*
X0095094Y0099263D01*
X0095710Y0099675D01*
X0096235Y0100200D01*
X0096647Y0100816D01*
X0096931Y0101502D01*
X0097075Y0102229D01*
X0097075Y0102600D01*
X0097075Y0102971D01*
X0096931Y0103698D01*
X0096647Y0104384D01*
X0096235Y0105000D01*
X0095710Y0105525D01*
X0095094Y0105937D01*
X0094408Y0106221D01*
X0093681Y0106365D01*
X0093310Y0106365D01*
X0092939Y0106365D01*
X0092212Y0106221D01*
X0093310Y0106282D02*
X0093310Y0106282D01*
X0093310Y0106365D02*
X0093310Y0102600D01*
X0097075Y0102600D01*
X0093310Y0102600D01*
X0093310Y0102600D01*
X0093310Y0102600D01*
X0093310Y0106365D01*
X0094098Y0106282D02*
X0098279Y0106282D01*
X0097425Y0105084D02*
X0096151Y0105084D01*
X0096853Y0103885D02*
X0097425Y0103885D01*
X0097425Y0102687D02*
X0097075Y0102687D01*
X0096925Y0101488D02*
X0097425Y0101488D01*
X0097425Y0100290D02*
X0096295Y0100290D01*
X0094679Y0099091D02*
X0098105Y0099091D01*
X0099117Y0094792D02*
X0098058Y0093733D01*
X0097485Y0092349D01*
X0097485Y0090851D01*
X0098058Y0089467D01*
X0099117Y0088408D01*
X0100501Y0087835D01*
X0101999Y0087835D01*
X0103383Y0088408D01*
X0104442Y0089467D01*
X0105015Y0090851D01*
X0105015Y0092349D01*
X0104442Y0093733D01*
X0103383Y0094792D01*
X0101999Y0095365D01*
X0100501Y0095365D01*
X0099117Y0094792D01*
X0098622Y0094297D02*
X0093878Y0094297D01*
X0093650Y0094525D02*
X0094175Y0094000D01*
X0094587Y0093384D01*
X0094871Y0092698D01*
X0095015Y0091971D01*
X0095015Y0091600D01*
X0091250Y0091600D01*
X0091250Y0091600D01*
X0091250Y0095365D01*
X0090879Y0095365D01*
X0090152Y0095221D01*
X0089466Y0094937D01*
X0088850Y0094525D01*
X0088325Y0094000D01*
X0087913Y0093384D01*
X0087629Y0092698D01*
X0087485Y0091971D01*
X0087485Y0091600D01*
X0087485Y0091229D01*
X0087629Y0090502D01*
X0087913Y0089816D01*
X0088325Y0089200D01*
X0088850Y0088675D01*
X0089466Y0088263D01*
X0090152Y0087979D01*
X0090879Y0087835D01*
X0091250Y0087835D01*
X0091621Y0087835D01*
X0092348Y0087979D01*
X0093034Y0088263D01*
X0093650Y0088675D01*
X0094175Y0089200D01*
X0094587Y0089816D01*
X0094871Y0090502D01*
X0095015Y0091229D01*
X0095015Y0091600D01*
X0091250Y0091600D01*
X0091250Y0091600D01*
X0091250Y0091600D01*
X0087485Y0091600D01*
X0091250Y0091600D01*
X0091250Y0095365D01*
X0091621Y0095365D01*
X0092348Y0095221D01*
X0093034Y0094937D01*
X0093650Y0094525D01*
X0094705Y0093099D02*
X0097795Y0093099D01*
X0097485Y0091900D02*
X0095015Y0091900D01*
X0094910Y0090702D02*
X0097546Y0090702D01*
X0098043Y0089503D02*
X0094378Y0089503D01*
X0093096Y0088305D02*
X0099366Y0088305D01*
X0103134Y0088305D02*
X0105950Y0088305D01*
X0105950Y0089503D02*
X0104457Y0089503D01*
X0104954Y0090702D02*
X0105950Y0090702D01*
X0105950Y0091900D02*
X0105015Y0091900D01*
X0104705Y0093099D02*
X0105950Y0093099D01*
X0105950Y0094297D02*
X0103878Y0094297D01*
X0105950Y0095496D02*
X0074747Y0095496D01*
X0075015Y0094849D02*
X0074442Y0096233D01*
X0073383Y0097292D01*
X0071999Y0097865D01*
X0070501Y0097865D01*
X0069117Y0097292D01*
X0068058Y0096233D01*
X0067485Y0094849D01*
X0067485Y0093351D01*
X0068058Y0091967D01*
X0069117Y0090908D01*
X0070501Y0090335D01*
X0071999Y0090335D01*
X0073383Y0090908D01*
X0074442Y0091967D01*
X0075015Y0093351D01*
X0075015Y0094849D01*
X0075015Y0094297D02*
X0088622Y0094297D01*
X0087795Y0093099D02*
X0074911Y0093099D01*
X0074375Y0091900D02*
X0087485Y0091900D01*
X0087590Y0090702D02*
X0082216Y0090702D01*
X0082077Y0090759D02*
X0080423Y0090759D01*
X0078894Y0090126D01*
X0077724Y0088956D01*
X0077091Y0087427D01*
X0077091Y0085773D01*
X0077724Y0084244D01*
X0078894Y0083074D01*
X0080423Y0082441D01*
X0082077Y0082441D01*
X0083606Y0083074D01*
X0084776Y0084244D01*
X0085409Y0085773D01*
X0085409Y0087427D01*
X0084776Y0088956D01*
X0083606Y0090126D01*
X0082077Y0090759D01*
X0080284Y0090702D02*
X0072885Y0090702D01*
X0069615Y0090702D02*
X0062216Y0090702D01*
X0062077Y0090759D02*
X0060423Y0090759D01*
X0058894Y0090126D01*
X0057724Y0088956D01*
X0057091Y0087427D01*
X0057091Y0085773D01*
X0057724Y0084244D01*
X0058894Y0083074D01*
X0060423Y0082441D01*
X0062077Y0082441D01*
X0063606Y0083074D01*
X0064776Y0084244D01*
X0065409Y0085773D01*
X0065409Y0087427D01*
X0064776Y0088956D01*
X0063606Y0090126D01*
X0062077Y0090759D01*
X0060284Y0090702D02*
X0052885Y0090702D01*
X0053383Y0090908D02*
X0054442Y0091967D01*
X0055015Y0093351D01*
X0055015Y0094849D01*
X0054442Y0096233D01*
X0053383Y0097292D01*
X0051999Y0097865D01*
X0050501Y0097865D01*
X0049117Y0097292D01*
X0048058Y0096233D01*
X0047485Y0094849D01*
X0047485Y0093351D01*
X0048058Y0091967D01*
X0049117Y0090908D01*
X0050501Y0090335D01*
X0051999Y0090335D01*
X0053383Y0090908D01*
X0054375Y0091900D02*
X0068125Y0091900D01*
X0067589Y0093099D02*
X0054911Y0093099D01*
X0055015Y0094297D02*
X0067485Y0094297D01*
X0067753Y0095496D02*
X0054747Y0095496D01*
X0053981Y0096694D02*
X0068519Y0096694D01*
X0067934Y0100000D02*
X0069566Y0100000D01*
X0071072Y0100624D01*
X0072226Y0101778D01*
X0072850Y0103284D01*
X0072850Y0104916D01*
X0072226Y0106422D01*
X0071072Y0107576D01*
X0069566Y0108200D01*
X0067934Y0108200D01*
X0066428Y0107576D01*
X0065274Y0106422D01*
X0064650Y0104916D01*
X0064650Y0103284D01*
X0065274Y0101778D01*
X0066428Y0100624D01*
X0067934Y0100000D01*
X0067235Y0100290D02*
X0060265Y0100290D01*
X0059566Y0100000D02*
X0061072Y0100624D01*
X0062226Y0101778D01*
X0062850Y0103284D01*
X0062850Y0104916D01*
X0062226Y0106422D01*
X0061072Y0107576D01*
X0059566Y0108200D01*
X0057934Y0108200D01*
X0056428Y0107576D01*
X0055274Y0106422D01*
X0054650Y0104916D01*
X0054650Y0103284D01*
X0055274Y0101778D01*
X0056428Y0100624D01*
X0057934Y0100000D01*
X0059566Y0100000D01*
X0057235Y0100290D02*
X0050265Y0100290D01*
X0049566Y0100000D02*
X0047934Y0100000D01*
X0046428Y0100624D01*
X0045274Y0101778D01*
X0044650Y0103284D01*
X0044650Y0104916D01*
X0045274Y0106422D01*
X0046428Y0107576D01*
X0047934Y0108200D01*
X0049566Y0108200D01*
X0051072Y0107576D01*
X0052226Y0106422D01*
X0052850Y0104916D01*
X0052850Y0103284D01*
X0052226Y0101778D01*
X0051072Y0100624D01*
X0049566Y0100000D01*
X0047235Y0100290D02*
X0007600Y0100290D01*
X0007600Y0101488D02*
X0045563Y0101488D01*
X0044898Y0102687D02*
X0007600Y0102687D01*
X0007600Y0103885D02*
X0044650Y0103885D01*
X0044720Y0105084D02*
X0037422Y0105084D01*
X0037077Y0104941D02*
X0038606Y0105574D01*
X0039776Y0106744D01*
X0040409Y0108273D01*
X0040409Y0109927D01*
X0039776Y0111456D01*
X0038606Y0112626D01*
X0037077Y0113259D01*
X0035423Y0113259D01*
X0033894Y0112626D01*
X0032724Y0111456D01*
X0032091Y0109927D01*
X0032091Y0108273D01*
X0032724Y0106744D01*
X0033894Y0105574D01*
X0035423Y0104941D01*
X0037077Y0104941D01*
X0035078Y0105084D02*
X0024922Y0105084D01*
X0024577Y0104941D02*
X0026106Y0105574D01*
X0027276Y0106744D01*
X0027909Y0108273D01*
X0027909Y0109927D01*
X0027276Y0111456D01*
X0026106Y0112626D01*
X0024577Y0113259D01*
X0022923Y0113259D01*
X0021394Y0112626D01*
X0021044Y0112276D01*
X0018350Y0114970D01*
X0018350Y0160730D01*
X0024237Y0166617D01*
X0024390Y0166250D01*
X0025837Y0164803D01*
X0027727Y0164020D01*
X0029773Y0164020D01*
X0031663Y0164803D01*
X0033110Y0166250D01*
X0033893Y0168140D01*
X0033893Y0170186D01*
X0033110Y0172076D01*
X0031663Y0173523D01*
X0029773Y0174306D01*
X0027727Y0174306D01*
X0025837Y0173523D01*
X0024390Y0172076D01*
X0024053Y0171263D01*
X0022943Y0171263D01*
X0015380Y0163700D01*
X0014150Y0162470D01*
X0014150Y0113230D01*
X0015380Y0112000D01*
X0019933Y0107447D01*
X0020224Y0106744D01*
X0021394Y0105574D01*
X0022923Y0104941D01*
X0024577Y0104941D01*
X0022578Y0105084D02*
X0007600Y0105084D01*
X0007600Y0106282D02*
X0020686Y0106282D01*
X0019899Y0107481D02*
X0007600Y0107481D01*
X0007600Y0108679D02*
X0018701Y0108679D01*
X0017502Y0109878D02*
X0007600Y0109878D01*
X0007600Y0111076D02*
X0016304Y0111076D01*
X0015105Y0112275D02*
X0007600Y0112275D01*
X0007600Y0113473D02*
X0014150Y0113473D01*
X0014150Y0114672D02*
X0007600Y0114672D01*
X0007600Y0115870D02*
X0014150Y0115870D01*
X0014150Y0117069D02*
X0007600Y0117069D01*
X0007600Y0118268D02*
X0014150Y0118268D01*
X0014150Y0119466D02*
X0007600Y0119466D01*
X0007600Y0120665D02*
X0014150Y0120665D01*
X0014150Y0121863D02*
X0007600Y0121863D01*
X0007600Y0123062D02*
X0014150Y0123062D01*
X0014150Y0124260D02*
X0007600Y0124260D01*
X0007600Y0125459D02*
X0014150Y0125459D01*
X0014150Y0126657D02*
X0007600Y0126657D01*
X0007600Y0127856D02*
X0014150Y0127856D01*
X0014150Y0129054D02*
X0007600Y0129054D01*
X0007600Y0130253D02*
X0014150Y0130253D01*
X0014150Y0131451D02*
X0007600Y0131451D01*
X0007600Y0132650D02*
X0014150Y0132650D01*
X0014150Y0133848D02*
X0007600Y0133848D01*
X0007600Y0135047D02*
X0014150Y0135047D01*
X0014150Y0136245D02*
X0007600Y0136245D01*
X0007600Y0137444D02*
X0014150Y0137444D01*
X0014150Y0138642D02*
X0007600Y0138642D01*
X0007600Y0139841D02*
X0014150Y0139841D01*
X0014150Y0141039D02*
X0007600Y0141039D01*
X0007600Y0142238D02*
X0014150Y0142238D01*
X0014150Y0143436D02*
X0007600Y0143436D01*
X0007600Y0144635D02*
X0014150Y0144635D01*
X0014150Y0145833D02*
X0007600Y0145833D01*
X0007600Y0147032D02*
X0014150Y0147032D01*
X0014150Y0148230D02*
X0007600Y0148230D01*
X0007600Y0149429D02*
X0014150Y0149429D01*
X0014150Y0150627D02*
X0007600Y0150627D01*
X0007600Y0151826D02*
X0014150Y0151826D01*
X0014150Y0153024D02*
X0007600Y0153024D01*
X0007600Y0154223D02*
X0014150Y0154223D01*
X0014150Y0155421D02*
X0007600Y0155421D01*
X0007600Y0156620D02*
X0014150Y0156620D01*
X0014150Y0157818D02*
X0007600Y0157818D01*
X0007600Y0159017D02*
X0014150Y0159017D01*
X0014150Y0160215D02*
X0007600Y0160215D01*
X0007600Y0161414D02*
X0014150Y0161414D01*
X0014293Y0162612D02*
X0007600Y0162612D01*
X0007600Y0163811D02*
X0015491Y0163811D01*
X0016690Y0165009D02*
X0007600Y0165009D01*
X0007600Y0166208D02*
X0017888Y0166208D01*
X0019087Y0167406D02*
X0007600Y0167406D01*
X0007600Y0168605D02*
X0020285Y0168605D01*
X0021484Y0169803D02*
X0007600Y0169803D01*
X0007600Y0171002D02*
X0022682Y0171002D01*
X0024514Y0172201D02*
X0007600Y0172201D01*
X0007600Y0173399D02*
X0025712Y0173399D01*
X0024431Y0166208D02*
X0023828Y0166208D01*
X0022629Y0165009D02*
X0025630Y0165009D01*
X0021431Y0163811D02*
X0066650Y0163811D01*
X0066650Y0164020D02*
X0066650Y0137668D01*
X0066428Y0137576D01*
X0065274Y0136422D01*
X0064650Y0134916D01*
X0064650Y0133284D01*
X0065274Y0131778D01*
X0066428Y0130624D01*
X0067934Y0130000D01*
X0069566Y0130000D01*
X0071072Y0130624D01*
X0072226Y0131778D01*
X0072850Y0133284D01*
X0072850Y0134916D01*
X0072226Y0136422D01*
X0071072Y0137576D01*
X0070850Y0137668D01*
X0070850Y0164020D01*
X0072956Y0164020D01*
X0073893Y0164957D01*
X0073893Y0173369D01*
X0072956Y0174306D01*
X0064544Y0174306D01*
X0063607Y0173369D01*
X0063607Y0164957D01*
X0064544Y0164020D01*
X0066650Y0164020D01*
X0066650Y0162612D02*
X0060110Y0162612D01*
X0059499Y0162865D02*
X0060883Y0162292D01*
X0061942Y0161233D01*
X0062515Y0159849D01*
X0062515Y0158351D01*
X0061942Y0156967D01*
X0060883Y0155908D01*
X0059499Y0155335D01*
X0058001Y0155335D01*
X0056617Y0155908D01*
X0055558Y0156967D01*
X0054985Y0158351D01*
X0054985Y0159849D01*
X0055558Y0161233D01*
X0056617Y0162292D01*
X0058001Y0162865D01*
X0059499Y0162865D01*
X0057390Y0162612D02*
X0020232Y0162612D01*
X0019034Y0161414D02*
X0055739Y0161414D01*
X0055136Y0160215D02*
X0018350Y0160215D01*
X0018350Y0159017D02*
X0054985Y0159017D01*
X0055205Y0157818D02*
X0018350Y0157818D01*
X0018350Y0156620D02*
X0055905Y0156620D01*
X0057792Y0155421D02*
X0047926Y0155421D01*
X0048034Y0155377D02*
X0047348Y0155661D01*
X0046621Y0155805D01*
X0046250Y0155805D01*
X0045879Y0155805D01*
X0045152Y0155661D01*
X0044466Y0155377D01*
X0043850Y0154965D01*
X0043325Y0154440D01*
X0042913Y0153824D01*
X0042629Y0153138D01*
X0042485Y0152411D01*
X0042485Y0152040D01*
X0042485Y0151669D01*
X0042629Y0150942D01*
X0042913Y0150256D01*
X0043325Y0149640D01*
X0043850Y0149115D01*
X0044466Y0148703D01*
X0045152Y0148419D01*
X0045879Y0148275D01*
X0046250Y0148275D01*
X0046621Y0148275D01*
X0047348Y0148419D01*
X0048034Y0148703D01*
X0048650Y0149115D01*
X0049175Y0149640D01*
X0049587Y0150256D01*
X0049871Y0150942D01*
X0050015Y0151669D01*
X0050015Y0152040D01*
X0050015Y0152411D01*
X0049871Y0153138D01*
X0049587Y0153824D01*
X0049175Y0154440D01*
X0048650Y0154965D01*
X0048034Y0155377D01*
X0049320Y0154223D02*
X0066650Y0154223D01*
X0066650Y0155421D02*
X0059708Y0155421D01*
X0061595Y0156620D02*
X0066650Y0156620D01*
X0066650Y0157818D02*
X0062295Y0157818D01*
X0062515Y0159017D02*
X0066650Y0159017D01*
X0066650Y0160215D02*
X0062364Y0160215D01*
X0061761Y0161414D02*
X0066650Y0161414D01*
X0070850Y0161414D02*
X0085739Y0161414D01*
X0085558Y0161233D02*
X0084985Y0159849D01*
X0084985Y0158351D01*
X0085558Y0156967D01*
X0086617Y0155908D01*
X0088001Y0155335D01*
X0089499Y0155335D01*
X0090883Y0155908D01*
X0091942Y0156967D01*
X0092515Y0158351D01*
X0092515Y0159849D01*
X0091942Y0161233D01*
X0090883Y0162292D01*
X0089499Y0162865D01*
X0088001Y0162865D01*
X0086617Y0162292D01*
X0085558Y0161233D01*
X0085136Y0160215D02*
X0070850Y0160215D01*
X0070850Y0159017D02*
X0084985Y0159017D01*
X0085205Y0157818D02*
X0070850Y0157818D01*
X0070850Y0156620D02*
X0085905Y0156620D01*
X0087792Y0155421D02*
X0070850Y0155421D01*
X0070850Y0154223D02*
X0105950Y0154223D01*
X0105950Y0155421D02*
X0102846Y0155421D01*
X0105950Y0153024D02*
X0070850Y0153024D01*
X0070850Y0151826D02*
X0105950Y0151826D01*
X0105950Y0150627D02*
X0070850Y0150627D01*
X0070850Y0149429D02*
X0105950Y0149429D01*
X0105950Y0148230D02*
X0079259Y0148230D01*
X0079077Y0148259D02*
X0078750Y0148259D01*
X0078750Y0144100D01*
X0082909Y0144100D01*
X0082909Y0144427D01*
X0082807Y0145074D01*
X0082604Y0145697D01*
X0082307Y0146280D01*
X0081922Y0146809D01*
X0081459Y0147272D01*
X0080930Y0147657D01*
X0080347Y0147954D01*
X0079724Y0148157D01*
X0079077Y0148259D01*
X0078750Y0148259D02*
X0078423Y0148259D01*
X0077776Y0148157D01*
X0077153Y0147954D01*
X0076570Y0147657D01*
X0076041Y0147272D01*
X0075578Y0146809D01*
X0075193Y0146280D01*
X0074896Y0145697D01*
X0074693Y0145074D01*
X0074591Y0144427D01*
X0074591Y0144100D01*
X0078750Y0144100D01*
X0078750Y0144100D01*
X0078750Y0144100D01*
X0082909Y0144100D01*
X0082909Y0143773D01*
X0082807Y0143126D01*
X0082604Y0142503D01*
X0082307Y0141920D01*
X0081922Y0141391D01*
X0081459Y0140928D01*
X0080930Y0140543D01*
X0080347Y0140246D01*
X0079724Y0140043D01*
X0079077Y0139941D01*
X0078750Y0139941D01*
X0078750Y0144100D01*
X0078750Y0144100D01*
X0078750Y0144100D01*
X0078750Y0148259D01*
X0078750Y0148230D02*
X0078750Y0148230D01*
X0078241Y0148230D02*
X0070850Y0148230D01*
X0070850Y0147032D02*
X0075800Y0147032D01*
X0074965Y0145833D02*
X0070850Y0145833D01*
X0070850Y0144635D02*
X0074624Y0144635D01*
X0074591Y0144100D02*
X0074591Y0143773D01*
X0074693Y0143126D01*
X0074896Y0142503D01*
X0075193Y0141920D01*
X0075578Y0141391D01*
X0076041Y0140928D01*
X0076570Y0140543D01*
X0077153Y0140246D01*
X0077776Y0140043D01*
X0078423Y0139941D01*
X0078750Y0139941D01*
X0078750Y0144100D01*
X0074591Y0144100D01*
X0074644Y0143436D02*
X0070850Y0143436D01*
X0070850Y0142238D02*
X0075031Y0142238D01*
X0075929Y0141039D02*
X0070850Y0141039D01*
X0070850Y0139841D02*
X0105950Y0139841D01*
X0105950Y0141039D02*
X0100947Y0141039D01*
X0101150Y0141175D02*
X0101675Y0141700D01*
X0102087Y0142316D01*
X0102371Y0143002D01*
X0102515Y0143729D01*
X0102515Y0144100D01*
X0102515Y0144471D01*
X0102371Y0145198D01*
X0102087Y0145884D01*
X0101675Y0146500D01*
X0101150Y0147025D01*
X0100534Y0147437D01*
X0099848Y0147721D01*
X0099121Y0147865D01*
X0098750Y0147865D01*
X0098379Y0147865D01*
X0097652Y0147721D01*
X0096966Y0147437D01*
X0096350Y0147025D01*
X0095825Y0146500D01*
X0095413Y0145884D01*
X0095129Y0145198D01*
X0094985Y0144471D01*
X0094985Y0144100D01*
X0094985Y0143729D01*
X0095129Y0143002D01*
X0095413Y0142316D01*
X0095825Y0141700D01*
X0096350Y0141175D01*
X0096966Y0140763D01*
X0097652Y0140479D01*
X0098379Y0140335D01*
X0098750Y0140335D01*
X0099121Y0140335D01*
X0099848Y0140479D01*
X0100534Y0140763D01*
X0101150Y0141175D01*
X0102034Y0142238D02*
X0105950Y0142238D01*
X0105950Y0143436D02*
X0102457Y0143436D01*
X0102515Y0144100D02*
X0098750Y0144100D01*
X0098750Y0144100D01*
X0098750Y0147865D01*
X0098750Y0144100D01*
X0102515Y0144100D01*
X0102483Y0144635D02*
X0105950Y0144635D01*
X0105950Y0145833D02*
X0102108Y0145833D01*
X0101140Y0147032D02*
X0105950Y0147032D01*
X0111550Y0147032D02*
X0178578Y0147032D01*
X0179006Y0147459D02*
X0177891Y0146344D01*
X0177288Y0144888D01*
X0177288Y0143312D01*
X0177891Y0141856D01*
X0179006Y0140741D01*
X0180462Y0140138D01*
X0182038Y0140138D01*
X0183494Y0140741D01*
X0184609Y0141856D01*
X0185212Y0143312D01*
X0185212Y0144888D01*
X0184609Y0146344D01*
X0183494Y0147459D01*
X0182038Y0148062D01*
X0180462Y0148062D01*
X0179006Y0147459D01*
X0177679Y0145833D02*
X0111550Y0145833D01*
X0111550Y0144635D02*
X0177288Y0144635D01*
X0177288Y0143436D02*
X0111550Y0143436D01*
X0111550Y0142238D02*
X0177733Y0142238D01*
X0178707Y0141039D02*
X0111550Y0141039D01*
X0111550Y0139841D02*
X0200612Y0139841D01*
X0200555Y0139897D02*
X0201615Y0138838D01*
X0202999Y0138265D01*
X0204496Y0138265D01*
X0205880Y0138838D01*
X0206940Y0139897D01*
X0207513Y0141281D01*
X0207513Y0142779D01*
X0206940Y0144163D01*
X0205880Y0145222D01*
X0204496Y0145795D01*
X0202999Y0145795D01*
X0201615Y0145222D01*
X0200555Y0144163D01*
X0199982Y0142779D01*
X0199982Y0141281D01*
X0200555Y0139897D01*
X0200082Y0141039D02*
X0183793Y0141039D01*
X0184767Y0142238D02*
X0199982Y0142238D01*
X0200254Y0143436D02*
X0185212Y0143436D01*
X0185212Y0144635D02*
X0201027Y0144635D01*
X0206468Y0144635D02*
X0221650Y0144635D01*
X0221650Y0145730D02*
X0221650Y0037470D01*
X0202880Y0018700D01*
X0140521Y0018700D01*
X0140277Y0019290D01*
X0138940Y0020627D01*
X0137195Y0021350D01*
X0135305Y0021350D01*
X0133560Y0020627D01*
X0132223Y0019290D01*
X0131500Y0017545D01*
X0131500Y0015655D01*
X0132223Y0013910D01*
X0133560Y0012573D01*
X0135305Y0011850D01*
X0137195Y0011850D01*
X0138940Y0012573D01*
X0140277Y0013910D01*
X0140521Y0014500D01*
X0204620Y0014500D01*
X0205850Y0015730D01*
X0225850Y0035730D01*
X0225850Y0147470D01*
X0224620Y0148700D01*
X0224620Y0148700D01*
X0203287Y0170033D01*
X0202057Y0171263D01*
X0198447Y0171263D01*
X0198110Y0172076D01*
X0196663Y0173523D01*
X0194773Y0174306D01*
X0192727Y0174306D01*
X0190837Y0173523D01*
X0189390Y0172076D01*
X0188607Y0170186D01*
X0188607Y0168140D01*
X0189390Y0166250D01*
X0190837Y0164803D01*
X0192727Y0164020D01*
X0194773Y0164020D01*
X0196663Y0164803D01*
X0198110Y0166250D01*
X0198447Y0167063D01*
X0200317Y0167063D01*
X0221650Y0145730D01*
X0221547Y0145833D02*
X0184821Y0145833D01*
X0183922Y0147032D02*
X0220348Y0147032D01*
X0219150Y0148230D02*
X0111550Y0148230D01*
X0111550Y0149429D02*
X0217951Y0149429D01*
X0216753Y0150627D02*
X0111550Y0150627D01*
X0111550Y0151826D02*
X0215554Y0151826D01*
X0214356Y0153024D02*
X0111550Y0153024D01*
X0111550Y0154223D02*
X0213157Y0154223D01*
X0211959Y0155421D02*
X0111550Y0155421D01*
X0111550Y0156620D02*
X0210760Y0156620D01*
X0209562Y0157818D02*
X0111276Y0157818D01*
X0110293Y0159017D02*
X0208363Y0159017D01*
X0207165Y0160215D02*
X0109094Y0160215D01*
X0107896Y0161414D02*
X0205966Y0161414D01*
X0204768Y0162612D02*
X0103012Y0162612D01*
X0094488Y0162612D02*
X0090110Y0162612D01*
X0091761Y0161414D02*
X0094394Y0161414D01*
X0094394Y0160215D02*
X0092364Y0160215D01*
X0092515Y0159017D02*
X0094394Y0159017D01*
X0094394Y0157818D02*
X0092295Y0157818D01*
X0091595Y0156620D02*
X0094394Y0156620D01*
X0094654Y0155421D02*
X0089708Y0155421D01*
X0089499Y0147865D02*
X0088001Y0147865D01*
X0086617Y0147292D01*
X0085558Y0146233D01*
X0084985Y0144849D01*
X0084985Y0143351D01*
X0085558Y0141967D01*
X0086617Y0140908D01*
X0088001Y0140335D01*
X0089499Y0140335D01*
X0090883Y0140908D01*
X0091942Y0141967D01*
X0092515Y0143351D01*
X0092515Y0144849D01*
X0091942Y0146233D01*
X0090883Y0147292D01*
X0089499Y0147865D01*
X0091143Y0147032D02*
X0096360Y0147032D01*
X0095392Y0145833D02*
X0092108Y0145833D01*
X0092515Y0144635D02*
X0095017Y0144635D01*
X0094985Y0144100D02*
X0098750Y0144100D01*
X0098750Y0144100D01*
X0098750Y0144100D01*
X0098750Y0140335D01*
X0098750Y0144100D01*
X0098750Y0144100D01*
X0094985Y0144100D01*
X0095043Y0143436D02*
X0092515Y0143436D01*
X0092054Y0142238D02*
X0095466Y0142238D01*
X0096553Y0141039D02*
X0091014Y0141039D01*
X0086486Y0141039D02*
X0081571Y0141039D01*
X0082469Y0142238D02*
X0085446Y0142238D01*
X0084985Y0143436D02*
X0082856Y0143436D01*
X0082876Y0144635D02*
X0084985Y0144635D01*
X0085392Y0145833D02*
X0082535Y0145833D01*
X0081700Y0147032D02*
X0086357Y0147032D01*
X0078750Y0147032D02*
X0078750Y0147032D01*
X0078750Y0145833D02*
X0078750Y0145833D01*
X0078750Y0144635D02*
X0078750Y0144635D01*
X0078750Y0143436D02*
X0078750Y0143436D01*
X0078750Y0142238D02*
X0078750Y0142238D01*
X0078750Y0141039D02*
X0078750Y0141039D01*
X0077934Y0138200D02*
X0076428Y0137576D01*
X0075274Y0136422D01*
X0074650Y0134916D01*
X0074650Y0133284D01*
X0075274Y0131778D01*
X0076428Y0130624D01*
X0077934Y0130000D01*
X0079566Y0130000D01*
X0081072Y0130624D01*
X0082226Y0131778D01*
X0082850Y0133284D01*
X0082850Y0134916D01*
X0082226Y0136422D01*
X0081072Y0137576D01*
X0079566Y0138200D01*
X0077934Y0138200D01*
X0076295Y0137444D02*
X0071205Y0137444D01*
X0070850Y0138642D02*
X0105950Y0138642D01*
X0105950Y0137444D02*
X0081205Y0137444D01*
X0082299Y0136245D02*
X0105950Y0136245D01*
X0105950Y0135047D02*
X0082796Y0135047D01*
X0082850Y0133848D02*
X0105950Y0133848D01*
X0105950Y0132650D02*
X0082587Y0132650D01*
X0081899Y0131451D02*
X0105950Y0131451D01*
X0105950Y0130253D02*
X0080175Y0130253D01*
X0077325Y0130253D02*
X0070175Y0130253D01*
X0071899Y0131451D02*
X0075601Y0131451D01*
X0074913Y0132650D02*
X0072587Y0132650D01*
X0072850Y0133848D02*
X0074650Y0133848D01*
X0074704Y0135047D02*
X0072796Y0135047D01*
X0072299Y0136245D02*
X0075201Y0136245D01*
X0067325Y0130253D02*
X0060175Y0130253D01*
X0059566Y0130000D02*
X0061072Y0130624D01*
X0062226Y0131778D01*
X0062850Y0133284D01*
X0062850Y0134916D01*
X0062226Y0136422D01*
X0061072Y0137576D01*
X0059566Y0138200D01*
X0057934Y0138200D01*
X0056428Y0137576D01*
X0055274Y0136422D01*
X0054650Y0134916D01*
X0054650Y0133284D01*
X0055274Y0131778D01*
X0056428Y0130624D01*
X0057934Y0130000D01*
X0059566Y0130000D01*
X0057325Y0130253D02*
X0050175Y0130253D01*
X0049566Y0130000D02*
X0051072Y0130624D01*
X0052226Y0131778D01*
X0052850Y0133284D01*
X0052850Y0134916D01*
X0052226Y0136422D01*
X0051072Y0137576D01*
X0049566Y0138200D01*
X0047934Y0138200D01*
X0046428Y0137576D01*
X0045274Y0136422D01*
X0044650Y0134916D01*
X0044650Y0133284D01*
X0045274Y0131778D01*
X0046428Y0130624D01*
X0047934Y0130000D01*
X0049566Y0130000D01*
X0047325Y0130253D02*
X0040274Y0130253D01*
X0040409Y0129927D02*
X0039776Y0131456D01*
X0038606Y0132626D01*
X0037077Y0133259D01*
X0035423Y0133259D01*
X0033894Y0132626D01*
X0032724Y0131456D01*
X0032091Y0129927D01*
X0032091Y0128273D01*
X0032724Y0126744D01*
X0033894Y0125574D01*
X0035423Y0124941D01*
X0037077Y0124941D01*
X0038606Y0125574D01*
X0039776Y0126744D01*
X0040409Y0128273D01*
X0040409Y0129927D01*
X0040409Y0129054D02*
X0105950Y0129054D01*
X0105950Y0127856D02*
X0040236Y0127856D01*
X0039689Y0126657D02*
X0105950Y0126657D01*
X0105950Y0125459D02*
X0038327Y0125459D01*
X0034173Y0125459D02*
X0025827Y0125459D01*
X0026106Y0125574D02*
X0027276Y0126744D01*
X0027909Y0128273D01*
X0027909Y0129927D01*
X0027276Y0131456D01*
X0026106Y0132626D01*
X0024577Y0133259D01*
X0022923Y0133259D01*
X0021394Y0132626D01*
X0020224Y0131456D01*
X0019591Y0129927D01*
X0019591Y0128273D01*
X0020224Y0126744D01*
X0021394Y0125574D01*
X0022923Y0124941D01*
X0024577Y0124941D01*
X0026106Y0125574D01*
X0027189Y0126657D02*
X0032811Y0126657D01*
X0032264Y0127856D02*
X0027736Y0127856D01*
X0027909Y0129054D02*
X0032091Y0129054D01*
X0032226Y0130253D02*
X0027774Y0130253D01*
X0027278Y0131451D02*
X0032722Y0131451D01*
X0033952Y0132650D02*
X0026048Y0132650D01*
X0021452Y0132650D02*
X0018350Y0132650D01*
X0018350Y0133848D02*
X0044650Y0133848D01*
X0044704Y0135047D02*
X0018350Y0135047D01*
X0018350Y0136245D02*
X0045201Y0136245D01*
X0046295Y0137444D02*
X0018350Y0137444D01*
X0018350Y0138642D02*
X0066650Y0138642D01*
X0066650Y0139841D02*
X0018350Y0139841D01*
X0018350Y0141039D02*
X0042777Y0141039D01*
X0042485Y0141332D02*
X0043422Y0140395D01*
X0049078Y0140395D01*
X0050015Y0141332D01*
X0050015Y0146988D01*
X0049078Y0147925D01*
X0043422Y0147925D01*
X0042485Y0146988D01*
X0042485Y0141332D01*
X0042485Y0142238D02*
X0018350Y0142238D01*
X0018350Y0143436D02*
X0042485Y0143436D01*
X0042485Y0144635D02*
X0018350Y0144635D01*
X0018350Y0145833D02*
X0042485Y0145833D01*
X0042528Y0147032D02*
X0018350Y0147032D01*
X0018350Y0148230D02*
X0057853Y0148230D01*
X0057923Y0148259D02*
X0056394Y0147626D01*
X0055224Y0146456D01*
X0054591Y0144927D01*
X0054591Y0143273D01*
X0055224Y0141744D01*
X0056394Y0140574D01*
X0057923Y0139941D01*
X0059577Y0139941D01*
X0061106Y0140574D01*
X0062276Y0141744D01*
X0062909Y0143273D01*
X0062909Y0144927D01*
X0062276Y0146456D01*
X0061106Y0147626D01*
X0059577Y0148259D01*
X0057923Y0148259D01*
X0059647Y0148230D02*
X0066650Y0148230D01*
X0066650Y0147032D02*
X0061700Y0147032D01*
X0062534Y0145833D02*
X0066650Y0145833D01*
X0066650Y0144635D02*
X0062909Y0144635D01*
X0062909Y0143436D02*
X0066650Y0143436D01*
X0066650Y0142238D02*
X0062480Y0142238D01*
X0061571Y0141039D02*
X0066650Y0141039D01*
X0066295Y0137444D02*
X0061205Y0137444D01*
X0062299Y0136245D02*
X0065201Y0136245D01*
X0064704Y0135047D02*
X0062796Y0135047D01*
X0062850Y0133848D02*
X0064650Y0133848D01*
X0064913Y0132650D02*
X0062587Y0132650D01*
X0061899Y0131451D02*
X0065601Y0131451D01*
X0055601Y0131451D02*
X0051899Y0131451D01*
X0052587Y0132650D02*
X0054913Y0132650D01*
X0054650Y0133848D02*
X0052850Y0133848D01*
X0052796Y0135047D02*
X0054704Y0135047D01*
X0055201Y0136245D02*
X0052299Y0136245D01*
X0051205Y0137444D02*
X0056295Y0137444D01*
X0055929Y0141039D02*
X0049723Y0141039D01*
X0050015Y0142238D02*
X0055020Y0142238D01*
X0054591Y0143436D02*
X0050015Y0143436D01*
X0050015Y0144635D02*
X0054591Y0144635D01*
X0054966Y0145833D02*
X0050015Y0145833D01*
X0049972Y0147032D02*
X0055800Y0147032D01*
X0049740Y0150627D02*
X0066650Y0150627D01*
X0066650Y0149429D02*
X0048964Y0149429D01*
X0050015Y0151826D02*
X0066650Y0151826D01*
X0066650Y0153024D02*
X0049893Y0153024D01*
X0050015Y0152040D02*
X0046250Y0152040D01*
X0046250Y0148275D01*
X0046250Y0152040D01*
X0046250Y0152040D01*
X0046250Y0152040D01*
X0046250Y0155805D01*
X0046250Y0152040D01*
X0046250Y0152040D01*
X0050015Y0152040D01*
X0046250Y0152040D02*
X0042485Y0152040D01*
X0046250Y0152040D01*
X0046250Y0152040D01*
X0046250Y0151826D02*
X0046250Y0151826D01*
X0046250Y0153024D02*
X0046250Y0153024D01*
X0046250Y0154223D02*
X0046250Y0154223D01*
X0046250Y0155421D02*
X0046250Y0155421D01*
X0044574Y0155421D02*
X0018350Y0155421D01*
X0018350Y0154223D02*
X0043180Y0154223D01*
X0042607Y0153024D02*
X0018350Y0153024D01*
X0018350Y0151826D02*
X0042485Y0151826D01*
X0042760Y0150627D02*
X0018350Y0150627D01*
X0018350Y0149429D02*
X0043536Y0149429D01*
X0046250Y0149429D02*
X0046250Y0149429D01*
X0046250Y0150627D02*
X0046250Y0150627D01*
X0047727Y0164020D02*
X0049773Y0164020D01*
X0051663Y0164803D01*
X0053110Y0166250D01*
X0053893Y0168140D01*
X0053893Y0170186D01*
X0053110Y0172076D01*
X0051663Y0173523D01*
X0049773Y0174306D01*
X0047727Y0174306D01*
X0045837Y0173523D01*
X0044390Y0172076D01*
X0043607Y0170186D01*
X0043607Y0168140D01*
X0044390Y0166250D01*
X0045837Y0164803D01*
X0047727Y0164020D01*
X0045630Y0165009D02*
X0031870Y0165009D01*
X0033069Y0166208D02*
X0044431Y0166208D01*
X0043910Y0167406D02*
X0033589Y0167406D01*
X0033893Y0168605D02*
X0043607Y0168605D01*
X0043607Y0169803D02*
X0033893Y0169803D01*
X0033555Y0171002D02*
X0043945Y0171002D01*
X0044514Y0172201D02*
X0032986Y0172201D01*
X0031788Y0173399D02*
X0045712Y0173399D01*
X0051788Y0173399D02*
X0063637Y0173399D01*
X0063607Y0172201D02*
X0052986Y0172201D01*
X0053555Y0171002D02*
X0063607Y0171002D01*
X0063607Y0169803D02*
X0053893Y0169803D01*
X0053893Y0168605D02*
X0063607Y0168605D01*
X0063607Y0167406D02*
X0053589Y0167406D01*
X0053069Y0166208D02*
X0063607Y0166208D01*
X0063607Y0165009D02*
X0051870Y0165009D01*
X0070850Y0163811D02*
X0203569Y0163811D01*
X0202371Y0165009D02*
X0196870Y0165009D01*
X0198069Y0166208D02*
X0201172Y0166208D01*
X0203516Y0169803D02*
X0208607Y0169803D01*
X0208607Y0169646D02*
X0213267Y0169646D01*
X0213267Y0174306D01*
X0209996Y0174306D01*
X0209589Y0174197D01*
X0209224Y0173987D01*
X0208926Y0173689D01*
X0208716Y0173324D01*
X0208607Y0172917D01*
X0208607Y0169646D01*
X0208607Y0168680D02*
X0208607Y0165409D01*
X0208716Y0165002D01*
X0208926Y0164637D01*
X0209224Y0164339D01*
X0209589Y0164129D01*
X0209996Y0164020D01*
X0213267Y0164020D01*
X0213267Y0168680D01*
X0208607Y0168680D01*
X0208607Y0168605D02*
X0204715Y0168605D01*
X0205913Y0167406D02*
X0208607Y0167406D01*
X0208607Y0166208D02*
X0207112Y0166208D01*
X0208310Y0165009D02*
X0208714Y0165009D01*
X0209509Y0163811D02*
X0234683Y0163811D01*
X0234683Y0165009D02*
X0218786Y0165009D01*
X0218784Y0165002D02*
X0218893Y0165409D01*
X0218893Y0168680D01*
X0214233Y0168680D01*
X0214233Y0169646D01*
X0213267Y0169646D01*
X0213267Y0168680D01*
X0214233Y0168680D01*
X0214233Y0164020D01*
X0217504Y0164020D01*
X0217911Y0164129D01*
X0218276Y0164339D01*
X0218574Y0164637D01*
X0218784Y0165002D01*
X0218893Y0166208D02*
X0234683Y0166208D01*
X0234683Y0167406D02*
X0218893Y0167406D01*
X0218893Y0168605D02*
X0234683Y0168605D01*
X0234683Y0169803D02*
X0218893Y0169803D01*
X0218893Y0169646D02*
X0218893Y0172917D01*
X0218784Y0173324D01*
X0218574Y0173689D01*
X0218276Y0173987D01*
X0217911Y0174197D01*
X0217504Y0174306D01*
X0214233Y0174306D01*
X0214233Y0169646D01*
X0218893Y0169646D01*
X0218893Y0171002D02*
X0234683Y0171002D01*
X0234683Y0172201D02*
X0218893Y0172201D01*
X0218741Y0173399D02*
X0234683Y0173399D01*
X0234683Y0174598D02*
X0007600Y0174598D01*
X0007600Y0175796D02*
X0095894Y0175796D01*
X0095912Y0175777D02*
X0096467Y0175374D01*
X0097078Y0175063D01*
X0097730Y0174851D01*
X0098407Y0174744D01*
X0098661Y0174744D01*
X0098661Y0179011D01*
X0094394Y0179011D01*
X0094394Y0178757D01*
X0094501Y0178080D01*
X0094713Y0177428D01*
X0095024Y0176817D01*
X0095427Y0176262D01*
X0095912Y0175777D01*
X0094934Y0176995D02*
X0007600Y0176995D01*
X0007600Y0178193D02*
X0094483Y0178193D01*
X0094394Y0179189D02*
X0098661Y0179189D01*
X0098661Y0183456D01*
X0098407Y0183456D01*
X0097730Y0183349D01*
X0097078Y0183137D01*
X0096467Y0182825D01*
X0095912Y0182422D01*
X0095427Y0181938D01*
X0095024Y0181383D01*
X0094713Y0180772D01*
X0094501Y0180120D01*
X0094394Y0179443D01*
X0094394Y0179189D01*
X0094394Y0179392D02*
X0007600Y0179392D01*
X0007600Y0180590D02*
X0094654Y0180590D01*
X0095319Y0181789D02*
X0007600Y0181789D01*
X0007600Y0182987D02*
X0096784Y0182987D01*
X0098661Y0182987D02*
X0098839Y0182987D01*
X0098839Y0183456D02*
X0098839Y0179189D01*
X0098661Y0179189D01*
X0098661Y0179011D01*
X0098839Y0179011D01*
X0098839Y0179189D01*
X0103106Y0179189D01*
X0103106Y0179443D01*
X0102999Y0180120D01*
X0102787Y0180772D01*
X0102475Y0181383D01*
X0102072Y0181938D01*
X0101588Y0182422D01*
X0101033Y0182825D01*
X0100422Y0183137D01*
X0099770Y0183349D01*
X0099093Y0183456D01*
X0098839Y0183456D01*
X0098839Y0181789D02*
X0098661Y0181789D01*
X0098661Y0180590D02*
X0098839Y0180590D01*
X0098839Y0179392D02*
X0098661Y0179392D01*
X0098839Y0179011D02*
X0103106Y0179011D01*
X0103106Y0178757D01*
X0102999Y0178080D01*
X0102787Y0177428D01*
X0102475Y0176817D01*
X0102072Y0176262D01*
X0101588Y0175777D01*
X0101033Y0175374D01*
X0100422Y0175063D01*
X0099770Y0174851D01*
X0099093Y0174744D01*
X0098839Y0174744D01*
X0098839Y0179011D01*
X0098839Y0178193D02*
X0098661Y0178193D01*
X0098661Y0176995D02*
X0098839Y0176995D01*
X0098839Y0175796D02*
X0098661Y0175796D01*
X0101606Y0175796D02*
X0234683Y0175796D01*
X0234683Y0176995D02*
X0102566Y0176995D01*
X0103017Y0178193D02*
X0234683Y0178193D01*
X0234683Y0179392D02*
X0103106Y0179392D01*
X0102846Y0180590D02*
X0234683Y0180590D01*
X0234683Y0181789D02*
X0102181Y0181789D01*
X0100716Y0182987D02*
X0234683Y0182987D01*
X0234683Y0184186D02*
X0007600Y0184186D01*
X0007600Y0185384D02*
X0234683Y0185384D01*
X0234683Y0186583D02*
X0007600Y0186583D01*
X0007600Y0187781D02*
X0234683Y0187781D01*
X0234683Y0188980D02*
X0007600Y0188980D01*
X0007600Y0190178D02*
X0234683Y0190178D01*
X0234683Y0191377D02*
X0007600Y0191377D01*
X0007600Y0192575D02*
X0234683Y0192575D01*
X0234683Y0193774D02*
X0007600Y0193774D01*
X0007600Y0194972D02*
X0234683Y0194972D01*
X0234683Y0196171D02*
X0007600Y0196171D01*
X0007600Y0197369D02*
X0234683Y0197369D01*
X0234683Y0198568D02*
X0007600Y0198568D01*
X0007600Y0199766D02*
X0234683Y0199766D01*
X0234683Y0200965D02*
X0007600Y0200965D01*
X0007600Y0202163D02*
X0234683Y0202163D01*
X0234683Y0203362D02*
X0007600Y0203362D01*
X0007600Y0204560D02*
X0234683Y0204560D01*
X0234683Y0205759D02*
X0007600Y0205759D01*
X0007600Y0206957D02*
X0234683Y0206957D01*
X0234683Y0208156D02*
X0007600Y0208156D01*
X0007600Y0209354D02*
X0234683Y0209354D01*
X0234683Y0210553D02*
X0211011Y0210553D01*
X0210947Y0210489D02*
X0212560Y0212102D01*
X0213433Y0214209D01*
X0213433Y0216491D01*
X0212560Y0218598D01*
X0210947Y0220211D01*
X0208839Y0221084D01*
X0206558Y0221084D01*
X0204451Y0220211D01*
X0202838Y0218598D01*
X0201965Y0216491D01*
X0201965Y0214209D01*
X0202838Y0212102D01*
X0204451Y0210489D01*
X0206558Y0209616D01*
X0208839Y0209616D01*
X0210947Y0210489D01*
X0212209Y0211751D02*
X0234683Y0211751D01*
X0234683Y0212950D02*
X0212911Y0212950D01*
X0213407Y0214148D02*
X0234683Y0214148D01*
X0234683Y0215347D02*
X0213433Y0215347D01*
X0213410Y0216545D02*
X0234683Y0216545D01*
X0234683Y0217744D02*
X0212913Y0217744D01*
X0212215Y0218942D02*
X0234683Y0218942D01*
X0234683Y0220141D02*
X0211017Y0220141D01*
X0204381Y0220141D02*
X0147119Y0220141D01*
X0147049Y0220211D02*
X0144942Y0221084D01*
X0142661Y0221084D01*
X0140553Y0220211D01*
X0138940Y0218598D01*
X0138067Y0216491D01*
X0138067Y0214209D01*
X0138940Y0212102D01*
X0140553Y0210489D01*
X0142661Y0209616D01*
X0144942Y0209616D01*
X0147049Y0210489D01*
X0148662Y0212102D01*
X0149535Y0214209D01*
X0149535Y0216491D01*
X0148662Y0218598D01*
X0147049Y0220211D01*
X0148318Y0218942D02*
X0203182Y0218942D01*
X0202484Y0217744D02*
X0149016Y0217744D01*
X0149512Y0216545D02*
X0201988Y0216545D01*
X0201965Y0215347D02*
X0149535Y0215347D01*
X0149510Y0214148D02*
X0201990Y0214148D01*
X0202487Y0212950D02*
X0149013Y0212950D01*
X0148311Y0211751D02*
X0203189Y0211751D01*
X0204387Y0210553D02*
X0147113Y0210553D01*
X0140489Y0210553D02*
X0101572Y0210553D01*
X0101571Y0210552D02*
X0103184Y0212165D01*
X0104057Y0214272D01*
X0104057Y0216554D01*
X0103184Y0218661D01*
X0101571Y0220274D01*
X0099463Y0221147D01*
X0097182Y0221147D01*
X0095075Y0220274D01*
X0093462Y0218661D01*
X0092589Y0216554D01*
X0092589Y0214272D01*
X0093462Y0212165D01*
X0095075Y0210552D01*
X0097182Y0209679D01*
X0099463Y0209679D01*
X0101571Y0210552D01*
X0102770Y0211751D02*
X0139291Y0211751D01*
X0138589Y0212950D02*
X0103509Y0212950D01*
X0104005Y0214148D02*
X0138093Y0214148D01*
X0138067Y0215347D02*
X0104057Y0215347D01*
X0104057Y0216545D02*
X0138090Y0216545D01*
X0138587Y0217744D02*
X0103564Y0217744D01*
X0102902Y0218942D02*
X0139285Y0218942D01*
X0140483Y0220141D02*
X0101704Y0220141D01*
X0094942Y0220141D02*
X0037806Y0220141D01*
X0037673Y0220274D02*
X0035566Y0221147D01*
X0033285Y0221147D01*
X0031177Y0220274D01*
X0029564Y0218661D01*
X0028691Y0216554D01*
X0028691Y0214272D01*
X0029564Y0212165D01*
X0031177Y0210552D01*
X0033285Y0209679D01*
X0035566Y0209679D01*
X0037673Y0210552D01*
X0039286Y0212165D01*
X0040159Y0214272D01*
X0040159Y0216554D01*
X0039286Y0218661D01*
X0037673Y0220274D01*
X0039005Y0218942D02*
X0093743Y0218942D01*
X0093082Y0217744D02*
X0039666Y0217744D01*
X0040159Y0216545D02*
X0092589Y0216545D01*
X0092589Y0215347D02*
X0040159Y0215347D01*
X0040108Y0214148D02*
X0092640Y0214148D01*
X0093137Y0212950D02*
X0039611Y0212950D01*
X0038872Y0211751D02*
X0093876Y0211751D01*
X0095074Y0210553D02*
X0037674Y0210553D01*
X0031176Y0210553D02*
X0007600Y0210553D01*
X0007600Y0211751D02*
X0029978Y0211751D01*
X0029239Y0212950D02*
X0007600Y0212950D01*
X0007600Y0214148D02*
X0028743Y0214148D01*
X0028691Y0215347D02*
X0007600Y0215347D01*
X0007600Y0216545D02*
X0028691Y0216545D01*
X0029184Y0217744D02*
X0007600Y0217744D01*
X0007600Y0218942D02*
X0029846Y0218942D01*
X0031044Y0220141D02*
X0007600Y0220141D01*
X0007600Y0221339D02*
X0234683Y0221339D01*
X0234683Y0222538D02*
X0007600Y0222538D01*
X0007600Y0223737D02*
X0234683Y0223737D01*
X0234683Y0224935D02*
X0123216Y0224935D01*
X0123745Y0225077D02*
X0124777Y0225504D01*
X0125744Y0226063D01*
X0126630Y0226743D01*
X0127420Y0227532D01*
X0128100Y0228419D01*
X0128659Y0229386D01*
X0129086Y0230418D01*
X0129375Y0231497D01*
X0129516Y0232563D01*
X0121600Y0232563D01*
X0121600Y0233763D01*
X0120400Y0233763D01*
X0120400Y0241679D01*
X0119334Y0241538D01*
X0118255Y0241249D01*
X0117223Y0240822D01*
X0116256Y0240263D01*
X0115369Y0239583D01*
X0114580Y0238793D01*
X0113900Y0237907D01*
X0113341Y0236940D01*
X0112914Y0235908D01*
X0112625Y0234829D01*
X0112484Y0233763D01*
X0120400Y0233763D01*
X0120400Y0232563D01*
X0112484Y0232563D01*
X0112625Y0231497D01*
X0112914Y0230418D01*
X0113341Y0229386D01*
X0113900Y0228419D01*
X0114580Y0227532D01*
X0115369Y0226743D01*
X0116256Y0226063D01*
X0117223Y0225504D01*
X0118255Y0225077D01*
X0119334Y0224788D01*
X0120400Y0224647D01*
X0120400Y0232563D01*
X0121600Y0232563D01*
X0121600Y0224647D01*
X0122666Y0224788D01*
X0123745Y0225077D01*
X0121600Y0224935D02*
X0120400Y0224935D01*
X0120400Y0226134D02*
X0121600Y0226134D01*
X0121600Y0227332D02*
X0120400Y0227332D01*
X0120400Y0228531D02*
X0121600Y0228531D01*
X0121600Y0229729D02*
X0120400Y0229729D01*
X0120400Y0230928D02*
X0121600Y0230928D01*
X0121600Y0232126D02*
X0120400Y0232126D01*
X0120400Y0233325D02*
X0007600Y0233325D01*
X0007600Y0234523D02*
X0112584Y0234523D01*
X0112864Y0235722D02*
X0101740Y0235722D01*
X0101571Y0235552D02*
X0103184Y0237165D01*
X0104057Y0239272D01*
X0104057Y0241554D01*
X0103184Y0243661D01*
X0101571Y0245274D01*
X0099463Y0246147D01*
X0097182Y0246147D01*
X0095075Y0245274D01*
X0093462Y0243661D01*
X0092589Y0241554D01*
X0092589Y0239272D01*
X0093462Y0237165D01*
X0095075Y0235552D01*
X0097182Y0234679D01*
X0099463Y0234679D01*
X0101571Y0235552D01*
X0102939Y0236920D02*
X0113333Y0236920D01*
X0114062Y0238119D02*
X0103579Y0238119D01*
X0104057Y0239317D02*
X0115103Y0239317D01*
X0116693Y0240516D02*
X0104057Y0240516D01*
X0103990Y0241714D02*
X0138160Y0241714D01*
X0138067Y0241491D02*
X0138067Y0239209D01*
X0138940Y0237102D01*
X0140553Y0235489D01*
X0142661Y0234616D01*
X0144942Y0234616D01*
X0147049Y0235489D01*
X0148662Y0237102D01*
X0149535Y0239209D01*
X0149535Y0241491D01*
X0148662Y0243598D01*
X0147049Y0245211D01*
X0144942Y0246084D01*
X0142661Y0246084D01*
X0140553Y0245211D01*
X0138940Y0243598D01*
X0138067Y0241491D01*
X0138067Y0240516D02*
X0125307Y0240516D01*
X0125744Y0240263D02*
X0124777Y0240822D01*
X0123745Y0241249D01*
X0122666Y0241538D01*
X0121600Y0241679D01*
X0121600Y0233763D01*
X0129516Y0233763D01*
X0129375Y0234829D01*
X0129086Y0235908D01*
X0128659Y0236940D01*
X0128100Y0237907D01*
X0127420Y0238793D01*
X0126630Y0239583D01*
X0125744Y0240263D01*
X0126897Y0239317D02*
X0138067Y0239317D01*
X0138519Y0238119D02*
X0127938Y0238119D01*
X0128667Y0236920D02*
X0139122Y0236920D01*
X0140321Y0235722D02*
X0129136Y0235722D01*
X0129416Y0234523D02*
X0234683Y0234523D01*
X0234683Y0233325D02*
X0121600Y0233325D01*
X0121600Y0234523D02*
X0120400Y0234523D01*
X0120400Y0235722D02*
X0121600Y0235722D01*
X0121600Y0236920D02*
X0120400Y0236920D01*
X0120400Y0238119D02*
X0121600Y0238119D01*
X0121600Y0239317D02*
X0120400Y0239317D01*
X0120400Y0240516D02*
X0121600Y0240516D01*
X0122695Y0248264D02*
X0119305Y0248264D01*
X0116173Y0249561D01*
X0113776Y0251958D01*
X0112479Y0255090D01*
X0112479Y0258480D01*
X0113776Y0261612D01*
X0116173Y0264009D01*
X0119305Y0265306D01*
X0122695Y0265306D01*
X0125827Y0264009D01*
X0128224Y0261612D01*
X0129521Y0258480D01*
X0129521Y0255090D01*
X0128224Y0251958D01*
X0125827Y0249561D01*
X0122695Y0248264D01*
X0124244Y0248905D02*
X0234683Y0248905D01*
X0234683Y0247707D02*
X0007600Y0247707D01*
X0007600Y0248905D02*
X0117756Y0248905D01*
X0115630Y0250104D02*
X0007600Y0250104D01*
X0007600Y0251302D02*
X0114432Y0251302D01*
X0113551Y0252501D02*
X0007600Y0252501D01*
X0007600Y0253699D02*
X0113055Y0253699D01*
X0112558Y0254898D02*
X0007600Y0254898D01*
X0007600Y0256096D02*
X0112479Y0256096D01*
X0112479Y0257295D02*
X0027806Y0257295D01*
X0028126Y0257427D02*
X0028858Y0258159D01*
X0029254Y0259114D01*
X0029254Y0262933D01*
X0029521Y0262408D01*
X0030052Y0261678D01*
X0030690Y0261039D01*
X0031420Y0260509D01*
X0032224Y0260099D01*
X0033083Y0259820D01*
X0033825Y0259703D01*
X0033825Y0264813D01*
X0035025Y0264813D01*
X0035025Y0259703D01*
X0035768Y0259820D01*
X0036626Y0260099D01*
X0037430Y0260509D01*
X0038161Y0261039D01*
X0038799Y0261678D01*
X0039329Y0262408D01*
X0039739Y0263212D01*
X0040018Y0264070D01*
X0040135Y0264813D01*
X0035025Y0264813D01*
X0035025Y0266013D01*
X0033825Y0266013D01*
X0033825Y0271123D01*
X0033083Y0271006D01*
X0032224Y0270727D01*
X0031420Y0270317D01*
X0030690Y0269787D01*
X0030052Y0269148D01*
X0029521Y0268418D01*
X0029254Y0267893D01*
X0029254Y0284591D01*
X0213030Y0284591D01*
X0213030Y0267463D01*
X0212560Y0268598D01*
X0210947Y0270211D01*
X0208839Y0271084D01*
X0206558Y0271084D01*
X0204451Y0270211D01*
X0202838Y0268598D01*
X0201965Y0266491D01*
X0201965Y0264209D01*
X0202838Y0262102D01*
X0204451Y0260489D01*
X0206558Y0259616D01*
X0208839Y0259616D01*
X0210947Y0260489D01*
X0212560Y0262102D01*
X0213030Y0263237D01*
X0213030Y0259114D01*
X0213426Y0258159D01*
X0214157Y0257427D01*
X0215113Y0257031D01*
X0234683Y0257031D01*
X0234683Y0009200D01*
X0007600Y0009200D01*
X0007600Y0257031D01*
X0027171Y0257031D01*
X0028126Y0257427D01*
X0028996Y0258493D02*
X0112484Y0258493D01*
X0112981Y0259692D02*
X0099494Y0259692D01*
X0099463Y0259679D02*
X0101571Y0260552D01*
X0103184Y0262165D01*
X0104057Y0264272D01*
X0104057Y0266554D01*
X0103184Y0268661D01*
X0101571Y0270274D01*
X0099463Y0271147D01*
X0097182Y0271147D01*
X0095075Y0270274D01*
X0093462Y0268661D01*
X0092589Y0266554D01*
X0092589Y0264272D01*
X0093462Y0262165D01*
X0095075Y0260552D01*
X0097182Y0259679D01*
X0099463Y0259679D01*
X0097152Y0259692D02*
X0029254Y0259692D01*
X0029254Y0260890D02*
X0030895Y0260890D01*
X0029753Y0262089D02*
X0029254Y0262089D01*
X0033825Y0262089D02*
X0035025Y0262089D01*
X0035025Y0263287D02*
X0033825Y0263287D01*
X0033825Y0264486D02*
X0035025Y0264486D01*
X0035025Y0265684D02*
X0092589Y0265684D01*
X0092589Y0264486D02*
X0040084Y0264486D01*
X0039763Y0263287D02*
X0092997Y0263287D01*
X0093538Y0262089D02*
X0039098Y0262089D01*
X0037955Y0260890D02*
X0094737Y0260890D01*
X0092725Y0266883D02*
X0039977Y0266883D01*
X0040018Y0266756D02*
X0039739Y0267614D01*
X0039329Y0268418D01*
X0038799Y0269148D01*
X0038161Y0269787D01*
X0037430Y0270317D01*
X0036626Y0270727D01*
X0035768Y0271006D01*
X0035025Y0271123D01*
X0035025Y0266013D01*
X0040135Y0266013D01*
X0040018Y0266756D01*
X0039501Y0268081D02*
X0093222Y0268081D01*
X0094081Y0269280D02*
X0038667Y0269280D01*
X0037114Y0270478D02*
X0095569Y0270478D01*
X0101077Y0270478D02*
X0141236Y0270478D01*
X0141600Y0270664D02*
X0140796Y0270254D01*
X0140066Y0269724D01*
X0139428Y0269085D01*
X0138897Y0268355D01*
X0138487Y0267551D01*
X0138209Y0266693D01*
X0138091Y0265950D01*
X0143201Y0265950D01*
X0143201Y0264750D01*
X0138091Y0264750D01*
X0138209Y0264007D01*
X0138487Y0263149D01*
X0138897Y0262345D01*
X0139428Y0261615D01*
X0140066Y0260976D01*
X0140796Y0260446D01*
X0141600Y0260036D01*
X0142458Y0259757D01*
X0143201Y0259640D01*
X0143201Y0264750D01*
X0144401Y0264750D01*
X0144401Y0259640D01*
X0145144Y0259757D01*
X0146002Y0260036D01*
X0146806Y0260446D01*
X0147537Y0260976D01*
X0148175Y0261615D01*
X0148705Y0262345D01*
X0149115Y0263149D01*
X0149394Y0264007D01*
X0149511Y0264750D01*
X0144401Y0264750D01*
X0144401Y0265950D01*
X0143201Y0265950D01*
X0143201Y0271060D01*
X0142458Y0270943D01*
X0141600Y0270664D01*
X0143201Y0270478D02*
X0144401Y0270478D01*
X0144401Y0271060D02*
X0144401Y0265950D01*
X0149511Y0265950D01*
X0149394Y0266693D01*
X0149115Y0267551D01*
X0148705Y0268355D01*
X0148175Y0269085D01*
X0147537Y0269724D01*
X0146806Y0270254D01*
X0146002Y0270664D01*
X0145144Y0270943D01*
X0144401Y0271060D01*
X0144401Y0269280D02*
X0143201Y0269280D01*
X0143201Y0268081D02*
X0144401Y0268081D01*
X0144401Y0266883D02*
X0143201Y0266883D01*
X0143201Y0265684D02*
X0104057Y0265684D01*
X0104057Y0264486D02*
X0117324Y0264486D01*
X0115451Y0263287D02*
X0103649Y0263287D01*
X0103108Y0262089D02*
X0114253Y0262089D01*
X0113477Y0260890D02*
X0101909Y0260890D01*
X0103920Y0266883D02*
X0138270Y0266883D01*
X0138758Y0268081D02*
X0103424Y0268081D01*
X0102565Y0269280D02*
X0139622Y0269280D01*
X0138133Y0264486D02*
X0124676Y0264486D01*
X0126549Y0263287D02*
X0138442Y0263287D01*
X0139083Y0262089D02*
X0127747Y0262089D01*
X0128523Y0260890D02*
X0140184Y0260890D01*
X0142872Y0259692D02*
X0129019Y0259692D01*
X0129516Y0258493D02*
X0213287Y0258493D01*
X0213030Y0259692D02*
X0209022Y0259692D01*
X0211348Y0260890D02*
X0213030Y0260890D01*
X0213030Y0262089D02*
X0212547Y0262089D01*
X0214477Y0257295D02*
X0129521Y0257295D01*
X0129521Y0256096D02*
X0234683Y0256096D01*
X0234683Y0254898D02*
X0129442Y0254898D01*
X0128945Y0253699D02*
X0234683Y0253699D01*
X0234683Y0252501D02*
X0128449Y0252501D01*
X0127568Y0251302D02*
X0234683Y0251302D01*
X0234683Y0250104D02*
X0126370Y0250104D01*
X0138656Y0242913D02*
X0103494Y0242913D01*
X0102734Y0244111D02*
X0139453Y0244111D01*
X0140792Y0245310D02*
X0101484Y0245310D01*
X0095161Y0245310D02*
X0037587Y0245310D01*
X0037673Y0245274D02*
X0035566Y0246147D01*
X0033285Y0246147D01*
X0031177Y0245274D01*
X0029564Y0243661D01*
X0028691Y0241554D01*
X0028691Y0239272D01*
X0029564Y0237165D01*
X0031177Y0235552D01*
X0033285Y0234679D01*
X0035566Y0234679D01*
X0037673Y0235552D01*
X0039286Y0237165D01*
X0040159Y0239272D01*
X0040159Y0241554D01*
X0039286Y0243661D01*
X0037673Y0245274D01*
X0038836Y0244111D02*
X0093912Y0244111D01*
X0093152Y0242913D02*
X0039596Y0242913D01*
X0040093Y0241714D02*
X0092656Y0241714D01*
X0092589Y0240516D02*
X0040159Y0240516D01*
X0040159Y0239317D02*
X0092589Y0239317D01*
X0093067Y0238119D02*
X0039681Y0238119D01*
X0039041Y0236920D02*
X0093707Y0236920D01*
X0094905Y0235722D02*
X0037843Y0235722D01*
X0031008Y0235722D02*
X0007600Y0235722D01*
X0007600Y0236920D02*
X0029809Y0236920D01*
X0029169Y0238119D02*
X0007600Y0238119D01*
X0007600Y0239317D02*
X0028691Y0239317D01*
X0028691Y0240516D02*
X0007600Y0240516D01*
X0007600Y0241714D02*
X0028758Y0241714D01*
X0029254Y0242913D02*
X0007600Y0242913D01*
X0007600Y0244111D02*
X0030015Y0244111D01*
X0031264Y0245310D02*
X0007600Y0245310D01*
X0007600Y0246508D02*
X0234683Y0246508D01*
X0234683Y0245310D02*
X0210708Y0245310D01*
X0210947Y0245211D02*
X0208839Y0246084D01*
X0206558Y0246084D01*
X0204451Y0245211D01*
X0202838Y0243598D01*
X0201965Y0241491D01*
X0201965Y0239209D01*
X0202838Y0237102D01*
X0204451Y0235489D01*
X0206558Y0234616D01*
X0208839Y0234616D01*
X0210947Y0235489D01*
X0212560Y0237102D01*
X0213433Y0239209D01*
X0213433Y0241491D01*
X0212560Y0243598D01*
X0210947Y0245211D01*
X0212047Y0244111D02*
X0234683Y0244111D01*
X0234683Y0242913D02*
X0212844Y0242913D01*
X0213340Y0241714D02*
X0234683Y0241714D01*
X0234683Y0240516D02*
X0213433Y0240516D01*
X0213433Y0239317D02*
X0234683Y0239317D01*
X0234683Y0238119D02*
X0212981Y0238119D01*
X0212378Y0236920D02*
X0234683Y0236920D01*
X0234683Y0235722D02*
X0211179Y0235722D01*
X0204218Y0235722D02*
X0147282Y0235722D01*
X0148480Y0236920D02*
X0203020Y0236920D01*
X0202417Y0238119D02*
X0149083Y0238119D01*
X0149535Y0239317D02*
X0201965Y0239317D01*
X0201965Y0240516D02*
X0149535Y0240516D01*
X0149442Y0241714D02*
X0202058Y0241714D01*
X0202554Y0242913D02*
X0148946Y0242913D01*
X0148149Y0244111D02*
X0203351Y0244111D01*
X0204689Y0245310D02*
X0146811Y0245310D01*
X0144730Y0259692D02*
X0206376Y0259692D01*
X0204050Y0260890D02*
X0147418Y0260890D01*
X0148519Y0262089D02*
X0202851Y0262089D01*
X0202347Y0263287D02*
X0149160Y0263287D01*
X0149470Y0264486D02*
X0201965Y0264486D01*
X0201965Y0265684D02*
X0144401Y0265684D01*
X0144401Y0264486D02*
X0143201Y0264486D01*
X0143201Y0263287D02*
X0144401Y0263287D01*
X0144401Y0262089D02*
X0143201Y0262089D01*
X0143201Y0260890D02*
X0144401Y0260890D01*
X0144401Y0259692D02*
X0143201Y0259692D01*
X0149332Y0266883D02*
X0202127Y0266883D01*
X0202624Y0268081D02*
X0148845Y0268081D01*
X0147980Y0269280D02*
X0203520Y0269280D01*
X0205097Y0270478D02*
X0146366Y0270478D01*
X0129458Y0232126D02*
X0234683Y0232126D01*
X0234683Y0230928D02*
X0129223Y0230928D01*
X0128801Y0229729D02*
X0234683Y0229729D01*
X0234683Y0228531D02*
X0128165Y0228531D01*
X0127220Y0227332D02*
X0234683Y0227332D01*
X0234683Y0226134D02*
X0125837Y0226134D01*
X0118784Y0224935D02*
X0007600Y0224935D01*
X0007600Y0226134D02*
X0116163Y0226134D01*
X0114780Y0227332D02*
X0007600Y0227332D01*
X0007600Y0228531D02*
X0113835Y0228531D01*
X0113199Y0229729D02*
X0007600Y0229729D01*
X0007600Y0230928D02*
X0112777Y0230928D01*
X0112542Y0232126D02*
X0007600Y0232126D01*
X0033825Y0260890D02*
X0035025Y0260890D01*
X0035025Y0266883D02*
X0033825Y0266883D01*
X0033825Y0268081D02*
X0035025Y0268081D01*
X0035025Y0269280D02*
X0033825Y0269280D01*
X0033825Y0270478D02*
X0035025Y0270478D01*
X0031737Y0270478D02*
X0029254Y0270478D01*
X0029254Y0269280D02*
X0030183Y0269280D01*
X0029350Y0268081D02*
X0029254Y0268081D01*
X0029254Y0271677D02*
X0213030Y0271677D01*
X0213030Y0272875D02*
X0029254Y0272875D01*
X0029254Y0274074D02*
X0213030Y0274074D01*
X0213030Y0275272D02*
X0029254Y0275272D01*
X0029254Y0276471D02*
X0213030Y0276471D01*
X0213030Y0277670D02*
X0029254Y0277670D01*
X0029254Y0278868D02*
X0213030Y0278868D01*
X0213030Y0280067D02*
X0029254Y0280067D01*
X0029254Y0281265D02*
X0213030Y0281265D01*
X0213030Y0282464D02*
X0029254Y0282464D01*
X0029254Y0283662D02*
X0213030Y0283662D01*
X0213030Y0270478D02*
X0210301Y0270478D01*
X0211878Y0269280D02*
X0213030Y0269280D01*
X0213030Y0268081D02*
X0212774Y0268081D01*
X0174773Y0174306D02*
X0172727Y0174306D01*
X0170837Y0173523D01*
X0169390Y0172076D01*
X0168607Y0170186D01*
X0168607Y0168140D01*
X0169390Y0166250D01*
X0170837Y0164803D01*
X0172727Y0164020D01*
X0174773Y0164020D01*
X0176663Y0164803D01*
X0178110Y0166250D01*
X0178893Y0168140D01*
X0178893Y0170186D01*
X0178110Y0172076D01*
X0176663Y0173523D01*
X0174773Y0174306D01*
X0176788Y0173399D02*
X0190712Y0173399D01*
X0189514Y0172201D02*
X0177986Y0172201D01*
X0178555Y0171002D02*
X0188945Y0171002D01*
X0188607Y0169803D02*
X0178893Y0169803D01*
X0178893Y0168605D02*
X0188607Y0168605D01*
X0188910Y0167406D02*
X0178589Y0167406D01*
X0178069Y0166208D02*
X0189431Y0166208D01*
X0190630Y0165009D02*
X0176870Y0165009D01*
X0170712Y0173399D02*
X0073863Y0173399D01*
X0073893Y0172201D02*
X0169514Y0172201D01*
X0168945Y0171002D02*
X0073893Y0171002D01*
X0073893Y0169803D02*
X0168607Y0169803D01*
X0168607Y0168605D02*
X0073893Y0168605D01*
X0073893Y0167406D02*
X0168910Y0167406D01*
X0169431Y0166208D02*
X0073893Y0166208D01*
X0073893Y0165009D02*
X0170630Y0165009D01*
X0180462Y0138062D02*
X0179006Y0137459D01*
X0177891Y0136344D01*
X0177288Y0134888D01*
X0177288Y0133312D01*
X0177891Y0131856D01*
X0179006Y0130741D01*
X0180462Y0130138D01*
X0182038Y0130138D01*
X0183494Y0130741D01*
X0184609Y0131856D01*
X0185212Y0133312D01*
X0185212Y0134888D01*
X0184609Y0136344D01*
X0183494Y0137459D01*
X0182038Y0138062D01*
X0180462Y0138062D01*
X0178990Y0137444D02*
X0111550Y0137444D01*
X0111550Y0138642D02*
X0202087Y0138642D01*
X0200917Y0137935D02*
X0199980Y0136998D01*
X0199980Y0131342D01*
X0200917Y0130405D01*
X0206573Y0130405D01*
X0207510Y0131342D01*
X0207510Y0136998D01*
X0206573Y0137935D01*
X0200917Y0137935D01*
X0200425Y0137444D02*
X0183510Y0137444D01*
X0184650Y0136245D02*
X0199980Y0136245D01*
X0199980Y0135047D02*
X0185147Y0135047D01*
X0185212Y0133848D02*
X0199980Y0133848D01*
X0199980Y0132650D02*
X0184938Y0132650D01*
X0184205Y0131451D02*
X0199980Y0131451D01*
X0207510Y0131451D02*
X0221650Y0131451D01*
X0221650Y0130253D02*
X0182315Y0130253D01*
X0180185Y0130253D02*
X0111550Y0130253D01*
X0111550Y0131451D02*
X0178295Y0131451D01*
X0177562Y0132650D02*
X0111550Y0132650D01*
X0111550Y0133848D02*
X0177288Y0133848D01*
X0177353Y0135047D02*
X0111550Y0135047D01*
X0111550Y0136245D02*
X0177850Y0136245D01*
X0180462Y0128062D02*
X0179006Y0127459D01*
X0177891Y0126344D01*
X0177288Y0124888D01*
X0177288Y0123312D01*
X0177891Y0121856D01*
X0179006Y0120741D01*
X0180462Y0120138D01*
X0182038Y0120138D01*
X0183494Y0120741D01*
X0184609Y0121856D01*
X0185212Y0123312D01*
X0185212Y0124888D01*
X0184609Y0126344D01*
X0183494Y0127459D01*
X0182038Y0128062D01*
X0180462Y0128062D01*
X0179963Y0127856D02*
X0125959Y0127856D01*
X0125929Y0127868D02*
X0124431Y0127868D01*
X0123047Y0127295D01*
X0121988Y0126235D01*
X0121415Y0124851D01*
X0121415Y0123354D01*
X0121988Y0121970D01*
X0123047Y0120910D01*
X0124431Y0120337D01*
X0125929Y0120337D01*
X0127313Y0120910D01*
X0128372Y0121970D01*
X0128945Y0123354D01*
X0128945Y0124851D01*
X0128372Y0126235D01*
X0127313Y0127295D01*
X0125929Y0127868D01*
X0124401Y0127856D02*
X0120163Y0127856D01*
X0120148Y0127870D02*
X0114492Y0127870D01*
X0113555Y0126933D01*
X0113555Y0121277D01*
X0114492Y0120340D01*
X0120148Y0120340D01*
X0121085Y0121277D01*
X0121085Y0126933D01*
X0120148Y0127870D01*
X0121085Y0126657D02*
X0122410Y0126657D01*
X0121666Y0125459D02*
X0121085Y0125459D01*
X0121085Y0124260D02*
X0121415Y0124260D01*
X0121536Y0123062D02*
X0121085Y0123062D01*
X0121085Y0121863D02*
X0122094Y0121863D01*
X0123641Y0120665D02*
X0120473Y0120665D01*
X0126719Y0120665D02*
X0167822Y0120665D01*
X0168058Y0121233D02*
X0167485Y0119849D01*
X0167485Y0118351D01*
X0168058Y0116967D01*
X0169117Y0115908D01*
X0170501Y0115335D01*
X0171999Y0115335D01*
X0173383Y0115908D01*
X0174442Y0116967D01*
X0175015Y0118351D01*
X0175015Y0119849D01*
X0174442Y0121233D01*
X0173383Y0122292D01*
X0171999Y0122865D01*
X0170501Y0122865D01*
X0169117Y0122292D01*
X0168058Y0121233D01*
X0168688Y0121863D02*
X0128266Y0121863D01*
X0128824Y0123062D02*
X0177391Y0123062D01*
X0177288Y0124260D02*
X0128945Y0124260D01*
X0128694Y0125459D02*
X0177524Y0125459D01*
X0178204Y0126657D02*
X0127950Y0126657D01*
X0134373Y0117611D02*
X0135094Y0117910D01*
X0135860Y0118062D01*
X0136250Y0118062D01*
X0136250Y0114100D01*
X0136250Y0114100D01*
X0140212Y0114100D01*
X0140212Y0114490D01*
X0140060Y0115256D01*
X0139761Y0115977D01*
X0139328Y0116626D01*
X0138776Y0117178D01*
X0138127Y0117611D01*
X0137406Y0117910D01*
X0136640Y0118062D01*
X0136250Y0118062D01*
X0136250Y0114100D01*
X0136250Y0114100D01*
X0136250Y0114100D01*
X0132288Y0114100D01*
X0132288Y0114490D01*
X0132440Y0115256D01*
X0132739Y0115977D01*
X0133172Y0116626D01*
X0133724Y0117178D01*
X0134373Y0117611D01*
X0133616Y0117069D02*
X0111550Y0117069D01*
X0111550Y0115870D02*
X0132695Y0115870D01*
X0132324Y0114672D02*
X0111550Y0114672D01*
X0111550Y0113473D02*
X0132335Y0113473D01*
X0132288Y0113710D02*
X0132440Y0112944D01*
X0132739Y0112223D01*
X0133172Y0111574D01*
X0133724Y0111022D01*
X0134373Y0110589D01*
X0135094Y0110290D01*
X0135860Y0110138D01*
X0136250Y0110138D01*
X0136640Y0110138D01*
X0137406Y0110290D01*
X0138127Y0110589D01*
X0138776Y0111022D01*
X0139328Y0111574D01*
X0139761Y0112223D01*
X0140060Y0112944D01*
X0140212Y0113710D01*
X0140212Y0114100D01*
X0136250Y0114100D01*
X0136250Y0110138D01*
X0136250Y0114100D01*
X0136250Y0114100D01*
X0132288Y0114100D01*
X0132288Y0113710D01*
X0132717Y0112275D02*
X0111550Y0112275D01*
X0111550Y0111076D02*
X0133670Y0111076D01*
X0136250Y0111076D02*
X0136250Y0111076D01*
X0136250Y0112275D02*
X0136250Y0112275D01*
X0136250Y0113473D02*
X0136250Y0113473D01*
X0136250Y0114672D02*
X0136250Y0114672D01*
X0136250Y0115870D02*
X0136250Y0115870D01*
X0136250Y0117069D02*
X0136250Y0117069D01*
X0138884Y0117069D02*
X0142394Y0117069D01*
X0142397Y0117080D02*
X0142288Y0116673D01*
X0142288Y0114100D01*
X0146250Y0114100D01*
X0146250Y0114100D01*
X0146250Y0118062D01*
X0148823Y0118062D01*
X0149230Y0117953D01*
X0149595Y0117743D01*
X0149893Y0117445D01*
X0150103Y0117080D01*
X0150212Y0116673D01*
X0150212Y0114100D01*
X0150212Y0111527D01*
X0150103Y0111120D01*
X0149893Y0110755D01*
X0149595Y0110457D01*
X0149230Y0110247D01*
X0148823Y0110138D01*
X0146250Y0110138D01*
X0146250Y0114100D01*
X0150212Y0114100D01*
X0146250Y0114100D01*
X0146250Y0114100D01*
X0146250Y0114100D01*
X0146250Y0114100D01*
X0146250Y0118062D01*
X0143677Y0118062D01*
X0143270Y0117953D01*
X0142905Y0117743D01*
X0142607Y0117445D01*
X0142397Y0117080D01*
X0142288Y0115870D02*
X0139805Y0115870D01*
X0140176Y0114672D02*
X0142288Y0114672D01*
X0142288Y0114100D02*
X0142288Y0111527D01*
X0142397Y0111120D01*
X0142607Y0110755D01*
X0142905Y0110457D01*
X0143270Y0110247D01*
X0143677Y0110138D01*
X0146250Y0110138D01*
X0146250Y0114100D01*
X0142288Y0114100D01*
X0142288Y0113473D02*
X0140165Y0113473D01*
X0139783Y0112275D02*
X0142288Y0112275D01*
X0142422Y0111076D02*
X0138830Y0111076D01*
X0146250Y0111076D02*
X0146250Y0111076D01*
X0146250Y0112275D02*
X0146250Y0112275D01*
X0146250Y0113473D02*
X0146250Y0113473D01*
X0146250Y0114672D02*
X0146250Y0114672D01*
X0146250Y0115870D02*
X0146250Y0115870D01*
X0146250Y0117069D02*
X0146250Y0117069D01*
X0150106Y0117069D02*
X0168016Y0117069D01*
X0167519Y0118268D02*
X0111550Y0118268D01*
X0111550Y0119466D02*
X0167485Y0119466D01*
X0169207Y0115870D02*
X0150212Y0115870D01*
X0150212Y0114672D02*
X0177130Y0114672D01*
X0177091Y0114427D02*
X0177091Y0114100D01*
X0181250Y0114100D01*
X0181250Y0114100D01*
X0181250Y0118259D01*
X0181577Y0118259D01*
X0182224Y0118157D01*
X0182847Y0117954D01*
X0183430Y0117657D01*
X0183959Y0117272D01*
X0184422Y0116809D01*
X0184807Y0116280D01*
X0185104Y0115697D01*
X0185307Y0115074D01*
X0185409Y0114427D01*
X0185409Y0114100D01*
X0181250Y0114100D01*
X0181250Y0114100D01*
X0181250Y0114100D01*
X0181250Y0118259D01*
X0180923Y0118259D01*
X0180276Y0118157D01*
X0179653Y0117954D01*
X0179070Y0117657D01*
X0178541Y0117272D01*
X0178078Y0116809D01*
X0177693Y0116280D01*
X0177396Y0115697D01*
X0177193Y0115074D01*
X0177091Y0114427D01*
X0177091Y0114100D02*
X0177091Y0113773D01*
X0177193Y0113126D01*
X0177396Y0112503D01*
X0177693Y0111920D01*
X0178078Y0111391D01*
X0178541Y0110928D01*
X0179070Y0110543D01*
X0179653Y0110246D01*
X0180276Y0110043D01*
X0180923Y0109941D01*
X0181250Y0109941D01*
X0181577Y0109941D01*
X0182224Y0110043D01*
X0182847Y0110246D01*
X0183430Y0110543D01*
X0183959Y0110928D01*
X0184422Y0111391D01*
X0184807Y0111920D01*
X0185104Y0112503D01*
X0185307Y0113126D01*
X0185409Y0113773D01*
X0185409Y0114100D01*
X0181250Y0114100D01*
X0181250Y0109941D01*
X0181250Y0114100D01*
X0181250Y0114100D01*
X0177091Y0114100D01*
X0177138Y0113473D02*
X0150212Y0113473D01*
X0150212Y0112275D02*
X0177512Y0112275D01*
X0178392Y0111076D02*
X0150078Y0111076D01*
X0149627Y0091900D02*
X0168725Y0091900D01*
X0167838Y0090702D02*
X0148400Y0090702D01*
X0149315Y0089583D02*
X0149017Y0089285D01*
X0148806Y0088920D01*
X0148697Y0088513D01*
X0148697Y0085537D01*
X0153063Y0085537D01*
X0153063Y0089903D01*
X0150087Y0089903D01*
X0149680Y0089794D01*
X0149315Y0089583D01*
X0149235Y0089503D02*
X0140627Y0089503D01*
X0142231Y0088305D02*
X0148697Y0088305D01*
X0148697Y0087106D02*
X0142965Y0087106D01*
X0143271Y0085908D02*
X0148697Y0085908D01*
X0148697Y0084709D02*
X0143258Y0084709D01*
X0142922Y0083511D02*
X0148697Y0083511D01*
X0148697Y0082312D02*
X0142151Y0082312D01*
X0137055Y0081114D02*
X0111550Y0081114D01*
X0111550Y0082312D02*
X0118483Y0082312D01*
X0119672Y0081819D02*
X0122828Y0081819D01*
X0125742Y0083027D01*
X0127973Y0085258D01*
X0129181Y0088172D01*
X0129181Y0091328D01*
X0127973Y0094242D01*
X0125742Y0096473D01*
X0122828Y0097681D01*
X0119672Y0097681D01*
X0116758Y0096473D01*
X0114527Y0094242D01*
X0113319Y0091328D01*
X0113319Y0088172D01*
X0114527Y0085258D01*
X0116758Y0083027D01*
X0119672Y0081819D01*
X0116274Y0083511D02*
X0111550Y0083511D01*
X0111550Y0084709D02*
X0115075Y0084709D01*
X0114257Y0085908D02*
X0111550Y0085908D01*
X0111550Y0087106D02*
X0113761Y0087106D01*
X0113319Y0088305D02*
X0111550Y0088305D01*
X0111550Y0089503D02*
X0113319Y0089503D01*
X0113319Y0090702D02*
X0111550Y0090702D01*
X0111550Y0091900D02*
X0113557Y0091900D01*
X0114053Y0093099D02*
X0111550Y0093099D01*
X0111550Y0094297D02*
X0114582Y0094297D01*
X0115780Y0095496D02*
X0111550Y0095496D01*
X0111550Y0096694D02*
X0117291Y0096694D01*
X0111550Y0097893D02*
X0133056Y0097893D01*
X0132288Y0096694D02*
X0125209Y0096694D01*
X0126720Y0095496D02*
X0132288Y0095496D01*
X0132288Y0094297D02*
X0127918Y0094297D01*
X0128447Y0093099D02*
X0132288Y0093099D01*
X0132288Y0091900D02*
X0128943Y0091900D01*
X0129181Y0090702D02*
X0132661Y0090702D01*
X0135269Y0088305D02*
X0129181Y0088305D01*
X0129181Y0089503D02*
X0136873Y0089503D01*
X0134535Y0087106D02*
X0128739Y0087106D01*
X0128243Y0085908D02*
X0134229Y0085908D01*
X0134242Y0084709D02*
X0127425Y0084709D01*
X0126226Y0083511D02*
X0134577Y0083511D01*
X0135349Y0082312D02*
X0124017Y0082312D01*
X0124793Y0078717D02*
X0134197Y0078717D01*
X0134197Y0077518D02*
X0126548Y0077518D01*
X0127746Y0076320D02*
X0134197Y0076320D01*
X0134197Y0075121D02*
X0128376Y0075121D01*
X0128872Y0073923D02*
X0134197Y0073923D01*
X0134197Y0072724D02*
X0129181Y0072724D01*
X0129181Y0071526D02*
X0134406Y0071526D01*
X0133052Y0070327D02*
X0129181Y0070327D01*
X0128810Y0069129D02*
X0132288Y0069129D01*
X0132288Y0067930D02*
X0128314Y0067930D01*
X0127597Y0066732D02*
X0132288Y0066732D01*
X0132288Y0065533D02*
X0126399Y0065533D01*
X0124433Y0064334D02*
X0132288Y0064334D01*
X0129181Y0060343D02*
X0129181Y0046357D01*
X0129181Y0047555D02*
X0132357Y0047555D01*
X0132854Y0048754D02*
X0129181Y0048754D01*
X0129181Y0049952D02*
X0133999Y0049952D01*
X0138501Y0049952D02*
X0142615Y0049952D01*
X0142288Y0048754D02*
X0139646Y0048754D01*
X0140143Y0047555D02*
X0142288Y0047555D01*
X0142288Y0046357D02*
X0140212Y0046357D01*
X0139941Y0045158D02*
X0142288Y0045158D01*
X0142288Y0043960D02*
X0139213Y0043960D01*
X0137336Y0042761D02*
X0143102Y0042761D01*
X0150212Y0047555D02*
X0172641Y0047555D01*
X0172727Y0047520D02*
X0174773Y0047520D01*
X0176663Y0048303D01*
X0178110Y0049750D01*
X0178893Y0051640D01*
X0178893Y0053686D01*
X0178110Y0055576D01*
X0176663Y0057023D01*
X0174773Y0057806D01*
X0172727Y0057806D01*
X0170837Y0057023D01*
X0169390Y0055576D01*
X0168607Y0053686D01*
X0168607Y0051640D01*
X0169390Y0049750D01*
X0170837Y0048303D01*
X0172727Y0047520D01*
X0174859Y0047555D02*
X0192641Y0047555D01*
X0192727Y0047520D02*
X0194773Y0047520D01*
X0196663Y0048303D01*
X0198110Y0049750D01*
X0198893Y0051640D01*
X0198893Y0053686D01*
X0198110Y0055576D01*
X0196663Y0057023D01*
X0194773Y0057806D01*
X0192727Y0057806D01*
X0190837Y0057023D01*
X0189390Y0055576D01*
X0188607Y0053686D01*
X0188607Y0051640D01*
X0189390Y0049750D01*
X0190837Y0048303D01*
X0192727Y0047520D01*
X0194859Y0047555D02*
X0209508Y0047555D01*
X0208607Y0048754D02*
X0197115Y0048754D01*
X0198194Y0049952D02*
X0208607Y0049952D01*
X0208607Y0051151D02*
X0198691Y0051151D01*
X0198893Y0052349D02*
X0208607Y0052349D01*
X0208607Y0053548D02*
X0198893Y0053548D01*
X0198454Y0054746D02*
X0208607Y0054746D01*
X0208607Y0055945D02*
X0197742Y0055945D01*
X0196373Y0057143D02*
X0208881Y0057143D01*
X0210501Y0075335D02*
X0211999Y0075335D01*
X0213383Y0075908D01*
X0214442Y0076967D01*
X0215015Y0078351D01*
X0215015Y0079849D01*
X0214442Y0081233D01*
X0213383Y0082292D01*
X0211999Y0082865D01*
X0210501Y0082865D01*
X0209117Y0082292D01*
X0208058Y0081233D01*
X0207485Y0079849D01*
X0207485Y0078351D01*
X0208058Y0076967D01*
X0209117Y0075908D01*
X0210501Y0075335D01*
X0208705Y0076320D02*
X0183795Y0076320D01*
X0184670Y0077518D02*
X0207830Y0077518D01*
X0207485Y0078717D02*
X0185015Y0078717D01*
X0184988Y0079915D02*
X0207512Y0079915D01*
X0208009Y0081114D02*
X0184491Y0081114D01*
X0183334Y0082312D02*
X0209166Y0082312D01*
X0213334Y0082312D02*
X0221650Y0082312D01*
X0221650Y0081114D02*
X0214491Y0081114D01*
X0214988Y0079915D02*
X0221650Y0079915D01*
X0221650Y0078717D02*
X0215015Y0078717D01*
X0214670Y0077518D02*
X0221650Y0077518D01*
X0221650Y0076320D02*
X0213795Y0076320D01*
X0213750Y0085335D02*
X0214121Y0085335D01*
X0214848Y0085479D01*
X0215534Y0085763D01*
X0216150Y0086175D01*
X0216675Y0086700D01*
X0217087Y0087316D01*
X0217371Y0088002D01*
X0217515Y0088729D01*
X0217515Y0089100D01*
X0217515Y0089471D01*
X0217371Y0090198D01*
X0217087Y0090884D01*
X0216675Y0091500D01*
X0216150Y0092025D01*
X0215534Y0092437D01*
X0214848Y0092721D01*
X0214121Y0092865D01*
X0213750Y0092865D01*
X0213379Y0092865D01*
X0212652Y0092721D01*
X0211966Y0092437D01*
X0211350Y0092025D01*
X0210825Y0091500D01*
X0210413Y0090884D01*
X0210129Y0090198D01*
X0209985Y0089471D01*
X0209985Y0089100D01*
X0209985Y0088729D01*
X0210129Y0088002D01*
X0210413Y0087316D01*
X0210825Y0086700D01*
X0211350Y0086175D01*
X0211966Y0085763D01*
X0212652Y0085479D01*
X0213379Y0085335D01*
X0213750Y0085335D01*
X0213750Y0089100D01*
X0213750Y0089100D01*
X0213750Y0092865D01*
X0213750Y0089100D01*
X0217515Y0089100D01*
X0213750Y0089100D01*
X0213750Y0089100D01*
X0213750Y0089100D01*
X0209985Y0089100D01*
X0213750Y0089100D01*
X0213750Y0089100D01*
X0213750Y0085335D01*
X0213750Y0085908D02*
X0213750Y0085908D01*
X0213750Y0087106D02*
X0213750Y0087106D01*
X0213750Y0088305D02*
X0213750Y0088305D01*
X0213750Y0089503D02*
X0213750Y0089503D01*
X0213750Y0090702D02*
X0213750Y0090702D01*
X0213750Y0091900D02*
X0213750Y0091900D01*
X0216275Y0091900D02*
X0221650Y0091900D01*
X0221650Y0090702D02*
X0217162Y0090702D01*
X0217509Y0089503D02*
X0221650Y0089503D01*
X0221650Y0088305D02*
X0217431Y0088305D01*
X0216946Y0087106D02*
X0221650Y0087106D01*
X0221650Y0085908D02*
X0215750Y0085908D01*
X0211750Y0085908D02*
X0205750Y0085908D01*
X0206946Y0087106D02*
X0210554Y0087106D01*
X0210069Y0088305D02*
X0207431Y0088305D01*
X0207509Y0089503D02*
X0209991Y0089503D01*
X0210338Y0090702D02*
X0207162Y0090702D01*
X0206275Y0091900D02*
X0211225Y0091900D01*
X0203750Y0091900D02*
X0203750Y0091900D01*
X0203750Y0090702D02*
X0203750Y0090702D01*
X0203750Y0089503D02*
X0203750Y0089503D01*
X0203750Y0088305D02*
X0203750Y0088305D01*
X0203750Y0087106D02*
X0203750Y0087106D01*
X0203750Y0085908D02*
X0203750Y0085908D01*
X0200338Y0090702D02*
X0196234Y0090702D01*
X0196106Y0090574D02*
X0197276Y0091744D01*
X0197909Y0093273D01*
X0197909Y0094927D01*
X0197276Y0096456D01*
X0196106Y0097626D01*
X0194577Y0098259D01*
X0192923Y0098259D01*
X0191394Y0097626D01*
X0190224Y0096456D01*
X0189591Y0094927D01*
X0189591Y0093273D01*
X0190224Y0091744D01*
X0191394Y0090574D01*
X0192923Y0089941D01*
X0194577Y0089941D01*
X0196106Y0090574D01*
X0197341Y0091900D02*
X0201225Y0091900D01*
X0197837Y0093099D02*
X0221650Y0093099D01*
X0221650Y0094297D02*
X0197909Y0094297D01*
X0197674Y0095496D02*
X0221650Y0095496D01*
X0221650Y0096694D02*
X0197037Y0096694D01*
X0195461Y0097893D02*
X0221650Y0097893D01*
X0221650Y0099091D02*
X0111550Y0099091D01*
X0111550Y0100290D02*
X0221650Y0100290D01*
X0221650Y0101488D02*
X0111550Y0101488D01*
X0111550Y0102687D02*
X0221650Y0102687D01*
X0221650Y0103885D02*
X0111550Y0103885D01*
X0111550Y0105084D02*
X0221650Y0105084D01*
X0221650Y0106282D02*
X0111550Y0106282D01*
X0111550Y0107481D02*
X0221650Y0107481D01*
X0221650Y0108679D02*
X0111550Y0108679D01*
X0111550Y0109878D02*
X0221650Y0109878D01*
X0221650Y0111076D02*
X0196608Y0111076D01*
X0196106Y0110574D02*
X0197276Y0111744D01*
X0197909Y0113273D01*
X0197909Y0114927D01*
X0197276Y0116456D01*
X0196106Y0117626D01*
X0194577Y0118259D01*
X0192923Y0118259D01*
X0191394Y0117626D01*
X0190224Y0116456D01*
X0189591Y0114927D01*
X0189591Y0113273D01*
X0190224Y0111744D01*
X0191394Y0110574D01*
X0192923Y0109941D01*
X0194577Y0109941D01*
X0196106Y0110574D01*
X0197496Y0112275D02*
X0221650Y0112275D01*
X0221650Y0113473D02*
X0197909Y0113473D01*
X0197909Y0114672D02*
X0221650Y0114672D01*
X0221650Y0115870D02*
X0215793Y0115870D01*
X0215883Y0115908D02*
X0216942Y0116967D01*
X0217515Y0118351D01*
X0217515Y0119849D01*
X0216942Y0121233D01*
X0215883Y0122292D01*
X0214499Y0122865D01*
X0213001Y0122865D01*
X0211617Y0122292D01*
X0210558Y0121233D01*
X0209985Y0119849D01*
X0209985Y0118351D01*
X0210558Y0116967D01*
X0211617Y0115908D01*
X0213001Y0115335D01*
X0214499Y0115335D01*
X0215883Y0115908D01*
X0216984Y0117069D02*
X0221650Y0117069D01*
X0221650Y0118268D02*
X0217481Y0118268D01*
X0217515Y0119466D02*
X0221650Y0119466D01*
X0221650Y0120665D02*
X0217178Y0120665D01*
X0216312Y0121863D02*
X0221650Y0121863D01*
X0221650Y0123062D02*
X0185109Y0123062D01*
X0185212Y0124260D02*
X0221650Y0124260D01*
X0221650Y0125459D02*
X0184976Y0125459D01*
X0184296Y0126657D02*
X0221650Y0126657D01*
X0221650Y0127856D02*
X0182537Y0127856D01*
X0184612Y0121863D02*
X0201188Y0121863D01*
X0201617Y0122292D02*
X0200558Y0121233D01*
X0199985Y0119849D01*
X0199985Y0118351D01*
X0200558Y0116967D01*
X0201617Y0115908D01*
X0203001Y0115335D01*
X0204499Y0115335D01*
X0205883Y0115908D01*
X0206942Y0116967D01*
X0207515Y0118351D01*
X0207515Y0119849D01*
X0206942Y0121233D01*
X0205883Y0122292D01*
X0204499Y0122865D01*
X0203001Y0122865D01*
X0201617Y0122292D01*
X0200322Y0120665D02*
X0183310Y0120665D01*
X0184163Y0117069D02*
X0190837Y0117069D01*
X0189982Y0115870D02*
X0185016Y0115870D01*
X0185370Y0114672D02*
X0189591Y0114672D01*
X0189591Y0113473D02*
X0185362Y0113473D01*
X0184988Y0112275D02*
X0190004Y0112275D01*
X0190892Y0111076D02*
X0184108Y0111076D01*
X0181250Y0111076D02*
X0181250Y0111076D01*
X0181250Y0112275D02*
X0181250Y0112275D01*
X0181250Y0113473D02*
X0181250Y0113473D01*
X0181250Y0114672D02*
X0181250Y0114672D01*
X0181250Y0115870D02*
X0181250Y0115870D01*
X0181250Y0117069D02*
X0181250Y0117069D01*
X0178337Y0117069D02*
X0174484Y0117069D01*
X0174981Y0118268D02*
X0200019Y0118268D01*
X0199985Y0119466D02*
X0175015Y0119466D01*
X0174678Y0120665D02*
X0179190Y0120665D01*
X0177888Y0121863D02*
X0173812Y0121863D01*
X0173293Y0115870D02*
X0177484Y0115870D01*
X0182961Y0097893D02*
X0192039Y0097893D01*
X0190463Y0096694D02*
X0184537Y0096694D01*
X0185174Y0095496D02*
X0189826Y0095496D01*
X0189591Y0094297D02*
X0185409Y0094297D01*
X0185337Y0093099D02*
X0189663Y0093099D01*
X0190159Y0091900D02*
X0184841Y0091900D01*
X0183734Y0090702D02*
X0191266Y0090702D01*
X0178705Y0076320D02*
X0157776Y0076320D01*
X0157803Y0075121D02*
X0221650Y0075121D01*
X0221650Y0073923D02*
X0157587Y0073923D01*
X0157063Y0072724D02*
X0221650Y0072724D01*
X0221650Y0071526D02*
X0155864Y0071526D01*
X0157280Y0077518D02*
X0177830Y0077518D01*
X0168000Y0087106D02*
X0157803Y0087106D01*
X0157803Y0088305D02*
X0167504Y0088305D01*
X0167485Y0089503D02*
X0157265Y0089503D01*
X0153437Y0089503D02*
X0153063Y0089503D01*
X0153063Y0088305D02*
X0153437Y0088305D01*
X0153437Y0087106D02*
X0153063Y0087106D01*
X0153063Y0085908D02*
X0153437Y0085908D01*
X0153437Y0084709D02*
X0153063Y0084709D01*
X0153063Y0083511D02*
X0153437Y0083511D01*
X0153437Y0082312D02*
X0153063Y0082312D01*
X0153063Y0081114D02*
X0153437Y0081114D01*
X0171127Y0057143D02*
X0129181Y0057143D01*
X0129181Y0055945D02*
X0169758Y0055945D01*
X0169046Y0054746D02*
X0129181Y0054746D01*
X0129181Y0053548D02*
X0168607Y0053548D01*
X0168607Y0052349D02*
X0129181Y0052349D01*
X0129181Y0051151D02*
X0168809Y0051151D01*
X0169306Y0049952D02*
X0149885Y0049952D01*
X0150212Y0048754D02*
X0170385Y0048754D01*
X0177115Y0048754D02*
X0190385Y0048754D01*
X0189306Y0049952D02*
X0178194Y0049952D01*
X0178691Y0051151D02*
X0188809Y0051151D01*
X0188607Y0052349D02*
X0178893Y0052349D01*
X0178893Y0053548D02*
X0188607Y0053548D01*
X0189046Y0054746D02*
X0178454Y0054746D01*
X0177742Y0055945D02*
X0189758Y0055945D01*
X0191127Y0057143D02*
X0176373Y0057143D01*
X0206567Y0022387D02*
X0138489Y0022387D01*
X0138940Y0022573D02*
X0140277Y0023910D01*
X0141000Y0025655D01*
X0141000Y0027545D01*
X0140277Y0029290D01*
X0138940Y0030627D01*
X0137195Y0031350D01*
X0135305Y0031350D01*
X0133560Y0030627D01*
X0132223Y0029290D01*
X0131500Y0027545D01*
X0131500Y0025655D01*
X0132223Y0023910D01*
X0133560Y0022573D01*
X0135305Y0021850D01*
X0137195Y0021850D01*
X0138940Y0022573D01*
X0139952Y0023585D02*
X0207765Y0023585D01*
X0208964Y0024784D02*
X0140639Y0024784D01*
X0141000Y0025982D02*
X0210162Y0025982D01*
X0211361Y0027181D02*
X0141000Y0027181D01*
X0140654Y0028379D02*
X0212559Y0028379D01*
X0213758Y0029578D02*
X0139989Y0029578D01*
X0138579Y0030776D02*
X0214956Y0030776D01*
X0216155Y0031975D02*
X0119050Y0031975D01*
X0119050Y0033173D02*
X0217353Y0033173D01*
X0218552Y0034372D02*
X0119050Y0034372D01*
X0118672Y0035570D02*
X0219750Y0035570D01*
X0220949Y0036769D02*
X0117541Y0036769D01*
X0116343Y0037967D02*
X0221650Y0037967D01*
X0221650Y0039166D02*
X0115144Y0039166D01*
X0113946Y0040364D02*
X0221650Y0040364D01*
X0225850Y0040364D02*
X0234683Y0040364D01*
X0234683Y0039166D02*
X0225850Y0039166D01*
X0225850Y0037967D02*
X0234683Y0037967D01*
X0234683Y0036769D02*
X0225850Y0036769D01*
X0225690Y0035570D02*
X0234683Y0035570D01*
X0234683Y0034372D02*
X0224492Y0034372D01*
X0223293Y0033173D02*
X0234683Y0033173D01*
X0234683Y0031975D02*
X0222095Y0031975D01*
X0220896Y0030776D02*
X0234683Y0030776D01*
X0234683Y0029578D02*
X0219698Y0029578D01*
X0218499Y0028379D02*
X0234683Y0028379D01*
X0234683Y0027181D02*
X0217300Y0027181D01*
X0216102Y0025982D02*
X0234683Y0025982D01*
X0234683Y0024784D02*
X0214903Y0024784D01*
X0213705Y0023585D02*
X0234683Y0023585D01*
X0234683Y0022387D02*
X0212506Y0022387D01*
X0211308Y0021188D02*
X0234683Y0021188D01*
X0234683Y0019990D02*
X0210109Y0019990D01*
X0208911Y0018791D02*
X0234683Y0018791D01*
X0234683Y0017593D02*
X0207712Y0017593D01*
X0206514Y0016394D02*
X0234683Y0016394D01*
X0234683Y0015196D02*
X0205315Y0015196D01*
X0202971Y0018791D02*
X0140483Y0018791D01*
X0139577Y0019990D02*
X0204170Y0019990D01*
X0205368Y0021188D02*
X0137585Y0021188D01*
X0134915Y0021188D02*
X0127585Y0021188D01*
X0127195Y0021350D02*
X0128940Y0020627D01*
X0130277Y0019290D01*
X0131000Y0017545D01*
X0131000Y0015655D01*
X0130277Y0013910D01*
X0128940Y0012573D01*
X0127195Y0011850D01*
X0125305Y0011850D01*
X0123560Y0012573D01*
X0122223Y0013910D01*
X0121500Y0015655D01*
X0121500Y0017545D01*
X0122223Y0019290D01*
X0123560Y0020627D01*
X0125305Y0021350D01*
X0127195Y0021350D01*
X0127362Y0021967D02*
X0128073Y0022198D01*
X0128739Y0022538D01*
X0129344Y0022977D01*
X0129873Y0023506D01*
X0130312Y0024111D01*
X0130652Y0024777D01*
X0130883Y0025488D01*
X0131000Y0026226D01*
X0131000Y0026314D01*
X0126536Y0026314D01*
X0126536Y0026886D01*
X0131000Y0026886D01*
X0131000Y0026974D01*
X0130883Y0027712D01*
X0130652Y0028423D01*
X0130312Y0029089D01*
X0129873Y0029694D01*
X0129344Y0030223D01*
X0128739Y0030662D01*
X0128073Y0031002D01*
X0127362Y0031233D01*
X0126624Y0031350D01*
X0126536Y0031350D01*
X0126536Y0026886D01*
X0125964Y0026886D01*
X0125964Y0031350D01*
X0125876Y0031350D01*
X0125138Y0031233D01*
X0124427Y0031002D01*
X0123761Y0030662D01*
X0123156Y0030223D01*
X0122627Y0029694D01*
X0122188Y0029089D01*
X0121848Y0028423D01*
X0121617Y0027712D01*
X0121500Y0026974D01*
X0121500Y0026886D01*
X0125964Y0026886D01*
X0125964Y0026314D01*
X0126536Y0026314D01*
X0126536Y0021850D01*
X0126624Y0021850D01*
X0127362Y0021967D01*
X0126536Y0022387D02*
X0125964Y0022387D01*
X0125964Y0021850D02*
X0125964Y0026314D01*
X0121500Y0026314D01*
X0121500Y0026226D01*
X0121617Y0025488D01*
X0121848Y0024777D01*
X0122188Y0024111D01*
X0122627Y0023506D01*
X0123156Y0022977D01*
X0123761Y0022538D01*
X0124427Y0022198D01*
X0125138Y0021967D01*
X0125876Y0021850D01*
X0125964Y0021850D01*
X0124915Y0021188D02*
X0117585Y0021188D01*
X0117195Y0021350D02*
X0115305Y0021350D01*
X0113560Y0020627D01*
X0112223Y0019290D01*
X0111500Y0017545D01*
X0111500Y0015655D01*
X0112223Y0013910D01*
X0113560Y0012573D01*
X0115305Y0011850D01*
X0117195Y0011850D01*
X0118940Y0012573D01*
X0120277Y0013910D01*
X0121000Y0015655D01*
X0121000Y0017545D01*
X0120277Y0019290D01*
X0118940Y0020627D01*
X0117195Y0021350D01*
X0118489Y0022387D02*
X0124057Y0022387D01*
X0122570Y0023585D02*
X0119952Y0023585D01*
X0120639Y0024784D02*
X0121846Y0024784D01*
X0121539Y0025982D02*
X0121000Y0025982D01*
X0121000Y0027181D02*
X0121533Y0027181D01*
X0121834Y0028379D02*
X0120654Y0028379D01*
X0119989Y0029578D02*
X0122543Y0029578D01*
X0123984Y0030776D02*
X0119050Y0030776D01*
X0113450Y0030776D02*
X0108579Y0030776D01*
X0108940Y0030627D02*
X0107195Y0031350D01*
X0105305Y0031350D01*
X0103560Y0030627D01*
X0102223Y0029290D01*
X0101500Y0027545D01*
X0101500Y0025655D01*
X0102223Y0023910D01*
X0103560Y0022573D01*
X0105305Y0021850D01*
X0107195Y0021850D01*
X0108940Y0022573D01*
X0110277Y0023910D01*
X0111000Y0025655D01*
X0111000Y0027545D01*
X0110277Y0029290D01*
X0108940Y0030627D01*
X0109989Y0029578D02*
X0112511Y0029578D01*
X0111846Y0028379D02*
X0110654Y0028379D01*
X0111000Y0027181D02*
X0111500Y0027181D01*
X0111500Y0025982D02*
X0111000Y0025982D01*
X0110639Y0024784D02*
X0111861Y0024784D01*
X0112548Y0023585D02*
X0109952Y0023585D01*
X0108489Y0022387D02*
X0114011Y0022387D01*
X0114915Y0021188D02*
X0107585Y0021188D01*
X0109577Y0019990D02*
X0112923Y0019990D01*
X0112017Y0018791D02*
X0110483Y0018791D01*
X0110980Y0017593D02*
X0111520Y0017593D01*
X0111500Y0016394D02*
X0111000Y0016394D01*
X0110809Y0015196D02*
X0111691Y0015196D01*
X0112187Y0013997D02*
X0110313Y0013997D01*
X0109165Y0012799D02*
X0113335Y0012799D01*
X0119165Y0012799D02*
X0123335Y0012799D01*
X0122187Y0013997D02*
X0120313Y0013997D01*
X0120809Y0015196D02*
X0121691Y0015196D01*
X0121500Y0016394D02*
X0121000Y0016394D01*
X0120980Y0017593D02*
X0121520Y0017593D01*
X0122017Y0018791D02*
X0120483Y0018791D01*
X0119577Y0019990D02*
X0122923Y0019990D01*
X0125964Y0023585D02*
X0126536Y0023585D01*
X0126536Y0024784D02*
X0125964Y0024784D01*
X0125964Y0025982D02*
X0126536Y0025982D01*
X0126536Y0027181D02*
X0125964Y0027181D01*
X0125964Y0028379D02*
X0126536Y0028379D01*
X0126536Y0029578D02*
X0125964Y0029578D01*
X0125964Y0030776D02*
X0126536Y0030776D01*
X0128516Y0030776D02*
X0133921Y0030776D01*
X0132511Y0029578D02*
X0129957Y0029578D01*
X0130666Y0028379D02*
X0131846Y0028379D01*
X0131500Y0027181D02*
X0130967Y0027181D01*
X0130961Y0025982D02*
X0131500Y0025982D01*
X0131861Y0024784D02*
X0130654Y0024784D01*
X0129930Y0023585D02*
X0132548Y0023585D01*
X0134011Y0022387D02*
X0128443Y0022387D01*
X0129577Y0019990D02*
X0132923Y0019990D01*
X0132017Y0018791D02*
X0130483Y0018791D01*
X0130980Y0017593D02*
X0131520Y0017593D01*
X0131500Y0016394D02*
X0131000Y0016394D01*
X0130809Y0015196D02*
X0131691Y0015196D01*
X0132187Y0013997D02*
X0130313Y0013997D01*
X0129165Y0012799D02*
X0133335Y0012799D01*
X0139165Y0012799D02*
X0234683Y0012799D01*
X0234683Y0013997D02*
X0140313Y0013997D01*
X0113450Y0031975D02*
X0093350Y0031975D01*
X0093350Y0033173D02*
X0113217Y0033173D01*
X0112018Y0034372D02*
X0093350Y0034372D01*
X0093350Y0035570D02*
X0110820Y0035570D01*
X0109621Y0036769D02*
X0093350Y0036769D01*
X0093350Y0037967D02*
X0108423Y0037967D01*
X0107224Y0039166D02*
X0093350Y0039166D01*
X0093350Y0040364D02*
X0106231Y0040364D01*
X0105950Y0041563D02*
X0093350Y0041563D01*
X0093350Y0042761D02*
X0105950Y0042761D01*
X0105950Y0043960D02*
X0093350Y0043960D01*
X0093350Y0045158D02*
X0105950Y0045158D01*
X0105950Y0046357D02*
X0093350Y0046357D01*
X0093350Y0047555D02*
X0105950Y0047555D01*
X0099276Y0058342D02*
X0093350Y0058342D01*
X0094472Y0059540D02*
X0098027Y0059540D01*
X0097531Y0060739D02*
X0094969Y0060739D01*
X0095015Y0061937D02*
X0097485Y0061937D01*
X0097811Y0063136D02*
X0094689Y0063136D01*
X0093841Y0064334D02*
X0098659Y0064334D01*
X0089150Y0058342D02*
X0007600Y0058342D01*
X0007600Y0059540D02*
X0088027Y0059540D01*
X0077897Y0069129D02*
X0064554Y0069129D01*
X0069525Y0060739D02*
X0052975Y0060739D01*
X0049525Y0060739D02*
X0042975Y0060739D01*
X0044412Y0061937D02*
X0048087Y0061937D01*
X0047574Y0063136D02*
X0044926Y0063136D01*
X0045015Y0064334D02*
X0047485Y0064334D01*
X0047768Y0065533D02*
X0044732Y0065533D01*
X0043943Y0066732D02*
X0048557Y0066732D01*
X0046127Y0057143D02*
X0031373Y0057143D01*
X0032742Y0055945D02*
X0044758Y0055945D01*
X0044046Y0054746D02*
X0033454Y0054746D01*
X0033893Y0053548D02*
X0043607Y0053548D01*
X0043607Y0052349D02*
X0033893Y0052349D01*
X0033691Y0051151D02*
X0043809Y0051151D01*
X0044306Y0049952D02*
X0033194Y0049952D01*
X0032115Y0048754D02*
X0045385Y0048754D01*
X0025385Y0048754D02*
X0007600Y0048754D01*
X0007600Y0049952D02*
X0024306Y0049952D01*
X0023809Y0051151D02*
X0007600Y0051151D01*
X0007600Y0052349D02*
X0023607Y0052349D01*
X0023607Y0053548D02*
X0007600Y0053548D01*
X0007600Y0054746D02*
X0024046Y0054746D01*
X0024758Y0055945D02*
X0007600Y0055945D01*
X0007600Y0057143D02*
X0026127Y0057143D01*
X0026247Y0070327D02*
X0026248Y0070327D01*
X0026247Y0071526D02*
X0026248Y0071526D01*
X0026247Y0072724D02*
X0026248Y0072724D01*
X0026247Y0073923D02*
X0026248Y0073923D01*
X0026247Y0075121D02*
X0026248Y0075121D01*
X0026247Y0076320D02*
X0026248Y0076320D01*
X0029929Y0083511D02*
X0058458Y0083511D01*
X0057531Y0084709D02*
X0030010Y0084709D01*
X0030010Y0085908D02*
X0057091Y0085908D01*
X0057091Y0087106D02*
X0030010Y0087106D01*
X0030010Y0088305D02*
X0057454Y0088305D01*
X0058271Y0089503D02*
X0029755Y0089503D01*
X0026248Y0091900D02*
X0026247Y0091900D01*
X0026247Y0093099D02*
X0026248Y0093099D01*
X0026247Y0094297D02*
X0026248Y0094297D01*
X0026247Y0095496D02*
X0026248Y0095496D01*
X0026247Y0096694D02*
X0026248Y0096694D01*
X0026247Y0097893D02*
X0026248Y0097893D01*
X0025130Y0097893D02*
X0007600Y0097893D01*
X0007600Y0099091D02*
X0091941Y0099091D01*
X0093310Y0099091D02*
X0093310Y0099091D01*
X0093310Y0098835D02*
X0093310Y0102600D01*
X0093310Y0102600D01*
X0093310Y0102600D01*
X0089545Y0102600D01*
X0093310Y0102600D01*
X0093310Y0098835D01*
X0093310Y0100290D02*
X0093310Y0100290D01*
X0093310Y0101488D02*
X0093310Y0101488D01*
X0093310Y0102687D02*
X0093310Y0102687D01*
X0093310Y0103885D02*
X0093310Y0103885D01*
X0093310Y0105084D02*
X0093310Y0105084D01*
X0090469Y0105084D02*
X0082741Y0105084D01*
X0082850Y0103900D02*
X0078950Y0103900D01*
X0078950Y0100000D01*
X0079073Y0100000D01*
X0079710Y0100101D01*
X0080324Y0100300D01*
X0080899Y0100593D01*
X0081421Y0100973D01*
X0081877Y0101429D01*
X0082257Y0101951D01*
X0082550Y0102526D01*
X0082749Y0103140D01*
X0082850Y0103777D01*
X0082850Y0103900D01*
X0082850Y0103885D02*
X0089767Y0103885D01*
X0089545Y0102687D02*
X0082602Y0102687D01*
X0081920Y0101488D02*
X0089695Y0101488D01*
X0090325Y0100290D02*
X0080291Y0100290D01*
X0078950Y0100290D02*
X0078550Y0100290D01*
X0078550Y0101488D02*
X0078950Y0101488D01*
X0078950Y0102687D02*
X0078550Y0102687D01*
X0078550Y0103885D02*
X0078950Y0103885D01*
X0078950Y0105084D02*
X0078550Y0105084D01*
X0078550Y0106282D02*
X0078950Y0106282D01*
X0078950Y0107481D02*
X0078550Y0107481D01*
X0076428Y0107481D02*
X0071167Y0107481D01*
X0072284Y0106282D02*
X0075268Y0106282D01*
X0074759Y0105084D02*
X0072780Y0105084D01*
X0072850Y0103885D02*
X0074650Y0103885D01*
X0074898Y0102687D02*
X0072602Y0102687D01*
X0071937Y0101488D02*
X0075580Y0101488D01*
X0077209Y0100290D02*
X0070265Y0100290D01*
X0065563Y0101488D02*
X0061937Y0101488D01*
X0062602Y0102687D02*
X0064898Y0102687D01*
X0064650Y0103885D02*
X0062850Y0103885D01*
X0062780Y0105084D02*
X0064720Y0105084D01*
X0065216Y0106282D02*
X0062284Y0106282D01*
X0061167Y0107481D02*
X0066333Y0107481D01*
X0056333Y0107481D02*
X0051167Y0107481D01*
X0052284Y0106282D02*
X0055216Y0106282D01*
X0054720Y0105084D02*
X0052780Y0105084D01*
X0052850Y0103885D02*
X0054650Y0103885D01*
X0054898Y0102687D02*
X0052602Y0102687D01*
X0051937Y0101488D02*
X0055563Y0101488D01*
X0048519Y0096694D02*
X0043981Y0096694D01*
X0044747Y0095496D02*
X0047753Y0095496D01*
X0047485Y0094297D02*
X0045015Y0094297D01*
X0044911Y0093099D02*
X0047589Y0093099D01*
X0048125Y0091900D02*
X0044375Y0091900D01*
X0042885Y0090702D02*
X0049615Y0090702D01*
X0064229Y0089503D02*
X0078271Y0089503D01*
X0077454Y0088305D02*
X0065046Y0088305D01*
X0065409Y0087106D02*
X0077091Y0087106D01*
X0077091Y0085908D02*
X0065409Y0085908D01*
X0064969Y0084709D02*
X0077531Y0084709D01*
X0078458Y0083511D02*
X0064042Y0083511D01*
X0073981Y0096694D02*
X0105950Y0096694D01*
X0105950Y0087106D02*
X0085409Y0087106D01*
X0085409Y0085908D02*
X0105950Y0085908D01*
X0105950Y0084709D02*
X0084969Y0084709D01*
X0084042Y0083511D02*
X0105950Y0083511D01*
X0091250Y0087835D02*
X0091250Y0091600D01*
X0091250Y0091600D01*
X0091250Y0087835D01*
X0091250Y0088305D02*
X0091250Y0088305D01*
X0091250Y0089503D02*
X0091250Y0089503D01*
X0091250Y0090702D02*
X0091250Y0090702D01*
X0091250Y0091900D02*
X0091250Y0091900D01*
X0091250Y0093099D02*
X0091250Y0093099D01*
X0091250Y0094297D02*
X0091250Y0094297D01*
X0088122Y0089503D02*
X0084229Y0089503D01*
X0085046Y0088305D02*
X0089404Y0088305D01*
X0089499Y0110335D02*
X0088001Y0110335D01*
X0086617Y0110908D01*
X0085558Y0111967D01*
X0084985Y0113351D01*
X0084985Y0114849D01*
X0085558Y0116233D01*
X0086617Y0117292D01*
X0088001Y0117865D01*
X0089499Y0117865D01*
X0090883Y0117292D01*
X0091942Y0116233D01*
X0092515Y0114849D01*
X0092515Y0113351D01*
X0091942Y0111967D01*
X0090883Y0110908D01*
X0089499Y0110335D01*
X0091051Y0111076D02*
X0096449Y0111076D01*
X0096617Y0110908D02*
X0098001Y0110335D01*
X0099499Y0110335D01*
X0100883Y0110908D01*
X0101942Y0111967D01*
X0102515Y0113351D01*
X0102515Y0114849D01*
X0101942Y0116233D01*
X0100883Y0117292D01*
X0099499Y0117865D01*
X0098001Y0117865D01*
X0096617Y0117292D01*
X0095558Y0116233D01*
X0094985Y0114849D01*
X0094985Y0113351D01*
X0095558Y0111967D01*
X0096617Y0110908D01*
X0095430Y0112275D02*
X0092070Y0112275D01*
X0092515Y0113473D02*
X0094985Y0113473D01*
X0094985Y0114672D02*
X0092515Y0114672D01*
X0092092Y0115870D02*
X0095408Y0115870D01*
X0096394Y0117069D02*
X0091106Y0117069D01*
X0086394Y0117069D02*
X0018350Y0117069D01*
X0018350Y0115870D02*
X0085408Y0115870D01*
X0084985Y0114672D02*
X0018648Y0114672D01*
X0019846Y0113473D02*
X0084985Y0113473D01*
X0085430Y0112275D02*
X0038957Y0112275D01*
X0039933Y0111076D02*
X0086449Y0111076D01*
X0101051Y0111076D02*
X0105950Y0111076D01*
X0105950Y0109878D02*
X0040409Y0109878D01*
X0040409Y0108679D02*
X0105950Y0108679D01*
X0105950Y0112275D02*
X0102070Y0112275D01*
X0102515Y0113473D02*
X0105950Y0113473D01*
X0105950Y0114672D02*
X0102515Y0114672D01*
X0102092Y0115870D02*
X0105950Y0115870D01*
X0105950Y0117069D02*
X0101106Y0117069D01*
X0105950Y0118268D02*
X0018350Y0118268D01*
X0018350Y0119466D02*
X0105950Y0119466D01*
X0105950Y0120665D02*
X0018350Y0120665D01*
X0018350Y0121863D02*
X0105950Y0121863D01*
X0105950Y0123062D02*
X0018350Y0123062D01*
X0018350Y0124260D02*
X0105950Y0124260D01*
X0111550Y0124260D02*
X0113555Y0124260D01*
X0113555Y0123062D02*
X0111550Y0123062D01*
X0111550Y0121863D02*
X0113555Y0121863D01*
X0114167Y0120665D02*
X0111550Y0120665D01*
X0111550Y0125459D02*
X0113555Y0125459D01*
X0113555Y0126657D02*
X0111550Y0126657D01*
X0111550Y0127856D02*
X0114477Y0127856D01*
X0111550Y0129054D02*
X0221650Y0129054D01*
X0225850Y0129054D02*
X0234683Y0129054D01*
X0234683Y0127856D02*
X0225850Y0127856D01*
X0225850Y0126657D02*
X0234683Y0126657D01*
X0234683Y0125459D02*
X0225850Y0125459D01*
X0225850Y0124260D02*
X0234683Y0124260D01*
X0234683Y0123062D02*
X0225850Y0123062D01*
X0225850Y0121863D02*
X0234683Y0121863D01*
X0234683Y0120665D02*
X0225850Y0120665D01*
X0225850Y0119466D02*
X0234683Y0119466D01*
X0234683Y0118268D02*
X0225850Y0118268D01*
X0225850Y0117069D02*
X0234683Y0117069D01*
X0234683Y0115870D02*
X0225850Y0115870D01*
X0225850Y0114672D02*
X0234683Y0114672D01*
X0234683Y0113473D02*
X0225850Y0113473D01*
X0225850Y0112275D02*
X0234683Y0112275D01*
X0234683Y0111076D02*
X0225850Y0111076D01*
X0225850Y0109878D02*
X0234683Y0109878D01*
X0234683Y0108679D02*
X0225850Y0108679D01*
X0225850Y0107481D02*
X0234683Y0107481D01*
X0234683Y0106282D02*
X0225850Y0106282D01*
X0225850Y0105084D02*
X0234683Y0105084D01*
X0234683Y0103885D02*
X0225850Y0103885D01*
X0225850Y0102687D02*
X0234683Y0102687D01*
X0234683Y0101488D02*
X0225850Y0101488D01*
X0225850Y0100290D02*
X0234683Y0100290D01*
X0234683Y0099091D02*
X0225850Y0099091D01*
X0225850Y0097893D02*
X0234683Y0097893D01*
X0234683Y0096694D02*
X0225850Y0096694D01*
X0225850Y0095496D02*
X0234683Y0095496D01*
X0234683Y0094297D02*
X0225850Y0094297D01*
X0225850Y0093099D02*
X0234683Y0093099D01*
X0234683Y0091900D02*
X0225850Y0091900D01*
X0225850Y0090702D02*
X0234683Y0090702D01*
X0234683Y0089503D02*
X0225850Y0089503D01*
X0225850Y0088305D02*
X0234683Y0088305D01*
X0234683Y0087106D02*
X0225850Y0087106D01*
X0225850Y0085908D02*
X0234683Y0085908D01*
X0234683Y0084709D02*
X0225850Y0084709D01*
X0225850Y0083511D02*
X0234683Y0083511D01*
X0234683Y0082312D02*
X0225850Y0082312D01*
X0225850Y0081114D02*
X0234683Y0081114D01*
X0234683Y0079915D02*
X0225850Y0079915D01*
X0225850Y0078717D02*
X0234683Y0078717D01*
X0234683Y0077518D02*
X0225850Y0077518D01*
X0225850Y0076320D02*
X0234683Y0076320D01*
X0234683Y0075121D02*
X0225850Y0075121D01*
X0225850Y0073923D02*
X0234683Y0073923D01*
X0234683Y0072724D02*
X0225850Y0072724D01*
X0225850Y0071526D02*
X0234683Y0071526D01*
X0234683Y0070327D02*
X0225850Y0070327D01*
X0225850Y0069129D02*
X0234683Y0069129D01*
X0234683Y0067930D02*
X0225850Y0067930D01*
X0225850Y0066732D02*
X0234683Y0066732D01*
X0234683Y0065533D02*
X0225850Y0065533D01*
X0225850Y0064334D02*
X0234683Y0064334D01*
X0234683Y0063136D02*
X0225850Y0063136D01*
X0225850Y0061937D02*
X0234683Y0061937D01*
X0234683Y0060739D02*
X0225850Y0060739D01*
X0225850Y0059540D02*
X0234683Y0059540D01*
X0234683Y0058342D02*
X0225850Y0058342D01*
X0225850Y0057143D02*
X0234683Y0057143D01*
X0234683Y0055945D02*
X0225850Y0055945D01*
X0225850Y0054746D02*
X0234683Y0054746D01*
X0234683Y0053548D02*
X0225850Y0053548D01*
X0225850Y0052349D02*
X0234683Y0052349D01*
X0234683Y0051151D02*
X0225850Y0051151D01*
X0225850Y0049952D02*
X0234683Y0049952D01*
X0234683Y0048754D02*
X0225850Y0048754D01*
X0225850Y0047555D02*
X0234683Y0047555D01*
X0234683Y0046357D02*
X0225850Y0046357D01*
X0225850Y0045158D02*
X0234683Y0045158D01*
X0234683Y0043960D02*
X0225850Y0043960D01*
X0225850Y0042761D02*
X0234683Y0042761D01*
X0234683Y0041563D02*
X0225850Y0041563D01*
X0234683Y0011600D02*
X0007600Y0011600D01*
X0007600Y0010401D02*
X0234683Y0010401D01*
X0234683Y0009203D02*
X0007600Y0009203D01*
X0007600Y0012799D02*
X0103335Y0012799D01*
X0102187Y0013997D02*
X0007600Y0013997D01*
X0007600Y0015196D02*
X0099685Y0015196D01*
X0098486Y0016394D02*
X0007600Y0016394D01*
X0007600Y0017593D02*
X0097288Y0017593D01*
X0096089Y0018791D02*
X0007600Y0018791D01*
X0007600Y0019990D02*
X0094891Y0019990D01*
X0093692Y0021188D02*
X0007600Y0021188D01*
X0007600Y0022387D02*
X0092494Y0022387D01*
X0091295Y0023585D02*
X0007600Y0023585D01*
X0007600Y0024784D02*
X0090097Y0024784D01*
X0089150Y0025982D02*
X0007600Y0025982D01*
X0007600Y0027181D02*
X0089150Y0027181D01*
X0089150Y0028379D02*
X0007600Y0028379D01*
X0007600Y0029578D02*
X0089150Y0029578D01*
X0089150Y0030776D02*
X0007600Y0030776D01*
X0007600Y0031975D02*
X0089150Y0031975D01*
X0089150Y0033173D02*
X0007600Y0033173D01*
X0007600Y0034372D02*
X0089150Y0034372D01*
X0089150Y0035570D02*
X0007600Y0035570D01*
X0007600Y0036769D02*
X0089150Y0036769D01*
X0089150Y0037967D02*
X0007600Y0037967D01*
X0007600Y0039166D02*
X0089150Y0039166D01*
X0089150Y0040364D02*
X0007600Y0040364D01*
X0007600Y0041563D02*
X0089150Y0041563D01*
X0089150Y0042761D02*
X0007600Y0042761D01*
X0007600Y0043960D02*
X0089150Y0043960D01*
X0089150Y0045158D02*
X0007600Y0045158D01*
X0007600Y0091900D02*
X0023309Y0091900D01*
X0022661Y0093099D02*
X0007600Y0093099D01*
X0007600Y0094297D02*
X0022482Y0094297D01*
X0022676Y0095496D02*
X0007600Y0095496D01*
X0007600Y0096694D02*
X0023337Y0096694D01*
X0026814Y0106282D02*
X0033186Y0106282D01*
X0032419Y0107481D02*
X0027581Y0107481D01*
X0027909Y0108679D02*
X0032091Y0108679D01*
X0032091Y0109878D02*
X0027909Y0109878D01*
X0027433Y0111076D02*
X0032567Y0111076D01*
X0033543Y0112275D02*
X0026457Y0112275D01*
X0021673Y0125459D02*
X0018350Y0125459D01*
X0018350Y0126657D02*
X0020311Y0126657D01*
X0019764Y0127856D02*
X0018350Y0127856D01*
X0018350Y0129054D02*
X0019591Y0129054D01*
X0019726Y0130253D02*
X0018350Y0130253D01*
X0018350Y0131451D02*
X0020222Y0131451D01*
X0038548Y0132650D02*
X0044913Y0132650D01*
X0045601Y0131451D02*
X0039778Y0131451D01*
X0040081Y0107481D02*
X0046333Y0107481D01*
X0045216Y0106282D02*
X0039314Y0106282D01*
X0070850Y0162612D02*
X0087390Y0162612D01*
X0098750Y0147032D02*
X0098750Y0147032D01*
X0098750Y0145833D02*
X0098750Y0145833D01*
X0098750Y0144635D02*
X0098750Y0144635D01*
X0098750Y0143436D02*
X0098750Y0143436D01*
X0098750Y0142238D02*
X0098750Y0142238D01*
X0098750Y0141039D02*
X0098750Y0141039D01*
X0103921Y0030776D02*
X0093350Y0030776D01*
X0093350Y0029578D02*
X0102511Y0029578D01*
X0101846Y0028379D02*
X0093350Y0028379D01*
X0093639Y0027181D02*
X0101500Y0027181D01*
X0101500Y0025982D02*
X0094838Y0025982D01*
X0096036Y0024784D02*
X0101861Y0024784D01*
X0102548Y0023585D02*
X0097235Y0023585D01*
X0098433Y0022387D02*
X0104011Y0022387D01*
X0104915Y0021188D02*
X0099632Y0021188D01*
X0100830Y0019990D02*
X0102923Y0019990D01*
X0196663Y0117069D02*
X0200516Y0117069D01*
X0201707Y0115870D02*
X0197518Y0115870D01*
X0205793Y0115870D02*
X0211707Y0115870D01*
X0210516Y0117069D02*
X0206984Y0117069D01*
X0207481Y0118268D02*
X0210019Y0118268D01*
X0209985Y0119466D02*
X0207515Y0119466D01*
X0207178Y0120665D02*
X0210322Y0120665D01*
X0211188Y0121863D02*
X0206312Y0121863D01*
X0207510Y0132650D02*
X0221650Y0132650D01*
X0221650Y0133848D02*
X0207510Y0133848D01*
X0207510Y0135047D02*
X0221650Y0135047D01*
X0221650Y0136245D02*
X0207510Y0136245D01*
X0207065Y0137444D02*
X0221650Y0137444D01*
X0221650Y0138642D02*
X0205408Y0138642D01*
X0206883Y0139841D02*
X0221650Y0139841D01*
X0221650Y0141039D02*
X0207413Y0141039D01*
X0207513Y0142238D02*
X0221650Y0142238D01*
X0221650Y0143436D02*
X0207241Y0143436D01*
X0217898Y0155421D02*
X0234683Y0155421D01*
X0234683Y0154223D02*
X0219097Y0154223D01*
X0220295Y0153024D02*
X0234683Y0153024D01*
X0234683Y0151826D02*
X0221494Y0151826D01*
X0222693Y0150627D02*
X0234683Y0150627D01*
X0234683Y0149429D02*
X0223891Y0149429D01*
X0225090Y0148230D02*
X0234683Y0148230D01*
X0234683Y0147032D02*
X0225850Y0147032D01*
X0225850Y0145833D02*
X0234683Y0145833D01*
X0234683Y0144635D02*
X0225850Y0144635D01*
X0225850Y0143436D02*
X0234683Y0143436D01*
X0234683Y0142238D02*
X0225850Y0142238D01*
X0225850Y0141039D02*
X0234683Y0141039D01*
X0234683Y0139841D02*
X0225850Y0139841D01*
X0225850Y0138642D02*
X0234683Y0138642D01*
X0234683Y0137444D02*
X0225850Y0137444D01*
X0225850Y0136245D02*
X0234683Y0136245D01*
X0234683Y0135047D02*
X0225850Y0135047D01*
X0225850Y0133848D02*
X0234683Y0133848D01*
X0234683Y0132650D02*
X0225850Y0132650D01*
X0225850Y0131451D02*
X0234683Y0131451D01*
X0234683Y0130253D02*
X0225850Y0130253D01*
X0234683Y0156620D02*
X0216700Y0156620D01*
X0215501Y0157818D02*
X0234683Y0157818D01*
X0234683Y0159017D02*
X0214303Y0159017D01*
X0213104Y0160215D02*
X0234683Y0160215D01*
X0234683Y0161414D02*
X0211906Y0161414D01*
X0210707Y0162612D02*
X0234683Y0162612D01*
X0214233Y0165009D02*
X0213267Y0165009D01*
X0213267Y0166208D02*
X0214233Y0166208D01*
X0214233Y0167406D02*
X0213267Y0167406D01*
X0213267Y0168605D02*
X0214233Y0168605D01*
X0214233Y0169803D02*
X0213267Y0169803D01*
X0213267Y0171002D02*
X0214233Y0171002D01*
X0214233Y0172201D02*
X0213267Y0172201D01*
X0213267Y0173399D02*
X0214233Y0173399D01*
X0208759Y0173399D02*
X0196788Y0173399D01*
X0197986Y0172201D02*
X0208607Y0172201D01*
X0208607Y0171002D02*
X0202318Y0171002D01*
X0203287Y0170033D02*
X0203287Y0170033D01*
D29*
X0195500Y0161600D03*
X0195250Y0122600D03*
X0187750Y0100100D03*
X0187750Y0087600D03*
X0183750Y0057100D03*
X0183750Y0048350D03*
X0201250Y0041600D03*
X0201250Y0020850D03*
X0201250Y0010850D03*
X0233000Y0010850D03*
X0233000Y0041600D03*
X0233000Y0081600D03*
X0219500Y0081600D03*
X0219500Y0121600D03*
X0233000Y0121600D03*
X0233000Y0161600D03*
X0233000Y0201600D03*
X0233000Y0241600D03*
X0190500Y0241600D03*
X0190500Y0279850D03*
X0153000Y0279850D03*
X0125500Y0279850D03*
X0125500Y0244100D03*
X0153000Y0241600D03*
X0153000Y0201600D03*
X0138750Y0182100D03*
X0125500Y0201600D03*
X0102000Y0166600D03*
X0102000Y0151600D03*
X0113750Y0152100D03*
X0113000Y0129350D03*
X0113250Y0119100D03*
X0103750Y0119100D03*
X0103750Y0129350D03*
X0073250Y0139100D03*
X0064250Y0139100D03*
X0064000Y0156850D03*
X0074000Y0156850D03*
X0046500Y0128350D03*
X0046500Y0113350D03*
X0046500Y0098350D03*
X0064500Y0074100D03*
X0084500Y0074100D03*
X0084500Y0059100D03*
X0084500Y0049100D03*
X0081250Y0030850D03*
X0081250Y0010850D03*
X0102000Y0041600D03*
X0119500Y0041600D03*
X0141250Y0042100D03*
X0141250Y0052100D03*
X0161250Y0071100D03*
X0161250Y0079600D03*
X0158750Y0119600D03*
X0158750Y0129600D03*
X0158750Y0142100D03*
X0190500Y0201600D03*
X0114500Y0080350D03*
X0102000Y0080350D03*
X0121250Y0010850D03*
X0161250Y0010850D03*
X0161250Y0020850D03*
X0042000Y0031600D03*
X0038750Y0048350D03*
X0038750Y0057100D03*
X0019500Y0081600D03*
X0009500Y0081600D03*
X0009500Y0041600D03*
X0009500Y0010850D03*
X0041250Y0010850D03*
X0019500Y0121600D03*
X0009500Y0121600D03*
X0009500Y0161600D03*
X0022000Y0161600D03*
X0039500Y0164100D03*
X0039500Y0174100D03*
X0048000Y0201600D03*
X0022000Y0201350D03*
X0009500Y0201600D03*
X0009500Y0241600D03*
X0048000Y0241600D03*
X0048000Y0279850D03*
X0090500Y0279850D03*
X0090500Y0241600D03*
X0090500Y0201600D03*
D30*
X0068750Y0169163D02*
X0068750Y0134100D01*
X0028750Y0169163D02*
X0023813Y0169163D01*
X0016250Y0161600D01*
X0016250Y0114100D01*
X0021250Y0109100D01*
X0023750Y0109100D01*
X0091250Y0061600D02*
X0091250Y0026600D01*
X0101250Y0016600D01*
X0106250Y0016600D01*
X0136250Y0016600D02*
X0203750Y0016600D01*
X0223750Y0036600D01*
X0223750Y0146600D01*
X0201187Y0169163D01*
X0193750Y0169163D01*
D31*
X0108750Y0156600D02*
X0106250Y0159100D01*
X0098750Y0159100D01*
X0108750Y0156600D02*
X0108750Y0041600D01*
X0116250Y0034100D01*
X0116250Y0026600D01*
M02*
