G75*
%MOIN*%
%OFA0B0*%
%FSLAX25Y25*%
%IPPOS*%
%LPD*%
%AMOC8*
5,1,8,0,0,1.08239X$1,22.5*
%
%ADD10C,0.00500*%
%ADD11C,0.00600*%
%ADD12C,0.00800*%
%ADD13C,0.00000*%
D10*
X0018750Y0059163D02*
X0022805Y0059163D01*
X0026742Y0059163D02*
X0030797Y0059163D01*
X0034734Y0059163D02*
X0038789Y0059163D01*
X0042726Y0059163D02*
X0046781Y0059163D01*
X0050719Y0059163D02*
X0054774Y0059163D01*
X0058711Y0059163D02*
X0062766Y0059163D01*
X0066703Y0059163D02*
X0070758Y0059163D01*
X0074695Y0059163D02*
X0078750Y0059163D01*
X0078750Y0063501D01*
X0078750Y0067438D02*
X0078750Y0071776D01*
X0078750Y0075713D02*
X0078750Y0080050D01*
X0078750Y0083987D02*
X0078750Y0088325D01*
X0078750Y0092262D02*
X0078750Y0096600D01*
X0079472Y0114100D02*
X0083750Y0114100D01*
X0075535Y0114100D02*
X0071257Y0114100D01*
X0067320Y0114100D02*
X0063041Y0114100D01*
X0059104Y0114100D02*
X0054826Y0114100D01*
X0050889Y0114100D02*
X0046611Y0114100D01*
X0014757Y0122435D02*
X0014943Y0123158D01*
X0015143Y0123877D01*
X0015360Y0124592D01*
X0015591Y0125302D01*
X0015837Y0126007D01*
X0016099Y0126706D01*
X0018028Y0114100D02*
X0013750Y0114100D01*
X0021965Y0114100D02*
X0026243Y0114100D01*
X0030180Y0114100D02*
X0034459Y0114100D01*
X0038396Y0114100D02*
X0042674Y0114100D01*
X0022469Y0137215D02*
X0022968Y0137771D01*
X0023479Y0138315D01*
X0024001Y0138849D01*
X0024535Y0139371D01*
X0025079Y0139882D01*
X0025635Y0140381D01*
X0048750Y0140885D02*
X0048750Y0136607D01*
X0048750Y0132670D02*
X0048750Y0128391D01*
X0048750Y0124454D02*
X0048750Y0120176D01*
X0048750Y0116239D02*
X0048750Y0111961D01*
X0040414Y0080107D02*
X0039691Y0080293D01*
X0038972Y0080494D01*
X0038258Y0080710D01*
X0037548Y0080941D01*
X0036843Y0081188D01*
X0036144Y0081449D01*
X0048750Y0083378D02*
X0048750Y0079100D01*
X0048750Y0087315D02*
X0048750Y0091593D01*
X0048750Y0095530D02*
X0048750Y0099809D01*
X0048750Y0103746D02*
X0048750Y0108024D01*
X0057086Y0080107D02*
X0057809Y0080293D01*
X0058528Y0080494D01*
X0059242Y0080710D01*
X0059952Y0080941D01*
X0060657Y0081188D01*
X0061356Y0081449D01*
X0020041Y0094081D02*
X0019620Y0094698D01*
X0019213Y0095323D01*
X0018819Y0095957D01*
X0018439Y0096600D01*
X0018073Y0097250D01*
X0017720Y0097909D01*
X0018750Y0096600D02*
X0018750Y0092262D01*
X0018750Y0088325D02*
X0018750Y0083987D01*
X0018750Y0080050D02*
X0018750Y0075713D01*
X0018750Y0071776D02*
X0018750Y0067438D01*
X0018750Y0063501D02*
X0018750Y0059163D01*
X0077459Y0094081D02*
X0077880Y0094698D01*
X0078287Y0095323D01*
X0078681Y0095957D01*
X0079061Y0096600D01*
X0079427Y0097250D01*
X0079780Y0097909D01*
X0082743Y0122435D02*
X0082557Y0123158D01*
X0082357Y0123877D01*
X0082140Y0124592D01*
X0081909Y0125302D01*
X0081663Y0126007D01*
X0081401Y0126706D01*
X0075031Y0137215D02*
X0074532Y0137771D01*
X0074021Y0138315D01*
X0073499Y0138849D01*
X0072965Y0139371D01*
X0072421Y0139882D01*
X0071865Y0140381D01*
X0048750Y0144822D02*
X0048750Y0149100D01*
X0046781Y0175663D02*
X0042726Y0175663D01*
X0038789Y0175663D02*
X0034734Y0175663D01*
X0030797Y0175663D02*
X0026742Y0175663D01*
X0022805Y0175663D02*
X0018750Y0175663D01*
X0018750Y0180001D01*
X0018750Y0183938D02*
X0018750Y0188276D01*
X0018750Y0192213D02*
X0018750Y0196550D01*
X0018750Y0200487D02*
X0018750Y0204825D01*
X0018750Y0208762D02*
X0018750Y0213100D01*
X0018028Y0230600D02*
X0013750Y0230600D01*
X0021965Y0230600D02*
X0026243Y0230600D01*
X0030180Y0230600D02*
X0034459Y0230600D01*
X0038396Y0230600D02*
X0042674Y0230600D01*
X0046611Y0230600D02*
X0050889Y0230600D01*
X0082743Y0238935D02*
X0082557Y0239658D01*
X0082357Y0240377D01*
X0082140Y0241092D01*
X0081909Y0241802D01*
X0081663Y0242507D01*
X0081401Y0243206D01*
X0079472Y0230600D02*
X0083750Y0230600D01*
X0075535Y0230600D02*
X0071257Y0230600D01*
X0067320Y0230600D02*
X0063041Y0230600D01*
X0059104Y0230600D02*
X0054826Y0230600D01*
X0075031Y0253715D02*
X0074532Y0254271D01*
X0074021Y0254815D01*
X0073499Y0255349D01*
X0072965Y0255871D01*
X0072421Y0256382D01*
X0071865Y0256881D01*
X0048750Y0257385D02*
X0048750Y0253107D01*
X0048750Y0249170D02*
X0048750Y0244891D01*
X0048750Y0240954D02*
X0048750Y0236676D01*
X0048750Y0232739D02*
X0048750Y0228461D01*
X0040414Y0196607D02*
X0039691Y0196793D01*
X0038972Y0196994D01*
X0038258Y0197210D01*
X0037548Y0197441D01*
X0036843Y0197688D01*
X0036144Y0197949D01*
X0048750Y0199878D02*
X0048750Y0195600D01*
X0048750Y0203815D02*
X0048750Y0208093D01*
X0048750Y0212030D02*
X0048750Y0216309D01*
X0048750Y0220246D02*
X0048750Y0224524D01*
X0057086Y0196607D02*
X0057809Y0196793D01*
X0058528Y0196994D01*
X0059242Y0197210D01*
X0059952Y0197441D01*
X0060657Y0197688D01*
X0061356Y0197949D01*
X0078750Y0196550D02*
X0078750Y0192213D01*
X0078750Y0188276D02*
X0078750Y0183938D01*
X0078750Y0180001D02*
X0078750Y0175663D01*
X0074695Y0175663D01*
X0070758Y0175663D02*
X0066703Y0175663D01*
X0062766Y0175663D02*
X0058711Y0175663D01*
X0054774Y0175663D02*
X0050719Y0175663D01*
X0078750Y0200487D02*
X0078750Y0204825D01*
X0078750Y0208762D02*
X0078750Y0213100D01*
X0079780Y0246791D02*
X0079427Y0247449D01*
X0079061Y0248100D01*
X0078681Y0248742D01*
X0078287Y0249377D01*
X0077880Y0250002D01*
X0077459Y0250619D01*
X0048750Y0261322D02*
X0048750Y0265600D01*
X0057085Y0264593D02*
X0057808Y0264407D01*
X0058527Y0264207D01*
X0059242Y0263990D01*
X0059952Y0263759D01*
X0060657Y0263513D01*
X0061356Y0263251D01*
X0083464Y0235067D02*
X0083551Y0234325D01*
X0083623Y0233582D01*
X0083678Y0232838D01*
X0083718Y0232092D01*
X0083742Y0231346D01*
X0083750Y0230600D01*
X0053217Y0265314D02*
X0052475Y0265401D01*
X0051732Y0265473D01*
X0050988Y0265528D01*
X0050242Y0265568D01*
X0049496Y0265592D01*
X0048750Y0265600D01*
X0040415Y0264593D02*
X0039692Y0264407D01*
X0038973Y0264207D01*
X0038258Y0263990D01*
X0037548Y0263759D01*
X0036843Y0263513D01*
X0036144Y0263251D01*
X0025635Y0256881D02*
X0025079Y0256382D01*
X0024535Y0255871D01*
X0024001Y0255349D01*
X0023479Y0254815D01*
X0022968Y0254271D01*
X0022469Y0253715D01*
X0016099Y0243206D02*
X0015837Y0242507D01*
X0015591Y0241802D01*
X0015360Y0241092D01*
X0015143Y0240377D01*
X0014943Y0239658D01*
X0014757Y0238935D01*
X0044283Y0265314D02*
X0045025Y0265401D01*
X0045768Y0265473D01*
X0046512Y0265528D01*
X0047258Y0265568D01*
X0048004Y0265592D01*
X0048750Y0265600D01*
X0064941Y0261630D02*
X0065599Y0261277D01*
X0066250Y0260911D01*
X0066892Y0260531D01*
X0067527Y0260137D01*
X0068152Y0259730D01*
X0068769Y0259309D01*
X0032559Y0261630D02*
X0031901Y0261277D01*
X0031250Y0260911D01*
X0030608Y0260531D01*
X0029973Y0260137D01*
X0029348Y0259730D01*
X0028731Y0259309D01*
X0014036Y0235067D02*
X0013949Y0234325D01*
X0013877Y0233582D01*
X0013822Y0232838D01*
X0013782Y0232092D01*
X0013758Y0231346D01*
X0013750Y0230600D01*
X0017720Y0246791D02*
X0018073Y0247449D01*
X0018439Y0248100D01*
X0018819Y0248742D01*
X0019213Y0249377D01*
X0019620Y0250002D01*
X0020041Y0250619D01*
X0014757Y0222264D02*
X0014943Y0221541D01*
X0015144Y0220822D01*
X0015360Y0220108D01*
X0015591Y0219398D01*
X0015838Y0218693D01*
X0016099Y0217994D01*
X0077459Y0210581D02*
X0077880Y0211198D01*
X0078287Y0211823D01*
X0078681Y0212457D01*
X0079061Y0213100D01*
X0079427Y0213750D01*
X0079780Y0214409D01*
X0020041Y0210581D02*
X0019620Y0211198D01*
X0019213Y0211823D01*
X0018819Y0212457D01*
X0018439Y0213100D01*
X0018073Y0213750D01*
X0017720Y0214409D01*
X0048750Y0195600D02*
X0049497Y0195608D01*
X0050243Y0195632D01*
X0050988Y0195672D01*
X0051733Y0195727D01*
X0052476Y0195799D01*
X0053217Y0195886D01*
X0025635Y0204319D02*
X0025079Y0204818D01*
X0024535Y0205329D01*
X0024001Y0205851D01*
X0023479Y0206385D01*
X0022968Y0206929D01*
X0022469Y0207485D01*
X0071865Y0204319D02*
X0072421Y0204818D01*
X0072965Y0205329D01*
X0073499Y0205851D01*
X0074021Y0206385D01*
X0074532Y0206929D01*
X0075031Y0207485D01*
X0048750Y0195600D02*
X0048003Y0195608D01*
X0047257Y0195632D01*
X0046512Y0195672D01*
X0045767Y0195727D01*
X0045024Y0195799D01*
X0044283Y0195886D01*
X0045215Y0230600D02*
X0045217Y0230719D01*
X0045223Y0230837D01*
X0045233Y0230956D01*
X0045247Y0231074D01*
X0045265Y0231191D01*
X0045287Y0231308D01*
X0045312Y0231424D01*
X0045342Y0231539D01*
X0045375Y0231653D01*
X0045413Y0231766D01*
X0045454Y0231877D01*
X0045498Y0231987D01*
X0045547Y0232095D01*
X0045599Y0232202D01*
X0045655Y0232307D01*
X0045714Y0232410D01*
X0045776Y0232511D01*
X0045842Y0232610D01*
X0045911Y0232707D01*
X0045984Y0232801D01*
X0046059Y0232892D01*
X0046138Y0232982D01*
X0046219Y0233068D01*
X0046303Y0233152D01*
X0046391Y0233232D01*
X0046480Y0233310D01*
X0046573Y0233385D01*
X0046667Y0233456D01*
X0046765Y0233525D01*
X0046864Y0233590D01*
X0046965Y0233651D01*
X0047069Y0233710D01*
X0047174Y0233764D01*
X0047282Y0233816D01*
X0047390Y0233863D01*
X0047501Y0233907D01*
X0047613Y0233947D01*
X0047726Y0233983D01*
X0047840Y0234016D01*
X0047955Y0234044D01*
X0048071Y0234069D01*
X0048188Y0234090D01*
X0048306Y0234107D01*
X0048424Y0234120D01*
X0048542Y0234129D01*
X0048661Y0234134D01*
X0048780Y0234135D01*
X0048898Y0234132D01*
X0049017Y0234125D01*
X0049135Y0234114D01*
X0049253Y0234099D01*
X0049370Y0234080D01*
X0049487Y0234057D01*
X0049603Y0234031D01*
X0049717Y0234000D01*
X0049831Y0233966D01*
X0049944Y0233927D01*
X0050055Y0233885D01*
X0050164Y0233840D01*
X0050272Y0233790D01*
X0050379Y0233737D01*
X0050483Y0233681D01*
X0050586Y0233621D01*
X0050686Y0233558D01*
X0050784Y0233491D01*
X0050880Y0233421D01*
X0050974Y0233348D01*
X0051065Y0233272D01*
X0051153Y0233192D01*
X0051239Y0233110D01*
X0051322Y0233025D01*
X0051402Y0232937D01*
X0051479Y0232847D01*
X0051553Y0232754D01*
X0051624Y0232659D01*
X0051691Y0232561D01*
X0051756Y0232461D01*
X0051816Y0232359D01*
X0051874Y0232255D01*
X0051928Y0232149D01*
X0051978Y0232041D01*
X0052024Y0231932D01*
X0052067Y0231821D01*
X0052106Y0231709D01*
X0052142Y0231596D01*
X0052173Y0231481D01*
X0052201Y0231366D01*
X0052225Y0231250D01*
X0052245Y0231132D01*
X0052261Y0231015D01*
X0052273Y0230897D01*
X0052281Y0230778D01*
X0052285Y0230659D01*
X0052285Y0230541D01*
X0052281Y0230422D01*
X0052273Y0230303D01*
X0052261Y0230185D01*
X0052245Y0230068D01*
X0052225Y0229950D01*
X0052201Y0229834D01*
X0052173Y0229719D01*
X0052142Y0229604D01*
X0052106Y0229491D01*
X0052067Y0229379D01*
X0052024Y0229268D01*
X0051978Y0229159D01*
X0051928Y0229051D01*
X0051874Y0228945D01*
X0051816Y0228841D01*
X0051756Y0228739D01*
X0051691Y0228639D01*
X0051624Y0228541D01*
X0051553Y0228446D01*
X0051479Y0228353D01*
X0051402Y0228263D01*
X0051322Y0228175D01*
X0051239Y0228090D01*
X0051153Y0228008D01*
X0051065Y0227928D01*
X0050974Y0227852D01*
X0050880Y0227779D01*
X0050784Y0227709D01*
X0050686Y0227642D01*
X0050586Y0227579D01*
X0050483Y0227519D01*
X0050379Y0227463D01*
X0050272Y0227410D01*
X0050164Y0227360D01*
X0050055Y0227315D01*
X0049944Y0227273D01*
X0049831Y0227234D01*
X0049717Y0227200D01*
X0049603Y0227169D01*
X0049487Y0227143D01*
X0049370Y0227120D01*
X0049253Y0227101D01*
X0049135Y0227086D01*
X0049017Y0227075D01*
X0048898Y0227068D01*
X0048780Y0227065D01*
X0048661Y0227066D01*
X0048542Y0227071D01*
X0048424Y0227080D01*
X0048306Y0227093D01*
X0048188Y0227110D01*
X0048071Y0227131D01*
X0047955Y0227156D01*
X0047840Y0227184D01*
X0047726Y0227217D01*
X0047613Y0227253D01*
X0047501Y0227293D01*
X0047390Y0227337D01*
X0047282Y0227384D01*
X0047174Y0227436D01*
X0047069Y0227490D01*
X0046965Y0227549D01*
X0046864Y0227610D01*
X0046765Y0227675D01*
X0046667Y0227744D01*
X0046573Y0227815D01*
X0046480Y0227890D01*
X0046391Y0227968D01*
X0046303Y0228048D01*
X0046219Y0228132D01*
X0046138Y0228218D01*
X0046059Y0228308D01*
X0045984Y0228399D01*
X0045911Y0228493D01*
X0045842Y0228590D01*
X0045776Y0228689D01*
X0045714Y0228790D01*
X0045655Y0228893D01*
X0045599Y0228998D01*
X0045547Y0229105D01*
X0045498Y0229213D01*
X0045454Y0229323D01*
X0045413Y0229434D01*
X0045375Y0229547D01*
X0045342Y0229661D01*
X0045312Y0229776D01*
X0045287Y0229892D01*
X0045265Y0230009D01*
X0045247Y0230126D01*
X0045233Y0230244D01*
X0045223Y0230363D01*
X0045217Y0230481D01*
X0045215Y0230600D01*
X0083464Y0226133D02*
X0083551Y0226874D01*
X0083623Y0227617D01*
X0083678Y0228362D01*
X0083718Y0229107D01*
X0083742Y0229853D01*
X0083750Y0230600D01*
X0014036Y0226133D02*
X0013949Y0226874D01*
X0013877Y0227617D01*
X0013822Y0228362D01*
X0013782Y0229107D01*
X0013758Y0229853D01*
X0013750Y0230600D01*
X0064941Y0199570D02*
X0065600Y0199923D01*
X0066250Y0200289D01*
X0066893Y0200669D01*
X0067527Y0201063D01*
X0068152Y0201470D01*
X0068769Y0201891D01*
X0032559Y0199570D02*
X0031900Y0199923D01*
X0031250Y0200289D01*
X0030607Y0200669D01*
X0029973Y0201063D01*
X0029348Y0201470D01*
X0028731Y0201891D01*
X0081401Y0217994D02*
X0081662Y0218693D01*
X0081909Y0219398D01*
X0082140Y0220108D01*
X0082356Y0220822D01*
X0082557Y0221541D01*
X0082743Y0222264D01*
X0116292Y0277750D02*
X0117560Y0277750D01*
X0116926Y0277750D02*
X0116926Y0279652D01*
X0117560Y0279018D01*
X0118502Y0279652D02*
X0119136Y0279652D01*
X0118819Y0279652D02*
X0118819Y0278067D01*
X0119136Y0277750D01*
X0119453Y0277750D01*
X0119770Y0278067D01*
X0158750Y0230600D02*
X0163028Y0230600D01*
X0166965Y0230600D02*
X0171243Y0230600D01*
X0175180Y0230600D02*
X0179459Y0230600D01*
X0183396Y0230600D02*
X0187674Y0230600D01*
X0191611Y0230600D02*
X0195889Y0230600D01*
X0227743Y0238935D02*
X0227557Y0239658D01*
X0227357Y0240377D01*
X0227140Y0241092D01*
X0226909Y0241802D01*
X0226663Y0242507D01*
X0226401Y0243206D01*
X0224472Y0230600D02*
X0228750Y0230600D01*
X0220535Y0230600D02*
X0216257Y0230600D01*
X0212320Y0230600D02*
X0208041Y0230600D01*
X0204104Y0230600D02*
X0199826Y0230600D01*
X0220031Y0253715D02*
X0219532Y0254271D01*
X0219021Y0254815D01*
X0218499Y0255349D01*
X0217965Y0255871D01*
X0217421Y0256382D01*
X0216865Y0256881D01*
X0193750Y0257385D02*
X0193750Y0253107D01*
X0193750Y0249170D02*
X0193750Y0244891D01*
X0193750Y0240954D02*
X0193750Y0236676D01*
X0193750Y0232739D02*
X0193750Y0228461D01*
X0185414Y0196607D02*
X0184691Y0196793D01*
X0183972Y0196994D01*
X0183258Y0197210D01*
X0182548Y0197441D01*
X0181843Y0197688D01*
X0181144Y0197949D01*
X0193750Y0199878D02*
X0193750Y0195600D01*
X0193750Y0203815D02*
X0193750Y0208093D01*
X0193750Y0212030D02*
X0193750Y0216309D01*
X0193750Y0220246D02*
X0193750Y0224524D01*
X0202086Y0196607D02*
X0202809Y0196793D01*
X0203528Y0196994D01*
X0204242Y0197210D01*
X0204952Y0197441D01*
X0205657Y0197688D01*
X0206356Y0197949D01*
X0223750Y0196550D02*
X0223750Y0192213D01*
X0223750Y0188276D02*
X0223750Y0183938D01*
X0223750Y0180001D02*
X0223750Y0175663D01*
X0219695Y0175663D01*
X0215758Y0175663D02*
X0211703Y0175663D01*
X0207766Y0175663D02*
X0203711Y0175663D01*
X0199774Y0175663D02*
X0195719Y0175663D01*
X0191781Y0175663D02*
X0187726Y0175663D01*
X0183789Y0175663D02*
X0179734Y0175663D01*
X0175797Y0175663D02*
X0171742Y0175663D01*
X0167805Y0175663D02*
X0163750Y0175663D01*
X0163750Y0180001D01*
X0163750Y0183938D02*
X0163750Y0188276D01*
X0163750Y0192213D02*
X0163750Y0196550D01*
X0163750Y0200487D02*
X0163750Y0204825D01*
X0163750Y0208762D02*
X0163750Y0213100D01*
X0159757Y0238935D02*
X0159943Y0239658D01*
X0160143Y0240377D01*
X0160360Y0241092D01*
X0160591Y0241802D01*
X0160837Y0242507D01*
X0161099Y0243206D01*
X0167469Y0253715D02*
X0167968Y0254271D01*
X0168479Y0254815D01*
X0169001Y0255349D01*
X0169535Y0255871D01*
X0170079Y0256382D01*
X0170635Y0256881D01*
X0193750Y0261322D02*
X0193750Y0265600D01*
X0202085Y0264593D02*
X0202808Y0264407D01*
X0203527Y0264207D01*
X0204242Y0263990D01*
X0204952Y0263759D01*
X0205657Y0263513D01*
X0206356Y0263251D01*
X0228464Y0235067D02*
X0228551Y0234325D01*
X0228623Y0233582D01*
X0228678Y0232838D01*
X0228718Y0232092D01*
X0228742Y0231346D01*
X0228750Y0230600D01*
X0223750Y0213100D02*
X0223750Y0208762D01*
X0223750Y0204825D02*
X0223750Y0200487D01*
X0165041Y0210581D02*
X0164620Y0211198D01*
X0164213Y0211823D01*
X0163819Y0212457D01*
X0163439Y0213100D01*
X0163073Y0213750D01*
X0162720Y0214409D01*
X0162720Y0246791D02*
X0163073Y0247449D01*
X0163439Y0248100D01*
X0163819Y0248742D01*
X0164213Y0249377D01*
X0164620Y0250002D01*
X0165041Y0250619D01*
X0181144Y0263251D02*
X0181843Y0263513D01*
X0182548Y0263759D01*
X0183258Y0263990D01*
X0183973Y0264207D01*
X0184692Y0264407D01*
X0185415Y0264593D01*
X0159036Y0235067D02*
X0158949Y0234325D01*
X0158877Y0233582D01*
X0158822Y0232838D01*
X0158782Y0232092D01*
X0158758Y0231346D01*
X0158750Y0230600D01*
X0189283Y0265314D02*
X0190025Y0265401D01*
X0190768Y0265473D01*
X0191512Y0265528D01*
X0192258Y0265568D01*
X0193004Y0265592D01*
X0193750Y0265600D01*
X0209941Y0261630D02*
X0210599Y0261277D01*
X0211250Y0260911D01*
X0211892Y0260531D01*
X0212527Y0260137D01*
X0213152Y0259730D01*
X0213769Y0259309D01*
X0198217Y0265314D02*
X0197475Y0265401D01*
X0196732Y0265473D01*
X0195988Y0265528D01*
X0195242Y0265568D01*
X0194496Y0265592D01*
X0193750Y0265600D01*
X0177559Y0261630D02*
X0176901Y0261277D01*
X0176250Y0260911D01*
X0175608Y0260531D01*
X0174973Y0260137D01*
X0174348Y0259730D01*
X0173731Y0259309D01*
X0222459Y0250619D02*
X0222880Y0250002D01*
X0223287Y0249377D01*
X0223681Y0248742D01*
X0224061Y0248100D01*
X0224427Y0247449D01*
X0224780Y0246791D01*
X0158750Y0230600D02*
X0158758Y0229853D01*
X0158782Y0229107D01*
X0158822Y0228362D01*
X0158877Y0227617D01*
X0158949Y0226874D01*
X0159036Y0226133D01*
X0193750Y0195600D02*
X0194497Y0195608D01*
X0195243Y0195632D01*
X0195988Y0195672D01*
X0196733Y0195727D01*
X0197476Y0195799D01*
X0198217Y0195886D01*
X0170635Y0204319D02*
X0170079Y0204818D01*
X0169535Y0205329D01*
X0169001Y0205851D01*
X0168479Y0206385D01*
X0167968Y0206929D01*
X0167469Y0207485D01*
X0222459Y0210581D02*
X0222880Y0211198D01*
X0223287Y0211823D01*
X0223681Y0212457D01*
X0224061Y0213100D01*
X0224427Y0213750D01*
X0224780Y0214409D01*
X0193750Y0195600D02*
X0193003Y0195608D01*
X0192257Y0195632D01*
X0191512Y0195672D01*
X0190767Y0195727D01*
X0190024Y0195799D01*
X0189283Y0195886D01*
X0216865Y0204319D02*
X0217421Y0204818D01*
X0217965Y0205329D01*
X0218499Y0205851D01*
X0219021Y0206385D01*
X0219532Y0206929D01*
X0220031Y0207485D01*
X0190215Y0230600D02*
X0190217Y0230719D01*
X0190223Y0230837D01*
X0190233Y0230956D01*
X0190247Y0231074D01*
X0190265Y0231191D01*
X0190287Y0231308D01*
X0190312Y0231424D01*
X0190342Y0231539D01*
X0190375Y0231653D01*
X0190413Y0231766D01*
X0190454Y0231877D01*
X0190498Y0231987D01*
X0190547Y0232095D01*
X0190599Y0232202D01*
X0190655Y0232307D01*
X0190714Y0232410D01*
X0190776Y0232511D01*
X0190842Y0232610D01*
X0190911Y0232707D01*
X0190984Y0232801D01*
X0191059Y0232892D01*
X0191138Y0232982D01*
X0191219Y0233068D01*
X0191303Y0233152D01*
X0191391Y0233232D01*
X0191480Y0233310D01*
X0191573Y0233385D01*
X0191667Y0233456D01*
X0191765Y0233525D01*
X0191864Y0233590D01*
X0191965Y0233651D01*
X0192069Y0233710D01*
X0192174Y0233764D01*
X0192282Y0233816D01*
X0192390Y0233863D01*
X0192501Y0233907D01*
X0192613Y0233947D01*
X0192726Y0233983D01*
X0192840Y0234016D01*
X0192955Y0234044D01*
X0193071Y0234069D01*
X0193188Y0234090D01*
X0193306Y0234107D01*
X0193424Y0234120D01*
X0193542Y0234129D01*
X0193661Y0234134D01*
X0193780Y0234135D01*
X0193898Y0234132D01*
X0194017Y0234125D01*
X0194135Y0234114D01*
X0194253Y0234099D01*
X0194370Y0234080D01*
X0194487Y0234057D01*
X0194603Y0234031D01*
X0194717Y0234000D01*
X0194831Y0233966D01*
X0194944Y0233927D01*
X0195055Y0233885D01*
X0195164Y0233840D01*
X0195272Y0233790D01*
X0195379Y0233737D01*
X0195483Y0233681D01*
X0195586Y0233621D01*
X0195686Y0233558D01*
X0195784Y0233491D01*
X0195880Y0233421D01*
X0195974Y0233348D01*
X0196065Y0233272D01*
X0196153Y0233192D01*
X0196239Y0233110D01*
X0196322Y0233025D01*
X0196402Y0232937D01*
X0196479Y0232847D01*
X0196553Y0232754D01*
X0196624Y0232659D01*
X0196691Y0232561D01*
X0196756Y0232461D01*
X0196816Y0232359D01*
X0196874Y0232255D01*
X0196928Y0232149D01*
X0196978Y0232041D01*
X0197024Y0231932D01*
X0197067Y0231821D01*
X0197106Y0231709D01*
X0197142Y0231596D01*
X0197173Y0231481D01*
X0197201Y0231366D01*
X0197225Y0231250D01*
X0197245Y0231132D01*
X0197261Y0231015D01*
X0197273Y0230897D01*
X0197281Y0230778D01*
X0197285Y0230659D01*
X0197285Y0230541D01*
X0197281Y0230422D01*
X0197273Y0230303D01*
X0197261Y0230185D01*
X0197245Y0230068D01*
X0197225Y0229950D01*
X0197201Y0229834D01*
X0197173Y0229719D01*
X0197142Y0229604D01*
X0197106Y0229491D01*
X0197067Y0229379D01*
X0197024Y0229268D01*
X0196978Y0229159D01*
X0196928Y0229051D01*
X0196874Y0228945D01*
X0196816Y0228841D01*
X0196756Y0228739D01*
X0196691Y0228639D01*
X0196624Y0228541D01*
X0196553Y0228446D01*
X0196479Y0228353D01*
X0196402Y0228263D01*
X0196322Y0228175D01*
X0196239Y0228090D01*
X0196153Y0228008D01*
X0196065Y0227928D01*
X0195974Y0227852D01*
X0195880Y0227779D01*
X0195784Y0227709D01*
X0195686Y0227642D01*
X0195586Y0227579D01*
X0195483Y0227519D01*
X0195379Y0227463D01*
X0195272Y0227410D01*
X0195164Y0227360D01*
X0195055Y0227315D01*
X0194944Y0227273D01*
X0194831Y0227234D01*
X0194717Y0227200D01*
X0194603Y0227169D01*
X0194487Y0227143D01*
X0194370Y0227120D01*
X0194253Y0227101D01*
X0194135Y0227086D01*
X0194017Y0227075D01*
X0193898Y0227068D01*
X0193780Y0227065D01*
X0193661Y0227066D01*
X0193542Y0227071D01*
X0193424Y0227080D01*
X0193306Y0227093D01*
X0193188Y0227110D01*
X0193071Y0227131D01*
X0192955Y0227156D01*
X0192840Y0227184D01*
X0192726Y0227217D01*
X0192613Y0227253D01*
X0192501Y0227293D01*
X0192390Y0227337D01*
X0192282Y0227384D01*
X0192174Y0227436D01*
X0192069Y0227490D01*
X0191965Y0227549D01*
X0191864Y0227610D01*
X0191765Y0227675D01*
X0191667Y0227744D01*
X0191573Y0227815D01*
X0191480Y0227890D01*
X0191391Y0227968D01*
X0191303Y0228048D01*
X0191219Y0228132D01*
X0191138Y0228218D01*
X0191059Y0228308D01*
X0190984Y0228399D01*
X0190911Y0228493D01*
X0190842Y0228590D01*
X0190776Y0228689D01*
X0190714Y0228790D01*
X0190655Y0228893D01*
X0190599Y0228998D01*
X0190547Y0229105D01*
X0190498Y0229213D01*
X0190454Y0229323D01*
X0190413Y0229434D01*
X0190375Y0229547D01*
X0190342Y0229661D01*
X0190312Y0229776D01*
X0190287Y0229892D01*
X0190265Y0230009D01*
X0190247Y0230126D01*
X0190233Y0230244D01*
X0190223Y0230363D01*
X0190217Y0230481D01*
X0190215Y0230600D01*
X0159757Y0222264D02*
X0159943Y0221541D01*
X0160144Y0220822D01*
X0160360Y0220108D01*
X0160591Y0219398D01*
X0160838Y0218693D01*
X0161099Y0217994D01*
X0228464Y0226133D02*
X0228551Y0226874D01*
X0228623Y0227617D01*
X0228678Y0228362D01*
X0228718Y0229107D01*
X0228742Y0229853D01*
X0228750Y0230600D01*
X0227743Y0222264D02*
X0227557Y0221541D01*
X0227356Y0220822D01*
X0227140Y0220108D01*
X0226909Y0219398D01*
X0226662Y0218693D01*
X0226401Y0217994D01*
X0177559Y0199570D02*
X0176900Y0199923D01*
X0176250Y0200289D01*
X0175607Y0200669D01*
X0174973Y0201063D01*
X0174348Y0201470D01*
X0173731Y0201891D01*
X0209941Y0199570D02*
X0210600Y0199923D01*
X0211250Y0200289D01*
X0211893Y0200669D01*
X0212527Y0201063D01*
X0213152Y0201470D01*
X0213769Y0201891D01*
X0193750Y0149100D02*
X0193750Y0144822D01*
X0193750Y0140885D02*
X0193750Y0136607D01*
X0193750Y0132670D02*
X0193750Y0128391D01*
X0193750Y0124454D02*
X0193750Y0120176D01*
X0193750Y0116239D02*
X0193750Y0111961D01*
X0185414Y0080107D02*
X0184691Y0080293D01*
X0183972Y0080494D01*
X0183258Y0080710D01*
X0182548Y0080941D01*
X0181843Y0081188D01*
X0181144Y0081449D01*
X0193750Y0083378D02*
X0193750Y0079100D01*
X0193750Y0087315D02*
X0193750Y0091593D01*
X0193750Y0095530D02*
X0193750Y0099809D01*
X0193750Y0103746D02*
X0193750Y0108024D01*
X0202086Y0080107D02*
X0202809Y0080293D01*
X0203528Y0080494D01*
X0204242Y0080710D01*
X0204952Y0080941D01*
X0205657Y0081188D01*
X0206356Y0081449D01*
X0207766Y0059163D02*
X0203711Y0059163D01*
X0199774Y0059163D02*
X0195719Y0059163D01*
X0191781Y0059163D02*
X0187726Y0059163D01*
X0183789Y0059163D02*
X0179734Y0059163D01*
X0175797Y0059163D02*
X0171742Y0059163D01*
X0167805Y0059163D02*
X0163750Y0059163D01*
X0163750Y0063501D01*
X0163750Y0067438D02*
X0163750Y0071776D01*
X0163750Y0075713D02*
X0163750Y0080050D01*
X0163750Y0083987D02*
X0163750Y0088325D01*
X0163750Y0092262D02*
X0163750Y0096600D01*
X0163028Y0114100D02*
X0158750Y0114100D01*
X0166965Y0114100D02*
X0171243Y0114100D01*
X0175180Y0114100D02*
X0179459Y0114100D01*
X0183396Y0114100D02*
X0187674Y0114100D01*
X0191611Y0114100D02*
X0195889Y0114100D01*
X0227743Y0122435D02*
X0227557Y0123158D01*
X0227357Y0123877D01*
X0227140Y0124592D01*
X0226909Y0125302D01*
X0226663Y0126007D01*
X0226401Y0126706D01*
X0224472Y0114100D02*
X0228750Y0114100D01*
X0220535Y0114100D02*
X0216257Y0114100D01*
X0212320Y0114100D02*
X0208041Y0114100D01*
X0204104Y0114100D02*
X0199826Y0114100D01*
X0220031Y0137215D02*
X0219532Y0137771D01*
X0219021Y0138315D01*
X0218499Y0138849D01*
X0217965Y0139371D01*
X0217421Y0139882D01*
X0216865Y0140381D01*
X0206356Y0146751D02*
X0205657Y0147013D01*
X0204952Y0147259D01*
X0204242Y0147490D01*
X0203527Y0147707D01*
X0202808Y0147907D01*
X0202085Y0148093D01*
X0228464Y0118567D02*
X0228551Y0117825D01*
X0228623Y0117082D01*
X0228678Y0116338D01*
X0228718Y0115592D01*
X0228742Y0114846D01*
X0228750Y0114100D01*
X0223750Y0096600D02*
X0223750Y0092262D01*
X0223750Y0088325D02*
X0223750Y0083987D01*
X0223750Y0080050D02*
X0223750Y0075713D01*
X0223750Y0071776D02*
X0223750Y0067438D01*
X0223750Y0063501D02*
X0223750Y0059163D01*
X0219695Y0059163D01*
X0215758Y0059163D02*
X0211703Y0059163D01*
X0165041Y0094081D02*
X0164620Y0094698D01*
X0164213Y0095323D01*
X0163819Y0095957D01*
X0163439Y0096600D01*
X0163073Y0097250D01*
X0162720Y0097909D01*
X0135504Y0075653D02*
X0131000Y0075653D01*
X0131000Y0074152D02*
X0131000Y0077155D01*
X0134003Y0074152D02*
X0135504Y0075653D01*
X0135504Y0072551D02*
X0131000Y0072551D01*
X0132501Y0071049D01*
X0131000Y0069548D01*
X0135504Y0069548D01*
X0134753Y0067947D02*
X0135504Y0067196D01*
X0135504Y0065695D01*
X0134753Y0064944D01*
X0134003Y0064944D01*
X0133252Y0065695D01*
X0133252Y0067196D01*
X0132501Y0067947D01*
X0131751Y0067947D01*
X0131000Y0067196D01*
X0131000Y0065695D01*
X0131751Y0064944D01*
X0123750Y0071600D02*
X0118750Y0071600D01*
X0121250Y0069100D02*
X0121250Y0074100D01*
X0159757Y0122435D02*
X0159943Y0123158D01*
X0160143Y0123877D01*
X0160360Y0124592D01*
X0160591Y0125302D01*
X0160837Y0126007D01*
X0161099Y0126706D01*
X0167469Y0137215D02*
X0167968Y0137771D01*
X0168479Y0138315D01*
X0169001Y0138849D01*
X0169535Y0139371D01*
X0170079Y0139882D01*
X0170635Y0140381D01*
X0181144Y0146751D02*
X0181843Y0147013D01*
X0182548Y0147259D01*
X0183258Y0147490D01*
X0183973Y0147707D01*
X0184692Y0147907D01*
X0185415Y0148093D01*
X0159036Y0118567D02*
X0158949Y0117825D01*
X0158877Y0117082D01*
X0158822Y0116338D01*
X0158782Y0115592D01*
X0158758Y0114846D01*
X0158750Y0114100D01*
X0189283Y0148814D02*
X0190025Y0148901D01*
X0190768Y0148973D01*
X0191512Y0149028D01*
X0192258Y0149068D01*
X0193004Y0149092D01*
X0193750Y0149100D01*
X0209941Y0145130D02*
X0210599Y0144777D01*
X0211250Y0144411D01*
X0211892Y0144031D01*
X0212527Y0143637D01*
X0213152Y0143230D01*
X0213769Y0142809D01*
X0198217Y0148814D02*
X0197475Y0148901D01*
X0196732Y0148973D01*
X0195988Y0149028D01*
X0195242Y0149068D01*
X0194496Y0149092D01*
X0193750Y0149100D01*
X0177559Y0145130D02*
X0176901Y0144777D01*
X0176250Y0144411D01*
X0175608Y0144031D01*
X0174973Y0143637D01*
X0174348Y0143230D01*
X0173731Y0142809D01*
X0165041Y0134119D02*
X0164620Y0133502D01*
X0164213Y0132877D01*
X0163819Y0132242D01*
X0163439Y0131600D01*
X0163073Y0130949D01*
X0162720Y0130291D01*
X0159757Y0105764D02*
X0159943Y0105041D01*
X0160144Y0104322D01*
X0160360Y0103608D01*
X0160591Y0102898D01*
X0160838Y0102193D01*
X0161099Y0101494D01*
X0222459Y0094081D02*
X0222880Y0094698D01*
X0223287Y0095323D01*
X0223681Y0095957D01*
X0224061Y0096600D01*
X0224427Y0097250D01*
X0224780Y0097909D01*
X0224780Y0130291D02*
X0224427Y0130949D01*
X0224061Y0131600D01*
X0223681Y0132242D01*
X0223287Y0132877D01*
X0222880Y0133502D01*
X0222459Y0134119D01*
X0158750Y0114100D02*
X0158758Y0113353D01*
X0158782Y0112607D01*
X0158822Y0111862D01*
X0158877Y0111117D01*
X0158949Y0110374D01*
X0159036Y0109633D01*
X0193750Y0079100D02*
X0194497Y0079108D01*
X0195243Y0079132D01*
X0195988Y0079172D01*
X0196733Y0079227D01*
X0197476Y0079299D01*
X0198217Y0079386D01*
X0170635Y0087819D02*
X0170079Y0088318D01*
X0169535Y0088829D01*
X0169001Y0089351D01*
X0168479Y0089885D01*
X0167968Y0090429D01*
X0167469Y0090985D01*
X0216865Y0087819D02*
X0217421Y0088318D01*
X0217965Y0088829D01*
X0218499Y0089351D01*
X0219021Y0089885D01*
X0219532Y0090429D01*
X0220031Y0090985D01*
X0193750Y0079100D02*
X0193003Y0079108D01*
X0192257Y0079132D01*
X0191512Y0079172D01*
X0190767Y0079227D01*
X0190024Y0079299D01*
X0189283Y0079386D01*
X0190215Y0114100D02*
X0190217Y0114219D01*
X0190223Y0114337D01*
X0190233Y0114456D01*
X0190247Y0114574D01*
X0190265Y0114691D01*
X0190287Y0114808D01*
X0190312Y0114924D01*
X0190342Y0115039D01*
X0190375Y0115153D01*
X0190413Y0115266D01*
X0190454Y0115377D01*
X0190498Y0115487D01*
X0190547Y0115595D01*
X0190599Y0115702D01*
X0190655Y0115807D01*
X0190714Y0115910D01*
X0190776Y0116011D01*
X0190842Y0116110D01*
X0190911Y0116207D01*
X0190984Y0116301D01*
X0191059Y0116392D01*
X0191138Y0116482D01*
X0191219Y0116568D01*
X0191303Y0116652D01*
X0191391Y0116732D01*
X0191480Y0116810D01*
X0191573Y0116885D01*
X0191667Y0116956D01*
X0191765Y0117025D01*
X0191864Y0117090D01*
X0191965Y0117151D01*
X0192069Y0117210D01*
X0192174Y0117264D01*
X0192282Y0117316D01*
X0192390Y0117363D01*
X0192501Y0117407D01*
X0192613Y0117447D01*
X0192726Y0117483D01*
X0192840Y0117516D01*
X0192955Y0117544D01*
X0193071Y0117569D01*
X0193188Y0117590D01*
X0193306Y0117607D01*
X0193424Y0117620D01*
X0193542Y0117629D01*
X0193661Y0117634D01*
X0193780Y0117635D01*
X0193898Y0117632D01*
X0194017Y0117625D01*
X0194135Y0117614D01*
X0194253Y0117599D01*
X0194370Y0117580D01*
X0194487Y0117557D01*
X0194603Y0117531D01*
X0194717Y0117500D01*
X0194831Y0117466D01*
X0194944Y0117427D01*
X0195055Y0117385D01*
X0195164Y0117340D01*
X0195272Y0117290D01*
X0195379Y0117237D01*
X0195483Y0117181D01*
X0195586Y0117121D01*
X0195686Y0117058D01*
X0195784Y0116991D01*
X0195880Y0116921D01*
X0195974Y0116848D01*
X0196065Y0116772D01*
X0196153Y0116692D01*
X0196239Y0116610D01*
X0196322Y0116525D01*
X0196402Y0116437D01*
X0196479Y0116347D01*
X0196553Y0116254D01*
X0196624Y0116159D01*
X0196691Y0116061D01*
X0196756Y0115961D01*
X0196816Y0115859D01*
X0196874Y0115755D01*
X0196928Y0115649D01*
X0196978Y0115541D01*
X0197024Y0115432D01*
X0197067Y0115321D01*
X0197106Y0115209D01*
X0197142Y0115096D01*
X0197173Y0114981D01*
X0197201Y0114866D01*
X0197225Y0114750D01*
X0197245Y0114632D01*
X0197261Y0114515D01*
X0197273Y0114397D01*
X0197281Y0114278D01*
X0197285Y0114159D01*
X0197285Y0114041D01*
X0197281Y0113922D01*
X0197273Y0113803D01*
X0197261Y0113685D01*
X0197245Y0113568D01*
X0197225Y0113450D01*
X0197201Y0113334D01*
X0197173Y0113219D01*
X0197142Y0113104D01*
X0197106Y0112991D01*
X0197067Y0112879D01*
X0197024Y0112768D01*
X0196978Y0112659D01*
X0196928Y0112551D01*
X0196874Y0112445D01*
X0196816Y0112341D01*
X0196756Y0112239D01*
X0196691Y0112139D01*
X0196624Y0112041D01*
X0196553Y0111946D01*
X0196479Y0111853D01*
X0196402Y0111763D01*
X0196322Y0111675D01*
X0196239Y0111590D01*
X0196153Y0111508D01*
X0196065Y0111428D01*
X0195974Y0111352D01*
X0195880Y0111279D01*
X0195784Y0111209D01*
X0195686Y0111142D01*
X0195586Y0111079D01*
X0195483Y0111019D01*
X0195379Y0110963D01*
X0195272Y0110910D01*
X0195164Y0110860D01*
X0195055Y0110815D01*
X0194944Y0110773D01*
X0194831Y0110734D01*
X0194717Y0110700D01*
X0194603Y0110669D01*
X0194487Y0110643D01*
X0194370Y0110620D01*
X0194253Y0110601D01*
X0194135Y0110586D01*
X0194017Y0110575D01*
X0193898Y0110568D01*
X0193780Y0110565D01*
X0193661Y0110566D01*
X0193542Y0110571D01*
X0193424Y0110580D01*
X0193306Y0110593D01*
X0193188Y0110610D01*
X0193071Y0110631D01*
X0192955Y0110656D01*
X0192840Y0110684D01*
X0192726Y0110717D01*
X0192613Y0110753D01*
X0192501Y0110793D01*
X0192390Y0110837D01*
X0192282Y0110884D01*
X0192174Y0110936D01*
X0192069Y0110990D01*
X0191965Y0111049D01*
X0191864Y0111110D01*
X0191765Y0111175D01*
X0191667Y0111244D01*
X0191573Y0111315D01*
X0191480Y0111390D01*
X0191391Y0111468D01*
X0191303Y0111548D01*
X0191219Y0111632D01*
X0191138Y0111718D01*
X0191059Y0111808D01*
X0190984Y0111899D01*
X0190911Y0111993D01*
X0190842Y0112090D01*
X0190776Y0112189D01*
X0190714Y0112290D01*
X0190655Y0112393D01*
X0190599Y0112498D01*
X0190547Y0112605D01*
X0190498Y0112713D01*
X0190454Y0112823D01*
X0190413Y0112934D01*
X0190375Y0113047D01*
X0190342Y0113161D01*
X0190312Y0113276D01*
X0190287Y0113392D01*
X0190265Y0113509D01*
X0190247Y0113626D01*
X0190233Y0113744D01*
X0190223Y0113863D01*
X0190217Y0113981D01*
X0190215Y0114100D01*
X0228464Y0109633D02*
X0228551Y0110374D01*
X0228623Y0111117D01*
X0228678Y0111862D01*
X0228718Y0112607D01*
X0228742Y0113353D01*
X0228750Y0114100D01*
X0227743Y0105764D02*
X0227557Y0105041D01*
X0227356Y0104322D01*
X0227140Y0103608D01*
X0226909Y0102898D01*
X0226662Y0102193D01*
X0226401Y0101494D01*
X0177559Y0083070D02*
X0176900Y0083423D01*
X0176250Y0083789D01*
X0175607Y0084169D01*
X0174973Y0084563D01*
X0174348Y0084970D01*
X0173731Y0085391D01*
X0209941Y0083070D02*
X0210600Y0083423D01*
X0211250Y0083789D01*
X0211893Y0084169D01*
X0212527Y0084563D01*
X0213152Y0084970D01*
X0213769Y0085391D01*
X0079780Y0130291D02*
X0079427Y0130949D01*
X0079061Y0131600D01*
X0078681Y0132242D01*
X0078287Y0132877D01*
X0077880Y0133502D01*
X0077459Y0134119D01*
X0061356Y0146751D02*
X0060657Y0147013D01*
X0059952Y0147259D01*
X0059242Y0147490D01*
X0058527Y0147707D01*
X0057808Y0147907D01*
X0057085Y0148093D01*
X0083464Y0118567D02*
X0083551Y0117825D01*
X0083623Y0117082D01*
X0083678Y0116338D01*
X0083718Y0115592D01*
X0083742Y0114846D01*
X0083750Y0114100D01*
X0053217Y0148814D02*
X0052475Y0148901D01*
X0051732Y0148973D01*
X0050988Y0149028D01*
X0050242Y0149068D01*
X0049496Y0149092D01*
X0048750Y0149100D01*
X0040415Y0148093D02*
X0039692Y0147907D01*
X0038973Y0147707D01*
X0038258Y0147490D01*
X0037548Y0147259D01*
X0036843Y0147013D01*
X0036144Y0146751D01*
X0044283Y0148814D02*
X0045025Y0148901D01*
X0045768Y0148973D01*
X0046512Y0149028D01*
X0047258Y0149068D01*
X0048004Y0149092D01*
X0048750Y0149100D01*
X0064941Y0145130D02*
X0065599Y0144777D01*
X0066250Y0144411D01*
X0066892Y0144031D01*
X0067527Y0143637D01*
X0068152Y0143230D01*
X0068769Y0142809D01*
X0032559Y0145130D02*
X0031901Y0144777D01*
X0031250Y0144411D01*
X0030608Y0144031D01*
X0029973Y0143637D01*
X0029348Y0143230D01*
X0028731Y0142809D01*
X0014036Y0118567D02*
X0013949Y0117825D01*
X0013877Y0117082D01*
X0013822Y0116338D01*
X0013782Y0115592D01*
X0013758Y0114846D01*
X0013750Y0114100D01*
X0017720Y0130291D02*
X0018073Y0130949D01*
X0018439Y0131600D01*
X0018819Y0132242D01*
X0019213Y0132877D01*
X0019620Y0133502D01*
X0020041Y0134119D01*
X0014757Y0105764D02*
X0014943Y0105041D01*
X0015144Y0104322D01*
X0015360Y0103608D01*
X0015591Y0102898D01*
X0015838Y0102193D01*
X0016099Y0101494D01*
X0048750Y0079100D02*
X0049497Y0079108D01*
X0050243Y0079132D01*
X0050988Y0079172D01*
X0051733Y0079227D01*
X0052476Y0079299D01*
X0053217Y0079386D01*
X0025635Y0087819D02*
X0025079Y0088318D01*
X0024535Y0088829D01*
X0024001Y0089351D01*
X0023479Y0089885D01*
X0022968Y0090429D01*
X0022469Y0090985D01*
X0071865Y0087819D02*
X0072421Y0088318D01*
X0072965Y0088829D01*
X0073499Y0089351D01*
X0074021Y0089885D01*
X0074532Y0090429D01*
X0075031Y0090985D01*
X0048750Y0079100D02*
X0048003Y0079108D01*
X0047257Y0079132D01*
X0046512Y0079172D01*
X0045767Y0079227D01*
X0045024Y0079299D01*
X0044283Y0079386D01*
X0045215Y0114100D02*
X0045217Y0114219D01*
X0045223Y0114337D01*
X0045233Y0114456D01*
X0045247Y0114574D01*
X0045265Y0114691D01*
X0045287Y0114808D01*
X0045312Y0114924D01*
X0045342Y0115039D01*
X0045375Y0115153D01*
X0045413Y0115266D01*
X0045454Y0115377D01*
X0045498Y0115487D01*
X0045547Y0115595D01*
X0045599Y0115702D01*
X0045655Y0115807D01*
X0045714Y0115910D01*
X0045776Y0116011D01*
X0045842Y0116110D01*
X0045911Y0116207D01*
X0045984Y0116301D01*
X0046059Y0116392D01*
X0046138Y0116482D01*
X0046219Y0116568D01*
X0046303Y0116652D01*
X0046391Y0116732D01*
X0046480Y0116810D01*
X0046573Y0116885D01*
X0046667Y0116956D01*
X0046765Y0117025D01*
X0046864Y0117090D01*
X0046965Y0117151D01*
X0047069Y0117210D01*
X0047174Y0117264D01*
X0047282Y0117316D01*
X0047390Y0117363D01*
X0047501Y0117407D01*
X0047613Y0117447D01*
X0047726Y0117483D01*
X0047840Y0117516D01*
X0047955Y0117544D01*
X0048071Y0117569D01*
X0048188Y0117590D01*
X0048306Y0117607D01*
X0048424Y0117620D01*
X0048542Y0117629D01*
X0048661Y0117634D01*
X0048780Y0117635D01*
X0048898Y0117632D01*
X0049017Y0117625D01*
X0049135Y0117614D01*
X0049253Y0117599D01*
X0049370Y0117580D01*
X0049487Y0117557D01*
X0049603Y0117531D01*
X0049717Y0117500D01*
X0049831Y0117466D01*
X0049944Y0117427D01*
X0050055Y0117385D01*
X0050164Y0117340D01*
X0050272Y0117290D01*
X0050379Y0117237D01*
X0050483Y0117181D01*
X0050586Y0117121D01*
X0050686Y0117058D01*
X0050784Y0116991D01*
X0050880Y0116921D01*
X0050974Y0116848D01*
X0051065Y0116772D01*
X0051153Y0116692D01*
X0051239Y0116610D01*
X0051322Y0116525D01*
X0051402Y0116437D01*
X0051479Y0116347D01*
X0051553Y0116254D01*
X0051624Y0116159D01*
X0051691Y0116061D01*
X0051756Y0115961D01*
X0051816Y0115859D01*
X0051874Y0115755D01*
X0051928Y0115649D01*
X0051978Y0115541D01*
X0052024Y0115432D01*
X0052067Y0115321D01*
X0052106Y0115209D01*
X0052142Y0115096D01*
X0052173Y0114981D01*
X0052201Y0114866D01*
X0052225Y0114750D01*
X0052245Y0114632D01*
X0052261Y0114515D01*
X0052273Y0114397D01*
X0052281Y0114278D01*
X0052285Y0114159D01*
X0052285Y0114041D01*
X0052281Y0113922D01*
X0052273Y0113803D01*
X0052261Y0113685D01*
X0052245Y0113568D01*
X0052225Y0113450D01*
X0052201Y0113334D01*
X0052173Y0113219D01*
X0052142Y0113104D01*
X0052106Y0112991D01*
X0052067Y0112879D01*
X0052024Y0112768D01*
X0051978Y0112659D01*
X0051928Y0112551D01*
X0051874Y0112445D01*
X0051816Y0112341D01*
X0051756Y0112239D01*
X0051691Y0112139D01*
X0051624Y0112041D01*
X0051553Y0111946D01*
X0051479Y0111853D01*
X0051402Y0111763D01*
X0051322Y0111675D01*
X0051239Y0111590D01*
X0051153Y0111508D01*
X0051065Y0111428D01*
X0050974Y0111352D01*
X0050880Y0111279D01*
X0050784Y0111209D01*
X0050686Y0111142D01*
X0050586Y0111079D01*
X0050483Y0111019D01*
X0050379Y0110963D01*
X0050272Y0110910D01*
X0050164Y0110860D01*
X0050055Y0110815D01*
X0049944Y0110773D01*
X0049831Y0110734D01*
X0049717Y0110700D01*
X0049603Y0110669D01*
X0049487Y0110643D01*
X0049370Y0110620D01*
X0049253Y0110601D01*
X0049135Y0110586D01*
X0049017Y0110575D01*
X0048898Y0110568D01*
X0048780Y0110565D01*
X0048661Y0110566D01*
X0048542Y0110571D01*
X0048424Y0110580D01*
X0048306Y0110593D01*
X0048188Y0110610D01*
X0048071Y0110631D01*
X0047955Y0110656D01*
X0047840Y0110684D01*
X0047726Y0110717D01*
X0047613Y0110753D01*
X0047501Y0110793D01*
X0047390Y0110837D01*
X0047282Y0110884D01*
X0047174Y0110936D01*
X0047069Y0110990D01*
X0046965Y0111049D01*
X0046864Y0111110D01*
X0046765Y0111175D01*
X0046667Y0111244D01*
X0046573Y0111315D01*
X0046480Y0111390D01*
X0046391Y0111468D01*
X0046303Y0111548D01*
X0046219Y0111632D01*
X0046138Y0111718D01*
X0046059Y0111808D01*
X0045984Y0111899D01*
X0045911Y0111993D01*
X0045842Y0112090D01*
X0045776Y0112189D01*
X0045714Y0112290D01*
X0045655Y0112393D01*
X0045599Y0112498D01*
X0045547Y0112605D01*
X0045498Y0112713D01*
X0045454Y0112823D01*
X0045413Y0112934D01*
X0045375Y0113047D01*
X0045342Y0113161D01*
X0045312Y0113276D01*
X0045287Y0113392D01*
X0045265Y0113509D01*
X0045247Y0113626D01*
X0045233Y0113744D01*
X0045223Y0113863D01*
X0045217Y0113981D01*
X0045215Y0114100D01*
X0083464Y0109633D02*
X0083551Y0110374D01*
X0083623Y0111117D01*
X0083678Y0111862D01*
X0083718Y0112607D01*
X0083742Y0113353D01*
X0083750Y0114100D01*
X0014036Y0109633D02*
X0013949Y0110374D01*
X0013877Y0111117D01*
X0013822Y0111862D01*
X0013782Y0112607D01*
X0013758Y0113353D01*
X0013750Y0114100D01*
X0064941Y0083070D02*
X0065600Y0083423D01*
X0066250Y0083789D01*
X0066893Y0084169D01*
X0067527Y0084563D01*
X0068152Y0084970D01*
X0068769Y0085391D01*
X0032559Y0083070D02*
X0031900Y0083423D01*
X0031250Y0083789D01*
X0030607Y0084169D01*
X0029973Y0084563D01*
X0029348Y0084970D01*
X0028731Y0085391D01*
X0081401Y0101494D02*
X0081662Y0102193D01*
X0081909Y0102898D01*
X0082140Y0103608D01*
X0082356Y0104322D01*
X0082557Y0105041D01*
X0082743Y0105764D01*
D11*
X0112250Y0096600D02*
X0112250Y0046600D01*
X0112350Y0046600D02*
X0130250Y0046600D01*
X0130250Y0096600D01*
X0112275Y0096600D01*
X0059960Y0068570D02*
X0059960Y0067836D01*
X0059226Y0067102D01*
X0057758Y0067102D01*
X0057024Y0066368D01*
X0057024Y0065634D01*
X0057758Y0064900D01*
X0059226Y0064900D01*
X0059960Y0065634D01*
X0059960Y0068570D02*
X0059226Y0069304D01*
X0057758Y0069304D01*
X0057024Y0068570D01*
X0055356Y0069304D02*
X0055356Y0064900D01*
X0053888Y0066368D01*
X0052420Y0064900D01*
X0052420Y0069304D01*
X0050752Y0069304D02*
X0050752Y0064900D01*
X0047816Y0064900D01*
X0046148Y0064900D02*
X0043212Y0064900D01*
X0041544Y0064900D02*
X0041544Y0069304D01*
X0039342Y0069304D01*
X0038608Y0068570D01*
X0038608Y0067102D01*
X0039342Y0066368D01*
X0041544Y0066368D01*
X0044680Y0067102D02*
X0046148Y0067102D01*
X0046148Y0069304D02*
X0046148Y0064900D01*
X0049284Y0067102D02*
X0050752Y0067102D01*
X0050752Y0069304D02*
X0047816Y0069304D01*
X0046148Y0069304D02*
X0043212Y0069304D01*
X0044613Y0181400D02*
X0044613Y0185804D01*
X0041678Y0181400D01*
X0041678Y0185804D01*
X0046215Y0185804D02*
X0047683Y0185804D01*
X0046949Y0185804D02*
X0046949Y0181400D01*
X0047683Y0181400D02*
X0046215Y0181400D01*
X0049351Y0181400D02*
X0049351Y0184336D01*
X0050819Y0185804D01*
X0052287Y0184336D01*
X0052287Y0181400D01*
X0053955Y0182134D02*
X0053955Y0183602D01*
X0055423Y0183602D01*
X0056891Y0185070D02*
X0056891Y0182134D01*
X0056157Y0181400D01*
X0054689Y0181400D01*
X0053955Y0182134D01*
X0052287Y0183602D02*
X0049351Y0183602D01*
X0053955Y0185070D02*
X0054689Y0185804D01*
X0056157Y0185804D01*
X0056891Y0185070D01*
X0185910Y0069304D02*
X0188846Y0069304D01*
X0188846Y0064900D01*
X0185910Y0064900D01*
X0187378Y0067102D02*
X0188846Y0067102D01*
X0190514Y0064900D02*
X0190514Y0069304D01*
X0193450Y0069304D02*
X0190514Y0064900D01*
X0193450Y0064900D02*
X0193450Y0069304D01*
X0195118Y0068570D02*
X0195118Y0065634D01*
X0195852Y0064900D01*
X0197320Y0064900D01*
X0198054Y0065634D01*
X0198054Y0068570D01*
X0197320Y0069304D01*
X0195852Y0069304D01*
X0195118Y0068570D01*
X0199722Y0069304D02*
X0202658Y0069304D01*
X0201190Y0069304D02*
X0201190Y0064900D01*
X0198888Y0181400D02*
X0197420Y0182868D01*
X0197420Y0185804D01*
X0195752Y0185070D02*
X0195752Y0182134D01*
X0195018Y0181400D01*
X0193550Y0181400D01*
X0192816Y0182134D01*
X0192816Y0185070D01*
X0193550Y0185804D01*
X0195018Y0185804D01*
X0195752Y0185070D01*
X0198888Y0181400D02*
X0200356Y0182868D01*
X0200356Y0185804D01*
X0191148Y0185804D02*
X0191148Y0181400D01*
X0188212Y0181400D01*
D12*
X0138717Y0233163D02*
X0138717Y0235919D01*
X0138700Y0235900D02*
X0138700Y0255275D01*
X0138717Y0254423D02*
X0138717Y0275289D01*
X0103283Y0275289D01*
X0103283Y0233163D01*
X0111551Y0233163D01*
X0130449Y0233163D02*
X0138717Y0233163D01*
D13*
X0237283Y0006600D02*
X0005000Y0006600D01*
X0005000Y0259631D01*
X0026654Y0259631D01*
X0026654Y0287191D01*
X0215630Y0287191D01*
X0215630Y0259631D01*
X0237283Y0259631D01*
X0237283Y0006600D01*
M02*
