G75*
%MOIN*%
%OFA0B0*%
%FSLAX25Y25*%
%IPPOS*%
%LPD*%
%AMOC8*
5,1,8,0,0,1.08239X$1,22.5*
%
%ADD10C,0.00500*%
%ADD11C,0.00600*%
%ADD12C,0.00800*%
%ADD13C,0.00000*%
D10*
X0019100Y0055413D02*
X0023155Y0055413D01*
X0027092Y0055413D02*
X0031147Y0055413D01*
X0035084Y0055413D02*
X0039139Y0055413D01*
X0043076Y0055413D02*
X0047131Y0055413D01*
X0051069Y0055413D02*
X0055124Y0055413D01*
X0059061Y0055413D02*
X0063116Y0055413D01*
X0067053Y0055413D02*
X0071108Y0055413D01*
X0075045Y0055413D02*
X0079100Y0055413D01*
X0079100Y0059751D01*
X0079100Y0063688D02*
X0079100Y0068026D01*
X0079100Y0071963D02*
X0079100Y0076300D01*
X0079100Y0080237D02*
X0079100Y0084575D01*
X0079100Y0088512D02*
X0079100Y0092850D01*
X0079822Y0110350D02*
X0084100Y0110350D01*
X0075885Y0110350D02*
X0071607Y0110350D01*
X0067670Y0110350D02*
X0063391Y0110350D01*
X0059454Y0110350D02*
X0055176Y0110350D01*
X0051239Y0110350D02*
X0046961Y0110350D01*
X0015107Y0118685D02*
X0015293Y0119408D01*
X0015493Y0120127D01*
X0015710Y0120842D01*
X0015941Y0121552D01*
X0016187Y0122257D01*
X0016449Y0122956D01*
X0018378Y0110350D02*
X0014100Y0110350D01*
X0022315Y0110350D02*
X0026593Y0110350D01*
X0030530Y0110350D02*
X0034809Y0110350D01*
X0038746Y0110350D02*
X0043024Y0110350D01*
X0022819Y0133465D02*
X0023318Y0134021D01*
X0023829Y0134565D01*
X0024351Y0135099D01*
X0024885Y0135621D01*
X0025429Y0136132D01*
X0025985Y0136631D01*
X0049100Y0137135D02*
X0049100Y0132857D01*
X0049100Y0128920D02*
X0049100Y0124641D01*
X0049100Y0120704D02*
X0049100Y0116426D01*
X0049100Y0112489D02*
X0049100Y0108211D01*
X0040764Y0076357D02*
X0040041Y0076543D01*
X0039322Y0076744D01*
X0038608Y0076960D01*
X0037898Y0077191D01*
X0037193Y0077438D01*
X0036494Y0077699D01*
X0049100Y0079628D02*
X0049100Y0075350D01*
X0049100Y0083565D02*
X0049100Y0087843D01*
X0049100Y0091780D02*
X0049100Y0096059D01*
X0049100Y0099996D02*
X0049100Y0104274D01*
X0057436Y0076357D02*
X0058159Y0076543D01*
X0058878Y0076744D01*
X0059592Y0076960D01*
X0060302Y0077191D01*
X0061007Y0077438D01*
X0061706Y0077699D01*
X0020391Y0090331D02*
X0019970Y0090948D01*
X0019563Y0091573D01*
X0019169Y0092207D01*
X0018789Y0092850D01*
X0018423Y0093500D01*
X0018070Y0094159D01*
X0019100Y0092850D02*
X0019100Y0088512D01*
X0019100Y0084575D02*
X0019100Y0080237D01*
X0019100Y0076300D02*
X0019100Y0071963D01*
X0019100Y0068026D02*
X0019100Y0063688D01*
X0019100Y0059751D02*
X0019100Y0055413D01*
X0077809Y0090331D02*
X0078230Y0090948D01*
X0078637Y0091573D01*
X0079031Y0092207D01*
X0079411Y0092850D01*
X0079777Y0093500D01*
X0080130Y0094159D01*
X0083093Y0118685D02*
X0082907Y0119408D01*
X0082707Y0120127D01*
X0082490Y0120842D01*
X0082259Y0121552D01*
X0082013Y0122257D01*
X0081751Y0122956D01*
X0075381Y0133465D02*
X0074882Y0134021D01*
X0074371Y0134565D01*
X0073849Y0135099D01*
X0073315Y0135621D01*
X0072771Y0136132D01*
X0072215Y0136631D01*
X0049100Y0141072D02*
X0049100Y0145350D01*
X0047131Y0175663D02*
X0043076Y0175663D01*
X0039139Y0175663D02*
X0035084Y0175663D01*
X0031147Y0175663D02*
X0027092Y0175663D01*
X0023155Y0175663D02*
X0019100Y0175663D01*
X0019100Y0180001D01*
X0019100Y0183938D02*
X0019100Y0188276D01*
X0019100Y0192213D02*
X0019100Y0196550D01*
X0019100Y0200487D02*
X0019100Y0204825D01*
X0019100Y0208762D02*
X0019100Y0213100D01*
X0018378Y0230600D02*
X0014100Y0230600D01*
X0022315Y0230600D02*
X0026593Y0230600D01*
X0030530Y0230600D02*
X0034809Y0230600D01*
X0038746Y0230600D02*
X0043024Y0230600D01*
X0046961Y0230600D02*
X0051239Y0230600D01*
X0083093Y0238935D02*
X0082907Y0239658D01*
X0082707Y0240377D01*
X0082490Y0241092D01*
X0082259Y0241802D01*
X0082013Y0242507D01*
X0081751Y0243206D01*
X0079822Y0230600D02*
X0084100Y0230600D01*
X0075885Y0230600D02*
X0071607Y0230600D01*
X0067670Y0230600D02*
X0063391Y0230600D01*
X0059454Y0230600D02*
X0055176Y0230600D01*
X0075381Y0253715D02*
X0074882Y0254271D01*
X0074371Y0254815D01*
X0073849Y0255349D01*
X0073315Y0255871D01*
X0072771Y0256382D01*
X0072215Y0256881D01*
X0049100Y0257385D02*
X0049100Y0253107D01*
X0049100Y0249170D02*
X0049100Y0244891D01*
X0049100Y0240954D02*
X0049100Y0236676D01*
X0049100Y0232739D02*
X0049100Y0228461D01*
X0040764Y0196607D02*
X0040041Y0196793D01*
X0039322Y0196994D01*
X0038608Y0197210D01*
X0037898Y0197441D01*
X0037193Y0197688D01*
X0036494Y0197949D01*
X0049100Y0199878D02*
X0049100Y0195600D01*
X0049100Y0203815D02*
X0049100Y0208093D01*
X0049100Y0212030D02*
X0049100Y0216309D01*
X0049100Y0220246D02*
X0049100Y0224524D01*
X0057436Y0196607D02*
X0058159Y0196793D01*
X0058878Y0196994D01*
X0059592Y0197210D01*
X0060302Y0197441D01*
X0061007Y0197688D01*
X0061706Y0197949D01*
X0079100Y0196550D02*
X0079100Y0192213D01*
X0079100Y0188276D02*
X0079100Y0183938D01*
X0079100Y0180001D02*
X0079100Y0175663D01*
X0075045Y0175663D01*
X0071108Y0175663D02*
X0067053Y0175663D01*
X0063116Y0175663D02*
X0059061Y0175663D01*
X0055124Y0175663D02*
X0051069Y0175663D01*
X0079100Y0200487D02*
X0079100Y0204825D01*
X0079100Y0208762D02*
X0079100Y0213100D01*
X0080130Y0246791D02*
X0079777Y0247449D01*
X0079411Y0248100D01*
X0079031Y0248742D01*
X0078637Y0249377D01*
X0078230Y0250002D01*
X0077809Y0250619D01*
X0049100Y0261322D02*
X0049100Y0265600D01*
X0057435Y0264593D02*
X0058158Y0264407D01*
X0058877Y0264207D01*
X0059592Y0263990D01*
X0060302Y0263759D01*
X0061007Y0263513D01*
X0061706Y0263251D01*
X0083814Y0235067D02*
X0083901Y0234325D01*
X0083973Y0233582D01*
X0084028Y0232838D01*
X0084068Y0232092D01*
X0084092Y0231346D01*
X0084100Y0230600D01*
X0053567Y0265314D02*
X0052825Y0265401D01*
X0052082Y0265473D01*
X0051338Y0265528D01*
X0050592Y0265568D01*
X0049846Y0265592D01*
X0049100Y0265600D01*
X0040765Y0264593D02*
X0040042Y0264407D01*
X0039323Y0264207D01*
X0038608Y0263990D01*
X0037898Y0263759D01*
X0037193Y0263513D01*
X0036494Y0263251D01*
X0025985Y0256881D02*
X0025429Y0256382D01*
X0024885Y0255871D01*
X0024351Y0255349D01*
X0023829Y0254815D01*
X0023318Y0254271D01*
X0022819Y0253715D01*
X0016449Y0243206D02*
X0016187Y0242507D01*
X0015941Y0241802D01*
X0015710Y0241092D01*
X0015493Y0240377D01*
X0015293Y0239658D01*
X0015107Y0238935D01*
X0044633Y0265314D02*
X0045375Y0265401D01*
X0046118Y0265473D01*
X0046862Y0265528D01*
X0047608Y0265568D01*
X0048354Y0265592D01*
X0049100Y0265600D01*
X0065291Y0261630D02*
X0065949Y0261277D01*
X0066600Y0260911D01*
X0067242Y0260531D01*
X0067877Y0260137D01*
X0068502Y0259730D01*
X0069119Y0259309D01*
X0032909Y0261630D02*
X0032251Y0261277D01*
X0031600Y0260911D01*
X0030958Y0260531D01*
X0030323Y0260137D01*
X0029698Y0259730D01*
X0029081Y0259309D01*
X0014386Y0235067D02*
X0014299Y0234325D01*
X0014227Y0233582D01*
X0014172Y0232838D01*
X0014132Y0232092D01*
X0014108Y0231346D01*
X0014100Y0230600D01*
X0018070Y0246791D02*
X0018423Y0247449D01*
X0018789Y0248100D01*
X0019169Y0248742D01*
X0019563Y0249377D01*
X0019970Y0250002D01*
X0020391Y0250619D01*
X0015107Y0222264D02*
X0015293Y0221541D01*
X0015494Y0220822D01*
X0015710Y0220108D01*
X0015941Y0219398D01*
X0016188Y0218693D01*
X0016449Y0217994D01*
X0077809Y0210581D02*
X0078230Y0211198D01*
X0078637Y0211823D01*
X0079031Y0212457D01*
X0079411Y0213100D01*
X0079777Y0213750D01*
X0080130Y0214409D01*
X0020391Y0210581D02*
X0019970Y0211198D01*
X0019563Y0211823D01*
X0019169Y0212457D01*
X0018789Y0213100D01*
X0018423Y0213750D01*
X0018070Y0214409D01*
X0049100Y0195600D02*
X0049847Y0195608D01*
X0050593Y0195632D01*
X0051338Y0195672D01*
X0052083Y0195727D01*
X0052826Y0195799D01*
X0053567Y0195886D01*
X0025985Y0204319D02*
X0025429Y0204818D01*
X0024885Y0205329D01*
X0024351Y0205851D01*
X0023829Y0206385D01*
X0023318Y0206929D01*
X0022819Y0207485D01*
X0072215Y0204319D02*
X0072771Y0204818D01*
X0073315Y0205329D01*
X0073849Y0205851D01*
X0074371Y0206385D01*
X0074882Y0206929D01*
X0075381Y0207485D01*
X0049100Y0195600D02*
X0048353Y0195608D01*
X0047607Y0195632D01*
X0046862Y0195672D01*
X0046117Y0195727D01*
X0045374Y0195799D01*
X0044633Y0195886D01*
X0045565Y0230600D02*
X0045567Y0230719D01*
X0045573Y0230837D01*
X0045583Y0230956D01*
X0045597Y0231074D01*
X0045615Y0231191D01*
X0045637Y0231308D01*
X0045662Y0231424D01*
X0045692Y0231539D01*
X0045725Y0231653D01*
X0045763Y0231766D01*
X0045804Y0231877D01*
X0045848Y0231987D01*
X0045897Y0232095D01*
X0045949Y0232202D01*
X0046005Y0232307D01*
X0046064Y0232410D01*
X0046126Y0232511D01*
X0046192Y0232610D01*
X0046261Y0232707D01*
X0046334Y0232801D01*
X0046409Y0232892D01*
X0046488Y0232982D01*
X0046569Y0233068D01*
X0046653Y0233152D01*
X0046741Y0233232D01*
X0046830Y0233310D01*
X0046923Y0233385D01*
X0047017Y0233456D01*
X0047115Y0233525D01*
X0047214Y0233590D01*
X0047315Y0233651D01*
X0047419Y0233710D01*
X0047524Y0233764D01*
X0047632Y0233816D01*
X0047740Y0233863D01*
X0047851Y0233907D01*
X0047963Y0233947D01*
X0048076Y0233983D01*
X0048190Y0234016D01*
X0048305Y0234044D01*
X0048421Y0234069D01*
X0048538Y0234090D01*
X0048656Y0234107D01*
X0048774Y0234120D01*
X0048892Y0234129D01*
X0049011Y0234134D01*
X0049130Y0234135D01*
X0049248Y0234132D01*
X0049367Y0234125D01*
X0049485Y0234114D01*
X0049603Y0234099D01*
X0049720Y0234080D01*
X0049837Y0234057D01*
X0049953Y0234031D01*
X0050067Y0234000D01*
X0050181Y0233966D01*
X0050294Y0233927D01*
X0050405Y0233885D01*
X0050514Y0233840D01*
X0050622Y0233790D01*
X0050729Y0233737D01*
X0050833Y0233681D01*
X0050936Y0233621D01*
X0051036Y0233558D01*
X0051134Y0233491D01*
X0051230Y0233421D01*
X0051324Y0233348D01*
X0051415Y0233272D01*
X0051503Y0233192D01*
X0051589Y0233110D01*
X0051672Y0233025D01*
X0051752Y0232937D01*
X0051829Y0232847D01*
X0051903Y0232754D01*
X0051974Y0232659D01*
X0052041Y0232561D01*
X0052106Y0232461D01*
X0052166Y0232359D01*
X0052224Y0232255D01*
X0052278Y0232149D01*
X0052328Y0232041D01*
X0052374Y0231932D01*
X0052417Y0231821D01*
X0052456Y0231709D01*
X0052492Y0231596D01*
X0052523Y0231481D01*
X0052551Y0231366D01*
X0052575Y0231250D01*
X0052595Y0231132D01*
X0052611Y0231015D01*
X0052623Y0230897D01*
X0052631Y0230778D01*
X0052635Y0230659D01*
X0052635Y0230541D01*
X0052631Y0230422D01*
X0052623Y0230303D01*
X0052611Y0230185D01*
X0052595Y0230068D01*
X0052575Y0229950D01*
X0052551Y0229834D01*
X0052523Y0229719D01*
X0052492Y0229604D01*
X0052456Y0229491D01*
X0052417Y0229379D01*
X0052374Y0229268D01*
X0052328Y0229159D01*
X0052278Y0229051D01*
X0052224Y0228945D01*
X0052166Y0228841D01*
X0052106Y0228739D01*
X0052041Y0228639D01*
X0051974Y0228541D01*
X0051903Y0228446D01*
X0051829Y0228353D01*
X0051752Y0228263D01*
X0051672Y0228175D01*
X0051589Y0228090D01*
X0051503Y0228008D01*
X0051415Y0227928D01*
X0051324Y0227852D01*
X0051230Y0227779D01*
X0051134Y0227709D01*
X0051036Y0227642D01*
X0050936Y0227579D01*
X0050833Y0227519D01*
X0050729Y0227463D01*
X0050622Y0227410D01*
X0050514Y0227360D01*
X0050405Y0227315D01*
X0050294Y0227273D01*
X0050181Y0227234D01*
X0050067Y0227200D01*
X0049953Y0227169D01*
X0049837Y0227143D01*
X0049720Y0227120D01*
X0049603Y0227101D01*
X0049485Y0227086D01*
X0049367Y0227075D01*
X0049248Y0227068D01*
X0049130Y0227065D01*
X0049011Y0227066D01*
X0048892Y0227071D01*
X0048774Y0227080D01*
X0048656Y0227093D01*
X0048538Y0227110D01*
X0048421Y0227131D01*
X0048305Y0227156D01*
X0048190Y0227184D01*
X0048076Y0227217D01*
X0047963Y0227253D01*
X0047851Y0227293D01*
X0047740Y0227337D01*
X0047632Y0227384D01*
X0047524Y0227436D01*
X0047419Y0227490D01*
X0047315Y0227549D01*
X0047214Y0227610D01*
X0047115Y0227675D01*
X0047017Y0227744D01*
X0046923Y0227815D01*
X0046830Y0227890D01*
X0046741Y0227968D01*
X0046653Y0228048D01*
X0046569Y0228132D01*
X0046488Y0228218D01*
X0046409Y0228308D01*
X0046334Y0228399D01*
X0046261Y0228493D01*
X0046192Y0228590D01*
X0046126Y0228689D01*
X0046064Y0228790D01*
X0046005Y0228893D01*
X0045949Y0228998D01*
X0045897Y0229105D01*
X0045848Y0229213D01*
X0045804Y0229323D01*
X0045763Y0229434D01*
X0045725Y0229547D01*
X0045692Y0229661D01*
X0045662Y0229776D01*
X0045637Y0229892D01*
X0045615Y0230009D01*
X0045597Y0230126D01*
X0045583Y0230244D01*
X0045573Y0230363D01*
X0045567Y0230481D01*
X0045565Y0230600D01*
X0083814Y0226133D02*
X0083901Y0226874D01*
X0083973Y0227617D01*
X0084028Y0228362D01*
X0084068Y0229107D01*
X0084092Y0229853D01*
X0084100Y0230600D01*
X0014386Y0226133D02*
X0014299Y0226874D01*
X0014227Y0227617D01*
X0014172Y0228362D01*
X0014132Y0229107D01*
X0014108Y0229853D01*
X0014100Y0230600D01*
X0065291Y0199570D02*
X0065950Y0199923D01*
X0066600Y0200289D01*
X0067243Y0200669D01*
X0067877Y0201063D01*
X0068502Y0201470D01*
X0069119Y0201891D01*
X0032909Y0199570D02*
X0032250Y0199923D01*
X0031600Y0200289D01*
X0030957Y0200669D01*
X0030323Y0201063D01*
X0029698Y0201470D01*
X0029081Y0201891D01*
X0081751Y0217994D02*
X0082012Y0218693D01*
X0082259Y0219398D01*
X0082490Y0220108D01*
X0082706Y0220822D01*
X0082907Y0221541D01*
X0083093Y0222264D01*
X0116892Y0276775D02*
X0118160Y0276775D01*
X0117526Y0276775D02*
X0117526Y0278677D01*
X0118160Y0278043D01*
X0119102Y0278677D02*
X0119736Y0278677D01*
X0119419Y0278677D02*
X0119419Y0277092D01*
X0119736Y0276775D01*
X0120053Y0276775D01*
X0120370Y0277092D01*
X0159100Y0230600D02*
X0163378Y0230600D01*
X0167315Y0230600D02*
X0171593Y0230600D01*
X0175530Y0230600D02*
X0179809Y0230600D01*
X0183746Y0230600D02*
X0188024Y0230600D01*
X0191961Y0230600D02*
X0196239Y0230600D01*
X0228093Y0238935D02*
X0227907Y0239658D01*
X0227707Y0240377D01*
X0227490Y0241092D01*
X0227259Y0241802D01*
X0227013Y0242507D01*
X0226751Y0243206D01*
X0224822Y0230600D02*
X0229100Y0230600D01*
X0220885Y0230600D02*
X0216607Y0230600D01*
X0212670Y0230600D02*
X0208391Y0230600D01*
X0204454Y0230600D02*
X0200176Y0230600D01*
X0220381Y0253715D02*
X0219882Y0254271D01*
X0219371Y0254815D01*
X0218849Y0255349D01*
X0218315Y0255871D01*
X0217771Y0256382D01*
X0217215Y0256881D01*
X0194100Y0257385D02*
X0194100Y0253107D01*
X0194100Y0249170D02*
X0194100Y0244891D01*
X0194100Y0240954D02*
X0194100Y0236676D01*
X0194100Y0232739D02*
X0194100Y0228461D01*
X0185764Y0196607D02*
X0185041Y0196793D01*
X0184322Y0196994D01*
X0183608Y0197210D01*
X0182898Y0197441D01*
X0182193Y0197688D01*
X0181494Y0197949D01*
X0194100Y0199878D02*
X0194100Y0195600D01*
X0194100Y0203815D02*
X0194100Y0208093D01*
X0194100Y0212030D02*
X0194100Y0216309D01*
X0194100Y0220246D02*
X0194100Y0224524D01*
X0202436Y0196607D02*
X0203159Y0196793D01*
X0203878Y0196994D01*
X0204592Y0197210D01*
X0205302Y0197441D01*
X0206007Y0197688D01*
X0206706Y0197949D01*
X0224100Y0196550D02*
X0224100Y0192213D01*
X0224100Y0188276D02*
X0224100Y0183938D01*
X0224100Y0180001D02*
X0224100Y0175663D01*
X0220045Y0175663D01*
X0216108Y0175663D02*
X0212053Y0175663D01*
X0208116Y0175663D02*
X0204061Y0175663D01*
X0200124Y0175663D02*
X0196069Y0175663D01*
X0192131Y0175663D02*
X0188076Y0175663D01*
X0184139Y0175663D02*
X0180084Y0175663D01*
X0176147Y0175663D02*
X0172092Y0175663D01*
X0168155Y0175663D02*
X0164100Y0175663D01*
X0164100Y0180001D01*
X0164100Y0183938D02*
X0164100Y0188276D01*
X0164100Y0192213D02*
X0164100Y0196550D01*
X0164100Y0200487D02*
X0164100Y0204825D01*
X0164100Y0208762D02*
X0164100Y0213100D01*
X0160107Y0238935D02*
X0160293Y0239658D01*
X0160493Y0240377D01*
X0160710Y0241092D01*
X0160941Y0241802D01*
X0161187Y0242507D01*
X0161449Y0243206D01*
X0167819Y0253715D02*
X0168318Y0254271D01*
X0168829Y0254815D01*
X0169351Y0255349D01*
X0169885Y0255871D01*
X0170429Y0256382D01*
X0170985Y0256881D01*
X0194100Y0261322D02*
X0194100Y0265600D01*
X0202435Y0264593D02*
X0203158Y0264407D01*
X0203877Y0264207D01*
X0204592Y0263990D01*
X0205302Y0263759D01*
X0206007Y0263513D01*
X0206706Y0263251D01*
X0228814Y0235067D02*
X0228901Y0234325D01*
X0228973Y0233582D01*
X0229028Y0232838D01*
X0229068Y0232092D01*
X0229092Y0231346D01*
X0229100Y0230600D01*
X0224100Y0213100D02*
X0224100Y0208762D01*
X0224100Y0204825D02*
X0224100Y0200487D01*
X0165391Y0210581D02*
X0164970Y0211198D01*
X0164563Y0211823D01*
X0164169Y0212457D01*
X0163789Y0213100D01*
X0163423Y0213750D01*
X0163070Y0214409D01*
X0163070Y0246791D02*
X0163423Y0247449D01*
X0163789Y0248100D01*
X0164169Y0248742D01*
X0164563Y0249377D01*
X0164970Y0250002D01*
X0165391Y0250619D01*
X0181494Y0263251D02*
X0182193Y0263513D01*
X0182898Y0263759D01*
X0183608Y0263990D01*
X0184323Y0264207D01*
X0185042Y0264407D01*
X0185765Y0264593D01*
X0159386Y0235067D02*
X0159299Y0234325D01*
X0159227Y0233582D01*
X0159172Y0232838D01*
X0159132Y0232092D01*
X0159108Y0231346D01*
X0159100Y0230600D01*
X0189633Y0265314D02*
X0190375Y0265401D01*
X0191118Y0265473D01*
X0191862Y0265528D01*
X0192608Y0265568D01*
X0193354Y0265592D01*
X0194100Y0265600D01*
X0210291Y0261630D02*
X0210949Y0261277D01*
X0211600Y0260911D01*
X0212242Y0260531D01*
X0212877Y0260137D01*
X0213502Y0259730D01*
X0214119Y0259309D01*
X0198567Y0265314D02*
X0197825Y0265401D01*
X0197082Y0265473D01*
X0196338Y0265528D01*
X0195592Y0265568D01*
X0194846Y0265592D01*
X0194100Y0265600D01*
X0177909Y0261630D02*
X0177251Y0261277D01*
X0176600Y0260911D01*
X0175958Y0260531D01*
X0175323Y0260137D01*
X0174698Y0259730D01*
X0174081Y0259309D01*
X0222809Y0250619D02*
X0223230Y0250002D01*
X0223637Y0249377D01*
X0224031Y0248742D01*
X0224411Y0248100D01*
X0224777Y0247449D01*
X0225130Y0246791D01*
X0159100Y0230600D02*
X0159108Y0229853D01*
X0159132Y0229107D01*
X0159172Y0228362D01*
X0159227Y0227617D01*
X0159299Y0226874D01*
X0159386Y0226133D01*
X0194100Y0195600D02*
X0194847Y0195608D01*
X0195593Y0195632D01*
X0196338Y0195672D01*
X0197083Y0195727D01*
X0197826Y0195799D01*
X0198567Y0195886D01*
X0170985Y0204319D02*
X0170429Y0204818D01*
X0169885Y0205329D01*
X0169351Y0205851D01*
X0168829Y0206385D01*
X0168318Y0206929D01*
X0167819Y0207485D01*
X0222809Y0210581D02*
X0223230Y0211198D01*
X0223637Y0211823D01*
X0224031Y0212457D01*
X0224411Y0213100D01*
X0224777Y0213750D01*
X0225130Y0214409D01*
X0194100Y0195600D02*
X0193353Y0195608D01*
X0192607Y0195632D01*
X0191862Y0195672D01*
X0191117Y0195727D01*
X0190374Y0195799D01*
X0189633Y0195886D01*
X0217215Y0204319D02*
X0217771Y0204818D01*
X0218315Y0205329D01*
X0218849Y0205851D01*
X0219371Y0206385D01*
X0219882Y0206929D01*
X0220381Y0207485D01*
X0190565Y0230600D02*
X0190567Y0230719D01*
X0190573Y0230837D01*
X0190583Y0230956D01*
X0190597Y0231074D01*
X0190615Y0231191D01*
X0190637Y0231308D01*
X0190662Y0231424D01*
X0190692Y0231539D01*
X0190725Y0231653D01*
X0190763Y0231766D01*
X0190804Y0231877D01*
X0190848Y0231987D01*
X0190897Y0232095D01*
X0190949Y0232202D01*
X0191005Y0232307D01*
X0191064Y0232410D01*
X0191126Y0232511D01*
X0191192Y0232610D01*
X0191261Y0232707D01*
X0191334Y0232801D01*
X0191409Y0232892D01*
X0191488Y0232982D01*
X0191569Y0233068D01*
X0191653Y0233152D01*
X0191741Y0233232D01*
X0191830Y0233310D01*
X0191923Y0233385D01*
X0192017Y0233456D01*
X0192115Y0233525D01*
X0192214Y0233590D01*
X0192315Y0233651D01*
X0192419Y0233710D01*
X0192524Y0233764D01*
X0192632Y0233816D01*
X0192740Y0233863D01*
X0192851Y0233907D01*
X0192963Y0233947D01*
X0193076Y0233983D01*
X0193190Y0234016D01*
X0193305Y0234044D01*
X0193421Y0234069D01*
X0193538Y0234090D01*
X0193656Y0234107D01*
X0193774Y0234120D01*
X0193892Y0234129D01*
X0194011Y0234134D01*
X0194130Y0234135D01*
X0194248Y0234132D01*
X0194367Y0234125D01*
X0194485Y0234114D01*
X0194603Y0234099D01*
X0194720Y0234080D01*
X0194837Y0234057D01*
X0194953Y0234031D01*
X0195067Y0234000D01*
X0195181Y0233966D01*
X0195294Y0233927D01*
X0195405Y0233885D01*
X0195514Y0233840D01*
X0195622Y0233790D01*
X0195729Y0233737D01*
X0195833Y0233681D01*
X0195936Y0233621D01*
X0196036Y0233558D01*
X0196134Y0233491D01*
X0196230Y0233421D01*
X0196324Y0233348D01*
X0196415Y0233272D01*
X0196503Y0233192D01*
X0196589Y0233110D01*
X0196672Y0233025D01*
X0196752Y0232937D01*
X0196829Y0232847D01*
X0196903Y0232754D01*
X0196974Y0232659D01*
X0197041Y0232561D01*
X0197106Y0232461D01*
X0197166Y0232359D01*
X0197224Y0232255D01*
X0197278Y0232149D01*
X0197328Y0232041D01*
X0197374Y0231932D01*
X0197417Y0231821D01*
X0197456Y0231709D01*
X0197492Y0231596D01*
X0197523Y0231481D01*
X0197551Y0231366D01*
X0197575Y0231250D01*
X0197595Y0231132D01*
X0197611Y0231015D01*
X0197623Y0230897D01*
X0197631Y0230778D01*
X0197635Y0230659D01*
X0197635Y0230541D01*
X0197631Y0230422D01*
X0197623Y0230303D01*
X0197611Y0230185D01*
X0197595Y0230068D01*
X0197575Y0229950D01*
X0197551Y0229834D01*
X0197523Y0229719D01*
X0197492Y0229604D01*
X0197456Y0229491D01*
X0197417Y0229379D01*
X0197374Y0229268D01*
X0197328Y0229159D01*
X0197278Y0229051D01*
X0197224Y0228945D01*
X0197166Y0228841D01*
X0197106Y0228739D01*
X0197041Y0228639D01*
X0196974Y0228541D01*
X0196903Y0228446D01*
X0196829Y0228353D01*
X0196752Y0228263D01*
X0196672Y0228175D01*
X0196589Y0228090D01*
X0196503Y0228008D01*
X0196415Y0227928D01*
X0196324Y0227852D01*
X0196230Y0227779D01*
X0196134Y0227709D01*
X0196036Y0227642D01*
X0195936Y0227579D01*
X0195833Y0227519D01*
X0195729Y0227463D01*
X0195622Y0227410D01*
X0195514Y0227360D01*
X0195405Y0227315D01*
X0195294Y0227273D01*
X0195181Y0227234D01*
X0195067Y0227200D01*
X0194953Y0227169D01*
X0194837Y0227143D01*
X0194720Y0227120D01*
X0194603Y0227101D01*
X0194485Y0227086D01*
X0194367Y0227075D01*
X0194248Y0227068D01*
X0194130Y0227065D01*
X0194011Y0227066D01*
X0193892Y0227071D01*
X0193774Y0227080D01*
X0193656Y0227093D01*
X0193538Y0227110D01*
X0193421Y0227131D01*
X0193305Y0227156D01*
X0193190Y0227184D01*
X0193076Y0227217D01*
X0192963Y0227253D01*
X0192851Y0227293D01*
X0192740Y0227337D01*
X0192632Y0227384D01*
X0192524Y0227436D01*
X0192419Y0227490D01*
X0192315Y0227549D01*
X0192214Y0227610D01*
X0192115Y0227675D01*
X0192017Y0227744D01*
X0191923Y0227815D01*
X0191830Y0227890D01*
X0191741Y0227968D01*
X0191653Y0228048D01*
X0191569Y0228132D01*
X0191488Y0228218D01*
X0191409Y0228308D01*
X0191334Y0228399D01*
X0191261Y0228493D01*
X0191192Y0228590D01*
X0191126Y0228689D01*
X0191064Y0228790D01*
X0191005Y0228893D01*
X0190949Y0228998D01*
X0190897Y0229105D01*
X0190848Y0229213D01*
X0190804Y0229323D01*
X0190763Y0229434D01*
X0190725Y0229547D01*
X0190692Y0229661D01*
X0190662Y0229776D01*
X0190637Y0229892D01*
X0190615Y0230009D01*
X0190597Y0230126D01*
X0190583Y0230244D01*
X0190573Y0230363D01*
X0190567Y0230481D01*
X0190565Y0230600D01*
X0160107Y0222264D02*
X0160293Y0221541D01*
X0160494Y0220822D01*
X0160710Y0220108D01*
X0160941Y0219398D01*
X0161188Y0218693D01*
X0161449Y0217994D01*
X0228814Y0226133D02*
X0228901Y0226874D01*
X0228973Y0227617D01*
X0229028Y0228362D01*
X0229068Y0229107D01*
X0229092Y0229853D01*
X0229100Y0230600D01*
X0228093Y0222264D02*
X0227907Y0221541D01*
X0227706Y0220822D01*
X0227490Y0220108D01*
X0227259Y0219398D01*
X0227012Y0218693D01*
X0226751Y0217994D01*
X0177909Y0199570D02*
X0177250Y0199923D01*
X0176600Y0200289D01*
X0175957Y0200669D01*
X0175323Y0201063D01*
X0174698Y0201470D01*
X0174081Y0201891D01*
X0210291Y0199570D02*
X0210950Y0199923D01*
X0211600Y0200289D01*
X0212243Y0200669D01*
X0212877Y0201063D01*
X0213502Y0201470D01*
X0214119Y0201891D01*
X0194100Y0145350D02*
X0194100Y0141072D01*
X0194100Y0137135D02*
X0194100Y0132857D01*
X0194100Y0128920D02*
X0194100Y0124641D01*
X0194100Y0120704D02*
X0194100Y0116426D01*
X0194100Y0112489D02*
X0194100Y0108211D01*
X0185764Y0076357D02*
X0185041Y0076543D01*
X0184322Y0076744D01*
X0183608Y0076960D01*
X0182898Y0077191D01*
X0182193Y0077438D01*
X0181494Y0077699D01*
X0194100Y0079628D02*
X0194100Y0075350D01*
X0194100Y0083565D02*
X0194100Y0087843D01*
X0194100Y0091780D02*
X0194100Y0096059D01*
X0194100Y0099996D02*
X0194100Y0104274D01*
X0202436Y0076357D02*
X0203159Y0076543D01*
X0203878Y0076744D01*
X0204592Y0076960D01*
X0205302Y0077191D01*
X0206007Y0077438D01*
X0206706Y0077699D01*
X0224100Y0076300D02*
X0224100Y0071963D01*
X0224100Y0068026D02*
X0224100Y0063688D01*
X0224100Y0059751D02*
X0224100Y0055413D01*
X0220045Y0055413D01*
X0216108Y0055413D02*
X0212053Y0055413D01*
X0208116Y0055413D02*
X0204061Y0055413D01*
X0200124Y0055413D02*
X0196069Y0055413D01*
X0192131Y0055413D02*
X0188076Y0055413D01*
X0184139Y0055413D02*
X0180084Y0055413D01*
X0176147Y0055413D02*
X0172092Y0055413D01*
X0168155Y0055413D02*
X0164100Y0055413D01*
X0164100Y0059751D01*
X0164100Y0063688D02*
X0164100Y0068026D01*
X0164100Y0071963D02*
X0164100Y0076300D01*
X0164100Y0080237D02*
X0164100Y0084575D01*
X0164100Y0088512D02*
X0164100Y0092850D01*
X0163378Y0110350D02*
X0159100Y0110350D01*
X0167315Y0110350D02*
X0171593Y0110350D01*
X0175530Y0110350D02*
X0179809Y0110350D01*
X0183746Y0110350D02*
X0188024Y0110350D01*
X0191961Y0110350D02*
X0196239Y0110350D01*
X0228093Y0118685D02*
X0227907Y0119408D01*
X0227707Y0120127D01*
X0227490Y0120842D01*
X0227259Y0121552D01*
X0227013Y0122257D01*
X0226751Y0122956D01*
X0224822Y0110350D02*
X0229100Y0110350D01*
X0220885Y0110350D02*
X0216607Y0110350D01*
X0212670Y0110350D02*
X0208391Y0110350D01*
X0204454Y0110350D02*
X0200176Y0110350D01*
X0220381Y0133465D02*
X0219882Y0134021D01*
X0219371Y0134565D01*
X0218849Y0135099D01*
X0218315Y0135621D01*
X0217771Y0136132D01*
X0217215Y0136631D01*
X0206706Y0143001D02*
X0206007Y0143263D01*
X0205302Y0143509D01*
X0204592Y0143740D01*
X0203877Y0143957D01*
X0203158Y0144157D01*
X0202435Y0144343D01*
X0228814Y0114817D02*
X0228901Y0114075D01*
X0228973Y0113332D01*
X0229028Y0112588D01*
X0229068Y0111842D01*
X0229092Y0111096D01*
X0229100Y0110350D01*
X0224100Y0092850D02*
X0224100Y0088512D01*
X0224100Y0084575D02*
X0224100Y0080237D01*
X0165391Y0090331D02*
X0164970Y0090948D01*
X0164563Y0091573D01*
X0164169Y0092207D01*
X0163789Y0092850D01*
X0163423Y0093500D01*
X0163070Y0094159D01*
X0160107Y0118685D02*
X0160293Y0119408D01*
X0160493Y0120127D01*
X0160710Y0120842D01*
X0160941Y0121552D01*
X0161187Y0122257D01*
X0161449Y0122956D01*
X0167819Y0133465D02*
X0168318Y0134021D01*
X0168829Y0134565D01*
X0169351Y0135099D01*
X0169885Y0135621D01*
X0170429Y0136132D01*
X0170985Y0136631D01*
X0181494Y0143001D02*
X0182193Y0143263D01*
X0182898Y0143509D01*
X0183608Y0143740D01*
X0184323Y0143957D01*
X0185042Y0144157D01*
X0185765Y0144343D01*
X0159386Y0114817D02*
X0159299Y0114075D01*
X0159227Y0113332D01*
X0159172Y0112588D01*
X0159132Y0111842D01*
X0159108Y0111096D01*
X0159100Y0110350D01*
X0189633Y0145064D02*
X0190375Y0145151D01*
X0191118Y0145223D01*
X0191862Y0145278D01*
X0192608Y0145318D01*
X0193354Y0145342D01*
X0194100Y0145350D01*
X0210291Y0141380D02*
X0210949Y0141027D01*
X0211600Y0140661D01*
X0212242Y0140281D01*
X0212877Y0139887D01*
X0213502Y0139480D01*
X0214119Y0139059D01*
X0198567Y0145064D02*
X0197825Y0145151D01*
X0197082Y0145223D01*
X0196338Y0145278D01*
X0195592Y0145318D01*
X0194846Y0145342D01*
X0194100Y0145350D01*
X0177909Y0141380D02*
X0177251Y0141027D01*
X0176600Y0140661D01*
X0175958Y0140281D01*
X0175323Y0139887D01*
X0174698Y0139480D01*
X0174081Y0139059D01*
X0165391Y0130369D02*
X0164970Y0129752D01*
X0164563Y0129127D01*
X0164169Y0128492D01*
X0163789Y0127850D01*
X0163423Y0127199D01*
X0163070Y0126541D01*
X0160107Y0102014D02*
X0160293Y0101291D01*
X0160494Y0100572D01*
X0160710Y0099858D01*
X0160941Y0099148D01*
X0161188Y0098443D01*
X0161449Y0097744D01*
X0222809Y0090331D02*
X0223230Y0090948D01*
X0223637Y0091573D01*
X0224031Y0092207D01*
X0224411Y0092850D01*
X0224777Y0093500D01*
X0225130Y0094159D01*
X0225130Y0126541D02*
X0224777Y0127199D01*
X0224411Y0127850D01*
X0224031Y0128492D01*
X0223637Y0129127D01*
X0223230Y0129752D01*
X0222809Y0130369D01*
X0159100Y0110350D02*
X0159108Y0109603D01*
X0159132Y0108857D01*
X0159172Y0108112D01*
X0159227Y0107367D01*
X0159299Y0106624D01*
X0159386Y0105883D01*
X0194100Y0075350D02*
X0194847Y0075358D01*
X0195593Y0075382D01*
X0196338Y0075422D01*
X0197083Y0075477D01*
X0197826Y0075549D01*
X0198567Y0075636D01*
X0170985Y0084069D02*
X0170429Y0084568D01*
X0169885Y0085079D01*
X0169351Y0085601D01*
X0168829Y0086135D01*
X0168318Y0086679D01*
X0167819Y0087235D01*
X0217215Y0084069D02*
X0217771Y0084568D01*
X0218315Y0085079D01*
X0218849Y0085601D01*
X0219371Y0086135D01*
X0219882Y0086679D01*
X0220381Y0087235D01*
X0194100Y0075350D02*
X0193353Y0075358D01*
X0192607Y0075382D01*
X0191862Y0075422D01*
X0191117Y0075477D01*
X0190374Y0075549D01*
X0189633Y0075636D01*
X0190565Y0110350D02*
X0190567Y0110469D01*
X0190573Y0110587D01*
X0190583Y0110706D01*
X0190597Y0110824D01*
X0190615Y0110941D01*
X0190637Y0111058D01*
X0190662Y0111174D01*
X0190692Y0111289D01*
X0190725Y0111403D01*
X0190763Y0111516D01*
X0190804Y0111627D01*
X0190848Y0111737D01*
X0190897Y0111845D01*
X0190949Y0111952D01*
X0191005Y0112057D01*
X0191064Y0112160D01*
X0191126Y0112261D01*
X0191192Y0112360D01*
X0191261Y0112457D01*
X0191334Y0112551D01*
X0191409Y0112642D01*
X0191488Y0112732D01*
X0191569Y0112818D01*
X0191653Y0112902D01*
X0191741Y0112982D01*
X0191830Y0113060D01*
X0191923Y0113135D01*
X0192017Y0113206D01*
X0192115Y0113275D01*
X0192214Y0113340D01*
X0192315Y0113401D01*
X0192419Y0113460D01*
X0192524Y0113514D01*
X0192632Y0113566D01*
X0192740Y0113613D01*
X0192851Y0113657D01*
X0192963Y0113697D01*
X0193076Y0113733D01*
X0193190Y0113766D01*
X0193305Y0113794D01*
X0193421Y0113819D01*
X0193538Y0113840D01*
X0193656Y0113857D01*
X0193774Y0113870D01*
X0193892Y0113879D01*
X0194011Y0113884D01*
X0194130Y0113885D01*
X0194248Y0113882D01*
X0194367Y0113875D01*
X0194485Y0113864D01*
X0194603Y0113849D01*
X0194720Y0113830D01*
X0194837Y0113807D01*
X0194953Y0113781D01*
X0195067Y0113750D01*
X0195181Y0113716D01*
X0195294Y0113677D01*
X0195405Y0113635D01*
X0195514Y0113590D01*
X0195622Y0113540D01*
X0195729Y0113487D01*
X0195833Y0113431D01*
X0195936Y0113371D01*
X0196036Y0113308D01*
X0196134Y0113241D01*
X0196230Y0113171D01*
X0196324Y0113098D01*
X0196415Y0113022D01*
X0196503Y0112942D01*
X0196589Y0112860D01*
X0196672Y0112775D01*
X0196752Y0112687D01*
X0196829Y0112597D01*
X0196903Y0112504D01*
X0196974Y0112409D01*
X0197041Y0112311D01*
X0197106Y0112211D01*
X0197166Y0112109D01*
X0197224Y0112005D01*
X0197278Y0111899D01*
X0197328Y0111791D01*
X0197374Y0111682D01*
X0197417Y0111571D01*
X0197456Y0111459D01*
X0197492Y0111346D01*
X0197523Y0111231D01*
X0197551Y0111116D01*
X0197575Y0111000D01*
X0197595Y0110882D01*
X0197611Y0110765D01*
X0197623Y0110647D01*
X0197631Y0110528D01*
X0197635Y0110409D01*
X0197635Y0110291D01*
X0197631Y0110172D01*
X0197623Y0110053D01*
X0197611Y0109935D01*
X0197595Y0109818D01*
X0197575Y0109700D01*
X0197551Y0109584D01*
X0197523Y0109469D01*
X0197492Y0109354D01*
X0197456Y0109241D01*
X0197417Y0109129D01*
X0197374Y0109018D01*
X0197328Y0108909D01*
X0197278Y0108801D01*
X0197224Y0108695D01*
X0197166Y0108591D01*
X0197106Y0108489D01*
X0197041Y0108389D01*
X0196974Y0108291D01*
X0196903Y0108196D01*
X0196829Y0108103D01*
X0196752Y0108013D01*
X0196672Y0107925D01*
X0196589Y0107840D01*
X0196503Y0107758D01*
X0196415Y0107678D01*
X0196324Y0107602D01*
X0196230Y0107529D01*
X0196134Y0107459D01*
X0196036Y0107392D01*
X0195936Y0107329D01*
X0195833Y0107269D01*
X0195729Y0107213D01*
X0195622Y0107160D01*
X0195514Y0107110D01*
X0195405Y0107065D01*
X0195294Y0107023D01*
X0195181Y0106984D01*
X0195067Y0106950D01*
X0194953Y0106919D01*
X0194837Y0106893D01*
X0194720Y0106870D01*
X0194603Y0106851D01*
X0194485Y0106836D01*
X0194367Y0106825D01*
X0194248Y0106818D01*
X0194130Y0106815D01*
X0194011Y0106816D01*
X0193892Y0106821D01*
X0193774Y0106830D01*
X0193656Y0106843D01*
X0193538Y0106860D01*
X0193421Y0106881D01*
X0193305Y0106906D01*
X0193190Y0106934D01*
X0193076Y0106967D01*
X0192963Y0107003D01*
X0192851Y0107043D01*
X0192740Y0107087D01*
X0192632Y0107134D01*
X0192524Y0107186D01*
X0192419Y0107240D01*
X0192315Y0107299D01*
X0192214Y0107360D01*
X0192115Y0107425D01*
X0192017Y0107494D01*
X0191923Y0107565D01*
X0191830Y0107640D01*
X0191741Y0107718D01*
X0191653Y0107798D01*
X0191569Y0107882D01*
X0191488Y0107968D01*
X0191409Y0108058D01*
X0191334Y0108149D01*
X0191261Y0108243D01*
X0191192Y0108340D01*
X0191126Y0108439D01*
X0191064Y0108540D01*
X0191005Y0108643D01*
X0190949Y0108748D01*
X0190897Y0108855D01*
X0190848Y0108963D01*
X0190804Y0109073D01*
X0190763Y0109184D01*
X0190725Y0109297D01*
X0190692Y0109411D01*
X0190662Y0109526D01*
X0190637Y0109642D01*
X0190615Y0109759D01*
X0190597Y0109876D01*
X0190583Y0109994D01*
X0190573Y0110113D01*
X0190567Y0110231D01*
X0190565Y0110350D01*
X0228814Y0105883D02*
X0228901Y0106624D01*
X0228973Y0107367D01*
X0229028Y0108112D01*
X0229068Y0108857D01*
X0229092Y0109603D01*
X0229100Y0110350D01*
X0228093Y0102014D02*
X0227907Y0101291D01*
X0227706Y0100572D01*
X0227490Y0099858D01*
X0227259Y0099148D01*
X0227012Y0098443D01*
X0226751Y0097744D01*
X0177909Y0079320D02*
X0177250Y0079673D01*
X0176600Y0080039D01*
X0175957Y0080419D01*
X0175323Y0080813D01*
X0174698Y0081220D01*
X0174081Y0081641D01*
X0210291Y0079320D02*
X0210950Y0079673D01*
X0211600Y0080039D01*
X0212243Y0080419D01*
X0212877Y0080813D01*
X0213502Y0081220D01*
X0214119Y0081641D01*
X0080130Y0126541D02*
X0079777Y0127199D01*
X0079411Y0127850D01*
X0079031Y0128492D01*
X0078637Y0129127D01*
X0078230Y0129752D01*
X0077809Y0130369D01*
X0061706Y0143001D02*
X0061007Y0143263D01*
X0060302Y0143509D01*
X0059592Y0143740D01*
X0058877Y0143957D01*
X0058158Y0144157D01*
X0057435Y0144343D01*
X0083814Y0114817D02*
X0083901Y0114075D01*
X0083973Y0113332D01*
X0084028Y0112588D01*
X0084068Y0111842D01*
X0084092Y0111096D01*
X0084100Y0110350D01*
X0053567Y0145064D02*
X0052825Y0145151D01*
X0052082Y0145223D01*
X0051338Y0145278D01*
X0050592Y0145318D01*
X0049846Y0145342D01*
X0049100Y0145350D01*
X0040765Y0144343D02*
X0040042Y0144157D01*
X0039323Y0143957D01*
X0038608Y0143740D01*
X0037898Y0143509D01*
X0037193Y0143263D01*
X0036494Y0143001D01*
X0044633Y0145064D02*
X0045375Y0145151D01*
X0046118Y0145223D01*
X0046862Y0145278D01*
X0047608Y0145318D01*
X0048354Y0145342D01*
X0049100Y0145350D01*
X0065291Y0141380D02*
X0065949Y0141027D01*
X0066600Y0140661D01*
X0067242Y0140281D01*
X0067877Y0139887D01*
X0068502Y0139480D01*
X0069119Y0139059D01*
X0032909Y0141380D02*
X0032251Y0141027D01*
X0031600Y0140661D01*
X0030958Y0140281D01*
X0030323Y0139887D01*
X0029698Y0139480D01*
X0029081Y0139059D01*
X0014386Y0114817D02*
X0014299Y0114075D01*
X0014227Y0113332D01*
X0014172Y0112588D01*
X0014132Y0111842D01*
X0014108Y0111096D01*
X0014100Y0110350D01*
X0018070Y0126541D02*
X0018423Y0127199D01*
X0018789Y0127850D01*
X0019169Y0128492D01*
X0019563Y0129127D01*
X0019970Y0129752D01*
X0020391Y0130369D01*
X0015107Y0102014D02*
X0015293Y0101291D01*
X0015494Y0100572D01*
X0015710Y0099858D01*
X0015941Y0099148D01*
X0016188Y0098443D01*
X0016449Y0097744D01*
X0049100Y0075350D02*
X0049847Y0075358D01*
X0050593Y0075382D01*
X0051338Y0075422D01*
X0052083Y0075477D01*
X0052826Y0075549D01*
X0053567Y0075636D01*
X0025985Y0084069D02*
X0025429Y0084568D01*
X0024885Y0085079D01*
X0024351Y0085601D01*
X0023829Y0086135D01*
X0023318Y0086679D01*
X0022819Y0087235D01*
X0072215Y0084069D02*
X0072771Y0084568D01*
X0073315Y0085079D01*
X0073849Y0085601D01*
X0074371Y0086135D01*
X0074882Y0086679D01*
X0075381Y0087235D01*
X0049100Y0075350D02*
X0048353Y0075358D01*
X0047607Y0075382D01*
X0046862Y0075422D01*
X0046117Y0075477D01*
X0045374Y0075549D01*
X0044633Y0075636D01*
X0045565Y0110350D02*
X0045567Y0110469D01*
X0045573Y0110587D01*
X0045583Y0110706D01*
X0045597Y0110824D01*
X0045615Y0110941D01*
X0045637Y0111058D01*
X0045662Y0111174D01*
X0045692Y0111289D01*
X0045725Y0111403D01*
X0045763Y0111516D01*
X0045804Y0111627D01*
X0045848Y0111737D01*
X0045897Y0111845D01*
X0045949Y0111952D01*
X0046005Y0112057D01*
X0046064Y0112160D01*
X0046126Y0112261D01*
X0046192Y0112360D01*
X0046261Y0112457D01*
X0046334Y0112551D01*
X0046409Y0112642D01*
X0046488Y0112732D01*
X0046569Y0112818D01*
X0046653Y0112902D01*
X0046741Y0112982D01*
X0046830Y0113060D01*
X0046923Y0113135D01*
X0047017Y0113206D01*
X0047115Y0113275D01*
X0047214Y0113340D01*
X0047315Y0113401D01*
X0047419Y0113460D01*
X0047524Y0113514D01*
X0047632Y0113566D01*
X0047740Y0113613D01*
X0047851Y0113657D01*
X0047963Y0113697D01*
X0048076Y0113733D01*
X0048190Y0113766D01*
X0048305Y0113794D01*
X0048421Y0113819D01*
X0048538Y0113840D01*
X0048656Y0113857D01*
X0048774Y0113870D01*
X0048892Y0113879D01*
X0049011Y0113884D01*
X0049130Y0113885D01*
X0049248Y0113882D01*
X0049367Y0113875D01*
X0049485Y0113864D01*
X0049603Y0113849D01*
X0049720Y0113830D01*
X0049837Y0113807D01*
X0049953Y0113781D01*
X0050067Y0113750D01*
X0050181Y0113716D01*
X0050294Y0113677D01*
X0050405Y0113635D01*
X0050514Y0113590D01*
X0050622Y0113540D01*
X0050729Y0113487D01*
X0050833Y0113431D01*
X0050936Y0113371D01*
X0051036Y0113308D01*
X0051134Y0113241D01*
X0051230Y0113171D01*
X0051324Y0113098D01*
X0051415Y0113022D01*
X0051503Y0112942D01*
X0051589Y0112860D01*
X0051672Y0112775D01*
X0051752Y0112687D01*
X0051829Y0112597D01*
X0051903Y0112504D01*
X0051974Y0112409D01*
X0052041Y0112311D01*
X0052106Y0112211D01*
X0052166Y0112109D01*
X0052224Y0112005D01*
X0052278Y0111899D01*
X0052328Y0111791D01*
X0052374Y0111682D01*
X0052417Y0111571D01*
X0052456Y0111459D01*
X0052492Y0111346D01*
X0052523Y0111231D01*
X0052551Y0111116D01*
X0052575Y0111000D01*
X0052595Y0110882D01*
X0052611Y0110765D01*
X0052623Y0110647D01*
X0052631Y0110528D01*
X0052635Y0110409D01*
X0052635Y0110291D01*
X0052631Y0110172D01*
X0052623Y0110053D01*
X0052611Y0109935D01*
X0052595Y0109818D01*
X0052575Y0109700D01*
X0052551Y0109584D01*
X0052523Y0109469D01*
X0052492Y0109354D01*
X0052456Y0109241D01*
X0052417Y0109129D01*
X0052374Y0109018D01*
X0052328Y0108909D01*
X0052278Y0108801D01*
X0052224Y0108695D01*
X0052166Y0108591D01*
X0052106Y0108489D01*
X0052041Y0108389D01*
X0051974Y0108291D01*
X0051903Y0108196D01*
X0051829Y0108103D01*
X0051752Y0108013D01*
X0051672Y0107925D01*
X0051589Y0107840D01*
X0051503Y0107758D01*
X0051415Y0107678D01*
X0051324Y0107602D01*
X0051230Y0107529D01*
X0051134Y0107459D01*
X0051036Y0107392D01*
X0050936Y0107329D01*
X0050833Y0107269D01*
X0050729Y0107213D01*
X0050622Y0107160D01*
X0050514Y0107110D01*
X0050405Y0107065D01*
X0050294Y0107023D01*
X0050181Y0106984D01*
X0050067Y0106950D01*
X0049953Y0106919D01*
X0049837Y0106893D01*
X0049720Y0106870D01*
X0049603Y0106851D01*
X0049485Y0106836D01*
X0049367Y0106825D01*
X0049248Y0106818D01*
X0049130Y0106815D01*
X0049011Y0106816D01*
X0048892Y0106821D01*
X0048774Y0106830D01*
X0048656Y0106843D01*
X0048538Y0106860D01*
X0048421Y0106881D01*
X0048305Y0106906D01*
X0048190Y0106934D01*
X0048076Y0106967D01*
X0047963Y0107003D01*
X0047851Y0107043D01*
X0047740Y0107087D01*
X0047632Y0107134D01*
X0047524Y0107186D01*
X0047419Y0107240D01*
X0047315Y0107299D01*
X0047214Y0107360D01*
X0047115Y0107425D01*
X0047017Y0107494D01*
X0046923Y0107565D01*
X0046830Y0107640D01*
X0046741Y0107718D01*
X0046653Y0107798D01*
X0046569Y0107882D01*
X0046488Y0107968D01*
X0046409Y0108058D01*
X0046334Y0108149D01*
X0046261Y0108243D01*
X0046192Y0108340D01*
X0046126Y0108439D01*
X0046064Y0108540D01*
X0046005Y0108643D01*
X0045949Y0108748D01*
X0045897Y0108855D01*
X0045848Y0108963D01*
X0045804Y0109073D01*
X0045763Y0109184D01*
X0045725Y0109297D01*
X0045692Y0109411D01*
X0045662Y0109526D01*
X0045637Y0109642D01*
X0045615Y0109759D01*
X0045597Y0109876D01*
X0045583Y0109994D01*
X0045573Y0110113D01*
X0045567Y0110231D01*
X0045565Y0110350D01*
X0083814Y0105883D02*
X0083901Y0106624D01*
X0083973Y0107367D01*
X0084028Y0108112D01*
X0084068Y0108857D01*
X0084092Y0109603D01*
X0084100Y0110350D01*
X0014386Y0105883D02*
X0014299Y0106624D01*
X0014227Y0107367D01*
X0014172Y0108112D01*
X0014132Y0108857D01*
X0014108Y0109603D01*
X0014100Y0110350D01*
X0065291Y0079320D02*
X0065950Y0079673D01*
X0066600Y0080039D01*
X0067243Y0080419D01*
X0067877Y0080813D01*
X0068502Y0081220D01*
X0069119Y0081641D01*
X0032909Y0079320D02*
X0032250Y0079673D01*
X0031600Y0080039D01*
X0030957Y0080419D01*
X0030323Y0080813D01*
X0029698Y0081220D01*
X0029081Y0081641D01*
X0081751Y0097744D02*
X0082012Y0098443D01*
X0082259Y0099148D01*
X0082490Y0099858D01*
X0082706Y0100572D01*
X0082907Y0101291D01*
X0083093Y0102014D01*
D11*
X0058008Y0065554D02*
X0055072Y0065554D01*
X0056540Y0065554D02*
X0056540Y0061150D01*
X0053404Y0061884D02*
X0053404Y0064820D01*
X0052670Y0065554D01*
X0051202Y0065554D01*
X0050468Y0064820D01*
X0050468Y0061884D01*
X0051202Y0061150D01*
X0052670Y0061150D01*
X0053404Y0061884D01*
X0048800Y0061150D02*
X0048800Y0065554D01*
X0045864Y0061150D01*
X0045864Y0065554D01*
X0044196Y0065554D02*
X0044196Y0061150D01*
X0041260Y0061150D01*
X0042728Y0063352D02*
X0044196Y0063352D01*
X0044196Y0065554D02*
X0041260Y0065554D01*
X0042028Y0181400D02*
X0042028Y0185804D01*
X0044963Y0185804D02*
X0042028Y0181400D01*
X0044963Y0181400D02*
X0044963Y0185804D01*
X0046565Y0185804D02*
X0048033Y0185804D01*
X0047299Y0185804D02*
X0047299Y0181400D01*
X0048033Y0181400D02*
X0046565Y0181400D01*
X0049701Y0181400D02*
X0049701Y0184336D01*
X0051169Y0185804D01*
X0052637Y0184336D01*
X0052637Y0181400D01*
X0054305Y0182134D02*
X0054305Y0183602D01*
X0055773Y0183602D01*
X0057241Y0185070D02*
X0057241Y0182134D01*
X0056507Y0181400D01*
X0055039Y0181400D01*
X0054305Y0182134D01*
X0052637Y0183602D02*
X0049701Y0183602D01*
X0054305Y0185070D02*
X0055039Y0185804D01*
X0056507Y0185804D01*
X0057241Y0185070D01*
X0177052Y0065554D02*
X0179988Y0065554D01*
X0179988Y0061150D01*
X0177052Y0061150D01*
X0178520Y0063352D02*
X0179988Y0063352D01*
X0181656Y0064820D02*
X0182390Y0065554D01*
X0183858Y0065554D01*
X0184592Y0064820D01*
X0184592Y0061884D01*
X0183858Y0061150D01*
X0182390Y0061150D01*
X0181656Y0061884D01*
X0186260Y0061150D02*
X0186260Y0065554D01*
X0189196Y0065554D02*
X0186260Y0061150D01*
X0189196Y0061150D02*
X0189196Y0065554D01*
X0190864Y0065554D02*
X0193800Y0065554D01*
X0193800Y0061150D01*
X0190864Y0061150D01*
X0192332Y0063352D02*
X0193800Y0063352D01*
X0195468Y0062618D02*
X0195468Y0061884D01*
X0196202Y0061150D01*
X0197670Y0061150D01*
X0198404Y0061884D01*
X0197670Y0063352D02*
X0196202Y0063352D01*
X0195468Y0062618D01*
X0195468Y0064820D02*
X0196202Y0065554D01*
X0197670Y0065554D01*
X0198404Y0064820D01*
X0198404Y0064086D01*
X0197670Y0063352D01*
X0200072Y0065554D02*
X0203008Y0065554D01*
X0203008Y0061150D01*
X0200072Y0061150D01*
X0201540Y0063352D02*
X0203008Y0063352D01*
X0204676Y0063352D02*
X0204676Y0064820D01*
X0205410Y0065554D01*
X0207612Y0065554D01*
X0207612Y0061150D01*
X0207612Y0062618D02*
X0205410Y0062618D01*
X0204676Y0063352D01*
X0206144Y0062618D02*
X0204676Y0061150D01*
X0209280Y0063352D02*
X0209280Y0064820D01*
X0210014Y0065554D01*
X0212216Y0065554D01*
X0212216Y0061150D01*
X0212216Y0062618D02*
X0210014Y0062618D01*
X0209280Y0063352D01*
X0206144Y0181400D02*
X0204676Y0182868D01*
X0204676Y0185804D01*
X0203008Y0185070D02*
X0203008Y0182134D01*
X0202274Y0181400D01*
X0200806Y0181400D01*
X0200072Y0182134D01*
X0200072Y0185070D01*
X0200806Y0185804D01*
X0202274Y0185804D01*
X0203008Y0185070D01*
X0207612Y0185804D02*
X0207612Y0182868D01*
X0206144Y0181400D01*
X0198404Y0181400D02*
X0195468Y0181400D01*
X0193800Y0182134D02*
X0193066Y0181400D01*
X0191598Y0181400D01*
X0190864Y0182134D01*
X0190864Y0185804D01*
X0189196Y0185804D02*
X0187728Y0184336D01*
X0186260Y0185804D01*
X0186260Y0181400D01*
X0184592Y0181400D02*
X0181656Y0181400D01*
X0183124Y0183602D02*
X0184592Y0183602D01*
X0184592Y0185804D02*
X0181656Y0185804D01*
X0184592Y0185804D02*
X0184592Y0181400D01*
X0189196Y0181400D02*
X0189196Y0185804D01*
X0193800Y0185804D02*
X0193800Y0182134D01*
X0198404Y0181400D02*
X0198404Y0185804D01*
D12*
X0139317Y0232188D02*
X0139317Y0234944D01*
X0139300Y0234925D02*
X0139300Y0254300D01*
X0139317Y0253448D02*
X0139317Y0274314D01*
X0103883Y0274314D01*
X0103883Y0232188D01*
X0112151Y0232188D01*
X0131049Y0232188D02*
X0139317Y0232188D01*
D13*
X0237633Y0005600D02*
X0005350Y0005600D01*
X0005350Y0258631D01*
X0027004Y0258631D01*
X0027004Y0286191D01*
X0215980Y0286191D01*
X0215980Y0258631D01*
X0237633Y0258631D01*
X0237633Y0005600D01*
M02*
