G75*
%MOIN*%
%OFA0B0*%
%FSLAX25Y25*%
%IPPOS*%
%LPD*%
%AMOC8*
5,1,8,0,0,1.08239X$1,22.5*
%
%ADD10R,0.07087X0.07087*%
%ADD11C,0.07087*%
%ADD12C,0.05118*%
%ADD13R,0.04331X0.04331*%
%ADD14C,0.04331*%
%ADD15C,0.08268*%
%ADD16C,0.13843*%
%ADD17C,0.06299*%
%ADD18C,0.00000*%
%ADD19C,0.05512*%
%ADD20R,0.05512X0.05512*%
%ADD21C,0.05000*%
%ADD22R,0.11811X0.11811*%
%ADD23C,0.11811*%
%ADD24C,0.04724*%
%ADD25R,0.04724X0.04724*%
D10*
X0069100Y0048913D03*
X0069100Y0169163D03*
X0214100Y0169163D03*
X0214100Y0048913D03*
D11*
X0194100Y0048913D03*
X0174100Y0048913D03*
X0174100Y0169163D03*
X0194100Y0169163D03*
X0049100Y0169163D03*
X0029100Y0169163D03*
X0029100Y0048913D03*
X0049100Y0048913D03*
D12*
X0054100Y0079100D03*
X0034100Y0079100D03*
X0069100Y0109100D03*
X0081600Y0109100D03*
X0081600Y0129100D03*
X0081600Y0139100D03*
X0069100Y0139100D03*
X0069100Y0129100D03*
X0069100Y0159100D03*
X0081600Y0159100D03*
X0049100Y0181600D03*
X0029100Y0181600D03*
X0151600Y0069100D03*
X0164100Y0069100D03*
X0164100Y0049100D03*
X0151600Y0049100D03*
D13*
X0176670Y0099105D03*
X0187660Y0131600D03*
X0107345Y0164170D03*
D14*
X0107348Y0172030D03*
X0091600Y0169100D03*
X0091600Y0139100D03*
X0091600Y0129100D03*
X0091600Y0099100D03*
X0069100Y0099100D03*
X0059100Y0089100D03*
X0059100Y0069100D03*
X0059100Y0059100D03*
X0069100Y0069100D03*
X0029100Y0069100D03*
X0029100Y0059100D03*
X0029100Y0089100D03*
X0029100Y0139100D03*
X0029100Y0149100D03*
X0029100Y0159100D03*
X0059100Y0159100D03*
X0059100Y0149100D03*
X0059100Y0139100D03*
X0124100Y0164100D03*
X0124100Y0194100D03*
X0164100Y0181600D03*
X0194100Y0181600D03*
X0195540Y0131600D03*
X0184530Y0099102D03*
X0184100Y0079100D03*
X0164100Y0099100D03*
X0154100Y0099100D03*
X0154100Y0129100D03*
X0164100Y0129100D03*
X0184100Y0049100D03*
D15*
X0208049Y0214350D03*
X0208049Y0239350D03*
X0208049Y0264350D03*
X0144151Y0264350D03*
X0144151Y0239350D03*
X0144151Y0214350D03*
X0099049Y0214350D03*
X0099049Y0239350D03*
X0099049Y0264350D03*
X0035151Y0264350D03*
X0035151Y0239350D03*
X0035151Y0214350D03*
D16*
X0121600Y0232188D03*
X0121600Y0255810D03*
D17*
X0116600Y0029100D03*
X0116600Y0019100D03*
X0106600Y0019100D03*
X0106600Y0029100D03*
X0126600Y0029100D03*
X0126600Y0019100D03*
X0136600Y0019100D03*
X0136600Y0029100D03*
D18*
X0237633Y0005600D02*
X0005350Y0005600D01*
X0005350Y0258631D01*
X0027004Y0258631D01*
X0027004Y0286191D01*
X0215980Y0286191D01*
X0215980Y0258631D01*
X0237633Y0258631D01*
X0237633Y0005600D01*
D19*
X0201600Y0151600D03*
X0181600Y0151600D03*
X0134100Y0172350D03*
D20*
X0134100Y0194100D03*
D21*
X0059100Y0129100D03*
X0059100Y0119100D03*
X0059100Y0109100D03*
X0059100Y0099100D03*
X0029100Y0099100D03*
X0029100Y0109100D03*
X0029100Y0119100D03*
X0029100Y0129100D03*
D22*
X0111600Y0151600D03*
D23*
X0111600Y0131600D03*
X0111600Y0111600D03*
X0131600Y0111600D03*
X0131600Y0131600D03*
X0131600Y0151600D03*
D24*
X0131600Y0099100D03*
X0121600Y0079100D03*
X0111600Y0099100D03*
X0101600Y0079100D03*
X0101600Y0059100D03*
X0081600Y0069100D03*
D25*
X0081600Y0059100D03*
X0101600Y0069100D03*
X0111600Y0079100D03*
X0101600Y0099100D03*
X0121600Y0099100D03*
X0131600Y0079100D03*
M02*
