%
M48
M72
T01C0.01575
T02C0.01969
T03C0.02362
T04C0.02756
T05C0.03200
T06C0.03543
T07C0.04331
T08C0.05512
T09C0.07874
T10C0.09843
%
T01
X29100Y59100
X29100Y69100
X29100Y89100
X59100Y89100
X69100Y99100
X91600Y99100
X69100Y69100
X59100Y69100
X59100Y59100
X91600Y129100
X91600Y139100
X91600Y169100
X59100Y159100
X59100Y149100
X59100Y139100
X29100Y139100
X29100Y149100
X29100Y159100
X124100Y164100
X124100Y194100
X164100Y181600
X194100Y181600
X195540Y131600
X187660Y131600
X164100Y129100
X154100Y129100
X154100Y99100
X164100Y99100
X184100Y79100
X184100Y49100
T02
X9850Y10850
X9850Y41600
X34850Y55100
X34850Y65100
X45600Y55100
X41600Y32850
X41600Y24100
X41600Y10850
X81600Y10850
X81600Y24100
X81600Y32850
X81600Y45350
X81600Y59100
X75600Y64100
X81600Y69100
X75600Y74100
X75600Y94100
X93850Y109100
X101600Y99100
X111600Y99100
X121600Y99100
X131600Y99100
X138350Y104100
X149600Y104100
X149600Y81600
X138350Y81600
X131600Y79100
X121600Y79100
X116600Y70350
X111600Y79100
X101600Y79100
X101600Y69100
X101600Y59100
X124100Y45350
X121600Y10850
X161600Y10850
X161600Y24100
X161600Y33600
X161600Y62850
X176670Y99105
X184530Y99102
X187850Y119100
X174850Y119100
X191600Y146600
X184100Y166600
X166600Y166600
X149100Y179100
X138850Y179100
X125850Y201600
X107348Y172030
X107345Y164170
X103850Y141600
X91350Y146600
X68850Y179100
X48350Y201600
X41350Y161600
X18600Y161600
X9850Y161600
X9850Y201600
X9850Y241600
X48350Y241600
X48350Y279850
X90850Y279850
X90850Y241600
X125850Y244100
X153350Y241600
X153350Y279850
X125850Y279850
X190850Y279850
X190850Y241600
X190850Y201600
X223350Y161600
X233350Y161600
X233350Y201600
X233350Y241600
X153350Y201600
X149600Y139100
X138350Y139100
X90850Y201600
X43600Y121600
X18600Y121600
X9850Y121600
X37350Y87600
X201600Y62850
X219850Y81600
X233350Y81600
X233350Y41600
X233350Y10850
X201600Y10850
X201600Y24100
X201600Y33600
X219850Y121600
X233350Y121600
T03
X164100Y69100
X151600Y69100
X151600Y49100
X164100Y49100
X81600Y109100
X69100Y109100
X69100Y129100
X69100Y139100
X81600Y139100
X81600Y129100
X81600Y159100
X69100Y159100
X49100Y181600
X29100Y181600
X34100Y79100
X54100Y79100
T04
X134100Y172350
X134100Y194100
X181600Y151600
X201600Y151600
T05
X59100Y129100
X59100Y119100
X59100Y109100
X59100Y99100
X29100Y99100
X29100Y109100
X29100Y119100
X29100Y129100
T06
X106600Y29100
X106600Y19100
X116600Y19100
X116600Y29100
X126600Y29100
X126600Y19100
X136600Y19100
X136600Y29100
T07
X174100Y48913
X194100Y48913
X214100Y48913
X214100Y169163
X194100Y169163
X174100Y169163
X69100Y169163
X49100Y169163
X29100Y169163
X29100Y48913
X49100Y48913
X69100Y48913
T08
X99049Y214350
X99049Y239350
X99049Y264350
X144151Y264350
X144151Y239350
X144151Y214350
X208049Y214350
X208049Y239350
X208049Y264350
X35151Y264350
X35151Y239350
X35151Y214350
T09
X111600Y151600
X111600Y131600
X111600Y111600
X131600Y111600
X131600Y131600
X131600Y151600
T10
X121600Y232188
X121600Y255810
M30
