G75*
%MOIN*%
%OFA0B0*%
%FSLAX25Y25*%
%IPPOS*%
%LPD*%
%AMOC8*
5,1,8,0,0,1.08239X$1,22.5*
%
%ADD10C,0.00500*%
%ADD11C,0.00600*%
%ADD12C,0.00300*%
%ADD13C,0.01000*%
%ADD14C,0.00400*%
%ADD15C,0.00800*%
%ADD16C,0.00000*%
%ADD17R,0.10000X0.02000*%
%ADD18R,0.08000X0.02000*%
%ADD19R,0.02000X0.08000*%
D10*
X0024100Y0044163D02*
X0034100Y0044163D01*
X0034100Y0053663D01*
X0024100Y0053663D01*
X0024100Y0044163D01*
X0044100Y0044163D02*
X0054100Y0044163D01*
X0054100Y0053663D01*
X0044100Y0053663D01*
X0044100Y0044163D01*
X0064100Y0044163D02*
X0074100Y0044163D01*
X0074100Y0053663D01*
X0064100Y0053663D01*
X0064100Y0044163D01*
X0069594Y0056950D02*
X0071929Y0056950D01*
X0070762Y0056950D02*
X0070762Y0060453D01*
X0069594Y0059286D01*
X0088067Y0060853D02*
X0088067Y0057350D01*
X0089818Y0057350D01*
X0090402Y0057934D01*
X0090402Y0060269D01*
X0089818Y0060853D01*
X0088067Y0060853D01*
X0091750Y0060269D02*
X0092334Y0060853D01*
X0093501Y0060853D01*
X0094085Y0060269D01*
X0094085Y0059685D01*
X0093501Y0059101D01*
X0094085Y0058518D01*
X0094085Y0057934D01*
X0093501Y0057350D01*
X0092334Y0057350D01*
X0091750Y0057934D01*
X0092918Y0059101D02*
X0093501Y0059101D01*
X0093701Y0067350D02*
X0093701Y0070853D01*
X0091950Y0069101D01*
X0094285Y0069101D01*
X0090602Y0067934D02*
X0090018Y0067350D01*
X0088267Y0067350D01*
X0088267Y0070853D01*
X0090018Y0070853D01*
X0090602Y0070269D01*
X0090602Y0067934D01*
X0099847Y0085767D02*
X0099847Y0087518D01*
X0100431Y0088102D01*
X0102766Y0088102D01*
X0103350Y0087518D01*
X0103350Y0085767D01*
X0099847Y0085767D01*
X0099847Y0089450D02*
X0101599Y0089450D01*
X0101015Y0090618D01*
X0101015Y0091201D01*
X0101599Y0091785D01*
X0102766Y0091785D01*
X0103350Y0091201D01*
X0103350Y0090034D01*
X0102766Y0089450D01*
X0099847Y0089450D02*
X0099847Y0091785D01*
X0109847Y0091001D02*
X0109847Y0089834D01*
X0110431Y0089250D01*
X0110431Y0087902D02*
X0109847Y0087318D01*
X0109847Y0085567D01*
X0113350Y0085567D01*
X0113350Y0087318D01*
X0112766Y0087902D01*
X0110431Y0087902D01*
X0113350Y0089250D02*
X0111015Y0091585D01*
X0110431Y0091585D01*
X0109847Y0091001D01*
X0113350Y0091585D02*
X0113350Y0089250D01*
X0119847Y0089450D02*
X0119847Y0091785D01*
X0120431Y0091785D01*
X0122766Y0089450D01*
X0123350Y0089450D01*
X0122766Y0088102D02*
X0120431Y0088102D01*
X0119847Y0087518D01*
X0119847Y0085767D01*
X0123350Y0085767D01*
X0123350Y0087518D01*
X0122766Y0088102D01*
X0129847Y0087318D02*
X0129847Y0085567D01*
X0133350Y0085567D01*
X0133350Y0087318D01*
X0132766Y0087902D01*
X0130431Y0087902D01*
X0129847Y0087318D01*
X0131599Y0089250D02*
X0130431Y0090418D01*
X0129847Y0091585D01*
X0131599Y0091001D02*
X0131599Y0089250D01*
X0132766Y0089250D01*
X0133350Y0089834D01*
X0133350Y0091001D01*
X0132766Y0091585D01*
X0132182Y0091585D01*
X0131599Y0091001D01*
X0146185Y0106417D02*
X0146185Y0157348D01*
X0096972Y0157348D01*
X0096972Y0106417D01*
X0146185Y0106417D01*
X0175322Y0094889D02*
X0175322Y0092554D01*
X0175906Y0091970D01*
X0177073Y0091970D01*
X0177657Y0092554D01*
X0179005Y0093721D02*
X0181340Y0093721D01*
X0180756Y0091970D02*
X0180756Y0095473D01*
X0179005Y0093721D01*
X0177657Y0094889D02*
X0177073Y0095473D01*
X0175906Y0095473D01*
X0175322Y0094889D01*
X0185932Y0124415D02*
X0187099Y0124415D01*
X0187683Y0124999D01*
X0189031Y0124415D02*
X0191366Y0124415D01*
X0190199Y0124415D02*
X0190199Y0127918D01*
X0189031Y0126750D01*
X0187683Y0127334D02*
X0187099Y0127918D01*
X0185932Y0127918D01*
X0185348Y0127334D01*
X0185348Y0124999D01*
X0185932Y0124415D01*
X0192714Y0124415D02*
X0195049Y0126750D01*
X0195049Y0127334D01*
X0194466Y0127918D01*
X0193298Y0127918D01*
X0192714Y0127334D01*
X0192714Y0124415D02*
X0195049Y0124415D01*
X0199100Y0164413D02*
X0189100Y0164413D01*
X0189100Y0173913D01*
X0199100Y0173913D01*
X0199100Y0164413D01*
X0209100Y0164413D02*
X0219100Y0164413D01*
X0219100Y0173913D01*
X0209100Y0173913D01*
X0209100Y0164413D01*
X0214594Y0177200D02*
X0216929Y0177200D01*
X0215762Y0177200D02*
X0215762Y0180703D01*
X0214594Y0179536D01*
X0179100Y0173913D02*
X0179100Y0164413D01*
X0169100Y0164413D01*
X0169100Y0173913D01*
X0179100Y0173913D01*
X0114480Y0168840D02*
X0114480Y0166505D01*
X0112145Y0168840D01*
X0111561Y0168840D01*
X0110977Y0168256D01*
X0110977Y0167089D01*
X0111561Y0166505D01*
X0111561Y0165157D02*
X0110977Y0164573D01*
X0110977Y0163406D01*
X0111561Y0162822D01*
X0113896Y0162822D01*
X0114480Y0163406D01*
X0114480Y0164573D01*
X0113896Y0165157D01*
X0095850Y0121027D02*
X0095850Y0118692D01*
X0095850Y0119859D02*
X0092347Y0119859D01*
X0093515Y0118692D01*
X0092347Y0117344D02*
X0095850Y0117344D01*
X0094682Y0116176D01*
X0095850Y0115008D01*
X0092347Y0115008D01*
X0092931Y0113661D02*
X0092347Y0113077D01*
X0092347Y0111909D01*
X0092931Y0111325D01*
X0093515Y0111325D01*
X0094099Y0111909D01*
X0094099Y0113077D01*
X0094682Y0113661D01*
X0095266Y0113661D01*
X0095850Y0113077D01*
X0095850Y0111909D01*
X0095266Y0111325D01*
X0074100Y0164413D02*
X0064100Y0164413D01*
X0064100Y0173913D01*
X0074100Y0173913D01*
X0074100Y0164413D01*
X0071929Y0177200D02*
X0069594Y0177200D01*
X0070762Y0177200D02*
X0070762Y0180703D01*
X0069594Y0179536D01*
X0054100Y0173913D02*
X0054100Y0164413D01*
X0044100Y0164413D01*
X0044100Y0173913D01*
X0054100Y0173913D01*
X0034100Y0173913D02*
X0034100Y0164413D01*
X0024100Y0164413D01*
X0024100Y0173913D01*
X0034100Y0173913D01*
X0034351Y0139854D02*
X0032850Y0139854D01*
X0033601Y0139854D02*
X0033601Y0135350D01*
X0034351Y0135350D02*
X0032850Y0135350D01*
X0035919Y0136101D02*
X0035919Y0139103D01*
X0036670Y0139854D01*
X0038171Y0139854D01*
X0038922Y0139103D01*
X0040523Y0138353D02*
X0042024Y0139854D01*
X0042024Y0135350D01*
X0040523Y0135350D02*
X0043526Y0135350D01*
X0038922Y0136101D02*
X0038171Y0135350D01*
X0036670Y0135350D01*
X0035919Y0136101D01*
X0169100Y0053663D02*
X0169100Y0044163D01*
X0179100Y0044163D01*
X0179100Y0053663D01*
X0169100Y0053663D01*
X0189100Y0053663D02*
X0189100Y0044163D01*
X0199100Y0044163D01*
X0199100Y0053663D01*
X0189100Y0053663D01*
X0209100Y0053663D02*
X0209100Y0044163D01*
X0219100Y0044163D01*
X0219100Y0053663D01*
X0209100Y0053663D01*
X0214594Y0056950D02*
X0216929Y0056950D01*
X0215762Y0056950D02*
X0215762Y0060453D01*
X0214594Y0059286D01*
D11*
X0211148Y0061150D02*
X0208212Y0061150D01*
X0208212Y0065554D01*
X0211148Y0065554D01*
X0209680Y0063352D02*
X0208212Y0063352D01*
X0206544Y0064820D02*
X0205810Y0065554D01*
X0204342Y0065554D01*
X0203608Y0064820D01*
X0203608Y0061884D01*
X0204342Y0061150D01*
X0205810Y0061150D01*
X0206544Y0061884D01*
X0201940Y0061150D02*
X0201940Y0065554D01*
X0199004Y0065554D02*
X0199004Y0061150D01*
X0197336Y0061150D02*
X0194400Y0061150D01*
X0194400Y0065554D01*
X0197336Y0065554D01*
X0199004Y0065554D02*
X0201940Y0061150D01*
X0195868Y0063352D02*
X0194400Y0063352D01*
X0192732Y0062618D02*
X0192732Y0061884D01*
X0191998Y0061150D01*
X0190530Y0061150D01*
X0189796Y0061884D01*
X0190530Y0063352D02*
X0191998Y0063352D01*
X0192732Y0062618D01*
X0192732Y0064820D02*
X0191998Y0065554D01*
X0190530Y0065554D01*
X0189796Y0064820D01*
X0189796Y0064086D01*
X0190530Y0063352D01*
X0188128Y0065554D02*
X0185192Y0065554D01*
X0185192Y0061150D01*
X0188128Y0061150D01*
X0186660Y0063352D02*
X0185192Y0063352D01*
X0183524Y0063352D02*
X0183524Y0064820D01*
X0182790Y0065554D01*
X0180588Y0065554D01*
X0180588Y0061150D01*
X0180588Y0062618D02*
X0182790Y0062618D01*
X0183524Y0063352D01*
X0182056Y0062618D02*
X0183524Y0061150D01*
X0180600Y0058537D02*
X0180600Y0069663D01*
X0180100Y0070163D01*
X0180100Y0074163D01*
X0180102Y0074223D01*
X0180107Y0074284D01*
X0180116Y0074343D01*
X0180129Y0074402D01*
X0180145Y0074461D01*
X0180165Y0074518D01*
X0180188Y0074573D01*
X0180215Y0074628D01*
X0180244Y0074680D01*
X0180277Y0074731D01*
X0180313Y0074780D01*
X0180351Y0074826D01*
X0180393Y0074870D01*
X0180437Y0074912D01*
X0180483Y0074950D01*
X0180532Y0074986D01*
X0180583Y0075019D01*
X0180635Y0075048D01*
X0180690Y0075075D01*
X0180745Y0075098D01*
X0180802Y0075118D01*
X0180861Y0075134D01*
X0180920Y0075147D01*
X0180979Y0075156D01*
X0181040Y0075161D01*
X0181100Y0075163D01*
X0187100Y0075163D01*
X0187160Y0075161D01*
X0187221Y0075156D01*
X0187280Y0075147D01*
X0187339Y0075134D01*
X0187398Y0075118D01*
X0187455Y0075098D01*
X0187510Y0075075D01*
X0187565Y0075048D01*
X0187617Y0075019D01*
X0187668Y0074986D01*
X0187717Y0074950D01*
X0187763Y0074912D01*
X0187807Y0074870D01*
X0187849Y0074826D01*
X0187887Y0074780D01*
X0187923Y0074731D01*
X0187956Y0074680D01*
X0187985Y0074628D01*
X0188012Y0074573D01*
X0188035Y0074518D01*
X0188055Y0074461D01*
X0188071Y0074402D01*
X0188084Y0074343D01*
X0188093Y0074284D01*
X0188098Y0074223D01*
X0188100Y0074163D01*
X0188100Y0070163D01*
X0187600Y0069663D01*
X0187600Y0058537D01*
X0188100Y0058037D01*
X0188100Y0054037D01*
X0188098Y0053977D01*
X0188093Y0053916D01*
X0188084Y0053857D01*
X0188071Y0053798D01*
X0188055Y0053739D01*
X0188035Y0053682D01*
X0188012Y0053627D01*
X0187985Y0053572D01*
X0187956Y0053520D01*
X0187923Y0053469D01*
X0187887Y0053420D01*
X0187849Y0053374D01*
X0187807Y0053330D01*
X0187763Y0053288D01*
X0187717Y0053250D01*
X0187668Y0053214D01*
X0187617Y0053181D01*
X0187565Y0053152D01*
X0187510Y0053125D01*
X0187455Y0053102D01*
X0187398Y0053082D01*
X0187339Y0053066D01*
X0187280Y0053053D01*
X0187221Y0053044D01*
X0187160Y0053039D01*
X0187100Y0053037D01*
X0181100Y0053037D01*
X0181040Y0053039D01*
X0180979Y0053044D01*
X0180920Y0053053D01*
X0180861Y0053066D01*
X0180802Y0053082D01*
X0180745Y0053102D01*
X0180690Y0053125D01*
X0180635Y0053152D01*
X0180583Y0053181D01*
X0180532Y0053214D01*
X0180483Y0053250D01*
X0180437Y0053288D01*
X0180393Y0053330D01*
X0180351Y0053374D01*
X0180313Y0053420D01*
X0180277Y0053469D01*
X0180244Y0053520D01*
X0180215Y0053572D01*
X0180188Y0053627D01*
X0180165Y0053682D01*
X0180145Y0053739D01*
X0180129Y0053798D01*
X0180116Y0053857D01*
X0180107Y0053916D01*
X0180102Y0053977D01*
X0180100Y0054037D01*
X0180100Y0058037D01*
X0180600Y0058537D01*
X0178186Y0062618D02*
X0175984Y0062618D01*
X0175984Y0061150D02*
X0175984Y0065554D01*
X0178186Y0065554D01*
X0178920Y0064820D01*
X0178920Y0063352D01*
X0178186Y0062618D01*
X0168982Y0073206D02*
X0159218Y0073206D01*
X0159218Y0044994D01*
X0168982Y0044994D01*
X0168982Y0073206D01*
X0156482Y0073206D02*
X0156482Y0044994D01*
X0146718Y0044994D01*
X0146718Y0073206D01*
X0156482Y0073206D01*
X0135600Y0081100D02*
X0135600Y0097100D01*
X0135598Y0097160D01*
X0135593Y0097221D01*
X0135584Y0097280D01*
X0135571Y0097339D01*
X0135555Y0097398D01*
X0135535Y0097455D01*
X0135512Y0097510D01*
X0135485Y0097565D01*
X0135456Y0097617D01*
X0135423Y0097668D01*
X0135387Y0097717D01*
X0135349Y0097763D01*
X0135307Y0097807D01*
X0135263Y0097849D01*
X0135217Y0097887D01*
X0135168Y0097923D01*
X0135117Y0097956D01*
X0135065Y0097985D01*
X0135010Y0098012D01*
X0134955Y0098035D01*
X0134898Y0098055D01*
X0134839Y0098071D01*
X0134780Y0098084D01*
X0134721Y0098093D01*
X0134660Y0098098D01*
X0134600Y0098100D01*
X0128600Y0098100D01*
X0128540Y0098098D01*
X0128479Y0098093D01*
X0128420Y0098084D01*
X0128361Y0098071D01*
X0128302Y0098055D01*
X0128245Y0098035D01*
X0128190Y0098012D01*
X0128135Y0097985D01*
X0128083Y0097956D01*
X0128032Y0097923D01*
X0127983Y0097887D01*
X0127937Y0097849D01*
X0127893Y0097807D01*
X0127851Y0097763D01*
X0127813Y0097717D01*
X0127777Y0097668D01*
X0127744Y0097617D01*
X0127715Y0097565D01*
X0127688Y0097510D01*
X0127665Y0097455D01*
X0127645Y0097398D01*
X0127629Y0097339D01*
X0127616Y0097280D01*
X0127607Y0097221D01*
X0127602Y0097160D01*
X0127600Y0097100D01*
X0127600Y0081100D01*
X0127602Y0081040D01*
X0127607Y0080979D01*
X0127616Y0080920D01*
X0127629Y0080861D01*
X0127645Y0080802D01*
X0127665Y0080745D01*
X0127688Y0080690D01*
X0127715Y0080635D01*
X0127744Y0080583D01*
X0127777Y0080532D01*
X0127813Y0080483D01*
X0127851Y0080437D01*
X0127893Y0080393D01*
X0127937Y0080351D01*
X0127983Y0080313D01*
X0128032Y0080277D01*
X0128083Y0080244D01*
X0128135Y0080215D01*
X0128190Y0080188D01*
X0128245Y0080165D01*
X0128302Y0080145D01*
X0128361Y0080129D01*
X0128420Y0080116D01*
X0128479Y0080107D01*
X0128540Y0080102D01*
X0128600Y0080100D01*
X0134600Y0080100D01*
X0134660Y0080102D01*
X0134721Y0080107D01*
X0134780Y0080116D01*
X0134839Y0080129D01*
X0134898Y0080145D01*
X0134955Y0080165D01*
X0135010Y0080188D01*
X0135065Y0080215D01*
X0135117Y0080244D01*
X0135168Y0080277D01*
X0135217Y0080313D01*
X0135263Y0080351D01*
X0135307Y0080393D01*
X0135349Y0080437D01*
X0135387Y0080483D01*
X0135423Y0080532D01*
X0135456Y0080583D01*
X0135485Y0080635D01*
X0135512Y0080690D01*
X0135535Y0080745D01*
X0135555Y0080802D01*
X0135571Y0080861D01*
X0135584Y0080920D01*
X0135593Y0080979D01*
X0135598Y0081040D01*
X0135600Y0081100D01*
X0125600Y0081100D02*
X0125600Y0097100D01*
X0125598Y0097160D01*
X0125593Y0097221D01*
X0125584Y0097280D01*
X0125571Y0097339D01*
X0125555Y0097398D01*
X0125535Y0097455D01*
X0125512Y0097510D01*
X0125485Y0097565D01*
X0125456Y0097617D01*
X0125423Y0097668D01*
X0125387Y0097717D01*
X0125349Y0097763D01*
X0125307Y0097807D01*
X0125263Y0097849D01*
X0125217Y0097887D01*
X0125168Y0097923D01*
X0125117Y0097956D01*
X0125065Y0097985D01*
X0125010Y0098012D01*
X0124955Y0098035D01*
X0124898Y0098055D01*
X0124839Y0098071D01*
X0124780Y0098084D01*
X0124721Y0098093D01*
X0124660Y0098098D01*
X0124600Y0098100D01*
X0118600Y0098100D01*
X0118540Y0098098D01*
X0118479Y0098093D01*
X0118420Y0098084D01*
X0118361Y0098071D01*
X0118302Y0098055D01*
X0118245Y0098035D01*
X0118190Y0098012D01*
X0118135Y0097985D01*
X0118083Y0097956D01*
X0118032Y0097923D01*
X0117983Y0097887D01*
X0117937Y0097849D01*
X0117893Y0097807D01*
X0117851Y0097763D01*
X0117813Y0097717D01*
X0117777Y0097668D01*
X0117744Y0097617D01*
X0117715Y0097565D01*
X0117688Y0097510D01*
X0117665Y0097455D01*
X0117645Y0097398D01*
X0117629Y0097339D01*
X0117616Y0097280D01*
X0117607Y0097221D01*
X0117602Y0097160D01*
X0117600Y0097100D01*
X0117600Y0081100D01*
X0117602Y0081040D01*
X0117607Y0080979D01*
X0117616Y0080920D01*
X0117629Y0080861D01*
X0117645Y0080802D01*
X0117665Y0080745D01*
X0117688Y0080690D01*
X0117715Y0080635D01*
X0117744Y0080583D01*
X0117777Y0080532D01*
X0117813Y0080483D01*
X0117851Y0080437D01*
X0117893Y0080393D01*
X0117937Y0080351D01*
X0117983Y0080313D01*
X0118032Y0080277D01*
X0118083Y0080244D01*
X0118135Y0080215D01*
X0118190Y0080188D01*
X0118245Y0080165D01*
X0118302Y0080145D01*
X0118361Y0080129D01*
X0118420Y0080116D01*
X0118479Y0080107D01*
X0118540Y0080102D01*
X0118600Y0080100D01*
X0124600Y0080100D01*
X0124660Y0080102D01*
X0124721Y0080107D01*
X0124780Y0080116D01*
X0124839Y0080129D01*
X0124898Y0080145D01*
X0124955Y0080165D01*
X0125010Y0080188D01*
X0125065Y0080215D01*
X0125117Y0080244D01*
X0125168Y0080277D01*
X0125217Y0080313D01*
X0125263Y0080351D01*
X0125307Y0080393D01*
X0125349Y0080437D01*
X0125387Y0080483D01*
X0125423Y0080532D01*
X0125456Y0080583D01*
X0125485Y0080635D01*
X0125512Y0080690D01*
X0125535Y0080745D01*
X0125555Y0080802D01*
X0125571Y0080861D01*
X0125584Y0080920D01*
X0125593Y0080979D01*
X0125598Y0081040D01*
X0125600Y0081100D01*
X0115600Y0081100D02*
X0115600Y0097100D01*
X0115598Y0097160D01*
X0115593Y0097221D01*
X0115584Y0097280D01*
X0115571Y0097339D01*
X0115555Y0097398D01*
X0115535Y0097455D01*
X0115512Y0097510D01*
X0115485Y0097565D01*
X0115456Y0097617D01*
X0115423Y0097668D01*
X0115387Y0097717D01*
X0115349Y0097763D01*
X0115307Y0097807D01*
X0115263Y0097849D01*
X0115217Y0097887D01*
X0115168Y0097923D01*
X0115117Y0097956D01*
X0115065Y0097985D01*
X0115010Y0098012D01*
X0114955Y0098035D01*
X0114898Y0098055D01*
X0114839Y0098071D01*
X0114780Y0098084D01*
X0114721Y0098093D01*
X0114660Y0098098D01*
X0114600Y0098100D01*
X0108600Y0098100D01*
X0108540Y0098098D01*
X0108479Y0098093D01*
X0108420Y0098084D01*
X0108361Y0098071D01*
X0108302Y0098055D01*
X0108245Y0098035D01*
X0108190Y0098012D01*
X0108135Y0097985D01*
X0108083Y0097956D01*
X0108032Y0097923D01*
X0107983Y0097887D01*
X0107937Y0097849D01*
X0107893Y0097807D01*
X0107851Y0097763D01*
X0107813Y0097717D01*
X0107777Y0097668D01*
X0107744Y0097617D01*
X0107715Y0097565D01*
X0107688Y0097510D01*
X0107665Y0097455D01*
X0107645Y0097398D01*
X0107629Y0097339D01*
X0107616Y0097280D01*
X0107607Y0097221D01*
X0107602Y0097160D01*
X0107600Y0097100D01*
X0107600Y0081100D01*
X0107602Y0081040D01*
X0107607Y0080979D01*
X0107616Y0080920D01*
X0107629Y0080861D01*
X0107645Y0080802D01*
X0107665Y0080745D01*
X0107688Y0080690D01*
X0107715Y0080635D01*
X0107744Y0080583D01*
X0107777Y0080532D01*
X0107813Y0080483D01*
X0107851Y0080437D01*
X0107893Y0080393D01*
X0107937Y0080351D01*
X0107983Y0080313D01*
X0108032Y0080277D01*
X0108083Y0080244D01*
X0108135Y0080215D01*
X0108190Y0080188D01*
X0108245Y0080165D01*
X0108302Y0080145D01*
X0108361Y0080129D01*
X0108420Y0080116D01*
X0108479Y0080107D01*
X0108540Y0080102D01*
X0108600Y0080100D01*
X0114600Y0080100D01*
X0114660Y0080102D01*
X0114721Y0080107D01*
X0114780Y0080116D01*
X0114839Y0080129D01*
X0114898Y0080145D01*
X0114955Y0080165D01*
X0115010Y0080188D01*
X0115065Y0080215D01*
X0115117Y0080244D01*
X0115168Y0080277D01*
X0115217Y0080313D01*
X0115263Y0080351D01*
X0115307Y0080393D01*
X0115349Y0080437D01*
X0115387Y0080483D01*
X0115423Y0080532D01*
X0115456Y0080583D01*
X0115485Y0080635D01*
X0115512Y0080690D01*
X0115535Y0080745D01*
X0115555Y0080802D01*
X0115571Y0080861D01*
X0115584Y0080920D01*
X0115593Y0080979D01*
X0115598Y0081040D01*
X0115600Y0081100D01*
X0105600Y0081100D02*
X0105600Y0097100D01*
X0105598Y0097160D01*
X0105593Y0097221D01*
X0105584Y0097280D01*
X0105571Y0097339D01*
X0105555Y0097398D01*
X0105535Y0097455D01*
X0105512Y0097510D01*
X0105485Y0097565D01*
X0105456Y0097617D01*
X0105423Y0097668D01*
X0105387Y0097717D01*
X0105349Y0097763D01*
X0105307Y0097807D01*
X0105263Y0097849D01*
X0105217Y0097887D01*
X0105168Y0097923D01*
X0105117Y0097956D01*
X0105065Y0097985D01*
X0105010Y0098012D01*
X0104955Y0098035D01*
X0104898Y0098055D01*
X0104839Y0098071D01*
X0104780Y0098084D01*
X0104721Y0098093D01*
X0104660Y0098098D01*
X0104600Y0098100D01*
X0098600Y0098100D01*
X0098540Y0098098D01*
X0098479Y0098093D01*
X0098420Y0098084D01*
X0098361Y0098071D01*
X0098302Y0098055D01*
X0098245Y0098035D01*
X0098190Y0098012D01*
X0098135Y0097985D01*
X0098083Y0097956D01*
X0098032Y0097923D01*
X0097983Y0097887D01*
X0097937Y0097849D01*
X0097893Y0097807D01*
X0097851Y0097763D01*
X0097813Y0097717D01*
X0097777Y0097668D01*
X0097744Y0097617D01*
X0097715Y0097565D01*
X0097688Y0097510D01*
X0097665Y0097455D01*
X0097645Y0097398D01*
X0097629Y0097339D01*
X0097616Y0097280D01*
X0097607Y0097221D01*
X0097602Y0097160D01*
X0097600Y0097100D01*
X0097600Y0081100D01*
X0097602Y0081040D01*
X0097607Y0080979D01*
X0097616Y0080920D01*
X0097629Y0080861D01*
X0097645Y0080802D01*
X0097665Y0080745D01*
X0097688Y0080690D01*
X0097715Y0080635D01*
X0097744Y0080583D01*
X0097777Y0080532D01*
X0097813Y0080483D01*
X0097851Y0080437D01*
X0097893Y0080393D01*
X0097937Y0080351D01*
X0097983Y0080313D01*
X0098032Y0080277D01*
X0098083Y0080244D01*
X0098135Y0080215D01*
X0098190Y0080188D01*
X0098245Y0080165D01*
X0098302Y0080145D01*
X0098361Y0080129D01*
X0098420Y0080116D01*
X0098479Y0080107D01*
X0098540Y0080102D01*
X0098600Y0080100D01*
X0104600Y0080100D01*
X0104660Y0080102D01*
X0104721Y0080107D01*
X0104780Y0080116D01*
X0104839Y0080129D01*
X0104898Y0080145D01*
X0104955Y0080165D01*
X0105010Y0080188D01*
X0105065Y0080215D01*
X0105117Y0080244D01*
X0105168Y0080277D01*
X0105217Y0080313D01*
X0105263Y0080351D01*
X0105307Y0080393D01*
X0105349Y0080437D01*
X0105387Y0080483D01*
X0105423Y0080532D01*
X0105456Y0080583D01*
X0105485Y0080635D01*
X0105512Y0080690D01*
X0105535Y0080745D01*
X0105555Y0080802D01*
X0105571Y0080861D01*
X0105584Y0080920D01*
X0105593Y0080979D01*
X0105598Y0081040D01*
X0105600Y0081100D01*
X0099600Y0073100D02*
X0083600Y0073100D01*
X0083540Y0073098D01*
X0083479Y0073093D01*
X0083420Y0073084D01*
X0083361Y0073071D01*
X0083302Y0073055D01*
X0083245Y0073035D01*
X0083190Y0073012D01*
X0083135Y0072985D01*
X0083083Y0072956D01*
X0083032Y0072923D01*
X0082983Y0072887D01*
X0082937Y0072849D01*
X0082893Y0072807D01*
X0082851Y0072763D01*
X0082813Y0072717D01*
X0082777Y0072668D01*
X0082744Y0072617D01*
X0082715Y0072565D01*
X0082688Y0072510D01*
X0082665Y0072455D01*
X0082645Y0072398D01*
X0082629Y0072339D01*
X0082616Y0072280D01*
X0082607Y0072221D01*
X0082602Y0072160D01*
X0082600Y0072100D01*
X0082600Y0066100D01*
X0082602Y0066040D01*
X0082607Y0065979D01*
X0082616Y0065920D01*
X0082629Y0065861D01*
X0082645Y0065802D01*
X0082665Y0065745D01*
X0082688Y0065690D01*
X0082715Y0065635D01*
X0082744Y0065583D01*
X0082777Y0065532D01*
X0082813Y0065483D01*
X0082851Y0065437D01*
X0082893Y0065393D01*
X0082937Y0065351D01*
X0082983Y0065313D01*
X0083032Y0065277D01*
X0083083Y0065244D01*
X0083135Y0065215D01*
X0083190Y0065188D01*
X0083245Y0065165D01*
X0083302Y0065145D01*
X0083361Y0065129D01*
X0083420Y0065116D01*
X0083479Y0065107D01*
X0083540Y0065102D01*
X0083600Y0065100D01*
X0099600Y0065100D01*
X0099660Y0065102D01*
X0099721Y0065107D01*
X0099780Y0065116D01*
X0099839Y0065129D01*
X0099898Y0065145D01*
X0099955Y0065165D01*
X0100010Y0065188D01*
X0100065Y0065215D01*
X0100117Y0065244D01*
X0100168Y0065277D01*
X0100217Y0065313D01*
X0100263Y0065351D01*
X0100307Y0065393D01*
X0100349Y0065437D01*
X0100387Y0065483D01*
X0100423Y0065532D01*
X0100456Y0065583D01*
X0100485Y0065635D01*
X0100512Y0065690D01*
X0100535Y0065745D01*
X0100555Y0065802D01*
X0100571Y0065861D01*
X0100584Y0065920D01*
X0100593Y0065979D01*
X0100598Y0066040D01*
X0100600Y0066100D01*
X0100600Y0072100D01*
X0100598Y0072160D01*
X0100593Y0072221D01*
X0100584Y0072280D01*
X0100571Y0072339D01*
X0100555Y0072398D01*
X0100535Y0072455D01*
X0100512Y0072510D01*
X0100485Y0072565D01*
X0100456Y0072617D01*
X0100423Y0072668D01*
X0100387Y0072717D01*
X0100349Y0072763D01*
X0100307Y0072807D01*
X0100263Y0072849D01*
X0100217Y0072887D01*
X0100168Y0072923D01*
X0100117Y0072956D01*
X0100065Y0072985D01*
X0100010Y0073012D01*
X0099955Y0073035D01*
X0099898Y0073055D01*
X0099839Y0073071D01*
X0099780Y0073084D01*
X0099721Y0073093D01*
X0099660Y0073098D01*
X0099600Y0073100D01*
X0099600Y0063100D02*
X0083600Y0063100D01*
X0083540Y0063098D01*
X0083479Y0063093D01*
X0083420Y0063084D01*
X0083361Y0063071D01*
X0083302Y0063055D01*
X0083245Y0063035D01*
X0083190Y0063012D01*
X0083135Y0062985D01*
X0083083Y0062956D01*
X0083032Y0062923D01*
X0082983Y0062887D01*
X0082937Y0062849D01*
X0082893Y0062807D01*
X0082851Y0062763D01*
X0082813Y0062717D01*
X0082777Y0062668D01*
X0082744Y0062617D01*
X0082715Y0062565D01*
X0082688Y0062510D01*
X0082665Y0062455D01*
X0082645Y0062398D01*
X0082629Y0062339D01*
X0082616Y0062280D01*
X0082607Y0062221D01*
X0082602Y0062160D01*
X0082600Y0062100D01*
X0082600Y0056100D01*
X0082602Y0056040D01*
X0082607Y0055979D01*
X0082616Y0055920D01*
X0082629Y0055861D01*
X0082645Y0055802D01*
X0082665Y0055745D01*
X0082688Y0055690D01*
X0082715Y0055635D01*
X0082744Y0055583D01*
X0082777Y0055532D01*
X0082813Y0055483D01*
X0082851Y0055437D01*
X0082893Y0055393D01*
X0082937Y0055351D01*
X0082983Y0055313D01*
X0083032Y0055277D01*
X0083083Y0055244D01*
X0083135Y0055215D01*
X0083190Y0055188D01*
X0083245Y0055165D01*
X0083302Y0055145D01*
X0083361Y0055129D01*
X0083420Y0055116D01*
X0083479Y0055107D01*
X0083540Y0055102D01*
X0083600Y0055100D01*
X0099600Y0055100D01*
X0099660Y0055102D01*
X0099721Y0055107D01*
X0099780Y0055116D01*
X0099839Y0055129D01*
X0099898Y0055145D01*
X0099955Y0055165D01*
X0100010Y0055188D01*
X0100065Y0055215D01*
X0100117Y0055244D01*
X0100168Y0055277D01*
X0100217Y0055313D01*
X0100263Y0055351D01*
X0100307Y0055393D01*
X0100349Y0055437D01*
X0100387Y0055483D01*
X0100423Y0055532D01*
X0100456Y0055583D01*
X0100485Y0055635D01*
X0100512Y0055690D01*
X0100535Y0055745D01*
X0100555Y0055802D01*
X0100571Y0055861D01*
X0100584Y0055920D01*
X0100593Y0055979D01*
X0100598Y0056040D01*
X0100600Y0056100D01*
X0100600Y0062100D01*
X0100598Y0062160D01*
X0100593Y0062221D01*
X0100584Y0062280D01*
X0100571Y0062339D01*
X0100555Y0062398D01*
X0100535Y0062455D01*
X0100512Y0062510D01*
X0100485Y0062565D01*
X0100456Y0062617D01*
X0100423Y0062668D01*
X0100387Y0062717D01*
X0100349Y0062763D01*
X0100307Y0062807D01*
X0100263Y0062849D01*
X0100217Y0062887D01*
X0100168Y0062923D01*
X0100117Y0062956D01*
X0100065Y0062985D01*
X0100010Y0063012D01*
X0099955Y0063035D01*
X0099898Y0063055D01*
X0099839Y0063071D01*
X0099780Y0063084D01*
X0099721Y0063093D01*
X0099660Y0063098D01*
X0099600Y0063100D01*
X0073100Y0074037D02*
X0073100Y0078037D01*
X0072600Y0078537D01*
X0072600Y0089663D01*
X0073100Y0090163D01*
X0073100Y0094163D01*
X0073098Y0094223D01*
X0073093Y0094284D01*
X0073084Y0094343D01*
X0073071Y0094402D01*
X0073055Y0094461D01*
X0073035Y0094518D01*
X0073012Y0094573D01*
X0072985Y0094628D01*
X0072956Y0094680D01*
X0072923Y0094731D01*
X0072887Y0094780D01*
X0072849Y0094826D01*
X0072807Y0094870D01*
X0072763Y0094912D01*
X0072717Y0094950D01*
X0072668Y0094986D01*
X0072617Y0095019D01*
X0072565Y0095048D01*
X0072510Y0095075D01*
X0072455Y0095098D01*
X0072398Y0095118D01*
X0072339Y0095134D01*
X0072280Y0095147D01*
X0072221Y0095156D01*
X0072160Y0095161D01*
X0072100Y0095163D01*
X0066100Y0095163D01*
X0066040Y0095161D01*
X0065979Y0095156D01*
X0065920Y0095147D01*
X0065861Y0095134D01*
X0065802Y0095118D01*
X0065745Y0095098D01*
X0065690Y0095075D01*
X0065635Y0095048D01*
X0065583Y0095019D01*
X0065532Y0094986D01*
X0065483Y0094950D01*
X0065437Y0094912D01*
X0065393Y0094870D01*
X0065351Y0094826D01*
X0065313Y0094780D01*
X0065277Y0094731D01*
X0065244Y0094680D01*
X0065215Y0094628D01*
X0065188Y0094573D01*
X0065165Y0094518D01*
X0065145Y0094461D01*
X0065129Y0094402D01*
X0065116Y0094343D01*
X0065107Y0094284D01*
X0065102Y0094223D01*
X0065100Y0094163D01*
X0065100Y0090163D01*
X0065600Y0089663D01*
X0065600Y0078537D01*
X0065100Y0078037D01*
X0065100Y0074037D01*
X0065102Y0073977D01*
X0065107Y0073916D01*
X0065116Y0073857D01*
X0065129Y0073798D01*
X0065145Y0073739D01*
X0065165Y0073682D01*
X0065188Y0073627D01*
X0065215Y0073572D01*
X0065244Y0073520D01*
X0065277Y0073469D01*
X0065313Y0073420D01*
X0065351Y0073374D01*
X0065393Y0073330D01*
X0065437Y0073288D01*
X0065483Y0073250D01*
X0065532Y0073214D01*
X0065583Y0073181D01*
X0065635Y0073152D01*
X0065690Y0073125D01*
X0065745Y0073102D01*
X0065802Y0073082D01*
X0065861Y0073066D01*
X0065920Y0073053D01*
X0065979Y0073044D01*
X0066040Y0073039D01*
X0066100Y0073037D01*
X0072100Y0073037D01*
X0072160Y0073039D01*
X0072221Y0073044D01*
X0072280Y0073053D01*
X0072339Y0073066D01*
X0072398Y0073082D01*
X0072455Y0073102D01*
X0072510Y0073125D01*
X0072565Y0073152D01*
X0072617Y0073181D01*
X0072668Y0073214D01*
X0072717Y0073250D01*
X0072763Y0073288D01*
X0072807Y0073330D01*
X0072849Y0073374D01*
X0072887Y0073420D01*
X0072923Y0073469D01*
X0072956Y0073520D01*
X0072985Y0073572D01*
X0073012Y0073627D01*
X0073035Y0073682D01*
X0073055Y0073739D01*
X0073071Y0073798D01*
X0073084Y0073857D01*
X0073093Y0073916D01*
X0073098Y0073977D01*
X0073100Y0074037D01*
X0058206Y0074218D02*
X0058206Y0083982D01*
X0029994Y0083982D01*
X0029994Y0074218D01*
X0058206Y0074218D01*
X0055163Y0072100D02*
X0055163Y0066100D01*
X0055161Y0066040D01*
X0055156Y0065979D01*
X0055147Y0065920D01*
X0055134Y0065861D01*
X0055118Y0065802D01*
X0055098Y0065745D01*
X0055075Y0065690D01*
X0055048Y0065635D01*
X0055019Y0065583D01*
X0054986Y0065532D01*
X0054950Y0065483D01*
X0054912Y0065437D01*
X0054870Y0065393D01*
X0054826Y0065351D01*
X0054780Y0065313D01*
X0054731Y0065277D01*
X0054680Y0065244D01*
X0054628Y0065215D01*
X0054573Y0065188D01*
X0054518Y0065165D01*
X0054461Y0065145D01*
X0054402Y0065129D01*
X0054343Y0065116D01*
X0054284Y0065107D01*
X0054223Y0065102D01*
X0054163Y0065100D01*
X0050163Y0065100D01*
X0049663Y0065600D01*
X0038537Y0065600D01*
X0038037Y0065100D01*
X0034037Y0065100D01*
X0033977Y0065102D01*
X0033916Y0065107D01*
X0033857Y0065116D01*
X0033798Y0065129D01*
X0033739Y0065145D01*
X0033682Y0065165D01*
X0033627Y0065188D01*
X0033572Y0065215D01*
X0033520Y0065244D01*
X0033469Y0065277D01*
X0033420Y0065313D01*
X0033374Y0065351D01*
X0033330Y0065393D01*
X0033288Y0065437D01*
X0033250Y0065483D01*
X0033214Y0065532D01*
X0033181Y0065583D01*
X0033152Y0065635D01*
X0033125Y0065690D01*
X0033102Y0065745D01*
X0033082Y0065802D01*
X0033066Y0065861D01*
X0033053Y0065920D01*
X0033044Y0065979D01*
X0033039Y0066040D01*
X0033037Y0066100D01*
X0033037Y0072100D01*
X0033039Y0072160D01*
X0033044Y0072221D01*
X0033053Y0072280D01*
X0033066Y0072339D01*
X0033082Y0072398D01*
X0033102Y0072455D01*
X0033125Y0072510D01*
X0033152Y0072565D01*
X0033181Y0072617D01*
X0033214Y0072668D01*
X0033250Y0072717D01*
X0033288Y0072763D01*
X0033330Y0072807D01*
X0033374Y0072849D01*
X0033420Y0072887D01*
X0033469Y0072923D01*
X0033520Y0072956D01*
X0033572Y0072985D01*
X0033627Y0073012D01*
X0033682Y0073035D01*
X0033739Y0073055D01*
X0033798Y0073071D01*
X0033857Y0073084D01*
X0033916Y0073093D01*
X0033977Y0073098D01*
X0034037Y0073100D01*
X0038037Y0073100D01*
X0038537Y0072600D01*
X0049663Y0072600D01*
X0050163Y0073100D01*
X0054163Y0073100D01*
X0054223Y0073098D01*
X0054284Y0073093D01*
X0054343Y0073084D01*
X0054402Y0073071D01*
X0054461Y0073055D01*
X0054518Y0073035D01*
X0054573Y0073012D01*
X0054628Y0072985D01*
X0054680Y0072956D01*
X0054731Y0072923D01*
X0054780Y0072887D01*
X0054826Y0072849D01*
X0054870Y0072807D01*
X0054912Y0072763D01*
X0054950Y0072717D01*
X0054986Y0072668D01*
X0055019Y0072617D01*
X0055048Y0072565D01*
X0055075Y0072510D01*
X0055098Y0072455D01*
X0055118Y0072398D01*
X0055134Y0072339D01*
X0055147Y0072280D01*
X0055156Y0072221D01*
X0055161Y0072160D01*
X0055163Y0072100D01*
X0054004Y0065554D02*
X0054004Y0061150D01*
X0056940Y0061150D01*
X0055163Y0062100D02*
X0055163Y0056100D01*
X0055161Y0056040D01*
X0055156Y0055979D01*
X0055147Y0055920D01*
X0055134Y0055861D01*
X0055118Y0055802D01*
X0055098Y0055745D01*
X0055075Y0055690D01*
X0055048Y0055635D01*
X0055019Y0055583D01*
X0054986Y0055532D01*
X0054950Y0055483D01*
X0054912Y0055437D01*
X0054870Y0055393D01*
X0054826Y0055351D01*
X0054780Y0055313D01*
X0054731Y0055277D01*
X0054680Y0055244D01*
X0054628Y0055215D01*
X0054573Y0055188D01*
X0054518Y0055165D01*
X0054461Y0055145D01*
X0054402Y0055129D01*
X0054343Y0055116D01*
X0054284Y0055107D01*
X0054223Y0055102D01*
X0054163Y0055100D01*
X0050163Y0055100D01*
X0049663Y0055600D01*
X0038537Y0055600D01*
X0038037Y0055100D01*
X0034037Y0055100D01*
X0033977Y0055102D01*
X0033916Y0055107D01*
X0033857Y0055116D01*
X0033798Y0055129D01*
X0033739Y0055145D01*
X0033682Y0055165D01*
X0033627Y0055188D01*
X0033572Y0055215D01*
X0033520Y0055244D01*
X0033469Y0055277D01*
X0033420Y0055313D01*
X0033374Y0055351D01*
X0033330Y0055393D01*
X0033288Y0055437D01*
X0033250Y0055483D01*
X0033214Y0055532D01*
X0033181Y0055583D01*
X0033152Y0055635D01*
X0033125Y0055690D01*
X0033102Y0055745D01*
X0033082Y0055802D01*
X0033066Y0055861D01*
X0033053Y0055920D01*
X0033044Y0055979D01*
X0033039Y0056040D01*
X0033037Y0056100D01*
X0033037Y0062100D01*
X0033039Y0062160D01*
X0033044Y0062221D01*
X0033053Y0062280D01*
X0033066Y0062339D01*
X0033082Y0062398D01*
X0033102Y0062455D01*
X0033125Y0062510D01*
X0033152Y0062565D01*
X0033181Y0062617D01*
X0033214Y0062668D01*
X0033250Y0062717D01*
X0033288Y0062763D01*
X0033330Y0062807D01*
X0033374Y0062849D01*
X0033420Y0062887D01*
X0033469Y0062923D01*
X0033520Y0062956D01*
X0033572Y0062985D01*
X0033627Y0063012D01*
X0033682Y0063035D01*
X0033739Y0063055D01*
X0033798Y0063071D01*
X0033857Y0063084D01*
X0033916Y0063093D01*
X0033977Y0063098D01*
X0034037Y0063100D01*
X0038037Y0063100D01*
X0038537Y0062600D01*
X0049663Y0062600D01*
X0050163Y0063100D01*
X0054163Y0063100D01*
X0054004Y0063352D02*
X0055472Y0063352D01*
X0055163Y0062100D02*
X0055161Y0062160D01*
X0055156Y0062221D01*
X0055147Y0062280D01*
X0055134Y0062339D01*
X0055118Y0062398D01*
X0055098Y0062455D01*
X0055075Y0062510D01*
X0055048Y0062565D01*
X0055019Y0062617D01*
X0054986Y0062668D01*
X0054950Y0062717D01*
X0054912Y0062763D01*
X0054870Y0062807D01*
X0054826Y0062849D01*
X0054780Y0062887D01*
X0054731Y0062923D01*
X0054680Y0062956D01*
X0054628Y0062985D01*
X0054573Y0063012D01*
X0054518Y0063035D01*
X0054461Y0063055D01*
X0054402Y0063071D01*
X0054343Y0063084D01*
X0054284Y0063093D01*
X0054223Y0063098D01*
X0054163Y0063100D01*
X0054004Y0065554D02*
X0056940Y0065554D01*
X0052336Y0065554D02*
X0052336Y0061150D01*
X0049400Y0065554D01*
X0049400Y0061150D01*
X0047732Y0061884D02*
X0047732Y0064820D01*
X0046998Y0065554D01*
X0045530Y0065554D01*
X0044796Y0064820D01*
X0044796Y0061884D01*
X0045530Y0061150D01*
X0046998Y0061150D01*
X0047732Y0061884D01*
X0043128Y0065554D02*
X0040192Y0065554D01*
X0041660Y0065554D02*
X0041660Y0061150D01*
X0038037Y0085100D02*
X0034037Y0085100D01*
X0033977Y0085102D01*
X0033916Y0085107D01*
X0033857Y0085116D01*
X0033798Y0085129D01*
X0033739Y0085145D01*
X0033682Y0085165D01*
X0033627Y0085188D01*
X0033572Y0085215D01*
X0033520Y0085244D01*
X0033469Y0085277D01*
X0033420Y0085313D01*
X0033374Y0085351D01*
X0033330Y0085393D01*
X0033288Y0085437D01*
X0033250Y0085483D01*
X0033214Y0085532D01*
X0033181Y0085583D01*
X0033152Y0085635D01*
X0033125Y0085690D01*
X0033102Y0085745D01*
X0033082Y0085802D01*
X0033066Y0085861D01*
X0033053Y0085920D01*
X0033044Y0085979D01*
X0033039Y0086040D01*
X0033037Y0086100D01*
X0033037Y0092100D01*
X0033039Y0092160D01*
X0033044Y0092221D01*
X0033053Y0092280D01*
X0033066Y0092339D01*
X0033082Y0092398D01*
X0033102Y0092455D01*
X0033125Y0092510D01*
X0033152Y0092565D01*
X0033181Y0092617D01*
X0033214Y0092668D01*
X0033250Y0092717D01*
X0033288Y0092763D01*
X0033330Y0092807D01*
X0033374Y0092849D01*
X0033420Y0092887D01*
X0033469Y0092923D01*
X0033520Y0092956D01*
X0033572Y0092985D01*
X0033627Y0093012D01*
X0033682Y0093035D01*
X0033739Y0093055D01*
X0033798Y0093071D01*
X0033857Y0093084D01*
X0033916Y0093093D01*
X0033977Y0093098D01*
X0034037Y0093100D01*
X0038037Y0093100D01*
X0038537Y0092600D01*
X0049663Y0092600D01*
X0050163Y0093100D01*
X0054163Y0093100D01*
X0054223Y0093098D01*
X0054284Y0093093D01*
X0054343Y0093084D01*
X0054402Y0093071D01*
X0054461Y0093055D01*
X0054518Y0093035D01*
X0054573Y0093012D01*
X0054628Y0092985D01*
X0054680Y0092956D01*
X0054731Y0092923D01*
X0054780Y0092887D01*
X0054826Y0092849D01*
X0054870Y0092807D01*
X0054912Y0092763D01*
X0054950Y0092717D01*
X0054986Y0092668D01*
X0055019Y0092617D01*
X0055048Y0092565D01*
X0055075Y0092510D01*
X0055098Y0092455D01*
X0055118Y0092398D01*
X0055134Y0092339D01*
X0055147Y0092280D01*
X0055156Y0092221D01*
X0055161Y0092160D01*
X0055163Y0092100D01*
X0055163Y0086100D01*
X0055161Y0086040D01*
X0055156Y0085979D01*
X0055147Y0085920D01*
X0055134Y0085861D01*
X0055118Y0085802D01*
X0055098Y0085745D01*
X0055075Y0085690D01*
X0055048Y0085635D01*
X0055019Y0085583D01*
X0054986Y0085532D01*
X0054950Y0085483D01*
X0054912Y0085437D01*
X0054870Y0085393D01*
X0054826Y0085351D01*
X0054780Y0085313D01*
X0054731Y0085277D01*
X0054680Y0085244D01*
X0054628Y0085215D01*
X0054573Y0085188D01*
X0054518Y0085165D01*
X0054461Y0085145D01*
X0054402Y0085129D01*
X0054343Y0085116D01*
X0054284Y0085107D01*
X0054223Y0085102D01*
X0054163Y0085100D01*
X0050163Y0085100D01*
X0049663Y0085600D01*
X0038537Y0085600D01*
X0038037Y0085100D01*
X0032600Y0094100D02*
X0055600Y0094100D01*
X0055600Y0134100D01*
X0048100Y0134100D01*
X0049663Y0135600D02*
X0038537Y0135600D01*
X0038037Y0135100D01*
X0034037Y0135100D01*
X0033977Y0135102D01*
X0033916Y0135107D01*
X0033857Y0135116D01*
X0033798Y0135129D01*
X0033739Y0135145D01*
X0033682Y0135165D01*
X0033627Y0135188D01*
X0033572Y0135215D01*
X0033520Y0135244D01*
X0033469Y0135277D01*
X0033420Y0135313D01*
X0033374Y0135351D01*
X0033330Y0135393D01*
X0033288Y0135437D01*
X0033250Y0135483D01*
X0033214Y0135532D01*
X0033181Y0135583D01*
X0033152Y0135635D01*
X0033125Y0135690D01*
X0033102Y0135745D01*
X0033082Y0135802D01*
X0033066Y0135861D01*
X0033053Y0135920D01*
X0033044Y0135979D01*
X0033039Y0136040D01*
X0033037Y0136100D01*
X0033037Y0142100D01*
X0033039Y0142160D01*
X0033044Y0142221D01*
X0033053Y0142280D01*
X0033066Y0142339D01*
X0033082Y0142398D01*
X0033102Y0142455D01*
X0033125Y0142510D01*
X0033152Y0142565D01*
X0033181Y0142617D01*
X0033214Y0142668D01*
X0033250Y0142717D01*
X0033288Y0142763D01*
X0033330Y0142807D01*
X0033374Y0142849D01*
X0033420Y0142887D01*
X0033469Y0142923D01*
X0033520Y0142956D01*
X0033572Y0142985D01*
X0033627Y0143012D01*
X0033682Y0143035D01*
X0033739Y0143055D01*
X0033798Y0143071D01*
X0033857Y0143084D01*
X0033916Y0143093D01*
X0033977Y0143098D01*
X0034037Y0143100D01*
X0038037Y0143100D01*
X0038537Y0142600D01*
X0049663Y0142600D01*
X0050163Y0143100D01*
X0054163Y0143100D01*
X0054223Y0143098D01*
X0054284Y0143093D01*
X0054343Y0143084D01*
X0054402Y0143071D01*
X0054461Y0143055D01*
X0054518Y0143035D01*
X0054573Y0143012D01*
X0054628Y0142985D01*
X0054680Y0142956D01*
X0054731Y0142923D01*
X0054780Y0142887D01*
X0054826Y0142849D01*
X0054870Y0142807D01*
X0054912Y0142763D01*
X0054950Y0142717D01*
X0054986Y0142668D01*
X0055019Y0142617D01*
X0055048Y0142565D01*
X0055075Y0142510D01*
X0055098Y0142455D01*
X0055118Y0142398D01*
X0055134Y0142339D01*
X0055147Y0142280D01*
X0055156Y0142221D01*
X0055161Y0142160D01*
X0055163Y0142100D01*
X0055163Y0136100D01*
X0055161Y0136040D01*
X0055156Y0135979D01*
X0055147Y0135920D01*
X0055134Y0135861D01*
X0055118Y0135802D01*
X0055098Y0135745D01*
X0055075Y0135690D01*
X0055048Y0135635D01*
X0055019Y0135583D01*
X0054986Y0135532D01*
X0054950Y0135483D01*
X0054912Y0135437D01*
X0054870Y0135393D01*
X0054826Y0135351D01*
X0054780Y0135313D01*
X0054731Y0135277D01*
X0054680Y0135244D01*
X0054628Y0135215D01*
X0054573Y0135188D01*
X0054518Y0135165D01*
X0054461Y0135145D01*
X0054402Y0135129D01*
X0054343Y0135116D01*
X0054284Y0135107D01*
X0054223Y0135102D01*
X0054163Y0135100D01*
X0050163Y0135100D01*
X0049663Y0135600D01*
X0048100Y0134100D02*
X0048098Y0133974D01*
X0048092Y0133849D01*
X0048082Y0133724D01*
X0048068Y0133599D01*
X0048051Y0133474D01*
X0048029Y0133350D01*
X0048004Y0133227D01*
X0047974Y0133105D01*
X0047941Y0132984D01*
X0047904Y0132864D01*
X0047864Y0132745D01*
X0047819Y0132628D01*
X0047771Y0132511D01*
X0047719Y0132397D01*
X0047664Y0132284D01*
X0047605Y0132173D01*
X0047543Y0132064D01*
X0047477Y0131957D01*
X0047408Y0131852D01*
X0047336Y0131749D01*
X0047261Y0131648D01*
X0047182Y0131550D01*
X0047100Y0131455D01*
X0047016Y0131362D01*
X0046928Y0131272D01*
X0046838Y0131184D01*
X0046745Y0131100D01*
X0046650Y0131018D01*
X0046552Y0130939D01*
X0046451Y0130864D01*
X0046348Y0130792D01*
X0046243Y0130723D01*
X0046136Y0130657D01*
X0046027Y0130595D01*
X0045916Y0130536D01*
X0045803Y0130481D01*
X0045689Y0130429D01*
X0045572Y0130381D01*
X0045455Y0130336D01*
X0045336Y0130296D01*
X0045216Y0130259D01*
X0045095Y0130226D01*
X0044973Y0130196D01*
X0044850Y0130171D01*
X0044726Y0130149D01*
X0044601Y0130132D01*
X0044476Y0130118D01*
X0044351Y0130108D01*
X0044226Y0130102D01*
X0044100Y0130100D01*
X0043974Y0130102D01*
X0043849Y0130108D01*
X0043724Y0130118D01*
X0043599Y0130132D01*
X0043474Y0130149D01*
X0043350Y0130171D01*
X0043227Y0130196D01*
X0043105Y0130226D01*
X0042984Y0130259D01*
X0042864Y0130296D01*
X0042745Y0130336D01*
X0042628Y0130381D01*
X0042511Y0130429D01*
X0042397Y0130481D01*
X0042284Y0130536D01*
X0042173Y0130595D01*
X0042064Y0130657D01*
X0041957Y0130723D01*
X0041852Y0130792D01*
X0041749Y0130864D01*
X0041648Y0130939D01*
X0041550Y0131018D01*
X0041455Y0131100D01*
X0041362Y0131184D01*
X0041272Y0131272D01*
X0041184Y0131362D01*
X0041100Y0131455D01*
X0041018Y0131550D01*
X0040939Y0131648D01*
X0040864Y0131749D01*
X0040792Y0131852D01*
X0040723Y0131957D01*
X0040657Y0132064D01*
X0040595Y0132173D01*
X0040536Y0132284D01*
X0040481Y0132397D01*
X0040429Y0132511D01*
X0040381Y0132628D01*
X0040336Y0132745D01*
X0040296Y0132864D01*
X0040259Y0132984D01*
X0040226Y0133105D01*
X0040196Y0133227D01*
X0040171Y0133350D01*
X0040149Y0133474D01*
X0040132Y0133599D01*
X0040118Y0133724D01*
X0040108Y0133849D01*
X0040102Y0133974D01*
X0040100Y0134100D01*
X0032600Y0134100D01*
X0032600Y0094100D01*
X0064100Y0114100D02*
X0064100Y0116600D01*
X0064100Y0124100D01*
X0064102Y0124240D01*
X0064108Y0124380D01*
X0064118Y0124520D01*
X0064131Y0124660D01*
X0064149Y0124799D01*
X0064171Y0124938D01*
X0064196Y0125075D01*
X0064225Y0125213D01*
X0064258Y0125349D01*
X0064295Y0125484D01*
X0064336Y0125618D01*
X0064381Y0125751D01*
X0064429Y0125883D01*
X0064481Y0126013D01*
X0064536Y0126142D01*
X0064595Y0126269D01*
X0064658Y0126395D01*
X0064724Y0126519D01*
X0064793Y0126640D01*
X0064866Y0126760D01*
X0064943Y0126878D01*
X0065022Y0126993D01*
X0065105Y0127107D01*
X0065191Y0127217D01*
X0065280Y0127326D01*
X0065372Y0127432D01*
X0065467Y0127535D01*
X0065564Y0127636D01*
X0065665Y0127733D01*
X0065768Y0127828D01*
X0065874Y0127920D01*
X0065983Y0128009D01*
X0066093Y0128095D01*
X0066207Y0128178D01*
X0066322Y0128257D01*
X0066440Y0128334D01*
X0066560Y0128407D01*
X0066681Y0128476D01*
X0066805Y0128542D01*
X0066931Y0128605D01*
X0067058Y0128664D01*
X0067187Y0128719D01*
X0067317Y0128771D01*
X0067449Y0128819D01*
X0067582Y0128864D01*
X0067716Y0128905D01*
X0067851Y0128942D01*
X0067987Y0128975D01*
X0068125Y0129004D01*
X0068262Y0129029D01*
X0068401Y0129051D01*
X0068540Y0129069D01*
X0068680Y0129082D01*
X0068820Y0129092D01*
X0068960Y0129098D01*
X0069100Y0129100D01*
X0069240Y0129098D01*
X0069380Y0129092D01*
X0069520Y0129082D01*
X0069660Y0129069D01*
X0069799Y0129051D01*
X0069938Y0129029D01*
X0070075Y0129004D01*
X0070213Y0128975D01*
X0070349Y0128942D01*
X0070484Y0128905D01*
X0070618Y0128864D01*
X0070751Y0128819D01*
X0070883Y0128771D01*
X0071013Y0128719D01*
X0071142Y0128664D01*
X0071269Y0128605D01*
X0071395Y0128542D01*
X0071519Y0128476D01*
X0071640Y0128407D01*
X0071760Y0128334D01*
X0071878Y0128257D01*
X0071993Y0128178D01*
X0072107Y0128095D01*
X0072217Y0128009D01*
X0072326Y0127920D01*
X0072432Y0127828D01*
X0072535Y0127733D01*
X0072636Y0127636D01*
X0072733Y0127535D01*
X0072828Y0127432D01*
X0072920Y0127326D01*
X0073009Y0127217D01*
X0073095Y0127107D01*
X0073178Y0126993D01*
X0073257Y0126878D01*
X0073334Y0126760D01*
X0073407Y0126640D01*
X0073476Y0126519D01*
X0073542Y0126395D01*
X0073605Y0126269D01*
X0073664Y0126142D01*
X0073719Y0126013D01*
X0073771Y0125883D01*
X0073819Y0125751D01*
X0073864Y0125618D01*
X0073905Y0125484D01*
X0073942Y0125349D01*
X0073975Y0125213D01*
X0074004Y0125075D01*
X0074029Y0124938D01*
X0074051Y0124799D01*
X0074069Y0124660D01*
X0074082Y0124520D01*
X0074092Y0124380D01*
X0074098Y0124240D01*
X0074100Y0124100D01*
X0074100Y0114100D01*
X0074098Y0113960D01*
X0074092Y0113820D01*
X0074082Y0113680D01*
X0074069Y0113540D01*
X0074051Y0113401D01*
X0074029Y0113262D01*
X0074004Y0113125D01*
X0073975Y0112987D01*
X0073942Y0112851D01*
X0073905Y0112716D01*
X0073864Y0112582D01*
X0073819Y0112449D01*
X0073771Y0112317D01*
X0073719Y0112187D01*
X0073664Y0112058D01*
X0073605Y0111931D01*
X0073542Y0111805D01*
X0073476Y0111681D01*
X0073407Y0111560D01*
X0073334Y0111440D01*
X0073257Y0111322D01*
X0073178Y0111207D01*
X0073095Y0111093D01*
X0073009Y0110983D01*
X0072920Y0110874D01*
X0072828Y0110768D01*
X0072733Y0110665D01*
X0072636Y0110564D01*
X0072535Y0110467D01*
X0072432Y0110372D01*
X0072326Y0110280D01*
X0072217Y0110191D01*
X0072107Y0110105D01*
X0071993Y0110022D01*
X0071878Y0109943D01*
X0071760Y0109866D01*
X0071640Y0109793D01*
X0071519Y0109724D01*
X0071395Y0109658D01*
X0071269Y0109595D01*
X0071142Y0109536D01*
X0071013Y0109481D01*
X0070883Y0109429D01*
X0070751Y0109381D01*
X0070618Y0109336D01*
X0070484Y0109295D01*
X0070349Y0109258D01*
X0070213Y0109225D01*
X0070075Y0109196D01*
X0069938Y0109171D01*
X0069799Y0109149D01*
X0069660Y0109131D01*
X0069520Y0109118D01*
X0069380Y0109108D01*
X0069240Y0109102D01*
X0069100Y0109100D01*
X0068960Y0109102D01*
X0068820Y0109108D01*
X0068680Y0109118D01*
X0068540Y0109131D01*
X0068401Y0109149D01*
X0068262Y0109171D01*
X0068125Y0109196D01*
X0067987Y0109225D01*
X0067851Y0109258D01*
X0067716Y0109295D01*
X0067582Y0109336D01*
X0067449Y0109381D01*
X0067317Y0109429D01*
X0067187Y0109481D01*
X0067058Y0109536D01*
X0066931Y0109595D01*
X0066805Y0109658D01*
X0066681Y0109724D01*
X0066560Y0109793D01*
X0066440Y0109866D01*
X0066322Y0109943D01*
X0066207Y0110022D01*
X0066093Y0110105D01*
X0065983Y0110191D01*
X0065874Y0110280D01*
X0065768Y0110372D01*
X0065665Y0110467D01*
X0065564Y0110564D01*
X0065467Y0110665D01*
X0065372Y0110768D01*
X0065280Y0110874D01*
X0065191Y0110983D01*
X0065105Y0111093D01*
X0065022Y0111207D01*
X0064943Y0111322D01*
X0064866Y0111440D01*
X0064793Y0111560D01*
X0064724Y0111681D01*
X0064658Y0111805D01*
X0064595Y0111931D01*
X0064536Y0112058D01*
X0064481Y0112187D01*
X0064429Y0112317D01*
X0064381Y0112449D01*
X0064336Y0112582D01*
X0064295Y0112716D01*
X0064258Y0112851D01*
X0064225Y0112987D01*
X0064196Y0113125D01*
X0064171Y0113262D01*
X0064149Y0113401D01*
X0064131Y0113540D01*
X0064118Y0113680D01*
X0064108Y0113820D01*
X0064102Y0113960D01*
X0064100Y0114100D01*
X0076718Y0104994D02*
X0086482Y0104994D01*
X0086482Y0133206D01*
X0076718Y0133206D01*
X0076718Y0104994D01*
X0087600Y0104037D02*
X0087600Y0108037D01*
X0088100Y0108537D01*
X0088100Y0119663D01*
X0087600Y0120163D01*
X0087600Y0124163D01*
X0087602Y0124223D01*
X0087607Y0124284D01*
X0087616Y0124343D01*
X0087629Y0124402D01*
X0087645Y0124461D01*
X0087665Y0124518D01*
X0087688Y0124573D01*
X0087715Y0124628D01*
X0087744Y0124680D01*
X0087777Y0124731D01*
X0087813Y0124780D01*
X0087851Y0124826D01*
X0087893Y0124870D01*
X0087937Y0124912D01*
X0087983Y0124950D01*
X0088032Y0124986D01*
X0088083Y0125019D01*
X0088135Y0125048D01*
X0088190Y0125075D01*
X0088245Y0125098D01*
X0088302Y0125118D01*
X0088361Y0125134D01*
X0088420Y0125147D01*
X0088479Y0125156D01*
X0088540Y0125161D01*
X0088600Y0125163D01*
X0094600Y0125163D01*
X0094660Y0125161D01*
X0094721Y0125156D01*
X0094780Y0125147D01*
X0094839Y0125134D01*
X0094898Y0125118D01*
X0094955Y0125098D01*
X0095010Y0125075D01*
X0095065Y0125048D01*
X0095117Y0125019D01*
X0095168Y0124986D01*
X0095217Y0124950D01*
X0095263Y0124912D01*
X0095307Y0124870D01*
X0095349Y0124826D01*
X0095387Y0124780D01*
X0095423Y0124731D01*
X0095456Y0124680D01*
X0095485Y0124628D01*
X0095512Y0124573D01*
X0095535Y0124518D01*
X0095555Y0124461D01*
X0095571Y0124402D01*
X0095584Y0124343D01*
X0095593Y0124284D01*
X0095598Y0124223D01*
X0095600Y0124163D01*
X0095600Y0120163D01*
X0095100Y0119663D01*
X0095100Y0108537D01*
X0095600Y0108037D01*
X0095600Y0104037D01*
X0095598Y0103977D01*
X0095593Y0103916D01*
X0095584Y0103857D01*
X0095571Y0103798D01*
X0095555Y0103739D01*
X0095535Y0103682D01*
X0095512Y0103627D01*
X0095485Y0103572D01*
X0095456Y0103520D01*
X0095423Y0103469D01*
X0095387Y0103420D01*
X0095349Y0103374D01*
X0095307Y0103330D01*
X0095263Y0103288D01*
X0095217Y0103250D01*
X0095168Y0103214D01*
X0095117Y0103181D01*
X0095065Y0103152D01*
X0095010Y0103125D01*
X0094955Y0103102D01*
X0094898Y0103082D01*
X0094839Y0103066D01*
X0094780Y0103053D01*
X0094721Y0103044D01*
X0094660Y0103039D01*
X0094600Y0103037D01*
X0088600Y0103037D01*
X0088540Y0103039D01*
X0088479Y0103044D01*
X0088420Y0103053D01*
X0088361Y0103066D01*
X0088302Y0103082D01*
X0088245Y0103102D01*
X0088190Y0103125D01*
X0088135Y0103152D01*
X0088083Y0103181D01*
X0088032Y0103214D01*
X0087983Y0103250D01*
X0087937Y0103288D01*
X0087893Y0103330D01*
X0087851Y0103374D01*
X0087813Y0103420D01*
X0087777Y0103469D01*
X0087744Y0103520D01*
X0087715Y0103572D01*
X0087688Y0103627D01*
X0087665Y0103682D01*
X0087645Y0103739D01*
X0087629Y0103798D01*
X0087616Y0103857D01*
X0087607Y0103916D01*
X0087602Y0103977D01*
X0087600Y0104037D01*
X0086482Y0134994D02*
X0076718Y0134994D01*
X0076718Y0163206D01*
X0086482Y0163206D01*
X0086482Y0134994D01*
X0088600Y0143037D02*
X0094600Y0143037D01*
X0094660Y0143039D01*
X0094721Y0143044D01*
X0094780Y0143053D01*
X0094839Y0143066D01*
X0094898Y0143082D01*
X0094955Y0143102D01*
X0095010Y0143125D01*
X0095065Y0143152D01*
X0095117Y0143181D01*
X0095168Y0143214D01*
X0095217Y0143250D01*
X0095263Y0143288D01*
X0095307Y0143330D01*
X0095349Y0143374D01*
X0095387Y0143420D01*
X0095423Y0143469D01*
X0095456Y0143520D01*
X0095485Y0143572D01*
X0095512Y0143627D01*
X0095535Y0143682D01*
X0095555Y0143739D01*
X0095571Y0143798D01*
X0095584Y0143857D01*
X0095593Y0143916D01*
X0095598Y0143977D01*
X0095600Y0144037D01*
X0095600Y0148037D01*
X0095100Y0148537D01*
X0095100Y0159663D01*
X0095600Y0160163D01*
X0095600Y0164163D01*
X0095598Y0164223D01*
X0095593Y0164284D01*
X0095584Y0164343D01*
X0095571Y0164402D01*
X0095555Y0164461D01*
X0095535Y0164518D01*
X0095512Y0164573D01*
X0095485Y0164628D01*
X0095456Y0164680D01*
X0095423Y0164731D01*
X0095387Y0164780D01*
X0095349Y0164826D01*
X0095307Y0164870D01*
X0095263Y0164912D01*
X0095217Y0164950D01*
X0095168Y0164986D01*
X0095117Y0165019D01*
X0095065Y0165048D01*
X0095010Y0165075D01*
X0094955Y0165098D01*
X0094898Y0165118D01*
X0094839Y0165134D01*
X0094780Y0165147D01*
X0094721Y0165156D01*
X0094660Y0165161D01*
X0094600Y0165163D01*
X0088600Y0165163D01*
X0088540Y0165161D01*
X0088479Y0165156D01*
X0088420Y0165147D01*
X0088361Y0165134D01*
X0088302Y0165118D01*
X0088245Y0165098D01*
X0088190Y0165075D01*
X0088135Y0165048D01*
X0088083Y0165019D01*
X0088032Y0164986D01*
X0087983Y0164950D01*
X0087937Y0164912D01*
X0087893Y0164870D01*
X0087851Y0164826D01*
X0087813Y0164780D01*
X0087777Y0164731D01*
X0087744Y0164680D01*
X0087715Y0164628D01*
X0087688Y0164573D01*
X0087665Y0164518D01*
X0087645Y0164461D01*
X0087629Y0164402D01*
X0087616Y0164343D01*
X0087607Y0164284D01*
X0087602Y0164223D01*
X0087600Y0164163D01*
X0087600Y0160163D01*
X0088100Y0159663D01*
X0088100Y0148537D01*
X0087600Y0148037D01*
X0087600Y0144037D01*
X0087602Y0143977D01*
X0087607Y0143916D01*
X0087616Y0143857D01*
X0087629Y0143798D01*
X0087645Y0143739D01*
X0087665Y0143682D01*
X0087688Y0143627D01*
X0087715Y0143572D01*
X0087744Y0143520D01*
X0087777Y0143469D01*
X0087813Y0143420D01*
X0087851Y0143374D01*
X0087893Y0143330D01*
X0087937Y0143288D01*
X0087983Y0143250D01*
X0088032Y0143214D01*
X0088083Y0143181D01*
X0088135Y0143152D01*
X0088190Y0143125D01*
X0088245Y0143102D01*
X0088302Y0143082D01*
X0088361Y0143066D01*
X0088420Y0143053D01*
X0088479Y0143044D01*
X0088540Y0143039D01*
X0088600Y0143037D01*
X0073982Y0134994D02*
X0064218Y0134994D01*
X0064218Y0163206D01*
X0073982Y0163206D01*
X0073982Y0134994D01*
X0055163Y0146100D02*
X0055163Y0152100D01*
X0055161Y0152160D01*
X0055156Y0152221D01*
X0055147Y0152280D01*
X0055134Y0152339D01*
X0055118Y0152398D01*
X0055098Y0152455D01*
X0055075Y0152510D01*
X0055048Y0152565D01*
X0055019Y0152617D01*
X0054986Y0152668D01*
X0054950Y0152717D01*
X0054912Y0152763D01*
X0054870Y0152807D01*
X0054826Y0152849D01*
X0054780Y0152887D01*
X0054731Y0152923D01*
X0054680Y0152956D01*
X0054628Y0152985D01*
X0054573Y0153012D01*
X0054518Y0153035D01*
X0054461Y0153055D01*
X0054402Y0153071D01*
X0054343Y0153084D01*
X0054284Y0153093D01*
X0054223Y0153098D01*
X0054163Y0153100D01*
X0050163Y0153100D01*
X0049663Y0152600D01*
X0038537Y0152600D01*
X0038037Y0153100D01*
X0034037Y0153100D01*
X0033977Y0153098D01*
X0033916Y0153093D01*
X0033857Y0153084D01*
X0033798Y0153071D01*
X0033739Y0153055D01*
X0033682Y0153035D01*
X0033627Y0153012D01*
X0033572Y0152985D01*
X0033520Y0152956D01*
X0033469Y0152923D01*
X0033420Y0152887D01*
X0033374Y0152849D01*
X0033330Y0152807D01*
X0033288Y0152763D01*
X0033250Y0152717D01*
X0033214Y0152668D01*
X0033181Y0152617D01*
X0033152Y0152565D01*
X0033125Y0152510D01*
X0033102Y0152455D01*
X0033082Y0152398D01*
X0033066Y0152339D01*
X0033053Y0152280D01*
X0033044Y0152221D01*
X0033039Y0152160D01*
X0033037Y0152100D01*
X0033037Y0146100D01*
X0033039Y0146040D01*
X0033044Y0145979D01*
X0033053Y0145920D01*
X0033066Y0145861D01*
X0033082Y0145802D01*
X0033102Y0145745D01*
X0033125Y0145690D01*
X0033152Y0145635D01*
X0033181Y0145583D01*
X0033214Y0145532D01*
X0033250Y0145483D01*
X0033288Y0145437D01*
X0033330Y0145393D01*
X0033374Y0145351D01*
X0033420Y0145313D01*
X0033469Y0145277D01*
X0033520Y0145244D01*
X0033572Y0145215D01*
X0033627Y0145188D01*
X0033682Y0145165D01*
X0033739Y0145145D01*
X0033798Y0145129D01*
X0033857Y0145116D01*
X0033916Y0145107D01*
X0033977Y0145102D01*
X0034037Y0145100D01*
X0038037Y0145100D01*
X0038537Y0145600D01*
X0049663Y0145600D01*
X0050163Y0145100D01*
X0054163Y0145100D01*
X0054223Y0145102D01*
X0054284Y0145107D01*
X0054343Y0145116D01*
X0054402Y0145129D01*
X0054461Y0145145D01*
X0054518Y0145165D01*
X0054573Y0145188D01*
X0054628Y0145215D01*
X0054680Y0145244D01*
X0054731Y0145277D01*
X0054780Y0145313D01*
X0054826Y0145351D01*
X0054870Y0145393D01*
X0054912Y0145437D01*
X0054950Y0145483D01*
X0054986Y0145532D01*
X0055019Y0145583D01*
X0055048Y0145635D01*
X0055075Y0145690D01*
X0055098Y0145745D01*
X0055118Y0145802D01*
X0055134Y0145861D01*
X0055147Y0145920D01*
X0055156Y0145979D01*
X0055161Y0146040D01*
X0055163Y0146100D01*
X0054163Y0155100D02*
X0050163Y0155100D01*
X0049663Y0155600D01*
X0038537Y0155600D01*
X0038037Y0155100D01*
X0034037Y0155100D01*
X0033977Y0155102D01*
X0033916Y0155107D01*
X0033857Y0155116D01*
X0033798Y0155129D01*
X0033739Y0155145D01*
X0033682Y0155165D01*
X0033627Y0155188D01*
X0033572Y0155215D01*
X0033520Y0155244D01*
X0033469Y0155277D01*
X0033420Y0155313D01*
X0033374Y0155351D01*
X0033330Y0155393D01*
X0033288Y0155437D01*
X0033250Y0155483D01*
X0033214Y0155532D01*
X0033181Y0155583D01*
X0033152Y0155635D01*
X0033125Y0155690D01*
X0033102Y0155745D01*
X0033082Y0155802D01*
X0033066Y0155861D01*
X0033053Y0155920D01*
X0033044Y0155979D01*
X0033039Y0156040D01*
X0033037Y0156100D01*
X0033037Y0162100D01*
X0033039Y0162160D01*
X0033044Y0162221D01*
X0033053Y0162280D01*
X0033066Y0162339D01*
X0033082Y0162398D01*
X0033102Y0162455D01*
X0033125Y0162510D01*
X0033152Y0162565D01*
X0033181Y0162617D01*
X0033214Y0162668D01*
X0033250Y0162717D01*
X0033288Y0162763D01*
X0033330Y0162807D01*
X0033374Y0162849D01*
X0033420Y0162887D01*
X0033469Y0162923D01*
X0033520Y0162956D01*
X0033572Y0162985D01*
X0033627Y0163012D01*
X0033682Y0163035D01*
X0033739Y0163055D01*
X0033798Y0163071D01*
X0033857Y0163084D01*
X0033916Y0163093D01*
X0033977Y0163098D01*
X0034037Y0163100D01*
X0038037Y0163100D01*
X0038537Y0162600D01*
X0049663Y0162600D01*
X0050163Y0163100D01*
X0054163Y0163100D01*
X0054223Y0163098D01*
X0054284Y0163093D01*
X0054343Y0163084D01*
X0054402Y0163071D01*
X0054461Y0163055D01*
X0054518Y0163035D01*
X0054573Y0163012D01*
X0054628Y0162985D01*
X0054680Y0162956D01*
X0054731Y0162923D01*
X0054780Y0162887D01*
X0054826Y0162849D01*
X0054870Y0162807D01*
X0054912Y0162763D01*
X0054950Y0162717D01*
X0054986Y0162668D01*
X0055019Y0162617D01*
X0055048Y0162565D01*
X0055075Y0162510D01*
X0055098Y0162455D01*
X0055118Y0162398D01*
X0055134Y0162339D01*
X0055147Y0162280D01*
X0055156Y0162221D01*
X0055161Y0162160D01*
X0055163Y0162100D01*
X0055163Y0156100D01*
X0055161Y0156040D01*
X0055156Y0155979D01*
X0055147Y0155920D01*
X0055134Y0155861D01*
X0055118Y0155802D01*
X0055098Y0155745D01*
X0055075Y0155690D01*
X0055048Y0155635D01*
X0055019Y0155583D01*
X0054986Y0155532D01*
X0054950Y0155483D01*
X0054912Y0155437D01*
X0054870Y0155393D01*
X0054826Y0155351D01*
X0054780Y0155313D01*
X0054731Y0155277D01*
X0054680Y0155244D01*
X0054628Y0155215D01*
X0054573Y0155188D01*
X0054518Y0155165D01*
X0054461Y0155145D01*
X0054402Y0155129D01*
X0054343Y0155116D01*
X0054284Y0155107D01*
X0054223Y0155102D01*
X0054163Y0155100D01*
X0044100Y0176600D02*
X0041600Y0176600D01*
X0034100Y0176600D01*
X0033960Y0176602D01*
X0033820Y0176608D01*
X0033680Y0176618D01*
X0033540Y0176631D01*
X0033401Y0176649D01*
X0033262Y0176671D01*
X0033125Y0176696D01*
X0032987Y0176725D01*
X0032851Y0176758D01*
X0032716Y0176795D01*
X0032582Y0176836D01*
X0032449Y0176881D01*
X0032317Y0176929D01*
X0032187Y0176981D01*
X0032058Y0177036D01*
X0031931Y0177095D01*
X0031805Y0177158D01*
X0031681Y0177224D01*
X0031560Y0177293D01*
X0031440Y0177366D01*
X0031322Y0177443D01*
X0031207Y0177522D01*
X0031093Y0177605D01*
X0030983Y0177691D01*
X0030874Y0177780D01*
X0030768Y0177872D01*
X0030665Y0177967D01*
X0030564Y0178064D01*
X0030467Y0178165D01*
X0030372Y0178268D01*
X0030280Y0178374D01*
X0030191Y0178483D01*
X0030105Y0178593D01*
X0030022Y0178707D01*
X0029943Y0178822D01*
X0029866Y0178940D01*
X0029793Y0179060D01*
X0029724Y0179181D01*
X0029658Y0179305D01*
X0029595Y0179431D01*
X0029536Y0179558D01*
X0029481Y0179687D01*
X0029429Y0179817D01*
X0029381Y0179949D01*
X0029336Y0180082D01*
X0029295Y0180216D01*
X0029258Y0180351D01*
X0029225Y0180487D01*
X0029196Y0180625D01*
X0029171Y0180762D01*
X0029149Y0180901D01*
X0029131Y0181040D01*
X0029118Y0181180D01*
X0029108Y0181320D01*
X0029102Y0181460D01*
X0029100Y0181600D01*
X0029102Y0181740D01*
X0029108Y0181880D01*
X0029118Y0182020D01*
X0029131Y0182160D01*
X0029149Y0182299D01*
X0029171Y0182438D01*
X0029196Y0182575D01*
X0029225Y0182713D01*
X0029258Y0182849D01*
X0029295Y0182984D01*
X0029336Y0183118D01*
X0029381Y0183251D01*
X0029429Y0183383D01*
X0029481Y0183513D01*
X0029536Y0183642D01*
X0029595Y0183769D01*
X0029658Y0183895D01*
X0029724Y0184019D01*
X0029793Y0184140D01*
X0029866Y0184260D01*
X0029943Y0184378D01*
X0030022Y0184493D01*
X0030105Y0184607D01*
X0030191Y0184717D01*
X0030280Y0184826D01*
X0030372Y0184932D01*
X0030467Y0185035D01*
X0030564Y0185136D01*
X0030665Y0185233D01*
X0030768Y0185328D01*
X0030874Y0185420D01*
X0030983Y0185509D01*
X0031093Y0185595D01*
X0031207Y0185678D01*
X0031322Y0185757D01*
X0031440Y0185834D01*
X0031560Y0185907D01*
X0031681Y0185976D01*
X0031805Y0186042D01*
X0031931Y0186105D01*
X0032058Y0186164D01*
X0032187Y0186219D01*
X0032317Y0186271D01*
X0032449Y0186319D01*
X0032582Y0186364D01*
X0032716Y0186405D01*
X0032851Y0186442D01*
X0032987Y0186475D01*
X0033125Y0186504D01*
X0033262Y0186529D01*
X0033401Y0186551D01*
X0033540Y0186569D01*
X0033680Y0186582D01*
X0033820Y0186592D01*
X0033960Y0186598D01*
X0034100Y0186600D01*
X0044100Y0186600D01*
X0043161Y0185804D02*
X0043895Y0185070D01*
X0043161Y0185804D02*
X0041693Y0185804D01*
X0040959Y0185070D01*
X0040959Y0182134D01*
X0041693Y0181400D01*
X0043161Y0181400D01*
X0043895Y0182134D01*
X0043895Y0183602D01*
X0042427Y0183602D01*
X0044100Y0186600D02*
X0044240Y0186598D01*
X0044380Y0186592D01*
X0044520Y0186582D01*
X0044660Y0186569D01*
X0044799Y0186551D01*
X0044938Y0186529D01*
X0045075Y0186504D01*
X0045213Y0186475D01*
X0045349Y0186442D01*
X0045484Y0186405D01*
X0045618Y0186364D01*
X0045751Y0186319D01*
X0045883Y0186271D01*
X0046013Y0186219D01*
X0046142Y0186164D01*
X0046269Y0186105D01*
X0046395Y0186042D01*
X0046519Y0185976D01*
X0046640Y0185907D01*
X0046760Y0185834D01*
X0046878Y0185757D01*
X0046993Y0185678D01*
X0047107Y0185595D01*
X0047217Y0185509D01*
X0047326Y0185420D01*
X0047432Y0185328D01*
X0047535Y0185233D01*
X0047636Y0185136D01*
X0047733Y0185035D01*
X0047828Y0184932D01*
X0047920Y0184826D01*
X0048009Y0184717D01*
X0048095Y0184607D01*
X0048178Y0184493D01*
X0048257Y0184378D01*
X0048334Y0184260D01*
X0048407Y0184140D01*
X0048476Y0184019D01*
X0048542Y0183895D01*
X0048605Y0183769D01*
X0048664Y0183642D01*
X0048719Y0183513D01*
X0048771Y0183383D01*
X0048819Y0183251D01*
X0048864Y0183118D01*
X0048905Y0182984D01*
X0048942Y0182849D01*
X0048975Y0182713D01*
X0049004Y0182575D01*
X0049029Y0182438D01*
X0049051Y0182299D01*
X0049069Y0182160D01*
X0049082Y0182020D01*
X0049092Y0181880D01*
X0049098Y0181740D01*
X0049100Y0181600D01*
X0048499Y0181400D02*
X0048499Y0184336D01*
X0047031Y0185804D01*
X0045563Y0184336D01*
X0045563Y0181400D01*
X0049100Y0181600D02*
X0049098Y0181460D01*
X0049092Y0181320D01*
X0049082Y0181180D01*
X0049069Y0181040D01*
X0049051Y0180901D01*
X0049029Y0180762D01*
X0049004Y0180625D01*
X0048975Y0180487D01*
X0048942Y0180351D01*
X0048905Y0180216D01*
X0048864Y0180082D01*
X0048819Y0179949D01*
X0048771Y0179817D01*
X0048719Y0179687D01*
X0048664Y0179558D01*
X0048605Y0179431D01*
X0048542Y0179305D01*
X0048476Y0179181D01*
X0048407Y0179060D01*
X0048334Y0178940D01*
X0048257Y0178822D01*
X0048178Y0178707D01*
X0048095Y0178593D01*
X0048009Y0178483D01*
X0047920Y0178374D01*
X0047828Y0178268D01*
X0047733Y0178165D01*
X0047636Y0178064D01*
X0047535Y0177967D01*
X0047432Y0177872D01*
X0047326Y0177780D01*
X0047217Y0177691D01*
X0047107Y0177605D01*
X0046993Y0177522D01*
X0046878Y0177443D01*
X0046760Y0177366D01*
X0046640Y0177293D01*
X0046519Y0177224D01*
X0046395Y0177158D01*
X0046269Y0177095D01*
X0046142Y0177036D01*
X0046013Y0176981D01*
X0045883Y0176929D01*
X0045751Y0176881D01*
X0045618Y0176836D01*
X0045484Y0176795D01*
X0045349Y0176758D01*
X0045213Y0176725D01*
X0045075Y0176696D01*
X0044938Y0176671D01*
X0044799Y0176649D01*
X0044660Y0176631D01*
X0044520Y0176618D01*
X0044380Y0176608D01*
X0044240Y0176602D01*
X0044100Y0176600D01*
X0045563Y0183602D02*
X0048499Y0183602D01*
X0050167Y0185804D02*
X0051635Y0185804D01*
X0050901Y0185804D02*
X0050901Y0181400D01*
X0050167Y0181400D02*
X0051635Y0181400D01*
X0053237Y0181400D02*
X0053237Y0185804D01*
X0056172Y0181400D01*
X0056172Y0185804D01*
X0044300Y0216118D02*
X0039896Y0216118D01*
X0039896Y0214650D02*
X0039896Y0217586D01*
X0039896Y0239650D02*
X0039896Y0241852D01*
X0040630Y0242586D01*
X0042098Y0242586D01*
X0042832Y0241852D01*
X0042832Y0239650D01*
X0042832Y0241118D02*
X0044300Y0242586D01*
X0044300Y0239650D02*
X0039896Y0239650D01*
X0040630Y0264650D02*
X0041364Y0264650D01*
X0042098Y0265384D01*
X0042098Y0266852D01*
X0042832Y0267586D01*
X0043566Y0267586D01*
X0044300Y0266852D01*
X0044300Y0265384D01*
X0043566Y0264650D01*
X0040630Y0264650D02*
X0039896Y0265384D01*
X0039896Y0266852D01*
X0040630Y0267586D01*
X0057157Y0272150D02*
X0058625Y0272150D01*
X0057891Y0272150D02*
X0057891Y0276554D01*
X0057157Y0276554D02*
X0058625Y0276554D01*
X0060227Y0276554D02*
X0063163Y0272150D01*
X0063163Y0276554D01*
X0064831Y0276554D02*
X0067033Y0276554D01*
X0067767Y0275820D01*
X0067767Y0274352D01*
X0067033Y0273618D01*
X0064831Y0273618D01*
X0064831Y0272150D02*
X0064831Y0276554D01*
X0069435Y0276554D02*
X0069435Y0272884D01*
X0070169Y0272150D01*
X0071636Y0272150D01*
X0072370Y0272884D01*
X0072370Y0276554D01*
X0074039Y0276554D02*
X0076974Y0276554D01*
X0075506Y0276554D02*
X0075506Y0272150D01*
X0089896Y0269690D02*
X0094300Y0269690D01*
X0089896Y0266754D01*
X0094300Y0266754D01*
X0093566Y0265086D02*
X0094300Y0264352D01*
X0094300Y0262884D01*
X0093566Y0262150D01*
X0092098Y0262884D02*
X0092098Y0264352D01*
X0092832Y0265086D01*
X0093566Y0265086D01*
X0092098Y0262884D02*
X0091364Y0262150D01*
X0090630Y0262150D01*
X0089896Y0262884D01*
X0089896Y0264352D01*
X0090630Y0265086D01*
X0089896Y0244690D02*
X0094300Y0244690D01*
X0089896Y0241754D01*
X0094300Y0241754D01*
X0094300Y0240086D02*
X0092832Y0238618D01*
X0092832Y0239352D02*
X0092832Y0237150D01*
X0094300Y0237150D02*
X0089896Y0237150D01*
X0089896Y0239352D01*
X0090630Y0240086D01*
X0092098Y0240086D01*
X0092832Y0239352D01*
X0094300Y0219690D02*
X0089896Y0219690D01*
X0089896Y0216754D02*
X0094300Y0219690D01*
X0094300Y0216754D02*
X0089896Y0216754D01*
X0089896Y0215086D02*
X0089896Y0212150D01*
X0089896Y0213618D02*
X0094300Y0213618D01*
X0120100Y0189163D02*
X0120100Y0185163D01*
X0120600Y0184663D01*
X0120600Y0173537D01*
X0120100Y0173037D01*
X0120100Y0169037D01*
X0120102Y0168977D01*
X0120107Y0168916D01*
X0120116Y0168857D01*
X0120129Y0168798D01*
X0120145Y0168739D01*
X0120165Y0168682D01*
X0120188Y0168627D01*
X0120215Y0168572D01*
X0120244Y0168520D01*
X0120277Y0168469D01*
X0120313Y0168420D01*
X0120351Y0168374D01*
X0120393Y0168330D01*
X0120437Y0168288D01*
X0120483Y0168250D01*
X0120532Y0168214D01*
X0120583Y0168181D01*
X0120635Y0168152D01*
X0120690Y0168125D01*
X0120745Y0168102D01*
X0120802Y0168082D01*
X0120861Y0168066D01*
X0120920Y0168053D01*
X0120979Y0168044D01*
X0121040Y0168039D01*
X0121100Y0168037D01*
X0127100Y0168037D01*
X0127160Y0168039D01*
X0127221Y0168044D01*
X0127280Y0168053D01*
X0127339Y0168066D01*
X0127398Y0168082D01*
X0127455Y0168102D01*
X0127510Y0168125D01*
X0127565Y0168152D01*
X0127617Y0168181D01*
X0127668Y0168214D01*
X0127717Y0168250D01*
X0127763Y0168288D01*
X0127807Y0168330D01*
X0127849Y0168374D01*
X0127887Y0168420D01*
X0127923Y0168469D01*
X0127956Y0168520D01*
X0127985Y0168572D01*
X0128012Y0168627D01*
X0128035Y0168682D01*
X0128055Y0168739D01*
X0128071Y0168798D01*
X0128084Y0168857D01*
X0128093Y0168916D01*
X0128098Y0168977D01*
X0128100Y0169037D01*
X0128100Y0173037D01*
X0127600Y0173537D01*
X0127600Y0184663D01*
X0128100Y0185163D01*
X0128100Y0189163D01*
X0128098Y0189223D01*
X0128093Y0189284D01*
X0128084Y0189343D01*
X0128071Y0189402D01*
X0128055Y0189461D01*
X0128035Y0189518D01*
X0128012Y0189573D01*
X0127985Y0189628D01*
X0127956Y0189680D01*
X0127923Y0189731D01*
X0127887Y0189780D01*
X0127849Y0189826D01*
X0127807Y0189870D01*
X0127763Y0189912D01*
X0127717Y0189950D01*
X0127668Y0189986D01*
X0127617Y0190019D01*
X0127565Y0190048D01*
X0127510Y0190075D01*
X0127455Y0190098D01*
X0127398Y0190118D01*
X0127339Y0190134D01*
X0127280Y0190147D01*
X0127221Y0190156D01*
X0127160Y0190161D01*
X0127100Y0190163D01*
X0121100Y0190163D01*
X0121040Y0190161D01*
X0120979Y0190156D01*
X0120920Y0190147D01*
X0120861Y0190134D01*
X0120802Y0190118D01*
X0120745Y0190098D01*
X0120690Y0190075D01*
X0120635Y0190048D01*
X0120583Y0190019D01*
X0120532Y0189986D01*
X0120483Y0189950D01*
X0120437Y0189912D01*
X0120393Y0189870D01*
X0120351Y0189826D01*
X0120313Y0189780D01*
X0120277Y0189731D01*
X0120244Y0189680D01*
X0120215Y0189628D01*
X0120188Y0189573D01*
X0120165Y0189518D01*
X0120145Y0189461D01*
X0120129Y0189402D01*
X0120116Y0189343D01*
X0120107Y0189284D01*
X0120102Y0189223D01*
X0120100Y0189163D01*
X0129100Y0191350D02*
X0139100Y0191350D01*
X0139100Y0175350D01*
X0129100Y0175350D01*
X0129100Y0191350D01*
X0131896Y0184918D02*
X0136300Y0184918D01*
X0136300Y0183450D02*
X0136300Y0186386D01*
X0133364Y0183450D02*
X0131896Y0184918D01*
X0132630Y0181782D02*
X0131896Y0181048D01*
X0131896Y0178846D01*
X0136300Y0178846D01*
X0136300Y0181048D01*
X0135566Y0181782D01*
X0132630Y0181782D01*
X0097507Y0168100D02*
X0097510Y0168342D01*
X0097519Y0168583D01*
X0097534Y0168824D01*
X0097554Y0169065D01*
X0097581Y0169305D01*
X0097614Y0169544D01*
X0097652Y0169783D01*
X0097696Y0170020D01*
X0097746Y0170257D01*
X0097802Y0170492D01*
X0097864Y0170725D01*
X0097931Y0170957D01*
X0098004Y0171188D01*
X0098082Y0171416D01*
X0098167Y0171642D01*
X0098256Y0171867D01*
X0098351Y0172089D01*
X0098452Y0172308D01*
X0098558Y0172526D01*
X0098669Y0172740D01*
X0098786Y0172952D01*
X0098907Y0173160D01*
X0099034Y0173366D01*
X0099166Y0173568D01*
X0099303Y0173768D01*
X0099444Y0173963D01*
X0099590Y0174156D01*
X0099741Y0174344D01*
X0099897Y0174529D01*
X0100057Y0174710D01*
X0100221Y0174887D01*
X0100390Y0175060D01*
X0100563Y0175229D01*
X0100740Y0175393D01*
X0100921Y0175553D01*
X0101106Y0175709D01*
X0101294Y0175860D01*
X0101487Y0176006D01*
X0101682Y0176147D01*
X0101882Y0176284D01*
X0102084Y0176416D01*
X0102290Y0176543D01*
X0102498Y0176664D01*
X0102710Y0176781D01*
X0102924Y0176892D01*
X0103142Y0176998D01*
X0103361Y0177099D01*
X0103583Y0177194D01*
X0103808Y0177283D01*
X0104034Y0177368D01*
X0104262Y0177446D01*
X0104493Y0177519D01*
X0104725Y0177586D01*
X0104958Y0177648D01*
X0105193Y0177704D01*
X0105430Y0177754D01*
X0105667Y0177798D01*
X0105906Y0177836D01*
X0106145Y0177869D01*
X0106385Y0177896D01*
X0106626Y0177916D01*
X0106867Y0177931D01*
X0107108Y0177940D01*
X0107350Y0177943D01*
X0107592Y0177940D01*
X0107833Y0177931D01*
X0108074Y0177916D01*
X0108315Y0177896D01*
X0108555Y0177869D01*
X0108794Y0177836D01*
X0109033Y0177798D01*
X0109270Y0177754D01*
X0109507Y0177704D01*
X0109742Y0177648D01*
X0109975Y0177586D01*
X0110207Y0177519D01*
X0110438Y0177446D01*
X0110666Y0177368D01*
X0110892Y0177283D01*
X0111117Y0177194D01*
X0111339Y0177099D01*
X0111558Y0176998D01*
X0111776Y0176892D01*
X0111990Y0176781D01*
X0112202Y0176664D01*
X0112410Y0176543D01*
X0112616Y0176416D01*
X0112818Y0176284D01*
X0113018Y0176147D01*
X0113213Y0176006D01*
X0113406Y0175860D01*
X0113594Y0175709D01*
X0113779Y0175553D01*
X0113960Y0175393D01*
X0114137Y0175229D01*
X0114310Y0175060D01*
X0114479Y0174887D01*
X0114643Y0174710D01*
X0114803Y0174529D01*
X0114959Y0174344D01*
X0115110Y0174156D01*
X0115256Y0173963D01*
X0115397Y0173768D01*
X0115534Y0173568D01*
X0115666Y0173366D01*
X0115793Y0173160D01*
X0115914Y0172952D01*
X0116031Y0172740D01*
X0116142Y0172526D01*
X0116248Y0172308D01*
X0116349Y0172089D01*
X0116444Y0171867D01*
X0116533Y0171642D01*
X0116618Y0171416D01*
X0116696Y0171188D01*
X0116769Y0170957D01*
X0116836Y0170725D01*
X0116898Y0170492D01*
X0116954Y0170257D01*
X0117004Y0170020D01*
X0117048Y0169783D01*
X0117086Y0169544D01*
X0117119Y0169305D01*
X0117146Y0169065D01*
X0117166Y0168824D01*
X0117181Y0168583D01*
X0117190Y0168342D01*
X0117193Y0168100D01*
X0117190Y0167858D01*
X0117181Y0167617D01*
X0117166Y0167376D01*
X0117146Y0167135D01*
X0117119Y0166895D01*
X0117086Y0166656D01*
X0117048Y0166417D01*
X0117004Y0166180D01*
X0116954Y0165943D01*
X0116898Y0165708D01*
X0116836Y0165475D01*
X0116769Y0165243D01*
X0116696Y0165012D01*
X0116618Y0164784D01*
X0116533Y0164558D01*
X0116444Y0164333D01*
X0116349Y0164111D01*
X0116248Y0163892D01*
X0116142Y0163674D01*
X0116031Y0163460D01*
X0115914Y0163248D01*
X0115793Y0163040D01*
X0115666Y0162834D01*
X0115534Y0162632D01*
X0115397Y0162432D01*
X0115256Y0162237D01*
X0115110Y0162044D01*
X0114959Y0161856D01*
X0114803Y0161671D01*
X0114643Y0161490D01*
X0114479Y0161313D01*
X0114310Y0161140D01*
X0114137Y0160971D01*
X0113960Y0160807D01*
X0113779Y0160647D01*
X0113594Y0160491D01*
X0113406Y0160340D01*
X0113213Y0160194D01*
X0113018Y0160053D01*
X0112818Y0159916D01*
X0112616Y0159784D01*
X0112410Y0159657D01*
X0112202Y0159536D01*
X0111990Y0159419D01*
X0111776Y0159308D01*
X0111558Y0159202D01*
X0111339Y0159101D01*
X0111117Y0159006D01*
X0110892Y0158917D01*
X0110666Y0158832D01*
X0110438Y0158754D01*
X0110207Y0158681D01*
X0109975Y0158614D01*
X0109742Y0158552D01*
X0109507Y0158496D01*
X0109270Y0158446D01*
X0109033Y0158402D01*
X0108794Y0158364D01*
X0108555Y0158331D01*
X0108315Y0158304D01*
X0108074Y0158284D01*
X0107833Y0158269D01*
X0107592Y0158260D01*
X0107350Y0158257D01*
X0107108Y0158260D01*
X0106867Y0158269D01*
X0106626Y0158284D01*
X0106385Y0158304D01*
X0106145Y0158331D01*
X0105906Y0158364D01*
X0105667Y0158402D01*
X0105430Y0158446D01*
X0105193Y0158496D01*
X0104958Y0158552D01*
X0104725Y0158614D01*
X0104493Y0158681D01*
X0104262Y0158754D01*
X0104034Y0158832D01*
X0103808Y0158917D01*
X0103583Y0159006D01*
X0103361Y0159101D01*
X0103142Y0159202D01*
X0102924Y0159308D01*
X0102710Y0159419D01*
X0102498Y0159536D01*
X0102290Y0159657D01*
X0102084Y0159784D01*
X0101882Y0159916D01*
X0101682Y0160053D01*
X0101487Y0160194D01*
X0101294Y0160340D01*
X0101106Y0160491D01*
X0100921Y0160647D01*
X0100740Y0160807D01*
X0100563Y0160971D01*
X0100390Y0161140D01*
X0100221Y0161313D01*
X0100057Y0161490D01*
X0099897Y0161671D01*
X0099741Y0161856D01*
X0099590Y0162044D01*
X0099444Y0162237D01*
X0099303Y0162432D01*
X0099166Y0162632D01*
X0099034Y0162834D01*
X0098907Y0163040D01*
X0098786Y0163248D01*
X0098669Y0163460D01*
X0098558Y0163674D01*
X0098452Y0163892D01*
X0098351Y0164111D01*
X0098256Y0164333D01*
X0098167Y0164558D01*
X0098082Y0164784D01*
X0098004Y0165012D01*
X0097931Y0165243D01*
X0097864Y0165475D01*
X0097802Y0165708D01*
X0097746Y0165943D01*
X0097696Y0166180D01*
X0097652Y0166417D01*
X0097614Y0166656D01*
X0097581Y0166895D01*
X0097554Y0167135D01*
X0097534Y0167376D01*
X0097519Y0167617D01*
X0097510Y0167858D01*
X0097507Y0168100D01*
X0101130Y0164227D02*
X0103630Y0164227D01*
X0102410Y0165443D02*
X0102410Y0162843D01*
X0150100Y0124163D02*
X0150100Y0120163D01*
X0150600Y0119663D01*
X0150600Y0108537D01*
X0150100Y0108037D01*
X0150100Y0104037D01*
X0150102Y0103977D01*
X0150107Y0103916D01*
X0150116Y0103857D01*
X0150129Y0103798D01*
X0150145Y0103739D01*
X0150165Y0103682D01*
X0150188Y0103627D01*
X0150215Y0103572D01*
X0150244Y0103520D01*
X0150277Y0103469D01*
X0150313Y0103420D01*
X0150351Y0103374D01*
X0150393Y0103330D01*
X0150437Y0103288D01*
X0150483Y0103250D01*
X0150532Y0103214D01*
X0150583Y0103181D01*
X0150635Y0103152D01*
X0150690Y0103125D01*
X0150745Y0103102D01*
X0150802Y0103082D01*
X0150861Y0103066D01*
X0150920Y0103053D01*
X0150979Y0103044D01*
X0151040Y0103039D01*
X0151100Y0103037D01*
X0157100Y0103037D01*
X0157160Y0103039D01*
X0157221Y0103044D01*
X0157280Y0103053D01*
X0157339Y0103066D01*
X0157398Y0103082D01*
X0157455Y0103102D01*
X0157510Y0103125D01*
X0157565Y0103152D01*
X0157617Y0103181D01*
X0157668Y0103214D01*
X0157717Y0103250D01*
X0157763Y0103288D01*
X0157807Y0103330D01*
X0157849Y0103374D01*
X0157887Y0103420D01*
X0157923Y0103469D01*
X0157956Y0103520D01*
X0157985Y0103572D01*
X0158012Y0103627D01*
X0158035Y0103682D01*
X0158055Y0103739D01*
X0158071Y0103798D01*
X0158084Y0103857D01*
X0158093Y0103916D01*
X0158098Y0103977D01*
X0158100Y0104037D01*
X0158100Y0108037D01*
X0157600Y0108537D01*
X0157600Y0119663D01*
X0158100Y0120163D01*
X0158100Y0124163D01*
X0158098Y0124223D01*
X0158093Y0124284D01*
X0158084Y0124343D01*
X0158071Y0124402D01*
X0158055Y0124461D01*
X0158035Y0124518D01*
X0158012Y0124573D01*
X0157985Y0124628D01*
X0157956Y0124680D01*
X0157923Y0124731D01*
X0157887Y0124780D01*
X0157849Y0124826D01*
X0157807Y0124870D01*
X0157763Y0124912D01*
X0157717Y0124950D01*
X0157668Y0124986D01*
X0157617Y0125019D01*
X0157565Y0125048D01*
X0157510Y0125075D01*
X0157455Y0125098D01*
X0157398Y0125118D01*
X0157339Y0125134D01*
X0157280Y0125147D01*
X0157221Y0125156D01*
X0157160Y0125161D01*
X0157100Y0125163D01*
X0151100Y0125163D01*
X0151040Y0125161D01*
X0150979Y0125156D01*
X0150920Y0125147D01*
X0150861Y0125134D01*
X0150802Y0125118D01*
X0150745Y0125098D01*
X0150690Y0125075D01*
X0150635Y0125048D01*
X0150583Y0125019D01*
X0150532Y0124986D01*
X0150483Y0124950D01*
X0150437Y0124912D01*
X0150393Y0124870D01*
X0150351Y0124826D01*
X0150313Y0124780D01*
X0150277Y0124731D01*
X0150244Y0124680D01*
X0150215Y0124628D01*
X0150188Y0124573D01*
X0150165Y0124518D01*
X0150145Y0124461D01*
X0150129Y0124402D01*
X0150116Y0124343D01*
X0150107Y0124284D01*
X0150102Y0124223D01*
X0150100Y0124163D01*
X0160100Y0124163D02*
X0160100Y0120163D01*
X0160600Y0119663D01*
X0160600Y0108537D01*
X0160100Y0108037D01*
X0160100Y0104037D01*
X0160102Y0103977D01*
X0160107Y0103916D01*
X0160116Y0103857D01*
X0160129Y0103798D01*
X0160145Y0103739D01*
X0160165Y0103682D01*
X0160188Y0103627D01*
X0160215Y0103572D01*
X0160244Y0103520D01*
X0160277Y0103469D01*
X0160313Y0103420D01*
X0160351Y0103374D01*
X0160393Y0103330D01*
X0160437Y0103288D01*
X0160483Y0103250D01*
X0160532Y0103214D01*
X0160583Y0103181D01*
X0160635Y0103152D01*
X0160690Y0103125D01*
X0160745Y0103102D01*
X0160802Y0103082D01*
X0160861Y0103066D01*
X0160920Y0103053D01*
X0160979Y0103044D01*
X0161040Y0103039D01*
X0161100Y0103037D01*
X0167100Y0103037D01*
X0167160Y0103039D01*
X0167221Y0103044D01*
X0167280Y0103053D01*
X0167339Y0103066D01*
X0167398Y0103082D01*
X0167455Y0103102D01*
X0167510Y0103125D01*
X0167565Y0103152D01*
X0167617Y0103181D01*
X0167668Y0103214D01*
X0167717Y0103250D01*
X0167763Y0103288D01*
X0167807Y0103330D01*
X0167849Y0103374D01*
X0167887Y0103420D01*
X0167923Y0103469D01*
X0167956Y0103520D01*
X0167985Y0103572D01*
X0168012Y0103627D01*
X0168035Y0103682D01*
X0168055Y0103739D01*
X0168071Y0103798D01*
X0168084Y0103857D01*
X0168093Y0103916D01*
X0168098Y0103977D01*
X0168100Y0104037D01*
X0168100Y0108037D01*
X0167600Y0108537D01*
X0167600Y0119663D01*
X0168100Y0120163D01*
X0168100Y0124163D01*
X0168098Y0124223D01*
X0168093Y0124284D01*
X0168084Y0124343D01*
X0168071Y0124402D01*
X0168055Y0124461D01*
X0168035Y0124518D01*
X0168012Y0124573D01*
X0167985Y0124628D01*
X0167956Y0124680D01*
X0167923Y0124731D01*
X0167887Y0124780D01*
X0167849Y0124826D01*
X0167807Y0124870D01*
X0167763Y0124912D01*
X0167717Y0124950D01*
X0167668Y0124986D01*
X0167617Y0125019D01*
X0167565Y0125048D01*
X0167510Y0125075D01*
X0167455Y0125098D01*
X0167398Y0125118D01*
X0167339Y0125134D01*
X0167280Y0125147D01*
X0167221Y0125156D01*
X0167160Y0125161D01*
X0167100Y0125163D01*
X0161100Y0125163D01*
X0161040Y0125161D01*
X0160979Y0125156D01*
X0160920Y0125147D01*
X0160861Y0125134D01*
X0160802Y0125118D01*
X0160745Y0125098D01*
X0160690Y0125075D01*
X0160635Y0125048D01*
X0160583Y0125019D01*
X0160532Y0124986D01*
X0160483Y0124950D01*
X0160437Y0124912D01*
X0160393Y0124870D01*
X0160351Y0124826D01*
X0160313Y0124780D01*
X0160277Y0124731D01*
X0160244Y0124680D01*
X0160215Y0124628D01*
X0160188Y0124573D01*
X0160165Y0124518D01*
X0160145Y0124461D01*
X0160129Y0124402D01*
X0160116Y0124343D01*
X0160107Y0124284D01*
X0160102Y0124223D01*
X0160100Y0124163D01*
X0176727Y0105320D02*
X0176727Y0102820D01*
X0177943Y0104040D02*
X0175343Y0104040D01*
X0170757Y0099100D02*
X0170760Y0099342D01*
X0170769Y0099583D01*
X0170784Y0099824D01*
X0170804Y0100065D01*
X0170831Y0100305D01*
X0170864Y0100544D01*
X0170902Y0100783D01*
X0170946Y0101020D01*
X0170996Y0101257D01*
X0171052Y0101492D01*
X0171114Y0101725D01*
X0171181Y0101957D01*
X0171254Y0102188D01*
X0171332Y0102416D01*
X0171417Y0102642D01*
X0171506Y0102867D01*
X0171601Y0103089D01*
X0171702Y0103308D01*
X0171808Y0103526D01*
X0171919Y0103740D01*
X0172036Y0103952D01*
X0172157Y0104160D01*
X0172284Y0104366D01*
X0172416Y0104568D01*
X0172553Y0104768D01*
X0172694Y0104963D01*
X0172840Y0105156D01*
X0172991Y0105344D01*
X0173147Y0105529D01*
X0173307Y0105710D01*
X0173471Y0105887D01*
X0173640Y0106060D01*
X0173813Y0106229D01*
X0173990Y0106393D01*
X0174171Y0106553D01*
X0174356Y0106709D01*
X0174544Y0106860D01*
X0174737Y0107006D01*
X0174932Y0107147D01*
X0175132Y0107284D01*
X0175334Y0107416D01*
X0175540Y0107543D01*
X0175748Y0107664D01*
X0175960Y0107781D01*
X0176174Y0107892D01*
X0176392Y0107998D01*
X0176611Y0108099D01*
X0176833Y0108194D01*
X0177058Y0108283D01*
X0177284Y0108368D01*
X0177512Y0108446D01*
X0177743Y0108519D01*
X0177975Y0108586D01*
X0178208Y0108648D01*
X0178443Y0108704D01*
X0178680Y0108754D01*
X0178917Y0108798D01*
X0179156Y0108836D01*
X0179395Y0108869D01*
X0179635Y0108896D01*
X0179876Y0108916D01*
X0180117Y0108931D01*
X0180358Y0108940D01*
X0180600Y0108943D01*
X0180842Y0108940D01*
X0181083Y0108931D01*
X0181324Y0108916D01*
X0181565Y0108896D01*
X0181805Y0108869D01*
X0182044Y0108836D01*
X0182283Y0108798D01*
X0182520Y0108754D01*
X0182757Y0108704D01*
X0182992Y0108648D01*
X0183225Y0108586D01*
X0183457Y0108519D01*
X0183688Y0108446D01*
X0183916Y0108368D01*
X0184142Y0108283D01*
X0184367Y0108194D01*
X0184589Y0108099D01*
X0184808Y0107998D01*
X0185026Y0107892D01*
X0185240Y0107781D01*
X0185452Y0107664D01*
X0185660Y0107543D01*
X0185866Y0107416D01*
X0186068Y0107284D01*
X0186268Y0107147D01*
X0186463Y0107006D01*
X0186656Y0106860D01*
X0186844Y0106709D01*
X0187029Y0106553D01*
X0187210Y0106393D01*
X0187387Y0106229D01*
X0187560Y0106060D01*
X0187729Y0105887D01*
X0187893Y0105710D01*
X0188053Y0105529D01*
X0188209Y0105344D01*
X0188360Y0105156D01*
X0188506Y0104963D01*
X0188647Y0104768D01*
X0188784Y0104568D01*
X0188916Y0104366D01*
X0189043Y0104160D01*
X0189164Y0103952D01*
X0189281Y0103740D01*
X0189392Y0103526D01*
X0189498Y0103308D01*
X0189599Y0103089D01*
X0189694Y0102867D01*
X0189783Y0102642D01*
X0189868Y0102416D01*
X0189946Y0102188D01*
X0190019Y0101957D01*
X0190086Y0101725D01*
X0190148Y0101492D01*
X0190204Y0101257D01*
X0190254Y0101020D01*
X0190298Y0100783D01*
X0190336Y0100544D01*
X0190369Y0100305D01*
X0190396Y0100065D01*
X0190416Y0099824D01*
X0190431Y0099583D01*
X0190440Y0099342D01*
X0190443Y0099100D01*
X0190440Y0098858D01*
X0190431Y0098617D01*
X0190416Y0098376D01*
X0190396Y0098135D01*
X0190369Y0097895D01*
X0190336Y0097656D01*
X0190298Y0097417D01*
X0190254Y0097180D01*
X0190204Y0096943D01*
X0190148Y0096708D01*
X0190086Y0096475D01*
X0190019Y0096243D01*
X0189946Y0096012D01*
X0189868Y0095784D01*
X0189783Y0095558D01*
X0189694Y0095333D01*
X0189599Y0095111D01*
X0189498Y0094892D01*
X0189392Y0094674D01*
X0189281Y0094460D01*
X0189164Y0094248D01*
X0189043Y0094040D01*
X0188916Y0093834D01*
X0188784Y0093632D01*
X0188647Y0093432D01*
X0188506Y0093237D01*
X0188360Y0093044D01*
X0188209Y0092856D01*
X0188053Y0092671D01*
X0187893Y0092490D01*
X0187729Y0092313D01*
X0187560Y0092140D01*
X0187387Y0091971D01*
X0187210Y0091807D01*
X0187029Y0091647D01*
X0186844Y0091491D01*
X0186656Y0091340D01*
X0186463Y0091194D01*
X0186268Y0091053D01*
X0186068Y0090916D01*
X0185866Y0090784D01*
X0185660Y0090657D01*
X0185452Y0090536D01*
X0185240Y0090419D01*
X0185026Y0090308D01*
X0184808Y0090202D01*
X0184589Y0090101D01*
X0184367Y0090006D01*
X0184142Y0089917D01*
X0183916Y0089832D01*
X0183688Y0089754D01*
X0183457Y0089681D01*
X0183225Y0089614D01*
X0182992Y0089552D01*
X0182757Y0089496D01*
X0182520Y0089446D01*
X0182283Y0089402D01*
X0182044Y0089364D01*
X0181805Y0089331D01*
X0181565Y0089304D01*
X0181324Y0089284D01*
X0181083Y0089269D01*
X0180842Y0089260D01*
X0180600Y0089257D01*
X0180358Y0089260D01*
X0180117Y0089269D01*
X0179876Y0089284D01*
X0179635Y0089304D01*
X0179395Y0089331D01*
X0179156Y0089364D01*
X0178917Y0089402D01*
X0178680Y0089446D01*
X0178443Y0089496D01*
X0178208Y0089552D01*
X0177975Y0089614D01*
X0177743Y0089681D01*
X0177512Y0089754D01*
X0177284Y0089832D01*
X0177058Y0089917D01*
X0176833Y0090006D01*
X0176611Y0090101D01*
X0176392Y0090202D01*
X0176174Y0090308D01*
X0175960Y0090419D01*
X0175748Y0090536D01*
X0175540Y0090657D01*
X0175334Y0090784D01*
X0175132Y0090916D01*
X0174932Y0091053D01*
X0174737Y0091194D01*
X0174544Y0091340D01*
X0174356Y0091491D01*
X0174171Y0091647D01*
X0173990Y0091807D01*
X0173813Y0091971D01*
X0173640Y0092140D01*
X0173471Y0092313D01*
X0173307Y0092490D01*
X0173147Y0092671D01*
X0172991Y0092856D01*
X0172840Y0093044D01*
X0172694Y0093237D01*
X0172553Y0093432D01*
X0172416Y0093632D01*
X0172284Y0093834D01*
X0172157Y0094040D01*
X0172036Y0094248D01*
X0171919Y0094460D01*
X0171808Y0094674D01*
X0171702Y0094892D01*
X0171601Y0095111D01*
X0171506Y0095333D01*
X0171417Y0095558D01*
X0171332Y0095784D01*
X0171254Y0096012D01*
X0171181Y0096243D01*
X0171114Y0096475D01*
X0171052Y0096708D01*
X0170996Y0096943D01*
X0170946Y0097180D01*
X0170902Y0097417D01*
X0170864Y0097656D01*
X0170831Y0097895D01*
X0170804Y0098135D01*
X0170784Y0098376D01*
X0170769Y0098617D01*
X0170760Y0098858D01*
X0170757Y0099100D01*
X0183694Y0131600D02*
X0183696Y0131794D01*
X0183704Y0131988D01*
X0183715Y0132182D01*
X0183732Y0132375D01*
X0183753Y0132568D01*
X0183780Y0132760D01*
X0183810Y0132952D01*
X0183846Y0133142D01*
X0183886Y0133332D01*
X0183931Y0133521D01*
X0183980Y0133709D01*
X0184034Y0133895D01*
X0184093Y0134080D01*
X0184156Y0134263D01*
X0184224Y0134445D01*
X0184296Y0134625D01*
X0184372Y0134804D01*
X0184453Y0134980D01*
X0184538Y0135155D01*
X0184628Y0135327D01*
X0184721Y0135497D01*
X0184819Y0135664D01*
X0184921Y0135830D01*
X0185026Y0135992D01*
X0185136Y0136152D01*
X0185250Y0136310D01*
X0185367Y0136464D01*
X0185489Y0136616D01*
X0185614Y0136764D01*
X0185742Y0136909D01*
X0185874Y0137052D01*
X0186010Y0137190D01*
X0186148Y0137326D01*
X0186291Y0137458D01*
X0186436Y0137586D01*
X0186584Y0137711D01*
X0186736Y0137833D01*
X0186890Y0137950D01*
X0187048Y0138064D01*
X0187208Y0138174D01*
X0187370Y0138279D01*
X0187536Y0138381D01*
X0187703Y0138479D01*
X0187873Y0138572D01*
X0188045Y0138662D01*
X0188220Y0138747D01*
X0188396Y0138828D01*
X0188575Y0138904D01*
X0188755Y0138976D01*
X0188937Y0139044D01*
X0189120Y0139107D01*
X0189305Y0139166D01*
X0189491Y0139220D01*
X0189679Y0139269D01*
X0189868Y0139314D01*
X0190058Y0139354D01*
X0190248Y0139390D01*
X0190440Y0139420D01*
X0190632Y0139447D01*
X0190825Y0139468D01*
X0191018Y0139485D01*
X0191212Y0139496D01*
X0191406Y0139504D01*
X0191600Y0139506D01*
X0191794Y0139504D01*
X0191988Y0139496D01*
X0192182Y0139485D01*
X0192375Y0139468D01*
X0192568Y0139447D01*
X0192760Y0139420D01*
X0192952Y0139390D01*
X0193142Y0139354D01*
X0193332Y0139314D01*
X0193521Y0139269D01*
X0193709Y0139220D01*
X0193895Y0139166D01*
X0194080Y0139107D01*
X0194263Y0139044D01*
X0194445Y0138976D01*
X0194625Y0138904D01*
X0194804Y0138828D01*
X0194980Y0138747D01*
X0195155Y0138662D01*
X0195327Y0138572D01*
X0195497Y0138479D01*
X0195664Y0138381D01*
X0195830Y0138279D01*
X0195992Y0138174D01*
X0196152Y0138064D01*
X0196310Y0137950D01*
X0196464Y0137833D01*
X0196616Y0137711D01*
X0196764Y0137586D01*
X0196909Y0137458D01*
X0197052Y0137326D01*
X0197190Y0137190D01*
X0197326Y0137052D01*
X0197458Y0136909D01*
X0197586Y0136764D01*
X0197711Y0136616D01*
X0197833Y0136464D01*
X0197950Y0136310D01*
X0198064Y0136152D01*
X0198174Y0135992D01*
X0198279Y0135830D01*
X0198381Y0135664D01*
X0198479Y0135497D01*
X0198572Y0135327D01*
X0198662Y0135155D01*
X0198747Y0134980D01*
X0198828Y0134804D01*
X0198904Y0134625D01*
X0198976Y0134445D01*
X0199044Y0134263D01*
X0199107Y0134080D01*
X0199166Y0133895D01*
X0199220Y0133709D01*
X0199269Y0133521D01*
X0199314Y0133332D01*
X0199354Y0133142D01*
X0199390Y0132952D01*
X0199420Y0132760D01*
X0199447Y0132568D01*
X0199468Y0132375D01*
X0199485Y0132182D01*
X0199496Y0131988D01*
X0199504Y0131794D01*
X0199506Y0131600D01*
X0199504Y0131406D01*
X0199496Y0131212D01*
X0199485Y0131018D01*
X0199468Y0130825D01*
X0199447Y0130632D01*
X0199420Y0130440D01*
X0199390Y0130248D01*
X0199354Y0130058D01*
X0199314Y0129868D01*
X0199269Y0129679D01*
X0199220Y0129491D01*
X0199166Y0129305D01*
X0199107Y0129120D01*
X0199044Y0128937D01*
X0198976Y0128755D01*
X0198904Y0128575D01*
X0198828Y0128396D01*
X0198747Y0128220D01*
X0198662Y0128045D01*
X0198572Y0127873D01*
X0198479Y0127703D01*
X0198381Y0127536D01*
X0198279Y0127370D01*
X0198174Y0127208D01*
X0198064Y0127048D01*
X0197950Y0126890D01*
X0197833Y0126736D01*
X0197711Y0126584D01*
X0197586Y0126436D01*
X0197458Y0126291D01*
X0197326Y0126148D01*
X0197190Y0126010D01*
X0197052Y0125874D01*
X0196909Y0125742D01*
X0196764Y0125614D01*
X0196616Y0125489D01*
X0196464Y0125367D01*
X0196310Y0125250D01*
X0196152Y0125136D01*
X0195992Y0125026D01*
X0195830Y0124921D01*
X0195664Y0124819D01*
X0195497Y0124721D01*
X0195327Y0124628D01*
X0195155Y0124538D01*
X0194980Y0124453D01*
X0194804Y0124372D01*
X0194625Y0124296D01*
X0194445Y0124224D01*
X0194263Y0124156D01*
X0194080Y0124093D01*
X0193895Y0124034D01*
X0193709Y0123980D01*
X0193521Y0123931D01*
X0193332Y0123886D01*
X0193142Y0123846D01*
X0192952Y0123810D01*
X0192760Y0123780D01*
X0192568Y0123753D01*
X0192375Y0123732D01*
X0192182Y0123715D01*
X0191988Y0123704D01*
X0191794Y0123696D01*
X0191600Y0123694D01*
X0191406Y0123696D01*
X0191212Y0123704D01*
X0191018Y0123715D01*
X0190825Y0123732D01*
X0190632Y0123753D01*
X0190440Y0123780D01*
X0190248Y0123810D01*
X0190058Y0123846D01*
X0189868Y0123886D01*
X0189679Y0123931D01*
X0189491Y0123980D01*
X0189305Y0124034D01*
X0189120Y0124093D01*
X0188937Y0124156D01*
X0188755Y0124224D01*
X0188575Y0124296D01*
X0188396Y0124372D01*
X0188220Y0124453D01*
X0188045Y0124538D01*
X0187873Y0124628D01*
X0187703Y0124721D01*
X0187536Y0124819D01*
X0187370Y0124921D01*
X0187208Y0125026D01*
X0187048Y0125136D01*
X0186890Y0125250D01*
X0186736Y0125367D01*
X0186584Y0125489D01*
X0186436Y0125614D01*
X0186291Y0125742D01*
X0186148Y0125874D01*
X0186010Y0126010D01*
X0185874Y0126148D01*
X0185742Y0126291D01*
X0185614Y0126436D01*
X0185489Y0126584D01*
X0185367Y0126736D01*
X0185250Y0126890D01*
X0185136Y0127048D01*
X0185026Y0127208D01*
X0184921Y0127370D01*
X0184819Y0127536D01*
X0184721Y0127703D01*
X0184628Y0127873D01*
X0184538Y0128045D01*
X0184453Y0128220D01*
X0184372Y0128396D01*
X0184296Y0128575D01*
X0184224Y0128755D01*
X0184156Y0128937D01*
X0184093Y0129120D01*
X0184034Y0129305D01*
X0183980Y0129491D01*
X0183931Y0129679D01*
X0183886Y0129868D01*
X0183846Y0130058D01*
X0183810Y0130248D01*
X0183780Y0130440D01*
X0183753Y0130632D01*
X0183732Y0130825D01*
X0183715Y0131018D01*
X0183704Y0131212D01*
X0183696Y0131406D01*
X0183694Y0131600D01*
X0187267Y0136372D02*
X0189732Y0136400D01*
X0188515Y0135158D02*
X0188515Y0137658D01*
X0179994Y0141797D02*
X0178903Y0141797D01*
X0179994Y0141797D02*
X0203206Y0141797D01*
X0204297Y0141797D01*
X0204392Y0141799D01*
X0204487Y0141805D01*
X0204582Y0141815D01*
X0204676Y0141828D01*
X0204770Y0141846D01*
X0204862Y0141867D01*
X0204954Y0141893D01*
X0205045Y0141922D01*
X0205134Y0141955D01*
X0205222Y0141991D01*
X0205308Y0142031D01*
X0205393Y0142075D01*
X0205476Y0142122D01*
X0205557Y0142172D01*
X0205635Y0142226D01*
X0205712Y0142283D01*
X0205785Y0142343D01*
X0205857Y0142406D01*
X0205925Y0142472D01*
X0205991Y0142540D01*
X0206054Y0142612D01*
X0206114Y0142685D01*
X0206171Y0142762D01*
X0206225Y0142840D01*
X0206275Y0142921D01*
X0206322Y0143004D01*
X0206366Y0143089D01*
X0206406Y0143175D01*
X0206442Y0143263D01*
X0206475Y0143352D01*
X0206504Y0143443D01*
X0206530Y0143535D01*
X0206551Y0143627D01*
X0206569Y0143721D01*
X0206582Y0143815D01*
X0206592Y0143910D01*
X0206598Y0144005D01*
X0206600Y0144100D01*
X0206600Y0159100D01*
X0206598Y0159195D01*
X0206592Y0159290D01*
X0206582Y0159385D01*
X0206569Y0159479D01*
X0206551Y0159573D01*
X0206530Y0159665D01*
X0206504Y0159757D01*
X0206475Y0159848D01*
X0206442Y0159937D01*
X0206406Y0160025D01*
X0206366Y0160111D01*
X0206322Y0160196D01*
X0206275Y0160279D01*
X0206225Y0160360D01*
X0206171Y0160438D01*
X0206114Y0160515D01*
X0206054Y0160588D01*
X0205991Y0160660D01*
X0205925Y0160728D01*
X0205857Y0160794D01*
X0205785Y0160857D01*
X0205712Y0160917D01*
X0205635Y0160974D01*
X0205557Y0161028D01*
X0205476Y0161078D01*
X0205393Y0161125D01*
X0205308Y0161169D01*
X0205222Y0161209D01*
X0205134Y0161245D01*
X0205045Y0161278D01*
X0204954Y0161307D01*
X0204862Y0161333D01*
X0204770Y0161354D01*
X0204676Y0161372D01*
X0204582Y0161385D01*
X0204487Y0161395D01*
X0204392Y0161401D01*
X0204297Y0161403D01*
X0203206Y0161403D01*
X0182494Y0161403D01*
X0178903Y0161403D01*
X0178808Y0161401D01*
X0178713Y0161395D01*
X0178618Y0161385D01*
X0178524Y0161372D01*
X0178430Y0161354D01*
X0178338Y0161333D01*
X0178246Y0161307D01*
X0178155Y0161278D01*
X0178066Y0161245D01*
X0177978Y0161209D01*
X0177892Y0161169D01*
X0177807Y0161125D01*
X0177724Y0161078D01*
X0177643Y0161028D01*
X0177565Y0160974D01*
X0177488Y0160917D01*
X0177415Y0160857D01*
X0177343Y0160794D01*
X0177275Y0160728D01*
X0177209Y0160660D01*
X0177146Y0160588D01*
X0177086Y0160515D01*
X0177029Y0160438D01*
X0176975Y0160360D01*
X0176925Y0160279D01*
X0176878Y0160196D01*
X0176834Y0160111D01*
X0176794Y0160025D01*
X0176758Y0159937D01*
X0176725Y0159848D01*
X0176696Y0159757D01*
X0176670Y0159665D01*
X0176649Y0159573D01*
X0176631Y0159479D01*
X0176618Y0159385D01*
X0176608Y0159290D01*
X0176602Y0159195D01*
X0176600Y0159100D01*
X0176600Y0144100D01*
X0176602Y0144005D01*
X0176608Y0143910D01*
X0176618Y0143815D01*
X0176631Y0143721D01*
X0176649Y0143627D01*
X0176670Y0143535D01*
X0176696Y0143443D01*
X0176725Y0143352D01*
X0176758Y0143263D01*
X0176794Y0143175D01*
X0176834Y0143089D01*
X0176878Y0143004D01*
X0176925Y0142921D01*
X0176975Y0142840D01*
X0177029Y0142762D01*
X0177086Y0142685D01*
X0177146Y0142612D01*
X0177209Y0142540D01*
X0177275Y0142472D01*
X0177343Y0142406D01*
X0177415Y0142343D01*
X0177488Y0142283D01*
X0177565Y0142226D01*
X0177643Y0142172D01*
X0177724Y0142122D01*
X0177807Y0142075D01*
X0177892Y0142031D01*
X0177978Y0141991D01*
X0178066Y0141955D01*
X0178155Y0141922D01*
X0178246Y0141893D01*
X0178338Y0141867D01*
X0178430Y0141846D01*
X0178524Y0141828D01*
X0178618Y0141815D01*
X0178713Y0141805D01*
X0178808Y0141799D01*
X0178903Y0141797D01*
X0173037Y0177600D02*
X0169037Y0177600D01*
X0168977Y0177602D01*
X0168916Y0177607D01*
X0168857Y0177616D01*
X0168798Y0177629D01*
X0168739Y0177645D01*
X0168682Y0177665D01*
X0168627Y0177688D01*
X0168572Y0177715D01*
X0168520Y0177744D01*
X0168469Y0177777D01*
X0168420Y0177813D01*
X0168374Y0177851D01*
X0168330Y0177893D01*
X0168288Y0177937D01*
X0168250Y0177983D01*
X0168214Y0178032D01*
X0168181Y0178083D01*
X0168152Y0178135D01*
X0168125Y0178190D01*
X0168102Y0178245D01*
X0168082Y0178302D01*
X0168066Y0178361D01*
X0168053Y0178420D01*
X0168044Y0178479D01*
X0168039Y0178540D01*
X0168037Y0178600D01*
X0168037Y0184600D01*
X0168039Y0184660D01*
X0168044Y0184721D01*
X0168053Y0184780D01*
X0168066Y0184839D01*
X0168082Y0184898D01*
X0168102Y0184955D01*
X0168125Y0185010D01*
X0168152Y0185065D01*
X0168181Y0185117D01*
X0168214Y0185168D01*
X0168250Y0185217D01*
X0168288Y0185263D01*
X0168330Y0185307D01*
X0168374Y0185349D01*
X0168420Y0185387D01*
X0168469Y0185423D01*
X0168520Y0185456D01*
X0168572Y0185485D01*
X0168627Y0185512D01*
X0168682Y0185535D01*
X0168739Y0185555D01*
X0168798Y0185571D01*
X0168857Y0185584D01*
X0168916Y0185593D01*
X0168977Y0185598D01*
X0169037Y0185600D01*
X0173037Y0185600D01*
X0173537Y0185100D01*
X0184663Y0185100D01*
X0185163Y0185600D01*
X0189163Y0185600D01*
X0189796Y0185804D02*
X0189796Y0181400D01*
X0192732Y0181400D01*
X0194400Y0182134D02*
X0195134Y0181400D01*
X0196602Y0181400D01*
X0197336Y0182134D01*
X0197336Y0185804D01*
X0199004Y0185804D02*
X0200472Y0184336D01*
X0201940Y0185804D01*
X0201940Y0181400D01*
X0203608Y0181400D02*
X0206544Y0181400D01*
X0205076Y0183602D02*
X0203608Y0183602D01*
X0203608Y0185804D02*
X0203608Y0181400D01*
X0203608Y0185804D02*
X0206544Y0185804D01*
X0199004Y0185804D02*
X0199004Y0181400D01*
X0194400Y0182134D02*
X0194400Y0185804D01*
X0190163Y0184600D02*
X0190163Y0178600D01*
X0190161Y0178540D01*
X0190156Y0178479D01*
X0190147Y0178420D01*
X0190134Y0178361D01*
X0190118Y0178302D01*
X0190098Y0178245D01*
X0190075Y0178190D01*
X0190048Y0178135D01*
X0190019Y0178083D01*
X0189986Y0178032D01*
X0189950Y0177983D01*
X0189912Y0177937D01*
X0189870Y0177893D01*
X0189826Y0177851D01*
X0189780Y0177813D01*
X0189731Y0177777D01*
X0189680Y0177744D01*
X0189628Y0177715D01*
X0189573Y0177688D01*
X0189518Y0177665D01*
X0189461Y0177645D01*
X0189402Y0177629D01*
X0189343Y0177616D01*
X0189284Y0177607D01*
X0189223Y0177602D01*
X0189163Y0177600D01*
X0185163Y0177600D01*
X0184663Y0178100D01*
X0173537Y0178100D01*
X0173037Y0177600D01*
X0180588Y0182868D02*
X0180588Y0185804D01*
X0183524Y0185804D02*
X0183524Y0182868D01*
X0182056Y0181400D01*
X0180588Y0182868D01*
X0185192Y0182134D02*
X0185926Y0181400D01*
X0187394Y0181400D01*
X0188128Y0182134D01*
X0188128Y0185070D01*
X0187394Y0185804D01*
X0185926Y0185804D01*
X0185192Y0185070D01*
X0185192Y0182134D01*
X0189163Y0185600D02*
X0189223Y0185598D01*
X0189284Y0185593D01*
X0189343Y0185584D01*
X0189402Y0185571D01*
X0189461Y0185555D01*
X0189518Y0185535D01*
X0189573Y0185512D01*
X0189628Y0185485D01*
X0189680Y0185456D01*
X0189731Y0185423D01*
X0189780Y0185387D01*
X0189826Y0185349D01*
X0189870Y0185307D01*
X0189912Y0185263D01*
X0189950Y0185217D01*
X0189986Y0185168D01*
X0190019Y0185117D01*
X0190048Y0185065D01*
X0190075Y0185010D01*
X0190098Y0184955D01*
X0190118Y0184898D01*
X0190134Y0184839D01*
X0190147Y0184780D01*
X0190156Y0184721D01*
X0190161Y0184660D01*
X0190163Y0184600D01*
X0198896Y0212150D02*
X0198896Y0215086D01*
X0198896Y0213618D02*
X0203300Y0213618D01*
X0203300Y0216754D02*
X0198896Y0216754D01*
X0203300Y0219690D01*
X0198896Y0219690D01*
X0198896Y0237150D02*
X0198896Y0239352D01*
X0199630Y0240086D01*
X0201098Y0240086D01*
X0201832Y0239352D01*
X0201832Y0237150D01*
X0201832Y0238618D02*
X0203300Y0240086D01*
X0203300Y0241754D02*
X0198896Y0241754D01*
X0203300Y0244690D01*
X0198896Y0244690D01*
X0198896Y0237150D02*
X0203300Y0237150D01*
X0202566Y0262150D02*
X0203300Y0262884D01*
X0203300Y0264352D01*
X0202566Y0265086D01*
X0201832Y0265086D01*
X0201098Y0264352D01*
X0201098Y0262884D01*
X0200364Y0262150D01*
X0199630Y0262150D01*
X0198896Y0262884D01*
X0198896Y0264352D01*
X0199630Y0265086D01*
X0198896Y0266754D02*
X0203300Y0269690D01*
X0198896Y0269690D01*
X0198896Y0266754D02*
X0203300Y0266754D01*
X0187576Y0272150D02*
X0187576Y0276554D01*
X0186108Y0276554D02*
X0189044Y0276554D01*
X0184440Y0276554D02*
X0184440Y0272884D01*
X0183706Y0272150D01*
X0182238Y0272150D01*
X0181504Y0272884D01*
X0181504Y0276554D01*
X0179836Y0275820D02*
X0179836Y0274352D01*
X0179102Y0273618D01*
X0176900Y0273618D01*
X0176900Y0272150D02*
X0176900Y0276554D01*
X0179102Y0276554D01*
X0179836Y0275820D01*
X0175232Y0276554D02*
X0172296Y0276554D01*
X0173764Y0276554D02*
X0173764Y0272150D01*
X0170628Y0272884D02*
X0170628Y0276554D01*
X0170628Y0272884D02*
X0169894Y0272150D01*
X0168426Y0272150D01*
X0167692Y0272884D01*
X0167692Y0276554D01*
X0166024Y0275820D02*
X0165290Y0276554D01*
X0163822Y0276554D01*
X0163088Y0275820D01*
X0163088Y0272884D01*
X0163822Y0272150D01*
X0165290Y0272150D01*
X0166024Y0272884D01*
X0166024Y0275820D01*
X0153300Y0266852D02*
X0153300Y0265384D01*
X0152566Y0264650D01*
X0151098Y0265384D02*
X0151098Y0266852D01*
X0151832Y0267586D01*
X0152566Y0267586D01*
X0153300Y0266852D01*
X0151098Y0265384D02*
X0150364Y0264650D01*
X0149630Y0264650D01*
X0148896Y0265384D01*
X0148896Y0266852D01*
X0149630Y0267586D01*
X0149630Y0242586D02*
X0151098Y0242586D01*
X0151832Y0241852D01*
X0151832Y0239650D01*
X0151832Y0241118D02*
X0153300Y0242586D01*
X0153300Y0239650D02*
X0148896Y0239650D01*
X0148896Y0241852D01*
X0149630Y0242586D01*
X0148896Y0217586D02*
X0148896Y0214650D01*
X0148896Y0216118D02*
X0153300Y0216118D01*
X0060227Y0272150D02*
X0060227Y0276554D01*
D12*
X0041719Y0183453D02*
X0040484Y0182836D01*
X0039250Y0181602D01*
X0041102Y0181602D01*
X0041719Y0180984D01*
X0041719Y0180367D01*
X0041102Y0179750D01*
X0039867Y0179750D01*
X0039250Y0180367D01*
X0039250Y0181602D01*
X0038036Y0182836D02*
X0037418Y0183453D01*
X0036184Y0183453D01*
X0035567Y0182836D01*
X0035567Y0180367D01*
X0036184Y0179750D01*
X0037418Y0179750D01*
X0038036Y0180367D01*
X0067247Y0151719D02*
X0067247Y0149250D01*
X0067864Y0148036D02*
X0067247Y0147418D01*
X0067247Y0146184D01*
X0067864Y0145567D01*
X0070333Y0145567D01*
X0070950Y0146184D01*
X0070950Y0147418D01*
X0070333Y0148036D01*
X0070333Y0149250D02*
X0070950Y0149250D01*
X0070333Y0149250D02*
X0067864Y0151719D01*
X0067247Y0151719D01*
X0079747Y0151102D02*
X0080364Y0151719D01*
X0080981Y0151719D01*
X0081598Y0151102D01*
X0081598Y0149867D01*
X0080981Y0149250D01*
X0080364Y0149250D01*
X0079747Y0149867D01*
X0079747Y0151102D01*
X0081598Y0151102D02*
X0082216Y0151719D01*
X0082833Y0151719D01*
X0083450Y0151102D01*
X0083450Y0149867D01*
X0082833Y0149250D01*
X0082216Y0149250D01*
X0081598Y0149867D01*
X0080364Y0148036D02*
X0079747Y0147418D01*
X0079747Y0146184D01*
X0080364Y0145567D01*
X0082833Y0145567D01*
X0083450Y0146184D01*
X0083450Y0147418D01*
X0082833Y0148036D01*
X0082833Y0121719D02*
X0080364Y0121719D01*
X0079747Y0121102D01*
X0079747Y0119867D01*
X0080364Y0119250D01*
X0080981Y0119250D01*
X0081598Y0119867D01*
X0081598Y0121719D01*
X0082833Y0121719D02*
X0083450Y0121102D01*
X0083450Y0119867D01*
X0082833Y0119250D01*
X0082833Y0118036D02*
X0083450Y0117418D01*
X0083450Y0116184D01*
X0082833Y0115567D01*
X0080364Y0115567D01*
X0079747Y0116184D01*
X0079747Y0117418D01*
X0080364Y0118036D01*
X0070950Y0117418D02*
X0070950Y0116184D01*
X0070333Y0115567D01*
X0067864Y0115567D01*
X0067247Y0116184D01*
X0067247Y0117418D01*
X0067864Y0118036D01*
X0068481Y0119250D02*
X0067247Y0120484D01*
X0070950Y0120484D01*
X0070950Y0119250D02*
X0070950Y0121719D01*
X0070333Y0118036D02*
X0070950Y0117418D01*
X0046719Y0080953D02*
X0044250Y0080953D01*
X0044250Y0079102D01*
X0045484Y0079719D01*
X0046102Y0079719D01*
X0046719Y0079102D01*
X0046719Y0077867D01*
X0046102Y0077250D01*
X0044867Y0077250D01*
X0044250Y0077867D01*
X0043036Y0077867D02*
X0042418Y0077250D01*
X0041184Y0077250D01*
X0040567Y0077867D01*
X0040567Y0080336D01*
X0041184Y0080953D01*
X0042418Y0080953D01*
X0043036Y0080336D01*
X0149747Y0062943D02*
X0150364Y0063560D01*
X0152833Y0061092D01*
X0153450Y0061709D01*
X0153450Y0062943D01*
X0152833Y0063560D01*
X0150364Y0063560D01*
X0149747Y0062943D02*
X0149747Y0061709D01*
X0150364Y0061092D01*
X0152833Y0061092D01*
X0153450Y0059877D02*
X0153450Y0057408D01*
X0153450Y0058643D02*
X0149747Y0058643D01*
X0150981Y0057408D01*
X0150364Y0056194D02*
X0149747Y0055577D01*
X0149747Y0054342D01*
X0150364Y0053725D01*
X0152833Y0053725D01*
X0153450Y0054342D01*
X0153450Y0055577D01*
X0152833Y0056194D01*
X0162247Y0055577D02*
X0162247Y0054342D01*
X0162864Y0053725D01*
X0165333Y0053725D01*
X0165950Y0054342D01*
X0165950Y0055577D01*
X0165333Y0056194D01*
X0165950Y0057408D02*
X0165950Y0059877D01*
X0165950Y0061092D02*
X0165950Y0063560D01*
X0165950Y0062326D02*
X0162247Y0062326D01*
X0163481Y0061092D01*
X0162247Y0058643D02*
X0163481Y0057408D01*
X0162864Y0056194D02*
X0162247Y0055577D01*
X0162247Y0058643D02*
X0165950Y0058643D01*
X0186842Y0149750D02*
X0188077Y0149750D01*
X0188694Y0150367D01*
X0189908Y0149750D02*
X0192377Y0149750D01*
X0191143Y0149750D02*
X0191143Y0153453D01*
X0189908Y0152219D01*
X0188694Y0152836D02*
X0188077Y0153453D01*
X0186842Y0153453D01*
X0186225Y0152836D01*
X0186225Y0150367D01*
X0186842Y0149750D01*
X0193592Y0150367D02*
X0194209Y0149750D01*
X0195443Y0149750D01*
X0196060Y0150367D01*
X0196060Y0150984D01*
X0195443Y0151602D01*
X0194826Y0151602D01*
X0195443Y0151602D02*
X0196060Y0152219D01*
X0196060Y0152836D01*
X0195443Y0153453D01*
X0194209Y0153453D01*
X0193592Y0152836D01*
D13*
X0192832Y0187185D02*
X0159368Y0187185D01*
X0159368Y0198996D01*
X0192832Y0198996D01*
X0192832Y0187185D01*
X0192832Y0198996D02*
X0215864Y0198996D01*
X0215864Y0280098D01*
X0198541Y0280098D01*
X0198541Y0291712D01*
X0153659Y0291712D01*
X0153659Y0280098D01*
X0136336Y0280098D01*
X0136336Y0198996D01*
X0159368Y0198996D01*
X0106864Y0198996D02*
X0106864Y0280098D01*
X0089541Y0280098D01*
X0089541Y0291712D01*
X0044659Y0291712D01*
X0044659Y0280098D01*
X0027336Y0280098D01*
X0027336Y0198996D01*
X0050368Y0198996D01*
X0050368Y0187185D01*
X0083832Y0187185D01*
X0083832Y0198996D01*
X0106864Y0198996D01*
X0083832Y0198996D02*
X0050368Y0198996D01*
X0044659Y0280098D02*
X0089541Y0280098D01*
X0153659Y0280098D02*
X0198541Y0280098D01*
D14*
X0183904Y0183904D02*
X0181602Y0181602D01*
X0184671Y0181602D01*
X0183904Y0179300D02*
X0183904Y0183904D01*
X0180067Y0179300D02*
X0176998Y0179300D01*
X0175463Y0179300D02*
X0173929Y0180835D01*
X0174696Y0180835D02*
X0172394Y0180835D01*
X0172394Y0179300D02*
X0172394Y0183904D01*
X0174696Y0183904D01*
X0175463Y0183137D01*
X0175463Y0181602D01*
X0174696Y0180835D01*
X0176998Y0182369D02*
X0178533Y0183904D01*
X0178533Y0179300D01*
X0165633Y0117369D02*
X0164865Y0117369D01*
X0164098Y0116602D01*
X0164098Y0115835D01*
X0164098Y0116602D02*
X0163331Y0117369D01*
X0162563Y0117369D01*
X0161796Y0116602D01*
X0161796Y0115067D01*
X0162563Y0114300D01*
X0162563Y0112765D02*
X0164098Y0112765D01*
X0164865Y0111998D01*
X0164865Y0109696D01*
X0164865Y0111231D02*
X0166400Y0112765D01*
X0165633Y0114300D02*
X0166400Y0115067D01*
X0166400Y0116602D01*
X0165633Y0117369D01*
X0162563Y0112765D02*
X0161796Y0111998D01*
X0161796Y0109696D01*
X0166400Y0109696D01*
X0156400Y0109696D02*
X0151796Y0109696D01*
X0151796Y0111998D01*
X0152563Y0112765D01*
X0154098Y0112765D01*
X0154865Y0111998D01*
X0154865Y0109696D01*
X0154865Y0111231D02*
X0156400Y0112765D01*
X0156400Y0114300D02*
X0153331Y0117369D01*
X0152563Y0117369D01*
X0151796Y0116602D01*
X0151796Y0115067D01*
X0152563Y0114300D01*
X0156400Y0114300D02*
X0156400Y0117369D01*
X0182563Y0069671D02*
X0181796Y0068904D01*
X0181796Y0067369D01*
X0182563Y0066602D01*
X0184098Y0068137D02*
X0184098Y0068904D01*
X0184865Y0069671D01*
X0185633Y0069671D01*
X0186400Y0068904D01*
X0186400Y0067369D01*
X0185633Y0066602D01*
X0186400Y0065067D02*
X0186400Y0061998D01*
X0186400Y0060463D02*
X0184865Y0058929D01*
X0184865Y0059696D02*
X0184865Y0057394D01*
X0186400Y0057394D02*
X0181796Y0057394D01*
X0181796Y0059696D01*
X0182563Y0060463D01*
X0184098Y0060463D01*
X0184865Y0059696D01*
X0183331Y0061998D02*
X0181796Y0063533D01*
X0186400Y0063533D01*
X0184098Y0068904D02*
X0183331Y0069671D01*
X0182563Y0069671D01*
X0126400Y0174696D02*
X0121796Y0174696D01*
X0121796Y0176998D01*
X0122563Y0177765D01*
X0124098Y0177765D01*
X0124865Y0176998D01*
X0124865Y0174696D01*
X0124865Y0176231D02*
X0126400Y0177765D01*
X0126400Y0179300D02*
X0126400Y0182369D01*
X0126400Y0180835D02*
X0121796Y0180835D01*
X0123331Y0179300D01*
X0093900Y0156602D02*
X0093900Y0155067D01*
X0093133Y0154300D01*
X0093900Y0152765D02*
X0092365Y0151231D01*
X0092365Y0151998D02*
X0092365Y0149696D01*
X0093900Y0149696D02*
X0089296Y0149696D01*
X0089296Y0151998D01*
X0090063Y0152765D01*
X0091598Y0152765D01*
X0092365Y0151998D01*
X0090831Y0154300D02*
X0091598Y0155067D01*
X0091598Y0157369D01*
X0090063Y0157369D02*
X0089296Y0156602D01*
X0089296Y0155067D01*
X0090063Y0154300D01*
X0090831Y0154300D01*
X0090063Y0157369D02*
X0093133Y0157369D01*
X0093900Y0156602D01*
X0093133Y0119671D02*
X0090063Y0119671D01*
X0093133Y0116602D01*
X0093900Y0117369D01*
X0093900Y0118904D01*
X0093133Y0119671D01*
X0093133Y0116602D02*
X0090063Y0116602D01*
X0089296Y0117369D01*
X0089296Y0118904D01*
X0090063Y0119671D01*
X0093900Y0115067D02*
X0093900Y0111998D01*
X0093900Y0110463D02*
X0092365Y0108929D01*
X0092365Y0109696D02*
X0092365Y0107394D01*
X0093900Y0107394D02*
X0089296Y0107394D01*
X0089296Y0109696D01*
X0090063Y0110463D01*
X0091598Y0110463D01*
X0092365Y0109696D01*
X0090831Y0111998D02*
X0089296Y0113533D01*
X0093900Y0113533D01*
X0071400Y0089671D02*
X0071400Y0086602D01*
X0071400Y0088137D02*
X0066796Y0088137D01*
X0068331Y0086602D01*
X0071400Y0085067D02*
X0071400Y0081998D01*
X0071400Y0080463D02*
X0069865Y0078929D01*
X0069865Y0079696D02*
X0069865Y0077394D01*
X0071400Y0077394D02*
X0066796Y0077394D01*
X0066796Y0079696D01*
X0067563Y0080463D01*
X0069098Y0080463D01*
X0069865Y0079696D01*
X0068331Y0081998D02*
X0066796Y0083533D01*
X0071400Y0083533D01*
X0048904Y0061404D02*
X0047369Y0061404D01*
X0046602Y0060637D01*
X0048904Y0061404D02*
X0049671Y0060637D01*
X0049671Y0059869D01*
X0046602Y0056800D01*
X0049671Y0056800D01*
X0045067Y0056800D02*
X0041998Y0056800D01*
X0040463Y0056800D02*
X0038929Y0058335D01*
X0039696Y0058335D02*
X0037394Y0058335D01*
X0037394Y0056800D02*
X0037394Y0061404D01*
X0039696Y0061404D01*
X0040463Y0060637D01*
X0040463Y0059102D01*
X0039696Y0058335D01*
X0041998Y0059869D02*
X0043533Y0061404D01*
X0043533Y0056800D01*
X0042765Y0066800D02*
X0041231Y0068335D01*
X0041998Y0068335D02*
X0039696Y0068335D01*
X0039696Y0066800D02*
X0039696Y0071404D01*
X0041998Y0071404D01*
X0042765Y0070637D01*
X0042765Y0069102D01*
X0041998Y0068335D01*
X0044300Y0069102D02*
X0047369Y0069102D01*
X0046602Y0066800D02*
X0046602Y0071404D01*
X0044300Y0069102D01*
X0045067Y0086800D02*
X0044300Y0087567D01*
X0045067Y0086800D02*
X0046602Y0086800D01*
X0047369Y0087567D01*
X0047369Y0089102D01*
X0046602Y0089869D01*
X0045835Y0089869D01*
X0044300Y0089102D01*
X0044300Y0091404D01*
X0047369Y0091404D01*
X0042765Y0090637D02*
X0042765Y0089102D01*
X0041998Y0088335D01*
X0039696Y0088335D01*
X0041231Y0088335D02*
X0042765Y0086800D01*
X0039696Y0086800D02*
X0039696Y0091404D01*
X0041998Y0091404D01*
X0042765Y0090637D01*
X0042765Y0136800D02*
X0041231Y0138335D01*
X0041998Y0138335D02*
X0039696Y0138335D01*
X0039696Y0136800D02*
X0039696Y0141404D01*
X0041998Y0141404D01*
X0042765Y0140637D01*
X0042765Y0139102D01*
X0041998Y0138335D01*
X0044300Y0137567D02*
X0044300Y0136800D01*
X0044300Y0137567D02*
X0047369Y0140637D01*
X0047369Y0141404D01*
X0044300Y0141404D01*
X0045067Y0146800D02*
X0044300Y0147567D01*
X0044300Y0148335D01*
X0045067Y0149102D01*
X0046602Y0149102D01*
X0047369Y0148335D01*
X0047369Y0147567D01*
X0046602Y0146800D01*
X0045067Y0146800D01*
X0042765Y0146800D02*
X0041231Y0148335D01*
X0041998Y0148335D02*
X0039696Y0148335D01*
X0039696Y0146800D02*
X0039696Y0151404D01*
X0041998Y0151404D01*
X0042765Y0150637D01*
X0042765Y0149102D01*
X0041998Y0148335D01*
X0044300Y0149869D02*
X0044300Y0150637D01*
X0045067Y0151404D01*
X0046602Y0151404D01*
X0047369Y0150637D01*
X0047369Y0149869D01*
X0046602Y0149102D01*
X0045067Y0149102D02*
X0044300Y0149869D01*
X0045067Y0156800D02*
X0046602Y0156800D01*
X0047369Y0157567D01*
X0047369Y0158335D01*
X0046602Y0159102D01*
X0044300Y0159102D01*
X0044300Y0157567D01*
X0045067Y0156800D01*
X0042765Y0156800D02*
X0041231Y0158335D01*
X0041998Y0158335D02*
X0039696Y0158335D01*
X0039696Y0156800D02*
X0039696Y0161404D01*
X0041998Y0161404D01*
X0042765Y0160637D01*
X0042765Y0159102D01*
X0041998Y0158335D01*
X0044300Y0159102D02*
X0045835Y0160637D01*
X0047369Y0161404D01*
D15*
X0087230Y0040635D02*
X0114187Y0040635D01*
X0129013Y0040635D01*
X0155970Y0040635D01*
X0155970Y0007565D01*
X0087230Y0007565D01*
X0087230Y0040635D01*
X0091659Y0036994D02*
X0114187Y0036994D01*
X0114187Y0034533D01*
X0129013Y0034533D01*
X0129013Y0036994D01*
X0151541Y0036994D01*
X0151541Y0011206D01*
X0091659Y0011206D01*
X0091659Y0036994D01*
X0114187Y0036994D02*
X0114187Y0040635D01*
X0129013Y0040635D02*
X0129013Y0036994D01*
D16*
X0237633Y0005600D02*
X0005350Y0005600D01*
X0005350Y0258631D01*
X0027004Y0258631D01*
X0027004Y0286191D01*
X0215980Y0286191D01*
X0215980Y0258631D01*
X0237633Y0258631D01*
X0237633Y0005600D01*
D17*
X0134100Y0188850D03*
D18*
X0121600Y0093600D03*
X0131600Y0084600D03*
X0111600Y0084600D03*
X0101600Y0093600D03*
D19*
X0096100Y0069100D03*
X0087100Y0059100D03*
M02*
