G75*
%MOIN*%
%OFA0B0*%
%FSLAX25Y25*%
%IPPOS*%
%LPD*%
%AMOC8*
5,1,8,0,0,1.08239X$1,22.5*
%
%ADD10C,0.00500*%
%ADD11C,0.00600*%
%ADD12C,0.00300*%
%ADD13R,0.02000X0.10000*%
%ADD14R,0.08000X0.02000*%
%ADD15C,0.01000*%
%ADD16C,0.00400*%
%ADD17C,0.00800*%
%ADD18C,0.00000*%
D10*
X0023750Y0044163D02*
X0033750Y0044163D01*
X0033750Y0053663D01*
X0023750Y0053663D01*
X0023750Y0044163D01*
X0043750Y0044163D02*
X0053750Y0044163D01*
X0053750Y0053663D01*
X0043750Y0053663D01*
X0043750Y0044163D01*
X0063750Y0044163D02*
X0073750Y0044163D01*
X0073750Y0053663D01*
X0063750Y0053663D01*
X0063750Y0044163D01*
X0069244Y0056950D02*
X0071579Y0056950D01*
X0070412Y0056950D02*
X0070412Y0060453D01*
X0069244Y0059286D01*
X0074497Y0128067D02*
X0074497Y0129818D01*
X0075081Y0130402D01*
X0077416Y0130402D01*
X0078000Y0129818D01*
X0078000Y0128067D01*
X0074497Y0128067D01*
X0074497Y0131750D02*
X0076249Y0131750D01*
X0075665Y0132918D01*
X0075665Y0133501D01*
X0076249Y0134085D01*
X0077416Y0134085D01*
X0078000Y0133501D01*
X0078000Y0132334D01*
X0077416Y0131750D01*
X0074497Y0131750D02*
X0074497Y0134085D01*
X0084497Y0133701D02*
X0086249Y0131950D01*
X0086249Y0134285D01*
X0088000Y0133701D02*
X0084497Y0133701D01*
X0085081Y0130602D02*
X0084497Y0130018D01*
X0084497Y0128267D01*
X0088000Y0128267D01*
X0088000Y0130018D01*
X0087416Y0130602D01*
X0085081Y0130602D01*
X0110000Y0142850D02*
X0111501Y0142850D01*
X0110751Y0142850D02*
X0110751Y0147354D01*
X0111501Y0147354D02*
X0110000Y0147354D01*
X0113069Y0146603D02*
X0113069Y0143601D01*
X0113820Y0142850D01*
X0115321Y0142850D01*
X0116072Y0143601D01*
X0117673Y0142850D02*
X0120676Y0142850D01*
X0119174Y0142850D02*
X0119174Y0147354D01*
X0117673Y0145853D01*
X0116072Y0146603D02*
X0115321Y0147354D01*
X0113820Y0147354D01*
X0113069Y0146603D01*
X0154877Y0140756D02*
X0154877Y0139589D01*
X0155461Y0139005D01*
X0155461Y0137657D02*
X0154877Y0137073D01*
X0154877Y0135906D01*
X0155461Y0135322D01*
X0157796Y0135322D01*
X0158380Y0135906D01*
X0158380Y0137073D01*
X0157796Y0137657D01*
X0158380Y0139005D02*
X0156045Y0141340D01*
X0155461Y0141340D01*
X0154877Y0140756D01*
X0158380Y0141340D02*
X0158380Y0139005D01*
X0168750Y0164413D02*
X0178750Y0164413D01*
X0178750Y0173913D01*
X0168750Y0173913D01*
X0168750Y0164413D01*
X0188750Y0164413D02*
X0198750Y0164413D01*
X0198750Y0173913D01*
X0188750Y0173913D01*
X0188750Y0164413D01*
X0208750Y0164413D02*
X0218750Y0164413D01*
X0218750Y0173913D01*
X0208750Y0173913D01*
X0208750Y0164413D01*
X0214244Y0177200D02*
X0216579Y0177200D01*
X0215412Y0177200D02*
X0215412Y0180703D01*
X0214244Y0179536D01*
X0150334Y0077973D02*
X0150918Y0077389D01*
X0150918Y0076805D01*
X0150334Y0076221D01*
X0150918Y0075638D01*
X0150918Y0075054D01*
X0150334Y0074470D01*
X0149166Y0074470D01*
X0148582Y0075054D01*
X0147235Y0075054D02*
X0146651Y0074470D01*
X0145483Y0074470D01*
X0144899Y0075054D01*
X0144899Y0077389D01*
X0145483Y0077973D01*
X0146651Y0077973D01*
X0147235Y0077389D01*
X0148582Y0077389D02*
X0149166Y0077973D01*
X0150334Y0077973D01*
X0150334Y0076221D02*
X0149750Y0076221D01*
X0168750Y0053663D02*
X0168750Y0044163D01*
X0178750Y0044163D01*
X0178750Y0053663D01*
X0168750Y0053663D01*
X0188750Y0053663D02*
X0188750Y0044163D01*
X0198750Y0044163D01*
X0198750Y0053663D01*
X0188750Y0053663D01*
X0208750Y0053663D02*
X0208750Y0044163D01*
X0218750Y0044163D01*
X0218750Y0053663D01*
X0208750Y0053663D01*
X0214244Y0056950D02*
X0216579Y0056950D01*
X0215412Y0056950D02*
X0215412Y0060453D01*
X0214244Y0059286D01*
X0073750Y0164413D02*
X0073750Y0173913D01*
X0063750Y0173913D01*
X0063750Y0164413D01*
X0073750Y0164413D01*
X0071579Y0177200D02*
X0069244Y0177200D01*
X0070412Y0177200D02*
X0070412Y0180703D01*
X0069244Y0179536D01*
X0053750Y0173913D02*
X0053750Y0164413D01*
X0043750Y0164413D01*
X0043750Y0173913D01*
X0053750Y0173913D01*
X0033750Y0173913D02*
X0033750Y0164413D01*
X0023750Y0164413D01*
X0023750Y0173913D01*
X0033750Y0173913D01*
X0045081Y0134085D02*
X0045665Y0134085D01*
X0046249Y0133501D01*
X0046832Y0134085D01*
X0047416Y0134085D01*
X0048000Y0133501D01*
X0048000Y0132334D01*
X0047416Y0131750D01*
X0047416Y0130402D02*
X0045081Y0130402D01*
X0044497Y0129818D01*
X0044497Y0128067D01*
X0048000Y0128067D01*
X0048000Y0129818D01*
X0047416Y0130402D01*
X0045081Y0131750D02*
X0044497Y0132334D01*
X0044497Y0133501D01*
X0045081Y0134085D01*
X0046249Y0133501D02*
X0046249Y0132918D01*
X0054497Y0133501D02*
X0054497Y0132334D01*
X0055081Y0131750D01*
X0055081Y0130402D02*
X0054497Y0129818D01*
X0054497Y0128067D01*
X0058000Y0128067D01*
X0058000Y0129818D01*
X0057416Y0130402D01*
X0055081Y0130402D01*
X0054497Y0133501D02*
X0055081Y0134085D01*
X0055665Y0134085D01*
X0058000Y0131750D01*
X0058000Y0134085D01*
D11*
X0062250Y0135163D02*
X0062250Y0139163D01*
X0062252Y0139223D01*
X0062257Y0139284D01*
X0062266Y0139343D01*
X0062279Y0139402D01*
X0062295Y0139461D01*
X0062315Y0139518D01*
X0062338Y0139573D01*
X0062365Y0139628D01*
X0062394Y0139680D01*
X0062427Y0139731D01*
X0062463Y0139780D01*
X0062501Y0139826D01*
X0062543Y0139870D01*
X0062587Y0139912D01*
X0062633Y0139950D01*
X0062682Y0139986D01*
X0062733Y0140019D01*
X0062785Y0140048D01*
X0062840Y0140075D01*
X0062895Y0140098D01*
X0062952Y0140118D01*
X0063011Y0140134D01*
X0063070Y0140147D01*
X0063129Y0140156D01*
X0063190Y0140161D01*
X0063250Y0140163D01*
X0069250Y0140163D01*
X0069310Y0140161D01*
X0069371Y0140156D01*
X0069430Y0140147D01*
X0069489Y0140134D01*
X0069548Y0140118D01*
X0069605Y0140098D01*
X0069660Y0140075D01*
X0069715Y0140048D01*
X0069767Y0140019D01*
X0069818Y0139986D01*
X0069867Y0139950D01*
X0069913Y0139912D01*
X0069957Y0139870D01*
X0069999Y0139826D01*
X0070037Y0139780D01*
X0070073Y0139731D01*
X0070106Y0139680D01*
X0070135Y0139628D01*
X0070162Y0139573D01*
X0070185Y0139518D01*
X0070205Y0139461D01*
X0070221Y0139402D01*
X0070234Y0139343D01*
X0070243Y0139284D01*
X0070248Y0139223D01*
X0070250Y0139163D01*
X0070250Y0135163D01*
X0069750Y0134663D01*
X0069750Y0123537D01*
X0070250Y0123037D01*
X0070250Y0119037D01*
X0070248Y0118977D01*
X0070243Y0118916D01*
X0070234Y0118857D01*
X0070221Y0118798D01*
X0070205Y0118739D01*
X0070185Y0118682D01*
X0070162Y0118627D01*
X0070135Y0118572D01*
X0070106Y0118520D01*
X0070073Y0118469D01*
X0070037Y0118420D01*
X0069999Y0118374D01*
X0069957Y0118330D01*
X0069913Y0118288D01*
X0069867Y0118250D01*
X0069818Y0118214D01*
X0069767Y0118181D01*
X0069715Y0118152D01*
X0069660Y0118125D01*
X0069605Y0118102D01*
X0069548Y0118082D01*
X0069489Y0118066D01*
X0069430Y0118053D01*
X0069371Y0118044D01*
X0069310Y0118039D01*
X0069250Y0118037D01*
X0063250Y0118037D01*
X0063190Y0118039D01*
X0063129Y0118044D01*
X0063070Y0118053D01*
X0063011Y0118066D01*
X0062952Y0118082D01*
X0062895Y0118102D01*
X0062840Y0118125D01*
X0062785Y0118152D01*
X0062733Y0118181D01*
X0062682Y0118214D01*
X0062633Y0118250D01*
X0062587Y0118288D01*
X0062543Y0118330D01*
X0062501Y0118374D01*
X0062463Y0118420D01*
X0062427Y0118469D01*
X0062394Y0118520D01*
X0062365Y0118572D01*
X0062338Y0118627D01*
X0062315Y0118682D01*
X0062295Y0118739D01*
X0062279Y0118798D01*
X0062266Y0118857D01*
X0062257Y0118916D01*
X0062252Y0118977D01*
X0062250Y0119037D01*
X0062250Y0123037D01*
X0062750Y0123537D01*
X0062750Y0134663D01*
X0062250Y0135163D01*
X0060250Y0139600D02*
X0060250Y0123600D01*
X0060248Y0123540D01*
X0060243Y0123479D01*
X0060234Y0123420D01*
X0060221Y0123361D01*
X0060205Y0123302D01*
X0060185Y0123245D01*
X0060162Y0123190D01*
X0060135Y0123135D01*
X0060106Y0123083D01*
X0060073Y0123032D01*
X0060037Y0122983D01*
X0059999Y0122937D01*
X0059957Y0122893D01*
X0059913Y0122851D01*
X0059867Y0122813D01*
X0059818Y0122777D01*
X0059767Y0122744D01*
X0059715Y0122715D01*
X0059660Y0122688D01*
X0059605Y0122665D01*
X0059548Y0122645D01*
X0059489Y0122629D01*
X0059430Y0122616D01*
X0059371Y0122607D01*
X0059310Y0122602D01*
X0059250Y0122600D01*
X0053250Y0122600D01*
X0053190Y0122602D01*
X0053129Y0122607D01*
X0053070Y0122616D01*
X0053011Y0122629D01*
X0052952Y0122645D01*
X0052895Y0122665D01*
X0052840Y0122688D01*
X0052785Y0122715D01*
X0052733Y0122744D01*
X0052682Y0122777D01*
X0052633Y0122813D01*
X0052587Y0122851D01*
X0052543Y0122893D01*
X0052501Y0122937D01*
X0052463Y0122983D01*
X0052427Y0123032D01*
X0052394Y0123083D01*
X0052365Y0123135D01*
X0052338Y0123190D01*
X0052315Y0123245D01*
X0052295Y0123302D01*
X0052279Y0123361D01*
X0052266Y0123420D01*
X0052257Y0123479D01*
X0052252Y0123540D01*
X0052250Y0123600D01*
X0052250Y0139600D01*
X0052252Y0139660D01*
X0052257Y0139721D01*
X0052266Y0139780D01*
X0052279Y0139839D01*
X0052295Y0139898D01*
X0052315Y0139955D01*
X0052338Y0140010D01*
X0052365Y0140065D01*
X0052394Y0140117D01*
X0052427Y0140168D01*
X0052463Y0140217D01*
X0052501Y0140263D01*
X0052543Y0140307D01*
X0052587Y0140349D01*
X0052633Y0140387D01*
X0052682Y0140423D01*
X0052733Y0140456D01*
X0052785Y0140485D01*
X0052840Y0140512D01*
X0052895Y0140535D01*
X0052952Y0140555D01*
X0053011Y0140571D01*
X0053070Y0140584D01*
X0053129Y0140593D01*
X0053190Y0140598D01*
X0053250Y0140600D01*
X0059250Y0140600D01*
X0059310Y0140598D01*
X0059371Y0140593D01*
X0059430Y0140584D01*
X0059489Y0140571D01*
X0059548Y0140555D01*
X0059605Y0140535D01*
X0059660Y0140512D01*
X0059715Y0140485D01*
X0059767Y0140456D01*
X0059818Y0140423D01*
X0059867Y0140387D01*
X0059913Y0140349D01*
X0059957Y0140307D01*
X0059999Y0140263D01*
X0060037Y0140217D01*
X0060073Y0140168D01*
X0060106Y0140117D01*
X0060135Y0140065D01*
X0060162Y0140010D01*
X0060185Y0139955D01*
X0060205Y0139898D01*
X0060221Y0139839D01*
X0060234Y0139780D01*
X0060243Y0139721D01*
X0060248Y0139660D01*
X0060250Y0139600D01*
X0050250Y0139600D02*
X0050250Y0123600D01*
X0050248Y0123540D01*
X0050243Y0123479D01*
X0050234Y0123420D01*
X0050221Y0123361D01*
X0050205Y0123302D01*
X0050185Y0123245D01*
X0050162Y0123190D01*
X0050135Y0123135D01*
X0050106Y0123083D01*
X0050073Y0123032D01*
X0050037Y0122983D01*
X0049999Y0122937D01*
X0049957Y0122893D01*
X0049913Y0122851D01*
X0049867Y0122813D01*
X0049818Y0122777D01*
X0049767Y0122744D01*
X0049715Y0122715D01*
X0049660Y0122688D01*
X0049605Y0122665D01*
X0049548Y0122645D01*
X0049489Y0122629D01*
X0049430Y0122616D01*
X0049371Y0122607D01*
X0049310Y0122602D01*
X0049250Y0122600D01*
X0043250Y0122600D01*
X0043190Y0122602D01*
X0043129Y0122607D01*
X0043070Y0122616D01*
X0043011Y0122629D01*
X0042952Y0122645D01*
X0042895Y0122665D01*
X0042840Y0122688D01*
X0042785Y0122715D01*
X0042733Y0122744D01*
X0042682Y0122777D01*
X0042633Y0122813D01*
X0042587Y0122851D01*
X0042543Y0122893D01*
X0042501Y0122937D01*
X0042463Y0122983D01*
X0042427Y0123032D01*
X0042394Y0123083D01*
X0042365Y0123135D01*
X0042338Y0123190D01*
X0042315Y0123245D01*
X0042295Y0123302D01*
X0042279Y0123361D01*
X0042266Y0123420D01*
X0042257Y0123479D01*
X0042252Y0123540D01*
X0042250Y0123600D01*
X0042250Y0139600D01*
X0042252Y0139660D01*
X0042257Y0139721D01*
X0042266Y0139780D01*
X0042279Y0139839D01*
X0042295Y0139898D01*
X0042315Y0139955D01*
X0042338Y0140010D01*
X0042365Y0140065D01*
X0042394Y0140117D01*
X0042427Y0140168D01*
X0042463Y0140217D01*
X0042501Y0140263D01*
X0042543Y0140307D01*
X0042587Y0140349D01*
X0042633Y0140387D01*
X0042682Y0140423D01*
X0042733Y0140456D01*
X0042785Y0140485D01*
X0042840Y0140512D01*
X0042895Y0140535D01*
X0042952Y0140555D01*
X0043011Y0140571D01*
X0043070Y0140584D01*
X0043129Y0140593D01*
X0043190Y0140598D01*
X0043250Y0140600D01*
X0049250Y0140600D01*
X0049310Y0140598D01*
X0049371Y0140593D01*
X0049430Y0140584D01*
X0049489Y0140571D01*
X0049548Y0140555D01*
X0049605Y0140535D01*
X0049660Y0140512D01*
X0049715Y0140485D01*
X0049767Y0140456D01*
X0049818Y0140423D01*
X0049867Y0140387D01*
X0049913Y0140349D01*
X0049957Y0140307D01*
X0049999Y0140263D01*
X0050037Y0140217D01*
X0050073Y0140168D01*
X0050106Y0140117D01*
X0050135Y0140065D01*
X0050162Y0140010D01*
X0050185Y0139955D01*
X0050205Y0139898D01*
X0050221Y0139839D01*
X0050234Y0139780D01*
X0050243Y0139721D01*
X0050248Y0139660D01*
X0050250Y0139600D01*
X0072250Y0139600D02*
X0072250Y0123600D01*
X0072252Y0123540D01*
X0072257Y0123479D01*
X0072266Y0123420D01*
X0072279Y0123361D01*
X0072295Y0123302D01*
X0072315Y0123245D01*
X0072338Y0123190D01*
X0072365Y0123135D01*
X0072394Y0123083D01*
X0072427Y0123032D01*
X0072463Y0122983D01*
X0072501Y0122937D01*
X0072543Y0122893D01*
X0072587Y0122851D01*
X0072633Y0122813D01*
X0072682Y0122777D01*
X0072733Y0122744D01*
X0072785Y0122715D01*
X0072840Y0122688D01*
X0072895Y0122665D01*
X0072952Y0122645D01*
X0073011Y0122629D01*
X0073070Y0122616D01*
X0073129Y0122607D01*
X0073190Y0122602D01*
X0073250Y0122600D01*
X0079250Y0122600D01*
X0079310Y0122602D01*
X0079371Y0122607D01*
X0079430Y0122616D01*
X0079489Y0122629D01*
X0079548Y0122645D01*
X0079605Y0122665D01*
X0079660Y0122688D01*
X0079715Y0122715D01*
X0079767Y0122744D01*
X0079818Y0122777D01*
X0079867Y0122813D01*
X0079913Y0122851D01*
X0079957Y0122893D01*
X0079999Y0122937D01*
X0080037Y0122983D01*
X0080073Y0123032D01*
X0080106Y0123083D01*
X0080135Y0123135D01*
X0080162Y0123190D01*
X0080185Y0123245D01*
X0080205Y0123302D01*
X0080221Y0123361D01*
X0080234Y0123420D01*
X0080243Y0123479D01*
X0080248Y0123540D01*
X0080250Y0123600D01*
X0080250Y0139600D01*
X0080248Y0139660D01*
X0080243Y0139721D01*
X0080234Y0139780D01*
X0080221Y0139839D01*
X0080205Y0139898D01*
X0080185Y0139955D01*
X0080162Y0140010D01*
X0080135Y0140065D01*
X0080106Y0140117D01*
X0080073Y0140168D01*
X0080037Y0140217D01*
X0079999Y0140263D01*
X0079957Y0140307D01*
X0079913Y0140349D01*
X0079867Y0140387D01*
X0079818Y0140423D01*
X0079767Y0140456D01*
X0079715Y0140485D01*
X0079660Y0140512D01*
X0079605Y0140535D01*
X0079548Y0140555D01*
X0079489Y0140571D01*
X0079430Y0140584D01*
X0079371Y0140593D01*
X0079310Y0140598D01*
X0079250Y0140600D01*
X0073250Y0140600D01*
X0073190Y0140598D01*
X0073129Y0140593D01*
X0073070Y0140584D01*
X0073011Y0140571D01*
X0072952Y0140555D01*
X0072895Y0140535D01*
X0072840Y0140512D01*
X0072785Y0140485D01*
X0072733Y0140456D01*
X0072682Y0140423D01*
X0072633Y0140387D01*
X0072587Y0140349D01*
X0072543Y0140307D01*
X0072501Y0140263D01*
X0072463Y0140217D01*
X0072427Y0140168D01*
X0072394Y0140117D01*
X0072365Y0140065D01*
X0072338Y0140010D01*
X0072315Y0139955D01*
X0072295Y0139898D01*
X0072279Y0139839D01*
X0072266Y0139780D01*
X0072257Y0139721D01*
X0072252Y0139660D01*
X0072250Y0139600D01*
X0082250Y0139600D02*
X0082250Y0123600D01*
X0082252Y0123540D01*
X0082257Y0123479D01*
X0082266Y0123420D01*
X0082279Y0123361D01*
X0082295Y0123302D01*
X0082315Y0123245D01*
X0082338Y0123190D01*
X0082365Y0123135D01*
X0082394Y0123083D01*
X0082427Y0123032D01*
X0082463Y0122983D01*
X0082501Y0122937D01*
X0082543Y0122893D01*
X0082587Y0122851D01*
X0082633Y0122813D01*
X0082682Y0122777D01*
X0082733Y0122744D01*
X0082785Y0122715D01*
X0082840Y0122688D01*
X0082895Y0122665D01*
X0082952Y0122645D01*
X0083011Y0122629D01*
X0083070Y0122616D01*
X0083129Y0122607D01*
X0083190Y0122602D01*
X0083250Y0122600D01*
X0089250Y0122600D01*
X0089310Y0122602D01*
X0089371Y0122607D01*
X0089430Y0122616D01*
X0089489Y0122629D01*
X0089548Y0122645D01*
X0089605Y0122665D01*
X0089660Y0122688D01*
X0089715Y0122715D01*
X0089767Y0122744D01*
X0089818Y0122777D01*
X0089867Y0122813D01*
X0089913Y0122851D01*
X0089957Y0122893D01*
X0089999Y0122937D01*
X0090037Y0122983D01*
X0090073Y0123032D01*
X0090106Y0123083D01*
X0090135Y0123135D01*
X0090162Y0123190D01*
X0090185Y0123245D01*
X0090205Y0123302D01*
X0090221Y0123361D01*
X0090234Y0123420D01*
X0090243Y0123479D01*
X0090248Y0123540D01*
X0090250Y0123600D01*
X0090250Y0139600D01*
X0090248Y0139660D01*
X0090243Y0139721D01*
X0090234Y0139780D01*
X0090221Y0139839D01*
X0090205Y0139898D01*
X0090185Y0139955D01*
X0090162Y0140010D01*
X0090135Y0140065D01*
X0090106Y0140117D01*
X0090073Y0140168D01*
X0090037Y0140217D01*
X0089999Y0140263D01*
X0089957Y0140307D01*
X0089913Y0140349D01*
X0089867Y0140387D01*
X0089818Y0140423D01*
X0089767Y0140456D01*
X0089715Y0140485D01*
X0089660Y0140512D01*
X0089605Y0140535D01*
X0089548Y0140555D01*
X0089489Y0140571D01*
X0089430Y0140584D01*
X0089371Y0140593D01*
X0089310Y0140598D01*
X0089250Y0140600D01*
X0083250Y0140600D01*
X0083190Y0140598D01*
X0083129Y0140593D01*
X0083070Y0140584D01*
X0083011Y0140571D01*
X0082952Y0140555D01*
X0082895Y0140535D01*
X0082840Y0140512D01*
X0082785Y0140485D01*
X0082733Y0140456D01*
X0082682Y0140423D01*
X0082633Y0140387D01*
X0082587Y0140349D01*
X0082543Y0140307D01*
X0082501Y0140263D01*
X0082463Y0140217D01*
X0082427Y0140168D01*
X0082394Y0140117D01*
X0082365Y0140065D01*
X0082338Y0140010D01*
X0082315Y0139955D01*
X0082295Y0139898D01*
X0082279Y0139839D01*
X0082266Y0139780D01*
X0082257Y0139721D01*
X0082252Y0139660D01*
X0082250Y0139600D01*
X0091250Y0136600D02*
X0091250Y0129100D01*
X0091250Y0126600D01*
X0096250Y0121600D02*
X0096390Y0121602D01*
X0096530Y0121608D01*
X0096670Y0121618D01*
X0096810Y0121631D01*
X0096949Y0121649D01*
X0097088Y0121671D01*
X0097225Y0121696D01*
X0097363Y0121725D01*
X0097499Y0121758D01*
X0097634Y0121795D01*
X0097768Y0121836D01*
X0097901Y0121881D01*
X0098033Y0121929D01*
X0098163Y0121981D01*
X0098292Y0122036D01*
X0098419Y0122095D01*
X0098545Y0122158D01*
X0098669Y0122224D01*
X0098790Y0122293D01*
X0098910Y0122366D01*
X0099028Y0122443D01*
X0099143Y0122522D01*
X0099257Y0122605D01*
X0099367Y0122691D01*
X0099476Y0122780D01*
X0099582Y0122872D01*
X0099685Y0122967D01*
X0099786Y0123064D01*
X0099883Y0123165D01*
X0099978Y0123268D01*
X0100070Y0123374D01*
X0100159Y0123483D01*
X0100245Y0123593D01*
X0100328Y0123707D01*
X0100407Y0123822D01*
X0100484Y0123940D01*
X0100557Y0124060D01*
X0100626Y0124181D01*
X0100692Y0124305D01*
X0100755Y0124431D01*
X0100814Y0124558D01*
X0100869Y0124687D01*
X0100921Y0124817D01*
X0100969Y0124949D01*
X0101014Y0125082D01*
X0101055Y0125216D01*
X0101092Y0125351D01*
X0101125Y0125487D01*
X0101154Y0125625D01*
X0101179Y0125762D01*
X0101201Y0125901D01*
X0101219Y0126040D01*
X0101232Y0126180D01*
X0101242Y0126320D01*
X0101248Y0126460D01*
X0101250Y0126600D01*
X0101250Y0136600D01*
X0096250Y0141600D02*
X0096110Y0141598D01*
X0095970Y0141592D01*
X0095830Y0141582D01*
X0095690Y0141569D01*
X0095551Y0141551D01*
X0095412Y0141529D01*
X0095275Y0141504D01*
X0095137Y0141475D01*
X0095001Y0141442D01*
X0094866Y0141405D01*
X0094732Y0141364D01*
X0094599Y0141319D01*
X0094467Y0141271D01*
X0094337Y0141219D01*
X0094208Y0141164D01*
X0094081Y0141105D01*
X0093955Y0141042D01*
X0093831Y0140976D01*
X0093710Y0140907D01*
X0093590Y0140834D01*
X0093472Y0140757D01*
X0093357Y0140678D01*
X0093243Y0140595D01*
X0093133Y0140509D01*
X0093024Y0140420D01*
X0092918Y0140328D01*
X0092815Y0140233D01*
X0092714Y0140136D01*
X0092617Y0140035D01*
X0092522Y0139932D01*
X0092430Y0139826D01*
X0092341Y0139717D01*
X0092255Y0139607D01*
X0092172Y0139493D01*
X0092093Y0139378D01*
X0092016Y0139260D01*
X0091943Y0139140D01*
X0091874Y0139019D01*
X0091808Y0138895D01*
X0091745Y0138769D01*
X0091686Y0138642D01*
X0091631Y0138513D01*
X0091579Y0138383D01*
X0091531Y0138251D01*
X0091486Y0138118D01*
X0091445Y0137984D01*
X0091408Y0137849D01*
X0091375Y0137713D01*
X0091346Y0137575D01*
X0091321Y0137438D01*
X0091299Y0137299D01*
X0091281Y0137160D01*
X0091268Y0137020D01*
X0091258Y0136880D01*
X0091252Y0136740D01*
X0091250Y0136600D01*
X0096250Y0141600D02*
X0096390Y0141598D01*
X0096530Y0141592D01*
X0096670Y0141582D01*
X0096810Y0141569D01*
X0096949Y0141551D01*
X0097088Y0141529D01*
X0097225Y0141504D01*
X0097363Y0141475D01*
X0097499Y0141442D01*
X0097634Y0141405D01*
X0097768Y0141364D01*
X0097901Y0141319D01*
X0098033Y0141271D01*
X0098163Y0141219D01*
X0098292Y0141164D01*
X0098419Y0141105D01*
X0098545Y0141042D01*
X0098669Y0140976D01*
X0098790Y0140907D01*
X0098910Y0140834D01*
X0099028Y0140757D01*
X0099143Y0140678D01*
X0099257Y0140595D01*
X0099367Y0140509D01*
X0099476Y0140420D01*
X0099582Y0140328D01*
X0099685Y0140233D01*
X0099786Y0140136D01*
X0099883Y0140035D01*
X0099978Y0139932D01*
X0100070Y0139826D01*
X0100159Y0139717D01*
X0100245Y0139607D01*
X0100328Y0139493D01*
X0100407Y0139378D01*
X0100484Y0139260D01*
X0100557Y0139140D01*
X0100626Y0139019D01*
X0100692Y0138895D01*
X0100755Y0138769D01*
X0100814Y0138642D01*
X0100869Y0138513D01*
X0100921Y0138383D01*
X0100969Y0138251D01*
X0101014Y0138118D01*
X0101055Y0137984D01*
X0101092Y0137849D01*
X0101125Y0137713D01*
X0101154Y0137575D01*
X0101179Y0137438D01*
X0101201Y0137299D01*
X0101219Y0137160D01*
X0101232Y0137020D01*
X0101242Y0136880D01*
X0101248Y0136740D01*
X0101250Y0136600D01*
X0109750Y0141600D02*
X0117250Y0141600D01*
X0117252Y0141474D01*
X0117258Y0141349D01*
X0117268Y0141224D01*
X0117282Y0141099D01*
X0117299Y0140974D01*
X0117321Y0140850D01*
X0117346Y0140727D01*
X0117376Y0140605D01*
X0117409Y0140484D01*
X0117446Y0140364D01*
X0117486Y0140245D01*
X0117531Y0140128D01*
X0117579Y0140011D01*
X0117631Y0139897D01*
X0117686Y0139784D01*
X0117745Y0139673D01*
X0117807Y0139564D01*
X0117873Y0139457D01*
X0117942Y0139352D01*
X0118014Y0139249D01*
X0118089Y0139148D01*
X0118168Y0139050D01*
X0118250Y0138955D01*
X0118334Y0138862D01*
X0118422Y0138772D01*
X0118512Y0138684D01*
X0118605Y0138600D01*
X0118700Y0138518D01*
X0118798Y0138439D01*
X0118899Y0138364D01*
X0119002Y0138292D01*
X0119107Y0138223D01*
X0119214Y0138157D01*
X0119323Y0138095D01*
X0119434Y0138036D01*
X0119547Y0137981D01*
X0119661Y0137929D01*
X0119778Y0137881D01*
X0119895Y0137836D01*
X0120014Y0137796D01*
X0120134Y0137759D01*
X0120255Y0137726D01*
X0120377Y0137696D01*
X0120500Y0137671D01*
X0120624Y0137649D01*
X0120749Y0137632D01*
X0120874Y0137618D01*
X0120999Y0137608D01*
X0121124Y0137602D01*
X0121250Y0137600D01*
X0121376Y0137602D01*
X0121501Y0137608D01*
X0121626Y0137618D01*
X0121751Y0137632D01*
X0121876Y0137649D01*
X0122000Y0137671D01*
X0122123Y0137696D01*
X0122245Y0137726D01*
X0122366Y0137759D01*
X0122486Y0137796D01*
X0122605Y0137836D01*
X0122722Y0137881D01*
X0122839Y0137929D01*
X0122953Y0137981D01*
X0123066Y0138036D01*
X0123177Y0138095D01*
X0123286Y0138157D01*
X0123393Y0138223D01*
X0123498Y0138292D01*
X0123601Y0138364D01*
X0123702Y0138439D01*
X0123800Y0138518D01*
X0123895Y0138600D01*
X0123988Y0138684D01*
X0124078Y0138772D01*
X0124166Y0138862D01*
X0124250Y0138955D01*
X0124332Y0139050D01*
X0124411Y0139148D01*
X0124486Y0139249D01*
X0124558Y0139352D01*
X0124627Y0139457D01*
X0124693Y0139564D01*
X0124755Y0139673D01*
X0124814Y0139784D01*
X0124869Y0139897D01*
X0124921Y0140011D01*
X0124969Y0140128D01*
X0125014Y0140245D01*
X0125054Y0140364D01*
X0125091Y0140484D01*
X0125124Y0140605D01*
X0125154Y0140727D01*
X0125179Y0140850D01*
X0125201Y0140974D01*
X0125218Y0141099D01*
X0125232Y0141224D01*
X0125242Y0141349D01*
X0125248Y0141474D01*
X0125250Y0141600D01*
X0132750Y0141600D01*
X0132750Y0101600D01*
X0109750Y0101600D01*
X0109750Y0141600D01*
X0111187Y0155100D02*
X0115187Y0155100D01*
X0115687Y0155600D01*
X0126813Y0155600D01*
X0127313Y0155100D01*
X0131313Y0155100D01*
X0131373Y0155102D01*
X0131434Y0155107D01*
X0131493Y0155116D01*
X0131552Y0155129D01*
X0131611Y0155145D01*
X0131668Y0155165D01*
X0131723Y0155188D01*
X0131778Y0155215D01*
X0131830Y0155244D01*
X0131881Y0155277D01*
X0131930Y0155313D01*
X0131976Y0155351D01*
X0132020Y0155393D01*
X0132062Y0155437D01*
X0132100Y0155483D01*
X0132136Y0155532D01*
X0132169Y0155583D01*
X0132198Y0155635D01*
X0132225Y0155690D01*
X0132248Y0155745D01*
X0132268Y0155802D01*
X0132284Y0155861D01*
X0132297Y0155920D01*
X0132306Y0155979D01*
X0132311Y0156040D01*
X0132313Y0156100D01*
X0132313Y0162100D01*
X0132311Y0162160D01*
X0132306Y0162221D01*
X0132297Y0162280D01*
X0132284Y0162339D01*
X0132268Y0162398D01*
X0132248Y0162455D01*
X0132225Y0162510D01*
X0132198Y0162565D01*
X0132169Y0162617D01*
X0132136Y0162668D01*
X0132100Y0162717D01*
X0132062Y0162763D01*
X0132020Y0162807D01*
X0131976Y0162849D01*
X0131930Y0162887D01*
X0131881Y0162923D01*
X0131830Y0162956D01*
X0131778Y0162985D01*
X0131723Y0163012D01*
X0131668Y0163035D01*
X0131611Y0163055D01*
X0131552Y0163071D01*
X0131493Y0163084D01*
X0131434Y0163093D01*
X0131373Y0163098D01*
X0131313Y0163100D01*
X0127313Y0163100D01*
X0126813Y0162600D01*
X0115687Y0162600D01*
X0115187Y0163100D01*
X0111187Y0163100D01*
X0111127Y0163098D01*
X0111066Y0163093D01*
X0111007Y0163084D01*
X0110948Y0163071D01*
X0110889Y0163055D01*
X0110832Y0163035D01*
X0110777Y0163012D01*
X0110722Y0162985D01*
X0110670Y0162956D01*
X0110619Y0162923D01*
X0110570Y0162887D01*
X0110524Y0162849D01*
X0110480Y0162807D01*
X0110438Y0162763D01*
X0110400Y0162717D01*
X0110364Y0162668D01*
X0110331Y0162617D01*
X0110302Y0162565D01*
X0110275Y0162510D01*
X0110252Y0162455D01*
X0110232Y0162398D01*
X0110216Y0162339D01*
X0110203Y0162280D01*
X0110194Y0162221D01*
X0110189Y0162160D01*
X0110187Y0162100D01*
X0110187Y0156100D01*
X0110189Y0156040D01*
X0110194Y0155979D01*
X0110203Y0155920D01*
X0110216Y0155861D01*
X0110232Y0155802D01*
X0110252Y0155745D01*
X0110275Y0155690D01*
X0110302Y0155635D01*
X0110331Y0155583D01*
X0110364Y0155532D01*
X0110400Y0155483D01*
X0110438Y0155437D01*
X0110480Y0155393D01*
X0110524Y0155351D01*
X0110570Y0155313D01*
X0110619Y0155277D01*
X0110670Y0155244D01*
X0110722Y0155215D01*
X0110777Y0155188D01*
X0110832Y0155165D01*
X0110889Y0155145D01*
X0110948Y0155129D01*
X0111007Y0155116D01*
X0111066Y0155107D01*
X0111127Y0155102D01*
X0111187Y0155100D01*
X0107000Y0164100D02*
X0107000Y0174100D01*
X0123000Y0174100D01*
X0123000Y0164100D01*
X0107000Y0164100D01*
X0110896Y0166900D02*
X0113098Y0166900D01*
X0113832Y0167634D01*
X0113832Y0170570D01*
X0113098Y0171304D01*
X0110896Y0171304D01*
X0110896Y0166900D01*
X0115500Y0166900D02*
X0118436Y0166900D01*
X0116968Y0166900D02*
X0116968Y0171304D01*
X0115500Y0169836D01*
X0121250Y0154100D02*
X0123750Y0154100D01*
X0131250Y0154100D01*
X0131390Y0154098D01*
X0131530Y0154092D01*
X0131670Y0154082D01*
X0131810Y0154069D01*
X0131949Y0154051D01*
X0132088Y0154029D01*
X0132225Y0154004D01*
X0132363Y0153975D01*
X0132499Y0153942D01*
X0132634Y0153905D01*
X0132768Y0153864D01*
X0132901Y0153819D01*
X0133033Y0153771D01*
X0133163Y0153719D01*
X0133292Y0153664D01*
X0133419Y0153605D01*
X0133545Y0153542D01*
X0133669Y0153476D01*
X0133790Y0153407D01*
X0133910Y0153334D01*
X0134028Y0153257D01*
X0134143Y0153178D01*
X0134257Y0153095D01*
X0134367Y0153009D01*
X0134476Y0152920D01*
X0134582Y0152828D01*
X0134685Y0152733D01*
X0134786Y0152636D01*
X0134883Y0152535D01*
X0134978Y0152432D01*
X0135070Y0152326D01*
X0135159Y0152217D01*
X0135245Y0152107D01*
X0135328Y0151993D01*
X0135407Y0151878D01*
X0135484Y0151760D01*
X0135557Y0151640D01*
X0135626Y0151519D01*
X0135692Y0151395D01*
X0135755Y0151269D01*
X0135814Y0151142D01*
X0135869Y0151013D01*
X0135921Y0150883D01*
X0135969Y0150751D01*
X0136014Y0150618D01*
X0136055Y0150484D01*
X0136092Y0150349D01*
X0136125Y0150213D01*
X0136154Y0150075D01*
X0136179Y0149938D01*
X0136201Y0149799D01*
X0136219Y0149660D01*
X0136232Y0149520D01*
X0136242Y0149380D01*
X0136248Y0149240D01*
X0136250Y0149100D01*
X0136248Y0148960D01*
X0136242Y0148820D01*
X0136232Y0148680D01*
X0136219Y0148540D01*
X0136201Y0148401D01*
X0136179Y0148262D01*
X0136154Y0148125D01*
X0136125Y0147987D01*
X0136092Y0147851D01*
X0136055Y0147716D01*
X0136014Y0147582D01*
X0135969Y0147449D01*
X0135921Y0147317D01*
X0135869Y0147187D01*
X0135814Y0147058D01*
X0135755Y0146931D01*
X0135692Y0146805D01*
X0135626Y0146681D01*
X0135557Y0146560D01*
X0135484Y0146440D01*
X0135407Y0146322D01*
X0135328Y0146207D01*
X0135245Y0146093D01*
X0135159Y0145983D01*
X0135070Y0145874D01*
X0134978Y0145768D01*
X0134883Y0145665D01*
X0134786Y0145564D01*
X0134685Y0145467D01*
X0134582Y0145372D01*
X0134476Y0145280D01*
X0134367Y0145191D01*
X0134257Y0145105D01*
X0134143Y0145022D01*
X0134028Y0144943D01*
X0133910Y0144866D01*
X0133790Y0144793D01*
X0133669Y0144724D01*
X0133545Y0144658D01*
X0133419Y0144595D01*
X0133292Y0144536D01*
X0133163Y0144481D01*
X0133033Y0144429D01*
X0132901Y0144381D01*
X0132768Y0144336D01*
X0132634Y0144295D01*
X0132499Y0144258D01*
X0132363Y0144225D01*
X0132225Y0144196D01*
X0132088Y0144171D01*
X0131949Y0144149D01*
X0131810Y0144131D01*
X0131670Y0144118D01*
X0131530Y0144108D01*
X0131390Y0144102D01*
X0131250Y0144100D01*
X0121250Y0144100D01*
X0121110Y0144102D01*
X0120970Y0144108D01*
X0120830Y0144118D01*
X0120690Y0144131D01*
X0120551Y0144149D01*
X0120412Y0144171D01*
X0120275Y0144196D01*
X0120137Y0144225D01*
X0120001Y0144258D01*
X0119866Y0144295D01*
X0119732Y0144336D01*
X0119599Y0144381D01*
X0119467Y0144429D01*
X0119337Y0144481D01*
X0119208Y0144536D01*
X0119081Y0144595D01*
X0118955Y0144658D01*
X0118831Y0144724D01*
X0118710Y0144793D01*
X0118590Y0144866D01*
X0118472Y0144943D01*
X0118357Y0145022D01*
X0118243Y0145105D01*
X0118133Y0145191D01*
X0118024Y0145280D01*
X0117918Y0145372D01*
X0117815Y0145467D01*
X0117714Y0145564D01*
X0117617Y0145665D01*
X0117522Y0145768D01*
X0117430Y0145874D01*
X0117341Y0145983D01*
X0117255Y0146093D01*
X0117172Y0146207D01*
X0117093Y0146322D01*
X0117016Y0146440D01*
X0116943Y0146560D01*
X0116874Y0146681D01*
X0116808Y0146805D01*
X0116745Y0146931D01*
X0116686Y0147058D01*
X0116631Y0147187D01*
X0116579Y0147317D01*
X0116531Y0147449D01*
X0116486Y0147582D01*
X0116445Y0147716D01*
X0116408Y0147851D01*
X0116375Y0147987D01*
X0116346Y0148125D01*
X0116321Y0148262D01*
X0116299Y0148401D01*
X0116281Y0148540D01*
X0116268Y0148680D01*
X0116258Y0148820D01*
X0116252Y0148960D01*
X0116250Y0149100D01*
X0116252Y0149240D01*
X0116258Y0149380D01*
X0116268Y0149520D01*
X0116281Y0149660D01*
X0116299Y0149799D01*
X0116321Y0149938D01*
X0116346Y0150075D01*
X0116375Y0150213D01*
X0116408Y0150349D01*
X0116445Y0150484D01*
X0116486Y0150618D01*
X0116531Y0150751D01*
X0116579Y0150883D01*
X0116631Y0151013D01*
X0116686Y0151142D01*
X0116745Y0151269D01*
X0116808Y0151395D01*
X0116874Y0151519D01*
X0116943Y0151640D01*
X0117016Y0151760D01*
X0117093Y0151878D01*
X0117172Y0151993D01*
X0117255Y0152107D01*
X0117341Y0152217D01*
X0117430Y0152326D01*
X0117522Y0152432D01*
X0117617Y0152535D01*
X0117714Y0152636D01*
X0117815Y0152733D01*
X0117918Y0152828D01*
X0118024Y0152920D01*
X0118133Y0153009D01*
X0118243Y0153095D01*
X0118357Y0153178D01*
X0118472Y0153257D01*
X0118590Y0153334D01*
X0118710Y0153407D01*
X0118831Y0153476D01*
X0118955Y0153542D01*
X0119081Y0153605D01*
X0119208Y0153664D01*
X0119337Y0153719D01*
X0119467Y0153771D01*
X0119599Y0153819D01*
X0119732Y0153864D01*
X0119866Y0153905D01*
X0120001Y0153942D01*
X0120137Y0153975D01*
X0120275Y0154004D01*
X0120412Y0154029D01*
X0120551Y0154051D01*
X0120690Y0154069D01*
X0120830Y0154082D01*
X0120970Y0154092D01*
X0121110Y0154098D01*
X0121250Y0154100D01*
X0145030Y0136727D02*
X0147530Y0136727D01*
X0146310Y0137943D02*
X0146310Y0135343D01*
X0141407Y0140600D02*
X0141410Y0140842D01*
X0141419Y0141083D01*
X0141434Y0141324D01*
X0141454Y0141565D01*
X0141481Y0141805D01*
X0141514Y0142044D01*
X0141552Y0142283D01*
X0141596Y0142520D01*
X0141646Y0142757D01*
X0141702Y0142992D01*
X0141764Y0143225D01*
X0141831Y0143457D01*
X0141904Y0143688D01*
X0141982Y0143916D01*
X0142067Y0144142D01*
X0142156Y0144367D01*
X0142251Y0144589D01*
X0142352Y0144808D01*
X0142458Y0145026D01*
X0142569Y0145240D01*
X0142686Y0145452D01*
X0142807Y0145660D01*
X0142934Y0145866D01*
X0143066Y0146068D01*
X0143203Y0146268D01*
X0143344Y0146463D01*
X0143490Y0146656D01*
X0143641Y0146844D01*
X0143797Y0147029D01*
X0143957Y0147210D01*
X0144121Y0147387D01*
X0144290Y0147560D01*
X0144463Y0147729D01*
X0144640Y0147893D01*
X0144821Y0148053D01*
X0145006Y0148209D01*
X0145194Y0148360D01*
X0145387Y0148506D01*
X0145582Y0148647D01*
X0145782Y0148784D01*
X0145984Y0148916D01*
X0146190Y0149043D01*
X0146398Y0149164D01*
X0146610Y0149281D01*
X0146824Y0149392D01*
X0147042Y0149498D01*
X0147261Y0149599D01*
X0147483Y0149694D01*
X0147708Y0149783D01*
X0147934Y0149868D01*
X0148162Y0149946D01*
X0148393Y0150019D01*
X0148625Y0150086D01*
X0148858Y0150148D01*
X0149093Y0150204D01*
X0149330Y0150254D01*
X0149567Y0150298D01*
X0149806Y0150336D01*
X0150045Y0150369D01*
X0150285Y0150396D01*
X0150526Y0150416D01*
X0150767Y0150431D01*
X0151008Y0150440D01*
X0151250Y0150443D01*
X0151492Y0150440D01*
X0151733Y0150431D01*
X0151974Y0150416D01*
X0152215Y0150396D01*
X0152455Y0150369D01*
X0152694Y0150336D01*
X0152933Y0150298D01*
X0153170Y0150254D01*
X0153407Y0150204D01*
X0153642Y0150148D01*
X0153875Y0150086D01*
X0154107Y0150019D01*
X0154338Y0149946D01*
X0154566Y0149868D01*
X0154792Y0149783D01*
X0155017Y0149694D01*
X0155239Y0149599D01*
X0155458Y0149498D01*
X0155676Y0149392D01*
X0155890Y0149281D01*
X0156102Y0149164D01*
X0156310Y0149043D01*
X0156516Y0148916D01*
X0156718Y0148784D01*
X0156918Y0148647D01*
X0157113Y0148506D01*
X0157306Y0148360D01*
X0157494Y0148209D01*
X0157679Y0148053D01*
X0157860Y0147893D01*
X0158037Y0147729D01*
X0158210Y0147560D01*
X0158379Y0147387D01*
X0158543Y0147210D01*
X0158703Y0147029D01*
X0158859Y0146844D01*
X0159010Y0146656D01*
X0159156Y0146463D01*
X0159297Y0146268D01*
X0159434Y0146068D01*
X0159566Y0145866D01*
X0159693Y0145660D01*
X0159814Y0145452D01*
X0159931Y0145240D01*
X0160042Y0145026D01*
X0160148Y0144808D01*
X0160249Y0144589D01*
X0160344Y0144367D01*
X0160433Y0144142D01*
X0160518Y0143916D01*
X0160596Y0143688D01*
X0160669Y0143457D01*
X0160736Y0143225D01*
X0160798Y0142992D01*
X0160854Y0142757D01*
X0160904Y0142520D01*
X0160948Y0142283D01*
X0160986Y0142044D01*
X0161019Y0141805D01*
X0161046Y0141565D01*
X0161066Y0141324D01*
X0161081Y0141083D01*
X0161090Y0140842D01*
X0161093Y0140600D01*
X0161090Y0140358D01*
X0161081Y0140117D01*
X0161066Y0139876D01*
X0161046Y0139635D01*
X0161019Y0139395D01*
X0160986Y0139156D01*
X0160948Y0138917D01*
X0160904Y0138680D01*
X0160854Y0138443D01*
X0160798Y0138208D01*
X0160736Y0137975D01*
X0160669Y0137743D01*
X0160596Y0137512D01*
X0160518Y0137284D01*
X0160433Y0137058D01*
X0160344Y0136833D01*
X0160249Y0136611D01*
X0160148Y0136392D01*
X0160042Y0136174D01*
X0159931Y0135960D01*
X0159814Y0135748D01*
X0159693Y0135540D01*
X0159566Y0135334D01*
X0159434Y0135132D01*
X0159297Y0134932D01*
X0159156Y0134737D01*
X0159010Y0134544D01*
X0158859Y0134356D01*
X0158703Y0134171D01*
X0158543Y0133990D01*
X0158379Y0133813D01*
X0158210Y0133640D01*
X0158037Y0133471D01*
X0157860Y0133307D01*
X0157679Y0133147D01*
X0157494Y0132991D01*
X0157306Y0132840D01*
X0157113Y0132694D01*
X0156918Y0132553D01*
X0156718Y0132416D01*
X0156516Y0132284D01*
X0156310Y0132157D01*
X0156102Y0132036D01*
X0155890Y0131919D01*
X0155676Y0131808D01*
X0155458Y0131702D01*
X0155239Y0131601D01*
X0155017Y0131506D01*
X0154792Y0131417D01*
X0154566Y0131332D01*
X0154338Y0131254D01*
X0154107Y0131181D01*
X0153875Y0131114D01*
X0153642Y0131052D01*
X0153407Y0130996D01*
X0153170Y0130946D01*
X0152933Y0130902D01*
X0152694Y0130864D01*
X0152455Y0130831D01*
X0152215Y0130804D01*
X0151974Y0130784D01*
X0151733Y0130769D01*
X0151492Y0130760D01*
X0151250Y0130757D01*
X0151008Y0130760D01*
X0150767Y0130769D01*
X0150526Y0130784D01*
X0150285Y0130804D01*
X0150045Y0130831D01*
X0149806Y0130864D01*
X0149567Y0130902D01*
X0149330Y0130946D01*
X0149093Y0130996D01*
X0148858Y0131052D01*
X0148625Y0131114D01*
X0148393Y0131181D01*
X0148162Y0131254D01*
X0147934Y0131332D01*
X0147708Y0131417D01*
X0147483Y0131506D01*
X0147261Y0131601D01*
X0147042Y0131702D01*
X0146824Y0131808D01*
X0146610Y0131919D01*
X0146398Y0132036D01*
X0146190Y0132157D01*
X0145984Y0132284D01*
X0145782Y0132416D01*
X0145582Y0132553D01*
X0145387Y0132694D01*
X0145194Y0132840D01*
X0145006Y0132991D01*
X0144821Y0133147D01*
X0144640Y0133307D01*
X0144463Y0133471D01*
X0144290Y0133640D01*
X0144121Y0133813D01*
X0143957Y0133990D01*
X0143797Y0134171D01*
X0143641Y0134356D01*
X0143490Y0134544D01*
X0143344Y0134737D01*
X0143203Y0134932D01*
X0143066Y0135132D01*
X0142934Y0135334D01*
X0142807Y0135540D01*
X0142686Y0135748D01*
X0142569Y0135960D01*
X0142458Y0136174D01*
X0142352Y0136392D01*
X0142251Y0136611D01*
X0142156Y0136833D01*
X0142067Y0137058D01*
X0141982Y0137284D01*
X0141904Y0137512D01*
X0141831Y0137743D01*
X0141764Y0137975D01*
X0141702Y0138208D01*
X0141646Y0138443D01*
X0141596Y0138680D01*
X0141552Y0138917D01*
X0141514Y0139156D01*
X0141481Y0139395D01*
X0141454Y0139635D01*
X0141434Y0139876D01*
X0141419Y0140117D01*
X0141410Y0140358D01*
X0141407Y0140600D01*
X0143250Y0122663D02*
X0149250Y0122663D01*
X0149310Y0122661D01*
X0149371Y0122656D01*
X0149430Y0122647D01*
X0149489Y0122634D01*
X0149548Y0122618D01*
X0149605Y0122598D01*
X0149660Y0122575D01*
X0149715Y0122548D01*
X0149767Y0122519D01*
X0149818Y0122486D01*
X0149867Y0122450D01*
X0149913Y0122412D01*
X0149957Y0122370D01*
X0149999Y0122326D01*
X0150037Y0122280D01*
X0150073Y0122231D01*
X0150106Y0122180D01*
X0150135Y0122128D01*
X0150162Y0122073D01*
X0150185Y0122018D01*
X0150205Y0121961D01*
X0150221Y0121902D01*
X0150234Y0121843D01*
X0150243Y0121784D01*
X0150248Y0121723D01*
X0150250Y0121663D01*
X0150250Y0117663D01*
X0149750Y0117163D01*
X0149750Y0106037D01*
X0150250Y0105537D01*
X0150250Y0101537D01*
X0150248Y0101477D01*
X0150243Y0101416D01*
X0150234Y0101357D01*
X0150221Y0101298D01*
X0150205Y0101239D01*
X0150185Y0101182D01*
X0150162Y0101127D01*
X0150135Y0101072D01*
X0150106Y0101020D01*
X0150073Y0100969D01*
X0150037Y0100920D01*
X0149999Y0100874D01*
X0149957Y0100830D01*
X0149913Y0100788D01*
X0149867Y0100750D01*
X0149818Y0100714D01*
X0149767Y0100681D01*
X0149715Y0100652D01*
X0149660Y0100625D01*
X0149605Y0100602D01*
X0149548Y0100582D01*
X0149489Y0100566D01*
X0149430Y0100553D01*
X0149371Y0100544D01*
X0149310Y0100539D01*
X0149250Y0100537D01*
X0143250Y0100537D01*
X0143190Y0100539D01*
X0143129Y0100544D01*
X0143070Y0100553D01*
X0143011Y0100566D01*
X0142952Y0100582D01*
X0142895Y0100602D01*
X0142840Y0100625D01*
X0142785Y0100652D01*
X0142733Y0100681D01*
X0142682Y0100714D01*
X0142633Y0100750D01*
X0142587Y0100788D01*
X0142543Y0100830D01*
X0142501Y0100874D01*
X0142463Y0100920D01*
X0142427Y0100969D01*
X0142394Y0101020D01*
X0142365Y0101072D01*
X0142338Y0101127D01*
X0142315Y0101182D01*
X0142295Y0101239D01*
X0142279Y0101298D01*
X0142266Y0101357D01*
X0142257Y0101416D01*
X0142252Y0101477D01*
X0142250Y0101537D01*
X0142250Y0105537D01*
X0142750Y0106037D01*
X0142750Y0117163D01*
X0142250Y0117663D01*
X0142250Y0121663D01*
X0142252Y0121723D01*
X0142257Y0121784D01*
X0142266Y0121843D01*
X0142279Y0121902D01*
X0142295Y0121961D01*
X0142315Y0122018D01*
X0142338Y0122073D01*
X0142365Y0122128D01*
X0142394Y0122180D01*
X0142427Y0122231D01*
X0142463Y0122280D01*
X0142501Y0122326D01*
X0142543Y0122370D01*
X0142587Y0122412D01*
X0142633Y0122450D01*
X0142682Y0122486D01*
X0142733Y0122519D01*
X0142785Y0122548D01*
X0142840Y0122575D01*
X0142895Y0122598D01*
X0142952Y0122618D01*
X0143011Y0122634D01*
X0143070Y0122647D01*
X0143129Y0122656D01*
X0143190Y0122661D01*
X0143250Y0122663D01*
X0152250Y0121663D02*
X0152250Y0117663D01*
X0152750Y0117163D01*
X0152750Y0106037D01*
X0152250Y0105537D01*
X0152250Y0101537D01*
X0152252Y0101477D01*
X0152257Y0101416D01*
X0152266Y0101357D01*
X0152279Y0101298D01*
X0152295Y0101239D01*
X0152315Y0101182D01*
X0152338Y0101127D01*
X0152365Y0101072D01*
X0152394Y0101020D01*
X0152427Y0100969D01*
X0152463Y0100920D01*
X0152501Y0100874D01*
X0152543Y0100830D01*
X0152587Y0100788D01*
X0152633Y0100750D01*
X0152682Y0100714D01*
X0152733Y0100681D01*
X0152785Y0100652D01*
X0152840Y0100625D01*
X0152895Y0100602D01*
X0152952Y0100582D01*
X0153011Y0100566D01*
X0153070Y0100553D01*
X0153129Y0100544D01*
X0153190Y0100539D01*
X0153250Y0100537D01*
X0159250Y0100537D01*
X0159310Y0100539D01*
X0159371Y0100544D01*
X0159430Y0100553D01*
X0159489Y0100566D01*
X0159548Y0100582D01*
X0159605Y0100602D01*
X0159660Y0100625D01*
X0159715Y0100652D01*
X0159767Y0100681D01*
X0159818Y0100714D01*
X0159867Y0100750D01*
X0159913Y0100788D01*
X0159957Y0100830D01*
X0159999Y0100874D01*
X0160037Y0100920D01*
X0160073Y0100969D01*
X0160106Y0101020D01*
X0160135Y0101072D01*
X0160162Y0101127D01*
X0160185Y0101182D01*
X0160205Y0101239D01*
X0160221Y0101298D01*
X0160234Y0101357D01*
X0160243Y0101416D01*
X0160248Y0101477D01*
X0160250Y0101537D01*
X0160250Y0105537D01*
X0159750Y0106037D01*
X0159750Y0117163D01*
X0160250Y0117663D01*
X0160250Y0121663D01*
X0160248Y0121723D01*
X0160243Y0121784D01*
X0160234Y0121843D01*
X0160221Y0121902D01*
X0160205Y0121961D01*
X0160185Y0122018D01*
X0160162Y0122073D01*
X0160135Y0122128D01*
X0160106Y0122180D01*
X0160073Y0122231D01*
X0160037Y0122280D01*
X0159999Y0122326D01*
X0159957Y0122370D01*
X0159913Y0122412D01*
X0159867Y0122450D01*
X0159818Y0122486D01*
X0159767Y0122519D01*
X0159715Y0122548D01*
X0159660Y0122575D01*
X0159605Y0122598D01*
X0159548Y0122618D01*
X0159489Y0122634D01*
X0159430Y0122647D01*
X0159371Y0122656D01*
X0159310Y0122661D01*
X0159250Y0122663D01*
X0153250Y0122663D01*
X0153190Y0122661D01*
X0153129Y0122656D01*
X0153070Y0122647D01*
X0153011Y0122634D01*
X0152952Y0122618D01*
X0152895Y0122598D01*
X0152840Y0122575D01*
X0152785Y0122548D01*
X0152733Y0122519D01*
X0152682Y0122486D01*
X0152633Y0122450D01*
X0152587Y0122412D01*
X0152543Y0122370D01*
X0152501Y0122326D01*
X0152463Y0122280D01*
X0152427Y0122231D01*
X0152394Y0122180D01*
X0152365Y0122128D01*
X0152338Y0122073D01*
X0152315Y0122018D01*
X0152295Y0121961D01*
X0152279Y0121902D01*
X0152266Y0121843D01*
X0152257Y0121784D01*
X0152252Y0121723D01*
X0152250Y0121663D01*
X0163947Y0133903D02*
X0163947Y0137494D01*
X0163947Y0158206D01*
X0163947Y0159297D01*
X0163949Y0159392D01*
X0163955Y0159487D01*
X0163965Y0159582D01*
X0163978Y0159676D01*
X0163996Y0159770D01*
X0164017Y0159862D01*
X0164043Y0159954D01*
X0164072Y0160045D01*
X0164105Y0160134D01*
X0164141Y0160222D01*
X0164181Y0160308D01*
X0164225Y0160393D01*
X0164272Y0160476D01*
X0164322Y0160557D01*
X0164376Y0160635D01*
X0164433Y0160712D01*
X0164493Y0160785D01*
X0164556Y0160857D01*
X0164622Y0160925D01*
X0164690Y0160991D01*
X0164762Y0161054D01*
X0164835Y0161114D01*
X0164912Y0161171D01*
X0164990Y0161225D01*
X0165071Y0161275D01*
X0165154Y0161322D01*
X0165239Y0161366D01*
X0165325Y0161406D01*
X0165413Y0161442D01*
X0165502Y0161475D01*
X0165593Y0161504D01*
X0165685Y0161530D01*
X0165777Y0161551D01*
X0165871Y0161569D01*
X0165965Y0161582D01*
X0166060Y0161592D01*
X0166155Y0161598D01*
X0166250Y0161600D01*
X0181250Y0161600D01*
X0181345Y0161598D01*
X0181440Y0161592D01*
X0181535Y0161582D01*
X0181629Y0161569D01*
X0181723Y0161551D01*
X0181815Y0161530D01*
X0181907Y0161504D01*
X0181998Y0161475D01*
X0182087Y0161442D01*
X0182175Y0161406D01*
X0182261Y0161366D01*
X0182346Y0161322D01*
X0182429Y0161275D01*
X0182510Y0161225D01*
X0182588Y0161171D01*
X0182665Y0161114D01*
X0182738Y0161054D01*
X0182810Y0160991D01*
X0182878Y0160925D01*
X0182944Y0160857D01*
X0183007Y0160785D01*
X0183067Y0160712D01*
X0183124Y0160635D01*
X0183178Y0160557D01*
X0183228Y0160476D01*
X0183275Y0160393D01*
X0183319Y0160308D01*
X0183359Y0160222D01*
X0183395Y0160134D01*
X0183428Y0160045D01*
X0183457Y0159954D01*
X0183483Y0159862D01*
X0183504Y0159770D01*
X0183522Y0159676D01*
X0183535Y0159582D01*
X0183545Y0159487D01*
X0183551Y0159392D01*
X0183553Y0159297D01*
X0183553Y0158206D01*
X0183553Y0134994D01*
X0183553Y0133903D01*
X0183551Y0133808D01*
X0183545Y0133713D01*
X0183535Y0133618D01*
X0183522Y0133524D01*
X0183504Y0133430D01*
X0183483Y0133338D01*
X0183457Y0133246D01*
X0183428Y0133155D01*
X0183395Y0133066D01*
X0183359Y0132978D01*
X0183319Y0132892D01*
X0183275Y0132807D01*
X0183228Y0132724D01*
X0183178Y0132643D01*
X0183124Y0132565D01*
X0183067Y0132488D01*
X0183007Y0132415D01*
X0182944Y0132343D01*
X0182878Y0132275D01*
X0182810Y0132209D01*
X0182738Y0132146D01*
X0182665Y0132086D01*
X0182588Y0132029D01*
X0182510Y0131975D01*
X0182429Y0131925D01*
X0182346Y0131878D01*
X0182261Y0131834D01*
X0182175Y0131794D01*
X0182087Y0131758D01*
X0181998Y0131725D01*
X0181907Y0131696D01*
X0181815Y0131670D01*
X0181723Y0131649D01*
X0181629Y0131631D01*
X0181535Y0131618D01*
X0181440Y0131608D01*
X0181345Y0131602D01*
X0181250Y0131600D01*
X0166250Y0131600D01*
X0166155Y0131602D01*
X0166060Y0131608D01*
X0165965Y0131618D01*
X0165871Y0131631D01*
X0165777Y0131649D01*
X0165685Y0131670D01*
X0165593Y0131696D01*
X0165502Y0131725D01*
X0165413Y0131758D01*
X0165325Y0131794D01*
X0165239Y0131834D01*
X0165154Y0131878D01*
X0165071Y0131925D01*
X0164990Y0131975D01*
X0164912Y0132029D01*
X0164835Y0132086D01*
X0164762Y0132146D01*
X0164690Y0132209D01*
X0164622Y0132275D01*
X0164556Y0132343D01*
X0164493Y0132415D01*
X0164433Y0132488D01*
X0164376Y0132565D01*
X0164322Y0132643D01*
X0164272Y0132724D01*
X0164225Y0132807D01*
X0164181Y0132892D01*
X0164141Y0132978D01*
X0164105Y0133066D01*
X0164072Y0133155D01*
X0164043Y0133246D01*
X0164017Y0133338D01*
X0163996Y0133430D01*
X0163978Y0133524D01*
X0163965Y0133618D01*
X0163955Y0133713D01*
X0163949Y0133808D01*
X0163947Y0133903D01*
X0170750Y0122663D02*
X0176750Y0122663D01*
X0176810Y0122661D01*
X0176871Y0122656D01*
X0176930Y0122647D01*
X0176989Y0122634D01*
X0177048Y0122618D01*
X0177105Y0122598D01*
X0177160Y0122575D01*
X0177215Y0122548D01*
X0177267Y0122519D01*
X0177318Y0122486D01*
X0177367Y0122450D01*
X0177413Y0122412D01*
X0177457Y0122370D01*
X0177499Y0122326D01*
X0177537Y0122280D01*
X0177573Y0122231D01*
X0177606Y0122180D01*
X0177635Y0122128D01*
X0177662Y0122073D01*
X0177685Y0122018D01*
X0177705Y0121961D01*
X0177721Y0121902D01*
X0177734Y0121843D01*
X0177743Y0121784D01*
X0177748Y0121723D01*
X0177750Y0121663D01*
X0177750Y0117663D01*
X0177250Y0117163D01*
X0177250Y0106037D01*
X0177750Y0105537D01*
X0177750Y0101537D01*
X0177748Y0101477D01*
X0177743Y0101416D01*
X0177734Y0101357D01*
X0177721Y0101298D01*
X0177705Y0101239D01*
X0177685Y0101182D01*
X0177662Y0101127D01*
X0177635Y0101072D01*
X0177606Y0101020D01*
X0177573Y0100969D01*
X0177537Y0100920D01*
X0177499Y0100874D01*
X0177457Y0100830D01*
X0177413Y0100788D01*
X0177367Y0100750D01*
X0177318Y0100714D01*
X0177267Y0100681D01*
X0177215Y0100652D01*
X0177160Y0100625D01*
X0177105Y0100602D01*
X0177048Y0100582D01*
X0176989Y0100566D01*
X0176930Y0100553D01*
X0176871Y0100544D01*
X0176810Y0100539D01*
X0176750Y0100537D01*
X0170750Y0100537D01*
X0170690Y0100539D01*
X0170629Y0100544D01*
X0170570Y0100553D01*
X0170511Y0100566D01*
X0170452Y0100582D01*
X0170395Y0100602D01*
X0170340Y0100625D01*
X0170285Y0100652D01*
X0170233Y0100681D01*
X0170182Y0100714D01*
X0170133Y0100750D01*
X0170087Y0100788D01*
X0170043Y0100830D01*
X0170001Y0100874D01*
X0169963Y0100920D01*
X0169927Y0100969D01*
X0169894Y0101020D01*
X0169865Y0101072D01*
X0169838Y0101127D01*
X0169815Y0101182D01*
X0169795Y0101239D01*
X0169779Y0101298D01*
X0169766Y0101357D01*
X0169757Y0101416D01*
X0169752Y0101477D01*
X0169750Y0101537D01*
X0169750Y0105537D01*
X0170250Y0106037D01*
X0170250Y0117163D01*
X0169750Y0117663D01*
X0169750Y0121663D01*
X0169752Y0121723D01*
X0169757Y0121784D01*
X0169766Y0121843D01*
X0169779Y0121902D01*
X0169795Y0121961D01*
X0169815Y0122018D01*
X0169838Y0122073D01*
X0169865Y0122128D01*
X0169894Y0122180D01*
X0169927Y0122231D01*
X0169963Y0122280D01*
X0170001Y0122326D01*
X0170043Y0122370D01*
X0170087Y0122412D01*
X0170133Y0122450D01*
X0170182Y0122486D01*
X0170233Y0122519D01*
X0170285Y0122548D01*
X0170340Y0122575D01*
X0170395Y0122598D01*
X0170452Y0122618D01*
X0170511Y0122634D01*
X0170570Y0122647D01*
X0170629Y0122656D01*
X0170690Y0122661D01*
X0170750Y0122663D01*
X0178750Y0121600D02*
X0178750Y0114100D01*
X0178750Y0111600D01*
X0183750Y0106600D02*
X0183890Y0106602D01*
X0184030Y0106608D01*
X0184170Y0106618D01*
X0184310Y0106631D01*
X0184449Y0106649D01*
X0184588Y0106671D01*
X0184725Y0106696D01*
X0184863Y0106725D01*
X0184999Y0106758D01*
X0185134Y0106795D01*
X0185268Y0106836D01*
X0185401Y0106881D01*
X0185533Y0106929D01*
X0185663Y0106981D01*
X0185792Y0107036D01*
X0185919Y0107095D01*
X0186045Y0107158D01*
X0186169Y0107224D01*
X0186290Y0107293D01*
X0186410Y0107366D01*
X0186528Y0107443D01*
X0186643Y0107522D01*
X0186757Y0107605D01*
X0186867Y0107691D01*
X0186976Y0107780D01*
X0187082Y0107872D01*
X0187185Y0107967D01*
X0187286Y0108064D01*
X0187383Y0108165D01*
X0187478Y0108268D01*
X0187570Y0108374D01*
X0187659Y0108483D01*
X0187745Y0108593D01*
X0187828Y0108707D01*
X0187907Y0108822D01*
X0187984Y0108940D01*
X0188057Y0109060D01*
X0188126Y0109181D01*
X0188192Y0109305D01*
X0188255Y0109431D01*
X0188314Y0109558D01*
X0188369Y0109687D01*
X0188421Y0109817D01*
X0188469Y0109949D01*
X0188514Y0110082D01*
X0188555Y0110216D01*
X0188592Y0110351D01*
X0188625Y0110487D01*
X0188654Y0110625D01*
X0188679Y0110762D01*
X0188701Y0110901D01*
X0188719Y0111040D01*
X0188732Y0111180D01*
X0188742Y0111320D01*
X0188748Y0111460D01*
X0188750Y0111600D01*
X0188750Y0121600D01*
X0189750Y0121663D02*
X0189750Y0117663D01*
X0190250Y0117163D01*
X0190250Y0106037D01*
X0189750Y0105537D01*
X0189750Y0101537D01*
X0189752Y0101477D01*
X0189757Y0101416D01*
X0189766Y0101357D01*
X0189779Y0101298D01*
X0189795Y0101239D01*
X0189815Y0101182D01*
X0189838Y0101127D01*
X0189865Y0101072D01*
X0189894Y0101020D01*
X0189927Y0100969D01*
X0189963Y0100920D01*
X0190001Y0100874D01*
X0190043Y0100830D01*
X0190087Y0100788D01*
X0190133Y0100750D01*
X0190182Y0100714D01*
X0190233Y0100681D01*
X0190285Y0100652D01*
X0190340Y0100625D01*
X0190395Y0100602D01*
X0190452Y0100582D01*
X0190511Y0100566D01*
X0190570Y0100553D01*
X0190629Y0100544D01*
X0190690Y0100539D01*
X0190750Y0100537D01*
X0196750Y0100537D01*
X0196810Y0100539D01*
X0196871Y0100544D01*
X0196930Y0100553D01*
X0196989Y0100566D01*
X0197048Y0100582D01*
X0197105Y0100602D01*
X0197160Y0100625D01*
X0197215Y0100652D01*
X0197267Y0100681D01*
X0197318Y0100714D01*
X0197367Y0100750D01*
X0197413Y0100788D01*
X0197457Y0100830D01*
X0197499Y0100874D01*
X0197537Y0100920D01*
X0197573Y0100969D01*
X0197606Y0101020D01*
X0197635Y0101072D01*
X0197662Y0101127D01*
X0197685Y0101182D01*
X0197705Y0101239D01*
X0197721Y0101298D01*
X0197734Y0101357D01*
X0197743Y0101416D01*
X0197748Y0101477D01*
X0197750Y0101537D01*
X0197750Y0105537D01*
X0197250Y0106037D01*
X0197250Y0117163D01*
X0197750Y0117663D01*
X0197750Y0121663D01*
X0197748Y0121723D01*
X0197743Y0121784D01*
X0197734Y0121843D01*
X0197721Y0121902D01*
X0197705Y0121961D01*
X0197685Y0122018D01*
X0197662Y0122073D01*
X0197635Y0122128D01*
X0197606Y0122180D01*
X0197573Y0122231D01*
X0197537Y0122280D01*
X0197499Y0122326D01*
X0197457Y0122370D01*
X0197413Y0122412D01*
X0197367Y0122450D01*
X0197318Y0122486D01*
X0197267Y0122519D01*
X0197215Y0122548D01*
X0197160Y0122575D01*
X0197105Y0122598D01*
X0197048Y0122618D01*
X0196989Y0122634D01*
X0196930Y0122647D01*
X0196871Y0122656D01*
X0196810Y0122661D01*
X0196750Y0122663D01*
X0190750Y0122663D01*
X0190690Y0122661D01*
X0190629Y0122656D01*
X0190570Y0122647D01*
X0190511Y0122634D01*
X0190452Y0122618D01*
X0190395Y0122598D01*
X0190340Y0122575D01*
X0190285Y0122548D01*
X0190233Y0122519D01*
X0190182Y0122486D01*
X0190133Y0122450D01*
X0190087Y0122412D01*
X0190043Y0122370D01*
X0190001Y0122326D01*
X0189963Y0122280D01*
X0189927Y0122231D01*
X0189894Y0122180D01*
X0189865Y0122128D01*
X0189838Y0122073D01*
X0189815Y0122018D01*
X0189795Y0121961D01*
X0189779Y0121902D01*
X0189766Y0121843D01*
X0189757Y0121784D01*
X0189752Y0121723D01*
X0189750Y0121663D01*
X0183750Y0126600D02*
X0183610Y0126598D01*
X0183470Y0126592D01*
X0183330Y0126582D01*
X0183190Y0126569D01*
X0183051Y0126551D01*
X0182912Y0126529D01*
X0182775Y0126504D01*
X0182637Y0126475D01*
X0182501Y0126442D01*
X0182366Y0126405D01*
X0182232Y0126364D01*
X0182099Y0126319D01*
X0181967Y0126271D01*
X0181837Y0126219D01*
X0181708Y0126164D01*
X0181581Y0126105D01*
X0181455Y0126042D01*
X0181331Y0125976D01*
X0181210Y0125907D01*
X0181090Y0125834D01*
X0180972Y0125757D01*
X0180857Y0125678D01*
X0180743Y0125595D01*
X0180633Y0125509D01*
X0180524Y0125420D01*
X0180418Y0125328D01*
X0180315Y0125233D01*
X0180214Y0125136D01*
X0180117Y0125035D01*
X0180022Y0124932D01*
X0179930Y0124826D01*
X0179841Y0124717D01*
X0179755Y0124607D01*
X0179672Y0124493D01*
X0179593Y0124378D01*
X0179516Y0124260D01*
X0179443Y0124140D01*
X0179374Y0124019D01*
X0179308Y0123895D01*
X0179245Y0123769D01*
X0179186Y0123642D01*
X0179131Y0123513D01*
X0179079Y0123383D01*
X0179031Y0123251D01*
X0178986Y0123118D01*
X0178945Y0122984D01*
X0178908Y0122849D01*
X0178875Y0122713D01*
X0178846Y0122575D01*
X0178821Y0122438D01*
X0178799Y0122299D01*
X0178781Y0122160D01*
X0178768Y0122020D01*
X0178758Y0121880D01*
X0178752Y0121740D01*
X0178750Y0121600D01*
X0183750Y0126600D02*
X0183890Y0126598D01*
X0184030Y0126592D01*
X0184170Y0126582D01*
X0184310Y0126569D01*
X0184449Y0126551D01*
X0184588Y0126529D01*
X0184725Y0126504D01*
X0184863Y0126475D01*
X0184999Y0126442D01*
X0185134Y0126405D01*
X0185268Y0126364D01*
X0185401Y0126319D01*
X0185533Y0126271D01*
X0185663Y0126219D01*
X0185792Y0126164D01*
X0185919Y0126105D01*
X0186045Y0126042D01*
X0186169Y0125976D01*
X0186290Y0125907D01*
X0186410Y0125834D01*
X0186528Y0125757D01*
X0186643Y0125678D01*
X0186757Y0125595D01*
X0186867Y0125509D01*
X0186976Y0125420D01*
X0187082Y0125328D01*
X0187185Y0125233D01*
X0187286Y0125136D01*
X0187383Y0125035D01*
X0187478Y0124932D01*
X0187570Y0124826D01*
X0187659Y0124717D01*
X0187745Y0124607D01*
X0187828Y0124493D01*
X0187907Y0124378D01*
X0187984Y0124260D01*
X0188057Y0124140D01*
X0188126Y0124019D01*
X0188192Y0123895D01*
X0188255Y0123769D01*
X0188314Y0123642D01*
X0188369Y0123513D01*
X0188421Y0123383D01*
X0188469Y0123251D01*
X0188514Y0123118D01*
X0188555Y0122984D01*
X0188592Y0122849D01*
X0188625Y0122713D01*
X0188654Y0122575D01*
X0188679Y0122438D01*
X0188701Y0122299D01*
X0188719Y0122160D01*
X0188732Y0122020D01*
X0188742Y0121880D01*
X0188748Y0121740D01*
X0188750Y0121600D01*
X0178750Y0111600D02*
X0178752Y0111460D01*
X0178758Y0111320D01*
X0178768Y0111180D01*
X0178781Y0111040D01*
X0178799Y0110901D01*
X0178821Y0110762D01*
X0178846Y0110625D01*
X0178875Y0110487D01*
X0178908Y0110351D01*
X0178945Y0110216D01*
X0178986Y0110082D01*
X0179031Y0109949D01*
X0179079Y0109817D01*
X0179131Y0109687D01*
X0179186Y0109558D01*
X0179245Y0109431D01*
X0179308Y0109305D01*
X0179374Y0109181D01*
X0179443Y0109060D01*
X0179516Y0108940D01*
X0179593Y0108822D01*
X0179672Y0108707D01*
X0179755Y0108593D01*
X0179841Y0108483D01*
X0179930Y0108374D01*
X0180022Y0108268D01*
X0180117Y0108165D01*
X0180214Y0108064D01*
X0180315Y0107967D01*
X0180418Y0107872D01*
X0180524Y0107780D01*
X0180633Y0107691D01*
X0180743Y0107605D01*
X0180857Y0107522D01*
X0180972Y0107443D01*
X0181090Y0107366D01*
X0181210Y0107293D01*
X0181331Y0107224D01*
X0181455Y0107158D01*
X0181581Y0107095D01*
X0181708Y0107036D01*
X0181837Y0106981D01*
X0181967Y0106929D01*
X0182099Y0106881D01*
X0182232Y0106836D01*
X0182366Y0106795D01*
X0182501Y0106758D01*
X0182637Y0106725D01*
X0182775Y0106696D01*
X0182912Y0106671D01*
X0183051Y0106649D01*
X0183190Y0106631D01*
X0183330Y0106618D01*
X0183470Y0106608D01*
X0183610Y0106602D01*
X0183750Y0106600D01*
X0199750Y0105537D02*
X0199750Y0101537D01*
X0199752Y0101477D01*
X0199757Y0101416D01*
X0199766Y0101357D01*
X0199779Y0101298D01*
X0199795Y0101239D01*
X0199815Y0101182D01*
X0199838Y0101127D01*
X0199865Y0101072D01*
X0199894Y0101020D01*
X0199927Y0100969D01*
X0199963Y0100920D01*
X0200001Y0100874D01*
X0200043Y0100830D01*
X0200087Y0100788D01*
X0200133Y0100750D01*
X0200182Y0100714D01*
X0200233Y0100681D01*
X0200285Y0100652D01*
X0200340Y0100625D01*
X0200395Y0100602D01*
X0200452Y0100582D01*
X0200511Y0100566D01*
X0200570Y0100553D01*
X0200629Y0100544D01*
X0200690Y0100539D01*
X0200750Y0100537D01*
X0206750Y0100537D01*
X0206810Y0100539D01*
X0206871Y0100544D01*
X0206930Y0100553D01*
X0206989Y0100566D01*
X0207048Y0100582D01*
X0207105Y0100602D01*
X0207160Y0100625D01*
X0207215Y0100652D01*
X0207267Y0100681D01*
X0207318Y0100714D01*
X0207367Y0100750D01*
X0207413Y0100788D01*
X0207457Y0100830D01*
X0207499Y0100874D01*
X0207537Y0100920D01*
X0207573Y0100969D01*
X0207606Y0101020D01*
X0207635Y0101072D01*
X0207662Y0101127D01*
X0207685Y0101182D01*
X0207705Y0101239D01*
X0207721Y0101298D01*
X0207734Y0101357D01*
X0207743Y0101416D01*
X0207748Y0101477D01*
X0207750Y0101537D01*
X0207750Y0105537D01*
X0207250Y0106037D01*
X0207250Y0117163D01*
X0207750Y0117663D01*
X0207750Y0121663D01*
X0207748Y0121723D01*
X0207743Y0121784D01*
X0207734Y0121843D01*
X0207721Y0121902D01*
X0207705Y0121961D01*
X0207685Y0122018D01*
X0207662Y0122073D01*
X0207635Y0122128D01*
X0207606Y0122180D01*
X0207573Y0122231D01*
X0207537Y0122280D01*
X0207499Y0122326D01*
X0207457Y0122370D01*
X0207413Y0122412D01*
X0207367Y0122450D01*
X0207318Y0122486D01*
X0207267Y0122519D01*
X0207215Y0122548D01*
X0207160Y0122575D01*
X0207105Y0122598D01*
X0207048Y0122618D01*
X0206989Y0122634D01*
X0206930Y0122647D01*
X0206871Y0122656D01*
X0206810Y0122661D01*
X0206750Y0122663D01*
X0200750Y0122663D01*
X0200690Y0122661D01*
X0200629Y0122656D01*
X0200570Y0122647D01*
X0200511Y0122634D01*
X0200452Y0122618D01*
X0200395Y0122598D01*
X0200340Y0122575D01*
X0200285Y0122548D01*
X0200233Y0122519D01*
X0200182Y0122486D01*
X0200133Y0122450D01*
X0200087Y0122412D01*
X0200043Y0122370D01*
X0200001Y0122326D01*
X0199963Y0122280D01*
X0199927Y0122231D01*
X0199894Y0122180D01*
X0199865Y0122128D01*
X0199838Y0122073D01*
X0199815Y0122018D01*
X0199795Y0121961D01*
X0199779Y0121902D01*
X0199766Y0121843D01*
X0199757Y0121784D01*
X0199752Y0121723D01*
X0199750Y0121663D01*
X0199750Y0117663D01*
X0200250Y0117163D01*
X0200250Y0106037D01*
X0199750Y0105537D01*
X0198632Y0132494D02*
X0188868Y0132494D01*
X0188868Y0160706D01*
X0198632Y0160706D01*
X0198632Y0132494D01*
X0198654Y0181400D02*
X0198654Y0185804D01*
X0200122Y0184336D01*
X0201590Y0185804D01*
X0201590Y0181400D01*
X0203258Y0181400D02*
X0206194Y0181400D01*
X0204726Y0183602D02*
X0203258Y0183602D01*
X0203258Y0185804D02*
X0203258Y0181400D01*
X0203258Y0185804D02*
X0206194Y0185804D01*
X0196986Y0185804D02*
X0196986Y0182134D01*
X0196252Y0181400D01*
X0194784Y0181400D01*
X0194050Y0182134D01*
X0194050Y0185804D01*
X0189446Y0185804D02*
X0189446Y0181400D01*
X0192382Y0181400D01*
X0187778Y0182134D02*
X0187778Y0185070D01*
X0187044Y0185804D01*
X0185576Y0185804D01*
X0184842Y0185070D01*
X0184842Y0182134D01*
X0185576Y0181400D01*
X0187044Y0181400D01*
X0187778Y0182134D01*
X0183174Y0182868D02*
X0183174Y0185804D01*
X0183174Y0182868D02*
X0181706Y0181400D01*
X0180238Y0182868D01*
X0180238Y0185804D01*
X0198546Y0212150D02*
X0198546Y0215086D01*
X0198546Y0213618D02*
X0202950Y0213618D01*
X0202950Y0216754D02*
X0198546Y0216754D01*
X0202950Y0219690D01*
X0198546Y0219690D01*
X0198546Y0237150D02*
X0198546Y0239352D01*
X0199280Y0240086D01*
X0200748Y0240086D01*
X0201482Y0239352D01*
X0201482Y0237150D01*
X0201482Y0238618D02*
X0202950Y0240086D01*
X0202950Y0241754D02*
X0198546Y0241754D01*
X0202950Y0244690D01*
X0198546Y0244690D01*
X0198546Y0237150D02*
X0202950Y0237150D01*
X0202216Y0262150D02*
X0202950Y0262884D01*
X0202950Y0264352D01*
X0202216Y0265086D01*
X0201482Y0265086D01*
X0200748Y0264352D01*
X0200748Y0262884D01*
X0200014Y0262150D01*
X0199280Y0262150D01*
X0198546Y0262884D01*
X0198546Y0264352D01*
X0199280Y0265086D01*
X0198546Y0266754D02*
X0202950Y0269690D01*
X0198546Y0269690D01*
X0198546Y0266754D02*
X0202950Y0266754D01*
X0188694Y0276554D02*
X0185758Y0276554D01*
X0187226Y0276554D02*
X0187226Y0272150D01*
X0184090Y0272884D02*
X0184090Y0276554D01*
X0181154Y0276554D02*
X0181154Y0272884D01*
X0181888Y0272150D01*
X0183356Y0272150D01*
X0184090Y0272884D01*
X0179486Y0274352D02*
X0178752Y0273618D01*
X0176550Y0273618D01*
X0176550Y0272150D02*
X0176550Y0276554D01*
X0178752Y0276554D01*
X0179486Y0275820D01*
X0179486Y0274352D01*
X0174882Y0276554D02*
X0171946Y0276554D01*
X0173414Y0276554D02*
X0173414Y0272150D01*
X0170278Y0272884D02*
X0170278Y0276554D01*
X0167342Y0276554D02*
X0167342Y0272884D01*
X0168076Y0272150D01*
X0169544Y0272150D01*
X0170278Y0272884D01*
X0165674Y0272884D02*
X0164940Y0272150D01*
X0163472Y0272150D01*
X0162738Y0272884D01*
X0162738Y0275820D01*
X0163472Y0276554D01*
X0164940Y0276554D01*
X0165674Y0275820D01*
X0165674Y0272884D01*
X0152950Y0266852D02*
X0152950Y0265384D01*
X0152216Y0264650D01*
X0150748Y0265384D02*
X0150748Y0266852D01*
X0151482Y0267586D01*
X0152216Y0267586D01*
X0152950Y0266852D01*
X0150748Y0265384D02*
X0150014Y0264650D01*
X0149280Y0264650D01*
X0148546Y0265384D01*
X0148546Y0266852D01*
X0149280Y0267586D01*
X0149280Y0242586D02*
X0148546Y0241852D01*
X0148546Y0239650D01*
X0152950Y0239650D01*
X0151482Y0239650D02*
X0151482Y0241852D01*
X0150748Y0242586D01*
X0149280Y0242586D01*
X0151482Y0241118D02*
X0152950Y0242586D01*
X0148546Y0217586D02*
X0148546Y0214650D01*
X0148546Y0216118D02*
X0152950Y0216118D01*
X0093950Y0216754D02*
X0089546Y0216754D01*
X0093950Y0219690D01*
X0089546Y0219690D01*
X0089546Y0215086D02*
X0089546Y0212150D01*
X0089546Y0213618D02*
X0093950Y0213618D01*
X0093950Y0237150D02*
X0089546Y0237150D01*
X0089546Y0239352D01*
X0090280Y0240086D01*
X0091748Y0240086D01*
X0092482Y0239352D01*
X0092482Y0237150D01*
X0092482Y0238618D02*
X0093950Y0240086D01*
X0093950Y0241754D02*
X0089546Y0241754D01*
X0093950Y0244690D01*
X0089546Y0244690D01*
X0090280Y0262150D02*
X0091014Y0262150D01*
X0091748Y0262884D01*
X0091748Y0264352D01*
X0092482Y0265086D01*
X0093216Y0265086D01*
X0093950Y0264352D01*
X0093950Y0262884D01*
X0093216Y0262150D01*
X0090280Y0262150D02*
X0089546Y0262884D01*
X0089546Y0264352D01*
X0090280Y0265086D01*
X0089546Y0266754D02*
X0093950Y0269690D01*
X0089546Y0269690D01*
X0089546Y0266754D02*
X0093950Y0266754D01*
X0075156Y0272150D02*
X0075156Y0276554D01*
X0073689Y0276554D02*
X0076624Y0276554D01*
X0072020Y0276554D02*
X0072020Y0272884D01*
X0071286Y0272150D01*
X0069819Y0272150D01*
X0069085Y0272884D01*
X0069085Y0276554D01*
X0067417Y0275820D02*
X0067417Y0274352D01*
X0066683Y0273618D01*
X0064481Y0273618D01*
X0064481Y0272150D02*
X0064481Y0276554D01*
X0066683Y0276554D01*
X0067417Y0275820D01*
X0062813Y0276554D02*
X0062813Y0272150D01*
X0059877Y0276554D01*
X0059877Y0272150D01*
X0058275Y0272150D02*
X0056807Y0272150D01*
X0057541Y0272150D02*
X0057541Y0276554D01*
X0056807Y0276554D02*
X0058275Y0276554D01*
X0043950Y0266852D02*
X0043950Y0265384D01*
X0043216Y0264650D01*
X0041748Y0265384D02*
X0041748Y0266852D01*
X0042482Y0267586D01*
X0043216Y0267586D01*
X0043950Y0266852D01*
X0041748Y0265384D02*
X0041014Y0264650D01*
X0040280Y0264650D01*
X0039546Y0265384D01*
X0039546Y0266852D01*
X0040280Y0267586D01*
X0040280Y0242586D02*
X0041748Y0242586D01*
X0042482Y0241852D01*
X0042482Y0239650D01*
X0042482Y0241118D02*
X0043950Y0242586D01*
X0043950Y0239650D02*
X0039546Y0239650D01*
X0039546Y0241852D01*
X0040280Y0242586D01*
X0039546Y0217586D02*
X0039546Y0214650D01*
X0039546Y0216118D02*
X0043950Y0216118D01*
X0042811Y0185804D02*
X0041343Y0185804D01*
X0040609Y0185070D01*
X0040609Y0182134D01*
X0041343Y0181400D01*
X0042811Y0181400D01*
X0043545Y0182134D01*
X0043545Y0183602D01*
X0042077Y0183602D01*
X0043545Y0185070D02*
X0042811Y0185804D01*
X0045213Y0184336D02*
X0046681Y0185804D01*
X0048149Y0184336D01*
X0048149Y0181400D01*
X0049817Y0181400D02*
X0051285Y0181400D01*
X0050551Y0181400D02*
X0050551Y0185804D01*
X0049817Y0185804D02*
X0051285Y0185804D01*
X0052887Y0185804D02*
X0055822Y0181400D01*
X0055822Y0185804D01*
X0052887Y0185804D02*
X0052887Y0181400D01*
X0048149Y0183602D02*
X0045213Y0183602D01*
X0045213Y0184336D02*
X0045213Y0181400D01*
X0091250Y0126600D02*
X0091252Y0126460D01*
X0091258Y0126320D01*
X0091268Y0126180D01*
X0091281Y0126040D01*
X0091299Y0125901D01*
X0091321Y0125762D01*
X0091346Y0125625D01*
X0091375Y0125487D01*
X0091408Y0125351D01*
X0091445Y0125216D01*
X0091486Y0125082D01*
X0091531Y0124949D01*
X0091579Y0124817D01*
X0091631Y0124687D01*
X0091686Y0124558D01*
X0091745Y0124431D01*
X0091808Y0124305D01*
X0091874Y0124181D01*
X0091943Y0124060D01*
X0092016Y0123940D01*
X0092093Y0123822D01*
X0092172Y0123707D01*
X0092255Y0123593D01*
X0092341Y0123483D01*
X0092430Y0123374D01*
X0092522Y0123268D01*
X0092617Y0123165D01*
X0092714Y0123064D01*
X0092815Y0122967D01*
X0092918Y0122872D01*
X0093024Y0122780D01*
X0093133Y0122691D01*
X0093243Y0122605D01*
X0093357Y0122522D01*
X0093472Y0122443D01*
X0093590Y0122366D01*
X0093710Y0122293D01*
X0093831Y0122224D01*
X0093955Y0122158D01*
X0094081Y0122095D01*
X0094208Y0122036D01*
X0094337Y0121981D01*
X0094467Y0121929D01*
X0094599Y0121881D01*
X0094732Y0121836D01*
X0094866Y0121795D01*
X0095001Y0121758D01*
X0095137Y0121725D01*
X0095275Y0121696D01*
X0095412Y0121671D01*
X0095551Y0121649D01*
X0095690Y0121631D01*
X0095830Y0121618D01*
X0095970Y0121608D01*
X0096110Y0121602D01*
X0096250Y0121600D01*
X0091250Y0111600D02*
X0083750Y0111600D01*
X0081250Y0111600D01*
X0076250Y0106600D02*
X0076252Y0106460D01*
X0076258Y0106320D01*
X0076268Y0106180D01*
X0076281Y0106040D01*
X0076299Y0105901D01*
X0076321Y0105762D01*
X0076346Y0105625D01*
X0076375Y0105487D01*
X0076408Y0105351D01*
X0076445Y0105216D01*
X0076486Y0105082D01*
X0076531Y0104949D01*
X0076579Y0104817D01*
X0076631Y0104687D01*
X0076686Y0104558D01*
X0076745Y0104431D01*
X0076808Y0104305D01*
X0076874Y0104181D01*
X0076943Y0104060D01*
X0077016Y0103940D01*
X0077093Y0103822D01*
X0077172Y0103707D01*
X0077255Y0103593D01*
X0077341Y0103483D01*
X0077430Y0103374D01*
X0077522Y0103268D01*
X0077617Y0103165D01*
X0077714Y0103064D01*
X0077815Y0102967D01*
X0077918Y0102872D01*
X0078024Y0102780D01*
X0078133Y0102691D01*
X0078243Y0102605D01*
X0078357Y0102522D01*
X0078472Y0102443D01*
X0078590Y0102366D01*
X0078710Y0102293D01*
X0078831Y0102224D01*
X0078955Y0102158D01*
X0079081Y0102095D01*
X0079208Y0102036D01*
X0079337Y0101981D01*
X0079467Y0101929D01*
X0079599Y0101881D01*
X0079732Y0101836D01*
X0079866Y0101795D01*
X0080001Y0101758D01*
X0080137Y0101725D01*
X0080275Y0101696D01*
X0080412Y0101671D01*
X0080551Y0101649D01*
X0080690Y0101631D01*
X0080830Y0101618D01*
X0080970Y0101608D01*
X0081110Y0101602D01*
X0081250Y0101600D01*
X0091250Y0101600D01*
X0091368Y0100706D02*
X0101132Y0100706D01*
X0101132Y0072494D01*
X0091368Y0072494D01*
X0091368Y0100706D01*
X0096250Y0106600D02*
X0096248Y0106740D01*
X0096242Y0106880D01*
X0096232Y0107020D01*
X0096219Y0107160D01*
X0096201Y0107299D01*
X0096179Y0107438D01*
X0096154Y0107575D01*
X0096125Y0107713D01*
X0096092Y0107849D01*
X0096055Y0107984D01*
X0096014Y0108118D01*
X0095969Y0108251D01*
X0095921Y0108383D01*
X0095869Y0108513D01*
X0095814Y0108642D01*
X0095755Y0108769D01*
X0095692Y0108895D01*
X0095626Y0109019D01*
X0095557Y0109140D01*
X0095484Y0109260D01*
X0095407Y0109378D01*
X0095328Y0109493D01*
X0095245Y0109607D01*
X0095159Y0109717D01*
X0095070Y0109826D01*
X0094978Y0109932D01*
X0094883Y0110035D01*
X0094786Y0110136D01*
X0094685Y0110233D01*
X0094582Y0110328D01*
X0094476Y0110420D01*
X0094367Y0110509D01*
X0094257Y0110595D01*
X0094143Y0110678D01*
X0094028Y0110757D01*
X0093910Y0110834D01*
X0093790Y0110907D01*
X0093669Y0110976D01*
X0093545Y0111042D01*
X0093419Y0111105D01*
X0093292Y0111164D01*
X0093163Y0111219D01*
X0093033Y0111271D01*
X0092901Y0111319D01*
X0092768Y0111364D01*
X0092634Y0111405D01*
X0092499Y0111442D01*
X0092363Y0111475D01*
X0092225Y0111504D01*
X0092088Y0111529D01*
X0091949Y0111551D01*
X0091810Y0111569D01*
X0091670Y0111582D01*
X0091530Y0111592D01*
X0091390Y0111598D01*
X0091250Y0111600D01*
X0096250Y0106600D02*
X0096248Y0106460D01*
X0096242Y0106320D01*
X0096232Y0106180D01*
X0096219Y0106040D01*
X0096201Y0105901D01*
X0096179Y0105762D01*
X0096154Y0105625D01*
X0096125Y0105487D01*
X0096092Y0105351D01*
X0096055Y0105216D01*
X0096014Y0105082D01*
X0095969Y0104949D01*
X0095921Y0104817D01*
X0095869Y0104687D01*
X0095814Y0104558D01*
X0095755Y0104431D01*
X0095692Y0104305D01*
X0095626Y0104181D01*
X0095557Y0104060D01*
X0095484Y0103940D01*
X0095407Y0103822D01*
X0095328Y0103707D01*
X0095245Y0103593D01*
X0095159Y0103483D01*
X0095070Y0103374D01*
X0094978Y0103268D01*
X0094883Y0103165D01*
X0094786Y0103064D01*
X0094685Y0102967D01*
X0094582Y0102872D01*
X0094476Y0102780D01*
X0094367Y0102691D01*
X0094257Y0102605D01*
X0094143Y0102522D01*
X0094028Y0102443D01*
X0093910Y0102366D01*
X0093790Y0102293D01*
X0093669Y0102224D01*
X0093545Y0102158D01*
X0093419Y0102095D01*
X0093292Y0102036D01*
X0093163Y0101981D01*
X0093033Y0101929D01*
X0092901Y0101881D01*
X0092768Y0101836D01*
X0092634Y0101795D01*
X0092499Y0101758D01*
X0092363Y0101725D01*
X0092225Y0101696D01*
X0092088Y0101671D01*
X0091949Y0101649D01*
X0091810Y0101631D01*
X0091670Y0101618D01*
X0091530Y0101608D01*
X0091390Y0101602D01*
X0091250Y0101600D01*
X0089250Y0092663D02*
X0083250Y0092663D01*
X0083190Y0092661D01*
X0083129Y0092656D01*
X0083070Y0092647D01*
X0083011Y0092634D01*
X0082952Y0092618D01*
X0082895Y0092598D01*
X0082840Y0092575D01*
X0082785Y0092548D01*
X0082733Y0092519D01*
X0082682Y0092486D01*
X0082633Y0092450D01*
X0082587Y0092412D01*
X0082543Y0092370D01*
X0082501Y0092326D01*
X0082463Y0092280D01*
X0082427Y0092231D01*
X0082394Y0092180D01*
X0082365Y0092128D01*
X0082338Y0092073D01*
X0082315Y0092018D01*
X0082295Y0091961D01*
X0082279Y0091902D01*
X0082266Y0091843D01*
X0082257Y0091784D01*
X0082252Y0091723D01*
X0082250Y0091663D01*
X0082250Y0087663D01*
X0082750Y0087163D01*
X0082750Y0076037D01*
X0082250Y0075537D01*
X0082250Y0071537D01*
X0082252Y0071477D01*
X0082257Y0071416D01*
X0082266Y0071357D01*
X0082279Y0071298D01*
X0082295Y0071239D01*
X0082315Y0071182D01*
X0082338Y0071127D01*
X0082365Y0071072D01*
X0082394Y0071020D01*
X0082427Y0070969D01*
X0082463Y0070920D01*
X0082501Y0070874D01*
X0082543Y0070830D01*
X0082587Y0070788D01*
X0082633Y0070750D01*
X0082682Y0070714D01*
X0082733Y0070681D01*
X0082785Y0070652D01*
X0082840Y0070625D01*
X0082895Y0070602D01*
X0082952Y0070582D01*
X0083011Y0070566D01*
X0083070Y0070553D01*
X0083129Y0070544D01*
X0083190Y0070539D01*
X0083250Y0070537D01*
X0089250Y0070537D01*
X0089310Y0070539D01*
X0089371Y0070544D01*
X0089430Y0070553D01*
X0089489Y0070566D01*
X0089548Y0070582D01*
X0089605Y0070602D01*
X0089660Y0070625D01*
X0089715Y0070652D01*
X0089767Y0070681D01*
X0089818Y0070714D01*
X0089867Y0070750D01*
X0089913Y0070788D01*
X0089957Y0070830D01*
X0089999Y0070874D01*
X0090037Y0070920D01*
X0090073Y0070969D01*
X0090106Y0071020D01*
X0090135Y0071072D01*
X0090162Y0071127D01*
X0090185Y0071182D01*
X0090205Y0071239D01*
X0090221Y0071298D01*
X0090234Y0071357D01*
X0090243Y0071416D01*
X0090248Y0071477D01*
X0090250Y0071537D01*
X0090250Y0075537D01*
X0089750Y0076037D01*
X0089750Y0087163D01*
X0090250Y0087663D01*
X0090250Y0091663D01*
X0090248Y0091723D01*
X0090243Y0091784D01*
X0090234Y0091843D01*
X0090221Y0091902D01*
X0090205Y0091961D01*
X0090185Y0092018D01*
X0090162Y0092073D01*
X0090135Y0092128D01*
X0090106Y0092180D01*
X0090073Y0092231D01*
X0090037Y0092280D01*
X0089999Y0092326D01*
X0089957Y0092370D01*
X0089913Y0092412D01*
X0089867Y0092450D01*
X0089818Y0092486D01*
X0089767Y0092519D01*
X0089715Y0092548D01*
X0089660Y0092575D01*
X0089605Y0092598D01*
X0089548Y0092618D01*
X0089489Y0092634D01*
X0089430Y0092647D01*
X0089371Y0092656D01*
X0089310Y0092661D01*
X0089250Y0092663D01*
X0080250Y0091663D02*
X0080250Y0087663D01*
X0079750Y0087163D01*
X0079750Y0076037D01*
X0080250Y0075537D01*
X0080250Y0071537D01*
X0080248Y0071477D01*
X0080243Y0071416D01*
X0080234Y0071357D01*
X0080221Y0071298D01*
X0080205Y0071239D01*
X0080185Y0071182D01*
X0080162Y0071127D01*
X0080135Y0071072D01*
X0080106Y0071020D01*
X0080073Y0070969D01*
X0080037Y0070920D01*
X0079999Y0070874D01*
X0079957Y0070830D01*
X0079913Y0070788D01*
X0079867Y0070750D01*
X0079818Y0070714D01*
X0079767Y0070681D01*
X0079715Y0070652D01*
X0079660Y0070625D01*
X0079605Y0070602D01*
X0079548Y0070582D01*
X0079489Y0070566D01*
X0079430Y0070553D01*
X0079371Y0070544D01*
X0079310Y0070539D01*
X0079250Y0070537D01*
X0073250Y0070537D01*
X0073190Y0070539D01*
X0073129Y0070544D01*
X0073070Y0070553D01*
X0073011Y0070566D01*
X0072952Y0070582D01*
X0072895Y0070602D01*
X0072840Y0070625D01*
X0072785Y0070652D01*
X0072733Y0070681D01*
X0072682Y0070714D01*
X0072633Y0070750D01*
X0072587Y0070788D01*
X0072543Y0070830D01*
X0072501Y0070874D01*
X0072463Y0070920D01*
X0072427Y0070969D01*
X0072394Y0071020D01*
X0072365Y0071072D01*
X0072338Y0071127D01*
X0072315Y0071182D01*
X0072295Y0071239D01*
X0072279Y0071298D01*
X0072266Y0071357D01*
X0072257Y0071416D01*
X0072252Y0071477D01*
X0072250Y0071537D01*
X0072250Y0075537D01*
X0072750Y0076037D01*
X0072750Y0087163D01*
X0072250Y0087663D01*
X0072250Y0091663D01*
X0072252Y0091723D01*
X0072257Y0091784D01*
X0072266Y0091843D01*
X0072279Y0091902D01*
X0072295Y0091961D01*
X0072315Y0092018D01*
X0072338Y0092073D01*
X0072365Y0092128D01*
X0072394Y0092180D01*
X0072427Y0092231D01*
X0072463Y0092280D01*
X0072501Y0092326D01*
X0072543Y0092370D01*
X0072587Y0092412D01*
X0072633Y0092450D01*
X0072682Y0092486D01*
X0072733Y0092519D01*
X0072785Y0092548D01*
X0072840Y0092575D01*
X0072895Y0092598D01*
X0072952Y0092618D01*
X0073011Y0092634D01*
X0073070Y0092647D01*
X0073129Y0092656D01*
X0073190Y0092661D01*
X0073250Y0092663D01*
X0079250Y0092663D01*
X0079310Y0092661D01*
X0079371Y0092656D01*
X0079430Y0092647D01*
X0079489Y0092634D01*
X0079548Y0092618D01*
X0079605Y0092598D01*
X0079660Y0092575D01*
X0079715Y0092548D01*
X0079767Y0092519D01*
X0079818Y0092486D01*
X0079867Y0092450D01*
X0079913Y0092412D01*
X0079957Y0092370D01*
X0079999Y0092326D01*
X0080037Y0092280D01*
X0080073Y0092231D01*
X0080106Y0092180D01*
X0080135Y0092128D01*
X0080162Y0092073D01*
X0080185Y0092018D01*
X0080205Y0091961D01*
X0080221Y0091902D01*
X0080234Y0091843D01*
X0080243Y0091784D01*
X0080248Y0091723D01*
X0080250Y0091663D01*
X0076250Y0106600D02*
X0076252Y0106740D01*
X0076258Y0106880D01*
X0076268Y0107020D01*
X0076281Y0107160D01*
X0076299Y0107299D01*
X0076321Y0107438D01*
X0076346Y0107575D01*
X0076375Y0107713D01*
X0076408Y0107849D01*
X0076445Y0107984D01*
X0076486Y0108118D01*
X0076531Y0108251D01*
X0076579Y0108383D01*
X0076631Y0108513D01*
X0076686Y0108642D01*
X0076745Y0108769D01*
X0076808Y0108895D01*
X0076874Y0109019D01*
X0076943Y0109140D01*
X0077016Y0109260D01*
X0077093Y0109378D01*
X0077172Y0109493D01*
X0077255Y0109607D01*
X0077341Y0109717D01*
X0077430Y0109826D01*
X0077522Y0109932D01*
X0077617Y0110035D01*
X0077714Y0110136D01*
X0077815Y0110233D01*
X0077918Y0110328D01*
X0078024Y0110420D01*
X0078133Y0110509D01*
X0078243Y0110595D01*
X0078357Y0110678D01*
X0078472Y0110757D01*
X0078590Y0110834D01*
X0078710Y0110907D01*
X0078831Y0110976D01*
X0078955Y0111042D01*
X0079081Y0111105D01*
X0079208Y0111164D01*
X0079337Y0111219D01*
X0079467Y0111271D01*
X0079599Y0111319D01*
X0079732Y0111364D01*
X0079866Y0111405D01*
X0080001Y0111442D01*
X0080137Y0111475D01*
X0080275Y0111504D01*
X0080412Y0111529D01*
X0080551Y0111551D01*
X0080690Y0111569D01*
X0080830Y0111582D01*
X0080970Y0111592D01*
X0081110Y0111598D01*
X0081250Y0111600D01*
X0107144Y0091482D02*
X0107144Y0081718D01*
X0135356Y0081718D01*
X0135356Y0091482D01*
X0107144Y0091482D01*
X0110187Y0093600D02*
X0110187Y0099600D01*
X0110189Y0099660D01*
X0110194Y0099721D01*
X0110203Y0099780D01*
X0110216Y0099839D01*
X0110232Y0099898D01*
X0110252Y0099955D01*
X0110275Y0100010D01*
X0110302Y0100065D01*
X0110331Y0100117D01*
X0110364Y0100168D01*
X0110400Y0100217D01*
X0110438Y0100263D01*
X0110480Y0100307D01*
X0110524Y0100349D01*
X0110570Y0100387D01*
X0110619Y0100423D01*
X0110670Y0100456D01*
X0110722Y0100485D01*
X0110777Y0100512D01*
X0110832Y0100535D01*
X0110889Y0100555D01*
X0110948Y0100571D01*
X0111007Y0100584D01*
X0111066Y0100593D01*
X0111127Y0100598D01*
X0111187Y0100600D01*
X0115187Y0100600D01*
X0115687Y0100100D01*
X0126813Y0100100D01*
X0127313Y0100600D01*
X0131313Y0100600D01*
X0131373Y0100598D01*
X0131434Y0100593D01*
X0131493Y0100584D01*
X0131552Y0100571D01*
X0131611Y0100555D01*
X0131668Y0100535D01*
X0131723Y0100512D01*
X0131778Y0100485D01*
X0131830Y0100456D01*
X0131881Y0100423D01*
X0131930Y0100387D01*
X0131976Y0100349D01*
X0132020Y0100307D01*
X0132062Y0100263D01*
X0132100Y0100217D01*
X0132136Y0100168D01*
X0132169Y0100117D01*
X0132198Y0100065D01*
X0132225Y0100010D01*
X0132248Y0099955D01*
X0132268Y0099898D01*
X0132284Y0099839D01*
X0132297Y0099780D01*
X0132306Y0099721D01*
X0132311Y0099660D01*
X0132313Y0099600D01*
X0132313Y0093600D01*
X0132311Y0093540D01*
X0132306Y0093479D01*
X0132297Y0093420D01*
X0132284Y0093361D01*
X0132268Y0093302D01*
X0132248Y0093245D01*
X0132225Y0093190D01*
X0132198Y0093135D01*
X0132169Y0093083D01*
X0132136Y0093032D01*
X0132100Y0092983D01*
X0132062Y0092937D01*
X0132020Y0092893D01*
X0131976Y0092851D01*
X0131930Y0092813D01*
X0131881Y0092777D01*
X0131830Y0092744D01*
X0131778Y0092715D01*
X0131723Y0092688D01*
X0131668Y0092665D01*
X0131611Y0092645D01*
X0131552Y0092629D01*
X0131493Y0092616D01*
X0131434Y0092607D01*
X0131373Y0092602D01*
X0131313Y0092600D01*
X0127313Y0092600D01*
X0126813Y0093100D01*
X0115687Y0093100D01*
X0115187Y0092600D01*
X0111187Y0092600D01*
X0111127Y0092602D01*
X0111066Y0092607D01*
X0111007Y0092616D01*
X0110948Y0092629D01*
X0110889Y0092645D01*
X0110832Y0092665D01*
X0110777Y0092688D01*
X0110722Y0092715D01*
X0110670Y0092744D01*
X0110619Y0092777D01*
X0110570Y0092813D01*
X0110524Y0092851D01*
X0110480Y0092893D01*
X0110438Y0092937D01*
X0110400Y0092983D01*
X0110364Y0093032D01*
X0110331Y0093083D01*
X0110302Y0093135D01*
X0110275Y0093190D01*
X0110252Y0093245D01*
X0110232Y0093302D01*
X0110216Y0093361D01*
X0110203Y0093420D01*
X0110194Y0093479D01*
X0110189Y0093540D01*
X0110187Y0093600D01*
X0109644Y0078903D02*
X0108553Y0078903D01*
X0109644Y0078903D02*
X0132856Y0078903D01*
X0133947Y0078903D01*
X0134042Y0078901D01*
X0134137Y0078895D01*
X0134232Y0078885D01*
X0134326Y0078872D01*
X0134420Y0078854D01*
X0134512Y0078833D01*
X0134604Y0078807D01*
X0134695Y0078778D01*
X0134784Y0078745D01*
X0134872Y0078709D01*
X0134958Y0078669D01*
X0135043Y0078625D01*
X0135126Y0078578D01*
X0135207Y0078528D01*
X0135285Y0078474D01*
X0135362Y0078417D01*
X0135435Y0078357D01*
X0135507Y0078294D01*
X0135575Y0078228D01*
X0135641Y0078160D01*
X0135704Y0078088D01*
X0135764Y0078015D01*
X0135821Y0077938D01*
X0135875Y0077860D01*
X0135925Y0077779D01*
X0135972Y0077696D01*
X0136016Y0077611D01*
X0136056Y0077525D01*
X0136092Y0077437D01*
X0136125Y0077348D01*
X0136154Y0077257D01*
X0136180Y0077165D01*
X0136201Y0077073D01*
X0136219Y0076979D01*
X0136232Y0076885D01*
X0136242Y0076790D01*
X0136248Y0076695D01*
X0136250Y0076600D01*
X0136250Y0061600D01*
X0136248Y0061505D01*
X0136242Y0061410D01*
X0136232Y0061315D01*
X0136219Y0061221D01*
X0136201Y0061127D01*
X0136180Y0061035D01*
X0136154Y0060943D01*
X0136125Y0060852D01*
X0136092Y0060763D01*
X0136056Y0060675D01*
X0136016Y0060589D01*
X0135972Y0060504D01*
X0135925Y0060421D01*
X0135875Y0060340D01*
X0135821Y0060262D01*
X0135764Y0060185D01*
X0135704Y0060112D01*
X0135641Y0060040D01*
X0135575Y0059972D01*
X0135507Y0059906D01*
X0135435Y0059843D01*
X0135362Y0059783D01*
X0135285Y0059726D01*
X0135207Y0059672D01*
X0135126Y0059622D01*
X0135043Y0059575D01*
X0134958Y0059531D01*
X0134872Y0059491D01*
X0134784Y0059455D01*
X0134695Y0059422D01*
X0134604Y0059393D01*
X0134512Y0059367D01*
X0134420Y0059346D01*
X0134326Y0059328D01*
X0134232Y0059315D01*
X0134137Y0059305D01*
X0134042Y0059299D01*
X0133947Y0059297D01*
X0130356Y0059297D01*
X0109644Y0059297D01*
X0108553Y0059297D01*
X0108458Y0059299D01*
X0108363Y0059305D01*
X0108268Y0059315D01*
X0108174Y0059328D01*
X0108080Y0059346D01*
X0107988Y0059367D01*
X0107896Y0059393D01*
X0107805Y0059422D01*
X0107716Y0059455D01*
X0107628Y0059491D01*
X0107542Y0059531D01*
X0107457Y0059575D01*
X0107374Y0059622D01*
X0107293Y0059672D01*
X0107215Y0059726D01*
X0107138Y0059783D01*
X0107065Y0059843D01*
X0106993Y0059906D01*
X0106925Y0059972D01*
X0106859Y0060040D01*
X0106796Y0060112D01*
X0106736Y0060185D01*
X0106679Y0060262D01*
X0106625Y0060340D01*
X0106575Y0060421D01*
X0106528Y0060504D01*
X0106484Y0060589D01*
X0106444Y0060675D01*
X0106408Y0060763D01*
X0106375Y0060852D01*
X0106346Y0060943D01*
X0106320Y0061035D01*
X0106299Y0061127D01*
X0106281Y0061221D01*
X0106268Y0061315D01*
X0106258Y0061410D01*
X0106252Y0061505D01*
X0106250Y0061600D01*
X0106250Y0076600D01*
X0106252Y0076695D01*
X0106258Y0076790D01*
X0106268Y0076885D01*
X0106281Y0076979D01*
X0106299Y0077073D01*
X0106320Y0077165D01*
X0106346Y0077257D01*
X0106375Y0077348D01*
X0106408Y0077437D01*
X0106444Y0077525D01*
X0106484Y0077611D01*
X0106528Y0077696D01*
X0106575Y0077779D01*
X0106625Y0077860D01*
X0106679Y0077938D01*
X0106736Y0078015D01*
X0106796Y0078088D01*
X0106859Y0078160D01*
X0106925Y0078228D01*
X0106993Y0078294D01*
X0107065Y0078357D01*
X0107138Y0078417D01*
X0107215Y0078474D01*
X0107293Y0078528D01*
X0107374Y0078578D01*
X0107457Y0078625D01*
X0107542Y0078669D01*
X0107628Y0078709D01*
X0107716Y0078745D01*
X0107805Y0078778D01*
X0107896Y0078807D01*
X0107988Y0078833D01*
X0108080Y0078854D01*
X0108174Y0078872D01*
X0108268Y0078885D01*
X0108363Y0078895D01*
X0108458Y0078901D01*
X0108553Y0078903D01*
X0144920Y0086540D02*
X0147520Y0086540D01*
X0146305Y0085320D02*
X0146305Y0087820D01*
X0140334Y0081600D02*
X0140337Y0081842D01*
X0140346Y0082083D01*
X0140361Y0082324D01*
X0140381Y0082565D01*
X0140408Y0082805D01*
X0140441Y0083044D01*
X0140479Y0083283D01*
X0140523Y0083520D01*
X0140573Y0083757D01*
X0140629Y0083992D01*
X0140691Y0084225D01*
X0140758Y0084457D01*
X0140831Y0084688D01*
X0140909Y0084916D01*
X0140994Y0085142D01*
X0141083Y0085367D01*
X0141178Y0085589D01*
X0141279Y0085808D01*
X0141385Y0086026D01*
X0141496Y0086240D01*
X0141613Y0086452D01*
X0141734Y0086660D01*
X0141861Y0086866D01*
X0141993Y0087068D01*
X0142130Y0087268D01*
X0142271Y0087463D01*
X0142417Y0087656D01*
X0142568Y0087844D01*
X0142724Y0088029D01*
X0142884Y0088210D01*
X0143048Y0088387D01*
X0143217Y0088560D01*
X0143390Y0088729D01*
X0143567Y0088893D01*
X0143748Y0089053D01*
X0143933Y0089209D01*
X0144121Y0089360D01*
X0144314Y0089506D01*
X0144509Y0089647D01*
X0144709Y0089784D01*
X0144911Y0089916D01*
X0145117Y0090043D01*
X0145325Y0090164D01*
X0145537Y0090281D01*
X0145751Y0090392D01*
X0145969Y0090498D01*
X0146188Y0090599D01*
X0146410Y0090694D01*
X0146635Y0090783D01*
X0146861Y0090868D01*
X0147089Y0090946D01*
X0147320Y0091019D01*
X0147552Y0091086D01*
X0147785Y0091148D01*
X0148020Y0091204D01*
X0148257Y0091254D01*
X0148494Y0091298D01*
X0148733Y0091336D01*
X0148972Y0091369D01*
X0149212Y0091396D01*
X0149453Y0091416D01*
X0149694Y0091431D01*
X0149935Y0091440D01*
X0150177Y0091443D01*
X0150419Y0091440D01*
X0150660Y0091431D01*
X0150901Y0091416D01*
X0151142Y0091396D01*
X0151382Y0091369D01*
X0151621Y0091336D01*
X0151860Y0091298D01*
X0152097Y0091254D01*
X0152334Y0091204D01*
X0152569Y0091148D01*
X0152802Y0091086D01*
X0153034Y0091019D01*
X0153265Y0090946D01*
X0153493Y0090868D01*
X0153719Y0090783D01*
X0153944Y0090694D01*
X0154166Y0090599D01*
X0154385Y0090498D01*
X0154603Y0090392D01*
X0154817Y0090281D01*
X0155029Y0090164D01*
X0155237Y0090043D01*
X0155443Y0089916D01*
X0155645Y0089784D01*
X0155845Y0089647D01*
X0156040Y0089506D01*
X0156233Y0089360D01*
X0156421Y0089209D01*
X0156606Y0089053D01*
X0156787Y0088893D01*
X0156964Y0088729D01*
X0157137Y0088560D01*
X0157306Y0088387D01*
X0157470Y0088210D01*
X0157630Y0088029D01*
X0157786Y0087844D01*
X0157937Y0087656D01*
X0158083Y0087463D01*
X0158224Y0087268D01*
X0158361Y0087068D01*
X0158493Y0086866D01*
X0158620Y0086660D01*
X0158741Y0086452D01*
X0158858Y0086240D01*
X0158969Y0086026D01*
X0159075Y0085808D01*
X0159176Y0085589D01*
X0159271Y0085367D01*
X0159360Y0085142D01*
X0159445Y0084916D01*
X0159523Y0084688D01*
X0159596Y0084457D01*
X0159663Y0084225D01*
X0159725Y0083992D01*
X0159781Y0083757D01*
X0159831Y0083520D01*
X0159875Y0083283D01*
X0159913Y0083044D01*
X0159946Y0082805D01*
X0159973Y0082565D01*
X0159993Y0082324D01*
X0160008Y0082083D01*
X0160017Y0081842D01*
X0160020Y0081600D01*
X0160017Y0081358D01*
X0160008Y0081117D01*
X0159993Y0080876D01*
X0159973Y0080635D01*
X0159946Y0080395D01*
X0159913Y0080156D01*
X0159875Y0079917D01*
X0159831Y0079680D01*
X0159781Y0079443D01*
X0159725Y0079208D01*
X0159663Y0078975D01*
X0159596Y0078743D01*
X0159523Y0078512D01*
X0159445Y0078284D01*
X0159360Y0078058D01*
X0159271Y0077833D01*
X0159176Y0077611D01*
X0159075Y0077392D01*
X0158969Y0077174D01*
X0158858Y0076960D01*
X0158741Y0076748D01*
X0158620Y0076540D01*
X0158493Y0076334D01*
X0158361Y0076132D01*
X0158224Y0075932D01*
X0158083Y0075737D01*
X0157937Y0075544D01*
X0157786Y0075356D01*
X0157630Y0075171D01*
X0157470Y0074990D01*
X0157306Y0074813D01*
X0157137Y0074640D01*
X0156964Y0074471D01*
X0156787Y0074307D01*
X0156606Y0074147D01*
X0156421Y0073991D01*
X0156233Y0073840D01*
X0156040Y0073694D01*
X0155845Y0073553D01*
X0155645Y0073416D01*
X0155443Y0073284D01*
X0155237Y0073157D01*
X0155029Y0073036D01*
X0154817Y0072919D01*
X0154603Y0072808D01*
X0154385Y0072702D01*
X0154166Y0072601D01*
X0153944Y0072506D01*
X0153719Y0072417D01*
X0153493Y0072332D01*
X0153265Y0072254D01*
X0153034Y0072181D01*
X0152802Y0072114D01*
X0152569Y0072052D01*
X0152334Y0071996D01*
X0152097Y0071946D01*
X0151860Y0071902D01*
X0151621Y0071864D01*
X0151382Y0071831D01*
X0151142Y0071804D01*
X0150901Y0071784D01*
X0150660Y0071769D01*
X0150419Y0071760D01*
X0150177Y0071757D01*
X0149935Y0071760D01*
X0149694Y0071769D01*
X0149453Y0071784D01*
X0149212Y0071804D01*
X0148972Y0071831D01*
X0148733Y0071864D01*
X0148494Y0071902D01*
X0148257Y0071946D01*
X0148020Y0071996D01*
X0147785Y0072052D01*
X0147552Y0072114D01*
X0147320Y0072181D01*
X0147089Y0072254D01*
X0146861Y0072332D01*
X0146635Y0072417D01*
X0146410Y0072506D01*
X0146188Y0072601D01*
X0145969Y0072702D01*
X0145751Y0072808D01*
X0145537Y0072919D01*
X0145325Y0073036D01*
X0145117Y0073157D01*
X0144911Y0073284D01*
X0144709Y0073416D01*
X0144509Y0073553D01*
X0144314Y0073694D01*
X0144121Y0073840D01*
X0143933Y0073991D01*
X0143748Y0074147D01*
X0143567Y0074307D01*
X0143390Y0074471D01*
X0143217Y0074640D01*
X0143048Y0074813D01*
X0142884Y0074990D01*
X0142724Y0075171D01*
X0142568Y0075356D01*
X0142417Y0075544D01*
X0142271Y0075737D01*
X0142130Y0075932D01*
X0141993Y0076132D01*
X0141861Y0076334D01*
X0141734Y0076540D01*
X0141613Y0076748D01*
X0141496Y0076960D01*
X0141385Y0077174D01*
X0141279Y0077392D01*
X0141178Y0077611D01*
X0141083Y0077833D01*
X0140994Y0078058D01*
X0140909Y0078284D01*
X0140831Y0078512D01*
X0140758Y0078743D01*
X0140691Y0078975D01*
X0140629Y0079208D01*
X0140573Y0079443D01*
X0140523Y0079680D01*
X0140479Y0079917D01*
X0140441Y0080156D01*
X0140408Y0080395D01*
X0140381Y0080635D01*
X0140361Y0080876D01*
X0140346Y0081117D01*
X0140337Y0081358D01*
X0140334Y0081600D01*
X0180238Y0065554D02*
X0183174Y0065554D01*
X0181706Y0065554D02*
X0181706Y0061150D01*
X0184842Y0061150D02*
X0184842Y0065554D01*
X0187044Y0065554D01*
X0187778Y0064820D01*
X0187778Y0063352D01*
X0187044Y0062618D01*
X0184842Y0062618D01*
X0186310Y0062618D02*
X0187778Y0061150D01*
X0189446Y0061150D02*
X0192382Y0061150D01*
X0194050Y0061150D02*
X0196252Y0061150D01*
X0196986Y0061884D01*
X0196986Y0062618D01*
X0196252Y0063352D01*
X0194050Y0063352D01*
X0194050Y0061150D02*
X0194050Y0065554D01*
X0196252Y0065554D01*
X0196986Y0064820D01*
X0196986Y0064086D01*
X0196252Y0063352D01*
X0198654Y0065554D02*
X0198654Y0061150D01*
X0201590Y0061150D01*
X0203258Y0061150D02*
X0206194Y0061150D01*
X0204726Y0063352D02*
X0203258Y0063352D01*
X0203258Y0065554D02*
X0203258Y0061150D01*
X0203258Y0065554D02*
X0206194Y0065554D01*
X0192382Y0065554D02*
X0189446Y0065554D01*
X0189446Y0061150D01*
X0189446Y0063352D02*
X0190914Y0063352D01*
X0056590Y0062618D02*
X0056590Y0061884D01*
X0055856Y0061150D01*
X0054388Y0061150D01*
X0053654Y0061884D01*
X0054388Y0063352D02*
X0055856Y0063352D01*
X0056590Y0062618D01*
X0056590Y0064820D02*
X0055856Y0065554D01*
X0054388Y0065554D01*
X0053654Y0064820D01*
X0053654Y0064086D01*
X0054388Y0063352D01*
X0051986Y0062618D02*
X0051986Y0061884D01*
X0051252Y0061150D01*
X0049784Y0061150D01*
X0049050Y0061884D01*
X0049784Y0063352D02*
X0051252Y0063352D01*
X0051986Y0062618D01*
X0051986Y0064820D02*
X0051252Y0065554D01*
X0049784Y0065554D01*
X0049050Y0064820D01*
X0049050Y0064086D01*
X0049784Y0063352D01*
X0047382Y0063352D02*
X0044446Y0063352D01*
X0044446Y0064086D02*
X0045914Y0065554D01*
X0047382Y0064086D01*
X0047382Y0061150D01*
X0044446Y0061150D02*
X0044446Y0064086D01*
X0042778Y0064086D02*
X0042778Y0064820D01*
X0042044Y0065554D01*
X0039842Y0065554D01*
X0039842Y0061150D01*
X0042044Y0061150D01*
X0042778Y0061884D01*
X0042778Y0062618D01*
X0042044Y0063352D01*
X0039842Y0063352D01*
X0042044Y0063352D02*
X0042778Y0064086D01*
X0043250Y0070537D02*
X0049250Y0070537D01*
X0049310Y0070539D01*
X0049371Y0070544D01*
X0049430Y0070553D01*
X0049489Y0070566D01*
X0049548Y0070582D01*
X0049605Y0070602D01*
X0049660Y0070625D01*
X0049715Y0070652D01*
X0049767Y0070681D01*
X0049818Y0070714D01*
X0049867Y0070750D01*
X0049913Y0070788D01*
X0049957Y0070830D01*
X0049999Y0070874D01*
X0050037Y0070920D01*
X0050073Y0070969D01*
X0050106Y0071020D01*
X0050135Y0071072D01*
X0050162Y0071127D01*
X0050185Y0071182D01*
X0050205Y0071239D01*
X0050221Y0071298D01*
X0050234Y0071357D01*
X0050243Y0071416D01*
X0050248Y0071477D01*
X0050250Y0071537D01*
X0050250Y0075537D01*
X0049750Y0076037D01*
X0049750Y0087163D01*
X0050250Y0087663D01*
X0050250Y0091663D01*
X0050248Y0091723D01*
X0050243Y0091784D01*
X0050234Y0091843D01*
X0050221Y0091902D01*
X0050205Y0091961D01*
X0050185Y0092018D01*
X0050162Y0092073D01*
X0050135Y0092128D01*
X0050106Y0092180D01*
X0050073Y0092231D01*
X0050037Y0092280D01*
X0049999Y0092326D01*
X0049957Y0092370D01*
X0049913Y0092412D01*
X0049867Y0092450D01*
X0049818Y0092486D01*
X0049767Y0092519D01*
X0049715Y0092548D01*
X0049660Y0092575D01*
X0049605Y0092598D01*
X0049548Y0092618D01*
X0049489Y0092634D01*
X0049430Y0092647D01*
X0049371Y0092656D01*
X0049310Y0092661D01*
X0049250Y0092663D01*
X0043250Y0092663D01*
X0043190Y0092661D01*
X0043129Y0092656D01*
X0043070Y0092647D01*
X0043011Y0092634D01*
X0042952Y0092618D01*
X0042895Y0092598D01*
X0042840Y0092575D01*
X0042785Y0092548D01*
X0042733Y0092519D01*
X0042682Y0092486D01*
X0042633Y0092450D01*
X0042587Y0092412D01*
X0042543Y0092370D01*
X0042501Y0092326D01*
X0042463Y0092280D01*
X0042427Y0092231D01*
X0042394Y0092180D01*
X0042365Y0092128D01*
X0042338Y0092073D01*
X0042315Y0092018D01*
X0042295Y0091961D01*
X0042279Y0091902D01*
X0042266Y0091843D01*
X0042257Y0091784D01*
X0042252Y0091723D01*
X0042250Y0091663D01*
X0042250Y0087663D01*
X0042750Y0087163D01*
X0042750Y0076037D01*
X0042250Y0075537D01*
X0042250Y0071537D01*
X0042252Y0071477D01*
X0042257Y0071416D01*
X0042266Y0071357D01*
X0042279Y0071298D01*
X0042295Y0071239D01*
X0042315Y0071182D01*
X0042338Y0071127D01*
X0042365Y0071072D01*
X0042394Y0071020D01*
X0042427Y0070969D01*
X0042463Y0070920D01*
X0042501Y0070874D01*
X0042543Y0070830D01*
X0042587Y0070788D01*
X0042633Y0070750D01*
X0042682Y0070714D01*
X0042733Y0070681D01*
X0042785Y0070652D01*
X0042840Y0070625D01*
X0042895Y0070602D01*
X0042952Y0070582D01*
X0043011Y0070566D01*
X0043070Y0070553D01*
X0043129Y0070544D01*
X0043190Y0070539D01*
X0043250Y0070537D01*
D12*
X0082717Y0105367D02*
X0083334Y0104750D01*
X0084568Y0104750D01*
X0085186Y0105367D01*
X0086400Y0105367D02*
X0087017Y0104750D01*
X0088252Y0104750D01*
X0088869Y0105367D01*
X0088869Y0105984D01*
X0088252Y0106602D01*
X0086400Y0106602D01*
X0086400Y0105367D01*
X0086400Y0106602D02*
X0087634Y0107836D01*
X0088869Y0108453D01*
X0085186Y0107836D02*
X0084568Y0108453D01*
X0083334Y0108453D01*
X0082717Y0107836D01*
X0082717Y0105367D01*
X0094397Y0089219D02*
X0094397Y0086750D01*
X0096248Y0086750D01*
X0095631Y0087984D01*
X0095631Y0088602D01*
X0096248Y0089219D01*
X0097483Y0089219D01*
X0098100Y0088602D01*
X0098100Y0087367D01*
X0097483Y0086750D01*
X0097483Y0085536D02*
X0098100Y0084918D01*
X0098100Y0083684D01*
X0097483Y0083067D01*
X0095014Y0083067D01*
X0094397Y0083684D01*
X0094397Y0084918D01*
X0095014Y0085536D01*
X0117717Y0085367D02*
X0118334Y0084750D01*
X0119568Y0084750D01*
X0120186Y0085367D01*
X0121400Y0085367D02*
X0121400Y0085984D01*
X0122017Y0086602D01*
X0123252Y0086602D01*
X0123869Y0085984D01*
X0123869Y0085367D01*
X0123252Y0084750D01*
X0122017Y0084750D01*
X0121400Y0085367D01*
X0122017Y0086602D02*
X0121400Y0087219D01*
X0121400Y0087836D01*
X0122017Y0088453D01*
X0123252Y0088453D01*
X0123869Y0087836D01*
X0123869Y0087219D01*
X0123252Y0086602D01*
X0120186Y0087836D02*
X0119568Y0088453D01*
X0118334Y0088453D01*
X0117717Y0087836D01*
X0117717Y0085367D01*
X0118334Y0070953D02*
X0117717Y0070336D01*
X0117717Y0067867D01*
X0118334Y0067250D01*
X0119568Y0067250D01*
X0120186Y0067867D01*
X0121400Y0067867D02*
X0122017Y0067250D01*
X0123252Y0067250D01*
X0123869Y0067867D01*
X0123869Y0070336D01*
X0123252Y0070953D01*
X0122017Y0070953D01*
X0121400Y0070336D01*
X0121400Y0069719D01*
X0122017Y0069102D01*
X0123869Y0069102D01*
X0120186Y0070336D02*
X0119568Y0070953D01*
X0118334Y0070953D01*
X0097483Y0128067D02*
X0095014Y0128067D01*
X0094397Y0128684D01*
X0094397Y0129918D01*
X0095014Y0130536D01*
X0094397Y0131750D02*
X0094397Y0134219D01*
X0095014Y0134219D01*
X0097483Y0131750D01*
X0098100Y0131750D01*
X0097483Y0130536D02*
X0098100Y0129918D01*
X0098100Y0128684D01*
X0097483Y0128067D01*
X0122717Y0147867D02*
X0123334Y0147250D01*
X0124568Y0147250D01*
X0125186Y0147867D01*
X0126400Y0147250D02*
X0128869Y0147250D01*
X0127634Y0147250D02*
X0127634Y0150953D01*
X0126400Y0149719D01*
X0125186Y0150336D02*
X0124568Y0150953D01*
X0123334Y0150953D01*
X0122717Y0150336D01*
X0122717Y0147867D01*
X0171897Y0149209D02*
X0172514Y0148592D01*
X0171897Y0149209D02*
X0171897Y0150443D01*
X0172514Y0151060D01*
X0173131Y0151060D01*
X0175600Y0148592D01*
X0175600Y0151060D01*
X0175600Y0147377D02*
X0175600Y0144908D01*
X0175600Y0146143D02*
X0171897Y0146143D01*
X0173131Y0144908D01*
X0172514Y0143694D02*
X0171897Y0143077D01*
X0171897Y0141842D01*
X0172514Y0141225D01*
X0174983Y0141225D01*
X0175600Y0141842D01*
X0175600Y0143077D01*
X0174983Y0143694D01*
X0191897Y0143077D02*
X0191897Y0141842D01*
X0192514Y0141225D01*
X0194983Y0141225D01*
X0195600Y0141842D01*
X0195600Y0143077D01*
X0194983Y0143694D01*
X0195600Y0144908D02*
X0195600Y0147377D01*
X0195600Y0146143D02*
X0191897Y0146143D01*
X0193131Y0144908D01*
X0192514Y0143694D02*
X0191897Y0143077D01*
X0192514Y0148592D02*
X0191897Y0149209D01*
X0191897Y0150443D01*
X0192514Y0151060D01*
X0194983Y0148592D01*
X0195600Y0149209D01*
X0195600Y0150443D01*
X0194983Y0151060D01*
X0192514Y0151060D01*
X0192514Y0148592D02*
X0194983Y0148592D01*
X0185600Y0121060D02*
X0185600Y0118592D01*
X0185600Y0117377D02*
X0185600Y0114908D01*
X0185600Y0116143D02*
X0181897Y0116143D01*
X0183131Y0114908D01*
X0182514Y0113694D02*
X0181897Y0113077D01*
X0181897Y0111842D01*
X0182514Y0111225D01*
X0184983Y0111225D01*
X0185600Y0111842D01*
X0185600Y0113077D01*
X0184983Y0113694D01*
X0183131Y0118592D02*
X0181897Y0119826D01*
X0185600Y0119826D01*
D13*
X0109500Y0169100D03*
D14*
X0086250Y0136100D03*
X0076250Y0127100D03*
X0056250Y0127100D03*
X0046250Y0127100D03*
D15*
X0052392Y0104907D02*
X0052392Y0068293D01*
X0070108Y0068293D01*
X0070108Y0104907D01*
X0052392Y0104907D01*
X0050018Y0187185D02*
X0050018Y0198996D01*
X0083482Y0198996D01*
X0083482Y0187185D01*
X0050018Y0187185D01*
X0050018Y0198996D02*
X0026986Y0198996D01*
X0026986Y0280098D01*
X0044309Y0280098D01*
X0044309Y0291712D01*
X0089191Y0291712D01*
X0089191Y0280098D01*
X0044309Y0280098D01*
X0089191Y0280098D02*
X0106514Y0280098D01*
X0106514Y0198996D01*
X0083482Y0198996D01*
X0135986Y0198996D02*
X0159018Y0198996D01*
X0159018Y0187185D01*
X0192482Y0187185D01*
X0192482Y0198996D01*
X0215514Y0198996D01*
X0215514Y0280098D01*
X0198191Y0280098D01*
X0198191Y0291712D01*
X0153309Y0291712D01*
X0153309Y0280098D01*
X0135986Y0280098D01*
X0135986Y0198996D01*
X0159018Y0198996D02*
X0192482Y0198996D01*
X0198191Y0280098D02*
X0153309Y0280098D01*
D16*
X0122985Y0161404D02*
X0122985Y0156800D01*
X0124519Y0156800D02*
X0121450Y0156800D01*
X0119915Y0156800D02*
X0118381Y0158335D01*
X0119148Y0158335D02*
X0116846Y0158335D01*
X0116846Y0156800D02*
X0116846Y0161404D01*
X0119148Y0161404D01*
X0119915Y0160637D01*
X0119915Y0159102D01*
X0119148Y0158335D01*
X0121450Y0159869D02*
X0122985Y0161404D01*
X0144713Y0114869D02*
X0143946Y0114102D01*
X0143946Y0112567D01*
X0144713Y0111800D01*
X0144713Y0110265D02*
X0143946Y0109498D01*
X0143946Y0107196D01*
X0148550Y0107196D01*
X0147015Y0107196D02*
X0147015Y0109498D01*
X0146248Y0110265D01*
X0144713Y0110265D01*
X0147015Y0108731D02*
X0148550Y0110265D01*
X0148550Y0111800D02*
X0145481Y0114869D01*
X0144713Y0114869D01*
X0148550Y0114869D02*
X0148550Y0111800D01*
X0153946Y0112567D02*
X0153946Y0114102D01*
X0154713Y0114869D01*
X0155481Y0114869D01*
X0156248Y0114102D01*
X0157015Y0114869D01*
X0157783Y0114869D01*
X0158550Y0114102D01*
X0158550Y0112567D01*
X0157783Y0111800D01*
X0158550Y0110265D02*
X0157015Y0108731D01*
X0157015Y0109498D02*
X0157015Y0107196D01*
X0158550Y0107196D02*
X0153946Y0107196D01*
X0153946Y0109498D01*
X0154713Y0110265D01*
X0156248Y0110265D01*
X0157015Y0109498D01*
X0154713Y0111800D02*
X0153946Y0112567D01*
X0156248Y0113335D02*
X0156248Y0114102D01*
X0171446Y0115637D02*
X0172981Y0114102D01*
X0171446Y0115637D02*
X0176050Y0115637D01*
X0176050Y0117171D02*
X0176050Y0114102D01*
X0176050Y0112567D02*
X0176050Y0109498D01*
X0176050Y0107963D02*
X0174515Y0106429D01*
X0174515Y0107196D02*
X0174515Y0104894D01*
X0176050Y0104894D02*
X0171446Y0104894D01*
X0171446Y0107196D01*
X0172213Y0107963D01*
X0173748Y0107963D01*
X0174515Y0107196D01*
X0172981Y0109498D02*
X0171446Y0111033D01*
X0176050Y0111033D01*
X0191446Y0111033D02*
X0196050Y0111033D01*
X0196050Y0112567D02*
X0196050Y0109498D01*
X0196050Y0107963D02*
X0194515Y0106429D01*
X0194515Y0107196D02*
X0194515Y0104894D01*
X0196050Y0104894D02*
X0191446Y0104894D01*
X0191446Y0107196D01*
X0192213Y0107963D01*
X0193748Y0107963D01*
X0194515Y0107196D01*
X0192981Y0109498D02*
X0191446Y0111033D01*
X0192213Y0114102D02*
X0191446Y0114869D01*
X0191446Y0116404D01*
X0192213Y0117171D01*
X0195283Y0114102D01*
X0196050Y0114869D01*
X0196050Y0116404D01*
X0195283Y0117171D01*
X0192213Y0117171D01*
X0192213Y0114102D02*
X0195283Y0114102D01*
X0201446Y0114102D02*
X0201446Y0112567D01*
X0202213Y0111800D01*
X0202981Y0111800D01*
X0203748Y0112567D01*
X0203748Y0114869D01*
X0202213Y0114869D02*
X0201446Y0114102D01*
X0202213Y0114869D02*
X0205283Y0114869D01*
X0206050Y0114102D01*
X0206050Y0112567D01*
X0205283Y0111800D01*
X0206050Y0110265D02*
X0204515Y0108731D01*
X0204515Y0109498D02*
X0204515Y0107196D01*
X0206050Y0107196D02*
X0201446Y0107196D01*
X0201446Y0109498D01*
X0202213Y0110265D01*
X0203748Y0110265D01*
X0204515Y0109498D01*
X0124519Y0098904D02*
X0121450Y0098904D01*
X0121450Y0096602D01*
X0122985Y0097369D01*
X0123752Y0097369D01*
X0124519Y0096602D01*
X0124519Y0095067D01*
X0123752Y0094300D01*
X0122217Y0094300D01*
X0121450Y0095067D01*
X0119915Y0094300D02*
X0118381Y0095835D01*
X0119148Y0095835D02*
X0116846Y0095835D01*
X0116846Y0094300D02*
X0116846Y0098904D01*
X0119148Y0098904D01*
X0119915Y0098137D01*
X0119915Y0096602D01*
X0119148Y0095835D01*
X0088550Y0084102D02*
X0083946Y0084102D01*
X0086248Y0081800D01*
X0086248Y0084869D01*
X0086248Y0080265D02*
X0087015Y0079498D01*
X0087015Y0077196D01*
X0087015Y0078731D02*
X0088550Y0080265D01*
X0086248Y0080265D02*
X0084713Y0080265D01*
X0083946Y0079498D01*
X0083946Y0077196D01*
X0088550Y0077196D01*
X0078550Y0077196D02*
X0073946Y0077196D01*
X0073946Y0079498D01*
X0074713Y0080265D01*
X0076248Y0080265D01*
X0077015Y0079498D01*
X0077015Y0077196D01*
X0077015Y0078731D02*
X0078550Y0080265D01*
X0078550Y0081800D02*
X0077783Y0081800D01*
X0074713Y0084869D01*
X0073946Y0084869D01*
X0073946Y0081800D01*
X0058117Y0081757D02*
X0058117Y0078687D01*
X0058117Y0077153D02*
X0056582Y0075618D01*
X0056582Y0076385D02*
X0056582Y0074083D01*
X0058117Y0074083D02*
X0053513Y0074083D01*
X0053513Y0076385D01*
X0054280Y0077153D01*
X0055815Y0077153D01*
X0056582Y0076385D01*
X0055048Y0078687D02*
X0053513Y0080222D01*
X0058117Y0080222D01*
X0058117Y0083291D02*
X0055048Y0086361D01*
X0054280Y0086361D01*
X0053513Y0085593D01*
X0053513Y0084059D01*
X0054280Y0083291D01*
X0058117Y0083291D02*
X0058117Y0086361D01*
X0048550Y0084102D02*
X0048550Y0082567D01*
X0047783Y0081800D01*
X0047015Y0081800D01*
X0046248Y0082567D01*
X0046248Y0084102D01*
X0047015Y0084869D01*
X0047783Y0084869D01*
X0048550Y0084102D01*
X0046248Y0084102D02*
X0045481Y0084869D01*
X0044713Y0084869D01*
X0043946Y0084102D01*
X0043946Y0082567D01*
X0044713Y0081800D01*
X0045481Y0081800D01*
X0046248Y0082567D01*
X0046248Y0080265D02*
X0044713Y0080265D01*
X0043946Y0079498D01*
X0043946Y0077196D01*
X0048550Y0077196D01*
X0047015Y0077196D02*
X0047015Y0079498D01*
X0046248Y0080265D01*
X0047015Y0078731D02*
X0048550Y0080265D01*
X0063946Y0124696D02*
X0063946Y0126998D01*
X0064713Y0127765D01*
X0066248Y0127765D01*
X0067015Y0126998D01*
X0067015Y0124696D01*
X0067015Y0126231D02*
X0068550Y0127765D01*
X0067783Y0129300D02*
X0066248Y0129300D01*
X0066248Y0131602D01*
X0067015Y0132369D01*
X0067783Y0132369D01*
X0068550Y0131602D01*
X0068550Y0130067D01*
X0067783Y0129300D01*
X0066248Y0129300D02*
X0064713Y0130835D01*
X0063946Y0132369D01*
X0063946Y0124696D02*
X0068550Y0124696D01*
D17*
X0086880Y0040635D02*
X0113837Y0040635D01*
X0128663Y0040635D01*
X0155620Y0040635D01*
X0155620Y0007565D01*
X0086880Y0007565D01*
X0086880Y0040635D01*
X0091309Y0036994D02*
X0113837Y0036994D01*
X0113837Y0034533D01*
X0128663Y0034533D01*
X0128663Y0036994D01*
X0151191Y0036994D01*
X0151191Y0011206D01*
X0091309Y0011206D01*
X0091309Y0036994D01*
X0113837Y0036994D02*
X0113837Y0040635D01*
X0128663Y0040635D02*
X0128663Y0036994D01*
D18*
X0237283Y0005600D02*
X0005000Y0005600D01*
X0005000Y0258631D01*
X0026654Y0258631D01*
X0026654Y0286191D01*
X0215630Y0286191D01*
X0215630Y0258631D01*
X0237283Y0258631D01*
X0237283Y0005600D01*
M02*
