%
M48
M72
T01C0.01575
T02C0.01969
T03C0.02362
T04C0.02756
T05C0.03200
T06C0.03543
T07C0.04331
T08C0.05512
T09C0.09843
%
T01
X46250Y66600
X46250Y96600
X66250Y114100
X76250Y96600
X86250Y96600
X106250Y96600
X86250Y66600
X76250Y66600
X136250Y96600
X146250Y96600
X156250Y96600
X173750Y96600
X193750Y96600
X203750Y96600
X203750Y126600
X193750Y126600
X173750Y126600
X156250Y126600
X146250Y126600
X136250Y159100
X106250Y159100
X66250Y144100
T02
X9500Y10850
X9500Y41600
X9500Y81600
X17750Y81600
X17750Y121600
X9500Y121600
X9500Y161600
X17750Y161600
X39000Y164100
X39000Y174100
X48000Y201600
X19500Y201600
X9500Y201600
X9500Y241600
X48000Y241600
X48000Y279850
X90500Y279850
X90500Y241600
X90500Y201600
X121000Y164100
X131250Y164100
X151248Y144530
X151245Y136670
X128750Y121600
X114000Y121600
X94000Y129100
X86250Y121600
X76250Y121600
X71500Y131600
X64000Y121600
X56250Y121600
X46250Y121600
X56500Y106600
X61250Y96600
X61250Y86600
X61250Y76600
X71250Y75850
X81250Y60850
X96250Y58350
X110750Y43350
X121250Y43350
X121250Y10850
X91250Y35850
X81250Y35850
X58750Y43350
X58750Y53350
X41250Y33350
X41250Y10850
X81250Y10850
X113750Y78350
X138750Y78350
X146247Y81605
X154107Y81602
X166250Y102350
X173750Y114100
X183750Y119100
X218000Y121600
X233000Y121600
X233000Y81600
X218000Y81600
X203750Y53350
X201250Y35850
X201250Y23350
X201250Y10850
X218000Y41600
X233000Y41600
X233000Y10850
X161250Y10850
X161250Y23350
X161250Y35850
X161250Y55850
X86250Y141600
X76250Y141600
X61500Y151600
X56250Y141600
X46250Y141600
X125500Y201600
X153000Y201600
X153000Y241600
X125500Y244100
X125500Y279850
X153000Y279850
X190500Y279850
X190500Y241600
X190500Y201600
X200500Y161600
X233000Y161600
X233000Y201600
X233000Y241600
T03
X193750Y156600
X193750Y136600
X183750Y126600
X183750Y106600
X136250Y149100
X116250Y149100
X96250Y141600
X96250Y121600
X96250Y106600
X96250Y96600
X111250Y86600
X96250Y76600
X76250Y106600
X131250Y86600
T04
X131250Y69100
X111250Y69100
X173750Y136600
X173750Y156600
X126000Y169100
X104250Y169100
T05
X106250Y136600
X106250Y126600
X106250Y116600
X106250Y106600
X136250Y106600
X136250Y116600
X136250Y126600
X136250Y136600
T06
X136250Y29100
X136250Y19100
X126250Y19100
X126250Y29100
X116250Y29100
X116250Y19100
X106250Y19100
X106250Y29100
T07
X68750Y48913
X48750Y48913
X28750Y48913
X28750Y169163
X48750Y169163
X68750Y169163
X173750Y169163
X193750Y169163
X213750Y169163
X213750Y48913
X193750Y48913
X173750Y48913
T08
X143801Y214350
X143801Y239350
X143801Y264350
X98699Y264350
X98699Y239350
X98699Y214350
X34801Y214350
X34801Y239350
X34801Y264350
X207699Y264350
X207699Y239350
X207699Y214350
T09
X121250Y232188
X121250Y255810
M30
