G75*
%MOIN*%
%OFA0B0*%
%FSLAX25Y25*%
%IPPOS*%
%LPD*%
%AMOC8*
5,1,8,0,0,1.08239X$1,22.5*
%
%ADD10R,0.07087X0.07087*%
%ADD11C,0.07087*%
%ADD12C,0.05118*%
%ADD13C,0.05512*%
%ADD14R,0.04331X0.04331*%
%ADD15C,0.04331*%
%ADD16R,0.05512X0.05512*%
%ADD17C,0.04724*%
%ADD18R,0.04724X0.04724*%
%ADD19C,0.05000*%
%ADD20C,0.08268*%
%ADD21C,0.13843*%
%ADD22C,0.06299*%
%ADD23C,0.00000*%
%ADD24C,0.03200*%
%ADD25C,0.01200*%
%ADD26C,0.03346*%
%ADD27C,0.01000*%
D10*
X0068750Y0048913D03*
X0068750Y0169163D03*
X0213750Y0169163D03*
X0213750Y0048913D03*
D11*
X0193750Y0048913D03*
X0173750Y0048913D03*
X0173750Y0169163D03*
X0193750Y0169163D03*
X0048750Y0169163D03*
X0028750Y0169163D03*
X0028750Y0048913D03*
X0048750Y0048913D03*
D12*
X0096250Y0076600D03*
X0111250Y0086600D03*
X0096250Y0096600D03*
X0096250Y0106600D03*
X0096250Y0121600D03*
X0096250Y0141600D03*
X0116250Y0149100D03*
X0136250Y0149100D03*
X0183750Y0126600D03*
X0193750Y0136600D03*
X0193750Y0156600D03*
X0183750Y0106600D03*
X0131250Y0086600D03*
X0076250Y0106600D03*
D13*
X0111250Y0069100D03*
X0131250Y0069100D03*
X0173750Y0136600D03*
X0173750Y0156600D03*
X0126000Y0169100D03*
D14*
X0151245Y0136670D03*
X0146247Y0081605D03*
D15*
X0154107Y0081602D03*
X0156250Y0096600D03*
X0146250Y0096600D03*
X0136250Y0096600D03*
X0146250Y0126600D03*
X0156250Y0126600D03*
X0151248Y0144530D03*
X0136250Y0159100D03*
X0106250Y0159100D03*
X0066250Y0144100D03*
X0066250Y0114100D03*
X0076250Y0096600D03*
X0086250Y0096600D03*
X0106250Y0096600D03*
X0086250Y0066600D03*
X0076250Y0066600D03*
X0046250Y0066600D03*
X0046250Y0096600D03*
X0173750Y0096600D03*
X0193750Y0096600D03*
X0203750Y0096600D03*
X0203750Y0126600D03*
X0193750Y0126600D03*
X0173750Y0126600D03*
D16*
X0104250Y0169100D03*
D17*
X0076250Y0141600D03*
X0086250Y0121600D03*
X0061250Y0096600D03*
X0061250Y0086600D03*
X0056250Y0141600D03*
X0046250Y0141600D03*
D18*
X0046250Y0121600D03*
X0056250Y0121600D03*
X0076250Y0121600D03*
X0086250Y0141600D03*
X0061250Y0076600D03*
D19*
X0106250Y0106600D03*
X0106250Y0116600D03*
X0106250Y0126600D03*
X0106250Y0136600D03*
X0136250Y0136600D03*
X0136250Y0126600D03*
X0136250Y0116600D03*
X0136250Y0106600D03*
D20*
X0143801Y0214350D03*
X0143801Y0239350D03*
X0143801Y0264350D03*
X0098699Y0264350D03*
X0098699Y0239350D03*
X0098699Y0214350D03*
X0034801Y0214350D03*
X0034801Y0239350D03*
X0034801Y0264350D03*
X0207699Y0264350D03*
X0207699Y0239350D03*
X0207699Y0214350D03*
D21*
X0121250Y0232188D03*
X0121250Y0255810D03*
D22*
X0116250Y0029100D03*
X0116250Y0019100D03*
X0106250Y0019100D03*
X0106250Y0029100D03*
X0126250Y0029100D03*
X0126250Y0019100D03*
X0136250Y0019100D03*
X0136250Y0029100D03*
D23*
X0237283Y0005600D02*
X0005000Y0005600D01*
X0005000Y0258631D01*
X0026654Y0258631D01*
X0026654Y0286191D01*
X0215630Y0286191D01*
X0215630Y0258631D01*
X0237283Y0258631D01*
X0237283Y0005600D01*
D24*
X0123250Y0056600D02*
X0123250Y0139100D01*
X0126000Y0141850D01*
X0126000Y0169100D01*
X0123250Y0056600D02*
X0116000Y0049350D01*
X0116250Y0029100D01*
D25*
X0119334Y0025467D02*
X0123170Y0025467D01*
X0123156Y0025477D02*
X0123761Y0025038D01*
X0124427Y0024698D01*
X0125138Y0024467D01*
X0125876Y0024350D01*
X0125964Y0024350D01*
X0125964Y0028814D01*
X0126536Y0028814D01*
X0126536Y0029386D01*
X0131000Y0029386D01*
X0131000Y0029474D01*
X0130883Y0030212D01*
X0130652Y0030923D01*
X0130312Y0031589D01*
X0129873Y0032194D01*
X0129344Y0032723D01*
X0128739Y0033162D01*
X0128073Y0033502D01*
X0127362Y0033733D01*
X0126624Y0033850D01*
X0126536Y0033850D01*
X0126536Y0029386D01*
X0125964Y0029386D01*
X0125964Y0033850D01*
X0125876Y0033850D01*
X0125138Y0033733D01*
X0124427Y0033502D01*
X0123761Y0033162D01*
X0123156Y0032723D01*
X0122627Y0032194D01*
X0122188Y0031589D01*
X0121848Y0030923D01*
X0121617Y0030212D01*
X0121500Y0029474D01*
X0121500Y0029386D01*
X0125964Y0029386D01*
X0125964Y0028814D01*
X0121500Y0028814D01*
X0121500Y0028726D01*
X0121617Y0027988D01*
X0121848Y0027277D01*
X0122188Y0026611D01*
X0122627Y0026006D01*
X0123156Y0025477D01*
X0122160Y0026666D02*
X0120383Y0026666D01*
X0120277Y0026410D02*
X0121000Y0028155D01*
X0121000Y0030045D01*
X0120277Y0031790D01*
X0119406Y0032661D01*
X0119216Y0048041D01*
X0125063Y0053887D01*
X0125963Y0054787D01*
X0126450Y0055963D01*
X0126450Y0137775D01*
X0127813Y0139137D01*
X0128713Y0140037D01*
X0129200Y0141213D01*
X0129200Y0166140D01*
X0129693Y0166633D01*
X0130356Y0168234D01*
X0130356Y0169966D01*
X0129693Y0171567D01*
X0128467Y0172793D01*
X0126866Y0173456D01*
X0125134Y0173456D01*
X0123533Y0172793D01*
X0122307Y0171567D01*
X0121644Y0169966D01*
X0121644Y0168234D01*
X0122307Y0166633D01*
X0122800Y0166140D01*
X0122800Y0143175D01*
X0120537Y0140913D01*
X0120050Y0139737D01*
X0120050Y0057925D01*
X0114173Y0052048D01*
X0114154Y0052040D01*
X0113723Y0051599D01*
X0113287Y0051163D01*
X0113279Y0051144D01*
X0113265Y0051129D01*
X0113036Y0050556D01*
X0112800Y0049987D01*
X0112800Y0049966D01*
X0112792Y0049947D01*
X0112800Y0049330D01*
X0112800Y0048713D01*
X0112808Y0048695D01*
X0113007Y0032574D01*
X0112223Y0031790D01*
X0111500Y0030045D01*
X0111500Y0028155D01*
X0112223Y0026410D01*
X0113560Y0025073D01*
X0115305Y0024350D01*
X0117195Y0024350D01*
X0118940Y0025073D01*
X0120277Y0026410D01*
X0120879Y0027864D02*
X0121657Y0027864D01*
X0121000Y0029063D02*
X0125964Y0029063D01*
X0126536Y0029063D02*
X0131500Y0029063D01*
X0131000Y0028814D02*
X0126536Y0028814D01*
X0126536Y0024350D01*
X0126624Y0024350D01*
X0127362Y0024467D01*
X0128073Y0024698D01*
X0128739Y0025038D01*
X0129344Y0025477D01*
X0129873Y0026006D01*
X0130312Y0026611D01*
X0130652Y0027277D01*
X0130883Y0027988D01*
X0131000Y0028726D01*
X0131000Y0028814D01*
X0131500Y0028155D02*
X0132223Y0026410D01*
X0133560Y0025073D01*
X0135305Y0024350D01*
X0137195Y0024350D01*
X0138940Y0025073D01*
X0140277Y0026410D01*
X0141000Y0028155D01*
X0141000Y0030045D01*
X0140277Y0031790D01*
X0138940Y0033127D01*
X0137195Y0033850D01*
X0135305Y0033850D01*
X0133560Y0033127D01*
X0132223Y0031790D01*
X0131500Y0030045D01*
X0131500Y0028155D01*
X0131621Y0027864D02*
X0130843Y0027864D01*
X0130340Y0026666D02*
X0132117Y0026666D01*
X0133166Y0025467D02*
X0129330Y0025467D01*
X0128940Y0023127D02*
X0127195Y0023850D01*
X0125305Y0023850D01*
X0123560Y0023127D01*
X0122223Y0021790D01*
X0121500Y0020045D01*
X0121500Y0018155D01*
X0122223Y0016410D01*
X0123560Y0015073D01*
X0125305Y0014350D01*
X0127195Y0014350D01*
X0128940Y0015073D01*
X0130277Y0016410D01*
X0131000Y0018155D01*
X0131000Y0020045D01*
X0130277Y0021790D01*
X0128940Y0023127D01*
X0128997Y0023070D02*
X0133503Y0023070D01*
X0133560Y0023127D02*
X0132223Y0021790D01*
X0131500Y0020045D01*
X0131500Y0018155D01*
X0132223Y0016410D01*
X0133560Y0015073D01*
X0135305Y0014350D01*
X0137195Y0014350D01*
X0138940Y0015073D01*
X0140277Y0016410D01*
X0140521Y0017000D01*
X0214620Y0017000D01*
X0215850Y0018230D01*
X0225850Y0028230D01*
X0225850Y0144970D01*
X0224620Y0146200D01*
X0199557Y0171263D01*
X0198447Y0171263D01*
X0198110Y0172076D01*
X0196663Y0173523D01*
X0194773Y0174306D01*
X0192727Y0174306D01*
X0190837Y0173523D01*
X0189390Y0172076D01*
X0188607Y0170186D01*
X0188607Y0168140D01*
X0189390Y0166250D01*
X0190837Y0164803D01*
X0192727Y0164020D01*
X0194773Y0164020D01*
X0196663Y0164803D01*
X0198110Y0166250D01*
X0198263Y0166617D01*
X0221650Y0143230D01*
X0221650Y0029970D01*
X0212880Y0021200D01*
X0140521Y0021200D01*
X0140277Y0021790D01*
X0138940Y0023127D01*
X0137195Y0023850D01*
X0135305Y0023850D01*
X0133560Y0023127D01*
X0132305Y0021872D02*
X0130195Y0021872D01*
X0130739Y0020673D02*
X0131761Y0020673D01*
X0131500Y0019475D02*
X0131000Y0019475D01*
X0131000Y0018276D02*
X0131500Y0018276D01*
X0131947Y0017078D02*
X0130553Y0017078D01*
X0129746Y0015879D02*
X0132754Y0015879D01*
X0134508Y0014681D02*
X0127992Y0014681D01*
X0124508Y0014681D02*
X0117992Y0014681D01*
X0117195Y0014350D02*
X0118940Y0015073D01*
X0120277Y0016410D01*
X0121000Y0018155D01*
X0121000Y0020045D01*
X0120277Y0021790D01*
X0118940Y0023127D01*
X0117195Y0023850D01*
X0115305Y0023850D01*
X0113560Y0023127D01*
X0112223Y0021790D01*
X0111500Y0020045D01*
X0111500Y0018155D01*
X0112223Y0016410D01*
X0113560Y0015073D01*
X0115305Y0014350D01*
X0117195Y0014350D01*
X0114508Y0014681D02*
X0107992Y0014681D01*
X0107195Y0014350D02*
X0105305Y0014350D01*
X0103560Y0015073D01*
X0102223Y0016410D01*
X0101979Y0017000D01*
X0100380Y0017000D01*
X0085380Y0032000D01*
X0084150Y0033230D01*
X0084150Y0063394D01*
X0084117Y0063408D01*
X0083058Y0064467D01*
X0082485Y0065851D01*
X0082485Y0067349D01*
X0083058Y0068733D01*
X0084117Y0069792D01*
X0085501Y0070365D01*
X0086999Y0070365D01*
X0088383Y0069792D01*
X0089442Y0068733D01*
X0090015Y0067349D01*
X0090015Y0065851D01*
X0089442Y0064467D01*
X0088383Y0063408D01*
X0088350Y0063394D01*
X0088350Y0034970D01*
X0102020Y0021300D01*
X0102223Y0021790D01*
X0103560Y0023127D01*
X0105305Y0023850D01*
X0107195Y0023850D01*
X0108940Y0023127D01*
X0110277Y0021790D01*
X0111000Y0020045D01*
X0111000Y0018155D01*
X0110277Y0016410D01*
X0108940Y0015073D01*
X0107195Y0014350D01*
X0104508Y0014681D02*
X0007600Y0014681D01*
X0007600Y0015879D02*
X0102754Y0015879D01*
X0100302Y0017078D02*
X0007600Y0017078D01*
X0007600Y0018276D02*
X0099104Y0018276D01*
X0097905Y0019475D02*
X0007600Y0019475D01*
X0007600Y0020673D02*
X0096707Y0020673D01*
X0095508Y0021872D02*
X0007600Y0021872D01*
X0007600Y0023070D02*
X0094310Y0023070D01*
X0093111Y0024269D02*
X0007600Y0024269D01*
X0007600Y0025467D02*
X0091913Y0025467D01*
X0090714Y0026666D02*
X0007600Y0026666D01*
X0007600Y0027864D02*
X0089516Y0027864D01*
X0088317Y0029063D02*
X0007600Y0029063D01*
X0007600Y0030261D02*
X0087119Y0030261D01*
X0085920Y0031460D02*
X0007600Y0031460D01*
X0007600Y0032658D02*
X0084722Y0032658D01*
X0084150Y0033857D02*
X0007600Y0033857D01*
X0007600Y0035055D02*
X0084150Y0035055D01*
X0084150Y0036254D02*
X0007600Y0036254D01*
X0007600Y0037452D02*
X0084150Y0037452D01*
X0084150Y0038651D02*
X0007600Y0038651D01*
X0007600Y0039849D02*
X0084150Y0039849D01*
X0084150Y0041048D02*
X0007600Y0041048D01*
X0007600Y0042246D02*
X0084150Y0042246D01*
X0084150Y0043445D02*
X0007600Y0043445D01*
X0007600Y0044643D02*
X0025746Y0044643D01*
X0025837Y0044553D02*
X0027727Y0043770D01*
X0029773Y0043770D01*
X0031663Y0044553D01*
X0033110Y0046000D01*
X0033893Y0047890D01*
X0033893Y0049936D01*
X0033110Y0051826D01*
X0031663Y0053273D01*
X0029773Y0054056D01*
X0027727Y0054056D01*
X0025837Y0053273D01*
X0024390Y0051826D01*
X0023607Y0049936D01*
X0023607Y0047890D01*
X0024390Y0046000D01*
X0025837Y0044553D01*
X0024547Y0045842D02*
X0007600Y0045842D01*
X0007600Y0047040D02*
X0023959Y0047040D01*
X0023607Y0048239D02*
X0007600Y0048239D01*
X0007600Y0049437D02*
X0023607Y0049437D01*
X0023897Y0050636D02*
X0007600Y0050636D01*
X0007600Y0051834D02*
X0024398Y0051834D01*
X0025596Y0053033D02*
X0007600Y0053033D01*
X0007600Y0054232D02*
X0084150Y0054232D01*
X0084150Y0055430D02*
X0007600Y0055430D01*
X0007600Y0056629D02*
X0084150Y0056629D01*
X0084150Y0057827D02*
X0007600Y0057827D01*
X0007600Y0059026D02*
X0084150Y0059026D01*
X0084150Y0060224D02*
X0007600Y0060224D01*
X0007600Y0061423D02*
X0084150Y0061423D01*
X0084150Y0062621D02*
X0007600Y0062621D01*
X0007600Y0063820D02*
X0043705Y0063820D01*
X0044117Y0063408D02*
X0045501Y0062835D01*
X0046999Y0062835D01*
X0048383Y0063408D01*
X0049442Y0064467D01*
X0050015Y0065851D01*
X0050015Y0067349D01*
X0049442Y0068733D01*
X0048383Y0069792D01*
X0046999Y0070365D01*
X0045501Y0070365D01*
X0044117Y0069792D01*
X0043058Y0068733D01*
X0042485Y0067349D01*
X0042485Y0065851D01*
X0043058Y0064467D01*
X0044117Y0063408D01*
X0042830Y0065018D02*
X0007600Y0065018D01*
X0007600Y0066217D02*
X0042485Y0066217D01*
X0042512Y0067415D02*
X0007600Y0067415D01*
X0007600Y0068614D02*
X0043009Y0068614D01*
X0044166Y0069812D02*
X0007600Y0069812D01*
X0007600Y0071011D02*
X0107327Y0071011D01*
X0107557Y0071567D02*
X0106894Y0069966D01*
X0106894Y0068234D01*
X0107557Y0066633D01*
X0108783Y0065407D01*
X0110384Y0064744D01*
X0112116Y0064744D01*
X0113717Y0065407D01*
X0114943Y0066633D01*
X0115606Y0068234D01*
X0115606Y0069966D01*
X0114943Y0071567D01*
X0113717Y0072793D01*
X0112116Y0073456D01*
X0110384Y0073456D01*
X0108783Y0072793D01*
X0107557Y0071567D01*
X0108199Y0072209D02*
X0007600Y0072209D01*
X0007600Y0073408D02*
X0057455Y0073408D01*
X0057288Y0073575D02*
X0058225Y0072638D01*
X0064275Y0072638D01*
X0065212Y0073575D01*
X0065212Y0079625D01*
X0064275Y0080562D01*
X0058225Y0080562D01*
X0057288Y0079625D01*
X0057288Y0073575D01*
X0057288Y0074606D02*
X0007600Y0074606D01*
X0007600Y0075805D02*
X0057288Y0075805D01*
X0057288Y0077003D02*
X0007600Y0077003D01*
X0007600Y0078202D02*
X0057288Y0078202D01*
X0057288Y0079400D02*
X0007600Y0079400D01*
X0007600Y0080599D02*
X0095036Y0080599D01*
X0095423Y0080759D02*
X0093894Y0080126D01*
X0092724Y0078956D01*
X0092091Y0077427D01*
X0092091Y0075773D01*
X0092724Y0074244D01*
X0093894Y0073074D01*
X0095423Y0072441D01*
X0097077Y0072441D01*
X0098606Y0073074D01*
X0099776Y0074244D01*
X0100409Y0075773D01*
X0100409Y0077427D01*
X0099776Y0078956D01*
X0098606Y0080126D01*
X0097077Y0080759D01*
X0095423Y0080759D01*
X0097464Y0080599D02*
X0120050Y0080599D01*
X0120050Y0081797D02*
X0007600Y0081797D01*
X0007600Y0082996D02*
X0059598Y0082996D01*
X0059006Y0083241D02*
X0060462Y0082638D01*
X0062038Y0082638D01*
X0063494Y0083241D01*
X0064609Y0084356D01*
X0065212Y0085812D01*
X0065212Y0087388D01*
X0064609Y0088844D01*
X0063494Y0089959D01*
X0062038Y0090562D01*
X0060462Y0090562D01*
X0059006Y0089959D01*
X0057891Y0088844D01*
X0057288Y0087388D01*
X0057288Y0085812D01*
X0057891Y0084356D01*
X0059006Y0083241D01*
X0058052Y0084194D02*
X0007600Y0084194D01*
X0007600Y0085393D02*
X0057461Y0085393D01*
X0057288Y0086591D02*
X0007600Y0086591D01*
X0007600Y0087790D02*
X0057454Y0087790D01*
X0058035Y0088988D02*
X0007600Y0088988D01*
X0007600Y0090187D02*
X0059556Y0090187D01*
X0060462Y0092638D02*
X0059006Y0093241D01*
X0057891Y0094356D01*
X0057288Y0095812D01*
X0057288Y0097388D01*
X0057891Y0098844D01*
X0059006Y0099959D01*
X0060462Y0100562D01*
X0062038Y0100562D01*
X0063494Y0099959D01*
X0064609Y0098844D01*
X0065212Y0097388D01*
X0065212Y0095812D01*
X0064609Y0094356D01*
X0063494Y0093241D01*
X0062038Y0092638D01*
X0060462Y0092638D01*
X0058464Y0093782D02*
X0048757Y0093782D01*
X0048383Y0093408D02*
X0049442Y0094467D01*
X0050015Y0095851D01*
X0050015Y0097349D01*
X0049442Y0098733D01*
X0048383Y0099792D01*
X0046999Y0100365D01*
X0045501Y0100365D01*
X0044117Y0099792D01*
X0043058Y0098733D01*
X0042485Y0097349D01*
X0042485Y0095851D01*
X0043058Y0094467D01*
X0044117Y0093408D01*
X0045501Y0092835D01*
X0046999Y0092835D01*
X0048383Y0093408D01*
X0049655Y0094981D02*
X0057632Y0094981D01*
X0057288Y0096179D02*
X0050015Y0096179D01*
X0050003Y0097378D02*
X0057288Y0097378D01*
X0057780Y0098576D02*
X0049507Y0098576D01*
X0048400Y0099775D02*
X0058822Y0099775D01*
X0063678Y0099775D02*
X0074100Y0099775D01*
X0074117Y0099792D02*
X0073058Y0098733D01*
X0072485Y0097349D01*
X0072485Y0095851D01*
X0073058Y0094467D01*
X0074117Y0093408D01*
X0075501Y0092835D01*
X0076999Y0092835D01*
X0078383Y0093408D01*
X0079442Y0094467D01*
X0080015Y0095851D01*
X0080015Y0097349D01*
X0079442Y0098733D01*
X0078383Y0099792D01*
X0076999Y0100365D01*
X0075501Y0100365D01*
X0074117Y0099792D01*
X0072993Y0098576D02*
X0064720Y0098576D01*
X0065212Y0097378D02*
X0072497Y0097378D01*
X0072485Y0096179D02*
X0065212Y0096179D01*
X0064868Y0094981D02*
X0072845Y0094981D01*
X0073743Y0093782D02*
X0064036Y0093782D01*
X0062944Y0090187D02*
X0109041Y0090187D01*
X0108894Y0090126D02*
X0107724Y0088956D01*
X0107091Y0087427D01*
X0107091Y0085773D01*
X0107724Y0084244D01*
X0108894Y0083074D01*
X0110423Y0082441D01*
X0112077Y0082441D01*
X0113606Y0083074D01*
X0114776Y0084244D01*
X0115409Y0085773D01*
X0115409Y0087427D01*
X0114776Y0088956D01*
X0113606Y0090126D01*
X0112077Y0090759D01*
X0110423Y0090759D01*
X0108894Y0090126D01*
X0107757Y0088988D02*
X0064465Y0088988D01*
X0065046Y0087790D02*
X0107241Y0087790D01*
X0107091Y0086591D02*
X0065212Y0086591D01*
X0065039Y0085393D02*
X0107248Y0085393D01*
X0107774Y0084194D02*
X0064448Y0084194D01*
X0062902Y0082996D02*
X0109083Y0082996D01*
X0113417Y0082996D02*
X0120050Y0082996D01*
X0120050Y0084194D02*
X0114726Y0084194D01*
X0115252Y0085393D02*
X0120050Y0085393D01*
X0120050Y0086591D02*
X0115409Y0086591D01*
X0115259Y0087790D02*
X0120050Y0087790D01*
X0120050Y0088988D02*
X0114743Y0088988D01*
X0113459Y0090187D02*
X0120050Y0090187D01*
X0120050Y0091385D02*
X0007600Y0091385D01*
X0007600Y0092584D02*
X0095078Y0092584D01*
X0095423Y0092441D02*
X0097077Y0092441D01*
X0098606Y0093074D01*
X0099776Y0094244D01*
X0100409Y0095773D01*
X0100409Y0097427D01*
X0099776Y0098956D01*
X0098606Y0100126D01*
X0097077Y0100759D01*
X0095423Y0100759D01*
X0093894Y0100126D01*
X0092724Y0098956D01*
X0092091Y0097427D01*
X0092091Y0095773D01*
X0092724Y0094244D01*
X0093894Y0093074D01*
X0095423Y0092441D01*
X0097422Y0092584D02*
X0120050Y0092584D01*
X0120050Y0093782D02*
X0108757Y0093782D01*
X0108383Y0093408D02*
X0109442Y0094467D01*
X0110015Y0095851D01*
X0110015Y0097349D01*
X0109442Y0098733D01*
X0108383Y0099792D01*
X0106999Y0100365D01*
X0105501Y0100365D01*
X0104117Y0099792D01*
X0103058Y0098733D01*
X0102485Y0097349D01*
X0102485Y0095851D01*
X0103058Y0094467D01*
X0104117Y0093408D01*
X0105501Y0092835D01*
X0106999Y0092835D01*
X0108383Y0093408D01*
X0109655Y0094981D02*
X0120050Y0094981D01*
X0120050Y0096179D02*
X0110015Y0096179D01*
X0110003Y0097378D02*
X0120050Y0097378D01*
X0120050Y0098576D02*
X0109507Y0098576D01*
X0108400Y0099775D02*
X0120050Y0099775D01*
X0120050Y0100973D02*
X0007600Y0100973D01*
X0007600Y0099775D02*
X0044100Y0099775D01*
X0042993Y0098576D02*
X0007600Y0098576D01*
X0007600Y0097378D02*
X0042497Y0097378D01*
X0042485Y0096179D02*
X0007600Y0096179D01*
X0007600Y0094981D02*
X0042845Y0094981D01*
X0043743Y0093782D02*
X0007600Y0093782D01*
X0007600Y0102172D02*
X0120050Y0102172D01*
X0120050Y0103370D02*
X0108780Y0103370D01*
X0108921Y0103473D02*
X0109377Y0103929D01*
X0109757Y0104451D01*
X0110050Y0105026D01*
X0110249Y0105640D01*
X0110350Y0106277D01*
X0110350Y0106400D01*
X0106450Y0106400D01*
X0106450Y0106800D01*
X0110350Y0106800D01*
X0110350Y0106923D01*
X0110249Y0107560D01*
X0110050Y0108174D01*
X0109757Y0108749D01*
X0109377Y0109271D01*
X0108921Y0109727D01*
X0108399Y0110107D01*
X0107824Y0110400D01*
X0107210Y0110599D01*
X0106573Y0110700D01*
X0106450Y0110700D01*
X0106450Y0106800D01*
X0106050Y0106800D01*
X0106050Y0110700D01*
X0105927Y0110700D01*
X0105290Y0110599D01*
X0104676Y0110400D01*
X0104101Y0110107D01*
X0103579Y0109727D01*
X0103123Y0109271D01*
X0102743Y0108749D01*
X0102450Y0108174D01*
X0102251Y0107560D01*
X0102150Y0106923D01*
X0102150Y0106800D01*
X0106050Y0106800D01*
X0106050Y0106400D01*
X0106450Y0106400D01*
X0106450Y0102500D01*
X0106573Y0102500D01*
X0107210Y0102601D01*
X0107824Y0102800D01*
X0108399Y0103093D01*
X0108921Y0103473D01*
X0109817Y0104569D02*
X0120050Y0104569D01*
X0120050Y0105768D02*
X0110269Y0105768D01*
X0110343Y0106966D02*
X0120050Y0106966D01*
X0120050Y0108165D02*
X0110053Y0108165D01*
X0109285Y0109363D02*
X0120050Y0109363D01*
X0120050Y0110562D02*
X0107325Y0110562D01*
X0106450Y0110562D02*
X0106050Y0110562D01*
X0105175Y0110562D02*
X0097554Y0110562D01*
X0097077Y0110759D02*
X0095423Y0110759D01*
X0093894Y0110126D01*
X0092724Y0108956D01*
X0092091Y0107427D01*
X0092091Y0105773D01*
X0092724Y0104244D01*
X0093894Y0103074D01*
X0095423Y0102441D01*
X0097077Y0102441D01*
X0098606Y0103074D01*
X0099776Y0104244D01*
X0100409Y0105773D01*
X0100409Y0107427D01*
X0099776Y0108956D01*
X0098606Y0110126D01*
X0097077Y0110759D01*
X0094946Y0110562D02*
X0077517Y0110562D01*
X0077224Y0110657D02*
X0076577Y0110759D01*
X0076250Y0110759D01*
X0076250Y0106600D01*
X0080409Y0106600D01*
X0080409Y0106927D01*
X0080307Y0107574D01*
X0080104Y0108197D01*
X0079807Y0108780D01*
X0079422Y0109309D01*
X0078959Y0109772D01*
X0078430Y0110157D01*
X0077847Y0110454D01*
X0077224Y0110657D01*
X0076250Y0110562D02*
X0076250Y0110562D01*
X0076250Y0110759D02*
X0075923Y0110759D01*
X0075276Y0110657D01*
X0074653Y0110454D01*
X0074070Y0110157D01*
X0073541Y0109772D01*
X0073078Y0109309D01*
X0072693Y0108780D01*
X0072396Y0108197D01*
X0072193Y0107574D01*
X0072091Y0106927D01*
X0072091Y0106600D01*
X0076250Y0106600D01*
X0076250Y0106600D01*
X0076250Y0106600D01*
X0080409Y0106600D01*
X0080409Y0106273D01*
X0080307Y0105626D01*
X0080104Y0105003D01*
X0079807Y0104420D01*
X0079422Y0103891D01*
X0078959Y0103428D01*
X0078430Y0103043D01*
X0077847Y0102746D01*
X0077224Y0102543D01*
X0076577Y0102441D01*
X0076250Y0102441D01*
X0076250Y0106600D01*
X0076250Y0106600D01*
X0076250Y0106600D01*
X0076250Y0110759D01*
X0074983Y0110562D02*
X0067547Y0110562D01*
X0066999Y0110335D02*
X0068383Y0110908D01*
X0069442Y0111967D01*
X0070015Y0113351D01*
X0070015Y0114849D01*
X0069442Y0116233D01*
X0068383Y0117292D01*
X0066999Y0117865D01*
X0065501Y0117865D01*
X0064117Y0117292D01*
X0063058Y0116233D01*
X0062485Y0114849D01*
X0062485Y0113351D01*
X0063058Y0111967D01*
X0064117Y0110908D01*
X0065501Y0110335D01*
X0066999Y0110335D01*
X0064953Y0110562D02*
X0007600Y0110562D01*
X0007600Y0111760D02*
X0063265Y0111760D01*
X0062647Y0112959D02*
X0007600Y0112959D01*
X0007600Y0114157D02*
X0062485Y0114157D01*
X0062695Y0115356D02*
X0007600Y0115356D01*
X0007600Y0116554D02*
X0063379Y0116554D01*
X0065229Y0117753D02*
X0059390Y0117753D01*
X0059275Y0117638D02*
X0060212Y0118575D01*
X0060212Y0124625D01*
X0059275Y0125562D01*
X0053225Y0125562D01*
X0052288Y0124625D01*
X0052288Y0118575D01*
X0053225Y0117638D01*
X0059275Y0117638D01*
X0060212Y0118951D02*
X0072288Y0118951D01*
X0072288Y0118575D02*
X0073225Y0117638D01*
X0079275Y0117638D01*
X0080212Y0118575D01*
X0080212Y0124625D01*
X0079275Y0125562D01*
X0073225Y0125562D01*
X0072288Y0124625D01*
X0072288Y0118575D01*
X0073110Y0117753D02*
X0067271Y0117753D01*
X0069121Y0116554D02*
X0102150Y0116554D01*
X0102150Y0115784D02*
X0102774Y0114278D01*
X0103928Y0113124D01*
X0105434Y0112500D01*
X0107066Y0112500D01*
X0108572Y0113124D01*
X0109726Y0114278D01*
X0110350Y0115784D01*
X0110350Y0117416D01*
X0109726Y0118922D01*
X0108572Y0120076D01*
X0107066Y0120700D01*
X0105434Y0120700D01*
X0103928Y0120076D01*
X0102774Y0118922D01*
X0102150Y0117416D01*
X0102150Y0115784D01*
X0102328Y0115356D02*
X0069805Y0115356D01*
X0070015Y0114157D02*
X0102895Y0114157D01*
X0104327Y0112959D02*
X0069853Y0112959D01*
X0069235Y0111760D02*
X0120050Y0111760D01*
X0120050Y0112959D02*
X0108173Y0112959D01*
X0109605Y0114157D02*
X0120050Y0114157D01*
X0120050Y0115356D02*
X0110172Y0115356D01*
X0110350Y0116554D02*
X0120050Y0116554D01*
X0120050Y0117753D02*
X0110210Y0117753D01*
X0109697Y0118951D02*
X0120050Y0118951D01*
X0120050Y0120150D02*
X0108394Y0120150D01*
X0107178Y0122547D02*
X0120050Y0122547D01*
X0120050Y0123745D02*
X0109193Y0123745D01*
X0109726Y0124278D02*
X0110350Y0125784D01*
X0110350Y0127416D01*
X0109726Y0128922D01*
X0108572Y0130076D01*
X0107066Y0130700D01*
X0105434Y0130700D01*
X0103928Y0130076D01*
X0102774Y0128922D01*
X0102150Y0127416D01*
X0102150Y0125784D01*
X0102774Y0124278D01*
X0103928Y0123124D01*
X0105434Y0122500D01*
X0107066Y0122500D01*
X0108572Y0123124D01*
X0109726Y0124278D01*
X0110002Y0124944D02*
X0120050Y0124944D01*
X0120050Y0126142D02*
X0110350Y0126142D01*
X0110350Y0127341D02*
X0120050Y0127341D01*
X0120050Y0128539D02*
X0109885Y0128539D01*
X0108911Y0129738D02*
X0120050Y0129738D01*
X0120050Y0130936D02*
X0007600Y0130936D01*
X0007600Y0129738D02*
X0103589Y0129738D01*
X0102615Y0128539D02*
X0007600Y0128539D01*
X0007600Y0127341D02*
X0102150Y0127341D01*
X0102150Y0126142D02*
X0007600Y0126142D01*
X0007600Y0124944D02*
X0042607Y0124944D01*
X0042288Y0124625D02*
X0042288Y0118575D01*
X0043225Y0117638D01*
X0049275Y0117638D01*
X0050212Y0118575D01*
X0050212Y0124625D01*
X0049275Y0125562D01*
X0043225Y0125562D01*
X0042288Y0124625D01*
X0042288Y0123745D02*
X0007600Y0123745D01*
X0007600Y0122547D02*
X0042288Y0122547D01*
X0042288Y0121348D02*
X0007600Y0121348D01*
X0007600Y0120150D02*
X0042288Y0120150D01*
X0042288Y0118951D02*
X0007600Y0118951D01*
X0007600Y0117753D02*
X0043110Y0117753D01*
X0049390Y0117753D02*
X0053110Y0117753D01*
X0052288Y0118951D02*
X0050212Y0118951D01*
X0050212Y0120150D02*
X0052288Y0120150D01*
X0052288Y0121348D02*
X0050212Y0121348D01*
X0050212Y0122547D02*
X0052288Y0122547D01*
X0052288Y0123745D02*
X0050212Y0123745D01*
X0049893Y0124944D02*
X0052607Y0124944D01*
X0059893Y0124944D02*
X0072607Y0124944D01*
X0072288Y0123745D02*
X0060212Y0123745D01*
X0060212Y0122547D02*
X0072288Y0122547D01*
X0072288Y0121348D02*
X0060212Y0121348D01*
X0060212Y0120150D02*
X0072288Y0120150D01*
X0079390Y0117753D02*
X0085185Y0117753D01*
X0085462Y0117638D02*
X0087038Y0117638D01*
X0088494Y0118241D01*
X0089609Y0119356D01*
X0090212Y0120812D01*
X0090212Y0122388D01*
X0089609Y0123844D01*
X0088494Y0124959D01*
X0087038Y0125562D01*
X0085462Y0125562D01*
X0084006Y0124959D01*
X0082891Y0123844D01*
X0082288Y0122388D01*
X0082288Y0120812D01*
X0082891Y0119356D01*
X0084006Y0118241D01*
X0085462Y0117638D01*
X0087315Y0117753D02*
X0094670Y0117753D01*
X0095423Y0117441D02*
X0097077Y0117441D01*
X0098606Y0118074D01*
X0099776Y0119244D01*
X0100409Y0120773D01*
X0100409Y0122427D01*
X0099776Y0123956D01*
X0098606Y0125126D01*
X0097077Y0125759D01*
X0095423Y0125759D01*
X0093894Y0125126D01*
X0092724Y0123956D01*
X0092091Y0122427D01*
X0092091Y0120773D01*
X0092724Y0119244D01*
X0093894Y0118074D01*
X0095423Y0117441D01*
X0097830Y0117753D02*
X0102290Y0117753D01*
X0102803Y0118951D02*
X0099483Y0118951D01*
X0100151Y0120150D02*
X0104106Y0120150D01*
X0105322Y0122547D02*
X0100360Y0122547D01*
X0100409Y0121348D02*
X0120050Y0121348D01*
X0126450Y0121348D02*
X0171650Y0121348D01*
X0171650Y0120730D02*
X0172880Y0119500D01*
X0181650Y0110730D01*
X0181650Y0110232D01*
X0181394Y0110126D01*
X0180224Y0108956D01*
X0179591Y0107427D01*
X0179591Y0105773D01*
X0180224Y0104244D01*
X0181394Y0103074D01*
X0182923Y0102441D01*
X0184577Y0102441D01*
X0186106Y0103074D01*
X0187276Y0104244D01*
X0187909Y0105773D01*
X0187909Y0107427D01*
X0187276Y0108956D01*
X0186106Y0110126D01*
X0185850Y0110232D01*
X0185850Y0112470D01*
X0175850Y0122470D01*
X0175850Y0123394D01*
X0175883Y0123408D01*
X0176942Y0124467D01*
X0177515Y0125851D01*
X0177515Y0127349D01*
X0176942Y0128733D01*
X0175883Y0129792D01*
X0174499Y0130365D01*
X0173001Y0130365D01*
X0171617Y0129792D01*
X0170558Y0128733D01*
X0169985Y0127349D01*
X0169985Y0125851D01*
X0170558Y0124467D01*
X0171617Y0123408D01*
X0171650Y0123394D01*
X0171650Y0120730D01*
X0172230Y0120150D02*
X0138394Y0120150D01*
X0138572Y0120076D02*
X0137066Y0120700D01*
X0135434Y0120700D01*
X0133928Y0120076D01*
X0132774Y0118922D01*
X0132150Y0117416D01*
X0132150Y0115784D01*
X0132774Y0114278D01*
X0133928Y0113124D01*
X0135434Y0112500D01*
X0137066Y0112500D01*
X0138572Y0113124D01*
X0139726Y0114278D01*
X0140350Y0115784D01*
X0140350Y0117416D01*
X0139726Y0118922D01*
X0138572Y0120076D01*
X0139697Y0118951D02*
X0173429Y0118951D01*
X0174628Y0117753D02*
X0140210Y0117753D01*
X0140350Y0116554D02*
X0175826Y0116554D01*
X0177025Y0115356D02*
X0140172Y0115356D01*
X0139605Y0114157D02*
X0178223Y0114157D01*
X0179422Y0112959D02*
X0138173Y0112959D01*
X0137066Y0110700D02*
X0135434Y0110700D01*
X0133928Y0110076D01*
X0132774Y0108922D01*
X0132150Y0107416D01*
X0132150Y0105784D01*
X0132774Y0104278D01*
X0133928Y0103124D01*
X0135434Y0102500D01*
X0137066Y0102500D01*
X0138572Y0103124D01*
X0139726Y0104278D01*
X0140350Y0105784D01*
X0140350Y0107416D01*
X0139726Y0108922D01*
X0138572Y0110076D01*
X0137066Y0110700D01*
X0137400Y0110562D02*
X0181650Y0110562D01*
X0180631Y0109363D02*
X0139285Y0109363D01*
X0140040Y0108165D02*
X0179896Y0108165D01*
X0179591Y0106966D02*
X0140350Y0106966D01*
X0140343Y0105768D02*
X0179593Y0105768D01*
X0180090Y0104569D02*
X0139847Y0104569D01*
X0138819Y0103370D02*
X0181098Y0103370D01*
X0186402Y0103370D02*
X0221650Y0103370D01*
X0221650Y0102172D02*
X0126450Y0102172D01*
X0126450Y0103370D02*
X0133681Y0103370D01*
X0132653Y0104569D02*
X0126450Y0104569D01*
X0126450Y0105768D02*
X0132157Y0105768D01*
X0132150Y0106966D02*
X0126450Y0106966D01*
X0126450Y0108165D02*
X0132460Y0108165D01*
X0133215Y0109363D02*
X0126450Y0109363D01*
X0126450Y0110562D02*
X0135100Y0110562D01*
X0134327Y0112959D02*
X0126450Y0112959D01*
X0126450Y0114157D02*
X0132895Y0114157D01*
X0132328Y0115356D02*
X0126450Y0115356D01*
X0126450Y0116554D02*
X0132150Y0116554D01*
X0132290Y0117753D02*
X0126450Y0117753D01*
X0126450Y0118951D02*
X0132803Y0118951D01*
X0134106Y0120150D02*
X0126450Y0120150D01*
X0126450Y0122547D02*
X0135322Y0122547D01*
X0135434Y0122500D02*
X0137066Y0122500D01*
X0138572Y0123124D01*
X0139726Y0124278D01*
X0140350Y0125784D01*
X0140350Y0127416D01*
X0139726Y0128922D01*
X0138572Y0130076D01*
X0137066Y0130700D01*
X0135434Y0130700D01*
X0133928Y0130076D01*
X0132774Y0128922D01*
X0132150Y0127416D01*
X0132150Y0125784D01*
X0132774Y0124278D01*
X0133928Y0123124D01*
X0135434Y0122500D01*
X0137178Y0122547D02*
X0171650Y0122547D01*
X0171280Y0123745D02*
X0158720Y0123745D01*
X0158650Y0123675D02*
X0159175Y0124200D01*
X0159587Y0124816D01*
X0159871Y0125502D01*
X0160015Y0126229D01*
X0160015Y0126600D01*
X0160015Y0126971D01*
X0159871Y0127698D01*
X0159587Y0128384D01*
X0159175Y0129000D01*
X0158650Y0129525D01*
X0158034Y0129937D01*
X0157348Y0130221D01*
X0156621Y0130365D01*
X0156250Y0130365D01*
X0155879Y0130365D01*
X0155152Y0130221D01*
X0154466Y0129937D01*
X0153850Y0129525D01*
X0153325Y0129000D01*
X0152913Y0128384D01*
X0152629Y0127698D01*
X0152485Y0126971D01*
X0152485Y0126600D01*
X0152485Y0126229D01*
X0152629Y0125502D01*
X0152913Y0124816D01*
X0153325Y0124200D01*
X0153850Y0123675D01*
X0154466Y0123263D01*
X0155152Y0122979D01*
X0155879Y0122835D01*
X0156250Y0122835D01*
X0156621Y0122835D01*
X0157348Y0122979D01*
X0158034Y0123263D01*
X0158650Y0123675D01*
X0159640Y0124944D02*
X0170360Y0124944D01*
X0169985Y0126142D02*
X0159998Y0126142D01*
X0160015Y0126600D02*
X0156250Y0126600D01*
X0156250Y0126600D01*
X0156250Y0130365D01*
X0156250Y0126600D01*
X0160015Y0126600D01*
X0159942Y0127341D02*
X0169985Y0127341D01*
X0170478Y0128539D02*
X0159483Y0128539D01*
X0158331Y0129738D02*
X0171563Y0129738D01*
X0172884Y0132244D02*
X0174616Y0132244D01*
X0176217Y0132907D01*
X0177443Y0134133D01*
X0178106Y0135734D01*
X0178106Y0137466D01*
X0177443Y0139067D01*
X0176217Y0140293D01*
X0174616Y0140956D01*
X0172884Y0140956D01*
X0171283Y0140293D01*
X0170057Y0139067D01*
X0169394Y0137466D01*
X0169394Y0135734D01*
X0170057Y0134133D01*
X0171283Y0132907D01*
X0172884Y0132244D01*
X0170857Y0133333D02*
X0154502Y0133333D01*
X0154073Y0132905D02*
X0155010Y0133842D01*
X0155010Y0139498D01*
X0154073Y0140435D01*
X0148417Y0140435D01*
X0147480Y0139498D01*
X0147480Y0133842D01*
X0148417Y0132905D01*
X0154073Y0132905D01*
X0155010Y0134532D02*
X0169892Y0134532D01*
X0169395Y0135730D02*
X0155010Y0135730D01*
X0155010Y0136929D02*
X0169394Y0136929D01*
X0169668Y0138127D02*
X0155010Y0138127D01*
X0155010Y0139326D02*
X0170316Y0139326D01*
X0171842Y0140524D02*
X0137490Y0140524D01*
X0137066Y0140700D02*
X0135434Y0140700D01*
X0133928Y0140076D01*
X0132774Y0138922D01*
X0132150Y0137416D01*
X0132150Y0135784D01*
X0132774Y0134278D01*
X0133928Y0133124D01*
X0135434Y0132500D01*
X0137066Y0132500D01*
X0138572Y0133124D01*
X0139726Y0134278D01*
X0140350Y0135784D01*
X0140350Y0137416D01*
X0139726Y0138922D01*
X0138572Y0140076D01*
X0137066Y0140700D01*
X0135010Y0140524D02*
X0128915Y0140524D01*
X0129200Y0141723D02*
X0148730Y0141723D01*
X0148847Y0141605D02*
X0149464Y0141193D01*
X0150149Y0140909D01*
X0150877Y0140765D01*
X0151247Y0140765D01*
X0151247Y0144530D01*
X0147482Y0144530D01*
X0151247Y0144530D01*
X0151247Y0144530D01*
X0151247Y0148295D01*
X0150877Y0148295D01*
X0150149Y0148151D01*
X0149464Y0147867D01*
X0148847Y0147455D01*
X0148323Y0146930D01*
X0147911Y0146314D01*
X0147627Y0145628D01*
X0147482Y0144901D01*
X0147482Y0144530D01*
X0147482Y0144159D01*
X0147627Y0143432D01*
X0147911Y0142746D01*
X0148323Y0142130D01*
X0148847Y0141605D01*
X0147838Y0142921D02*
X0129200Y0142921D01*
X0129200Y0144120D02*
X0147490Y0144120D01*
X0147565Y0145318D02*
X0137988Y0145318D01*
X0138606Y0145574D02*
X0139776Y0146744D01*
X0140409Y0148273D01*
X0140409Y0149927D01*
X0139776Y0151456D01*
X0138606Y0152626D01*
X0137077Y0153259D01*
X0135423Y0153259D01*
X0133894Y0152626D01*
X0132724Y0151456D01*
X0132091Y0149927D01*
X0132091Y0148273D01*
X0132724Y0146744D01*
X0133894Y0145574D01*
X0135423Y0144941D01*
X0137077Y0144941D01*
X0138606Y0145574D01*
X0139549Y0146517D02*
X0148047Y0146517D01*
X0149237Y0147715D02*
X0140178Y0147715D01*
X0140409Y0148914D02*
X0215966Y0148914D01*
X0214768Y0150112D02*
X0140332Y0150112D01*
X0139836Y0151311D02*
X0213569Y0151311D01*
X0212371Y0152509D02*
X0194510Y0152509D01*
X0194724Y0152543D02*
X0194077Y0152441D01*
X0193750Y0152441D01*
X0193750Y0156600D01*
X0193750Y0156600D01*
X0193750Y0160759D01*
X0194077Y0160759D01*
X0194724Y0160657D01*
X0195347Y0160454D01*
X0195930Y0160157D01*
X0196459Y0159772D01*
X0196922Y0159309D01*
X0197307Y0158780D01*
X0197604Y0158197D01*
X0197807Y0157574D01*
X0197909Y0156927D01*
X0197909Y0156600D01*
X0193750Y0156600D01*
X0193750Y0156600D01*
X0193750Y0156600D01*
X0189591Y0156600D01*
X0189591Y0156927D01*
X0189693Y0157574D01*
X0189896Y0158197D01*
X0190193Y0158780D01*
X0190578Y0159309D01*
X0191041Y0159772D01*
X0191570Y0160157D01*
X0192153Y0160454D01*
X0192776Y0160657D01*
X0193423Y0160759D01*
X0193750Y0160759D01*
X0193750Y0156600D01*
X0197909Y0156600D01*
X0197909Y0156273D01*
X0197807Y0155626D01*
X0197604Y0155003D01*
X0197307Y0154420D01*
X0196922Y0153891D01*
X0196459Y0153428D01*
X0195930Y0153043D01*
X0195347Y0152746D01*
X0194724Y0152543D01*
X0193750Y0152509D02*
X0193750Y0152509D01*
X0193750Y0152441D02*
X0193750Y0156600D01*
X0193750Y0156600D01*
X0189591Y0156600D01*
X0189591Y0156273D01*
X0189693Y0155626D01*
X0189896Y0155003D01*
X0190193Y0154420D01*
X0190578Y0153891D01*
X0191041Y0153428D01*
X0191570Y0153043D01*
X0192153Y0152746D01*
X0192776Y0152543D01*
X0193423Y0152441D01*
X0193750Y0152441D01*
X0192990Y0152509D02*
X0175257Y0152509D01*
X0174616Y0152244D02*
X0172884Y0152244D01*
X0171283Y0152907D01*
X0170057Y0154133D01*
X0169394Y0155734D01*
X0169394Y0157466D01*
X0170057Y0159067D01*
X0171283Y0160293D01*
X0172884Y0160956D01*
X0174616Y0160956D01*
X0176217Y0160293D01*
X0177443Y0159067D01*
X0178106Y0157466D01*
X0178106Y0155734D01*
X0177443Y0154133D01*
X0176217Y0152907D01*
X0174616Y0152244D01*
X0172243Y0152509D02*
X0138722Y0152509D01*
X0136999Y0155335D02*
X0138383Y0155908D01*
X0139442Y0156967D01*
X0140015Y0158351D01*
X0140015Y0159849D01*
X0139442Y0161233D01*
X0138383Y0162292D01*
X0136999Y0162865D01*
X0135501Y0162865D01*
X0134117Y0162292D01*
X0133058Y0161233D01*
X0132485Y0159849D01*
X0132485Y0158351D01*
X0133058Y0156967D01*
X0134117Y0155908D01*
X0135501Y0155335D01*
X0136999Y0155335D01*
X0138580Y0156105D02*
X0169394Y0156105D01*
X0169394Y0157303D02*
X0139581Y0157303D01*
X0140015Y0158502D02*
X0169823Y0158502D01*
X0170690Y0159701D02*
X0140015Y0159701D01*
X0139580Y0160899D02*
X0172746Y0160899D01*
X0174754Y0160899D02*
X0203981Y0160899D01*
X0202783Y0162098D02*
X0138577Y0162098D01*
X0133923Y0162098D02*
X0129200Y0162098D01*
X0129200Y0163296D02*
X0201584Y0163296D01*
X0200386Y0164495D02*
X0195920Y0164495D01*
X0197554Y0165693D02*
X0199187Y0165693D01*
X0201531Y0169289D02*
X0213267Y0169289D01*
X0213267Y0169646D02*
X0213267Y0168680D01*
X0208607Y0168680D01*
X0208607Y0165409D01*
X0208716Y0165002D01*
X0208926Y0164637D01*
X0209224Y0164339D01*
X0209589Y0164129D01*
X0209996Y0164020D01*
X0213267Y0164020D01*
X0213267Y0168680D01*
X0214233Y0168680D01*
X0214233Y0169646D01*
X0213267Y0169646D01*
X0213267Y0174306D01*
X0209996Y0174306D01*
X0209599Y0174200D01*
X0209587Y0174200D01*
X0209578Y0174191D01*
X0209224Y0173987D01*
X0208926Y0173689D01*
X0208722Y0173335D01*
X0208650Y0173263D01*
X0208650Y0173079D01*
X0208607Y0172917D01*
X0208607Y0169646D01*
X0213267Y0169646D01*
X0213267Y0170487D02*
X0214233Y0170487D01*
X0214233Y0169646D02*
X0214233Y0174306D01*
X0217504Y0174306D01*
X0217911Y0174197D01*
X0218276Y0173987D01*
X0218574Y0173689D01*
X0218784Y0173324D01*
X0218893Y0172917D01*
X0218893Y0169646D01*
X0214233Y0169646D01*
X0214233Y0169289D02*
X0234683Y0169289D01*
X0234683Y0170487D02*
X0218893Y0170487D01*
X0218893Y0171686D02*
X0234683Y0171686D01*
X0234683Y0172884D02*
X0218893Y0172884D01*
X0218109Y0174083D02*
X0234683Y0174083D01*
X0234683Y0175281D02*
X0007600Y0175281D01*
X0007600Y0174083D02*
X0027187Y0174083D01*
X0027727Y0174306D02*
X0025837Y0173523D01*
X0024390Y0172076D01*
X0023607Y0170186D01*
X0023607Y0168140D01*
X0024390Y0166250D01*
X0025837Y0164803D01*
X0027727Y0164020D01*
X0029773Y0164020D01*
X0031663Y0164803D01*
X0033110Y0166250D01*
X0033893Y0168140D01*
X0033893Y0170186D01*
X0033110Y0172076D01*
X0031663Y0173523D01*
X0029773Y0174306D01*
X0027727Y0174306D01*
X0030313Y0174083D02*
X0047187Y0174083D01*
X0047727Y0174306D02*
X0045837Y0173523D01*
X0044390Y0172076D01*
X0043607Y0170186D01*
X0043607Y0168140D01*
X0044390Y0166250D01*
X0045837Y0164803D01*
X0047727Y0164020D01*
X0049773Y0164020D01*
X0051663Y0164803D01*
X0053110Y0166250D01*
X0053893Y0168140D01*
X0053893Y0170186D01*
X0053110Y0172076D01*
X0051663Y0173523D01*
X0049773Y0174306D01*
X0047727Y0174306D01*
X0050313Y0174083D02*
X0064320Y0174083D01*
X0064544Y0174306D02*
X0063607Y0173369D01*
X0063607Y0164957D01*
X0064544Y0164020D01*
X0072956Y0164020D01*
X0073893Y0164957D01*
X0073893Y0173369D01*
X0072956Y0174306D01*
X0064544Y0174306D01*
X0063607Y0172884D02*
X0052303Y0172884D01*
X0053272Y0171686D02*
X0063607Y0171686D01*
X0063607Y0170487D02*
X0053769Y0170487D01*
X0053893Y0169289D02*
X0063607Y0169289D01*
X0063607Y0168090D02*
X0053873Y0168090D01*
X0053376Y0166892D02*
X0063607Y0166892D01*
X0063607Y0165693D02*
X0052554Y0165693D01*
X0050920Y0164495D02*
X0064069Y0164495D01*
X0073431Y0164495D02*
X0122800Y0164495D01*
X0122800Y0165693D02*
X0108606Y0165693D01*
X0108606Y0165681D02*
X0107669Y0164744D01*
X0100831Y0164744D01*
X0099894Y0165681D01*
X0099894Y0172519D01*
X0100831Y0173456D01*
X0107669Y0173456D01*
X0108606Y0172519D01*
X0108606Y0165681D01*
X0108606Y0166892D02*
X0122200Y0166892D01*
X0121704Y0168090D02*
X0108606Y0168090D01*
X0108606Y0169289D02*
X0121644Y0169289D01*
X0121860Y0170487D02*
X0108606Y0170487D01*
X0108606Y0171686D02*
X0122425Y0171686D01*
X0123753Y0172884D02*
X0108240Y0172884D01*
X0106999Y0162865D02*
X0105501Y0162865D01*
X0104117Y0162292D01*
X0103058Y0161233D01*
X0102485Y0159849D01*
X0102485Y0158351D01*
X0103058Y0156967D01*
X0104117Y0155908D01*
X0105501Y0155335D01*
X0106999Y0155335D01*
X0108383Y0155908D01*
X0109442Y0156967D01*
X0110015Y0158351D01*
X0110015Y0159849D01*
X0109442Y0161233D01*
X0108383Y0162292D01*
X0106999Y0162865D01*
X0108577Y0162098D02*
X0122800Y0162098D01*
X0122800Y0163296D02*
X0007600Y0163296D01*
X0007600Y0162098D02*
X0103923Y0162098D01*
X0102920Y0160899D02*
X0007600Y0160899D01*
X0007600Y0159701D02*
X0102485Y0159701D01*
X0102485Y0158502D02*
X0007600Y0158502D01*
X0007600Y0157303D02*
X0102919Y0157303D01*
X0103920Y0156105D02*
X0007600Y0156105D01*
X0007600Y0154906D02*
X0122800Y0154906D01*
X0122800Y0153708D02*
X0007600Y0153708D01*
X0007600Y0152509D02*
X0113867Y0152509D01*
X0114070Y0152657D02*
X0113541Y0152272D01*
X0113078Y0151809D01*
X0112693Y0151280D01*
X0112396Y0150697D01*
X0112193Y0150074D01*
X0112091Y0149427D01*
X0112091Y0149100D01*
X0116250Y0149100D01*
X0120409Y0149100D01*
X0120409Y0149427D01*
X0120307Y0150074D01*
X0120104Y0150697D01*
X0119807Y0151280D01*
X0119422Y0151809D01*
X0118959Y0152272D01*
X0118430Y0152657D01*
X0117847Y0152954D01*
X0117224Y0153157D01*
X0116577Y0153259D01*
X0116250Y0153259D01*
X0116250Y0149100D01*
X0116250Y0149100D01*
X0116250Y0149100D01*
X0120409Y0149100D01*
X0120409Y0148773D01*
X0120307Y0148126D01*
X0120104Y0147503D01*
X0119807Y0146920D01*
X0119422Y0146391D01*
X0118959Y0145928D01*
X0118430Y0145543D01*
X0117847Y0145246D01*
X0117224Y0145043D01*
X0116577Y0144941D01*
X0116250Y0144941D01*
X0116250Y0149100D01*
X0116250Y0149100D01*
X0116250Y0149100D01*
X0116250Y0153259D01*
X0115923Y0153259D01*
X0115276Y0153157D01*
X0114653Y0152954D01*
X0114070Y0152657D01*
X0112715Y0151311D02*
X0007600Y0151311D01*
X0007600Y0150112D02*
X0112206Y0150112D01*
X0112091Y0149100D02*
X0112091Y0148773D01*
X0112193Y0148126D01*
X0112396Y0147503D01*
X0112693Y0146920D01*
X0113078Y0146391D01*
X0113541Y0145928D01*
X0114070Y0145543D01*
X0114653Y0145246D01*
X0115276Y0145043D01*
X0115923Y0144941D01*
X0116250Y0144941D01*
X0116250Y0149100D01*
X0112091Y0149100D01*
X0112091Y0148914D02*
X0007600Y0148914D01*
X0007600Y0147715D02*
X0065139Y0147715D01*
X0065501Y0147865D02*
X0064117Y0147292D01*
X0063058Y0146233D01*
X0062485Y0144849D01*
X0062485Y0143351D01*
X0063058Y0141967D01*
X0064117Y0140908D01*
X0065501Y0140335D01*
X0066999Y0140335D01*
X0068383Y0140908D01*
X0069442Y0141967D01*
X0070015Y0143351D01*
X0070015Y0144849D01*
X0069442Y0146233D01*
X0068383Y0147292D01*
X0066999Y0147865D01*
X0065501Y0147865D01*
X0067361Y0147715D02*
X0112327Y0147715D01*
X0112986Y0146517D02*
X0069158Y0146517D01*
X0069821Y0145318D02*
X0074873Y0145318D01*
X0075462Y0145562D02*
X0074006Y0144959D01*
X0072891Y0143844D01*
X0072288Y0142388D01*
X0072288Y0140812D01*
X0072891Y0139356D01*
X0074006Y0138241D01*
X0075462Y0137638D01*
X0077038Y0137638D01*
X0078494Y0138241D01*
X0079609Y0139356D01*
X0080212Y0140812D01*
X0080212Y0142388D01*
X0079609Y0143844D01*
X0078494Y0144959D01*
X0077038Y0145562D01*
X0075462Y0145562D01*
X0077627Y0145318D02*
X0082981Y0145318D01*
X0083225Y0145562D02*
X0082288Y0144625D01*
X0082288Y0138575D01*
X0083225Y0137638D01*
X0089275Y0137638D01*
X0090212Y0138575D01*
X0090212Y0144625D01*
X0089275Y0145562D01*
X0083225Y0145562D01*
X0082288Y0144120D02*
X0079334Y0144120D01*
X0079991Y0142921D02*
X0082288Y0142921D01*
X0082288Y0141723D02*
X0080212Y0141723D01*
X0080093Y0140524D02*
X0082288Y0140524D01*
X0082288Y0139326D02*
X0079579Y0139326D01*
X0078220Y0138127D02*
X0082736Y0138127D01*
X0089764Y0138127D02*
X0093841Y0138127D01*
X0093894Y0138074D02*
X0095423Y0137441D01*
X0097077Y0137441D01*
X0098606Y0138074D01*
X0099776Y0139244D01*
X0100409Y0140773D01*
X0100409Y0142427D01*
X0099776Y0143956D01*
X0098606Y0145126D01*
X0097077Y0145759D01*
X0095423Y0145759D01*
X0093894Y0145126D01*
X0092724Y0143956D01*
X0092091Y0142427D01*
X0092091Y0140773D01*
X0092724Y0139244D01*
X0093894Y0138074D01*
X0092690Y0139326D02*
X0090212Y0139326D01*
X0090212Y0140524D02*
X0092194Y0140524D01*
X0092091Y0141723D02*
X0090212Y0141723D01*
X0090212Y0142921D02*
X0092296Y0142921D01*
X0092888Y0144120D02*
X0090212Y0144120D01*
X0089519Y0145318D02*
X0094359Y0145318D01*
X0098141Y0145318D02*
X0114511Y0145318D01*
X0116250Y0145318D02*
X0116250Y0145318D01*
X0116250Y0146517D02*
X0116250Y0146517D01*
X0116250Y0147715D02*
X0116250Y0147715D01*
X0116250Y0148914D02*
X0116250Y0148914D01*
X0116250Y0150112D02*
X0116250Y0150112D01*
X0116250Y0151311D02*
X0116250Y0151311D01*
X0116250Y0152509D02*
X0116250Y0152509D01*
X0118633Y0152509D02*
X0122800Y0152509D01*
X0122800Y0151311D02*
X0119785Y0151311D01*
X0120294Y0150112D02*
X0122800Y0150112D01*
X0122800Y0148914D02*
X0120409Y0148914D01*
X0120173Y0147715D02*
X0122800Y0147715D01*
X0122800Y0146517D02*
X0119514Y0146517D01*
X0117989Y0145318D02*
X0122800Y0145318D01*
X0122800Y0144120D02*
X0099612Y0144120D01*
X0100204Y0142921D02*
X0122546Y0142921D01*
X0121347Y0141723D02*
X0100409Y0141723D01*
X0100306Y0140524D02*
X0105010Y0140524D01*
X0105434Y0140700D02*
X0103928Y0140076D01*
X0102774Y0138922D01*
X0102150Y0137416D01*
X0102150Y0135784D01*
X0102774Y0134278D01*
X0103928Y0133124D01*
X0105434Y0132500D01*
X0107066Y0132500D01*
X0108572Y0133124D01*
X0109726Y0134278D01*
X0110350Y0135784D01*
X0110350Y0137416D01*
X0109726Y0138922D01*
X0108572Y0140076D01*
X0107066Y0140700D01*
X0105434Y0140700D01*
X0107490Y0140524D02*
X0120376Y0140524D01*
X0120050Y0139326D02*
X0109322Y0139326D01*
X0110055Y0138127D02*
X0120050Y0138127D01*
X0120050Y0136929D02*
X0110350Y0136929D01*
X0110328Y0135730D02*
X0120050Y0135730D01*
X0120050Y0134532D02*
X0109831Y0134532D01*
X0108782Y0133333D02*
X0120050Y0133333D01*
X0120050Y0132135D02*
X0007600Y0132135D01*
X0007600Y0133333D02*
X0103718Y0133333D01*
X0102669Y0134532D02*
X0007600Y0134532D01*
X0007600Y0135730D02*
X0102172Y0135730D01*
X0102150Y0136929D02*
X0007600Y0136929D01*
X0007600Y0138127D02*
X0044280Y0138127D01*
X0044006Y0138241D02*
X0045462Y0137638D01*
X0047038Y0137638D01*
X0048494Y0138241D01*
X0049609Y0139356D01*
X0050212Y0140812D01*
X0050212Y0142388D01*
X0049609Y0143844D01*
X0048494Y0144959D01*
X0047038Y0145562D01*
X0045462Y0145562D01*
X0044006Y0144959D01*
X0042891Y0143844D01*
X0042288Y0142388D01*
X0042288Y0140812D01*
X0042891Y0139356D01*
X0044006Y0138241D01*
X0042921Y0139326D02*
X0007600Y0139326D01*
X0007600Y0140524D02*
X0042407Y0140524D01*
X0042288Y0141723D02*
X0007600Y0141723D01*
X0007600Y0142921D02*
X0042509Y0142921D01*
X0043166Y0144120D02*
X0007600Y0144120D01*
X0007600Y0145318D02*
X0044873Y0145318D01*
X0047627Y0145318D02*
X0054873Y0145318D01*
X0055462Y0145562D02*
X0054006Y0144959D01*
X0052891Y0143844D01*
X0052288Y0142388D01*
X0052288Y0140812D01*
X0052891Y0139356D01*
X0054006Y0138241D01*
X0055462Y0137638D01*
X0057038Y0137638D01*
X0058494Y0138241D01*
X0059609Y0139356D01*
X0060212Y0140812D01*
X0060212Y0142388D01*
X0059609Y0143844D01*
X0058494Y0144959D01*
X0057038Y0145562D01*
X0055462Y0145562D01*
X0057627Y0145318D02*
X0062679Y0145318D01*
X0062485Y0144120D02*
X0059334Y0144120D01*
X0059991Y0142921D02*
X0062663Y0142921D01*
X0063302Y0141723D02*
X0060212Y0141723D01*
X0060093Y0140524D02*
X0065043Y0140524D01*
X0067457Y0140524D02*
X0072407Y0140524D01*
X0072288Y0141723D02*
X0069198Y0141723D01*
X0069837Y0142921D02*
X0072509Y0142921D01*
X0073166Y0144120D02*
X0070015Y0144120D01*
X0072921Y0139326D02*
X0059579Y0139326D01*
X0058220Y0138127D02*
X0074280Y0138127D01*
X0063342Y0146517D02*
X0007600Y0146517D01*
X0007600Y0164495D02*
X0026580Y0164495D01*
X0024946Y0165693D02*
X0007600Y0165693D01*
X0007600Y0166892D02*
X0024124Y0166892D01*
X0023627Y0168090D02*
X0007600Y0168090D01*
X0007600Y0169289D02*
X0023607Y0169289D01*
X0023731Y0170487D02*
X0007600Y0170487D01*
X0007600Y0171686D02*
X0024228Y0171686D01*
X0025197Y0172884D02*
X0007600Y0172884D01*
X0007600Y0176480D02*
X0234683Y0176480D01*
X0234683Y0177678D02*
X0007600Y0177678D01*
X0007600Y0178877D02*
X0234683Y0178877D01*
X0234683Y0180075D02*
X0007600Y0180075D01*
X0007600Y0181274D02*
X0234683Y0181274D01*
X0234683Y0182472D02*
X0007600Y0182472D01*
X0007600Y0183671D02*
X0234683Y0183671D01*
X0234683Y0184869D02*
X0007600Y0184869D01*
X0007600Y0186068D02*
X0234683Y0186068D01*
X0234683Y0187266D02*
X0007600Y0187266D01*
X0007600Y0188465D02*
X0234683Y0188465D01*
X0234683Y0189663D02*
X0007600Y0189663D01*
X0007600Y0190862D02*
X0234683Y0190862D01*
X0234683Y0192060D02*
X0007600Y0192060D01*
X0007600Y0193259D02*
X0234683Y0193259D01*
X0234683Y0194457D02*
X0007600Y0194457D01*
X0007600Y0195656D02*
X0234683Y0195656D01*
X0234683Y0196854D02*
X0007600Y0196854D01*
X0007600Y0198053D02*
X0234683Y0198053D01*
X0234683Y0199251D02*
X0007600Y0199251D01*
X0007600Y0200450D02*
X0234683Y0200450D01*
X0234683Y0201648D02*
X0007600Y0201648D01*
X0007600Y0202847D02*
X0234683Y0202847D01*
X0234683Y0204045D02*
X0007600Y0204045D01*
X0007600Y0205244D02*
X0234683Y0205244D01*
X0234683Y0206442D02*
X0007600Y0206442D01*
X0007600Y0207641D02*
X0234683Y0207641D01*
X0234683Y0208839D02*
X0209379Y0208839D01*
X0208839Y0208616D02*
X0210947Y0209489D01*
X0212560Y0211102D01*
X0213433Y0213209D01*
X0213433Y0215491D01*
X0212560Y0217598D01*
X0210947Y0219211D01*
X0208839Y0220084D01*
X0206558Y0220084D01*
X0204451Y0219211D01*
X0202838Y0217598D01*
X0201965Y0215491D01*
X0201965Y0213209D01*
X0202838Y0211102D01*
X0204451Y0209489D01*
X0206558Y0208616D01*
X0208839Y0208616D01*
X0206019Y0208839D02*
X0145481Y0208839D01*
X0144942Y0208616D02*
X0147049Y0209489D01*
X0148662Y0211102D01*
X0149535Y0213209D01*
X0149535Y0215491D01*
X0148662Y0217598D01*
X0147049Y0219211D01*
X0144942Y0220084D01*
X0142661Y0220084D01*
X0140553Y0219211D01*
X0138940Y0217598D01*
X0138067Y0215491D01*
X0138067Y0213209D01*
X0138940Y0211102D01*
X0140553Y0209489D01*
X0142661Y0208616D01*
X0144942Y0208616D01*
X0142121Y0208839D02*
X0100379Y0208839D01*
X0099839Y0208616D02*
X0101947Y0209489D01*
X0103560Y0211102D01*
X0104433Y0213209D01*
X0104433Y0215491D01*
X0103560Y0217598D01*
X0101947Y0219211D01*
X0099839Y0220084D01*
X0097558Y0220084D01*
X0095451Y0219211D01*
X0093838Y0217598D01*
X0092965Y0215491D01*
X0092965Y0213209D01*
X0093838Y0211102D01*
X0095451Y0209489D01*
X0097558Y0208616D01*
X0099839Y0208616D01*
X0097019Y0208839D02*
X0036481Y0208839D01*
X0035942Y0208616D02*
X0038049Y0209489D01*
X0039662Y0211102D01*
X0040535Y0213209D01*
X0040535Y0215491D01*
X0039662Y0217598D01*
X0038049Y0219211D01*
X0035942Y0220084D01*
X0033661Y0220084D01*
X0031553Y0219211D01*
X0029940Y0217598D01*
X0029067Y0215491D01*
X0029067Y0213209D01*
X0029940Y0211102D01*
X0031553Y0209489D01*
X0033661Y0208616D01*
X0035942Y0208616D01*
X0033121Y0208839D02*
X0007600Y0208839D01*
X0007600Y0210038D02*
X0031004Y0210038D01*
X0029885Y0211237D02*
X0007600Y0211237D01*
X0007600Y0212435D02*
X0029388Y0212435D01*
X0029067Y0213634D02*
X0007600Y0213634D01*
X0007600Y0214832D02*
X0029067Y0214832D01*
X0029291Y0216031D02*
X0007600Y0216031D01*
X0007600Y0217229D02*
X0029787Y0217229D01*
X0030770Y0218428D02*
X0007600Y0218428D01*
X0007600Y0219626D02*
X0032555Y0219626D01*
X0037047Y0219626D02*
X0096453Y0219626D01*
X0094667Y0218428D02*
X0038832Y0218428D01*
X0039815Y0217229D02*
X0093685Y0217229D01*
X0093189Y0216031D02*
X0040311Y0216031D01*
X0040535Y0214832D02*
X0092965Y0214832D01*
X0092965Y0213634D02*
X0040535Y0213634D01*
X0040214Y0212435D02*
X0093286Y0212435D01*
X0093782Y0211237D02*
X0039718Y0211237D01*
X0038598Y0210038D02*
X0094902Y0210038D01*
X0102496Y0210038D02*
X0140004Y0210038D01*
X0138885Y0211237D02*
X0103615Y0211237D01*
X0104112Y0212435D02*
X0138388Y0212435D01*
X0138067Y0213634D02*
X0104433Y0213634D01*
X0104433Y0214832D02*
X0138067Y0214832D01*
X0138291Y0216031D02*
X0104209Y0216031D01*
X0103713Y0217229D02*
X0138787Y0217229D01*
X0139770Y0218428D02*
X0102730Y0218428D01*
X0100945Y0219626D02*
X0141555Y0219626D01*
X0146047Y0219626D02*
X0205453Y0219626D01*
X0203667Y0218428D02*
X0147832Y0218428D01*
X0148815Y0217229D02*
X0202685Y0217229D01*
X0202189Y0216031D02*
X0149311Y0216031D01*
X0149535Y0214832D02*
X0201965Y0214832D01*
X0201965Y0213634D02*
X0149535Y0213634D01*
X0149214Y0212435D02*
X0202286Y0212435D01*
X0202782Y0211237D02*
X0148718Y0211237D01*
X0147598Y0210038D02*
X0203902Y0210038D01*
X0211496Y0210038D02*
X0234683Y0210038D01*
X0234683Y0211237D02*
X0212615Y0211237D01*
X0213112Y0212435D02*
X0234683Y0212435D01*
X0234683Y0213634D02*
X0213433Y0213634D01*
X0213433Y0214832D02*
X0234683Y0214832D01*
X0234683Y0216031D02*
X0213209Y0216031D01*
X0212713Y0217229D02*
X0234683Y0217229D01*
X0234683Y0218428D02*
X0211730Y0218428D01*
X0209945Y0219626D02*
X0234683Y0219626D01*
X0234683Y0220825D02*
X0007600Y0220825D01*
X0007600Y0222023D02*
X0234683Y0222023D01*
X0234683Y0223222D02*
X0007600Y0223222D01*
X0007600Y0224420D02*
X0117736Y0224420D01*
X0117473Y0224529D02*
X0118505Y0224102D01*
X0119584Y0223813D01*
X0120650Y0223672D01*
X0120650Y0231588D01*
X0112734Y0231588D01*
X0112875Y0230522D01*
X0113164Y0229443D01*
X0113591Y0228411D01*
X0114150Y0227444D01*
X0114830Y0226557D01*
X0115619Y0225768D01*
X0116506Y0225088D01*
X0117473Y0224529D01*
X0115814Y0225619D02*
X0007600Y0225619D01*
X0007600Y0226817D02*
X0114630Y0226817D01*
X0113819Y0228016D02*
X0007600Y0228016D01*
X0007600Y0229214D02*
X0113258Y0229214D01*
X0112904Y0230413D02*
X0007600Y0230413D01*
X0007600Y0231611D02*
X0120650Y0231611D01*
X0120650Y0231588D02*
X0120650Y0232788D01*
X0120650Y0240704D01*
X0119584Y0240563D01*
X0118505Y0240274D01*
X0117473Y0239847D01*
X0116506Y0239288D01*
X0115619Y0238608D01*
X0114830Y0237818D01*
X0114150Y0236932D01*
X0113591Y0235965D01*
X0113164Y0234933D01*
X0112875Y0233854D01*
X0112734Y0232788D01*
X0120650Y0232788D01*
X0121850Y0232788D01*
X0121850Y0240704D01*
X0122916Y0240563D01*
X0123995Y0240274D01*
X0125027Y0239847D01*
X0125994Y0239288D01*
X0126880Y0238608D01*
X0127670Y0237818D01*
X0128350Y0236932D01*
X0128909Y0235965D01*
X0129336Y0234933D01*
X0129625Y0233854D01*
X0129766Y0232788D01*
X0121850Y0232788D01*
X0121850Y0231588D01*
X0129766Y0231588D01*
X0129625Y0230522D01*
X0129336Y0229443D01*
X0128909Y0228411D01*
X0128350Y0227444D01*
X0127670Y0226557D01*
X0126880Y0225768D01*
X0125994Y0225088D01*
X0125027Y0224529D01*
X0123995Y0224102D01*
X0122916Y0223813D01*
X0121850Y0223672D01*
X0121850Y0231588D01*
X0120650Y0231588D01*
X0120650Y0230413D02*
X0121850Y0230413D01*
X0121850Y0231611D02*
X0234683Y0231611D01*
X0234683Y0230413D02*
X0129596Y0230413D01*
X0129242Y0229214D02*
X0234683Y0229214D01*
X0234683Y0228016D02*
X0128681Y0228016D01*
X0127870Y0226817D02*
X0234683Y0226817D01*
X0234683Y0225619D02*
X0126686Y0225619D01*
X0124764Y0224420D02*
X0234683Y0224420D01*
X0234683Y0232810D02*
X0129763Y0232810D01*
X0129584Y0234008D02*
X0141714Y0234008D01*
X0142661Y0233616D02*
X0140553Y0234489D01*
X0138940Y0236102D01*
X0138067Y0238209D01*
X0138067Y0240491D01*
X0138940Y0242598D01*
X0140553Y0244211D01*
X0142661Y0245084D01*
X0144942Y0245084D01*
X0147049Y0244211D01*
X0148662Y0242598D01*
X0149535Y0240491D01*
X0149535Y0238209D01*
X0148662Y0236102D01*
X0147049Y0234489D01*
X0144942Y0233616D01*
X0142661Y0233616D01*
X0139836Y0235207D02*
X0129223Y0235207D01*
X0128655Y0236405D02*
X0138815Y0236405D01*
X0138318Y0237604D02*
X0127835Y0237604D01*
X0126628Y0238802D02*
X0138067Y0238802D01*
X0138067Y0240001D02*
X0124655Y0240001D01*
X0121850Y0240001D02*
X0120650Y0240001D01*
X0120650Y0238802D02*
X0121850Y0238802D01*
X0121850Y0237604D02*
X0120650Y0237604D01*
X0120650Y0236405D02*
X0121850Y0236405D01*
X0121850Y0235207D02*
X0120650Y0235207D01*
X0120650Y0234008D02*
X0121850Y0234008D01*
X0121850Y0232810D02*
X0120650Y0232810D01*
X0120650Y0229214D02*
X0121850Y0229214D01*
X0121850Y0228016D02*
X0120650Y0228016D01*
X0120650Y0226817D02*
X0121850Y0226817D01*
X0121850Y0225619D02*
X0120650Y0225619D01*
X0120650Y0224420D02*
X0121850Y0224420D01*
X0112737Y0232810D02*
X0007600Y0232810D01*
X0007600Y0234008D02*
X0032714Y0234008D01*
X0033661Y0233616D02*
X0031553Y0234489D01*
X0029940Y0236102D01*
X0029067Y0238209D01*
X0029067Y0240491D01*
X0029940Y0242598D01*
X0031553Y0244211D01*
X0033661Y0245084D01*
X0035942Y0245084D01*
X0038049Y0244211D01*
X0039662Y0242598D01*
X0040535Y0240491D01*
X0040535Y0238209D01*
X0039662Y0236102D01*
X0038049Y0234489D01*
X0035942Y0233616D01*
X0033661Y0233616D01*
X0036888Y0234008D02*
X0096612Y0234008D01*
X0097558Y0233616D02*
X0099839Y0233616D01*
X0101947Y0234489D01*
X0103560Y0236102D01*
X0104433Y0238209D01*
X0104433Y0240491D01*
X0103560Y0242598D01*
X0101947Y0244211D01*
X0099839Y0245084D01*
X0097558Y0245084D01*
X0095451Y0244211D01*
X0093838Y0242598D01*
X0092965Y0240491D01*
X0092965Y0238209D01*
X0093838Y0236102D01*
X0095451Y0234489D01*
X0097558Y0233616D01*
X0094733Y0235207D02*
X0038767Y0235207D01*
X0039788Y0236405D02*
X0093712Y0236405D01*
X0093216Y0237604D02*
X0040284Y0237604D01*
X0040535Y0238802D02*
X0092965Y0238802D01*
X0092965Y0240001D02*
X0040535Y0240001D01*
X0040241Y0241199D02*
X0093259Y0241199D01*
X0093755Y0242398D02*
X0039745Y0242398D01*
X0038664Y0243596D02*
X0094836Y0243596D01*
X0096861Y0244795D02*
X0036639Y0244795D01*
X0032963Y0244795D02*
X0007600Y0244795D01*
X0007600Y0245993D02*
X0234683Y0245993D01*
X0234683Y0244795D02*
X0209537Y0244795D01*
X0208839Y0245084D02*
X0210947Y0244211D01*
X0212560Y0242598D01*
X0213433Y0240491D01*
X0213433Y0238209D01*
X0212560Y0236102D01*
X0210947Y0234489D01*
X0208839Y0233616D01*
X0206558Y0233616D01*
X0204451Y0234489D01*
X0202838Y0236102D01*
X0201965Y0238209D01*
X0201965Y0240491D01*
X0202838Y0242598D01*
X0204451Y0244211D01*
X0206558Y0245084D01*
X0208839Y0245084D01*
X0205861Y0244795D02*
X0145639Y0244795D01*
X0147664Y0243596D02*
X0203836Y0243596D01*
X0202755Y0242398D02*
X0148745Y0242398D01*
X0149241Y0241199D02*
X0202259Y0241199D01*
X0201965Y0240001D02*
X0149535Y0240001D01*
X0149535Y0238802D02*
X0201965Y0238802D01*
X0202216Y0237604D02*
X0149284Y0237604D01*
X0148788Y0236405D02*
X0202712Y0236405D01*
X0203733Y0235207D02*
X0147767Y0235207D01*
X0145888Y0234008D02*
X0205612Y0234008D01*
X0209786Y0234008D02*
X0234683Y0234008D01*
X0234683Y0235207D02*
X0211664Y0235207D01*
X0212685Y0236405D02*
X0234683Y0236405D01*
X0234683Y0237604D02*
X0213182Y0237604D01*
X0213433Y0238802D02*
X0234683Y0238802D01*
X0234683Y0240001D02*
X0213433Y0240001D01*
X0213139Y0241199D02*
X0234683Y0241199D01*
X0234683Y0242398D02*
X0212643Y0242398D01*
X0211561Y0243596D02*
X0234683Y0243596D01*
X0234683Y0247192D02*
X0007600Y0247192D01*
X0007600Y0248390D02*
X0116896Y0248390D01*
X0116423Y0248586D02*
X0119555Y0247289D01*
X0122945Y0247289D01*
X0126077Y0248586D01*
X0128474Y0250983D01*
X0129771Y0254115D01*
X0129771Y0257505D01*
X0128474Y0260637D01*
X0126077Y0263034D01*
X0122945Y0264331D01*
X0119555Y0264331D01*
X0116423Y0263034D01*
X0114026Y0260637D01*
X0112729Y0257505D01*
X0112729Y0254115D01*
X0114026Y0250983D01*
X0116423Y0248586D01*
X0115420Y0249589D02*
X0007600Y0249589D01*
X0007600Y0250787D02*
X0114222Y0250787D01*
X0113611Y0251986D02*
X0007600Y0251986D01*
X0007600Y0253184D02*
X0113114Y0253184D01*
X0112729Y0254383D02*
X0007600Y0254383D01*
X0007600Y0255581D02*
X0112729Y0255581D01*
X0112729Y0256780D02*
X0028479Y0256780D01*
X0028126Y0256427D02*
X0028858Y0257159D01*
X0029254Y0258114D01*
X0029254Y0262869D01*
X0029487Y0262149D01*
X0029897Y0261345D01*
X0030428Y0260615D01*
X0031066Y0259976D01*
X0031796Y0259446D01*
X0032600Y0259036D01*
X0033458Y0258757D01*
X0034201Y0258640D01*
X0034201Y0263750D01*
X0035401Y0263750D01*
X0035401Y0258640D01*
X0036144Y0258757D01*
X0037002Y0259036D01*
X0037806Y0259446D01*
X0038537Y0259976D01*
X0039175Y0260615D01*
X0039705Y0261345D01*
X0040115Y0262149D01*
X0040394Y0263007D01*
X0040511Y0263750D01*
X0035401Y0263750D01*
X0035401Y0264950D01*
X0034201Y0264950D01*
X0034201Y0270060D01*
X0033458Y0269943D01*
X0032600Y0269664D01*
X0031796Y0269254D01*
X0031066Y0268724D01*
X0030428Y0268085D01*
X0029897Y0267355D01*
X0029487Y0266551D01*
X0029254Y0265831D01*
X0029254Y0283591D01*
X0213030Y0283591D01*
X0213030Y0266463D01*
X0212560Y0267598D01*
X0210947Y0269211D01*
X0208839Y0270084D01*
X0206558Y0270084D01*
X0204451Y0269211D01*
X0202838Y0267598D01*
X0201965Y0265491D01*
X0201965Y0263209D01*
X0202838Y0261102D01*
X0204451Y0259489D01*
X0206558Y0258616D01*
X0208839Y0258616D01*
X0210947Y0259489D01*
X0212560Y0261102D01*
X0213030Y0262237D01*
X0213030Y0258114D01*
X0213426Y0257159D01*
X0214157Y0256427D01*
X0215113Y0256031D01*
X0234683Y0256031D01*
X0234683Y0008200D01*
X0007600Y0008200D01*
X0007600Y0256031D01*
X0027171Y0256031D01*
X0028126Y0256427D01*
X0029197Y0257978D02*
X0112925Y0257978D01*
X0113421Y0259177D02*
X0101193Y0259177D01*
X0101947Y0259489D02*
X0103560Y0261102D01*
X0104433Y0263209D01*
X0104433Y0265491D01*
X0103560Y0267598D01*
X0101947Y0269211D01*
X0099839Y0270084D01*
X0097558Y0270084D01*
X0095451Y0269211D01*
X0093838Y0267598D01*
X0092965Y0265491D01*
X0092965Y0263209D01*
X0093838Y0261102D01*
X0095451Y0259489D01*
X0097558Y0258616D01*
X0099839Y0258616D01*
X0101947Y0259489D01*
X0102833Y0260375D02*
X0113918Y0260375D01*
X0114963Y0261574D02*
X0103755Y0261574D01*
X0104252Y0262772D02*
X0116162Y0262772D01*
X0118685Y0263971D02*
X0104433Y0263971D01*
X0104433Y0265170D02*
X0138126Y0265170D01*
X0138091Y0264950D02*
X0143201Y0264950D01*
X0143201Y0263750D01*
X0138091Y0263750D01*
X0138209Y0263007D01*
X0138487Y0262149D01*
X0138897Y0261345D01*
X0139428Y0260615D01*
X0140066Y0259976D01*
X0140796Y0259446D01*
X0141600Y0259036D01*
X0142458Y0258757D01*
X0143201Y0258640D01*
X0143201Y0263750D01*
X0144401Y0263750D01*
X0144401Y0258640D01*
X0145144Y0258757D01*
X0146002Y0259036D01*
X0146806Y0259446D01*
X0147537Y0259976D01*
X0148175Y0260615D01*
X0148705Y0261345D01*
X0149115Y0262149D01*
X0149394Y0263007D01*
X0149511Y0263750D01*
X0144401Y0263750D01*
X0144401Y0264950D01*
X0143201Y0264950D01*
X0143201Y0270060D01*
X0142458Y0269943D01*
X0141600Y0269664D01*
X0140796Y0269254D01*
X0140066Y0268724D01*
X0139428Y0268085D01*
X0138897Y0267355D01*
X0138487Y0266551D01*
X0138209Y0265693D01*
X0138091Y0264950D01*
X0138428Y0266368D02*
X0104069Y0266368D01*
X0103573Y0267567D02*
X0139051Y0267567D01*
X0140123Y0268765D02*
X0102393Y0268765D01*
X0100130Y0269964D02*
X0142590Y0269964D01*
X0143201Y0269964D02*
X0144401Y0269964D01*
X0144401Y0270060D02*
X0144401Y0264950D01*
X0149511Y0264950D01*
X0149394Y0265693D01*
X0149115Y0266551D01*
X0148705Y0267355D01*
X0148175Y0268085D01*
X0147537Y0268724D01*
X0146806Y0269254D01*
X0146002Y0269664D01*
X0145144Y0269943D01*
X0144401Y0270060D01*
X0145012Y0269964D02*
X0206268Y0269964D01*
X0204005Y0268765D02*
X0147479Y0268765D01*
X0148552Y0267567D02*
X0202825Y0267567D01*
X0202328Y0266368D02*
X0149174Y0266368D01*
X0149477Y0265170D02*
X0201965Y0265170D01*
X0201965Y0263971D02*
X0144401Y0263971D01*
X0144401Y0265170D02*
X0143201Y0265170D01*
X0143201Y0266368D02*
X0144401Y0266368D01*
X0144401Y0267567D02*
X0143201Y0267567D01*
X0143201Y0268765D02*
X0144401Y0268765D01*
X0143201Y0263971D02*
X0123815Y0263971D01*
X0126338Y0262772D02*
X0138285Y0262772D01*
X0138780Y0261574D02*
X0127537Y0261574D01*
X0128582Y0260375D02*
X0139667Y0260375D01*
X0141324Y0259177D02*
X0129079Y0259177D01*
X0129575Y0257978D02*
X0213086Y0257978D01*
X0213030Y0259177D02*
X0210193Y0259177D01*
X0211833Y0260375D02*
X0213030Y0260375D01*
X0213030Y0261574D02*
X0212755Y0261574D01*
X0213805Y0256780D02*
X0129771Y0256780D01*
X0129771Y0255581D02*
X0234683Y0255581D01*
X0234683Y0254383D02*
X0129771Y0254383D01*
X0129386Y0253184D02*
X0234683Y0253184D01*
X0234683Y0251986D02*
X0128889Y0251986D01*
X0128278Y0250787D02*
X0234683Y0250787D01*
X0234683Y0249589D02*
X0127080Y0249589D01*
X0125604Y0248390D02*
X0234683Y0248390D01*
X0213030Y0267567D02*
X0212573Y0267567D01*
X0213030Y0268765D02*
X0211393Y0268765D01*
X0213030Y0269964D02*
X0209130Y0269964D01*
X0213030Y0271162D02*
X0029254Y0271162D01*
X0029254Y0269964D02*
X0033590Y0269964D01*
X0034201Y0269964D02*
X0035401Y0269964D01*
X0035401Y0270060D02*
X0035401Y0264950D01*
X0040511Y0264950D01*
X0040394Y0265693D01*
X0040115Y0266551D01*
X0039705Y0267355D01*
X0039175Y0268085D01*
X0038537Y0268724D01*
X0037806Y0269254D01*
X0037002Y0269664D01*
X0036144Y0269943D01*
X0035401Y0270060D01*
X0036012Y0269964D02*
X0097268Y0269964D01*
X0095005Y0268765D02*
X0038479Y0268765D01*
X0039552Y0267567D02*
X0093825Y0267567D01*
X0093328Y0266368D02*
X0040174Y0266368D01*
X0040477Y0265170D02*
X0092965Y0265170D01*
X0092965Y0263971D02*
X0035401Y0263971D01*
X0035401Y0265170D02*
X0034201Y0265170D01*
X0034201Y0266368D02*
X0035401Y0266368D01*
X0035401Y0267567D02*
X0034201Y0267567D01*
X0034201Y0268765D02*
X0035401Y0268765D01*
X0031123Y0268765D02*
X0029254Y0268765D01*
X0029254Y0267567D02*
X0030051Y0267567D01*
X0029428Y0266368D02*
X0029254Y0266368D01*
X0029254Y0262772D02*
X0029285Y0262772D01*
X0029254Y0261574D02*
X0029780Y0261574D01*
X0029254Y0260375D02*
X0030667Y0260375D01*
X0029254Y0259177D02*
X0032324Y0259177D01*
X0034201Y0259177D02*
X0035401Y0259177D01*
X0035401Y0260375D02*
X0034201Y0260375D01*
X0034201Y0261574D02*
X0035401Y0261574D01*
X0035401Y0262772D02*
X0034201Y0262772D01*
X0037278Y0259177D02*
X0096204Y0259177D01*
X0094564Y0260375D02*
X0038936Y0260375D01*
X0039822Y0261574D02*
X0093642Y0261574D01*
X0093146Y0262772D02*
X0040318Y0262772D01*
X0029254Y0272361D02*
X0213030Y0272361D01*
X0213030Y0273559D02*
X0029254Y0273559D01*
X0029254Y0274758D02*
X0213030Y0274758D01*
X0213030Y0275956D02*
X0029254Y0275956D01*
X0029254Y0277155D02*
X0213030Y0277155D01*
X0213030Y0278353D02*
X0029254Y0278353D01*
X0029254Y0279552D02*
X0213030Y0279552D01*
X0213030Y0280750D02*
X0029254Y0280750D01*
X0029254Y0281949D02*
X0213030Y0281949D01*
X0213030Y0283147D02*
X0029254Y0283147D01*
X0030939Y0243596D02*
X0007600Y0243596D01*
X0007600Y0242398D02*
X0029857Y0242398D01*
X0029361Y0241199D02*
X0007600Y0241199D01*
X0007600Y0240001D02*
X0029067Y0240001D01*
X0029067Y0238802D02*
X0007600Y0238802D01*
X0007600Y0237604D02*
X0029318Y0237604D01*
X0029815Y0236405D02*
X0007600Y0236405D01*
X0007600Y0235207D02*
X0030836Y0235207D01*
X0073180Y0174083D02*
X0172187Y0174083D01*
X0172727Y0174306D02*
X0170837Y0173523D01*
X0169390Y0172076D01*
X0168607Y0170186D01*
X0168607Y0168140D01*
X0169390Y0166250D01*
X0170837Y0164803D01*
X0172727Y0164020D01*
X0174773Y0164020D01*
X0176663Y0164803D01*
X0178110Y0166250D01*
X0178893Y0168140D01*
X0178893Y0170186D01*
X0178110Y0172076D01*
X0176663Y0173523D01*
X0174773Y0174306D01*
X0172727Y0174306D01*
X0175313Y0174083D02*
X0192187Y0174083D01*
X0190197Y0172884D02*
X0177303Y0172884D01*
X0178272Y0171686D02*
X0189228Y0171686D01*
X0188731Y0170487D02*
X0178769Y0170487D01*
X0178893Y0169289D02*
X0188607Y0169289D01*
X0188627Y0168090D02*
X0178873Y0168090D01*
X0178376Y0166892D02*
X0189124Y0166892D01*
X0189946Y0165693D02*
X0177554Y0165693D01*
X0175920Y0164495D02*
X0191580Y0164495D01*
X0190969Y0159701D02*
X0176810Y0159701D01*
X0177677Y0158502D02*
X0190051Y0158502D01*
X0189651Y0157303D02*
X0178106Y0157303D01*
X0178106Y0156105D02*
X0189617Y0156105D01*
X0189945Y0154906D02*
X0177763Y0154906D01*
X0177018Y0153708D02*
X0190760Y0153708D01*
X0193750Y0153708D02*
X0193750Y0153708D01*
X0193750Y0154906D02*
X0193750Y0154906D01*
X0193750Y0156105D02*
X0193750Y0156105D01*
X0193750Y0157303D02*
X0193750Y0157303D01*
X0193750Y0158502D02*
X0193750Y0158502D01*
X0193750Y0159701D02*
X0193750Y0159701D01*
X0196531Y0159701D02*
X0205180Y0159701D01*
X0206378Y0158502D02*
X0197449Y0158502D01*
X0197849Y0157303D02*
X0207577Y0157303D01*
X0208775Y0156105D02*
X0197882Y0156105D01*
X0197555Y0154906D02*
X0209974Y0154906D01*
X0211172Y0153708D02*
X0196740Y0153708D01*
X0194577Y0140759D02*
X0192923Y0140759D01*
X0191394Y0140126D01*
X0190224Y0138956D01*
X0189591Y0137427D01*
X0189591Y0135773D01*
X0190224Y0134244D01*
X0191394Y0133074D01*
X0192923Y0132441D01*
X0194577Y0132441D01*
X0196106Y0133074D01*
X0197276Y0134244D01*
X0197909Y0135773D01*
X0197909Y0137427D01*
X0197276Y0138956D01*
X0196106Y0140126D01*
X0194577Y0140759D01*
X0195144Y0140524D02*
X0221650Y0140524D01*
X0221650Y0139326D02*
X0196906Y0139326D01*
X0197619Y0138127D02*
X0221650Y0138127D01*
X0221650Y0136929D02*
X0197909Y0136929D01*
X0197891Y0135730D02*
X0221650Y0135730D01*
X0221650Y0134532D02*
X0197395Y0134532D01*
X0196365Y0133333D02*
X0221650Y0133333D01*
X0221650Y0132135D02*
X0126450Y0132135D01*
X0126450Y0133333D02*
X0133718Y0133333D01*
X0132669Y0134532D02*
X0126450Y0134532D01*
X0126450Y0135730D02*
X0132172Y0135730D01*
X0132150Y0136929D02*
X0126450Y0136929D01*
X0126803Y0138127D02*
X0132445Y0138127D01*
X0133178Y0139326D02*
X0128001Y0139326D01*
X0129200Y0145318D02*
X0134511Y0145318D01*
X0132951Y0146517D02*
X0129200Y0146517D01*
X0129200Y0147715D02*
X0132322Y0147715D01*
X0132091Y0148914D02*
X0129200Y0148914D01*
X0129200Y0150112D02*
X0132168Y0150112D01*
X0132664Y0151311D02*
X0129200Y0151311D01*
X0129200Y0152509D02*
X0133778Y0152509D01*
X0133920Y0156105D02*
X0129200Y0156105D01*
X0129200Y0157303D02*
X0132919Y0157303D01*
X0132485Y0158502D02*
X0129200Y0158502D01*
X0129200Y0159701D02*
X0132485Y0159701D01*
X0132920Y0160899D02*
X0129200Y0160899D01*
X0129200Y0164495D02*
X0171580Y0164495D01*
X0169946Y0165693D02*
X0129200Y0165693D01*
X0129800Y0166892D02*
X0169124Y0166892D01*
X0168627Y0168090D02*
X0130296Y0168090D01*
X0130356Y0169289D02*
X0168607Y0169289D01*
X0168731Y0170487D02*
X0130140Y0170487D01*
X0129575Y0171686D02*
X0169228Y0171686D01*
X0170197Y0172884D02*
X0128247Y0172884D01*
X0122800Y0160899D02*
X0109580Y0160899D01*
X0110015Y0159701D02*
X0122800Y0159701D01*
X0122800Y0158502D02*
X0110015Y0158502D01*
X0109581Y0157303D02*
X0122800Y0157303D01*
X0122800Y0156105D02*
X0108580Y0156105D01*
X0099894Y0165693D02*
X0073893Y0165693D01*
X0073893Y0166892D02*
X0099894Y0166892D01*
X0099894Y0168090D02*
X0073893Y0168090D01*
X0073893Y0169289D02*
X0099894Y0169289D01*
X0099894Y0170487D02*
X0073893Y0170487D01*
X0073893Y0171686D02*
X0099894Y0171686D01*
X0100260Y0172884D02*
X0073893Y0172884D01*
X0053166Y0144120D02*
X0049334Y0144120D01*
X0049991Y0142921D02*
X0052509Y0142921D01*
X0052288Y0141723D02*
X0050212Y0141723D01*
X0050093Y0140524D02*
X0052407Y0140524D01*
X0052921Y0139326D02*
X0049579Y0139326D01*
X0048220Y0138127D02*
X0054280Y0138127D01*
X0046580Y0164495D02*
X0030920Y0164495D01*
X0032554Y0165693D02*
X0044946Y0165693D01*
X0044124Y0166892D02*
X0033376Y0166892D01*
X0033873Y0168090D02*
X0043627Y0168090D01*
X0043607Y0169289D02*
X0033893Y0169289D01*
X0033769Y0170487D02*
X0043731Y0170487D01*
X0044228Y0171686D02*
X0033272Y0171686D01*
X0032303Y0172884D02*
X0045197Y0172884D01*
X0079893Y0124944D02*
X0083990Y0124944D01*
X0082850Y0123745D02*
X0080212Y0123745D01*
X0080212Y0122547D02*
X0082353Y0122547D01*
X0082288Y0121348D02*
X0080212Y0121348D01*
X0080212Y0120150D02*
X0082562Y0120150D01*
X0083295Y0118951D02*
X0080212Y0118951D01*
X0079369Y0109363D02*
X0093131Y0109363D01*
X0092396Y0108165D02*
X0080115Y0108165D01*
X0080403Y0106966D02*
X0092091Y0106966D01*
X0092093Y0105768D02*
X0080329Y0105768D01*
X0079883Y0104569D02*
X0092590Y0104569D01*
X0093598Y0103370D02*
X0078881Y0103370D01*
X0076250Y0103370D02*
X0076250Y0103370D01*
X0076250Y0102441D02*
X0076250Y0106600D01*
X0072091Y0106600D01*
X0072091Y0106273D01*
X0072193Y0105626D01*
X0072396Y0105003D01*
X0072693Y0104420D01*
X0073078Y0103891D01*
X0073541Y0103428D01*
X0074070Y0103043D01*
X0074653Y0102746D01*
X0075276Y0102543D01*
X0075923Y0102441D01*
X0076250Y0102441D01*
X0076250Y0104569D02*
X0076250Y0104569D01*
X0076250Y0105768D02*
X0076250Y0105768D01*
X0076250Y0106966D02*
X0076250Y0106966D01*
X0076250Y0108165D02*
X0076250Y0108165D01*
X0076250Y0109363D02*
X0076250Y0109363D01*
X0073131Y0109363D02*
X0007600Y0109363D01*
X0007600Y0108165D02*
X0072385Y0108165D01*
X0072097Y0106966D02*
X0007600Y0106966D01*
X0007600Y0105768D02*
X0072171Y0105768D01*
X0072617Y0104569D02*
X0007600Y0104569D01*
X0007600Y0103370D02*
X0073619Y0103370D01*
X0078400Y0099775D02*
X0084224Y0099775D01*
X0084466Y0099937D02*
X0083850Y0099525D01*
X0083325Y0099000D01*
X0082913Y0098384D01*
X0082629Y0097698D01*
X0082485Y0096971D01*
X0082485Y0096600D01*
X0082485Y0096229D01*
X0082629Y0095502D01*
X0082913Y0094816D01*
X0083325Y0094200D01*
X0083850Y0093675D01*
X0084466Y0093263D01*
X0085152Y0092979D01*
X0085879Y0092835D01*
X0086250Y0092835D01*
X0086621Y0092835D01*
X0087348Y0092979D01*
X0088034Y0093263D01*
X0088650Y0093675D01*
X0089175Y0094200D01*
X0089587Y0094816D01*
X0089871Y0095502D01*
X0090015Y0096229D01*
X0090015Y0096600D01*
X0090015Y0096971D01*
X0089871Y0097698D01*
X0089587Y0098384D01*
X0089175Y0099000D01*
X0088650Y0099525D01*
X0088034Y0099937D01*
X0087348Y0100221D01*
X0086621Y0100365D01*
X0086250Y0100365D01*
X0085879Y0100365D01*
X0085152Y0100221D01*
X0084466Y0099937D01*
X0086250Y0099775D02*
X0086250Y0099775D01*
X0086250Y0100365D02*
X0086250Y0096600D01*
X0086250Y0096600D01*
X0086250Y0100365D01*
X0086250Y0098576D02*
X0086250Y0098576D01*
X0086250Y0097378D02*
X0086250Y0097378D01*
X0086250Y0096600D02*
X0082485Y0096600D01*
X0086250Y0096600D01*
X0090015Y0096600D01*
X0086250Y0096600D01*
X0086250Y0096600D01*
X0086250Y0096600D01*
X0086250Y0092835D01*
X0086250Y0096600D01*
X0086250Y0096600D01*
X0086250Y0096179D02*
X0086250Y0096179D01*
X0086250Y0094981D02*
X0086250Y0094981D01*
X0086250Y0093782D02*
X0086250Y0093782D01*
X0088757Y0093782D02*
X0093186Y0093782D01*
X0092419Y0094981D02*
X0089655Y0094981D01*
X0090005Y0096179D02*
X0092091Y0096179D01*
X0092091Y0097378D02*
X0089934Y0097378D01*
X0089458Y0098576D02*
X0092567Y0098576D01*
X0093543Y0099775D02*
X0088276Y0099775D01*
X0083042Y0098576D02*
X0079507Y0098576D01*
X0080003Y0097378D02*
X0082566Y0097378D01*
X0082495Y0096179D02*
X0080015Y0096179D01*
X0079655Y0094981D02*
X0082845Y0094981D01*
X0083743Y0093782D02*
X0078757Y0093782D01*
X0065212Y0079400D02*
X0093168Y0079400D01*
X0092412Y0078202D02*
X0065212Y0078202D01*
X0065212Y0077003D02*
X0092091Y0077003D01*
X0092091Y0075805D02*
X0065212Y0075805D01*
X0065212Y0074606D02*
X0092574Y0074606D01*
X0093561Y0073408D02*
X0065045Y0073408D01*
X0073058Y0068733D02*
X0072485Y0067349D01*
X0072485Y0065851D01*
X0073058Y0064467D01*
X0074117Y0063408D01*
X0075501Y0062835D01*
X0076999Y0062835D01*
X0078383Y0063408D01*
X0079442Y0064467D01*
X0080015Y0065851D01*
X0080015Y0067349D01*
X0079442Y0068733D01*
X0078383Y0069792D01*
X0076999Y0070365D01*
X0075501Y0070365D01*
X0074117Y0069792D01*
X0073058Y0068733D01*
X0073009Y0068614D02*
X0049491Y0068614D01*
X0049988Y0067415D02*
X0072512Y0067415D01*
X0072485Y0066217D02*
X0050015Y0066217D01*
X0049670Y0065018D02*
X0072830Y0065018D01*
X0073705Y0063820D02*
X0048795Y0063820D01*
X0048334Y0069812D02*
X0074166Y0069812D01*
X0078334Y0069812D02*
X0084166Y0069812D01*
X0083009Y0068614D02*
X0079491Y0068614D01*
X0079988Y0067415D02*
X0082512Y0067415D01*
X0082485Y0066217D02*
X0080015Y0066217D01*
X0079670Y0065018D02*
X0082830Y0065018D01*
X0083705Y0063820D02*
X0078795Y0063820D01*
X0072956Y0054056D02*
X0064544Y0054056D01*
X0063607Y0053119D01*
X0063607Y0044707D01*
X0064544Y0043770D01*
X0072956Y0043770D01*
X0073893Y0044707D01*
X0073893Y0053119D01*
X0072956Y0054056D01*
X0073893Y0053033D02*
X0084150Y0053033D01*
X0084150Y0051834D02*
X0073893Y0051834D01*
X0073893Y0050636D02*
X0084150Y0050636D01*
X0084150Y0049437D02*
X0073893Y0049437D01*
X0073893Y0048239D02*
X0084150Y0048239D01*
X0084150Y0047040D02*
X0073893Y0047040D01*
X0073893Y0045842D02*
X0084150Y0045842D01*
X0084150Y0044643D02*
X0073830Y0044643D01*
X0063670Y0044643D02*
X0051754Y0044643D01*
X0051663Y0044553D02*
X0053110Y0046000D01*
X0053893Y0047890D01*
X0053893Y0049936D01*
X0053110Y0051826D01*
X0051663Y0053273D01*
X0049773Y0054056D01*
X0047727Y0054056D01*
X0045837Y0053273D01*
X0044390Y0051826D01*
X0043607Y0049936D01*
X0043607Y0047890D01*
X0044390Y0046000D01*
X0045837Y0044553D01*
X0047727Y0043770D01*
X0049773Y0043770D01*
X0051663Y0044553D01*
X0052953Y0045842D02*
X0063607Y0045842D01*
X0063607Y0047040D02*
X0053541Y0047040D01*
X0053893Y0048239D02*
X0063607Y0048239D01*
X0063607Y0049437D02*
X0053893Y0049437D01*
X0053603Y0050636D02*
X0063607Y0050636D01*
X0063607Y0051834D02*
X0053102Y0051834D01*
X0051904Y0053033D02*
X0063607Y0053033D01*
X0045746Y0044643D02*
X0031754Y0044643D01*
X0032953Y0045842D02*
X0044547Y0045842D01*
X0043959Y0047040D02*
X0033541Y0047040D01*
X0033893Y0048239D02*
X0043607Y0048239D01*
X0043607Y0049437D02*
X0033893Y0049437D01*
X0033603Y0050636D02*
X0043897Y0050636D01*
X0044398Y0051834D02*
X0033102Y0051834D01*
X0031904Y0053033D02*
X0045596Y0053033D01*
X0007600Y0013482D02*
X0234683Y0013482D01*
X0234683Y0012284D02*
X0007600Y0012284D01*
X0007600Y0011085D02*
X0234683Y0011085D01*
X0234683Y0009887D02*
X0007600Y0009887D01*
X0007600Y0008688D02*
X0234683Y0008688D01*
X0234683Y0014681D02*
X0137992Y0014681D01*
X0139746Y0015879D02*
X0234683Y0015879D01*
X0234683Y0017078D02*
X0214698Y0017078D01*
X0215896Y0018276D02*
X0234683Y0018276D01*
X0234683Y0019475D02*
X0217095Y0019475D01*
X0218293Y0020673D02*
X0234683Y0020673D01*
X0234683Y0021872D02*
X0219492Y0021872D01*
X0220690Y0023070D02*
X0234683Y0023070D01*
X0234683Y0024269D02*
X0221889Y0024269D01*
X0223087Y0025467D02*
X0234683Y0025467D01*
X0234683Y0026666D02*
X0224286Y0026666D01*
X0225484Y0027864D02*
X0234683Y0027864D01*
X0234683Y0029063D02*
X0225850Y0029063D01*
X0225850Y0030261D02*
X0234683Y0030261D01*
X0234683Y0031460D02*
X0225850Y0031460D01*
X0225850Y0032658D02*
X0234683Y0032658D01*
X0234683Y0033857D02*
X0225850Y0033857D01*
X0225850Y0035055D02*
X0234683Y0035055D01*
X0234683Y0036254D02*
X0225850Y0036254D01*
X0225850Y0037452D02*
X0234683Y0037452D01*
X0234683Y0038651D02*
X0225850Y0038651D01*
X0225850Y0039849D02*
X0234683Y0039849D01*
X0234683Y0041048D02*
X0225850Y0041048D01*
X0225850Y0042246D02*
X0234683Y0042246D01*
X0234683Y0043445D02*
X0225850Y0043445D01*
X0225850Y0044643D02*
X0234683Y0044643D01*
X0234683Y0045842D02*
X0225850Y0045842D01*
X0225850Y0047040D02*
X0234683Y0047040D01*
X0234683Y0048239D02*
X0225850Y0048239D01*
X0225850Y0049437D02*
X0234683Y0049437D01*
X0234683Y0050636D02*
X0225850Y0050636D01*
X0225850Y0051834D02*
X0234683Y0051834D01*
X0234683Y0053033D02*
X0225850Y0053033D01*
X0225850Y0054232D02*
X0234683Y0054232D01*
X0234683Y0055430D02*
X0225850Y0055430D01*
X0225850Y0056629D02*
X0234683Y0056629D01*
X0234683Y0057827D02*
X0225850Y0057827D01*
X0225850Y0059026D02*
X0234683Y0059026D01*
X0234683Y0060224D02*
X0225850Y0060224D01*
X0225850Y0061423D02*
X0234683Y0061423D01*
X0234683Y0062621D02*
X0225850Y0062621D01*
X0225850Y0063820D02*
X0234683Y0063820D01*
X0234683Y0065018D02*
X0225850Y0065018D01*
X0225850Y0066217D02*
X0234683Y0066217D01*
X0234683Y0067415D02*
X0225850Y0067415D01*
X0225850Y0068614D02*
X0234683Y0068614D01*
X0234683Y0069812D02*
X0225850Y0069812D01*
X0225850Y0071011D02*
X0234683Y0071011D01*
X0234683Y0072209D02*
X0225850Y0072209D01*
X0225850Y0073408D02*
X0234683Y0073408D01*
X0234683Y0074606D02*
X0225850Y0074606D01*
X0225850Y0075805D02*
X0234683Y0075805D01*
X0234683Y0077003D02*
X0225850Y0077003D01*
X0225850Y0078202D02*
X0234683Y0078202D01*
X0234683Y0079400D02*
X0225850Y0079400D01*
X0225850Y0080599D02*
X0234683Y0080599D01*
X0234683Y0081797D02*
X0225850Y0081797D01*
X0225850Y0082996D02*
X0234683Y0082996D01*
X0234683Y0084194D02*
X0225850Y0084194D01*
X0225850Y0085393D02*
X0234683Y0085393D01*
X0234683Y0086591D02*
X0225850Y0086591D01*
X0225850Y0087790D02*
X0234683Y0087790D01*
X0234683Y0088988D02*
X0225850Y0088988D01*
X0225850Y0090187D02*
X0234683Y0090187D01*
X0234683Y0091385D02*
X0225850Y0091385D01*
X0225850Y0092584D02*
X0234683Y0092584D01*
X0234683Y0093782D02*
X0225850Y0093782D01*
X0225850Y0094981D02*
X0234683Y0094981D01*
X0234683Y0096179D02*
X0225850Y0096179D01*
X0225850Y0097378D02*
X0234683Y0097378D01*
X0234683Y0098576D02*
X0225850Y0098576D01*
X0225850Y0099775D02*
X0234683Y0099775D01*
X0234683Y0100973D02*
X0225850Y0100973D01*
X0225850Y0102172D02*
X0234683Y0102172D01*
X0234683Y0103370D02*
X0225850Y0103370D01*
X0225850Y0104569D02*
X0234683Y0104569D01*
X0234683Y0105768D02*
X0225850Y0105768D01*
X0225850Y0106966D02*
X0234683Y0106966D01*
X0234683Y0108165D02*
X0225850Y0108165D01*
X0225850Y0109363D02*
X0234683Y0109363D01*
X0234683Y0110562D02*
X0225850Y0110562D01*
X0225850Y0111760D02*
X0234683Y0111760D01*
X0234683Y0112959D02*
X0225850Y0112959D01*
X0225850Y0114157D02*
X0234683Y0114157D01*
X0234683Y0115356D02*
X0225850Y0115356D01*
X0225850Y0116554D02*
X0234683Y0116554D01*
X0234683Y0117753D02*
X0225850Y0117753D01*
X0225850Y0118951D02*
X0234683Y0118951D01*
X0234683Y0120150D02*
X0225850Y0120150D01*
X0225850Y0121348D02*
X0234683Y0121348D01*
X0234683Y0122547D02*
X0225850Y0122547D01*
X0225850Y0123745D02*
X0234683Y0123745D01*
X0234683Y0124944D02*
X0225850Y0124944D01*
X0225850Y0126142D02*
X0234683Y0126142D01*
X0234683Y0127341D02*
X0225850Y0127341D01*
X0225850Y0128539D02*
X0234683Y0128539D01*
X0234683Y0129738D02*
X0225850Y0129738D01*
X0225850Y0130936D02*
X0234683Y0130936D01*
X0234683Y0132135D02*
X0225850Y0132135D01*
X0225850Y0133333D02*
X0234683Y0133333D01*
X0234683Y0134532D02*
X0225850Y0134532D01*
X0225850Y0135730D02*
X0234683Y0135730D01*
X0234683Y0136929D02*
X0225850Y0136929D01*
X0225850Y0138127D02*
X0234683Y0138127D01*
X0234683Y0139326D02*
X0225850Y0139326D01*
X0225850Y0140524D02*
X0234683Y0140524D01*
X0234683Y0141723D02*
X0225850Y0141723D01*
X0225850Y0142921D02*
X0234683Y0142921D01*
X0234683Y0144120D02*
X0225850Y0144120D01*
X0225501Y0145318D02*
X0234683Y0145318D01*
X0234683Y0146517D02*
X0224303Y0146517D01*
X0223104Y0147715D02*
X0234683Y0147715D01*
X0234683Y0148914D02*
X0221906Y0148914D01*
X0220707Y0150112D02*
X0234683Y0150112D01*
X0234683Y0151311D02*
X0219509Y0151311D01*
X0218310Y0152509D02*
X0234683Y0152509D01*
X0234683Y0153708D02*
X0217112Y0153708D01*
X0215913Y0154906D02*
X0234683Y0154906D01*
X0234683Y0156105D02*
X0214715Y0156105D01*
X0213516Y0157303D02*
X0234683Y0157303D01*
X0234683Y0158502D02*
X0212318Y0158502D01*
X0211119Y0159701D02*
X0234683Y0159701D01*
X0234683Y0160899D02*
X0209921Y0160899D01*
X0208722Y0162098D02*
X0234683Y0162098D01*
X0234683Y0163296D02*
X0207524Y0163296D01*
X0206325Y0164495D02*
X0209069Y0164495D01*
X0208607Y0165693D02*
X0205127Y0165693D01*
X0203928Y0166892D02*
X0208607Y0166892D01*
X0208607Y0168090D02*
X0202730Y0168090D01*
X0200333Y0170487D02*
X0208607Y0170487D01*
X0208607Y0171686D02*
X0198272Y0171686D01*
X0197303Y0172884D02*
X0208607Y0172884D01*
X0209391Y0174083D02*
X0195313Y0174083D01*
X0213267Y0174083D02*
X0214233Y0174083D01*
X0214233Y0172884D02*
X0213267Y0172884D01*
X0213267Y0171686D02*
X0214233Y0171686D01*
X0214233Y0168680D02*
X0218893Y0168680D01*
X0218893Y0165409D01*
X0218784Y0165002D01*
X0218574Y0164637D01*
X0218276Y0164339D01*
X0217911Y0164129D01*
X0217504Y0164020D01*
X0214233Y0164020D01*
X0214233Y0168680D01*
X0214233Y0168090D02*
X0213267Y0168090D01*
X0213267Y0166892D02*
X0214233Y0166892D01*
X0214233Y0165693D02*
X0213267Y0165693D01*
X0213267Y0164495D02*
X0214233Y0164495D01*
X0218431Y0164495D02*
X0234683Y0164495D01*
X0234683Y0165693D02*
X0218893Y0165693D01*
X0218893Y0166892D02*
X0234683Y0166892D01*
X0234683Y0168090D02*
X0218893Y0168090D01*
X0217165Y0147715D02*
X0153258Y0147715D01*
X0153031Y0147867D02*
X0152346Y0148151D01*
X0151618Y0148295D01*
X0151248Y0148295D01*
X0151248Y0144530D01*
X0155013Y0144530D01*
X0155013Y0144901D01*
X0154868Y0145628D01*
X0154584Y0146314D01*
X0154172Y0146930D01*
X0153648Y0147455D01*
X0153031Y0147867D01*
X0151248Y0147715D02*
X0151247Y0147715D01*
X0151247Y0146517D02*
X0151248Y0146517D01*
X0151247Y0145318D02*
X0151248Y0145318D01*
X0151248Y0144530D02*
X0151247Y0144530D01*
X0151248Y0144530D01*
X0151248Y0144530D01*
X0155013Y0144530D01*
X0155013Y0144159D01*
X0154868Y0143432D01*
X0154584Y0142746D01*
X0154172Y0142130D01*
X0153648Y0141605D01*
X0153031Y0141193D01*
X0152346Y0140909D01*
X0151618Y0140765D01*
X0151248Y0140765D01*
X0151248Y0144530D01*
X0151247Y0144120D02*
X0151248Y0144120D01*
X0151247Y0142921D02*
X0151248Y0142921D01*
X0151247Y0141723D02*
X0151248Y0141723D01*
X0153765Y0141723D02*
X0221650Y0141723D01*
X0221650Y0142921D02*
X0154657Y0142921D01*
X0155005Y0144120D02*
X0220760Y0144120D01*
X0219562Y0145318D02*
X0154930Y0145318D01*
X0154448Y0146517D02*
X0218363Y0146517D01*
X0221650Y0130936D02*
X0126450Y0130936D01*
X0126450Y0129738D02*
X0133589Y0129738D01*
X0132615Y0128539D02*
X0126450Y0128539D01*
X0126450Y0127341D02*
X0132150Y0127341D01*
X0132150Y0126142D02*
X0126450Y0126142D01*
X0126450Y0124944D02*
X0132498Y0124944D01*
X0133307Y0123745D02*
X0126450Y0123745D01*
X0126450Y0111760D02*
X0180620Y0111760D01*
X0184163Y0114157D02*
X0221650Y0114157D01*
X0221650Y0112959D02*
X0185361Y0112959D01*
X0185850Y0111760D02*
X0221650Y0111760D01*
X0221650Y0110562D02*
X0185850Y0110562D01*
X0186869Y0109363D02*
X0221650Y0109363D01*
X0221650Y0108165D02*
X0187604Y0108165D01*
X0187909Y0106966D02*
X0221650Y0106966D01*
X0221650Y0105768D02*
X0187907Y0105768D01*
X0187410Y0104569D02*
X0221650Y0104569D01*
X0221650Y0100973D02*
X0126450Y0100973D01*
X0126450Y0099775D02*
X0134100Y0099775D01*
X0134117Y0099792D02*
X0133058Y0098733D01*
X0132485Y0097349D01*
X0132485Y0095851D01*
X0133058Y0094467D01*
X0134117Y0093408D01*
X0135501Y0092835D01*
X0136999Y0092835D01*
X0138383Y0093408D01*
X0139442Y0094467D01*
X0140015Y0095851D01*
X0140015Y0097349D01*
X0139442Y0098733D01*
X0138383Y0099792D01*
X0136999Y0100365D01*
X0135501Y0100365D01*
X0134117Y0099792D01*
X0132993Y0098576D02*
X0126450Y0098576D01*
X0126450Y0097378D02*
X0132497Y0097378D01*
X0132485Y0096179D02*
X0126450Y0096179D01*
X0126450Y0094981D02*
X0132845Y0094981D01*
X0133743Y0093782D02*
X0126450Y0093782D01*
X0126450Y0092584D02*
X0221650Y0092584D01*
X0221650Y0093782D02*
X0206257Y0093782D01*
X0205883Y0093408D02*
X0206942Y0094467D01*
X0207515Y0095851D01*
X0207515Y0097349D01*
X0206942Y0098733D01*
X0205883Y0099792D01*
X0204499Y0100365D01*
X0203001Y0100365D01*
X0201617Y0099792D01*
X0200558Y0098733D01*
X0199985Y0097349D01*
X0199985Y0095851D01*
X0200558Y0094467D01*
X0201617Y0093408D01*
X0203001Y0092835D01*
X0204499Y0092835D01*
X0205883Y0093408D01*
X0207155Y0094981D02*
X0221650Y0094981D01*
X0221650Y0096179D02*
X0207515Y0096179D01*
X0207503Y0097378D02*
X0221650Y0097378D01*
X0221650Y0098576D02*
X0207007Y0098576D01*
X0205900Y0099775D02*
X0221650Y0099775D01*
X0221650Y0091385D02*
X0126450Y0091385D01*
X0126450Y0090187D02*
X0129041Y0090187D01*
X0128894Y0090126D02*
X0127724Y0088956D01*
X0127091Y0087427D01*
X0127091Y0085773D01*
X0127724Y0084244D01*
X0128894Y0083074D01*
X0130423Y0082441D01*
X0132077Y0082441D01*
X0133606Y0083074D01*
X0134776Y0084244D01*
X0135409Y0085773D01*
X0135409Y0087427D01*
X0134776Y0088956D01*
X0133606Y0090126D01*
X0132077Y0090759D01*
X0130423Y0090759D01*
X0128894Y0090126D01*
X0127757Y0088988D02*
X0126450Y0088988D01*
X0126450Y0087790D02*
X0127241Y0087790D01*
X0127091Y0086591D02*
X0126450Y0086591D01*
X0126450Y0085393D02*
X0127248Y0085393D01*
X0127774Y0084194D02*
X0126450Y0084194D01*
X0126450Y0082996D02*
X0129083Y0082996D01*
X0126450Y0081797D02*
X0142482Y0081797D01*
X0142482Y0080599D02*
X0126450Y0080599D01*
X0126450Y0079400D02*
X0142482Y0079400D01*
X0142482Y0078777D02*
X0143419Y0077840D01*
X0149076Y0077840D01*
X0150013Y0078777D01*
X0150013Y0084433D01*
X0149076Y0085370D01*
X0143419Y0085370D01*
X0142482Y0084433D01*
X0142482Y0078777D01*
X0143057Y0078202D02*
X0126450Y0078202D01*
X0126450Y0077003D02*
X0221650Y0077003D01*
X0221650Y0075805D02*
X0126450Y0075805D01*
X0126450Y0074606D02*
X0221650Y0074606D01*
X0221650Y0073408D02*
X0132233Y0073408D01*
X0132116Y0073456D02*
X0133717Y0072793D01*
X0134943Y0071567D01*
X0135606Y0069966D01*
X0135606Y0068234D01*
X0134943Y0066633D01*
X0133717Y0065407D01*
X0132116Y0064744D01*
X0130384Y0064744D01*
X0128783Y0065407D01*
X0127557Y0066633D01*
X0126894Y0068234D01*
X0126894Y0069966D01*
X0127557Y0071567D01*
X0128783Y0072793D01*
X0130384Y0073456D01*
X0132116Y0073456D01*
X0130267Y0073408D02*
X0126450Y0073408D01*
X0126450Y0072209D02*
X0128199Y0072209D01*
X0127327Y0071011D02*
X0126450Y0071011D01*
X0126450Y0069812D02*
X0126894Y0069812D01*
X0126894Y0068614D02*
X0126450Y0068614D01*
X0126450Y0067415D02*
X0127233Y0067415D01*
X0127973Y0066217D02*
X0126450Y0066217D01*
X0126450Y0065018D02*
X0129722Y0065018D01*
X0126450Y0063820D02*
X0221650Y0063820D01*
X0221650Y0065018D02*
X0132778Y0065018D01*
X0134527Y0066217D02*
X0221650Y0066217D01*
X0221650Y0067415D02*
X0135267Y0067415D01*
X0135606Y0068614D02*
X0221650Y0068614D01*
X0221650Y0069812D02*
X0135606Y0069812D01*
X0135173Y0071011D02*
X0221650Y0071011D01*
X0221650Y0072209D02*
X0134301Y0072209D01*
X0126450Y0062621D02*
X0221650Y0062621D01*
X0221650Y0061423D02*
X0126450Y0061423D01*
X0126450Y0060224D02*
X0221650Y0060224D01*
X0221650Y0059026D02*
X0126450Y0059026D01*
X0126450Y0057827D02*
X0221650Y0057827D01*
X0221650Y0056629D02*
X0126450Y0056629D01*
X0126229Y0055430D02*
X0221650Y0055430D01*
X0221650Y0054232D02*
X0125407Y0054232D01*
X0124208Y0053033D02*
X0170596Y0053033D01*
X0170837Y0053273D02*
X0169390Y0051826D01*
X0168607Y0049936D01*
X0168607Y0047890D01*
X0169390Y0046000D01*
X0170837Y0044553D01*
X0172727Y0043770D01*
X0174773Y0043770D01*
X0176663Y0044553D01*
X0178110Y0046000D01*
X0178893Y0047890D01*
X0178893Y0049936D01*
X0178110Y0051826D01*
X0176663Y0053273D01*
X0174773Y0054056D01*
X0172727Y0054056D01*
X0170837Y0053273D01*
X0169398Y0051834D02*
X0123010Y0051834D01*
X0121811Y0050636D02*
X0168897Y0050636D01*
X0168607Y0049437D02*
X0120613Y0049437D01*
X0119414Y0048239D02*
X0168607Y0048239D01*
X0168959Y0047040D02*
X0119229Y0047040D01*
X0119244Y0045842D02*
X0169547Y0045842D01*
X0170746Y0044643D02*
X0119258Y0044643D01*
X0119273Y0043445D02*
X0221650Y0043445D01*
X0221650Y0044643D02*
X0218830Y0044643D01*
X0218893Y0044707D02*
X0218893Y0053119D01*
X0217956Y0054056D01*
X0209544Y0054056D01*
X0208607Y0053119D01*
X0208607Y0044707D01*
X0209544Y0043770D01*
X0217956Y0043770D01*
X0218893Y0044707D01*
X0218893Y0045842D02*
X0221650Y0045842D01*
X0221650Y0047040D02*
X0218893Y0047040D01*
X0218893Y0048239D02*
X0221650Y0048239D01*
X0221650Y0049437D02*
X0218893Y0049437D01*
X0218893Y0050636D02*
X0221650Y0050636D01*
X0221650Y0051834D02*
X0218893Y0051834D01*
X0218893Y0053033D02*
X0221650Y0053033D01*
X0221650Y0042246D02*
X0119288Y0042246D01*
X0119303Y0041048D02*
X0221650Y0041048D01*
X0221650Y0039849D02*
X0119318Y0039849D01*
X0119332Y0038651D02*
X0221650Y0038651D01*
X0221650Y0037452D02*
X0119347Y0037452D01*
X0119362Y0036254D02*
X0221650Y0036254D01*
X0221650Y0035055D02*
X0119377Y0035055D01*
X0119392Y0033857D02*
X0221650Y0033857D01*
X0221650Y0032658D02*
X0139409Y0032658D01*
X0140413Y0031460D02*
X0221650Y0031460D01*
X0221650Y0030261D02*
X0140910Y0030261D01*
X0141000Y0029063D02*
X0220743Y0029063D01*
X0219544Y0027864D02*
X0140879Y0027864D01*
X0140383Y0026666D02*
X0218346Y0026666D01*
X0217147Y0025467D02*
X0139334Y0025467D01*
X0138997Y0023070D02*
X0214750Y0023070D01*
X0213552Y0021872D02*
X0140195Y0021872D01*
X0131590Y0030261D02*
X0130867Y0030261D01*
X0130378Y0031460D02*
X0132087Y0031460D01*
X0133091Y0032658D02*
X0129409Y0032658D01*
X0126536Y0032658D02*
X0125964Y0032658D01*
X0125964Y0031460D02*
X0126536Y0031460D01*
X0126536Y0030261D02*
X0125964Y0030261D01*
X0125964Y0027864D02*
X0126536Y0027864D01*
X0126536Y0026666D02*
X0125964Y0026666D01*
X0125964Y0025467D02*
X0126536Y0025467D01*
X0123503Y0023070D02*
X0118997Y0023070D01*
X0120195Y0021872D02*
X0122305Y0021872D01*
X0121761Y0020673D02*
X0120739Y0020673D01*
X0121000Y0019475D02*
X0121500Y0019475D01*
X0121500Y0018276D02*
X0121000Y0018276D01*
X0120553Y0017078D02*
X0121947Y0017078D01*
X0122754Y0015879D02*
X0119746Y0015879D01*
X0113503Y0023070D02*
X0108997Y0023070D01*
X0110195Y0021872D02*
X0112305Y0021872D01*
X0111761Y0020673D02*
X0110739Y0020673D01*
X0111000Y0019475D02*
X0111500Y0019475D01*
X0111500Y0018276D02*
X0111000Y0018276D01*
X0110553Y0017078D02*
X0111947Y0017078D01*
X0112754Y0015879D02*
X0109746Y0015879D01*
X0103503Y0023070D02*
X0100250Y0023070D01*
X0101448Y0021872D02*
X0102305Y0021872D01*
X0103560Y0025073D02*
X0105305Y0024350D01*
X0107195Y0024350D01*
X0108940Y0025073D01*
X0110277Y0026410D01*
X0111000Y0028155D01*
X0111000Y0030045D01*
X0110277Y0031790D01*
X0108940Y0033127D01*
X0107195Y0033850D01*
X0105305Y0033850D01*
X0103560Y0033127D01*
X0102223Y0031790D01*
X0101500Y0030045D01*
X0101500Y0028155D01*
X0102223Y0026410D01*
X0103560Y0025073D01*
X0103166Y0025467D02*
X0097853Y0025467D01*
X0099051Y0024269D02*
X0215949Y0024269D01*
X0208670Y0044643D02*
X0196754Y0044643D01*
X0196663Y0044553D02*
X0198110Y0046000D01*
X0198893Y0047890D01*
X0198893Y0049936D01*
X0198110Y0051826D01*
X0196663Y0053273D01*
X0194773Y0054056D01*
X0192727Y0054056D01*
X0190837Y0053273D01*
X0189390Y0051826D01*
X0188607Y0049936D01*
X0188607Y0047890D01*
X0189390Y0046000D01*
X0190837Y0044553D01*
X0192727Y0043770D01*
X0194773Y0043770D01*
X0196663Y0044553D01*
X0197953Y0045842D02*
X0208607Y0045842D01*
X0208607Y0047040D02*
X0198541Y0047040D01*
X0198893Y0048239D02*
X0208607Y0048239D01*
X0208607Y0049437D02*
X0198893Y0049437D01*
X0198603Y0050636D02*
X0208607Y0050636D01*
X0208607Y0051834D02*
X0198102Y0051834D01*
X0196904Y0053033D02*
X0208607Y0053033D01*
X0190596Y0053033D02*
X0176904Y0053033D01*
X0178102Y0051834D02*
X0189398Y0051834D01*
X0188897Y0050636D02*
X0178603Y0050636D01*
X0178893Y0049437D02*
X0188607Y0049437D01*
X0188607Y0048239D02*
X0178893Y0048239D01*
X0178541Y0047040D02*
X0188959Y0047040D01*
X0189547Y0045842D02*
X0177953Y0045842D01*
X0176754Y0044643D02*
X0190746Y0044643D01*
X0221650Y0078202D02*
X0155737Y0078202D01*
X0155891Y0078266D02*
X0156508Y0078678D01*
X0157032Y0079202D01*
X0157444Y0079819D01*
X0157728Y0080504D01*
X0157873Y0081232D01*
X0157873Y0081602D01*
X0154108Y0081602D01*
X0154108Y0081603D01*
X0157873Y0081603D01*
X0157873Y0081973D01*
X0157728Y0082701D01*
X0157444Y0083386D01*
X0157032Y0084003D01*
X0156508Y0084527D01*
X0155891Y0084939D01*
X0155206Y0085223D01*
X0154478Y0085368D01*
X0154108Y0085368D01*
X0154108Y0081603D01*
X0154107Y0081603D01*
X0154107Y0085368D01*
X0153737Y0085368D01*
X0153009Y0085223D01*
X0152324Y0084939D01*
X0151707Y0084527D01*
X0151183Y0084003D01*
X0150771Y0083386D01*
X0150487Y0082701D01*
X0150342Y0081973D01*
X0150342Y0081603D01*
X0154107Y0081603D01*
X0154107Y0081602D01*
X0154108Y0081602D01*
X0154108Y0077837D01*
X0154478Y0077837D01*
X0155206Y0077982D01*
X0155891Y0078266D01*
X0157165Y0079400D02*
X0221650Y0079400D01*
X0221650Y0080599D02*
X0157747Y0080599D01*
X0157873Y0081797D02*
X0221650Y0081797D01*
X0221650Y0082996D02*
X0157606Y0082996D01*
X0156841Y0084194D02*
X0221650Y0084194D01*
X0221650Y0085393D02*
X0135252Y0085393D01*
X0135409Y0086591D02*
X0221650Y0086591D01*
X0221650Y0087790D02*
X0135259Y0087790D01*
X0134743Y0088988D02*
X0221650Y0088988D01*
X0221650Y0090187D02*
X0133459Y0090187D01*
X0134726Y0084194D02*
X0142482Y0084194D01*
X0142482Y0082996D02*
X0133417Y0082996D01*
X0138757Y0093782D02*
X0143743Y0093782D01*
X0144117Y0093408D02*
X0145501Y0092835D01*
X0146999Y0092835D01*
X0148383Y0093408D01*
X0149442Y0094467D01*
X0150015Y0095851D01*
X0150015Y0097349D01*
X0149442Y0098733D01*
X0148383Y0099792D01*
X0146999Y0100365D01*
X0145501Y0100365D01*
X0144117Y0099792D01*
X0143058Y0098733D01*
X0142485Y0097349D01*
X0142485Y0095851D01*
X0143058Y0094467D01*
X0144117Y0093408D01*
X0142845Y0094981D02*
X0139655Y0094981D01*
X0140015Y0096179D02*
X0142485Y0096179D01*
X0142497Y0097378D02*
X0140003Y0097378D01*
X0139507Y0098576D02*
X0142993Y0098576D01*
X0144100Y0099775D02*
X0138400Y0099775D01*
X0148400Y0099775D02*
X0154100Y0099775D01*
X0154117Y0099792D02*
X0153058Y0098733D01*
X0152485Y0097349D01*
X0152485Y0095851D01*
X0153058Y0094467D01*
X0154117Y0093408D01*
X0155501Y0092835D01*
X0156999Y0092835D01*
X0158383Y0093408D01*
X0159442Y0094467D01*
X0160015Y0095851D01*
X0160015Y0097349D01*
X0159442Y0098733D01*
X0158383Y0099792D01*
X0156999Y0100365D01*
X0155501Y0100365D01*
X0154117Y0099792D01*
X0152993Y0098576D02*
X0149507Y0098576D01*
X0150003Y0097378D02*
X0152497Y0097378D01*
X0152485Y0096179D02*
X0150015Y0096179D01*
X0149655Y0094981D02*
X0152845Y0094981D01*
X0153743Y0093782D02*
X0148757Y0093782D01*
X0150013Y0084194D02*
X0151374Y0084194D01*
X0150609Y0082996D02*
X0150013Y0082996D01*
X0150013Y0081797D02*
X0150342Y0081797D01*
X0150342Y0081602D02*
X0150342Y0081232D01*
X0150487Y0080504D01*
X0150771Y0079819D01*
X0151183Y0079202D01*
X0151707Y0078678D01*
X0152324Y0078266D01*
X0153009Y0077982D01*
X0153737Y0077837D01*
X0154107Y0077837D01*
X0154107Y0081602D01*
X0150342Y0081602D01*
X0150468Y0080599D02*
X0150013Y0080599D01*
X0150013Y0079400D02*
X0151050Y0079400D01*
X0152478Y0078202D02*
X0149438Y0078202D01*
X0154107Y0078202D02*
X0154108Y0078202D01*
X0154107Y0079400D02*
X0154108Y0079400D01*
X0154107Y0080599D02*
X0154108Y0080599D01*
X0154107Y0081797D02*
X0154108Y0081797D01*
X0154107Y0082996D02*
X0154108Y0082996D01*
X0154107Y0084194D02*
X0154108Y0084194D01*
X0158757Y0093782D02*
X0171243Y0093782D01*
X0171617Y0093408D02*
X0173001Y0092835D01*
X0174499Y0092835D01*
X0175883Y0093408D01*
X0176942Y0094467D01*
X0177515Y0095851D01*
X0177515Y0097349D01*
X0176942Y0098733D01*
X0175883Y0099792D01*
X0174499Y0100365D01*
X0173001Y0100365D01*
X0171617Y0099792D01*
X0170558Y0098733D01*
X0169985Y0097349D01*
X0169985Y0095851D01*
X0170558Y0094467D01*
X0171617Y0093408D01*
X0170345Y0094981D02*
X0159655Y0094981D01*
X0160015Y0096179D02*
X0169985Y0096179D01*
X0169997Y0097378D02*
X0160003Y0097378D01*
X0159507Y0098576D02*
X0170493Y0098576D01*
X0171600Y0099775D02*
X0158400Y0099775D01*
X0156250Y0122835D02*
X0156250Y0126600D01*
X0156250Y0126600D01*
X0156250Y0126600D01*
X0152485Y0126600D01*
X0156250Y0126600D01*
X0156250Y0126600D01*
X0156250Y0122835D01*
X0156250Y0123745D02*
X0156250Y0123745D01*
X0156250Y0124944D02*
X0156250Y0124944D01*
X0156250Y0126142D02*
X0156250Y0126142D01*
X0156250Y0127341D02*
X0156250Y0127341D01*
X0156250Y0128539D02*
X0156250Y0128539D01*
X0156250Y0129738D02*
X0156250Y0129738D01*
X0154169Y0129738D02*
X0148437Y0129738D01*
X0148383Y0129792D02*
X0146999Y0130365D01*
X0145501Y0130365D01*
X0144117Y0129792D01*
X0143058Y0128733D01*
X0142485Y0127349D01*
X0142485Y0125851D01*
X0143058Y0124467D01*
X0144117Y0123408D01*
X0145501Y0122835D01*
X0146999Y0122835D01*
X0148383Y0123408D01*
X0149442Y0124467D01*
X0150015Y0125851D01*
X0150015Y0127349D01*
X0149442Y0128733D01*
X0148383Y0129792D01*
X0149522Y0128539D02*
X0153017Y0128539D01*
X0152558Y0127341D02*
X0150015Y0127341D01*
X0150015Y0126142D02*
X0152502Y0126142D01*
X0152860Y0124944D02*
X0149640Y0124944D01*
X0148720Y0123745D02*
X0153780Y0123745D01*
X0147988Y0133333D02*
X0138782Y0133333D01*
X0139831Y0134532D02*
X0147480Y0134532D01*
X0147480Y0135730D02*
X0140328Y0135730D01*
X0140350Y0136929D02*
X0147480Y0136929D01*
X0147480Y0138127D02*
X0140055Y0138127D01*
X0139322Y0139326D02*
X0147480Y0139326D01*
X0144063Y0129738D02*
X0138911Y0129738D01*
X0139885Y0128539D02*
X0142978Y0128539D01*
X0142485Y0127341D02*
X0140350Y0127341D01*
X0140350Y0126142D02*
X0142485Y0126142D01*
X0142860Y0124944D02*
X0140002Y0124944D01*
X0139193Y0123745D02*
X0143780Y0123745D01*
X0129200Y0153708D02*
X0170482Y0153708D01*
X0169737Y0154906D02*
X0129200Y0154906D01*
X0103178Y0139326D02*
X0099810Y0139326D01*
X0098659Y0138127D02*
X0102445Y0138127D01*
X0102498Y0124944D02*
X0098788Y0124944D01*
X0099863Y0123745D02*
X0103307Y0123745D01*
X0093712Y0124944D02*
X0088510Y0124944D01*
X0089650Y0123745D02*
X0092637Y0123745D01*
X0092140Y0122547D02*
X0090147Y0122547D01*
X0090212Y0121348D02*
X0092091Y0121348D01*
X0092349Y0120150D02*
X0089938Y0120150D01*
X0089205Y0118951D02*
X0093017Y0118951D01*
X0099369Y0109363D02*
X0103215Y0109363D01*
X0102447Y0108165D02*
X0100104Y0108165D01*
X0100409Y0106966D02*
X0102157Y0106966D01*
X0102150Y0106400D02*
X0102150Y0106277D01*
X0102251Y0105640D01*
X0102450Y0105026D01*
X0102743Y0104451D01*
X0103123Y0103929D01*
X0103579Y0103473D01*
X0104101Y0103093D01*
X0104676Y0102800D01*
X0105290Y0102601D01*
X0105927Y0102500D01*
X0106050Y0102500D01*
X0106050Y0106400D01*
X0102150Y0106400D01*
X0102231Y0105768D02*
X0100407Y0105768D01*
X0099910Y0104569D02*
X0102683Y0104569D01*
X0103720Y0103370D02*
X0098902Y0103370D01*
X0098957Y0099775D02*
X0104100Y0099775D01*
X0102993Y0098576D02*
X0099933Y0098576D01*
X0100409Y0097378D02*
X0102497Y0097378D01*
X0102485Y0096179D02*
X0100409Y0096179D01*
X0100081Y0094981D02*
X0102845Y0094981D01*
X0103743Y0093782D02*
X0099314Y0093782D01*
X0106050Y0103370D02*
X0106450Y0103370D01*
X0106450Y0104569D02*
X0106050Y0104569D01*
X0106050Y0105768D02*
X0106450Y0105768D01*
X0106450Y0106966D02*
X0106050Y0106966D01*
X0106050Y0108165D02*
X0106450Y0108165D01*
X0106450Y0109363D02*
X0106050Y0109363D01*
X0099332Y0079400D02*
X0120050Y0079400D01*
X0120050Y0078202D02*
X0100088Y0078202D01*
X0100409Y0077003D02*
X0120050Y0077003D01*
X0120050Y0075805D02*
X0100409Y0075805D01*
X0099926Y0074606D02*
X0120050Y0074606D01*
X0120050Y0073408D02*
X0112233Y0073408D01*
X0110267Y0073408D02*
X0098939Y0073408D01*
X0106894Y0069812D02*
X0088334Y0069812D01*
X0089491Y0068614D02*
X0106894Y0068614D01*
X0107233Y0067415D02*
X0089988Y0067415D01*
X0090015Y0066217D02*
X0107973Y0066217D01*
X0109722Y0065018D02*
X0089670Y0065018D01*
X0088795Y0063820D02*
X0120050Y0063820D01*
X0120050Y0065018D02*
X0112778Y0065018D01*
X0114527Y0066217D02*
X0120050Y0066217D01*
X0120050Y0067415D02*
X0115267Y0067415D01*
X0115606Y0068614D02*
X0120050Y0068614D01*
X0120050Y0069812D02*
X0115606Y0069812D01*
X0115173Y0071011D02*
X0120050Y0071011D01*
X0120050Y0072209D02*
X0114301Y0072209D01*
X0120050Y0062621D02*
X0088350Y0062621D01*
X0088350Y0061423D02*
X0120050Y0061423D01*
X0120050Y0060224D02*
X0088350Y0060224D01*
X0088350Y0059026D02*
X0120050Y0059026D01*
X0119952Y0057827D02*
X0088350Y0057827D01*
X0088350Y0056629D02*
X0118753Y0056629D01*
X0117555Y0055430D02*
X0088350Y0055430D01*
X0088350Y0054232D02*
X0116356Y0054232D01*
X0115158Y0053033D02*
X0088350Y0053033D01*
X0088350Y0051834D02*
X0113953Y0051834D01*
X0113068Y0050636D02*
X0088350Y0050636D01*
X0088350Y0049437D02*
X0112799Y0049437D01*
X0112813Y0048239D02*
X0088350Y0048239D01*
X0088350Y0047040D02*
X0112828Y0047040D01*
X0112843Y0045842D02*
X0088350Y0045842D01*
X0088350Y0044643D02*
X0112858Y0044643D01*
X0112873Y0043445D02*
X0088350Y0043445D01*
X0088350Y0042246D02*
X0112887Y0042246D01*
X0112902Y0041048D02*
X0088350Y0041048D01*
X0088350Y0039849D02*
X0112917Y0039849D01*
X0112932Y0038651D02*
X0088350Y0038651D01*
X0088350Y0037452D02*
X0112947Y0037452D01*
X0112961Y0036254D02*
X0088350Y0036254D01*
X0088350Y0035055D02*
X0112976Y0035055D01*
X0112991Y0033857D02*
X0089463Y0033857D01*
X0090662Y0032658D02*
X0103091Y0032658D01*
X0102087Y0031460D02*
X0091860Y0031460D01*
X0093059Y0030261D02*
X0101590Y0030261D01*
X0101500Y0029063D02*
X0094257Y0029063D01*
X0095456Y0027864D02*
X0101621Y0027864D01*
X0102117Y0026666D02*
X0096654Y0026666D01*
X0109334Y0025467D02*
X0113166Y0025467D01*
X0112117Y0026666D02*
X0110383Y0026666D01*
X0110879Y0027864D02*
X0111621Y0027864D01*
X0111500Y0029063D02*
X0111000Y0029063D01*
X0110910Y0030261D02*
X0111590Y0030261D01*
X0112087Y0031460D02*
X0110413Y0031460D01*
X0109409Y0032658D02*
X0113006Y0032658D01*
X0119409Y0032658D02*
X0123091Y0032658D01*
X0122122Y0031460D02*
X0120413Y0031460D01*
X0120910Y0030261D02*
X0121633Y0030261D01*
X0176257Y0093782D02*
X0191243Y0093782D01*
X0191617Y0093408D02*
X0193001Y0092835D01*
X0194499Y0092835D01*
X0195883Y0093408D01*
X0196942Y0094467D01*
X0197515Y0095851D01*
X0197515Y0097349D01*
X0196942Y0098733D01*
X0195883Y0099792D01*
X0194499Y0100365D01*
X0193001Y0100365D01*
X0191617Y0099792D01*
X0190558Y0098733D01*
X0189985Y0097349D01*
X0189985Y0095851D01*
X0190558Y0094467D01*
X0191617Y0093408D01*
X0190345Y0094981D02*
X0177155Y0094981D01*
X0177515Y0096179D02*
X0189985Y0096179D01*
X0189997Y0097378D02*
X0177503Y0097378D01*
X0177007Y0098576D02*
X0190493Y0098576D01*
X0191600Y0099775D02*
X0175900Y0099775D01*
X0182964Y0115356D02*
X0221650Y0115356D01*
X0221650Y0116554D02*
X0181766Y0116554D01*
X0180567Y0117753D02*
X0221650Y0117753D01*
X0221650Y0118951D02*
X0179369Y0118951D01*
X0178170Y0120150D02*
X0221650Y0120150D01*
X0221650Y0121348D02*
X0176972Y0121348D01*
X0175850Y0122547D02*
X0182667Y0122547D01*
X0182923Y0122441D02*
X0184577Y0122441D01*
X0186106Y0123074D01*
X0187276Y0124244D01*
X0187909Y0125773D01*
X0187909Y0127427D01*
X0187276Y0128956D01*
X0186106Y0130126D01*
X0184577Y0130759D01*
X0182923Y0130759D01*
X0181394Y0130126D01*
X0180224Y0128956D01*
X0179591Y0127427D01*
X0179591Y0125773D01*
X0180224Y0124244D01*
X0181394Y0123074D01*
X0182923Y0122441D01*
X0184833Y0122547D02*
X0221650Y0122547D01*
X0221650Y0123745D02*
X0206220Y0123745D01*
X0205883Y0123408D02*
X0206942Y0124467D01*
X0207515Y0125851D01*
X0207515Y0127349D01*
X0206942Y0128733D01*
X0205883Y0129792D01*
X0204499Y0130365D01*
X0203001Y0130365D01*
X0201617Y0129792D01*
X0200558Y0128733D01*
X0199985Y0127349D01*
X0199985Y0125851D01*
X0200558Y0124467D01*
X0201617Y0123408D01*
X0203001Y0122835D01*
X0204499Y0122835D01*
X0205883Y0123408D01*
X0207140Y0124944D02*
X0221650Y0124944D01*
X0221650Y0126142D02*
X0207515Y0126142D01*
X0207515Y0127341D02*
X0221650Y0127341D01*
X0221650Y0128539D02*
X0207022Y0128539D01*
X0205937Y0129738D02*
X0221650Y0129738D01*
X0201563Y0129738D02*
X0195937Y0129738D01*
X0195883Y0129792D02*
X0194499Y0130365D01*
X0193001Y0130365D01*
X0191617Y0129792D01*
X0190558Y0128733D01*
X0189985Y0127349D01*
X0189985Y0125851D01*
X0190558Y0124467D01*
X0191617Y0123408D01*
X0193001Y0122835D01*
X0194499Y0122835D01*
X0195883Y0123408D01*
X0196942Y0124467D01*
X0197515Y0125851D01*
X0197515Y0127349D01*
X0196942Y0128733D01*
X0195883Y0129792D01*
X0197022Y0128539D02*
X0200478Y0128539D01*
X0199985Y0127341D02*
X0197515Y0127341D01*
X0197515Y0126142D02*
X0199985Y0126142D01*
X0200360Y0124944D02*
X0197140Y0124944D01*
X0196220Y0123745D02*
X0201280Y0123745D01*
X0191280Y0123745D02*
X0186777Y0123745D01*
X0187566Y0124944D02*
X0190360Y0124944D01*
X0189985Y0126142D02*
X0187909Y0126142D01*
X0187909Y0127341D02*
X0189985Y0127341D01*
X0190478Y0128539D02*
X0187448Y0128539D01*
X0186494Y0129738D02*
X0191563Y0129738D01*
X0191135Y0133333D02*
X0176643Y0133333D01*
X0177608Y0134532D02*
X0190105Y0134532D01*
X0189609Y0135730D02*
X0178105Y0135730D01*
X0178106Y0136929D02*
X0189591Y0136929D01*
X0189881Y0138127D02*
X0177832Y0138127D01*
X0177184Y0139326D02*
X0190594Y0139326D01*
X0192356Y0140524D02*
X0175658Y0140524D01*
X0175937Y0129738D02*
X0181006Y0129738D01*
X0180052Y0128539D02*
X0177022Y0128539D01*
X0177515Y0127341D02*
X0179591Y0127341D01*
X0179591Y0126142D02*
X0177515Y0126142D01*
X0177140Y0124944D02*
X0179934Y0124944D01*
X0180723Y0123745D02*
X0176220Y0123745D01*
X0195900Y0099775D02*
X0201600Y0099775D01*
X0200493Y0098576D02*
X0197007Y0098576D01*
X0197503Y0097378D02*
X0199997Y0097378D01*
X0199985Y0096179D02*
X0197515Y0096179D01*
X0197155Y0094981D02*
X0200345Y0094981D01*
X0201243Y0093782D02*
X0196257Y0093782D01*
X0112916Y0234008D02*
X0100786Y0234008D01*
X0102664Y0235207D02*
X0113277Y0235207D01*
X0113845Y0236405D02*
X0103685Y0236405D01*
X0104182Y0237604D02*
X0114665Y0237604D01*
X0115872Y0238802D02*
X0104433Y0238802D01*
X0104433Y0240001D02*
X0117845Y0240001D01*
X0104139Y0241199D02*
X0138361Y0241199D01*
X0138857Y0242398D02*
X0103643Y0242398D01*
X0102561Y0243596D02*
X0139939Y0243596D01*
X0141963Y0244795D02*
X0100537Y0244795D01*
X0143201Y0259177D02*
X0144401Y0259177D01*
X0144401Y0260375D02*
X0143201Y0260375D01*
X0143201Y0261574D02*
X0144401Y0261574D01*
X0144401Y0262772D02*
X0143201Y0262772D01*
X0146278Y0259177D02*
X0205204Y0259177D01*
X0203564Y0260375D02*
X0147936Y0260375D01*
X0148822Y0261574D02*
X0202642Y0261574D01*
X0202146Y0262772D02*
X0149318Y0262772D01*
D26*
X0153000Y0279850D03*
X0125500Y0279850D03*
X0125500Y0244100D03*
X0153000Y0241600D03*
X0153000Y0201600D03*
X0125500Y0201600D03*
X0121000Y0164100D03*
X0131250Y0164100D03*
X0128750Y0121600D03*
X0114000Y0121600D03*
X0094000Y0129100D03*
X0071500Y0131600D03*
X0064000Y0121600D03*
X0056500Y0106600D03*
X0071250Y0075850D03*
X0081250Y0060850D03*
X0096250Y0058350D03*
X0110750Y0043350D03*
X0121250Y0043350D03*
X0121250Y0010850D03*
X0091250Y0035850D03*
X0081250Y0035850D03*
X0058750Y0043350D03*
X0058750Y0053350D03*
X0041250Y0033350D03*
X0041250Y0010850D03*
X0009500Y0010850D03*
X0009500Y0041600D03*
X0009500Y0081600D03*
X0017750Y0081600D03*
X0017750Y0121600D03*
X0009500Y0121600D03*
X0009500Y0161600D03*
X0017750Y0161600D03*
X0039000Y0164100D03*
X0039000Y0174100D03*
X0048000Y0201600D03*
X0019500Y0201600D03*
X0009500Y0201600D03*
X0009500Y0241600D03*
X0048000Y0241600D03*
X0048000Y0279850D03*
X0090500Y0279850D03*
X0090500Y0241600D03*
X0090500Y0201600D03*
X0061500Y0151600D03*
X0113750Y0078350D03*
X0138750Y0078350D03*
X0161250Y0055850D03*
X0161250Y0035850D03*
X0161250Y0023350D03*
X0161250Y0010850D03*
X0201250Y0010850D03*
X0201250Y0023350D03*
X0201250Y0035850D03*
X0203750Y0053350D03*
X0218000Y0041600D03*
X0233000Y0041600D03*
X0233000Y0010850D03*
X0233000Y0081600D03*
X0218000Y0081600D03*
X0218000Y0121600D03*
X0233000Y0121600D03*
X0233000Y0161600D03*
X0200500Y0161600D03*
X0190500Y0201600D03*
X0190500Y0241600D03*
X0190500Y0279850D03*
X0233000Y0241600D03*
X0233000Y0201600D03*
X0183750Y0119100D03*
X0173750Y0114100D03*
X0166250Y0102350D03*
X0081250Y0010850D03*
D27*
X0101250Y0019100D02*
X0086250Y0034100D01*
X0086250Y0066600D01*
X0101250Y0019100D02*
X0106250Y0019100D01*
X0136250Y0019100D02*
X0213750Y0019100D01*
X0223750Y0029100D01*
X0223750Y0144100D01*
X0198687Y0169163D01*
X0193750Y0169163D01*
X0173750Y0126600D02*
X0173750Y0121600D01*
X0183750Y0111600D01*
X0183750Y0106600D01*
M02*
