G75*
%MOIN*%
%OFA0B0*%
%FSLAX25Y25*%
%IPPOS*%
%LPD*%
%AMOC8*
5,1,8,0,0,1.08239X$1,22.5*
%
%ADD10C,0.00500*%
%ADD11C,0.00600*%
%ADD12C,0.00800*%
%ADD13C,0.00000*%
D10*
X0037445Y0229850D02*
X0040448Y0229850D01*
X0038947Y0229850D02*
X0038947Y0234354D01*
X0040448Y0232853D01*
X0042049Y0234354D02*
X0042049Y0229850D01*
X0043551Y0231351D01*
X0045052Y0229850D01*
X0045052Y0234354D01*
X0046653Y0233603D02*
X0047404Y0234354D01*
X0048905Y0234354D01*
X0049656Y0233603D01*
X0049656Y0232853D01*
X0048905Y0232102D01*
X0047404Y0232102D01*
X0046653Y0231351D01*
X0046653Y0230601D01*
X0047404Y0229850D01*
X0048905Y0229850D01*
X0049656Y0230601D01*
X0048031Y0269163D02*
X0043976Y0269163D01*
X0040039Y0269163D02*
X0035984Y0269163D01*
X0032047Y0269163D02*
X0027992Y0269163D01*
X0024055Y0269163D02*
X0020000Y0269163D01*
X0020000Y0273501D01*
X0020000Y0277438D02*
X0020000Y0281776D01*
X0020000Y0285713D02*
X0020000Y0290050D01*
X0020000Y0293987D02*
X0020000Y0298325D01*
X0020000Y0302262D02*
X0020000Y0306600D01*
X0019278Y0324100D02*
X0015000Y0324100D01*
X0023215Y0324100D02*
X0027493Y0324100D01*
X0031430Y0324100D02*
X0035709Y0324100D01*
X0039646Y0324100D02*
X0043924Y0324100D01*
X0047861Y0324100D02*
X0052139Y0324100D01*
X0083993Y0332435D02*
X0083807Y0333158D01*
X0083607Y0333877D01*
X0083390Y0334592D01*
X0083159Y0335302D01*
X0082913Y0336007D01*
X0082651Y0336706D01*
X0080722Y0324100D02*
X0085000Y0324100D01*
X0076785Y0324100D02*
X0072507Y0324100D01*
X0068570Y0324100D02*
X0064291Y0324100D01*
X0060354Y0324100D02*
X0056076Y0324100D01*
X0076281Y0347215D02*
X0075782Y0347771D01*
X0075271Y0348315D01*
X0074749Y0348849D01*
X0074215Y0349371D01*
X0073671Y0349882D01*
X0073115Y0350381D01*
X0050000Y0350885D02*
X0050000Y0346607D01*
X0050000Y0342670D02*
X0050000Y0338391D01*
X0050000Y0334454D02*
X0050000Y0330176D01*
X0050000Y0326239D02*
X0050000Y0321961D01*
X0041664Y0290107D02*
X0040941Y0290293D01*
X0040222Y0290494D01*
X0039508Y0290710D01*
X0038798Y0290941D01*
X0038093Y0291188D01*
X0037394Y0291449D01*
X0050000Y0293378D02*
X0050000Y0289100D01*
X0050000Y0297315D02*
X0050000Y0301593D01*
X0050000Y0305530D02*
X0050000Y0309809D01*
X0050000Y0313746D02*
X0050000Y0318024D01*
X0058336Y0290107D02*
X0059059Y0290293D01*
X0059778Y0290494D01*
X0060492Y0290710D01*
X0061202Y0290941D01*
X0061907Y0291188D01*
X0062606Y0291449D01*
X0064016Y0269163D02*
X0059961Y0269163D01*
X0056024Y0269163D02*
X0051969Y0269163D01*
X0067953Y0269163D02*
X0072008Y0269163D01*
X0075945Y0269163D02*
X0080000Y0269163D01*
X0080000Y0273501D01*
X0080000Y0277438D02*
X0080000Y0281776D01*
X0080000Y0285713D02*
X0080000Y0290050D01*
X0080000Y0293987D02*
X0080000Y0298325D01*
X0080000Y0302262D02*
X0080000Y0306600D01*
X0081030Y0340291D02*
X0080677Y0340949D01*
X0080311Y0341600D01*
X0079931Y0342242D01*
X0079537Y0342877D01*
X0079130Y0343502D01*
X0078709Y0344119D01*
X0050000Y0354822D02*
X0050000Y0359100D01*
X0058335Y0358093D02*
X0059058Y0357907D01*
X0059777Y0357707D01*
X0060492Y0357490D01*
X0061202Y0357259D01*
X0061907Y0357013D01*
X0062606Y0356751D01*
X0084714Y0328567D02*
X0084801Y0327825D01*
X0084873Y0327082D01*
X0084928Y0326338D01*
X0084968Y0325592D01*
X0084992Y0324846D01*
X0085000Y0324100D01*
X0116542Y0370750D02*
X0117810Y0370750D01*
X0117176Y0370750D02*
X0117176Y0372652D01*
X0117810Y0372018D01*
X0118752Y0372652D02*
X0119386Y0372652D01*
X0119069Y0372652D02*
X0119069Y0371067D01*
X0119386Y0370750D01*
X0119703Y0370750D01*
X0120020Y0371067D01*
X0155000Y0324100D02*
X0159278Y0324100D01*
X0163215Y0324100D02*
X0167493Y0324100D01*
X0171430Y0324100D02*
X0175709Y0324100D01*
X0179646Y0324100D02*
X0183924Y0324100D01*
X0187861Y0324100D02*
X0192139Y0324100D01*
X0223993Y0332435D02*
X0223807Y0333158D01*
X0223607Y0333877D01*
X0223390Y0334592D01*
X0223159Y0335302D01*
X0222913Y0336007D01*
X0222651Y0336706D01*
X0220722Y0324100D02*
X0225000Y0324100D01*
X0216785Y0324100D02*
X0212507Y0324100D01*
X0208570Y0324100D02*
X0204291Y0324100D01*
X0200354Y0324100D02*
X0196076Y0324100D01*
X0216281Y0347215D02*
X0215782Y0347771D01*
X0215271Y0348315D01*
X0214749Y0348849D01*
X0214215Y0349371D01*
X0213671Y0349882D01*
X0213115Y0350381D01*
X0190000Y0350885D02*
X0190000Y0346607D01*
X0190000Y0342670D02*
X0190000Y0338391D01*
X0190000Y0334454D02*
X0190000Y0330176D01*
X0190000Y0326239D02*
X0190000Y0321961D01*
X0181664Y0290107D02*
X0180941Y0290293D01*
X0180222Y0290494D01*
X0179508Y0290710D01*
X0178798Y0290941D01*
X0178093Y0291188D01*
X0177394Y0291449D01*
X0190000Y0293378D02*
X0190000Y0289100D01*
X0190000Y0297315D02*
X0190000Y0301593D01*
X0190000Y0305530D02*
X0190000Y0309809D01*
X0190000Y0313746D02*
X0190000Y0318024D01*
X0198336Y0290107D02*
X0199059Y0290293D01*
X0199778Y0290494D01*
X0200492Y0290710D01*
X0201202Y0290941D01*
X0201907Y0291188D01*
X0202606Y0291449D01*
X0204016Y0269163D02*
X0199961Y0269163D01*
X0196024Y0269163D02*
X0191969Y0269163D01*
X0188031Y0269163D02*
X0183976Y0269163D01*
X0180039Y0269163D02*
X0175984Y0269163D01*
X0172047Y0269163D02*
X0167992Y0269163D01*
X0164055Y0269163D02*
X0160000Y0269163D01*
X0160000Y0273501D01*
X0160000Y0277438D02*
X0160000Y0281776D01*
X0160000Y0285713D02*
X0160000Y0290050D01*
X0160000Y0293987D02*
X0160000Y0298325D01*
X0160000Y0302262D02*
X0160000Y0306600D01*
X0156007Y0332435D02*
X0156193Y0333158D01*
X0156393Y0333877D01*
X0156610Y0334592D01*
X0156841Y0335302D01*
X0157087Y0336007D01*
X0157349Y0336706D01*
X0163719Y0347215D02*
X0164218Y0347771D01*
X0164729Y0348315D01*
X0165251Y0348849D01*
X0165785Y0349371D01*
X0166329Y0349882D01*
X0166885Y0350381D01*
X0190000Y0354822D02*
X0190000Y0359100D01*
X0198335Y0358093D02*
X0199058Y0357907D01*
X0199777Y0357707D01*
X0200492Y0357490D01*
X0201202Y0357259D01*
X0201907Y0357013D01*
X0202606Y0356751D01*
X0224714Y0328567D02*
X0224801Y0327825D01*
X0224873Y0327082D01*
X0224928Y0326338D01*
X0224968Y0325592D01*
X0224992Y0324846D01*
X0225000Y0324100D01*
X0220000Y0306600D02*
X0220000Y0302262D01*
X0220000Y0298325D02*
X0220000Y0293987D01*
X0220000Y0290050D02*
X0220000Y0285713D01*
X0220000Y0281776D02*
X0220000Y0277438D01*
X0220000Y0273501D02*
X0220000Y0269163D01*
X0215945Y0269163D01*
X0212008Y0269163D02*
X0207953Y0269163D01*
X0182500Y0239100D02*
X0182500Y0234822D01*
X0182500Y0230885D02*
X0182500Y0226607D01*
X0182500Y0222670D02*
X0182500Y0218391D01*
X0182500Y0214454D02*
X0182500Y0210176D01*
X0182500Y0206239D02*
X0182500Y0201961D01*
X0174164Y0170107D02*
X0173441Y0170293D01*
X0172722Y0170494D01*
X0172008Y0170710D01*
X0171298Y0170941D01*
X0170593Y0171188D01*
X0169894Y0171449D01*
X0182500Y0173378D02*
X0182500Y0169100D01*
X0182500Y0177315D02*
X0182500Y0181593D01*
X0182500Y0185530D02*
X0182500Y0189809D01*
X0182500Y0193746D02*
X0182500Y0198024D01*
X0190836Y0170107D02*
X0191559Y0170293D01*
X0192278Y0170494D01*
X0192992Y0170710D01*
X0193702Y0170941D01*
X0194407Y0171188D01*
X0195106Y0171449D01*
X0196516Y0149163D02*
X0192461Y0149163D01*
X0188524Y0149163D02*
X0184469Y0149163D01*
X0180531Y0149163D02*
X0176476Y0149163D01*
X0172539Y0149163D02*
X0168484Y0149163D01*
X0164547Y0149163D02*
X0160492Y0149163D01*
X0156555Y0149163D02*
X0152500Y0149163D01*
X0152500Y0153501D01*
X0152500Y0157438D02*
X0152500Y0161776D01*
X0152500Y0165713D02*
X0152500Y0170050D01*
X0152500Y0173987D02*
X0152500Y0178325D01*
X0152500Y0182262D02*
X0152500Y0186600D01*
X0151778Y0204100D02*
X0147500Y0204100D01*
X0155715Y0204100D02*
X0159993Y0204100D01*
X0163930Y0204100D02*
X0168209Y0204100D01*
X0172146Y0204100D02*
X0176424Y0204100D01*
X0180361Y0204100D02*
X0184639Y0204100D01*
X0216493Y0212435D02*
X0216307Y0213158D01*
X0216107Y0213877D01*
X0215890Y0214592D01*
X0215659Y0215302D01*
X0215413Y0216007D01*
X0215151Y0216706D01*
X0213222Y0204100D02*
X0217500Y0204100D01*
X0209285Y0204100D02*
X0205007Y0204100D01*
X0201070Y0204100D02*
X0196791Y0204100D01*
X0192854Y0204100D02*
X0188576Y0204100D01*
X0208781Y0227215D02*
X0208282Y0227771D01*
X0207771Y0228315D01*
X0207249Y0228849D01*
X0206715Y0229371D01*
X0206171Y0229882D01*
X0205615Y0230381D01*
X0195106Y0236751D02*
X0194407Y0237013D01*
X0193702Y0237259D01*
X0192992Y0237490D01*
X0192277Y0237707D01*
X0191558Y0237907D01*
X0190835Y0238093D01*
X0217214Y0208567D02*
X0217301Y0207825D01*
X0217373Y0207082D01*
X0217428Y0206338D01*
X0217468Y0205592D01*
X0217492Y0204846D01*
X0217500Y0204100D01*
X0212500Y0186600D02*
X0212500Y0182262D01*
X0212500Y0178325D02*
X0212500Y0173987D01*
X0212500Y0170050D02*
X0212500Y0165713D01*
X0212500Y0161776D02*
X0212500Y0157438D01*
X0212500Y0153501D02*
X0212500Y0149163D01*
X0208445Y0149163D01*
X0204508Y0149163D02*
X0200453Y0149163D01*
X0153791Y0184081D02*
X0153370Y0184698D01*
X0152963Y0185323D01*
X0152569Y0185957D01*
X0152189Y0186600D01*
X0151823Y0187250D01*
X0151470Y0187909D01*
X0148507Y0212435D02*
X0148693Y0213158D01*
X0148893Y0213877D01*
X0149110Y0214592D01*
X0149341Y0215302D01*
X0149587Y0216007D01*
X0149849Y0216706D01*
X0156219Y0227215D02*
X0156718Y0227771D01*
X0157229Y0228315D01*
X0157751Y0228849D01*
X0158285Y0229371D01*
X0158829Y0229882D01*
X0159385Y0230381D01*
X0169894Y0236751D02*
X0170593Y0237013D01*
X0171298Y0237259D01*
X0172008Y0237490D01*
X0172723Y0237707D01*
X0173442Y0237907D01*
X0174165Y0238093D01*
X0147786Y0208567D02*
X0147699Y0207825D01*
X0147627Y0207082D01*
X0147572Y0206338D01*
X0147532Y0205592D01*
X0147508Y0204846D01*
X0147500Y0204100D01*
X0178033Y0238814D02*
X0178775Y0238901D01*
X0179518Y0238973D01*
X0180262Y0239028D01*
X0181008Y0239068D01*
X0181754Y0239092D01*
X0182500Y0239100D01*
X0198691Y0235130D02*
X0199349Y0234777D01*
X0200000Y0234411D01*
X0200642Y0234031D01*
X0201277Y0233637D01*
X0201902Y0233230D01*
X0202519Y0232809D01*
X0186967Y0238814D02*
X0186225Y0238901D01*
X0185482Y0238973D01*
X0184738Y0239028D01*
X0183992Y0239068D01*
X0183246Y0239092D01*
X0182500Y0239100D01*
X0166309Y0235130D02*
X0165651Y0234777D01*
X0165000Y0234411D01*
X0164358Y0234031D01*
X0163723Y0233637D01*
X0163098Y0233230D01*
X0162481Y0232809D01*
X0153791Y0224119D02*
X0153370Y0223502D01*
X0152963Y0222877D01*
X0152569Y0222242D01*
X0152189Y0221600D01*
X0151823Y0220949D01*
X0151470Y0220291D01*
X0148507Y0195764D02*
X0148693Y0195041D01*
X0148894Y0194322D01*
X0149110Y0193608D01*
X0149341Y0192898D01*
X0149588Y0192193D01*
X0149849Y0191494D01*
X0211209Y0184081D02*
X0211630Y0184698D01*
X0212037Y0185323D01*
X0212431Y0185957D01*
X0212811Y0186600D01*
X0213177Y0187250D01*
X0213530Y0187909D01*
X0213530Y0220291D02*
X0213177Y0220949D01*
X0212811Y0221600D01*
X0212431Y0222242D01*
X0212037Y0222877D01*
X0211630Y0223502D01*
X0211209Y0224119D01*
X0147500Y0204100D02*
X0147508Y0203353D01*
X0147532Y0202607D01*
X0147572Y0201862D01*
X0147627Y0201117D01*
X0147699Y0200374D01*
X0147786Y0199633D01*
X0182500Y0169100D02*
X0183247Y0169108D01*
X0183993Y0169132D01*
X0184738Y0169172D01*
X0185483Y0169227D01*
X0186226Y0169299D01*
X0186967Y0169386D01*
X0159385Y0177819D02*
X0158829Y0178318D01*
X0158285Y0178829D01*
X0157751Y0179351D01*
X0157229Y0179885D01*
X0156718Y0180429D01*
X0156219Y0180985D01*
X0205615Y0177819D02*
X0206171Y0178318D01*
X0206715Y0178829D01*
X0207249Y0179351D01*
X0207771Y0179885D01*
X0208282Y0180429D01*
X0208781Y0180985D01*
X0182500Y0169100D02*
X0181753Y0169108D01*
X0181007Y0169132D01*
X0180262Y0169172D01*
X0179517Y0169227D01*
X0178774Y0169299D01*
X0178033Y0169386D01*
X0178965Y0204100D02*
X0178967Y0204219D01*
X0178973Y0204337D01*
X0178983Y0204456D01*
X0178997Y0204574D01*
X0179015Y0204691D01*
X0179037Y0204808D01*
X0179062Y0204924D01*
X0179092Y0205039D01*
X0179125Y0205153D01*
X0179163Y0205266D01*
X0179204Y0205377D01*
X0179248Y0205487D01*
X0179297Y0205595D01*
X0179349Y0205702D01*
X0179405Y0205807D01*
X0179464Y0205910D01*
X0179526Y0206011D01*
X0179592Y0206110D01*
X0179661Y0206207D01*
X0179734Y0206301D01*
X0179809Y0206392D01*
X0179888Y0206482D01*
X0179969Y0206568D01*
X0180053Y0206652D01*
X0180141Y0206732D01*
X0180230Y0206810D01*
X0180323Y0206885D01*
X0180417Y0206956D01*
X0180515Y0207025D01*
X0180614Y0207090D01*
X0180715Y0207151D01*
X0180819Y0207210D01*
X0180924Y0207264D01*
X0181032Y0207316D01*
X0181140Y0207363D01*
X0181251Y0207407D01*
X0181363Y0207447D01*
X0181476Y0207483D01*
X0181590Y0207516D01*
X0181705Y0207544D01*
X0181821Y0207569D01*
X0181938Y0207590D01*
X0182056Y0207607D01*
X0182174Y0207620D01*
X0182292Y0207629D01*
X0182411Y0207634D01*
X0182530Y0207635D01*
X0182648Y0207632D01*
X0182767Y0207625D01*
X0182885Y0207614D01*
X0183003Y0207599D01*
X0183120Y0207580D01*
X0183237Y0207557D01*
X0183353Y0207531D01*
X0183467Y0207500D01*
X0183581Y0207466D01*
X0183694Y0207427D01*
X0183805Y0207385D01*
X0183914Y0207340D01*
X0184022Y0207290D01*
X0184129Y0207237D01*
X0184233Y0207181D01*
X0184336Y0207121D01*
X0184436Y0207058D01*
X0184534Y0206991D01*
X0184630Y0206921D01*
X0184724Y0206848D01*
X0184815Y0206772D01*
X0184903Y0206692D01*
X0184989Y0206610D01*
X0185072Y0206525D01*
X0185152Y0206437D01*
X0185229Y0206347D01*
X0185303Y0206254D01*
X0185374Y0206159D01*
X0185441Y0206061D01*
X0185506Y0205961D01*
X0185566Y0205859D01*
X0185624Y0205755D01*
X0185678Y0205649D01*
X0185728Y0205541D01*
X0185774Y0205432D01*
X0185817Y0205321D01*
X0185856Y0205209D01*
X0185892Y0205096D01*
X0185923Y0204981D01*
X0185951Y0204866D01*
X0185975Y0204750D01*
X0185995Y0204632D01*
X0186011Y0204515D01*
X0186023Y0204397D01*
X0186031Y0204278D01*
X0186035Y0204159D01*
X0186035Y0204041D01*
X0186031Y0203922D01*
X0186023Y0203803D01*
X0186011Y0203685D01*
X0185995Y0203568D01*
X0185975Y0203450D01*
X0185951Y0203334D01*
X0185923Y0203219D01*
X0185892Y0203104D01*
X0185856Y0202991D01*
X0185817Y0202879D01*
X0185774Y0202768D01*
X0185728Y0202659D01*
X0185678Y0202551D01*
X0185624Y0202445D01*
X0185566Y0202341D01*
X0185506Y0202239D01*
X0185441Y0202139D01*
X0185374Y0202041D01*
X0185303Y0201946D01*
X0185229Y0201853D01*
X0185152Y0201763D01*
X0185072Y0201675D01*
X0184989Y0201590D01*
X0184903Y0201508D01*
X0184815Y0201428D01*
X0184724Y0201352D01*
X0184630Y0201279D01*
X0184534Y0201209D01*
X0184436Y0201142D01*
X0184336Y0201079D01*
X0184233Y0201019D01*
X0184129Y0200963D01*
X0184022Y0200910D01*
X0183914Y0200860D01*
X0183805Y0200815D01*
X0183694Y0200773D01*
X0183581Y0200734D01*
X0183467Y0200700D01*
X0183353Y0200669D01*
X0183237Y0200643D01*
X0183120Y0200620D01*
X0183003Y0200601D01*
X0182885Y0200586D01*
X0182767Y0200575D01*
X0182648Y0200568D01*
X0182530Y0200565D01*
X0182411Y0200566D01*
X0182292Y0200571D01*
X0182174Y0200580D01*
X0182056Y0200593D01*
X0181938Y0200610D01*
X0181821Y0200631D01*
X0181705Y0200656D01*
X0181590Y0200684D01*
X0181476Y0200717D01*
X0181363Y0200753D01*
X0181251Y0200793D01*
X0181140Y0200837D01*
X0181032Y0200884D01*
X0180924Y0200936D01*
X0180819Y0200990D01*
X0180715Y0201049D01*
X0180614Y0201110D01*
X0180515Y0201175D01*
X0180417Y0201244D01*
X0180323Y0201315D01*
X0180230Y0201390D01*
X0180141Y0201468D01*
X0180053Y0201548D01*
X0179969Y0201632D01*
X0179888Y0201718D01*
X0179809Y0201808D01*
X0179734Y0201899D01*
X0179661Y0201993D01*
X0179592Y0202090D01*
X0179526Y0202189D01*
X0179464Y0202290D01*
X0179405Y0202393D01*
X0179349Y0202498D01*
X0179297Y0202605D01*
X0179248Y0202713D01*
X0179204Y0202823D01*
X0179163Y0202934D01*
X0179125Y0203047D01*
X0179092Y0203161D01*
X0179062Y0203276D01*
X0179037Y0203392D01*
X0179015Y0203509D01*
X0178997Y0203626D01*
X0178983Y0203744D01*
X0178973Y0203863D01*
X0178967Y0203981D01*
X0178965Y0204100D01*
X0217214Y0199633D02*
X0217301Y0200374D01*
X0217373Y0201117D01*
X0217428Y0201862D01*
X0217468Y0202607D01*
X0217492Y0203353D01*
X0217500Y0204100D01*
X0216493Y0195764D02*
X0216307Y0195041D01*
X0216106Y0194322D01*
X0215890Y0193608D01*
X0215659Y0192898D01*
X0215412Y0192193D01*
X0215151Y0191494D01*
X0166309Y0173070D02*
X0165650Y0173423D01*
X0165000Y0173789D01*
X0164357Y0174169D01*
X0163723Y0174563D01*
X0163098Y0174970D01*
X0162481Y0175391D01*
X0198691Y0173070D02*
X0199350Y0173423D01*
X0200000Y0173789D01*
X0200643Y0174169D01*
X0201277Y0174563D01*
X0201902Y0174970D01*
X0202519Y0175391D01*
X0161291Y0304081D02*
X0160870Y0304698D01*
X0160463Y0305323D01*
X0160069Y0305957D01*
X0159689Y0306600D01*
X0159323Y0307250D01*
X0158970Y0307909D01*
X0158970Y0340291D02*
X0159323Y0340949D01*
X0159689Y0341600D01*
X0160069Y0342242D01*
X0160463Y0342877D01*
X0160870Y0343502D01*
X0161291Y0344119D01*
X0177394Y0356751D02*
X0178093Y0357013D01*
X0178798Y0357259D01*
X0179508Y0357490D01*
X0180223Y0357707D01*
X0180942Y0357907D01*
X0181665Y0358093D01*
X0155286Y0328567D02*
X0155199Y0327825D01*
X0155127Y0327082D01*
X0155072Y0326338D01*
X0155032Y0325592D01*
X0155008Y0324846D01*
X0155000Y0324100D01*
X0185533Y0358814D02*
X0186275Y0358901D01*
X0187018Y0358973D01*
X0187762Y0359028D01*
X0188508Y0359068D01*
X0189254Y0359092D01*
X0190000Y0359100D01*
X0206191Y0355130D02*
X0206849Y0354777D01*
X0207500Y0354411D01*
X0208142Y0354031D01*
X0208777Y0353637D01*
X0209402Y0353230D01*
X0210019Y0352809D01*
X0194467Y0358814D02*
X0193725Y0358901D01*
X0192982Y0358973D01*
X0192238Y0359028D01*
X0191492Y0359068D01*
X0190746Y0359092D01*
X0190000Y0359100D01*
X0173809Y0355130D02*
X0173151Y0354777D01*
X0172500Y0354411D01*
X0171858Y0354031D01*
X0171223Y0353637D01*
X0170598Y0353230D01*
X0169981Y0352809D01*
X0218709Y0344119D02*
X0219130Y0343502D01*
X0219537Y0342877D01*
X0219931Y0342242D01*
X0220311Y0341600D01*
X0220677Y0340949D01*
X0221030Y0340291D01*
X0155000Y0324100D02*
X0155008Y0323353D01*
X0155032Y0322607D01*
X0155072Y0321862D01*
X0155127Y0321117D01*
X0155199Y0320374D01*
X0155286Y0319633D01*
X0190000Y0289100D02*
X0190747Y0289108D01*
X0191493Y0289132D01*
X0192238Y0289172D01*
X0192983Y0289227D01*
X0193726Y0289299D01*
X0194467Y0289386D01*
X0166885Y0297819D02*
X0166329Y0298318D01*
X0165785Y0298829D01*
X0165251Y0299351D01*
X0164729Y0299885D01*
X0164218Y0300429D01*
X0163719Y0300985D01*
X0218709Y0304081D02*
X0219130Y0304698D01*
X0219537Y0305323D01*
X0219931Y0305957D01*
X0220311Y0306600D01*
X0220677Y0307250D01*
X0221030Y0307909D01*
X0190000Y0289100D02*
X0189253Y0289108D01*
X0188507Y0289132D01*
X0187762Y0289172D01*
X0187017Y0289227D01*
X0186274Y0289299D01*
X0185533Y0289386D01*
X0213115Y0297819D02*
X0213671Y0298318D01*
X0214215Y0298829D01*
X0214749Y0299351D01*
X0215271Y0299885D01*
X0215782Y0300429D01*
X0216281Y0300985D01*
X0186465Y0324100D02*
X0186467Y0324219D01*
X0186473Y0324337D01*
X0186483Y0324456D01*
X0186497Y0324574D01*
X0186515Y0324691D01*
X0186537Y0324808D01*
X0186562Y0324924D01*
X0186592Y0325039D01*
X0186625Y0325153D01*
X0186663Y0325266D01*
X0186704Y0325377D01*
X0186748Y0325487D01*
X0186797Y0325595D01*
X0186849Y0325702D01*
X0186905Y0325807D01*
X0186964Y0325910D01*
X0187026Y0326011D01*
X0187092Y0326110D01*
X0187161Y0326207D01*
X0187234Y0326301D01*
X0187309Y0326392D01*
X0187388Y0326482D01*
X0187469Y0326568D01*
X0187553Y0326652D01*
X0187641Y0326732D01*
X0187730Y0326810D01*
X0187823Y0326885D01*
X0187917Y0326956D01*
X0188015Y0327025D01*
X0188114Y0327090D01*
X0188215Y0327151D01*
X0188319Y0327210D01*
X0188424Y0327264D01*
X0188532Y0327316D01*
X0188640Y0327363D01*
X0188751Y0327407D01*
X0188863Y0327447D01*
X0188976Y0327483D01*
X0189090Y0327516D01*
X0189205Y0327544D01*
X0189321Y0327569D01*
X0189438Y0327590D01*
X0189556Y0327607D01*
X0189674Y0327620D01*
X0189792Y0327629D01*
X0189911Y0327634D01*
X0190030Y0327635D01*
X0190148Y0327632D01*
X0190267Y0327625D01*
X0190385Y0327614D01*
X0190503Y0327599D01*
X0190620Y0327580D01*
X0190737Y0327557D01*
X0190853Y0327531D01*
X0190967Y0327500D01*
X0191081Y0327466D01*
X0191194Y0327427D01*
X0191305Y0327385D01*
X0191414Y0327340D01*
X0191522Y0327290D01*
X0191629Y0327237D01*
X0191733Y0327181D01*
X0191836Y0327121D01*
X0191936Y0327058D01*
X0192034Y0326991D01*
X0192130Y0326921D01*
X0192224Y0326848D01*
X0192315Y0326772D01*
X0192403Y0326692D01*
X0192489Y0326610D01*
X0192572Y0326525D01*
X0192652Y0326437D01*
X0192729Y0326347D01*
X0192803Y0326254D01*
X0192874Y0326159D01*
X0192941Y0326061D01*
X0193006Y0325961D01*
X0193066Y0325859D01*
X0193124Y0325755D01*
X0193178Y0325649D01*
X0193228Y0325541D01*
X0193274Y0325432D01*
X0193317Y0325321D01*
X0193356Y0325209D01*
X0193392Y0325096D01*
X0193423Y0324981D01*
X0193451Y0324866D01*
X0193475Y0324750D01*
X0193495Y0324632D01*
X0193511Y0324515D01*
X0193523Y0324397D01*
X0193531Y0324278D01*
X0193535Y0324159D01*
X0193535Y0324041D01*
X0193531Y0323922D01*
X0193523Y0323803D01*
X0193511Y0323685D01*
X0193495Y0323568D01*
X0193475Y0323450D01*
X0193451Y0323334D01*
X0193423Y0323219D01*
X0193392Y0323104D01*
X0193356Y0322991D01*
X0193317Y0322879D01*
X0193274Y0322768D01*
X0193228Y0322659D01*
X0193178Y0322551D01*
X0193124Y0322445D01*
X0193066Y0322341D01*
X0193006Y0322239D01*
X0192941Y0322139D01*
X0192874Y0322041D01*
X0192803Y0321946D01*
X0192729Y0321853D01*
X0192652Y0321763D01*
X0192572Y0321675D01*
X0192489Y0321590D01*
X0192403Y0321508D01*
X0192315Y0321428D01*
X0192224Y0321352D01*
X0192130Y0321279D01*
X0192034Y0321209D01*
X0191936Y0321142D01*
X0191836Y0321079D01*
X0191733Y0321019D01*
X0191629Y0320963D01*
X0191522Y0320910D01*
X0191414Y0320860D01*
X0191305Y0320815D01*
X0191194Y0320773D01*
X0191081Y0320734D01*
X0190967Y0320700D01*
X0190853Y0320669D01*
X0190737Y0320643D01*
X0190620Y0320620D01*
X0190503Y0320601D01*
X0190385Y0320586D01*
X0190267Y0320575D01*
X0190148Y0320568D01*
X0190030Y0320565D01*
X0189911Y0320566D01*
X0189792Y0320571D01*
X0189674Y0320580D01*
X0189556Y0320593D01*
X0189438Y0320610D01*
X0189321Y0320631D01*
X0189205Y0320656D01*
X0189090Y0320684D01*
X0188976Y0320717D01*
X0188863Y0320753D01*
X0188751Y0320793D01*
X0188640Y0320837D01*
X0188532Y0320884D01*
X0188424Y0320936D01*
X0188319Y0320990D01*
X0188215Y0321049D01*
X0188114Y0321110D01*
X0188015Y0321175D01*
X0187917Y0321244D01*
X0187823Y0321315D01*
X0187730Y0321390D01*
X0187641Y0321468D01*
X0187553Y0321548D01*
X0187469Y0321632D01*
X0187388Y0321718D01*
X0187309Y0321808D01*
X0187234Y0321899D01*
X0187161Y0321993D01*
X0187092Y0322090D01*
X0187026Y0322189D01*
X0186964Y0322290D01*
X0186905Y0322393D01*
X0186849Y0322498D01*
X0186797Y0322605D01*
X0186748Y0322713D01*
X0186704Y0322823D01*
X0186663Y0322934D01*
X0186625Y0323047D01*
X0186592Y0323161D01*
X0186562Y0323276D01*
X0186537Y0323392D01*
X0186515Y0323509D01*
X0186497Y0323626D01*
X0186483Y0323744D01*
X0186473Y0323863D01*
X0186467Y0323981D01*
X0186465Y0324100D01*
X0156007Y0315764D02*
X0156193Y0315041D01*
X0156394Y0314322D01*
X0156610Y0313608D01*
X0156841Y0312898D01*
X0157088Y0312193D01*
X0157349Y0311494D01*
X0224714Y0319633D02*
X0224801Y0320374D01*
X0224873Y0321117D01*
X0224928Y0321862D01*
X0224968Y0322607D01*
X0224992Y0323353D01*
X0225000Y0324100D01*
X0223993Y0315764D02*
X0223807Y0315041D01*
X0223606Y0314322D01*
X0223390Y0313608D01*
X0223159Y0312898D01*
X0222912Y0312193D01*
X0222651Y0311494D01*
X0173809Y0293070D02*
X0173150Y0293423D01*
X0172500Y0293789D01*
X0171857Y0294169D01*
X0171223Y0294563D01*
X0170598Y0294970D01*
X0169981Y0295391D01*
X0206191Y0293070D02*
X0206850Y0293423D01*
X0207500Y0293789D01*
X0208143Y0294169D01*
X0208777Y0294563D01*
X0209402Y0294970D01*
X0210019Y0295391D01*
X0054467Y0358814D02*
X0053725Y0358901D01*
X0052982Y0358973D01*
X0052238Y0359028D01*
X0051492Y0359068D01*
X0050746Y0359092D01*
X0050000Y0359100D01*
X0041665Y0358093D02*
X0040942Y0357907D01*
X0040223Y0357707D01*
X0039508Y0357490D01*
X0038798Y0357259D01*
X0038093Y0357013D01*
X0037394Y0356751D01*
X0026885Y0350381D02*
X0026329Y0349882D01*
X0025785Y0349371D01*
X0025251Y0348849D01*
X0024729Y0348315D01*
X0024218Y0347771D01*
X0023719Y0347215D01*
X0017349Y0336706D02*
X0017087Y0336007D01*
X0016841Y0335302D01*
X0016610Y0334592D01*
X0016393Y0333877D01*
X0016193Y0333158D01*
X0016007Y0332435D01*
X0045533Y0358814D02*
X0046275Y0358901D01*
X0047018Y0358973D01*
X0047762Y0359028D01*
X0048508Y0359068D01*
X0049254Y0359092D01*
X0050000Y0359100D01*
X0066191Y0355130D02*
X0066849Y0354777D01*
X0067500Y0354411D01*
X0068142Y0354031D01*
X0068777Y0353637D01*
X0069402Y0353230D01*
X0070019Y0352809D01*
X0033809Y0355130D02*
X0033151Y0354777D01*
X0032500Y0354411D01*
X0031858Y0354031D01*
X0031223Y0353637D01*
X0030598Y0353230D01*
X0029981Y0352809D01*
X0015286Y0328567D02*
X0015199Y0327825D01*
X0015127Y0327082D01*
X0015072Y0326338D01*
X0015032Y0325592D01*
X0015008Y0324846D01*
X0015000Y0324100D01*
X0018970Y0340291D02*
X0019323Y0340949D01*
X0019689Y0341600D01*
X0020069Y0342242D01*
X0020463Y0342877D01*
X0020870Y0343502D01*
X0021291Y0344119D01*
X0016007Y0315764D02*
X0016193Y0315041D01*
X0016394Y0314322D01*
X0016610Y0313608D01*
X0016841Y0312898D01*
X0017088Y0312193D01*
X0017349Y0311494D01*
X0078709Y0304081D02*
X0079130Y0304698D01*
X0079537Y0305323D01*
X0079931Y0305957D01*
X0080311Y0306600D01*
X0080677Y0307250D01*
X0081030Y0307909D01*
X0021291Y0304081D02*
X0020870Y0304698D01*
X0020463Y0305323D01*
X0020069Y0305957D01*
X0019689Y0306600D01*
X0019323Y0307250D01*
X0018970Y0307909D01*
X0050000Y0289100D02*
X0050747Y0289108D01*
X0051493Y0289132D01*
X0052238Y0289172D01*
X0052983Y0289227D01*
X0053726Y0289299D01*
X0054467Y0289386D01*
X0026885Y0297819D02*
X0026329Y0298318D01*
X0025785Y0298829D01*
X0025251Y0299351D01*
X0024729Y0299885D01*
X0024218Y0300429D01*
X0023719Y0300985D01*
X0073115Y0297819D02*
X0073671Y0298318D01*
X0074215Y0298829D01*
X0074749Y0299351D01*
X0075271Y0299885D01*
X0075782Y0300429D01*
X0076281Y0300985D01*
X0050000Y0289100D02*
X0049253Y0289108D01*
X0048507Y0289132D01*
X0047762Y0289172D01*
X0047017Y0289227D01*
X0046274Y0289299D01*
X0045533Y0289386D01*
X0046465Y0324100D02*
X0046467Y0324219D01*
X0046473Y0324337D01*
X0046483Y0324456D01*
X0046497Y0324574D01*
X0046515Y0324691D01*
X0046537Y0324808D01*
X0046562Y0324924D01*
X0046592Y0325039D01*
X0046625Y0325153D01*
X0046663Y0325266D01*
X0046704Y0325377D01*
X0046748Y0325487D01*
X0046797Y0325595D01*
X0046849Y0325702D01*
X0046905Y0325807D01*
X0046964Y0325910D01*
X0047026Y0326011D01*
X0047092Y0326110D01*
X0047161Y0326207D01*
X0047234Y0326301D01*
X0047309Y0326392D01*
X0047388Y0326482D01*
X0047469Y0326568D01*
X0047553Y0326652D01*
X0047641Y0326732D01*
X0047730Y0326810D01*
X0047823Y0326885D01*
X0047917Y0326956D01*
X0048015Y0327025D01*
X0048114Y0327090D01*
X0048215Y0327151D01*
X0048319Y0327210D01*
X0048424Y0327264D01*
X0048532Y0327316D01*
X0048640Y0327363D01*
X0048751Y0327407D01*
X0048863Y0327447D01*
X0048976Y0327483D01*
X0049090Y0327516D01*
X0049205Y0327544D01*
X0049321Y0327569D01*
X0049438Y0327590D01*
X0049556Y0327607D01*
X0049674Y0327620D01*
X0049792Y0327629D01*
X0049911Y0327634D01*
X0050030Y0327635D01*
X0050148Y0327632D01*
X0050267Y0327625D01*
X0050385Y0327614D01*
X0050503Y0327599D01*
X0050620Y0327580D01*
X0050737Y0327557D01*
X0050853Y0327531D01*
X0050967Y0327500D01*
X0051081Y0327466D01*
X0051194Y0327427D01*
X0051305Y0327385D01*
X0051414Y0327340D01*
X0051522Y0327290D01*
X0051629Y0327237D01*
X0051733Y0327181D01*
X0051836Y0327121D01*
X0051936Y0327058D01*
X0052034Y0326991D01*
X0052130Y0326921D01*
X0052224Y0326848D01*
X0052315Y0326772D01*
X0052403Y0326692D01*
X0052489Y0326610D01*
X0052572Y0326525D01*
X0052652Y0326437D01*
X0052729Y0326347D01*
X0052803Y0326254D01*
X0052874Y0326159D01*
X0052941Y0326061D01*
X0053006Y0325961D01*
X0053066Y0325859D01*
X0053124Y0325755D01*
X0053178Y0325649D01*
X0053228Y0325541D01*
X0053274Y0325432D01*
X0053317Y0325321D01*
X0053356Y0325209D01*
X0053392Y0325096D01*
X0053423Y0324981D01*
X0053451Y0324866D01*
X0053475Y0324750D01*
X0053495Y0324632D01*
X0053511Y0324515D01*
X0053523Y0324397D01*
X0053531Y0324278D01*
X0053535Y0324159D01*
X0053535Y0324041D01*
X0053531Y0323922D01*
X0053523Y0323803D01*
X0053511Y0323685D01*
X0053495Y0323568D01*
X0053475Y0323450D01*
X0053451Y0323334D01*
X0053423Y0323219D01*
X0053392Y0323104D01*
X0053356Y0322991D01*
X0053317Y0322879D01*
X0053274Y0322768D01*
X0053228Y0322659D01*
X0053178Y0322551D01*
X0053124Y0322445D01*
X0053066Y0322341D01*
X0053006Y0322239D01*
X0052941Y0322139D01*
X0052874Y0322041D01*
X0052803Y0321946D01*
X0052729Y0321853D01*
X0052652Y0321763D01*
X0052572Y0321675D01*
X0052489Y0321590D01*
X0052403Y0321508D01*
X0052315Y0321428D01*
X0052224Y0321352D01*
X0052130Y0321279D01*
X0052034Y0321209D01*
X0051936Y0321142D01*
X0051836Y0321079D01*
X0051733Y0321019D01*
X0051629Y0320963D01*
X0051522Y0320910D01*
X0051414Y0320860D01*
X0051305Y0320815D01*
X0051194Y0320773D01*
X0051081Y0320734D01*
X0050967Y0320700D01*
X0050853Y0320669D01*
X0050737Y0320643D01*
X0050620Y0320620D01*
X0050503Y0320601D01*
X0050385Y0320586D01*
X0050267Y0320575D01*
X0050148Y0320568D01*
X0050030Y0320565D01*
X0049911Y0320566D01*
X0049792Y0320571D01*
X0049674Y0320580D01*
X0049556Y0320593D01*
X0049438Y0320610D01*
X0049321Y0320631D01*
X0049205Y0320656D01*
X0049090Y0320684D01*
X0048976Y0320717D01*
X0048863Y0320753D01*
X0048751Y0320793D01*
X0048640Y0320837D01*
X0048532Y0320884D01*
X0048424Y0320936D01*
X0048319Y0320990D01*
X0048215Y0321049D01*
X0048114Y0321110D01*
X0048015Y0321175D01*
X0047917Y0321244D01*
X0047823Y0321315D01*
X0047730Y0321390D01*
X0047641Y0321468D01*
X0047553Y0321548D01*
X0047469Y0321632D01*
X0047388Y0321718D01*
X0047309Y0321808D01*
X0047234Y0321899D01*
X0047161Y0321993D01*
X0047092Y0322090D01*
X0047026Y0322189D01*
X0046964Y0322290D01*
X0046905Y0322393D01*
X0046849Y0322498D01*
X0046797Y0322605D01*
X0046748Y0322713D01*
X0046704Y0322823D01*
X0046663Y0322934D01*
X0046625Y0323047D01*
X0046592Y0323161D01*
X0046562Y0323276D01*
X0046537Y0323392D01*
X0046515Y0323509D01*
X0046497Y0323626D01*
X0046483Y0323744D01*
X0046473Y0323863D01*
X0046467Y0323981D01*
X0046465Y0324100D01*
X0084714Y0319633D02*
X0084801Y0320374D01*
X0084873Y0321117D01*
X0084928Y0321862D01*
X0084968Y0322607D01*
X0084992Y0323353D01*
X0085000Y0324100D01*
X0015286Y0319633D02*
X0015199Y0320374D01*
X0015127Y0321117D01*
X0015072Y0321862D01*
X0015032Y0322607D01*
X0015008Y0323353D01*
X0015000Y0324100D01*
X0066191Y0293070D02*
X0066850Y0293423D01*
X0067500Y0293789D01*
X0068143Y0294169D01*
X0068777Y0294563D01*
X0069402Y0294970D01*
X0070019Y0295391D01*
X0033809Y0293070D02*
X0033150Y0293423D01*
X0032500Y0293789D01*
X0031857Y0294169D01*
X0031223Y0294563D01*
X0030598Y0294970D01*
X0029981Y0295391D01*
X0082651Y0311494D02*
X0082912Y0312193D01*
X0083159Y0312898D01*
X0083390Y0313608D01*
X0083606Y0314322D01*
X0083807Y0315041D01*
X0083993Y0315764D01*
D11*
X0064312Y0279304D02*
X0065046Y0278570D01*
X0065046Y0277836D01*
X0064312Y0277102D01*
X0062845Y0277102D01*
X0062111Y0276368D01*
X0062111Y0275634D01*
X0062845Y0274900D01*
X0064312Y0274900D01*
X0065046Y0275634D01*
X0064312Y0279304D02*
X0062845Y0279304D01*
X0062111Y0278570D01*
X0060443Y0279304D02*
X0060443Y0275634D01*
X0059709Y0274900D01*
X0058241Y0274900D01*
X0057507Y0275634D01*
X0057507Y0279304D01*
X0055839Y0278570D02*
X0055839Y0277836D01*
X0055105Y0277102D01*
X0053637Y0277102D01*
X0052903Y0276368D01*
X0052903Y0275634D01*
X0053637Y0274900D01*
X0055105Y0274900D01*
X0055839Y0275634D01*
X0055839Y0278570D02*
X0055105Y0279304D01*
X0053637Y0279304D01*
X0052903Y0278570D01*
X0051235Y0279304D02*
X0048299Y0279304D01*
X0049767Y0279304D02*
X0049767Y0274900D01*
X0046631Y0274900D02*
X0046631Y0277836D01*
X0045163Y0279304D01*
X0043695Y0277836D01*
X0043695Y0274900D01*
X0042027Y0274900D02*
X0040559Y0274900D01*
X0041293Y0274900D02*
X0041293Y0279304D01*
X0042027Y0279304D02*
X0040559Y0279304D01*
X0038958Y0279304D02*
X0036022Y0274900D01*
X0036022Y0279304D01*
X0038958Y0279304D02*
X0038958Y0274900D01*
X0043695Y0277102D02*
X0046631Y0277102D01*
X0023000Y0253100D02*
X0073000Y0253100D01*
X0073000Y0253075D02*
X0073000Y0235100D01*
X0023000Y0235100D01*
X0023000Y0253000D01*
X0172358Y0158570D02*
X0173092Y0159304D01*
X0175294Y0159304D01*
X0175294Y0154900D01*
X0173092Y0154900D01*
X0172358Y0155634D01*
X0172358Y0158570D01*
X0176962Y0159304D02*
X0176962Y0154900D01*
X0179898Y0159304D01*
X0179898Y0154900D01*
X0181566Y0154900D02*
X0184502Y0154900D01*
X0184502Y0159304D01*
X0181566Y0159304D01*
X0183034Y0157102D02*
X0184502Y0157102D01*
X0186170Y0154900D02*
X0189106Y0154900D01*
X0189106Y0159304D01*
X0190774Y0158570D02*
X0190774Y0157836D01*
X0191508Y0157102D01*
X0193710Y0157102D01*
X0193710Y0159304D02*
X0191508Y0159304D01*
X0190774Y0158570D01*
X0191508Y0157102D02*
X0190774Y0156368D01*
X0190774Y0155634D01*
X0191508Y0154900D01*
X0193710Y0154900D01*
X0193710Y0159304D01*
X0195138Y0274900D02*
X0193670Y0276368D01*
X0193670Y0279304D01*
X0192002Y0278570D02*
X0192002Y0275634D01*
X0191268Y0274900D01*
X0189800Y0274900D01*
X0189066Y0275634D01*
X0189066Y0278570D01*
X0189800Y0279304D01*
X0191268Y0279304D01*
X0192002Y0278570D01*
X0195138Y0274900D02*
X0196606Y0276368D01*
X0196606Y0279304D01*
X0187398Y0279304D02*
X0187398Y0274900D01*
X0184462Y0274900D01*
D12*
X0138967Y0326163D02*
X0138967Y0328919D01*
X0138950Y0328900D02*
X0138950Y0348275D01*
X0138967Y0347423D02*
X0138967Y0368289D01*
X0103533Y0368289D01*
X0103533Y0326163D01*
X0111801Y0326163D01*
X0130699Y0326163D02*
X0138967Y0326163D01*
D13*
X0237283Y0004100D02*
X0005000Y0004100D01*
X0005000Y0352131D01*
X0026654Y0352131D01*
X0026654Y0379691D01*
X0215630Y0379691D01*
X0215630Y0352131D01*
X0237283Y0352131D01*
X0237283Y0004100D01*
M02*
