G75*
%MOIN*%
%OFA0B0*%
%FSLAX25Y25*%
%IPPOS*%
%LPD*%
%AMOC8*
5,1,8,0,0,1.08239X$1,22.5*
%
%ADD10C,0.08268*%
%ADD11C,0.05512*%
%ADD12R,0.05512X0.05512*%
%ADD13R,0.07087X0.07087*%
%ADD14C,0.07087*%
%ADD15C,0.13843*%
%ADD16C,0.04331*%
%ADD17C,0.05118*%
%ADD18C,0.04724*%
%ADD19C,0.05000*%
%ADD20R,0.04724X0.04724*%
%ADD21R,0.12661X0.12661*%
%ADD22C,0.12661*%
%ADD23C,0.00000*%
%ADD24R,0.04331X0.04331*%
%ADD25C,0.04800*%
%ADD26C,0.04700*%
%ADD27C,0.06000*%
D10*
X0033051Y0309100D03*
X0033051Y0334100D03*
X0033051Y0359100D03*
X0096949Y0359100D03*
X0096949Y0334100D03*
X0096949Y0309100D03*
X0145551Y0309100D03*
X0145551Y0334100D03*
X0145551Y0359100D03*
X0209449Y0359100D03*
X0209449Y0334100D03*
X0209449Y0309100D03*
D11*
X0113250Y0281600D03*
D12*
X0135000Y0281600D03*
D13*
X0070000Y0262663D03*
X0202500Y0142663D03*
X0210000Y0262663D03*
D14*
X0190000Y0262663D03*
X0170000Y0262663D03*
X0162500Y0142663D03*
X0182500Y0142663D03*
X0050000Y0262663D03*
X0030000Y0262663D03*
D15*
X0121250Y0326163D03*
X0121250Y0349785D03*
D16*
X0127070Y0264098D03*
X0120000Y0241600D03*
X0110000Y0241600D03*
X0100000Y0241600D03*
X0090000Y0241696D03*
X0080000Y0241600D03*
X0080000Y0211600D03*
X0090000Y0211696D03*
X0100000Y0211600D03*
X0110000Y0211600D03*
X0120000Y0211600D03*
X0120000Y0199100D03*
X0135000Y0204100D03*
X0145000Y0204100D03*
X0160000Y0211600D03*
X0170000Y0211600D03*
X0184998Y0227030D03*
X0170000Y0241600D03*
X0160000Y0241600D03*
X0195000Y0204100D03*
X0205000Y0204100D03*
X0207498Y0226780D03*
X0205000Y0174100D03*
X0195000Y0174100D03*
X0215000Y0161600D03*
X0215000Y0131600D03*
X0200000Y0131600D03*
X0190000Y0131600D03*
X0180000Y0131600D03*
X0170000Y0131600D03*
X0170000Y0101600D03*
X0180000Y0101600D03*
X0190000Y0101600D03*
X0200000Y0101600D03*
X0197500Y0034100D03*
X0182500Y0034100D03*
X0152500Y0034100D03*
X0152498Y0052030D03*
X0130000Y0089100D03*
X0120000Y0089100D03*
X0110000Y0089100D03*
X0094940Y0069600D03*
X0087500Y0056600D03*
X0080000Y0074100D03*
X0070000Y0074004D03*
X0060000Y0074100D03*
X0050000Y0074100D03*
X0040000Y0074100D03*
X0030000Y0074100D03*
X0020000Y0066160D03*
X0030000Y0104100D03*
X0040000Y0104100D03*
X0050000Y0104100D03*
X0060000Y0104100D03*
X0070000Y0104004D03*
X0071310Y0115850D03*
X0070000Y0126600D03*
X0080000Y0104100D03*
X0089810Y0115600D03*
X0090000Y0129100D03*
X0100000Y0129100D03*
X0110000Y0129100D03*
X0110000Y0119100D03*
X0120000Y0119100D03*
X0120000Y0129100D03*
X0130000Y0129100D03*
X0130000Y0119100D03*
X0147930Y0119102D03*
X0147940Y0100100D03*
X0130000Y0159100D03*
X0135000Y0174100D03*
X0145000Y0174100D03*
X0120000Y0169100D03*
X0120000Y0159100D03*
X0110000Y0159100D03*
X0100000Y0159100D03*
X0090000Y0159100D03*
X0104998Y0177030D03*
X0070000Y0179100D03*
X0070000Y0156600D03*
X0040000Y0179100D03*
X0040000Y0201696D03*
X0024998Y0209530D03*
X0040000Y0231696D03*
X0020000Y0146600D03*
X0020000Y0116600D03*
X0087500Y0026600D03*
X0227500Y0034100D03*
D17*
X0187500Y0044100D03*
X0187500Y0064100D03*
X0215000Y0101600D03*
X0215000Y0121600D03*
X0185000Y0164100D03*
X0165000Y0164100D03*
X0150000Y0219100D03*
X0150000Y0239100D03*
X0137500Y0239100D03*
X0137500Y0219100D03*
X0080000Y0149100D03*
X0080000Y0129100D03*
X0060000Y0156600D03*
X0060000Y0169100D03*
X0040000Y0169100D03*
X0040000Y0156600D03*
X0020000Y0104100D03*
X0020000Y0084100D03*
X0077500Y0056600D03*
X0077500Y0036600D03*
X0097500Y0036600D03*
X0097500Y0056600D03*
X0215000Y0184100D03*
X0215000Y0204100D03*
D18*
X0135000Y0069100D03*
X0135000Y0059100D03*
X0135000Y0049100D03*
X0135000Y0029100D03*
X0115000Y0029100D03*
X0115000Y0019100D03*
X0115000Y0049100D03*
X0115000Y0059100D03*
X0115000Y0069100D03*
X0095000Y0081600D03*
X0095000Y0091600D03*
X0095000Y0101600D03*
X0090000Y0169100D03*
X0080000Y0169100D03*
X0080000Y0179100D03*
X0080000Y0189100D03*
X0080000Y0199100D03*
X0070000Y0169100D03*
X0060000Y0189100D03*
X0052500Y0201600D03*
X0052500Y0211600D03*
X0052500Y0221600D03*
X0070000Y0231600D03*
X0025000Y0186600D03*
X0025000Y0176600D03*
X0025000Y0166600D03*
X0177500Y0019100D03*
X0187500Y0019100D03*
X0197500Y0019100D03*
D19*
X0187500Y0074100D03*
X0187500Y0084100D03*
X0157500Y0084100D03*
X0157500Y0074100D03*
X0155000Y0174100D03*
X0165000Y0174100D03*
X0175000Y0174100D03*
X0185000Y0174100D03*
X0185000Y0204100D03*
X0175000Y0204100D03*
X0165000Y0204100D03*
X0155000Y0204100D03*
X0060000Y0146600D03*
X0050000Y0146600D03*
X0040000Y0146600D03*
X0030000Y0146600D03*
X0030000Y0116600D03*
X0040000Y0116600D03*
X0050000Y0116600D03*
X0060000Y0116600D03*
D20*
X0040000Y0189100D03*
X0070000Y0211600D03*
X0135000Y0019100D03*
D21*
X0027750Y0244100D03*
D22*
X0048000Y0244100D03*
X0068150Y0244100D03*
D23*
X0005000Y0004100D02*
X0237283Y0004100D01*
X0237283Y0352131D01*
X0215630Y0352131D01*
X0215630Y0379691D01*
X0026654Y0379691D01*
X0026654Y0352131D01*
X0005000Y0352131D01*
X0005000Y0004100D01*
D24*
X0020000Y0074040D03*
X0079190Y0115850D03*
X0097690Y0115600D03*
X0087060Y0069600D03*
X0140060Y0100100D03*
X0140070Y0119105D03*
X0104995Y0169170D03*
X0134930Y0264095D03*
X0184995Y0219170D03*
X0207495Y0218920D03*
X0152495Y0044170D03*
X0024995Y0201670D03*
D25*
X0197500Y0074100D03*
X0197500Y0064100D03*
X0197500Y0054100D03*
X0197500Y0044100D03*
X0227500Y0044100D03*
X0227500Y0054100D03*
X0227500Y0064100D03*
X0227500Y0074100D03*
D26*
X0173750Y0064100D03*
X0173750Y0054100D03*
X0173750Y0044100D03*
D27*
X0162500Y0019100D03*
X0152500Y0019100D03*
X0210000Y0019100D03*
X0220000Y0019100D03*
M02*
