%
M48
M72
T01C0.01575
T02C0.01969
T03C0.02362
T04C0.02756
T05C0.03150
T06C0.03200
T07C0.04000
T08C0.04331
T09C0.05512
T10C0.08661
T11C0.09843
%
T01
X20000Y66160
X20000Y74040
X30000Y74100
X40000Y74100
X50000Y74100
X60000Y74100
X70000Y74004
X80000Y74100
X87060Y69600
X94940Y69600
X87500Y56600
X87500Y26600
X110000Y89100
X120000Y89100
X130000Y89100
X140060Y100100
X147940Y100100
X130000Y119100
X130000Y129100
X120000Y129100
X120000Y119100
X110000Y119100
X110000Y129100
X100000Y129100
X90000Y129100
X89810Y115600
X97690Y115600
X80000Y104100
X79190Y115850
X71310Y115850
X70000Y126600
X70000Y104004
X60000Y104100
X50000Y104100
X40000Y104100
X30000Y104100
X20000Y116600
X20000Y146600
X40000Y179100
X40000Y201696
X40000Y231696
X70000Y179100
X70000Y156600
X90000Y159100
X100000Y159100
X110000Y159100
X120000Y159100
X120000Y169100
X130000Y159100
X135000Y174100
X145000Y174100
X145000Y204100
X135000Y204100
X120000Y199100
X120000Y211600
X110000Y211600
X100000Y211600
X90000Y211696
X80000Y211600
X80000Y241600
X90000Y241696
X100000Y241600
X110000Y241600
X120000Y241600
X160000Y241600
X170000Y241600
X170000Y211600
X160000Y211600
X195000Y204100
X205000Y204100
X205000Y174100
X195000Y174100
X215000Y161600
X215000Y131600
X200000Y131600
X190000Y131600
X180000Y131600
X170000Y131600
X170000Y101600
X180000Y101600
X190000Y101600
X200000Y101600
X197500Y34100
X182500Y34100
X152500Y34100
X227500Y34100
T02
X9500Y8350
X22000Y23350
X17750Y39600
X9500Y39600
X25000Y79350
X9500Y82100
X9500Y124600
X17750Y124600
X25000Y166600
X17750Y167100
X25000Y176600
X25000Y186600
X33750Y196100
X40000Y189100
X45750Y174600
X54500Y174600
X60000Y189100
X52500Y201600
X58500Y206350
X52500Y211600
X52500Y221600
X70000Y211600
X80000Y199100
X80000Y189100
X80000Y179100
X80000Y169100
X90000Y169100
X90250Y151600
X104995Y169170
X104998Y177030
X114000Y177100
X120250Y192100
X122250Y205600
X132500Y210100
X132750Y194600
X132750Y180100
X137250Y158100
X147750Y146600
X153000Y124600
X147930Y119102
X154500Y105350
X165250Y105100
X167750Y88350
X167750Y70850
X173750Y64100
X173750Y54100
X173750Y44100
X160250Y35850
X152495Y44170
X152498Y52030
X137750Y80850
X122750Y95850
X112750Y110850
X95000Y101600
X95000Y91600
X95000Y81600
X102500Y81600
X122750Y55850
X112750Y42100
X102750Y42100
X115000Y19100
X122750Y18350
X122750Y8350
X135000Y19100
X160250Y8350
X177500Y19100
X187500Y19100
X197500Y19100
X197750Y8350
X205500Y39600
X233000Y39600
X233000Y8350
X233000Y82100
X208000Y82100
X207750Y97600
X222750Y124600
X233000Y124600
X233000Y167100
X222750Y167100
X210250Y197100
X219250Y209600
X207495Y218920
X207498Y226780
X192750Y252100
X184998Y227030
X184995Y219170
X170250Y222100
X170250Y194600
X190250Y184600
X192750Y167100
X190500Y124600
X185000Y105100
X165500Y124600
X162250Y158100
X140070Y119105
X112750Y143350
X92750Y200850
X82250Y222850
X70000Y231600
X58500Y250850
X58500Y258850
X58500Y266350
X48000Y294600
X48000Y334600
X48000Y375350
X9500Y334600
X9500Y294600
X21500Y254600
X9500Y252100
X9500Y209600
X24998Y209530
X24995Y201670
X9500Y167100
X47750Y152100
X57750Y124600
X65250Y152100
X70000Y169100
X72750Y93350
X85250Y18350
X85250Y8350
X47750Y8350
X47750Y18350
X122250Y222850
X122250Y232100
X132750Y227100
X135250Y247100
X126500Y252850
X127070Y264098
X134930Y264095
X123000Y294600
X125500Y337100
X125500Y375350
X155500Y375350
X155500Y334600
X155500Y294600
X175250Y252100
X193000Y294600
X193000Y334600
X193000Y375350
X233000Y334600
X233000Y294600
X233000Y252100
X225250Y252100
X233000Y209600
X88000Y294600
X88000Y334600
X88000Y375350
T03
X137500Y239100
X137500Y219100
X150000Y219100
X150000Y239100
X165000Y164100
X185000Y164100
X215000Y184100
X215000Y204100
X215000Y121600
X215000Y101600
X187500Y64100
X187500Y44100
X97500Y36600
X97500Y56600
X77500Y56600
X77500Y36600
X20000Y84100
X20000Y104100
X40000Y156600
X40000Y169100
X60000Y169100
X60000Y156600
X80000Y149100
X80000Y129100
T04
X113250Y281600
X135000Y281600
T05
X135000Y69100
X135000Y59100
X135000Y49100
X135000Y29100
X115000Y29100
X115000Y49100
X115000Y59100
X115000Y69100
T06
X157500Y74100
X157500Y84100
X187500Y84100
X187500Y74100
X197500Y74100
X197500Y64100
X197500Y54100
X197500Y44100
X227500Y44100
X227500Y54100
X227500Y64100
X227500Y74100
X185000Y174100
X175000Y174100
X165000Y174100
X155000Y174100
X155000Y204100
X165000Y204100
X175000Y204100
X185000Y204100
X60000Y146600
X50000Y146600
X40000Y146600
X30000Y146600
X30000Y116600
X40000Y116600
X50000Y116600
X60000Y116600
T07
X152500Y19100
X162500Y19100
X210000Y19100
X220000Y19100
T08
X202500Y142663
X182500Y142663
X162500Y142663
X170000Y262663
X190000Y262663
X210000Y262663
X70000Y262663
X50000Y262663
X30000Y262663
T09
X33051Y309100
X33051Y334100
X33051Y359100
X96949Y359100
X96949Y334100
X96949Y309100
X145551Y309100
X145551Y334100
X145551Y359100
X209449Y359100
X209449Y334100
X209449Y309100
T10
X68150Y244100
X48000Y244100
X27750Y244100
T11
X121250Y326163
X121250Y349785
M30
