%
M48
M72
T01C0.01575
T02C0.01969
T03C0.02362
T04C0.02756
T05C0.03543
T06C0.04331
T07C0.05512
T08C0.07874
T09C0.09843
%
T01
X27500Y50435
X47500Y50435
X47500Y80435
X42500Y90435
X32500Y90435
X22500Y90435
X27500Y80435
X22500Y120435
X32500Y120435
X42500Y120435
X87500Y67935
X87500Y57935
X117500Y57935
X117500Y67935
X131250Y72935
X141250Y72935
X123750Y95435
X123750Y105435
X123750Y115435
X123750Y125435
X123750Y135435
X123750Y145435
X123750Y155435
X123750Y165435
X123750Y175435
X151250Y172935
X151250Y142935
X176250Y142935
X176250Y132935
X176250Y122935
X176250Y112935
X206250Y112935
X206250Y122935
X206250Y132935
X206250Y142935
X141250Y42935
X131250Y42935
X93750Y95435
X93750Y105435
X93750Y115435
X93750Y125435
X93750Y135435
X93750Y145435
X93750Y155435
X93750Y165435
X93750Y175435
T02
X9500Y7685
X9500Y38435
X27000Y73435
X27500Y86685
X9500Y78435
X21250Y112685
X9500Y118435
X9500Y158435
X19500Y158435
X40000Y161685
X63750Y142685
X58750Y127685
X63750Y112685
X65750Y95435
X65750Y85435
X74250Y77935
X74250Y67935
X74250Y57935
X77500Y50435
X77500Y40435
X81250Y27685
X81250Y17685
X81250Y7685
X57500Y40435
X57500Y50435
X51250Y72685
X51250Y87685
X76250Y90185
X85750Y85435
X85750Y95435
X80000Y105435
X80000Y115435
X80000Y125435
X80000Y135435
X80000Y145435
X80000Y155435
X77250Y168185
X90500Y198435
X90500Y238435
X90500Y276685
X125500Y276685
X153000Y276685
X125500Y240935
X153000Y238435
X153000Y195935
X133000Y193435
X111250Y153935
X106250Y150185
X116250Y150185
X132250Y143185
X132250Y128185
X148752Y125005
X148755Y132865
X158750Y101685
X132250Y98185
X132250Y83185
X116250Y92685
X106250Y92685
X111250Y62685
X98750Y62685
X111250Y32685
X121250Y32685
X121250Y7685
X161250Y7685
X161250Y17685
X161250Y27685
X198000Y68435
X198000Y93435
X193000Y113435
X188000Y135935
X213000Y150935
X220000Y142935
X220000Y132935
X220000Y122935
X223750Y118435
X233000Y118435
X233000Y78435
X223000Y78435
X233000Y38435
X233000Y7685
X201250Y7685
X201250Y17685
X201250Y38435
X106250Y122685
X48000Y198435
X19500Y198435
X9500Y198435
X9500Y238435
X48000Y238435
X48000Y276685
X190500Y276685
X190500Y238435
X190500Y198435
X233000Y198435
X233000Y238435
X233000Y158435
X41250Y27685
X41250Y17685
X41250Y7685
T03
X47500Y40435
X37500Y60435
X37500Y80435
X52500Y100435
X65000Y103935
X52500Y120435
X52500Y132935
X40000Y132935
X27500Y132935
X27500Y152935
X40000Y152935
X52500Y152935
X65000Y152935
X65000Y132935
X65000Y123935
X57500Y80435
X57500Y60435
X27500Y40435
X145000Y112935
X152500Y95435
X165000Y95435
X165000Y112935
X165250Y122935
X165250Y142935
X173750Y152935
X193750Y152935
X165000Y75435
X165000Y65435
X152500Y65435
X152500Y75435
X152500Y45435
X165000Y45435
T04
X161750Y151185
X161750Y172935
T05
X136500Y22935
X136500Y12935
X126500Y12935
X126500Y22935
X116500Y22935
X116500Y12935
X106500Y12935
X106500Y22935
T06
X101250Y83998
X121250Y83998
X141250Y83998
X173750Y163998
X193750Y163998
X213750Y163998
X68750Y163998
X48750Y163998
X28750Y163998
T07
X34551Y212185
X34551Y237185
X34551Y262185
X98449Y262185
X98449Y237185
X98449Y212185
X143801Y212185
X143801Y237185
X143801Y262185
X207699Y262185
X207699Y237185
X207699Y212185
T08
X207500Y97935
X207500Y77935
X207500Y57935
X187500Y57935
X187500Y77935
X187500Y97935
T09
X121250Y229498
X121250Y253120
M30
