%
M48
M72
T01C0.01575
T02C0.01969
T03C0.02362
T04C0.02756
T05C0.03543
T06C0.05512
T07C0.07874
T08C0.09843
%
T01
X22500Y42935
X22500Y52935
X32500Y62935
X42500Y52935
X42500Y42935
X52500Y62935
X52500Y82935
X42500Y82935
X42500Y92935
X32500Y92935
X32500Y82935
X22500Y82935
X22500Y92935
X22500Y122935
X27500Y132935
X32500Y122935
X40000Y132935
X42500Y122935
X52500Y122935
X52500Y132935
X65000Y135435
X65000Y127935
X65000Y107935
X52500Y102935
X90750Y87935
X93750Y97935
X93750Y107935
X93750Y117935
X93750Y127935
X93750Y137935
X93750Y147935
X93750Y157935
X98750Y177935
X123750Y157935
X123750Y147935
X123750Y137935
X123750Y127935
X123750Y117935
X123750Y107935
X123750Y97935
X132500Y75435
X142500Y75435
X152500Y77935
X152500Y67935
X165000Y67935
X165000Y77935
X165000Y97935
X166000Y110435
X173750Y112935
X173750Y122935
X173750Y132935
X173750Y142935
X173750Y152935
X160500Y142935
X146250Y140435
X146250Y130875
X146250Y122995
X146000Y110435
X152500Y97935
X160500Y122935
X193750Y152935
X203750Y142935
X203750Y132935
X203750Y122935
X203750Y112935
X165000Y47935
X152500Y47935
X142500Y45435
X132500Y45435
X90750Y57935
X82500Y57935
X72500Y57935
X72500Y27935
X82500Y27935
X52500Y152935
X40000Y152935
X27500Y152935
X65000Y155435
X68750Y177935
X146250Y170435
T02
X160000Y172935
X160000Y152935
X217500Y142935
X217500Y132935
X217500Y122935
X82500Y97935
X82500Y87935
X82500Y70435
X72500Y70435
X62500Y70435
X62500Y52935
X52500Y52935
X52500Y32935
X62500Y32935
X62500Y87935
X62500Y97935
X80000Y107935
X80000Y117935
X80000Y127935
X80000Y137935
X80000Y147935
X80000Y157935
T03
X109000Y165435
T04
X107500Y22935
X107500Y12935
X117500Y12935
X117500Y22935
X127500Y22935
X127500Y12935
X137500Y12935
X137500Y22935
T05
X141250Y83998
X121250Y83998
X101250Y83998
X68750Y163998
X48750Y163998
X28750Y163998
X173750Y163998
X193750Y163998
X213750Y163998
T06
X207699Y212185
X207699Y237185
X207699Y262185
X143801Y262185
X143801Y237185
X143801Y212185
X98449Y212185
X98449Y237185
X98449Y262185
X34551Y262185
X34551Y237185
X34551Y212185
T07
X187500Y97935
X187500Y77935
X187500Y57935
X207500Y57935
X207500Y77935
X207500Y97935
T08
X121250Y229498
X121250Y253120
M30
