G75*
%MOIN*%
%OFA0B0*%
%FSLAX25Y25*%
%IPPOS*%
%LPD*%
%AMOC8*
5,1,8,0,0,1.08239X$1,22.5*
%
%ADD10C,0.00000*%
%ADD11C,0.06299*%
%ADD12R,0.12661X0.12661*%
%ADD13C,0.12661*%
%ADD14C,0.04331*%
%ADD15C,0.05906*%
%ADD16R,0.05906X0.05906*%
%ADD17C,0.01600*%
D10*
X0001600Y0012850D02*
X0044100Y0012850D01*
X0044100Y0001600D01*
X0119021Y0001600D01*
X0119019Y0107851D01*
X0119100Y0107850D02*
X0044100Y0107850D01*
X0044100Y0057850D01*
X0001600Y0057850D01*
X0001600Y0012850D01*
D11*
X0066600Y0085350D03*
X0076600Y0085350D03*
X0086600Y0085350D03*
X0096600Y0085350D03*
X0096600Y0095350D03*
X0086600Y0095350D03*
X0076600Y0095350D03*
X0066600Y0095350D03*
D12*
X0061600Y0054350D03*
D13*
X0081600Y0054350D03*
X0081600Y0035350D03*
X0061600Y0035350D03*
X0061600Y0017100D03*
X0081600Y0017100D03*
X0101600Y0017100D03*
X0101600Y0035350D03*
X0101600Y0054350D03*
D14*
X0026600Y0050350D03*
X0026600Y0020350D03*
D15*
X0009100Y0040350D03*
D16*
X0009100Y0030350D03*
D17*
X0009100Y0022850D01*
X0011600Y0020350D01*
X0026600Y0020350D01*
X0009100Y0040350D02*
X0009100Y0042350D01*
X0011600Y0044850D01*
X0079100Y0044850D01*
X0081600Y0047350D01*
X0081600Y0054350D01*
X0101600Y0054350D02*
X0101600Y0047850D01*
X0104100Y0045350D01*
X0109100Y0045350D01*
X0111600Y0042850D01*
X0111600Y0028850D01*
X0109100Y0026350D01*
X0084100Y0026350D01*
X0081600Y0023850D01*
X0081600Y0017100D01*
X0046600Y0050350D02*
X0026600Y0050350D01*
X0046600Y0050350D02*
X0049100Y0052850D01*
X0049100Y0075350D01*
X0051600Y0077850D01*
X0084100Y0077850D01*
X0086600Y0080350D01*
X0086600Y0085350D01*
M02*
