%
M48
M72
T01C0.01575
T02C0.01969
T03C0.02756
T04C0.07874
%
T01
X26000Y18500
X26000Y48500
T02
X8500Y38500
X8500Y28500
T03
X66000Y78500
X76000Y78500
X86000Y78500
X96000Y78500
X96000Y88500
X86000Y88500
X76000Y88500
X66000Y88500
T04
X61000Y53500
X81000Y53500
X101000Y53500
X101000Y33500
X81000Y33500
X61000Y33500
X61000Y13500
X81000Y13500
X101000Y13500
M30
