G75*
%MOIN*%
%OFA0B0*%
%FSLAX25Y25*%
%IPPOS*%
%LPD*%
%AMOC8*
5,1,8,0,0,1.08239X$1,22.5*
%
%ADD10C,0.00000*%
%ADD11C,0.05512*%
%ADD12R,0.11811X0.11811*%
%ADD13C,0.11811*%
%ADD14C,0.04331*%
%ADD15C,0.05118*%
%ADD16R,0.05118X0.05118*%
%ADD17C,0.01600*%
D10*
X0001000Y0013500D02*
X0043500Y0013500D01*
X0043500Y0001000D01*
X0118421Y0001000D01*
X0118421Y0100951D01*
X0118500Y0101000D02*
X0043500Y0101000D01*
X0043500Y0053500D01*
X0001000Y0053500D01*
X0001000Y0013500D01*
D11*
X0066000Y0078500D03*
X0076000Y0078500D03*
X0086000Y0078500D03*
X0096000Y0078500D03*
X0096000Y0088500D03*
X0086000Y0088500D03*
X0076000Y0088500D03*
X0066000Y0088500D03*
D12*
X0061000Y0053500D03*
D13*
X0081000Y0053500D03*
X0101000Y0053500D03*
X0101000Y0033500D03*
X0081000Y0033500D03*
X0061000Y0033500D03*
X0061000Y0013500D03*
X0081000Y0013500D03*
X0101000Y0013500D03*
D14*
X0026000Y0018500D03*
X0026000Y0048500D03*
D15*
X0008500Y0038500D03*
D16*
X0008500Y0028500D03*
D17*
X0008500Y0021000D01*
X0011000Y0018500D01*
X0026000Y0018500D01*
X0008500Y0038500D02*
X0008500Y0041000D01*
X0011000Y0043500D01*
X0078500Y0043500D01*
X0081000Y0046000D01*
X0081000Y0053500D01*
X0091000Y0068500D02*
X0088500Y0071000D01*
X0078500Y0071000D01*
X0076000Y0073500D01*
X0076000Y0078500D01*
X0083500Y0083500D02*
X0051000Y0083500D01*
X0048500Y0081000D01*
X0048500Y0051000D01*
X0046000Y0048500D01*
X0026000Y0048500D01*
X0081000Y0033500D02*
X0088500Y0033500D01*
X0091000Y0036000D01*
X0091000Y0068500D01*
X0086000Y0078500D02*
X0086000Y0081000D01*
X0083500Y0083500D01*
X0101000Y0053500D02*
X0101000Y0046000D01*
X0103500Y0043500D01*
X0108500Y0043500D01*
X0111000Y0041000D01*
X0111000Y0026000D01*
X0108500Y0023500D01*
X0083500Y0023500D01*
X0081000Y0021000D01*
X0081000Y0013500D01*
M02*
