G75*
%MOIN*%
%OFA0B0*%
%FSLAX25Y25*%
%IPPOS*%
%LPD*%
%AMOC8*
5,1,8,0,0,1.08239X$1,22.5*
%
%ADD10C,0.00000*%
%ADD11C,0.00800*%
%ADD12C,0.00600*%
%ADD13C,0.00400*%
%ADD14C,0.00500*%
%ADD15C,0.00050*%
%ADD16C,0.00300*%
D10*
X0001000Y0013500D02*
X0043500Y0013500D01*
X0043500Y0001000D01*
X0118421Y0001000D01*
X0118421Y0100951D01*
X0118500Y0101000D02*
X0043500Y0101000D01*
X0043500Y0053500D01*
X0001000Y0053500D01*
X0001000Y0013500D01*
D11*
X0046630Y0066965D02*
X0046630Y0100035D01*
X0073587Y0100035D01*
X0088413Y0100035D01*
X0115370Y0100035D01*
X0115370Y0066965D01*
X0046630Y0066965D01*
X0051059Y0070606D02*
X0051059Y0096394D01*
X0073587Y0096394D01*
X0073587Y0093933D01*
X0088413Y0093933D01*
X0088413Y0096394D01*
X0110941Y0096394D01*
X0110941Y0070606D01*
X0051059Y0070606D01*
X0073587Y0096394D02*
X0073587Y0100035D01*
X0088413Y0100035D02*
X0088413Y0096394D01*
D12*
X0085070Y0070672D02*
X0085070Y0066269D01*
X0083602Y0066269D02*
X0086538Y0066269D01*
X0083602Y0069204D02*
X0085070Y0070672D01*
X0081934Y0070672D02*
X0081934Y0066269D01*
X0080466Y0067736D01*
X0078998Y0066269D01*
X0078998Y0070672D01*
X0077330Y0069938D02*
X0076596Y0070672D01*
X0075128Y0070672D01*
X0074394Y0069938D01*
X0074394Y0069204D01*
X0075128Y0068470D01*
X0076596Y0068470D01*
X0077330Y0067736D01*
X0077330Y0067002D01*
X0076596Y0066269D01*
X0075128Y0066269D01*
X0074394Y0067002D01*
X0045488Y0064681D02*
X0045488Y0001925D01*
X0116512Y0001925D01*
X0116512Y0064681D01*
X0045488Y0064681D01*
X0029000Y0044563D02*
X0023000Y0044563D01*
X0022940Y0044561D01*
X0022879Y0044556D01*
X0022820Y0044547D01*
X0022761Y0044534D01*
X0022702Y0044518D01*
X0022645Y0044498D01*
X0022590Y0044475D01*
X0022535Y0044448D01*
X0022483Y0044419D01*
X0022432Y0044386D01*
X0022383Y0044350D01*
X0022337Y0044312D01*
X0022293Y0044270D01*
X0022251Y0044226D01*
X0022213Y0044180D01*
X0022177Y0044131D01*
X0022144Y0044080D01*
X0022115Y0044028D01*
X0022088Y0043973D01*
X0022065Y0043918D01*
X0022045Y0043861D01*
X0022029Y0043802D01*
X0022016Y0043743D01*
X0022007Y0043684D01*
X0022002Y0043623D01*
X0022000Y0043563D01*
X0022000Y0039563D01*
X0022500Y0039063D01*
X0022500Y0027937D01*
X0022000Y0027437D01*
X0022000Y0023437D01*
X0022002Y0023377D01*
X0022007Y0023316D01*
X0022016Y0023257D01*
X0022029Y0023198D01*
X0022045Y0023139D01*
X0022065Y0023082D01*
X0022088Y0023027D01*
X0022115Y0022972D01*
X0022144Y0022920D01*
X0022177Y0022869D01*
X0022213Y0022820D01*
X0022251Y0022774D01*
X0022293Y0022730D01*
X0022337Y0022688D01*
X0022383Y0022650D01*
X0022432Y0022614D01*
X0022483Y0022581D01*
X0022535Y0022552D01*
X0022590Y0022525D01*
X0022645Y0022502D01*
X0022702Y0022482D01*
X0022761Y0022466D01*
X0022820Y0022453D01*
X0022879Y0022444D01*
X0022940Y0022439D01*
X0023000Y0022437D01*
X0029000Y0022437D01*
X0029060Y0022439D01*
X0029121Y0022444D01*
X0029180Y0022453D01*
X0029239Y0022466D01*
X0029298Y0022482D01*
X0029355Y0022502D01*
X0029410Y0022525D01*
X0029465Y0022552D01*
X0029517Y0022581D01*
X0029568Y0022614D01*
X0029617Y0022650D01*
X0029663Y0022688D01*
X0029707Y0022730D01*
X0029749Y0022774D01*
X0029787Y0022820D01*
X0029823Y0022869D01*
X0029856Y0022920D01*
X0029885Y0022972D01*
X0029912Y0023027D01*
X0029935Y0023082D01*
X0029955Y0023139D01*
X0029971Y0023198D01*
X0029984Y0023257D01*
X0029993Y0023316D01*
X0029998Y0023377D01*
X0030000Y0023437D01*
X0030000Y0027437D01*
X0029500Y0027937D01*
X0029500Y0039063D01*
X0030000Y0039563D01*
X0030000Y0043563D01*
X0029998Y0043623D01*
X0029993Y0043684D01*
X0029984Y0043743D01*
X0029971Y0043802D01*
X0029955Y0043861D01*
X0029935Y0043918D01*
X0029912Y0043973D01*
X0029885Y0044028D01*
X0029856Y0044080D01*
X0029823Y0044131D01*
X0029787Y0044180D01*
X0029749Y0044226D01*
X0029707Y0044270D01*
X0029663Y0044312D01*
X0029617Y0044350D01*
X0029568Y0044386D01*
X0029517Y0044419D01*
X0029465Y0044448D01*
X0029410Y0044475D01*
X0029355Y0044498D01*
X0029298Y0044518D01*
X0029239Y0044534D01*
X0029180Y0044547D01*
X0029121Y0044556D01*
X0029060Y0044561D01*
X0029000Y0044563D01*
D13*
X0028300Y0036769D02*
X0028300Y0033700D01*
X0028300Y0035235D02*
X0023696Y0035235D01*
X0025231Y0033700D01*
X0025998Y0032165D02*
X0024463Y0032165D01*
X0023696Y0031398D01*
X0023696Y0029096D01*
X0028300Y0029096D01*
X0026765Y0029096D02*
X0026765Y0031398D01*
X0025998Y0032165D01*
X0026765Y0030631D02*
X0028300Y0032165D01*
D14*
X0012400Y0038800D02*
X0004500Y0038800D01*
X0004937Y0039129D02*
X0012008Y0039129D01*
X0003500Y0033500D02*
X0003502Y0033641D01*
X0003508Y0033782D01*
X0003518Y0033922D01*
X0003532Y0034062D01*
X0003550Y0034202D01*
X0003571Y0034341D01*
X0003597Y0034480D01*
X0003626Y0034618D01*
X0003660Y0034754D01*
X0003697Y0034890D01*
X0003738Y0035025D01*
X0003783Y0035159D01*
X0003832Y0035291D01*
X0003884Y0035422D01*
X0003940Y0035551D01*
X0004000Y0035678D01*
X0004063Y0035804D01*
X0004129Y0035928D01*
X0004200Y0036051D01*
X0004273Y0036171D01*
X0004350Y0036289D01*
X0004430Y0036405D01*
X0004514Y0036518D01*
X0004600Y0036629D01*
X0004690Y0036738D01*
X0004783Y0036844D01*
X0004878Y0036947D01*
X0004977Y0037048D01*
X0005078Y0037146D01*
X0005182Y0037241D01*
X0005289Y0037333D01*
X0005398Y0037422D01*
X0005510Y0037507D01*
X0005624Y0037590D01*
X0005740Y0037670D01*
X0005859Y0037746D01*
X0005980Y0037818D01*
X0006102Y0037888D01*
X0006227Y0037953D01*
X0006353Y0038016D01*
X0006481Y0038074D01*
X0006611Y0038129D01*
X0006742Y0038181D01*
X0006875Y0038228D01*
X0007009Y0038272D01*
X0007144Y0038313D01*
X0007280Y0038349D01*
X0007417Y0038381D01*
X0007555Y0038410D01*
X0007693Y0038435D01*
X0007833Y0038455D01*
X0007973Y0038472D01*
X0008113Y0038485D01*
X0008254Y0038494D01*
X0008394Y0038499D01*
X0008535Y0038500D01*
X0008676Y0038497D01*
X0008817Y0038490D01*
X0008957Y0038479D01*
X0009097Y0038464D01*
X0009237Y0038445D01*
X0009376Y0038423D01*
X0009514Y0038396D01*
X0009652Y0038366D01*
X0009788Y0038331D01*
X0009924Y0038293D01*
X0010058Y0038251D01*
X0010192Y0038205D01*
X0010324Y0038156D01*
X0010454Y0038102D01*
X0010583Y0038045D01*
X0010710Y0037985D01*
X0010836Y0037921D01*
X0010959Y0037853D01*
X0011081Y0037782D01*
X0011201Y0037708D01*
X0011318Y0037630D01*
X0011433Y0037549D01*
X0011546Y0037465D01*
X0011657Y0037378D01*
X0011765Y0037287D01*
X0011870Y0037194D01*
X0011973Y0037097D01*
X0012073Y0036998D01*
X0012170Y0036896D01*
X0012264Y0036791D01*
X0012355Y0036684D01*
X0012443Y0036574D01*
X0012528Y0036462D01*
X0012610Y0036347D01*
X0012689Y0036230D01*
X0012764Y0036111D01*
X0012836Y0035990D01*
X0012904Y0035867D01*
X0012969Y0035742D01*
X0013031Y0035615D01*
X0013088Y0035486D01*
X0013143Y0035356D01*
X0013193Y0035225D01*
X0013240Y0035092D01*
X0013283Y0034958D01*
X0013322Y0034822D01*
X0013357Y0034686D01*
X0013389Y0034549D01*
X0013416Y0034411D01*
X0013440Y0034272D01*
X0013460Y0034132D01*
X0013476Y0033992D01*
X0013488Y0033852D01*
X0013496Y0033711D01*
X0013500Y0033570D01*
X0013500Y0033430D01*
X0013496Y0033289D01*
X0013488Y0033148D01*
X0013476Y0033008D01*
X0013460Y0032868D01*
X0013440Y0032728D01*
X0013416Y0032589D01*
X0013389Y0032451D01*
X0013357Y0032314D01*
X0013322Y0032178D01*
X0013283Y0032042D01*
X0013240Y0031908D01*
X0013193Y0031775D01*
X0013143Y0031644D01*
X0013088Y0031514D01*
X0013031Y0031385D01*
X0012969Y0031258D01*
X0012904Y0031133D01*
X0012836Y0031010D01*
X0012764Y0030889D01*
X0012689Y0030770D01*
X0012610Y0030653D01*
X0012528Y0030538D01*
X0012443Y0030426D01*
X0012355Y0030316D01*
X0012264Y0030209D01*
X0012170Y0030104D01*
X0012073Y0030002D01*
X0011973Y0029903D01*
X0011870Y0029806D01*
X0011765Y0029713D01*
X0011657Y0029622D01*
X0011546Y0029535D01*
X0011433Y0029451D01*
X0011318Y0029370D01*
X0011201Y0029292D01*
X0011081Y0029218D01*
X0010959Y0029147D01*
X0010836Y0029079D01*
X0010710Y0029015D01*
X0010583Y0028955D01*
X0010454Y0028898D01*
X0010324Y0028844D01*
X0010192Y0028795D01*
X0010058Y0028749D01*
X0009924Y0028707D01*
X0009788Y0028669D01*
X0009652Y0028634D01*
X0009514Y0028604D01*
X0009376Y0028577D01*
X0009237Y0028555D01*
X0009097Y0028536D01*
X0008957Y0028521D01*
X0008817Y0028510D01*
X0008676Y0028503D01*
X0008535Y0028500D01*
X0008394Y0028501D01*
X0008254Y0028506D01*
X0008113Y0028515D01*
X0007973Y0028528D01*
X0007833Y0028545D01*
X0007693Y0028565D01*
X0007555Y0028590D01*
X0007417Y0028619D01*
X0007280Y0028651D01*
X0007144Y0028687D01*
X0007009Y0028728D01*
X0006875Y0028772D01*
X0006742Y0028819D01*
X0006611Y0028871D01*
X0006481Y0028926D01*
X0006353Y0028984D01*
X0006227Y0029047D01*
X0006102Y0029112D01*
X0005980Y0029182D01*
X0005859Y0029254D01*
X0005740Y0029330D01*
X0005624Y0029410D01*
X0005510Y0029493D01*
X0005398Y0029578D01*
X0005289Y0029667D01*
X0005182Y0029759D01*
X0005078Y0029854D01*
X0004977Y0029952D01*
X0004878Y0030053D01*
X0004783Y0030156D01*
X0004690Y0030262D01*
X0004600Y0030371D01*
X0004514Y0030482D01*
X0004430Y0030595D01*
X0004350Y0030711D01*
X0004273Y0030829D01*
X0004200Y0030949D01*
X0004129Y0031072D01*
X0004063Y0031196D01*
X0004000Y0031322D01*
X0003940Y0031449D01*
X0003884Y0031578D01*
X0003832Y0031709D01*
X0003783Y0031841D01*
X0003738Y0031975D01*
X0003697Y0032110D01*
X0003660Y0032246D01*
X0003626Y0032382D01*
X0003597Y0032520D01*
X0003571Y0032659D01*
X0003550Y0032798D01*
X0003532Y0032938D01*
X0003518Y0033078D01*
X0003508Y0033218D01*
X0003502Y0033359D01*
X0003500Y0033500D01*
X0012009Y0039129D02*
X0012144Y0039036D01*
X0012278Y0038941D01*
X0012409Y0038841D01*
X0012537Y0038739D01*
X0012663Y0038634D01*
X0012787Y0038525D01*
X0012908Y0038414D01*
X0013026Y0038300D01*
X0013141Y0038183D01*
X0013254Y0038063D01*
X0013363Y0037940D01*
X0013470Y0037815D01*
X0013573Y0037688D01*
X0013674Y0037558D01*
X0013771Y0037425D01*
X0013865Y0037290D01*
X0013955Y0037153D01*
X0014043Y0037014D01*
X0014127Y0036873D01*
X0014207Y0036730D01*
X0014284Y0036584D01*
X0014358Y0036437D01*
X0014428Y0036289D01*
X0014494Y0036138D01*
X0014557Y0035986D01*
X0014616Y0035833D01*
X0014671Y0035678D01*
X0014723Y0035522D01*
X0014770Y0035365D01*
X0014814Y0035207D01*
X0014854Y0035047D01*
X0014890Y0034887D01*
X0014923Y0034726D01*
X0014951Y0034564D01*
X0014976Y0034402D01*
X0014996Y0034239D01*
X0015013Y0034075D01*
X0015026Y0033911D01*
X0015034Y0033747D01*
X0015039Y0033583D01*
X0015040Y0033419D01*
X0015037Y0033254D01*
X0015029Y0033090D01*
X0015018Y0032926D01*
X0015003Y0032763D01*
X0014984Y0032599D01*
X0014961Y0032437D01*
X0014934Y0032275D01*
X0014903Y0032113D01*
X0014869Y0031952D01*
X0014830Y0031793D01*
X0014788Y0031634D01*
X0014741Y0031476D01*
X0014691Y0031320D01*
X0014638Y0031165D01*
X0014580Y0031011D01*
X0014519Y0030858D01*
X0014454Y0030707D01*
X0014385Y0030558D01*
X0014313Y0030410D01*
X0014238Y0030264D01*
X0014158Y0030120D01*
X0014076Y0029978D01*
X0013990Y0029838D01*
X0013900Y0029700D01*
X0003500Y0033500D02*
X0003502Y0033641D01*
X0003508Y0033782D01*
X0003518Y0033922D01*
X0003532Y0034062D01*
X0003550Y0034202D01*
X0003571Y0034341D01*
X0003597Y0034480D01*
X0003626Y0034618D01*
X0003660Y0034754D01*
X0003697Y0034890D01*
X0003738Y0035025D01*
X0003783Y0035159D01*
X0003832Y0035291D01*
X0003884Y0035422D01*
X0003940Y0035551D01*
X0004000Y0035678D01*
X0004063Y0035804D01*
X0004129Y0035928D01*
X0004200Y0036051D01*
X0004273Y0036171D01*
X0004350Y0036289D01*
X0004430Y0036405D01*
X0004514Y0036518D01*
X0004600Y0036629D01*
X0004690Y0036738D01*
X0004783Y0036844D01*
X0004878Y0036947D01*
X0004977Y0037048D01*
X0005078Y0037146D01*
X0005182Y0037241D01*
X0005289Y0037333D01*
X0005398Y0037422D01*
X0005510Y0037507D01*
X0005624Y0037590D01*
X0005740Y0037670D01*
X0005859Y0037746D01*
X0005980Y0037818D01*
X0006102Y0037888D01*
X0006227Y0037953D01*
X0006353Y0038016D01*
X0006481Y0038074D01*
X0006611Y0038129D01*
X0006742Y0038181D01*
X0006875Y0038228D01*
X0007009Y0038272D01*
X0007144Y0038313D01*
X0007280Y0038349D01*
X0007417Y0038381D01*
X0007555Y0038410D01*
X0007693Y0038435D01*
X0007833Y0038455D01*
X0007973Y0038472D01*
X0008113Y0038485D01*
X0008254Y0038494D01*
X0008394Y0038499D01*
X0008535Y0038500D01*
X0008676Y0038497D01*
X0008817Y0038490D01*
X0008957Y0038479D01*
X0009097Y0038464D01*
X0009237Y0038445D01*
X0009376Y0038423D01*
X0009514Y0038396D01*
X0009652Y0038366D01*
X0009788Y0038331D01*
X0009924Y0038293D01*
X0010058Y0038251D01*
X0010192Y0038205D01*
X0010324Y0038156D01*
X0010454Y0038102D01*
X0010583Y0038045D01*
X0010710Y0037985D01*
X0010836Y0037921D01*
X0010959Y0037853D01*
X0011081Y0037782D01*
X0011201Y0037708D01*
X0011318Y0037630D01*
X0011433Y0037549D01*
X0011546Y0037465D01*
X0011657Y0037378D01*
X0011765Y0037287D01*
X0011870Y0037194D01*
X0011973Y0037097D01*
X0012073Y0036998D01*
X0012170Y0036896D01*
X0012264Y0036791D01*
X0012355Y0036684D01*
X0012443Y0036574D01*
X0012528Y0036462D01*
X0012610Y0036347D01*
X0012689Y0036230D01*
X0012764Y0036111D01*
X0012836Y0035990D01*
X0012904Y0035867D01*
X0012969Y0035742D01*
X0013031Y0035615D01*
X0013088Y0035486D01*
X0013143Y0035356D01*
X0013193Y0035225D01*
X0013240Y0035092D01*
X0013283Y0034958D01*
X0013322Y0034822D01*
X0013357Y0034686D01*
X0013389Y0034549D01*
X0013416Y0034411D01*
X0013440Y0034272D01*
X0013460Y0034132D01*
X0013476Y0033992D01*
X0013488Y0033852D01*
X0013496Y0033711D01*
X0013500Y0033570D01*
X0013500Y0033430D01*
X0013496Y0033289D01*
X0013488Y0033148D01*
X0013476Y0033008D01*
X0013460Y0032868D01*
X0013440Y0032728D01*
X0013416Y0032589D01*
X0013389Y0032451D01*
X0013357Y0032314D01*
X0013322Y0032178D01*
X0013283Y0032042D01*
X0013240Y0031908D01*
X0013193Y0031775D01*
X0013143Y0031644D01*
X0013088Y0031514D01*
X0013031Y0031385D01*
X0012969Y0031258D01*
X0012904Y0031133D01*
X0012836Y0031010D01*
X0012764Y0030889D01*
X0012689Y0030770D01*
X0012610Y0030653D01*
X0012528Y0030538D01*
X0012443Y0030426D01*
X0012355Y0030316D01*
X0012264Y0030209D01*
X0012170Y0030104D01*
X0012073Y0030002D01*
X0011973Y0029903D01*
X0011870Y0029806D01*
X0011765Y0029713D01*
X0011657Y0029622D01*
X0011546Y0029535D01*
X0011433Y0029451D01*
X0011318Y0029370D01*
X0011201Y0029292D01*
X0011081Y0029218D01*
X0010959Y0029147D01*
X0010836Y0029079D01*
X0010710Y0029015D01*
X0010583Y0028955D01*
X0010454Y0028898D01*
X0010324Y0028844D01*
X0010192Y0028795D01*
X0010058Y0028749D01*
X0009924Y0028707D01*
X0009788Y0028669D01*
X0009652Y0028634D01*
X0009514Y0028604D01*
X0009376Y0028577D01*
X0009237Y0028555D01*
X0009097Y0028536D01*
X0008957Y0028521D01*
X0008817Y0028510D01*
X0008676Y0028503D01*
X0008535Y0028500D01*
X0008394Y0028501D01*
X0008254Y0028506D01*
X0008113Y0028515D01*
X0007973Y0028528D01*
X0007833Y0028545D01*
X0007693Y0028565D01*
X0007555Y0028590D01*
X0007417Y0028619D01*
X0007280Y0028651D01*
X0007144Y0028687D01*
X0007009Y0028728D01*
X0006875Y0028772D01*
X0006742Y0028819D01*
X0006611Y0028871D01*
X0006481Y0028926D01*
X0006353Y0028984D01*
X0006227Y0029047D01*
X0006102Y0029112D01*
X0005980Y0029182D01*
X0005859Y0029254D01*
X0005740Y0029330D01*
X0005624Y0029410D01*
X0005510Y0029493D01*
X0005398Y0029578D01*
X0005289Y0029667D01*
X0005182Y0029759D01*
X0005078Y0029854D01*
X0004977Y0029952D01*
X0004878Y0030053D01*
X0004783Y0030156D01*
X0004690Y0030262D01*
X0004600Y0030371D01*
X0004514Y0030482D01*
X0004430Y0030595D01*
X0004350Y0030711D01*
X0004273Y0030829D01*
X0004200Y0030949D01*
X0004129Y0031072D01*
X0004063Y0031196D01*
X0004000Y0031322D01*
X0003940Y0031449D01*
X0003884Y0031578D01*
X0003832Y0031709D01*
X0003783Y0031841D01*
X0003738Y0031975D01*
X0003697Y0032110D01*
X0003660Y0032246D01*
X0003626Y0032382D01*
X0003597Y0032520D01*
X0003571Y0032659D01*
X0003550Y0032798D01*
X0003532Y0032938D01*
X0003518Y0033078D01*
X0003508Y0033218D01*
X0003502Y0033359D01*
X0003500Y0033500D01*
X0012009Y0039129D02*
X0012144Y0039036D01*
X0012278Y0038941D01*
X0012409Y0038841D01*
X0012537Y0038739D01*
X0012663Y0038634D01*
X0012787Y0038525D01*
X0012908Y0038414D01*
X0013026Y0038300D01*
X0013141Y0038183D01*
X0013254Y0038063D01*
X0013363Y0037940D01*
X0013470Y0037815D01*
X0013573Y0037688D01*
X0013674Y0037558D01*
X0013771Y0037425D01*
X0013865Y0037290D01*
X0013955Y0037153D01*
X0014043Y0037014D01*
X0014127Y0036873D01*
X0014207Y0036730D01*
X0014284Y0036584D01*
X0014358Y0036437D01*
X0014428Y0036289D01*
X0014494Y0036138D01*
X0014557Y0035986D01*
X0014616Y0035833D01*
X0014671Y0035678D01*
X0014723Y0035522D01*
X0014770Y0035365D01*
X0014814Y0035207D01*
X0014854Y0035047D01*
X0014890Y0034887D01*
X0014923Y0034726D01*
X0014951Y0034564D01*
X0014976Y0034402D01*
X0014996Y0034239D01*
X0015013Y0034075D01*
X0015026Y0033911D01*
X0015034Y0033747D01*
X0015039Y0033583D01*
X0015040Y0033419D01*
X0015037Y0033254D01*
X0015029Y0033090D01*
X0015018Y0032926D01*
X0015003Y0032763D01*
X0014984Y0032599D01*
X0014961Y0032437D01*
X0014934Y0032275D01*
X0014903Y0032113D01*
X0014869Y0031952D01*
X0014830Y0031793D01*
X0014788Y0031634D01*
X0014741Y0031476D01*
X0014691Y0031320D01*
X0014638Y0031165D01*
X0014580Y0031011D01*
X0014519Y0030858D01*
X0014454Y0030707D01*
X0014385Y0030558D01*
X0014313Y0030410D01*
X0014238Y0030264D01*
X0014158Y0030120D01*
X0014076Y0029978D01*
X0013990Y0029838D01*
X0013900Y0029700D01*
D15*
X0004799Y0039307D02*
X0005034Y0038923D01*
X0005034Y0038924D02*
X0004899Y0038838D01*
X0004766Y0038749D01*
X0004635Y0038657D01*
X0004507Y0038561D01*
X0004382Y0038463D01*
X0004258Y0038361D01*
X0004138Y0038256D01*
X0004020Y0038149D01*
X0003904Y0038038D01*
X0003792Y0037925D01*
X0003682Y0037808D01*
X0003575Y0037690D01*
X0003471Y0037568D01*
X0003371Y0037444D01*
X0003273Y0037318D01*
X0003179Y0037189D01*
X0003087Y0037057D01*
X0003000Y0036924D01*
X0002915Y0036788D01*
X0002834Y0036651D01*
X0002756Y0036511D01*
X0002682Y0036370D01*
X0002611Y0036226D01*
X0002544Y0036081D01*
X0002481Y0035935D01*
X0002421Y0035786D01*
X0002365Y0035637D01*
X0002312Y0035486D01*
X0002264Y0035334D01*
X0002219Y0035180D01*
X0002178Y0035026D01*
X0002141Y0034870D01*
X0002108Y0034714D01*
X0002078Y0034557D01*
X0002053Y0034399D01*
X0002031Y0034241D01*
X0002014Y0034082D01*
X0002000Y0033923D01*
X0001990Y0033763D01*
X0001985Y0033604D01*
X0001983Y0033444D01*
X0001985Y0033284D01*
X0001992Y0033125D01*
X0002002Y0032965D01*
X0002016Y0032806D01*
X0002034Y0032647D01*
X0002056Y0032489D01*
X0002082Y0032331D01*
X0002112Y0032174D01*
X0002146Y0032018D01*
X0002183Y0031863D01*
X0002225Y0031708D01*
X0002270Y0031555D01*
X0002319Y0031403D01*
X0002372Y0031252D01*
X0002429Y0031103D01*
X0002489Y0030955D01*
X0002553Y0030809D01*
X0002621Y0030664D01*
X0002692Y0030521D01*
X0002767Y0030379D01*
X0002845Y0030240D01*
X0002927Y0030103D01*
X0003012Y0029967D01*
X0003100Y0029834D01*
X0003192Y0029703D01*
X0003286Y0029575D01*
X0003384Y0029449D01*
X0003486Y0029325D01*
X0003590Y0029204D01*
X0003697Y0029085D01*
X0003807Y0028970D01*
X0003920Y0028856D01*
X0004036Y0028746D01*
X0004154Y0028639D01*
X0004275Y0028535D01*
X0004399Y0028433D01*
X0004525Y0028335D01*
X0004653Y0028240D01*
X0004784Y0028148D01*
X0004917Y0028060D01*
X0005052Y0027975D01*
X0005190Y0027893D01*
X0005329Y0027815D01*
X0005470Y0027740D01*
X0005613Y0027668D01*
X0005758Y0027601D01*
X0005904Y0027537D01*
X0006052Y0027476D01*
X0006202Y0027419D01*
X0006352Y0027366D01*
X0006504Y0027317D01*
X0006657Y0027272D01*
X0006812Y0027230D01*
X0006967Y0027192D01*
X0007123Y0027158D01*
X0007280Y0027128D01*
X0007438Y0027102D01*
X0007596Y0027080D01*
X0007755Y0027061D01*
X0007914Y0027047D01*
X0008073Y0027037D01*
X0008233Y0027030D01*
X0008393Y0027028D01*
X0008553Y0027030D01*
X0008712Y0027035D01*
X0008872Y0027045D01*
X0009031Y0027058D01*
X0009190Y0027075D01*
X0009348Y0027097D01*
X0009506Y0027122D01*
X0009663Y0027151D01*
X0009819Y0027184D01*
X0009975Y0027221D01*
X0010129Y0027262D01*
X0010283Y0027307D01*
X0010435Y0027355D01*
X0010586Y0027408D01*
X0010736Y0027464D01*
X0010884Y0027523D01*
X0011031Y0027587D01*
X0011176Y0027654D01*
X0011319Y0027724D01*
X0011461Y0027798D01*
X0011600Y0027876D01*
X0011738Y0027957D01*
X0011874Y0028041D01*
X0012007Y0028129D01*
X0012139Y0028220D01*
X0012268Y0028314D01*
X0012394Y0028412D01*
X0012518Y0028512D01*
X0012640Y0028616D01*
X0012759Y0028723D01*
X0012875Y0028832D01*
X0012989Y0028945D01*
X0013099Y0029060D01*
X0013207Y0029178D01*
X0013312Y0029299D01*
X0013414Y0029422D01*
X0013513Y0029547D01*
X0013608Y0029675D01*
X0013701Y0029806D01*
X0014071Y0029552D01*
X0014072Y0029552D01*
X0013975Y0029414D01*
X0013874Y0029279D01*
X0013770Y0029146D01*
X0013662Y0029016D01*
X0013552Y0028889D01*
X0013439Y0028764D01*
X0013322Y0028642D01*
X0013202Y0028523D01*
X0013080Y0028407D01*
X0012955Y0028294D01*
X0012827Y0028184D01*
X0012696Y0028077D01*
X0012563Y0027974D01*
X0012428Y0027874D01*
X0012290Y0027777D01*
X0012149Y0027683D01*
X0012006Y0027593D01*
X0011862Y0027507D01*
X0011715Y0027424D01*
X0011566Y0027345D01*
X0011415Y0027269D01*
X0011262Y0027197D01*
X0011108Y0027129D01*
X0010952Y0027065D01*
X0010795Y0027005D01*
X0010636Y0026948D01*
X0010476Y0026896D01*
X0010314Y0026847D01*
X0010152Y0026802D01*
X0009988Y0026761D01*
X0009823Y0026725D01*
X0009658Y0026692D01*
X0009492Y0026664D01*
X0009325Y0026639D01*
X0009157Y0026619D01*
X0008990Y0026602D01*
X0008821Y0026590D01*
X0008653Y0026582D01*
X0008484Y0026578D01*
X0008316Y0026579D01*
X0008147Y0026583D01*
X0007979Y0026592D01*
X0007810Y0026604D01*
X0007643Y0026621D01*
X0007475Y0026642D01*
X0007309Y0026667D01*
X0007142Y0026696D01*
X0006977Y0026729D01*
X0006813Y0026766D01*
X0006649Y0026807D01*
X0006486Y0026852D01*
X0006325Y0026902D01*
X0006165Y0026955D01*
X0006006Y0027012D01*
X0005849Y0027073D01*
X0005693Y0027137D01*
X0005539Y0027206D01*
X0005387Y0027278D01*
X0005236Y0027354D01*
X0005088Y0027434D01*
X0004941Y0027517D01*
X0004796Y0027604D01*
X0004654Y0027694D01*
X0004514Y0027788D01*
X0004376Y0027885D01*
X0004241Y0027986D01*
X0004108Y0028090D01*
X0003978Y0028197D01*
X0003850Y0028307D01*
X0003725Y0028421D01*
X0003603Y0028537D01*
X0003484Y0028656D01*
X0003368Y0028779D01*
X0003255Y0028904D01*
X0003145Y0029031D01*
X0003038Y0029162D01*
X0002934Y0029295D01*
X0002834Y0029430D01*
X0002737Y0029568D01*
X0002643Y0029709D01*
X0002553Y0029851D01*
X0002466Y0029996D01*
X0002383Y0030143D01*
X0002304Y0030291D01*
X0002228Y0030442D01*
X0002156Y0030595D01*
X0002088Y0030749D01*
X0002023Y0030905D01*
X0001963Y0031062D01*
X0001906Y0031221D01*
X0001853Y0031381D01*
X0001804Y0031542D01*
X0001759Y0031705D01*
X0001718Y0031869D01*
X0001682Y0032033D01*
X0001649Y0032199D01*
X0001620Y0032365D01*
X0001595Y0032532D01*
X0001575Y0032699D01*
X0001558Y0032867D01*
X0001546Y0033035D01*
X0001538Y0033203D01*
X0001534Y0033372D01*
X0001534Y0033541D01*
X0001538Y0033709D01*
X0001546Y0033878D01*
X0001558Y0034046D01*
X0001575Y0034214D01*
X0001596Y0034381D01*
X0001620Y0034548D01*
X0001649Y0034714D01*
X0001682Y0034879D01*
X0001719Y0035044D01*
X0001760Y0035208D01*
X0001805Y0035370D01*
X0001854Y0035532D01*
X0001907Y0035692D01*
X0001964Y0035850D01*
X0002024Y0036008D01*
X0002089Y0036164D01*
X0002157Y0036318D01*
X0002229Y0036470D01*
X0002305Y0036621D01*
X0002385Y0036770D01*
X0002468Y0036916D01*
X0002554Y0037061D01*
X0002644Y0037204D01*
X0002738Y0037344D01*
X0002835Y0037482D01*
X0002936Y0037617D01*
X0003039Y0037750D01*
X0003146Y0037881D01*
X0003256Y0038008D01*
X0003370Y0038133D01*
X0003486Y0038256D01*
X0003605Y0038375D01*
X0003727Y0038491D01*
X0003852Y0038605D01*
X0003980Y0038715D01*
X0004110Y0038822D01*
X0004243Y0038926D01*
X0004378Y0039026D01*
X0004516Y0039123D01*
X0004656Y0039217D01*
X0004799Y0039307D01*
X0004823Y0039267D01*
X0004682Y0039178D01*
X0004543Y0039085D01*
X0004406Y0038988D01*
X0004271Y0038888D01*
X0004139Y0038785D01*
X0004010Y0038679D01*
X0003883Y0038569D01*
X0003759Y0038457D01*
X0003638Y0038341D01*
X0003519Y0038223D01*
X0003404Y0038101D01*
X0003292Y0037977D01*
X0003182Y0037850D01*
X0003076Y0037721D01*
X0002973Y0037589D01*
X0002873Y0037454D01*
X0002777Y0037317D01*
X0002684Y0037178D01*
X0002594Y0037036D01*
X0002508Y0036893D01*
X0002426Y0036747D01*
X0002347Y0036599D01*
X0002271Y0036450D01*
X0002200Y0036298D01*
X0002132Y0036145D01*
X0002068Y0035990D01*
X0002008Y0035834D01*
X0001951Y0035676D01*
X0001899Y0035517D01*
X0001850Y0035357D01*
X0001805Y0035196D01*
X0001765Y0035033D01*
X0001728Y0034870D01*
X0001695Y0034705D01*
X0001667Y0034540D01*
X0001642Y0034375D01*
X0001622Y0034208D01*
X0001605Y0034042D01*
X0001593Y0033875D01*
X0001585Y0033707D01*
X0001581Y0033540D01*
X0001580Y0033372D01*
X0001585Y0033205D01*
X0001593Y0033038D01*
X0001605Y0032871D01*
X0001621Y0032704D01*
X0001642Y0032538D01*
X0001666Y0032372D01*
X0001695Y0032207D01*
X0001728Y0032043D01*
X0001764Y0031879D01*
X0001805Y0031717D01*
X0001849Y0031555D01*
X0001898Y0031395D01*
X0001950Y0031236D01*
X0002007Y0031078D01*
X0002067Y0030922D01*
X0002131Y0030767D01*
X0002199Y0030614D01*
X0002270Y0030463D01*
X0002346Y0030313D01*
X0002424Y0030165D01*
X0002507Y0030019D01*
X0002593Y0029876D01*
X0002682Y0029734D01*
X0002775Y0029595D01*
X0002872Y0029458D01*
X0002971Y0029323D01*
X0003074Y0029191D01*
X0003181Y0029062D01*
X0003290Y0028935D01*
X0003402Y0028810D01*
X0003518Y0028689D01*
X0003636Y0028571D01*
X0003757Y0028455D01*
X0003881Y0028342D01*
X0004008Y0028233D01*
X0004137Y0028126D01*
X0004269Y0028023D01*
X0004404Y0027923D01*
X0004541Y0027827D01*
X0004680Y0027734D01*
X0004821Y0027644D01*
X0004965Y0027558D01*
X0005110Y0027475D01*
X0005258Y0027396D01*
X0005408Y0027320D01*
X0005559Y0027249D01*
X0005712Y0027181D01*
X0005867Y0027116D01*
X0006023Y0027056D01*
X0006180Y0026999D01*
X0006339Y0026946D01*
X0006500Y0026898D01*
X0006661Y0026853D01*
X0006823Y0026812D01*
X0006987Y0026775D01*
X0007151Y0026742D01*
X0007316Y0026713D01*
X0007482Y0026688D01*
X0007648Y0026668D01*
X0007814Y0026651D01*
X0007982Y0026638D01*
X0008149Y0026630D01*
X0008316Y0026626D01*
X0008484Y0026625D01*
X0008651Y0026629D01*
X0008818Y0026637D01*
X0008986Y0026649D01*
X0009152Y0026665D01*
X0009318Y0026686D01*
X0009484Y0026710D01*
X0009649Y0026738D01*
X0009814Y0026771D01*
X0009977Y0026807D01*
X0010140Y0026848D01*
X0010301Y0026892D01*
X0010461Y0026940D01*
X0010621Y0026993D01*
X0010778Y0027049D01*
X0010935Y0027109D01*
X0011090Y0027173D01*
X0011243Y0027240D01*
X0011394Y0027312D01*
X0011544Y0027387D01*
X0011692Y0027465D01*
X0011838Y0027548D01*
X0011982Y0027633D01*
X0012123Y0027723D01*
X0012263Y0027815D01*
X0012400Y0027912D01*
X0012535Y0028011D01*
X0012667Y0028114D01*
X0012797Y0028220D01*
X0012924Y0028329D01*
X0013048Y0028441D01*
X0013170Y0028557D01*
X0013288Y0028675D01*
X0013404Y0028796D01*
X0013517Y0028920D01*
X0013626Y0029046D01*
X0013733Y0029175D01*
X0013836Y0029307D01*
X0013936Y0029442D01*
X0014033Y0029578D01*
X0013994Y0029605D01*
X0013898Y0029469D01*
X0013799Y0029336D01*
X0013696Y0029205D01*
X0013590Y0029076D01*
X0013482Y0028951D01*
X0013370Y0028828D01*
X0013255Y0028708D01*
X0013137Y0028590D01*
X0013016Y0028476D01*
X0012893Y0028364D01*
X0012766Y0028256D01*
X0012638Y0028151D01*
X0012506Y0028049D01*
X0012372Y0027950D01*
X0012236Y0027854D01*
X0012098Y0027762D01*
X0011957Y0027673D01*
X0011814Y0027588D01*
X0011669Y0027506D01*
X0011523Y0027428D01*
X0011374Y0027354D01*
X0011223Y0027283D01*
X0011071Y0027216D01*
X0010917Y0027152D01*
X0010762Y0027093D01*
X0010605Y0027037D01*
X0010447Y0026985D01*
X0010288Y0026937D01*
X0010128Y0026893D01*
X0009966Y0026853D01*
X0009804Y0026817D01*
X0009641Y0026785D01*
X0009477Y0026756D01*
X0009312Y0026732D01*
X0009147Y0026712D01*
X0008981Y0026696D01*
X0008816Y0026684D01*
X0008649Y0026676D01*
X0008483Y0026672D01*
X0008317Y0026673D01*
X0008151Y0026677D01*
X0007984Y0026685D01*
X0007819Y0026698D01*
X0007653Y0026714D01*
X0007488Y0026735D01*
X0007323Y0026760D01*
X0007160Y0026788D01*
X0006996Y0026821D01*
X0006834Y0026858D01*
X0006673Y0026898D01*
X0006513Y0026943D01*
X0006354Y0026991D01*
X0006196Y0027044D01*
X0006039Y0027100D01*
X0005884Y0027160D01*
X0005730Y0027224D01*
X0005578Y0027291D01*
X0005428Y0027363D01*
X0005280Y0027438D01*
X0005133Y0027516D01*
X0004988Y0027598D01*
X0004846Y0027684D01*
X0004705Y0027773D01*
X0004567Y0027866D01*
X0004431Y0027961D01*
X0004298Y0028061D01*
X0004167Y0028163D01*
X0004038Y0028269D01*
X0003912Y0028378D01*
X0003789Y0028489D01*
X0003669Y0028604D01*
X0003551Y0028722D01*
X0003437Y0028842D01*
X0003325Y0028966D01*
X0003217Y0029092D01*
X0003111Y0029220D01*
X0003009Y0029352D01*
X0002910Y0029485D01*
X0002814Y0029621D01*
X0002722Y0029760D01*
X0002633Y0029900D01*
X0002548Y0030043D01*
X0002466Y0030188D01*
X0002387Y0030335D01*
X0002313Y0030483D01*
X0002242Y0030634D01*
X0002174Y0030786D01*
X0002111Y0030939D01*
X0002051Y0031095D01*
X0001995Y0031251D01*
X0001943Y0031409D01*
X0001895Y0031568D01*
X0001850Y0031729D01*
X0001810Y0031890D01*
X0001774Y0032052D01*
X0001741Y0032216D01*
X0001713Y0032379D01*
X0001688Y0032544D01*
X0001668Y0032709D01*
X0001652Y0032875D01*
X0001640Y0033041D01*
X0001632Y0033207D01*
X0001627Y0033373D01*
X0001628Y0033539D01*
X0001632Y0033706D01*
X0001640Y0033872D01*
X0001652Y0034038D01*
X0001668Y0034203D01*
X0001689Y0034368D01*
X0001713Y0034533D01*
X0001742Y0034697D01*
X0001774Y0034860D01*
X0001811Y0035022D01*
X0001851Y0035183D01*
X0001895Y0035344D01*
X0001944Y0035503D01*
X0001996Y0035661D01*
X0002052Y0035818D01*
X0002112Y0035973D01*
X0002175Y0036126D01*
X0002243Y0036278D01*
X0002314Y0036429D01*
X0002388Y0036577D01*
X0002467Y0036724D01*
X0002549Y0036869D01*
X0002634Y0037012D01*
X0002723Y0037152D01*
X0002816Y0037290D01*
X0002911Y0037427D01*
X0003010Y0037560D01*
X0003113Y0037691D01*
X0003218Y0037820D01*
X0003327Y0037946D01*
X0003438Y0038069D01*
X0003553Y0038190D01*
X0003671Y0038307D01*
X0003791Y0038422D01*
X0003914Y0038534D01*
X0004040Y0038643D01*
X0004169Y0038748D01*
X0004300Y0038851D01*
X0004433Y0038950D01*
X0004569Y0039046D01*
X0004707Y0039138D01*
X0004848Y0039227D01*
X0004872Y0039187D01*
X0004733Y0039099D01*
X0004596Y0039007D01*
X0004461Y0038912D01*
X0004328Y0038813D01*
X0004198Y0038712D01*
X0004070Y0038607D01*
X0003945Y0038499D01*
X0003823Y0038388D01*
X0003703Y0038274D01*
X0003586Y0038157D01*
X0003473Y0038037D01*
X0003362Y0037915D01*
X0003254Y0037790D01*
X0003149Y0037662D01*
X0003048Y0037532D01*
X0002949Y0037399D01*
X0002854Y0037264D01*
X0002762Y0037126D01*
X0002674Y0036987D01*
X0002589Y0036845D01*
X0002508Y0036701D01*
X0002430Y0036556D01*
X0002356Y0036408D01*
X0002285Y0036259D01*
X0002218Y0036108D01*
X0002155Y0035955D01*
X0002096Y0035801D01*
X0002040Y0035646D01*
X0001988Y0035489D01*
X0001940Y0035331D01*
X0001896Y0035171D01*
X0001856Y0035011D01*
X0001820Y0034850D01*
X0001788Y0034688D01*
X0001760Y0034525D01*
X0001735Y0034362D01*
X0001715Y0034198D01*
X0001699Y0034034D01*
X0001687Y0033869D01*
X0001679Y0033704D01*
X0001675Y0033539D01*
X0001674Y0033373D01*
X0001679Y0033208D01*
X0001687Y0033043D01*
X0001699Y0032879D01*
X0001715Y0032714D01*
X0001735Y0032550D01*
X0001759Y0032387D01*
X0001787Y0032224D01*
X0001820Y0032062D01*
X0001856Y0031901D01*
X0001896Y0031741D01*
X0001940Y0031581D01*
X0001988Y0031423D01*
X0002039Y0031267D01*
X0002095Y0031111D01*
X0002154Y0030957D01*
X0002218Y0030804D01*
X0002284Y0030653D01*
X0002355Y0030504D01*
X0002429Y0030356D01*
X0002507Y0030210D01*
X0002588Y0030067D01*
X0002673Y0029925D01*
X0002761Y0029785D01*
X0002853Y0029648D01*
X0002948Y0029513D01*
X0003046Y0029380D01*
X0003148Y0029250D01*
X0003253Y0029122D01*
X0003360Y0028997D01*
X0003471Y0028874D01*
X0003585Y0028755D01*
X0003702Y0028638D01*
X0003821Y0028524D01*
X0003944Y0028413D01*
X0004069Y0028305D01*
X0004196Y0028200D01*
X0004326Y0028098D01*
X0004459Y0028000D01*
X0004594Y0027904D01*
X0004731Y0027812D01*
X0004870Y0027724D01*
X0005012Y0027639D01*
X0005156Y0027557D01*
X0005301Y0027479D01*
X0005449Y0027405D01*
X0005598Y0027334D01*
X0005749Y0027267D01*
X0005901Y0027204D01*
X0006056Y0027144D01*
X0006211Y0027088D01*
X0006368Y0027036D01*
X0006526Y0026988D01*
X0006685Y0026944D01*
X0006845Y0026903D01*
X0007006Y0026867D01*
X0007168Y0026834D01*
X0007331Y0026806D01*
X0007494Y0026782D01*
X0007658Y0026761D01*
X0007823Y0026745D01*
X0007987Y0026732D01*
X0008152Y0026724D01*
X0008317Y0026720D01*
X0008483Y0026719D01*
X0008648Y0026723D01*
X0008813Y0026731D01*
X0008977Y0026743D01*
X0009142Y0026759D01*
X0009306Y0026779D01*
X0009469Y0026803D01*
X0009632Y0026831D01*
X0009794Y0026863D01*
X0009955Y0026899D01*
X0010116Y0026939D01*
X0010275Y0026982D01*
X0010433Y0027030D01*
X0010590Y0027082D01*
X0010746Y0027137D01*
X0010900Y0027196D01*
X0011053Y0027259D01*
X0011204Y0027326D01*
X0011353Y0027396D01*
X0011501Y0027470D01*
X0011647Y0027548D01*
X0011791Y0027629D01*
X0011932Y0027713D01*
X0012072Y0027801D01*
X0012210Y0027893D01*
X0012345Y0027988D01*
X0012478Y0028086D01*
X0012608Y0028187D01*
X0012736Y0028292D01*
X0012861Y0028399D01*
X0012984Y0028510D01*
X0013104Y0028624D01*
X0013221Y0028740D01*
X0013335Y0028860D01*
X0013446Y0028982D01*
X0013554Y0029107D01*
X0013660Y0029234D01*
X0013761Y0029364D01*
X0013860Y0029497D01*
X0013956Y0029631D01*
X0013917Y0029658D01*
X0013822Y0029524D01*
X0013724Y0029393D01*
X0013623Y0029263D01*
X0013518Y0029137D01*
X0013411Y0029013D01*
X0013301Y0028892D01*
X0013187Y0028773D01*
X0013071Y0028657D01*
X0012952Y0028544D01*
X0012830Y0028435D01*
X0012706Y0028328D01*
X0012579Y0028224D01*
X0012449Y0028123D01*
X0012317Y0028026D01*
X0012183Y0027932D01*
X0012046Y0027841D01*
X0011908Y0027753D01*
X0011767Y0027669D01*
X0011624Y0027589D01*
X0011479Y0027512D01*
X0011332Y0027438D01*
X0011184Y0027368D01*
X0011034Y0027302D01*
X0010882Y0027240D01*
X0010729Y0027181D01*
X0010575Y0027126D01*
X0010419Y0027075D01*
X0010262Y0027027D01*
X0010104Y0026984D01*
X0009944Y0026944D01*
X0009784Y0026909D01*
X0009623Y0026877D01*
X0009462Y0026849D01*
X0009299Y0026825D01*
X0009137Y0026806D01*
X0008973Y0026790D01*
X0008810Y0026778D01*
X0008646Y0026770D01*
X0008482Y0026766D01*
X0008318Y0026767D01*
X0008154Y0026771D01*
X0007990Y0026779D01*
X0007827Y0026791D01*
X0007663Y0026808D01*
X0007501Y0026828D01*
X0007338Y0026852D01*
X0007177Y0026881D01*
X0007016Y0026913D01*
X0006856Y0026949D01*
X0006697Y0026989D01*
X0006539Y0027033D01*
X0006382Y0027081D01*
X0006226Y0027132D01*
X0006072Y0027188D01*
X0005919Y0027247D01*
X0005767Y0027310D01*
X0005618Y0027377D01*
X0005469Y0027447D01*
X0005323Y0027521D01*
X0005178Y0027598D01*
X0005036Y0027679D01*
X0004895Y0027764D01*
X0004757Y0027852D01*
X0004620Y0027943D01*
X0004486Y0028038D01*
X0004355Y0028135D01*
X0004226Y0028237D01*
X0004099Y0028341D01*
X0003975Y0028448D01*
X0003853Y0028558D01*
X0003735Y0028671D01*
X0003619Y0028787D01*
X0003506Y0028906D01*
X0003396Y0029028D01*
X0003289Y0029152D01*
X0003185Y0029279D01*
X0003084Y0029409D01*
X0002986Y0029540D01*
X0002892Y0029674D01*
X0002801Y0029811D01*
X0002713Y0029950D01*
X0002629Y0030090D01*
X0002548Y0030233D01*
X0002471Y0030378D01*
X0002397Y0030524D01*
X0002327Y0030673D01*
X0002261Y0030823D01*
X0002198Y0030974D01*
X0002139Y0031127D01*
X0002084Y0031282D01*
X0002033Y0031438D01*
X0001985Y0031594D01*
X0001941Y0031753D01*
X0001901Y0031912D01*
X0001866Y0032072D01*
X0001834Y0032233D01*
X0001806Y0032394D01*
X0001782Y0032557D01*
X0001762Y0032719D01*
X0001746Y0032883D01*
X0001734Y0033046D01*
X0001725Y0033210D01*
X0001721Y0033374D01*
X0001722Y0033538D01*
X0001726Y0033702D01*
X0001734Y0033866D01*
X0001746Y0034029D01*
X0001762Y0034193D01*
X0001782Y0034355D01*
X0001806Y0034518D01*
X0001834Y0034679D01*
X0001866Y0034840D01*
X0001902Y0035000D01*
X0001942Y0035159D01*
X0001985Y0035317D01*
X0002033Y0035474D01*
X0002085Y0035630D01*
X0002140Y0035785D01*
X0002199Y0035938D01*
X0002262Y0036089D01*
X0002328Y0036239D01*
X0002398Y0036387D01*
X0002472Y0036534D01*
X0002549Y0036679D01*
X0002630Y0036821D01*
X0002714Y0036962D01*
X0002802Y0037101D01*
X0002893Y0037237D01*
X0002987Y0037371D01*
X0003085Y0037503D01*
X0003186Y0037632D01*
X0003290Y0037759D01*
X0003397Y0037883D01*
X0003507Y0038005D01*
X0003620Y0038124D01*
X0003736Y0038240D01*
X0003855Y0038353D01*
X0003976Y0038463D01*
X0004100Y0038571D01*
X0004227Y0038675D01*
X0004356Y0038776D01*
X0004488Y0038874D01*
X0004622Y0038968D01*
X0004758Y0039059D01*
X0004897Y0039147D01*
X0004921Y0039107D01*
X0004784Y0039020D01*
X0004648Y0038929D01*
X0004515Y0038835D01*
X0004385Y0038738D01*
X0004256Y0038638D01*
X0004130Y0038535D01*
X0004007Y0038428D01*
X0003887Y0038319D01*
X0003769Y0038206D01*
X0003654Y0038091D01*
X0003541Y0037973D01*
X0003432Y0037852D01*
X0003326Y0037729D01*
X0003222Y0037603D01*
X0003122Y0037474D01*
X0003025Y0037344D01*
X0002932Y0037210D01*
X0002841Y0037075D01*
X0002754Y0036937D01*
X0002670Y0036798D01*
X0002590Y0036656D01*
X0002513Y0036512D01*
X0002440Y0036367D01*
X0002371Y0036219D01*
X0002305Y0036071D01*
X0002242Y0035920D01*
X0002184Y0035768D01*
X0002129Y0035615D01*
X0002078Y0035460D01*
X0002031Y0035304D01*
X0001987Y0035147D01*
X0001948Y0034989D01*
X0001912Y0034830D01*
X0001880Y0034671D01*
X0001852Y0034510D01*
X0001828Y0034349D01*
X0001808Y0034187D01*
X0001793Y0034025D01*
X0001781Y0033863D01*
X0001773Y0033700D01*
X0001769Y0033537D01*
X0001768Y0033374D01*
X0001772Y0033212D01*
X0001780Y0033049D01*
X0001792Y0032887D01*
X0001808Y0032724D01*
X0001828Y0032563D01*
X0001852Y0032402D01*
X0001880Y0032241D01*
X0001912Y0032081D01*
X0001947Y0031923D01*
X0001987Y0031765D01*
X0002030Y0031608D01*
X0002077Y0031452D01*
X0002128Y0031297D01*
X0002183Y0031144D01*
X0002242Y0030992D01*
X0002304Y0030841D01*
X0002370Y0030692D01*
X0002439Y0030545D01*
X0002513Y0030399D01*
X0002589Y0030256D01*
X0002669Y0030114D01*
X0002753Y0029974D01*
X0002840Y0029837D01*
X0002931Y0029701D01*
X0003024Y0029568D01*
X0003121Y0029437D01*
X0003221Y0029308D01*
X0003325Y0029182D01*
X0003431Y0029059D01*
X0003540Y0028938D01*
X0003652Y0028820D01*
X0003767Y0028705D01*
X0003885Y0028593D01*
X0004006Y0028483D01*
X0004129Y0028377D01*
X0004255Y0028273D01*
X0004383Y0028173D01*
X0004514Y0028076D01*
X0004647Y0027982D01*
X0004782Y0027891D01*
X0004920Y0027804D01*
X0005059Y0027720D01*
X0005201Y0027640D01*
X0005345Y0027563D01*
X0005490Y0027489D01*
X0005637Y0027419D01*
X0005786Y0027353D01*
X0005936Y0027291D01*
X0006088Y0027232D01*
X0006242Y0027177D01*
X0006396Y0027126D01*
X0006552Y0027078D01*
X0006709Y0027035D01*
X0006867Y0026995D01*
X0007026Y0026959D01*
X0007185Y0026927D01*
X0007346Y0026899D01*
X0007507Y0026875D01*
X0007669Y0026855D01*
X0007831Y0026838D01*
X0007993Y0026826D01*
X0008156Y0026818D01*
X0008318Y0026814D01*
X0008481Y0026813D01*
X0008644Y0026817D01*
X0008807Y0026825D01*
X0008969Y0026837D01*
X0009131Y0026852D01*
X0009293Y0026872D01*
X0009454Y0026896D01*
X0009615Y0026923D01*
X0009775Y0026955D01*
X0009934Y0026990D01*
X0010092Y0027029D01*
X0010249Y0027073D01*
X0010405Y0027120D01*
X0010559Y0027170D01*
X0010713Y0027225D01*
X0010865Y0027283D01*
X0011015Y0027345D01*
X0011164Y0027411D01*
X0011312Y0027480D01*
X0011457Y0027553D01*
X0011601Y0027630D01*
X0011743Y0027710D01*
X0011883Y0027793D01*
X0012021Y0027880D01*
X0012156Y0027970D01*
X0012290Y0028064D01*
X0012421Y0028161D01*
X0012549Y0028261D01*
X0012675Y0028364D01*
X0012799Y0028470D01*
X0012920Y0028579D01*
X0013038Y0028691D01*
X0013154Y0028806D01*
X0013266Y0028924D01*
X0013376Y0029044D01*
X0013482Y0029167D01*
X0013586Y0029293D01*
X0013687Y0029421D01*
X0013784Y0029552D01*
X0013878Y0029684D01*
X0013839Y0029711D01*
X0013746Y0029579D01*
X0013649Y0029449D01*
X0013549Y0029322D01*
X0013446Y0029197D01*
X0013341Y0029075D01*
X0013232Y0028956D01*
X0013120Y0028839D01*
X0013005Y0028725D01*
X0012888Y0028613D01*
X0012768Y0028505D01*
X0012645Y0028400D01*
X0012520Y0028297D01*
X0012392Y0028198D01*
X0012262Y0028102D01*
X0012130Y0028009D01*
X0011995Y0027920D01*
X0011858Y0027833D01*
X0011719Y0027750D01*
X0011579Y0027671D01*
X0011436Y0027595D01*
X0011291Y0027523D01*
X0011145Y0027454D01*
X0010997Y0027389D01*
X0010847Y0027327D01*
X0010696Y0027269D01*
X0010544Y0027215D01*
X0010390Y0027164D01*
X0010236Y0027118D01*
X0010080Y0027075D01*
X0009923Y0027036D01*
X0009765Y0027001D01*
X0009606Y0026969D01*
X0009447Y0026942D01*
X0009287Y0026919D01*
X0009126Y0026899D01*
X0008965Y0026883D01*
X0008804Y0026872D01*
X0008642Y0026864D01*
X0008481Y0026860D01*
X0008319Y0026861D01*
X0008157Y0026865D01*
X0007996Y0026873D01*
X0007835Y0026885D01*
X0007674Y0026901D01*
X0007513Y0026921D01*
X0007353Y0026945D01*
X0007194Y0026973D01*
X0007035Y0027005D01*
X0006878Y0027040D01*
X0006721Y0027080D01*
X0006565Y0027123D01*
X0006410Y0027170D01*
X0006257Y0027221D01*
X0006105Y0027276D01*
X0005954Y0027334D01*
X0005805Y0027396D01*
X0005657Y0027462D01*
X0005511Y0027531D01*
X0005366Y0027604D01*
X0005224Y0027681D01*
X0005083Y0027761D01*
X0004945Y0027844D01*
X0004808Y0027931D01*
X0004674Y0028021D01*
X0004541Y0028114D01*
X0004412Y0028210D01*
X0004284Y0028310D01*
X0004159Y0028413D01*
X0004037Y0028518D01*
X0003917Y0028627D01*
X0003800Y0028739D01*
X0003686Y0028853D01*
X0003575Y0028970D01*
X0003466Y0029090D01*
X0003361Y0029213D01*
X0003258Y0029338D01*
X0003159Y0029465D01*
X0003062Y0029595D01*
X0002969Y0029728D01*
X0002880Y0029862D01*
X0002793Y0029999D01*
X0002710Y0030138D01*
X0002630Y0030278D01*
X0002554Y0030421D01*
X0002482Y0030565D01*
X0002413Y0030712D01*
X0002347Y0030860D01*
X0002285Y0031009D01*
X0002227Y0031160D01*
X0002173Y0031312D01*
X0002122Y0031466D01*
X0002075Y0031621D01*
X0002032Y0031776D01*
X0001993Y0031933D01*
X0001958Y0032091D01*
X0001926Y0032250D01*
X0001898Y0032409D01*
X0001875Y0032569D01*
X0001855Y0032730D01*
X0001839Y0032890D01*
X0001827Y0033052D01*
X0001819Y0033213D01*
X0001815Y0033375D01*
X0001816Y0033537D01*
X0001819Y0033698D01*
X0001827Y0033860D01*
X0001839Y0034021D01*
X0001855Y0034182D01*
X0001875Y0034343D01*
X0001899Y0034503D01*
X0001926Y0034662D01*
X0001958Y0034820D01*
X0001993Y0034978D01*
X0002033Y0035135D01*
X0002076Y0035291D01*
X0002123Y0035446D01*
X0002173Y0035599D01*
X0002228Y0035752D01*
X0002286Y0035903D01*
X0002348Y0036052D01*
X0002413Y0036200D01*
X0002482Y0036346D01*
X0002555Y0036490D01*
X0002631Y0036633D01*
X0002711Y0036774D01*
X0002794Y0036913D01*
X0002880Y0037049D01*
X0002970Y0037184D01*
X0003063Y0037316D01*
X0003160Y0037446D01*
X0003259Y0037573D01*
X0003362Y0037699D01*
X0003467Y0037821D01*
X0003576Y0037941D01*
X0003687Y0038058D01*
X0003801Y0038173D01*
X0003918Y0038284D01*
X0004038Y0038393D01*
X0004161Y0038498D01*
X0004286Y0038601D01*
X0004413Y0038701D01*
X0004543Y0038797D01*
X0004675Y0038890D01*
X0004809Y0038980D01*
X0004946Y0039067D01*
X0004970Y0039027D01*
X0004835Y0038941D01*
X0004701Y0038852D01*
X0004570Y0038759D01*
X0004441Y0038663D01*
X0004315Y0038564D01*
X0004191Y0038462D01*
X0004069Y0038357D01*
X0003950Y0038250D01*
X0003834Y0038139D01*
X0003721Y0038025D01*
X0003610Y0037909D01*
X0003502Y0037790D01*
X0003397Y0037668D01*
X0003296Y0037544D01*
X0003197Y0037417D01*
X0003101Y0037288D01*
X0003009Y0037157D01*
X0002920Y0037024D01*
X0002834Y0036888D01*
X0002751Y0036750D01*
X0002672Y0036610D01*
X0002597Y0036469D01*
X0002525Y0036325D01*
X0002456Y0036180D01*
X0002391Y0036033D01*
X0002330Y0035885D01*
X0002272Y0035735D01*
X0002218Y0035584D01*
X0002167Y0035431D01*
X0002121Y0035278D01*
X0002078Y0035123D01*
X0002039Y0034967D01*
X0002004Y0034811D01*
X0001973Y0034653D01*
X0001945Y0034495D01*
X0001922Y0034336D01*
X0001902Y0034177D01*
X0001886Y0034017D01*
X0001874Y0033857D01*
X0001866Y0033697D01*
X0001863Y0033536D01*
X0001862Y0033375D01*
X0001866Y0033215D01*
X0001874Y0033055D01*
X0001886Y0032894D01*
X0001902Y0032735D01*
X0001921Y0032575D01*
X0001945Y0032416D01*
X0001972Y0032258D01*
X0002004Y0032101D01*
X0002039Y0031944D01*
X0002078Y0031788D01*
X0002120Y0031634D01*
X0002167Y0031480D01*
X0002217Y0031327D01*
X0002271Y0031176D01*
X0002329Y0031026D01*
X0002390Y0030878D01*
X0002455Y0030731D01*
X0002524Y0030586D01*
X0002596Y0030443D01*
X0002672Y0030301D01*
X0002751Y0030161D01*
X0002833Y0030023D01*
X0002919Y0029888D01*
X0003008Y0029754D01*
X0003101Y0029623D01*
X0003196Y0029494D01*
X0003295Y0029367D01*
X0003397Y0029243D01*
X0003501Y0029121D01*
X0003609Y0029002D01*
X0003720Y0028886D01*
X0003833Y0028772D01*
X0003949Y0028661D01*
X0004068Y0028553D01*
X0004190Y0028449D01*
X0004314Y0028347D01*
X0004440Y0028248D01*
X0004569Y0028152D01*
X0004700Y0028059D01*
X0004834Y0027970D01*
X0004969Y0027884D01*
X0005107Y0027801D01*
X0005246Y0027722D01*
X0005388Y0027646D01*
X0005531Y0027574D01*
X0005676Y0027505D01*
X0005823Y0027440D01*
X0005971Y0027378D01*
X0006121Y0027320D01*
X0006272Y0027266D01*
X0006425Y0027215D01*
X0006578Y0027168D01*
X0006733Y0027125D01*
X0006889Y0027086D01*
X0007045Y0027051D01*
X0007203Y0027019D01*
X0007361Y0026992D01*
X0007520Y0026968D01*
X0007679Y0026948D01*
X0007839Y0026932D01*
X0007999Y0026920D01*
X0008159Y0026912D01*
X0008320Y0026908D01*
X0008480Y0026907D01*
X0008641Y0026911D01*
X0008801Y0026919D01*
X0008961Y0026930D01*
X0009121Y0026946D01*
X0009280Y0026965D01*
X0009439Y0026988D01*
X0009598Y0027016D01*
X0009755Y0027047D01*
X0009912Y0027082D01*
X0010068Y0027120D01*
X0010222Y0027163D01*
X0010376Y0027209D01*
X0010529Y0027259D01*
X0010680Y0027313D01*
X0010830Y0027371D01*
X0010978Y0027432D01*
X0011125Y0027497D01*
X0011271Y0027565D01*
X0011414Y0027637D01*
X0011556Y0027712D01*
X0011696Y0027791D01*
X0011834Y0027873D01*
X0011969Y0027959D01*
X0012103Y0028048D01*
X0012235Y0028140D01*
X0012364Y0028235D01*
X0012491Y0028334D01*
X0012615Y0028436D01*
X0012737Y0028540D01*
X0012856Y0028648D01*
X0012972Y0028758D01*
X0013086Y0028871D01*
X0013197Y0028987D01*
X0013305Y0029106D01*
X0013410Y0029228D01*
X0013513Y0029351D01*
X0013612Y0029478D01*
X0013708Y0029606D01*
X0013800Y0029738D01*
X0013762Y0029764D01*
X0013669Y0029633D01*
X0013573Y0029504D01*
X0013474Y0029378D01*
X0013372Y0029254D01*
X0013266Y0029133D01*
X0013158Y0029015D01*
X0013047Y0028899D01*
X0012933Y0028786D01*
X0012817Y0028675D01*
X0012697Y0028568D01*
X0012575Y0028464D01*
X0012451Y0028362D01*
X0012324Y0028264D01*
X0012194Y0028169D01*
X0012063Y0028077D01*
X0011929Y0027989D01*
X0011793Y0027903D01*
X0011655Y0027822D01*
X0011515Y0027743D01*
X0011373Y0027668D01*
X0011229Y0027597D01*
X0011083Y0027529D01*
X0010936Y0027465D01*
X0010788Y0027404D01*
X0010638Y0027348D01*
X0010486Y0027294D01*
X0010333Y0027245D01*
X0010180Y0027199D01*
X0010025Y0027158D01*
X0009869Y0027120D01*
X0009712Y0027086D01*
X0009554Y0027055D01*
X0009396Y0027029D01*
X0009237Y0027007D01*
X0009077Y0026988D01*
X0008917Y0026974D01*
X0008757Y0026963D01*
X0008597Y0026957D01*
X0008436Y0026954D01*
X0008276Y0026955D01*
X0008115Y0026961D01*
X0007955Y0026970D01*
X0007795Y0026983D01*
X0007636Y0027000D01*
X0007477Y0027021D01*
X0007318Y0027046D01*
X0007160Y0027075D01*
X0007003Y0027108D01*
X0006847Y0027145D01*
X0006691Y0027185D01*
X0006537Y0027230D01*
X0006384Y0027278D01*
X0006232Y0027330D01*
X0006082Y0027385D01*
X0005932Y0027445D01*
X0005785Y0027508D01*
X0005639Y0027574D01*
X0005494Y0027644D01*
X0005352Y0027718D01*
X0005211Y0027795D01*
X0005072Y0027876D01*
X0004936Y0027960D01*
X0004801Y0028048D01*
X0004669Y0028138D01*
X0004539Y0028232D01*
X0004411Y0028330D01*
X0004285Y0028430D01*
X0004163Y0028533D01*
X0004042Y0028640D01*
X0003925Y0028749D01*
X0003810Y0028861D01*
X0003698Y0028976D01*
X0003589Y0029094D01*
X0003483Y0029214D01*
X0003380Y0029337D01*
X0003279Y0029463D01*
X0003182Y0029590D01*
X0003089Y0029721D01*
X0002998Y0029853D01*
X0002911Y0029988D01*
X0002827Y0030125D01*
X0002746Y0030264D01*
X0002669Y0030404D01*
X0002596Y0030547D01*
X0002526Y0030691D01*
X0002459Y0030838D01*
X0002396Y0030985D01*
X0002337Y0031135D01*
X0002282Y0031285D01*
X0002230Y0031437D01*
X0002182Y0031590D01*
X0002138Y0031745D01*
X0002098Y0031900D01*
X0002061Y0032056D01*
X0002029Y0032214D01*
X0002000Y0032371D01*
X0001975Y0032530D01*
X0001954Y0032689D01*
X0001937Y0032849D01*
X0001924Y0033009D01*
X0001915Y0033169D01*
X0001910Y0033329D01*
X0001909Y0033490D01*
X0001912Y0033650D01*
X0001919Y0033811D01*
X0001930Y0033971D01*
X0001944Y0034131D01*
X0001963Y0034290D01*
X0001985Y0034449D01*
X0002012Y0034607D01*
X0002042Y0034765D01*
X0002077Y0034922D01*
X0002115Y0035078D01*
X0002157Y0035233D01*
X0002203Y0035387D01*
X0002252Y0035539D01*
X0002305Y0035691D01*
X0002363Y0035841D01*
X0002423Y0035989D01*
X0002488Y0036136D01*
X0002556Y0036282D01*
X0002627Y0036425D01*
X0002702Y0036567D01*
X0002781Y0036707D01*
X0002863Y0036845D01*
X0002948Y0036981D01*
X0003037Y0037115D01*
X0003129Y0037246D01*
X0003224Y0037376D01*
X0003323Y0037502D01*
X0003424Y0037627D01*
X0003529Y0037749D01*
X0003636Y0037868D01*
X0003747Y0037984D01*
X0003860Y0038098D01*
X0003976Y0038209D01*
X0004095Y0038317D01*
X0004216Y0038422D01*
X0004340Y0038524D01*
X0004466Y0038623D01*
X0004595Y0038719D01*
X0004726Y0038811D01*
X0004859Y0038901D01*
X0004995Y0038987D01*
X0005020Y0038947D01*
X0004885Y0038861D01*
X0004753Y0038773D01*
X0004622Y0038681D01*
X0004495Y0038586D01*
X0004369Y0038487D01*
X0004246Y0038386D01*
X0004126Y0038282D01*
X0004008Y0038175D01*
X0003893Y0038064D01*
X0003780Y0037951D01*
X0003671Y0037836D01*
X0003564Y0037717D01*
X0003460Y0037597D01*
X0003359Y0037473D01*
X0003262Y0037347D01*
X0003167Y0037219D01*
X0003076Y0037088D01*
X0002988Y0036955D01*
X0002903Y0036821D01*
X0002822Y0036684D01*
X0002744Y0036545D01*
X0002669Y0036404D01*
X0002598Y0036261D01*
X0002530Y0036117D01*
X0002467Y0035971D01*
X0002406Y0035823D01*
X0002350Y0035674D01*
X0002297Y0035524D01*
X0002247Y0035373D01*
X0002202Y0035220D01*
X0002160Y0035066D01*
X0002122Y0034911D01*
X0002088Y0034756D01*
X0002058Y0034599D01*
X0002032Y0034442D01*
X0002009Y0034284D01*
X0001991Y0034126D01*
X0001976Y0033967D01*
X0001966Y0033808D01*
X0001959Y0033649D01*
X0001956Y0033490D01*
X0001957Y0033330D01*
X0001962Y0033171D01*
X0001971Y0033012D01*
X0001984Y0032853D01*
X0002001Y0032695D01*
X0002022Y0032537D01*
X0002046Y0032379D01*
X0002075Y0032222D01*
X0002107Y0032066D01*
X0002143Y0031911D01*
X0002183Y0031757D01*
X0002227Y0031604D01*
X0002275Y0031452D01*
X0002326Y0031301D01*
X0002381Y0031151D01*
X0002440Y0031003D01*
X0002502Y0030856D01*
X0002568Y0030711D01*
X0002638Y0030568D01*
X0002711Y0030426D01*
X0002787Y0030287D01*
X0002867Y0030149D01*
X0002950Y0030013D01*
X0003037Y0029879D01*
X0003127Y0029748D01*
X0003220Y0029618D01*
X0003316Y0029491D01*
X0003416Y0029367D01*
X0003518Y0029245D01*
X0003624Y0029125D01*
X0003732Y0029008D01*
X0003843Y0028894D01*
X0003957Y0028783D01*
X0004074Y0028674D01*
X0004193Y0028569D01*
X0004315Y0028466D01*
X0004440Y0028367D01*
X0004567Y0028270D01*
X0004696Y0028177D01*
X0004827Y0028087D01*
X0004961Y0028000D01*
X0005096Y0027917D01*
X0005234Y0027836D01*
X0005374Y0027760D01*
X0005515Y0027686D01*
X0005659Y0027617D01*
X0005804Y0027551D01*
X0005950Y0027488D01*
X0006098Y0027429D01*
X0006248Y0027374D01*
X0006399Y0027322D01*
X0006551Y0027275D01*
X0006704Y0027231D01*
X0006858Y0027190D01*
X0007013Y0027154D01*
X0007169Y0027121D01*
X0007326Y0027093D01*
X0007483Y0027068D01*
X0007641Y0027047D01*
X0007800Y0027030D01*
X0007958Y0027017D01*
X0008118Y0027008D01*
X0008277Y0027002D01*
X0008436Y0027001D01*
X0008595Y0027004D01*
X0008755Y0027010D01*
X0008914Y0027021D01*
X0009072Y0027035D01*
X0009231Y0027053D01*
X0009388Y0027076D01*
X0009546Y0027102D01*
X0009702Y0027132D01*
X0009858Y0027166D01*
X0010013Y0027203D01*
X0010167Y0027245D01*
X0010319Y0027290D01*
X0010471Y0027339D01*
X0010621Y0027392D01*
X0010770Y0027448D01*
X0010918Y0027508D01*
X0011064Y0027572D01*
X0011208Y0027639D01*
X0011351Y0027710D01*
X0011492Y0027785D01*
X0011631Y0027862D01*
X0011768Y0027944D01*
X0011903Y0028028D01*
X0012036Y0028116D01*
X0012167Y0028207D01*
X0012295Y0028302D01*
X0012421Y0028399D01*
X0012545Y0028500D01*
X0012666Y0028603D01*
X0012785Y0028710D01*
X0012900Y0028819D01*
X0013013Y0028931D01*
X0013124Y0029047D01*
X0013231Y0029164D01*
X0013336Y0029285D01*
X0013437Y0029407D01*
X0013535Y0029533D01*
X0013631Y0029661D01*
X0013723Y0029791D01*
X0004799Y0039307D02*
X0005034Y0038923D01*
X0005034Y0038924D02*
X0004899Y0038838D01*
X0004766Y0038749D01*
X0004635Y0038657D01*
X0004507Y0038561D01*
X0004382Y0038463D01*
X0004258Y0038361D01*
X0004138Y0038256D01*
X0004020Y0038149D01*
X0003904Y0038038D01*
X0003792Y0037925D01*
X0003682Y0037808D01*
X0003575Y0037690D01*
X0003471Y0037568D01*
X0003371Y0037444D01*
X0003273Y0037318D01*
X0003179Y0037189D01*
X0003087Y0037057D01*
X0003000Y0036924D01*
X0002915Y0036788D01*
X0002834Y0036651D01*
X0002756Y0036511D01*
X0002682Y0036370D01*
X0002611Y0036226D01*
X0002544Y0036081D01*
X0002481Y0035935D01*
X0002421Y0035786D01*
X0002365Y0035637D01*
X0002312Y0035486D01*
X0002264Y0035334D01*
X0002219Y0035180D01*
X0002178Y0035026D01*
X0002141Y0034870D01*
X0002108Y0034714D01*
X0002078Y0034557D01*
X0002053Y0034399D01*
X0002031Y0034241D01*
X0002014Y0034082D01*
X0002000Y0033923D01*
X0001990Y0033763D01*
X0001985Y0033604D01*
X0001983Y0033444D01*
X0001985Y0033284D01*
X0001992Y0033125D01*
X0002002Y0032965D01*
X0002016Y0032806D01*
X0002034Y0032647D01*
X0002056Y0032489D01*
X0002082Y0032331D01*
X0002112Y0032174D01*
X0002146Y0032018D01*
X0002183Y0031863D01*
X0002225Y0031708D01*
X0002270Y0031555D01*
X0002319Y0031403D01*
X0002372Y0031252D01*
X0002429Y0031103D01*
X0002489Y0030955D01*
X0002553Y0030809D01*
X0002621Y0030664D01*
X0002692Y0030521D01*
X0002767Y0030379D01*
X0002845Y0030240D01*
X0002927Y0030103D01*
X0003012Y0029967D01*
X0003100Y0029834D01*
X0003192Y0029703D01*
X0003286Y0029575D01*
X0003384Y0029449D01*
X0003486Y0029325D01*
X0003590Y0029204D01*
X0003697Y0029085D01*
X0003807Y0028970D01*
X0003920Y0028856D01*
X0004036Y0028746D01*
X0004154Y0028639D01*
X0004275Y0028535D01*
X0004399Y0028433D01*
X0004525Y0028335D01*
X0004653Y0028240D01*
X0004784Y0028148D01*
X0004917Y0028060D01*
X0005052Y0027975D01*
X0005190Y0027893D01*
X0005329Y0027815D01*
X0005470Y0027740D01*
X0005613Y0027668D01*
X0005758Y0027601D01*
X0005904Y0027537D01*
X0006052Y0027476D01*
X0006202Y0027419D01*
X0006352Y0027366D01*
X0006504Y0027317D01*
X0006657Y0027272D01*
X0006812Y0027230D01*
X0006967Y0027192D01*
X0007123Y0027158D01*
X0007280Y0027128D01*
X0007438Y0027102D01*
X0007596Y0027080D01*
X0007755Y0027061D01*
X0007914Y0027047D01*
X0008073Y0027037D01*
X0008233Y0027030D01*
X0008393Y0027028D01*
X0008553Y0027030D01*
X0008712Y0027035D01*
X0008872Y0027045D01*
X0009031Y0027058D01*
X0009190Y0027075D01*
X0009348Y0027097D01*
X0009506Y0027122D01*
X0009663Y0027151D01*
X0009819Y0027184D01*
X0009975Y0027221D01*
X0010129Y0027262D01*
X0010283Y0027307D01*
X0010435Y0027355D01*
X0010586Y0027408D01*
X0010736Y0027464D01*
X0010884Y0027523D01*
X0011031Y0027587D01*
X0011176Y0027654D01*
X0011319Y0027724D01*
X0011461Y0027798D01*
X0011600Y0027876D01*
X0011738Y0027957D01*
X0011874Y0028041D01*
X0012007Y0028129D01*
X0012139Y0028220D01*
X0012268Y0028314D01*
X0012394Y0028412D01*
X0012518Y0028512D01*
X0012640Y0028616D01*
X0012759Y0028723D01*
X0012875Y0028832D01*
X0012989Y0028945D01*
X0013099Y0029060D01*
X0013207Y0029178D01*
X0013312Y0029299D01*
X0013414Y0029422D01*
X0013513Y0029547D01*
X0013608Y0029675D01*
X0013701Y0029806D01*
X0014071Y0029552D01*
X0014072Y0029552D01*
X0013975Y0029414D01*
X0013874Y0029279D01*
X0013770Y0029146D01*
X0013662Y0029016D01*
X0013552Y0028889D01*
X0013439Y0028764D01*
X0013322Y0028642D01*
X0013202Y0028523D01*
X0013080Y0028407D01*
X0012955Y0028294D01*
X0012827Y0028184D01*
X0012696Y0028077D01*
X0012563Y0027974D01*
X0012428Y0027874D01*
X0012290Y0027777D01*
X0012149Y0027683D01*
X0012006Y0027593D01*
X0011862Y0027507D01*
X0011715Y0027424D01*
X0011566Y0027345D01*
X0011415Y0027269D01*
X0011262Y0027197D01*
X0011108Y0027129D01*
X0010952Y0027065D01*
X0010795Y0027005D01*
X0010636Y0026948D01*
X0010476Y0026896D01*
X0010314Y0026847D01*
X0010152Y0026802D01*
X0009988Y0026761D01*
X0009823Y0026725D01*
X0009658Y0026692D01*
X0009492Y0026664D01*
X0009325Y0026639D01*
X0009157Y0026619D01*
X0008990Y0026602D01*
X0008821Y0026590D01*
X0008653Y0026582D01*
X0008484Y0026578D01*
X0008316Y0026579D01*
X0008147Y0026583D01*
X0007979Y0026592D01*
X0007810Y0026604D01*
X0007643Y0026621D01*
X0007475Y0026642D01*
X0007309Y0026667D01*
X0007142Y0026696D01*
X0006977Y0026729D01*
X0006813Y0026766D01*
X0006649Y0026807D01*
X0006486Y0026852D01*
X0006325Y0026902D01*
X0006165Y0026955D01*
X0006006Y0027012D01*
X0005849Y0027073D01*
X0005693Y0027137D01*
X0005539Y0027206D01*
X0005387Y0027278D01*
X0005236Y0027354D01*
X0005088Y0027434D01*
X0004941Y0027517D01*
X0004796Y0027604D01*
X0004654Y0027694D01*
X0004514Y0027788D01*
X0004376Y0027885D01*
X0004241Y0027986D01*
X0004108Y0028090D01*
X0003978Y0028197D01*
X0003850Y0028307D01*
X0003725Y0028421D01*
X0003603Y0028537D01*
X0003484Y0028656D01*
X0003368Y0028779D01*
X0003255Y0028904D01*
X0003145Y0029031D01*
X0003038Y0029162D01*
X0002934Y0029295D01*
X0002834Y0029430D01*
X0002737Y0029568D01*
X0002643Y0029709D01*
X0002553Y0029851D01*
X0002466Y0029996D01*
X0002383Y0030143D01*
X0002304Y0030291D01*
X0002228Y0030442D01*
X0002156Y0030595D01*
X0002088Y0030749D01*
X0002023Y0030905D01*
X0001963Y0031062D01*
X0001906Y0031221D01*
X0001853Y0031381D01*
X0001804Y0031542D01*
X0001759Y0031705D01*
X0001718Y0031869D01*
X0001682Y0032033D01*
X0001649Y0032199D01*
X0001620Y0032365D01*
X0001595Y0032532D01*
X0001575Y0032699D01*
X0001558Y0032867D01*
X0001546Y0033035D01*
X0001538Y0033203D01*
X0001534Y0033372D01*
X0001534Y0033541D01*
X0001538Y0033709D01*
X0001546Y0033878D01*
X0001558Y0034046D01*
X0001575Y0034214D01*
X0001596Y0034381D01*
X0001620Y0034548D01*
X0001649Y0034714D01*
X0001682Y0034879D01*
X0001719Y0035044D01*
X0001760Y0035208D01*
X0001805Y0035370D01*
X0001854Y0035532D01*
X0001907Y0035692D01*
X0001964Y0035850D01*
X0002024Y0036008D01*
X0002089Y0036164D01*
X0002157Y0036318D01*
X0002229Y0036470D01*
X0002305Y0036621D01*
X0002385Y0036770D01*
X0002468Y0036916D01*
X0002554Y0037061D01*
X0002644Y0037204D01*
X0002738Y0037344D01*
X0002835Y0037482D01*
X0002936Y0037617D01*
X0003039Y0037750D01*
X0003146Y0037881D01*
X0003256Y0038008D01*
X0003370Y0038133D01*
X0003486Y0038256D01*
X0003605Y0038375D01*
X0003727Y0038491D01*
X0003852Y0038605D01*
X0003980Y0038715D01*
X0004110Y0038822D01*
X0004243Y0038926D01*
X0004378Y0039026D01*
X0004516Y0039123D01*
X0004656Y0039217D01*
X0004799Y0039307D01*
X0004823Y0039267D01*
X0004682Y0039178D01*
X0004543Y0039085D01*
X0004406Y0038988D01*
X0004271Y0038888D01*
X0004139Y0038785D01*
X0004010Y0038679D01*
X0003883Y0038569D01*
X0003759Y0038457D01*
X0003638Y0038341D01*
X0003519Y0038223D01*
X0003404Y0038101D01*
X0003292Y0037977D01*
X0003182Y0037850D01*
X0003076Y0037721D01*
X0002973Y0037589D01*
X0002873Y0037454D01*
X0002777Y0037317D01*
X0002684Y0037178D01*
X0002594Y0037036D01*
X0002508Y0036893D01*
X0002426Y0036747D01*
X0002347Y0036599D01*
X0002271Y0036450D01*
X0002200Y0036298D01*
X0002132Y0036145D01*
X0002068Y0035990D01*
X0002008Y0035834D01*
X0001951Y0035676D01*
X0001899Y0035517D01*
X0001850Y0035357D01*
X0001805Y0035196D01*
X0001765Y0035033D01*
X0001728Y0034870D01*
X0001695Y0034705D01*
X0001667Y0034540D01*
X0001642Y0034375D01*
X0001622Y0034208D01*
X0001605Y0034042D01*
X0001593Y0033875D01*
X0001585Y0033707D01*
X0001581Y0033540D01*
X0001580Y0033372D01*
X0001585Y0033205D01*
X0001593Y0033038D01*
X0001605Y0032871D01*
X0001621Y0032704D01*
X0001642Y0032538D01*
X0001666Y0032372D01*
X0001695Y0032207D01*
X0001728Y0032043D01*
X0001764Y0031879D01*
X0001805Y0031717D01*
X0001849Y0031555D01*
X0001898Y0031395D01*
X0001950Y0031236D01*
X0002007Y0031078D01*
X0002067Y0030922D01*
X0002131Y0030767D01*
X0002199Y0030614D01*
X0002270Y0030463D01*
X0002346Y0030313D01*
X0002424Y0030165D01*
X0002507Y0030019D01*
X0002593Y0029876D01*
X0002682Y0029734D01*
X0002775Y0029595D01*
X0002872Y0029458D01*
X0002971Y0029323D01*
X0003074Y0029191D01*
X0003181Y0029062D01*
X0003290Y0028935D01*
X0003402Y0028810D01*
X0003518Y0028689D01*
X0003636Y0028571D01*
X0003757Y0028455D01*
X0003881Y0028342D01*
X0004008Y0028233D01*
X0004137Y0028126D01*
X0004269Y0028023D01*
X0004404Y0027923D01*
X0004541Y0027827D01*
X0004680Y0027734D01*
X0004821Y0027644D01*
X0004965Y0027558D01*
X0005110Y0027475D01*
X0005258Y0027396D01*
X0005408Y0027320D01*
X0005559Y0027249D01*
X0005712Y0027181D01*
X0005867Y0027116D01*
X0006023Y0027056D01*
X0006180Y0026999D01*
X0006339Y0026946D01*
X0006500Y0026898D01*
X0006661Y0026853D01*
X0006823Y0026812D01*
X0006987Y0026775D01*
X0007151Y0026742D01*
X0007316Y0026713D01*
X0007482Y0026688D01*
X0007648Y0026668D01*
X0007814Y0026651D01*
X0007982Y0026638D01*
X0008149Y0026630D01*
X0008316Y0026626D01*
X0008484Y0026625D01*
X0008651Y0026629D01*
X0008818Y0026637D01*
X0008986Y0026649D01*
X0009152Y0026665D01*
X0009318Y0026686D01*
X0009484Y0026710D01*
X0009649Y0026738D01*
X0009814Y0026771D01*
X0009977Y0026807D01*
X0010140Y0026848D01*
X0010301Y0026892D01*
X0010461Y0026940D01*
X0010621Y0026993D01*
X0010778Y0027049D01*
X0010935Y0027109D01*
X0011090Y0027173D01*
X0011243Y0027240D01*
X0011394Y0027312D01*
X0011544Y0027387D01*
X0011692Y0027465D01*
X0011838Y0027548D01*
X0011982Y0027633D01*
X0012123Y0027723D01*
X0012263Y0027815D01*
X0012400Y0027912D01*
X0012535Y0028011D01*
X0012667Y0028114D01*
X0012797Y0028220D01*
X0012924Y0028329D01*
X0013048Y0028441D01*
X0013170Y0028557D01*
X0013288Y0028675D01*
X0013404Y0028796D01*
X0013517Y0028920D01*
X0013626Y0029046D01*
X0013733Y0029175D01*
X0013836Y0029307D01*
X0013936Y0029442D01*
X0014033Y0029578D01*
X0013994Y0029605D01*
X0013898Y0029469D01*
X0013799Y0029336D01*
X0013696Y0029205D01*
X0013590Y0029076D01*
X0013482Y0028951D01*
X0013370Y0028828D01*
X0013255Y0028708D01*
X0013137Y0028590D01*
X0013016Y0028476D01*
X0012893Y0028364D01*
X0012766Y0028256D01*
X0012638Y0028151D01*
X0012506Y0028049D01*
X0012372Y0027950D01*
X0012236Y0027854D01*
X0012098Y0027762D01*
X0011957Y0027673D01*
X0011814Y0027588D01*
X0011669Y0027506D01*
X0011523Y0027428D01*
X0011374Y0027354D01*
X0011223Y0027283D01*
X0011071Y0027216D01*
X0010917Y0027152D01*
X0010762Y0027093D01*
X0010605Y0027037D01*
X0010447Y0026985D01*
X0010288Y0026937D01*
X0010128Y0026893D01*
X0009966Y0026853D01*
X0009804Y0026817D01*
X0009641Y0026785D01*
X0009477Y0026756D01*
X0009312Y0026732D01*
X0009147Y0026712D01*
X0008981Y0026696D01*
X0008816Y0026684D01*
X0008649Y0026676D01*
X0008483Y0026672D01*
X0008317Y0026673D01*
X0008151Y0026677D01*
X0007984Y0026685D01*
X0007819Y0026698D01*
X0007653Y0026714D01*
X0007488Y0026735D01*
X0007323Y0026760D01*
X0007160Y0026788D01*
X0006996Y0026821D01*
X0006834Y0026858D01*
X0006673Y0026898D01*
X0006513Y0026943D01*
X0006354Y0026991D01*
X0006196Y0027044D01*
X0006039Y0027100D01*
X0005884Y0027160D01*
X0005730Y0027224D01*
X0005578Y0027291D01*
X0005428Y0027363D01*
X0005280Y0027438D01*
X0005133Y0027516D01*
X0004988Y0027598D01*
X0004846Y0027684D01*
X0004705Y0027773D01*
X0004567Y0027866D01*
X0004431Y0027961D01*
X0004298Y0028061D01*
X0004167Y0028163D01*
X0004038Y0028269D01*
X0003912Y0028378D01*
X0003789Y0028489D01*
X0003669Y0028604D01*
X0003551Y0028722D01*
X0003437Y0028842D01*
X0003325Y0028966D01*
X0003217Y0029092D01*
X0003111Y0029220D01*
X0003009Y0029352D01*
X0002910Y0029485D01*
X0002814Y0029621D01*
X0002722Y0029760D01*
X0002633Y0029900D01*
X0002548Y0030043D01*
X0002466Y0030188D01*
X0002387Y0030335D01*
X0002313Y0030483D01*
X0002242Y0030634D01*
X0002174Y0030786D01*
X0002111Y0030939D01*
X0002051Y0031095D01*
X0001995Y0031251D01*
X0001943Y0031409D01*
X0001895Y0031568D01*
X0001850Y0031729D01*
X0001810Y0031890D01*
X0001774Y0032052D01*
X0001741Y0032216D01*
X0001713Y0032379D01*
X0001688Y0032544D01*
X0001668Y0032709D01*
X0001652Y0032875D01*
X0001640Y0033041D01*
X0001632Y0033207D01*
X0001627Y0033373D01*
X0001628Y0033539D01*
X0001632Y0033706D01*
X0001640Y0033872D01*
X0001652Y0034038D01*
X0001668Y0034203D01*
X0001689Y0034368D01*
X0001713Y0034533D01*
X0001742Y0034697D01*
X0001774Y0034860D01*
X0001811Y0035022D01*
X0001851Y0035183D01*
X0001895Y0035344D01*
X0001944Y0035503D01*
X0001996Y0035661D01*
X0002052Y0035818D01*
X0002112Y0035973D01*
X0002175Y0036126D01*
X0002243Y0036278D01*
X0002314Y0036429D01*
X0002388Y0036577D01*
X0002467Y0036724D01*
X0002549Y0036869D01*
X0002634Y0037012D01*
X0002723Y0037152D01*
X0002816Y0037290D01*
X0002911Y0037427D01*
X0003010Y0037560D01*
X0003113Y0037691D01*
X0003218Y0037820D01*
X0003327Y0037946D01*
X0003438Y0038069D01*
X0003553Y0038190D01*
X0003671Y0038307D01*
X0003791Y0038422D01*
X0003914Y0038534D01*
X0004040Y0038643D01*
X0004169Y0038748D01*
X0004300Y0038851D01*
X0004433Y0038950D01*
X0004569Y0039046D01*
X0004707Y0039138D01*
X0004848Y0039227D01*
X0004872Y0039187D01*
X0004733Y0039099D01*
X0004596Y0039007D01*
X0004461Y0038912D01*
X0004328Y0038813D01*
X0004198Y0038712D01*
X0004070Y0038607D01*
X0003945Y0038499D01*
X0003823Y0038388D01*
X0003703Y0038274D01*
X0003586Y0038157D01*
X0003473Y0038037D01*
X0003362Y0037915D01*
X0003254Y0037790D01*
X0003149Y0037662D01*
X0003048Y0037532D01*
X0002949Y0037399D01*
X0002854Y0037264D01*
X0002762Y0037126D01*
X0002674Y0036987D01*
X0002589Y0036845D01*
X0002508Y0036701D01*
X0002430Y0036556D01*
X0002356Y0036408D01*
X0002285Y0036259D01*
X0002218Y0036108D01*
X0002155Y0035955D01*
X0002096Y0035801D01*
X0002040Y0035646D01*
X0001988Y0035489D01*
X0001940Y0035331D01*
X0001896Y0035171D01*
X0001856Y0035011D01*
X0001820Y0034850D01*
X0001788Y0034688D01*
X0001760Y0034525D01*
X0001735Y0034362D01*
X0001715Y0034198D01*
X0001699Y0034034D01*
X0001687Y0033869D01*
X0001679Y0033704D01*
X0001675Y0033539D01*
X0001674Y0033373D01*
X0001679Y0033208D01*
X0001687Y0033043D01*
X0001699Y0032879D01*
X0001715Y0032714D01*
X0001735Y0032550D01*
X0001759Y0032387D01*
X0001787Y0032224D01*
X0001820Y0032062D01*
X0001856Y0031901D01*
X0001896Y0031741D01*
X0001940Y0031581D01*
X0001988Y0031423D01*
X0002039Y0031267D01*
X0002095Y0031111D01*
X0002154Y0030957D01*
X0002218Y0030804D01*
X0002284Y0030653D01*
X0002355Y0030504D01*
X0002429Y0030356D01*
X0002507Y0030210D01*
X0002588Y0030067D01*
X0002673Y0029925D01*
X0002761Y0029785D01*
X0002853Y0029648D01*
X0002948Y0029513D01*
X0003046Y0029380D01*
X0003148Y0029250D01*
X0003253Y0029122D01*
X0003360Y0028997D01*
X0003471Y0028874D01*
X0003585Y0028755D01*
X0003702Y0028638D01*
X0003821Y0028524D01*
X0003944Y0028413D01*
X0004069Y0028305D01*
X0004196Y0028200D01*
X0004326Y0028098D01*
X0004459Y0028000D01*
X0004594Y0027904D01*
X0004731Y0027812D01*
X0004870Y0027724D01*
X0005012Y0027639D01*
X0005156Y0027557D01*
X0005301Y0027479D01*
X0005449Y0027405D01*
X0005598Y0027334D01*
X0005749Y0027267D01*
X0005901Y0027204D01*
X0006056Y0027144D01*
X0006211Y0027088D01*
X0006368Y0027036D01*
X0006526Y0026988D01*
X0006685Y0026944D01*
X0006845Y0026903D01*
X0007006Y0026867D01*
X0007168Y0026834D01*
X0007331Y0026806D01*
X0007494Y0026782D01*
X0007658Y0026761D01*
X0007823Y0026745D01*
X0007987Y0026732D01*
X0008152Y0026724D01*
X0008317Y0026720D01*
X0008483Y0026719D01*
X0008648Y0026723D01*
X0008813Y0026731D01*
X0008977Y0026743D01*
X0009142Y0026759D01*
X0009306Y0026779D01*
X0009469Y0026803D01*
X0009632Y0026831D01*
X0009794Y0026863D01*
X0009955Y0026899D01*
X0010116Y0026939D01*
X0010275Y0026982D01*
X0010433Y0027030D01*
X0010590Y0027082D01*
X0010746Y0027137D01*
X0010900Y0027196D01*
X0011053Y0027259D01*
X0011204Y0027326D01*
X0011353Y0027396D01*
X0011501Y0027470D01*
X0011647Y0027548D01*
X0011791Y0027629D01*
X0011932Y0027713D01*
X0012072Y0027801D01*
X0012210Y0027893D01*
X0012345Y0027988D01*
X0012478Y0028086D01*
X0012608Y0028187D01*
X0012736Y0028292D01*
X0012861Y0028399D01*
X0012984Y0028510D01*
X0013104Y0028624D01*
X0013221Y0028740D01*
X0013335Y0028860D01*
X0013446Y0028982D01*
X0013554Y0029107D01*
X0013660Y0029234D01*
X0013761Y0029364D01*
X0013860Y0029497D01*
X0013956Y0029631D01*
X0013917Y0029658D01*
X0013822Y0029524D01*
X0013724Y0029393D01*
X0013623Y0029263D01*
X0013518Y0029137D01*
X0013411Y0029013D01*
X0013301Y0028892D01*
X0013187Y0028773D01*
X0013071Y0028657D01*
X0012952Y0028544D01*
X0012830Y0028435D01*
X0012706Y0028328D01*
X0012579Y0028224D01*
X0012449Y0028123D01*
X0012317Y0028026D01*
X0012183Y0027932D01*
X0012046Y0027841D01*
X0011908Y0027753D01*
X0011767Y0027669D01*
X0011624Y0027589D01*
X0011479Y0027512D01*
X0011332Y0027438D01*
X0011184Y0027368D01*
X0011034Y0027302D01*
X0010882Y0027240D01*
X0010729Y0027181D01*
X0010575Y0027126D01*
X0010419Y0027075D01*
X0010262Y0027027D01*
X0010104Y0026984D01*
X0009944Y0026944D01*
X0009784Y0026909D01*
X0009623Y0026877D01*
X0009462Y0026849D01*
X0009299Y0026825D01*
X0009137Y0026806D01*
X0008973Y0026790D01*
X0008810Y0026778D01*
X0008646Y0026770D01*
X0008482Y0026766D01*
X0008318Y0026767D01*
X0008154Y0026771D01*
X0007990Y0026779D01*
X0007827Y0026791D01*
X0007663Y0026808D01*
X0007501Y0026828D01*
X0007338Y0026852D01*
X0007177Y0026881D01*
X0007016Y0026913D01*
X0006856Y0026949D01*
X0006697Y0026989D01*
X0006539Y0027033D01*
X0006382Y0027081D01*
X0006226Y0027132D01*
X0006072Y0027188D01*
X0005919Y0027247D01*
X0005767Y0027310D01*
X0005618Y0027377D01*
X0005469Y0027447D01*
X0005323Y0027521D01*
X0005178Y0027598D01*
X0005036Y0027679D01*
X0004895Y0027764D01*
X0004757Y0027852D01*
X0004620Y0027943D01*
X0004486Y0028038D01*
X0004355Y0028135D01*
X0004226Y0028237D01*
X0004099Y0028341D01*
X0003975Y0028448D01*
X0003853Y0028558D01*
X0003735Y0028671D01*
X0003619Y0028787D01*
X0003506Y0028906D01*
X0003396Y0029028D01*
X0003289Y0029152D01*
X0003185Y0029279D01*
X0003084Y0029409D01*
X0002986Y0029540D01*
X0002892Y0029674D01*
X0002801Y0029811D01*
X0002713Y0029950D01*
X0002629Y0030090D01*
X0002548Y0030233D01*
X0002471Y0030378D01*
X0002397Y0030524D01*
X0002327Y0030673D01*
X0002261Y0030823D01*
X0002198Y0030974D01*
X0002139Y0031127D01*
X0002084Y0031282D01*
X0002033Y0031438D01*
X0001985Y0031594D01*
X0001941Y0031753D01*
X0001901Y0031912D01*
X0001866Y0032072D01*
X0001834Y0032233D01*
X0001806Y0032394D01*
X0001782Y0032557D01*
X0001762Y0032719D01*
X0001746Y0032883D01*
X0001734Y0033046D01*
X0001725Y0033210D01*
X0001721Y0033374D01*
X0001722Y0033538D01*
X0001726Y0033702D01*
X0001734Y0033866D01*
X0001746Y0034029D01*
X0001762Y0034193D01*
X0001782Y0034355D01*
X0001806Y0034518D01*
X0001834Y0034679D01*
X0001866Y0034840D01*
X0001902Y0035000D01*
X0001942Y0035159D01*
X0001985Y0035317D01*
X0002033Y0035474D01*
X0002085Y0035630D01*
X0002140Y0035785D01*
X0002199Y0035938D01*
X0002262Y0036089D01*
X0002328Y0036239D01*
X0002398Y0036387D01*
X0002472Y0036534D01*
X0002549Y0036679D01*
X0002630Y0036821D01*
X0002714Y0036962D01*
X0002802Y0037101D01*
X0002893Y0037237D01*
X0002987Y0037371D01*
X0003085Y0037503D01*
X0003186Y0037632D01*
X0003290Y0037759D01*
X0003397Y0037883D01*
X0003507Y0038005D01*
X0003620Y0038124D01*
X0003736Y0038240D01*
X0003855Y0038353D01*
X0003976Y0038463D01*
X0004100Y0038571D01*
X0004227Y0038675D01*
X0004356Y0038776D01*
X0004488Y0038874D01*
X0004622Y0038968D01*
X0004758Y0039059D01*
X0004897Y0039147D01*
X0004921Y0039107D01*
X0004784Y0039020D01*
X0004648Y0038929D01*
X0004515Y0038835D01*
X0004385Y0038738D01*
X0004256Y0038638D01*
X0004130Y0038535D01*
X0004007Y0038428D01*
X0003887Y0038319D01*
X0003769Y0038206D01*
X0003654Y0038091D01*
X0003541Y0037973D01*
X0003432Y0037852D01*
X0003326Y0037729D01*
X0003222Y0037603D01*
X0003122Y0037474D01*
X0003025Y0037344D01*
X0002932Y0037210D01*
X0002841Y0037075D01*
X0002754Y0036937D01*
X0002670Y0036798D01*
X0002590Y0036656D01*
X0002513Y0036512D01*
X0002440Y0036367D01*
X0002371Y0036219D01*
X0002305Y0036071D01*
X0002242Y0035920D01*
X0002184Y0035768D01*
X0002129Y0035615D01*
X0002078Y0035460D01*
X0002031Y0035304D01*
X0001987Y0035147D01*
X0001948Y0034989D01*
X0001912Y0034830D01*
X0001880Y0034671D01*
X0001852Y0034510D01*
X0001828Y0034349D01*
X0001808Y0034187D01*
X0001793Y0034025D01*
X0001781Y0033863D01*
X0001773Y0033700D01*
X0001769Y0033537D01*
X0001768Y0033374D01*
X0001772Y0033212D01*
X0001780Y0033049D01*
X0001792Y0032887D01*
X0001808Y0032724D01*
X0001828Y0032563D01*
X0001852Y0032402D01*
X0001880Y0032241D01*
X0001912Y0032081D01*
X0001947Y0031923D01*
X0001987Y0031765D01*
X0002030Y0031608D01*
X0002077Y0031452D01*
X0002128Y0031297D01*
X0002183Y0031144D01*
X0002242Y0030992D01*
X0002304Y0030841D01*
X0002370Y0030692D01*
X0002439Y0030545D01*
X0002513Y0030399D01*
X0002589Y0030256D01*
X0002669Y0030114D01*
X0002753Y0029974D01*
X0002840Y0029837D01*
X0002931Y0029701D01*
X0003024Y0029568D01*
X0003121Y0029437D01*
X0003221Y0029308D01*
X0003325Y0029182D01*
X0003431Y0029059D01*
X0003540Y0028938D01*
X0003652Y0028820D01*
X0003767Y0028705D01*
X0003885Y0028593D01*
X0004006Y0028483D01*
X0004129Y0028377D01*
X0004255Y0028273D01*
X0004383Y0028173D01*
X0004514Y0028076D01*
X0004647Y0027982D01*
X0004782Y0027891D01*
X0004920Y0027804D01*
X0005059Y0027720D01*
X0005201Y0027640D01*
X0005345Y0027563D01*
X0005490Y0027489D01*
X0005637Y0027419D01*
X0005786Y0027353D01*
X0005936Y0027291D01*
X0006088Y0027232D01*
X0006242Y0027177D01*
X0006396Y0027126D01*
X0006552Y0027078D01*
X0006709Y0027035D01*
X0006867Y0026995D01*
X0007026Y0026959D01*
X0007185Y0026927D01*
X0007346Y0026899D01*
X0007507Y0026875D01*
X0007669Y0026855D01*
X0007831Y0026838D01*
X0007993Y0026826D01*
X0008156Y0026818D01*
X0008318Y0026814D01*
X0008481Y0026813D01*
X0008644Y0026817D01*
X0008807Y0026825D01*
X0008969Y0026837D01*
X0009131Y0026852D01*
X0009293Y0026872D01*
X0009454Y0026896D01*
X0009615Y0026923D01*
X0009775Y0026955D01*
X0009934Y0026990D01*
X0010092Y0027029D01*
X0010249Y0027073D01*
X0010405Y0027120D01*
X0010559Y0027170D01*
X0010713Y0027225D01*
X0010865Y0027283D01*
X0011015Y0027345D01*
X0011164Y0027411D01*
X0011312Y0027480D01*
X0011457Y0027553D01*
X0011601Y0027630D01*
X0011743Y0027710D01*
X0011883Y0027793D01*
X0012021Y0027880D01*
X0012156Y0027970D01*
X0012290Y0028064D01*
X0012421Y0028161D01*
X0012549Y0028261D01*
X0012675Y0028364D01*
X0012799Y0028470D01*
X0012920Y0028579D01*
X0013038Y0028691D01*
X0013154Y0028806D01*
X0013266Y0028924D01*
X0013376Y0029044D01*
X0013482Y0029167D01*
X0013586Y0029293D01*
X0013687Y0029421D01*
X0013784Y0029552D01*
X0013878Y0029684D01*
X0013839Y0029711D01*
X0013746Y0029579D01*
X0013649Y0029449D01*
X0013549Y0029322D01*
X0013446Y0029197D01*
X0013341Y0029075D01*
X0013232Y0028956D01*
X0013120Y0028839D01*
X0013005Y0028725D01*
X0012888Y0028613D01*
X0012768Y0028505D01*
X0012645Y0028400D01*
X0012520Y0028297D01*
X0012392Y0028198D01*
X0012262Y0028102D01*
X0012130Y0028009D01*
X0011995Y0027920D01*
X0011858Y0027833D01*
X0011719Y0027750D01*
X0011579Y0027671D01*
X0011436Y0027595D01*
X0011291Y0027523D01*
X0011145Y0027454D01*
X0010997Y0027389D01*
X0010847Y0027327D01*
X0010696Y0027269D01*
X0010544Y0027215D01*
X0010390Y0027164D01*
X0010236Y0027118D01*
X0010080Y0027075D01*
X0009923Y0027036D01*
X0009765Y0027001D01*
X0009606Y0026969D01*
X0009447Y0026942D01*
X0009287Y0026919D01*
X0009126Y0026899D01*
X0008965Y0026883D01*
X0008804Y0026872D01*
X0008642Y0026864D01*
X0008481Y0026860D01*
X0008319Y0026861D01*
X0008157Y0026865D01*
X0007996Y0026873D01*
X0007835Y0026885D01*
X0007674Y0026901D01*
X0007513Y0026921D01*
X0007353Y0026945D01*
X0007194Y0026973D01*
X0007035Y0027005D01*
X0006878Y0027040D01*
X0006721Y0027080D01*
X0006565Y0027123D01*
X0006410Y0027170D01*
X0006257Y0027221D01*
X0006105Y0027276D01*
X0005954Y0027334D01*
X0005805Y0027396D01*
X0005657Y0027462D01*
X0005511Y0027531D01*
X0005366Y0027604D01*
X0005224Y0027681D01*
X0005083Y0027761D01*
X0004945Y0027844D01*
X0004808Y0027931D01*
X0004674Y0028021D01*
X0004541Y0028114D01*
X0004412Y0028210D01*
X0004284Y0028310D01*
X0004159Y0028413D01*
X0004037Y0028518D01*
X0003917Y0028627D01*
X0003800Y0028739D01*
X0003686Y0028853D01*
X0003575Y0028970D01*
X0003466Y0029090D01*
X0003361Y0029213D01*
X0003258Y0029338D01*
X0003159Y0029465D01*
X0003062Y0029595D01*
X0002969Y0029728D01*
X0002880Y0029862D01*
X0002793Y0029999D01*
X0002710Y0030138D01*
X0002630Y0030278D01*
X0002554Y0030421D01*
X0002482Y0030565D01*
X0002413Y0030712D01*
X0002347Y0030860D01*
X0002285Y0031009D01*
X0002227Y0031160D01*
X0002173Y0031312D01*
X0002122Y0031466D01*
X0002075Y0031621D01*
X0002032Y0031776D01*
X0001993Y0031933D01*
X0001958Y0032091D01*
X0001926Y0032250D01*
X0001898Y0032409D01*
X0001875Y0032569D01*
X0001855Y0032730D01*
X0001839Y0032890D01*
X0001827Y0033052D01*
X0001819Y0033213D01*
X0001815Y0033375D01*
X0001816Y0033537D01*
X0001819Y0033698D01*
X0001827Y0033860D01*
X0001839Y0034021D01*
X0001855Y0034182D01*
X0001875Y0034343D01*
X0001899Y0034503D01*
X0001926Y0034662D01*
X0001958Y0034820D01*
X0001993Y0034978D01*
X0002033Y0035135D01*
X0002076Y0035291D01*
X0002123Y0035446D01*
X0002173Y0035599D01*
X0002228Y0035752D01*
X0002286Y0035903D01*
X0002348Y0036052D01*
X0002413Y0036200D01*
X0002482Y0036346D01*
X0002555Y0036490D01*
X0002631Y0036633D01*
X0002711Y0036774D01*
X0002794Y0036913D01*
X0002880Y0037049D01*
X0002970Y0037184D01*
X0003063Y0037316D01*
X0003160Y0037446D01*
X0003259Y0037573D01*
X0003362Y0037699D01*
X0003467Y0037821D01*
X0003576Y0037941D01*
X0003687Y0038058D01*
X0003801Y0038173D01*
X0003918Y0038284D01*
X0004038Y0038393D01*
X0004161Y0038498D01*
X0004286Y0038601D01*
X0004413Y0038701D01*
X0004543Y0038797D01*
X0004675Y0038890D01*
X0004809Y0038980D01*
X0004946Y0039067D01*
X0004970Y0039027D01*
X0004835Y0038941D01*
X0004701Y0038852D01*
X0004570Y0038759D01*
X0004441Y0038663D01*
X0004315Y0038564D01*
X0004191Y0038462D01*
X0004069Y0038357D01*
X0003950Y0038250D01*
X0003834Y0038139D01*
X0003721Y0038025D01*
X0003610Y0037909D01*
X0003502Y0037790D01*
X0003397Y0037668D01*
X0003296Y0037544D01*
X0003197Y0037417D01*
X0003101Y0037288D01*
X0003009Y0037157D01*
X0002920Y0037024D01*
X0002834Y0036888D01*
X0002751Y0036750D01*
X0002672Y0036610D01*
X0002597Y0036469D01*
X0002525Y0036325D01*
X0002456Y0036180D01*
X0002391Y0036033D01*
X0002330Y0035885D01*
X0002272Y0035735D01*
X0002218Y0035584D01*
X0002167Y0035431D01*
X0002121Y0035278D01*
X0002078Y0035123D01*
X0002039Y0034967D01*
X0002004Y0034811D01*
X0001973Y0034653D01*
X0001945Y0034495D01*
X0001922Y0034336D01*
X0001902Y0034177D01*
X0001886Y0034017D01*
X0001874Y0033857D01*
X0001866Y0033697D01*
X0001863Y0033536D01*
X0001862Y0033375D01*
X0001866Y0033215D01*
X0001874Y0033055D01*
X0001886Y0032894D01*
X0001902Y0032735D01*
X0001921Y0032575D01*
X0001945Y0032416D01*
X0001972Y0032258D01*
X0002004Y0032101D01*
X0002039Y0031944D01*
X0002078Y0031788D01*
X0002120Y0031634D01*
X0002167Y0031480D01*
X0002217Y0031327D01*
X0002271Y0031176D01*
X0002329Y0031026D01*
X0002390Y0030878D01*
X0002455Y0030731D01*
X0002524Y0030586D01*
X0002596Y0030443D01*
X0002672Y0030301D01*
X0002751Y0030161D01*
X0002833Y0030023D01*
X0002919Y0029888D01*
X0003008Y0029754D01*
X0003101Y0029623D01*
X0003196Y0029494D01*
X0003295Y0029367D01*
X0003397Y0029243D01*
X0003501Y0029121D01*
X0003609Y0029002D01*
X0003720Y0028886D01*
X0003833Y0028772D01*
X0003949Y0028661D01*
X0004068Y0028553D01*
X0004190Y0028449D01*
X0004314Y0028347D01*
X0004440Y0028248D01*
X0004569Y0028152D01*
X0004700Y0028059D01*
X0004834Y0027970D01*
X0004969Y0027884D01*
X0005107Y0027801D01*
X0005246Y0027722D01*
X0005388Y0027646D01*
X0005531Y0027574D01*
X0005676Y0027505D01*
X0005823Y0027440D01*
X0005971Y0027378D01*
X0006121Y0027320D01*
X0006272Y0027266D01*
X0006425Y0027215D01*
X0006578Y0027168D01*
X0006733Y0027125D01*
X0006889Y0027086D01*
X0007045Y0027051D01*
X0007203Y0027019D01*
X0007361Y0026992D01*
X0007520Y0026968D01*
X0007679Y0026948D01*
X0007839Y0026932D01*
X0007999Y0026920D01*
X0008159Y0026912D01*
X0008320Y0026908D01*
X0008480Y0026907D01*
X0008641Y0026911D01*
X0008801Y0026919D01*
X0008961Y0026930D01*
X0009121Y0026946D01*
X0009280Y0026965D01*
X0009439Y0026988D01*
X0009598Y0027016D01*
X0009755Y0027047D01*
X0009912Y0027082D01*
X0010068Y0027120D01*
X0010222Y0027163D01*
X0010376Y0027209D01*
X0010529Y0027259D01*
X0010680Y0027313D01*
X0010830Y0027371D01*
X0010978Y0027432D01*
X0011125Y0027497D01*
X0011271Y0027565D01*
X0011414Y0027637D01*
X0011556Y0027712D01*
X0011696Y0027791D01*
X0011834Y0027873D01*
X0011969Y0027959D01*
X0012103Y0028048D01*
X0012235Y0028140D01*
X0012364Y0028235D01*
X0012491Y0028334D01*
X0012615Y0028436D01*
X0012737Y0028540D01*
X0012856Y0028648D01*
X0012972Y0028758D01*
X0013086Y0028871D01*
X0013197Y0028987D01*
X0013305Y0029106D01*
X0013410Y0029228D01*
X0013513Y0029351D01*
X0013612Y0029478D01*
X0013708Y0029606D01*
X0013800Y0029738D01*
X0013762Y0029764D01*
X0013669Y0029633D01*
X0013573Y0029504D01*
X0013474Y0029378D01*
X0013372Y0029254D01*
X0013266Y0029133D01*
X0013158Y0029015D01*
X0013047Y0028899D01*
X0012933Y0028786D01*
X0012817Y0028675D01*
X0012697Y0028568D01*
X0012575Y0028464D01*
X0012451Y0028362D01*
X0012324Y0028264D01*
X0012194Y0028169D01*
X0012063Y0028077D01*
X0011929Y0027989D01*
X0011793Y0027903D01*
X0011655Y0027822D01*
X0011515Y0027743D01*
X0011373Y0027668D01*
X0011229Y0027597D01*
X0011083Y0027529D01*
X0010936Y0027465D01*
X0010788Y0027404D01*
X0010638Y0027348D01*
X0010486Y0027294D01*
X0010333Y0027245D01*
X0010180Y0027199D01*
X0010025Y0027158D01*
X0009869Y0027120D01*
X0009712Y0027086D01*
X0009554Y0027055D01*
X0009396Y0027029D01*
X0009237Y0027007D01*
X0009077Y0026988D01*
X0008917Y0026974D01*
X0008757Y0026963D01*
X0008597Y0026957D01*
X0008436Y0026954D01*
X0008276Y0026955D01*
X0008115Y0026961D01*
X0007955Y0026970D01*
X0007795Y0026983D01*
X0007636Y0027000D01*
X0007477Y0027021D01*
X0007318Y0027046D01*
X0007160Y0027075D01*
X0007003Y0027108D01*
X0006847Y0027145D01*
X0006691Y0027185D01*
X0006537Y0027230D01*
X0006384Y0027278D01*
X0006232Y0027330D01*
X0006082Y0027385D01*
X0005932Y0027445D01*
X0005785Y0027508D01*
X0005639Y0027574D01*
X0005494Y0027644D01*
X0005352Y0027718D01*
X0005211Y0027795D01*
X0005072Y0027876D01*
X0004936Y0027960D01*
X0004801Y0028048D01*
X0004669Y0028138D01*
X0004539Y0028232D01*
X0004411Y0028330D01*
X0004285Y0028430D01*
X0004163Y0028533D01*
X0004042Y0028640D01*
X0003925Y0028749D01*
X0003810Y0028861D01*
X0003698Y0028976D01*
X0003589Y0029094D01*
X0003483Y0029214D01*
X0003380Y0029337D01*
X0003279Y0029463D01*
X0003182Y0029590D01*
X0003089Y0029721D01*
X0002998Y0029853D01*
X0002911Y0029988D01*
X0002827Y0030125D01*
X0002746Y0030264D01*
X0002669Y0030404D01*
X0002596Y0030547D01*
X0002526Y0030691D01*
X0002459Y0030838D01*
X0002396Y0030985D01*
X0002337Y0031135D01*
X0002282Y0031285D01*
X0002230Y0031437D01*
X0002182Y0031590D01*
X0002138Y0031745D01*
X0002098Y0031900D01*
X0002061Y0032056D01*
X0002029Y0032214D01*
X0002000Y0032371D01*
X0001975Y0032530D01*
X0001954Y0032689D01*
X0001937Y0032849D01*
X0001924Y0033009D01*
X0001915Y0033169D01*
X0001910Y0033329D01*
X0001909Y0033490D01*
X0001912Y0033650D01*
X0001919Y0033811D01*
X0001930Y0033971D01*
X0001944Y0034131D01*
X0001963Y0034290D01*
X0001985Y0034449D01*
X0002012Y0034607D01*
X0002042Y0034765D01*
X0002077Y0034922D01*
X0002115Y0035078D01*
X0002157Y0035233D01*
X0002203Y0035387D01*
X0002252Y0035539D01*
X0002305Y0035691D01*
X0002363Y0035841D01*
X0002423Y0035989D01*
X0002488Y0036136D01*
X0002556Y0036282D01*
X0002627Y0036425D01*
X0002702Y0036567D01*
X0002781Y0036707D01*
X0002863Y0036845D01*
X0002948Y0036981D01*
X0003037Y0037115D01*
X0003129Y0037246D01*
X0003224Y0037376D01*
X0003323Y0037502D01*
X0003424Y0037627D01*
X0003529Y0037749D01*
X0003636Y0037868D01*
X0003747Y0037984D01*
X0003860Y0038098D01*
X0003976Y0038209D01*
X0004095Y0038317D01*
X0004216Y0038422D01*
X0004340Y0038524D01*
X0004466Y0038623D01*
X0004595Y0038719D01*
X0004726Y0038811D01*
X0004859Y0038901D01*
X0004995Y0038987D01*
X0005020Y0038947D01*
X0004885Y0038861D01*
X0004753Y0038773D01*
X0004622Y0038681D01*
X0004495Y0038586D01*
X0004369Y0038487D01*
X0004246Y0038386D01*
X0004126Y0038282D01*
X0004008Y0038175D01*
X0003893Y0038064D01*
X0003780Y0037951D01*
X0003671Y0037836D01*
X0003564Y0037717D01*
X0003460Y0037597D01*
X0003359Y0037473D01*
X0003262Y0037347D01*
X0003167Y0037219D01*
X0003076Y0037088D01*
X0002988Y0036955D01*
X0002903Y0036821D01*
X0002822Y0036684D01*
X0002744Y0036545D01*
X0002669Y0036404D01*
X0002598Y0036261D01*
X0002530Y0036117D01*
X0002467Y0035971D01*
X0002406Y0035823D01*
X0002350Y0035674D01*
X0002297Y0035524D01*
X0002247Y0035373D01*
X0002202Y0035220D01*
X0002160Y0035066D01*
X0002122Y0034911D01*
X0002088Y0034756D01*
X0002058Y0034599D01*
X0002032Y0034442D01*
X0002009Y0034284D01*
X0001991Y0034126D01*
X0001976Y0033967D01*
X0001966Y0033808D01*
X0001959Y0033649D01*
X0001956Y0033490D01*
X0001957Y0033330D01*
X0001962Y0033171D01*
X0001971Y0033012D01*
X0001984Y0032853D01*
X0002001Y0032695D01*
X0002022Y0032537D01*
X0002046Y0032379D01*
X0002075Y0032222D01*
X0002107Y0032066D01*
X0002143Y0031911D01*
X0002183Y0031757D01*
X0002227Y0031604D01*
X0002275Y0031452D01*
X0002326Y0031301D01*
X0002381Y0031151D01*
X0002440Y0031003D01*
X0002502Y0030856D01*
X0002568Y0030711D01*
X0002638Y0030568D01*
X0002711Y0030426D01*
X0002787Y0030287D01*
X0002867Y0030149D01*
X0002950Y0030013D01*
X0003037Y0029879D01*
X0003127Y0029748D01*
X0003220Y0029618D01*
X0003316Y0029491D01*
X0003416Y0029367D01*
X0003518Y0029245D01*
X0003624Y0029125D01*
X0003732Y0029008D01*
X0003843Y0028894D01*
X0003957Y0028783D01*
X0004074Y0028674D01*
X0004193Y0028569D01*
X0004315Y0028466D01*
X0004440Y0028367D01*
X0004567Y0028270D01*
X0004696Y0028177D01*
X0004827Y0028087D01*
X0004961Y0028000D01*
X0005096Y0027917D01*
X0005234Y0027836D01*
X0005374Y0027760D01*
X0005515Y0027686D01*
X0005659Y0027617D01*
X0005804Y0027551D01*
X0005950Y0027488D01*
X0006098Y0027429D01*
X0006248Y0027374D01*
X0006399Y0027322D01*
X0006551Y0027275D01*
X0006704Y0027231D01*
X0006858Y0027190D01*
X0007013Y0027154D01*
X0007169Y0027121D01*
X0007326Y0027093D01*
X0007483Y0027068D01*
X0007641Y0027047D01*
X0007800Y0027030D01*
X0007958Y0027017D01*
X0008118Y0027008D01*
X0008277Y0027002D01*
X0008436Y0027001D01*
X0008595Y0027004D01*
X0008755Y0027010D01*
X0008914Y0027021D01*
X0009072Y0027035D01*
X0009231Y0027053D01*
X0009388Y0027076D01*
X0009546Y0027102D01*
X0009702Y0027132D01*
X0009858Y0027166D01*
X0010013Y0027203D01*
X0010167Y0027245D01*
X0010319Y0027290D01*
X0010471Y0027339D01*
X0010621Y0027392D01*
X0010770Y0027448D01*
X0010918Y0027508D01*
X0011064Y0027572D01*
X0011208Y0027639D01*
X0011351Y0027710D01*
X0011492Y0027785D01*
X0011631Y0027862D01*
X0011768Y0027944D01*
X0011903Y0028028D01*
X0012036Y0028116D01*
X0012167Y0028207D01*
X0012295Y0028302D01*
X0012421Y0028399D01*
X0012545Y0028500D01*
X0012666Y0028603D01*
X0012785Y0028710D01*
X0012900Y0028819D01*
X0013013Y0028931D01*
X0013124Y0029047D01*
X0013231Y0029164D01*
X0013336Y0029285D01*
X0013437Y0029407D01*
X0013535Y0029533D01*
X0013631Y0029661D01*
X0013723Y0029791D01*
D16*
X0015548Y0030703D02*
X0015548Y0032155D01*
X0016031Y0032638D01*
X0017966Y0032638D01*
X0018450Y0032155D01*
X0018450Y0030703D01*
X0015548Y0030703D01*
X0016515Y0033650D02*
X0015548Y0034617D01*
X0018450Y0034617D01*
X0018450Y0033650D02*
X0018450Y0035585D01*
M02*
