%
M48
M72
T01C0.01575
T02C0.03150
T03C0.03543
T04C0.08661
%
T01
X26600Y20350
X26600Y50350
T02
X9100Y40350
X9100Y30350
T03
X66600Y85350
X76600Y85350
X86600Y85350
X96600Y85350
X96600Y95350
X86600Y95350
X76600Y95350
X66600Y95350
T04
X61600Y54350
X81600Y54350
X81600Y35350
X61600Y35350
X61600Y17100
X81600Y17100
X101600Y17100
X101600Y35350
X101600Y54350
M30
