%
M48
M72
T01C0.01575
T02C0.01969
T03C0.02362
T04C0.02756
T05C0.03150
T06C0.03200
T07C0.03543
T08C0.04331
T09C0.05512
T10C0.09843
%
T01
X42500Y71600
X42500Y91600
X42500Y101600
X32500Y91600
X32500Y121600
X72500Y101600
X72500Y91600
X83750Y93660
X83750Y101540
X95000Y101600
X105000Y101600
X122500Y111600
X132500Y111600
X142500Y111600
X142500Y141600
X132500Y141600
X122500Y141600
X134560Y154100
X142440Y154100
X152500Y151600
X162500Y151600
X182500Y144100
X182500Y114100
X187500Y102040
X187500Y94160
X185000Y76600
X185000Y66600
X155000Y66600
X155000Y76600
X105000Y131600
X105000Y141600
X95000Y131600
X84500Y141660
X84500Y149540
X105000Y171600
X67500Y176600
X37500Y176600
X72500Y71600
X152500Y181600
X162500Y181600
T02
X9250Y8350
X9250Y39100
X9250Y79100
X19250Y79100
X19250Y119100
X9250Y119100
X9250Y159100
X19250Y159100
X34000Y161600
X34000Y169100
X41750Y169100
X41750Y161600
X54250Y141600
X54250Y111600
X89250Y109100
X106750Y116600
X117750Y116600
X146500Y122100
X155000Y106600
X155000Y96600
X155000Y86600
X164000Y92100
X164000Y79600
X134998Y73030
X134995Y65170
X129000Y79600
X106500Y79600
X78500Y58350
X66000Y58350
X66000Y33350
X81000Y33350
X81000Y8350
X108500Y38350
X123500Y38350
X121000Y8350
X161000Y8350
X161000Y18350
X201000Y21350
X201000Y8350
X218250Y39100
X232750Y39100
X232750Y8350
X232750Y79100
X217750Y79100
X217750Y119100
X232750Y119100
X232750Y159100
X232750Y199100
X232750Y239100
X190250Y239100
X190250Y277350
X152750Y277350
X125250Y277350
X125250Y241600
X152750Y239100
X152750Y199100
X125250Y199100
X112750Y161600
X97750Y161600
X90250Y199100
X90250Y239100
X90250Y277350
X47750Y277350
X47750Y239100
X47750Y199100
X19250Y199100
X9250Y199100
X9250Y239100
X164000Y122100
X169000Y157100
X197750Y156600
X190250Y199100
X41000Y8350
T03
X100000Y74100
X120000Y74100
X122500Y96600
X142500Y96600
X152500Y116600
X152500Y129100
X152500Y141600
X172500Y141600
X172500Y129100
X172500Y116600
X172500Y106600
X172500Y86600
X192500Y119100
X192500Y139100
X82500Y131600
X82500Y111600
X67500Y81600
X47500Y81600
X47500Y152850
X67500Y152850
T04
X95000Y151600
X95000Y171600
X130000Y166600
X142500Y166600
X142500Y186600
X130000Y186600
T05
X32500Y149100
X22500Y149100
X22500Y134100
X32500Y134100
T06
X42500Y131600
X42500Y141600
X42500Y121600
X42500Y111600
X72500Y111600
X72500Y121600
X72500Y131600
X72500Y141600
T07
X106000Y24100
X106000Y14100
X116000Y14100
X116000Y24100
X126000Y24100
X126000Y14100
X136000Y14100
X136000Y24100
T08
X141250Y85163
X121250Y85163
X101250Y85163
X68750Y165163
X48750Y165163
X28750Y165163
X173750Y165163
X193750Y165163
X213750Y165163
T09
X207699Y213350
X207699Y238350
X207699Y263350
X143801Y263350
X143801Y238350
X143801Y213350
X98449Y213350
X98449Y238350
X98449Y263350
X34551Y263350
X34551Y238350
X34551Y213350
T10
X121250Y230663
X121250Y254285
M30
