G75*
%MOIN*%
%OFA0B0*%
%FSLAX25Y25*%
%IPPOS*%
%LPD*%
%AMOC8*
5,1,8,0,0,1.08239X$1,22.5*
%
%ADD10R,0.07087X0.07087*%
%ADD11C,0.07087*%
%ADD12C,0.00000*%
%ADD13C,0.08268*%
%ADD14C,0.05512*%
%ADD15R,0.05512X0.05512*%
%ADD16R,0.04331X0.04331*%
%ADD17C,0.04331*%
%ADD18C,0.13843*%
%ADD19C,0.06299*%
%ADD20C,0.05118*%
%ADD21C,0.05000*%
%ADD22C,0.05906*%
%ADD23R,0.05906X0.05906*%
%ADD24C,0.04724*%
%ADD25C,0.01200*%
%ADD26C,0.03346*%
%ADD27C,0.01000*%
%ADD28C,0.03200*%
%ADD29C,0.01600*%
D10*
X0068750Y0165163D03*
X0141250Y0085163D03*
X0213750Y0165163D03*
D11*
X0193750Y0165163D03*
X0173750Y0165163D03*
X0121250Y0085163D03*
X0101250Y0085163D03*
X0048750Y0165163D03*
X0028750Y0165163D03*
D12*
X0005000Y0004100D02*
X0237283Y0004100D01*
X0237283Y0257131D01*
X0215630Y0257131D01*
X0215630Y0284691D01*
X0026654Y0284691D01*
X0026654Y0257131D01*
X0005000Y0257131D01*
X0005000Y0004100D01*
D13*
X0034551Y0213350D03*
X0034551Y0238350D03*
X0034551Y0263350D03*
X0098449Y0263350D03*
X0098449Y0238350D03*
X0098449Y0213350D03*
X0143801Y0213350D03*
X0143801Y0238350D03*
X0143801Y0263350D03*
X0207699Y0263350D03*
X0207699Y0238350D03*
X0207699Y0213350D03*
D14*
X0142500Y0186600D03*
X0130000Y0166600D03*
X0095000Y0151600D03*
D15*
X0095000Y0171600D03*
X0130000Y0186600D03*
X0142500Y0166600D03*
D16*
X0134560Y0154100D03*
X0084500Y0141660D03*
X0083750Y0101540D03*
X0134995Y0065170D03*
X0187500Y0094160D03*
D17*
X0187500Y0102040D03*
X0182500Y0114100D03*
X0182500Y0144100D03*
X0162500Y0151600D03*
X0152500Y0151600D03*
X0142440Y0154100D03*
X0142500Y0141600D03*
X0132500Y0141600D03*
X0122500Y0141600D03*
X0105000Y0141600D03*
X0105000Y0131600D03*
X0095000Y0131600D03*
X0084500Y0149540D03*
X0105000Y0171600D03*
X0067500Y0176600D03*
X0037500Y0176600D03*
X0032500Y0121600D03*
X0042500Y0101600D03*
X0042500Y0091600D03*
X0032500Y0091600D03*
X0042500Y0071600D03*
X0072500Y0071600D03*
X0072500Y0091600D03*
X0072500Y0101600D03*
X0083750Y0093660D03*
X0095000Y0101600D03*
X0105000Y0101600D03*
X0122500Y0111600D03*
X0132500Y0111600D03*
X0142500Y0111600D03*
X0155000Y0076600D03*
X0155000Y0066600D03*
X0134998Y0073030D03*
X0185000Y0076600D03*
X0185000Y0066600D03*
X0162500Y0181600D03*
X0152500Y0181600D03*
D18*
X0121250Y0230663D03*
X0121250Y0254285D03*
D19*
X0126000Y0024100D03*
X0126000Y0014100D03*
X0116000Y0014100D03*
X0116000Y0024100D03*
X0106000Y0024100D03*
X0106000Y0014100D03*
X0136000Y0014100D03*
X0136000Y0024100D03*
D20*
X0120000Y0074100D03*
X0122500Y0096600D03*
X0142500Y0096600D03*
X0152500Y0116600D03*
X0152500Y0129100D03*
X0152500Y0141600D03*
X0172500Y0141600D03*
X0172500Y0129100D03*
X0172500Y0116600D03*
X0172500Y0106600D03*
X0172500Y0086600D03*
X0192500Y0119100D03*
X0192500Y0139100D03*
X0100000Y0074100D03*
X0067500Y0081600D03*
X0047500Y0081600D03*
X0082500Y0111600D03*
X0082500Y0131600D03*
X0067500Y0152850D03*
X0047500Y0152850D03*
D21*
X0042500Y0141600D03*
X0042500Y0131600D03*
X0042500Y0121600D03*
X0042500Y0111600D03*
X0072500Y0111600D03*
X0072500Y0121600D03*
X0072500Y0131600D03*
X0072500Y0141600D03*
D22*
X0032500Y0134100D03*
X0022500Y0149100D03*
D23*
X0032500Y0149100D03*
X0022500Y0134100D03*
D24*
X0155000Y0106600D03*
X0155000Y0096600D03*
X0155000Y0086600D03*
D25*
X0151290Y0087996D02*
X0150850Y0087996D01*
X0151038Y0087388D02*
X0151641Y0088844D01*
X0152756Y0089959D01*
X0154212Y0090562D01*
X0155788Y0090562D01*
X0157244Y0089959D01*
X0158359Y0088844D01*
X0158419Y0088700D01*
X0168868Y0088700D01*
X0168974Y0088956D01*
X0170144Y0090126D01*
X0171673Y0090759D01*
X0173327Y0090759D01*
X0174856Y0090126D01*
X0176026Y0088956D01*
X0176659Y0087427D01*
X0176659Y0085773D01*
X0176026Y0084244D01*
X0174856Y0083074D01*
X0173327Y0082441D01*
X0171673Y0082441D01*
X0170144Y0083074D01*
X0168974Y0084244D01*
X0168868Y0084500D01*
X0158419Y0084500D01*
X0158359Y0084356D01*
X0157244Y0083241D01*
X0157100Y0083181D01*
X0157100Y0079806D01*
X0157133Y0079792D01*
X0158192Y0078733D01*
X0158765Y0077349D01*
X0158765Y0075851D01*
X0158192Y0074467D01*
X0157133Y0073408D01*
X0155749Y0072835D01*
X0154251Y0072835D01*
X0152867Y0073408D01*
X0151808Y0074467D01*
X0151235Y0075851D01*
X0151235Y0077349D01*
X0151808Y0078733D01*
X0152867Y0079792D01*
X0152900Y0079806D01*
X0152900Y0083181D01*
X0152756Y0083241D01*
X0151641Y0084356D01*
X0151038Y0085812D01*
X0151038Y0087388D01*
X0151038Y0086797D02*
X0150850Y0086797D01*
X0150850Y0085599D02*
X0151126Y0085599D01*
X0150850Y0084400D02*
X0151622Y0084400D01*
X0150850Y0083202D02*
X0152850Y0083202D01*
X0152900Y0082003D02*
X0150850Y0082003D01*
X0150850Y0080805D02*
X0152900Y0080805D01*
X0152681Y0079606D02*
X0150850Y0079606D01*
X0150850Y0078408D02*
X0151673Y0078408D01*
X0151235Y0077209D02*
X0150850Y0077209D01*
X0150850Y0076011D02*
X0151235Y0076011D01*
X0150850Y0074812D02*
X0151665Y0074812D01*
X0150850Y0073614D02*
X0152661Y0073614D01*
X0150850Y0072415D02*
X0225100Y0072415D01*
X0225100Y0071217D02*
X0151603Y0071217D01*
X0150850Y0071970D02*
X0150850Y0094500D01*
X0151581Y0094500D01*
X0151641Y0094356D01*
X0152756Y0093241D01*
X0154212Y0092638D01*
X0155788Y0092638D01*
X0157244Y0093241D01*
X0158359Y0094356D01*
X0158962Y0095812D01*
X0158962Y0097388D01*
X0158359Y0098844D01*
X0157244Y0099959D01*
X0155788Y0100562D01*
X0154212Y0100562D01*
X0152756Y0099959D01*
X0151641Y0098844D01*
X0151581Y0098700D01*
X0148841Y0098700D01*
X0148339Y0098867D01*
X0148004Y0098700D01*
X0146132Y0098700D01*
X0146026Y0098956D01*
X0144856Y0100126D01*
X0143327Y0100759D01*
X0141673Y0100759D01*
X0140144Y0100126D01*
X0138974Y0098956D01*
X0138341Y0097427D01*
X0138341Y0095773D01*
X0138974Y0094244D01*
X0140144Y0093074D01*
X0141673Y0092441D01*
X0143327Y0092441D01*
X0144856Y0093074D01*
X0146026Y0094244D01*
X0146132Y0094500D01*
X0146650Y0094500D01*
X0146650Y0070230D01*
X0147880Y0069000D01*
X0151380Y0065500D01*
X0151808Y0064467D01*
X0152867Y0063408D01*
X0154251Y0062835D01*
X0155749Y0062835D01*
X0157133Y0063408D01*
X0158192Y0064467D01*
X0158765Y0065851D01*
X0158765Y0067349D01*
X0158192Y0068733D01*
X0157133Y0069792D01*
X0155749Y0070365D01*
X0154251Y0070365D01*
X0152981Y0069839D01*
X0150850Y0071970D01*
X0152802Y0070018D02*
X0153413Y0070018D01*
X0156587Y0070018D02*
X0183413Y0070018D01*
X0183216Y0069937D02*
X0182600Y0069525D01*
X0182075Y0069000D01*
X0181663Y0068384D01*
X0181379Y0067698D01*
X0181235Y0066971D01*
X0181235Y0066600D01*
X0181235Y0066229D01*
X0181379Y0065502D01*
X0181663Y0064816D01*
X0182075Y0064200D01*
X0182600Y0063675D01*
X0183216Y0063263D01*
X0183902Y0062979D01*
X0184629Y0062835D01*
X0185000Y0062835D01*
X0185371Y0062835D01*
X0186098Y0062979D01*
X0186784Y0063263D01*
X0187400Y0063675D01*
X0187925Y0064200D01*
X0188337Y0064816D01*
X0188621Y0065502D01*
X0188765Y0066229D01*
X0188765Y0066600D01*
X0188765Y0066971D01*
X0188621Y0067698D01*
X0188337Y0068384D01*
X0187925Y0069000D01*
X0187400Y0069525D01*
X0186784Y0069937D01*
X0186098Y0070221D01*
X0185371Y0070365D01*
X0185000Y0070365D01*
X0184629Y0070365D01*
X0183902Y0070221D01*
X0183216Y0069937D01*
X0181955Y0068820D02*
X0158105Y0068820D01*
X0158653Y0067621D02*
X0181364Y0067621D01*
X0181235Y0066600D02*
X0185000Y0066600D01*
X0188765Y0066600D01*
X0185000Y0066600D01*
X0185000Y0066600D01*
X0185000Y0066600D01*
X0185000Y0070365D01*
X0185000Y0066600D01*
X0185000Y0062835D01*
X0185000Y0066600D01*
X0185000Y0066600D01*
X0185000Y0066600D01*
X0181235Y0066600D01*
X0181235Y0066423D02*
X0158765Y0066423D01*
X0158506Y0065224D02*
X0181494Y0065224D01*
X0182249Y0064026D02*
X0157751Y0064026D01*
X0152249Y0064026D02*
X0138760Y0064026D01*
X0138760Y0065224D02*
X0151494Y0065224D01*
X0150458Y0066423D02*
X0138760Y0066423D01*
X0138760Y0067621D02*
X0149259Y0067621D01*
X0148061Y0068820D02*
X0137939Y0068820D01*
X0137823Y0068935D02*
X0132167Y0068935D01*
X0131230Y0067998D01*
X0131230Y0067270D01*
X0114800Y0067270D01*
X0107100Y0074970D01*
X0105870Y0076200D01*
X0103632Y0076200D01*
X0103526Y0076456D01*
X0102356Y0077626D01*
X0100827Y0078259D01*
X0099173Y0078259D01*
X0097644Y0077626D01*
X0096474Y0076456D01*
X0096368Y0076200D01*
X0090870Y0076200D01*
X0076252Y0090818D01*
X0076265Y0090851D01*
X0076265Y0092349D01*
X0075692Y0093733D01*
X0074633Y0094792D01*
X0073249Y0095365D01*
X0071751Y0095365D01*
X0070367Y0094792D01*
X0069308Y0093733D01*
X0068735Y0092349D01*
X0068735Y0090851D01*
X0069308Y0089467D01*
X0070367Y0088408D01*
X0071751Y0087835D01*
X0073249Y0087835D01*
X0073282Y0087848D01*
X0089130Y0072000D01*
X0096368Y0072000D01*
X0096474Y0071744D01*
X0097644Y0070574D01*
X0099173Y0069941D01*
X0100827Y0069941D01*
X0102356Y0070574D01*
X0103526Y0071744D01*
X0103632Y0072000D01*
X0104130Y0072000D01*
X0113060Y0063070D01*
X0131230Y0063070D01*
X0131230Y0062342D01*
X0132167Y0061405D01*
X0137823Y0061405D01*
X0138760Y0062342D01*
X0138760Y0067998D01*
X0137823Y0068935D01*
X0137130Y0069838D02*
X0138190Y0070897D01*
X0138763Y0072281D01*
X0138763Y0073779D01*
X0138190Y0075163D01*
X0137130Y0076222D01*
X0137101Y0076234D01*
X0137101Y0076400D01*
X0137100Y0076401D01*
X0137100Y0080020D01*
X0145456Y0080020D01*
X0146393Y0080957D01*
X0146393Y0089369D01*
X0145456Y0090306D01*
X0137044Y0090306D01*
X0136107Y0089369D01*
X0136107Y0085677D01*
X0134130Y0083700D01*
X0132900Y0082470D01*
X0132900Y0076237D01*
X0132865Y0076222D01*
X0131805Y0075163D01*
X0131232Y0073779D01*
X0131232Y0072281D01*
X0131805Y0070897D01*
X0132865Y0069838D01*
X0134249Y0069265D01*
X0135746Y0069265D01*
X0137130Y0069838D01*
X0137311Y0070018D02*
X0146862Y0070018D01*
X0146650Y0071217D02*
X0138322Y0071217D01*
X0138763Y0072415D02*
X0146650Y0072415D01*
X0146650Y0073614D02*
X0138763Y0073614D01*
X0138335Y0074812D02*
X0146650Y0074812D01*
X0146650Y0076011D02*
X0137342Y0076011D01*
X0137100Y0077209D02*
X0146650Y0077209D01*
X0146650Y0078408D02*
X0137100Y0078408D01*
X0137100Y0079606D02*
X0146650Y0079606D01*
X0146650Y0080805D02*
X0146241Y0080805D01*
X0146393Y0082003D02*
X0146650Y0082003D01*
X0146650Y0083202D02*
X0146393Y0083202D01*
X0146393Y0084400D02*
X0146650Y0084400D01*
X0146650Y0085599D02*
X0146393Y0085599D01*
X0146393Y0086797D02*
X0146650Y0086797D01*
X0146650Y0087996D02*
X0146393Y0087996D01*
X0146393Y0089194D02*
X0146650Y0089194D01*
X0146650Y0090393D02*
X0114263Y0090393D01*
X0115461Y0091591D02*
X0146650Y0091591D01*
X0146650Y0092790D02*
X0144170Y0092790D01*
X0145770Y0093988D02*
X0146650Y0093988D01*
X0146098Y0098782D02*
X0148169Y0098782D01*
X0148594Y0098782D02*
X0151615Y0098782D01*
X0152809Y0099981D02*
X0145001Y0099981D01*
X0148370Y0102000D02*
X0149600Y0103230D01*
X0150870Y0104500D01*
X0151581Y0104500D01*
X0151641Y0104356D01*
X0152756Y0103241D01*
X0154212Y0102638D01*
X0155788Y0102638D01*
X0157244Y0103241D01*
X0157567Y0103563D01*
X0167900Y0093230D01*
X0169130Y0092000D01*
X0183735Y0092000D01*
X0183735Y0091332D01*
X0184672Y0090395D01*
X0190328Y0090395D01*
X0191265Y0091332D01*
X0191265Y0096988D01*
X0190328Y0097925D01*
X0184672Y0097925D01*
X0183735Y0096988D01*
X0183735Y0096200D01*
X0170870Y0096200D01*
X0158453Y0108616D01*
X0158359Y0108844D01*
X0157244Y0109959D01*
X0155788Y0110562D01*
X0154212Y0110562D01*
X0152756Y0109959D01*
X0151641Y0108844D01*
X0151581Y0108700D01*
X0149130Y0108700D01*
X0146630Y0106200D01*
X0125870Y0106200D01*
X0124600Y0107470D01*
X0124600Y0108394D01*
X0124633Y0108408D01*
X0125692Y0109467D01*
X0126265Y0110851D01*
X0126265Y0112349D01*
X0125692Y0113733D01*
X0124633Y0114792D01*
X0123249Y0115365D01*
X0121751Y0115365D01*
X0120367Y0114792D01*
X0119308Y0113733D01*
X0118735Y0112349D01*
X0118735Y0110851D01*
X0119308Y0109467D01*
X0120367Y0108408D01*
X0120400Y0108394D01*
X0120400Y0105730D01*
X0121630Y0104500D01*
X0124130Y0102000D01*
X0148370Y0102000D01*
X0148748Y0102378D02*
X0158752Y0102378D01*
X0159951Y0101179D02*
X0108765Y0101179D01*
X0108765Y0100851D02*
X0108765Y0102349D01*
X0108192Y0103733D01*
X0107133Y0104792D01*
X0105749Y0105365D01*
X0104251Y0105365D01*
X0102886Y0104800D01*
X0097114Y0104800D01*
X0095749Y0105365D01*
X0094251Y0105365D01*
X0092886Y0104800D01*
X0087083Y0104800D01*
X0086578Y0105305D01*
X0080922Y0105305D01*
X0080357Y0104740D01*
X0074685Y0104740D01*
X0074633Y0104792D01*
X0073249Y0105365D01*
X0071751Y0105365D01*
X0070367Y0104792D01*
X0069308Y0103733D01*
X0068735Y0102349D01*
X0068735Y0100851D01*
X0069308Y0099467D01*
X0070367Y0098408D01*
X0071751Y0097835D01*
X0073249Y0097835D01*
X0074469Y0098340D01*
X0080357Y0098340D01*
X0080922Y0097775D01*
X0086578Y0097775D01*
X0087203Y0098400D01*
X0092886Y0098400D01*
X0094251Y0097835D01*
X0095749Y0097835D01*
X0097114Y0098400D01*
X0102886Y0098400D01*
X0104251Y0097835D01*
X0105749Y0097835D01*
X0107133Y0098408D01*
X0108192Y0099467D01*
X0108765Y0100851D01*
X0108405Y0099981D02*
X0119999Y0099981D01*
X0120144Y0100126D02*
X0118974Y0098956D01*
X0118868Y0098700D01*
X0116630Y0098700D01*
X0115400Y0097470D01*
X0105726Y0087796D01*
X0105610Y0088076D01*
X0104163Y0089523D01*
X0102273Y0090306D01*
X0100227Y0090306D01*
X0098337Y0089523D01*
X0096890Y0088076D01*
X0096107Y0086186D01*
X0096107Y0084140D01*
X0096890Y0082250D01*
X0098337Y0080803D01*
X0100227Y0080020D01*
X0102273Y0080020D01*
X0104163Y0080803D01*
X0105610Y0082250D01*
X0105947Y0083063D01*
X0106933Y0083063D01*
X0118370Y0094500D01*
X0118868Y0094500D01*
X0118974Y0094244D01*
X0120144Y0093074D01*
X0121673Y0092441D01*
X0123327Y0092441D01*
X0124856Y0093074D01*
X0126026Y0094244D01*
X0126659Y0095773D01*
X0126659Y0097427D01*
X0126026Y0098956D01*
X0124856Y0100126D01*
X0123327Y0100759D01*
X0121673Y0100759D01*
X0120144Y0100126D01*
X0118902Y0098782D02*
X0107507Y0098782D01*
X0108753Y0102378D02*
X0123752Y0102378D01*
X0122554Y0103576D02*
X0108257Y0103576D01*
X0107150Y0104775D02*
X0121355Y0104775D01*
X0120400Y0105973D02*
X0052100Y0105973D01*
X0052100Y0104775D02*
X0070350Y0104775D01*
X0069243Y0103576D02*
X0052100Y0103576D01*
X0052100Y0102378D02*
X0068747Y0102378D01*
X0068735Y0101179D02*
X0052100Y0101179D01*
X0052100Y0099981D02*
X0069095Y0099981D01*
X0069993Y0098782D02*
X0052100Y0098782D01*
X0052100Y0097584D02*
X0115514Y0097584D01*
X0114316Y0096385D02*
X0086350Y0096385D01*
X0086150Y0096585D02*
X0086675Y0096060D01*
X0087087Y0095444D01*
X0087371Y0094758D01*
X0087515Y0094031D01*
X0087515Y0093660D01*
X0083750Y0093660D01*
X0083750Y0093660D01*
X0083750Y0097425D01*
X0083379Y0097425D01*
X0082652Y0097281D01*
X0081966Y0096997D01*
X0081350Y0096585D01*
X0080825Y0096060D01*
X0080413Y0095444D01*
X0080129Y0094758D01*
X0079985Y0094031D01*
X0079985Y0093660D01*
X0079985Y0093289D01*
X0080129Y0092562D01*
X0080413Y0091876D01*
X0080825Y0091260D01*
X0081350Y0090735D01*
X0081966Y0090323D01*
X0082652Y0090039D01*
X0083379Y0089895D01*
X0083750Y0089895D01*
X0084121Y0089895D01*
X0084848Y0090039D01*
X0085534Y0090323D01*
X0086150Y0090735D01*
X0086675Y0091260D01*
X0087087Y0091876D01*
X0087371Y0092562D01*
X0087515Y0093289D01*
X0087515Y0093660D01*
X0083750Y0093660D01*
X0083750Y0097425D01*
X0084121Y0097425D01*
X0084848Y0097281D01*
X0085534Y0096997D01*
X0086150Y0096585D01*
X0087193Y0095187D02*
X0113117Y0095187D01*
X0111919Y0093988D02*
X0087515Y0093988D01*
X0087416Y0092790D02*
X0110720Y0092790D01*
X0109521Y0091591D02*
X0086896Y0091591D01*
X0085638Y0090393D02*
X0108323Y0090393D01*
X0107124Y0089194D02*
X0104492Y0089194D01*
X0105644Y0087996D02*
X0105926Y0087996D01*
X0109469Y0085599D02*
X0120767Y0085599D01*
X0120767Y0085646D02*
X0120767Y0084680D01*
X0121733Y0084680D01*
X0121733Y0085646D01*
X0126381Y0085646D01*
X0126267Y0086367D01*
X0126016Y0087137D01*
X0125649Y0087859D01*
X0125173Y0088514D01*
X0124601Y0089086D01*
X0123946Y0089562D01*
X0123224Y0089929D01*
X0122454Y0090180D01*
X0121733Y0090294D01*
X0121733Y0085646D01*
X0120767Y0085646D01*
X0120767Y0090294D01*
X0120046Y0090180D01*
X0119276Y0089929D01*
X0118554Y0089562D01*
X0117899Y0089086D01*
X0117327Y0088514D01*
X0116851Y0087859D01*
X0116484Y0087137D01*
X0116233Y0086367D01*
X0116119Y0085646D01*
X0120767Y0085646D01*
X0120767Y0084680D02*
X0116119Y0084680D01*
X0116233Y0083959D01*
X0116484Y0083189D01*
X0116851Y0082467D01*
X0117327Y0081812D01*
X0117899Y0081240D01*
X0118554Y0080764D01*
X0119276Y0080397D01*
X0120046Y0080146D01*
X0120767Y0080032D01*
X0120767Y0084680D01*
X0120767Y0084400D02*
X0121733Y0084400D01*
X0121733Y0084680D02*
X0121733Y0080032D01*
X0122454Y0080146D01*
X0123224Y0080397D01*
X0123946Y0080764D01*
X0124601Y0081240D01*
X0125173Y0081812D01*
X0125649Y0082467D01*
X0126016Y0083189D01*
X0126267Y0083959D01*
X0126381Y0084680D01*
X0121733Y0084680D01*
X0121733Y0085599D02*
X0136029Y0085599D01*
X0136107Y0086797D02*
X0126127Y0086797D01*
X0125549Y0087996D02*
X0136107Y0087996D01*
X0136107Y0089194D02*
X0124452Y0089194D01*
X0124170Y0092790D02*
X0140830Y0092790D01*
X0139230Y0093988D02*
X0125770Y0093988D01*
X0126416Y0095187D02*
X0138584Y0095187D01*
X0138341Y0096385D02*
X0126659Y0096385D01*
X0126594Y0097584D02*
X0138406Y0097584D01*
X0138902Y0098782D02*
X0126098Y0098782D01*
X0125001Y0099981D02*
X0139999Y0099981D01*
X0141751Y0107835D02*
X0143249Y0107835D01*
X0144633Y0108408D01*
X0145692Y0109467D01*
X0146265Y0110851D01*
X0146265Y0112349D01*
X0145692Y0113733D01*
X0145397Y0114028D01*
X0145870Y0114500D01*
X0148868Y0114500D01*
X0148974Y0114244D01*
X0150144Y0113074D01*
X0151673Y0112441D01*
X0153327Y0112441D01*
X0154856Y0113074D01*
X0156026Y0114244D01*
X0156132Y0114500D01*
X0156630Y0114500D01*
X0165400Y0105730D01*
X0166630Y0104500D01*
X0168868Y0104500D01*
X0168974Y0104244D01*
X0170144Y0103074D01*
X0171673Y0102441D01*
X0173327Y0102441D01*
X0174856Y0103074D01*
X0176026Y0104244D01*
X0176659Y0105773D01*
X0176659Y0107427D01*
X0176026Y0108956D01*
X0174856Y0110126D01*
X0173327Y0110759D01*
X0171673Y0110759D01*
X0170144Y0110126D01*
X0168974Y0108956D01*
X0168868Y0108700D01*
X0168370Y0108700D01*
X0158370Y0118700D01*
X0156132Y0118700D01*
X0156026Y0118956D01*
X0154856Y0120126D01*
X0154600Y0120232D01*
X0154600Y0125468D01*
X0154856Y0125574D01*
X0156026Y0126744D01*
X0156659Y0128273D01*
X0156659Y0129927D01*
X0156026Y0131456D01*
X0154856Y0132626D01*
X0153327Y0133259D01*
X0151673Y0133259D01*
X0150144Y0132626D01*
X0148974Y0131456D01*
X0148341Y0129927D01*
X0148341Y0128273D01*
X0148974Y0126744D01*
X0150144Y0125574D01*
X0150400Y0125468D01*
X0150400Y0120232D01*
X0150144Y0120126D01*
X0148974Y0118956D01*
X0148868Y0118700D01*
X0144130Y0118700D01*
X0142900Y0117470D01*
X0140400Y0114970D01*
X0140400Y0114806D01*
X0140367Y0114792D01*
X0139308Y0113733D01*
X0138735Y0112349D01*
X0138735Y0110851D01*
X0139308Y0109467D01*
X0140367Y0108408D01*
X0141751Y0107835D01*
X0140457Y0108370D02*
X0134543Y0108370D01*
X0134633Y0108408D02*
X0135692Y0109467D01*
X0136265Y0110851D01*
X0136265Y0112349D01*
X0135692Y0113733D01*
X0134633Y0114792D01*
X0134600Y0114806D01*
X0134600Y0117470D01*
X0133370Y0118700D01*
X0128370Y0123700D01*
X0076068Y0123700D01*
X0075976Y0123922D01*
X0074822Y0125076D01*
X0073316Y0125700D01*
X0071684Y0125700D01*
X0070178Y0125076D01*
X0069024Y0123922D01*
X0068932Y0123700D01*
X0068370Y0123700D01*
X0067100Y0124970D01*
X0067100Y0144970D01*
X0059600Y0152470D01*
X0059600Y0162470D01*
X0058370Y0163700D01*
X0054807Y0167263D01*
X0053447Y0167263D01*
X0053110Y0168076D01*
X0051663Y0169523D01*
X0049773Y0170306D01*
X0047727Y0170306D01*
X0045837Y0169523D01*
X0044390Y0168076D01*
X0043607Y0166186D01*
X0043607Y0164140D01*
X0044390Y0162250D01*
X0045837Y0160803D01*
X0047727Y0160020D01*
X0049773Y0160020D01*
X0051663Y0160803D01*
X0053110Y0162250D01*
X0053336Y0162794D01*
X0055400Y0160730D01*
X0055400Y0150730D01*
X0056630Y0149500D01*
X0056630Y0149500D01*
X0062900Y0143230D01*
X0062900Y0123230D01*
X0064130Y0122000D01*
X0066630Y0119500D01*
X0068932Y0119500D01*
X0069024Y0119278D01*
X0070178Y0118124D01*
X0071684Y0117500D01*
X0073316Y0117500D01*
X0074822Y0118124D01*
X0075976Y0119278D01*
X0076068Y0119500D01*
X0126630Y0119500D01*
X0130400Y0115730D01*
X0130400Y0114806D01*
X0130367Y0114792D01*
X0129308Y0113733D01*
X0128735Y0112349D01*
X0128735Y0110851D01*
X0129308Y0109467D01*
X0130367Y0108408D01*
X0131751Y0107835D01*
X0133249Y0107835D01*
X0134633Y0108408D01*
X0135734Y0109569D02*
X0139266Y0109569D01*
X0138769Y0110768D02*
X0136231Y0110768D01*
X0136265Y0111966D02*
X0138735Y0111966D01*
X0139072Y0113165D02*
X0135928Y0113165D01*
X0135062Y0114363D02*
X0139938Y0114363D01*
X0140992Y0115562D02*
X0134600Y0115562D01*
X0134600Y0116760D02*
X0142190Y0116760D01*
X0143389Y0117959D02*
X0134111Y0117959D01*
X0132913Y0119157D02*
X0149175Y0119157D01*
X0150400Y0120356D02*
X0131714Y0120356D01*
X0130516Y0121554D02*
X0150400Y0121554D01*
X0150400Y0122753D02*
X0129317Y0122753D01*
X0126973Y0119157D02*
X0075855Y0119157D01*
X0074423Y0117959D02*
X0128172Y0117959D01*
X0129370Y0116760D02*
X0052100Y0116760D01*
X0052100Y0115562D02*
X0071350Y0115562D01*
X0071684Y0115700D02*
X0070178Y0115076D01*
X0069024Y0113922D01*
X0068400Y0112416D01*
X0068400Y0110784D01*
X0069024Y0109278D01*
X0070178Y0108124D01*
X0071684Y0107500D01*
X0073316Y0107500D01*
X0074822Y0108124D01*
X0075976Y0109278D01*
X0076600Y0110784D01*
X0076600Y0112416D01*
X0075976Y0113922D01*
X0074822Y0115076D01*
X0073316Y0115700D01*
X0071684Y0115700D01*
X0073650Y0115562D02*
X0081233Y0115562D01*
X0081526Y0115657D02*
X0080903Y0115454D01*
X0080320Y0115157D01*
X0079791Y0114772D01*
X0079328Y0114309D01*
X0078943Y0113780D01*
X0078646Y0113197D01*
X0078443Y0112574D01*
X0078341Y0111927D01*
X0078341Y0111600D01*
X0082500Y0111600D01*
X0082500Y0111600D01*
X0082500Y0115759D01*
X0082827Y0115759D01*
X0083474Y0115657D01*
X0084097Y0115454D01*
X0084680Y0115157D01*
X0085209Y0114772D01*
X0085672Y0114309D01*
X0086057Y0113780D01*
X0086354Y0113197D01*
X0086557Y0112574D01*
X0086659Y0111927D01*
X0086659Y0111600D01*
X0082500Y0111600D01*
X0082500Y0111600D01*
X0082500Y0111600D01*
X0082500Y0115759D01*
X0082173Y0115759D01*
X0081526Y0115657D01*
X0082500Y0115562D02*
X0082500Y0115562D01*
X0082500Y0114363D02*
X0082500Y0114363D01*
X0082500Y0113165D02*
X0082500Y0113165D01*
X0082500Y0111966D02*
X0082500Y0111966D01*
X0082500Y0111600D02*
X0078341Y0111600D01*
X0078341Y0111273D01*
X0078443Y0110626D01*
X0078646Y0110003D01*
X0078943Y0109420D01*
X0079328Y0108891D01*
X0079791Y0108428D01*
X0080320Y0108043D01*
X0080903Y0107746D01*
X0081526Y0107543D01*
X0082173Y0107441D01*
X0082500Y0107441D01*
X0082827Y0107441D01*
X0083474Y0107543D01*
X0084097Y0107746D01*
X0084680Y0108043D01*
X0085209Y0108428D01*
X0085672Y0108891D01*
X0086057Y0109420D01*
X0086354Y0110003D01*
X0086557Y0110626D01*
X0086659Y0111273D01*
X0086659Y0111600D01*
X0082500Y0111600D01*
X0082500Y0107441D01*
X0082500Y0111600D01*
X0082500Y0111600D01*
X0082500Y0110768D02*
X0082500Y0110768D01*
X0082500Y0109569D02*
X0082500Y0109569D01*
X0082500Y0108370D02*
X0082500Y0108370D01*
X0085131Y0108370D02*
X0120400Y0108370D01*
X0120400Y0107172D02*
X0052100Y0107172D01*
X0052100Y0108370D02*
X0069931Y0108370D01*
X0068903Y0109569D02*
X0052100Y0109569D01*
X0052100Y0110768D02*
X0068407Y0110768D01*
X0068400Y0111966D02*
X0052100Y0111966D01*
X0052100Y0113165D02*
X0068710Y0113165D01*
X0069465Y0114363D02*
X0052100Y0114363D01*
X0052100Y0117959D02*
X0070577Y0117959D01*
X0069145Y0119157D02*
X0052100Y0119157D01*
X0052100Y0120356D02*
X0065775Y0120356D01*
X0064576Y0121554D02*
X0052100Y0121554D01*
X0052100Y0122753D02*
X0063378Y0122753D01*
X0062900Y0123951D02*
X0052100Y0123951D01*
X0052100Y0125150D02*
X0062900Y0125150D01*
X0062900Y0126348D02*
X0052100Y0126348D01*
X0052100Y0127547D02*
X0062900Y0127547D01*
X0062900Y0128745D02*
X0052100Y0128745D01*
X0052100Y0129944D02*
X0062900Y0129944D01*
X0062900Y0131142D02*
X0050928Y0131142D01*
X0052100Y0129970D02*
X0049600Y0132470D01*
X0048370Y0133700D01*
X0046068Y0133700D01*
X0045976Y0133922D01*
X0044822Y0135076D01*
X0043316Y0135700D01*
X0041684Y0135700D01*
X0040178Y0135076D01*
X0039024Y0133922D01*
X0038932Y0133700D01*
X0037053Y0133700D01*
X0037053Y0135006D01*
X0036360Y0136679D01*
X0035079Y0137960D01*
X0034600Y0138158D01*
X0034600Y0144547D01*
X0036115Y0144547D01*
X0037053Y0145484D01*
X0037053Y0152715D01*
X0043146Y0152715D01*
X0043341Y0152911D02*
X0041630Y0151200D01*
X0040400Y0149970D01*
X0040400Y0145168D01*
X0040178Y0145076D01*
X0039024Y0143922D01*
X0038400Y0142416D01*
X0038400Y0140784D01*
X0039024Y0139278D01*
X0040178Y0138124D01*
X0041684Y0137500D01*
X0043316Y0137500D01*
X0044822Y0138124D01*
X0045976Y0139278D01*
X0046600Y0140784D01*
X0046600Y0142416D01*
X0045976Y0143922D01*
X0044822Y0145076D01*
X0044600Y0145168D01*
X0044600Y0148230D01*
X0045533Y0149163D01*
X0046673Y0148691D01*
X0048327Y0148691D01*
X0049856Y0149324D01*
X0051026Y0150494D01*
X0051659Y0152023D01*
X0051659Y0153677D01*
X0051026Y0155206D01*
X0049856Y0156376D01*
X0048327Y0157009D01*
X0046673Y0157009D01*
X0045144Y0156376D01*
X0043974Y0155206D01*
X0043341Y0153677D01*
X0043341Y0152911D01*
X0043439Y0153914D02*
X0035284Y0153914D01*
X0035023Y0153653D02*
X0039600Y0158230D01*
X0039600Y0173394D01*
X0039633Y0173408D01*
X0040692Y0174467D01*
X0041265Y0175851D01*
X0041265Y0177349D01*
X0041252Y0177382D01*
X0045870Y0182000D01*
X0116630Y0182000D01*
X0124130Y0174500D01*
X0145870Y0174500D01*
X0147100Y0175730D01*
X0150072Y0178703D01*
X0150367Y0178408D01*
X0151751Y0177835D01*
X0153249Y0177835D01*
X0154633Y0178408D01*
X0155692Y0179467D01*
X0155706Y0179500D01*
X0159294Y0179500D01*
X0159308Y0179467D01*
X0160367Y0178408D01*
X0161751Y0177835D01*
X0163249Y0177835D01*
X0164633Y0178408D01*
X0165692Y0179467D01*
X0166265Y0180851D01*
X0166265Y0182349D01*
X0165692Y0183733D01*
X0164633Y0184792D01*
X0163249Y0185365D01*
X0161751Y0185365D01*
X0160367Y0184792D01*
X0159308Y0183733D01*
X0159294Y0183700D01*
X0155706Y0183700D01*
X0155692Y0183733D01*
X0154633Y0184792D01*
X0153249Y0185365D01*
X0151751Y0185365D01*
X0150367Y0184792D01*
X0149308Y0183733D01*
X0149294Y0183700D01*
X0149130Y0183700D01*
X0144130Y0178700D01*
X0125870Y0178700D01*
X0118370Y0186200D01*
X0044130Y0186200D01*
X0038282Y0180352D01*
X0038249Y0180365D01*
X0036751Y0180365D01*
X0035367Y0179792D01*
X0034308Y0178733D01*
X0033735Y0177349D01*
X0033735Y0175851D01*
X0034308Y0174467D01*
X0035367Y0173408D01*
X0035400Y0173394D01*
X0035400Y0159970D01*
X0031630Y0156200D01*
X0030400Y0154970D01*
X0030400Y0153653D01*
X0028884Y0153653D01*
X0027947Y0152715D01*
X0025323Y0152715D01*
X0025079Y0152960D02*
X0024600Y0153158D01*
X0024600Y0153230D01*
X0030850Y0159480D01*
X0030850Y0160466D01*
X0031663Y0160803D01*
X0033110Y0162250D01*
X0033893Y0164140D01*
X0033893Y0166186D01*
X0033110Y0168076D01*
X0031663Y0169523D01*
X0029773Y0170306D01*
X0027727Y0170306D01*
X0025837Y0169523D01*
X0024390Y0168076D01*
X0023607Y0166186D01*
X0023607Y0164140D01*
X0024390Y0162250D01*
X0025837Y0160803D01*
X0026117Y0160687D01*
X0021630Y0156200D01*
X0020400Y0154970D01*
X0020400Y0153158D01*
X0019921Y0152960D01*
X0018640Y0151679D01*
X0017947Y0150006D01*
X0017947Y0148194D01*
X0018640Y0146521D01*
X0019921Y0145240D01*
X0020400Y0145042D01*
X0020400Y0138653D01*
X0018884Y0138653D01*
X0017947Y0137715D01*
X0017947Y0130484D01*
X0018884Y0129547D01*
X0026115Y0129547D01*
X0027053Y0130484D01*
X0027053Y0137715D01*
X0026115Y0138653D01*
X0024600Y0138653D01*
X0024600Y0145042D01*
X0025079Y0145240D01*
X0026360Y0146521D01*
X0027053Y0148194D01*
X0027053Y0150006D01*
X0026360Y0151679D01*
X0025079Y0152960D01*
X0025284Y0153914D02*
X0030400Y0153914D01*
X0030543Y0155112D02*
X0026482Y0155112D01*
X0027681Y0156311D02*
X0031741Y0156311D01*
X0032940Y0157509D02*
X0028879Y0157509D01*
X0030078Y0158708D02*
X0034138Y0158708D01*
X0035337Y0159906D02*
X0030850Y0159906D01*
X0031966Y0161105D02*
X0035400Y0161105D01*
X0035400Y0162303D02*
X0033133Y0162303D01*
X0033629Y0163502D02*
X0035400Y0163502D01*
X0035400Y0164701D02*
X0033893Y0164701D01*
X0033893Y0165899D02*
X0035400Y0165899D01*
X0035400Y0167098D02*
X0033516Y0167098D01*
X0032891Y0168296D02*
X0035400Y0168296D01*
X0035400Y0169495D02*
X0031692Y0169495D01*
X0035400Y0170693D02*
X0017100Y0170693D01*
X0017100Y0169495D02*
X0025808Y0169495D01*
X0024609Y0168296D02*
X0017100Y0168296D01*
X0017100Y0167098D02*
X0023984Y0167098D01*
X0023607Y0165899D02*
X0017100Y0165899D01*
X0017100Y0164701D02*
X0023607Y0164701D01*
X0023871Y0163502D02*
X0017100Y0163502D01*
X0017100Y0162303D02*
X0024367Y0162303D01*
X0025534Y0161105D02*
X0017100Y0161105D01*
X0017100Y0159906D02*
X0025337Y0159906D01*
X0024138Y0158708D02*
X0017100Y0158708D01*
X0017100Y0157509D02*
X0022940Y0157509D01*
X0021741Y0156311D02*
X0017100Y0156311D01*
X0017100Y0155112D02*
X0020543Y0155112D01*
X0020400Y0153914D02*
X0017100Y0153914D01*
X0017100Y0152715D02*
X0019677Y0152715D01*
X0018573Y0151517D02*
X0017100Y0151517D01*
X0017100Y0150318D02*
X0018077Y0150318D01*
X0017947Y0149120D02*
X0017100Y0149120D01*
X0017100Y0147921D02*
X0018060Y0147921D01*
X0018557Y0146723D02*
X0017100Y0146723D01*
X0017100Y0145524D02*
X0019637Y0145524D01*
X0020400Y0144326D02*
X0017100Y0144326D01*
X0017100Y0143127D02*
X0020400Y0143127D01*
X0020400Y0141929D02*
X0017100Y0141929D01*
X0017100Y0140730D02*
X0020400Y0140730D01*
X0020400Y0139532D02*
X0017100Y0139532D01*
X0017100Y0138333D02*
X0018565Y0138333D01*
X0017947Y0137135D02*
X0017100Y0137135D01*
X0017100Y0135936D02*
X0017947Y0135936D01*
X0017947Y0134738D02*
X0017100Y0134738D01*
X0017100Y0133539D02*
X0017947Y0133539D01*
X0017947Y0132341D02*
X0017100Y0132341D01*
X0017100Y0131142D02*
X0017947Y0131142D01*
X0018488Y0129944D02*
X0017100Y0129944D01*
X0017100Y0128745D02*
X0039557Y0128745D01*
X0039024Y0129278D02*
X0040178Y0128124D01*
X0041684Y0127500D01*
X0043316Y0127500D01*
X0044822Y0128124D01*
X0045976Y0129278D01*
X0046068Y0129500D01*
X0046630Y0129500D01*
X0047900Y0128230D01*
X0047900Y0094970D01*
X0046630Y0093700D01*
X0045706Y0093700D01*
X0045692Y0093733D01*
X0044633Y0094792D01*
X0043249Y0095365D01*
X0041751Y0095365D01*
X0040367Y0094792D01*
X0039308Y0093733D01*
X0038735Y0092349D01*
X0038735Y0090851D01*
X0039308Y0089467D01*
X0040367Y0088408D01*
X0041751Y0087835D01*
X0043249Y0087835D01*
X0044633Y0088408D01*
X0045692Y0089467D01*
X0045706Y0089500D01*
X0048370Y0089500D01*
X0050870Y0092000D01*
X0052100Y0093230D01*
X0052100Y0129970D01*
X0049729Y0132341D02*
X0062900Y0132341D01*
X0062900Y0133539D02*
X0048531Y0133539D01*
X0047385Y0128745D02*
X0045443Y0128745D01*
X0043428Y0127547D02*
X0047900Y0127547D01*
X0047900Y0126348D02*
X0017100Y0126348D01*
X0017100Y0125150D02*
X0031230Y0125150D01*
X0031751Y0125365D02*
X0030367Y0124792D01*
X0029308Y0123733D01*
X0028735Y0122349D01*
X0028735Y0120851D01*
X0029308Y0119467D01*
X0030367Y0118408D01*
X0031751Y0117835D01*
X0033249Y0117835D01*
X0034633Y0118408D01*
X0035692Y0119467D01*
X0035706Y0119500D01*
X0038932Y0119500D01*
X0039024Y0119278D01*
X0040178Y0118124D01*
X0041684Y0117500D01*
X0043316Y0117500D01*
X0044822Y0118124D01*
X0045976Y0119278D01*
X0046600Y0120784D01*
X0046600Y0122416D01*
X0045976Y0123922D01*
X0044822Y0125076D01*
X0043316Y0125700D01*
X0041684Y0125700D01*
X0040178Y0125076D01*
X0039024Y0123922D01*
X0038932Y0123700D01*
X0035706Y0123700D01*
X0035692Y0123733D01*
X0034633Y0124792D01*
X0033249Y0125365D01*
X0031751Y0125365D01*
X0033770Y0125150D02*
X0040356Y0125150D01*
X0039053Y0123951D02*
X0035474Y0123951D01*
X0035382Y0119157D02*
X0039145Y0119157D01*
X0040577Y0117959D02*
X0033548Y0117959D01*
X0031452Y0117959D02*
X0017100Y0117959D01*
X0017100Y0119157D02*
X0029618Y0119157D01*
X0028940Y0120356D02*
X0017100Y0120356D01*
X0017100Y0121554D02*
X0028735Y0121554D01*
X0028902Y0122753D02*
X0017100Y0122753D01*
X0017100Y0123951D02*
X0029526Y0123951D01*
X0031594Y0129547D02*
X0029921Y0130240D01*
X0028640Y0131521D01*
X0027947Y0133194D01*
X0027947Y0135006D01*
X0028640Y0136679D01*
X0029921Y0137960D01*
X0030400Y0138158D01*
X0030400Y0144547D01*
X0028884Y0144547D01*
X0027947Y0145484D01*
X0027947Y0152715D01*
X0027947Y0151517D02*
X0026427Y0151517D01*
X0026923Y0150318D02*
X0027947Y0150318D01*
X0027947Y0149120D02*
X0027053Y0149120D01*
X0026940Y0147921D02*
X0027947Y0147921D01*
X0027947Y0146723D02*
X0026443Y0146723D01*
X0025363Y0145524D02*
X0027947Y0145524D01*
X0030400Y0144326D02*
X0024600Y0144326D01*
X0024600Y0143127D02*
X0030400Y0143127D01*
X0030400Y0141929D02*
X0024600Y0141929D01*
X0024600Y0140730D02*
X0030400Y0140730D01*
X0030400Y0139532D02*
X0024600Y0139532D01*
X0026435Y0138333D02*
X0030400Y0138333D01*
X0029096Y0137135D02*
X0027053Y0137135D01*
X0027053Y0135936D02*
X0028333Y0135936D01*
X0027947Y0134738D02*
X0027053Y0134738D01*
X0027053Y0133539D02*
X0027947Y0133539D01*
X0028301Y0132341D02*
X0027053Y0132341D01*
X0027053Y0131142D02*
X0029019Y0131142D01*
X0030637Y0129944D02*
X0026512Y0129944D01*
X0031594Y0129547D02*
X0033406Y0129547D01*
X0033885Y0129746D01*
X0034130Y0129500D01*
X0038932Y0129500D01*
X0039024Y0129278D01*
X0041572Y0127547D02*
X0017100Y0127547D01*
X0012900Y0127547D02*
X0007600Y0127547D01*
X0007600Y0128745D02*
X0012900Y0128745D01*
X0012900Y0129944D02*
X0007600Y0129944D01*
X0007600Y0131142D02*
X0012900Y0131142D01*
X0012900Y0132341D02*
X0007600Y0132341D01*
X0007600Y0133539D02*
X0012900Y0133539D01*
X0012900Y0134738D02*
X0007600Y0134738D01*
X0007600Y0135936D02*
X0012900Y0135936D01*
X0012900Y0137135D02*
X0007600Y0137135D01*
X0007600Y0138333D02*
X0012900Y0138333D01*
X0012900Y0139532D02*
X0007600Y0139532D01*
X0007600Y0140730D02*
X0012900Y0140730D01*
X0012900Y0141929D02*
X0007600Y0141929D01*
X0007600Y0143127D02*
X0012900Y0143127D01*
X0012900Y0144326D02*
X0007600Y0144326D01*
X0007600Y0145524D02*
X0012900Y0145524D01*
X0012900Y0146723D02*
X0007600Y0146723D01*
X0007600Y0147921D02*
X0012900Y0147921D01*
X0012900Y0149120D02*
X0007600Y0149120D01*
X0007600Y0150318D02*
X0012900Y0150318D01*
X0012900Y0151517D02*
X0007600Y0151517D01*
X0007600Y0152715D02*
X0012900Y0152715D01*
X0012900Y0153914D02*
X0007600Y0153914D01*
X0007600Y0155112D02*
X0012900Y0155112D01*
X0012900Y0156311D02*
X0007600Y0156311D01*
X0007600Y0157509D02*
X0012900Y0157509D01*
X0012900Y0158708D02*
X0007600Y0158708D01*
X0007600Y0159906D02*
X0012900Y0159906D01*
X0012900Y0161105D02*
X0007600Y0161105D01*
X0007600Y0162303D02*
X0012900Y0162303D01*
X0012900Y0163502D02*
X0007600Y0163502D01*
X0007600Y0164701D02*
X0012900Y0164701D01*
X0012900Y0165899D02*
X0007600Y0165899D01*
X0007600Y0167098D02*
X0012900Y0167098D01*
X0012900Y0168296D02*
X0007600Y0168296D01*
X0007600Y0169495D02*
X0012900Y0169495D01*
X0012900Y0170693D02*
X0007600Y0170693D01*
X0007600Y0171892D02*
X0012900Y0171892D01*
X0012900Y0173090D02*
X0007600Y0173090D01*
X0007600Y0174289D02*
X0012900Y0174289D01*
X0012900Y0175487D02*
X0007600Y0175487D01*
X0007600Y0176686D02*
X0012900Y0176686D01*
X0012900Y0177884D02*
X0007600Y0177884D01*
X0007600Y0179083D02*
X0012900Y0179083D01*
X0012900Y0180281D02*
X0007600Y0180281D01*
X0007600Y0181480D02*
X0012900Y0181480D01*
X0012900Y0182678D02*
X0007600Y0182678D01*
X0007600Y0183877D02*
X0012900Y0183877D01*
X0012900Y0185075D02*
X0007600Y0185075D01*
X0007600Y0186274D02*
X0012900Y0186274D01*
X0012900Y0187472D02*
X0007600Y0187472D01*
X0007600Y0188671D02*
X0012900Y0188671D01*
X0012900Y0189869D02*
X0007600Y0189869D01*
X0007600Y0191068D02*
X0012900Y0191068D01*
X0012900Y0192266D02*
X0007600Y0192266D01*
X0007600Y0193465D02*
X0012900Y0193465D01*
X0012900Y0194663D02*
X0007600Y0194663D01*
X0007600Y0195862D02*
X0012900Y0195862D01*
X0012900Y0197060D02*
X0007600Y0197060D01*
X0007600Y0198259D02*
X0012900Y0198259D01*
X0012900Y0199457D02*
X0007600Y0199457D01*
X0007600Y0200656D02*
X0012900Y0200656D01*
X0012900Y0201854D02*
X0007600Y0201854D01*
X0007600Y0203053D02*
X0013483Y0203053D01*
X0012900Y0202470D02*
X0012900Y0053230D01*
X0042900Y0023230D01*
X0044130Y0022000D01*
X0101729Y0022000D01*
X0101973Y0021410D01*
X0103310Y0020073D01*
X0105055Y0019350D01*
X0106945Y0019350D01*
X0108690Y0020073D01*
X0110027Y0021410D01*
X0110750Y0023155D01*
X0110750Y0025045D01*
X0110027Y0026790D01*
X0108690Y0028127D01*
X0106945Y0028850D01*
X0105055Y0028850D01*
X0103310Y0028127D01*
X0101973Y0026790D01*
X0101729Y0026200D01*
X0045870Y0026200D01*
X0017100Y0054970D01*
X0017100Y0200730D01*
X0027620Y0211250D01*
X0029215Y0211250D01*
X0029690Y0210102D01*
X0031303Y0208489D01*
X0033411Y0207616D01*
X0035692Y0207616D01*
X0037799Y0208489D01*
X0039412Y0210102D01*
X0040285Y0212209D01*
X0040285Y0214491D01*
X0039412Y0216598D01*
X0037799Y0218211D01*
X0035692Y0219084D01*
X0033411Y0219084D01*
X0031303Y0218211D01*
X0029690Y0216598D01*
X0029215Y0215450D01*
X0025880Y0215450D01*
X0012900Y0202470D01*
X0014682Y0204251D02*
X0007600Y0204251D01*
X0007600Y0205450D02*
X0015880Y0205450D01*
X0017079Y0206648D02*
X0007600Y0206648D01*
X0007600Y0207847D02*
X0018277Y0207847D01*
X0019476Y0209045D02*
X0007600Y0209045D01*
X0007600Y0210244D02*
X0020674Y0210244D01*
X0021873Y0211442D02*
X0007600Y0211442D01*
X0007600Y0212641D02*
X0023071Y0212641D01*
X0024270Y0213839D02*
X0007600Y0213839D01*
X0007600Y0215038D02*
X0025468Y0215038D01*
X0029541Y0216237D02*
X0007600Y0216237D01*
X0007600Y0217435D02*
X0030527Y0217435D01*
X0032323Y0218634D02*
X0007600Y0218634D01*
X0007600Y0219832D02*
X0234683Y0219832D01*
X0234683Y0218634D02*
X0209927Y0218634D01*
X0210947Y0218211D02*
X0208839Y0219084D01*
X0206558Y0219084D01*
X0204451Y0218211D01*
X0202838Y0216598D01*
X0201965Y0214491D01*
X0201965Y0212209D01*
X0202838Y0210102D01*
X0204451Y0208489D01*
X0206558Y0207616D01*
X0208839Y0207616D01*
X0210947Y0208489D01*
X0212560Y0210102D01*
X0213433Y0212209D01*
X0213433Y0214491D01*
X0212560Y0216598D01*
X0210947Y0218211D01*
X0211723Y0217435D02*
X0234683Y0217435D01*
X0234683Y0216237D02*
X0212709Y0216237D01*
X0213206Y0215038D02*
X0234683Y0215038D01*
X0234683Y0213839D02*
X0213433Y0213839D01*
X0213433Y0212641D02*
X0234683Y0212641D01*
X0234683Y0211442D02*
X0213115Y0211442D01*
X0212619Y0210244D02*
X0234683Y0210244D01*
X0234683Y0209045D02*
X0211503Y0209045D01*
X0209397Y0207847D02*
X0234683Y0207847D01*
X0234683Y0206648D02*
X0200846Y0206648D01*
X0202044Y0205450D02*
X0234683Y0205450D01*
X0234683Y0204251D02*
X0203243Y0204251D01*
X0204441Y0203053D02*
X0234683Y0203053D01*
X0234683Y0201854D02*
X0205640Y0201854D01*
X0206838Y0200656D02*
X0234683Y0200656D01*
X0234683Y0199457D02*
X0208037Y0199457D01*
X0209235Y0198259D02*
X0234683Y0198259D01*
X0234683Y0197060D02*
X0210434Y0197060D01*
X0211632Y0195862D02*
X0234683Y0195862D01*
X0234683Y0194663D02*
X0212831Y0194663D01*
X0214029Y0193465D02*
X0234683Y0193465D01*
X0234683Y0192266D02*
X0215228Y0192266D01*
X0216426Y0191068D02*
X0234683Y0191068D01*
X0234683Y0189869D02*
X0217625Y0189869D01*
X0218823Y0188671D02*
X0234683Y0188671D01*
X0234683Y0187472D02*
X0220022Y0187472D01*
X0221220Y0186274D02*
X0234683Y0186274D01*
X0234683Y0185075D02*
X0222419Y0185075D01*
X0223617Y0183877D02*
X0234683Y0183877D01*
X0234683Y0182678D02*
X0224816Y0182678D01*
X0226014Y0181480D02*
X0234683Y0181480D01*
X0234683Y0180281D02*
X0227213Y0180281D01*
X0228411Y0179083D02*
X0234683Y0179083D01*
X0234683Y0177884D02*
X0229566Y0177884D01*
X0229535Y0177959D02*
X0229900Y0177077D01*
X0229900Y0053623D01*
X0229535Y0052741D01*
X0199535Y0022741D01*
X0198859Y0022065D01*
X0197977Y0021700D01*
X0140147Y0021700D01*
X0140027Y0021410D01*
X0138690Y0020073D01*
X0136945Y0019350D01*
X0135055Y0019350D01*
X0133310Y0020073D01*
X0131973Y0021410D01*
X0131250Y0023155D01*
X0131250Y0025045D01*
X0131973Y0026790D01*
X0133310Y0028127D01*
X0135055Y0028850D01*
X0136945Y0028850D01*
X0138690Y0028127D01*
X0140027Y0026790D01*
X0140147Y0026500D01*
X0196506Y0026500D01*
X0225100Y0055094D01*
X0225100Y0175606D01*
X0189756Y0210950D01*
X0149013Y0210950D01*
X0148662Y0210102D01*
X0147049Y0208489D01*
X0144942Y0207616D01*
X0142661Y0207616D01*
X0140553Y0208489D01*
X0138940Y0210102D01*
X0138067Y0212209D01*
X0138067Y0214491D01*
X0138940Y0216598D01*
X0140553Y0218211D01*
X0142661Y0219084D01*
X0144942Y0219084D01*
X0147049Y0218211D01*
X0148662Y0216598D01*
X0149013Y0215750D01*
X0191227Y0215750D01*
X0192109Y0215385D01*
X0228859Y0178635D01*
X0229535Y0177959D01*
X0229900Y0176686D02*
X0234683Y0176686D01*
X0234683Y0175487D02*
X0229900Y0175487D01*
X0229900Y0174289D02*
X0234683Y0174289D01*
X0234683Y0173090D02*
X0229900Y0173090D01*
X0229900Y0171892D02*
X0234683Y0171892D01*
X0234683Y0170693D02*
X0229900Y0170693D01*
X0229900Y0169495D02*
X0234683Y0169495D01*
X0234683Y0168296D02*
X0229900Y0168296D01*
X0229900Y0167098D02*
X0234683Y0167098D01*
X0234683Y0165899D02*
X0229900Y0165899D01*
X0229900Y0164701D02*
X0234683Y0164701D01*
X0234683Y0163502D02*
X0229900Y0163502D01*
X0229900Y0162303D02*
X0234683Y0162303D01*
X0234683Y0161105D02*
X0229900Y0161105D01*
X0229900Y0159906D02*
X0234683Y0159906D01*
X0234683Y0158708D02*
X0229900Y0158708D01*
X0229900Y0157509D02*
X0234683Y0157509D01*
X0234683Y0156311D02*
X0229900Y0156311D01*
X0229900Y0155112D02*
X0234683Y0155112D01*
X0234683Y0153914D02*
X0229900Y0153914D01*
X0229900Y0152715D02*
X0234683Y0152715D01*
X0234683Y0151517D02*
X0229900Y0151517D01*
X0229900Y0150318D02*
X0234683Y0150318D01*
X0234683Y0149120D02*
X0229900Y0149120D01*
X0229900Y0147921D02*
X0234683Y0147921D01*
X0234683Y0146723D02*
X0229900Y0146723D01*
X0229900Y0145524D02*
X0234683Y0145524D01*
X0234683Y0144326D02*
X0229900Y0144326D01*
X0229900Y0143127D02*
X0234683Y0143127D01*
X0234683Y0141929D02*
X0229900Y0141929D01*
X0229900Y0140730D02*
X0234683Y0140730D01*
X0234683Y0139532D02*
X0229900Y0139532D01*
X0229900Y0138333D02*
X0234683Y0138333D01*
X0234683Y0137135D02*
X0229900Y0137135D01*
X0229900Y0135936D02*
X0234683Y0135936D01*
X0234683Y0134738D02*
X0229900Y0134738D01*
X0229900Y0133539D02*
X0234683Y0133539D01*
X0234683Y0132341D02*
X0229900Y0132341D01*
X0229900Y0131142D02*
X0234683Y0131142D01*
X0234683Y0129944D02*
X0229900Y0129944D01*
X0229900Y0128745D02*
X0234683Y0128745D01*
X0234683Y0127547D02*
X0229900Y0127547D01*
X0229900Y0126348D02*
X0234683Y0126348D01*
X0234683Y0125150D02*
X0229900Y0125150D01*
X0229900Y0123951D02*
X0234683Y0123951D01*
X0234683Y0122753D02*
X0229900Y0122753D01*
X0229900Y0121554D02*
X0234683Y0121554D01*
X0234683Y0120356D02*
X0229900Y0120356D01*
X0229900Y0119157D02*
X0234683Y0119157D01*
X0234683Y0117959D02*
X0229900Y0117959D01*
X0229900Y0116760D02*
X0234683Y0116760D01*
X0234683Y0115562D02*
X0229900Y0115562D01*
X0229900Y0114363D02*
X0234683Y0114363D01*
X0234683Y0113165D02*
X0229900Y0113165D01*
X0229900Y0111966D02*
X0234683Y0111966D01*
X0234683Y0110768D02*
X0229900Y0110768D01*
X0229900Y0109569D02*
X0234683Y0109569D01*
X0234683Y0108370D02*
X0229900Y0108370D01*
X0229900Y0107172D02*
X0234683Y0107172D01*
X0234683Y0105973D02*
X0229900Y0105973D01*
X0229900Y0104775D02*
X0234683Y0104775D01*
X0234683Y0103576D02*
X0229900Y0103576D01*
X0229900Y0102378D02*
X0234683Y0102378D01*
X0234683Y0101179D02*
X0229900Y0101179D01*
X0229900Y0099981D02*
X0234683Y0099981D01*
X0234683Y0098782D02*
X0229900Y0098782D01*
X0229900Y0097584D02*
X0234683Y0097584D01*
X0234683Y0096385D02*
X0229900Y0096385D01*
X0229900Y0095187D02*
X0234683Y0095187D01*
X0234683Y0093988D02*
X0229900Y0093988D01*
X0229900Y0092790D02*
X0234683Y0092790D01*
X0234683Y0091591D02*
X0229900Y0091591D01*
X0229900Y0090393D02*
X0234683Y0090393D01*
X0234683Y0089194D02*
X0229900Y0089194D01*
X0229900Y0087996D02*
X0234683Y0087996D01*
X0234683Y0086797D02*
X0229900Y0086797D01*
X0229900Y0085599D02*
X0234683Y0085599D01*
X0234683Y0084400D02*
X0229900Y0084400D01*
X0229900Y0083202D02*
X0234683Y0083202D01*
X0234683Y0082003D02*
X0229900Y0082003D01*
X0229900Y0080805D02*
X0234683Y0080805D01*
X0234683Y0079606D02*
X0229900Y0079606D01*
X0229900Y0078408D02*
X0234683Y0078408D01*
X0234683Y0077209D02*
X0229900Y0077209D01*
X0229900Y0076011D02*
X0234683Y0076011D01*
X0234683Y0074812D02*
X0229900Y0074812D01*
X0229900Y0073614D02*
X0234683Y0073614D01*
X0234683Y0072415D02*
X0229900Y0072415D01*
X0229900Y0071217D02*
X0234683Y0071217D01*
X0234683Y0070018D02*
X0229900Y0070018D01*
X0229900Y0068820D02*
X0234683Y0068820D01*
X0234683Y0067621D02*
X0229900Y0067621D01*
X0229900Y0066423D02*
X0234683Y0066423D01*
X0234683Y0065224D02*
X0229900Y0065224D01*
X0229900Y0064026D02*
X0234683Y0064026D01*
X0234683Y0062827D02*
X0229900Y0062827D01*
X0229900Y0061629D02*
X0234683Y0061629D01*
X0234683Y0060430D02*
X0229900Y0060430D01*
X0229900Y0059232D02*
X0234683Y0059232D01*
X0234683Y0058033D02*
X0229900Y0058033D01*
X0229900Y0056834D02*
X0234683Y0056834D01*
X0234683Y0055636D02*
X0229900Y0055636D01*
X0229900Y0054437D02*
X0234683Y0054437D01*
X0234683Y0053239D02*
X0229741Y0053239D01*
X0228835Y0052040D02*
X0234683Y0052040D01*
X0234683Y0050842D02*
X0227636Y0050842D01*
X0226438Y0049643D02*
X0234683Y0049643D01*
X0234683Y0048445D02*
X0225239Y0048445D01*
X0224041Y0047246D02*
X0234683Y0047246D01*
X0234683Y0046048D02*
X0222842Y0046048D01*
X0221643Y0044849D02*
X0234683Y0044849D01*
X0234683Y0043651D02*
X0220445Y0043651D01*
X0219246Y0042452D02*
X0234683Y0042452D01*
X0234683Y0041254D02*
X0218048Y0041254D01*
X0216849Y0040055D02*
X0234683Y0040055D01*
X0234683Y0038857D02*
X0215651Y0038857D01*
X0214452Y0037658D02*
X0234683Y0037658D01*
X0234683Y0036460D02*
X0213254Y0036460D01*
X0212055Y0035261D02*
X0234683Y0035261D01*
X0234683Y0034063D02*
X0210857Y0034063D01*
X0209658Y0032864D02*
X0234683Y0032864D01*
X0234683Y0031666D02*
X0208460Y0031666D01*
X0207261Y0030467D02*
X0234683Y0030467D01*
X0234683Y0029269D02*
X0206063Y0029269D01*
X0204864Y0028070D02*
X0234683Y0028070D01*
X0234683Y0026872D02*
X0203666Y0026872D01*
X0202467Y0025673D02*
X0234683Y0025673D01*
X0234683Y0024475D02*
X0201269Y0024475D01*
X0200070Y0023276D02*
X0234683Y0023276D01*
X0234683Y0022078D02*
X0198872Y0022078D01*
X0196878Y0026872D02*
X0139945Y0026872D01*
X0138747Y0028070D02*
X0198076Y0028070D01*
X0199275Y0029269D02*
X0042801Y0029269D01*
X0041603Y0030467D02*
X0200473Y0030467D01*
X0201672Y0031666D02*
X0040404Y0031666D01*
X0039206Y0032864D02*
X0202870Y0032864D01*
X0204069Y0034063D02*
X0038007Y0034063D01*
X0036809Y0035261D02*
X0205267Y0035261D01*
X0206466Y0036460D02*
X0035610Y0036460D01*
X0034412Y0037658D02*
X0207664Y0037658D01*
X0208863Y0038857D02*
X0033213Y0038857D01*
X0032014Y0040055D02*
X0210061Y0040055D01*
X0211260Y0041254D02*
X0030816Y0041254D01*
X0029617Y0042452D02*
X0212458Y0042452D01*
X0213657Y0043651D02*
X0028419Y0043651D01*
X0027220Y0044849D02*
X0214855Y0044849D01*
X0216054Y0046048D02*
X0026022Y0046048D01*
X0024823Y0047246D02*
X0217252Y0047246D01*
X0218451Y0048445D02*
X0023625Y0048445D01*
X0022426Y0049643D02*
X0219649Y0049643D01*
X0220848Y0050842D02*
X0021228Y0050842D01*
X0020029Y0052040D02*
X0222046Y0052040D01*
X0223245Y0053239D02*
X0018831Y0053239D01*
X0017632Y0054437D02*
X0224443Y0054437D01*
X0225100Y0055636D02*
X0017100Y0055636D01*
X0017100Y0056834D02*
X0225100Y0056834D01*
X0225100Y0058033D02*
X0017100Y0058033D01*
X0017100Y0059232D02*
X0225100Y0059232D01*
X0225100Y0060430D02*
X0017100Y0060430D01*
X0017100Y0061629D02*
X0131943Y0061629D01*
X0131230Y0062827D02*
X0017100Y0062827D01*
X0017100Y0064026D02*
X0112105Y0064026D01*
X0110906Y0065224D02*
X0017100Y0065224D01*
X0017100Y0066423D02*
X0109708Y0066423D01*
X0108509Y0067621D02*
X0017100Y0067621D01*
X0017100Y0068820D02*
X0039955Y0068820D01*
X0040100Y0068675D02*
X0040716Y0068263D01*
X0041402Y0067979D01*
X0042129Y0067835D01*
X0042500Y0067835D01*
X0042871Y0067835D01*
X0043598Y0067979D01*
X0044284Y0068263D01*
X0044900Y0068675D01*
X0045425Y0069200D01*
X0045837Y0069816D01*
X0046121Y0070502D01*
X0046265Y0071229D01*
X0046265Y0071600D01*
X0046265Y0071971D01*
X0046121Y0072698D01*
X0045837Y0073384D01*
X0045425Y0074000D01*
X0044900Y0074525D01*
X0044284Y0074937D01*
X0043598Y0075221D01*
X0042871Y0075365D01*
X0042500Y0075365D01*
X0042129Y0075365D01*
X0041402Y0075221D01*
X0040716Y0074937D01*
X0040100Y0074525D01*
X0039575Y0074000D01*
X0039163Y0073384D01*
X0038879Y0072698D01*
X0038735Y0071971D01*
X0038735Y0071600D01*
X0038735Y0071229D01*
X0038879Y0070502D01*
X0039163Y0069816D01*
X0039575Y0069200D01*
X0040100Y0068675D01*
X0039080Y0070018D02*
X0017100Y0070018D01*
X0017100Y0071217D02*
X0038737Y0071217D01*
X0038735Y0071600D02*
X0042500Y0071600D01*
X0046265Y0071600D01*
X0042500Y0071600D01*
X0042500Y0071600D01*
X0042500Y0071600D01*
X0042500Y0075365D01*
X0042500Y0071600D01*
X0042500Y0067835D01*
X0042500Y0071600D01*
X0042500Y0071600D01*
X0042500Y0071600D01*
X0038735Y0071600D01*
X0038823Y0072415D02*
X0017100Y0072415D01*
X0017100Y0073614D02*
X0039317Y0073614D01*
X0040530Y0074812D02*
X0017100Y0074812D01*
X0017100Y0076011D02*
X0070400Y0076011D01*
X0070400Y0077209D02*
X0017100Y0077209D01*
X0017100Y0078408D02*
X0044811Y0078408D01*
X0045144Y0078074D02*
X0046673Y0077441D01*
X0048327Y0077441D01*
X0049856Y0078074D01*
X0051026Y0079244D01*
X0051659Y0080773D01*
X0051659Y0082427D01*
X0051026Y0083956D01*
X0049856Y0085126D01*
X0048327Y0085759D01*
X0046673Y0085759D01*
X0045144Y0085126D01*
X0043974Y0083956D01*
X0043868Y0083700D01*
X0035870Y0083700D01*
X0034600Y0084970D01*
X0034600Y0088394D01*
X0034633Y0088408D01*
X0035692Y0089467D01*
X0036265Y0090851D01*
X0036265Y0092349D01*
X0035692Y0093733D01*
X0034633Y0094792D01*
X0034600Y0094806D01*
X0034600Y0098230D01*
X0035870Y0099500D01*
X0039294Y0099500D01*
X0039308Y0099467D01*
X0040367Y0098408D01*
X0041751Y0097835D01*
X0043249Y0097835D01*
X0044633Y0098408D01*
X0045692Y0099467D01*
X0046265Y0100851D01*
X0046265Y0102349D01*
X0045692Y0103733D01*
X0044633Y0104792D01*
X0043249Y0105365D01*
X0041751Y0105365D01*
X0040367Y0104792D01*
X0039308Y0103733D01*
X0039294Y0103700D01*
X0034130Y0103700D01*
X0032900Y0102470D01*
X0030400Y0099970D01*
X0030400Y0094806D01*
X0030367Y0094792D01*
X0029308Y0093733D01*
X0028735Y0092349D01*
X0028735Y0090851D01*
X0029308Y0089467D01*
X0030367Y0088408D01*
X0030400Y0088394D01*
X0030400Y0083230D01*
X0031630Y0082000D01*
X0034130Y0079500D01*
X0043868Y0079500D01*
X0043974Y0079244D01*
X0045144Y0078074D01*
X0044470Y0074812D02*
X0070400Y0074812D01*
X0070400Y0074806D02*
X0070367Y0074792D01*
X0069308Y0073733D01*
X0068735Y0072349D01*
X0068735Y0070851D01*
X0069308Y0069467D01*
X0070367Y0068408D01*
X0071751Y0067835D01*
X0073249Y0067835D01*
X0074633Y0068408D01*
X0075692Y0069467D01*
X0076265Y0070851D01*
X0076265Y0072349D01*
X0075692Y0073733D01*
X0074633Y0074792D01*
X0074600Y0074806D01*
X0074600Y0079970D01*
X0072100Y0082470D01*
X0071317Y0083253D01*
X0071026Y0083956D01*
X0069856Y0085126D01*
X0068327Y0085759D01*
X0066673Y0085759D01*
X0065144Y0085126D01*
X0063974Y0083956D01*
X0063341Y0082427D01*
X0063341Y0080773D01*
X0063974Y0079244D01*
X0065144Y0078074D01*
X0066673Y0077441D01*
X0068327Y0077441D01*
X0069856Y0078074D01*
X0070206Y0078424D01*
X0070400Y0078230D01*
X0070400Y0074806D01*
X0069259Y0073614D02*
X0045683Y0073614D01*
X0046177Y0072415D02*
X0068762Y0072415D01*
X0068735Y0071217D02*
X0046263Y0071217D01*
X0045920Y0070018D02*
X0069080Y0070018D01*
X0069955Y0068820D02*
X0045045Y0068820D01*
X0042500Y0068820D02*
X0042500Y0068820D01*
X0042500Y0070018D02*
X0042500Y0070018D01*
X0042500Y0071217D02*
X0042500Y0071217D01*
X0042500Y0072415D02*
X0042500Y0072415D01*
X0042500Y0073614D02*
X0042500Y0073614D01*
X0042500Y0074812D02*
X0042500Y0074812D01*
X0050189Y0078408D02*
X0064811Y0078408D01*
X0063824Y0079606D02*
X0051176Y0079606D01*
X0051659Y0080805D02*
X0063341Y0080805D01*
X0063341Y0082003D02*
X0051659Y0082003D01*
X0051338Y0083202D02*
X0063662Y0083202D01*
X0064418Y0084400D02*
X0050582Y0084400D01*
X0048714Y0085599D02*
X0066286Y0085599D01*
X0068714Y0085599D02*
X0075531Y0085599D01*
X0074333Y0086797D02*
X0034600Y0086797D01*
X0034600Y0085599D02*
X0046286Y0085599D01*
X0044418Y0084400D02*
X0035170Y0084400D01*
X0031627Y0082003D02*
X0017100Y0082003D01*
X0017100Y0080805D02*
X0032825Y0080805D01*
X0034024Y0079606D02*
X0017100Y0079606D01*
X0017100Y0083202D02*
X0030428Y0083202D01*
X0030400Y0084400D02*
X0017100Y0084400D01*
X0017100Y0085599D02*
X0030400Y0085599D01*
X0030400Y0086797D02*
X0017100Y0086797D01*
X0017100Y0087996D02*
X0030400Y0087996D01*
X0029581Y0089194D02*
X0017100Y0089194D01*
X0017100Y0090393D02*
X0028924Y0090393D01*
X0028735Y0091591D02*
X0017100Y0091591D01*
X0017100Y0092790D02*
X0028917Y0092790D01*
X0029563Y0093988D02*
X0017100Y0093988D01*
X0017100Y0095187D02*
X0030400Y0095187D01*
X0030400Y0096385D02*
X0017100Y0096385D01*
X0017100Y0097584D02*
X0030400Y0097584D01*
X0030400Y0098782D02*
X0017100Y0098782D01*
X0017100Y0099981D02*
X0030411Y0099981D01*
X0031610Y0101179D02*
X0017100Y0101179D01*
X0017100Y0102378D02*
X0032808Y0102378D01*
X0034007Y0103576D02*
X0017100Y0103576D01*
X0017100Y0104775D02*
X0040350Y0104775D01*
X0041540Y0107601D02*
X0042177Y0107500D01*
X0042300Y0107500D01*
X0042300Y0111400D01*
X0042700Y0111400D01*
X0042700Y0111800D01*
X0046600Y0111800D01*
X0046600Y0111923D01*
X0046499Y0112560D01*
X0046300Y0113174D01*
X0046007Y0113749D01*
X0045627Y0114271D01*
X0045171Y0114727D01*
X0044649Y0115107D01*
X0044074Y0115400D01*
X0043460Y0115599D01*
X0042823Y0115700D01*
X0042700Y0115700D01*
X0042700Y0111800D01*
X0042300Y0111800D01*
X0042300Y0115700D01*
X0042177Y0115700D01*
X0041540Y0115599D01*
X0040926Y0115400D01*
X0040351Y0115107D01*
X0039829Y0114727D01*
X0039373Y0114271D01*
X0038993Y0113749D01*
X0038700Y0113174D01*
X0038501Y0112560D01*
X0038400Y0111923D01*
X0038400Y0111800D01*
X0042300Y0111800D01*
X0042300Y0111400D01*
X0038400Y0111400D01*
X0038400Y0111277D01*
X0038501Y0110640D01*
X0038700Y0110026D01*
X0038993Y0109451D01*
X0039373Y0108929D01*
X0039829Y0108473D01*
X0040351Y0108093D01*
X0040926Y0107800D01*
X0041540Y0107601D01*
X0042300Y0108370D02*
X0042700Y0108370D01*
X0042700Y0107500D02*
X0042823Y0107500D01*
X0043460Y0107601D01*
X0044074Y0107800D01*
X0044649Y0108093D01*
X0045171Y0108473D01*
X0045627Y0108929D01*
X0046007Y0109451D01*
X0046300Y0110026D01*
X0046499Y0110640D01*
X0046600Y0111277D01*
X0046600Y0111400D01*
X0042700Y0111400D01*
X0042700Y0107500D01*
X0042700Y0109569D02*
X0042300Y0109569D01*
X0042300Y0110768D02*
X0042700Y0110768D01*
X0042700Y0111966D02*
X0042300Y0111966D01*
X0042300Y0113165D02*
X0042700Y0113165D01*
X0042700Y0114363D02*
X0042300Y0114363D01*
X0042300Y0115562D02*
X0042700Y0115562D01*
X0043575Y0115562D02*
X0047900Y0115562D01*
X0047900Y0116760D02*
X0017100Y0116760D01*
X0017100Y0115562D02*
X0041425Y0115562D01*
X0039465Y0114363D02*
X0017100Y0114363D01*
X0017100Y0113165D02*
X0038697Y0113165D01*
X0038407Y0111966D02*
X0017100Y0111966D01*
X0017100Y0110768D02*
X0038481Y0110768D01*
X0038933Y0109569D02*
X0017100Y0109569D01*
X0017100Y0108370D02*
X0039970Y0108370D01*
X0045030Y0108370D02*
X0047900Y0108370D01*
X0047900Y0107172D02*
X0017100Y0107172D01*
X0017100Y0105973D02*
X0047900Y0105973D01*
X0047900Y0104775D02*
X0044650Y0104775D01*
X0045757Y0103576D02*
X0047900Y0103576D01*
X0047900Y0102378D02*
X0046253Y0102378D01*
X0046265Y0101179D02*
X0047900Y0101179D01*
X0047900Y0099981D02*
X0045905Y0099981D01*
X0045007Y0098782D02*
X0047900Y0098782D01*
X0047900Y0097584D02*
X0034600Y0097584D01*
X0034600Y0096385D02*
X0047900Y0096385D01*
X0047900Y0095187D02*
X0043680Y0095187D01*
X0045437Y0093988D02*
X0046919Y0093988D01*
X0050461Y0091591D02*
X0068735Y0091591D01*
X0068917Y0092790D02*
X0051660Y0092790D01*
X0052100Y0093988D02*
X0069563Y0093988D01*
X0071320Y0095187D02*
X0052100Y0095187D01*
X0052100Y0096385D02*
X0081150Y0096385D01*
X0080307Y0095187D02*
X0073680Y0095187D01*
X0075437Y0093988D02*
X0079985Y0093988D01*
X0079985Y0093660D02*
X0083750Y0093660D01*
X0083750Y0093660D01*
X0083750Y0093660D01*
X0083750Y0089895D01*
X0083750Y0093660D01*
X0083750Y0093660D01*
X0079985Y0093660D01*
X0080084Y0092790D02*
X0076083Y0092790D01*
X0076265Y0091591D02*
X0080604Y0091591D01*
X0081862Y0090393D02*
X0076677Y0090393D01*
X0077876Y0089194D02*
X0098008Y0089194D01*
X0096856Y0087996D02*
X0079074Y0087996D01*
X0080273Y0086797D02*
X0096360Y0086797D01*
X0096107Y0085599D02*
X0081471Y0085599D01*
X0082670Y0084400D02*
X0096107Y0084400D01*
X0096495Y0083202D02*
X0083868Y0083202D01*
X0085067Y0082003D02*
X0097136Y0082003D01*
X0098335Y0080805D02*
X0086265Y0080805D01*
X0087464Y0079606D02*
X0132900Y0079606D01*
X0132900Y0078408D02*
X0088662Y0078408D01*
X0089861Y0077209D02*
X0097227Y0077209D01*
X0102773Y0077209D02*
X0117227Y0077209D01*
X0117291Y0077272D02*
X0116828Y0076809D01*
X0116443Y0076280D01*
X0116146Y0075697D01*
X0115943Y0075074D01*
X0115841Y0074427D01*
X0115841Y0074100D01*
X0120000Y0074100D01*
X0124159Y0074100D01*
X0124159Y0074427D01*
X0124057Y0075074D01*
X0123854Y0075697D01*
X0123557Y0076280D01*
X0123172Y0076809D01*
X0122709Y0077272D01*
X0122180Y0077657D01*
X0121597Y0077954D01*
X0120974Y0078157D01*
X0120327Y0078259D01*
X0120000Y0078259D01*
X0120000Y0074100D01*
X0120000Y0074100D01*
X0120000Y0074100D01*
X0124159Y0074100D01*
X0124159Y0073773D01*
X0124057Y0073126D01*
X0123854Y0072503D01*
X0123557Y0071920D01*
X0123172Y0071391D01*
X0122709Y0070928D01*
X0122180Y0070543D01*
X0121597Y0070246D01*
X0120974Y0070043D01*
X0120327Y0069941D01*
X0120000Y0069941D01*
X0120000Y0074100D01*
X0120000Y0074100D01*
X0120000Y0074100D01*
X0120000Y0078259D01*
X0119673Y0078259D01*
X0119026Y0078157D01*
X0118403Y0077954D01*
X0117820Y0077657D01*
X0117291Y0077272D01*
X0116306Y0076011D02*
X0106059Y0076011D01*
X0107258Y0074812D02*
X0115902Y0074812D01*
X0115841Y0074100D02*
X0115841Y0073773D01*
X0115943Y0073126D01*
X0116146Y0072503D01*
X0116443Y0071920D01*
X0116828Y0071391D01*
X0117291Y0070928D01*
X0117820Y0070543D01*
X0118403Y0070246D01*
X0119026Y0070043D01*
X0119673Y0069941D01*
X0120000Y0069941D01*
X0120000Y0074100D01*
X0115841Y0074100D01*
X0115866Y0073614D02*
X0108456Y0073614D01*
X0109655Y0072415D02*
X0116191Y0072415D01*
X0117002Y0071217D02*
X0110853Y0071217D01*
X0112052Y0070018D02*
X0119185Y0070018D01*
X0120000Y0070018D02*
X0120000Y0070018D01*
X0120815Y0070018D02*
X0132684Y0070018D01*
X0132051Y0068820D02*
X0113250Y0068820D01*
X0114449Y0067621D02*
X0131230Y0067621D01*
X0131673Y0071217D02*
X0122998Y0071217D01*
X0123809Y0072415D02*
X0131232Y0072415D01*
X0131232Y0073614D02*
X0124134Y0073614D01*
X0124098Y0074812D02*
X0131660Y0074812D01*
X0132653Y0076011D02*
X0123694Y0076011D01*
X0122773Y0077209D02*
X0132900Y0077209D01*
X0132900Y0080805D02*
X0124002Y0080805D01*
X0125312Y0082003D02*
X0132900Y0082003D01*
X0133632Y0083202D02*
X0126021Y0083202D01*
X0126337Y0084400D02*
X0134830Y0084400D01*
X0121733Y0083202D02*
X0120767Y0083202D01*
X0120767Y0082003D02*
X0121733Y0082003D01*
X0121733Y0080805D02*
X0120767Y0080805D01*
X0118498Y0080805D02*
X0104165Y0080805D01*
X0105364Y0082003D02*
X0117188Y0082003D01*
X0116479Y0083202D02*
X0107072Y0083202D01*
X0108270Y0084400D02*
X0116163Y0084400D01*
X0116373Y0086797D02*
X0110667Y0086797D01*
X0111866Y0087996D02*
X0116951Y0087996D01*
X0118048Y0089194D02*
X0113064Y0089194D01*
X0116660Y0092790D02*
X0120830Y0092790D01*
X0119230Y0093988D02*
X0117858Y0093988D01*
X0120767Y0089194D02*
X0121733Y0089194D01*
X0121733Y0087996D02*
X0120767Y0087996D01*
X0120767Y0086797D02*
X0121733Y0086797D01*
X0120000Y0077209D02*
X0120000Y0077209D01*
X0120000Y0076011D02*
X0120000Y0076011D01*
X0120000Y0074812D02*
X0120000Y0074812D01*
X0120000Y0073614D02*
X0120000Y0073614D01*
X0120000Y0072415D02*
X0120000Y0072415D01*
X0120000Y0071217D02*
X0120000Y0071217D01*
X0107311Y0068820D02*
X0075045Y0068820D01*
X0075920Y0070018D02*
X0098986Y0070018D01*
X0101014Y0070018D02*
X0106112Y0070018D01*
X0104914Y0071217D02*
X0102998Y0071217D01*
X0097002Y0071217D02*
X0076265Y0071217D01*
X0076238Y0072415D02*
X0088715Y0072415D01*
X0087516Y0073614D02*
X0075741Y0073614D01*
X0074600Y0074812D02*
X0086318Y0074812D01*
X0085119Y0076011D02*
X0074600Y0076011D01*
X0074600Y0077209D02*
X0083921Y0077209D01*
X0082722Y0078408D02*
X0074600Y0078408D01*
X0074600Y0079606D02*
X0081524Y0079606D01*
X0080325Y0080805D02*
X0073765Y0080805D01*
X0072567Y0082003D02*
X0079127Y0082003D01*
X0077928Y0083202D02*
X0071368Y0083202D01*
X0070582Y0084400D02*
X0076730Y0084400D01*
X0071362Y0087996D02*
X0043638Y0087996D01*
X0045419Y0089194D02*
X0069581Y0089194D01*
X0068924Y0090393D02*
X0049263Y0090393D01*
X0041362Y0087996D02*
X0034600Y0087996D01*
X0035419Y0089194D02*
X0039581Y0089194D01*
X0038924Y0090393D02*
X0036076Y0090393D01*
X0036265Y0091591D02*
X0038735Y0091591D01*
X0038917Y0092790D02*
X0036083Y0092790D01*
X0035437Y0093988D02*
X0039563Y0093988D01*
X0041320Y0095187D02*
X0034600Y0095187D01*
X0035152Y0098782D02*
X0039993Y0098782D01*
X0046067Y0109569D02*
X0047900Y0109569D01*
X0047900Y0110768D02*
X0046519Y0110768D01*
X0046593Y0111966D02*
X0047900Y0111966D01*
X0047900Y0113165D02*
X0046303Y0113165D01*
X0045535Y0114363D02*
X0047900Y0114363D01*
X0047900Y0117959D02*
X0044423Y0117959D01*
X0045855Y0119157D02*
X0047900Y0119157D01*
X0047900Y0120356D02*
X0046422Y0120356D01*
X0046600Y0121554D02*
X0047900Y0121554D01*
X0047900Y0122753D02*
X0046460Y0122753D01*
X0045947Y0123951D02*
X0047900Y0123951D01*
X0047900Y0125150D02*
X0044644Y0125150D01*
X0045161Y0134738D02*
X0062900Y0134738D01*
X0062900Y0135936D02*
X0036667Y0135936D01*
X0037053Y0134738D02*
X0039839Y0134738D01*
X0039968Y0138333D02*
X0034600Y0138333D01*
X0034600Y0139532D02*
X0038919Y0139532D01*
X0038422Y0140730D02*
X0034600Y0140730D01*
X0034600Y0141929D02*
X0038400Y0141929D01*
X0038695Y0143127D02*
X0034600Y0143127D01*
X0034600Y0144326D02*
X0039428Y0144326D01*
X0040400Y0145524D02*
X0037053Y0145524D01*
X0037053Y0146723D02*
X0040400Y0146723D01*
X0040400Y0147921D02*
X0037053Y0147921D01*
X0037053Y0149120D02*
X0040400Y0149120D01*
X0040749Y0150318D02*
X0037053Y0150318D01*
X0037053Y0151517D02*
X0041947Y0151517D01*
X0044600Y0147921D02*
X0058209Y0147921D01*
X0059407Y0146723D02*
X0044600Y0146723D01*
X0044600Y0145524D02*
X0060606Y0145524D01*
X0061804Y0144326D02*
X0045572Y0144326D01*
X0046305Y0143127D02*
X0062900Y0143127D01*
X0062900Y0141929D02*
X0046600Y0141929D01*
X0046578Y0140730D02*
X0062900Y0140730D01*
X0062900Y0139532D02*
X0046081Y0139532D01*
X0045032Y0138333D02*
X0062900Y0138333D01*
X0062900Y0137135D02*
X0035904Y0137135D01*
X0045490Y0149120D02*
X0045637Y0149120D01*
X0049363Y0149120D02*
X0057010Y0149120D01*
X0055812Y0150318D02*
X0050850Y0150318D01*
X0051450Y0151517D02*
X0055400Y0151517D01*
X0055400Y0152715D02*
X0051659Y0152715D01*
X0051561Y0153914D02*
X0055400Y0153914D01*
X0055400Y0155112D02*
X0051065Y0155112D01*
X0049921Y0156311D02*
X0055400Y0156311D01*
X0055400Y0157509D02*
X0038879Y0157509D01*
X0039600Y0158708D02*
X0055400Y0158708D01*
X0055400Y0159906D02*
X0039600Y0159906D01*
X0039600Y0161105D02*
X0045534Y0161105D01*
X0044367Y0162303D02*
X0039600Y0162303D01*
X0039600Y0163502D02*
X0043871Y0163502D01*
X0043607Y0164701D02*
X0039600Y0164701D01*
X0039600Y0165899D02*
X0043607Y0165899D01*
X0043984Y0167098D02*
X0039600Y0167098D01*
X0039600Y0168296D02*
X0044609Y0168296D01*
X0045808Y0169495D02*
X0039600Y0169495D01*
X0039600Y0170693D02*
X0065437Y0170693D01*
X0065400Y0170730D02*
X0065824Y0170306D01*
X0064544Y0170306D01*
X0063607Y0169369D01*
X0063607Y0160957D01*
X0064544Y0160020D01*
X0072956Y0160020D01*
X0073893Y0160957D01*
X0073893Y0169369D01*
X0072956Y0170306D01*
X0070850Y0170306D01*
X0070850Y0171220D01*
X0069600Y0172470D01*
X0069600Y0173394D01*
X0069633Y0173408D01*
X0070692Y0174467D01*
X0071265Y0175851D01*
X0071265Y0177349D01*
X0070692Y0178733D01*
X0069633Y0179792D01*
X0068249Y0180365D01*
X0066751Y0180365D01*
X0065367Y0179792D01*
X0064308Y0178733D01*
X0063735Y0177349D01*
X0063735Y0175851D01*
X0064308Y0174467D01*
X0065367Y0173408D01*
X0065400Y0173394D01*
X0065400Y0170730D01*
X0065400Y0171892D02*
X0039600Y0171892D01*
X0039600Y0173090D02*
X0065400Y0173090D01*
X0064486Y0174289D02*
X0040514Y0174289D01*
X0041115Y0175487D02*
X0063885Y0175487D01*
X0063735Y0176686D02*
X0041265Y0176686D01*
X0041754Y0177884D02*
X0063956Y0177884D01*
X0064658Y0179083D02*
X0042952Y0179083D01*
X0044151Y0180281D02*
X0066548Y0180281D01*
X0068452Y0180281D02*
X0118349Y0180281D01*
X0119547Y0179083D02*
X0070342Y0179083D01*
X0071044Y0177884D02*
X0120746Y0177884D01*
X0121945Y0176686D02*
X0071265Y0176686D01*
X0071115Y0175487D02*
X0091113Y0175487D01*
X0091581Y0175956D02*
X0090644Y0175019D01*
X0090644Y0168181D01*
X0091581Y0167244D01*
X0098419Y0167244D01*
X0099356Y0168181D01*
X0099356Y0168400D01*
X0102886Y0168400D01*
X0104251Y0167835D01*
X0105749Y0167835D01*
X0107133Y0168408D01*
X0108192Y0169467D01*
X0108765Y0170851D01*
X0108765Y0172349D01*
X0108192Y0173733D01*
X0107133Y0174792D01*
X0105749Y0175365D01*
X0104251Y0175365D01*
X0102886Y0174800D01*
X0099356Y0174800D01*
X0099356Y0175019D01*
X0098419Y0175956D01*
X0091581Y0175956D01*
X0090644Y0174289D02*
X0070514Y0174289D01*
X0069600Y0173090D02*
X0090644Y0173090D01*
X0090644Y0171892D02*
X0070178Y0171892D01*
X0070850Y0170693D02*
X0090644Y0170693D01*
X0090644Y0169495D02*
X0073768Y0169495D01*
X0073893Y0168296D02*
X0090644Y0168296D01*
X0099356Y0168296D02*
X0103137Y0168296D01*
X0106863Y0168296D02*
X0125988Y0168296D01*
X0126307Y0169067D02*
X0125644Y0167466D01*
X0125644Y0165734D01*
X0126307Y0164133D01*
X0127533Y0162907D01*
X0129134Y0162244D01*
X0130866Y0162244D01*
X0132467Y0162907D01*
X0133693Y0164133D01*
X0133845Y0164500D01*
X0138144Y0164500D01*
X0138144Y0163181D01*
X0139081Y0162244D01*
X0140340Y0162244D01*
X0140340Y0157306D01*
X0140307Y0157292D01*
X0139248Y0156233D01*
X0138675Y0154849D01*
X0138675Y0153351D01*
X0139248Y0151967D01*
X0140307Y0150908D01*
X0140400Y0150869D01*
X0140400Y0144806D01*
X0140367Y0144792D01*
X0139308Y0143733D01*
X0138735Y0142349D01*
X0138735Y0140851D01*
X0139308Y0139467D01*
X0140367Y0138408D01*
X0141751Y0137835D01*
X0143249Y0137835D01*
X0144633Y0138408D01*
X0145692Y0139467D01*
X0145706Y0139500D01*
X0148868Y0139500D01*
X0148974Y0139244D01*
X0150144Y0138074D01*
X0151673Y0137441D01*
X0153327Y0137441D01*
X0154856Y0138074D01*
X0156026Y0139244D01*
X0156659Y0140773D01*
X0156659Y0142427D01*
X0156026Y0143956D01*
X0154856Y0145126D01*
X0153327Y0145759D01*
X0151673Y0145759D01*
X0150144Y0145126D01*
X0148974Y0143956D01*
X0148868Y0143700D01*
X0145706Y0143700D01*
X0145692Y0143733D01*
X0144633Y0144792D01*
X0144600Y0144806D01*
X0144600Y0150935D01*
X0145632Y0151967D01*
X0146205Y0153351D01*
X0146205Y0154849D01*
X0145632Y0156233D01*
X0144573Y0157292D01*
X0144540Y0157306D01*
X0144540Y0162244D01*
X0145919Y0162244D01*
X0146856Y0163181D01*
X0146856Y0170019D01*
X0145919Y0170956D01*
X0139081Y0170956D01*
X0138144Y0170019D01*
X0138144Y0168700D01*
X0133845Y0168700D01*
X0133693Y0169067D01*
X0132467Y0170293D01*
X0130866Y0170956D01*
X0129134Y0170956D01*
X0127533Y0170293D01*
X0126307Y0169067D01*
X0126734Y0169495D02*
X0108203Y0169495D01*
X0108700Y0170693D02*
X0128499Y0170693D01*
X0131501Y0170693D02*
X0138819Y0170693D01*
X0138144Y0169495D02*
X0133266Y0169495D01*
X0133062Y0163502D02*
X0138144Y0163502D01*
X0139022Y0162303D02*
X0131010Y0162303D01*
X0128990Y0162303D02*
X0073893Y0162303D01*
X0073893Y0161105D02*
X0140340Y0161105D01*
X0140340Y0159906D02*
X0059600Y0159906D01*
X0059600Y0158708D02*
X0140340Y0158708D01*
X0140340Y0157509D02*
X0137744Y0157509D01*
X0137388Y0157865D02*
X0138325Y0156928D01*
X0138325Y0151272D01*
X0137388Y0150335D01*
X0134600Y0150335D01*
X0134600Y0144806D01*
X0134633Y0144792D01*
X0135692Y0143733D01*
X0136265Y0142349D01*
X0136265Y0140851D01*
X0135692Y0139467D01*
X0134633Y0138408D01*
X0133249Y0137835D01*
X0131751Y0137835D01*
X0130367Y0138408D01*
X0129308Y0139467D01*
X0128735Y0140851D01*
X0128735Y0142349D01*
X0129308Y0143733D01*
X0130367Y0144792D01*
X0130400Y0144806D01*
X0130400Y0152910D01*
X0130795Y0153304D01*
X0130795Y0156928D01*
X0131732Y0157865D01*
X0137388Y0157865D01*
X0138325Y0156311D02*
X0139326Y0156311D01*
X0138784Y0155112D02*
X0138325Y0155112D01*
X0138325Y0153914D02*
X0138675Y0153914D01*
X0138938Y0152715D02*
X0138325Y0152715D01*
X0138325Y0151517D02*
X0139698Y0151517D01*
X0140400Y0150318D02*
X0134600Y0150318D01*
X0134600Y0149120D02*
X0140400Y0149120D01*
X0140400Y0147921D02*
X0134600Y0147921D01*
X0134600Y0146723D02*
X0140400Y0146723D01*
X0140400Y0145524D02*
X0134600Y0145524D01*
X0135099Y0144326D02*
X0139901Y0144326D01*
X0139057Y0143127D02*
X0135943Y0143127D01*
X0136265Y0141929D02*
X0138735Y0141929D01*
X0138785Y0140730D02*
X0136215Y0140730D01*
X0135719Y0139532D02*
X0139281Y0139532D01*
X0140547Y0138333D02*
X0134453Y0138333D01*
X0130547Y0138333D02*
X0124453Y0138333D01*
X0124633Y0138408D02*
X0125692Y0139467D01*
X0126265Y0140851D01*
X0126265Y0142349D01*
X0125692Y0143733D01*
X0124633Y0144792D01*
X0123249Y0145365D01*
X0121751Y0145365D01*
X0120386Y0144800D01*
X0107114Y0144800D01*
X0105749Y0145365D01*
X0104251Y0145365D01*
X0103031Y0144860D01*
X0102478Y0144860D01*
X0101879Y0144874D01*
X0101842Y0144860D01*
X0087893Y0144860D01*
X0087328Y0145425D01*
X0081672Y0145425D01*
X0080735Y0144488D01*
X0080735Y0142420D01*
X0079787Y0141473D01*
X0079300Y0140297D01*
X0079300Y0134800D01*
X0075098Y0134800D01*
X0074822Y0135076D01*
X0073316Y0135700D01*
X0071684Y0135700D01*
X0070178Y0135076D01*
X0069024Y0133922D01*
X0068400Y0132416D01*
X0068400Y0130784D01*
X0069024Y0129278D01*
X0070178Y0128124D01*
X0071684Y0127500D01*
X0073316Y0127500D01*
X0074822Y0128124D01*
X0075098Y0128400D01*
X0079818Y0128400D01*
X0080144Y0128074D01*
X0081673Y0127441D01*
X0083327Y0127441D01*
X0084856Y0128074D01*
X0086026Y0129244D01*
X0086659Y0130773D01*
X0086659Y0132427D01*
X0086026Y0133956D01*
X0085700Y0134282D01*
X0085700Y0137895D01*
X0087328Y0137895D01*
X0087893Y0138460D01*
X0101800Y0138460D01*
X0101800Y0133714D01*
X0101235Y0132349D01*
X0101235Y0130851D01*
X0101808Y0129467D01*
X0102867Y0128408D01*
X0104251Y0127835D01*
X0105749Y0127835D01*
X0107133Y0128408D01*
X0108192Y0129467D01*
X0108765Y0130851D01*
X0108765Y0132349D01*
X0108200Y0133714D01*
X0108200Y0138400D01*
X0120386Y0138400D01*
X0121751Y0137835D01*
X0123249Y0137835D01*
X0124633Y0138408D01*
X0125719Y0139532D02*
X0129281Y0139532D01*
X0128785Y0140730D02*
X0126215Y0140730D01*
X0126265Y0141929D02*
X0128735Y0141929D01*
X0129057Y0143127D02*
X0125943Y0143127D01*
X0125099Y0144326D02*
X0129901Y0144326D01*
X0130400Y0145524D02*
X0074600Y0145524D01*
X0074600Y0145168D02*
X0074600Y0149970D01*
X0073370Y0151200D01*
X0071659Y0152911D01*
X0071659Y0153677D01*
X0071026Y0155206D01*
X0069856Y0156376D01*
X0068327Y0157009D01*
X0066673Y0157009D01*
X0065144Y0156376D01*
X0063974Y0155206D01*
X0063341Y0153677D01*
X0063341Y0152023D01*
X0063974Y0150494D01*
X0065144Y0149324D01*
X0066673Y0148691D01*
X0068327Y0148691D01*
X0069467Y0149163D01*
X0070400Y0148230D01*
X0070400Y0145168D01*
X0070178Y0145076D01*
X0069024Y0143922D01*
X0068400Y0142416D01*
X0068400Y0140784D01*
X0069024Y0139278D01*
X0070178Y0138124D01*
X0071684Y0137500D01*
X0073316Y0137500D01*
X0074822Y0138124D01*
X0075976Y0139278D01*
X0076600Y0140784D01*
X0076600Y0142416D01*
X0075976Y0143922D01*
X0074822Y0145076D01*
X0074600Y0145168D01*
X0075572Y0144326D02*
X0080735Y0144326D01*
X0080735Y0143127D02*
X0076305Y0143127D01*
X0076600Y0141929D02*
X0080243Y0141929D01*
X0079480Y0140730D02*
X0076578Y0140730D01*
X0076081Y0139532D02*
X0079300Y0139532D01*
X0079300Y0138333D02*
X0075032Y0138333D01*
X0079300Y0137135D02*
X0067100Y0137135D01*
X0067100Y0138333D02*
X0069968Y0138333D01*
X0068919Y0139532D02*
X0067100Y0139532D01*
X0067100Y0140730D02*
X0068422Y0140730D01*
X0068400Y0141929D02*
X0067100Y0141929D01*
X0067100Y0143127D02*
X0068695Y0143127D01*
X0069428Y0144326D02*
X0067100Y0144326D01*
X0066545Y0145524D02*
X0070400Y0145524D01*
X0070400Y0146723D02*
X0065347Y0146723D01*
X0064148Y0147921D02*
X0070400Y0147921D01*
X0069510Y0149120D02*
X0069363Y0149120D01*
X0071854Y0152715D02*
X0082475Y0152715D01*
X0082716Y0152877D02*
X0082100Y0152465D01*
X0081575Y0151940D01*
X0081163Y0151324D01*
X0080879Y0150638D01*
X0080735Y0149911D01*
X0080735Y0149540D01*
X0080735Y0149169D01*
X0080879Y0148442D01*
X0081163Y0147756D01*
X0081575Y0147140D01*
X0082100Y0146615D01*
X0082716Y0146203D01*
X0083402Y0145919D01*
X0084129Y0145775D01*
X0084500Y0145775D01*
X0084871Y0145775D01*
X0085598Y0145919D01*
X0086284Y0146203D01*
X0086900Y0146615D01*
X0087425Y0147140D01*
X0087837Y0147756D01*
X0088121Y0148442D01*
X0088265Y0149169D01*
X0088265Y0149540D01*
X0088265Y0149911D01*
X0088121Y0150638D01*
X0087837Y0151324D01*
X0087425Y0151940D01*
X0086900Y0152465D01*
X0086284Y0152877D01*
X0085598Y0153161D01*
X0084871Y0153305D01*
X0084500Y0153305D01*
X0084129Y0153305D01*
X0083402Y0153161D01*
X0082716Y0152877D01*
X0084500Y0152715D02*
X0084500Y0152715D01*
X0084500Y0153305D02*
X0084500Y0149540D01*
X0084500Y0145775D01*
X0084500Y0149540D01*
X0084500Y0149540D01*
X0084500Y0149540D01*
X0084500Y0153305D01*
X0084500Y0151517D02*
X0084500Y0151517D01*
X0084500Y0150318D02*
X0084500Y0150318D01*
X0084500Y0149540D02*
X0084500Y0149540D01*
X0088265Y0149540D01*
X0084500Y0149540D01*
X0084500Y0149540D01*
X0080735Y0149540D01*
X0084500Y0149540D01*
X0084500Y0149120D02*
X0084500Y0149120D01*
X0084500Y0147921D02*
X0084500Y0147921D01*
X0084500Y0146723D02*
X0084500Y0146723D01*
X0087008Y0146723D02*
X0130400Y0146723D01*
X0130400Y0147921D02*
X0097347Y0147921D01*
X0097283Y0147874D02*
X0097838Y0148277D01*
X0098322Y0148762D01*
X0098725Y0149317D01*
X0099037Y0149928D01*
X0099249Y0150580D01*
X0099356Y0151257D01*
X0099356Y0151511D01*
X0095089Y0151511D01*
X0095089Y0151689D01*
X0094911Y0151689D01*
X0094911Y0155956D01*
X0094657Y0155956D01*
X0093980Y0155849D01*
X0093328Y0155637D01*
X0092717Y0155325D01*
X0092162Y0154922D01*
X0091677Y0154438D01*
X0091274Y0153883D01*
X0090963Y0153272D01*
X0090751Y0152620D01*
X0090644Y0151943D01*
X0090644Y0151689D01*
X0094911Y0151689D01*
X0094911Y0151511D01*
X0090644Y0151511D01*
X0090644Y0151257D01*
X0090751Y0150580D01*
X0090963Y0149928D01*
X0091274Y0149317D01*
X0091677Y0148762D01*
X0092162Y0148277D01*
X0092717Y0147874D01*
X0093328Y0147563D01*
X0093980Y0147351D01*
X0094657Y0147244D01*
X0094911Y0147244D01*
X0094911Y0151511D01*
X0095089Y0151511D01*
X0095089Y0147244D01*
X0095343Y0147244D01*
X0096020Y0147351D01*
X0096672Y0147563D01*
X0097283Y0147874D01*
X0098582Y0149120D02*
X0130400Y0149120D01*
X0130400Y0150318D02*
X0099164Y0150318D01*
X0099356Y0151689D02*
X0099356Y0151943D01*
X0099249Y0152620D01*
X0099037Y0153272D01*
X0098725Y0153883D01*
X0098322Y0154438D01*
X0097838Y0154922D01*
X0097283Y0155325D01*
X0096672Y0155637D01*
X0096020Y0155849D01*
X0095343Y0155956D01*
X0095089Y0155956D01*
X0095089Y0151689D01*
X0099356Y0151689D01*
X0099218Y0152715D02*
X0130400Y0152715D01*
X0130400Y0151517D02*
X0095089Y0151517D01*
X0094911Y0151517D02*
X0087708Y0151517D01*
X0088184Y0150318D02*
X0090836Y0150318D01*
X0091418Y0149120D02*
X0088256Y0149120D01*
X0087905Y0147921D02*
X0092652Y0147921D01*
X0094911Y0147921D02*
X0095089Y0147921D01*
X0095089Y0149120D02*
X0094911Y0149120D01*
X0094911Y0150318D02*
X0095089Y0150318D01*
X0095089Y0152715D02*
X0094911Y0152715D01*
X0094911Y0153914D02*
X0095089Y0153914D01*
X0095089Y0155112D02*
X0094911Y0155112D01*
X0092424Y0155112D02*
X0071065Y0155112D01*
X0071561Y0153914D02*
X0091297Y0153914D01*
X0090782Y0152715D02*
X0086525Y0152715D01*
X0081992Y0146723D02*
X0074600Y0146723D01*
X0074600Y0147921D02*
X0081095Y0147921D01*
X0080744Y0149120D02*
X0074600Y0149120D01*
X0074251Y0150318D02*
X0080816Y0150318D01*
X0081292Y0151517D02*
X0073053Y0151517D01*
X0069921Y0156311D02*
X0130795Y0156311D01*
X0130795Y0155112D02*
X0097576Y0155112D01*
X0098703Y0153914D02*
X0130795Y0153914D01*
X0131376Y0157509D02*
X0059600Y0157509D01*
X0059600Y0156311D02*
X0065079Y0156311D01*
X0063935Y0155112D02*
X0059600Y0155112D01*
X0059600Y0153914D02*
X0063439Y0153914D01*
X0063341Y0152715D02*
X0059600Y0152715D01*
X0060553Y0151517D02*
X0063550Y0151517D01*
X0064150Y0150318D02*
X0061751Y0150318D01*
X0062950Y0149120D02*
X0065637Y0149120D01*
X0063607Y0161105D02*
X0059600Y0161105D01*
X0059600Y0162303D02*
X0063607Y0162303D01*
X0063607Y0163502D02*
X0058568Y0163502D01*
X0057369Y0164701D02*
X0063607Y0164701D01*
X0063607Y0165899D02*
X0056171Y0165899D01*
X0054972Y0167098D02*
X0063607Y0167098D01*
X0063607Y0168296D02*
X0052891Y0168296D01*
X0051692Y0169495D02*
X0063732Y0169495D01*
X0055025Y0161105D02*
X0051966Y0161105D01*
X0053133Y0162303D02*
X0053827Y0162303D01*
X0045079Y0156311D02*
X0037681Y0156311D01*
X0036482Y0155112D02*
X0043935Y0155112D01*
X0037053Y0152715D02*
X0036115Y0153653D01*
X0035023Y0153653D01*
X0035400Y0171892D02*
X0017100Y0171892D01*
X0017100Y0173090D02*
X0035400Y0173090D01*
X0034486Y0174289D02*
X0017100Y0174289D01*
X0017100Y0175487D02*
X0033885Y0175487D01*
X0033735Y0176686D02*
X0017100Y0176686D01*
X0017100Y0177884D02*
X0033956Y0177884D01*
X0034658Y0179083D02*
X0017100Y0179083D01*
X0017100Y0180281D02*
X0036548Y0180281D01*
X0039410Y0181480D02*
X0017100Y0181480D01*
X0017100Y0182678D02*
X0040608Y0182678D01*
X0041807Y0183877D02*
X0017100Y0183877D01*
X0017100Y0185075D02*
X0043005Y0185075D01*
X0045350Y0181480D02*
X0117150Y0181480D01*
X0119495Y0185075D02*
X0125644Y0185075D01*
X0125644Y0183877D02*
X0120693Y0183877D01*
X0121892Y0182678D02*
X0126147Y0182678D01*
X0126262Y0182564D02*
X0126627Y0182353D01*
X0127033Y0182244D01*
X0129911Y0182244D01*
X0129911Y0186511D01*
X0130089Y0186511D01*
X0130089Y0186689D01*
X0129911Y0186689D01*
X0129911Y0190956D01*
X0127033Y0190956D01*
X0126627Y0190847D01*
X0126262Y0190636D01*
X0125964Y0190338D01*
X0125753Y0189973D01*
X0125644Y0189567D01*
X0125644Y0186689D01*
X0129911Y0186689D01*
X0129911Y0186511D01*
X0125644Y0186511D01*
X0125644Y0183633D01*
X0125753Y0183227D01*
X0125964Y0182862D01*
X0126262Y0182564D01*
X0124289Y0180281D02*
X0145711Y0180281D01*
X0144513Y0179083D02*
X0125487Y0179083D01*
X0123090Y0181480D02*
X0146910Y0181480D01*
X0148108Y0182678D02*
X0144398Y0182678D01*
X0144172Y0182563D02*
X0144783Y0182874D01*
X0145338Y0183277D01*
X0145822Y0183762D01*
X0146225Y0184317D01*
X0146537Y0184928D01*
X0146749Y0185580D01*
X0146856Y0186257D01*
X0146856Y0186511D01*
X0142589Y0186511D01*
X0142589Y0186689D01*
X0142411Y0186689D01*
X0142411Y0190956D01*
X0142157Y0190956D01*
X0141480Y0190849D01*
X0140828Y0190637D01*
X0140217Y0190325D01*
X0139662Y0189922D01*
X0139177Y0189438D01*
X0138774Y0188883D01*
X0138463Y0188272D01*
X0138251Y0187620D01*
X0138144Y0186943D01*
X0138144Y0186689D01*
X0142411Y0186689D01*
X0142411Y0186511D01*
X0138144Y0186511D01*
X0138144Y0186257D01*
X0138251Y0185580D01*
X0138463Y0184928D01*
X0138774Y0184317D01*
X0139177Y0183762D01*
X0139662Y0183277D01*
X0140217Y0182874D01*
X0140828Y0182563D01*
X0141480Y0182351D01*
X0142157Y0182244D01*
X0142411Y0182244D01*
X0142411Y0186511D01*
X0142589Y0186511D01*
X0142589Y0182244D01*
X0142843Y0182244D01*
X0143520Y0182351D01*
X0144172Y0182563D01*
X0142589Y0182678D02*
X0142411Y0182678D01*
X0142411Y0183877D02*
X0142589Y0183877D01*
X0142589Y0185075D02*
X0142411Y0185075D01*
X0142411Y0186274D02*
X0142589Y0186274D01*
X0142589Y0186689D02*
X0146856Y0186689D01*
X0146856Y0186943D01*
X0146749Y0187620D01*
X0146537Y0188272D01*
X0146225Y0188883D01*
X0145822Y0189438D01*
X0145338Y0189922D01*
X0144783Y0190325D01*
X0144172Y0190637D01*
X0143520Y0190849D01*
X0142843Y0190956D01*
X0142589Y0190956D01*
X0142589Y0186689D01*
X0142589Y0187472D02*
X0142411Y0187472D01*
X0142411Y0188671D02*
X0142589Y0188671D01*
X0142589Y0189869D02*
X0142411Y0189869D01*
X0139609Y0189869D02*
X0134275Y0189869D01*
X0134247Y0189973D02*
X0134356Y0189567D01*
X0134356Y0186689D01*
X0130089Y0186689D01*
X0130089Y0190956D01*
X0132967Y0190956D01*
X0133373Y0190847D01*
X0133738Y0190636D01*
X0134036Y0190338D01*
X0134247Y0189973D01*
X0134356Y0188671D02*
X0138666Y0188671D01*
X0138228Y0187472D02*
X0134356Y0187472D01*
X0134356Y0186511D02*
X0134356Y0183633D01*
X0134247Y0183227D01*
X0134036Y0182862D01*
X0133738Y0182564D01*
X0133373Y0182353D01*
X0132967Y0182244D01*
X0130089Y0182244D01*
X0130089Y0186511D01*
X0134356Y0186511D01*
X0134356Y0186274D02*
X0138144Y0186274D01*
X0138415Y0185075D02*
X0134356Y0185075D01*
X0134356Y0183877D02*
X0139094Y0183877D01*
X0140602Y0182678D02*
X0133853Y0182678D01*
X0130089Y0182678D02*
X0129911Y0182678D01*
X0129911Y0183877D02*
X0130089Y0183877D01*
X0130089Y0185075D02*
X0129911Y0185075D01*
X0129911Y0186274D02*
X0130089Y0186274D01*
X0130089Y0187472D02*
X0129911Y0187472D01*
X0129911Y0188671D02*
X0130089Y0188671D01*
X0130089Y0189869D02*
X0129911Y0189869D01*
X0125725Y0189869D02*
X0017100Y0189869D01*
X0017100Y0188671D02*
X0125644Y0188671D01*
X0125644Y0187472D02*
X0017100Y0187472D01*
X0017100Y0186274D02*
X0125644Y0186274D01*
X0123143Y0175487D02*
X0098887Y0175487D01*
X0107636Y0174289D02*
X0225100Y0174289D01*
X0225100Y0175487D02*
X0146857Y0175487D01*
X0148055Y0176686D02*
X0224020Y0176686D01*
X0222822Y0177884D02*
X0163368Y0177884D01*
X0161632Y0177884D02*
X0153368Y0177884D01*
X0151632Y0177884D02*
X0149254Y0177884D01*
X0149452Y0183877D02*
X0145906Y0183877D01*
X0146585Y0185075D02*
X0151051Y0185075D01*
X0153949Y0185075D02*
X0161051Y0185075D01*
X0159452Y0183877D02*
X0155548Y0183877D01*
X0155308Y0179083D02*
X0159692Y0179083D01*
X0163949Y0185075D02*
X0215631Y0185075D01*
X0216829Y0183877D02*
X0165548Y0183877D01*
X0166129Y0182678D02*
X0218028Y0182678D01*
X0219226Y0181480D02*
X0166265Y0181480D01*
X0166029Y0180281D02*
X0220425Y0180281D01*
X0221623Y0179083D02*
X0165308Y0179083D01*
X0170837Y0169523D02*
X0169390Y0168076D01*
X0168607Y0166186D01*
X0168607Y0164140D01*
X0169390Y0162250D01*
X0170837Y0160803D01*
X0171650Y0160466D01*
X0171650Y0159480D01*
X0180400Y0150730D01*
X0180400Y0147306D01*
X0180367Y0147292D01*
X0179308Y0146233D01*
X0178735Y0144849D01*
X0178735Y0143351D01*
X0179308Y0141967D01*
X0180367Y0140908D01*
X0180400Y0140894D01*
X0180400Y0140730D01*
X0181630Y0139500D01*
X0184130Y0137000D01*
X0188868Y0137000D01*
X0188974Y0136744D01*
X0190144Y0135574D01*
X0191673Y0134941D01*
X0193327Y0134941D01*
X0194856Y0135574D01*
X0196026Y0136744D01*
X0196659Y0138273D01*
X0196659Y0139927D01*
X0196026Y0141456D01*
X0194856Y0142626D01*
X0193327Y0143259D01*
X0191673Y0143259D01*
X0190144Y0142626D01*
X0188974Y0141456D01*
X0188868Y0141200D01*
X0185870Y0141200D01*
X0185397Y0141672D01*
X0185692Y0141967D01*
X0186265Y0143351D01*
X0186265Y0144849D01*
X0185692Y0146233D01*
X0184633Y0147292D01*
X0184600Y0147306D01*
X0184600Y0152470D01*
X0183370Y0153700D01*
X0176383Y0160687D01*
X0176663Y0160803D01*
X0178110Y0162250D01*
X0178893Y0164140D01*
X0178893Y0166186D01*
X0178110Y0168076D01*
X0176663Y0169523D01*
X0174773Y0170306D01*
X0172727Y0170306D01*
X0170837Y0169523D01*
X0170808Y0169495D02*
X0146856Y0169495D01*
X0146856Y0168296D02*
X0169609Y0168296D01*
X0168984Y0167098D02*
X0146856Y0167098D01*
X0146856Y0165899D02*
X0168607Y0165899D01*
X0168607Y0164701D02*
X0146856Y0164701D01*
X0146856Y0163502D02*
X0168871Y0163502D01*
X0169367Y0162303D02*
X0145978Y0162303D01*
X0144540Y0161105D02*
X0170534Y0161105D01*
X0171650Y0159906D02*
X0144540Y0159906D01*
X0144540Y0158708D02*
X0172422Y0158708D01*
X0173621Y0157509D02*
X0144540Y0157509D01*
X0145554Y0156311D02*
X0174819Y0156311D01*
X0176018Y0155112D02*
X0163860Y0155112D01*
X0163249Y0155365D02*
X0161751Y0155365D01*
X0160367Y0154792D01*
X0159308Y0153733D01*
X0158735Y0152349D01*
X0158735Y0150851D01*
X0159308Y0149467D01*
X0160367Y0148408D01*
X0161751Y0147835D01*
X0163249Y0147835D01*
X0164633Y0148408D01*
X0165692Y0149467D01*
X0165706Y0149500D01*
X0166630Y0149500D01*
X0170400Y0145730D01*
X0170400Y0145232D01*
X0170144Y0145126D01*
X0168974Y0143956D01*
X0168341Y0142427D01*
X0168341Y0140773D01*
X0168974Y0139244D01*
X0170144Y0138074D01*
X0171673Y0137441D01*
X0173327Y0137441D01*
X0174856Y0138074D01*
X0176026Y0139244D01*
X0176659Y0140773D01*
X0176659Y0142427D01*
X0176026Y0143956D01*
X0174856Y0145126D01*
X0174600Y0145232D01*
X0174600Y0147470D01*
X0173370Y0148700D01*
X0168370Y0153700D01*
X0165706Y0153700D01*
X0165692Y0153733D01*
X0164633Y0154792D01*
X0163249Y0155365D01*
X0161140Y0155112D02*
X0153860Y0155112D01*
X0153249Y0155365D02*
X0151751Y0155365D01*
X0150367Y0154792D01*
X0149308Y0153733D01*
X0148735Y0152349D01*
X0148735Y0150851D01*
X0149308Y0149467D01*
X0150367Y0148408D01*
X0151751Y0147835D01*
X0153249Y0147835D01*
X0153282Y0147848D01*
X0169324Y0131806D01*
X0168974Y0131456D01*
X0168341Y0129927D01*
X0168341Y0128273D01*
X0168974Y0126744D01*
X0170144Y0125574D01*
X0171673Y0124941D01*
X0173327Y0124941D01*
X0174856Y0125574D01*
X0176026Y0126744D01*
X0176659Y0128273D01*
X0176659Y0129927D01*
X0176026Y0131456D01*
X0174856Y0132626D01*
X0174153Y0132917D01*
X0173370Y0133700D01*
X0156252Y0150818D01*
X0156265Y0150851D01*
X0156265Y0152349D01*
X0155692Y0153733D01*
X0154633Y0154792D01*
X0153249Y0155365D01*
X0151140Y0155112D02*
X0146096Y0155112D01*
X0146205Y0153914D02*
X0149489Y0153914D01*
X0148886Y0152715D02*
X0145942Y0152715D01*
X0145182Y0151517D02*
X0148735Y0151517D01*
X0148955Y0150318D02*
X0144600Y0150318D01*
X0144600Y0149120D02*
X0149655Y0149120D01*
X0151542Y0147921D02*
X0144600Y0147921D01*
X0144600Y0146723D02*
X0154407Y0146723D01*
X0153894Y0145524D02*
X0155606Y0145524D01*
X0155656Y0144326D02*
X0156804Y0144326D01*
X0156369Y0143127D02*
X0158003Y0143127D01*
X0159201Y0141929D02*
X0156659Y0141929D01*
X0156641Y0140730D02*
X0160400Y0140730D01*
X0161598Y0139532D02*
X0156145Y0139532D01*
X0155115Y0138333D02*
X0162797Y0138333D01*
X0163995Y0137135D02*
X0108200Y0137135D01*
X0108200Y0138333D02*
X0120547Y0138333D01*
X0108200Y0135936D02*
X0165194Y0135936D01*
X0166392Y0134738D02*
X0108200Y0134738D01*
X0108272Y0133539D02*
X0167591Y0133539D01*
X0168789Y0132341D02*
X0155141Y0132341D01*
X0156156Y0131142D02*
X0168844Y0131142D01*
X0168348Y0129944D02*
X0156652Y0129944D01*
X0156659Y0128745D02*
X0168341Y0128745D01*
X0168642Y0127547D02*
X0156358Y0127547D01*
X0155630Y0126348D02*
X0169370Y0126348D01*
X0171169Y0125150D02*
X0154600Y0125150D01*
X0154600Y0123951D02*
X0225100Y0123951D01*
X0225100Y0122753D02*
X0194550Y0122753D01*
X0194856Y0122626D02*
X0193327Y0123259D01*
X0191673Y0123259D01*
X0190144Y0122626D01*
X0188974Y0121456D01*
X0188868Y0121200D01*
X0184130Y0121200D01*
X0182900Y0119970D01*
X0182900Y0119970D01*
X0181630Y0118700D01*
X0180400Y0117470D01*
X0180400Y0117306D01*
X0180367Y0117292D01*
X0179308Y0116233D01*
X0178735Y0114849D01*
X0178735Y0113351D01*
X0179308Y0111967D01*
X0180367Y0110908D01*
X0180400Y0110894D01*
X0180400Y0108230D01*
X0181630Y0107000D01*
X0184383Y0104248D01*
X0184308Y0104173D01*
X0183735Y0102789D01*
X0183735Y0101291D01*
X0184308Y0099907D01*
X0185367Y0098848D01*
X0186751Y0098275D01*
X0188249Y0098275D01*
X0189633Y0098848D01*
X0190692Y0099907D01*
X0191265Y0101291D01*
X0191265Y0102789D01*
X0190692Y0104173D01*
X0189633Y0105232D01*
X0189129Y0105441D01*
X0184600Y0109970D01*
X0184600Y0110894D01*
X0184633Y0110908D01*
X0185692Y0111967D01*
X0186265Y0113351D01*
X0186265Y0114849D01*
X0185692Y0116233D01*
X0185397Y0116528D01*
X0185870Y0117000D01*
X0188868Y0117000D01*
X0188974Y0116744D01*
X0190144Y0115574D01*
X0191673Y0114941D01*
X0193327Y0114941D01*
X0194856Y0115574D01*
X0196026Y0116744D01*
X0196659Y0118273D01*
X0196659Y0119927D01*
X0196026Y0121456D01*
X0194856Y0122626D01*
X0195928Y0121554D02*
X0225100Y0121554D01*
X0225100Y0120356D02*
X0196482Y0120356D01*
X0196659Y0119157D02*
X0225100Y0119157D01*
X0225100Y0117959D02*
X0196529Y0117959D01*
X0196032Y0116760D02*
X0225100Y0116760D01*
X0225100Y0115562D02*
X0194826Y0115562D01*
X0190174Y0115562D02*
X0185970Y0115562D01*
X0186265Y0114363D02*
X0225100Y0114363D01*
X0225100Y0113165D02*
X0186188Y0113165D01*
X0185691Y0111966D02*
X0225100Y0111966D01*
X0225100Y0110768D02*
X0184600Y0110768D01*
X0185001Y0109569D02*
X0225100Y0109569D01*
X0225100Y0108370D02*
X0186199Y0108370D01*
X0187398Y0107172D02*
X0225100Y0107172D01*
X0225100Y0105973D02*
X0188596Y0105973D01*
X0190090Y0104775D02*
X0225100Y0104775D01*
X0225100Y0103576D02*
X0190939Y0103576D01*
X0191265Y0102378D02*
X0225100Y0102378D01*
X0225100Y0101179D02*
X0191219Y0101179D01*
X0190723Y0099981D02*
X0225100Y0099981D01*
X0225100Y0098782D02*
X0189475Y0098782D01*
X0190670Y0097584D02*
X0225100Y0097584D01*
X0225100Y0096385D02*
X0191265Y0096385D01*
X0191265Y0095187D02*
X0225100Y0095187D01*
X0225100Y0093988D02*
X0191265Y0093988D01*
X0191265Y0092790D02*
X0225100Y0092790D01*
X0225100Y0091591D02*
X0191265Y0091591D01*
X0184330Y0097584D02*
X0169486Y0097584D01*
X0168287Y0098782D02*
X0185525Y0098782D01*
X0184277Y0099981D02*
X0167089Y0099981D01*
X0165890Y0101179D02*
X0183781Y0101179D01*
X0183735Y0102378D02*
X0164692Y0102378D01*
X0163493Y0103576D02*
X0169642Y0103576D01*
X0166355Y0104775D02*
X0162295Y0104775D01*
X0161096Y0105973D02*
X0165157Y0105973D01*
X0163958Y0107172D02*
X0159898Y0107172D01*
X0158699Y0108370D02*
X0162760Y0108370D01*
X0161561Y0109569D02*
X0157634Y0109569D01*
X0159164Y0111966D02*
X0146265Y0111966D01*
X0146231Y0110768D02*
X0160363Y0110768D01*
X0157966Y0113165D02*
X0154946Y0113165D01*
X0156075Y0114363D02*
X0156767Y0114363D01*
X0159111Y0117959D02*
X0168568Y0117959D01*
X0168646Y0118197D02*
X0168443Y0117574D01*
X0168341Y0116927D01*
X0168341Y0116600D01*
X0172500Y0116600D01*
X0176659Y0116600D01*
X0176659Y0116927D01*
X0176557Y0117574D01*
X0176354Y0118197D01*
X0176057Y0118780D01*
X0175672Y0119309D01*
X0175209Y0119772D01*
X0174680Y0120157D01*
X0174097Y0120454D01*
X0173474Y0120657D01*
X0172827Y0120759D01*
X0172500Y0120759D01*
X0172500Y0116600D01*
X0172500Y0116600D01*
X0172500Y0116600D01*
X0176659Y0116600D01*
X0176659Y0116273D01*
X0176557Y0115626D01*
X0176354Y0115003D01*
X0176057Y0114420D01*
X0175672Y0113891D01*
X0175209Y0113428D01*
X0174680Y0113043D01*
X0174097Y0112746D01*
X0173474Y0112543D01*
X0172827Y0112441D01*
X0172500Y0112441D01*
X0172500Y0116600D01*
X0172500Y0116600D01*
X0172500Y0116600D01*
X0172500Y0120759D01*
X0172173Y0120759D01*
X0171526Y0120657D01*
X0170903Y0120454D01*
X0170320Y0120157D01*
X0169791Y0119772D01*
X0169328Y0119309D01*
X0168943Y0118780D01*
X0168646Y0118197D01*
X0169217Y0119157D02*
X0155825Y0119157D01*
X0154600Y0120356D02*
X0170710Y0120356D01*
X0172500Y0120356D02*
X0172500Y0120356D01*
X0172500Y0119157D02*
X0172500Y0119157D01*
X0172500Y0117959D02*
X0172500Y0117959D01*
X0172500Y0116760D02*
X0172500Y0116760D01*
X0172500Y0116600D02*
X0168341Y0116600D01*
X0168341Y0116273D01*
X0168443Y0115626D01*
X0168646Y0115003D01*
X0168943Y0114420D01*
X0169328Y0113891D01*
X0169791Y0113428D01*
X0170320Y0113043D01*
X0170903Y0112746D01*
X0171526Y0112543D01*
X0172173Y0112441D01*
X0172500Y0112441D01*
X0172500Y0116600D01*
X0172500Y0115562D02*
X0172500Y0115562D01*
X0172500Y0114363D02*
X0172500Y0114363D01*
X0172500Y0113165D02*
X0172500Y0113165D01*
X0174847Y0113165D02*
X0178812Y0113165D01*
X0178735Y0114363D02*
X0176016Y0114363D01*
X0176536Y0115562D02*
X0179030Y0115562D01*
X0179835Y0116760D02*
X0176659Y0116760D01*
X0176432Y0117959D02*
X0180889Y0117959D01*
X0181630Y0118700D02*
X0181630Y0118700D01*
X0182087Y0119157D02*
X0175783Y0119157D01*
X0174290Y0120356D02*
X0183286Y0120356D01*
X0185630Y0116760D02*
X0188967Y0116760D01*
X0189072Y0121554D02*
X0154600Y0121554D01*
X0154600Y0122753D02*
X0190450Y0122753D01*
X0189782Y0135936D02*
X0171134Y0135936D01*
X0172332Y0134738D02*
X0225100Y0134738D01*
X0225100Y0135936D02*
X0195218Y0135936D01*
X0196188Y0137135D02*
X0225100Y0137135D01*
X0225100Y0138333D02*
X0196659Y0138333D01*
X0196659Y0139532D02*
X0225100Y0139532D01*
X0225100Y0140730D02*
X0196326Y0140730D01*
X0195553Y0141929D02*
X0225100Y0141929D01*
X0225100Y0143127D02*
X0193645Y0143127D01*
X0191355Y0143127D02*
X0186173Y0143127D01*
X0186265Y0144326D02*
X0225100Y0144326D01*
X0225100Y0145524D02*
X0185986Y0145524D01*
X0185202Y0146723D02*
X0225100Y0146723D01*
X0225100Y0147921D02*
X0184600Y0147921D01*
X0184600Y0149120D02*
X0225100Y0149120D01*
X0225100Y0150318D02*
X0184600Y0150318D01*
X0184600Y0151517D02*
X0225100Y0151517D01*
X0225100Y0152715D02*
X0184354Y0152715D01*
X0183156Y0153914D02*
X0225100Y0153914D01*
X0225100Y0155112D02*
X0181957Y0155112D01*
X0180759Y0156311D02*
X0225100Y0156311D01*
X0225100Y0157509D02*
X0179560Y0157509D01*
X0178362Y0158708D02*
X0225100Y0158708D01*
X0225100Y0159906D02*
X0177163Y0159906D01*
X0176966Y0161105D02*
X0190534Y0161105D01*
X0190837Y0160803D02*
X0192727Y0160020D01*
X0194773Y0160020D01*
X0196663Y0160803D01*
X0198110Y0162250D01*
X0198893Y0164140D01*
X0198893Y0166186D01*
X0198110Y0168076D01*
X0196663Y0169523D01*
X0194773Y0170306D01*
X0192727Y0170306D01*
X0190837Y0169523D01*
X0189390Y0168076D01*
X0188607Y0166186D01*
X0188607Y0164140D01*
X0189390Y0162250D01*
X0190837Y0160803D01*
X0189367Y0162303D02*
X0178133Y0162303D01*
X0178629Y0163502D02*
X0188871Y0163502D01*
X0188607Y0164701D02*
X0178893Y0164701D01*
X0178893Y0165899D02*
X0188607Y0165899D01*
X0188984Y0167098D02*
X0178516Y0167098D01*
X0177891Y0168296D02*
X0189609Y0168296D01*
X0190808Y0169495D02*
X0176692Y0169495D01*
X0177216Y0153914D02*
X0165511Y0153914D01*
X0169354Y0152715D02*
X0178415Y0152715D01*
X0179613Y0151517D02*
X0170553Y0151517D01*
X0171751Y0150318D02*
X0180400Y0150318D01*
X0180400Y0149120D02*
X0172950Y0149120D01*
X0174148Y0147921D02*
X0180400Y0147921D01*
X0179798Y0146723D02*
X0174600Y0146723D01*
X0174600Y0145524D02*
X0179014Y0145524D01*
X0178735Y0144326D02*
X0175656Y0144326D01*
X0176369Y0143127D02*
X0178827Y0143127D01*
X0179346Y0141929D02*
X0176659Y0141929D01*
X0176641Y0140730D02*
X0180400Y0140730D01*
X0181598Y0139532D02*
X0176145Y0139532D01*
X0175115Y0138333D02*
X0182797Y0138333D01*
X0183995Y0137135D02*
X0169935Y0137135D01*
X0169885Y0138333D02*
X0168737Y0138333D01*
X0168855Y0139532D02*
X0167538Y0139532D01*
X0168359Y0140730D02*
X0166340Y0140730D01*
X0165141Y0141929D02*
X0168341Y0141929D01*
X0168631Y0143127D02*
X0163943Y0143127D01*
X0162744Y0144326D02*
X0169344Y0144326D01*
X0170400Y0145524D02*
X0161545Y0145524D01*
X0160347Y0146723D02*
X0169407Y0146723D01*
X0168209Y0147921D02*
X0163458Y0147921D01*
X0161542Y0147921D02*
X0159148Y0147921D01*
X0159655Y0149120D02*
X0157950Y0149120D01*
X0158955Y0150318D02*
X0156751Y0150318D01*
X0156265Y0151517D02*
X0158735Y0151517D01*
X0158886Y0152715D02*
X0156114Y0152715D01*
X0155511Y0153914D02*
X0159489Y0153914D01*
X0165345Y0149120D02*
X0167010Y0149120D01*
X0151106Y0145524D02*
X0144600Y0145524D01*
X0145099Y0144326D02*
X0149344Y0144326D01*
X0149885Y0138333D02*
X0144453Y0138333D01*
X0149859Y0132341D02*
X0108765Y0132341D01*
X0108765Y0131142D02*
X0148844Y0131142D01*
X0148348Y0129944D02*
X0108390Y0129944D01*
X0107470Y0128745D02*
X0148341Y0128745D01*
X0148642Y0127547D02*
X0083583Y0127547D01*
X0081417Y0127547D02*
X0073428Y0127547D01*
X0071572Y0127547D02*
X0067100Y0127547D01*
X0067100Y0128745D02*
X0069557Y0128745D01*
X0068748Y0129944D02*
X0067100Y0129944D01*
X0067100Y0131142D02*
X0068400Y0131142D01*
X0068400Y0132341D02*
X0067100Y0132341D01*
X0067100Y0133539D02*
X0068865Y0133539D01*
X0069839Y0134738D02*
X0067100Y0134738D01*
X0067100Y0135936D02*
X0079300Y0135936D01*
X0085700Y0135936D02*
X0101800Y0135936D01*
X0101800Y0134738D02*
X0097081Y0134738D01*
X0096784Y0134937D02*
X0096098Y0135221D01*
X0095371Y0135365D01*
X0095000Y0135365D01*
X0094629Y0135365D01*
X0093902Y0135221D01*
X0093216Y0134937D01*
X0092600Y0134525D01*
X0092075Y0134000D01*
X0091663Y0133384D01*
X0091379Y0132698D01*
X0091235Y0131971D01*
X0091235Y0131600D01*
X0091235Y0131229D01*
X0091379Y0130502D01*
X0091663Y0129816D01*
X0092075Y0129200D01*
X0092600Y0128675D01*
X0093216Y0128263D01*
X0093902Y0127979D01*
X0094629Y0127835D01*
X0095000Y0127835D01*
X0095371Y0127835D01*
X0096098Y0127979D01*
X0096784Y0128263D01*
X0097400Y0128675D01*
X0097925Y0129200D01*
X0098337Y0129816D01*
X0098621Y0130502D01*
X0098765Y0131229D01*
X0098765Y0131600D01*
X0098765Y0131971D01*
X0098621Y0132698D01*
X0098337Y0133384D01*
X0097925Y0134000D01*
X0097400Y0134525D01*
X0096784Y0134937D01*
X0095000Y0134738D02*
X0095000Y0134738D01*
X0095000Y0135365D02*
X0095000Y0131600D01*
X0095000Y0131600D01*
X0095000Y0135365D01*
X0095000Y0133539D02*
X0095000Y0133539D01*
X0095000Y0132341D02*
X0095000Y0132341D01*
X0095000Y0131600D02*
X0095000Y0131600D01*
X0098765Y0131600D01*
X0095000Y0131600D01*
X0095000Y0131600D01*
X0091235Y0131600D01*
X0095000Y0131600D01*
X0095000Y0127835D01*
X0095000Y0131600D01*
X0095000Y0131600D01*
X0095000Y0131142D02*
X0095000Y0131142D01*
X0095000Y0129944D02*
X0095000Y0129944D01*
X0095000Y0128745D02*
X0095000Y0128745D01*
X0097470Y0128745D02*
X0102530Y0128745D01*
X0101610Y0129944D02*
X0098390Y0129944D01*
X0098748Y0131142D02*
X0101235Y0131142D01*
X0101235Y0132341D02*
X0098692Y0132341D01*
X0098233Y0133539D02*
X0101728Y0133539D01*
X0101800Y0137135D02*
X0085700Y0137135D01*
X0087767Y0138333D02*
X0101800Y0138333D01*
X0092919Y0134738D02*
X0085700Y0134738D01*
X0086198Y0133539D02*
X0091767Y0133539D01*
X0091308Y0132341D02*
X0086659Y0132341D01*
X0086659Y0131142D02*
X0091252Y0131142D01*
X0091610Y0129944D02*
X0086316Y0129944D01*
X0085527Y0128745D02*
X0092530Y0128745D01*
X0083767Y0115562D02*
X0130400Y0115562D01*
X0129938Y0114363D02*
X0125062Y0114363D01*
X0125928Y0113165D02*
X0129072Y0113165D01*
X0128735Y0111966D02*
X0126265Y0111966D01*
X0126231Y0110768D02*
X0128769Y0110768D01*
X0129266Y0109569D02*
X0125734Y0109569D01*
X0124600Y0108370D02*
X0130457Y0108370D01*
X0124898Y0107172D02*
X0147602Y0107172D01*
X0148801Y0108370D02*
X0144543Y0108370D01*
X0145734Y0109569D02*
X0152366Y0109569D01*
X0150054Y0113165D02*
X0145928Y0113165D01*
X0145733Y0114363D02*
X0148925Y0114363D01*
X0150400Y0123951D02*
X0075947Y0123951D01*
X0074644Y0125150D02*
X0150400Y0125150D01*
X0149370Y0126348D02*
X0067100Y0126348D01*
X0067100Y0125150D02*
X0070356Y0125150D01*
X0069053Y0123951D02*
X0068119Y0123951D01*
X0075535Y0114363D02*
X0079381Y0114363D01*
X0078635Y0113165D02*
X0076290Y0113165D01*
X0076600Y0111966D02*
X0078347Y0111966D01*
X0078421Y0110768D02*
X0076593Y0110768D01*
X0076097Y0109569D02*
X0078867Y0109569D01*
X0079869Y0108370D02*
X0075069Y0108370D01*
X0074650Y0104775D02*
X0080392Y0104775D01*
X0086133Y0109569D02*
X0119266Y0109569D01*
X0118769Y0110768D02*
X0086579Y0110768D01*
X0086653Y0111966D02*
X0118735Y0111966D01*
X0119072Y0113165D02*
X0086365Y0113165D01*
X0085619Y0114363D02*
X0119938Y0114363D01*
X0149946Y0103576D02*
X0152420Y0103576D01*
X0157191Y0099981D02*
X0161149Y0099981D01*
X0162348Y0098782D02*
X0158385Y0098782D01*
X0158881Y0097584D02*
X0163546Y0097584D01*
X0164745Y0096385D02*
X0158962Y0096385D01*
X0158703Y0095187D02*
X0165943Y0095187D01*
X0167142Y0093988D02*
X0157992Y0093988D01*
X0156155Y0092790D02*
X0168340Y0092790D01*
X0170789Y0090393D02*
X0156197Y0090393D01*
X0158009Y0089194D02*
X0169213Y0089194D01*
X0168909Y0084400D02*
X0158377Y0084400D01*
X0157150Y0083202D02*
X0170016Y0083202D01*
X0174984Y0083202D02*
X0225100Y0083202D01*
X0225100Y0084400D02*
X0176091Y0084400D01*
X0176587Y0085599D02*
X0225100Y0085599D01*
X0225100Y0086797D02*
X0176659Y0086797D01*
X0176424Y0087996D02*
X0225100Y0087996D01*
X0225100Y0089194D02*
X0175787Y0089194D01*
X0174211Y0090393D02*
X0225100Y0090393D01*
X0225100Y0082003D02*
X0157100Y0082003D01*
X0157100Y0080805D02*
X0225100Y0080805D01*
X0225100Y0079606D02*
X0187278Y0079606D01*
X0187400Y0079525D02*
X0186784Y0079937D01*
X0186098Y0080221D01*
X0185371Y0080365D01*
X0185000Y0080365D01*
X0184629Y0080365D01*
X0183902Y0080221D01*
X0183216Y0079937D01*
X0182600Y0079525D01*
X0182075Y0079000D01*
X0181663Y0078384D01*
X0181379Y0077698D01*
X0181235Y0076971D01*
X0181235Y0076600D01*
X0181235Y0076229D01*
X0181379Y0075502D01*
X0181663Y0074816D01*
X0182075Y0074200D01*
X0182600Y0073675D01*
X0183216Y0073263D01*
X0183902Y0072979D01*
X0184629Y0072835D01*
X0185000Y0072835D01*
X0185371Y0072835D01*
X0186098Y0072979D01*
X0186784Y0073263D01*
X0187400Y0073675D01*
X0187925Y0074200D01*
X0188337Y0074816D01*
X0188621Y0075502D01*
X0188765Y0076229D01*
X0188765Y0076600D01*
X0188765Y0076971D01*
X0188621Y0077698D01*
X0188337Y0078384D01*
X0187925Y0079000D01*
X0187400Y0079525D01*
X0188321Y0078408D02*
X0225100Y0078408D01*
X0225100Y0077209D02*
X0188718Y0077209D01*
X0188765Y0076600D02*
X0185000Y0076600D01*
X0185000Y0076600D01*
X0185000Y0076600D01*
X0185000Y0080365D01*
X0185000Y0076600D01*
X0188765Y0076600D01*
X0188722Y0076011D02*
X0225100Y0076011D01*
X0225100Y0074812D02*
X0188334Y0074812D01*
X0187308Y0073614D02*
X0225100Y0073614D01*
X0225100Y0070018D02*
X0186587Y0070018D01*
X0185000Y0070018D02*
X0185000Y0070018D01*
X0185000Y0068820D02*
X0185000Y0068820D01*
X0185000Y0067621D02*
X0185000Y0067621D01*
X0185000Y0066423D02*
X0185000Y0066423D01*
X0185000Y0065224D02*
X0185000Y0065224D01*
X0185000Y0064026D02*
X0185000Y0064026D01*
X0187751Y0064026D02*
X0225100Y0064026D01*
X0225100Y0065224D02*
X0188506Y0065224D01*
X0188765Y0066423D02*
X0225100Y0066423D01*
X0225100Y0067621D02*
X0188636Y0067621D01*
X0188045Y0068820D02*
X0225100Y0068820D01*
X0225100Y0062827D02*
X0138760Y0062827D01*
X0138047Y0061629D02*
X0225100Y0061629D01*
X0234683Y0020879D02*
X0139496Y0020879D01*
X0137742Y0019681D02*
X0234683Y0019681D01*
X0234683Y0018482D02*
X0137832Y0018482D01*
X0138690Y0018127D02*
X0136945Y0018850D01*
X0135055Y0018850D01*
X0133310Y0018127D01*
X0131973Y0016790D01*
X0131250Y0015045D01*
X0131250Y0013155D01*
X0131973Y0011410D01*
X0133310Y0010073D01*
X0135055Y0009350D01*
X0136945Y0009350D01*
X0138690Y0010073D01*
X0140027Y0011410D01*
X0140750Y0013155D01*
X0140750Y0015045D01*
X0140027Y0016790D01*
X0138690Y0018127D01*
X0139533Y0017284D02*
X0234683Y0017284D01*
X0234683Y0016085D02*
X0140319Y0016085D01*
X0140750Y0014887D02*
X0234683Y0014887D01*
X0234683Y0013688D02*
X0140750Y0013688D01*
X0140474Y0012490D02*
X0234683Y0012490D01*
X0234683Y0011291D02*
X0139908Y0011291D01*
X0138710Y0010093D02*
X0234683Y0010093D01*
X0234683Y0008894D02*
X0007600Y0008894D01*
X0007600Y0007696D02*
X0234683Y0007696D01*
X0234683Y0006700D02*
X0234683Y0254531D01*
X0215113Y0254531D01*
X0214157Y0254927D01*
X0213426Y0255659D01*
X0213030Y0256614D01*
X0213030Y0261237D01*
X0212560Y0260102D01*
X0210947Y0258489D01*
X0208839Y0257616D01*
X0206558Y0257616D01*
X0204451Y0258489D01*
X0202838Y0260102D01*
X0201965Y0262209D01*
X0201965Y0264491D01*
X0202838Y0266598D01*
X0204451Y0268211D01*
X0206558Y0269084D01*
X0208839Y0269084D01*
X0210947Y0268211D01*
X0212560Y0266598D01*
X0213030Y0265463D01*
X0213030Y0282091D01*
X0029254Y0282091D01*
X0029254Y0265583D01*
X0029647Y0266355D01*
X0030178Y0267085D01*
X0030816Y0267724D01*
X0031546Y0268254D01*
X0032350Y0268664D01*
X0033208Y0268943D01*
X0033951Y0269060D01*
X0033951Y0263950D01*
X0035151Y0263950D01*
X0035151Y0269060D01*
X0035894Y0268943D01*
X0036752Y0268664D01*
X0037556Y0268254D01*
X0038287Y0267724D01*
X0038925Y0267085D01*
X0039455Y0266355D01*
X0039865Y0265551D01*
X0040144Y0264693D01*
X0040261Y0263950D01*
X0035151Y0263950D01*
X0035151Y0262750D01*
X0035151Y0257640D01*
X0035894Y0257757D01*
X0036752Y0258036D01*
X0037556Y0258446D01*
X0038287Y0258976D01*
X0038925Y0259615D01*
X0039455Y0260345D01*
X0039865Y0261149D01*
X0040144Y0262007D01*
X0040261Y0262750D01*
X0035151Y0262750D01*
X0033951Y0262750D01*
X0033951Y0257640D01*
X0033208Y0257757D01*
X0032350Y0258036D01*
X0031546Y0258446D01*
X0030816Y0258976D01*
X0030178Y0259615D01*
X0029647Y0260345D01*
X0029254Y0261117D01*
X0029254Y0256614D01*
X0028858Y0255659D01*
X0028126Y0254927D01*
X0027171Y0254531D01*
X0007600Y0254531D01*
X0007600Y0006700D01*
X0234683Y0006700D01*
X0185000Y0072835D02*
X0185000Y0076600D01*
X0185000Y0076600D01*
X0185000Y0076600D01*
X0181235Y0076600D01*
X0185000Y0076600D01*
X0185000Y0072835D01*
X0185000Y0073614D02*
X0185000Y0073614D01*
X0185000Y0074812D02*
X0185000Y0074812D01*
X0185000Y0076011D02*
X0185000Y0076011D01*
X0185000Y0077209D02*
X0185000Y0077209D01*
X0185000Y0078408D02*
X0185000Y0078408D01*
X0185000Y0079606D02*
X0185000Y0079606D01*
X0182722Y0079606D02*
X0157319Y0079606D01*
X0158327Y0078408D02*
X0181679Y0078408D01*
X0181282Y0077209D02*
X0158765Y0077209D01*
X0158765Y0076011D02*
X0181278Y0076011D01*
X0181666Y0074812D02*
X0158335Y0074812D01*
X0157339Y0073614D02*
X0182692Y0073614D01*
X0183735Y0091591D02*
X0150850Y0091591D01*
X0150850Y0090393D02*
X0153803Y0090393D01*
X0151991Y0089194D02*
X0150850Y0089194D01*
X0150850Y0092790D02*
X0153845Y0092790D01*
X0152008Y0093988D02*
X0150850Y0093988D01*
X0166302Y0110768D02*
X0180400Y0110768D01*
X0180400Y0109569D02*
X0175413Y0109569D01*
X0176268Y0108370D02*
X0180400Y0108370D01*
X0181458Y0107172D02*
X0176659Y0107172D01*
X0176659Y0105973D02*
X0182657Y0105973D01*
X0183855Y0104775D02*
X0176246Y0104775D01*
X0175358Y0103576D02*
X0184061Y0103576D01*
X0183735Y0096385D02*
X0170684Y0096385D01*
X0169587Y0109569D02*
X0167501Y0109569D01*
X0165104Y0111966D02*
X0179309Y0111966D01*
X0170153Y0113165D02*
X0163905Y0113165D01*
X0162707Y0114363D02*
X0168984Y0114363D01*
X0168464Y0115562D02*
X0161508Y0115562D01*
X0160310Y0116760D02*
X0168341Y0116760D01*
X0173831Y0125150D02*
X0225100Y0125150D01*
X0225100Y0126348D02*
X0175630Y0126348D01*
X0176358Y0127547D02*
X0225100Y0127547D01*
X0225100Y0128745D02*
X0176659Y0128745D01*
X0176652Y0129944D02*
X0225100Y0129944D01*
X0225100Y0131142D02*
X0176156Y0131142D01*
X0175141Y0132341D02*
X0225100Y0132341D01*
X0225100Y0133539D02*
X0173531Y0133539D01*
X0185654Y0141929D02*
X0189447Y0141929D01*
X0196966Y0161105D02*
X0208688Y0161105D01*
X0208716Y0161002D02*
X0208926Y0160637D01*
X0209224Y0160339D01*
X0209589Y0160129D01*
X0209996Y0160020D01*
X0213267Y0160020D01*
X0213267Y0164680D01*
X0208607Y0164680D01*
X0208607Y0161409D01*
X0208716Y0161002D01*
X0208607Y0162303D02*
X0198133Y0162303D01*
X0198629Y0163502D02*
X0208607Y0163502D01*
X0208607Y0165646D02*
X0213267Y0165646D01*
X0213267Y0170306D01*
X0209996Y0170306D01*
X0209589Y0170197D01*
X0209224Y0169987D01*
X0208926Y0169689D01*
X0208716Y0169324D01*
X0208607Y0168917D01*
X0208607Y0165646D01*
X0208607Y0165899D02*
X0198893Y0165899D01*
X0198893Y0164701D02*
X0213267Y0164701D01*
X0213267Y0164680D02*
X0213267Y0165646D01*
X0214233Y0165646D01*
X0214233Y0170306D01*
X0217504Y0170306D01*
X0217911Y0170197D01*
X0218276Y0169987D01*
X0218574Y0169689D01*
X0218784Y0169324D01*
X0218893Y0168917D01*
X0218893Y0165646D01*
X0214233Y0165646D01*
X0214233Y0164680D01*
X0218893Y0164680D01*
X0218893Y0161409D01*
X0218784Y0161002D01*
X0218574Y0160637D01*
X0218276Y0160339D01*
X0217911Y0160129D01*
X0217504Y0160020D01*
X0214233Y0160020D01*
X0214233Y0164680D01*
X0213267Y0164680D01*
X0214233Y0164701D02*
X0225100Y0164701D01*
X0225100Y0165899D02*
X0218893Y0165899D01*
X0218893Y0167098D02*
X0225100Y0167098D01*
X0225100Y0168296D02*
X0218893Y0168296D01*
X0218686Y0169495D02*
X0225100Y0169495D01*
X0225100Y0170693D02*
X0146181Y0170693D01*
X0146856Y0186274D02*
X0214432Y0186274D01*
X0213234Y0187472D02*
X0146772Y0187472D01*
X0146334Y0188671D02*
X0212035Y0188671D01*
X0210837Y0189869D02*
X0145391Y0189869D01*
X0145499Y0207847D02*
X0192859Y0207847D01*
X0191660Y0209045D02*
X0147606Y0209045D01*
X0148721Y0210244D02*
X0190462Y0210244D01*
X0193655Y0213839D02*
X0201965Y0213839D01*
X0201965Y0212641D02*
X0194853Y0212641D01*
X0196052Y0211442D02*
X0202283Y0211442D01*
X0202779Y0210244D02*
X0197250Y0210244D01*
X0198449Y0209045D02*
X0203894Y0209045D01*
X0206001Y0207847D02*
X0199647Y0207847D01*
X0196454Y0204251D02*
X0020621Y0204251D01*
X0019423Y0203053D02*
X0197653Y0203053D01*
X0198852Y0201854D02*
X0018224Y0201854D01*
X0017100Y0200656D02*
X0200050Y0200656D01*
X0201249Y0199457D02*
X0017100Y0199457D01*
X0017100Y0198259D02*
X0202447Y0198259D01*
X0203646Y0197060D02*
X0017100Y0197060D01*
X0017100Y0195862D02*
X0204844Y0195862D01*
X0206043Y0194663D02*
X0017100Y0194663D01*
X0017100Y0193465D02*
X0207241Y0193465D01*
X0208440Y0192266D02*
X0017100Y0192266D01*
X0017100Y0191068D02*
X0209638Y0191068D01*
X0195256Y0205450D02*
X0021820Y0205450D01*
X0023018Y0206648D02*
X0194057Y0206648D01*
X0192456Y0215038D02*
X0202192Y0215038D01*
X0202688Y0216237D02*
X0148812Y0216237D01*
X0147825Y0217435D02*
X0203675Y0217435D01*
X0205471Y0218634D02*
X0146029Y0218634D01*
X0141573Y0218634D02*
X0100677Y0218634D01*
X0101697Y0218211D02*
X0099589Y0219084D01*
X0097308Y0219084D01*
X0095201Y0218211D01*
X0093588Y0216598D01*
X0092715Y0214491D01*
X0092715Y0212209D01*
X0093588Y0210102D01*
X0095201Y0208489D01*
X0097308Y0207616D01*
X0099589Y0207616D01*
X0101697Y0208489D01*
X0103310Y0210102D01*
X0104183Y0212209D01*
X0104183Y0214491D01*
X0103310Y0216598D01*
X0101697Y0218211D01*
X0102473Y0217435D02*
X0139777Y0217435D01*
X0138791Y0216237D02*
X0103459Y0216237D01*
X0103956Y0215038D02*
X0138294Y0215038D01*
X0138067Y0213839D02*
X0104183Y0213839D01*
X0104183Y0212641D02*
X0138067Y0212641D01*
X0138385Y0211442D02*
X0103865Y0211442D01*
X0103369Y0210244D02*
X0138881Y0210244D01*
X0139997Y0209045D02*
X0102253Y0209045D01*
X0100147Y0207847D02*
X0142103Y0207847D01*
X0126880Y0224243D02*
X0127670Y0225032D01*
X0128350Y0225919D01*
X0128909Y0226886D01*
X0129336Y0227918D01*
X0129625Y0228997D01*
X0129766Y0230063D01*
X0121850Y0230063D01*
X0121850Y0231263D01*
X0120650Y0231263D01*
X0120650Y0239179D01*
X0119584Y0239038D01*
X0118505Y0238749D01*
X0117473Y0238322D01*
X0116506Y0237763D01*
X0115619Y0237083D01*
X0114830Y0236293D01*
X0114150Y0235407D01*
X0113591Y0234440D01*
X0113164Y0233408D01*
X0112875Y0232329D01*
X0112734Y0231263D01*
X0120650Y0231263D01*
X0120650Y0230063D01*
X0112734Y0230063D01*
X0112875Y0228997D01*
X0113164Y0227918D01*
X0113591Y0226886D01*
X0114150Y0225919D01*
X0114830Y0225032D01*
X0115619Y0224243D01*
X0116506Y0223563D01*
X0117473Y0223004D01*
X0118505Y0222577D01*
X0119584Y0222288D01*
X0120650Y0222147D01*
X0120650Y0230063D01*
X0121850Y0230063D01*
X0121850Y0222147D01*
X0122916Y0222288D01*
X0123995Y0222577D01*
X0125027Y0223004D01*
X0125994Y0223563D01*
X0126880Y0224243D01*
X0127264Y0224626D02*
X0234683Y0224626D01*
X0234683Y0223428D02*
X0125760Y0223428D01*
X0128278Y0225825D02*
X0234683Y0225825D01*
X0234683Y0227023D02*
X0128966Y0227023D01*
X0129418Y0228222D02*
X0234683Y0228222D01*
X0234683Y0229420D02*
X0129681Y0229420D01*
X0129766Y0231263D02*
X0129625Y0232329D01*
X0129336Y0233408D01*
X0128909Y0234440D01*
X0128350Y0235407D01*
X0127670Y0236293D01*
X0126880Y0237083D01*
X0125994Y0237763D01*
X0125027Y0238322D01*
X0123995Y0238749D01*
X0122916Y0239038D01*
X0121850Y0239179D01*
X0121850Y0231263D01*
X0129766Y0231263D01*
X0129693Y0231817D02*
X0234683Y0231817D01*
X0234683Y0230619D02*
X0121850Y0230619D01*
X0121850Y0231817D02*
X0120650Y0231817D01*
X0120650Y0230619D02*
X0007600Y0230619D01*
X0007600Y0231817D02*
X0112807Y0231817D01*
X0113059Y0233016D02*
X0100554Y0233016D01*
X0099589Y0232616D02*
X0101697Y0233489D01*
X0103310Y0235102D01*
X0104183Y0237209D01*
X0104183Y0239491D01*
X0103310Y0241598D01*
X0101697Y0243211D01*
X0099589Y0244084D01*
X0097308Y0244084D01*
X0095201Y0243211D01*
X0093588Y0241598D01*
X0092715Y0239491D01*
X0092715Y0237209D01*
X0093588Y0235102D01*
X0095201Y0233489D01*
X0097308Y0232616D01*
X0099589Y0232616D01*
X0102422Y0234214D02*
X0113498Y0234214D01*
X0114154Y0235413D02*
X0103438Y0235413D01*
X0103935Y0236611D02*
X0115147Y0236611D01*
X0116586Y0237810D02*
X0104183Y0237810D01*
X0104183Y0239008D02*
X0119471Y0239008D01*
X0120650Y0239008D02*
X0121850Y0239008D01*
X0123029Y0239008D02*
X0138067Y0239008D01*
X0138067Y0239491D02*
X0138067Y0237209D01*
X0138940Y0235102D01*
X0140553Y0233489D01*
X0142661Y0232616D01*
X0144942Y0232616D01*
X0147049Y0233489D01*
X0148662Y0235102D01*
X0149535Y0237209D01*
X0149535Y0239491D01*
X0148662Y0241598D01*
X0147049Y0243211D01*
X0144942Y0244084D01*
X0142661Y0244084D01*
X0140553Y0243211D01*
X0138940Y0241598D01*
X0138067Y0239491D01*
X0138364Y0240207D02*
X0103886Y0240207D01*
X0103390Y0241405D02*
X0138860Y0241405D01*
X0139946Y0242604D02*
X0102304Y0242604D01*
X0100269Y0243802D02*
X0141981Y0243802D01*
X0145622Y0243802D02*
X0205878Y0243802D01*
X0206558Y0244084D02*
X0204451Y0243211D01*
X0202838Y0241598D01*
X0201965Y0239491D01*
X0201965Y0237209D01*
X0202838Y0235102D01*
X0204451Y0233489D01*
X0206558Y0232616D01*
X0208839Y0232616D01*
X0210947Y0233489D01*
X0212560Y0235102D01*
X0213433Y0237209D01*
X0213433Y0239491D01*
X0212560Y0241598D01*
X0210947Y0243211D01*
X0208839Y0244084D01*
X0206558Y0244084D01*
X0209519Y0243802D02*
X0234683Y0243802D01*
X0234683Y0242604D02*
X0211554Y0242604D01*
X0212640Y0241405D02*
X0234683Y0241405D01*
X0234683Y0240207D02*
X0213136Y0240207D01*
X0213433Y0239008D02*
X0234683Y0239008D01*
X0234683Y0237810D02*
X0213433Y0237810D01*
X0213185Y0236611D02*
X0234683Y0236611D01*
X0234683Y0235413D02*
X0212688Y0235413D01*
X0211672Y0234214D02*
X0234683Y0234214D01*
X0234683Y0233016D02*
X0209804Y0233016D01*
X0205594Y0233016D02*
X0145906Y0233016D01*
X0147774Y0234214D02*
X0203726Y0234214D01*
X0202709Y0235413D02*
X0148791Y0235413D01*
X0149287Y0236611D02*
X0202213Y0236611D01*
X0201965Y0237810D02*
X0149535Y0237810D01*
X0149535Y0239008D02*
X0201965Y0239008D01*
X0202262Y0240207D02*
X0149238Y0240207D01*
X0148742Y0241405D02*
X0202758Y0241405D01*
X0203844Y0242604D02*
X0147656Y0242604D01*
X0138812Y0235413D02*
X0128346Y0235413D01*
X0129002Y0234214D02*
X0139828Y0234214D01*
X0141696Y0233016D02*
X0129441Y0233016D01*
X0127353Y0236611D02*
X0138315Y0236611D01*
X0138067Y0237810D02*
X0125914Y0237810D01*
X0121850Y0237810D02*
X0120650Y0237810D01*
X0120650Y0236611D02*
X0121850Y0236611D01*
X0121850Y0235413D02*
X0120650Y0235413D01*
X0120650Y0234214D02*
X0121850Y0234214D01*
X0121850Y0233016D02*
X0120650Y0233016D01*
X0120650Y0229420D02*
X0121850Y0229420D01*
X0121850Y0228222D02*
X0120650Y0228222D01*
X0120650Y0227023D02*
X0121850Y0227023D01*
X0121850Y0225825D02*
X0120650Y0225825D01*
X0120650Y0224626D02*
X0121850Y0224626D01*
X0121850Y0223428D02*
X0120650Y0223428D01*
X0120650Y0222229D02*
X0121850Y0222229D01*
X0122472Y0222229D02*
X0234683Y0222229D01*
X0234683Y0221031D02*
X0007600Y0221031D01*
X0007600Y0222229D02*
X0120028Y0222229D01*
X0116740Y0223428D02*
X0007600Y0223428D01*
X0007600Y0224626D02*
X0115236Y0224626D01*
X0114222Y0225825D02*
X0007600Y0225825D01*
X0007600Y0227023D02*
X0113534Y0227023D01*
X0113082Y0228222D02*
X0007600Y0228222D01*
X0007600Y0229420D02*
X0112819Y0229420D01*
X0119555Y0245764D02*
X0116423Y0247061D01*
X0114026Y0249458D01*
X0112729Y0252590D01*
X0112729Y0255980D01*
X0114026Y0259112D01*
X0116423Y0261509D01*
X0119555Y0262806D01*
X0122945Y0262806D01*
X0126077Y0261509D01*
X0128474Y0259112D01*
X0129771Y0255980D01*
X0129771Y0252590D01*
X0128474Y0249458D01*
X0126077Y0247061D01*
X0122945Y0245764D01*
X0119555Y0245764D01*
X0118504Y0246199D02*
X0007600Y0246199D01*
X0007600Y0245001D02*
X0234683Y0245001D01*
X0234683Y0246199D02*
X0123996Y0246199D01*
X0126414Y0247398D02*
X0234683Y0247398D01*
X0234683Y0248596D02*
X0127612Y0248596D01*
X0128613Y0249795D02*
X0234683Y0249795D01*
X0234683Y0250993D02*
X0129110Y0250993D01*
X0129606Y0252192D02*
X0234683Y0252192D01*
X0234683Y0253390D02*
X0129771Y0253390D01*
X0129771Y0254589D02*
X0214974Y0254589D01*
X0213372Y0255787D02*
X0129771Y0255787D01*
X0129355Y0256986D02*
X0213030Y0256986D01*
X0213030Y0258184D02*
X0210211Y0258184D01*
X0211841Y0259383D02*
X0213030Y0259383D01*
X0213030Y0260581D02*
X0212758Y0260581D01*
X0212570Y0266574D02*
X0213030Y0266574D01*
X0213030Y0267772D02*
X0211385Y0267772D01*
X0213030Y0268971D02*
X0209112Y0268971D01*
X0206286Y0268971D02*
X0144965Y0268971D01*
X0145144Y0268943D02*
X0144401Y0269060D01*
X0144401Y0263950D01*
X0143201Y0263950D01*
X0143201Y0262750D01*
X0138091Y0262750D01*
X0138209Y0262007D01*
X0138487Y0261149D01*
X0138897Y0260345D01*
X0139428Y0259615D01*
X0140066Y0258976D01*
X0140796Y0258446D01*
X0141600Y0258036D01*
X0142458Y0257757D01*
X0143201Y0257640D01*
X0143201Y0262750D01*
X0144401Y0262750D01*
X0144401Y0257640D01*
X0145144Y0257757D01*
X0146002Y0258036D01*
X0146806Y0258446D01*
X0147537Y0258976D01*
X0148175Y0259615D01*
X0148705Y0260345D01*
X0149115Y0261149D01*
X0149394Y0262007D01*
X0149511Y0262750D01*
X0144401Y0262750D01*
X0144401Y0263950D01*
X0149511Y0263950D01*
X0149394Y0264693D01*
X0149115Y0265551D01*
X0148705Y0266355D01*
X0148175Y0267085D01*
X0147537Y0267724D01*
X0146806Y0268254D01*
X0146002Y0268664D01*
X0145144Y0268943D01*
X0144401Y0268971D02*
X0143201Y0268971D01*
X0143201Y0269060D02*
X0142458Y0268943D01*
X0141600Y0268664D01*
X0140796Y0268254D01*
X0140066Y0267724D01*
X0139428Y0267085D01*
X0138897Y0266355D01*
X0138487Y0265551D01*
X0138209Y0264693D01*
X0138091Y0263950D01*
X0143201Y0263950D01*
X0143201Y0269060D01*
X0142637Y0268971D02*
X0099862Y0268971D01*
X0099589Y0269084D02*
X0097308Y0269084D01*
X0095201Y0268211D01*
X0093588Y0266598D01*
X0092715Y0264491D01*
X0092715Y0262209D01*
X0093588Y0260102D01*
X0095201Y0258489D01*
X0097308Y0257616D01*
X0099589Y0257616D01*
X0101697Y0258489D01*
X0103310Y0260102D01*
X0104183Y0262209D01*
X0104183Y0264491D01*
X0103310Y0266598D01*
X0101697Y0268211D01*
X0099589Y0269084D01*
X0097036Y0268971D02*
X0035715Y0268971D01*
X0035151Y0268971D02*
X0033951Y0268971D01*
X0033387Y0268971D02*
X0029254Y0268971D01*
X0029254Y0270170D02*
X0213030Y0270170D01*
X0213030Y0271368D02*
X0029254Y0271368D01*
X0029254Y0272567D02*
X0213030Y0272567D01*
X0213030Y0273765D02*
X0029254Y0273765D01*
X0029254Y0274964D02*
X0213030Y0274964D01*
X0213030Y0276162D02*
X0029254Y0276162D01*
X0029254Y0277361D02*
X0213030Y0277361D01*
X0213030Y0278559D02*
X0029254Y0278559D01*
X0029254Y0279758D02*
X0213030Y0279758D01*
X0213030Y0280956D02*
X0029254Y0280956D01*
X0029254Y0267772D02*
X0030883Y0267772D01*
X0029806Y0266574D02*
X0029254Y0266574D01*
X0033951Y0266574D02*
X0035151Y0266574D01*
X0035151Y0267772D02*
X0033951Y0267772D01*
X0033951Y0265375D02*
X0035151Y0265375D01*
X0035151Y0264177D02*
X0033951Y0264177D01*
X0035151Y0262978D02*
X0092715Y0262978D01*
X0092715Y0264177D02*
X0040226Y0264177D01*
X0039922Y0265375D02*
X0093082Y0265375D01*
X0093578Y0266574D02*
X0039296Y0266574D01*
X0038219Y0267772D02*
X0094762Y0267772D01*
X0092893Y0261780D02*
X0040070Y0261780D01*
X0039576Y0260581D02*
X0093389Y0260581D01*
X0094307Y0259383D02*
X0038693Y0259383D01*
X0037043Y0258184D02*
X0095936Y0258184D01*
X0100961Y0258184D02*
X0113642Y0258184D01*
X0113145Y0256986D02*
X0029254Y0256986D01*
X0029254Y0258184D02*
X0032059Y0258184D01*
X0033951Y0258184D02*
X0035151Y0258184D01*
X0035151Y0259383D02*
X0033951Y0259383D01*
X0033951Y0260581D02*
X0035151Y0260581D01*
X0035151Y0261780D02*
X0033951Y0261780D01*
X0030409Y0259383D02*
X0029254Y0259383D01*
X0029254Y0260581D02*
X0029527Y0260581D01*
X0028911Y0255787D02*
X0112729Y0255787D01*
X0112729Y0254589D02*
X0027309Y0254589D01*
X0031303Y0243211D02*
X0029690Y0241598D01*
X0028817Y0239491D01*
X0028817Y0237209D01*
X0029690Y0235102D01*
X0031303Y0233489D01*
X0033411Y0232616D01*
X0035692Y0232616D01*
X0037799Y0233489D01*
X0039412Y0235102D01*
X0040285Y0237209D01*
X0040285Y0239491D01*
X0039412Y0241598D01*
X0037799Y0243211D01*
X0035692Y0244084D01*
X0033411Y0244084D01*
X0031303Y0243211D01*
X0030696Y0242604D02*
X0007600Y0242604D01*
X0007600Y0243802D02*
X0032731Y0243802D01*
X0029610Y0241405D02*
X0007600Y0241405D01*
X0007600Y0240207D02*
X0029114Y0240207D01*
X0028817Y0239008D02*
X0007600Y0239008D01*
X0007600Y0237810D02*
X0028817Y0237810D01*
X0029065Y0236611D02*
X0007600Y0236611D01*
X0007600Y0235413D02*
X0029562Y0235413D01*
X0030578Y0234214D02*
X0007600Y0234214D01*
X0007600Y0233016D02*
X0032446Y0233016D01*
X0036656Y0233016D02*
X0096344Y0233016D01*
X0094476Y0234214D02*
X0038524Y0234214D01*
X0039541Y0235413D02*
X0093459Y0235413D01*
X0092963Y0236611D02*
X0040037Y0236611D01*
X0040285Y0237810D02*
X0092715Y0237810D01*
X0092715Y0239008D02*
X0040285Y0239008D01*
X0039988Y0240207D02*
X0093012Y0240207D01*
X0093508Y0241405D02*
X0039492Y0241405D01*
X0038406Y0242604D02*
X0094594Y0242604D01*
X0096628Y0243802D02*
X0036372Y0243802D01*
X0036779Y0218634D02*
X0096221Y0218634D01*
X0094425Y0217435D02*
X0038575Y0217435D01*
X0039562Y0216237D02*
X0093438Y0216237D01*
X0092942Y0215038D02*
X0040058Y0215038D01*
X0040285Y0213839D02*
X0092715Y0213839D01*
X0092715Y0212641D02*
X0040285Y0212641D01*
X0039967Y0211442D02*
X0093033Y0211442D01*
X0093529Y0210244D02*
X0039471Y0210244D01*
X0038356Y0209045D02*
X0094644Y0209045D01*
X0096751Y0207847D02*
X0036249Y0207847D01*
X0032853Y0207847D02*
X0024217Y0207847D01*
X0025415Y0209045D02*
X0030747Y0209045D01*
X0029631Y0210244D02*
X0026614Y0210244D01*
X0007600Y0247398D02*
X0116086Y0247398D01*
X0114888Y0248596D02*
X0007600Y0248596D01*
X0007600Y0249795D02*
X0113887Y0249795D01*
X0113390Y0250993D02*
X0007600Y0250993D01*
X0007600Y0252192D02*
X0112894Y0252192D01*
X0112729Y0253390D02*
X0007600Y0253390D01*
X0073893Y0167098D02*
X0125644Y0167098D01*
X0125644Y0165899D02*
X0073893Y0165899D01*
X0073893Y0164701D02*
X0126072Y0164701D01*
X0126938Y0163502D02*
X0073893Y0163502D01*
X0108765Y0171892D02*
X0225100Y0171892D01*
X0225100Y0173090D02*
X0108458Y0173090D01*
X0083750Y0096385D02*
X0083750Y0096385D01*
X0083750Y0095187D02*
X0083750Y0095187D01*
X0083750Y0093988D02*
X0083750Y0093988D01*
X0083750Y0092790D02*
X0083750Y0092790D01*
X0083750Y0091591D02*
X0083750Y0091591D01*
X0083750Y0090393D02*
X0083750Y0090393D01*
X0070222Y0078408D02*
X0070189Y0078408D01*
X0032067Y0034063D02*
X0007600Y0034063D01*
X0007600Y0035261D02*
X0030869Y0035261D01*
X0029670Y0036460D02*
X0007600Y0036460D01*
X0007600Y0037658D02*
X0028472Y0037658D01*
X0027273Y0038857D02*
X0007600Y0038857D01*
X0007600Y0040055D02*
X0026075Y0040055D01*
X0024876Y0041254D02*
X0007600Y0041254D01*
X0007600Y0042452D02*
X0023678Y0042452D01*
X0022479Y0043651D02*
X0007600Y0043651D01*
X0007600Y0044849D02*
X0021281Y0044849D01*
X0020082Y0046048D02*
X0007600Y0046048D01*
X0007600Y0047246D02*
X0018884Y0047246D01*
X0017685Y0048445D02*
X0007600Y0048445D01*
X0007600Y0049643D02*
X0016487Y0049643D01*
X0015288Y0050842D02*
X0007600Y0050842D01*
X0007600Y0052040D02*
X0014090Y0052040D01*
X0012900Y0053239D02*
X0007600Y0053239D01*
X0007600Y0054437D02*
X0012900Y0054437D01*
X0012900Y0055636D02*
X0007600Y0055636D01*
X0007600Y0056834D02*
X0012900Y0056834D01*
X0012900Y0058033D02*
X0007600Y0058033D01*
X0007600Y0059232D02*
X0012900Y0059232D01*
X0012900Y0060430D02*
X0007600Y0060430D01*
X0007600Y0061629D02*
X0012900Y0061629D01*
X0012900Y0062827D02*
X0007600Y0062827D01*
X0007600Y0064026D02*
X0012900Y0064026D01*
X0012900Y0065224D02*
X0007600Y0065224D01*
X0007600Y0066423D02*
X0012900Y0066423D01*
X0012900Y0067621D02*
X0007600Y0067621D01*
X0007600Y0068820D02*
X0012900Y0068820D01*
X0012900Y0070018D02*
X0007600Y0070018D01*
X0007600Y0071217D02*
X0012900Y0071217D01*
X0012900Y0072415D02*
X0007600Y0072415D01*
X0007600Y0073614D02*
X0012900Y0073614D01*
X0012900Y0074812D02*
X0007600Y0074812D01*
X0007600Y0076011D02*
X0012900Y0076011D01*
X0012900Y0077209D02*
X0007600Y0077209D01*
X0007600Y0078408D02*
X0012900Y0078408D01*
X0012900Y0079606D02*
X0007600Y0079606D01*
X0007600Y0080805D02*
X0012900Y0080805D01*
X0012900Y0082003D02*
X0007600Y0082003D01*
X0007600Y0083202D02*
X0012900Y0083202D01*
X0012900Y0084400D02*
X0007600Y0084400D01*
X0007600Y0085599D02*
X0012900Y0085599D01*
X0012900Y0086797D02*
X0007600Y0086797D01*
X0007600Y0087996D02*
X0012900Y0087996D01*
X0012900Y0089194D02*
X0007600Y0089194D01*
X0007600Y0090393D02*
X0012900Y0090393D01*
X0012900Y0091591D02*
X0007600Y0091591D01*
X0007600Y0092790D02*
X0012900Y0092790D01*
X0012900Y0093988D02*
X0007600Y0093988D01*
X0007600Y0095187D02*
X0012900Y0095187D01*
X0012900Y0096385D02*
X0007600Y0096385D01*
X0007600Y0097584D02*
X0012900Y0097584D01*
X0012900Y0098782D02*
X0007600Y0098782D01*
X0007600Y0099981D02*
X0012900Y0099981D01*
X0012900Y0101179D02*
X0007600Y0101179D01*
X0007600Y0102378D02*
X0012900Y0102378D01*
X0012900Y0103576D02*
X0007600Y0103576D01*
X0007600Y0104775D02*
X0012900Y0104775D01*
X0012900Y0105973D02*
X0007600Y0105973D01*
X0007600Y0107172D02*
X0012900Y0107172D01*
X0012900Y0108370D02*
X0007600Y0108370D01*
X0007600Y0109569D02*
X0012900Y0109569D01*
X0012900Y0110768D02*
X0007600Y0110768D01*
X0007600Y0111966D02*
X0012900Y0111966D01*
X0012900Y0113165D02*
X0007600Y0113165D01*
X0007600Y0114363D02*
X0012900Y0114363D01*
X0012900Y0115562D02*
X0007600Y0115562D01*
X0007600Y0116760D02*
X0012900Y0116760D01*
X0012900Y0117959D02*
X0007600Y0117959D01*
X0007600Y0119157D02*
X0012900Y0119157D01*
X0012900Y0120356D02*
X0007600Y0120356D01*
X0007600Y0121554D02*
X0012900Y0121554D01*
X0012900Y0122753D02*
X0007600Y0122753D01*
X0007600Y0123951D02*
X0012900Y0123951D01*
X0012900Y0125150D02*
X0007600Y0125150D01*
X0007600Y0126348D02*
X0012900Y0126348D01*
X0007600Y0032864D02*
X0033266Y0032864D01*
X0034464Y0031666D02*
X0007600Y0031666D01*
X0007600Y0030467D02*
X0035663Y0030467D01*
X0036861Y0029269D02*
X0007600Y0029269D01*
X0007600Y0028070D02*
X0038060Y0028070D01*
X0039258Y0026872D02*
X0007600Y0026872D01*
X0007600Y0025673D02*
X0040457Y0025673D01*
X0041655Y0024475D02*
X0007600Y0024475D01*
X0007600Y0023276D02*
X0042854Y0023276D01*
X0044052Y0022078D02*
X0007600Y0022078D01*
X0007600Y0020879D02*
X0102504Y0020879D01*
X0104258Y0019681D02*
X0007600Y0019681D01*
X0007600Y0018482D02*
X0104168Y0018482D01*
X0103310Y0018127D02*
X0101973Y0016790D01*
X0101250Y0015045D01*
X0101250Y0013155D01*
X0101973Y0011410D01*
X0103310Y0010073D01*
X0105055Y0009350D01*
X0106945Y0009350D01*
X0108690Y0010073D01*
X0110027Y0011410D01*
X0110750Y0013155D01*
X0110750Y0015045D01*
X0110027Y0016790D01*
X0108690Y0018127D01*
X0106945Y0018850D01*
X0105055Y0018850D01*
X0103310Y0018127D01*
X0102467Y0017284D02*
X0007600Y0017284D01*
X0007600Y0016085D02*
X0101681Y0016085D01*
X0101250Y0014887D02*
X0007600Y0014887D01*
X0007600Y0013688D02*
X0101250Y0013688D01*
X0101526Y0012490D02*
X0007600Y0012490D01*
X0007600Y0011291D02*
X0102092Y0011291D01*
X0103290Y0010093D02*
X0007600Y0010093D01*
X0044000Y0028070D02*
X0103253Y0028070D01*
X0102055Y0026872D02*
X0045198Y0026872D01*
X0107742Y0019681D02*
X0114258Y0019681D01*
X0115055Y0019350D02*
X0113310Y0020073D01*
X0111973Y0021410D01*
X0111250Y0023155D01*
X0111250Y0025045D01*
X0111973Y0026790D01*
X0113310Y0028127D01*
X0115055Y0028850D01*
X0116945Y0028850D01*
X0118690Y0028127D01*
X0120027Y0026790D01*
X0120750Y0025045D01*
X0120750Y0023155D01*
X0120027Y0021410D01*
X0118690Y0020073D01*
X0116945Y0019350D01*
X0115055Y0019350D01*
X0115055Y0018850D02*
X0113310Y0018127D01*
X0111973Y0016790D01*
X0111250Y0015045D01*
X0111250Y0013155D01*
X0111973Y0011410D01*
X0113310Y0010073D01*
X0115055Y0009350D01*
X0116945Y0009350D01*
X0118690Y0010073D01*
X0120027Y0011410D01*
X0120750Y0013155D01*
X0120750Y0015045D01*
X0120027Y0016790D01*
X0118690Y0018127D01*
X0116945Y0018850D01*
X0115055Y0018850D01*
X0114168Y0018482D02*
X0107832Y0018482D01*
X0109533Y0017284D02*
X0112467Y0017284D01*
X0111681Y0016085D02*
X0110319Y0016085D01*
X0110750Y0014887D02*
X0111250Y0014887D01*
X0111250Y0013688D02*
X0110750Y0013688D01*
X0110474Y0012490D02*
X0111526Y0012490D01*
X0112092Y0011291D02*
X0109908Y0011291D01*
X0108710Y0010093D02*
X0113290Y0010093D01*
X0118710Y0010093D02*
X0123290Y0010093D01*
X0123310Y0010073D02*
X0125055Y0009350D01*
X0126945Y0009350D01*
X0128690Y0010073D01*
X0130027Y0011410D01*
X0130750Y0013155D01*
X0130750Y0015045D01*
X0130027Y0016790D01*
X0128690Y0018127D01*
X0126945Y0018850D01*
X0125055Y0018850D01*
X0123310Y0018127D01*
X0121973Y0016790D01*
X0121250Y0015045D01*
X0121250Y0013155D01*
X0121973Y0011410D01*
X0123310Y0010073D01*
X0122092Y0011291D02*
X0119908Y0011291D01*
X0120474Y0012490D02*
X0121526Y0012490D01*
X0121250Y0013688D02*
X0120750Y0013688D01*
X0120750Y0014887D02*
X0121250Y0014887D01*
X0121681Y0016085D02*
X0120319Y0016085D01*
X0119533Y0017284D02*
X0122467Y0017284D01*
X0124168Y0018482D02*
X0117832Y0018482D01*
X0117742Y0019681D02*
X0124231Y0019681D01*
X0124177Y0019698D02*
X0124888Y0019467D01*
X0125626Y0019350D01*
X0125714Y0019350D01*
X0125714Y0023814D01*
X0126286Y0023814D01*
X0126286Y0024386D01*
X0130750Y0024386D01*
X0130750Y0024474D01*
X0130633Y0025212D01*
X0130402Y0025923D01*
X0130062Y0026589D01*
X0129623Y0027194D01*
X0129094Y0027723D01*
X0128489Y0028162D01*
X0127823Y0028502D01*
X0127112Y0028733D01*
X0126374Y0028850D01*
X0126286Y0028850D01*
X0126286Y0024386D01*
X0125714Y0024386D01*
X0125714Y0028850D01*
X0125626Y0028850D01*
X0124888Y0028733D01*
X0124177Y0028502D01*
X0123511Y0028162D01*
X0122906Y0027723D01*
X0122377Y0027194D01*
X0121938Y0026589D01*
X0121598Y0025923D01*
X0121367Y0025212D01*
X0121250Y0024474D01*
X0121250Y0024386D01*
X0125714Y0024386D01*
X0125714Y0023814D01*
X0121250Y0023814D01*
X0121250Y0023726D01*
X0121367Y0022988D01*
X0121598Y0022277D01*
X0121938Y0021611D01*
X0122377Y0021006D01*
X0122906Y0020477D01*
X0123511Y0020038D01*
X0124177Y0019698D01*
X0125714Y0019681D02*
X0126286Y0019681D01*
X0126286Y0019350D02*
X0126374Y0019350D01*
X0127112Y0019467D01*
X0127823Y0019698D01*
X0128489Y0020038D01*
X0129094Y0020477D01*
X0129623Y0021006D01*
X0130062Y0021611D01*
X0130402Y0022277D01*
X0130633Y0022988D01*
X0130750Y0023726D01*
X0130750Y0023814D01*
X0126286Y0023814D01*
X0126286Y0019350D01*
X0127769Y0019681D02*
X0134258Y0019681D01*
X0134168Y0018482D02*
X0127832Y0018482D01*
X0129533Y0017284D02*
X0132467Y0017284D01*
X0131681Y0016085D02*
X0130319Y0016085D01*
X0130750Y0014887D02*
X0131250Y0014887D01*
X0131250Y0013688D02*
X0130750Y0013688D01*
X0130474Y0012490D02*
X0131526Y0012490D01*
X0132092Y0011291D02*
X0129908Y0011291D01*
X0128710Y0010093D02*
X0133290Y0010093D01*
X0132504Y0020879D02*
X0129496Y0020879D01*
X0130300Y0022078D02*
X0131697Y0022078D01*
X0131250Y0023276D02*
X0130678Y0023276D01*
X0130749Y0024475D02*
X0131250Y0024475D01*
X0131511Y0025673D02*
X0130483Y0025673D01*
X0129857Y0026872D02*
X0132055Y0026872D01*
X0133253Y0028070D02*
X0128616Y0028070D01*
X0126286Y0028070D02*
X0125714Y0028070D01*
X0125714Y0026872D02*
X0126286Y0026872D01*
X0126286Y0025673D02*
X0125714Y0025673D01*
X0125714Y0024475D02*
X0126286Y0024475D01*
X0126286Y0023276D02*
X0125714Y0023276D01*
X0125714Y0022078D02*
X0126286Y0022078D01*
X0126286Y0020879D02*
X0125714Y0020879D01*
X0122504Y0020879D02*
X0119496Y0020879D01*
X0120303Y0022078D02*
X0121700Y0022078D01*
X0121322Y0023276D02*
X0120750Y0023276D01*
X0120750Y0024475D02*
X0121251Y0024475D01*
X0121517Y0025673D02*
X0120489Y0025673D01*
X0119945Y0026872D02*
X0122143Y0026872D01*
X0123384Y0028070D02*
X0118747Y0028070D01*
X0113253Y0028070D02*
X0108747Y0028070D01*
X0109945Y0026872D02*
X0112055Y0026872D01*
X0111511Y0025673D02*
X0110489Y0025673D01*
X0110750Y0024475D02*
X0111250Y0024475D01*
X0111250Y0023276D02*
X0110750Y0023276D01*
X0110303Y0022078D02*
X0111697Y0022078D01*
X0112504Y0020879D02*
X0109496Y0020879D01*
X0213267Y0161105D02*
X0214233Y0161105D01*
X0214233Y0162303D02*
X0213267Y0162303D01*
X0213267Y0163502D02*
X0214233Y0163502D01*
X0214233Y0165899D02*
X0213267Y0165899D01*
X0213267Y0167098D02*
X0214233Y0167098D01*
X0214233Y0168296D02*
X0213267Y0168296D01*
X0213267Y0169495D02*
X0214233Y0169495D01*
X0208814Y0169495D02*
X0196692Y0169495D01*
X0197891Y0168296D02*
X0208607Y0168296D01*
X0208607Y0167098D02*
X0198516Y0167098D01*
X0218893Y0163502D02*
X0225100Y0163502D01*
X0225100Y0162303D02*
X0218893Y0162303D01*
X0218812Y0161105D02*
X0225100Y0161105D01*
X0205186Y0258184D02*
X0146293Y0258184D01*
X0144401Y0258184D02*
X0143201Y0258184D01*
X0143201Y0259383D02*
X0144401Y0259383D01*
X0144401Y0260581D02*
X0143201Y0260581D01*
X0143201Y0261780D02*
X0144401Y0261780D01*
X0144401Y0262978D02*
X0201965Y0262978D01*
X0201965Y0264177D02*
X0149476Y0264177D01*
X0149172Y0265375D02*
X0202332Y0265375D01*
X0202828Y0266574D02*
X0148546Y0266574D01*
X0147469Y0267772D02*
X0204012Y0267772D01*
X0202143Y0261780D02*
X0149320Y0261780D01*
X0148826Y0260581D02*
X0202639Y0260581D01*
X0203557Y0259383D02*
X0147943Y0259383D01*
X0143201Y0262978D02*
X0104183Y0262978D01*
X0104183Y0264177D02*
X0138127Y0264177D01*
X0138430Y0265375D02*
X0103816Y0265375D01*
X0103320Y0266574D02*
X0139056Y0266574D01*
X0140133Y0267772D02*
X0102135Y0267772D01*
X0104005Y0261780D02*
X0117077Y0261780D01*
X0115496Y0260581D02*
X0103508Y0260581D01*
X0102591Y0259383D02*
X0114297Y0259383D01*
X0125423Y0261780D02*
X0138282Y0261780D01*
X0138777Y0260581D02*
X0127004Y0260581D01*
X0128203Y0259383D02*
X0139659Y0259383D01*
X0141309Y0258184D02*
X0128858Y0258184D01*
X0143201Y0264177D02*
X0144401Y0264177D01*
X0144401Y0265375D02*
X0143201Y0265375D01*
X0143201Y0266574D02*
X0144401Y0266574D01*
X0144401Y0267772D02*
X0143201Y0267772D01*
D26*
X0152750Y0277350D03*
X0125250Y0277350D03*
X0125250Y0241600D03*
X0152750Y0239100D03*
X0152750Y0199100D03*
X0125250Y0199100D03*
X0112750Y0161600D03*
X0097750Y0161600D03*
X0090250Y0199100D03*
X0090250Y0239100D03*
X0090250Y0277350D03*
X0047750Y0277350D03*
X0047750Y0239100D03*
X0047750Y0199100D03*
X0019250Y0199100D03*
X0009250Y0199100D03*
X0034000Y0169100D03*
X0034000Y0161600D03*
X0041750Y0161600D03*
X0041750Y0169100D03*
X0019250Y0159100D03*
X0009250Y0159100D03*
X0009250Y0119100D03*
X0019250Y0119100D03*
X0019250Y0079100D03*
X0009250Y0079100D03*
X0009250Y0039100D03*
X0009250Y0008350D03*
X0041000Y0008350D03*
X0066000Y0033350D03*
X0081000Y0033350D03*
X0078500Y0058350D03*
X0066000Y0058350D03*
X0106500Y0079600D03*
X0129000Y0079600D03*
X0117750Y0116600D03*
X0106750Y0116600D03*
X0089250Y0109100D03*
X0054250Y0111600D03*
X0054250Y0141600D03*
X0009250Y0239100D03*
X0146500Y0122100D03*
X0164000Y0122100D03*
X0164000Y0092100D03*
X0164000Y0079600D03*
X0123500Y0038350D03*
X0108500Y0038350D03*
X0121000Y0008350D03*
X0081000Y0008350D03*
X0161000Y0008350D03*
X0161000Y0018350D03*
X0201000Y0021350D03*
X0201000Y0008350D03*
X0218250Y0039100D03*
X0232750Y0039100D03*
X0232750Y0008350D03*
X0232750Y0079100D03*
X0217750Y0079100D03*
X0217750Y0119100D03*
X0232750Y0119100D03*
X0232750Y0159100D03*
X0232750Y0199100D03*
X0232750Y0239100D03*
X0190250Y0239100D03*
X0190250Y0277350D03*
X0190250Y0199100D03*
X0197750Y0156600D03*
X0169000Y0157100D03*
D27*
X0167500Y0151600D02*
X0172500Y0146600D01*
X0172500Y0141600D01*
X0172500Y0131600D02*
X0172500Y0129100D01*
X0172500Y0131600D02*
X0152500Y0151600D01*
X0152500Y0141600D02*
X0142500Y0141600D01*
X0142500Y0154040D01*
X0142440Y0154100D01*
X0142440Y0166540D01*
X0142500Y0166600D01*
X0130000Y0166600D01*
X0125000Y0176600D02*
X0117500Y0184100D01*
X0045000Y0184100D01*
X0037500Y0176600D01*
X0037500Y0159100D01*
X0032500Y0154100D01*
X0032500Y0149100D01*
X0032500Y0134100D01*
X0035000Y0131600D01*
X0042500Y0131600D01*
X0047500Y0131600D01*
X0050000Y0129100D01*
X0050000Y0094100D01*
X0047500Y0091600D01*
X0042500Y0091600D01*
X0042500Y0101600D02*
X0035000Y0101600D01*
X0032500Y0099100D01*
X0032500Y0091600D01*
X0032500Y0084100D01*
X0035000Y0081600D01*
X0047500Y0081600D01*
X0067500Y0081600D02*
X0070000Y0081600D01*
X0072500Y0079100D01*
X0072500Y0071600D01*
X0090000Y0074100D02*
X0072500Y0091600D01*
X0090000Y0074100D02*
X0100000Y0074100D01*
X0105000Y0074100D01*
X0113930Y0065170D01*
X0134995Y0065170D01*
X0134998Y0073030D02*
X0135000Y0075532D01*
X0135000Y0081600D01*
X0138563Y0085163D01*
X0141250Y0085163D01*
X0148750Y0096100D02*
X0148500Y0096600D01*
X0155000Y0096600D01*
X0148750Y0096100D02*
X0148750Y0071100D01*
X0153250Y0066600D01*
X0155000Y0066600D01*
X0155000Y0076600D02*
X0155000Y0086600D01*
X0172500Y0086600D01*
X0170000Y0094100D02*
X0187440Y0094100D01*
X0187500Y0094160D01*
X0187500Y0102040D02*
X0187500Y0104100D01*
X0182500Y0109100D01*
X0182500Y0114100D01*
X0182500Y0116600D01*
X0185000Y0119100D01*
X0192500Y0119100D01*
X0192500Y0139100D02*
X0185000Y0139100D01*
X0182500Y0141600D01*
X0182500Y0144100D01*
X0182500Y0151600D01*
X0173750Y0160350D01*
X0173750Y0165163D01*
X0167500Y0151600D02*
X0162500Y0151600D01*
X0152500Y0129100D02*
X0152500Y0116600D01*
X0157500Y0116600D01*
X0167500Y0106600D01*
X0172500Y0106600D01*
X0170000Y0094100D02*
X0157500Y0106600D01*
X0155000Y0106600D01*
X0150000Y0106600D01*
X0147500Y0104100D01*
X0125000Y0104100D01*
X0122500Y0106600D01*
X0122500Y0111600D01*
X0127500Y0121600D02*
X0132500Y0116600D01*
X0132500Y0111600D01*
X0127500Y0121600D02*
X0072500Y0121600D01*
X0067500Y0121600D01*
X0065000Y0124100D01*
X0065000Y0144100D01*
X0057500Y0151600D01*
X0057500Y0161600D01*
X0053937Y0165163D01*
X0048750Y0165163D01*
X0047500Y0152850D02*
X0046250Y0152850D01*
X0042500Y0149100D01*
X0042500Y0141600D01*
X0028750Y0160350D02*
X0022500Y0154100D01*
X0022500Y0149100D01*
X0022500Y0134100D01*
X0032500Y0121600D02*
X0042500Y0121600D01*
X0067500Y0152850D02*
X0068750Y0152850D01*
X0072500Y0149100D01*
X0072500Y0141600D01*
X0068750Y0165163D02*
X0068750Y0170350D01*
X0067500Y0171600D01*
X0067500Y0176600D01*
X0034551Y0213350D02*
X0026750Y0213350D01*
X0015000Y0201600D01*
X0015000Y0054100D01*
X0045000Y0024100D01*
X0106000Y0024100D01*
X0106063Y0085163D02*
X0101250Y0085163D01*
X0106063Y0085163D02*
X0117500Y0096600D01*
X0122500Y0096600D01*
X0142500Y0096600D02*
X0148500Y0096600D01*
X0142500Y0111600D02*
X0142500Y0114100D01*
X0145000Y0116600D01*
X0152500Y0116600D01*
X0132500Y0141600D02*
X0132500Y0152040D01*
X0134560Y0154100D01*
X0125000Y0176600D02*
X0145000Y0176600D01*
X0150000Y0181600D01*
X0152500Y0181600D01*
X0162500Y0181600D01*
X0028750Y0165163D02*
X0028750Y0160350D01*
D28*
X0072500Y0131600D02*
X0082500Y0131600D01*
X0082500Y0139660D01*
X0084500Y0141660D01*
X0102440Y0141660D01*
X0105000Y0141600D01*
X0122500Y0141600D01*
X0105000Y0141600D02*
X0105000Y0131600D01*
X0105000Y0101600D02*
X0095000Y0101600D01*
X0083810Y0101600D01*
X0083750Y0101540D01*
X0072560Y0101540D01*
X0072500Y0101600D01*
X0095000Y0171600D02*
X0105000Y0171600D01*
D29*
X0143801Y0213350D02*
X0190750Y0213350D01*
X0227500Y0176600D01*
X0227500Y0054100D01*
X0197500Y0024100D01*
X0136000Y0024100D01*
M02*
