G75*
%MOIN*%
%OFA0B0*%
%FSLAX25Y25*%
%IPPOS*%
%LPD*%
%AMOC8*
5,1,8,0,0,1.08239X$1,22.5*
%
%ADD10C,0.05118*%
%ADD11R,0.04331X0.04331*%
%ADD12C,0.04331*%
%ADD13R,0.07087X0.07087*%
%ADD14C,0.07087*%
%ADD15C,0.08268*%
%ADD16C,0.13843*%
%ADD17C,0.06299*%
%ADD18C,0.05512*%
%ADD19R,0.05512X0.05512*%
%ADD20R,0.09449X0.09449*%
%ADD21C,0.09449*%
%ADD22C,0.00000*%
%ADD23C,0.05000*%
%ADD24C,0.04724*%
%ADD25R,0.04724X0.04724*%
%ADD26C,0.03200*%
%ADD27C,0.01200*%
%ADD28C,0.03346*%
%ADD29C,0.01000*%
D10*
X0054100Y0061000D03*
X0074100Y0061000D03*
X0074100Y0081000D03*
X0074100Y0101000D03*
X0094100Y0121000D03*
X0094100Y0141000D03*
X0074100Y0153500D03*
X0054100Y0153500D03*
X0034100Y0131000D03*
X0034100Y0111000D03*
X0099100Y0211000D03*
X0099100Y0231000D03*
X0174100Y0245000D03*
X0194100Y0245000D03*
X0214100Y0168500D03*
X0214100Y0148500D03*
D11*
X0214105Y0133430D03*
X0171605Y0133430D03*
X0171595Y0103570D03*
X0099095Y0091070D03*
X0042040Y0153500D03*
X0039100Y0195810D03*
X0023920Y0090755D03*
X0131670Y0238505D03*
D12*
X0139530Y0238502D03*
X0159100Y0211000D03*
X0189100Y0211000D03*
X0186600Y0133500D03*
X0199100Y0133500D03*
X0214102Y0125570D03*
X0199100Y0103500D03*
X0186600Y0103500D03*
X0171598Y0111430D03*
X0171602Y0125570D03*
X0156600Y0133500D03*
X0156600Y0103500D03*
X0124100Y0103500D03*
X0124100Y0113500D03*
X0114100Y0113500D03*
X0114100Y0103500D03*
X0104100Y0113500D03*
X0099098Y0098930D03*
X0084100Y0101000D03*
X0064100Y0101000D03*
X0054100Y0101000D03*
X0044100Y0111000D03*
X0031780Y0090752D03*
X0024100Y0111000D03*
X0024100Y0141000D03*
X0034160Y0153500D03*
X0044100Y0141000D03*
X0054100Y0166000D03*
X0064100Y0166000D03*
X0064100Y0196000D03*
X0054100Y0196000D03*
X0059100Y0213500D03*
X0059100Y0223500D03*
X0079100Y0211000D03*
X0089100Y0211000D03*
X0089100Y0241000D03*
X0079100Y0241000D03*
X0039100Y0203690D03*
X0029100Y0213500D03*
X0029100Y0223500D03*
X0024100Y0196000D03*
X0024100Y0166000D03*
X0054100Y0071000D03*
X0064100Y0071000D03*
X0084100Y0071000D03*
X0114100Y0073500D03*
X0124100Y0073500D03*
X0124100Y0143500D03*
X0121600Y0153500D03*
X0121600Y0163500D03*
X0121600Y0173500D03*
X0114100Y0143500D03*
X0104100Y0143500D03*
X0091600Y0153500D03*
X0091600Y0163500D03*
X0091600Y0173500D03*
D13*
X0069100Y0233563D03*
X0214100Y0233563D03*
D14*
X0194100Y0233563D03*
X0174100Y0233563D03*
X0049100Y0233563D03*
X0029100Y0233563D03*
D15*
X0035151Y0278750D03*
X0035151Y0303750D03*
X0035151Y0328750D03*
X0099049Y0328750D03*
X0099049Y0303750D03*
X0099049Y0278750D03*
X0144151Y0278750D03*
X0144151Y0303750D03*
X0144151Y0328750D03*
X0208049Y0328750D03*
X0208049Y0303750D03*
X0208049Y0278750D03*
D16*
X0121600Y0296588D03*
X0121600Y0320210D03*
D17*
X0116600Y0056000D03*
X0116600Y0046000D03*
X0106600Y0046000D03*
X0106600Y0056000D03*
X0126600Y0056000D03*
X0126600Y0046000D03*
X0136600Y0046000D03*
X0136600Y0056000D03*
D18*
X0153350Y0256000D03*
D19*
X0131600Y0256000D03*
D20*
X0212600Y0196000D03*
D21*
X0194100Y0196000D03*
X0175600Y0196000D03*
D22*
X0237633Y0035000D02*
X0005350Y0035000D01*
X0005350Y0323031D01*
X0027004Y0323031D01*
X0027004Y0350591D01*
X0215980Y0350591D01*
X0215980Y0323031D01*
X0237633Y0323031D01*
X0237633Y0035000D01*
D23*
X0201600Y0148500D03*
X0191600Y0148500D03*
X0181600Y0148500D03*
X0171600Y0148500D03*
X0161600Y0148500D03*
X0151600Y0148500D03*
X0141600Y0148500D03*
X0141600Y0178500D03*
X0151600Y0178500D03*
X0161600Y0178500D03*
X0171600Y0178500D03*
X0181600Y0178500D03*
X0191600Y0178500D03*
X0201600Y0178500D03*
X0084100Y0141000D03*
X0084100Y0131000D03*
X0084100Y0121000D03*
X0084100Y0111000D03*
X0054100Y0111000D03*
X0054100Y0121000D03*
X0054100Y0131000D03*
X0054100Y0141000D03*
D24*
X0044100Y0166000D03*
X0034100Y0186000D03*
X0079100Y0183500D03*
X0079100Y0173500D03*
X0079100Y0163500D03*
X0099100Y0186000D03*
X0099100Y0196000D03*
X0089100Y0196000D03*
X0079100Y0196000D03*
X0109100Y0186000D03*
X0119100Y0186000D03*
D25*
X0044100Y0186000D03*
X0034100Y0166000D03*
D26*
X0084100Y0141000D02*
X0094100Y0141000D01*
X0109100Y0126000D01*
X0136600Y0126000D01*
X0156600Y0106000D01*
X0156600Y0103500D01*
X0171525Y0103500D01*
X0171595Y0103570D01*
X0164100Y0118500D02*
X0179100Y0118500D01*
X0186600Y0111000D01*
X0186600Y0103500D01*
X0199100Y0103500D01*
X0199100Y0133500D02*
X0214035Y0133500D01*
X0214105Y0133430D01*
X0214105Y0148495D01*
X0214100Y0148500D01*
X0201600Y0148500D01*
X0186600Y0133500D02*
X0186530Y0133430D01*
X0171605Y0133430D01*
X0169170Y0133430D01*
X0161850Y0140750D01*
X0137600Y0140750D01*
X0130350Y0148000D01*
X0130350Y0168500D01*
X0125350Y0173500D01*
X0121600Y0173500D01*
X0119100Y0176000D01*
X0119100Y0186000D01*
X0131670Y0238505D02*
X0131600Y0238575D01*
X0131600Y0256000D01*
X0131600Y0261000D01*
X0134100Y0263500D01*
X0134100Y0316000D01*
X0129890Y0320210D01*
X0121600Y0320210D01*
X0171600Y0148500D02*
X0171605Y0148495D01*
X0171605Y0133430D01*
X0164100Y0118500D02*
X0156600Y0126000D01*
X0156600Y0133500D01*
X0156600Y0103500D02*
X0156600Y0101000D01*
X0129100Y0073500D01*
X0124100Y0073500D01*
X0101670Y0091070D02*
X0114100Y0103500D01*
X0124100Y0103500D01*
X0124100Y0113500D01*
X0114100Y0113500D01*
X0101670Y0091070D02*
X0099095Y0091070D01*
X0098927Y0090752D01*
X0099100Y0090580D01*
X0089520Y0081000D01*
X0074100Y0081000D01*
X0084100Y0071000D02*
X0094100Y0071000D01*
X0099100Y0076000D01*
X0099100Y0090580D01*
X0098927Y0090752D02*
X0031780Y0090752D01*
D27*
X0029165Y0093463D02*
X0027685Y0093463D01*
X0027685Y0093583D02*
X0026748Y0094520D01*
X0026020Y0094520D01*
X0026020Y0107720D01*
X0026233Y0107808D01*
X0027292Y0108867D01*
X0027865Y0110251D01*
X0027865Y0111749D01*
X0027292Y0113133D01*
X0026233Y0114192D01*
X0024849Y0114765D01*
X0023351Y0114765D01*
X0021967Y0114192D01*
X0020908Y0113133D01*
X0020335Y0111749D01*
X0020335Y0110251D01*
X0020908Y0108867D01*
X0021820Y0107955D01*
X0021820Y0094520D01*
X0021092Y0094520D01*
X0020155Y0093583D01*
X0020155Y0087927D01*
X0021092Y0086990D01*
X0026748Y0086990D01*
X0027685Y0087927D01*
X0027685Y0093583D01*
X0028588Y0092885D02*
X0028015Y0091501D01*
X0028015Y0090004D01*
X0028588Y0088620D01*
X0029647Y0087560D01*
X0031031Y0086987D01*
X0032529Y0086987D01*
X0033894Y0087552D01*
X0091547Y0087552D01*
X0088195Y0084200D01*
X0076782Y0084200D01*
X0076456Y0084526D01*
X0074927Y0085159D01*
X0073273Y0085159D01*
X0071744Y0084526D01*
X0070574Y0083356D01*
X0069941Y0081827D01*
X0069941Y0080173D01*
X0070574Y0078644D01*
X0071744Y0077474D01*
X0073273Y0076841D01*
X0074927Y0076841D01*
X0076456Y0077474D01*
X0076782Y0077800D01*
X0090157Y0077800D01*
X0091333Y0078287D01*
X0095900Y0082855D01*
X0095900Y0077325D01*
X0092775Y0074200D01*
X0086214Y0074200D01*
X0084849Y0074765D01*
X0083351Y0074765D01*
X0081967Y0074192D01*
X0080908Y0073133D01*
X0080335Y0071749D01*
X0080335Y0070251D01*
X0080908Y0068867D01*
X0081967Y0067808D01*
X0083351Y0067235D01*
X0084849Y0067235D01*
X0086214Y0067800D01*
X0094737Y0067800D01*
X0095913Y0068287D01*
X0100913Y0073287D01*
X0101813Y0074187D01*
X0102300Y0075363D01*
X0102300Y0087682D01*
X0102617Y0087999D01*
X0103483Y0088357D01*
X0114868Y0099743D01*
X0116214Y0100300D01*
X0121986Y0100300D01*
X0123351Y0099735D01*
X0124849Y0099735D01*
X0126233Y0100308D01*
X0127292Y0101367D01*
X0127865Y0102751D01*
X0127865Y0104249D01*
X0127300Y0105614D01*
X0127300Y0111386D01*
X0127865Y0112751D01*
X0127865Y0114249D01*
X0127292Y0115633D01*
X0126233Y0116692D01*
X0124849Y0117265D01*
X0123351Y0117265D01*
X0121986Y0116700D01*
X0116214Y0116700D01*
X0114849Y0117265D01*
X0113351Y0117265D01*
X0111967Y0116692D01*
X0110908Y0115633D01*
X0110335Y0114249D01*
X0110335Y0112751D01*
X0110908Y0111367D01*
X0111967Y0110308D01*
X0113351Y0109735D01*
X0114849Y0109735D01*
X0116214Y0110300D01*
X0120900Y0110300D01*
X0120900Y0106700D01*
X0116214Y0106700D01*
X0114849Y0107265D01*
X0113351Y0107265D01*
X0111967Y0106692D01*
X0110908Y0105633D01*
X0110343Y0104268D01*
X0100910Y0094835D01*
X0096267Y0094835D01*
X0095384Y0093952D01*
X0033894Y0093952D01*
X0032529Y0094518D01*
X0031031Y0094518D01*
X0029647Y0093945D01*
X0028588Y0092885D01*
X0028331Y0092264D02*
X0027685Y0092264D01*
X0027685Y0091066D02*
X0028015Y0091066D01*
X0028071Y0089867D02*
X0027685Y0089867D01*
X0027685Y0088669D02*
X0028568Y0088669D01*
X0029865Y0087470D02*
X0027229Y0087470D01*
X0033695Y0087470D02*
X0091465Y0087470D01*
X0090266Y0086272D02*
X0016798Y0086272D01*
X0016200Y0086870D02*
X0016200Y0262630D01*
X0029933Y0276364D01*
X0030290Y0275502D01*
X0031903Y0273889D01*
X0034011Y0273016D01*
X0036292Y0273016D01*
X0038399Y0273889D01*
X0040012Y0275502D01*
X0040885Y0277609D01*
X0040885Y0279891D01*
X0040012Y0281998D01*
X0038399Y0283611D01*
X0036292Y0284484D01*
X0034011Y0284484D01*
X0031903Y0283611D01*
X0030290Y0281998D01*
X0029711Y0280600D01*
X0028230Y0280600D01*
X0027000Y0279370D01*
X0012000Y0264370D01*
X0012000Y0085130D01*
X0013230Y0083900D01*
X0045730Y0051400D01*
X0082470Y0051400D01*
X0083700Y0052630D01*
X0084970Y0053900D01*
X0102329Y0053900D01*
X0102573Y0053310D01*
X0103910Y0051973D01*
X0105655Y0051250D01*
X0107545Y0051250D01*
X0109290Y0051973D01*
X0110627Y0053310D01*
X0111350Y0055055D01*
X0111350Y0056945D01*
X0110627Y0058690D01*
X0109290Y0060027D01*
X0107545Y0060750D01*
X0105655Y0060750D01*
X0103910Y0060027D01*
X0102573Y0058690D01*
X0102329Y0058100D01*
X0083230Y0058100D01*
X0080730Y0055600D01*
X0047470Y0055600D01*
X0016200Y0086870D01*
X0016200Y0087470D02*
X0020611Y0087470D01*
X0020155Y0088669D02*
X0016200Y0088669D01*
X0016200Y0089867D02*
X0020155Y0089867D01*
X0020155Y0091066D02*
X0016200Y0091066D01*
X0016200Y0092264D02*
X0020155Y0092264D01*
X0020155Y0093463D02*
X0016200Y0093463D01*
X0016200Y0094661D02*
X0021820Y0094661D01*
X0021820Y0095860D02*
X0016200Y0095860D01*
X0016200Y0097058D02*
X0021820Y0097058D01*
X0021820Y0098257D02*
X0016200Y0098257D01*
X0016200Y0099455D02*
X0021820Y0099455D01*
X0021820Y0100654D02*
X0016200Y0100654D01*
X0016200Y0101852D02*
X0021820Y0101852D01*
X0021820Y0103051D02*
X0016200Y0103051D01*
X0016200Y0104249D02*
X0021820Y0104249D01*
X0021820Y0105448D02*
X0016200Y0105448D01*
X0016200Y0106646D02*
X0021820Y0106646D01*
X0021820Y0107845D02*
X0016200Y0107845D01*
X0016200Y0109043D02*
X0020835Y0109043D01*
X0020338Y0110242D02*
X0016200Y0110242D01*
X0016200Y0111440D02*
X0020335Y0111440D01*
X0020703Y0112639D02*
X0016200Y0112639D01*
X0016200Y0113837D02*
X0021612Y0113837D01*
X0024697Y0117433D02*
X0016200Y0117433D01*
X0016200Y0116234D02*
X0025896Y0116234D01*
X0027094Y0115036D02*
X0016200Y0115036D01*
X0016200Y0118632D02*
X0023499Y0118632D01*
X0022300Y0119830D02*
X0016200Y0119830D01*
X0016200Y0121029D02*
X0022000Y0121029D01*
X0022000Y0120130D02*
X0030047Y0112083D01*
X0029941Y0111827D01*
X0029941Y0110173D01*
X0030574Y0108644D01*
X0031744Y0107474D01*
X0033273Y0106841D01*
X0034927Y0106841D01*
X0036456Y0107474D01*
X0037626Y0108644D01*
X0037732Y0108900D01*
X0040894Y0108900D01*
X0040908Y0108867D01*
X0041967Y0107808D01*
X0043351Y0107235D01*
X0044849Y0107235D01*
X0046233Y0107808D01*
X0047292Y0108867D01*
X0047865Y0110251D01*
X0047865Y0111749D01*
X0047852Y0111782D01*
X0048700Y0112630D01*
X0048700Y0125130D01*
X0051436Y0127866D01*
X0051778Y0127524D01*
X0053284Y0126900D01*
X0054916Y0126900D01*
X0056422Y0127524D01*
X0057576Y0128678D01*
X0058200Y0130184D01*
X0058200Y0131816D01*
X0057576Y0133322D01*
X0056422Y0134476D01*
X0054916Y0135100D01*
X0053284Y0135100D01*
X0051778Y0134476D01*
X0050624Y0133322D01*
X0050392Y0132762D01*
X0049500Y0131870D01*
X0044500Y0126870D01*
X0044500Y0114765D01*
X0043351Y0114765D01*
X0041967Y0114192D01*
X0040908Y0113133D01*
X0040894Y0113100D01*
X0037732Y0113100D01*
X0037626Y0113356D01*
X0036456Y0114526D01*
X0034927Y0115159D01*
X0033273Y0115159D01*
X0033017Y0115053D01*
X0026200Y0121870D01*
X0026200Y0137794D01*
X0026233Y0137808D01*
X0027292Y0138867D01*
X0027865Y0140251D01*
X0027865Y0141749D01*
X0027292Y0143133D01*
X0026233Y0144192D01*
X0024849Y0144765D01*
X0023351Y0144765D01*
X0021967Y0144192D01*
X0020908Y0143133D01*
X0020335Y0141749D01*
X0020335Y0140251D01*
X0020908Y0138867D01*
X0021967Y0137808D01*
X0022000Y0137794D01*
X0022000Y0120130D01*
X0022000Y0122227D02*
X0016200Y0122227D01*
X0016200Y0123426D02*
X0022000Y0123426D01*
X0022000Y0124624D02*
X0016200Y0124624D01*
X0016200Y0125823D02*
X0022000Y0125823D01*
X0022000Y0127021D02*
X0016200Y0127021D01*
X0016200Y0128220D02*
X0022000Y0128220D01*
X0022000Y0129418D02*
X0016200Y0129418D01*
X0016200Y0130617D02*
X0022000Y0130617D01*
X0022000Y0131815D02*
X0016200Y0131815D01*
X0016200Y0133014D02*
X0022000Y0133014D01*
X0022000Y0134212D02*
X0016200Y0134212D01*
X0016200Y0135411D02*
X0022000Y0135411D01*
X0022000Y0136609D02*
X0016200Y0136609D01*
X0016200Y0137808D02*
X0021968Y0137808D01*
X0020850Y0139006D02*
X0016200Y0139006D01*
X0016200Y0140205D02*
X0020354Y0140205D01*
X0020335Y0141403D02*
X0016200Y0141403D01*
X0016200Y0142602D02*
X0020688Y0142602D01*
X0021575Y0143800D02*
X0016200Y0143800D01*
X0016200Y0144999D02*
X0052000Y0144999D01*
X0052000Y0144568D02*
X0051778Y0144476D01*
X0050624Y0143322D01*
X0050532Y0143100D01*
X0047306Y0143100D01*
X0047292Y0143133D01*
X0046233Y0144192D01*
X0044849Y0144765D01*
X0043351Y0144765D01*
X0041967Y0144192D01*
X0040908Y0143133D01*
X0040335Y0141749D01*
X0040335Y0140251D01*
X0040348Y0140218D01*
X0035183Y0135053D01*
X0034927Y0135159D01*
X0033273Y0135159D01*
X0031744Y0134526D01*
X0030574Y0133356D01*
X0029941Y0131827D01*
X0029941Y0130173D01*
X0030574Y0128644D01*
X0031744Y0127474D01*
X0033273Y0126841D01*
X0034927Y0126841D01*
X0036456Y0127474D01*
X0037626Y0128644D01*
X0038259Y0130173D01*
X0038259Y0131827D01*
X0038153Y0132083D01*
X0043318Y0137248D01*
X0043351Y0137235D01*
X0044849Y0137235D01*
X0046233Y0137808D01*
X0047292Y0138867D01*
X0047306Y0138900D01*
X0050532Y0138900D01*
X0050624Y0138678D01*
X0051778Y0137524D01*
X0053284Y0136900D01*
X0054916Y0136900D01*
X0056422Y0137524D01*
X0057576Y0138678D01*
X0058200Y0140184D01*
X0058200Y0141816D01*
X0057576Y0143322D01*
X0056422Y0144476D01*
X0056200Y0144568D01*
X0056200Y0149868D01*
X0056456Y0149974D01*
X0057626Y0151144D01*
X0058259Y0152673D01*
X0058259Y0154327D01*
X0057626Y0155856D01*
X0056456Y0157026D01*
X0054927Y0157659D01*
X0053273Y0157659D01*
X0051744Y0157026D01*
X0050574Y0155856D01*
X0050468Y0155600D01*
X0045805Y0155600D01*
X0045805Y0156328D01*
X0044868Y0157265D01*
X0039212Y0157265D01*
X0038275Y0156328D01*
X0038275Y0150672D01*
X0039212Y0149735D01*
X0044868Y0149735D01*
X0045805Y0150672D01*
X0045805Y0151400D01*
X0050468Y0151400D01*
X0050574Y0151144D01*
X0051744Y0149974D01*
X0052000Y0149868D01*
X0052000Y0144568D01*
X0051102Y0143800D02*
X0046625Y0143800D01*
X0044926Y0149793D02*
X0052000Y0149793D01*
X0052000Y0148594D02*
X0016200Y0148594D01*
X0016200Y0147396D02*
X0052000Y0147396D01*
X0052000Y0146197D02*
X0016200Y0146197D01*
X0016200Y0149793D02*
X0033271Y0149793D01*
X0033411Y0149735D02*
X0034909Y0149735D01*
X0036293Y0150308D01*
X0037352Y0151367D01*
X0037925Y0152751D01*
X0037925Y0154249D01*
X0037352Y0155633D01*
X0036293Y0156692D01*
X0036260Y0156706D01*
X0036260Y0162038D01*
X0037125Y0162038D01*
X0038062Y0162975D01*
X0038062Y0163900D01*
X0040681Y0163900D01*
X0040741Y0163756D01*
X0041856Y0162641D01*
X0043312Y0162038D01*
X0044888Y0162038D01*
X0046344Y0162641D01*
X0047459Y0163756D01*
X0048062Y0165212D01*
X0048062Y0166788D01*
X0047459Y0168244D01*
X0046344Y0169359D01*
X0044888Y0169962D01*
X0043312Y0169962D01*
X0041856Y0169359D01*
X0040741Y0168244D01*
X0040681Y0168100D01*
X0038062Y0168100D01*
X0038062Y0169025D01*
X0037125Y0169962D01*
X0031075Y0169962D01*
X0030138Y0169025D01*
X0030138Y0162975D01*
X0031075Y0162038D01*
X0032060Y0162038D01*
X0032060Y0156706D01*
X0032027Y0156692D01*
X0030968Y0155633D01*
X0030395Y0154249D01*
X0030395Y0152751D01*
X0030968Y0151367D01*
X0032027Y0150308D01*
X0033411Y0149735D01*
X0035049Y0149793D02*
X0039154Y0149793D01*
X0038275Y0150991D02*
X0036976Y0150991D01*
X0037693Y0152190D02*
X0038275Y0152190D01*
X0038275Y0153388D02*
X0037925Y0153388D01*
X0037785Y0154587D02*
X0038275Y0154587D01*
X0038275Y0155785D02*
X0037200Y0155785D01*
X0036260Y0156984D02*
X0038930Y0156984D01*
X0036260Y0158182D02*
X0089500Y0158182D01*
X0089500Y0156984D02*
X0076498Y0156984D01*
X0076456Y0157026D02*
X0074927Y0157659D01*
X0073273Y0157659D01*
X0071744Y0157026D01*
X0070574Y0155856D01*
X0069941Y0154327D01*
X0069941Y0152673D01*
X0070574Y0151144D01*
X0071744Y0149974D01*
X0072000Y0149868D01*
X0072000Y0125130D01*
X0077000Y0120130D01*
X0078230Y0118900D01*
X0080532Y0118900D01*
X0080624Y0118678D01*
X0081778Y0117524D01*
X0083284Y0116900D01*
X0084916Y0116900D01*
X0086422Y0117524D01*
X0087576Y0118678D01*
X0088200Y0120184D01*
X0088200Y0121816D01*
X0087576Y0123322D01*
X0086422Y0124476D01*
X0084916Y0125100D01*
X0083284Y0125100D01*
X0081778Y0124476D01*
X0080624Y0123322D01*
X0080532Y0123100D01*
X0079970Y0123100D01*
X0076200Y0126870D01*
X0076200Y0149868D01*
X0076456Y0149974D01*
X0077626Y0151144D01*
X0078259Y0152673D01*
X0078259Y0154327D01*
X0077626Y0155856D01*
X0076456Y0157026D01*
X0077655Y0155785D02*
X0088560Y0155785D01*
X0088408Y0155633D02*
X0087835Y0154249D01*
X0087835Y0152751D01*
X0088408Y0151367D01*
X0089467Y0150308D01*
X0090851Y0149735D01*
X0092349Y0149735D01*
X0093733Y0150308D01*
X0094792Y0151367D01*
X0095365Y0152751D01*
X0095365Y0154249D01*
X0094792Y0155633D01*
X0093733Y0156692D01*
X0093700Y0156706D01*
X0093700Y0160294D01*
X0093733Y0160308D01*
X0094792Y0161367D01*
X0095365Y0162751D01*
X0095365Y0164249D01*
X0095352Y0164282D01*
X0109970Y0178900D01*
X0111200Y0180130D01*
X0111200Y0182581D01*
X0111344Y0182641D01*
X0112459Y0183756D01*
X0113062Y0185212D01*
X0113062Y0186788D01*
X0112459Y0188244D01*
X0111344Y0189359D01*
X0109888Y0189962D01*
X0108312Y0189962D01*
X0106856Y0189359D01*
X0105741Y0188244D01*
X0105138Y0186788D01*
X0105138Y0185212D01*
X0105741Y0183756D01*
X0106856Y0182641D01*
X0107000Y0182581D01*
X0107000Y0181870D01*
X0092382Y0167252D01*
X0092349Y0167265D01*
X0090851Y0167265D01*
X0089467Y0166692D01*
X0088408Y0165633D01*
X0087835Y0164249D01*
X0087835Y0162751D01*
X0088408Y0161367D01*
X0089467Y0160308D01*
X0089500Y0160294D01*
X0089500Y0156706D01*
X0089467Y0156692D01*
X0088408Y0155633D01*
X0087975Y0154587D02*
X0078152Y0154587D01*
X0078259Y0153388D02*
X0087835Y0153388D01*
X0088067Y0152190D02*
X0078059Y0152190D01*
X0077473Y0150991D02*
X0088784Y0150991D01*
X0090711Y0149793D02*
X0076200Y0149793D01*
X0076200Y0148594D02*
X0107106Y0148594D01*
X0105608Y0147396D02*
X0076200Y0147396D01*
X0076200Y0146197D02*
X0101472Y0146197D01*
X0101967Y0146692D02*
X0100908Y0145633D01*
X0100335Y0144249D01*
X0100335Y0142751D01*
X0100908Y0141367D01*
X0101967Y0140308D01*
X0103351Y0139735D01*
X0104849Y0139735D01*
X0106233Y0140308D01*
X0107292Y0141367D01*
X0107865Y0142751D01*
X0107865Y0143823D01*
X0117337Y0151400D01*
X0118394Y0151400D01*
X0118408Y0151367D01*
X0119467Y0150308D01*
X0120851Y0149735D01*
X0122349Y0149735D01*
X0123733Y0150308D01*
X0124792Y0151367D01*
X0125365Y0152751D01*
X0125365Y0154249D01*
X0124792Y0155633D01*
X0123733Y0156692D01*
X0122349Y0157265D01*
X0120851Y0157265D01*
X0119467Y0156692D01*
X0118408Y0155633D01*
X0118394Y0155600D01*
X0116716Y0155600D01*
X0115967Y0155683D01*
X0115863Y0155600D01*
X0115730Y0155600D01*
X0115197Y0155067D01*
X0105242Y0147103D01*
X0104849Y0147265D01*
X0103351Y0147265D01*
X0101967Y0146692D01*
X0100645Y0144999D02*
X0095314Y0144999D01*
X0094927Y0145159D02*
X0093273Y0145159D01*
X0091744Y0144526D01*
X0091418Y0144200D01*
X0086698Y0144200D01*
X0086422Y0144476D01*
X0084916Y0145100D01*
X0083284Y0145100D01*
X0081778Y0144476D01*
X0080624Y0143322D01*
X0080000Y0141816D01*
X0080000Y0140184D01*
X0080624Y0138678D01*
X0081778Y0137524D01*
X0083284Y0136900D01*
X0084916Y0136900D01*
X0086422Y0137524D01*
X0086698Y0137800D01*
X0091418Y0137800D01*
X0091744Y0137474D01*
X0093273Y0136841D01*
X0093734Y0136841D01*
X0106387Y0124187D01*
X0107287Y0123287D01*
X0108463Y0122800D01*
X0135275Y0122800D01*
X0153125Y0104950D01*
X0152835Y0104249D01*
X0152835Y0102751D01*
X0153125Y0102050D01*
X0127775Y0076700D01*
X0126214Y0076700D01*
X0124849Y0077265D01*
X0123351Y0077265D01*
X0121967Y0076692D01*
X0120908Y0075633D01*
X0120335Y0074249D01*
X0120335Y0072751D01*
X0120908Y0071367D01*
X0121967Y0070308D01*
X0123351Y0069735D01*
X0124849Y0069735D01*
X0126214Y0070300D01*
X0129737Y0070300D01*
X0130913Y0070787D01*
X0158413Y0098287D01*
X0159313Y0099187D01*
X0159774Y0100300D01*
X0168272Y0100300D01*
X0168767Y0099805D01*
X0174423Y0099805D01*
X0175360Y0100742D01*
X0175360Y0106398D01*
X0174423Y0107335D01*
X0168767Y0107335D01*
X0168132Y0106700D01*
X0159774Y0106700D01*
X0159313Y0107813D01*
X0139313Y0127813D01*
X0138413Y0128713D01*
X0137237Y0129200D01*
X0110425Y0129200D01*
X0098259Y0141366D01*
X0098259Y0141827D01*
X0097626Y0143356D01*
X0096456Y0144526D01*
X0094927Y0145159D01*
X0092886Y0144999D02*
X0085160Y0144999D01*
X0083040Y0144999D02*
X0076200Y0144999D01*
X0076200Y0143800D02*
X0081102Y0143800D01*
X0080326Y0142602D02*
X0076200Y0142602D01*
X0076200Y0141403D02*
X0080000Y0141403D01*
X0080000Y0140205D02*
X0076200Y0140205D01*
X0076200Y0139006D02*
X0080488Y0139006D01*
X0081494Y0137808D02*
X0076200Y0137808D01*
X0076200Y0136609D02*
X0093965Y0136609D01*
X0095164Y0135411D02*
X0076200Y0135411D01*
X0076200Y0134212D02*
X0081514Y0134212D01*
X0081778Y0134476D02*
X0080624Y0133322D01*
X0080000Y0131816D01*
X0080000Y0130184D01*
X0080624Y0128678D01*
X0081778Y0127524D01*
X0083284Y0126900D01*
X0084916Y0126900D01*
X0086422Y0127524D01*
X0087576Y0128678D01*
X0088200Y0130184D01*
X0088200Y0131816D01*
X0087576Y0133322D01*
X0086422Y0134476D01*
X0084916Y0135100D01*
X0083284Y0135100D01*
X0081778Y0134476D01*
X0080496Y0133014D02*
X0076200Y0133014D01*
X0076200Y0131815D02*
X0080000Y0131815D01*
X0080000Y0130617D02*
X0076200Y0130617D01*
X0076200Y0129418D02*
X0080317Y0129418D01*
X0081082Y0128220D02*
X0076200Y0128220D01*
X0076200Y0127021D02*
X0082992Y0127021D01*
X0085208Y0127021D02*
X0103553Y0127021D01*
X0102355Y0128220D02*
X0087118Y0128220D01*
X0087883Y0129418D02*
X0101156Y0129418D01*
X0099958Y0130617D02*
X0088200Y0130617D01*
X0088200Y0131815D02*
X0098759Y0131815D01*
X0097561Y0133014D02*
X0087704Y0133014D01*
X0086686Y0134212D02*
X0096362Y0134212D01*
X0100619Y0139006D02*
X0134818Y0139006D01*
X0135787Y0138037D02*
X0136963Y0137550D01*
X0160525Y0137550D01*
X0167357Y0130717D01*
X0167984Y0130458D01*
X0168777Y0129665D01*
X0174433Y0129665D01*
X0174998Y0130230D01*
X0184655Y0130230D01*
X0185851Y0129735D01*
X0187349Y0129735D01*
X0188733Y0130308D01*
X0189792Y0131367D01*
X0190365Y0132751D01*
X0190365Y0134249D01*
X0189792Y0135633D01*
X0188733Y0136692D01*
X0187349Y0137265D01*
X0185851Y0137265D01*
X0184467Y0136692D01*
X0184405Y0136630D01*
X0174998Y0136630D01*
X0174805Y0136823D01*
X0174805Y0145907D01*
X0175076Y0146178D01*
X0175700Y0147684D01*
X0175700Y0149316D01*
X0175076Y0150822D01*
X0173922Y0151976D01*
X0172416Y0152600D01*
X0170784Y0152600D01*
X0169278Y0151976D01*
X0168124Y0150822D01*
X0167500Y0149316D01*
X0167500Y0147684D01*
X0168124Y0146178D01*
X0168405Y0145897D01*
X0168405Y0138720D01*
X0164563Y0142563D01*
X0163663Y0143463D01*
X0162487Y0143950D01*
X0138925Y0143950D01*
X0133550Y0149325D01*
X0133550Y0169137D01*
X0133063Y0170313D01*
X0128063Y0175313D01*
X0127163Y0176213D01*
X0125987Y0176700D01*
X0123714Y0176700D01*
X0122368Y0177257D01*
X0122300Y0177325D01*
X0122300Y0183597D01*
X0122459Y0183756D01*
X0123062Y0185212D01*
X0123062Y0186788D01*
X0122459Y0188244D01*
X0121344Y0189359D01*
X0119888Y0189962D01*
X0118312Y0189962D01*
X0116856Y0189359D01*
X0115741Y0188244D01*
X0115138Y0186788D01*
X0115138Y0185212D01*
X0115741Y0183756D01*
X0115900Y0183597D01*
X0115900Y0175363D01*
X0116387Y0174187D01*
X0117843Y0172732D01*
X0118408Y0171367D01*
X0119467Y0170308D01*
X0120851Y0169735D01*
X0122349Y0169735D01*
X0123714Y0170300D01*
X0124025Y0170300D01*
X0127150Y0167175D01*
X0127150Y0147363D01*
X0127637Y0146187D01*
X0128537Y0145287D01*
X0135787Y0138037D01*
X0136341Y0137808D02*
X0101818Y0137808D01*
X0103016Y0136609D02*
X0154384Y0136609D01*
X0154467Y0136692D02*
X0153408Y0135633D01*
X0152835Y0134249D01*
X0152835Y0132751D01*
X0153400Y0131386D01*
X0153400Y0125363D01*
X0153887Y0124187D01*
X0161387Y0116687D01*
X0162287Y0115787D01*
X0163463Y0115300D01*
X0177775Y0115300D01*
X0183400Y0109675D01*
X0183400Y0105614D01*
X0182835Y0104249D01*
X0182835Y0102751D01*
X0183408Y0101367D01*
X0184467Y0100308D01*
X0185851Y0099735D01*
X0187349Y0099735D01*
X0188714Y0100300D01*
X0196986Y0100300D01*
X0198351Y0099735D01*
X0199849Y0099735D01*
X0201233Y0100308D01*
X0202292Y0101367D01*
X0202865Y0102751D01*
X0202865Y0104249D01*
X0202292Y0105633D01*
X0201233Y0106692D01*
X0199849Y0107265D01*
X0198351Y0107265D01*
X0196986Y0106700D01*
X0189800Y0106700D01*
X0189800Y0111637D01*
X0189313Y0112813D01*
X0188413Y0113713D01*
X0181813Y0120313D01*
X0180913Y0121213D01*
X0179737Y0121700D01*
X0165425Y0121700D01*
X0159800Y0127325D01*
X0159800Y0131386D01*
X0160365Y0132751D01*
X0160365Y0134249D01*
X0159792Y0135633D01*
X0158733Y0136692D01*
X0157349Y0137265D01*
X0155851Y0137265D01*
X0154467Y0136692D01*
X0153316Y0135411D02*
X0104215Y0135411D01*
X0105413Y0134212D02*
X0152835Y0134212D01*
X0152835Y0133014D02*
X0106612Y0133014D01*
X0107810Y0131815D02*
X0153222Y0131815D01*
X0153400Y0130617D02*
X0109009Y0130617D01*
X0110207Y0129418D02*
X0153400Y0129418D01*
X0153400Y0128220D02*
X0138906Y0128220D01*
X0140104Y0127021D02*
X0153400Y0127021D01*
X0153400Y0125823D02*
X0141303Y0125823D01*
X0142501Y0124624D02*
X0153706Y0124624D01*
X0154649Y0123426D02*
X0143700Y0123426D01*
X0144898Y0122227D02*
X0155847Y0122227D01*
X0157046Y0121029D02*
X0146097Y0121029D01*
X0147295Y0119830D02*
X0158244Y0119830D01*
X0159443Y0118632D02*
X0148494Y0118632D01*
X0149692Y0117433D02*
X0160641Y0117433D01*
X0161840Y0116234D02*
X0150891Y0116234D01*
X0152089Y0115036D02*
X0170464Y0115036D01*
X0170499Y0115051D02*
X0169814Y0114767D01*
X0169197Y0114355D01*
X0168673Y0113830D01*
X0168261Y0113214D01*
X0167977Y0112528D01*
X0167832Y0111801D01*
X0167832Y0111430D01*
X0171597Y0111430D01*
X0167832Y0111430D01*
X0167832Y0111059D01*
X0167977Y0110332D01*
X0168261Y0109646D01*
X0168673Y0109030D01*
X0169197Y0108505D01*
X0169814Y0108093D01*
X0170499Y0107809D01*
X0171227Y0107665D01*
X0171597Y0107665D01*
X0171597Y0111430D01*
X0171597Y0111430D01*
X0171597Y0115195D01*
X0171227Y0115195D01*
X0170499Y0115051D01*
X0171597Y0115036D02*
X0171598Y0115036D01*
X0171598Y0115195D02*
X0171598Y0111430D01*
X0175363Y0111430D01*
X0175363Y0111801D01*
X0175218Y0112528D01*
X0174934Y0113214D01*
X0174522Y0113830D01*
X0173998Y0114355D01*
X0173381Y0114767D01*
X0172696Y0115051D01*
X0171968Y0115195D01*
X0171598Y0115195D01*
X0172731Y0115036D02*
X0178039Y0115036D01*
X0179237Y0113837D02*
X0174515Y0113837D01*
X0175172Y0112639D02*
X0180436Y0112639D01*
X0181634Y0111440D02*
X0175363Y0111440D01*
X0175363Y0111430D02*
X0171598Y0111430D01*
X0171598Y0111430D01*
X0171597Y0111430D01*
X0171598Y0111430D01*
X0171598Y0107665D01*
X0171968Y0107665D01*
X0172696Y0107809D01*
X0173381Y0108093D01*
X0173998Y0108505D01*
X0174522Y0109030D01*
X0174934Y0109646D01*
X0175218Y0110332D01*
X0175363Y0111059D01*
X0175363Y0111430D01*
X0175181Y0110242D02*
X0182833Y0110242D01*
X0183400Y0109043D02*
X0174531Y0109043D01*
X0172782Y0107845D02*
X0183400Y0107845D01*
X0183400Y0106646D02*
X0175112Y0106646D01*
X0175360Y0105448D02*
X0183331Y0105448D01*
X0182835Y0104249D02*
X0175360Y0104249D01*
X0175360Y0103051D02*
X0182835Y0103051D01*
X0183207Y0101852D02*
X0175360Y0101852D01*
X0175272Y0100654D02*
X0184121Y0100654D01*
X0189800Y0107845D02*
X0227000Y0107845D01*
X0227000Y0109043D02*
X0189800Y0109043D01*
X0189800Y0110242D02*
X0227000Y0110242D01*
X0227000Y0111440D02*
X0189800Y0111440D01*
X0189385Y0112639D02*
X0227000Y0112639D01*
X0227000Y0113837D02*
X0188288Y0113837D01*
X0187089Y0115036D02*
X0227000Y0115036D01*
X0227000Y0116234D02*
X0185891Y0116234D01*
X0184692Y0117433D02*
X0227000Y0117433D01*
X0227000Y0118632D02*
X0183494Y0118632D01*
X0182295Y0119830D02*
X0227000Y0119830D01*
X0227000Y0121029D02*
X0181097Y0121029D01*
X0174939Y0123786D02*
X0175223Y0124472D01*
X0175368Y0125199D01*
X0175368Y0125570D01*
X0175368Y0125941D01*
X0175223Y0126668D01*
X0174939Y0127354D01*
X0174527Y0127970D01*
X0174003Y0128495D01*
X0173386Y0128907D01*
X0172701Y0129191D01*
X0171973Y0129335D01*
X0171603Y0129335D01*
X0171603Y0125570D01*
X0175368Y0125570D01*
X0171603Y0125570D01*
X0171603Y0125570D01*
X0171602Y0125570D01*
X0167837Y0125570D01*
X0171602Y0125570D01*
X0171602Y0125570D01*
X0171602Y0129335D01*
X0171232Y0129335D01*
X0170504Y0129191D01*
X0169819Y0128907D01*
X0169202Y0128495D01*
X0168678Y0127970D01*
X0168266Y0127354D01*
X0167982Y0126668D01*
X0167837Y0125941D01*
X0167837Y0125570D01*
X0167837Y0125199D01*
X0167982Y0124472D01*
X0168266Y0123786D01*
X0168678Y0123170D01*
X0169202Y0122645D01*
X0169819Y0122233D01*
X0170504Y0121949D01*
X0171232Y0121805D01*
X0171602Y0121805D01*
X0171602Y0125570D01*
X0171603Y0125570D01*
X0171603Y0121805D01*
X0171973Y0121805D01*
X0172701Y0121949D01*
X0173386Y0122233D01*
X0174003Y0122645D01*
X0174527Y0123170D01*
X0174939Y0123786D01*
X0174698Y0123426D02*
X0211007Y0123426D01*
X0211178Y0123170D02*
X0211702Y0122645D01*
X0212319Y0122233D01*
X0213004Y0121949D01*
X0213732Y0121805D01*
X0214102Y0121805D01*
X0214102Y0125570D01*
X0210337Y0125570D01*
X0214102Y0125570D01*
X0214102Y0125570D01*
X0214102Y0129335D01*
X0213732Y0129335D01*
X0213004Y0129191D01*
X0212319Y0128907D01*
X0211702Y0128495D01*
X0211178Y0127970D01*
X0210766Y0127354D01*
X0210482Y0126668D01*
X0210337Y0125941D01*
X0210337Y0125570D01*
X0210337Y0125199D01*
X0210482Y0124472D01*
X0210766Y0123786D01*
X0211178Y0123170D01*
X0212334Y0122227D02*
X0173371Y0122227D01*
X0171603Y0122227D02*
X0171602Y0122227D01*
X0171602Y0123426D02*
X0171603Y0123426D01*
X0171602Y0124624D02*
X0171603Y0124624D01*
X0171602Y0125823D02*
X0171603Y0125823D01*
X0171602Y0127021D02*
X0171603Y0127021D01*
X0171602Y0128220D02*
X0171603Y0128220D01*
X0174278Y0128220D02*
X0211427Y0128220D01*
X0210628Y0127021D02*
X0175077Y0127021D01*
X0175368Y0125823D02*
X0210337Y0125823D01*
X0210452Y0124624D02*
X0175253Y0124624D01*
X0169834Y0122227D02*
X0164898Y0122227D01*
X0163700Y0123426D02*
X0168507Y0123426D01*
X0167952Y0124624D02*
X0162501Y0124624D01*
X0161303Y0125823D02*
X0167837Y0125823D01*
X0168128Y0127021D02*
X0160104Y0127021D01*
X0159800Y0128220D02*
X0168927Y0128220D01*
X0167600Y0130617D02*
X0159800Y0130617D01*
X0159800Y0129418D02*
X0227000Y0129418D01*
X0227000Y0128220D02*
X0216778Y0128220D01*
X0217027Y0127970D02*
X0216503Y0128495D01*
X0215886Y0128907D01*
X0215201Y0129191D01*
X0214473Y0129335D01*
X0214103Y0129335D01*
X0214103Y0125570D01*
X0217868Y0125570D01*
X0217868Y0125941D01*
X0217723Y0126668D01*
X0217439Y0127354D01*
X0217027Y0127970D01*
X0217577Y0127021D02*
X0227000Y0127021D01*
X0227000Y0125823D02*
X0217868Y0125823D01*
X0217868Y0125570D02*
X0214103Y0125570D01*
X0214103Y0125570D01*
X0214102Y0125570D01*
X0214103Y0125570D01*
X0214103Y0121805D01*
X0214473Y0121805D01*
X0215201Y0121949D01*
X0215886Y0122233D01*
X0216503Y0122645D01*
X0217027Y0123170D01*
X0217439Y0123786D01*
X0217723Y0124472D01*
X0217868Y0125199D01*
X0217868Y0125570D01*
X0217753Y0124624D02*
X0227000Y0124624D01*
X0227000Y0123426D02*
X0217198Y0123426D01*
X0215871Y0122227D02*
X0227000Y0122227D01*
X0231200Y0122227D02*
X0235033Y0122227D01*
X0235033Y0121029D02*
X0231200Y0121029D01*
X0231200Y0119830D02*
X0235033Y0119830D01*
X0235033Y0118632D02*
X0231200Y0118632D01*
X0231200Y0117433D02*
X0235033Y0117433D01*
X0235033Y0116234D02*
X0231200Y0116234D01*
X0231200Y0115036D02*
X0235033Y0115036D01*
X0235033Y0113837D02*
X0231200Y0113837D01*
X0231200Y0112639D02*
X0235033Y0112639D01*
X0235033Y0111440D02*
X0231200Y0111440D01*
X0231200Y0110242D02*
X0235033Y0110242D01*
X0235033Y0109043D02*
X0231200Y0109043D01*
X0231200Y0107845D02*
X0235033Y0107845D01*
X0235033Y0106646D02*
X0231200Y0106646D01*
X0231200Y0105448D02*
X0235033Y0105448D01*
X0235033Y0104249D02*
X0231200Y0104249D01*
X0231200Y0103051D02*
X0235033Y0103051D01*
X0235033Y0101852D02*
X0231200Y0101852D01*
X0231200Y0100654D02*
X0235033Y0100654D01*
X0235033Y0099455D02*
X0231200Y0099455D01*
X0231200Y0098257D02*
X0235033Y0098257D01*
X0235033Y0097058D02*
X0231200Y0097058D01*
X0231200Y0095860D02*
X0235033Y0095860D01*
X0235033Y0094661D02*
X0231200Y0094661D01*
X0231200Y0093463D02*
X0235033Y0093463D01*
X0235033Y0092264D02*
X0231200Y0092264D01*
X0231200Y0091066D02*
X0235033Y0091066D01*
X0235033Y0089867D02*
X0231200Y0089867D01*
X0231200Y0088669D02*
X0235033Y0088669D01*
X0235033Y0087470D02*
X0231200Y0087470D01*
X0231200Y0086272D02*
X0235033Y0086272D01*
X0235033Y0085073D02*
X0231143Y0085073D01*
X0231200Y0085130D02*
X0231200Y0239370D01*
X0191200Y0279370D01*
X0189970Y0280600D01*
X0149591Y0280600D01*
X0149012Y0281998D01*
X0147399Y0283611D01*
X0145292Y0284484D01*
X0143011Y0284484D01*
X0140903Y0283611D01*
X0139290Y0281998D01*
X0138417Y0279891D01*
X0138417Y0277609D01*
X0139290Y0275502D01*
X0140903Y0273889D01*
X0143011Y0273016D01*
X0145292Y0273016D01*
X0147399Y0273889D01*
X0149012Y0275502D01*
X0149384Y0276400D01*
X0188230Y0276400D01*
X0227000Y0237630D01*
X0227000Y0086870D01*
X0198230Y0058100D01*
X0140871Y0058100D01*
X0140627Y0058690D01*
X0139290Y0060027D01*
X0137545Y0060750D01*
X0135655Y0060750D01*
X0133910Y0060027D01*
X0132573Y0058690D01*
X0131850Y0056945D01*
X0131850Y0055055D01*
X0132573Y0053310D01*
X0133910Y0051973D01*
X0135655Y0051250D01*
X0137545Y0051250D01*
X0139290Y0051973D01*
X0140627Y0053310D01*
X0140871Y0053900D01*
X0199970Y0053900D01*
X0229970Y0083900D01*
X0231200Y0085130D01*
X0229945Y0083875D02*
X0235033Y0083875D01*
X0235033Y0082676D02*
X0228746Y0082676D01*
X0227548Y0081478D02*
X0235033Y0081478D01*
X0235033Y0080279D02*
X0226349Y0080279D01*
X0225150Y0079081D02*
X0235033Y0079081D01*
X0235033Y0077882D02*
X0223952Y0077882D01*
X0222753Y0076684D02*
X0235033Y0076684D01*
X0235033Y0075485D02*
X0221555Y0075485D01*
X0220356Y0074287D02*
X0235033Y0074287D01*
X0235033Y0073088D02*
X0219158Y0073088D01*
X0217959Y0071890D02*
X0235033Y0071890D01*
X0235033Y0070691D02*
X0216761Y0070691D01*
X0215562Y0069493D02*
X0235033Y0069493D01*
X0235033Y0068294D02*
X0214364Y0068294D01*
X0213165Y0067096D02*
X0235033Y0067096D01*
X0235033Y0065897D02*
X0211967Y0065897D01*
X0210768Y0064699D02*
X0235033Y0064699D01*
X0235033Y0063500D02*
X0209570Y0063500D01*
X0208371Y0062301D02*
X0235033Y0062301D01*
X0235033Y0061103D02*
X0207173Y0061103D01*
X0205974Y0059904D02*
X0235033Y0059904D01*
X0235033Y0058706D02*
X0204776Y0058706D01*
X0203577Y0057507D02*
X0235033Y0057507D01*
X0235033Y0056309D02*
X0202379Y0056309D01*
X0201180Y0055110D02*
X0235033Y0055110D01*
X0235033Y0053912D02*
X0199982Y0053912D01*
X0198836Y0058706D02*
X0140611Y0058706D01*
X0139412Y0059904D02*
X0200035Y0059904D01*
X0201233Y0061103D02*
X0078259Y0061103D01*
X0078259Y0061827D02*
X0077626Y0063356D01*
X0076456Y0064526D01*
X0074927Y0065159D01*
X0073273Y0065159D01*
X0071744Y0064526D01*
X0070574Y0063356D01*
X0070468Y0063100D01*
X0069970Y0063100D01*
X0066200Y0066870D01*
X0066200Y0067794D01*
X0066233Y0067808D01*
X0067292Y0068867D01*
X0067865Y0070251D01*
X0067865Y0071749D01*
X0067292Y0073133D01*
X0066233Y0074192D01*
X0064849Y0074765D01*
X0063351Y0074765D01*
X0061967Y0074192D01*
X0060908Y0073133D01*
X0060335Y0071749D01*
X0060335Y0070251D01*
X0060908Y0068867D01*
X0061967Y0067808D01*
X0062000Y0067794D01*
X0062000Y0065130D01*
X0063230Y0063900D01*
X0068230Y0058900D01*
X0070468Y0058900D01*
X0070574Y0058644D01*
X0071744Y0057474D01*
X0073273Y0056841D01*
X0074927Y0056841D01*
X0076456Y0057474D01*
X0077626Y0058644D01*
X0078259Y0060173D01*
X0078259Y0061827D01*
X0078063Y0062301D02*
X0202432Y0062301D01*
X0203630Y0063500D02*
X0077482Y0063500D01*
X0076039Y0064699D02*
X0204829Y0064699D01*
X0206027Y0065897D02*
X0067173Y0065897D01*
X0066200Y0067096D02*
X0207226Y0067096D01*
X0208424Y0068294D02*
X0095920Y0068294D01*
X0097118Y0069493D02*
X0209623Y0069493D01*
X0210821Y0070691D02*
X0130681Y0070691D01*
X0132015Y0071890D02*
X0212020Y0071890D01*
X0213218Y0073088D02*
X0133214Y0073088D01*
X0134412Y0074287D02*
X0214417Y0074287D01*
X0215615Y0075485D02*
X0135611Y0075485D01*
X0136809Y0076684D02*
X0216814Y0076684D01*
X0218012Y0077882D02*
X0138008Y0077882D01*
X0139206Y0079081D02*
X0219211Y0079081D01*
X0220409Y0080279D02*
X0140405Y0080279D01*
X0141603Y0081478D02*
X0221608Y0081478D01*
X0222806Y0082676D02*
X0142802Y0082676D01*
X0144000Y0083875D02*
X0224005Y0083875D01*
X0225203Y0085073D02*
X0145199Y0085073D01*
X0146397Y0086272D02*
X0226402Y0086272D01*
X0227000Y0087470D02*
X0147596Y0087470D01*
X0148794Y0088669D02*
X0227000Y0088669D01*
X0227000Y0089867D02*
X0149993Y0089867D01*
X0151191Y0091066D02*
X0227000Y0091066D01*
X0227000Y0092264D02*
X0152390Y0092264D01*
X0153588Y0093463D02*
X0227000Y0093463D01*
X0227000Y0094661D02*
X0154787Y0094661D01*
X0155985Y0095860D02*
X0227000Y0095860D01*
X0227000Y0097058D02*
X0157184Y0097058D01*
X0158382Y0098257D02*
X0227000Y0098257D01*
X0227000Y0099455D02*
X0159424Y0099455D01*
X0158413Y0098287D02*
X0158413Y0098287D01*
X0152927Y0101852D02*
X0127493Y0101852D01*
X0127865Y0103051D02*
X0152835Y0103051D01*
X0152835Y0104249D02*
X0127865Y0104249D01*
X0127369Y0105448D02*
X0152627Y0105448D01*
X0151428Y0106646D02*
X0127300Y0106646D01*
X0127300Y0107845D02*
X0150230Y0107845D01*
X0149031Y0109043D02*
X0127300Y0109043D01*
X0127300Y0110242D02*
X0147833Y0110242D01*
X0146634Y0111440D02*
X0127322Y0111440D01*
X0127819Y0112639D02*
X0145436Y0112639D01*
X0144237Y0113837D02*
X0127865Y0113837D01*
X0127539Y0115036D02*
X0143039Y0115036D01*
X0141840Y0116234D02*
X0126691Y0116234D01*
X0120900Y0110242D02*
X0116074Y0110242D01*
X0112126Y0110242D02*
X0106074Y0110242D01*
X0106233Y0110308D02*
X0107292Y0111367D01*
X0107865Y0112751D01*
X0107865Y0114249D01*
X0107292Y0115633D01*
X0106233Y0116692D01*
X0104849Y0117265D01*
X0103351Y0117265D01*
X0101967Y0116692D01*
X0100908Y0115633D01*
X0100335Y0114249D01*
X0100335Y0113100D01*
X0087668Y0113100D01*
X0087576Y0113322D01*
X0086422Y0114476D01*
X0084916Y0115100D01*
X0083284Y0115100D01*
X0081778Y0114476D01*
X0080624Y0113322D01*
X0080000Y0111816D01*
X0080000Y0110184D01*
X0080624Y0108678D01*
X0081778Y0107524D01*
X0083284Y0106900D01*
X0084916Y0106900D01*
X0086422Y0107524D01*
X0087576Y0108678D01*
X0087668Y0108900D01*
X0102470Y0108900D01*
X0103318Y0109748D01*
X0103351Y0109735D01*
X0104849Y0109735D01*
X0106233Y0110308D01*
X0107322Y0111440D02*
X0110877Y0111440D01*
X0110381Y0112639D02*
X0107819Y0112639D01*
X0107865Y0113837D02*
X0110335Y0113837D01*
X0110661Y0115036D02*
X0107539Y0115036D01*
X0106691Y0116234D02*
X0111509Y0116234D01*
X0107149Y0123426D02*
X0097479Y0123426D01*
X0097657Y0123180D02*
X0097272Y0123709D01*
X0096809Y0124172D01*
X0096280Y0124557D01*
X0095697Y0124854D01*
X0095074Y0125057D01*
X0094427Y0125159D01*
X0094100Y0125159D01*
X0094100Y0121000D01*
X0094100Y0121000D01*
X0098259Y0121000D01*
X0098259Y0121327D01*
X0098157Y0121974D01*
X0097954Y0122597D01*
X0097657Y0123180D01*
X0098074Y0122227D02*
X0135847Y0122227D01*
X0137046Y0121029D02*
X0098259Y0121029D01*
X0098259Y0121000D02*
X0094100Y0121000D01*
X0094100Y0121000D01*
X0094100Y0121000D01*
X0089941Y0121000D01*
X0089941Y0121327D01*
X0090043Y0121974D01*
X0090246Y0122597D01*
X0090543Y0123180D01*
X0090928Y0123709D01*
X0091391Y0124172D01*
X0091920Y0124557D01*
X0092503Y0124854D01*
X0093126Y0125057D01*
X0093773Y0125159D01*
X0094100Y0125159D01*
X0094100Y0121000D01*
X0094100Y0116841D01*
X0094427Y0116841D01*
X0095074Y0116943D01*
X0095697Y0117146D01*
X0096280Y0117443D01*
X0096809Y0117828D01*
X0097272Y0118291D01*
X0097657Y0118820D01*
X0097954Y0119403D01*
X0098157Y0120026D01*
X0098259Y0120673D01*
X0098259Y0121000D01*
X0098093Y0119830D02*
X0138244Y0119830D01*
X0139443Y0118632D02*
X0097520Y0118632D01*
X0096260Y0117433D02*
X0140641Y0117433D01*
X0153288Y0113837D02*
X0168680Y0113837D01*
X0168023Y0112639D02*
X0154487Y0112639D01*
X0155685Y0111440D02*
X0167832Y0111440D01*
X0168014Y0110242D02*
X0156884Y0110242D01*
X0158082Y0109043D02*
X0168664Y0109043D01*
X0170413Y0107845D02*
X0159281Y0107845D01*
X0151728Y0100654D02*
X0126579Y0100654D01*
X0120900Y0107845D02*
X0086743Y0107845D01*
X0084849Y0104765D02*
X0083351Y0104765D01*
X0081967Y0104192D01*
X0080908Y0103133D01*
X0080894Y0103100D01*
X0077732Y0103100D01*
X0077626Y0103356D01*
X0076456Y0104526D01*
X0074927Y0105159D01*
X0073273Y0105159D01*
X0071744Y0104526D01*
X0070574Y0103356D01*
X0070468Y0103100D01*
X0067306Y0103100D01*
X0067292Y0103133D01*
X0066233Y0104192D01*
X0064849Y0104765D01*
X0063700Y0104765D01*
X0063700Y0119370D01*
X0062470Y0120600D01*
X0059970Y0123100D01*
X0057668Y0123100D01*
X0057576Y0123322D01*
X0056422Y0124476D01*
X0054916Y0125100D01*
X0053284Y0125100D01*
X0051778Y0124476D01*
X0050624Y0123322D01*
X0050000Y0121816D01*
X0050000Y0120184D01*
X0050624Y0118678D01*
X0051778Y0117524D01*
X0053284Y0116900D01*
X0054916Y0116900D01*
X0056422Y0117524D01*
X0057576Y0118678D01*
X0057668Y0118900D01*
X0058230Y0118900D01*
X0059500Y0117630D01*
X0059500Y0102630D01*
X0060348Y0101782D01*
X0060335Y0101749D01*
X0060335Y0100251D01*
X0060908Y0098867D01*
X0061967Y0097808D01*
X0063351Y0097235D01*
X0064849Y0097235D01*
X0066233Y0097808D01*
X0067292Y0098867D01*
X0067306Y0098900D01*
X0070468Y0098900D01*
X0070574Y0098644D01*
X0071744Y0097474D01*
X0073273Y0096841D01*
X0074927Y0096841D01*
X0076456Y0097474D01*
X0077626Y0098644D01*
X0077732Y0098900D01*
X0080894Y0098900D01*
X0080908Y0098867D01*
X0081967Y0097808D01*
X0083351Y0097235D01*
X0084849Y0097235D01*
X0086233Y0097808D01*
X0087292Y0098867D01*
X0087865Y0100251D01*
X0087865Y0101749D01*
X0087292Y0103133D01*
X0086233Y0104192D01*
X0084849Y0104765D01*
X0086095Y0104249D02*
X0110324Y0104249D01*
X0110831Y0105448D02*
X0063700Y0105448D01*
X0063700Y0106646D02*
X0111921Y0106646D01*
X0109125Y0103051D02*
X0087326Y0103051D01*
X0087823Y0101852D02*
X0096695Y0101852D01*
X0096697Y0101855D02*
X0096173Y0101330D01*
X0095761Y0100714D01*
X0095477Y0100028D01*
X0095332Y0099301D01*
X0095332Y0098930D01*
X0099097Y0098930D01*
X0095332Y0098930D01*
X0095332Y0098559D01*
X0095477Y0097832D01*
X0095761Y0097146D01*
X0096173Y0096530D01*
X0096697Y0096005D01*
X0097314Y0095593D01*
X0097999Y0095309D01*
X0098727Y0095165D01*
X0099097Y0095165D01*
X0099097Y0098930D01*
X0099097Y0098930D01*
X0099097Y0102695D01*
X0098727Y0102695D01*
X0097999Y0102551D01*
X0097314Y0102267D01*
X0096697Y0101855D01*
X0095736Y0100654D02*
X0087865Y0100654D01*
X0087536Y0099455D02*
X0095363Y0099455D01*
X0095392Y0098257D02*
X0086682Y0098257D01*
X0082105Y0104249D02*
X0076732Y0104249D01*
X0071468Y0104249D02*
X0066095Y0104249D01*
X0063700Y0107845D02*
X0081457Y0107845D01*
X0080473Y0109043D02*
X0063700Y0109043D01*
X0063700Y0110242D02*
X0080000Y0110242D01*
X0080000Y0111440D02*
X0063700Y0111440D01*
X0063700Y0112639D02*
X0080341Y0112639D01*
X0081139Y0113837D02*
X0063700Y0113837D01*
X0063700Y0115036D02*
X0083130Y0115036D01*
X0085070Y0115036D02*
X0100661Y0115036D01*
X0100335Y0113837D02*
X0087061Y0113837D01*
X0086202Y0117433D02*
X0091939Y0117433D01*
X0091920Y0117443D02*
X0092503Y0117146D01*
X0093126Y0116943D01*
X0093773Y0116841D01*
X0094100Y0116841D01*
X0094100Y0121000D01*
X0094100Y0121000D01*
X0089941Y0121000D01*
X0089941Y0120673D01*
X0090043Y0120026D01*
X0090246Y0119403D01*
X0090543Y0118820D01*
X0090928Y0118291D01*
X0091391Y0117828D01*
X0091920Y0117443D01*
X0090680Y0118632D02*
X0087530Y0118632D01*
X0088053Y0119830D02*
X0090107Y0119830D01*
X0089941Y0121029D02*
X0088200Y0121029D01*
X0088030Y0122227D02*
X0090126Y0122227D01*
X0090721Y0123426D02*
X0087473Y0123426D01*
X0086064Y0124624D02*
X0092052Y0124624D01*
X0094100Y0124624D02*
X0094100Y0124624D01*
X0094100Y0123426D02*
X0094100Y0123426D01*
X0094100Y0122227D02*
X0094100Y0122227D01*
X0094100Y0121029D02*
X0094100Y0121029D01*
X0094100Y0119830D02*
X0094100Y0119830D01*
X0094100Y0118632D02*
X0094100Y0118632D01*
X0094100Y0117433D02*
X0094100Y0117433D01*
X0096148Y0124624D02*
X0105950Y0124624D01*
X0106387Y0124187D02*
X0106387Y0124187D01*
X0104752Y0125823D02*
X0077247Y0125823D01*
X0078446Y0124624D02*
X0082136Y0124624D01*
X0080727Y0123426D02*
X0079644Y0123426D01*
X0077300Y0119830D02*
X0063240Y0119830D01*
X0063700Y0118632D02*
X0080670Y0118632D01*
X0081998Y0117433D02*
X0063700Y0117433D01*
X0063700Y0116234D02*
X0101509Y0116234D01*
X0102613Y0109043D02*
X0120900Y0109043D01*
X0114581Y0099455D02*
X0150530Y0099455D01*
X0149331Y0098257D02*
X0113382Y0098257D01*
X0112184Y0097058D02*
X0148133Y0097058D01*
X0146934Y0095860D02*
X0110985Y0095860D01*
X0109787Y0094661D02*
X0145736Y0094661D01*
X0144537Y0093463D02*
X0108588Y0093463D01*
X0107390Y0092264D02*
X0143339Y0092264D01*
X0142140Y0091066D02*
X0106191Y0091066D01*
X0104993Y0089867D02*
X0140942Y0089867D01*
X0139743Y0088669D02*
X0103794Y0088669D01*
X0102300Y0087470D02*
X0138545Y0087470D01*
X0137346Y0086272D02*
X0102300Y0086272D01*
X0102300Y0085073D02*
X0136148Y0085073D01*
X0134949Y0083875D02*
X0102300Y0083875D01*
X0102300Y0082676D02*
X0133751Y0082676D01*
X0132552Y0081478D02*
X0102300Y0081478D01*
X0102300Y0080279D02*
X0131354Y0080279D01*
X0130155Y0079081D02*
X0102300Y0079081D01*
X0102300Y0077882D02*
X0128957Y0077882D01*
X0121959Y0076684D02*
X0116113Y0076684D01*
X0115884Y0076837D02*
X0115198Y0077121D01*
X0114471Y0077265D01*
X0114100Y0077265D01*
X0113729Y0077265D01*
X0113002Y0077121D01*
X0112316Y0076837D01*
X0111700Y0076425D01*
X0111175Y0075900D01*
X0110763Y0075284D01*
X0110479Y0074598D01*
X0110335Y0073871D01*
X0110335Y0073500D01*
X0110335Y0073129D01*
X0110479Y0072402D01*
X0110763Y0071716D01*
X0111175Y0071100D01*
X0111700Y0070575D01*
X0112316Y0070163D01*
X0113002Y0069879D01*
X0113729Y0069735D01*
X0114100Y0069735D01*
X0114471Y0069735D01*
X0115198Y0069879D01*
X0115884Y0070163D01*
X0116500Y0070575D01*
X0117025Y0071100D01*
X0117437Y0071716D01*
X0117721Y0072402D01*
X0117865Y0073129D01*
X0117865Y0073500D01*
X0117865Y0073871D01*
X0117721Y0074598D01*
X0117437Y0075284D01*
X0117025Y0075900D01*
X0116500Y0076425D01*
X0115884Y0076837D01*
X0114100Y0076684D02*
X0114100Y0076684D01*
X0114100Y0077265D02*
X0114100Y0073500D01*
X0114100Y0073500D01*
X0114100Y0077265D01*
X0114100Y0075485D02*
X0114100Y0075485D01*
X0114100Y0074287D02*
X0114100Y0074287D01*
X0114100Y0073500D02*
X0114100Y0073500D01*
X0117865Y0073500D01*
X0114100Y0073500D01*
X0114100Y0073500D01*
X0110335Y0073500D01*
X0114100Y0073500D01*
X0114100Y0069735D01*
X0114100Y0073500D01*
X0114100Y0073500D01*
X0114100Y0073088D02*
X0114100Y0073088D01*
X0114100Y0071890D02*
X0114100Y0071890D01*
X0114100Y0070691D02*
X0114100Y0070691D01*
X0116616Y0070691D02*
X0121584Y0070691D01*
X0120691Y0071890D02*
X0117509Y0071890D01*
X0117857Y0073088D02*
X0120335Y0073088D01*
X0120350Y0074287D02*
X0117783Y0074287D01*
X0117302Y0075485D02*
X0120847Y0075485D01*
X0112087Y0076684D02*
X0102300Y0076684D01*
X0102300Y0075485D02*
X0110898Y0075485D01*
X0110417Y0074287D02*
X0101854Y0074287D01*
X0100714Y0073088D02*
X0110343Y0073088D01*
X0110691Y0071890D02*
X0099515Y0071890D01*
X0098317Y0070691D02*
X0111584Y0070691D01*
X0115655Y0060750D02*
X0113910Y0060027D01*
X0112573Y0058690D01*
X0111850Y0056945D01*
X0111850Y0055055D01*
X0112573Y0053310D01*
X0113910Y0051973D01*
X0115655Y0051250D01*
X0117545Y0051250D01*
X0119290Y0051973D01*
X0120627Y0053310D01*
X0121350Y0055055D01*
X0121350Y0056945D01*
X0120627Y0058690D01*
X0119290Y0060027D01*
X0117545Y0060750D01*
X0115655Y0060750D01*
X0113788Y0059904D02*
X0109412Y0059904D01*
X0110611Y0058706D02*
X0112589Y0058706D01*
X0112083Y0057507D02*
X0111117Y0057507D01*
X0111350Y0056309D02*
X0111850Y0056309D01*
X0111850Y0055110D02*
X0111350Y0055110D01*
X0110876Y0053912D02*
X0112324Y0053912D01*
X0113170Y0052713D02*
X0110030Y0052713D01*
X0108183Y0051515D02*
X0115017Y0051515D01*
X0115655Y0050750D02*
X0113910Y0050027D01*
X0112573Y0048690D01*
X0111850Y0046945D01*
X0111850Y0045055D01*
X0112573Y0043310D01*
X0113910Y0041973D01*
X0115655Y0041250D01*
X0117545Y0041250D01*
X0119290Y0041973D01*
X0120627Y0043310D01*
X0121350Y0045055D01*
X0121350Y0046945D01*
X0120627Y0048690D01*
X0119290Y0050027D01*
X0117545Y0050750D01*
X0115655Y0050750D01*
X0114609Y0050316D02*
X0108591Y0050316D01*
X0109290Y0050027D02*
X0107545Y0050750D01*
X0105655Y0050750D01*
X0103910Y0050027D01*
X0102573Y0048690D01*
X0101850Y0046945D01*
X0101850Y0045055D01*
X0102573Y0043310D01*
X0103910Y0041973D01*
X0105655Y0041250D01*
X0107545Y0041250D01*
X0109290Y0041973D01*
X0110627Y0043310D01*
X0111350Y0045055D01*
X0111350Y0046945D01*
X0110627Y0048690D01*
X0109290Y0050027D01*
X0110199Y0049118D02*
X0113001Y0049118D01*
X0112254Y0047919D02*
X0110946Y0047919D01*
X0111350Y0046721D02*
X0111850Y0046721D01*
X0111850Y0045522D02*
X0111350Y0045522D01*
X0111047Y0044324D02*
X0112153Y0044324D01*
X0112758Y0043125D02*
X0110442Y0043125D01*
X0109178Y0041927D02*
X0114022Y0041927D01*
X0119178Y0041927D02*
X0124022Y0041927D01*
X0123910Y0041973D02*
X0125655Y0041250D01*
X0127545Y0041250D01*
X0129290Y0041973D01*
X0130627Y0043310D01*
X0131350Y0045055D01*
X0131350Y0046945D01*
X0130627Y0048690D01*
X0129290Y0050027D01*
X0127545Y0050750D01*
X0125655Y0050750D01*
X0123910Y0050027D01*
X0122573Y0048690D01*
X0121850Y0046945D01*
X0121850Y0045055D01*
X0122573Y0043310D01*
X0123910Y0041973D01*
X0122758Y0043125D02*
X0120442Y0043125D01*
X0121047Y0044324D02*
X0122153Y0044324D01*
X0121850Y0045522D02*
X0121350Y0045522D01*
X0121350Y0046721D02*
X0121850Y0046721D01*
X0122254Y0047919D02*
X0120946Y0047919D01*
X0120199Y0049118D02*
X0123001Y0049118D01*
X0124609Y0050316D02*
X0118591Y0050316D01*
X0118183Y0051515D02*
X0125034Y0051515D01*
X0124777Y0051598D02*
X0125488Y0051367D01*
X0126226Y0051250D01*
X0126314Y0051250D01*
X0126314Y0055714D01*
X0126886Y0055714D01*
X0126886Y0056286D01*
X0131350Y0056286D01*
X0131350Y0056374D01*
X0131233Y0057112D01*
X0131002Y0057823D01*
X0130662Y0058489D01*
X0130223Y0059094D01*
X0129694Y0059623D01*
X0129089Y0060062D01*
X0128423Y0060402D01*
X0127712Y0060633D01*
X0126974Y0060750D01*
X0126886Y0060750D01*
X0126886Y0056286D01*
X0126314Y0056286D01*
X0126314Y0060750D01*
X0126226Y0060750D01*
X0125488Y0060633D01*
X0124777Y0060402D01*
X0124111Y0060062D01*
X0123506Y0059623D01*
X0122977Y0059094D01*
X0122538Y0058489D01*
X0122198Y0057823D01*
X0121967Y0057112D01*
X0121850Y0056374D01*
X0121850Y0056286D01*
X0126314Y0056286D01*
X0126314Y0055714D01*
X0121850Y0055714D01*
X0121850Y0055626D01*
X0121967Y0054888D01*
X0122198Y0054177D01*
X0122538Y0053511D01*
X0122977Y0052906D01*
X0123506Y0052377D01*
X0124111Y0051938D01*
X0124777Y0051598D01*
X0126314Y0051515D02*
X0126886Y0051515D01*
X0126886Y0051250D02*
X0126974Y0051250D01*
X0127712Y0051367D01*
X0128423Y0051598D01*
X0129089Y0051938D01*
X0129694Y0052377D01*
X0130223Y0052906D01*
X0130662Y0053511D01*
X0131002Y0054177D01*
X0131233Y0054888D01*
X0131350Y0055626D01*
X0131350Y0055714D01*
X0126886Y0055714D01*
X0126886Y0051250D01*
X0128166Y0051515D02*
X0135017Y0051515D01*
X0135655Y0050750D02*
X0133910Y0050027D01*
X0132573Y0048690D01*
X0131850Y0046945D01*
X0131850Y0045055D01*
X0132573Y0043310D01*
X0133910Y0041973D01*
X0135655Y0041250D01*
X0137545Y0041250D01*
X0139290Y0041973D01*
X0140627Y0043310D01*
X0141350Y0045055D01*
X0141350Y0046945D01*
X0140627Y0048690D01*
X0139290Y0050027D01*
X0137545Y0050750D01*
X0135655Y0050750D01*
X0134609Y0050316D02*
X0128591Y0050316D01*
X0130199Y0049118D02*
X0133001Y0049118D01*
X0132254Y0047919D02*
X0130946Y0047919D01*
X0131350Y0046721D02*
X0131850Y0046721D01*
X0131850Y0045522D02*
X0131350Y0045522D01*
X0131047Y0044324D02*
X0132153Y0044324D01*
X0132758Y0043125D02*
X0130442Y0043125D01*
X0129178Y0041927D02*
X0134022Y0041927D01*
X0139178Y0041927D02*
X0235033Y0041927D01*
X0235033Y0043125D02*
X0140442Y0043125D01*
X0141047Y0044324D02*
X0235033Y0044324D01*
X0235033Y0045522D02*
X0141350Y0045522D01*
X0141350Y0046721D02*
X0235033Y0046721D01*
X0235033Y0047919D02*
X0140946Y0047919D01*
X0140199Y0049118D02*
X0235033Y0049118D01*
X0235033Y0050316D02*
X0138591Y0050316D01*
X0138183Y0051515D02*
X0235033Y0051515D01*
X0235033Y0052713D02*
X0140030Y0052713D01*
X0133170Y0052713D02*
X0130030Y0052713D01*
X0130867Y0053912D02*
X0132324Y0053912D01*
X0131850Y0055110D02*
X0131268Y0055110D01*
X0131350Y0056309D02*
X0131850Y0056309D01*
X0132083Y0057507D02*
X0131104Y0057507D01*
X0130505Y0058706D02*
X0132589Y0058706D01*
X0133788Y0059904D02*
X0129306Y0059904D01*
X0126886Y0059904D02*
X0126314Y0059904D01*
X0126314Y0058706D02*
X0126886Y0058706D01*
X0126886Y0057507D02*
X0126314Y0057507D01*
X0126314Y0056309D02*
X0126886Y0056309D01*
X0126886Y0055110D02*
X0126314Y0055110D01*
X0126314Y0053912D02*
X0126886Y0053912D01*
X0126886Y0052713D02*
X0126314Y0052713D01*
X0123170Y0052713D02*
X0120030Y0052713D01*
X0120876Y0053912D02*
X0122333Y0053912D01*
X0121932Y0055110D02*
X0121350Y0055110D01*
X0121350Y0056309D02*
X0121850Y0056309D01*
X0122096Y0057507D02*
X0121117Y0057507D01*
X0120611Y0058706D02*
X0122695Y0058706D01*
X0123894Y0059904D02*
X0119412Y0059904D01*
X0103788Y0059904D02*
X0078148Y0059904D01*
X0077651Y0058706D02*
X0102589Y0058706D01*
X0103170Y0052713D02*
X0083783Y0052713D01*
X0082585Y0051515D02*
X0105017Y0051515D01*
X0104609Y0050316D02*
X0007950Y0050316D01*
X0007950Y0049118D02*
X0103001Y0049118D01*
X0102254Y0047919D02*
X0007950Y0047919D01*
X0007950Y0046721D02*
X0101850Y0046721D01*
X0101850Y0045522D02*
X0007950Y0045522D01*
X0007950Y0044324D02*
X0102153Y0044324D01*
X0102758Y0043125D02*
X0007950Y0043125D01*
X0007950Y0041927D02*
X0104022Y0041927D01*
X0082638Y0057507D02*
X0076489Y0057507D01*
X0071711Y0057507D02*
X0056489Y0057507D01*
X0056456Y0057474D02*
X0057626Y0058644D01*
X0058259Y0060173D01*
X0058259Y0061827D01*
X0057626Y0063356D01*
X0056456Y0064526D01*
X0056200Y0064632D01*
X0056200Y0067794D01*
X0056233Y0067808D01*
X0057292Y0068867D01*
X0057865Y0070251D01*
X0057865Y0071749D01*
X0057292Y0073133D01*
X0056233Y0074192D01*
X0054849Y0074765D01*
X0053351Y0074765D01*
X0051967Y0074192D01*
X0050908Y0073133D01*
X0050335Y0071749D01*
X0050335Y0070251D01*
X0050908Y0068867D01*
X0051967Y0067808D01*
X0052000Y0067794D01*
X0052000Y0064632D01*
X0051744Y0064526D01*
X0050574Y0063356D01*
X0049941Y0061827D01*
X0049941Y0060173D01*
X0050574Y0058644D01*
X0051744Y0057474D01*
X0053273Y0056841D01*
X0054927Y0056841D01*
X0056456Y0057474D01*
X0057651Y0058706D02*
X0070548Y0058706D01*
X0070718Y0063500D02*
X0069570Y0063500D01*
X0068371Y0064699D02*
X0072161Y0064699D01*
X0067551Y0069493D02*
X0080649Y0069493D01*
X0080335Y0070691D02*
X0067865Y0070691D01*
X0067807Y0071890D02*
X0080393Y0071890D01*
X0080889Y0073088D02*
X0067311Y0073088D01*
X0066005Y0074287D02*
X0082195Y0074287D01*
X0086005Y0074287D02*
X0092861Y0074287D01*
X0094060Y0075485D02*
X0027585Y0075485D01*
X0028783Y0074287D02*
X0052195Y0074287D01*
X0050889Y0073088D02*
X0029982Y0073088D01*
X0031180Y0071890D02*
X0050393Y0071890D01*
X0050335Y0070691D02*
X0032379Y0070691D01*
X0033577Y0069493D02*
X0050649Y0069493D01*
X0051481Y0068294D02*
X0034776Y0068294D01*
X0035974Y0067096D02*
X0052000Y0067096D01*
X0052000Y0065897D02*
X0037173Y0065897D01*
X0038371Y0064699D02*
X0052000Y0064699D01*
X0050718Y0063500D02*
X0039570Y0063500D01*
X0040768Y0062301D02*
X0050137Y0062301D01*
X0049941Y0061103D02*
X0041967Y0061103D01*
X0043165Y0059904D02*
X0050052Y0059904D01*
X0050548Y0058706D02*
X0044364Y0058706D01*
X0045562Y0057507D02*
X0051711Y0057507D01*
X0046761Y0056309D02*
X0081439Y0056309D01*
X0081481Y0068294D02*
X0066719Y0068294D01*
X0062000Y0067096D02*
X0056200Y0067096D01*
X0056200Y0065897D02*
X0062000Y0065897D01*
X0062432Y0064699D02*
X0056200Y0064699D01*
X0057482Y0063500D02*
X0063630Y0063500D01*
X0064829Y0062301D02*
X0058063Y0062301D01*
X0058259Y0061103D02*
X0066027Y0061103D01*
X0067226Y0059904D02*
X0058148Y0059904D01*
X0056719Y0068294D02*
X0061481Y0068294D01*
X0060649Y0069493D02*
X0057551Y0069493D01*
X0057865Y0070691D02*
X0060335Y0070691D01*
X0060393Y0071890D02*
X0057807Y0071890D01*
X0057311Y0073088D02*
X0060889Y0073088D01*
X0062195Y0074287D02*
X0056005Y0074287D01*
X0070393Y0079081D02*
X0023989Y0079081D01*
X0022791Y0080279D02*
X0069941Y0080279D01*
X0069941Y0081478D02*
X0021592Y0081478D01*
X0020394Y0082676D02*
X0070293Y0082676D01*
X0071093Y0083875D02*
X0019195Y0083875D01*
X0017997Y0085073D02*
X0073065Y0085073D01*
X0075135Y0085073D02*
X0089068Y0085073D01*
X0093325Y0080279D02*
X0095900Y0080279D01*
X0095900Y0079081D02*
X0092126Y0079081D01*
X0090355Y0077882D02*
X0095900Y0077882D01*
X0095258Y0076684D02*
X0026386Y0076684D01*
X0025188Y0077882D02*
X0071336Y0077882D01*
X0072748Y0097058D02*
X0026020Y0097058D01*
X0026020Y0095860D02*
X0096915Y0095860D01*
X0096093Y0094661D02*
X0026020Y0094661D01*
X0026020Y0098257D02*
X0051518Y0098257D01*
X0051700Y0098075D02*
X0052316Y0097663D01*
X0053002Y0097379D01*
X0053729Y0097235D01*
X0054100Y0097235D01*
X0054471Y0097235D01*
X0055198Y0097379D01*
X0055884Y0097663D01*
X0056500Y0098075D01*
X0057025Y0098600D01*
X0057437Y0099216D01*
X0057721Y0099902D01*
X0057865Y0100629D01*
X0057865Y0101000D01*
X0057865Y0101371D01*
X0057721Y0102098D01*
X0057437Y0102784D01*
X0057025Y0103400D01*
X0056500Y0103925D01*
X0055884Y0104337D01*
X0055198Y0104621D01*
X0054471Y0104765D01*
X0054100Y0104765D01*
X0053729Y0104765D01*
X0053002Y0104621D01*
X0052316Y0104337D01*
X0051700Y0103925D01*
X0051175Y0103400D01*
X0050763Y0102784D01*
X0050479Y0102098D01*
X0050335Y0101371D01*
X0050335Y0101000D01*
X0050335Y0100629D01*
X0050479Y0099902D01*
X0050763Y0099216D01*
X0051175Y0098600D01*
X0051700Y0098075D01*
X0050664Y0099455D02*
X0026020Y0099455D01*
X0026020Y0100654D02*
X0050335Y0100654D01*
X0050335Y0101000D02*
X0054100Y0101000D01*
X0054100Y0101000D01*
X0054100Y0104765D01*
X0054100Y0101000D01*
X0057865Y0101000D01*
X0054100Y0101000D01*
X0054100Y0101000D01*
X0054100Y0101000D01*
X0050335Y0101000D01*
X0050430Y0101852D02*
X0026020Y0101852D01*
X0026020Y0103051D02*
X0050942Y0103051D01*
X0052186Y0104249D02*
X0026020Y0104249D01*
X0026020Y0105448D02*
X0059500Y0105448D01*
X0059500Y0106646D02*
X0026020Y0106646D01*
X0026270Y0107845D02*
X0031373Y0107845D01*
X0030409Y0109043D02*
X0027365Y0109043D01*
X0027862Y0110242D02*
X0029941Y0110242D01*
X0029941Y0111440D02*
X0027865Y0111440D01*
X0027497Y0112639D02*
X0029491Y0112639D01*
X0028293Y0113837D02*
X0026588Y0113837D01*
X0030637Y0117433D02*
X0044500Y0117433D01*
X0044500Y0116234D02*
X0031835Y0116234D01*
X0029438Y0118632D02*
X0044500Y0118632D01*
X0044500Y0119830D02*
X0028240Y0119830D01*
X0027041Y0121029D02*
X0044500Y0121029D01*
X0044500Y0122227D02*
X0026200Y0122227D01*
X0026200Y0123426D02*
X0044500Y0123426D01*
X0044500Y0124624D02*
X0026200Y0124624D01*
X0026200Y0125823D02*
X0044500Y0125823D01*
X0044651Y0127021D02*
X0035362Y0127021D01*
X0037201Y0128220D02*
X0045850Y0128220D01*
X0047048Y0129418D02*
X0037946Y0129418D01*
X0038259Y0130617D02*
X0048247Y0130617D01*
X0049445Y0131815D02*
X0038259Y0131815D01*
X0039084Y0133014D02*
X0050496Y0133014D01*
X0051514Y0134212D02*
X0040282Y0134212D01*
X0041481Y0135411D02*
X0072000Y0135411D01*
X0072000Y0136609D02*
X0042679Y0136609D01*
X0039136Y0139006D02*
X0027350Y0139006D01*
X0027846Y0140205D02*
X0040335Y0140205D01*
X0040335Y0141403D02*
X0027865Y0141403D01*
X0027512Y0142602D02*
X0040688Y0142602D01*
X0041575Y0143800D02*
X0026625Y0143800D01*
X0026232Y0137808D02*
X0037938Y0137808D01*
X0036739Y0136609D02*
X0026200Y0136609D01*
X0026200Y0135411D02*
X0035541Y0135411D01*
X0031430Y0134212D02*
X0026200Y0134212D01*
X0026200Y0133014D02*
X0030432Y0133014D01*
X0029941Y0131815D02*
X0026200Y0131815D01*
X0026200Y0130617D02*
X0029941Y0130617D01*
X0030253Y0129418D02*
X0026200Y0129418D01*
X0026200Y0128220D02*
X0030999Y0128220D01*
X0032838Y0127021D02*
X0026200Y0127021D01*
X0035224Y0115036D02*
X0044500Y0115036D01*
X0041612Y0113837D02*
X0037144Y0113837D01*
X0036827Y0107845D02*
X0041930Y0107845D01*
X0046270Y0107845D02*
X0051467Y0107845D01*
X0051429Y0107873D02*
X0051951Y0107493D01*
X0052526Y0107200D01*
X0053140Y0107001D01*
X0053777Y0106900D01*
X0053900Y0106900D01*
X0053900Y0110800D01*
X0054300Y0110800D01*
X0054300Y0111200D01*
X0058200Y0111200D01*
X0058200Y0111323D01*
X0058099Y0111960D01*
X0057900Y0112574D01*
X0057607Y0113149D01*
X0057227Y0113671D01*
X0056771Y0114127D01*
X0056249Y0114507D01*
X0055674Y0114800D01*
X0055060Y0114999D01*
X0054423Y0115100D01*
X0054300Y0115100D01*
X0054300Y0111200D01*
X0053900Y0111200D01*
X0053900Y0115100D01*
X0053777Y0115100D01*
X0053140Y0114999D01*
X0052526Y0114800D01*
X0051951Y0114507D01*
X0051429Y0114127D01*
X0050973Y0113671D01*
X0050593Y0113149D01*
X0050300Y0112574D01*
X0050101Y0111960D01*
X0050000Y0111323D01*
X0050000Y0111200D01*
X0053900Y0111200D01*
X0053900Y0110800D01*
X0050000Y0110800D01*
X0050000Y0110677D01*
X0050101Y0110040D01*
X0050300Y0109426D01*
X0050593Y0108851D01*
X0050973Y0108329D01*
X0051429Y0107873D01*
X0050495Y0109043D02*
X0047365Y0109043D01*
X0047862Y0110242D02*
X0050069Y0110242D01*
X0050019Y0111440D02*
X0047865Y0111440D01*
X0048700Y0112639D02*
X0050334Y0112639D01*
X0051139Y0113837D02*
X0048700Y0113837D01*
X0048700Y0115036D02*
X0053373Y0115036D01*
X0053900Y0115036D02*
X0054300Y0115036D01*
X0054827Y0115036D02*
X0059500Y0115036D01*
X0059500Y0116234D02*
X0048700Y0116234D01*
X0048700Y0117433D02*
X0051998Y0117433D01*
X0050670Y0118632D02*
X0048700Y0118632D01*
X0048700Y0119830D02*
X0050147Y0119830D01*
X0050000Y0121029D02*
X0048700Y0121029D01*
X0048700Y0122227D02*
X0050170Y0122227D01*
X0050727Y0123426D02*
X0048700Y0123426D01*
X0048700Y0124624D02*
X0052136Y0124624D01*
X0052992Y0127021D02*
X0050591Y0127021D01*
X0049392Y0125823D02*
X0072000Y0125823D01*
X0072000Y0127021D02*
X0055208Y0127021D01*
X0057118Y0128220D02*
X0072000Y0128220D01*
X0072000Y0129418D02*
X0057883Y0129418D01*
X0058200Y0130617D02*
X0072000Y0130617D01*
X0072000Y0131815D02*
X0058200Y0131815D01*
X0057704Y0133014D02*
X0072000Y0133014D01*
X0072000Y0134212D02*
X0056686Y0134212D01*
X0056706Y0137808D02*
X0072000Y0137808D01*
X0072000Y0139006D02*
X0057712Y0139006D01*
X0058200Y0140205D02*
X0072000Y0140205D01*
X0072000Y0141403D02*
X0058200Y0141403D01*
X0057874Y0142602D02*
X0072000Y0142602D01*
X0072000Y0143800D02*
X0057098Y0143800D01*
X0056200Y0144999D02*
X0072000Y0144999D01*
X0072000Y0146197D02*
X0056200Y0146197D01*
X0056200Y0147396D02*
X0072000Y0147396D01*
X0072000Y0148594D02*
X0056200Y0148594D01*
X0056200Y0149793D02*
X0072000Y0149793D01*
X0070727Y0150991D02*
X0057473Y0150991D01*
X0058059Y0152190D02*
X0070141Y0152190D01*
X0069941Y0153388D02*
X0058259Y0153388D01*
X0058152Y0154587D02*
X0070048Y0154587D01*
X0070545Y0155785D02*
X0057655Y0155785D01*
X0056498Y0156984D02*
X0071702Y0156984D01*
X0076022Y0160974D02*
X0076574Y0160422D01*
X0077223Y0159989D01*
X0077944Y0159690D01*
X0078710Y0159538D01*
X0079100Y0159538D01*
X0079490Y0159538D01*
X0080256Y0159690D01*
X0080977Y0159989D01*
X0081626Y0160422D01*
X0082178Y0160974D01*
X0082611Y0161623D01*
X0082910Y0162344D01*
X0083062Y0163110D01*
X0083062Y0163500D01*
X0083062Y0163890D01*
X0082910Y0164656D01*
X0082611Y0165377D01*
X0082178Y0166026D01*
X0081626Y0166578D01*
X0080977Y0167011D01*
X0080256Y0167310D01*
X0079490Y0167462D01*
X0079100Y0167462D01*
X0079100Y0163500D01*
X0079100Y0163500D01*
X0083062Y0163500D01*
X0079100Y0163500D01*
X0079100Y0163500D01*
X0079100Y0163500D01*
X0075138Y0163500D01*
X0075138Y0163890D01*
X0075290Y0164656D01*
X0075589Y0165377D01*
X0076022Y0166026D01*
X0076574Y0166578D01*
X0077223Y0167011D01*
X0077944Y0167310D01*
X0078710Y0167462D01*
X0079100Y0167462D01*
X0079100Y0163500D01*
X0079100Y0159538D01*
X0079100Y0163500D01*
X0079100Y0163500D01*
X0075138Y0163500D01*
X0075138Y0163110D01*
X0075290Y0162344D01*
X0075589Y0161623D01*
X0076022Y0160974D01*
X0076417Y0160579D02*
X0036260Y0160579D01*
X0036260Y0159381D02*
X0089500Y0159381D01*
X0089196Y0160579D02*
X0081783Y0160579D01*
X0082675Y0161778D02*
X0088238Y0161778D01*
X0087835Y0162976D02*
X0083036Y0162976D01*
X0083006Y0164175D02*
X0087835Y0164175D01*
X0088300Y0165373D02*
X0082613Y0165373D01*
X0081631Y0166572D02*
X0089347Y0166572D01*
X0090851Y0169735D02*
X0092349Y0169735D01*
X0093733Y0170308D01*
X0094792Y0171367D01*
X0095365Y0172751D01*
X0095365Y0174249D01*
X0094792Y0175633D01*
X0093733Y0176692D01*
X0092349Y0177265D01*
X0090851Y0177265D01*
X0089467Y0176692D01*
X0088408Y0175633D01*
X0088394Y0175600D01*
X0082519Y0175600D01*
X0082459Y0175744D01*
X0081344Y0176859D01*
X0079888Y0177462D01*
X0078312Y0177462D01*
X0076856Y0176859D01*
X0075741Y0175744D01*
X0075138Y0174288D01*
X0075138Y0172712D01*
X0075741Y0171256D01*
X0076856Y0170141D01*
X0078312Y0169538D01*
X0079888Y0169538D01*
X0081344Y0170141D01*
X0082459Y0171256D01*
X0082519Y0171400D01*
X0088394Y0171400D01*
X0088408Y0171367D01*
X0089467Y0170308D01*
X0090851Y0169735D01*
X0089806Y0170168D02*
X0081371Y0170168D01*
X0082505Y0171366D02*
X0088409Y0171366D01*
X0088935Y0176160D02*
X0082043Y0176160D01*
X0080138Y0177359D02*
X0102489Y0177359D01*
X0103687Y0178557D02*
X0046200Y0178557D01*
X0046200Y0177359D02*
X0078062Y0177359D01*
X0078312Y0179538D02*
X0076856Y0180141D01*
X0075741Y0181256D01*
X0075681Y0181400D01*
X0060730Y0181400D01*
X0059500Y0182630D01*
X0052000Y0190130D01*
X0052000Y0192794D01*
X0051967Y0192808D01*
X0050908Y0193867D01*
X0050335Y0195251D01*
X0050335Y0196749D01*
X0050908Y0198133D01*
X0051967Y0199192D01*
X0052000Y0199206D01*
X0052000Y0204370D01*
X0057000Y0209370D01*
X0057000Y0210294D01*
X0056967Y0210308D01*
X0055908Y0211367D01*
X0055335Y0212751D01*
X0055335Y0214249D01*
X0055908Y0215633D01*
X0056967Y0216692D01*
X0058351Y0217265D01*
X0059849Y0217265D01*
X0061233Y0216692D01*
X0062292Y0215633D01*
X0062865Y0214249D01*
X0062865Y0212751D01*
X0062292Y0211367D01*
X0061233Y0210308D01*
X0061200Y0210294D01*
X0061200Y0207630D01*
X0059970Y0206400D01*
X0056200Y0202630D01*
X0056200Y0199206D01*
X0056233Y0199192D01*
X0057292Y0198133D01*
X0057865Y0196749D01*
X0057865Y0195251D01*
X0057292Y0193867D01*
X0056233Y0192808D01*
X0056200Y0192794D01*
X0056200Y0191870D01*
X0062470Y0185600D01*
X0075681Y0185600D01*
X0075741Y0185744D01*
X0076856Y0186859D01*
X0078312Y0187462D01*
X0079888Y0187462D01*
X0081344Y0186859D01*
X0082459Y0185744D01*
X0083062Y0184288D01*
X0083062Y0182712D01*
X0082459Y0181256D01*
X0081344Y0180141D01*
X0079888Y0179538D01*
X0078312Y0179538D01*
X0077786Y0179756D02*
X0046200Y0179756D01*
X0046200Y0180954D02*
X0076042Y0180954D01*
X0076157Y0176160D02*
X0046910Y0176160D01*
X0046200Y0176870D02*
X0046200Y0182038D01*
X0047125Y0182038D01*
X0048062Y0182975D01*
X0048062Y0189025D01*
X0047125Y0189962D01*
X0046200Y0189962D01*
X0046200Y0194370D01*
X0043700Y0196870D01*
X0042865Y0197704D01*
X0042865Y0198638D01*
X0041928Y0199575D01*
X0036272Y0199575D01*
X0035335Y0198638D01*
X0035335Y0197910D01*
X0027384Y0197910D01*
X0027292Y0198133D01*
X0026233Y0199192D01*
X0024849Y0199765D01*
X0023351Y0199765D01*
X0021967Y0199192D01*
X0020908Y0198133D01*
X0020335Y0196749D01*
X0020335Y0195251D01*
X0020908Y0193867D01*
X0021967Y0192808D01*
X0023351Y0192235D01*
X0024849Y0192235D01*
X0026233Y0192808D01*
X0027135Y0193710D01*
X0035335Y0193710D01*
X0035335Y0192982D01*
X0036272Y0192045D01*
X0041928Y0192045D01*
X0042000Y0192117D01*
X0042000Y0189962D01*
X0041075Y0189962D01*
X0040138Y0189025D01*
X0040138Y0182975D01*
X0041075Y0182038D01*
X0042000Y0182038D01*
X0042000Y0175130D01*
X0043230Y0173900D01*
X0043230Y0173900D01*
X0050348Y0166782D01*
X0050335Y0166749D01*
X0050335Y0165251D01*
X0050908Y0163867D01*
X0051967Y0162808D01*
X0053351Y0162235D01*
X0054849Y0162235D01*
X0056233Y0162808D01*
X0057292Y0163867D01*
X0057306Y0163900D01*
X0060894Y0163900D01*
X0060908Y0163867D01*
X0061967Y0162808D01*
X0063351Y0162235D01*
X0064849Y0162235D01*
X0066233Y0162808D01*
X0067292Y0163867D01*
X0067865Y0165251D01*
X0067865Y0166749D01*
X0067292Y0168133D01*
X0066233Y0169192D01*
X0064849Y0169765D01*
X0063351Y0169765D01*
X0061967Y0169192D01*
X0060908Y0168133D01*
X0060894Y0168100D01*
X0057306Y0168100D01*
X0057292Y0168133D01*
X0056233Y0169192D01*
X0054849Y0169765D01*
X0053351Y0169765D01*
X0053318Y0169752D01*
X0046200Y0176870D01*
X0048108Y0174962D02*
X0075417Y0174962D01*
X0075138Y0173763D02*
X0049307Y0173763D01*
X0050505Y0172565D02*
X0075199Y0172565D01*
X0075695Y0171366D02*
X0051704Y0171366D01*
X0052902Y0170168D02*
X0076829Y0170168D01*
X0076569Y0166572D02*
X0067865Y0166572D01*
X0067865Y0165373D02*
X0075587Y0165373D01*
X0075194Y0164175D02*
X0067420Y0164175D01*
X0066401Y0162976D02*
X0075164Y0162976D01*
X0075525Y0161778D02*
X0036260Y0161778D01*
X0038062Y0162976D02*
X0041520Y0162976D01*
X0046680Y0162976D02*
X0051799Y0162976D01*
X0050780Y0164175D02*
X0047633Y0164175D01*
X0048062Y0165373D02*
X0050335Y0165373D01*
X0050335Y0166572D02*
X0048062Y0166572D01*
X0047655Y0167770D02*
X0049360Y0167770D01*
X0048161Y0168969D02*
X0046734Y0168969D01*
X0046963Y0170168D02*
X0016200Y0170168D01*
X0016200Y0171366D02*
X0045764Y0171366D01*
X0044566Y0172565D02*
X0016200Y0172565D01*
X0016200Y0173763D02*
X0043367Y0173763D01*
X0042169Y0174962D02*
X0016200Y0174962D01*
X0016200Y0176160D02*
X0042000Y0176160D01*
X0042000Y0177359D02*
X0016200Y0177359D01*
X0016200Y0178557D02*
X0042000Y0178557D01*
X0042000Y0179756D02*
X0016200Y0179756D01*
X0016200Y0180954D02*
X0042000Y0180954D01*
X0040960Y0182153D02*
X0035068Y0182153D01*
X0035256Y0182190D02*
X0035977Y0182489D01*
X0036626Y0182922D01*
X0037178Y0183474D01*
X0037611Y0184123D01*
X0037910Y0184844D01*
X0038062Y0185610D01*
X0038062Y0186000D01*
X0038062Y0186390D01*
X0037910Y0187156D01*
X0037611Y0187877D01*
X0037178Y0188526D01*
X0036626Y0189078D01*
X0035977Y0189511D01*
X0035256Y0189810D01*
X0034490Y0189962D01*
X0034100Y0189962D01*
X0034100Y0186000D01*
X0034100Y0186000D01*
X0038062Y0186000D01*
X0034100Y0186000D01*
X0034100Y0186000D01*
X0034100Y0186000D01*
X0030138Y0186000D01*
X0030138Y0186390D01*
X0030290Y0187156D01*
X0030589Y0187877D01*
X0031022Y0188526D01*
X0031574Y0189078D01*
X0032223Y0189511D01*
X0032944Y0189810D01*
X0033710Y0189962D01*
X0034100Y0189962D01*
X0034100Y0186000D01*
X0034100Y0182038D01*
X0034490Y0182038D01*
X0035256Y0182190D01*
X0034100Y0182153D02*
X0034100Y0182153D01*
X0034100Y0182038D02*
X0034100Y0186000D01*
X0034100Y0186000D01*
X0030138Y0186000D01*
X0030138Y0185610D01*
X0030290Y0184844D01*
X0030589Y0184123D01*
X0031022Y0183474D01*
X0031574Y0182922D01*
X0032223Y0182489D01*
X0032944Y0182190D01*
X0033710Y0182038D01*
X0034100Y0182038D01*
X0033132Y0182153D02*
X0016200Y0182153D01*
X0016200Y0183351D02*
X0031145Y0183351D01*
X0030412Y0184550D02*
X0016200Y0184550D01*
X0016200Y0185748D02*
X0030138Y0185748D01*
X0030248Y0186947D02*
X0016200Y0186947D01*
X0016200Y0188145D02*
X0030768Y0188145D01*
X0031972Y0189344D02*
X0016200Y0189344D01*
X0016200Y0190542D02*
X0042000Y0190542D01*
X0042000Y0191741D02*
X0016200Y0191741D01*
X0016200Y0192939D02*
X0021836Y0192939D01*
X0020796Y0194138D02*
X0016200Y0194138D01*
X0016200Y0195336D02*
X0020335Y0195336D01*
X0020335Y0196535D02*
X0016200Y0196535D01*
X0016200Y0197733D02*
X0020742Y0197733D01*
X0021707Y0198932D02*
X0016200Y0198932D01*
X0016200Y0200130D02*
X0037855Y0200130D01*
X0038002Y0200069D02*
X0038729Y0199925D01*
X0039100Y0199925D01*
X0039471Y0199925D01*
X0040198Y0200069D01*
X0040884Y0200353D01*
X0041500Y0200765D01*
X0042025Y0201290D01*
X0042437Y0201906D01*
X0042721Y0202592D01*
X0042865Y0203319D01*
X0042865Y0203690D01*
X0042865Y0204061D01*
X0042721Y0204788D01*
X0042437Y0205474D01*
X0042025Y0206090D01*
X0041500Y0206615D01*
X0040884Y0207027D01*
X0040198Y0207311D01*
X0039471Y0207455D01*
X0039100Y0207455D01*
X0038729Y0207455D01*
X0038002Y0207311D01*
X0037316Y0207027D01*
X0036700Y0206615D01*
X0036175Y0206090D01*
X0035763Y0205474D01*
X0035479Y0204788D01*
X0035335Y0204061D01*
X0035335Y0203690D01*
X0035335Y0203319D01*
X0035479Y0202592D01*
X0035763Y0201906D01*
X0036175Y0201290D01*
X0036700Y0200765D01*
X0037316Y0200353D01*
X0038002Y0200069D01*
X0039100Y0200130D02*
X0039100Y0200130D01*
X0039100Y0199925D02*
X0039100Y0203690D01*
X0039100Y0203690D01*
X0039100Y0203690D01*
X0039100Y0207455D01*
X0039100Y0203690D01*
X0042865Y0203690D01*
X0039100Y0203690D01*
X0039100Y0203690D01*
X0039100Y0199925D01*
X0040345Y0200130D02*
X0052000Y0200130D01*
X0052000Y0201329D02*
X0042051Y0201329D01*
X0042694Y0202527D02*
X0052000Y0202527D01*
X0052000Y0203726D02*
X0042865Y0203726D01*
X0042664Y0204924D02*
X0052554Y0204924D01*
X0053753Y0206123D02*
X0041992Y0206123D01*
X0040145Y0207321D02*
X0054952Y0207321D01*
X0056150Y0208520D02*
X0016200Y0208520D01*
X0016200Y0209718D02*
X0057000Y0209718D01*
X0056358Y0210917D02*
X0031842Y0210917D01*
X0032292Y0211367D02*
X0032865Y0212751D01*
X0032865Y0214249D01*
X0032292Y0215633D01*
X0031233Y0216692D01*
X0031200Y0216706D01*
X0031200Y0220294D01*
X0031233Y0220308D01*
X0032292Y0221367D01*
X0032865Y0222751D01*
X0032865Y0224249D01*
X0032292Y0225633D01*
X0031233Y0226692D01*
X0031200Y0226706D01*
X0031200Y0228866D01*
X0032013Y0229203D01*
X0033460Y0230650D01*
X0034243Y0232540D01*
X0034243Y0234586D01*
X0033460Y0236476D01*
X0032013Y0237923D01*
X0030123Y0238706D01*
X0028077Y0238706D01*
X0026187Y0237923D01*
X0024740Y0236476D01*
X0023957Y0234586D01*
X0023957Y0232540D01*
X0024740Y0230650D01*
X0026187Y0229203D01*
X0027000Y0228866D01*
X0027000Y0226706D01*
X0026967Y0226692D01*
X0025908Y0225633D01*
X0025335Y0224249D01*
X0025335Y0222751D01*
X0025908Y0221367D01*
X0026967Y0220308D01*
X0027000Y0220294D01*
X0027000Y0216706D01*
X0026967Y0216692D01*
X0025908Y0215633D01*
X0025335Y0214249D01*
X0025335Y0212751D01*
X0025908Y0211367D01*
X0026967Y0210308D01*
X0028351Y0209735D01*
X0029849Y0209735D01*
X0031233Y0210308D01*
X0032292Y0211367D01*
X0032602Y0212115D02*
X0055598Y0212115D01*
X0055335Y0213314D02*
X0032865Y0213314D01*
X0032756Y0214512D02*
X0055444Y0214512D01*
X0055986Y0215711D02*
X0032214Y0215711D01*
X0031200Y0216909D02*
X0057492Y0216909D01*
X0058351Y0219735D02*
X0056967Y0220308D01*
X0055908Y0221367D01*
X0055335Y0222751D01*
X0055335Y0224249D01*
X0055908Y0225633D01*
X0056967Y0226692D01*
X0058351Y0227265D01*
X0059849Y0227265D01*
X0061233Y0226692D01*
X0062292Y0225633D01*
X0062306Y0225600D01*
X0077470Y0225600D01*
X0088318Y0214752D01*
X0088351Y0214765D01*
X0089849Y0214765D01*
X0091233Y0214192D01*
X0092292Y0213133D01*
X0092306Y0213100D01*
X0095468Y0213100D01*
X0095574Y0213356D01*
X0096744Y0214526D01*
X0098273Y0215159D01*
X0099927Y0215159D01*
X0101456Y0214526D01*
X0102626Y0213356D01*
X0103259Y0211827D01*
X0103259Y0210173D01*
X0102626Y0208644D01*
X0101456Y0207474D01*
X0099927Y0206841D01*
X0098273Y0206841D01*
X0096744Y0207474D01*
X0095574Y0208644D01*
X0095468Y0208900D01*
X0092306Y0208900D01*
X0092292Y0208867D01*
X0091233Y0207808D01*
X0089849Y0207235D01*
X0088351Y0207235D01*
X0086967Y0207808D01*
X0085908Y0208867D01*
X0085335Y0210251D01*
X0085335Y0211749D01*
X0085348Y0211782D01*
X0075730Y0221400D01*
X0062306Y0221400D01*
X0062292Y0221367D01*
X0061233Y0220308D01*
X0059849Y0219735D01*
X0058351Y0219735D01*
X0056770Y0220505D02*
X0031430Y0220505D01*
X0031200Y0219306D02*
X0077824Y0219306D01*
X0079022Y0218108D02*
X0031200Y0218108D01*
X0032431Y0221703D02*
X0055769Y0221703D01*
X0055335Y0222902D02*
X0032865Y0222902D01*
X0032865Y0224101D02*
X0055335Y0224101D01*
X0055770Y0225299D02*
X0032430Y0225299D01*
X0031427Y0226498D02*
X0056773Y0226498D01*
X0053023Y0230212D02*
X0053499Y0230867D01*
X0053866Y0231589D01*
X0054117Y0232359D01*
X0054231Y0233080D01*
X0049583Y0233080D01*
X0049583Y0234046D01*
X0054231Y0234046D01*
X0054117Y0234767D01*
X0053866Y0235537D01*
X0053499Y0236259D01*
X0053023Y0236914D01*
X0052451Y0237486D01*
X0051796Y0237962D01*
X0051074Y0238329D01*
X0050304Y0238580D01*
X0049583Y0238694D01*
X0049583Y0234046D01*
X0048617Y0234046D01*
X0048617Y0238694D01*
X0047896Y0238580D01*
X0047126Y0238329D01*
X0046404Y0237962D01*
X0045749Y0237486D01*
X0045177Y0236914D01*
X0044701Y0236259D01*
X0044334Y0235537D01*
X0044083Y0234767D01*
X0043969Y0234046D01*
X0048617Y0234046D01*
X0048617Y0233080D01*
X0049583Y0233080D01*
X0049583Y0228432D01*
X0050304Y0228546D01*
X0051074Y0228797D01*
X0051796Y0229164D01*
X0052451Y0229640D01*
X0053023Y0230212D01*
X0052904Y0230093D02*
X0063957Y0230093D01*
X0063957Y0229357D02*
X0064894Y0228420D01*
X0073306Y0228420D01*
X0074243Y0229357D01*
X0074243Y0237769D01*
X0073306Y0238706D01*
X0072276Y0238706D01*
X0072470Y0238900D01*
X0075894Y0238900D01*
X0075908Y0238867D01*
X0076967Y0237808D01*
X0078351Y0237235D01*
X0079849Y0237235D01*
X0081233Y0237808D01*
X0082292Y0238867D01*
X0082306Y0238900D01*
X0085894Y0238900D01*
X0085908Y0238867D01*
X0086967Y0237808D01*
X0088351Y0237235D01*
X0089849Y0237235D01*
X0091233Y0237808D01*
X0092292Y0238867D01*
X0092865Y0240251D01*
X0092865Y0241749D01*
X0092292Y0243133D01*
X0091233Y0244192D01*
X0089849Y0244765D01*
X0088351Y0244765D01*
X0086967Y0244192D01*
X0085908Y0243133D01*
X0085894Y0243100D01*
X0082306Y0243100D01*
X0082292Y0243133D01*
X0081233Y0244192D01*
X0079849Y0244765D01*
X0078351Y0244765D01*
X0076967Y0244192D01*
X0075908Y0243133D01*
X0075894Y0243100D01*
X0070730Y0243100D01*
X0069500Y0241870D01*
X0067000Y0239370D01*
X0067000Y0238706D01*
X0064894Y0238706D01*
X0063957Y0237769D01*
X0063957Y0229357D01*
X0064419Y0228895D02*
X0051267Y0228895D01*
X0049583Y0228895D02*
X0048617Y0228895D01*
X0048617Y0228432D02*
X0047896Y0228546D01*
X0047126Y0228797D01*
X0046404Y0229164D01*
X0045749Y0229640D01*
X0045177Y0230212D01*
X0044701Y0230867D01*
X0044334Y0231589D01*
X0044083Y0232359D01*
X0043969Y0233080D01*
X0048617Y0233080D01*
X0048617Y0228432D01*
X0048617Y0230093D02*
X0049583Y0230093D01*
X0049583Y0231292D02*
X0048617Y0231292D01*
X0048617Y0232490D02*
X0049583Y0232490D01*
X0049583Y0233689D02*
X0063957Y0233689D01*
X0063957Y0234887D02*
X0054078Y0234887D01*
X0053587Y0236086D02*
X0063957Y0236086D01*
X0063957Y0237284D02*
X0052653Y0237284D01*
X0050603Y0238483D02*
X0064670Y0238483D01*
X0067311Y0239681D02*
X0016200Y0239681D01*
X0016200Y0238483D02*
X0027537Y0238483D01*
X0025547Y0237284D02*
X0016200Y0237284D01*
X0016200Y0236086D02*
X0024578Y0236086D01*
X0024081Y0234887D02*
X0016200Y0234887D01*
X0016200Y0233689D02*
X0023957Y0233689D01*
X0023977Y0232490D02*
X0016200Y0232490D01*
X0016200Y0231292D02*
X0024474Y0231292D01*
X0025296Y0230093D02*
X0016200Y0230093D01*
X0016200Y0228895D02*
X0026930Y0228895D01*
X0027000Y0227696D02*
X0016200Y0227696D01*
X0016200Y0226498D02*
X0026773Y0226498D01*
X0025770Y0225299D02*
X0016200Y0225299D01*
X0016200Y0224101D02*
X0025335Y0224101D01*
X0025335Y0222902D02*
X0016200Y0222902D01*
X0016200Y0221703D02*
X0025769Y0221703D01*
X0026770Y0220505D02*
X0016200Y0220505D01*
X0016200Y0219306D02*
X0027000Y0219306D01*
X0027000Y0218108D02*
X0016200Y0218108D01*
X0016200Y0216909D02*
X0027000Y0216909D01*
X0025986Y0215711D02*
X0016200Y0215711D01*
X0016200Y0214512D02*
X0025444Y0214512D01*
X0025335Y0213314D02*
X0016200Y0213314D01*
X0016200Y0212115D02*
X0025598Y0212115D01*
X0026358Y0210917D02*
X0016200Y0210917D01*
X0016200Y0207321D02*
X0038055Y0207321D01*
X0039100Y0207321D02*
X0039100Y0207321D01*
X0039100Y0206123D02*
X0039100Y0206123D01*
X0039100Y0204924D02*
X0039100Y0204924D01*
X0039100Y0203726D02*
X0039100Y0203726D01*
X0039100Y0203690D02*
X0039100Y0203690D01*
X0035335Y0203690D01*
X0039100Y0203690D01*
X0039100Y0202527D02*
X0039100Y0202527D01*
X0039100Y0201329D02*
X0039100Y0201329D01*
X0036149Y0201329D02*
X0016200Y0201329D01*
X0016200Y0202527D02*
X0035506Y0202527D01*
X0035335Y0203726D02*
X0016200Y0203726D01*
X0016200Y0204924D02*
X0035536Y0204924D01*
X0036208Y0206123D02*
X0016200Y0206123D01*
X0012000Y0206123D02*
X0007950Y0206123D01*
X0007950Y0207321D02*
X0012000Y0207321D01*
X0012000Y0208520D02*
X0007950Y0208520D01*
X0007950Y0209718D02*
X0012000Y0209718D01*
X0012000Y0210917D02*
X0007950Y0210917D01*
X0007950Y0212115D02*
X0012000Y0212115D01*
X0012000Y0213314D02*
X0007950Y0213314D01*
X0007950Y0214512D02*
X0012000Y0214512D01*
X0012000Y0215711D02*
X0007950Y0215711D01*
X0007950Y0216909D02*
X0012000Y0216909D01*
X0012000Y0218108D02*
X0007950Y0218108D01*
X0007950Y0219306D02*
X0012000Y0219306D01*
X0012000Y0220505D02*
X0007950Y0220505D01*
X0007950Y0221703D02*
X0012000Y0221703D01*
X0012000Y0222902D02*
X0007950Y0222902D01*
X0007950Y0224101D02*
X0012000Y0224101D01*
X0012000Y0225299D02*
X0007950Y0225299D01*
X0007950Y0226498D02*
X0012000Y0226498D01*
X0012000Y0227696D02*
X0007950Y0227696D01*
X0007950Y0228895D02*
X0012000Y0228895D01*
X0012000Y0230093D02*
X0007950Y0230093D01*
X0007950Y0231292D02*
X0012000Y0231292D01*
X0012000Y0232490D02*
X0007950Y0232490D01*
X0007950Y0233689D02*
X0012000Y0233689D01*
X0012000Y0234887D02*
X0007950Y0234887D01*
X0007950Y0236086D02*
X0012000Y0236086D01*
X0012000Y0237284D02*
X0007950Y0237284D01*
X0007950Y0238483D02*
X0012000Y0238483D01*
X0012000Y0239681D02*
X0007950Y0239681D01*
X0007950Y0240880D02*
X0012000Y0240880D01*
X0012000Y0242078D02*
X0007950Y0242078D01*
X0007950Y0243277D02*
X0012000Y0243277D01*
X0012000Y0244475D02*
X0007950Y0244475D01*
X0007950Y0245674D02*
X0012000Y0245674D01*
X0012000Y0246872D02*
X0007950Y0246872D01*
X0007950Y0248071D02*
X0012000Y0248071D01*
X0012000Y0249269D02*
X0007950Y0249269D01*
X0007950Y0250468D02*
X0012000Y0250468D01*
X0012000Y0251666D02*
X0007950Y0251666D01*
X0007950Y0252865D02*
X0012000Y0252865D01*
X0012000Y0254063D02*
X0007950Y0254063D01*
X0007950Y0255262D02*
X0012000Y0255262D01*
X0012000Y0256460D02*
X0007950Y0256460D01*
X0007950Y0257659D02*
X0012000Y0257659D01*
X0012000Y0258857D02*
X0007950Y0258857D01*
X0007950Y0260056D02*
X0012000Y0260056D01*
X0012000Y0261254D02*
X0007950Y0261254D01*
X0007950Y0262453D02*
X0012000Y0262453D01*
X0012000Y0263651D02*
X0007950Y0263651D01*
X0007950Y0264850D02*
X0012480Y0264850D01*
X0013679Y0266048D02*
X0007950Y0266048D01*
X0007950Y0267247D02*
X0014877Y0267247D01*
X0016076Y0268445D02*
X0007950Y0268445D01*
X0007950Y0269644D02*
X0017274Y0269644D01*
X0018473Y0270842D02*
X0007950Y0270842D01*
X0007950Y0272041D02*
X0019671Y0272041D01*
X0020870Y0273239D02*
X0007950Y0273239D01*
X0007950Y0274438D02*
X0022068Y0274438D01*
X0023267Y0275637D02*
X0007950Y0275637D01*
X0007950Y0276835D02*
X0024465Y0276835D01*
X0025664Y0278034D02*
X0007950Y0278034D01*
X0007950Y0279232D02*
X0026862Y0279232D01*
X0028061Y0280431D02*
X0007950Y0280431D01*
X0007950Y0281629D02*
X0030137Y0281629D01*
X0031120Y0282828D02*
X0007950Y0282828D01*
X0007950Y0284026D02*
X0032905Y0284026D01*
X0037397Y0284026D02*
X0096803Y0284026D01*
X0095801Y0283611D02*
X0097908Y0284484D01*
X0100189Y0284484D01*
X0102297Y0283611D01*
X0103910Y0281998D01*
X0104783Y0279891D01*
X0104783Y0277609D01*
X0103910Y0275502D01*
X0102297Y0273889D01*
X0100189Y0273016D01*
X0097908Y0273016D01*
X0095801Y0273889D01*
X0094188Y0275502D01*
X0093315Y0277609D01*
X0093315Y0279891D01*
X0094188Y0281998D01*
X0095801Y0283611D01*
X0095017Y0282828D02*
X0039182Y0282828D01*
X0040165Y0281629D02*
X0094035Y0281629D01*
X0093539Y0280431D02*
X0040661Y0280431D01*
X0040885Y0279232D02*
X0093315Y0279232D01*
X0093315Y0278034D02*
X0040885Y0278034D01*
X0040564Y0276835D02*
X0093636Y0276835D01*
X0094132Y0275637D02*
X0040068Y0275637D01*
X0038948Y0274438D02*
X0095252Y0274438D01*
X0097369Y0273239D02*
X0036831Y0273239D01*
X0033471Y0273239D02*
X0026809Y0273239D01*
X0025611Y0272041D02*
X0130900Y0272041D01*
X0130900Y0273239D02*
X0100729Y0273239D01*
X0102846Y0274438D02*
X0130900Y0274438D01*
X0130900Y0275637D02*
X0103965Y0275637D01*
X0104462Y0276835D02*
X0130900Y0276835D01*
X0130900Y0278034D02*
X0104783Y0278034D01*
X0104783Y0279232D02*
X0130900Y0279232D01*
X0130900Y0280431D02*
X0104559Y0280431D01*
X0104063Y0281629D02*
X0130900Y0281629D01*
X0130900Y0282828D02*
X0103080Y0282828D01*
X0101295Y0284026D02*
X0130900Y0284026D01*
X0130900Y0285225D02*
X0007950Y0285225D01*
X0007950Y0286423D02*
X0130900Y0286423D01*
X0130900Y0287622D02*
X0007950Y0287622D01*
X0007950Y0288820D02*
X0118086Y0288820D01*
X0117823Y0288929D02*
X0118855Y0288502D01*
X0119934Y0288213D01*
X0121000Y0288072D01*
X0121000Y0295988D01*
X0113084Y0295988D01*
X0113225Y0294922D01*
X0113514Y0293843D01*
X0113941Y0292811D01*
X0114500Y0291844D01*
X0115180Y0290957D01*
X0115969Y0290168D01*
X0116856Y0289488D01*
X0117823Y0288929D01*
X0116164Y0290019D02*
X0007950Y0290019D01*
X0007950Y0291217D02*
X0114980Y0291217D01*
X0114169Y0292416D02*
X0007950Y0292416D01*
X0007950Y0293614D02*
X0113608Y0293614D01*
X0113254Y0294813D02*
X0007950Y0294813D01*
X0007950Y0296011D02*
X0121000Y0296011D01*
X0121000Y0295988D02*
X0121000Y0297188D01*
X0121000Y0305104D01*
X0119934Y0304963D01*
X0118855Y0304674D01*
X0117823Y0304247D01*
X0116856Y0303688D01*
X0115969Y0303008D01*
X0115180Y0302218D01*
X0114500Y0301332D01*
X0113941Y0300365D01*
X0113514Y0299333D01*
X0113225Y0298254D01*
X0113084Y0297188D01*
X0121000Y0297188D01*
X0122200Y0297188D01*
X0122200Y0305104D01*
X0123266Y0304963D01*
X0124345Y0304674D01*
X0125377Y0304247D01*
X0126344Y0303688D01*
X0127230Y0303008D01*
X0128020Y0302218D01*
X0128700Y0301332D01*
X0129259Y0300365D01*
X0129686Y0299333D01*
X0129975Y0298254D01*
X0130116Y0297188D01*
X0122200Y0297188D01*
X0122200Y0295988D01*
X0130116Y0295988D01*
X0129975Y0294922D01*
X0129686Y0293843D01*
X0129259Y0292811D01*
X0128700Y0291844D01*
X0128020Y0290957D01*
X0127230Y0290168D01*
X0126344Y0289488D01*
X0125377Y0288929D01*
X0124345Y0288502D01*
X0123266Y0288213D01*
X0122200Y0288072D01*
X0122200Y0295988D01*
X0121000Y0295988D01*
X0121000Y0294813D02*
X0122200Y0294813D01*
X0122200Y0296011D02*
X0130900Y0296011D01*
X0130900Y0294813D02*
X0129946Y0294813D01*
X0129592Y0293614D02*
X0130900Y0293614D01*
X0130900Y0292416D02*
X0129031Y0292416D01*
X0128220Y0291217D02*
X0130900Y0291217D01*
X0130900Y0290019D02*
X0127036Y0290019D01*
X0125114Y0288820D02*
X0130900Y0288820D01*
X0137300Y0288820D02*
X0235033Y0288820D01*
X0235033Y0287622D02*
X0137300Y0287622D01*
X0137300Y0286423D02*
X0235033Y0286423D01*
X0235033Y0285225D02*
X0137300Y0285225D01*
X0137300Y0284026D02*
X0141905Y0284026D01*
X0140120Y0282828D02*
X0137300Y0282828D01*
X0137300Y0281629D02*
X0139137Y0281629D01*
X0138641Y0280431D02*
X0137300Y0280431D01*
X0137300Y0279232D02*
X0138417Y0279232D01*
X0138417Y0278034D02*
X0137300Y0278034D01*
X0137300Y0276835D02*
X0138738Y0276835D01*
X0139235Y0275637D02*
X0137300Y0275637D01*
X0137300Y0274438D02*
X0140354Y0274438D01*
X0142471Y0273239D02*
X0137300Y0273239D01*
X0137300Y0272041D02*
X0192589Y0272041D01*
X0191391Y0273239D02*
X0145831Y0273239D01*
X0147948Y0274438D02*
X0190192Y0274438D01*
X0188994Y0275637D02*
X0149068Y0275637D01*
X0149165Y0281629D02*
X0203035Y0281629D01*
X0203188Y0281998D02*
X0202315Y0279891D01*
X0202315Y0277609D01*
X0203188Y0275502D01*
X0204801Y0273889D01*
X0206908Y0273016D01*
X0209189Y0273016D01*
X0211297Y0273889D01*
X0212910Y0275502D01*
X0213783Y0277609D01*
X0213783Y0279891D01*
X0212910Y0281998D01*
X0211297Y0283611D01*
X0209189Y0284484D01*
X0206908Y0284484D01*
X0204801Y0283611D01*
X0203188Y0281998D01*
X0204017Y0282828D02*
X0148182Y0282828D01*
X0146397Y0284026D02*
X0205803Y0284026D01*
X0202539Y0280431D02*
X0190139Y0280431D01*
X0191338Y0279232D02*
X0202315Y0279232D01*
X0202315Y0278034D02*
X0192536Y0278034D01*
X0193735Y0276835D02*
X0202636Y0276835D01*
X0203132Y0275637D02*
X0194933Y0275637D01*
X0196132Y0274438D02*
X0204252Y0274438D01*
X0206369Y0273239D02*
X0197330Y0273239D01*
X0198529Y0272041D02*
X0235033Y0272041D01*
X0235033Y0273239D02*
X0209729Y0273239D01*
X0211846Y0274438D02*
X0235033Y0274438D01*
X0235033Y0275637D02*
X0212965Y0275637D01*
X0213462Y0276835D02*
X0235033Y0276835D01*
X0235033Y0278034D02*
X0213783Y0278034D01*
X0213783Y0279232D02*
X0235033Y0279232D01*
X0235033Y0280431D02*
X0213559Y0280431D01*
X0213063Y0281629D02*
X0235033Y0281629D01*
X0235033Y0282828D02*
X0212080Y0282828D01*
X0210295Y0284026D02*
X0235033Y0284026D01*
X0235033Y0290019D02*
X0137300Y0290019D01*
X0137300Y0291217D02*
X0235033Y0291217D01*
X0235033Y0292416D02*
X0137300Y0292416D01*
X0137300Y0293614D02*
X0235033Y0293614D01*
X0235033Y0294813D02*
X0137300Y0294813D01*
X0137300Y0296011D02*
X0235033Y0296011D01*
X0235033Y0297210D02*
X0137300Y0297210D01*
X0137300Y0298408D02*
X0142064Y0298408D01*
X0143011Y0298016D02*
X0145292Y0298016D01*
X0147399Y0298889D01*
X0149012Y0300502D01*
X0149885Y0302609D01*
X0149885Y0304891D01*
X0149012Y0306998D01*
X0147399Y0308611D01*
X0145292Y0309484D01*
X0143011Y0309484D01*
X0140903Y0308611D01*
X0139290Y0306998D01*
X0138417Y0304891D01*
X0138417Y0302609D01*
X0139290Y0300502D01*
X0140903Y0298889D01*
X0143011Y0298016D01*
X0140186Y0299607D02*
X0137300Y0299607D01*
X0137300Y0300805D02*
X0139165Y0300805D01*
X0138668Y0302004D02*
X0137300Y0302004D01*
X0137300Y0303202D02*
X0138417Y0303202D01*
X0138417Y0304401D02*
X0137300Y0304401D01*
X0137300Y0305599D02*
X0138711Y0305599D01*
X0139207Y0306798D02*
X0137300Y0306798D01*
X0137300Y0307996D02*
X0140289Y0307996D01*
X0142313Y0309195D02*
X0137300Y0309195D01*
X0137300Y0310393D02*
X0235033Y0310393D01*
X0235033Y0309195D02*
X0209887Y0309195D01*
X0209189Y0309484D02*
X0211297Y0308611D01*
X0212910Y0306998D01*
X0213783Y0304891D01*
X0213783Y0302609D01*
X0212910Y0300502D01*
X0211297Y0298889D01*
X0209189Y0298016D01*
X0206908Y0298016D01*
X0204801Y0298889D01*
X0203188Y0300502D01*
X0202315Y0302609D01*
X0202315Y0304891D01*
X0203188Y0306998D01*
X0204801Y0308611D01*
X0206908Y0309484D01*
X0209189Y0309484D01*
X0206211Y0309195D02*
X0145989Y0309195D01*
X0148014Y0307996D02*
X0204186Y0307996D01*
X0203105Y0306798D02*
X0149095Y0306798D01*
X0149591Y0305599D02*
X0202609Y0305599D01*
X0202315Y0304401D02*
X0149885Y0304401D01*
X0149885Y0303202D02*
X0202315Y0303202D01*
X0202566Y0302004D02*
X0149634Y0302004D01*
X0149138Y0300805D02*
X0203062Y0300805D01*
X0204083Y0299607D02*
X0148117Y0299607D01*
X0146238Y0298408D02*
X0205962Y0298408D01*
X0210136Y0298408D02*
X0235033Y0298408D01*
X0235033Y0299607D02*
X0212014Y0299607D01*
X0213035Y0300805D02*
X0235033Y0300805D01*
X0235033Y0302004D02*
X0213532Y0302004D01*
X0213783Y0303202D02*
X0235033Y0303202D01*
X0235033Y0304401D02*
X0213783Y0304401D01*
X0213489Y0305599D02*
X0235033Y0305599D01*
X0235033Y0306798D02*
X0212993Y0306798D01*
X0211911Y0307996D02*
X0235033Y0307996D01*
X0235033Y0311592D02*
X0137300Y0311592D01*
X0137300Y0312790D02*
X0235033Y0312790D01*
X0235033Y0313989D02*
X0137300Y0313989D01*
X0137300Y0315187D02*
X0235033Y0315187D01*
X0235033Y0316386D02*
X0137300Y0316386D01*
X0137300Y0316637D02*
X0136813Y0317813D01*
X0135913Y0318713D01*
X0131703Y0322923D01*
X0130526Y0323410D01*
X0129498Y0323410D01*
X0128824Y0325037D01*
X0126427Y0327434D01*
X0123295Y0328731D01*
X0119905Y0328731D01*
X0116773Y0327434D01*
X0114376Y0325037D01*
X0113079Y0321905D01*
X0113079Y0318515D01*
X0114376Y0315383D01*
X0116773Y0312986D01*
X0119905Y0311689D01*
X0123295Y0311689D01*
X0126427Y0312986D01*
X0128824Y0315383D01*
X0129224Y0316350D01*
X0130900Y0314675D01*
X0130900Y0264825D01*
X0129787Y0263713D01*
X0128887Y0262813D01*
X0128400Y0261637D01*
X0128400Y0260356D01*
X0128181Y0260356D01*
X0127244Y0259419D01*
X0127244Y0252581D01*
X0128181Y0251644D01*
X0128400Y0251644D01*
X0128400Y0241828D01*
X0127905Y0241333D01*
X0127905Y0235677D01*
X0128842Y0234740D01*
X0134498Y0234740D01*
X0135435Y0235677D01*
X0135435Y0241333D01*
X0134800Y0241968D01*
X0134800Y0251644D01*
X0135019Y0251644D01*
X0135956Y0252581D01*
X0135956Y0259419D01*
X0135250Y0260125D01*
X0136813Y0261687D01*
X0137300Y0262863D01*
X0137300Y0316637D01*
X0136907Y0317584D02*
X0235033Y0317584D01*
X0235033Y0318783D02*
X0135843Y0318783D01*
X0134644Y0319981D02*
X0235033Y0319981D01*
X0235033Y0320431D02*
X0235033Y0037600D01*
X0007950Y0037600D01*
X0007950Y0320431D01*
X0027521Y0320431D01*
X0028476Y0320827D01*
X0029208Y0321559D01*
X0029604Y0322514D01*
X0029604Y0327269D01*
X0029837Y0326549D01*
X0030247Y0325745D01*
X0030778Y0325015D01*
X0031416Y0324376D01*
X0032146Y0323846D01*
X0032950Y0323436D01*
X0033808Y0323157D01*
X0034551Y0323040D01*
X0034551Y0328150D01*
X0035751Y0328150D01*
X0035751Y0323040D01*
X0036494Y0323157D01*
X0037352Y0323436D01*
X0038156Y0323846D01*
X0038887Y0324376D01*
X0039525Y0325015D01*
X0040055Y0325745D01*
X0040465Y0326549D01*
X0040744Y0327407D01*
X0040861Y0328150D01*
X0035751Y0328150D01*
X0035751Y0329350D01*
X0034551Y0329350D01*
X0034551Y0334460D01*
X0033808Y0334343D01*
X0032950Y0334064D01*
X0032146Y0333654D01*
X0031416Y0333124D01*
X0030778Y0332485D01*
X0030247Y0331755D01*
X0029837Y0330951D01*
X0029604Y0330231D01*
X0029604Y0347991D01*
X0213380Y0347991D01*
X0213380Y0330863D01*
X0212910Y0331998D01*
X0211297Y0333611D01*
X0209189Y0334484D01*
X0206908Y0334484D01*
X0204801Y0333611D01*
X0203188Y0331998D01*
X0202315Y0329891D01*
X0202315Y0327609D01*
X0203188Y0325502D01*
X0204801Y0323889D01*
X0206908Y0323016D01*
X0209189Y0323016D01*
X0211297Y0323889D01*
X0212910Y0325502D01*
X0213380Y0326637D01*
X0213380Y0322514D01*
X0213776Y0321559D01*
X0214507Y0320827D01*
X0215463Y0320431D01*
X0235033Y0320431D01*
X0214155Y0321180D02*
X0133446Y0321180D01*
X0132247Y0322378D02*
X0213436Y0322378D01*
X0213380Y0323577D02*
X0210543Y0323577D01*
X0212183Y0324775D02*
X0213380Y0324775D01*
X0213380Y0325974D02*
X0213105Y0325974D01*
X0212923Y0331967D02*
X0213380Y0331967D01*
X0213380Y0333165D02*
X0211743Y0333165D01*
X0213380Y0334364D02*
X0209480Y0334364D01*
X0213380Y0335562D02*
X0029604Y0335562D01*
X0029604Y0334364D02*
X0033940Y0334364D01*
X0034551Y0334364D02*
X0035751Y0334364D01*
X0035751Y0334460D02*
X0035751Y0329350D01*
X0040861Y0329350D01*
X0040744Y0330093D01*
X0040465Y0330951D01*
X0040055Y0331755D01*
X0039525Y0332485D01*
X0038887Y0333124D01*
X0038156Y0333654D01*
X0037352Y0334064D01*
X0036494Y0334343D01*
X0035751Y0334460D01*
X0036362Y0334364D02*
X0097618Y0334364D01*
X0097908Y0334484D02*
X0095801Y0333611D01*
X0094188Y0331998D01*
X0093315Y0329891D01*
X0093315Y0327609D01*
X0094188Y0325502D01*
X0095801Y0323889D01*
X0097908Y0323016D01*
X0100189Y0323016D01*
X0102297Y0323889D01*
X0103910Y0325502D01*
X0104783Y0327609D01*
X0104783Y0329891D01*
X0103910Y0331998D01*
X0102297Y0333611D01*
X0100189Y0334484D01*
X0097908Y0334484D01*
X0100480Y0334364D02*
X0142940Y0334364D01*
X0142808Y0334343D02*
X0141950Y0334064D01*
X0141146Y0333654D01*
X0140416Y0333124D01*
X0139778Y0332485D01*
X0139247Y0331755D01*
X0138837Y0330951D01*
X0138559Y0330093D01*
X0138441Y0329350D01*
X0143551Y0329350D01*
X0143551Y0328150D01*
X0138441Y0328150D01*
X0138559Y0327407D01*
X0138837Y0326549D01*
X0139247Y0325745D01*
X0139778Y0325015D01*
X0140416Y0324376D01*
X0141146Y0323846D01*
X0141950Y0323436D01*
X0142808Y0323157D01*
X0143551Y0323040D01*
X0143551Y0328150D01*
X0144751Y0328150D01*
X0144751Y0323040D01*
X0145494Y0323157D01*
X0146352Y0323436D01*
X0147156Y0323846D01*
X0147887Y0324376D01*
X0148525Y0325015D01*
X0149055Y0325745D01*
X0149465Y0326549D01*
X0149744Y0327407D01*
X0149861Y0328150D01*
X0144751Y0328150D01*
X0144751Y0329350D01*
X0143551Y0329350D01*
X0143551Y0334460D01*
X0142808Y0334343D01*
X0143551Y0334364D02*
X0144751Y0334364D01*
X0144751Y0334460D02*
X0144751Y0329350D01*
X0149861Y0329350D01*
X0149744Y0330093D01*
X0149465Y0330951D01*
X0149055Y0331755D01*
X0148525Y0332485D01*
X0147887Y0333124D01*
X0147156Y0333654D01*
X0146352Y0334064D01*
X0145494Y0334343D01*
X0144751Y0334460D01*
X0145362Y0334364D02*
X0206618Y0334364D01*
X0204355Y0333165D02*
X0147829Y0333165D01*
X0148902Y0331967D02*
X0203175Y0331967D01*
X0202678Y0330768D02*
X0149524Y0330768D01*
X0149827Y0329570D02*
X0202315Y0329570D01*
X0202315Y0328371D02*
X0144751Y0328371D01*
X0144751Y0327172D02*
X0143551Y0327172D01*
X0143551Y0325974D02*
X0144751Y0325974D01*
X0144751Y0324775D02*
X0143551Y0324775D01*
X0143551Y0323577D02*
X0144751Y0323577D01*
X0146628Y0323577D02*
X0205554Y0323577D01*
X0203914Y0324775D02*
X0148286Y0324775D01*
X0149172Y0325974D02*
X0202992Y0325974D01*
X0202496Y0327172D02*
X0149668Y0327172D01*
X0144751Y0329570D02*
X0143551Y0329570D01*
X0143551Y0330768D02*
X0144751Y0330768D01*
X0144751Y0331967D02*
X0143551Y0331967D01*
X0143551Y0333165D02*
X0144751Y0333165D01*
X0140473Y0333165D02*
X0102743Y0333165D01*
X0103923Y0331967D02*
X0139401Y0331967D01*
X0138778Y0330768D02*
X0104419Y0330768D01*
X0104783Y0329570D02*
X0138476Y0329570D01*
X0138635Y0327172D02*
X0126688Y0327172D01*
X0127887Y0325974D02*
X0139130Y0325974D01*
X0140017Y0324775D02*
X0128932Y0324775D01*
X0129429Y0323577D02*
X0141674Y0323577D01*
X0143551Y0328371D02*
X0124165Y0328371D01*
X0119035Y0328371D02*
X0104783Y0328371D01*
X0104602Y0327172D02*
X0116512Y0327172D01*
X0115313Y0325974D02*
X0104105Y0325974D01*
X0103183Y0324775D02*
X0114268Y0324775D01*
X0113771Y0323577D02*
X0101543Y0323577D01*
X0096554Y0323577D02*
X0037628Y0323577D01*
X0035751Y0323577D02*
X0034551Y0323577D01*
X0034551Y0324775D02*
X0035751Y0324775D01*
X0035751Y0325974D02*
X0034551Y0325974D01*
X0034551Y0327172D02*
X0035751Y0327172D01*
X0035751Y0328371D02*
X0093315Y0328371D01*
X0093315Y0329570D02*
X0040827Y0329570D01*
X0040524Y0330768D02*
X0093678Y0330768D01*
X0094175Y0331967D02*
X0039902Y0331967D01*
X0038829Y0333165D02*
X0095355Y0333165D01*
X0093496Y0327172D02*
X0040668Y0327172D01*
X0040172Y0325974D02*
X0093992Y0325974D01*
X0094914Y0324775D02*
X0039286Y0324775D01*
X0035751Y0329570D02*
X0034551Y0329570D01*
X0034551Y0330768D02*
X0035751Y0330768D01*
X0035751Y0331967D02*
X0034551Y0331967D01*
X0034551Y0333165D02*
X0035751Y0333165D01*
X0031473Y0333165D02*
X0029604Y0333165D01*
X0029604Y0331967D02*
X0030401Y0331967D01*
X0029778Y0330768D02*
X0029604Y0330768D01*
X0029604Y0327172D02*
X0029635Y0327172D01*
X0029604Y0325974D02*
X0030130Y0325974D01*
X0029604Y0324775D02*
X0031017Y0324775D01*
X0029604Y0323577D02*
X0032674Y0323577D01*
X0029547Y0322378D02*
X0113275Y0322378D01*
X0113079Y0321180D02*
X0028829Y0321180D01*
X0034011Y0309484D02*
X0031903Y0308611D01*
X0030290Y0306998D01*
X0029417Y0304891D01*
X0029417Y0302609D01*
X0030290Y0300502D01*
X0031903Y0298889D01*
X0034011Y0298016D01*
X0036292Y0298016D01*
X0038399Y0298889D01*
X0040012Y0300502D01*
X0040885Y0302609D01*
X0040885Y0304891D01*
X0040012Y0306998D01*
X0038399Y0308611D01*
X0036292Y0309484D01*
X0034011Y0309484D01*
X0033313Y0309195D02*
X0007950Y0309195D01*
X0007950Y0310393D02*
X0130900Y0310393D01*
X0130900Y0309195D02*
X0100887Y0309195D01*
X0100189Y0309484D02*
X0097908Y0309484D01*
X0095801Y0308611D01*
X0094188Y0306998D01*
X0093315Y0304891D01*
X0093315Y0302609D01*
X0094188Y0300502D01*
X0095801Y0298889D01*
X0097908Y0298016D01*
X0100189Y0298016D01*
X0102297Y0298889D01*
X0103910Y0300502D01*
X0104783Y0302609D01*
X0104783Y0304891D01*
X0103910Y0306998D01*
X0102297Y0308611D01*
X0100189Y0309484D01*
X0097211Y0309195D02*
X0036989Y0309195D01*
X0039014Y0307996D02*
X0095186Y0307996D01*
X0094105Y0306798D02*
X0040095Y0306798D01*
X0040591Y0305599D02*
X0093609Y0305599D01*
X0093315Y0304401D02*
X0040885Y0304401D01*
X0040885Y0303202D02*
X0093315Y0303202D01*
X0093566Y0302004D02*
X0040634Y0302004D01*
X0040138Y0300805D02*
X0094062Y0300805D01*
X0095083Y0299607D02*
X0039117Y0299607D01*
X0037238Y0298408D02*
X0096962Y0298408D01*
X0101136Y0298408D02*
X0113266Y0298408D01*
X0113087Y0297210D02*
X0007950Y0297210D01*
X0007950Y0298408D02*
X0033064Y0298408D01*
X0031186Y0299607D02*
X0007950Y0299607D01*
X0007950Y0300805D02*
X0030165Y0300805D01*
X0029668Y0302004D02*
X0007950Y0302004D01*
X0007950Y0303202D02*
X0029417Y0303202D01*
X0029417Y0304401D02*
X0007950Y0304401D01*
X0007950Y0305599D02*
X0029711Y0305599D01*
X0030207Y0306798D02*
X0007950Y0306798D01*
X0007950Y0307996D02*
X0031289Y0307996D01*
X0029604Y0336761D02*
X0213380Y0336761D01*
X0213380Y0337959D02*
X0029604Y0337959D01*
X0029604Y0339158D02*
X0213380Y0339158D01*
X0213380Y0340356D02*
X0029604Y0340356D01*
X0029604Y0341555D02*
X0213380Y0341555D01*
X0213380Y0342753D02*
X0029604Y0342753D01*
X0029604Y0343952D02*
X0213380Y0343952D01*
X0213380Y0345150D02*
X0029604Y0345150D01*
X0029604Y0346349D02*
X0213380Y0346349D01*
X0213380Y0347547D02*
X0029604Y0347547D01*
X0007950Y0319981D02*
X0113079Y0319981D01*
X0113079Y0318783D02*
X0007950Y0318783D01*
X0007950Y0317584D02*
X0113464Y0317584D01*
X0113961Y0316386D02*
X0007950Y0316386D01*
X0007950Y0315187D02*
X0114572Y0315187D01*
X0115770Y0313989D02*
X0007950Y0313989D01*
X0007950Y0312790D02*
X0117246Y0312790D01*
X0118195Y0304401D02*
X0104783Y0304401D01*
X0104783Y0303202D02*
X0116222Y0303202D01*
X0115015Y0302004D02*
X0104532Y0302004D01*
X0104035Y0300805D02*
X0114195Y0300805D01*
X0113627Y0299607D02*
X0103014Y0299607D01*
X0104489Y0305599D02*
X0130900Y0305599D01*
X0130900Y0304401D02*
X0125005Y0304401D01*
X0126978Y0303202D02*
X0130900Y0303202D01*
X0130900Y0302004D02*
X0128185Y0302004D01*
X0129005Y0300805D02*
X0130900Y0300805D01*
X0130900Y0299607D02*
X0129573Y0299607D01*
X0129934Y0298408D02*
X0130900Y0298408D01*
X0130900Y0297210D02*
X0130113Y0297210D01*
X0130900Y0306798D02*
X0103993Y0306798D01*
X0102911Y0307996D02*
X0130900Y0307996D01*
X0130900Y0311592D02*
X0007950Y0311592D01*
X0029206Y0275637D02*
X0030235Y0275637D01*
X0031354Y0274438D02*
X0028008Y0274438D01*
X0024412Y0270842D02*
X0130900Y0270842D01*
X0130900Y0269644D02*
X0023214Y0269644D01*
X0022015Y0268445D02*
X0130900Y0268445D01*
X0130900Y0267247D02*
X0020817Y0267247D01*
X0019618Y0266048D02*
X0130900Y0266048D01*
X0130900Y0264850D02*
X0018420Y0264850D01*
X0017221Y0263651D02*
X0129726Y0263651D01*
X0128738Y0262453D02*
X0016200Y0262453D01*
X0016200Y0261254D02*
X0128400Y0261254D01*
X0127881Y0260056D02*
X0016200Y0260056D01*
X0016200Y0258857D02*
X0127244Y0258857D01*
X0127244Y0257659D02*
X0016200Y0257659D01*
X0016200Y0256460D02*
X0127244Y0256460D01*
X0127244Y0255262D02*
X0016200Y0255262D01*
X0016200Y0254063D02*
X0127244Y0254063D01*
X0127244Y0252865D02*
X0016200Y0252865D01*
X0016200Y0251666D02*
X0128159Y0251666D01*
X0128400Y0250468D02*
X0016200Y0250468D01*
X0016200Y0249269D02*
X0128400Y0249269D01*
X0128400Y0248071D02*
X0016200Y0248071D01*
X0016200Y0246872D02*
X0128400Y0246872D01*
X0128400Y0245674D02*
X0016200Y0245674D01*
X0016200Y0244475D02*
X0077651Y0244475D01*
X0076052Y0243277D02*
X0016200Y0243277D01*
X0016200Y0242078D02*
X0069708Y0242078D01*
X0068510Y0240880D02*
X0016200Y0240880D01*
X0030663Y0238483D02*
X0047597Y0238483D01*
X0048617Y0238483D02*
X0049583Y0238483D01*
X0049583Y0237284D02*
X0048617Y0237284D01*
X0048617Y0236086D02*
X0049583Y0236086D01*
X0049583Y0234887D02*
X0048617Y0234887D01*
X0048617Y0233689D02*
X0034243Y0233689D01*
X0034223Y0232490D02*
X0044062Y0232490D01*
X0044485Y0231292D02*
X0033726Y0231292D01*
X0032904Y0230093D02*
X0045296Y0230093D01*
X0046933Y0228895D02*
X0031270Y0228895D01*
X0031200Y0227696D02*
X0096522Y0227696D01*
X0096744Y0227474D02*
X0098273Y0226841D01*
X0099927Y0226841D01*
X0101456Y0227474D01*
X0102626Y0228644D01*
X0102732Y0228900D01*
X0147470Y0228900D01*
X0149970Y0231400D01*
X0169429Y0231400D01*
X0169740Y0230650D01*
X0171187Y0229203D01*
X0173077Y0228420D01*
X0175123Y0228420D01*
X0177013Y0229203D01*
X0178460Y0230650D01*
X0179243Y0232540D01*
X0179243Y0234586D01*
X0178460Y0236476D01*
X0177013Y0237923D01*
X0175123Y0238706D01*
X0173077Y0238706D01*
X0171187Y0237923D01*
X0169740Y0236476D01*
X0169377Y0235600D01*
X0148230Y0235600D01*
X0147000Y0234370D01*
X0145730Y0233100D01*
X0102732Y0233100D01*
X0102626Y0233356D01*
X0101456Y0234526D01*
X0099927Y0235159D01*
X0098273Y0235159D01*
X0096744Y0234526D01*
X0095574Y0233356D01*
X0094941Y0231827D01*
X0094941Y0230173D01*
X0095574Y0228644D01*
X0096744Y0227474D01*
X0095470Y0228895D02*
X0073781Y0228895D01*
X0074243Y0230093D02*
X0094974Y0230093D01*
X0094941Y0231292D02*
X0074243Y0231292D01*
X0074243Y0232490D02*
X0095216Y0232490D01*
X0095907Y0233689D02*
X0074243Y0233689D01*
X0074243Y0234887D02*
X0097616Y0234887D01*
X0100584Y0234887D02*
X0128694Y0234887D01*
X0127905Y0236086D02*
X0074243Y0236086D01*
X0074243Y0237284D02*
X0078232Y0237284D01*
X0079968Y0237284D02*
X0088232Y0237284D01*
X0089968Y0237284D02*
X0127905Y0237284D01*
X0127905Y0238483D02*
X0091908Y0238483D01*
X0092629Y0239681D02*
X0127905Y0239681D01*
X0127905Y0240880D02*
X0092865Y0240880D01*
X0092729Y0242078D02*
X0128400Y0242078D01*
X0128400Y0243277D02*
X0092148Y0243277D01*
X0090549Y0244475D02*
X0128400Y0244475D01*
X0134800Y0244475D02*
X0169972Y0244475D01*
X0169941Y0244673D02*
X0170043Y0244026D01*
X0170246Y0243403D01*
X0170543Y0242820D01*
X0170928Y0242291D01*
X0171391Y0241828D01*
X0171920Y0241443D01*
X0172503Y0241146D01*
X0173126Y0240943D01*
X0173773Y0240841D01*
X0174100Y0240841D01*
X0174427Y0240841D01*
X0175074Y0240943D01*
X0175697Y0241146D01*
X0176280Y0241443D01*
X0176809Y0241828D01*
X0177272Y0242291D01*
X0177657Y0242820D01*
X0177954Y0243403D01*
X0178157Y0244026D01*
X0178259Y0244673D01*
X0178259Y0245000D01*
X0178259Y0245327D01*
X0178157Y0245974D01*
X0177954Y0246597D01*
X0177657Y0247180D01*
X0177272Y0247709D01*
X0176809Y0248172D01*
X0176280Y0248557D01*
X0175697Y0248854D01*
X0175074Y0249057D01*
X0174427Y0249159D01*
X0174100Y0249159D01*
X0174100Y0245000D01*
X0178259Y0245000D01*
X0174100Y0245000D01*
X0174100Y0245000D01*
X0174100Y0245000D01*
X0174100Y0240841D01*
X0174100Y0245000D01*
X0174100Y0245000D01*
X0174100Y0245000D01*
X0169941Y0245000D01*
X0169941Y0245327D01*
X0170043Y0245974D01*
X0170246Y0246597D01*
X0170543Y0247180D01*
X0170928Y0247709D01*
X0171391Y0248172D01*
X0171920Y0248557D01*
X0172503Y0248854D01*
X0173126Y0249057D01*
X0173773Y0249159D01*
X0174100Y0249159D01*
X0174100Y0245000D01*
X0169941Y0245000D01*
X0169941Y0244673D01*
X0169996Y0245674D02*
X0134800Y0245674D01*
X0134800Y0246872D02*
X0170386Y0246872D01*
X0171289Y0248071D02*
X0134800Y0248071D01*
X0134800Y0249269D02*
X0215361Y0249269D01*
X0216559Y0248071D02*
X0196911Y0248071D01*
X0196456Y0248526D02*
X0194927Y0249159D01*
X0193273Y0249159D01*
X0191744Y0248526D01*
X0190574Y0247356D01*
X0189941Y0245827D01*
X0189941Y0244173D01*
X0190574Y0242644D01*
X0191744Y0241474D01*
X0192000Y0241368D01*
X0192000Y0238260D01*
X0191187Y0237923D01*
X0189740Y0236476D01*
X0188957Y0234586D01*
X0188957Y0232540D01*
X0189740Y0230650D01*
X0191187Y0229203D01*
X0193077Y0228420D01*
X0195123Y0228420D01*
X0197013Y0229203D01*
X0198460Y0230650D01*
X0199243Y0232540D01*
X0199243Y0234586D01*
X0198460Y0236476D01*
X0197013Y0237923D01*
X0196200Y0238260D01*
X0196200Y0241368D01*
X0196456Y0241474D01*
X0197626Y0242644D01*
X0198259Y0244173D01*
X0198259Y0245827D01*
X0197626Y0247356D01*
X0196456Y0248526D01*
X0197826Y0246872D02*
X0217758Y0246872D01*
X0218956Y0245674D02*
X0198259Y0245674D01*
X0198259Y0244475D02*
X0220155Y0244475D01*
X0221353Y0243277D02*
X0197888Y0243277D01*
X0197060Y0242078D02*
X0222552Y0242078D01*
X0223750Y0240880D02*
X0196200Y0240880D01*
X0196200Y0239681D02*
X0224949Y0239681D01*
X0226147Y0238483D02*
X0218459Y0238483D01*
X0218626Y0238387D02*
X0218261Y0238597D01*
X0217854Y0238706D01*
X0214583Y0238706D01*
X0214583Y0234046D01*
X0213617Y0234046D01*
X0213617Y0238706D01*
X0210346Y0238706D01*
X0209939Y0238597D01*
X0209574Y0238387D01*
X0209276Y0238089D01*
X0209066Y0237724D01*
X0208957Y0237317D01*
X0208957Y0234046D01*
X0213617Y0234046D01*
X0213617Y0233080D01*
X0208957Y0233080D01*
X0208957Y0229809D01*
X0209066Y0229402D01*
X0209276Y0229037D01*
X0209574Y0228739D01*
X0209939Y0228529D01*
X0210346Y0228420D01*
X0213617Y0228420D01*
X0213617Y0233080D01*
X0214583Y0233080D01*
X0214583Y0234046D01*
X0219243Y0234046D01*
X0219243Y0237317D01*
X0219134Y0237724D01*
X0218924Y0238089D01*
X0218626Y0238387D01*
X0219243Y0237284D02*
X0227000Y0237284D01*
X0227000Y0236086D02*
X0219243Y0236086D01*
X0219243Y0234887D02*
X0227000Y0234887D01*
X0227000Y0233689D02*
X0214583Y0233689D01*
X0214583Y0233080D02*
X0219243Y0233080D01*
X0219243Y0229809D01*
X0219134Y0229402D01*
X0218924Y0229037D01*
X0218626Y0228739D01*
X0218261Y0228529D01*
X0217854Y0228420D01*
X0214583Y0228420D01*
X0214583Y0233080D01*
X0214583Y0232490D02*
X0213617Y0232490D01*
X0213617Y0231292D02*
X0214583Y0231292D01*
X0214583Y0230093D02*
X0213617Y0230093D01*
X0213617Y0228895D02*
X0214583Y0228895D01*
X0218781Y0228895D02*
X0227000Y0228895D01*
X0227000Y0230093D02*
X0219243Y0230093D01*
X0219243Y0231292D02*
X0227000Y0231292D01*
X0227000Y0232490D02*
X0219243Y0232490D01*
X0214583Y0234887D02*
X0213617Y0234887D01*
X0213617Y0233689D02*
X0199243Y0233689D01*
X0199223Y0232490D02*
X0208957Y0232490D01*
X0208957Y0231292D02*
X0198726Y0231292D01*
X0197904Y0230093D02*
X0208957Y0230093D01*
X0209419Y0228895D02*
X0196270Y0228895D01*
X0199119Y0234887D02*
X0208957Y0234887D01*
X0208957Y0236086D02*
X0198622Y0236086D01*
X0197653Y0237284D02*
X0208957Y0237284D01*
X0209741Y0238483D02*
X0196200Y0238483D01*
X0192000Y0238483D02*
X0175663Y0238483D01*
X0177653Y0237284D02*
X0190547Y0237284D01*
X0189578Y0236086D02*
X0178622Y0236086D01*
X0179119Y0234887D02*
X0189081Y0234887D01*
X0188957Y0233689D02*
X0179243Y0233689D01*
X0179223Y0232490D02*
X0188977Y0232490D01*
X0189474Y0231292D02*
X0178726Y0231292D01*
X0177904Y0230093D02*
X0190296Y0230093D01*
X0191930Y0228895D02*
X0176270Y0228895D01*
X0171930Y0228895D02*
X0102730Y0228895D01*
X0101678Y0227696D02*
X0227000Y0227696D01*
X0227000Y0226498D02*
X0061427Y0226498D01*
X0063957Y0231292D02*
X0053715Y0231292D01*
X0054137Y0232490D02*
X0063957Y0232490D01*
X0073530Y0238483D02*
X0076292Y0238483D01*
X0080549Y0244475D02*
X0087651Y0244475D01*
X0086052Y0243277D02*
X0082148Y0243277D01*
X0081908Y0238483D02*
X0086292Y0238483D01*
X0077771Y0225299D02*
X0227000Y0225299D01*
X0227000Y0224101D02*
X0078969Y0224101D01*
X0080168Y0222902D02*
X0227000Y0222902D01*
X0227000Y0221703D02*
X0081366Y0221703D01*
X0082565Y0220505D02*
X0227000Y0220505D01*
X0227000Y0219306D02*
X0083763Y0219306D01*
X0084962Y0218108D02*
X0227000Y0218108D01*
X0227000Y0216909D02*
X0086160Y0216909D01*
X0087359Y0215711D02*
X0227000Y0215711D01*
X0227000Y0214512D02*
X0190460Y0214512D01*
X0189849Y0214765D02*
X0191233Y0214192D01*
X0192292Y0213133D01*
X0192306Y0213100D01*
X0192470Y0213100D01*
X0194970Y0210600D01*
X0196200Y0209370D01*
X0196200Y0201976D01*
X0197682Y0201362D01*
X0199462Y0199582D01*
X0200424Y0197258D01*
X0200424Y0194742D01*
X0199462Y0192418D01*
X0197682Y0190638D01*
X0195358Y0189676D01*
X0192842Y0189676D01*
X0190518Y0190638D01*
X0188738Y0192418D01*
X0187776Y0194742D01*
X0187776Y0197258D01*
X0188738Y0199582D01*
X0190518Y0201362D01*
X0192000Y0201976D01*
X0192000Y0207630D01*
X0191528Y0208103D01*
X0191233Y0207808D01*
X0189849Y0207235D01*
X0188351Y0207235D01*
X0186967Y0207808D01*
X0185908Y0208867D01*
X0185335Y0210251D01*
X0185335Y0211749D01*
X0185908Y0213133D01*
X0186967Y0214192D01*
X0188351Y0214765D01*
X0189849Y0214765D01*
X0187740Y0214512D02*
X0160460Y0214512D01*
X0159849Y0214765D02*
X0161233Y0214192D01*
X0162292Y0213133D01*
X0162865Y0211749D01*
X0162865Y0210251D01*
X0162292Y0208867D01*
X0161233Y0207808D01*
X0159849Y0207235D01*
X0158351Y0207235D01*
X0156967Y0207808D01*
X0155908Y0208867D01*
X0155894Y0208900D01*
X0149970Y0208900D01*
X0142470Y0201400D01*
X0094970Y0201400D01*
X0092137Y0198567D01*
X0092459Y0198244D01*
X0093062Y0196788D01*
X0093062Y0195212D01*
X0092459Y0193756D01*
X0091344Y0192641D01*
X0089888Y0192038D01*
X0088312Y0192038D01*
X0086856Y0192641D01*
X0085741Y0193756D01*
X0085138Y0195212D01*
X0085138Y0196788D01*
X0085741Y0198244D01*
X0086856Y0199359D01*
X0087084Y0199453D01*
X0092000Y0204370D01*
X0093230Y0205600D01*
X0140730Y0205600D01*
X0147000Y0211870D01*
X0148230Y0213100D01*
X0155894Y0213100D01*
X0155908Y0213133D01*
X0156967Y0214192D01*
X0158351Y0214765D01*
X0159849Y0214765D01*
X0157740Y0214512D02*
X0101469Y0214512D01*
X0102643Y0213314D02*
X0156089Y0213314D01*
X0156255Y0208520D02*
X0149590Y0208520D01*
X0148391Y0207321D02*
X0158142Y0207321D01*
X0160058Y0207321D02*
X0188142Y0207321D01*
X0190058Y0207321D02*
X0192000Y0207321D01*
X0192000Y0206123D02*
X0147193Y0206123D01*
X0145994Y0204924D02*
X0192000Y0204924D01*
X0192000Y0203726D02*
X0144796Y0203726D01*
X0143597Y0202527D02*
X0192000Y0202527D01*
X0190485Y0201329D02*
X0179215Y0201329D01*
X0179182Y0201362D02*
X0176858Y0202324D01*
X0174342Y0202324D01*
X0172018Y0201362D01*
X0170238Y0199582D01*
X0169276Y0197258D01*
X0169276Y0194742D01*
X0170238Y0192418D01*
X0172018Y0190638D01*
X0173500Y0190024D01*
X0173500Y0188630D01*
X0179500Y0182630D01*
X0179500Y0182068D01*
X0179278Y0181976D01*
X0178124Y0180822D01*
X0177500Y0179316D01*
X0177500Y0177684D01*
X0178124Y0176178D01*
X0179278Y0175024D01*
X0179500Y0174932D01*
X0179500Y0167630D01*
X0180730Y0166400D01*
X0189500Y0157630D01*
X0189500Y0152068D01*
X0189278Y0151976D01*
X0188124Y0150822D01*
X0187500Y0149316D01*
X0187500Y0147684D01*
X0188124Y0146178D01*
X0189278Y0145024D01*
X0190784Y0144400D01*
X0192416Y0144400D01*
X0193922Y0145024D01*
X0195076Y0146178D01*
X0195700Y0147684D01*
X0195700Y0149316D01*
X0195076Y0150822D01*
X0193922Y0151976D01*
X0193700Y0152068D01*
X0193700Y0159370D01*
X0183700Y0169370D01*
X0183700Y0174932D01*
X0183922Y0175024D01*
X0185076Y0176178D01*
X0185700Y0177684D01*
X0185700Y0179316D01*
X0185076Y0180822D01*
X0183922Y0181976D01*
X0183700Y0182068D01*
X0183700Y0184370D01*
X0182470Y0185600D01*
X0177944Y0190126D01*
X0179182Y0190638D01*
X0180962Y0192418D01*
X0181924Y0194742D01*
X0181924Y0197258D01*
X0180962Y0199582D01*
X0179182Y0201362D01*
X0180414Y0200130D02*
X0189286Y0200130D01*
X0188469Y0198932D02*
X0181231Y0198932D01*
X0181728Y0197733D02*
X0187972Y0197733D01*
X0187776Y0196535D02*
X0181924Y0196535D01*
X0181924Y0195336D02*
X0187776Y0195336D01*
X0188026Y0194138D02*
X0181674Y0194138D01*
X0181178Y0192939D02*
X0188522Y0192939D01*
X0189415Y0191741D02*
X0180285Y0191741D01*
X0178950Y0190542D02*
X0190750Y0190542D01*
X0190784Y0182600D02*
X0189278Y0181976D01*
X0188124Y0180822D01*
X0187500Y0179316D01*
X0187500Y0177684D01*
X0188124Y0176178D01*
X0189278Y0175024D01*
X0190784Y0174400D01*
X0192416Y0174400D01*
X0193922Y0175024D01*
X0195076Y0176178D01*
X0195700Y0177684D01*
X0195700Y0179316D01*
X0195076Y0180822D01*
X0193922Y0181976D01*
X0192416Y0182600D01*
X0190784Y0182600D01*
X0189704Y0182153D02*
X0183700Y0182153D01*
X0183700Y0183351D02*
X0205981Y0183351D01*
X0204783Y0182153D02*
X0203496Y0182153D01*
X0203922Y0181976D02*
X0202416Y0182600D01*
X0200784Y0182600D01*
X0199278Y0181976D01*
X0198124Y0180822D01*
X0197500Y0179316D01*
X0197500Y0177684D01*
X0198124Y0176178D01*
X0199278Y0175024D01*
X0200784Y0174400D01*
X0202416Y0174400D01*
X0203922Y0175024D01*
X0205076Y0176178D01*
X0205308Y0176738D01*
X0206200Y0177630D01*
X0214700Y0186130D01*
X0214700Y0189676D01*
X0217987Y0189676D01*
X0218924Y0190613D01*
X0218924Y0201387D01*
X0217987Y0202324D01*
X0207213Y0202324D01*
X0206276Y0201387D01*
X0206276Y0190613D01*
X0207213Y0189676D01*
X0210500Y0189676D01*
X0210500Y0187870D01*
X0204264Y0181634D01*
X0203922Y0181976D01*
X0205928Y0177359D02*
X0227000Y0177359D01*
X0227000Y0178557D02*
X0207127Y0178557D01*
X0208325Y0179756D02*
X0227000Y0179756D01*
X0227000Y0180954D02*
X0209524Y0180954D01*
X0210722Y0182153D02*
X0227000Y0182153D01*
X0227000Y0183351D02*
X0211921Y0183351D01*
X0213119Y0184550D02*
X0227000Y0184550D01*
X0227000Y0185748D02*
X0214318Y0185748D01*
X0214700Y0186947D02*
X0227000Y0186947D01*
X0227000Y0188145D02*
X0214700Y0188145D01*
X0214700Y0189344D02*
X0227000Y0189344D01*
X0227000Y0190542D02*
X0218854Y0190542D01*
X0218924Y0191741D02*
X0227000Y0191741D01*
X0227000Y0192939D02*
X0218924Y0192939D01*
X0218924Y0194138D02*
X0227000Y0194138D01*
X0227000Y0195336D02*
X0218924Y0195336D01*
X0218924Y0196535D02*
X0227000Y0196535D01*
X0227000Y0197733D02*
X0218924Y0197733D01*
X0218924Y0198932D02*
X0227000Y0198932D01*
X0227000Y0200130D02*
X0218924Y0200130D01*
X0218924Y0201329D02*
X0227000Y0201329D01*
X0227000Y0202527D02*
X0196200Y0202527D01*
X0196200Y0203726D02*
X0227000Y0203726D01*
X0227000Y0204924D02*
X0196200Y0204924D01*
X0196200Y0206123D02*
X0227000Y0206123D01*
X0227000Y0207321D02*
X0196200Y0207321D01*
X0196200Y0208520D02*
X0227000Y0208520D01*
X0227000Y0209718D02*
X0195851Y0209718D01*
X0194653Y0210917D02*
X0227000Y0210917D01*
X0227000Y0212115D02*
X0193454Y0212115D01*
X0192111Y0213314D02*
X0227000Y0213314D01*
X0231200Y0213314D02*
X0235033Y0213314D01*
X0235033Y0214512D02*
X0231200Y0214512D01*
X0231200Y0215711D02*
X0235033Y0215711D01*
X0235033Y0216909D02*
X0231200Y0216909D01*
X0231200Y0218108D02*
X0235033Y0218108D01*
X0235033Y0219306D02*
X0231200Y0219306D01*
X0231200Y0220505D02*
X0235033Y0220505D01*
X0235033Y0221703D02*
X0231200Y0221703D01*
X0231200Y0222902D02*
X0235033Y0222902D01*
X0235033Y0224101D02*
X0231200Y0224101D01*
X0231200Y0225299D02*
X0235033Y0225299D01*
X0235033Y0226498D02*
X0231200Y0226498D01*
X0231200Y0227696D02*
X0235033Y0227696D01*
X0235033Y0228895D02*
X0231200Y0228895D01*
X0231200Y0230093D02*
X0235033Y0230093D01*
X0235033Y0231292D02*
X0231200Y0231292D01*
X0231200Y0232490D02*
X0235033Y0232490D01*
X0235033Y0233689D02*
X0231200Y0233689D01*
X0231200Y0234887D02*
X0235033Y0234887D01*
X0235033Y0236086D02*
X0231200Y0236086D01*
X0231200Y0237284D02*
X0235033Y0237284D01*
X0235033Y0238483D02*
X0231200Y0238483D01*
X0230889Y0239681D02*
X0235033Y0239681D01*
X0235033Y0240880D02*
X0229690Y0240880D01*
X0228492Y0242078D02*
X0235033Y0242078D01*
X0235033Y0243277D02*
X0227293Y0243277D01*
X0226095Y0244475D02*
X0235033Y0244475D01*
X0235033Y0245674D02*
X0224896Y0245674D01*
X0223698Y0246872D02*
X0235033Y0246872D01*
X0235033Y0248071D02*
X0222499Y0248071D01*
X0221301Y0249269D02*
X0235033Y0249269D01*
X0235033Y0250468D02*
X0220102Y0250468D01*
X0218904Y0251666D02*
X0235033Y0251666D01*
X0235033Y0252865D02*
X0217705Y0252865D01*
X0216507Y0254063D02*
X0235033Y0254063D01*
X0235033Y0255262D02*
X0215308Y0255262D01*
X0214110Y0256460D02*
X0235033Y0256460D01*
X0235033Y0257659D02*
X0212911Y0257659D01*
X0211712Y0258857D02*
X0235033Y0258857D01*
X0235033Y0260056D02*
X0210514Y0260056D01*
X0209315Y0261254D02*
X0235033Y0261254D01*
X0235033Y0262453D02*
X0208117Y0262453D01*
X0206918Y0263651D02*
X0235033Y0263651D01*
X0235033Y0264850D02*
X0205720Y0264850D01*
X0204521Y0266048D02*
X0235033Y0266048D01*
X0235033Y0267247D02*
X0203323Y0267247D01*
X0202124Y0268445D02*
X0235033Y0268445D01*
X0235033Y0269644D02*
X0200926Y0269644D01*
X0199727Y0270842D02*
X0235033Y0270842D01*
X0214162Y0250468D02*
X0134800Y0250468D01*
X0135041Y0251666D02*
X0152867Y0251666D01*
X0153007Y0251644D02*
X0153261Y0251644D01*
X0153261Y0255911D01*
X0153439Y0255911D01*
X0153439Y0256089D01*
X0157706Y0256089D01*
X0157706Y0256343D01*
X0157599Y0257020D01*
X0157387Y0257672D01*
X0157075Y0258283D01*
X0156672Y0258838D01*
X0156188Y0259322D01*
X0155633Y0259725D01*
X0155022Y0260037D01*
X0154370Y0260249D01*
X0153693Y0260356D01*
X0153439Y0260356D01*
X0153439Y0256089D01*
X0153261Y0256089D01*
X0153261Y0260356D01*
X0153007Y0260356D01*
X0152330Y0260249D01*
X0151678Y0260037D01*
X0151067Y0259725D01*
X0150512Y0259322D01*
X0150027Y0258838D01*
X0149624Y0258283D01*
X0149313Y0257672D01*
X0149101Y0257020D01*
X0148994Y0256343D01*
X0148994Y0256089D01*
X0153261Y0256089D01*
X0153261Y0255911D01*
X0148994Y0255911D01*
X0148994Y0255657D01*
X0149101Y0254980D01*
X0149313Y0254328D01*
X0149624Y0253717D01*
X0150027Y0253162D01*
X0150512Y0252677D01*
X0151067Y0252274D01*
X0151678Y0251963D01*
X0152330Y0251751D01*
X0153007Y0251644D01*
X0153261Y0251666D02*
X0153439Y0251666D01*
X0153439Y0251644D02*
X0153693Y0251644D01*
X0154370Y0251751D01*
X0155022Y0251963D01*
X0155633Y0252274D01*
X0156188Y0252677D01*
X0156672Y0253162D01*
X0157075Y0253717D01*
X0157387Y0254328D01*
X0157599Y0254980D01*
X0157706Y0255657D01*
X0157706Y0255911D01*
X0153439Y0255911D01*
X0153439Y0251644D01*
X0153833Y0251666D02*
X0212964Y0251666D01*
X0211765Y0252865D02*
X0156375Y0252865D01*
X0157252Y0254063D02*
X0210567Y0254063D01*
X0209368Y0255262D02*
X0157643Y0255262D01*
X0157687Y0256460D02*
X0208170Y0256460D01*
X0206971Y0257659D02*
X0157391Y0257659D01*
X0156653Y0258857D02*
X0205773Y0258857D01*
X0204574Y0260056D02*
X0154963Y0260056D01*
X0153439Y0260056D02*
X0153261Y0260056D01*
X0153261Y0258857D02*
X0153439Y0258857D01*
X0153439Y0257659D02*
X0153261Y0257659D01*
X0153261Y0256460D02*
X0153439Y0256460D01*
X0153439Y0255262D02*
X0153261Y0255262D01*
X0153261Y0254063D02*
X0153439Y0254063D01*
X0153439Y0252865D02*
X0153261Y0252865D01*
X0150325Y0252865D02*
X0135956Y0252865D01*
X0135956Y0254063D02*
X0149448Y0254063D01*
X0149057Y0255262D02*
X0135956Y0255262D01*
X0135956Y0256460D02*
X0149013Y0256460D01*
X0149309Y0257659D02*
X0135956Y0257659D01*
X0135956Y0258857D02*
X0150047Y0258857D01*
X0151737Y0260056D02*
X0135319Y0260056D01*
X0136380Y0261254D02*
X0203376Y0261254D01*
X0202177Y0262453D02*
X0137130Y0262453D01*
X0137300Y0263651D02*
X0200979Y0263651D01*
X0199780Y0264850D02*
X0137300Y0264850D01*
X0137300Y0266048D02*
X0198582Y0266048D01*
X0197383Y0267247D02*
X0137300Y0267247D01*
X0137300Y0268445D02*
X0196185Y0268445D01*
X0194986Y0269644D02*
X0137300Y0269644D01*
X0137300Y0270842D02*
X0193788Y0270842D01*
X0191289Y0248071D02*
X0176911Y0248071D01*
X0177814Y0246872D02*
X0190374Y0246872D01*
X0189941Y0245674D02*
X0178204Y0245674D01*
X0178228Y0244475D02*
X0189941Y0244475D01*
X0190312Y0243277D02*
X0177890Y0243277D01*
X0177060Y0242078D02*
X0191140Y0242078D01*
X0192000Y0240880D02*
X0174672Y0240880D01*
X0174100Y0240880D02*
X0174100Y0240880D01*
X0173528Y0240880D02*
X0142470Y0240880D01*
X0142455Y0240903D02*
X0141930Y0241427D01*
X0141314Y0241839D01*
X0140628Y0242123D01*
X0139901Y0242268D01*
X0139530Y0242268D01*
X0139530Y0238503D01*
X0139530Y0242268D01*
X0139159Y0242268D01*
X0138432Y0242123D01*
X0137746Y0241839D01*
X0137130Y0241427D01*
X0136605Y0240903D01*
X0136193Y0240286D01*
X0135909Y0239601D01*
X0135765Y0238873D01*
X0135765Y0238503D01*
X0139530Y0238503D01*
X0139530Y0238503D01*
X0143295Y0238503D01*
X0143295Y0238873D01*
X0143151Y0239601D01*
X0142867Y0240286D01*
X0142455Y0240903D01*
X0143117Y0239681D02*
X0192000Y0239681D01*
X0174100Y0242078D02*
X0174100Y0242078D01*
X0174100Y0243277D02*
X0174100Y0243277D01*
X0174100Y0244475D02*
X0174100Y0244475D01*
X0174100Y0245674D02*
X0174100Y0245674D01*
X0174100Y0246872D02*
X0174100Y0246872D01*
X0174100Y0248071D02*
X0174100Y0248071D01*
X0170310Y0243277D02*
X0134800Y0243277D01*
X0134800Y0242078D02*
X0138323Y0242078D01*
X0139530Y0242078D02*
X0139530Y0242078D01*
X0139530Y0240880D02*
X0139530Y0240880D01*
X0139530Y0239681D02*
X0139530Y0239681D01*
X0139530Y0238503D02*
X0139530Y0238502D01*
X0139530Y0234737D01*
X0139901Y0234737D01*
X0140628Y0234882D01*
X0141314Y0235166D01*
X0141930Y0235578D01*
X0142455Y0236102D01*
X0142867Y0236719D01*
X0143151Y0237404D01*
X0143295Y0238132D01*
X0143295Y0238502D01*
X0139530Y0238502D01*
X0139530Y0238502D01*
X0139530Y0234737D01*
X0139159Y0234737D01*
X0138432Y0234882D01*
X0137746Y0235166D01*
X0137130Y0235578D01*
X0136605Y0236102D01*
X0136193Y0236719D01*
X0135909Y0237404D01*
X0135765Y0238132D01*
X0135765Y0238502D01*
X0139530Y0238502D01*
X0139530Y0238503D01*
X0139530Y0238483D02*
X0139530Y0238483D01*
X0139530Y0237284D02*
X0139530Y0237284D01*
X0139530Y0236086D02*
X0139530Y0236086D01*
X0139530Y0234887D02*
X0139530Y0234887D01*
X0140641Y0234887D02*
X0147517Y0234887D01*
X0146319Y0233689D02*
X0102293Y0233689D01*
X0096731Y0214512D02*
X0090460Y0214512D01*
X0092111Y0213314D02*
X0095557Y0213314D01*
X0095698Y0208520D02*
X0091945Y0208520D01*
X0090058Y0207321D02*
X0097113Y0207321D01*
X0101087Y0207321D02*
X0142452Y0207321D01*
X0143650Y0208520D02*
X0102502Y0208520D01*
X0103071Y0209718D02*
X0144849Y0209718D01*
X0146047Y0210917D02*
X0103259Y0210917D01*
X0103140Y0212115D02*
X0147246Y0212115D01*
X0141253Y0206123D02*
X0081200Y0206123D01*
X0081200Y0207321D02*
X0088142Y0207321D01*
X0086255Y0208520D02*
X0081945Y0208520D01*
X0082292Y0208867D02*
X0082865Y0210251D01*
X0082865Y0211749D01*
X0082292Y0213133D01*
X0081233Y0214192D01*
X0079849Y0214765D01*
X0078351Y0214765D01*
X0076967Y0214192D01*
X0075908Y0213133D01*
X0075335Y0211749D01*
X0075335Y0210251D01*
X0075908Y0208867D01*
X0076967Y0207808D01*
X0077000Y0207794D01*
X0077000Y0199419D01*
X0076856Y0199359D01*
X0075741Y0198244D01*
X0075681Y0198100D01*
X0067306Y0198100D01*
X0067292Y0198133D01*
X0066233Y0199192D01*
X0064849Y0199765D01*
X0063351Y0199765D01*
X0061967Y0199192D01*
X0060908Y0198133D01*
X0060335Y0196749D01*
X0060335Y0195251D01*
X0060908Y0193867D01*
X0061967Y0192808D01*
X0063351Y0192235D01*
X0064849Y0192235D01*
X0066233Y0192808D01*
X0067292Y0193867D01*
X0067306Y0193900D01*
X0075681Y0193900D01*
X0075741Y0193756D01*
X0076856Y0192641D01*
X0078312Y0192038D01*
X0079888Y0192038D01*
X0081344Y0192641D01*
X0082459Y0193756D01*
X0083062Y0195212D01*
X0083062Y0196788D01*
X0082459Y0198244D01*
X0081344Y0199359D01*
X0081200Y0199419D01*
X0081200Y0207794D01*
X0081233Y0207808D01*
X0082292Y0208867D01*
X0082645Y0209718D02*
X0085555Y0209718D01*
X0085335Y0210917D02*
X0082865Y0210917D01*
X0082714Y0212115D02*
X0085015Y0212115D01*
X0083816Y0213314D02*
X0082111Y0213314D01*
X0082618Y0214512D02*
X0080460Y0214512D01*
X0081419Y0215711D02*
X0062214Y0215711D01*
X0062756Y0214512D02*
X0077740Y0214512D01*
X0076089Y0213314D02*
X0062865Y0213314D01*
X0062602Y0212115D02*
X0075486Y0212115D01*
X0075335Y0210917D02*
X0061842Y0210917D01*
X0061200Y0209718D02*
X0075555Y0209718D01*
X0076255Y0208520D02*
X0061200Y0208520D01*
X0060891Y0207321D02*
X0077000Y0207321D01*
X0077000Y0206123D02*
X0059693Y0206123D01*
X0058494Y0204924D02*
X0077000Y0204924D01*
X0077000Y0203726D02*
X0057296Y0203726D01*
X0056200Y0202527D02*
X0077000Y0202527D01*
X0077000Y0201329D02*
X0056200Y0201329D01*
X0056200Y0200130D02*
X0077000Y0200130D01*
X0076428Y0198932D02*
X0066493Y0198932D01*
X0061707Y0198932D02*
X0056493Y0198932D01*
X0057458Y0197733D02*
X0060742Y0197733D01*
X0060335Y0196535D02*
X0057865Y0196535D01*
X0057865Y0195336D02*
X0060335Y0195336D01*
X0060796Y0194138D02*
X0057404Y0194138D01*
X0056364Y0192939D02*
X0061836Y0192939D01*
X0058726Y0189344D02*
X0096972Y0189344D01*
X0097223Y0189511D02*
X0096574Y0189078D01*
X0096022Y0188526D01*
X0095589Y0187877D01*
X0095290Y0187156D01*
X0095138Y0186390D01*
X0095138Y0186000D01*
X0099100Y0186000D01*
X0103062Y0186000D01*
X0103062Y0186390D01*
X0102910Y0187156D01*
X0102611Y0187877D01*
X0102178Y0188526D01*
X0101626Y0189078D01*
X0100977Y0189511D01*
X0100256Y0189810D01*
X0099490Y0189962D01*
X0099100Y0189962D01*
X0099100Y0186000D01*
X0099100Y0186000D01*
X0099100Y0186000D01*
X0103062Y0186000D01*
X0103062Y0185610D01*
X0102910Y0184844D01*
X0102611Y0184123D01*
X0102178Y0183474D01*
X0101626Y0182922D01*
X0100977Y0182489D01*
X0100256Y0182190D01*
X0099490Y0182038D01*
X0099100Y0182038D01*
X0099100Y0186000D01*
X0099100Y0186000D01*
X0099100Y0186000D01*
X0099100Y0189962D01*
X0098710Y0189962D01*
X0097944Y0189810D01*
X0097223Y0189511D01*
X0099100Y0189344D02*
X0099100Y0189344D01*
X0099100Y0188145D02*
X0099100Y0188145D01*
X0099100Y0186947D02*
X0099100Y0186947D01*
X0099100Y0186000D02*
X0095138Y0186000D01*
X0095138Y0185610D01*
X0095290Y0184844D01*
X0095589Y0184123D01*
X0096022Y0183474D01*
X0096574Y0182922D01*
X0097223Y0182489D01*
X0097944Y0182190D01*
X0098710Y0182038D01*
X0099100Y0182038D01*
X0099100Y0186000D01*
X0099100Y0185748D02*
X0099100Y0185748D01*
X0099100Y0184550D02*
X0099100Y0184550D01*
X0099100Y0183351D02*
X0099100Y0183351D01*
X0099100Y0182153D02*
X0099100Y0182153D01*
X0100068Y0182153D02*
X0107000Y0182153D01*
X0106145Y0183351D02*
X0102055Y0183351D01*
X0102788Y0184550D02*
X0105412Y0184550D01*
X0105138Y0185748D02*
X0103062Y0185748D01*
X0102952Y0186947D02*
X0105203Y0186947D01*
X0105700Y0188145D02*
X0102432Y0188145D01*
X0101228Y0189344D02*
X0106840Y0189344D01*
X0111360Y0189344D02*
X0116840Y0189344D01*
X0115700Y0188145D02*
X0112500Y0188145D01*
X0112997Y0186947D02*
X0115203Y0186947D01*
X0115138Y0185748D02*
X0113062Y0185748D01*
X0112788Y0184550D02*
X0115412Y0184550D01*
X0115900Y0183351D02*
X0112055Y0183351D01*
X0111200Y0182153D02*
X0115900Y0182153D01*
X0115900Y0180954D02*
X0111200Y0180954D01*
X0110825Y0179756D02*
X0115900Y0179756D01*
X0115900Y0178557D02*
X0109627Y0178557D01*
X0108428Y0177359D02*
X0115900Y0177359D01*
X0115900Y0176160D02*
X0107230Y0176160D01*
X0106031Y0174962D02*
X0116066Y0174962D01*
X0116811Y0173763D02*
X0104833Y0173763D01*
X0103634Y0172565D02*
X0117912Y0172565D01*
X0118409Y0171366D02*
X0102436Y0171366D01*
X0101237Y0170168D02*
X0119806Y0170168D01*
X0120502Y0167121D02*
X0119816Y0166837D01*
X0119200Y0166425D01*
X0118675Y0165900D01*
X0118263Y0165284D01*
X0117979Y0164598D01*
X0117835Y0163871D01*
X0117835Y0163500D01*
X0117835Y0163129D01*
X0117979Y0162402D01*
X0118263Y0161716D01*
X0118675Y0161100D01*
X0119200Y0160575D01*
X0119816Y0160163D01*
X0120502Y0159879D01*
X0121229Y0159735D01*
X0121600Y0159735D01*
X0121971Y0159735D01*
X0122698Y0159879D01*
X0123384Y0160163D01*
X0124000Y0160575D01*
X0124525Y0161100D01*
X0124937Y0161716D01*
X0125221Y0162402D01*
X0125365Y0163129D01*
X0125365Y0163500D01*
X0125365Y0163871D01*
X0125221Y0164598D01*
X0124937Y0165284D01*
X0124525Y0165900D01*
X0124000Y0166425D01*
X0123384Y0166837D01*
X0122698Y0167121D01*
X0121971Y0167265D01*
X0121600Y0167265D01*
X0121229Y0167265D01*
X0120502Y0167121D01*
X0121600Y0167265D02*
X0121600Y0163500D01*
X0125365Y0163500D01*
X0121600Y0163500D01*
X0121600Y0163500D01*
X0121600Y0163500D01*
X0121600Y0167265D01*
X0121600Y0166572D02*
X0121600Y0166572D01*
X0121600Y0165373D02*
X0121600Y0165373D01*
X0121600Y0164175D02*
X0121600Y0164175D01*
X0121600Y0163500D02*
X0121600Y0163500D01*
X0121600Y0159735D01*
X0121600Y0163500D01*
X0121600Y0163500D01*
X0117835Y0163500D01*
X0121600Y0163500D01*
X0121600Y0162976D02*
X0121600Y0162976D01*
X0121600Y0161778D02*
X0121600Y0161778D01*
X0121600Y0160579D02*
X0121600Y0160579D01*
X0124004Y0160579D02*
X0127150Y0160579D01*
X0127150Y0159381D02*
X0093700Y0159381D01*
X0093700Y0158182D02*
X0127150Y0158182D01*
X0127150Y0156984D02*
X0123028Y0156984D01*
X0124640Y0155785D02*
X0127150Y0155785D01*
X0127150Y0154587D02*
X0125225Y0154587D01*
X0125365Y0153388D02*
X0127150Y0153388D01*
X0127150Y0152190D02*
X0125133Y0152190D01*
X0124416Y0150991D02*
X0127150Y0150991D01*
X0127150Y0149793D02*
X0122489Y0149793D01*
X0120711Y0149793D02*
X0115328Y0149793D01*
X0116826Y0150991D02*
X0118784Y0150991D01*
X0118560Y0155785D02*
X0094640Y0155785D01*
X0095225Y0154587D02*
X0114597Y0154587D01*
X0113099Y0153388D02*
X0095365Y0153388D01*
X0095133Y0152190D02*
X0111601Y0152190D01*
X0110103Y0150991D02*
X0094416Y0150991D01*
X0092489Y0149793D02*
X0108604Y0149793D01*
X0110833Y0146197D02*
X0111472Y0146197D01*
X0111967Y0146692D02*
X0110908Y0145633D01*
X0110335Y0144249D01*
X0110335Y0142751D01*
X0110908Y0141367D01*
X0111967Y0140308D01*
X0113351Y0139735D01*
X0114849Y0139735D01*
X0116233Y0140308D01*
X0117292Y0141367D01*
X0117865Y0142751D01*
X0117865Y0144249D01*
X0117292Y0145633D01*
X0116233Y0146692D01*
X0114849Y0147265D01*
X0113351Y0147265D01*
X0111967Y0146692D01*
X0112331Y0147396D02*
X0127150Y0147396D01*
X0126233Y0146692D02*
X0124849Y0147265D01*
X0123351Y0147265D01*
X0121967Y0146692D01*
X0120908Y0145633D01*
X0120335Y0144249D01*
X0120335Y0142751D01*
X0120908Y0141367D01*
X0121967Y0140308D01*
X0123351Y0139735D01*
X0124849Y0139735D01*
X0126233Y0140308D01*
X0127292Y0141367D01*
X0127865Y0142751D01*
X0127865Y0144249D01*
X0127292Y0145633D01*
X0126233Y0146692D01*
X0126728Y0146197D02*
X0127633Y0146197D01*
X0127555Y0144999D02*
X0128826Y0144999D01*
X0127865Y0143800D02*
X0130024Y0143800D01*
X0131223Y0142602D02*
X0127804Y0142602D01*
X0127307Y0141403D02*
X0132421Y0141403D01*
X0133620Y0140205D02*
X0125984Y0140205D01*
X0122216Y0140205D02*
X0115984Y0140205D01*
X0117307Y0141403D02*
X0120893Y0141403D01*
X0120396Y0142602D02*
X0117804Y0142602D01*
X0117865Y0143800D02*
X0120335Y0143800D01*
X0120645Y0144999D02*
X0117555Y0144999D01*
X0116728Y0146197D02*
X0121472Y0146197D01*
X0127150Y0148594D02*
X0113830Y0148594D01*
X0110645Y0144999D02*
X0109335Y0144999D01*
X0110335Y0143800D02*
X0107865Y0143800D01*
X0107804Y0142602D02*
X0110396Y0142602D01*
X0110893Y0141403D02*
X0107307Y0141403D01*
X0105984Y0140205D02*
X0112216Y0140205D01*
X0102216Y0140205D02*
X0099421Y0140205D01*
X0098259Y0141403D02*
X0100893Y0141403D01*
X0100396Y0142602D02*
X0097938Y0142602D01*
X0097182Y0143800D02*
X0100335Y0143800D01*
X0093700Y0156984D02*
X0120172Y0156984D01*
X0119196Y0160579D02*
X0094004Y0160579D01*
X0094962Y0161778D02*
X0118238Y0161778D01*
X0117865Y0162976D02*
X0095365Y0162976D01*
X0095365Y0164175D02*
X0117895Y0164175D01*
X0118323Y0165373D02*
X0096443Y0165373D01*
X0097642Y0166572D02*
X0119420Y0166572D01*
X0123780Y0166572D02*
X0127150Y0166572D01*
X0127150Y0165373D02*
X0124877Y0165373D01*
X0125305Y0164175D02*
X0127150Y0164175D01*
X0127150Y0162976D02*
X0125335Y0162976D01*
X0124962Y0161778D02*
X0127150Y0161778D01*
X0126554Y0167770D02*
X0098840Y0167770D01*
X0100039Y0168969D02*
X0125356Y0168969D01*
X0124157Y0170168D02*
X0123394Y0170168D01*
X0128414Y0174962D02*
X0139514Y0174962D01*
X0139451Y0174993D02*
X0140026Y0174700D01*
X0140640Y0174501D01*
X0141277Y0174400D01*
X0141400Y0174400D01*
X0141400Y0178300D01*
X0137500Y0178300D01*
X0137500Y0178177D01*
X0137601Y0177540D01*
X0137800Y0176926D01*
X0138093Y0176351D01*
X0138473Y0175829D01*
X0138929Y0175373D01*
X0139451Y0174993D01*
X0138232Y0176160D02*
X0127215Y0176160D01*
X0129612Y0173763D02*
X0179500Y0173763D01*
X0179500Y0172565D02*
X0130811Y0172565D01*
X0132009Y0171366D02*
X0179500Y0171366D01*
X0179500Y0170168D02*
X0133123Y0170168D01*
X0133550Y0168969D02*
X0179500Y0168969D01*
X0179500Y0167770D02*
X0133550Y0167770D01*
X0133550Y0166572D02*
X0180558Y0166572D01*
X0181757Y0165373D02*
X0133550Y0165373D01*
X0133550Y0164175D02*
X0182955Y0164175D01*
X0184154Y0162976D02*
X0133550Y0162976D01*
X0133550Y0161778D02*
X0185352Y0161778D01*
X0186551Y0160579D02*
X0133550Y0160579D01*
X0133550Y0159381D02*
X0187749Y0159381D01*
X0188948Y0158182D02*
X0133550Y0158182D01*
X0133550Y0156984D02*
X0154614Y0156984D01*
X0154500Y0156870D02*
X0149838Y0152208D01*
X0149278Y0151976D01*
X0148124Y0150822D01*
X0147500Y0149316D01*
X0147500Y0147684D01*
X0148124Y0146178D01*
X0149278Y0145024D01*
X0150784Y0144400D01*
X0152416Y0144400D01*
X0153922Y0145024D01*
X0155076Y0146178D01*
X0155700Y0147684D01*
X0155700Y0149316D01*
X0155076Y0150822D01*
X0154734Y0151164D01*
X0157470Y0153900D01*
X0175730Y0153900D01*
X0178466Y0151164D01*
X0178124Y0150822D01*
X0177500Y0149316D01*
X0177500Y0147684D01*
X0178124Y0146178D01*
X0179278Y0145024D01*
X0180784Y0144400D01*
X0182416Y0144400D01*
X0183922Y0145024D01*
X0185076Y0146178D01*
X0185700Y0147684D01*
X0185700Y0149316D01*
X0185076Y0150822D01*
X0183922Y0151976D01*
X0183362Y0152208D01*
X0182470Y0153100D01*
X0177470Y0158100D01*
X0155730Y0158100D01*
X0154500Y0156870D01*
X0153416Y0155785D02*
X0133550Y0155785D01*
X0133550Y0154587D02*
X0152217Y0154587D01*
X0151019Y0153388D02*
X0133550Y0153388D01*
X0133550Y0152190D02*
X0139811Y0152190D01*
X0140026Y0152300D02*
X0139451Y0152007D01*
X0138929Y0151627D01*
X0138473Y0151171D01*
X0138093Y0150649D01*
X0137800Y0150074D01*
X0137601Y0149460D01*
X0137500Y0148823D01*
X0137500Y0148700D01*
X0141400Y0148700D01*
X0141400Y0152600D01*
X0141277Y0152600D01*
X0140640Y0152499D01*
X0140026Y0152300D01*
X0141400Y0152190D02*
X0141800Y0152190D01*
X0141800Y0152600D02*
X0141800Y0148700D01*
X0141400Y0148700D01*
X0141400Y0148300D01*
X0137500Y0148300D01*
X0137500Y0148177D01*
X0137601Y0147540D01*
X0137800Y0146926D01*
X0138093Y0146351D01*
X0138473Y0145829D01*
X0138929Y0145373D01*
X0139451Y0144993D01*
X0140026Y0144700D01*
X0140640Y0144501D01*
X0141277Y0144400D01*
X0141400Y0144400D01*
X0141400Y0148300D01*
X0141800Y0148300D01*
X0141800Y0148700D01*
X0145700Y0148700D01*
X0145700Y0148823D01*
X0145599Y0149460D01*
X0145400Y0150074D01*
X0145107Y0150649D01*
X0144727Y0151171D01*
X0144271Y0151627D01*
X0143749Y0152007D01*
X0143174Y0152300D01*
X0142560Y0152499D01*
X0141923Y0152600D01*
X0141800Y0152600D01*
X0141800Y0150991D02*
X0141400Y0150991D01*
X0141400Y0149793D02*
X0141800Y0149793D01*
X0141800Y0148594D02*
X0147500Y0148594D01*
X0147620Y0147396D02*
X0145552Y0147396D01*
X0145599Y0147540D02*
X0145700Y0148177D01*
X0145700Y0148300D01*
X0141800Y0148300D01*
X0141800Y0144400D01*
X0141923Y0144400D01*
X0142560Y0144501D01*
X0143174Y0144700D01*
X0143749Y0144993D01*
X0144271Y0145373D01*
X0144727Y0145829D01*
X0145107Y0146351D01*
X0145400Y0146926D01*
X0145599Y0147540D01*
X0144995Y0146197D02*
X0148116Y0146197D01*
X0149339Y0144999D02*
X0143756Y0144999D01*
X0141800Y0144999D02*
X0141400Y0144999D01*
X0141400Y0146197D02*
X0141800Y0146197D01*
X0141800Y0147396D02*
X0141400Y0147396D01*
X0141400Y0148594D02*
X0134281Y0148594D01*
X0133550Y0149793D02*
X0137709Y0149793D01*
X0138342Y0150991D02*
X0133550Y0150991D01*
X0135480Y0147396D02*
X0137648Y0147396D01*
X0138205Y0146197D02*
X0136678Y0146197D01*
X0137877Y0144999D02*
X0139444Y0144999D01*
X0143389Y0152190D02*
X0149794Y0152190D01*
X0148293Y0150991D02*
X0144858Y0150991D01*
X0145491Y0149793D02*
X0147698Y0149793D01*
X0153861Y0144999D02*
X0159444Y0144999D01*
X0159451Y0144993D02*
X0160026Y0144700D01*
X0160640Y0144501D01*
X0161277Y0144400D01*
X0161400Y0144400D01*
X0161400Y0148300D01*
X0157500Y0148300D01*
X0157500Y0148177D01*
X0157601Y0147540D01*
X0157800Y0146926D01*
X0158093Y0146351D01*
X0158473Y0145829D01*
X0158929Y0145373D01*
X0159451Y0144993D01*
X0158205Y0146197D02*
X0155084Y0146197D01*
X0155580Y0147396D02*
X0157648Y0147396D01*
X0157500Y0148700D02*
X0161400Y0148700D01*
X0161400Y0152600D01*
X0161277Y0152600D01*
X0160640Y0152499D01*
X0160026Y0152300D01*
X0159451Y0152007D01*
X0158929Y0151627D01*
X0158473Y0151171D01*
X0158093Y0150649D01*
X0157800Y0150074D01*
X0157601Y0149460D01*
X0157500Y0148823D01*
X0157500Y0148700D01*
X0157709Y0149793D02*
X0155502Y0149793D01*
X0155700Y0148594D02*
X0161400Y0148594D01*
X0161400Y0148700D02*
X0161400Y0148300D01*
X0161800Y0148300D01*
X0161800Y0148700D01*
X0161400Y0148700D01*
X0161800Y0148700D02*
X0161800Y0152600D01*
X0161923Y0152600D01*
X0162560Y0152499D01*
X0163174Y0152300D01*
X0163749Y0152007D01*
X0164271Y0151627D01*
X0164727Y0151171D01*
X0165107Y0150649D01*
X0165400Y0150074D01*
X0165599Y0149460D01*
X0165700Y0148823D01*
X0165700Y0148700D01*
X0161800Y0148700D01*
X0161800Y0148594D02*
X0167500Y0148594D01*
X0167620Y0147396D02*
X0165552Y0147396D01*
X0165599Y0147540D02*
X0165700Y0148177D01*
X0165700Y0148300D01*
X0161800Y0148300D01*
X0161800Y0144400D01*
X0161923Y0144400D01*
X0162560Y0144501D01*
X0163174Y0144700D01*
X0163749Y0144993D01*
X0164271Y0145373D01*
X0164727Y0145829D01*
X0165107Y0146351D01*
X0165400Y0146926D01*
X0165599Y0147540D01*
X0164995Y0146197D02*
X0168116Y0146197D01*
X0168405Y0144999D02*
X0163756Y0144999D01*
X0162848Y0143800D02*
X0168405Y0143800D01*
X0168405Y0142602D02*
X0164524Y0142602D01*
X0165722Y0141403D02*
X0168405Y0141403D01*
X0168405Y0140205D02*
X0166921Y0140205D01*
X0168119Y0139006D02*
X0168405Y0139006D01*
X0163862Y0134212D02*
X0160365Y0134212D01*
X0160365Y0133014D02*
X0165061Y0133014D01*
X0166259Y0131815D02*
X0159978Y0131815D01*
X0159884Y0135411D02*
X0162664Y0135411D01*
X0161465Y0136609D02*
X0158816Y0136609D01*
X0161400Y0144999D02*
X0161800Y0144999D01*
X0161800Y0146197D02*
X0161400Y0146197D01*
X0161400Y0147396D02*
X0161800Y0147396D01*
X0161800Y0149793D02*
X0161400Y0149793D01*
X0161400Y0150991D02*
X0161800Y0150991D01*
X0161800Y0152190D02*
X0161400Y0152190D01*
X0159811Y0152190D02*
X0155760Y0152190D01*
X0154907Y0150991D02*
X0158342Y0150991D01*
X0156958Y0153388D02*
X0176242Y0153388D01*
X0177440Y0152190D02*
X0173406Y0152190D01*
X0174907Y0150991D02*
X0178293Y0150991D01*
X0177698Y0149793D02*
X0175502Y0149793D01*
X0175700Y0148594D02*
X0177500Y0148594D01*
X0177620Y0147396D02*
X0175580Y0147396D01*
X0175084Y0146197D02*
X0178116Y0146197D01*
X0179339Y0144999D02*
X0174805Y0144999D01*
X0174805Y0143800D02*
X0210905Y0143800D01*
X0210905Y0142602D02*
X0174805Y0142602D01*
X0174805Y0141403D02*
X0210905Y0141403D01*
X0210905Y0140205D02*
X0174805Y0140205D01*
X0174805Y0139006D02*
X0210905Y0139006D01*
X0210905Y0137808D02*
X0174805Y0137808D01*
X0167698Y0149793D02*
X0165491Y0149793D01*
X0164858Y0150991D02*
X0168293Y0150991D01*
X0169794Y0152190D02*
X0163389Y0152190D01*
X0162416Y0174400D02*
X0160784Y0174400D01*
X0159278Y0175024D01*
X0158124Y0176178D01*
X0157500Y0177684D01*
X0157500Y0179316D01*
X0158124Y0180822D01*
X0159278Y0181976D01*
X0160784Y0182600D01*
X0162416Y0182600D01*
X0163922Y0181976D01*
X0165076Y0180822D01*
X0165700Y0179316D01*
X0165700Y0177684D01*
X0165076Y0176178D01*
X0163922Y0175024D01*
X0162416Y0174400D01*
X0163771Y0174962D02*
X0169514Y0174962D01*
X0169451Y0174993D02*
X0170026Y0174700D01*
X0170640Y0174501D01*
X0171277Y0174400D01*
X0171400Y0174400D01*
X0171400Y0178300D01*
X0167500Y0178300D01*
X0167500Y0178177D01*
X0167601Y0177540D01*
X0167800Y0176926D01*
X0168093Y0176351D01*
X0168473Y0175829D01*
X0168929Y0175373D01*
X0169451Y0174993D01*
X0168232Y0176160D02*
X0165058Y0176160D01*
X0165565Y0177359D02*
X0167660Y0177359D01*
X0167500Y0178700D02*
X0171400Y0178700D01*
X0171400Y0182600D01*
X0171277Y0182600D01*
X0170640Y0182499D01*
X0170026Y0182300D01*
X0169451Y0182007D01*
X0168929Y0181627D01*
X0168473Y0181171D01*
X0168093Y0180649D01*
X0167800Y0180074D01*
X0167601Y0179460D01*
X0167500Y0178823D01*
X0167500Y0178700D01*
X0167697Y0179756D02*
X0165518Y0179756D01*
X0165700Y0178557D02*
X0171400Y0178557D01*
X0171400Y0178700D02*
X0171400Y0178300D01*
X0171800Y0178300D01*
X0171800Y0178700D01*
X0171400Y0178700D01*
X0171800Y0178700D02*
X0171800Y0182600D01*
X0171923Y0182600D01*
X0172560Y0182499D01*
X0173174Y0182300D01*
X0173749Y0182007D01*
X0174271Y0181627D01*
X0174727Y0181171D01*
X0175107Y0180649D01*
X0175400Y0180074D01*
X0175599Y0179460D01*
X0175700Y0178823D01*
X0175700Y0178700D01*
X0171800Y0178700D01*
X0171800Y0178557D02*
X0177500Y0178557D01*
X0177635Y0177359D02*
X0175540Y0177359D01*
X0175599Y0177540D02*
X0175700Y0178177D01*
X0175700Y0178300D01*
X0171800Y0178300D01*
X0171800Y0174400D01*
X0171923Y0174400D01*
X0172560Y0174501D01*
X0173174Y0174700D01*
X0173749Y0174993D01*
X0174271Y0175373D01*
X0174727Y0175829D01*
X0175107Y0176351D01*
X0175400Y0176926D01*
X0175599Y0177540D01*
X0174968Y0176160D02*
X0178142Y0176160D01*
X0179429Y0174962D02*
X0173686Y0174962D01*
X0171800Y0174962D02*
X0171400Y0174962D01*
X0171400Y0176160D02*
X0171800Y0176160D01*
X0171800Y0177359D02*
X0171400Y0177359D01*
X0171400Y0179756D02*
X0171800Y0179756D01*
X0171800Y0180954D02*
X0171400Y0180954D01*
X0171400Y0182153D02*
X0171800Y0182153D01*
X0173462Y0182153D02*
X0179500Y0182153D01*
X0178779Y0183351D02*
X0122300Y0183351D01*
X0122300Y0182153D02*
X0139738Y0182153D01*
X0139451Y0182007D02*
X0140026Y0182300D01*
X0140640Y0182499D01*
X0141277Y0182600D01*
X0141400Y0182600D01*
X0141400Y0178700D01*
X0141800Y0178700D01*
X0141800Y0182600D01*
X0141923Y0182600D01*
X0142560Y0182499D01*
X0143174Y0182300D01*
X0143749Y0182007D01*
X0144271Y0181627D01*
X0144727Y0181171D01*
X0145107Y0180649D01*
X0145400Y0180074D01*
X0145599Y0179460D01*
X0145700Y0178823D01*
X0145700Y0178700D01*
X0141800Y0178700D01*
X0141800Y0178300D01*
X0145700Y0178300D01*
X0145700Y0178177D01*
X0145599Y0177540D01*
X0145400Y0176926D01*
X0145107Y0176351D01*
X0144727Y0175829D01*
X0144271Y0175373D01*
X0143749Y0174993D01*
X0143174Y0174700D01*
X0142560Y0174501D01*
X0141923Y0174400D01*
X0141800Y0174400D01*
X0141800Y0178300D01*
X0141400Y0178300D01*
X0141400Y0178700D01*
X0137500Y0178700D01*
X0137500Y0178823D01*
X0137601Y0179460D01*
X0137800Y0180074D01*
X0138093Y0180649D01*
X0138473Y0181171D01*
X0138929Y0181627D01*
X0139451Y0182007D01*
X0138315Y0180954D02*
X0122300Y0180954D01*
X0122300Y0179756D02*
X0137697Y0179756D01*
X0137660Y0177359D02*
X0122300Y0177359D01*
X0122300Y0178557D02*
X0141400Y0178557D01*
X0141800Y0178557D02*
X0151400Y0178557D01*
X0151400Y0178700D02*
X0151400Y0178300D01*
X0147500Y0178300D01*
X0147500Y0178177D01*
X0147601Y0177540D01*
X0147800Y0176926D01*
X0148093Y0176351D01*
X0148473Y0175829D01*
X0148929Y0175373D01*
X0149451Y0174993D01*
X0150026Y0174700D01*
X0150640Y0174501D01*
X0151277Y0174400D01*
X0151400Y0174400D01*
X0151400Y0178300D01*
X0151800Y0178300D01*
X0151800Y0178700D01*
X0151400Y0178700D01*
X0151400Y0182600D01*
X0151277Y0182600D01*
X0150640Y0182499D01*
X0150026Y0182300D01*
X0149451Y0182007D01*
X0148929Y0181627D01*
X0148473Y0181171D01*
X0148093Y0180649D01*
X0147800Y0180074D01*
X0147601Y0179460D01*
X0147500Y0178823D01*
X0147500Y0178700D01*
X0151400Y0178700D01*
X0151800Y0178700D02*
X0151800Y0182600D01*
X0151923Y0182600D01*
X0152560Y0182499D01*
X0153174Y0182300D01*
X0153749Y0182007D01*
X0154271Y0181627D01*
X0154727Y0181171D01*
X0155107Y0180649D01*
X0155400Y0180074D01*
X0155599Y0179460D01*
X0155700Y0178823D01*
X0155700Y0178700D01*
X0151800Y0178700D01*
X0151800Y0178557D02*
X0157500Y0178557D01*
X0157635Y0177359D02*
X0155540Y0177359D01*
X0155599Y0177540D02*
X0155700Y0178177D01*
X0155700Y0178300D01*
X0151800Y0178300D01*
X0151800Y0174400D01*
X0151923Y0174400D01*
X0152560Y0174501D01*
X0153174Y0174700D01*
X0153749Y0174993D01*
X0154271Y0175373D01*
X0154727Y0175829D01*
X0155107Y0176351D01*
X0155400Y0176926D01*
X0155599Y0177540D01*
X0154968Y0176160D02*
X0158142Y0176160D01*
X0159429Y0174962D02*
X0153686Y0174962D01*
X0151800Y0174962D02*
X0151400Y0174962D01*
X0151400Y0176160D02*
X0151800Y0176160D01*
X0151800Y0177359D02*
X0151400Y0177359D01*
X0151400Y0179756D02*
X0151800Y0179756D01*
X0151800Y0180954D02*
X0151400Y0180954D01*
X0151400Y0182153D02*
X0151800Y0182153D01*
X0153462Y0182153D02*
X0159704Y0182153D01*
X0158256Y0180954D02*
X0154885Y0180954D01*
X0155503Y0179756D02*
X0157682Y0179756D01*
X0163496Y0182153D02*
X0169738Y0182153D01*
X0168315Y0180954D02*
X0164944Y0180954D01*
X0172250Y0190542D02*
X0057528Y0190542D01*
X0056329Y0191741D02*
X0170915Y0191741D01*
X0170022Y0192939D02*
X0101643Y0192939D01*
X0101626Y0192922D02*
X0102178Y0193474D01*
X0102611Y0194123D01*
X0102910Y0194844D01*
X0103062Y0195610D01*
X0103062Y0196000D01*
X0103062Y0196390D01*
X0102910Y0197156D01*
X0102611Y0197877D01*
X0102178Y0198526D01*
X0101626Y0199078D01*
X0100977Y0199511D01*
X0100256Y0199810D01*
X0099490Y0199962D01*
X0099100Y0199962D01*
X0099100Y0196000D01*
X0103062Y0196000D01*
X0099100Y0196000D01*
X0099100Y0196000D01*
X0099100Y0196000D01*
X0099100Y0192038D01*
X0099490Y0192038D01*
X0100256Y0192190D01*
X0100977Y0192489D01*
X0101626Y0192922D01*
X0102617Y0194138D02*
X0169526Y0194138D01*
X0169276Y0195336D02*
X0103008Y0195336D01*
X0103033Y0196535D02*
X0169276Y0196535D01*
X0169472Y0197733D02*
X0102671Y0197733D01*
X0101772Y0198932D02*
X0169969Y0198932D01*
X0170786Y0200130D02*
X0093700Y0200130D01*
X0092502Y0198932D02*
X0096428Y0198932D01*
X0096574Y0199078D02*
X0096022Y0198526D01*
X0095589Y0197877D01*
X0095290Y0197156D01*
X0095138Y0196390D01*
X0095138Y0196000D01*
X0099100Y0196000D01*
X0099100Y0196000D01*
X0099100Y0196000D01*
X0099100Y0199962D01*
X0098710Y0199962D01*
X0097944Y0199810D01*
X0097223Y0199511D01*
X0096574Y0199078D01*
X0095529Y0197733D02*
X0092671Y0197733D01*
X0093062Y0196535D02*
X0095167Y0196535D01*
X0095138Y0196000D02*
X0095138Y0195610D01*
X0095290Y0194844D01*
X0095589Y0194123D01*
X0096022Y0193474D01*
X0096574Y0192922D01*
X0097223Y0192489D01*
X0097944Y0192190D01*
X0098710Y0192038D01*
X0099100Y0192038D01*
X0099100Y0196000D01*
X0095138Y0196000D01*
X0095192Y0195336D02*
X0093062Y0195336D01*
X0092617Y0194138D02*
X0095583Y0194138D01*
X0096557Y0192939D02*
X0091643Y0192939D01*
X0095768Y0188145D02*
X0059925Y0188145D01*
X0061123Y0186947D02*
X0077067Y0186947D01*
X0075745Y0185748D02*
X0062322Y0185748D01*
X0058779Y0183351D02*
X0048062Y0183351D01*
X0048062Y0184550D02*
X0057580Y0184550D01*
X0056382Y0185748D02*
X0048062Y0185748D01*
X0048062Y0186947D02*
X0055183Y0186947D01*
X0053985Y0188145D02*
X0048062Y0188145D01*
X0047743Y0189344D02*
X0052786Y0189344D01*
X0052000Y0190542D02*
X0046200Y0190542D01*
X0046200Y0191741D02*
X0052000Y0191741D01*
X0051836Y0192939D02*
X0046200Y0192939D01*
X0046200Y0194138D02*
X0050796Y0194138D01*
X0050335Y0195336D02*
X0045234Y0195336D01*
X0044035Y0196535D02*
X0050335Y0196535D01*
X0050742Y0197733D02*
X0042865Y0197733D01*
X0042572Y0198932D02*
X0051707Y0198932D01*
X0040457Y0189344D02*
X0036228Y0189344D01*
X0037432Y0188145D02*
X0040138Y0188145D01*
X0040138Y0186947D02*
X0037952Y0186947D01*
X0038062Y0185748D02*
X0040138Y0185748D01*
X0040138Y0184550D02*
X0037788Y0184550D01*
X0037055Y0183351D02*
X0040138Y0183351D01*
X0034100Y0183351D02*
X0034100Y0183351D01*
X0034100Y0184550D02*
X0034100Y0184550D01*
X0034100Y0185748D02*
X0034100Y0185748D01*
X0034100Y0186947D02*
X0034100Y0186947D01*
X0034100Y0188145D02*
X0034100Y0188145D01*
X0034100Y0189344D02*
X0034100Y0189344D01*
X0035377Y0192939D02*
X0026364Y0192939D01*
X0026493Y0198932D02*
X0035628Y0198932D01*
X0047240Y0182153D02*
X0059978Y0182153D01*
X0066364Y0192939D02*
X0076557Y0192939D01*
X0081643Y0192939D02*
X0086557Y0192939D01*
X0085583Y0194138D02*
X0082617Y0194138D01*
X0083062Y0195336D02*
X0085138Y0195336D01*
X0085138Y0196535D02*
X0083062Y0196535D01*
X0082671Y0197733D02*
X0085529Y0197733D01*
X0086428Y0198932D02*
X0081772Y0198932D01*
X0081200Y0200130D02*
X0087760Y0200130D01*
X0088959Y0201329D02*
X0081200Y0201329D01*
X0081200Y0202527D02*
X0090157Y0202527D01*
X0091356Y0203726D02*
X0081200Y0203726D01*
X0081200Y0204924D02*
X0092554Y0204924D01*
X0094899Y0201329D02*
X0171985Y0201329D01*
X0173500Y0189344D02*
X0121360Y0189344D01*
X0122500Y0188145D02*
X0173985Y0188145D01*
X0175183Y0186947D02*
X0122997Y0186947D01*
X0123062Y0185748D02*
X0176382Y0185748D01*
X0177580Y0184550D02*
X0122788Y0184550D01*
X0106084Y0180954D02*
X0082158Y0180954D01*
X0082831Y0182153D02*
X0098132Y0182153D01*
X0096145Y0183351D02*
X0083062Y0183351D01*
X0082954Y0184550D02*
X0095412Y0184550D01*
X0095138Y0185748D02*
X0082455Y0185748D01*
X0081133Y0186947D02*
X0095248Y0186947D01*
X0099100Y0192939D02*
X0099100Y0192939D01*
X0099100Y0194138D02*
X0099100Y0194138D01*
X0099100Y0195336D02*
X0099100Y0195336D01*
X0099100Y0196535D02*
X0099100Y0196535D01*
X0099100Y0197733D02*
X0099100Y0197733D01*
X0099100Y0198932D02*
X0099100Y0198932D01*
X0104886Y0179756D02*
X0080414Y0179756D01*
X0079100Y0166572D02*
X0079100Y0166572D01*
X0079100Y0165373D02*
X0079100Y0165373D01*
X0079100Y0164175D02*
X0079100Y0164175D01*
X0079100Y0162976D02*
X0079100Y0162976D01*
X0079100Y0161778D02*
X0079100Y0161778D01*
X0079100Y0160579D02*
X0079100Y0160579D01*
X0067442Y0167770D02*
X0092901Y0167770D01*
X0094099Y0168969D02*
X0066456Y0168969D01*
X0061744Y0168969D02*
X0056456Y0168969D01*
X0056401Y0162976D02*
X0061799Y0162976D01*
X0051702Y0156984D02*
X0045150Y0156984D01*
X0045805Y0155785D02*
X0050545Y0155785D01*
X0050727Y0150991D02*
X0045805Y0150991D01*
X0046232Y0137808D02*
X0051494Y0137808D01*
X0056064Y0124624D02*
X0072506Y0124624D01*
X0073705Y0123426D02*
X0057473Y0123426D01*
X0057530Y0118632D02*
X0058499Y0118632D01*
X0059500Y0117433D02*
X0056202Y0117433D01*
X0057061Y0113837D02*
X0059500Y0113837D01*
X0059500Y0112639D02*
X0057866Y0112639D01*
X0058181Y0111440D02*
X0059500Y0111440D01*
X0059500Y0110242D02*
X0058131Y0110242D01*
X0058099Y0110040D02*
X0058200Y0110677D01*
X0058200Y0110800D01*
X0054300Y0110800D01*
X0054300Y0106900D01*
X0054423Y0106900D01*
X0055060Y0107001D01*
X0055674Y0107200D01*
X0056249Y0107493D01*
X0056771Y0107873D01*
X0057227Y0108329D01*
X0057607Y0108851D01*
X0057900Y0109426D01*
X0058099Y0110040D01*
X0057705Y0109043D02*
X0059500Y0109043D01*
X0059500Y0107845D02*
X0056733Y0107845D01*
X0054300Y0107845D02*
X0053900Y0107845D01*
X0053900Y0109043D02*
X0054300Y0109043D01*
X0054300Y0110242D02*
X0053900Y0110242D01*
X0053900Y0111440D02*
X0054300Y0111440D01*
X0054300Y0112639D02*
X0053900Y0112639D01*
X0053900Y0113837D02*
X0054300Y0113837D01*
X0054100Y0104249D02*
X0054100Y0104249D01*
X0054100Y0103051D02*
X0054100Y0103051D01*
X0054100Y0101852D02*
X0054100Y0101852D01*
X0054100Y0101000D02*
X0054100Y0097235D01*
X0054100Y0101000D01*
X0054100Y0101000D01*
X0054100Y0100654D02*
X0054100Y0100654D01*
X0054100Y0099455D02*
X0054100Y0099455D01*
X0054100Y0098257D02*
X0054100Y0098257D01*
X0056682Y0098257D02*
X0061518Y0098257D01*
X0060664Y0099455D02*
X0057536Y0099455D01*
X0057865Y0100654D02*
X0060335Y0100654D01*
X0060278Y0101852D02*
X0057770Y0101852D01*
X0057258Y0103051D02*
X0059500Y0103051D01*
X0059500Y0104249D02*
X0056014Y0104249D01*
X0066682Y0098257D02*
X0070961Y0098257D01*
X0075452Y0097058D02*
X0095820Y0097058D01*
X0099097Y0097058D02*
X0099098Y0097058D01*
X0099097Y0095860D02*
X0099098Y0095860D01*
X0099098Y0095165D02*
X0099468Y0095165D01*
X0100196Y0095309D01*
X0100881Y0095593D01*
X0101498Y0096005D01*
X0102022Y0096530D01*
X0102434Y0097146D01*
X0102718Y0097832D01*
X0102863Y0098559D01*
X0102863Y0098930D01*
X0102863Y0099301D01*
X0102718Y0100028D01*
X0102434Y0100714D01*
X0102022Y0101330D01*
X0101498Y0101855D01*
X0100881Y0102267D01*
X0100196Y0102551D01*
X0099468Y0102695D01*
X0099098Y0102695D01*
X0099098Y0098930D01*
X0102863Y0098930D01*
X0099098Y0098930D01*
X0099098Y0098930D01*
X0099097Y0098930D01*
X0099098Y0098930D01*
X0099098Y0095165D01*
X0101280Y0095860D02*
X0101934Y0095860D01*
X0102375Y0097058D02*
X0103133Y0097058D01*
X0102803Y0098257D02*
X0104331Y0098257D01*
X0105530Y0099455D02*
X0102832Y0099455D01*
X0102459Y0100654D02*
X0106728Y0100654D01*
X0107927Y0101852D02*
X0101500Y0101852D01*
X0099098Y0101852D02*
X0099097Y0101852D01*
X0099097Y0100654D02*
X0099098Y0100654D01*
X0099097Y0099455D02*
X0099098Y0099455D01*
X0099097Y0098257D02*
X0099098Y0098257D01*
X0095900Y0082676D02*
X0095722Y0082676D01*
X0095900Y0081478D02*
X0094523Y0081478D01*
X0081518Y0098257D02*
X0077239Y0098257D01*
X0076102Y0121029D02*
X0062041Y0121029D01*
X0060843Y0122227D02*
X0074903Y0122227D01*
X0093394Y0170168D02*
X0095298Y0170168D01*
X0094791Y0171366D02*
X0096496Y0171366D01*
X0097695Y0172565D02*
X0095288Y0172565D01*
X0095365Y0173763D02*
X0098893Y0173763D01*
X0100092Y0174962D02*
X0095070Y0174962D01*
X0094265Y0176160D02*
X0101290Y0176160D01*
X0080221Y0216909D02*
X0060708Y0216909D01*
X0061430Y0220505D02*
X0076625Y0220505D01*
X0045547Y0237284D02*
X0032653Y0237284D01*
X0033622Y0236086D02*
X0044613Y0236086D01*
X0044122Y0234887D02*
X0034119Y0234887D01*
X0012000Y0204924D02*
X0007950Y0204924D01*
X0007950Y0203726D02*
X0012000Y0203726D01*
X0012000Y0202527D02*
X0007950Y0202527D01*
X0007950Y0201329D02*
X0012000Y0201329D01*
X0012000Y0200130D02*
X0007950Y0200130D01*
X0007950Y0198932D02*
X0012000Y0198932D01*
X0012000Y0197733D02*
X0007950Y0197733D01*
X0007950Y0196535D02*
X0012000Y0196535D01*
X0012000Y0195336D02*
X0007950Y0195336D01*
X0007950Y0194138D02*
X0012000Y0194138D01*
X0012000Y0192939D02*
X0007950Y0192939D01*
X0007950Y0191741D02*
X0012000Y0191741D01*
X0012000Y0190542D02*
X0007950Y0190542D01*
X0007950Y0189344D02*
X0012000Y0189344D01*
X0012000Y0188145D02*
X0007950Y0188145D01*
X0007950Y0186947D02*
X0012000Y0186947D01*
X0012000Y0185748D02*
X0007950Y0185748D01*
X0007950Y0184550D02*
X0012000Y0184550D01*
X0012000Y0183351D02*
X0007950Y0183351D01*
X0007950Y0182153D02*
X0012000Y0182153D01*
X0012000Y0180954D02*
X0007950Y0180954D01*
X0007950Y0179756D02*
X0012000Y0179756D01*
X0012000Y0178557D02*
X0007950Y0178557D01*
X0007950Y0177359D02*
X0012000Y0177359D01*
X0012000Y0176160D02*
X0007950Y0176160D01*
X0007950Y0174962D02*
X0012000Y0174962D01*
X0012000Y0173763D02*
X0007950Y0173763D01*
X0007950Y0172565D02*
X0012000Y0172565D01*
X0012000Y0171366D02*
X0007950Y0171366D01*
X0007950Y0170168D02*
X0012000Y0170168D01*
X0012000Y0168969D02*
X0007950Y0168969D01*
X0007950Y0167770D02*
X0012000Y0167770D01*
X0012000Y0166572D02*
X0007950Y0166572D01*
X0007950Y0165373D02*
X0012000Y0165373D01*
X0012000Y0164175D02*
X0007950Y0164175D01*
X0007950Y0162976D02*
X0012000Y0162976D01*
X0012000Y0161778D02*
X0007950Y0161778D01*
X0007950Y0160579D02*
X0012000Y0160579D01*
X0012000Y0159381D02*
X0007950Y0159381D01*
X0007950Y0158182D02*
X0012000Y0158182D01*
X0012000Y0156984D02*
X0007950Y0156984D01*
X0007950Y0155785D02*
X0012000Y0155785D01*
X0012000Y0154587D02*
X0007950Y0154587D01*
X0007950Y0153388D02*
X0012000Y0153388D01*
X0012000Y0152190D02*
X0007950Y0152190D01*
X0007950Y0150991D02*
X0012000Y0150991D01*
X0012000Y0149793D02*
X0007950Y0149793D01*
X0007950Y0148594D02*
X0012000Y0148594D01*
X0012000Y0147396D02*
X0007950Y0147396D01*
X0007950Y0146197D02*
X0012000Y0146197D01*
X0012000Y0144999D02*
X0007950Y0144999D01*
X0007950Y0143800D02*
X0012000Y0143800D01*
X0012000Y0142602D02*
X0007950Y0142602D01*
X0007950Y0141403D02*
X0012000Y0141403D01*
X0012000Y0140205D02*
X0007950Y0140205D01*
X0007950Y0139006D02*
X0012000Y0139006D01*
X0012000Y0137808D02*
X0007950Y0137808D01*
X0007950Y0136609D02*
X0012000Y0136609D01*
X0012000Y0135411D02*
X0007950Y0135411D01*
X0007950Y0134212D02*
X0012000Y0134212D01*
X0012000Y0133014D02*
X0007950Y0133014D01*
X0007950Y0131815D02*
X0012000Y0131815D01*
X0012000Y0130617D02*
X0007950Y0130617D01*
X0007950Y0129418D02*
X0012000Y0129418D01*
X0012000Y0128220D02*
X0007950Y0128220D01*
X0007950Y0127021D02*
X0012000Y0127021D01*
X0012000Y0125823D02*
X0007950Y0125823D01*
X0007950Y0124624D02*
X0012000Y0124624D01*
X0012000Y0123426D02*
X0007950Y0123426D01*
X0007950Y0122227D02*
X0012000Y0122227D01*
X0012000Y0121029D02*
X0007950Y0121029D01*
X0007950Y0119830D02*
X0012000Y0119830D01*
X0012000Y0118632D02*
X0007950Y0118632D01*
X0007950Y0117433D02*
X0012000Y0117433D01*
X0012000Y0116234D02*
X0007950Y0116234D01*
X0007950Y0115036D02*
X0012000Y0115036D01*
X0012000Y0113837D02*
X0007950Y0113837D01*
X0007950Y0112639D02*
X0012000Y0112639D01*
X0012000Y0111440D02*
X0007950Y0111440D01*
X0007950Y0110242D02*
X0012000Y0110242D01*
X0012000Y0109043D02*
X0007950Y0109043D01*
X0007950Y0107845D02*
X0012000Y0107845D01*
X0012000Y0106646D02*
X0007950Y0106646D01*
X0007950Y0105448D02*
X0012000Y0105448D01*
X0012000Y0104249D02*
X0007950Y0104249D01*
X0007950Y0103051D02*
X0012000Y0103051D01*
X0012000Y0101852D02*
X0007950Y0101852D01*
X0007950Y0100654D02*
X0012000Y0100654D01*
X0012000Y0099455D02*
X0007950Y0099455D01*
X0007950Y0098257D02*
X0012000Y0098257D01*
X0012000Y0097058D02*
X0007950Y0097058D01*
X0007950Y0095860D02*
X0012000Y0095860D01*
X0012000Y0094661D02*
X0007950Y0094661D01*
X0007950Y0093463D02*
X0012000Y0093463D01*
X0012000Y0092264D02*
X0007950Y0092264D01*
X0007950Y0091066D02*
X0012000Y0091066D01*
X0012000Y0089867D02*
X0007950Y0089867D01*
X0007950Y0088669D02*
X0012000Y0088669D01*
X0012000Y0087470D02*
X0007950Y0087470D01*
X0007950Y0086272D02*
X0012000Y0086272D01*
X0012057Y0085073D02*
X0007950Y0085073D01*
X0007950Y0083875D02*
X0013255Y0083875D01*
X0014454Y0082676D02*
X0007950Y0082676D01*
X0007950Y0081478D02*
X0015652Y0081478D01*
X0016851Y0080279D02*
X0007950Y0080279D01*
X0007950Y0079081D02*
X0018049Y0079081D01*
X0019248Y0077882D02*
X0007950Y0077882D01*
X0007950Y0076684D02*
X0020447Y0076684D01*
X0021645Y0075485D02*
X0007950Y0075485D01*
X0007950Y0074287D02*
X0022844Y0074287D01*
X0024042Y0073088D02*
X0007950Y0073088D01*
X0007950Y0071890D02*
X0025241Y0071890D01*
X0026439Y0070691D02*
X0007950Y0070691D01*
X0007950Y0069493D02*
X0027638Y0069493D01*
X0028836Y0068294D02*
X0007950Y0068294D01*
X0007950Y0067096D02*
X0030035Y0067096D01*
X0031233Y0065897D02*
X0007950Y0065897D01*
X0007950Y0064699D02*
X0032432Y0064699D01*
X0033630Y0063500D02*
X0007950Y0063500D01*
X0007950Y0062301D02*
X0034829Y0062301D01*
X0036027Y0061103D02*
X0007950Y0061103D01*
X0007950Y0059904D02*
X0037226Y0059904D01*
X0038424Y0058706D02*
X0007950Y0058706D01*
X0007950Y0057507D02*
X0039623Y0057507D01*
X0040821Y0056309D02*
X0007950Y0056309D01*
X0007950Y0055110D02*
X0042020Y0055110D01*
X0043218Y0053912D02*
X0007950Y0053912D01*
X0007950Y0052713D02*
X0044417Y0052713D01*
X0045615Y0051515D02*
X0007950Y0051515D01*
X0007950Y0040728D02*
X0235033Y0040728D01*
X0235033Y0039530D02*
X0007950Y0039530D01*
X0007950Y0038331D02*
X0235033Y0038331D01*
X0227000Y0100654D02*
X0201579Y0100654D01*
X0202493Y0101852D02*
X0227000Y0101852D01*
X0227000Y0103051D02*
X0202865Y0103051D01*
X0202865Y0104249D02*
X0227000Y0104249D01*
X0227000Y0105448D02*
X0202369Y0105448D01*
X0201279Y0106646D02*
X0227000Y0106646D01*
X0231200Y0123426D02*
X0235033Y0123426D01*
X0235033Y0124624D02*
X0231200Y0124624D01*
X0231200Y0125823D02*
X0235033Y0125823D01*
X0235033Y0127021D02*
X0231200Y0127021D01*
X0231200Y0128220D02*
X0235033Y0128220D01*
X0235033Y0129418D02*
X0231200Y0129418D01*
X0231200Y0130617D02*
X0235033Y0130617D01*
X0235033Y0131815D02*
X0231200Y0131815D01*
X0231200Y0133014D02*
X0235033Y0133014D01*
X0235033Y0134212D02*
X0231200Y0134212D01*
X0231200Y0135411D02*
X0235033Y0135411D01*
X0235033Y0136609D02*
X0231200Y0136609D01*
X0231200Y0137808D02*
X0235033Y0137808D01*
X0235033Y0139006D02*
X0231200Y0139006D01*
X0231200Y0140205D02*
X0235033Y0140205D01*
X0235033Y0141403D02*
X0231200Y0141403D01*
X0231200Y0142602D02*
X0235033Y0142602D01*
X0235033Y0143800D02*
X0231200Y0143800D01*
X0231200Y0144999D02*
X0235033Y0144999D01*
X0235033Y0146197D02*
X0231200Y0146197D01*
X0231200Y0147396D02*
X0235033Y0147396D01*
X0235033Y0148594D02*
X0231200Y0148594D01*
X0231200Y0149793D02*
X0235033Y0149793D01*
X0235033Y0150991D02*
X0231200Y0150991D01*
X0231200Y0152190D02*
X0235033Y0152190D01*
X0235033Y0153388D02*
X0231200Y0153388D01*
X0231200Y0154587D02*
X0235033Y0154587D01*
X0235033Y0155785D02*
X0231200Y0155785D01*
X0231200Y0156984D02*
X0235033Y0156984D01*
X0235033Y0158182D02*
X0231200Y0158182D01*
X0231200Y0159381D02*
X0235033Y0159381D01*
X0235033Y0160579D02*
X0231200Y0160579D01*
X0231200Y0161778D02*
X0235033Y0161778D01*
X0235033Y0162976D02*
X0231200Y0162976D01*
X0231200Y0164175D02*
X0235033Y0164175D01*
X0235033Y0165373D02*
X0231200Y0165373D01*
X0231200Y0166572D02*
X0235033Y0166572D01*
X0235033Y0167770D02*
X0231200Y0167770D01*
X0231200Y0168969D02*
X0235033Y0168969D01*
X0235033Y0170168D02*
X0231200Y0170168D01*
X0231200Y0171366D02*
X0235033Y0171366D01*
X0235033Y0172565D02*
X0231200Y0172565D01*
X0231200Y0173763D02*
X0235033Y0173763D01*
X0235033Y0174962D02*
X0231200Y0174962D01*
X0231200Y0176160D02*
X0235033Y0176160D01*
X0235033Y0177359D02*
X0231200Y0177359D01*
X0231200Y0178557D02*
X0235033Y0178557D01*
X0235033Y0179756D02*
X0231200Y0179756D01*
X0231200Y0180954D02*
X0235033Y0180954D01*
X0235033Y0182153D02*
X0231200Y0182153D01*
X0231200Y0183351D02*
X0235033Y0183351D01*
X0235033Y0184550D02*
X0231200Y0184550D01*
X0231200Y0185748D02*
X0235033Y0185748D01*
X0235033Y0186947D02*
X0231200Y0186947D01*
X0231200Y0188145D02*
X0235033Y0188145D01*
X0235033Y0189344D02*
X0231200Y0189344D01*
X0231200Y0190542D02*
X0235033Y0190542D01*
X0235033Y0191741D02*
X0231200Y0191741D01*
X0231200Y0192939D02*
X0235033Y0192939D01*
X0235033Y0194138D02*
X0231200Y0194138D01*
X0231200Y0195336D02*
X0235033Y0195336D01*
X0235033Y0196535D02*
X0231200Y0196535D01*
X0231200Y0197733D02*
X0235033Y0197733D01*
X0235033Y0198932D02*
X0231200Y0198932D01*
X0231200Y0200130D02*
X0235033Y0200130D01*
X0235033Y0201329D02*
X0231200Y0201329D01*
X0231200Y0202527D02*
X0235033Y0202527D01*
X0235033Y0203726D02*
X0231200Y0203726D01*
X0231200Y0204924D02*
X0235033Y0204924D01*
X0235033Y0206123D02*
X0231200Y0206123D01*
X0231200Y0207321D02*
X0235033Y0207321D01*
X0235033Y0208520D02*
X0231200Y0208520D01*
X0231200Y0209718D02*
X0235033Y0209718D01*
X0235033Y0210917D02*
X0231200Y0210917D01*
X0231200Y0212115D02*
X0235033Y0212115D01*
X0214583Y0236086D02*
X0213617Y0236086D01*
X0213617Y0237284D02*
X0214583Y0237284D01*
X0214583Y0238483D02*
X0213617Y0238483D01*
X0206276Y0201329D02*
X0197715Y0201329D01*
X0198914Y0200130D02*
X0206276Y0200130D01*
X0206276Y0198932D02*
X0199731Y0198932D01*
X0200228Y0197733D02*
X0206276Y0197733D01*
X0206276Y0196535D02*
X0200424Y0196535D01*
X0200424Y0195336D02*
X0206276Y0195336D01*
X0206276Y0194138D02*
X0200174Y0194138D01*
X0199678Y0192939D02*
X0206276Y0192939D01*
X0206276Y0191741D02*
X0198785Y0191741D01*
X0197450Y0190542D02*
X0206346Y0190542D01*
X0210500Y0189344D02*
X0178726Y0189344D01*
X0179925Y0188145D02*
X0210500Y0188145D01*
X0209577Y0186947D02*
X0181123Y0186947D01*
X0182322Y0185748D02*
X0208378Y0185748D01*
X0207180Y0184550D02*
X0183520Y0184550D01*
X0184944Y0180954D02*
X0188256Y0180954D01*
X0187682Y0179756D02*
X0185518Y0179756D01*
X0185700Y0178557D02*
X0187500Y0178557D01*
X0187635Y0177359D02*
X0185565Y0177359D01*
X0185058Y0176160D02*
X0188142Y0176160D01*
X0189429Y0174962D02*
X0183771Y0174962D01*
X0183700Y0173763D02*
X0227000Y0173763D01*
X0227000Y0172565D02*
X0215024Y0172565D01*
X0215074Y0172557D02*
X0214427Y0172659D01*
X0214100Y0172659D01*
X0214100Y0168500D01*
X0214100Y0168500D01*
X0218259Y0168500D01*
X0218259Y0168827D01*
X0218157Y0169474D01*
X0217954Y0170097D01*
X0217657Y0170680D01*
X0217272Y0171209D01*
X0216809Y0171672D01*
X0216280Y0172057D01*
X0215697Y0172354D01*
X0215074Y0172557D01*
X0214100Y0172565D02*
X0214100Y0172565D01*
X0214100Y0172659D02*
X0213773Y0172659D01*
X0213126Y0172557D01*
X0212503Y0172354D01*
X0211920Y0172057D01*
X0211391Y0171672D01*
X0210928Y0171209D01*
X0210543Y0170680D01*
X0210246Y0170097D01*
X0210043Y0169474D01*
X0209941Y0168827D01*
X0209941Y0168500D01*
X0214100Y0168500D01*
X0214100Y0168500D01*
X0214100Y0168500D01*
X0214100Y0172659D01*
X0213176Y0172565D02*
X0183700Y0172565D01*
X0183700Y0171366D02*
X0211084Y0171366D01*
X0210282Y0170168D02*
X0183700Y0170168D01*
X0184101Y0168969D02*
X0209963Y0168969D01*
X0209941Y0168500D02*
X0209941Y0168173D01*
X0210043Y0167526D01*
X0210246Y0166903D01*
X0210543Y0166320D01*
X0210928Y0165791D01*
X0211391Y0165328D01*
X0211920Y0164943D01*
X0212503Y0164646D01*
X0213126Y0164443D01*
X0213773Y0164341D01*
X0214100Y0164341D01*
X0214427Y0164341D01*
X0215074Y0164443D01*
X0215697Y0164646D01*
X0216280Y0164943D01*
X0216809Y0165328D01*
X0217272Y0165791D01*
X0217657Y0166320D01*
X0217954Y0166903D01*
X0218157Y0167526D01*
X0218259Y0168173D01*
X0218259Y0168500D01*
X0214100Y0168500D01*
X0214100Y0164341D01*
X0214100Y0168500D01*
X0214100Y0168500D01*
X0209941Y0168500D01*
X0210005Y0167770D02*
X0185299Y0167770D01*
X0186498Y0166572D02*
X0210415Y0166572D01*
X0211345Y0165373D02*
X0187696Y0165373D01*
X0188895Y0164175D02*
X0227000Y0164175D01*
X0227000Y0165373D02*
X0216855Y0165373D01*
X0217785Y0166572D02*
X0227000Y0166572D01*
X0227000Y0167770D02*
X0218195Y0167770D01*
X0218237Y0168969D02*
X0227000Y0168969D01*
X0227000Y0170168D02*
X0217918Y0170168D01*
X0217116Y0171366D02*
X0227000Y0171366D01*
X0227000Y0174962D02*
X0203771Y0174962D01*
X0205058Y0176160D02*
X0227000Y0176160D01*
X0227000Y0162976D02*
X0190093Y0162976D01*
X0191292Y0161778D02*
X0227000Y0161778D01*
X0227000Y0160579D02*
X0192490Y0160579D01*
X0193689Y0159381D02*
X0227000Y0159381D01*
X0227000Y0158182D02*
X0193700Y0158182D01*
X0193700Y0156984D02*
X0227000Y0156984D01*
X0227000Y0155785D02*
X0193700Y0155785D01*
X0193700Y0154587D02*
X0227000Y0154587D01*
X0227000Y0153388D02*
X0193700Y0153388D01*
X0193700Y0152190D02*
X0199794Y0152190D01*
X0199278Y0151976D02*
X0200784Y0152600D01*
X0202416Y0152600D01*
X0203922Y0151976D01*
X0204198Y0151700D01*
X0211418Y0151700D01*
X0211744Y0152026D01*
X0213273Y0152659D01*
X0214927Y0152659D01*
X0216456Y0152026D01*
X0217626Y0150856D01*
X0218259Y0149327D01*
X0218259Y0147673D01*
X0217626Y0146144D01*
X0217305Y0145823D01*
X0217305Y0136823D01*
X0217870Y0136258D01*
X0217870Y0130602D01*
X0216933Y0129665D01*
X0211277Y0129665D01*
X0210642Y0130300D01*
X0201214Y0130300D01*
X0199849Y0129735D01*
X0198351Y0129735D01*
X0196967Y0130308D01*
X0195908Y0131367D01*
X0195335Y0132751D01*
X0195335Y0134249D01*
X0195908Y0135633D01*
X0196967Y0136692D01*
X0198351Y0137265D01*
X0199849Y0137265D01*
X0201214Y0136700D01*
X0210782Y0136700D01*
X0210905Y0136823D01*
X0210905Y0145300D01*
X0204198Y0145300D01*
X0203922Y0145024D01*
X0202416Y0144400D01*
X0200784Y0144400D01*
X0199278Y0145024D01*
X0198124Y0146178D01*
X0197500Y0147684D01*
X0197500Y0149316D01*
X0198124Y0150822D01*
X0199278Y0151976D01*
X0198293Y0150991D02*
X0194907Y0150991D01*
X0195502Y0149793D02*
X0197698Y0149793D01*
X0197500Y0148594D02*
X0195700Y0148594D01*
X0195580Y0147396D02*
X0197620Y0147396D01*
X0198116Y0146197D02*
X0195084Y0146197D01*
X0193861Y0144999D02*
X0199339Y0144999D01*
X0203861Y0144999D02*
X0210905Y0144999D01*
X0212140Y0152190D02*
X0203406Y0152190D01*
X0196884Y0136609D02*
X0188816Y0136609D01*
X0189884Y0135411D02*
X0195816Y0135411D01*
X0195335Y0134212D02*
X0190365Y0134212D01*
X0190365Y0133014D02*
X0195335Y0133014D01*
X0195722Y0131815D02*
X0189978Y0131815D01*
X0189042Y0130617D02*
X0196658Y0130617D01*
X0189339Y0144999D02*
X0183861Y0144999D01*
X0185084Y0146197D02*
X0188116Y0146197D01*
X0187620Y0147396D02*
X0185580Y0147396D01*
X0185700Y0148594D02*
X0187500Y0148594D01*
X0187698Y0149793D02*
X0185502Y0149793D01*
X0184907Y0150991D02*
X0188293Y0150991D01*
X0189500Y0152190D02*
X0183406Y0152190D01*
X0182181Y0153388D02*
X0189500Y0153388D01*
X0189500Y0154587D02*
X0180983Y0154587D01*
X0179784Y0155785D02*
X0189500Y0155785D01*
X0189500Y0156984D02*
X0178586Y0156984D01*
X0193771Y0174962D02*
X0199429Y0174962D01*
X0198142Y0176160D02*
X0195058Y0176160D01*
X0195565Y0177359D02*
X0197635Y0177359D01*
X0197500Y0178557D02*
X0195700Y0178557D01*
X0195518Y0179756D02*
X0197682Y0179756D01*
X0198256Y0180954D02*
X0194944Y0180954D01*
X0193496Y0182153D02*
X0199704Y0182153D01*
X0214100Y0171366D02*
X0214100Y0171366D01*
X0214100Y0170168D02*
X0214100Y0170168D01*
X0214100Y0168969D02*
X0214100Y0168969D01*
X0214100Y0167770D02*
X0214100Y0167770D01*
X0214100Y0166572D02*
X0214100Y0166572D01*
X0214100Y0165373D02*
X0214100Y0165373D01*
X0216060Y0152190D02*
X0227000Y0152190D01*
X0227000Y0150991D02*
X0217490Y0150991D01*
X0218066Y0149793D02*
X0227000Y0149793D01*
X0227000Y0148594D02*
X0218259Y0148594D01*
X0218144Y0147396D02*
X0227000Y0147396D01*
X0227000Y0146197D02*
X0217648Y0146197D01*
X0217305Y0144999D02*
X0227000Y0144999D01*
X0227000Y0143800D02*
X0217305Y0143800D01*
X0217305Y0142602D02*
X0227000Y0142602D01*
X0227000Y0141403D02*
X0217305Y0141403D01*
X0217305Y0140205D02*
X0227000Y0140205D01*
X0227000Y0139006D02*
X0217305Y0139006D01*
X0217305Y0137808D02*
X0227000Y0137808D01*
X0227000Y0136609D02*
X0217519Y0136609D01*
X0217870Y0135411D02*
X0227000Y0135411D01*
X0227000Y0134212D02*
X0217870Y0134212D01*
X0217870Y0133014D02*
X0227000Y0133014D01*
X0227000Y0131815D02*
X0217870Y0131815D01*
X0217870Y0130617D02*
X0227000Y0130617D01*
X0214103Y0128220D02*
X0214102Y0128220D01*
X0214102Y0127021D02*
X0214103Y0127021D01*
X0214102Y0125823D02*
X0214103Y0125823D01*
X0214102Y0124624D02*
X0214103Y0124624D01*
X0214102Y0123426D02*
X0214103Y0123426D01*
X0214102Y0122227D02*
X0214103Y0122227D01*
X0177682Y0179756D02*
X0175503Y0179756D01*
X0174885Y0180954D02*
X0178256Y0180954D01*
X0186255Y0208520D02*
X0161945Y0208520D01*
X0162645Y0209718D02*
X0185555Y0209718D01*
X0185335Y0210917D02*
X0162865Y0210917D01*
X0162714Y0212115D02*
X0185486Y0212115D01*
X0186089Y0213314D02*
X0162111Y0213314D01*
X0170296Y0230093D02*
X0148663Y0230093D01*
X0149861Y0231292D02*
X0169474Y0231292D01*
X0169578Y0236086D02*
X0142438Y0236086D01*
X0143101Y0237284D02*
X0170547Y0237284D01*
X0172537Y0238483D02*
X0143295Y0238483D01*
X0140737Y0242078D02*
X0171140Y0242078D01*
X0138419Y0234887D02*
X0134646Y0234887D01*
X0135435Y0236086D02*
X0136622Y0236086D01*
X0135959Y0237284D02*
X0135435Y0237284D01*
X0135435Y0238483D02*
X0135765Y0238483D01*
X0135943Y0239681D02*
X0135435Y0239681D01*
X0135435Y0240880D02*
X0136590Y0240880D01*
X0122200Y0288820D02*
X0121000Y0288820D01*
X0121000Y0290019D02*
X0122200Y0290019D01*
X0122200Y0291217D02*
X0121000Y0291217D01*
X0121000Y0292416D02*
X0122200Y0292416D01*
X0122200Y0293614D02*
X0121000Y0293614D01*
X0121000Y0297210D02*
X0122200Y0297210D01*
X0122200Y0298408D02*
X0121000Y0298408D01*
X0121000Y0299607D02*
X0122200Y0299607D01*
X0122200Y0300805D02*
X0121000Y0300805D01*
X0121000Y0302004D02*
X0122200Y0302004D01*
X0122200Y0303202D02*
X0121000Y0303202D01*
X0121000Y0304401D02*
X0122200Y0304401D01*
X0125954Y0312790D02*
X0130900Y0312790D01*
X0130900Y0313989D02*
X0127430Y0313989D01*
X0128628Y0315187D02*
X0130387Y0315187D01*
X0141400Y0182153D02*
X0141800Y0182153D01*
X0141800Y0180954D02*
X0141400Y0180954D01*
X0141400Y0179756D02*
X0141800Y0179756D01*
X0141800Y0177359D02*
X0141400Y0177359D01*
X0141400Y0176160D02*
X0141800Y0176160D01*
X0141800Y0174962D02*
X0141400Y0174962D01*
X0143686Y0174962D02*
X0149514Y0174962D01*
X0148232Y0176160D02*
X0144968Y0176160D01*
X0145540Y0177359D02*
X0147660Y0177359D01*
X0147697Y0179756D02*
X0145503Y0179756D01*
X0144885Y0180954D02*
X0148315Y0180954D01*
X0149738Y0182153D02*
X0143462Y0182153D01*
X0171597Y0113837D02*
X0171598Y0113837D01*
X0171597Y0112639D02*
X0171598Y0112639D01*
X0171597Y0111440D02*
X0171598Y0111440D01*
X0171597Y0110242D02*
X0171598Y0110242D01*
X0171597Y0109043D02*
X0171598Y0109043D01*
X0171597Y0107845D02*
X0171598Y0107845D01*
X0041466Y0168969D02*
X0038062Y0168969D01*
X0032060Y0161778D02*
X0016200Y0161778D01*
X0016200Y0162976D02*
X0021848Y0162976D01*
X0021700Y0163075D02*
X0022316Y0162663D01*
X0023002Y0162379D01*
X0023729Y0162235D01*
X0024100Y0162235D01*
X0024471Y0162235D01*
X0025198Y0162379D01*
X0025884Y0162663D01*
X0026500Y0163075D01*
X0027025Y0163600D01*
X0027437Y0164216D01*
X0027721Y0164902D01*
X0027865Y0165629D01*
X0027865Y0166000D01*
X0027865Y0166371D01*
X0027721Y0167098D01*
X0027437Y0167784D01*
X0027025Y0168400D01*
X0026500Y0168925D01*
X0025884Y0169337D01*
X0025198Y0169621D01*
X0024471Y0169765D01*
X0024100Y0169765D01*
X0023729Y0169765D01*
X0023002Y0169621D01*
X0022316Y0169337D01*
X0021700Y0168925D01*
X0021175Y0168400D01*
X0020763Y0167784D01*
X0020479Y0167098D01*
X0020335Y0166371D01*
X0020335Y0166000D01*
X0020335Y0165629D01*
X0020479Y0164902D01*
X0020763Y0164216D01*
X0021175Y0163600D01*
X0021700Y0163075D01*
X0020791Y0164175D02*
X0016200Y0164175D01*
X0016200Y0165373D02*
X0020385Y0165373D01*
X0020335Y0166000D02*
X0024100Y0166000D01*
X0024100Y0166000D01*
X0024100Y0169765D01*
X0024100Y0166000D01*
X0027865Y0166000D01*
X0024100Y0166000D01*
X0024100Y0166000D01*
X0024100Y0166000D01*
X0020335Y0166000D01*
X0020375Y0166572D02*
X0016200Y0166572D01*
X0016200Y0167770D02*
X0020758Y0167770D01*
X0021766Y0168969D02*
X0016200Y0168969D01*
X0016200Y0160579D02*
X0032060Y0160579D01*
X0032060Y0159381D02*
X0016200Y0159381D01*
X0016200Y0158182D02*
X0032060Y0158182D01*
X0032060Y0156984D02*
X0016200Y0156984D01*
X0016200Y0155785D02*
X0031120Y0155785D01*
X0030535Y0154587D02*
X0016200Y0154587D01*
X0016200Y0153388D02*
X0030395Y0153388D01*
X0030627Y0152190D02*
X0016200Y0152190D01*
X0016200Y0150991D02*
X0031344Y0150991D01*
X0030138Y0162976D02*
X0026352Y0162976D01*
X0027409Y0164175D02*
X0030138Y0164175D01*
X0030138Y0165373D02*
X0027814Y0165373D01*
X0027825Y0166572D02*
X0030138Y0166572D01*
X0030138Y0167770D02*
X0027442Y0167770D01*
X0026434Y0168969D02*
X0030138Y0168969D01*
X0024100Y0168969D02*
X0024100Y0168969D01*
X0024100Y0167770D02*
X0024100Y0167770D01*
X0024100Y0166572D02*
X0024100Y0166572D01*
X0024100Y0166000D02*
X0024100Y0162235D01*
X0024100Y0166000D01*
X0024100Y0166000D01*
X0024100Y0165373D02*
X0024100Y0165373D01*
X0024100Y0164175D02*
X0024100Y0164175D01*
X0024100Y0162976D02*
X0024100Y0162976D01*
D28*
X0019850Y0176000D03*
X0009850Y0176000D03*
X0009850Y0221000D03*
X0019850Y0221000D03*
X0044850Y0221000D03*
X0068100Y0206000D03*
X0057350Y0176000D03*
X0047600Y0160000D03*
X0040100Y0122250D03*
X0040100Y0103500D03*
X0018850Y0131000D03*
X0009850Y0131000D03*
X0009850Y0086000D03*
X0009850Y0039750D03*
X0041600Y0039750D03*
X0046600Y0060500D03*
X0081600Y0060500D03*
X0081600Y0039750D03*
X0121600Y0039750D03*
X0130100Y0098500D03*
X0142600Y0098500D03*
X0160100Y0111000D03*
X0142600Y0132500D03*
X0130100Y0132250D03*
X0115100Y0132250D03*
X0102600Y0122250D03*
X0092600Y0103500D03*
X0067600Y0122250D03*
X0085100Y0160000D03*
X0102600Y0160000D03*
X0125850Y0188500D03*
X0137350Y0188500D03*
X0137600Y0160000D03*
X0137350Y0221000D03*
X0125850Y0221000D03*
X0125850Y0266000D03*
X0153350Y0266000D03*
X0153350Y0306000D03*
X0125850Y0308500D03*
X0125850Y0344250D03*
X0153350Y0344250D03*
X0190850Y0344250D03*
X0190850Y0306000D03*
X0190850Y0266000D03*
X0200100Y0221000D03*
X0185100Y0191000D03*
X0182600Y0141000D03*
X0182600Y0123500D03*
X0221600Y0131000D03*
X0233350Y0131000D03*
X0233350Y0086000D03*
X0221600Y0086000D03*
X0196600Y0060500D03*
X0201600Y0039750D03*
X0233350Y0039750D03*
X0161600Y0039750D03*
X0161600Y0060500D03*
X0221600Y0176000D03*
X0233350Y0176000D03*
X0233350Y0221000D03*
X0233350Y0266000D03*
X0233350Y0306000D03*
X0090850Y0306000D03*
X0090850Y0344250D03*
X0048350Y0344250D03*
X0048350Y0306000D03*
X0048350Y0266000D03*
X0009850Y0266000D03*
X0009850Y0306000D03*
X0090850Y0266000D03*
X0090850Y0221000D03*
D29*
X0089100Y0211000D02*
X0099100Y0211000D01*
X0094100Y0203500D02*
X0141600Y0203500D01*
X0149100Y0211000D01*
X0159100Y0211000D01*
X0175600Y0196000D02*
X0175600Y0189500D01*
X0181600Y0183500D01*
X0181600Y0178500D01*
X0181600Y0168500D01*
X0191600Y0158500D01*
X0191600Y0148500D01*
X0181600Y0148500D02*
X0181600Y0151000D01*
X0176600Y0156000D01*
X0156600Y0156000D01*
X0151600Y0151000D01*
X0151600Y0148500D01*
X0121600Y0153500D02*
X0116600Y0153500D01*
X0104100Y0143500D01*
X0091600Y0153500D02*
X0091600Y0163500D01*
X0109100Y0181000D01*
X0109100Y0186000D01*
X0094100Y0203500D02*
X0089100Y0198500D01*
X0089100Y0196000D01*
X0079100Y0196000D02*
X0079100Y0211000D01*
X0089100Y0211000D02*
X0076600Y0223500D01*
X0059100Y0223500D01*
X0059100Y0213500D02*
X0059100Y0208500D01*
X0054100Y0203500D01*
X0054100Y0196000D01*
X0054100Y0191000D01*
X0061600Y0183500D01*
X0079100Y0183500D01*
X0079100Y0173500D02*
X0091600Y0173500D01*
X0079100Y0196000D02*
X0064100Y0196000D01*
X0044100Y0193500D02*
X0044100Y0186000D01*
X0044100Y0176000D01*
X0054100Y0166000D01*
X0064100Y0166000D01*
X0054100Y0153500D02*
X0054100Y0141000D01*
X0044100Y0141000D01*
X0034100Y0131000D01*
X0024100Y0121000D02*
X0034100Y0111000D01*
X0044100Y0111000D01*
X0046600Y0113500D01*
X0046600Y0126000D01*
X0051600Y0131000D01*
X0054100Y0131000D01*
X0054100Y0121000D02*
X0059100Y0121000D01*
X0061600Y0118500D01*
X0061600Y0103500D01*
X0064100Y0101000D01*
X0074100Y0101000D01*
X0084100Y0101000D01*
X0084100Y0111000D02*
X0101600Y0111000D01*
X0104100Y0113500D01*
X0084100Y0121000D02*
X0079100Y0121000D01*
X0074100Y0126000D01*
X0074100Y0153500D01*
X0054100Y0153500D02*
X0042040Y0153500D01*
X0034160Y0153500D02*
X0034160Y0165940D01*
X0034100Y0166000D01*
X0044100Y0166000D01*
X0044100Y0193500D02*
X0041600Y0196000D01*
X0039290Y0196000D01*
X0039100Y0195810D01*
X0024290Y0195810D01*
X0024100Y0196000D01*
X0029100Y0213500D02*
X0029100Y0223500D01*
X0029100Y0233563D01*
X0014100Y0263500D02*
X0029100Y0278500D01*
X0034901Y0278500D01*
X0035151Y0278750D01*
X0014100Y0263500D02*
X0014100Y0086000D01*
X0046600Y0053500D01*
X0081600Y0053500D01*
X0084100Y0056000D01*
X0106600Y0056000D01*
X0136600Y0056000D02*
X0199100Y0056000D01*
X0229100Y0086000D01*
X0229100Y0238500D01*
X0189100Y0278500D01*
X0144401Y0278500D01*
X0144151Y0278750D01*
X0149100Y0233500D02*
X0174037Y0233500D01*
X0174100Y0233563D01*
X0189100Y0211000D02*
X0191600Y0211000D01*
X0194100Y0208500D01*
X0194100Y0196000D01*
X0201600Y0178500D02*
X0204100Y0178500D01*
X0212600Y0187000D01*
X0212600Y0196000D01*
X0194100Y0233563D02*
X0194100Y0245000D01*
X0149100Y0233500D02*
X0146600Y0231000D01*
X0099100Y0231000D01*
X0089100Y0241000D02*
X0079100Y0241000D01*
X0071600Y0241000D01*
X0069100Y0238500D01*
X0069100Y0233563D01*
X0024100Y0141000D02*
X0024100Y0121000D01*
X0024100Y0111000D02*
X0023920Y0110820D01*
X0023920Y0090755D01*
X0054100Y0071000D02*
X0054100Y0061000D01*
X0064100Y0066000D02*
X0064100Y0071000D01*
X0064100Y0066000D02*
X0069100Y0061000D01*
X0074100Y0061000D01*
M02*
