%
M48
M72
T01C0.01575
T02C0.03150
T03C0.03543
T04C0.08661
%
T01
X26000Y18500
X26000Y48500
T02
X8500Y38500
X8500Y28500
T03
X66000Y83500
X76000Y83500
X86000Y83500
X86000Y93500
X76000Y93500
X66000Y93500
X96000Y93500
X96000Y83500
T04
X101000Y52500
X81000Y52500
X61000Y52500
X61000Y33500
X81000Y33500
X81000Y15250
X61000Y15250
X101000Y15250
X101000Y33500
M30
