G75*
%MOIN*%
%OFA0B0*%
%FSLAX25Y25*%
%IPPOS*%
%LPD*%
%AMOC8*
5,1,8,0,0,1.08239X$1,22.5*
%
%ADD10C,0.00000*%
%ADD11C,0.06299*%
%ADD12R,0.12661X0.12661*%
%ADD13C,0.12661*%
%ADD14C,0.04331*%
%ADD15C,0.05906*%
%ADD16R,0.05906X0.05906*%
%ADD17C,0.01600*%
D10*
X0001000Y0011000D02*
X0043500Y0011000D01*
X0043500Y0001000D01*
X0118421Y0001000D01*
X0118419Y0106001D01*
X0118500Y0106000D02*
X0043500Y0106000D01*
X0043500Y0056000D01*
X0001000Y0056000D01*
X0001000Y0011000D01*
D11*
X0066000Y0083500D03*
X0076000Y0083500D03*
X0086000Y0083500D03*
X0086000Y0093500D03*
X0076000Y0093500D03*
X0066000Y0093500D03*
X0096000Y0093500D03*
X0096000Y0083500D03*
D12*
X0061000Y0052500D03*
D13*
X0081000Y0052500D03*
X0101000Y0052500D03*
X0101000Y0033500D03*
X0101000Y0015250D03*
X0081000Y0015250D03*
X0061000Y0015250D03*
X0061000Y0033500D03*
X0081000Y0033500D03*
D14*
X0026000Y0018500D03*
X0026000Y0048500D03*
D15*
X0008500Y0038500D03*
D16*
X0008500Y0028500D03*
D17*
X0008500Y0021000D01*
X0011000Y0018500D01*
X0026000Y0018500D01*
X0008500Y0038500D02*
X0008500Y0040500D01*
X0011000Y0043000D01*
X0078500Y0043000D01*
X0081000Y0045500D01*
X0081000Y0052500D01*
X0091000Y0068500D02*
X0088500Y0071000D01*
X0078500Y0071000D01*
X0076000Y0073500D01*
X0076000Y0083500D01*
X0083500Y0088500D02*
X0086000Y0086000D01*
X0086000Y0083500D01*
X0083500Y0088500D02*
X0051000Y0088500D01*
X0048500Y0086000D01*
X0048500Y0051000D01*
X0046000Y0048500D01*
X0026000Y0048500D01*
X0081000Y0033500D02*
X0088500Y0033500D01*
X0091000Y0036000D01*
X0091000Y0068500D01*
X0101000Y0052500D02*
X0101000Y0046000D01*
X0103500Y0043500D01*
X0108500Y0043500D01*
X0111000Y0041000D01*
X0111000Y0027000D01*
X0108500Y0024500D01*
X0083500Y0024500D01*
X0081000Y0022000D01*
X0081000Y0015250D01*
M02*
