%
M48
M72
T01C0.01575
T02C0.01969
T03C0.02362
T04C0.02756
T05C0.03200
T06C0.03543
T07C0.04331
T08C0.05512
T09C0.06299
T10C0.09843
%
T01
X24100Y111000
X24100Y141000
X24100Y151000
X24100Y181000
X34100Y191000
X44100Y191000
X64100Y191000
X64100Y221000
X49100Y243500
X44100Y221000
X34100Y221000
X79100Y243500
X99100Y228500
X109100Y228500
X109100Y258500
X99100Y258500
X104100Y191000
X91600Y191000
X91600Y161000
X104100Y161000
X104100Y111000
X91600Y111000
X81600Y111000
X81600Y81000
X91600Y81000
X104100Y81000
X139100Y81000
X151600Y81000
X161600Y81000
X184100Y68500
X194100Y68500
X204100Y68500
X204100Y98500
X194100Y98500
X184100Y98500
X181600Y123500
X191600Y123500
X191600Y153500
X181600Y153500
X181600Y166000
X191600Y166000
X191600Y196000
X181600Y196000
X169100Y223500
X151600Y191000
X139100Y191000
X139100Y161000
X151600Y161000
X161600Y151000
X161600Y121000
X161600Y111000
X151600Y111000
X139100Y111000
X199100Y223500
T02
X9850Y40250
X41600Y40250
X41600Y53500
X28350Y86000
X18350Y86000
X9850Y86000
X9850Y131000
X18350Y131000
X18350Y176000
X9850Y176000
X9850Y221000
X18350Y221000
X29100Y245750
X29100Y255750
X39100Y238500
X59100Y228500
X59100Y196000
X59100Y186000
X49100Y186000
X49100Y196000
X71100Y176000
X71100Y161000
X71100Y131000
X86100Y131000
X92600Y88500
X75100Y88500
X81600Y53500
X81600Y40250
X121600Y40250
X125100Y88500
X126100Y131000
X138350Y170000
X145350Y188250
X153350Y170000
X165850Y170000
X177600Y176000
X178350Y190000
X165850Y190000
X174100Y208500
X178350Y221000
X184100Y208500
X194100Y208500
X199100Y188500
X202600Y176000
X199100Y168500
X209100Y168500
X219100Y168500
X225100Y176000
X233350Y176000
X219100Y188500
X209100Y188500
X212600Y221000
X225100Y221000
X233350Y221000
X233350Y266000
X233350Y306000
X190850Y306000
X190850Y344250
X153350Y344250
X153350Y306000
X153350Y266000
X149098Y236430
X149095Y228570
X153350Y221000
X125850Y235500
X125850Y266000
X125850Y308500
X125850Y344250
X90850Y344250
X90850Y306000
X90850Y266000
X84355Y228430
X84352Y220570
X97350Y186000
X107350Y176000
X122350Y176000
X166100Y141000
X181100Y131000
X166100Y116000
X165100Y88500
X177600Y88500
X161600Y53500
X161600Y40250
X201600Y40250
X233350Y40250
X233350Y86000
X225100Y86000
X214100Y98500
X214100Y108500
X214100Y118500
X219100Y128500
X225100Y131000
X233350Y131000
X219100Y148500
X209100Y148500
X199100Y148500
X203850Y133500
X199100Y128500
X209100Y128500
X190850Y266000
X48350Y266000
X48350Y306000
X48350Y344250
X9850Y306000
X9850Y266000
T03
X54100Y221000
X54100Y201000
X44100Y141000
X34100Y141000
X34100Y121000
X64100Y141000
X79850Y141000
X79850Y121000
X114100Y101000
X114100Y81000
X129100Y81000
X129100Y101000
X129100Y171000
X129100Y191000
X114100Y191000
X114100Y171000
X131600Y228500
X131600Y248500
X214100Y88500
X214100Y68500
T04
X119100Y228500
X119100Y250250
X89100Y258500
X89100Y236750
T05
X64100Y181000
X54100Y181000
X44100Y181000
X34100Y181000
X34100Y151000
X44100Y151000
X54100Y151000
X64100Y151000
X91600Y151000
X101600Y151000
X111600Y151000
X121600Y151000
X131600Y151000
X141600Y151000
X151600Y151000
X151600Y121000
X141600Y121000
X131600Y121000
X121600Y121000
X111600Y121000
X101600Y121000
X91600Y121000
T06
X106600Y58500
X106600Y48500
X116600Y48500
X116600Y58500
X126600Y58500
X126600Y48500
X136600Y48500
X136600Y58500
T07
X174100Y233563
X194100Y233563
X214100Y233563
X69100Y233563
X49100Y233563
X29100Y233563
T08
X35151Y278750
X35151Y303750
X35151Y328750
X99049Y328750
X99049Y303750
X99049Y278750
X144151Y278750
X144151Y303750
X144151Y328750
X208049Y328750
X208049Y303750
X208049Y278750
T09
X140100Y208500
X121600Y208500
X103100Y208500
T10
X121600Y296588
X121600Y320210
M30
