G75*
%MOIN*%
%OFA0B0*%
%FSLAX25Y25*%
%IPPOS*%
%LPD*%
%AMOC8*
5,1,8,0,0,1.08239X$1,22.5*
%
%ADD10C,0.05118*%
%ADD11R,0.04331X0.04331*%
%ADD12C,0.04331*%
%ADD13R,0.07087X0.07087*%
%ADD14C,0.07087*%
%ADD15C,0.08268*%
%ADD16C,0.13843*%
%ADD17C,0.06299*%
%ADD18C,0.05512*%
%ADD19R,0.05512X0.05512*%
%ADD20R,0.04724X0.04724*%
%ADD21C,0.04724*%
%ADD22C,0.05000*%
%ADD23R,0.09449X0.09449*%
%ADD24C,0.09449*%
%ADD25C,0.00000*%
%ADD26C,0.03200*%
%ADD27C,0.01200*%
%ADD28C,0.03346*%
%ADD29C,0.01000*%
D10*
X0034100Y0121000D03*
X0034100Y0141000D03*
X0044100Y0141000D03*
X0064100Y0141000D03*
X0079850Y0141000D03*
X0079850Y0121000D03*
X0114100Y0101000D03*
X0114100Y0081000D03*
X0129100Y0081000D03*
X0129100Y0101000D03*
X0129100Y0171000D03*
X0129100Y0191000D03*
X0114100Y0191000D03*
X0114100Y0171000D03*
X0131600Y0228500D03*
X0131600Y0248500D03*
X0054100Y0221000D03*
X0054100Y0201000D03*
X0214100Y0088500D03*
X0214100Y0068500D03*
D11*
X0149095Y0228570D03*
X0084355Y0228430D03*
D12*
X0084352Y0220570D03*
X0099100Y0228500D03*
X0109100Y0228500D03*
X0109100Y0258500D03*
X0099100Y0258500D03*
X0079100Y0243500D03*
X0064100Y0221000D03*
X0049100Y0243500D03*
X0044100Y0221000D03*
X0034100Y0221000D03*
X0034100Y0191000D03*
X0044100Y0191000D03*
X0064100Y0191000D03*
X0091600Y0191000D03*
X0104100Y0191000D03*
X0104100Y0161000D03*
X0091600Y0161000D03*
X0091600Y0111000D03*
X0081600Y0111000D03*
X0104100Y0111000D03*
X0104100Y0081000D03*
X0091600Y0081000D03*
X0081600Y0081000D03*
X0139100Y0081000D03*
X0151600Y0081000D03*
X0161600Y0081000D03*
X0184100Y0068500D03*
X0194100Y0068500D03*
X0204100Y0068500D03*
X0204100Y0098500D03*
X0194100Y0098500D03*
X0184100Y0098500D03*
X0181600Y0123500D03*
X0191600Y0123500D03*
X0191600Y0153500D03*
X0181600Y0153500D03*
X0181600Y0166000D03*
X0191600Y0166000D03*
X0191600Y0196000D03*
X0181600Y0196000D03*
X0169100Y0223500D03*
X0149098Y0236430D03*
X0151600Y0191000D03*
X0139100Y0191000D03*
X0139100Y0161000D03*
X0151600Y0161000D03*
X0161600Y0151000D03*
X0161600Y0121000D03*
X0161600Y0111000D03*
X0151600Y0111000D03*
X0139100Y0111000D03*
X0199100Y0223500D03*
X0024100Y0181000D03*
X0024100Y0151000D03*
X0024100Y0141000D03*
X0024100Y0111000D03*
D13*
X0069100Y0233563D03*
X0214100Y0233563D03*
D14*
X0194100Y0233563D03*
X0174100Y0233563D03*
X0049100Y0233563D03*
X0029100Y0233563D03*
D15*
X0035151Y0278750D03*
X0035151Y0303750D03*
X0035151Y0328750D03*
X0099049Y0328750D03*
X0099049Y0303750D03*
X0099049Y0278750D03*
X0144151Y0278750D03*
X0144151Y0303750D03*
X0144151Y0328750D03*
X0208049Y0328750D03*
X0208049Y0303750D03*
X0208049Y0278750D03*
D16*
X0121600Y0296588D03*
X0121600Y0320210D03*
D17*
X0116600Y0058500D03*
X0116600Y0048500D03*
X0106600Y0048500D03*
X0106600Y0058500D03*
X0126600Y0058500D03*
X0126600Y0048500D03*
X0136600Y0048500D03*
X0136600Y0058500D03*
D18*
X0089100Y0236750D03*
X0119100Y0250250D03*
D19*
X0119100Y0228500D03*
X0089100Y0258500D03*
D20*
X0029100Y0245750D03*
X0194100Y0208500D03*
D21*
X0184100Y0208500D03*
X0174100Y0208500D03*
X0199100Y0188500D03*
X0209100Y0188500D03*
X0219100Y0188500D03*
X0219100Y0168500D03*
X0209100Y0168500D03*
X0199100Y0168500D03*
X0199100Y0148500D03*
X0209100Y0148500D03*
X0219100Y0148500D03*
X0219100Y0128500D03*
X0214100Y0118500D03*
X0214100Y0108500D03*
X0214100Y0098500D03*
X0209100Y0128500D03*
X0199100Y0128500D03*
X0029100Y0255750D03*
D22*
X0034100Y0181000D03*
X0044100Y0181000D03*
X0054100Y0181000D03*
X0064100Y0181000D03*
X0064100Y0151000D03*
X0054100Y0151000D03*
X0044100Y0151000D03*
X0034100Y0151000D03*
X0091600Y0151000D03*
X0101600Y0151000D03*
X0111600Y0151000D03*
X0121600Y0151000D03*
X0131600Y0151000D03*
X0141600Y0151000D03*
X0151600Y0151000D03*
X0151600Y0121000D03*
X0141600Y0121000D03*
X0131600Y0121000D03*
X0121600Y0121000D03*
X0111600Y0121000D03*
X0101600Y0121000D03*
X0091600Y0121000D03*
D23*
X0140100Y0208500D03*
D24*
X0121600Y0208500D03*
X0103100Y0208500D03*
D25*
X0005350Y0035000D02*
X0237633Y0035000D01*
X0237633Y0323031D01*
X0215980Y0323031D01*
X0215980Y0350591D01*
X0027004Y0350591D01*
X0027004Y0323031D01*
X0005350Y0323031D01*
X0005350Y0035000D01*
D26*
X0024100Y0181000D02*
X0024100Y0196000D01*
X0039100Y0211000D01*
X0044100Y0211000D01*
X0091600Y0211000D01*
X0109100Y0228500D01*
X0111600Y0241000D02*
X0124100Y0241000D01*
X0131600Y0248500D01*
X0134100Y0271000D02*
X0134100Y0307710D01*
X0121600Y0320210D01*
X0134100Y0271000D02*
X0161600Y0243500D01*
X0161600Y0206000D01*
X0171600Y0196000D01*
X0171600Y0076000D01*
X0166600Y0071000D01*
X0121600Y0071000D01*
X0116600Y0066000D01*
X0116600Y0058500D01*
X0044100Y0211000D02*
X0044100Y0221000D01*
X0079100Y0243500D02*
X0081600Y0246000D01*
X0106600Y0246000D01*
X0111600Y0241000D01*
D27*
X0109592Y0238483D02*
X0093106Y0238483D01*
X0093137Y0238422D02*
X0092825Y0239033D01*
X0092422Y0239588D01*
X0091938Y0240072D01*
X0091383Y0240475D01*
X0090772Y0240787D01*
X0090120Y0240999D01*
X0089443Y0241106D01*
X0089189Y0241106D01*
X0089189Y0236839D01*
X0089011Y0236839D01*
X0089011Y0241106D01*
X0088757Y0241106D01*
X0088080Y0240999D01*
X0087428Y0240787D01*
X0086817Y0240475D01*
X0086262Y0240072D01*
X0085777Y0239588D01*
X0085374Y0239033D01*
X0085063Y0238422D01*
X0084851Y0237770D01*
X0084744Y0237093D01*
X0084744Y0236839D01*
X0089011Y0236839D01*
X0089011Y0236661D01*
X0084744Y0236661D01*
X0084744Y0236407D01*
X0084851Y0235730D01*
X0085063Y0235078D01*
X0085374Y0234467D01*
X0085777Y0233912D01*
X0086262Y0233427D01*
X0086817Y0233024D01*
X0087428Y0232713D01*
X0088080Y0232501D01*
X0088757Y0232394D01*
X0089011Y0232394D01*
X0089011Y0236661D01*
X0089189Y0236661D01*
X0089189Y0236839D01*
X0093456Y0236839D01*
X0093456Y0237093D01*
X0093349Y0237770D01*
X0093137Y0238422D01*
X0093426Y0237284D02*
X0145428Y0237284D01*
X0145477Y0237528D02*
X0145332Y0236801D01*
X0145332Y0236430D01*
X0149097Y0236430D01*
X0145332Y0236430D01*
X0145332Y0236059D01*
X0145477Y0235332D01*
X0145761Y0234646D01*
X0146173Y0234030D01*
X0146697Y0233505D01*
X0147314Y0233093D01*
X0147999Y0232809D01*
X0148727Y0232665D01*
X0149097Y0232665D01*
X0149097Y0236430D01*
X0149097Y0236430D01*
X0149097Y0240195D01*
X0148727Y0240195D01*
X0147999Y0240051D01*
X0147314Y0239767D01*
X0146697Y0239355D01*
X0146173Y0238830D01*
X0145761Y0238214D01*
X0145477Y0237528D01*
X0145941Y0238483D02*
X0126108Y0238483D01*
X0125913Y0238287D02*
X0131966Y0244341D01*
X0132427Y0244341D01*
X0133956Y0244974D01*
X0135126Y0246144D01*
X0135759Y0247673D01*
X0135759Y0249327D01*
X0135126Y0250856D01*
X0133956Y0252026D01*
X0132427Y0252659D01*
X0130773Y0252659D01*
X0129244Y0252026D01*
X0128074Y0250856D01*
X0127441Y0249327D01*
X0127441Y0248866D01*
X0122775Y0244200D01*
X0112925Y0244200D01*
X0108413Y0248713D01*
X0107237Y0249200D01*
X0080963Y0249200D01*
X0079787Y0248713D01*
X0078887Y0247813D01*
X0078332Y0247257D01*
X0076967Y0246692D01*
X0075908Y0245633D01*
X0075335Y0244249D01*
X0075335Y0242751D01*
X0075908Y0241367D01*
X0076967Y0240308D01*
X0078351Y0239735D01*
X0079849Y0239735D01*
X0081233Y0240308D01*
X0082292Y0241367D01*
X0082857Y0242732D01*
X0082925Y0242800D01*
X0105275Y0242800D01*
X0108887Y0239187D01*
X0109787Y0238287D01*
X0110963Y0237800D01*
X0124737Y0237800D01*
X0125913Y0238287D01*
X0127307Y0239681D02*
X0147186Y0239681D01*
X0149097Y0239681D02*
X0149098Y0239681D01*
X0149098Y0240195D02*
X0149098Y0236430D01*
X0152863Y0236430D01*
X0152863Y0236801D01*
X0152718Y0237528D01*
X0152434Y0238214D01*
X0152022Y0238830D01*
X0151498Y0239355D01*
X0150881Y0239767D01*
X0150196Y0240051D01*
X0149468Y0240195D01*
X0149098Y0240195D01*
X0149097Y0238483D02*
X0149098Y0238483D01*
X0149097Y0237284D02*
X0149098Y0237284D01*
X0149098Y0236430D02*
X0149097Y0236430D01*
X0149098Y0236430D01*
X0149098Y0236430D01*
X0152863Y0236430D01*
X0152863Y0236059D01*
X0152718Y0235332D01*
X0152434Y0234646D01*
X0152022Y0234030D01*
X0151498Y0233505D01*
X0150881Y0233093D01*
X0150196Y0232809D01*
X0149468Y0232665D01*
X0149098Y0232665D01*
X0149098Y0236430D01*
X0149097Y0236086D02*
X0149098Y0236086D01*
X0149097Y0234887D02*
X0149098Y0234887D01*
X0149097Y0233689D02*
X0149098Y0233689D01*
X0151681Y0233689D02*
X0158400Y0233689D01*
X0158400Y0234887D02*
X0152534Y0234887D01*
X0152863Y0236086D02*
X0158400Y0236086D01*
X0158400Y0237284D02*
X0152767Y0237284D01*
X0152255Y0238483D02*
X0158400Y0238483D01*
X0158400Y0239681D02*
X0151009Y0239681D01*
X0154901Y0245674D02*
X0134655Y0245674D01*
X0135427Y0246872D02*
X0153702Y0246872D01*
X0152504Y0248071D02*
X0135759Y0248071D01*
X0135759Y0249269D02*
X0151305Y0249269D01*
X0150107Y0250468D02*
X0135287Y0250468D01*
X0134315Y0251666D02*
X0148908Y0251666D01*
X0147710Y0252865D02*
X0122584Y0252865D01*
X0122422Y0253088D02*
X0121938Y0253572D01*
X0121383Y0253975D01*
X0120772Y0254287D01*
X0120120Y0254499D01*
X0119443Y0254606D01*
X0119189Y0254606D01*
X0119189Y0250339D01*
X0119011Y0250339D01*
X0119011Y0254606D01*
X0118757Y0254606D01*
X0118080Y0254499D01*
X0117428Y0254287D01*
X0116817Y0253975D01*
X0116262Y0253572D01*
X0115777Y0253088D01*
X0115374Y0252533D01*
X0115063Y0251922D01*
X0114851Y0251270D01*
X0114744Y0250593D01*
X0114744Y0250339D01*
X0119011Y0250339D01*
X0119011Y0250161D01*
X0114744Y0250161D01*
X0114744Y0249907D01*
X0114851Y0249230D01*
X0115063Y0248578D01*
X0115374Y0247967D01*
X0115777Y0247412D01*
X0116262Y0246927D01*
X0116817Y0246524D01*
X0117428Y0246213D01*
X0118080Y0246001D01*
X0118757Y0245894D01*
X0119011Y0245894D01*
X0119011Y0250161D01*
X0119189Y0250161D01*
X0119189Y0250339D01*
X0123456Y0250339D01*
X0123456Y0250593D01*
X0123349Y0251270D01*
X0123137Y0251922D01*
X0122825Y0252533D01*
X0122422Y0253088D01*
X0121211Y0254063D02*
X0146511Y0254063D01*
X0145313Y0255262D02*
X0111122Y0255262D01*
X0111233Y0255308D02*
X0112292Y0256367D01*
X0112865Y0257751D01*
X0112865Y0259249D01*
X0112292Y0260633D01*
X0111233Y0261692D01*
X0109849Y0262265D01*
X0108351Y0262265D01*
X0106967Y0261692D01*
X0105908Y0260633D01*
X0105335Y0259249D01*
X0105335Y0257751D01*
X0105908Y0256367D01*
X0106967Y0255308D01*
X0108351Y0254735D01*
X0109849Y0254735D01*
X0111233Y0255308D01*
X0112331Y0256460D02*
X0144114Y0256460D01*
X0142916Y0257659D02*
X0112827Y0257659D01*
X0112865Y0258857D02*
X0141717Y0258857D01*
X0140519Y0260056D02*
X0112531Y0260056D01*
X0111671Y0261254D02*
X0139320Y0261254D01*
X0138122Y0262453D02*
X0092922Y0262453D01*
X0092519Y0262856D02*
X0085681Y0262856D01*
X0084744Y0261919D01*
X0084744Y0255081D01*
X0085681Y0254144D01*
X0092519Y0254144D01*
X0093456Y0255081D01*
X0093456Y0261919D01*
X0092519Y0262856D01*
X0093456Y0261254D02*
X0096529Y0261254D01*
X0096967Y0261692D02*
X0095908Y0260633D01*
X0095335Y0259249D01*
X0095335Y0257751D01*
X0095908Y0256367D01*
X0096967Y0255308D01*
X0098351Y0254735D01*
X0099849Y0254735D01*
X0101233Y0255308D01*
X0102292Y0256367D01*
X0102865Y0257751D01*
X0102865Y0259249D01*
X0102292Y0260633D01*
X0101233Y0261692D01*
X0099849Y0262265D01*
X0098351Y0262265D01*
X0096967Y0261692D01*
X0095669Y0260056D02*
X0093456Y0260056D01*
X0093456Y0258857D02*
X0095335Y0258857D01*
X0095373Y0257659D02*
X0093456Y0257659D01*
X0093456Y0256460D02*
X0095869Y0256460D01*
X0097078Y0255262D02*
X0093456Y0255262D01*
X0101122Y0255262D02*
X0107078Y0255262D01*
X0105869Y0256460D02*
X0102331Y0256460D01*
X0102827Y0257659D02*
X0105373Y0257659D01*
X0105335Y0258857D02*
X0102865Y0258857D01*
X0102531Y0260056D02*
X0105669Y0260056D01*
X0106529Y0261254D02*
X0101671Y0261254D01*
X0100189Y0273016D02*
X0097908Y0273016D01*
X0095801Y0273889D01*
X0094188Y0275502D01*
X0093315Y0277609D01*
X0093315Y0279891D01*
X0094188Y0281998D01*
X0095801Y0283611D01*
X0097908Y0284484D01*
X0100189Y0284484D01*
X0102297Y0283611D01*
X0103910Y0281998D01*
X0104783Y0279891D01*
X0104783Y0277609D01*
X0103910Y0275502D01*
X0102297Y0273889D01*
X0100189Y0273016D01*
X0100729Y0273239D02*
X0130900Y0273239D01*
X0130900Y0272041D02*
X0007950Y0272041D01*
X0007950Y0273239D02*
X0033471Y0273239D01*
X0034011Y0273016D02*
X0036292Y0273016D01*
X0038399Y0273889D01*
X0040012Y0275502D01*
X0040885Y0277609D01*
X0040885Y0279891D01*
X0040012Y0281998D01*
X0038399Y0283611D01*
X0036292Y0284484D01*
X0034011Y0284484D01*
X0031903Y0283611D01*
X0030290Y0281998D01*
X0029417Y0279891D01*
X0029417Y0277609D01*
X0030290Y0275502D01*
X0031903Y0273889D01*
X0034011Y0273016D01*
X0031354Y0274438D02*
X0007950Y0274438D01*
X0007950Y0275637D02*
X0030235Y0275637D01*
X0029738Y0276835D02*
X0007950Y0276835D01*
X0007950Y0278034D02*
X0029417Y0278034D01*
X0029417Y0279232D02*
X0007950Y0279232D01*
X0007950Y0280431D02*
X0029641Y0280431D01*
X0030137Y0281629D02*
X0007950Y0281629D01*
X0007950Y0282828D02*
X0031120Y0282828D01*
X0032905Y0284026D02*
X0007950Y0284026D01*
X0007950Y0285225D02*
X0130900Y0285225D01*
X0130900Y0286423D02*
X0007950Y0286423D01*
X0007950Y0287622D02*
X0130900Y0287622D01*
X0130900Y0288820D02*
X0125114Y0288820D01*
X0125377Y0288929D02*
X0126344Y0289488D01*
X0127230Y0290168D01*
X0128020Y0290957D01*
X0128700Y0291844D01*
X0129259Y0292811D01*
X0129686Y0293843D01*
X0129975Y0294922D01*
X0130116Y0295988D01*
X0122200Y0295988D01*
X0122200Y0297188D01*
X0121000Y0297188D01*
X0121000Y0305104D01*
X0119934Y0304963D01*
X0118855Y0304674D01*
X0117823Y0304247D01*
X0116856Y0303688D01*
X0115969Y0303008D01*
X0115180Y0302218D01*
X0114500Y0301332D01*
X0113941Y0300365D01*
X0113514Y0299333D01*
X0113225Y0298254D01*
X0113084Y0297188D01*
X0121000Y0297188D01*
X0121000Y0295988D01*
X0113084Y0295988D01*
X0113225Y0294922D01*
X0113514Y0293843D01*
X0113941Y0292811D01*
X0114500Y0291844D01*
X0115180Y0290957D01*
X0115969Y0290168D01*
X0116856Y0289488D01*
X0117823Y0288929D01*
X0118855Y0288502D01*
X0119934Y0288213D01*
X0121000Y0288072D01*
X0121000Y0295988D01*
X0122200Y0295988D01*
X0122200Y0288072D01*
X0123266Y0288213D01*
X0124345Y0288502D01*
X0125377Y0288929D01*
X0127036Y0290019D02*
X0130900Y0290019D01*
X0130900Y0291217D02*
X0128220Y0291217D01*
X0129031Y0292416D02*
X0130900Y0292416D01*
X0130900Y0293614D02*
X0129592Y0293614D01*
X0129946Y0294813D02*
X0130900Y0294813D01*
X0130900Y0296011D02*
X0122200Y0296011D01*
X0122200Y0297188D02*
X0130116Y0297188D01*
X0129975Y0298254D01*
X0129686Y0299333D01*
X0129259Y0300365D01*
X0128700Y0301332D01*
X0128020Y0302218D01*
X0127230Y0303008D01*
X0126344Y0303688D01*
X0125377Y0304247D01*
X0124345Y0304674D01*
X0123266Y0304963D01*
X0122200Y0305104D01*
X0122200Y0297188D01*
X0122200Y0297210D02*
X0121000Y0297210D01*
X0121000Y0298408D02*
X0122200Y0298408D01*
X0122200Y0299607D02*
X0121000Y0299607D01*
X0121000Y0300805D02*
X0122200Y0300805D01*
X0122200Y0302004D02*
X0121000Y0302004D01*
X0121000Y0303202D02*
X0122200Y0303202D01*
X0122200Y0304401D02*
X0121000Y0304401D01*
X0118195Y0304401D02*
X0104783Y0304401D01*
X0104783Y0304891D02*
X0103910Y0306998D01*
X0102297Y0308611D01*
X0100189Y0309484D01*
X0097908Y0309484D01*
X0095801Y0308611D01*
X0094188Y0306998D01*
X0093315Y0304891D01*
X0093315Y0302609D01*
X0094188Y0300502D01*
X0095801Y0298889D01*
X0097908Y0298016D01*
X0100189Y0298016D01*
X0102297Y0298889D01*
X0103910Y0300502D01*
X0104783Y0302609D01*
X0104783Y0304891D01*
X0104489Y0305599D02*
X0130900Y0305599D01*
X0130900Y0306385D02*
X0130900Y0270363D01*
X0131387Y0269187D01*
X0132287Y0268287D01*
X0158400Y0242175D01*
X0158400Y0205363D01*
X0158887Y0204187D01*
X0159787Y0203287D01*
X0168400Y0194675D01*
X0168400Y0077325D01*
X0165275Y0074200D01*
X0120963Y0074200D01*
X0119787Y0073713D01*
X0118887Y0072813D01*
X0113887Y0067813D01*
X0113400Y0066637D01*
X0113400Y0062017D01*
X0112573Y0061190D01*
X0111850Y0059445D01*
X0111850Y0057555D01*
X0112573Y0055810D01*
X0113910Y0054473D01*
X0115655Y0053750D01*
X0117545Y0053750D01*
X0119290Y0054473D01*
X0120627Y0055810D01*
X0121350Y0057555D01*
X0121350Y0059445D01*
X0120627Y0061190D01*
X0119800Y0062017D01*
X0119800Y0064675D01*
X0122925Y0067800D01*
X0167237Y0067800D01*
X0168413Y0068287D01*
X0173413Y0073287D01*
X0174313Y0074187D01*
X0174800Y0075363D01*
X0174800Y0196637D01*
X0174313Y0197813D01*
X0164800Y0207325D01*
X0164800Y0244137D01*
X0164313Y0245313D01*
X0137300Y0272325D01*
X0137300Y0308347D01*
X0136813Y0309523D01*
X0129447Y0316888D01*
X0130121Y0318515D01*
X0130121Y0321905D01*
X0128824Y0325037D01*
X0126427Y0327434D01*
X0123295Y0328731D01*
X0119905Y0328731D01*
X0116773Y0327434D01*
X0114376Y0325037D01*
X0113079Y0321905D01*
X0113079Y0318515D01*
X0114376Y0315383D01*
X0116773Y0312986D01*
X0119905Y0311689D01*
X0123295Y0311689D01*
X0124922Y0312363D01*
X0130900Y0306385D01*
X0130487Y0306798D02*
X0103993Y0306798D01*
X0102911Y0307996D02*
X0129288Y0307996D01*
X0128090Y0309195D02*
X0100887Y0309195D01*
X0097211Y0309195D02*
X0036989Y0309195D01*
X0036292Y0309484D02*
X0038399Y0308611D01*
X0040012Y0306998D01*
X0040885Y0304891D01*
X0040885Y0302609D01*
X0040012Y0300502D01*
X0038399Y0298889D01*
X0036292Y0298016D01*
X0034011Y0298016D01*
X0031903Y0298889D01*
X0030290Y0300502D01*
X0029417Y0302609D01*
X0029417Y0304891D01*
X0030290Y0306998D01*
X0031903Y0308611D01*
X0034011Y0309484D01*
X0036292Y0309484D01*
X0033313Y0309195D02*
X0007950Y0309195D01*
X0007950Y0310393D02*
X0126891Y0310393D01*
X0125693Y0311592D02*
X0007950Y0311592D01*
X0007950Y0312790D02*
X0117246Y0312790D01*
X0115770Y0313989D02*
X0007950Y0313989D01*
X0007950Y0315187D02*
X0114572Y0315187D01*
X0113961Y0316386D02*
X0007950Y0316386D01*
X0007950Y0317584D02*
X0113464Y0317584D01*
X0113079Y0318783D02*
X0007950Y0318783D01*
X0007950Y0319981D02*
X0113079Y0319981D01*
X0113079Y0321180D02*
X0028829Y0321180D01*
X0028476Y0320827D02*
X0029208Y0321559D01*
X0029604Y0322514D01*
X0029604Y0327269D01*
X0029837Y0326549D01*
X0030247Y0325745D01*
X0030778Y0325015D01*
X0031416Y0324376D01*
X0032146Y0323846D01*
X0032950Y0323436D01*
X0033808Y0323157D01*
X0034551Y0323040D01*
X0034551Y0328150D01*
X0035751Y0328150D01*
X0035751Y0323040D01*
X0036494Y0323157D01*
X0037352Y0323436D01*
X0038156Y0323846D01*
X0038887Y0324376D01*
X0039525Y0325015D01*
X0040055Y0325745D01*
X0040465Y0326549D01*
X0040744Y0327407D01*
X0040861Y0328150D01*
X0035751Y0328150D01*
X0035751Y0329350D01*
X0034551Y0329350D01*
X0034551Y0334460D01*
X0033808Y0334343D01*
X0032950Y0334064D01*
X0032146Y0333654D01*
X0031416Y0333124D01*
X0030778Y0332485D01*
X0030247Y0331755D01*
X0029837Y0330951D01*
X0029604Y0330231D01*
X0029604Y0347991D01*
X0213380Y0347991D01*
X0213380Y0330863D01*
X0212910Y0331998D01*
X0211297Y0333611D01*
X0209189Y0334484D01*
X0206908Y0334484D01*
X0204801Y0333611D01*
X0203188Y0331998D01*
X0202315Y0329891D01*
X0202315Y0327609D01*
X0203188Y0325502D01*
X0204801Y0323889D01*
X0206908Y0323016D01*
X0209189Y0323016D01*
X0211297Y0323889D01*
X0212910Y0325502D01*
X0213380Y0326637D01*
X0213380Y0322514D01*
X0213776Y0321559D01*
X0214507Y0320827D01*
X0215463Y0320431D01*
X0235033Y0320431D01*
X0235033Y0037600D01*
X0007950Y0037600D01*
X0007950Y0320431D01*
X0027521Y0320431D01*
X0028476Y0320827D01*
X0029547Y0322378D02*
X0113275Y0322378D01*
X0113771Y0323577D02*
X0101543Y0323577D01*
X0102297Y0323889D02*
X0100189Y0323016D01*
X0097908Y0323016D01*
X0095801Y0323889D01*
X0094188Y0325502D01*
X0093315Y0327609D01*
X0093315Y0329891D01*
X0094188Y0331998D01*
X0095801Y0333611D01*
X0097908Y0334484D01*
X0100189Y0334484D01*
X0102297Y0333611D01*
X0103910Y0331998D01*
X0104783Y0329891D01*
X0104783Y0327609D01*
X0103910Y0325502D01*
X0102297Y0323889D01*
X0103183Y0324775D02*
X0114268Y0324775D01*
X0115313Y0325974D02*
X0104105Y0325974D01*
X0104602Y0327172D02*
X0116512Y0327172D01*
X0119035Y0328371D02*
X0104783Y0328371D01*
X0104783Y0329570D02*
X0138476Y0329570D01*
X0138441Y0329350D02*
X0143551Y0329350D01*
X0143551Y0328150D01*
X0138441Y0328150D01*
X0138559Y0327407D01*
X0138837Y0326549D01*
X0139247Y0325745D01*
X0139778Y0325015D01*
X0140416Y0324376D01*
X0141146Y0323846D01*
X0141950Y0323436D01*
X0142808Y0323157D01*
X0143551Y0323040D01*
X0143551Y0328150D01*
X0144751Y0328150D01*
X0144751Y0323040D01*
X0145494Y0323157D01*
X0146352Y0323436D01*
X0147156Y0323846D01*
X0147887Y0324376D01*
X0148525Y0325015D01*
X0149055Y0325745D01*
X0149465Y0326549D01*
X0149744Y0327407D01*
X0149861Y0328150D01*
X0144751Y0328150D01*
X0144751Y0329350D01*
X0143551Y0329350D01*
X0143551Y0334460D01*
X0142808Y0334343D01*
X0141950Y0334064D01*
X0141146Y0333654D01*
X0140416Y0333124D01*
X0139778Y0332485D01*
X0139247Y0331755D01*
X0138837Y0330951D01*
X0138559Y0330093D01*
X0138441Y0329350D01*
X0138778Y0330768D02*
X0104419Y0330768D01*
X0103923Y0331967D02*
X0139401Y0331967D01*
X0140473Y0333165D02*
X0102743Y0333165D01*
X0100480Y0334364D02*
X0142940Y0334364D01*
X0143551Y0334364D02*
X0144751Y0334364D01*
X0144751Y0334460D02*
X0144751Y0329350D01*
X0149861Y0329350D01*
X0149744Y0330093D01*
X0149465Y0330951D01*
X0149055Y0331755D01*
X0148525Y0332485D01*
X0147887Y0333124D01*
X0147156Y0333654D01*
X0146352Y0334064D01*
X0145494Y0334343D01*
X0144751Y0334460D01*
X0145362Y0334364D02*
X0206618Y0334364D01*
X0204355Y0333165D02*
X0147829Y0333165D01*
X0148902Y0331967D02*
X0203175Y0331967D01*
X0202678Y0330768D02*
X0149524Y0330768D01*
X0149827Y0329570D02*
X0202315Y0329570D01*
X0202315Y0328371D02*
X0144751Y0328371D01*
X0144751Y0327172D02*
X0143551Y0327172D01*
X0143551Y0325974D02*
X0144751Y0325974D01*
X0144751Y0324775D02*
X0143551Y0324775D01*
X0143551Y0323577D02*
X0144751Y0323577D01*
X0146628Y0323577D02*
X0205554Y0323577D01*
X0203914Y0324775D02*
X0148286Y0324775D01*
X0149172Y0325974D02*
X0202992Y0325974D01*
X0202496Y0327172D02*
X0149668Y0327172D01*
X0144751Y0329570D02*
X0143551Y0329570D01*
X0143551Y0330768D02*
X0144751Y0330768D01*
X0144751Y0331967D02*
X0143551Y0331967D01*
X0143551Y0333165D02*
X0144751Y0333165D01*
X0143551Y0328371D02*
X0124165Y0328371D01*
X0126688Y0327172D02*
X0138635Y0327172D01*
X0139130Y0325974D02*
X0127887Y0325974D01*
X0128932Y0324775D02*
X0140017Y0324775D01*
X0141674Y0323577D02*
X0129429Y0323577D01*
X0129925Y0322378D02*
X0213436Y0322378D01*
X0213380Y0323577D02*
X0210543Y0323577D01*
X0212183Y0324775D02*
X0213380Y0324775D01*
X0213380Y0325974D02*
X0213105Y0325974D01*
X0212923Y0331967D02*
X0213380Y0331967D01*
X0213380Y0333165D02*
X0211743Y0333165D01*
X0213380Y0334364D02*
X0209480Y0334364D01*
X0213380Y0335562D02*
X0029604Y0335562D01*
X0029604Y0334364D02*
X0033940Y0334364D01*
X0034551Y0334364D02*
X0035751Y0334364D01*
X0035751Y0334460D02*
X0035751Y0329350D01*
X0040861Y0329350D01*
X0040744Y0330093D01*
X0040465Y0330951D01*
X0040055Y0331755D01*
X0039525Y0332485D01*
X0038887Y0333124D01*
X0038156Y0333654D01*
X0037352Y0334064D01*
X0036494Y0334343D01*
X0035751Y0334460D01*
X0036362Y0334364D02*
X0097618Y0334364D01*
X0095355Y0333165D02*
X0038829Y0333165D01*
X0039902Y0331967D02*
X0094175Y0331967D01*
X0093678Y0330768D02*
X0040524Y0330768D01*
X0040827Y0329570D02*
X0093315Y0329570D01*
X0093315Y0328371D02*
X0035751Y0328371D01*
X0035751Y0327172D02*
X0034551Y0327172D01*
X0034551Y0325974D02*
X0035751Y0325974D01*
X0035751Y0324775D02*
X0034551Y0324775D01*
X0034551Y0323577D02*
X0035751Y0323577D01*
X0037628Y0323577D02*
X0096554Y0323577D01*
X0094914Y0324775D02*
X0039286Y0324775D01*
X0040172Y0325974D02*
X0093992Y0325974D01*
X0093496Y0327172D02*
X0040668Y0327172D01*
X0035751Y0329570D02*
X0034551Y0329570D01*
X0034551Y0330768D02*
X0035751Y0330768D01*
X0035751Y0331967D02*
X0034551Y0331967D01*
X0034551Y0333165D02*
X0035751Y0333165D01*
X0031473Y0333165D02*
X0029604Y0333165D01*
X0029604Y0331967D02*
X0030401Y0331967D01*
X0029778Y0330768D02*
X0029604Y0330768D01*
X0029604Y0327172D02*
X0029635Y0327172D01*
X0029604Y0325974D02*
X0030130Y0325974D01*
X0029604Y0324775D02*
X0031017Y0324775D01*
X0029604Y0323577D02*
X0032674Y0323577D01*
X0029604Y0336761D02*
X0213380Y0336761D01*
X0213380Y0337959D02*
X0029604Y0337959D01*
X0029604Y0339158D02*
X0213380Y0339158D01*
X0213380Y0340356D02*
X0029604Y0340356D01*
X0029604Y0341555D02*
X0213380Y0341555D01*
X0213380Y0342753D02*
X0029604Y0342753D01*
X0029604Y0343952D02*
X0213380Y0343952D01*
X0213380Y0345150D02*
X0029604Y0345150D01*
X0029604Y0346349D02*
X0213380Y0346349D01*
X0213380Y0347547D02*
X0029604Y0347547D01*
X0031289Y0307996D02*
X0007950Y0307996D01*
X0007950Y0306798D02*
X0030207Y0306798D01*
X0029711Y0305599D02*
X0007950Y0305599D01*
X0007950Y0304401D02*
X0029417Y0304401D01*
X0029417Y0303202D02*
X0007950Y0303202D01*
X0007950Y0302004D02*
X0029668Y0302004D01*
X0030165Y0300805D02*
X0007950Y0300805D01*
X0007950Y0299607D02*
X0031186Y0299607D01*
X0033064Y0298408D02*
X0007950Y0298408D01*
X0007950Y0297210D02*
X0113087Y0297210D01*
X0113266Y0298408D02*
X0101136Y0298408D01*
X0103014Y0299607D02*
X0113627Y0299607D01*
X0114195Y0300805D02*
X0104035Y0300805D01*
X0104532Y0302004D02*
X0115015Y0302004D01*
X0116222Y0303202D02*
X0104783Y0303202D01*
X0113254Y0294813D02*
X0007950Y0294813D01*
X0007950Y0296011D02*
X0121000Y0296011D01*
X0121000Y0294813D02*
X0122200Y0294813D01*
X0122200Y0293614D02*
X0121000Y0293614D01*
X0121000Y0292416D02*
X0122200Y0292416D01*
X0122200Y0291217D02*
X0121000Y0291217D01*
X0121000Y0290019D02*
X0122200Y0290019D01*
X0122200Y0288820D02*
X0121000Y0288820D01*
X0118086Y0288820D02*
X0007950Y0288820D01*
X0007950Y0290019D02*
X0116164Y0290019D01*
X0114980Y0291217D02*
X0007950Y0291217D01*
X0007950Y0292416D02*
X0114169Y0292416D01*
X0113608Y0293614D02*
X0007950Y0293614D01*
X0007950Y0270842D02*
X0130900Y0270842D01*
X0131198Y0269644D02*
X0007950Y0269644D01*
X0007950Y0268445D02*
X0132129Y0268445D01*
X0133328Y0267247D02*
X0007950Y0267247D01*
X0007950Y0266048D02*
X0134526Y0266048D01*
X0135725Y0264850D02*
X0007950Y0264850D01*
X0007950Y0263651D02*
X0136923Y0263651D01*
X0141180Y0268445D02*
X0235033Y0268445D01*
X0235033Y0267247D02*
X0142379Y0267247D01*
X0143577Y0266048D02*
X0235033Y0266048D01*
X0235033Y0264850D02*
X0144776Y0264850D01*
X0145974Y0263651D02*
X0235033Y0263651D01*
X0235033Y0262453D02*
X0147173Y0262453D01*
X0148371Y0261254D02*
X0235033Y0261254D01*
X0235033Y0260056D02*
X0149570Y0260056D01*
X0150768Y0258857D02*
X0235033Y0258857D01*
X0235033Y0257659D02*
X0151967Y0257659D01*
X0153165Y0256460D02*
X0235033Y0256460D01*
X0235033Y0255262D02*
X0154364Y0255262D01*
X0155562Y0254063D02*
X0235033Y0254063D01*
X0235033Y0252865D02*
X0156761Y0252865D01*
X0157959Y0251666D02*
X0235033Y0251666D01*
X0235033Y0250468D02*
X0159158Y0250468D01*
X0160356Y0249269D02*
X0235033Y0249269D01*
X0235033Y0248071D02*
X0161555Y0248071D01*
X0162753Y0246872D02*
X0235033Y0246872D01*
X0235033Y0245674D02*
X0163952Y0245674D01*
X0164660Y0244475D02*
X0235033Y0244475D01*
X0235033Y0243277D02*
X0164800Y0243277D01*
X0164800Y0242078D02*
X0235033Y0242078D01*
X0235033Y0240880D02*
X0164800Y0240880D01*
X0164800Y0239681D02*
X0235033Y0239681D01*
X0235033Y0238483D02*
X0218530Y0238483D01*
X0218306Y0238706D02*
X0209894Y0238706D01*
X0208957Y0237769D01*
X0208957Y0229357D01*
X0209894Y0228420D01*
X0218306Y0228420D01*
X0219243Y0229357D01*
X0219243Y0237769D01*
X0218306Y0238706D01*
X0219243Y0237284D02*
X0235033Y0237284D01*
X0235033Y0236086D02*
X0219243Y0236086D01*
X0219243Y0234887D02*
X0235033Y0234887D01*
X0235033Y0233689D02*
X0219243Y0233689D01*
X0219243Y0232490D02*
X0235033Y0232490D01*
X0235033Y0231292D02*
X0219243Y0231292D01*
X0219243Y0230093D02*
X0235033Y0230093D01*
X0235033Y0228895D02*
X0218781Y0228895D01*
X0209419Y0228895D02*
X0196270Y0228895D01*
X0197013Y0229203D02*
X0195123Y0228420D01*
X0193077Y0228420D01*
X0191187Y0229203D01*
X0189740Y0230650D01*
X0188957Y0232540D01*
X0188957Y0234586D01*
X0189740Y0236476D01*
X0191187Y0237923D01*
X0193077Y0238706D01*
X0195123Y0238706D01*
X0197013Y0237923D01*
X0198460Y0236476D01*
X0199243Y0234586D01*
X0199243Y0232540D01*
X0198460Y0230650D01*
X0197013Y0229203D01*
X0197904Y0230093D02*
X0208957Y0230093D01*
X0208957Y0231292D02*
X0198726Y0231292D01*
X0199223Y0232490D02*
X0208957Y0232490D01*
X0208957Y0233689D02*
X0199243Y0233689D01*
X0199119Y0234887D02*
X0208957Y0234887D01*
X0208957Y0236086D02*
X0198622Y0236086D01*
X0197653Y0237284D02*
X0208957Y0237284D01*
X0209670Y0238483D02*
X0195663Y0238483D01*
X0192537Y0238483D02*
X0175663Y0238483D01*
X0175123Y0238706D02*
X0173077Y0238706D01*
X0171187Y0237923D01*
X0169740Y0236476D01*
X0168957Y0234586D01*
X0168957Y0232540D01*
X0169740Y0230650D01*
X0171187Y0229203D01*
X0173077Y0228420D01*
X0175123Y0228420D01*
X0177013Y0229203D01*
X0178460Y0230650D01*
X0179243Y0232540D01*
X0179243Y0234586D01*
X0178460Y0236476D01*
X0177013Y0237923D01*
X0175123Y0238706D01*
X0177653Y0237284D02*
X0190547Y0237284D01*
X0189578Y0236086D02*
X0178622Y0236086D01*
X0179119Y0234887D02*
X0189081Y0234887D01*
X0188957Y0233689D02*
X0179243Y0233689D01*
X0179223Y0232490D02*
X0188977Y0232490D01*
X0189474Y0231292D02*
X0178726Y0231292D01*
X0177904Y0230093D02*
X0190296Y0230093D01*
X0191930Y0228895D02*
X0176270Y0228895D01*
X0171930Y0228895D02*
X0164800Y0228895D01*
X0164800Y0230093D02*
X0170296Y0230093D01*
X0169474Y0231292D02*
X0164800Y0231292D01*
X0164800Y0232490D02*
X0168977Y0232490D01*
X0168957Y0233689D02*
X0164800Y0233689D01*
X0164800Y0234887D02*
X0169081Y0234887D01*
X0169578Y0236086D02*
X0164800Y0236086D01*
X0164800Y0237284D02*
X0170547Y0237284D01*
X0172537Y0238483D02*
X0164800Y0238483D01*
X0158400Y0240880D02*
X0128505Y0240880D01*
X0129704Y0242078D02*
X0158400Y0242078D01*
X0157298Y0243277D02*
X0130902Y0243277D01*
X0132751Y0244475D02*
X0156099Y0244475D01*
X0158400Y0232490D02*
X0132835Y0232490D01*
X0132427Y0232659D02*
X0130773Y0232659D01*
X0129244Y0232026D01*
X0128074Y0230856D01*
X0127441Y0229327D01*
X0127441Y0227673D01*
X0128074Y0226144D01*
X0129244Y0224974D01*
X0130773Y0224341D01*
X0132427Y0224341D01*
X0133956Y0224974D01*
X0135126Y0226144D01*
X0135759Y0227673D01*
X0135759Y0229327D01*
X0135126Y0230856D01*
X0133956Y0232026D01*
X0132427Y0232659D01*
X0130365Y0232490D02*
X0122884Y0232490D01*
X0122519Y0232856D02*
X0123456Y0231919D01*
X0123456Y0225081D01*
X0122519Y0224144D01*
X0115681Y0224144D01*
X0114744Y0225081D01*
X0114744Y0231919D01*
X0115681Y0232856D01*
X0122519Y0232856D01*
X0123456Y0231292D02*
X0128510Y0231292D01*
X0127758Y0230093D02*
X0123456Y0230093D01*
X0123456Y0228895D02*
X0127441Y0228895D01*
X0127441Y0227696D02*
X0123456Y0227696D01*
X0123456Y0226498D02*
X0127928Y0226498D01*
X0128919Y0225299D02*
X0123456Y0225299D01*
X0114744Y0225299D02*
X0111212Y0225299D01*
X0111233Y0225308D02*
X0112292Y0226367D01*
X0112865Y0227751D01*
X0112865Y0229249D01*
X0112292Y0230633D01*
X0111233Y0231692D01*
X0109849Y0232265D01*
X0108351Y0232265D01*
X0106967Y0231692D01*
X0105908Y0230633D01*
X0105343Y0229268D01*
X0090275Y0214200D01*
X0047300Y0214200D01*
X0047300Y0218886D01*
X0047865Y0220251D01*
X0047865Y0221749D01*
X0047292Y0223133D01*
X0046233Y0224192D01*
X0044849Y0224765D01*
X0043351Y0224765D01*
X0041967Y0224192D01*
X0040908Y0223133D01*
X0040335Y0221749D01*
X0040335Y0220251D01*
X0040900Y0218886D01*
X0040900Y0214200D01*
X0038463Y0214200D01*
X0037287Y0213713D01*
X0036387Y0212813D01*
X0021387Y0197813D01*
X0020900Y0196637D01*
X0020900Y0183114D01*
X0020335Y0181749D01*
X0020335Y0180251D01*
X0020908Y0178867D01*
X0021967Y0177808D01*
X0023351Y0177235D01*
X0024849Y0177235D01*
X0026233Y0177808D01*
X0027292Y0178867D01*
X0027865Y0180251D01*
X0027865Y0181749D01*
X0027300Y0183114D01*
X0027300Y0194675D01*
X0040425Y0207800D01*
X0092237Y0207800D01*
X0093413Y0208287D01*
X0109868Y0224743D01*
X0111233Y0225308D01*
X0112346Y0226498D02*
X0114744Y0226498D01*
X0114744Y0227696D02*
X0112843Y0227696D01*
X0112865Y0228895D02*
X0114744Y0228895D01*
X0114744Y0230093D02*
X0112516Y0230093D01*
X0111633Y0231292D02*
X0114744Y0231292D01*
X0115316Y0232490D02*
X0090049Y0232490D01*
X0090120Y0232501D02*
X0090772Y0232713D01*
X0091383Y0233024D01*
X0091938Y0233427D01*
X0092422Y0233912D01*
X0092825Y0234467D01*
X0093137Y0235078D01*
X0093349Y0235730D01*
X0093456Y0236407D01*
X0093456Y0236661D01*
X0089189Y0236661D01*
X0089189Y0232394D01*
X0089443Y0232394D01*
X0090120Y0232501D01*
X0089189Y0232490D02*
X0089011Y0232490D01*
X0088151Y0232490D02*
X0074243Y0232490D01*
X0074243Y0231292D02*
X0080623Y0231292D01*
X0080590Y0231258D02*
X0080590Y0225602D01*
X0081527Y0224665D01*
X0087183Y0224665D01*
X0088120Y0225602D01*
X0088120Y0231258D01*
X0087183Y0232195D01*
X0081527Y0232195D01*
X0080590Y0231258D01*
X0080590Y0230093D02*
X0074243Y0230093D01*
X0074243Y0229357D02*
X0074243Y0237769D01*
X0073306Y0238706D01*
X0064894Y0238706D01*
X0063957Y0237769D01*
X0063957Y0229357D01*
X0064894Y0228420D01*
X0073306Y0228420D01*
X0074243Y0229357D01*
X0073781Y0228895D02*
X0080590Y0228895D01*
X0080590Y0227696D02*
X0007950Y0227696D01*
X0007950Y0226498D02*
X0080590Y0226498D01*
X0080893Y0225299D02*
X0007950Y0225299D01*
X0007950Y0224101D02*
X0031876Y0224101D01*
X0031967Y0224192D02*
X0030908Y0223133D01*
X0030335Y0221749D01*
X0030335Y0220251D01*
X0030908Y0218867D01*
X0031967Y0217808D01*
X0033351Y0217235D01*
X0034849Y0217235D01*
X0036233Y0217808D01*
X0037292Y0218867D01*
X0037865Y0220251D01*
X0037865Y0221749D01*
X0037292Y0223133D01*
X0036233Y0224192D01*
X0034849Y0224765D01*
X0033351Y0224765D01*
X0031967Y0224192D01*
X0030812Y0222902D02*
X0007950Y0222902D01*
X0007950Y0221703D02*
X0030335Y0221703D01*
X0030335Y0220505D02*
X0007950Y0220505D01*
X0007950Y0219306D02*
X0030726Y0219306D01*
X0031667Y0218108D02*
X0007950Y0218108D01*
X0007950Y0216909D02*
X0040900Y0216909D01*
X0040900Y0215711D02*
X0007950Y0215711D01*
X0007950Y0214512D02*
X0040900Y0214512D01*
X0040900Y0218108D02*
X0036533Y0218108D01*
X0037474Y0219306D02*
X0040726Y0219306D01*
X0040335Y0220505D02*
X0037865Y0220505D01*
X0037865Y0221703D02*
X0040335Y0221703D01*
X0040812Y0222902D02*
X0037388Y0222902D01*
X0036324Y0224101D02*
X0041876Y0224101D01*
X0046324Y0224101D02*
X0051319Y0224101D01*
X0051744Y0224526D02*
X0050574Y0223356D01*
X0049941Y0221827D01*
X0049941Y0220173D01*
X0050574Y0218644D01*
X0051744Y0217474D01*
X0053273Y0216841D01*
X0054927Y0216841D01*
X0056456Y0217474D01*
X0057626Y0218644D01*
X0058259Y0220173D01*
X0058259Y0221827D01*
X0057626Y0223356D01*
X0056456Y0224526D01*
X0054927Y0225159D01*
X0053273Y0225159D01*
X0051744Y0224526D01*
X0050386Y0222902D02*
X0047388Y0222902D01*
X0047865Y0221703D02*
X0049941Y0221703D01*
X0049941Y0220505D02*
X0047865Y0220505D01*
X0047474Y0219306D02*
X0050300Y0219306D01*
X0051110Y0218108D02*
X0047300Y0218108D01*
X0047300Y0216909D02*
X0053107Y0216909D01*
X0055093Y0216909D02*
X0083455Y0216909D01*
X0083254Y0216949D02*
X0083982Y0216805D01*
X0084352Y0216805D01*
X0084352Y0220570D01*
X0080587Y0220570D01*
X0084352Y0220570D01*
X0084352Y0220570D01*
X0084352Y0224335D01*
X0083982Y0224335D01*
X0083254Y0224191D01*
X0082569Y0223907D01*
X0081952Y0223495D01*
X0081428Y0222970D01*
X0081016Y0222354D01*
X0080732Y0221668D01*
X0080587Y0220941D01*
X0080587Y0220570D01*
X0080587Y0220199D01*
X0080732Y0219472D01*
X0081016Y0218786D01*
X0081428Y0218170D01*
X0081952Y0217645D01*
X0082569Y0217233D01*
X0083254Y0216949D01*
X0084352Y0216909D02*
X0084353Y0216909D01*
X0084353Y0216805D02*
X0084723Y0216805D01*
X0085451Y0216949D01*
X0086136Y0217233D01*
X0086753Y0217645D01*
X0087277Y0218170D01*
X0087689Y0218786D01*
X0087973Y0219472D01*
X0088118Y0220199D01*
X0088118Y0220570D01*
X0088118Y0220941D01*
X0087973Y0221668D01*
X0087689Y0222354D01*
X0087277Y0222970D01*
X0086753Y0223495D01*
X0086136Y0223907D01*
X0085451Y0224191D01*
X0084723Y0224335D01*
X0084353Y0224335D01*
X0084353Y0220570D01*
X0088118Y0220570D01*
X0084353Y0220570D01*
X0084353Y0220570D01*
X0084352Y0220570D01*
X0084353Y0220570D01*
X0084353Y0216805D01*
X0085250Y0216909D02*
X0092984Y0216909D01*
X0091785Y0215711D02*
X0047300Y0215711D01*
X0047300Y0214512D02*
X0090587Y0214512D01*
X0087215Y0218108D02*
X0094182Y0218108D01*
X0095381Y0219306D02*
X0087905Y0219306D01*
X0088118Y0220505D02*
X0096580Y0220505D01*
X0097778Y0221703D02*
X0087959Y0221703D01*
X0087323Y0222902D02*
X0098977Y0222902D01*
X0100175Y0224101D02*
X0085668Y0224101D01*
X0084353Y0224101D02*
X0084352Y0224101D01*
X0084352Y0222902D02*
X0084353Y0222902D01*
X0084352Y0221703D02*
X0084353Y0221703D01*
X0084352Y0220505D02*
X0084353Y0220505D01*
X0084352Y0219306D02*
X0084353Y0219306D01*
X0084352Y0218108D02*
X0084353Y0218108D01*
X0081490Y0218108D02*
X0066533Y0218108D01*
X0066233Y0217808D02*
X0067292Y0218867D01*
X0067865Y0220251D01*
X0067865Y0221749D01*
X0067292Y0223133D01*
X0066233Y0224192D01*
X0064849Y0224765D01*
X0063351Y0224765D01*
X0061967Y0224192D01*
X0060908Y0223133D01*
X0060335Y0221749D01*
X0060335Y0220251D01*
X0060908Y0218867D01*
X0061967Y0217808D01*
X0063351Y0217235D01*
X0064849Y0217235D01*
X0066233Y0217808D01*
X0067474Y0219306D02*
X0080800Y0219306D01*
X0080587Y0220505D02*
X0067865Y0220505D01*
X0067865Y0221703D02*
X0080746Y0221703D01*
X0081382Y0222902D02*
X0067388Y0222902D01*
X0066324Y0224101D02*
X0083037Y0224101D01*
X0087817Y0225299D02*
X0096988Y0225299D01*
X0096967Y0225308D02*
X0098351Y0224735D01*
X0099849Y0224735D01*
X0101233Y0225308D01*
X0102292Y0226367D01*
X0102865Y0227751D01*
X0102865Y0229249D01*
X0102292Y0230633D01*
X0101233Y0231692D01*
X0099849Y0232265D01*
X0098351Y0232265D01*
X0096967Y0231692D01*
X0095908Y0230633D01*
X0095335Y0229249D01*
X0095335Y0227751D01*
X0095908Y0226367D01*
X0096967Y0225308D01*
X0095854Y0226498D02*
X0088120Y0226498D01*
X0088120Y0227696D02*
X0095357Y0227696D01*
X0095335Y0228895D02*
X0088120Y0228895D01*
X0088120Y0230093D02*
X0095684Y0230093D01*
X0096567Y0231292D02*
X0088087Y0231292D01*
X0089011Y0233689D02*
X0089189Y0233689D01*
X0089189Y0234887D02*
X0089011Y0234887D01*
X0089011Y0236086D02*
X0089189Y0236086D01*
X0089189Y0237284D02*
X0089011Y0237284D01*
X0089011Y0238483D02*
X0089189Y0238483D01*
X0089189Y0239681D02*
X0089011Y0239681D01*
X0089011Y0240880D02*
X0089189Y0240880D01*
X0090486Y0240880D02*
X0107195Y0240880D01*
X0105996Y0242078D02*
X0082587Y0242078D01*
X0081805Y0240880D02*
X0087714Y0240880D01*
X0085871Y0239681D02*
X0007950Y0239681D01*
X0007950Y0238483D02*
X0027537Y0238483D01*
X0028077Y0238706D02*
X0026187Y0237923D01*
X0024740Y0236476D01*
X0023957Y0234586D01*
X0023957Y0232540D01*
X0024740Y0230650D01*
X0026187Y0229203D01*
X0028077Y0228420D01*
X0030123Y0228420D01*
X0032013Y0229203D01*
X0033460Y0230650D01*
X0034243Y0232540D01*
X0034243Y0234586D01*
X0033460Y0236476D01*
X0032013Y0237923D01*
X0030123Y0238706D01*
X0028077Y0238706D01*
X0030663Y0238483D02*
X0047537Y0238483D01*
X0048077Y0238706D02*
X0046187Y0237923D01*
X0044740Y0236476D01*
X0043957Y0234586D01*
X0043957Y0232540D01*
X0044740Y0230650D01*
X0046187Y0229203D01*
X0048077Y0228420D01*
X0050123Y0228420D01*
X0052013Y0229203D01*
X0053460Y0230650D01*
X0054243Y0232540D01*
X0054243Y0234586D01*
X0053460Y0236476D01*
X0052013Y0237923D01*
X0050123Y0238706D01*
X0048077Y0238706D01*
X0048351Y0239735D02*
X0049849Y0239735D01*
X0051233Y0240308D01*
X0052292Y0241367D01*
X0052865Y0242751D01*
X0052865Y0244249D01*
X0052292Y0245633D01*
X0051233Y0246692D01*
X0049849Y0247265D01*
X0048351Y0247265D01*
X0046967Y0246692D01*
X0045908Y0245633D01*
X0045335Y0244249D01*
X0045335Y0242751D01*
X0045908Y0241367D01*
X0046967Y0240308D01*
X0048351Y0239735D01*
X0046395Y0240880D02*
X0007950Y0240880D01*
X0007950Y0242078D02*
X0025785Y0242078D01*
X0026075Y0241788D02*
X0032125Y0241788D01*
X0033062Y0242725D01*
X0033062Y0248775D01*
X0032125Y0249712D01*
X0026075Y0249712D01*
X0025138Y0248775D01*
X0025138Y0242725D01*
X0026075Y0241788D01*
X0025138Y0243277D02*
X0007950Y0243277D01*
X0007950Y0244475D02*
X0025138Y0244475D01*
X0025138Y0245674D02*
X0007950Y0245674D01*
X0007950Y0246872D02*
X0025138Y0246872D01*
X0025138Y0248071D02*
X0007950Y0248071D01*
X0007950Y0249269D02*
X0025632Y0249269D01*
X0027223Y0252239D02*
X0026574Y0252672D01*
X0026022Y0253224D01*
X0025589Y0253873D01*
X0025290Y0254594D01*
X0025138Y0255360D01*
X0025138Y0255750D01*
X0029100Y0255750D01*
X0029100Y0255750D01*
X0029100Y0259712D01*
X0029490Y0259712D01*
X0030256Y0259560D01*
X0030977Y0259261D01*
X0031626Y0258828D01*
X0032178Y0258276D01*
X0032611Y0257627D01*
X0032910Y0256906D01*
X0033062Y0256140D01*
X0033062Y0255750D01*
X0029100Y0255750D01*
X0029100Y0255750D01*
X0029100Y0255750D01*
X0029100Y0259712D01*
X0028710Y0259712D01*
X0027944Y0259560D01*
X0027223Y0259261D01*
X0026574Y0258828D01*
X0026022Y0258276D01*
X0025589Y0257627D01*
X0025290Y0256906D01*
X0025138Y0256140D01*
X0025138Y0255750D01*
X0029100Y0255750D01*
X0033062Y0255750D01*
X0033062Y0255360D01*
X0032910Y0254594D01*
X0032611Y0253873D01*
X0032178Y0253224D01*
X0031626Y0252672D01*
X0030977Y0252239D01*
X0030256Y0251940D01*
X0029490Y0251788D01*
X0029100Y0251788D01*
X0029100Y0255750D01*
X0029100Y0255750D01*
X0029100Y0251788D01*
X0028710Y0251788D01*
X0027944Y0251940D01*
X0027223Y0252239D01*
X0026382Y0252865D02*
X0007950Y0252865D01*
X0007950Y0254063D02*
X0025510Y0254063D01*
X0025157Y0255262D02*
X0007950Y0255262D01*
X0007950Y0256460D02*
X0025201Y0256460D01*
X0025610Y0257659D02*
X0007950Y0257659D01*
X0007950Y0258857D02*
X0026619Y0258857D01*
X0029100Y0258857D02*
X0029100Y0258857D01*
X0029100Y0257659D02*
X0029100Y0257659D01*
X0029100Y0256460D02*
X0029100Y0256460D01*
X0029100Y0255262D02*
X0029100Y0255262D01*
X0029100Y0254063D02*
X0029100Y0254063D01*
X0029100Y0252865D02*
X0029100Y0252865D01*
X0031818Y0252865D02*
X0115616Y0252865D01*
X0114980Y0251666D02*
X0007950Y0251666D01*
X0007950Y0250468D02*
X0114744Y0250468D01*
X0114845Y0249269D02*
X0032568Y0249269D01*
X0033062Y0248071D02*
X0079145Y0248071D01*
X0077402Y0246872D02*
X0050798Y0246872D01*
X0052251Y0245674D02*
X0075949Y0245674D01*
X0075428Y0244475D02*
X0052772Y0244475D01*
X0052865Y0243277D02*
X0075335Y0243277D01*
X0075613Y0242078D02*
X0052587Y0242078D01*
X0051805Y0240880D02*
X0076395Y0240880D01*
X0073530Y0238483D02*
X0085094Y0238483D01*
X0084774Y0237284D02*
X0074243Y0237284D01*
X0074243Y0236086D02*
X0084795Y0236086D01*
X0085160Y0234887D02*
X0074243Y0234887D01*
X0074243Y0233689D02*
X0086001Y0233689D01*
X0092199Y0233689D02*
X0146514Y0233689D01*
X0146267Y0232335D02*
X0145330Y0231398D01*
X0145330Y0225742D01*
X0146267Y0224805D01*
X0151923Y0224805D01*
X0152860Y0225742D01*
X0152860Y0231398D01*
X0151923Y0232335D01*
X0146267Y0232335D01*
X0145330Y0231292D02*
X0134690Y0231292D01*
X0135442Y0230093D02*
X0145330Y0230093D01*
X0145330Y0228895D02*
X0135759Y0228895D01*
X0135759Y0227696D02*
X0145330Y0227696D01*
X0145330Y0226498D02*
X0135272Y0226498D01*
X0134281Y0225299D02*
X0145773Y0225299D01*
X0145661Y0234887D02*
X0093040Y0234887D01*
X0093405Y0236086D02*
X0145332Y0236086D01*
X0152860Y0231292D02*
X0158400Y0231292D01*
X0158400Y0230093D02*
X0152860Y0230093D01*
X0152860Y0228895D02*
X0158400Y0228895D01*
X0158400Y0227696D02*
X0152860Y0227696D01*
X0152860Y0226498D02*
X0158400Y0226498D01*
X0158400Y0225299D02*
X0152417Y0225299D01*
X0158400Y0224101D02*
X0109226Y0224101D01*
X0108027Y0222902D02*
X0158400Y0222902D01*
X0158400Y0221703D02*
X0106829Y0221703D01*
X0105630Y0220505D02*
X0158400Y0220505D01*
X0158400Y0219306D02*
X0104432Y0219306D01*
X0103233Y0218108D02*
X0158400Y0218108D01*
X0158400Y0216909D02*
X0102035Y0216909D01*
X0100836Y0215711D02*
X0158400Y0215711D01*
X0158400Y0214512D02*
X0145799Y0214512D01*
X0145487Y0214824D02*
X0134713Y0214824D01*
X0133776Y0213887D01*
X0133776Y0203113D01*
X0134713Y0202176D01*
X0145487Y0202176D01*
X0146424Y0203113D01*
X0146424Y0203206D01*
X0159500Y0190130D01*
X0159500Y0154206D01*
X0159467Y0154192D01*
X0158408Y0153133D01*
X0157835Y0151749D01*
X0157835Y0150251D01*
X0158408Y0148867D01*
X0159467Y0147808D01*
X0160851Y0147235D01*
X0162349Y0147235D01*
X0163733Y0147808D01*
X0164792Y0148867D01*
X0165365Y0150251D01*
X0165365Y0151749D01*
X0164792Y0153133D01*
X0163733Y0154192D01*
X0163700Y0154206D01*
X0163700Y0191870D01*
X0162470Y0193100D01*
X0146424Y0209145D01*
X0146424Y0213887D01*
X0145487Y0214824D01*
X0146424Y0213314D02*
X0158400Y0213314D01*
X0158400Y0212115D02*
X0146424Y0212115D01*
X0146424Y0210917D02*
X0158400Y0210917D01*
X0158400Y0209718D02*
X0146424Y0209718D01*
X0147050Y0208520D02*
X0158400Y0208520D01*
X0158400Y0207321D02*
X0148248Y0207321D01*
X0149447Y0206123D02*
X0158400Y0206123D01*
X0158582Y0204924D02*
X0150645Y0204924D01*
X0151844Y0203726D02*
X0159349Y0203726D01*
X0160547Y0202527D02*
X0153043Y0202527D01*
X0154241Y0201329D02*
X0161746Y0201329D01*
X0162944Y0200130D02*
X0155440Y0200130D01*
X0156638Y0198932D02*
X0164143Y0198932D01*
X0165341Y0197733D02*
X0157837Y0197733D01*
X0159035Y0196535D02*
X0166540Y0196535D01*
X0167738Y0195336D02*
X0160234Y0195336D01*
X0161432Y0194138D02*
X0168400Y0194138D01*
X0168400Y0192939D02*
X0162631Y0192939D01*
X0163700Y0191741D02*
X0168400Y0191741D01*
X0168400Y0190542D02*
X0163700Y0190542D01*
X0163700Y0189344D02*
X0168400Y0189344D01*
X0168400Y0188145D02*
X0163700Y0188145D01*
X0163700Y0186947D02*
X0168400Y0186947D01*
X0168400Y0185748D02*
X0163700Y0185748D01*
X0163700Y0184550D02*
X0168400Y0184550D01*
X0168400Y0183351D02*
X0163700Y0183351D01*
X0163700Y0182153D02*
X0168400Y0182153D01*
X0168400Y0180954D02*
X0163700Y0180954D01*
X0163700Y0179756D02*
X0168400Y0179756D01*
X0168400Y0178557D02*
X0163700Y0178557D01*
X0163700Y0177359D02*
X0168400Y0177359D01*
X0168400Y0176160D02*
X0163700Y0176160D01*
X0163700Y0174962D02*
X0168400Y0174962D01*
X0168400Y0173763D02*
X0163700Y0173763D01*
X0163700Y0172565D02*
X0168400Y0172565D01*
X0168400Y0171366D02*
X0163700Y0171366D01*
X0163700Y0170168D02*
X0168400Y0170168D01*
X0168400Y0168969D02*
X0163700Y0168969D01*
X0163700Y0167770D02*
X0168400Y0167770D01*
X0168400Y0166572D02*
X0163700Y0166572D01*
X0163700Y0165373D02*
X0168400Y0165373D01*
X0168400Y0164175D02*
X0163700Y0164175D01*
X0163700Y0162976D02*
X0168400Y0162976D01*
X0168400Y0161778D02*
X0163700Y0161778D01*
X0163700Y0160579D02*
X0168400Y0160579D01*
X0168400Y0159381D02*
X0163700Y0159381D01*
X0163700Y0158182D02*
X0168400Y0158182D01*
X0168400Y0156984D02*
X0163700Y0156984D01*
X0163700Y0155785D02*
X0168400Y0155785D01*
X0168400Y0154587D02*
X0163700Y0154587D01*
X0164537Y0153388D02*
X0168400Y0153388D01*
X0168400Y0152190D02*
X0165183Y0152190D01*
X0165365Y0150991D02*
X0168400Y0150991D01*
X0168400Y0149793D02*
X0165176Y0149793D01*
X0164519Y0148594D02*
X0168400Y0148594D01*
X0168400Y0147396D02*
X0162738Y0147396D01*
X0160462Y0147396D02*
X0153612Y0147396D01*
X0153922Y0147524D02*
X0155076Y0148678D01*
X0155700Y0150184D01*
X0155700Y0151816D01*
X0155076Y0153322D01*
X0153922Y0154476D01*
X0152416Y0155100D01*
X0150784Y0155100D01*
X0150562Y0155008D01*
X0147450Y0158120D01*
X0147450Y0173880D01*
X0152470Y0178900D01*
X0153700Y0180130D01*
X0153700Y0187794D01*
X0153733Y0187808D01*
X0154792Y0188867D01*
X0155365Y0190251D01*
X0155365Y0191749D01*
X0154792Y0193133D01*
X0153733Y0194192D01*
X0152349Y0194765D01*
X0150851Y0194765D01*
X0149467Y0194192D01*
X0148408Y0193133D01*
X0147835Y0191749D01*
X0147835Y0190251D01*
X0148408Y0188867D01*
X0149467Y0187808D01*
X0149500Y0187794D01*
X0149500Y0181870D01*
X0143250Y0175620D01*
X0143250Y0156380D01*
X0144480Y0155150D01*
X0147592Y0152038D01*
X0147500Y0151816D01*
X0147500Y0150184D01*
X0148124Y0148678D01*
X0149278Y0147524D01*
X0150784Y0146900D01*
X0152416Y0146900D01*
X0153922Y0147524D01*
X0154993Y0148594D02*
X0158681Y0148594D01*
X0158024Y0149793D02*
X0155538Y0149793D01*
X0155700Y0150991D02*
X0157835Y0150991D01*
X0158017Y0152190D02*
X0155545Y0152190D01*
X0155010Y0153388D02*
X0158663Y0153388D01*
X0159500Y0154587D02*
X0153654Y0154587D01*
X0152349Y0157235D02*
X0153733Y0157808D01*
X0154792Y0158867D01*
X0155365Y0160251D01*
X0155365Y0161749D01*
X0154792Y0163133D01*
X0153733Y0164192D01*
X0152349Y0164765D01*
X0150851Y0164765D01*
X0149467Y0164192D01*
X0148408Y0163133D01*
X0147835Y0161749D01*
X0147835Y0160251D01*
X0148408Y0158867D01*
X0149467Y0157808D01*
X0150851Y0157235D01*
X0152349Y0157235D01*
X0154107Y0158182D02*
X0159500Y0158182D01*
X0159500Y0156984D02*
X0148586Y0156984D01*
X0149093Y0158182D02*
X0147450Y0158182D01*
X0147450Y0159381D02*
X0148195Y0159381D01*
X0147835Y0160579D02*
X0147450Y0160579D01*
X0147450Y0161778D02*
X0147847Y0161778D01*
X0147450Y0162976D02*
X0148343Y0162976D01*
X0147450Y0164175D02*
X0149450Y0164175D01*
X0147450Y0165373D02*
X0159500Y0165373D01*
X0159500Y0164175D02*
X0153750Y0164175D01*
X0154857Y0162976D02*
X0159500Y0162976D01*
X0159500Y0161778D02*
X0155353Y0161778D01*
X0155365Y0160579D02*
X0159500Y0160579D01*
X0159500Y0159381D02*
X0155005Y0159381D01*
X0159500Y0155785D02*
X0149784Y0155785D01*
X0146242Y0153388D02*
X0145010Y0153388D01*
X0145076Y0153322D02*
X0143922Y0154476D01*
X0142416Y0155100D01*
X0140784Y0155100D01*
X0139278Y0154476D01*
X0138124Y0153322D01*
X0137500Y0151816D01*
X0137500Y0150184D01*
X0138124Y0148678D01*
X0139278Y0147524D01*
X0140784Y0146900D01*
X0142416Y0146900D01*
X0143922Y0147524D01*
X0145076Y0148678D01*
X0145700Y0150184D01*
X0145700Y0151816D01*
X0145076Y0153322D01*
X0145545Y0152190D02*
X0147440Y0152190D01*
X0147500Y0150991D02*
X0145700Y0150991D01*
X0145538Y0149793D02*
X0147662Y0149793D01*
X0148207Y0148594D02*
X0144993Y0148594D01*
X0143612Y0147396D02*
X0149588Y0147396D01*
X0145043Y0154587D02*
X0143654Y0154587D01*
X0143845Y0155785D02*
X0061855Y0155785D01*
X0062046Y0154587D02*
X0060657Y0154587D01*
X0061778Y0154476D02*
X0060624Y0153322D01*
X0060000Y0151816D01*
X0060000Y0150184D01*
X0060624Y0148678D01*
X0061778Y0147524D01*
X0063284Y0146900D01*
X0064916Y0146900D01*
X0066422Y0147524D01*
X0067576Y0148678D01*
X0068200Y0150184D01*
X0068200Y0151816D01*
X0067576Y0153322D01*
X0066422Y0154476D01*
X0064916Y0155100D01*
X0063284Y0155100D01*
X0061778Y0154476D01*
X0060690Y0153388D02*
X0059458Y0153388D01*
X0060155Y0152190D02*
X0058260Y0152190D01*
X0058108Y0152038D02*
X0084970Y0178900D01*
X0119970Y0178900D01*
X0128017Y0186947D01*
X0128273Y0186841D01*
X0129927Y0186841D01*
X0131456Y0187474D01*
X0132626Y0188644D01*
X0133259Y0190173D01*
X0133259Y0191827D01*
X0132626Y0193356D01*
X0131456Y0194526D01*
X0129927Y0195159D01*
X0128273Y0195159D01*
X0126744Y0194526D01*
X0125574Y0193356D01*
X0124941Y0191827D01*
X0124941Y0190173D01*
X0125047Y0189917D01*
X0118230Y0183100D01*
X0083230Y0183100D01*
X0082000Y0181870D01*
X0082000Y0181870D01*
X0055138Y0155008D01*
X0054916Y0155100D01*
X0053284Y0155100D01*
X0051778Y0154476D01*
X0050624Y0153322D01*
X0050000Y0151816D01*
X0050000Y0150184D01*
X0050624Y0148678D01*
X0051778Y0147524D01*
X0053284Y0146900D01*
X0054916Y0146900D01*
X0056422Y0147524D01*
X0057576Y0148678D01*
X0058200Y0150184D01*
X0058200Y0151816D01*
X0058108Y0152038D01*
X0058200Y0150991D02*
X0060000Y0150991D01*
X0060162Y0149793D02*
X0058038Y0149793D01*
X0057493Y0148594D02*
X0060707Y0148594D01*
X0062087Y0147396D02*
X0056112Y0147396D01*
X0060574Y0143356D02*
X0059941Y0141827D01*
X0059941Y0140173D01*
X0060574Y0138644D01*
X0061744Y0137474D01*
X0063273Y0136841D01*
X0064927Y0136841D01*
X0066456Y0137474D01*
X0067626Y0138644D01*
X0068259Y0140173D01*
X0068259Y0141827D01*
X0067626Y0143356D01*
X0066456Y0144526D01*
X0064927Y0145159D01*
X0063273Y0145159D01*
X0061744Y0144526D01*
X0060574Y0143356D01*
X0061018Y0143800D02*
X0047182Y0143800D01*
X0047272Y0143709D02*
X0046809Y0144172D01*
X0046280Y0144557D01*
X0045697Y0144854D01*
X0045074Y0145057D01*
X0044427Y0145159D01*
X0044100Y0145159D01*
X0044100Y0141000D01*
X0048259Y0141000D01*
X0048259Y0141327D01*
X0048157Y0141974D01*
X0047954Y0142597D01*
X0047657Y0143180D01*
X0047272Y0143709D01*
X0047952Y0142602D02*
X0060262Y0142602D01*
X0059941Y0141403D02*
X0048247Y0141403D01*
X0048259Y0141000D02*
X0044100Y0141000D01*
X0044100Y0141000D01*
X0044100Y0141000D01*
X0044100Y0136841D01*
X0044427Y0136841D01*
X0045074Y0136943D01*
X0045697Y0137146D01*
X0046280Y0137443D01*
X0046809Y0137828D01*
X0047272Y0138291D01*
X0047657Y0138820D01*
X0047954Y0139403D01*
X0048157Y0140026D01*
X0048259Y0140673D01*
X0048259Y0141000D01*
X0048185Y0140205D02*
X0059941Y0140205D01*
X0060424Y0139006D02*
X0047752Y0139006D01*
X0046782Y0137808D02*
X0061411Y0137808D01*
X0066789Y0137808D02*
X0077161Y0137808D01*
X0077494Y0137474D02*
X0079023Y0136841D01*
X0080677Y0136841D01*
X0082206Y0137474D01*
X0083376Y0138644D01*
X0084009Y0140173D01*
X0084009Y0141827D01*
X0083376Y0143356D01*
X0082206Y0144526D01*
X0080677Y0145159D01*
X0079023Y0145159D01*
X0077494Y0144526D01*
X0076324Y0143356D01*
X0075691Y0141827D01*
X0075691Y0140173D01*
X0076324Y0138644D01*
X0077494Y0137474D01*
X0076174Y0139006D02*
X0067776Y0139006D01*
X0068259Y0140205D02*
X0075691Y0140205D01*
X0075691Y0141403D02*
X0068259Y0141403D01*
X0067938Y0142602D02*
X0076012Y0142602D01*
X0076768Y0143800D02*
X0067182Y0143800D01*
X0065314Y0144999D02*
X0078636Y0144999D01*
X0081064Y0144999D02*
X0089500Y0144999D01*
X0089500Y0146197D02*
X0007950Y0146197D01*
X0007950Y0144999D02*
X0032886Y0144999D01*
X0033273Y0145159D02*
X0031744Y0144526D01*
X0030574Y0143356D01*
X0029941Y0141827D01*
X0029941Y0140173D01*
X0030574Y0138644D01*
X0031744Y0137474D01*
X0033273Y0136841D01*
X0034927Y0136841D01*
X0036456Y0137474D01*
X0037626Y0138644D01*
X0038259Y0140173D01*
X0038259Y0141827D01*
X0037626Y0143356D01*
X0036456Y0144526D01*
X0034927Y0145159D01*
X0033273Y0145159D01*
X0033284Y0146900D02*
X0034916Y0146900D01*
X0036422Y0147524D01*
X0037576Y0148678D01*
X0038200Y0150184D01*
X0038200Y0151816D01*
X0037576Y0153322D01*
X0036422Y0154476D01*
X0034916Y0155100D01*
X0033284Y0155100D01*
X0031778Y0154476D01*
X0030624Y0153322D01*
X0030000Y0151816D01*
X0030000Y0150184D01*
X0030624Y0148678D01*
X0031778Y0147524D01*
X0033284Y0146900D01*
X0032087Y0147396D02*
X0025238Y0147396D01*
X0024849Y0147235D02*
X0026233Y0147808D01*
X0027292Y0148867D01*
X0027865Y0150251D01*
X0027865Y0151749D01*
X0027292Y0153133D01*
X0026233Y0154192D01*
X0024849Y0154765D01*
X0023351Y0154765D01*
X0021967Y0154192D01*
X0020908Y0153133D01*
X0020335Y0151749D01*
X0020335Y0150251D01*
X0020908Y0148867D01*
X0021967Y0147808D01*
X0023351Y0147235D01*
X0024849Y0147235D01*
X0022962Y0147396D02*
X0007950Y0147396D01*
X0007950Y0148594D02*
X0021181Y0148594D01*
X0020524Y0149793D02*
X0007950Y0149793D01*
X0007950Y0150991D02*
X0020335Y0150991D01*
X0020517Y0152190D02*
X0007950Y0152190D01*
X0007950Y0153388D02*
X0021163Y0153388D01*
X0022920Y0154587D02*
X0007950Y0154587D01*
X0007950Y0155785D02*
X0055916Y0155785D01*
X0057114Y0156984D02*
X0007950Y0156984D01*
X0007950Y0158182D02*
X0058313Y0158182D01*
X0059511Y0159381D02*
X0007950Y0159381D01*
X0007950Y0160579D02*
X0060710Y0160579D01*
X0061908Y0161778D02*
X0007950Y0161778D01*
X0007950Y0162976D02*
X0063107Y0162976D01*
X0064305Y0164175D02*
X0007950Y0164175D01*
X0007950Y0165373D02*
X0065504Y0165373D01*
X0066702Y0166572D02*
X0007950Y0166572D01*
X0007950Y0167770D02*
X0067901Y0167770D01*
X0069099Y0168969D02*
X0007950Y0168969D01*
X0007950Y0170168D02*
X0070298Y0170168D01*
X0071496Y0171366D02*
X0007950Y0171366D01*
X0007950Y0172565D02*
X0072695Y0172565D01*
X0073893Y0173763D02*
X0007950Y0173763D01*
X0007950Y0174962D02*
X0075092Y0174962D01*
X0076290Y0176160D02*
X0007950Y0176160D01*
X0007950Y0177359D02*
X0023052Y0177359D01*
X0025148Y0177359D02*
X0032216Y0177359D01*
X0031951Y0177493D02*
X0032526Y0177200D01*
X0033140Y0177001D01*
X0033777Y0176900D01*
X0033900Y0176900D01*
X0033900Y0180800D01*
X0030000Y0180800D01*
X0030000Y0180677D01*
X0030101Y0180040D01*
X0030300Y0179426D01*
X0030593Y0178851D01*
X0030973Y0178329D01*
X0031429Y0177873D01*
X0031951Y0177493D01*
X0030807Y0178557D02*
X0026982Y0178557D01*
X0027660Y0179756D02*
X0030193Y0179756D01*
X0030000Y0181200D02*
X0033900Y0181200D01*
X0033900Y0185100D01*
X0033777Y0185100D01*
X0033140Y0184999D01*
X0032526Y0184800D01*
X0031951Y0184507D01*
X0031429Y0184127D01*
X0030973Y0183671D01*
X0030593Y0183149D01*
X0030300Y0182574D01*
X0030101Y0181960D01*
X0030000Y0181323D01*
X0030000Y0181200D01*
X0030164Y0182153D02*
X0027698Y0182153D01*
X0027865Y0180954D02*
X0033900Y0180954D01*
X0033900Y0180800D02*
X0033900Y0181200D01*
X0034300Y0181200D01*
X0034300Y0185100D01*
X0034423Y0185100D01*
X0035060Y0184999D01*
X0035674Y0184800D01*
X0036249Y0184507D01*
X0036771Y0184127D01*
X0037227Y0183671D01*
X0037607Y0183149D01*
X0037900Y0182574D01*
X0038099Y0181960D01*
X0038200Y0181323D01*
X0038200Y0181200D01*
X0034300Y0181200D01*
X0034300Y0180800D01*
X0038200Y0180800D01*
X0038200Y0180677D01*
X0038099Y0180040D01*
X0037900Y0179426D01*
X0037607Y0178851D01*
X0037227Y0178329D01*
X0036771Y0177873D01*
X0036249Y0177493D01*
X0035674Y0177200D01*
X0035060Y0177001D01*
X0034423Y0176900D01*
X0034300Y0176900D01*
X0034300Y0180800D01*
X0033900Y0180800D01*
X0034300Y0180954D02*
X0040000Y0180954D01*
X0040000Y0180184D02*
X0040624Y0178678D01*
X0041778Y0177524D01*
X0043284Y0176900D01*
X0044916Y0176900D01*
X0046422Y0177524D01*
X0047576Y0178678D01*
X0048200Y0180184D01*
X0048200Y0181816D01*
X0047576Y0183322D01*
X0046422Y0184476D01*
X0044916Y0185100D01*
X0043284Y0185100D01*
X0041778Y0184476D01*
X0040624Y0183322D01*
X0040000Y0181816D01*
X0040000Y0180184D01*
X0040178Y0179756D02*
X0038007Y0179756D01*
X0037393Y0178557D02*
X0040745Y0178557D01*
X0042177Y0177359D02*
X0035984Y0177359D01*
X0034300Y0177359D02*
X0033900Y0177359D01*
X0033900Y0178557D02*
X0034300Y0178557D01*
X0034300Y0179756D02*
X0033900Y0179756D01*
X0033900Y0182153D02*
X0034300Y0182153D01*
X0034300Y0183351D02*
X0033900Y0183351D01*
X0033900Y0184550D02*
X0034300Y0184550D01*
X0036164Y0184550D02*
X0041956Y0184550D01*
X0040653Y0183351D02*
X0037460Y0183351D01*
X0038036Y0182153D02*
X0040140Y0182153D01*
X0041967Y0187808D02*
X0040908Y0188867D01*
X0040335Y0190251D01*
X0040335Y0191749D01*
X0040908Y0193133D01*
X0041967Y0194192D01*
X0043351Y0194765D01*
X0044849Y0194765D01*
X0046233Y0194192D01*
X0047292Y0193133D01*
X0047306Y0193100D01*
X0060894Y0193100D01*
X0060908Y0193133D01*
X0061967Y0194192D01*
X0063351Y0194765D01*
X0064849Y0194765D01*
X0066233Y0194192D01*
X0067292Y0193133D01*
X0067865Y0191749D01*
X0067865Y0190251D01*
X0067292Y0188867D01*
X0066233Y0187808D01*
X0064849Y0187235D01*
X0063351Y0187235D01*
X0061967Y0187808D01*
X0060908Y0188867D01*
X0060894Y0188900D01*
X0047306Y0188900D01*
X0047292Y0188867D01*
X0046233Y0187808D01*
X0044849Y0187235D01*
X0043351Y0187235D01*
X0041967Y0187808D01*
X0041630Y0188145D02*
X0036570Y0188145D01*
X0036233Y0187808D02*
X0037292Y0188867D01*
X0037865Y0190251D01*
X0037865Y0191749D01*
X0037292Y0193133D01*
X0036233Y0194192D01*
X0034849Y0194765D01*
X0033351Y0194765D01*
X0031967Y0194192D01*
X0030908Y0193133D01*
X0030335Y0191749D01*
X0030335Y0190251D01*
X0030908Y0188867D01*
X0031967Y0187808D01*
X0033351Y0187235D01*
X0034849Y0187235D01*
X0036233Y0187808D01*
X0037490Y0189344D02*
X0040710Y0189344D01*
X0040335Y0190542D02*
X0037865Y0190542D01*
X0037865Y0191741D02*
X0040335Y0191741D01*
X0040828Y0192939D02*
X0037372Y0192939D01*
X0036287Y0194138D02*
X0041913Y0194138D01*
X0046287Y0194138D02*
X0061913Y0194138D01*
X0066287Y0194138D02*
X0089413Y0194138D01*
X0089467Y0194192D02*
X0088408Y0193133D01*
X0087835Y0191749D01*
X0087835Y0190251D01*
X0088408Y0188867D01*
X0089467Y0187808D01*
X0090851Y0187235D01*
X0092349Y0187235D01*
X0093733Y0187808D01*
X0094792Y0188867D01*
X0095365Y0190251D01*
X0095365Y0191749D01*
X0094792Y0193133D01*
X0093733Y0194192D01*
X0092349Y0194765D01*
X0090851Y0194765D01*
X0089467Y0194192D01*
X0088328Y0192939D02*
X0067372Y0192939D01*
X0067865Y0191741D02*
X0087835Y0191741D01*
X0087835Y0190542D02*
X0067865Y0190542D01*
X0067490Y0189344D02*
X0088210Y0189344D01*
X0089130Y0188145D02*
X0066570Y0188145D01*
X0064916Y0185100D02*
X0063284Y0185100D01*
X0061778Y0184476D01*
X0060624Y0183322D01*
X0060000Y0181816D01*
X0060000Y0180184D01*
X0060624Y0178678D01*
X0061778Y0177524D01*
X0063284Y0176900D01*
X0064916Y0176900D01*
X0066422Y0177524D01*
X0067576Y0178678D01*
X0068200Y0180184D01*
X0068200Y0181816D01*
X0067576Y0183322D01*
X0066422Y0184476D01*
X0064916Y0185100D01*
X0066244Y0184550D02*
X0119680Y0184550D01*
X0120878Y0185748D02*
X0027300Y0185748D01*
X0027300Y0184550D02*
X0032036Y0184550D01*
X0030740Y0183351D02*
X0027300Y0183351D01*
X0027300Y0186947D02*
X0113017Y0186947D01*
X0113273Y0186841D02*
X0114927Y0186841D01*
X0116456Y0187474D01*
X0117626Y0188644D01*
X0118259Y0190173D01*
X0118259Y0191827D01*
X0117626Y0193356D01*
X0116456Y0194526D01*
X0114927Y0195159D01*
X0113273Y0195159D01*
X0111744Y0194526D01*
X0110574Y0193356D01*
X0109941Y0191827D01*
X0109941Y0190173D01*
X0110574Y0188644D01*
X0111744Y0187474D01*
X0113273Y0186841D01*
X0115183Y0186947D02*
X0122077Y0186947D01*
X0123275Y0188145D02*
X0117127Y0188145D01*
X0117916Y0189344D02*
X0124474Y0189344D01*
X0124941Y0190542D02*
X0118259Y0190542D01*
X0118259Y0191741D02*
X0124941Y0191741D01*
X0125402Y0192939D02*
X0117798Y0192939D01*
X0116844Y0194138D02*
X0126356Y0194138D01*
X0128016Y0186947D02*
X0128017Y0186947D01*
X0126818Y0185748D02*
X0149500Y0185748D01*
X0149500Y0184550D02*
X0125619Y0184550D01*
X0124421Y0183351D02*
X0149500Y0183351D01*
X0149500Y0182153D02*
X0123222Y0182153D01*
X0122024Y0180954D02*
X0148584Y0180954D01*
X0147386Y0179756D02*
X0120825Y0179756D01*
X0118481Y0183351D02*
X0067547Y0183351D01*
X0068060Y0182153D02*
X0082283Y0182153D01*
X0081084Y0180954D02*
X0068200Y0180954D01*
X0068022Y0179756D02*
X0079886Y0179756D01*
X0078687Y0178557D02*
X0067455Y0178557D01*
X0066023Y0177359D02*
X0077489Y0177359D01*
X0079833Y0173763D02*
X0110981Y0173763D01*
X0110574Y0173356D02*
X0109941Y0171827D01*
X0109941Y0170173D01*
X0110574Y0168644D01*
X0111744Y0167474D01*
X0113273Y0166841D01*
X0114927Y0166841D01*
X0116456Y0167474D01*
X0117626Y0168644D01*
X0118259Y0170173D01*
X0118259Y0171827D01*
X0117626Y0173356D01*
X0116456Y0174526D01*
X0114927Y0175159D01*
X0113273Y0175159D01*
X0111744Y0174526D01*
X0110574Y0173356D01*
X0110246Y0172565D02*
X0078634Y0172565D01*
X0077436Y0171366D02*
X0109941Y0171366D01*
X0109943Y0170168D02*
X0076237Y0170168D01*
X0075039Y0168969D02*
X0110440Y0168969D01*
X0111448Y0167770D02*
X0073840Y0167770D01*
X0072642Y0166572D02*
X0143250Y0166572D01*
X0143250Y0167770D02*
X0131752Y0167770D01*
X0131456Y0167474D02*
X0132626Y0168644D01*
X0133259Y0170173D01*
X0133259Y0171827D01*
X0132626Y0173356D01*
X0131456Y0174526D01*
X0129927Y0175159D01*
X0128273Y0175159D01*
X0126744Y0174526D01*
X0125574Y0173356D01*
X0124941Y0171827D01*
X0124941Y0170173D01*
X0125574Y0168644D01*
X0126744Y0167474D01*
X0128273Y0166841D01*
X0129927Y0166841D01*
X0131456Y0167474D01*
X0132760Y0168969D02*
X0143250Y0168969D01*
X0143250Y0170168D02*
X0133257Y0170168D01*
X0133259Y0171366D02*
X0143250Y0171366D01*
X0143250Y0172565D02*
X0132954Y0172565D01*
X0132219Y0173763D02*
X0143250Y0173763D01*
X0143250Y0174962D02*
X0130404Y0174962D01*
X0127796Y0174962D02*
X0115404Y0174962D01*
X0117219Y0173763D02*
X0125981Y0173763D01*
X0125246Y0172565D02*
X0117954Y0172565D01*
X0118259Y0171366D02*
X0124941Y0171366D01*
X0124943Y0170168D02*
X0118257Y0170168D01*
X0117760Y0168969D02*
X0125440Y0168969D01*
X0126448Y0167770D02*
X0116752Y0167770D01*
X0112796Y0174962D02*
X0081031Y0174962D01*
X0082230Y0176160D02*
X0143790Y0176160D01*
X0144989Y0177359D02*
X0083428Y0177359D01*
X0084627Y0178557D02*
X0146187Y0178557D01*
X0149730Y0176160D02*
X0159500Y0176160D01*
X0159500Y0174962D02*
X0148531Y0174962D01*
X0147450Y0173763D02*
X0159500Y0173763D01*
X0159500Y0172565D02*
X0147450Y0172565D01*
X0147450Y0171366D02*
X0159500Y0171366D01*
X0159500Y0170168D02*
X0147450Y0170168D01*
X0147450Y0168969D02*
X0159500Y0168969D01*
X0159500Y0167770D02*
X0147450Y0167770D01*
X0147450Y0166572D02*
X0159500Y0166572D01*
X0159500Y0177359D02*
X0150928Y0177359D01*
X0152127Y0178557D02*
X0159500Y0178557D01*
X0159500Y0179756D02*
X0153325Y0179756D01*
X0153700Y0180954D02*
X0159500Y0180954D01*
X0159500Y0182153D02*
X0153700Y0182153D01*
X0153700Y0183351D02*
X0159500Y0183351D01*
X0159500Y0184550D02*
X0153700Y0184550D01*
X0153700Y0185748D02*
X0159500Y0185748D01*
X0159500Y0186947D02*
X0153700Y0186947D01*
X0154070Y0188145D02*
X0159500Y0188145D01*
X0159500Y0189344D02*
X0154990Y0189344D01*
X0155365Y0190542D02*
X0159088Y0190542D01*
X0157889Y0191741D02*
X0155365Y0191741D01*
X0154872Y0192939D02*
X0156691Y0192939D01*
X0155492Y0194138D02*
X0153787Y0194138D01*
X0154294Y0195336D02*
X0027962Y0195336D01*
X0027300Y0194138D02*
X0031913Y0194138D01*
X0030828Y0192939D02*
X0027300Y0192939D01*
X0027300Y0191741D02*
X0030335Y0191741D01*
X0030335Y0190542D02*
X0027300Y0190542D01*
X0027300Y0189344D02*
X0030710Y0189344D01*
X0031630Y0188145D02*
X0027300Y0188145D01*
X0029160Y0196535D02*
X0153095Y0196535D01*
X0151897Y0197733D02*
X0056715Y0197733D01*
X0056456Y0197474D02*
X0057626Y0198644D01*
X0058259Y0200173D01*
X0058259Y0201827D01*
X0057626Y0203356D01*
X0056456Y0204526D01*
X0054927Y0205159D01*
X0053273Y0205159D01*
X0051744Y0204526D01*
X0050574Y0203356D01*
X0049941Y0201827D01*
X0049941Y0200173D01*
X0050574Y0198644D01*
X0051744Y0197474D01*
X0053273Y0196841D01*
X0054927Y0196841D01*
X0056456Y0197474D01*
X0057745Y0198932D02*
X0150698Y0198932D01*
X0149500Y0200130D02*
X0058241Y0200130D01*
X0058259Y0201329D02*
X0148301Y0201329D01*
X0147103Y0202527D02*
X0145839Y0202527D01*
X0149413Y0194138D02*
X0141287Y0194138D01*
X0141233Y0194192D02*
X0139849Y0194765D01*
X0138351Y0194765D01*
X0136967Y0194192D01*
X0135908Y0193133D01*
X0135335Y0191749D01*
X0135335Y0190251D01*
X0135908Y0188867D01*
X0136967Y0187808D01*
X0138351Y0187235D01*
X0139849Y0187235D01*
X0141233Y0187808D01*
X0142292Y0188867D01*
X0142865Y0190251D01*
X0142865Y0191749D01*
X0142292Y0193133D01*
X0141233Y0194192D01*
X0142372Y0192939D02*
X0148328Y0192939D01*
X0147835Y0191741D02*
X0142865Y0191741D01*
X0142865Y0190542D02*
X0147835Y0190542D01*
X0148210Y0189344D02*
X0142490Y0189344D01*
X0141570Y0188145D02*
X0149130Y0188145D01*
X0149500Y0186947D02*
X0130183Y0186947D01*
X0132127Y0188145D02*
X0136630Y0188145D01*
X0135710Y0189344D02*
X0132916Y0189344D01*
X0133259Y0190542D02*
X0135335Y0190542D01*
X0135335Y0191741D02*
X0133259Y0191741D01*
X0132798Y0192939D02*
X0135828Y0192939D01*
X0136913Y0194138D02*
X0131844Y0194138D01*
X0134361Y0202527D02*
X0123707Y0202527D01*
X0122858Y0202176D02*
X0125182Y0203138D01*
X0126962Y0204918D01*
X0127924Y0207242D01*
X0127924Y0209758D01*
X0126962Y0212082D01*
X0125182Y0213862D01*
X0122858Y0214824D01*
X0120342Y0214824D01*
X0118018Y0213862D01*
X0116238Y0212082D01*
X0115276Y0209758D01*
X0115276Y0207242D01*
X0116238Y0204918D01*
X0118018Y0203138D01*
X0120342Y0202176D01*
X0122858Y0202176D01*
X0125770Y0203726D02*
X0133776Y0203726D01*
X0133776Y0204924D02*
X0126964Y0204924D01*
X0127461Y0206123D02*
X0133776Y0206123D01*
X0133776Y0207321D02*
X0127924Y0207321D01*
X0127924Y0208520D02*
X0133776Y0208520D01*
X0133776Y0209718D02*
X0127924Y0209718D01*
X0127444Y0210917D02*
X0133776Y0210917D01*
X0133776Y0212115D02*
X0126929Y0212115D01*
X0125730Y0213314D02*
X0133776Y0213314D01*
X0134401Y0214512D02*
X0123611Y0214512D01*
X0119589Y0214512D02*
X0105111Y0214512D01*
X0104358Y0214824D02*
X0106682Y0213862D01*
X0108462Y0212082D01*
X0109424Y0209758D01*
X0109424Y0207242D01*
X0108462Y0204918D01*
X0106682Y0203138D01*
X0104358Y0202176D01*
X0101842Y0202176D01*
X0099518Y0203138D01*
X0097738Y0204918D01*
X0096776Y0207242D01*
X0096776Y0209758D01*
X0097738Y0212082D01*
X0099518Y0213862D01*
X0101842Y0214824D01*
X0104358Y0214824D01*
X0101089Y0214512D02*
X0099638Y0214512D01*
X0098970Y0213314D02*
X0098439Y0213314D01*
X0097771Y0212115D02*
X0097241Y0212115D01*
X0097256Y0210917D02*
X0096042Y0210917D01*
X0096776Y0209718D02*
X0094844Y0209718D01*
X0093645Y0208520D02*
X0096776Y0208520D01*
X0096776Y0207321D02*
X0039947Y0207321D01*
X0038748Y0206123D02*
X0097239Y0206123D01*
X0097736Y0204924D02*
X0055494Y0204924D01*
X0057256Y0203726D02*
X0098930Y0203726D01*
X0100993Y0202527D02*
X0057969Y0202527D01*
X0052706Y0204924D02*
X0037550Y0204924D01*
X0036351Y0203726D02*
X0050944Y0203726D01*
X0050231Y0202527D02*
X0035153Y0202527D01*
X0033954Y0201329D02*
X0049941Y0201329D01*
X0049959Y0200130D02*
X0032756Y0200130D01*
X0031557Y0198932D02*
X0050455Y0198932D01*
X0051485Y0197733D02*
X0030359Y0197733D01*
X0027300Y0203726D02*
X0007950Y0203726D01*
X0007950Y0204924D02*
X0028499Y0204924D01*
X0029697Y0206123D02*
X0007950Y0206123D01*
X0007950Y0207321D02*
X0030896Y0207321D01*
X0032094Y0208520D02*
X0007950Y0208520D01*
X0007950Y0209718D02*
X0033293Y0209718D01*
X0034491Y0210917D02*
X0007950Y0210917D01*
X0007950Y0212115D02*
X0035690Y0212115D01*
X0036888Y0213314D02*
X0007950Y0213314D01*
X0007950Y0202527D02*
X0026102Y0202527D01*
X0024903Y0201329D02*
X0007950Y0201329D01*
X0007950Y0200130D02*
X0023705Y0200130D01*
X0022506Y0198932D02*
X0007950Y0198932D01*
X0007950Y0197733D02*
X0021354Y0197733D01*
X0020900Y0196535D02*
X0007950Y0196535D01*
X0007950Y0195336D02*
X0020900Y0195336D01*
X0020900Y0194138D02*
X0007950Y0194138D01*
X0007950Y0192939D02*
X0020900Y0192939D01*
X0020900Y0191741D02*
X0007950Y0191741D01*
X0007950Y0190542D02*
X0020900Y0190542D01*
X0020900Y0189344D02*
X0007950Y0189344D01*
X0007950Y0188145D02*
X0020900Y0188145D01*
X0020900Y0186947D02*
X0007950Y0186947D01*
X0007950Y0185748D02*
X0020900Y0185748D01*
X0020900Y0184550D02*
X0007950Y0184550D01*
X0007950Y0183351D02*
X0020900Y0183351D01*
X0020502Y0182153D02*
X0007950Y0182153D01*
X0007950Y0180954D02*
X0020335Y0180954D01*
X0020540Y0179756D02*
X0007950Y0179756D01*
X0007950Y0178557D02*
X0021218Y0178557D01*
X0025280Y0154587D02*
X0032046Y0154587D01*
X0030690Y0153388D02*
X0027037Y0153388D01*
X0027683Y0152190D02*
X0030155Y0152190D01*
X0030000Y0150991D02*
X0027865Y0150991D01*
X0027676Y0149793D02*
X0030162Y0149793D01*
X0030707Y0148594D02*
X0027019Y0148594D01*
X0024849Y0144765D02*
X0023351Y0144765D01*
X0021967Y0144192D01*
X0020908Y0143133D01*
X0020335Y0141749D01*
X0020335Y0140251D01*
X0020908Y0138867D01*
X0021967Y0137808D01*
X0023351Y0137235D01*
X0024849Y0137235D01*
X0026233Y0137808D01*
X0027292Y0138867D01*
X0027865Y0140251D01*
X0027865Y0141749D01*
X0027292Y0143133D01*
X0026233Y0144192D01*
X0024849Y0144765D01*
X0026625Y0143800D02*
X0031018Y0143800D01*
X0030262Y0142602D02*
X0027512Y0142602D01*
X0027865Y0141403D02*
X0029941Y0141403D01*
X0029941Y0140205D02*
X0027846Y0140205D01*
X0027350Y0139006D02*
X0030424Y0139006D01*
X0031411Y0137808D02*
X0026232Y0137808D01*
X0021968Y0137808D02*
X0007950Y0137808D01*
X0007950Y0139006D02*
X0020850Y0139006D01*
X0020354Y0140205D02*
X0007950Y0140205D01*
X0007950Y0141403D02*
X0020335Y0141403D01*
X0020688Y0142602D02*
X0007950Y0142602D01*
X0007950Y0143800D02*
X0021575Y0143800D01*
X0007950Y0136609D02*
X0082489Y0136609D01*
X0082539Y0137808D02*
X0083688Y0137808D01*
X0083526Y0139006D02*
X0084886Y0139006D01*
X0084009Y0140205D02*
X0086085Y0140205D01*
X0087283Y0141403D02*
X0084009Y0141403D01*
X0083688Y0142602D02*
X0088482Y0142602D01*
X0089500Y0143620D02*
X0070730Y0124850D01*
X0069500Y0123620D01*
X0069500Y0100130D01*
X0087848Y0081782D01*
X0087835Y0081749D01*
X0087835Y0080251D01*
X0088408Y0078867D01*
X0089467Y0077808D01*
X0090851Y0077235D01*
X0092349Y0077235D01*
X0093733Y0077808D01*
X0094792Y0078867D01*
X0095365Y0080251D01*
X0095365Y0081749D01*
X0094792Y0083133D01*
X0093733Y0084192D01*
X0092349Y0084765D01*
X0090851Y0084765D01*
X0090818Y0084752D01*
X0073700Y0101870D01*
X0073700Y0121880D01*
X0093700Y0141880D01*
X0093700Y0147432D01*
X0093922Y0147524D01*
X0095076Y0148678D01*
X0095700Y0150184D01*
X0095700Y0151816D01*
X0095076Y0153322D01*
X0093922Y0154476D01*
X0092416Y0155100D01*
X0090784Y0155100D01*
X0089278Y0154476D01*
X0088124Y0153322D01*
X0087500Y0151816D01*
X0087500Y0150184D01*
X0088124Y0148678D01*
X0089278Y0147524D01*
X0089500Y0147432D01*
X0089500Y0143620D01*
X0089500Y0143800D02*
X0082932Y0143800D01*
X0088207Y0148594D02*
X0067493Y0148594D01*
X0068038Y0149793D02*
X0087662Y0149793D01*
X0087500Y0150991D02*
X0068200Y0150991D01*
X0068045Y0152190D02*
X0087655Y0152190D01*
X0088190Y0153388D02*
X0067510Y0153388D01*
X0066154Y0154587D02*
X0089546Y0154587D01*
X0090851Y0157235D02*
X0089467Y0157808D01*
X0088408Y0158867D01*
X0087835Y0160251D01*
X0087835Y0161749D01*
X0088408Y0163133D01*
X0089467Y0164192D01*
X0090851Y0164765D01*
X0092349Y0164765D01*
X0093733Y0164192D01*
X0094792Y0163133D01*
X0095365Y0161749D01*
X0095365Y0160251D01*
X0094792Y0158867D01*
X0093733Y0157808D01*
X0092349Y0157235D01*
X0090851Y0157235D01*
X0089093Y0158182D02*
X0064252Y0158182D01*
X0063054Y0156984D02*
X0143250Y0156984D01*
X0143250Y0158182D02*
X0141607Y0158182D01*
X0141233Y0157808D02*
X0142292Y0158867D01*
X0142865Y0160251D01*
X0142865Y0161749D01*
X0142292Y0163133D01*
X0141233Y0164192D01*
X0139849Y0164765D01*
X0138351Y0164765D01*
X0136967Y0164192D01*
X0135908Y0163133D01*
X0135335Y0161749D01*
X0135335Y0160251D01*
X0135908Y0158867D01*
X0136967Y0157808D01*
X0138351Y0157235D01*
X0139849Y0157235D01*
X0141233Y0157808D01*
X0142505Y0159381D02*
X0143250Y0159381D01*
X0143250Y0160579D02*
X0142865Y0160579D01*
X0142853Y0161778D02*
X0143250Y0161778D01*
X0143250Y0162976D02*
X0142357Y0162976D01*
X0143250Y0164175D02*
X0141250Y0164175D01*
X0143250Y0165373D02*
X0071443Y0165373D01*
X0070245Y0164175D02*
X0089450Y0164175D01*
X0088343Y0162976D02*
X0069046Y0162976D01*
X0067848Y0161778D02*
X0087847Y0161778D01*
X0087835Y0160579D02*
X0066649Y0160579D01*
X0065451Y0159381D02*
X0088195Y0159381D01*
X0094107Y0158182D02*
X0101593Y0158182D01*
X0101967Y0157808D02*
X0103351Y0157235D01*
X0104849Y0157235D01*
X0106233Y0157808D01*
X0107292Y0158867D01*
X0107865Y0160251D01*
X0107865Y0161749D01*
X0107292Y0163133D01*
X0106233Y0164192D01*
X0104849Y0164765D01*
X0103351Y0164765D01*
X0101967Y0164192D01*
X0100908Y0163133D01*
X0100335Y0161749D01*
X0100335Y0160251D01*
X0100908Y0158867D01*
X0101967Y0157808D01*
X0100695Y0159381D02*
X0095005Y0159381D01*
X0095365Y0160579D02*
X0100335Y0160579D01*
X0100347Y0161778D02*
X0095353Y0161778D01*
X0094857Y0162976D02*
X0100843Y0162976D01*
X0101950Y0164175D02*
X0093750Y0164175D01*
X0093654Y0154587D02*
X0099546Y0154587D01*
X0099278Y0154476D02*
X0098124Y0153322D01*
X0097500Y0151816D01*
X0097500Y0150184D01*
X0098124Y0148678D01*
X0099278Y0147524D01*
X0100784Y0146900D01*
X0102416Y0146900D01*
X0103922Y0147524D01*
X0105076Y0148678D01*
X0105700Y0150184D01*
X0105700Y0151816D01*
X0105076Y0153322D01*
X0103922Y0154476D01*
X0102416Y0155100D01*
X0100784Y0155100D01*
X0099278Y0154476D01*
X0098190Y0153388D02*
X0095010Y0153388D01*
X0095545Y0152190D02*
X0097655Y0152190D01*
X0097500Y0150991D02*
X0095700Y0150991D01*
X0095538Y0149793D02*
X0097662Y0149793D01*
X0098207Y0148594D02*
X0094993Y0148594D01*
X0093700Y0147396D02*
X0099587Y0147396D01*
X0103612Y0147396D02*
X0109587Y0147396D01*
X0109278Y0147524D02*
X0110784Y0146900D01*
X0112416Y0146900D01*
X0113922Y0147524D01*
X0115076Y0148678D01*
X0115700Y0150184D01*
X0115700Y0151816D01*
X0115076Y0153322D01*
X0113922Y0154476D01*
X0112416Y0155100D01*
X0110784Y0155100D01*
X0109278Y0154476D01*
X0108124Y0153322D01*
X0107500Y0151816D01*
X0107500Y0150184D01*
X0108124Y0148678D01*
X0109278Y0147524D01*
X0108207Y0148594D02*
X0104993Y0148594D01*
X0105538Y0149793D02*
X0107662Y0149793D01*
X0107500Y0150991D02*
X0105700Y0150991D01*
X0105545Y0152190D02*
X0107655Y0152190D01*
X0108190Y0153388D02*
X0105010Y0153388D01*
X0103654Y0154587D02*
X0109546Y0154587D01*
X0113654Y0154587D02*
X0119546Y0154587D01*
X0119278Y0154476D02*
X0118124Y0153322D01*
X0117500Y0151816D01*
X0117500Y0150184D01*
X0118124Y0148678D01*
X0119278Y0147524D01*
X0120784Y0146900D01*
X0122416Y0146900D01*
X0123922Y0147524D01*
X0125076Y0148678D01*
X0125700Y0150184D01*
X0125700Y0151816D01*
X0125076Y0153322D01*
X0123922Y0154476D01*
X0122416Y0155100D01*
X0120784Y0155100D01*
X0119278Y0154476D01*
X0118190Y0153388D02*
X0115010Y0153388D01*
X0115545Y0152190D02*
X0117655Y0152190D01*
X0117500Y0150991D02*
X0115700Y0150991D01*
X0115538Y0149793D02*
X0117662Y0149793D01*
X0118207Y0148594D02*
X0114993Y0148594D01*
X0113612Y0147396D02*
X0119587Y0147396D01*
X0123612Y0147396D02*
X0129587Y0147396D01*
X0129278Y0147524D02*
X0130784Y0146900D01*
X0132416Y0146900D01*
X0133922Y0147524D01*
X0135076Y0148678D01*
X0135700Y0150184D01*
X0135700Y0151816D01*
X0135076Y0153322D01*
X0133922Y0154476D01*
X0132416Y0155100D01*
X0130784Y0155100D01*
X0129278Y0154476D01*
X0128124Y0153322D01*
X0127500Y0151816D01*
X0127500Y0150184D01*
X0128124Y0148678D01*
X0129278Y0147524D01*
X0128207Y0148594D02*
X0124993Y0148594D01*
X0125538Y0149793D02*
X0127662Y0149793D01*
X0127500Y0150991D02*
X0125700Y0150991D01*
X0125545Y0152190D02*
X0127655Y0152190D01*
X0128190Y0153388D02*
X0125010Y0153388D01*
X0123654Y0154587D02*
X0129546Y0154587D01*
X0133654Y0154587D02*
X0139546Y0154587D01*
X0138190Y0153388D02*
X0135010Y0153388D01*
X0135545Y0152190D02*
X0137655Y0152190D01*
X0137500Y0150991D02*
X0135700Y0150991D01*
X0135538Y0149793D02*
X0137662Y0149793D01*
X0138207Y0148594D02*
X0134993Y0148594D01*
X0133612Y0147396D02*
X0139588Y0147396D01*
X0136593Y0158182D02*
X0106607Y0158182D01*
X0107505Y0159381D02*
X0135695Y0159381D01*
X0135335Y0160579D02*
X0107865Y0160579D01*
X0107853Y0161778D02*
X0135347Y0161778D01*
X0135843Y0162976D02*
X0107357Y0162976D01*
X0106250Y0164175D02*
X0136950Y0164175D01*
X0111073Y0188145D02*
X0106570Y0188145D01*
X0106233Y0187808D02*
X0107292Y0188867D01*
X0107865Y0190251D01*
X0107865Y0191749D01*
X0107292Y0193133D01*
X0106233Y0194192D01*
X0104849Y0194765D01*
X0103351Y0194765D01*
X0101967Y0194192D01*
X0100908Y0193133D01*
X0100335Y0191749D01*
X0100335Y0190251D01*
X0100908Y0188867D01*
X0101967Y0187808D01*
X0103351Y0187235D01*
X0104849Y0187235D01*
X0106233Y0187808D01*
X0107490Y0189344D02*
X0110284Y0189344D01*
X0109941Y0190542D02*
X0107865Y0190542D01*
X0107865Y0191741D02*
X0109941Y0191741D01*
X0110402Y0192939D02*
X0107372Y0192939D01*
X0106287Y0194138D02*
X0111356Y0194138D01*
X0105207Y0202527D02*
X0119493Y0202527D01*
X0117430Y0203726D02*
X0107270Y0203726D01*
X0108464Y0204924D02*
X0116236Y0204924D01*
X0115739Y0206123D02*
X0108961Y0206123D01*
X0109424Y0207321D02*
X0115276Y0207321D01*
X0115276Y0208520D02*
X0109424Y0208520D01*
X0109424Y0209718D02*
X0115276Y0209718D01*
X0115756Y0210917D02*
X0108944Y0210917D01*
X0108429Y0212115D02*
X0116271Y0212115D01*
X0117470Y0213314D02*
X0107230Y0213314D01*
X0101374Y0225299D02*
X0101212Y0225299D01*
X0102346Y0226498D02*
X0102572Y0226498D01*
X0102843Y0227696D02*
X0103771Y0227696D01*
X0102865Y0228895D02*
X0104969Y0228895D01*
X0105684Y0230093D02*
X0102516Y0230093D01*
X0101633Y0231292D02*
X0106567Y0231292D01*
X0108393Y0239681D02*
X0092329Y0239681D01*
X0084744Y0255262D02*
X0033043Y0255262D01*
X0032999Y0256460D02*
X0084744Y0256460D01*
X0084744Y0257659D02*
X0032590Y0257659D01*
X0031581Y0258857D02*
X0084744Y0258857D01*
X0084744Y0260056D02*
X0007950Y0260056D01*
X0007950Y0261254D02*
X0084744Y0261254D01*
X0085278Y0262453D02*
X0007950Y0262453D01*
X0007950Y0237284D02*
X0025547Y0237284D01*
X0024578Y0236086D02*
X0007950Y0236086D01*
X0007950Y0234887D02*
X0024081Y0234887D01*
X0023957Y0233689D02*
X0007950Y0233689D01*
X0007950Y0232490D02*
X0023977Y0232490D01*
X0024474Y0231292D02*
X0007950Y0231292D01*
X0007950Y0230093D02*
X0025296Y0230093D01*
X0026930Y0228895D02*
X0007950Y0228895D01*
X0031270Y0228895D02*
X0046930Y0228895D01*
X0045296Y0230093D02*
X0032904Y0230093D01*
X0033726Y0231292D02*
X0044474Y0231292D01*
X0043977Y0232490D02*
X0034223Y0232490D01*
X0034243Y0233689D02*
X0043957Y0233689D01*
X0044081Y0234887D02*
X0034119Y0234887D01*
X0033622Y0236086D02*
X0044578Y0236086D01*
X0045547Y0237284D02*
X0032653Y0237284D01*
X0032415Y0242078D02*
X0045613Y0242078D01*
X0045335Y0243277D02*
X0033062Y0243277D01*
X0033062Y0244475D02*
X0045428Y0244475D01*
X0045949Y0245674D02*
X0033062Y0245674D01*
X0033062Y0246872D02*
X0047402Y0246872D01*
X0050663Y0238483D02*
X0064670Y0238483D01*
X0063957Y0237284D02*
X0052653Y0237284D01*
X0053622Y0236086D02*
X0063957Y0236086D01*
X0063957Y0234887D02*
X0054119Y0234887D01*
X0054243Y0233689D02*
X0063957Y0233689D01*
X0063957Y0232490D02*
X0054223Y0232490D01*
X0053726Y0231292D02*
X0063957Y0231292D01*
X0063957Y0230093D02*
X0052904Y0230093D01*
X0051270Y0228895D02*
X0064419Y0228895D01*
X0061876Y0224101D02*
X0056881Y0224101D01*
X0057814Y0222902D02*
X0060812Y0222902D01*
X0060335Y0221703D02*
X0058259Y0221703D01*
X0058259Y0220505D02*
X0060335Y0220505D01*
X0060726Y0219306D02*
X0057900Y0219306D01*
X0057090Y0218108D02*
X0061667Y0218108D01*
X0061630Y0188145D02*
X0046570Y0188145D01*
X0046244Y0184550D02*
X0051956Y0184550D01*
X0051778Y0184476D02*
X0050624Y0183322D01*
X0050000Y0181816D01*
X0050000Y0180184D01*
X0050624Y0178678D01*
X0051778Y0177524D01*
X0053284Y0176900D01*
X0054916Y0176900D01*
X0056422Y0177524D01*
X0057576Y0178678D01*
X0058200Y0180184D01*
X0058200Y0181816D01*
X0057576Y0183322D01*
X0056422Y0184476D01*
X0054916Y0185100D01*
X0053284Y0185100D01*
X0051778Y0184476D01*
X0050653Y0183351D02*
X0047547Y0183351D01*
X0048060Y0182153D02*
X0050140Y0182153D01*
X0050000Y0180954D02*
X0048200Y0180954D01*
X0048022Y0179756D02*
X0050178Y0179756D01*
X0050745Y0178557D02*
X0047455Y0178557D01*
X0046023Y0177359D02*
X0052177Y0177359D01*
X0056023Y0177359D02*
X0062177Y0177359D01*
X0060745Y0178557D02*
X0057455Y0178557D01*
X0058022Y0179756D02*
X0060178Y0179756D01*
X0060000Y0180954D02*
X0058200Y0180954D01*
X0058060Y0182153D02*
X0060140Y0182153D01*
X0060653Y0183351D02*
X0057547Y0183351D01*
X0056244Y0184550D02*
X0061956Y0184550D01*
X0052046Y0154587D02*
X0046154Y0154587D01*
X0046422Y0154476D02*
X0044916Y0155100D01*
X0043284Y0155100D01*
X0041778Y0154476D01*
X0040624Y0153322D01*
X0040000Y0151816D01*
X0040000Y0150184D01*
X0040624Y0148678D01*
X0041778Y0147524D01*
X0043284Y0146900D01*
X0044916Y0146900D01*
X0046422Y0147524D01*
X0047576Y0148678D01*
X0048200Y0150184D01*
X0048200Y0151816D01*
X0047576Y0153322D01*
X0046422Y0154476D01*
X0047510Y0153388D02*
X0050690Y0153388D01*
X0050155Y0152190D02*
X0048045Y0152190D01*
X0048200Y0150991D02*
X0050000Y0150991D01*
X0050162Y0149793D02*
X0048038Y0149793D01*
X0047493Y0148594D02*
X0050707Y0148594D01*
X0052087Y0147396D02*
X0046112Y0147396D01*
X0045252Y0144999D02*
X0062886Y0144999D01*
X0066112Y0147396D02*
X0089500Y0147396D01*
X0093700Y0146197D02*
X0168400Y0146197D01*
X0168400Y0144999D02*
X0093700Y0144999D01*
X0093700Y0143800D02*
X0168400Y0143800D01*
X0168400Y0142602D02*
X0093700Y0142602D01*
X0093223Y0141403D02*
X0168400Y0141403D01*
X0168400Y0140205D02*
X0092025Y0140205D01*
X0090826Y0139006D02*
X0168400Y0139006D01*
X0168400Y0137808D02*
X0089628Y0137808D01*
X0088429Y0136609D02*
X0168400Y0136609D01*
X0168400Y0135411D02*
X0087231Y0135411D01*
X0086032Y0134212D02*
X0168400Y0134212D01*
X0168400Y0133014D02*
X0084834Y0133014D01*
X0083635Y0131815D02*
X0168400Y0131815D01*
X0168400Y0130617D02*
X0082436Y0130617D01*
X0081238Y0129418D02*
X0168400Y0129418D01*
X0168400Y0128220D02*
X0080039Y0128220D01*
X0078841Y0127021D02*
X0168400Y0127021D01*
X0168400Y0125823D02*
X0077642Y0125823D01*
X0078253Y0124854D02*
X0077670Y0124557D01*
X0077141Y0124172D01*
X0076678Y0123709D01*
X0076293Y0123180D01*
X0075996Y0122597D01*
X0075793Y0121974D01*
X0075691Y0121327D01*
X0075691Y0121000D01*
X0079850Y0121000D01*
X0079850Y0121000D01*
X0079850Y0125159D01*
X0080177Y0125159D01*
X0080824Y0125057D01*
X0081447Y0124854D01*
X0082030Y0124557D01*
X0082559Y0124172D01*
X0083022Y0123709D01*
X0083407Y0123180D01*
X0083704Y0122597D01*
X0083907Y0121974D01*
X0084009Y0121327D01*
X0084009Y0121000D01*
X0079850Y0121000D01*
X0079850Y0121000D01*
X0079850Y0121000D01*
X0079850Y0125159D01*
X0079523Y0125159D01*
X0078876Y0125057D01*
X0078253Y0124854D01*
X0077802Y0124624D02*
X0076444Y0124624D01*
X0076471Y0123426D02*
X0075245Y0123426D01*
X0075876Y0122227D02*
X0074047Y0122227D01*
X0073700Y0121029D02*
X0075691Y0121029D01*
X0075691Y0121000D02*
X0075691Y0120673D01*
X0075793Y0120026D01*
X0075996Y0119403D01*
X0076293Y0118820D01*
X0076678Y0118291D01*
X0077141Y0117828D01*
X0077670Y0117443D01*
X0078253Y0117146D01*
X0078876Y0116943D01*
X0079523Y0116841D01*
X0079850Y0116841D01*
X0080177Y0116841D01*
X0080824Y0116943D01*
X0081447Y0117146D01*
X0082030Y0117443D01*
X0082559Y0117828D01*
X0083022Y0118291D01*
X0083407Y0118820D01*
X0083704Y0119403D01*
X0083907Y0120026D01*
X0084009Y0120673D01*
X0084009Y0121000D01*
X0079850Y0121000D01*
X0079850Y0116841D01*
X0079850Y0121000D01*
X0079850Y0121000D01*
X0075691Y0121000D01*
X0075857Y0119830D02*
X0073700Y0119830D01*
X0073700Y0118632D02*
X0076430Y0118632D01*
X0077689Y0117433D02*
X0073700Y0117433D01*
X0073700Y0116234D02*
X0093396Y0116234D01*
X0092638Y0116992D02*
X0095750Y0113880D01*
X0095750Y0096380D01*
X0102000Y0090130D01*
X0102000Y0084206D01*
X0101967Y0084192D01*
X0100908Y0083133D01*
X0100335Y0081749D01*
X0100335Y0080251D01*
X0100908Y0078867D01*
X0101967Y0077808D01*
X0103351Y0077235D01*
X0104849Y0077235D01*
X0106233Y0077808D01*
X0107292Y0078867D01*
X0107865Y0080251D01*
X0107865Y0081749D01*
X0107292Y0083133D01*
X0106233Y0084192D01*
X0106200Y0084206D01*
X0106200Y0091870D01*
X0104970Y0093100D01*
X0099950Y0098120D01*
X0099950Y0115620D01*
X0095608Y0119962D01*
X0095700Y0120184D01*
X0095700Y0121816D01*
X0095076Y0123322D01*
X0093922Y0124476D01*
X0092416Y0125100D01*
X0090784Y0125100D01*
X0089278Y0124476D01*
X0088124Y0123322D01*
X0087500Y0121816D01*
X0087500Y0120184D01*
X0088124Y0118678D01*
X0089278Y0117524D01*
X0090784Y0116900D01*
X0092416Y0116900D01*
X0092638Y0116992D01*
X0092349Y0114765D02*
X0093733Y0114192D01*
X0094792Y0113133D01*
X0095365Y0111749D01*
X0095365Y0110251D01*
X0094792Y0108867D01*
X0093733Y0107808D01*
X0092349Y0107235D01*
X0090851Y0107235D01*
X0089467Y0107808D01*
X0088408Y0108867D01*
X0087835Y0110251D01*
X0087835Y0111749D01*
X0088408Y0113133D01*
X0089467Y0114192D01*
X0090851Y0114765D01*
X0092349Y0114765D01*
X0094088Y0113837D02*
X0095750Y0113837D01*
X0095750Y0112639D02*
X0094997Y0112639D01*
X0095365Y0111440D02*
X0095750Y0111440D01*
X0095750Y0110242D02*
X0095362Y0110242D01*
X0095750Y0109043D02*
X0094865Y0109043D01*
X0095750Y0107845D02*
X0093770Y0107845D01*
X0095750Y0106646D02*
X0073700Y0106646D01*
X0073700Y0105448D02*
X0095750Y0105448D01*
X0095750Y0104249D02*
X0073700Y0104249D01*
X0073700Y0103051D02*
X0095750Y0103051D01*
X0095750Y0101852D02*
X0073717Y0101852D01*
X0074916Y0100654D02*
X0095750Y0100654D01*
X0095750Y0099455D02*
X0076114Y0099455D01*
X0077313Y0098257D02*
X0095750Y0098257D01*
X0095750Y0097058D02*
X0078512Y0097058D01*
X0079710Y0095860D02*
X0096270Y0095860D01*
X0097469Y0094661D02*
X0080909Y0094661D01*
X0082107Y0093463D02*
X0098667Y0093463D01*
X0099866Y0092264D02*
X0083306Y0092264D01*
X0084504Y0091066D02*
X0101064Y0091066D01*
X0102000Y0089867D02*
X0085703Y0089867D01*
X0086901Y0088669D02*
X0102000Y0088669D01*
X0102000Y0087470D02*
X0088100Y0087470D01*
X0089298Y0086272D02*
X0102000Y0086272D01*
X0102000Y0085073D02*
X0090497Y0085073D01*
X0094050Y0083875D02*
X0101650Y0083875D01*
X0100719Y0082676D02*
X0094981Y0082676D01*
X0095365Y0081478D02*
X0100335Y0081478D01*
X0100335Y0080279D02*
X0095365Y0080279D01*
X0094881Y0079081D02*
X0100819Y0079081D01*
X0101893Y0077882D02*
X0093807Y0077882D01*
X0089393Y0077882D02*
X0083807Y0077882D01*
X0083733Y0077808D02*
X0084792Y0078867D01*
X0085365Y0080251D01*
X0085365Y0081749D01*
X0084792Y0083133D01*
X0083733Y0084192D01*
X0082349Y0084765D01*
X0080851Y0084765D01*
X0079467Y0084192D01*
X0078408Y0083133D01*
X0077835Y0081749D01*
X0077835Y0080251D01*
X0078408Y0078867D01*
X0079467Y0077808D01*
X0080851Y0077235D01*
X0082349Y0077235D01*
X0083733Y0077808D01*
X0084881Y0079081D02*
X0088319Y0079081D01*
X0087835Y0080279D02*
X0085365Y0080279D01*
X0085365Y0081478D02*
X0087835Y0081478D01*
X0086954Y0082676D02*
X0084981Y0082676D01*
X0085755Y0083875D02*
X0084050Y0083875D01*
X0084557Y0085073D02*
X0026200Y0085073D01*
X0026200Y0083875D02*
X0079150Y0083875D01*
X0078219Y0082676D02*
X0026200Y0082676D01*
X0026200Y0081478D02*
X0077835Y0081478D01*
X0077835Y0080279D02*
X0026200Y0080279D01*
X0026200Y0079081D02*
X0078319Y0079081D01*
X0079393Y0077882D02*
X0026200Y0077882D01*
X0026200Y0076684D02*
X0167758Y0076684D01*
X0168400Y0077882D02*
X0163807Y0077882D01*
X0163733Y0077808D02*
X0164792Y0078867D01*
X0165365Y0080251D01*
X0165365Y0081749D01*
X0164792Y0083133D01*
X0163733Y0084192D01*
X0162349Y0084765D01*
X0160851Y0084765D01*
X0159467Y0084192D01*
X0158408Y0083133D01*
X0157835Y0081749D01*
X0157835Y0080251D01*
X0158408Y0078867D01*
X0159467Y0077808D01*
X0160851Y0077235D01*
X0162349Y0077235D01*
X0163733Y0077808D01*
X0164881Y0079081D02*
X0168400Y0079081D01*
X0168400Y0080279D02*
X0165365Y0080279D01*
X0165365Y0081478D02*
X0168400Y0081478D01*
X0168400Y0082676D02*
X0164981Y0082676D01*
X0164050Y0083875D02*
X0168400Y0083875D01*
X0168400Y0085073D02*
X0130135Y0085073D01*
X0129927Y0085159D02*
X0128273Y0085159D01*
X0126744Y0084526D01*
X0125574Y0083356D01*
X0124941Y0081827D01*
X0124941Y0080173D01*
X0125574Y0078644D01*
X0126744Y0077474D01*
X0128273Y0076841D01*
X0129927Y0076841D01*
X0131456Y0077474D01*
X0132626Y0078644D01*
X0133259Y0080173D01*
X0133259Y0081827D01*
X0132626Y0083356D01*
X0131456Y0084526D01*
X0129927Y0085159D01*
X0128065Y0085073D02*
X0115135Y0085073D01*
X0114927Y0085159D02*
X0113273Y0085159D01*
X0111744Y0084526D01*
X0110574Y0083356D01*
X0109941Y0081827D01*
X0109941Y0080173D01*
X0110574Y0078644D01*
X0111744Y0077474D01*
X0113273Y0076841D01*
X0114927Y0076841D01*
X0116456Y0077474D01*
X0117626Y0078644D01*
X0118259Y0080173D01*
X0118259Y0081827D01*
X0117626Y0083356D01*
X0116456Y0084526D01*
X0114927Y0085159D01*
X0113065Y0085073D02*
X0106200Y0085073D01*
X0106200Y0086272D02*
X0168400Y0086272D01*
X0168400Y0087470D02*
X0106200Y0087470D01*
X0106200Y0088669D02*
X0168400Y0088669D01*
X0168400Y0089867D02*
X0106200Y0089867D01*
X0106200Y0091066D02*
X0168400Y0091066D01*
X0168400Y0092264D02*
X0105806Y0092264D01*
X0104607Y0093463D02*
X0168400Y0093463D01*
X0168400Y0094661D02*
X0103409Y0094661D01*
X0102210Y0095860D02*
X0168400Y0095860D01*
X0168400Y0097058D02*
X0130452Y0097058D01*
X0129927Y0096841D02*
X0131456Y0097474D01*
X0132626Y0098644D01*
X0133259Y0100173D01*
X0133259Y0101827D01*
X0132626Y0103356D01*
X0131456Y0104526D01*
X0129927Y0105159D01*
X0128273Y0105159D01*
X0126744Y0104526D01*
X0125574Y0103356D01*
X0124941Y0101827D01*
X0124941Y0100173D01*
X0125574Y0098644D01*
X0126744Y0097474D01*
X0128273Y0096841D01*
X0129927Y0096841D01*
X0127748Y0097058D02*
X0115452Y0097058D01*
X0114927Y0096841D02*
X0116456Y0097474D01*
X0117626Y0098644D01*
X0118259Y0100173D01*
X0118259Y0101827D01*
X0117626Y0103356D01*
X0116456Y0104526D01*
X0114927Y0105159D01*
X0113273Y0105159D01*
X0111744Y0104526D01*
X0110574Y0103356D01*
X0109941Y0101827D01*
X0109941Y0100173D01*
X0110574Y0098644D01*
X0111744Y0097474D01*
X0113273Y0096841D01*
X0114927Y0096841D01*
X0112748Y0097058D02*
X0101012Y0097058D01*
X0099950Y0098257D02*
X0110961Y0098257D01*
X0110238Y0099455D02*
X0099950Y0099455D01*
X0099950Y0100654D02*
X0109941Y0100654D01*
X0109951Y0101852D02*
X0099950Y0101852D01*
X0099950Y0103051D02*
X0110448Y0103051D01*
X0111468Y0104249D02*
X0099950Y0104249D01*
X0099950Y0105448D02*
X0168400Y0105448D01*
X0168400Y0106646D02*
X0099950Y0106646D01*
X0099950Y0107845D02*
X0101930Y0107845D01*
X0101967Y0107808D02*
X0103351Y0107235D01*
X0104849Y0107235D01*
X0106233Y0107808D01*
X0107292Y0108867D01*
X0107865Y0110251D01*
X0107865Y0111749D01*
X0107292Y0113133D01*
X0106233Y0114192D01*
X0104849Y0114765D01*
X0103351Y0114765D01*
X0101967Y0114192D01*
X0100908Y0113133D01*
X0100335Y0111749D01*
X0100335Y0110251D01*
X0100908Y0108867D01*
X0101967Y0107808D01*
X0100835Y0109043D02*
X0099950Y0109043D01*
X0099950Y0110242D02*
X0100338Y0110242D01*
X0100335Y0111440D02*
X0099950Y0111440D01*
X0099950Y0112639D02*
X0100703Y0112639D01*
X0099950Y0113837D02*
X0101612Y0113837D01*
X0099950Y0115036D02*
X0168400Y0115036D01*
X0168400Y0116234D02*
X0099335Y0116234D01*
X0099498Y0117433D02*
X0098137Y0117433D01*
X0099278Y0117524D02*
X0100784Y0116900D01*
X0102416Y0116900D01*
X0103922Y0117524D01*
X0105076Y0118678D01*
X0105700Y0120184D01*
X0105700Y0121816D01*
X0105076Y0123322D01*
X0103922Y0124476D01*
X0102416Y0125100D01*
X0100784Y0125100D01*
X0099278Y0124476D01*
X0098124Y0123322D01*
X0097500Y0121816D01*
X0097500Y0120184D01*
X0098124Y0118678D01*
X0099278Y0117524D01*
X0098170Y0118632D02*
X0096938Y0118632D01*
X0097647Y0119830D02*
X0095740Y0119830D01*
X0095700Y0121029D02*
X0097500Y0121029D01*
X0097670Y0122227D02*
X0095530Y0122227D01*
X0094973Y0123426D02*
X0098227Y0123426D01*
X0099636Y0124624D02*
X0093564Y0124624D01*
X0089636Y0124624D02*
X0081898Y0124624D01*
X0083229Y0123426D02*
X0088227Y0123426D01*
X0087670Y0122227D02*
X0083824Y0122227D01*
X0084009Y0121029D02*
X0087500Y0121029D01*
X0087647Y0119830D02*
X0083843Y0119830D01*
X0083270Y0118632D02*
X0088170Y0118632D01*
X0089498Y0117433D02*
X0082010Y0117433D01*
X0079850Y0117433D02*
X0079850Y0117433D01*
X0079850Y0118632D02*
X0079850Y0118632D01*
X0079850Y0119830D02*
X0079850Y0119830D01*
X0079850Y0121029D02*
X0079850Y0121029D01*
X0079850Y0122227D02*
X0079850Y0122227D01*
X0079850Y0123426D02*
X0079850Y0123426D01*
X0079850Y0124624D02*
X0079850Y0124624D01*
X0075298Y0129418D02*
X0007950Y0129418D01*
X0007950Y0128220D02*
X0074100Y0128220D01*
X0072901Y0127021D02*
X0007950Y0127021D01*
X0007950Y0125823D02*
X0071703Y0125823D01*
X0070504Y0124624D02*
X0036219Y0124624D01*
X0036456Y0124526D02*
X0034927Y0125159D01*
X0033273Y0125159D01*
X0031744Y0124526D01*
X0030574Y0123356D01*
X0029941Y0121827D01*
X0029941Y0120173D01*
X0030574Y0118644D01*
X0031744Y0117474D01*
X0033273Y0116841D01*
X0034927Y0116841D01*
X0036456Y0117474D01*
X0037626Y0118644D01*
X0038259Y0120173D01*
X0038259Y0121827D01*
X0037626Y0123356D01*
X0036456Y0124526D01*
X0037556Y0123426D02*
X0069500Y0123426D01*
X0069500Y0122227D02*
X0038093Y0122227D01*
X0038259Y0121029D02*
X0069500Y0121029D01*
X0069500Y0119830D02*
X0038117Y0119830D01*
X0037613Y0118632D02*
X0069500Y0118632D01*
X0069500Y0117433D02*
X0036357Y0117433D01*
X0031843Y0117433D02*
X0007950Y0117433D01*
X0007950Y0116234D02*
X0069500Y0116234D01*
X0069500Y0115036D02*
X0007950Y0115036D01*
X0007950Y0113837D02*
X0021612Y0113837D01*
X0021967Y0114192D02*
X0020908Y0113133D01*
X0020335Y0111749D01*
X0020335Y0110251D01*
X0020908Y0108867D01*
X0021967Y0107808D01*
X0022000Y0107794D01*
X0022000Y0062630D01*
X0023230Y0061400D01*
X0038230Y0046400D01*
X0102329Y0046400D01*
X0102573Y0045810D01*
X0103910Y0044473D01*
X0105655Y0043750D01*
X0107545Y0043750D01*
X0109290Y0044473D01*
X0110627Y0045810D01*
X0111350Y0047555D01*
X0111350Y0049445D01*
X0110627Y0051190D01*
X0109290Y0052527D01*
X0107545Y0053250D01*
X0105655Y0053250D01*
X0103910Y0052527D01*
X0102573Y0051190D01*
X0102329Y0050600D01*
X0039970Y0050600D01*
X0026200Y0064370D01*
X0026200Y0107794D01*
X0026233Y0107808D01*
X0027292Y0108867D01*
X0027865Y0110251D01*
X0027865Y0111749D01*
X0027292Y0113133D01*
X0026233Y0114192D01*
X0024849Y0114765D01*
X0023351Y0114765D01*
X0021967Y0114192D01*
X0020703Y0112639D02*
X0007950Y0112639D01*
X0007950Y0111440D02*
X0020335Y0111440D01*
X0020338Y0110242D02*
X0007950Y0110242D01*
X0007950Y0109043D02*
X0020835Y0109043D01*
X0021930Y0107845D02*
X0007950Y0107845D01*
X0007950Y0106646D02*
X0022000Y0106646D01*
X0022000Y0105448D02*
X0007950Y0105448D01*
X0007950Y0104249D02*
X0022000Y0104249D01*
X0022000Y0103051D02*
X0007950Y0103051D01*
X0007950Y0101852D02*
X0022000Y0101852D01*
X0022000Y0100654D02*
X0007950Y0100654D01*
X0007950Y0099455D02*
X0022000Y0099455D01*
X0022000Y0098257D02*
X0007950Y0098257D01*
X0007950Y0097058D02*
X0022000Y0097058D01*
X0022000Y0095860D02*
X0007950Y0095860D01*
X0007950Y0094661D02*
X0022000Y0094661D01*
X0022000Y0093463D02*
X0007950Y0093463D01*
X0007950Y0092264D02*
X0022000Y0092264D01*
X0022000Y0091066D02*
X0007950Y0091066D01*
X0007950Y0089867D02*
X0022000Y0089867D01*
X0022000Y0088669D02*
X0007950Y0088669D01*
X0007950Y0087470D02*
X0022000Y0087470D01*
X0022000Y0086272D02*
X0007950Y0086272D01*
X0007950Y0085073D02*
X0022000Y0085073D01*
X0022000Y0083875D02*
X0007950Y0083875D01*
X0007950Y0082676D02*
X0022000Y0082676D01*
X0022000Y0081478D02*
X0007950Y0081478D01*
X0007950Y0080279D02*
X0022000Y0080279D01*
X0022000Y0079081D02*
X0007950Y0079081D01*
X0007950Y0077882D02*
X0022000Y0077882D01*
X0022000Y0076684D02*
X0007950Y0076684D01*
X0007950Y0075485D02*
X0022000Y0075485D01*
X0022000Y0074287D02*
X0007950Y0074287D01*
X0007950Y0073088D02*
X0022000Y0073088D01*
X0022000Y0071890D02*
X0007950Y0071890D01*
X0007950Y0070691D02*
X0022000Y0070691D01*
X0022000Y0069493D02*
X0007950Y0069493D01*
X0007950Y0068294D02*
X0022000Y0068294D01*
X0022000Y0067096D02*
X0007950Y0067096D01*
X0007950Y0065897D02*
X0022000Y0065897D01*
X0022000Y0064699D02*
X0007950Y0064699D01*
X0007950Y0063500D02*
X0022000Y0063500D01*
X0022329Y0062301D02*
X0007950Y0062301D01*
X0007950Y0061103D02*
X0023527Y0061103D01*
X0024726Y0059904D02*
X0007950Y0059904D01*
X0007950Y0058706D02*
X0025924Y0058706D01*
X0027123Y0057507D02*
X0007950Y0057507D01*
X0007950Y0056309D02*
X0028321Y0056309D01*
X0029520Y0055110D02*
X0007950Y0055110D01*
X0007950Y0053912D02*
X0030718Y0053912D01*
X0031917Y0052713D02*
X0007950Y0052713D01*
X0007950Y0051515D02*
X0033115Y0051515D01*
X0034314Y0050316D02*
X0007950Y0050316D01*
X0007950Y0049118D02*
X0035512Y0049118D01*
X0036711Y0047919D02*
X0007950Y0047919D01*
X0007950Y0046721D02*
X0037909Y0046721D01*
X0039055Y0051515D02*
X0102898Y0051515D01*
X0104361Y0052713D02*
X0037856Y0052713D01*
X0036658Y0053912D02*
X0105265Y0053912D01*
X0105655Y0053750D02*
X0107545Y0053750D01*
X0109290Y0054473D01*
X0110627Y0055810D01*
X0111350Y0057555D01*
X0111350Y0059445D01*
X0110627Y0061190D01*
X0109290Y0062527D01*
X0107545Y0063250D01*
X0105655Y0063250D01*
X0103910Y0062527D01*
X0102573Y0061190D01*
X0101850Y0059445D01*
X0101850Y0057555D01*
X0102573Y0055810D01*
X0103910Y0054473D01*
X0105655Y0053750D01*
X0107935Y0053912D02*
X0115265Y0053912D01*
X0115655Y0053250D02*
X0113910Y0052527D01*
X0112573Y0051190D01*
X0111850Y0049445D01*
X0111850Y0047555D01*
X0112573Y0045810D01*
X0113910Y0044473D01*
X0115655Y0043750D01*
X0117545Y0043750D01*
X0119290Y0044473D01*
X0120627Y0045810D01*
X0121350Y0047555D01*
X0121350Y0049445D01*
X0120627Y0051190D01*
X0119290Y0052527D01*
X0117545Y0053250D01*
X0115655Y0053250D01*
X0114361Y0052713D02*
X0108839Y0052713D01*
X0110302Y0051515D02*
X0112898Y0051515D01*
X0112211Y0050316D02*
X0110989Y0050316D01*
X0111350Y0049118D02*
X0111850Y0049118D01*
X0111850Y0047919D02*
X0111350Y0047919D01*
X0111004Y0046721D02*
X0112196Y0046721D01*
X0112861Y0045522D02*
X0110339Y0045522D01*
X0108929Y0044324D02*
X0114271Y0044324D01*
X0118929Y0044324D02*
X0124271Y0044324D01*
X0123910Y0044473D02*
X0125655Y0043750D01*
X0127545Y0043750D01*
X0129290Y0044473D01*
X0130627Y0045810D01*
X0131350Y0047555D01*
X0131350Y0049445D01*
X0130627Y0051190D01*
X0129290Y0052527D01*
X0127545Y0053250D01*
X0125655Y0053250D01*
X0123910Y0052527D01*
X0122573Y0051190D01*
X0121850Y0049445D01*
X0121850Y0047555D01*
X0122573Y0045810D01*
X0123910Y0044473D01*
X0122861Y0045522D02*
X0120339Y0045522D01*
X0121004Y0046721D02*
X0122196Y0046721D01*
X0121850Y0047919D02*
X0121350Y0047919D01*
X0121350Y0049118D02*
X0121850Y0049118D01*
X0122211Y0050316D02*
X0120989Y0050316D01*
X0120302Y0051515D02*
X0122898Y0051515D01*
X0124361Y0052713D02*
X0118839Y0052713D01*
X0117935Y0053912D02*
X0125351Y0053912D01*
X0125488Y0053867D02*
X0126226Y0053750D01*
X0126314Y0053750D01*
X0126314Y0058214D01*
X0126886Y0058214D01*
X0126886Y0058786D01*
X0131350Y0058786D01*
X0131350Y0058874D01*
X0131233Y0059612D01*
X0131002Y0060323D01*
X0130662Y0060989D01*
X0130223Y0061594D01*
X0129694Y0062123D01*
X0129089Y0062562D01*
X0128423Y0062902D01*
X0127712Y0063133D01*
X0126974Y0063250D01*
X0126886Y0063250D01*
X0126886Y0058786D01*
X0126314Y0058786D01*
X0126314Y0063250D01*
X0126226Y0063250D01*
X0125488Y0063133D01*
X0124777Y0062902D01*
X0124111Y0062562D01*
X0123506Y0062123D01*
X0122977Y0061594D01*
X0122538Y0060989D01*
X0122198Y0060323D01*
X0121967Y0059612D01*
X0121850Y0058874D01*
X0121850Y0058786D01*
X0126314Y0058786D01*
X0126314Y0058214D01*
X0121850Y0058214D01*
X0121850Y0058126D01*
X0121967Y0057388D01*
X0122198Y0056677D01*
X0122538Y0056011D01*
X0122977Y0055406D01*
X0123506Y0054877D01*
X0124111Y0054438D01*
X0124777Y0054098D01*
X0125488Y0053867D01*
X0126314Y0053912D02*
X0126886Y0053912D01*
X0126886Y0053750D02*
X0126974Y0053750D01*
X0127712Y0053867D01*
X0128423Y0054098D01*
X0129089Y0054438D01*
X0129694Y0054877D01*
X0130223Y0055406D01*
X0130662Y0056011D01*
X0131002Y0056677D01*
X0131233Y0057388D01*
X0131350Y0058126D01*
X0131350Y0058214D01*
X0126886Y0058214D01*
X0126886Y0053750D01*
X0127849Y0053912D02*
X0135265Y0053912D01*
X0135655Y0053750D02*
X0137545Y0053750D01*
X0139290Y0054473D01*
X0140627Y0055810D01*
X0141350Y0057555D01*
X0141350Y0059445D01*
X0140627Y0061190D01*
X0139290Y0062527D01*
X0137545Y0063250D01*
X0135655Y0063250D01*
X0133910Y0062527D01*
X0132573Y0061190D01*
X0131850Y0059445D01*
X0131850Y0057555D01*
X0132573Y0055810D01*
X0133910Y0054473D01*
X0135655Y0053750D01*
X0135655Y0053250D02*
X0133910Y0052527D01*
X0132573Y0051190D01*
X0131850Y0049445D01*
X0131850Y0047555D01*
X0132573Y0045810D01*
X0133910Y0044473D01*
X0135655Y0043750D01*
X0137545Y0043750D01*
X0139290Y0044473D01*
X0140627Y0045810D01*
X0140871Y0046400D01*
X0184970Y0046400D01*
X0203318Y0064748D01*
X0203351Y0064735D01*
X0204849Y0064735D01*
X0206233Y0065308D01*
X0207292Y0066367D01*
X0207865Y0067751D01*
X0207865Y0069249D01*
X0207292Y0070633D01*
X0206233Y0071692D01*
X0204849Y0072265D01*
X0203351Y0072265D01*
X0201967Y0071692D01*
X0200908Y0070633D01*
X0200335Y0069249D01*
X0200335Y0067751D01*
X0200348Y0067718D01*
X0183230Y0050600D01*
X0140871Y0050600D01*
X0140627Y0051190D01*
X0139290Y0052527D01*
X0137545Y0053250D01*
X0135655Y0053250D01*
X0134361Y0052713D02*
X0128839Y0052713D01*
X0130302Y0051515D02*
X0132898Y0051515D01*
X0132211Y0050316D02*
X0130989Y0050316D01*
X0131350Y0049118D02*
X0131850Y0049118D01*
X0131850Y0047919D02*
X0131350Y0047919D01*
X0131004Y0046721D02*
X0132196Y0046721D01*
X0132861Y0045522D02*
X0130339Y0045522D01*
X0128929Y0044324D02*
X0134271Y0044324D01*
X0138929Y0044324D02*
X0235033Y0044324D01*
X0235033Y0045522D02*
X0140339Y0045522D01*
X0140302Y0051515D02*
X0184145Y0051515D01*
X0185344Y0052713D02*
X0138839Y0052713D01*
X0137935Y0053912D02*
X0186542Y0053912D01*
X0187741Y0055110D02*
X0139927Y0055110D01*
X0140833Y0056309D02*
X0188939Y0056309D01*
X0190138Y0057507D02*
X0141330Y0057507D01*
X0141350Y0058706D02*
X0191336Y0058706D01*
X0192535Y0059904D02*
X0141159Y0059904D01*
X0140663Y0061103D02*
X0193733Y0061103D01*
X0194932Y0062301D02*
X0139515Y0062301D01*
X0133685Y0062301D02*
X0129448Y0062301D01*
X0130580Y0061103D02*
X0132537Y0061103D01*
X0132041Y0059904D02*
X0131138Y0059904D01*
X0131850Y0058706D02*
X0126886Y0058706D01*
X0126314Y0058706D02*
X0121350Y0058706D01*
X0121330Y0057507D02*
X0121948Y0057507D01*
X0122386Y0056309D02*
X0120833Y0056309D01*
X0119927Y0055110D02*
X0123273Y0055110D01*
X0126314Y0055110D02*
X0126886Y0055110D01*
X0126886Y0056309D02*
X0126314Y0056309D01*
X0126314Y0057507D02*
X0126886Y0057507D01*
X0126886Y0059904D02*
X0126314Y0059904D01*
X0126314Y0061103D02*
X0126886Y0061103D01*
X0126886Y0062301D02*
X0126314Y0062301D01*
X0123752Y0062301D02*
X0119800Y0062301D01*
X0119800Y0063500D02*
X0196130Y0063500D01*
X0197329Y0064699D02*
X0119824Y0064699D01*
X0121023Y0065897D02*
X0181378Y0065897D01*
X0180908Y0066367D02*
X0181967Y0065308D01*
X0183351Y0064735D01*
X0184849Y0064735D01*
X0186233Y0065308D01*
X0187292Y0066367D01*
X0187865Y0067751D01*
X0187865Y0069249D01*
X0187292Y0070633D01*
X0186233Y0071692D01*
X0184849Y0072265D01*
X0183351Y0072265D01*
X0181967Y0071692D01*
X0180908Y0070633D01*
X0180335Y0069249D01*
X0180335Y0067751D01*
X0180908Y0066367D01*
X0180606Y0067096D02*
X0122221Y0067096D01*
X0122620Y0061103D02*
X0120663Y0061103D01*
X0121159Y0059904D02*
X0122062Y0059904D01*
X0129927Y0055110D02*
X0133273Y0055110D01*
X0132367Y0056309D02*
X0130814Y0056309D01*
X0131252Y0057507D02*
X0131870Y0057507D01*
X0131864Y0077882D02*
X0136893Y0077882D01*
X0136967Y0077808D02*
X0138351Y0077235D01*
X0139849Y0077235D01*
X0141233Y0077808D01*
X0142292Y0078867D01*
X0142865Y0080251D01*
X0142865Y0081749D01*
X0142292Y0083133D01*
X0141233Y0084192D01*
X0139849Y0084765D01*
X0138351Y0084765D01*
X0136967Y0084192D01*
X0135908Y0083133D01*
X0135335Y0081749D01*
X0135335Y0080251D01*
X0135908Y0078867D01*
X0136967Y0077808D01*
X0135819Y0079081D02*
X0132807Y0079081D01*
X0133259Y0080279D02*
X0135335Y0080279D01*
X0135335Y0081478D02*
X0133259Y0081478D01*
X0132907Y0082676D02*
X0135719Y0082676D01*
X0136650Y0083875D02*
X0132107Y0083875D01*
X0126093Y0083875D02*
X0117107Y0083875D01*
X0117907Y0082676D02*
X0125293Y0082676D01*
X0124941Y0081478D02*
X0118259Y0081478D01*
X0118259Y0080279D02*
X0124941Y0080279D01*
X0125393Y0079081D02*
X0117807Y0079081D01*
X0116864Y0077882D02*
X0126336Y0077882D01*
X0119163Y0073088D02*
X0026200Y0073088D01*
X0026200Y0071890D02*
X0117964Y0071890D01*
X0116766Y0070691D02*
X0026200Y0070691D01*
X0026200Y0069493D02*
X0115567Y0069493D01*
X0114369Y0068294D02*
X0026200Y0068294D01*
X0026200Y0067096D02*
X0113590Y0067096D01*
X0113400Y0065897D02*
X0026200Y0065897D01*
X0026200Y0064699D02*
X0113400Y0064699D01*
X0113400Y0063500D02*
X0027070Y0063500D01*
X0028268Y0062301D02*
X0103685Y0062301D01*
X0102537Y0061103D02*
X0029467Y0061103D01*
X0030665Y0059904D02*
X0102041Y0059904D01*
X0101850Y0058706D02*
X0031864Y0058706D01*
X0033062Y0057507D02*
X0101870Y0057507D01*
X0102367Y0056309D02*
X0034261Y0056309D01*
X0035459Y0055110D02*
X0103273Y0055110D01*
X0109927Y0055110D02*
X0113273Y0055110D01*
X0112367Y0056309D02*
X0110833Y0056309D01*
X0111330Y0057507D02*
X0111870Y0057507D01*
X0111850Y0058706D02*
X0111350Y0058706D01*
X0111159Y0059904D02*
X0112041Y0059904D01*
X0112537Y0061103D02*
X0110663Y0061103D01*
X0109515Y0062301D02*
X0113400Y0062301D01*
X0111336Y0077882D02*
X0106307Y0077882D01*
X0107381Y0079081D02*
X0110393Y0079081D01*
X0109941Y0080279D02*
X0107865Y0080279D01*
X0107865Y0081478D02*
X0109941Y0081478D01*
X0110293Y0082676D02*
X0107481Y0082676D01*
X0106550Y0083875D02*
X0111093Y0083875D01*
X0117239Y0098257D02*
X0125961Y0098257D01*
X0125238Y0099455D02*
X0117962Y0099455D01*
X0118259Y0100654D02*
X0124941Y0100654D01*
X0124951Y0101852D02*
X0118249Y0101852D01*
X0117752Y0103051D02*
X0125448Y0103051D01*
X0126468Y0104249D02*
X0116732Y0104249D01*
X0107365Y0109043D02*
X0135835Y0109043D01*
X0135908Y0108867D02*
X0136967Y0107808D01*
X0138351Y0107235D01*
X0139849Y0107235D01*
X0141233Y0107808D01*
X0142292Y0108867D01*
X0142865Y0110251D01*
X0142865Y0111749D01*
X0142292Y0113133D01*
X0141233Y0114192D01*
X0139849Y0114765D01*
X0138351Y0114765D01*
X0136967Y0114192D01*
X0135908Y0113133D01*
X0135335Y0111749D01*
X0135335Y0110251D01*
X0135908Y0108867D01*
X0136930Y0107845D02*
X0106270Y0107845D01*
X0107862Y0110242D02*
X0135338Y0110242D01*
X0135335Y0111440D02*
X0107865Y0111440D01*
X0107497Y0112639D02*
X0135703Y0112639D01*
X0136612Y0113837D02*
X0106588Y0113837D01*
X0109278Y0117524D02*
X0110784Y0116900D01*
X0112416Y0116900D01*
X0113922Y0117524D01*
X0115076Y0118678D01*
X0115700Y0120184D01*
X0115700Y0121816D01*
X0115076Y0123322D01*
X0113922Y0124476D01*
X0112416Y0125100D01*
X0110784Y0125100D01*
X0109278Y0124476D01*
X0108124Y0123322D01*
X0107500Y0121816D01*
X0107500Y0120184D01*
X0108124Y0118678D01*
X0109278Y0117524D01*
X0109498Y0117433D02*
X0103702Y0117433D01*
X0105030Y0118632D02*
X0108170Y0118632D01*
X0107647Y0119830D02*
X0105553Y0119830D01*
X0105700Y0121029D02*
X0107500Y0121029D01*
X0107670Y0122227D02*
X0105530Y0122227D01*
X0104973Y0123426D02*
X0108227Y0123426D01*
X0109636Y0124624D02*
X0103564Y0124624D01*
X0113564Y0124624D02*
X0119682Y0124624D01*
X0119451Y0124507D02*
X0118929Y0124127D01*
X0118473Y0123671D01*
X0118093Y0123149D01*
X0117800Y0122574D01*
X0117601Y0121960D01*
X0117500Y0121323D01*
X0117500Y0121200D01*
X0121400Y0121200D01*
X0121400Y0125100D01*
X0121277Y0125100D01*
X0120640Y0124999D01*
X0120026Y0124800D01*
X0119451Y0124507D01*
X0118294Y0123426D02*
X0114973Y0123426D01*
X0115530Y0122227D02*
X0117688Y0122227D01*
X0117500Y0120800D02*
X0117500Y0120677D01*
X0117601Y0120040D01*
X0117800Y0119426D01*
X0118093Y0118851D01*
X0118473Y0118329D01*
X0118929Y0117873D01*
X0119451Y0117493D01*
X0120026Y0117200D01*
X0120640Y0117001D01*
X0121277Y0116900D01*
X0121400Y0116900D01*
X0121400Y0120800D01*
X0117500Y0120800D01*
X0117669Y0119830D02*
X0115553Y0119830D01*
X0115700Y0121029D02*
X0121400Y0121029D01*
X0121400Y0121200D02*
X0121400Y0120800D01*
X0121800Y0120800D01*
X0121800Y0121200D01*
X0121400Y0121200D01*
X0121800Y0121200D02*
X0121800Y0125100D01*
X0121923Y0125100D01*
X0122560Y0124999D01*
X0123174Y0124800D01*
X0123749Y0124507D01*
X0124271Y0124127D01*
X0124727Y0123671D01*
X0125107Y0123149D01*
X0125400Y0122574D01*
X0125599Y0121960D01*
X0125700Y0121323D01*
X0125700Y0121200D01*
X0121800Y0121200D01*
X0121800Y0121029D02*
X0127500Y0121029D01*
X0127500Y0121816D02*
X0127500Y0120184D01*
X0128124Y0118678D01*
X0129278Y0117524D01*
X0130784Y0116900D01*
X0132416Y0116900D01*
X0133922Y0117524D01*
X0135076Y0118678D01*
X0135700Y0120184D01*
X0135700Y0121816D01*
X0135076Y0123322D01*
X0133922Y0124476D01*
X0132416Y0125100D01*
X0130784Y0125100D01*
X0129278Y0124476D01*
X0128124Y0123322D01*
X0127500Y0121816D01*
X0127670Y0122227D02*
X0125512Y0122227D01*
X0124906Y0123426D02*
X0128227Y0123426D01*
X0129636Y0124624D02*
X0123518Y0124624D01*
X0121800Y0124624D02*
X0121400Y0124624D01*
X0121400Y0123426D02*
X0121800Y0123426D01*
X0121800Y0122227D02*
X0121400Y0122227D01*
X0121800Y0120800D02*
X0125700Y0120800D01*
X0125700Y0120677D01*
X0125599Y0120040D01*
X0125400Y0119426D01*
X0125107Y0118851D01*
X0124727Y0118329D01*
X0124271Y0117873D01*
X0123749Y0117493D01*
X0123174Y0117200D01*
X0122560Y0117001D01*
X0121923Y0116900D01*
X0121800Y0116900D01*
X0121800Y0120800D01*
X0121800Y0119830D02*
X0121400Y0119830D01*
X0121400Y0118632D02*
X0121800Y0118632D01*
X0121800Y0117433D02*
X0121400Y0117433D01*
X0119570Y0117433D02*
X0113702Y0117433D01*
X0115030Y0118632D02*
X0118253Y0118632D01*
X0123630Y0117433D02*
X0129498Y0117433D01*
X0128170Y0118632D02*
X0124947Y0118632D01*
X0125531Y0119830D02*
X0127647Y0119830D01*
X0133702Y0117433D02*
X0139498Y0117433D01*
X0139278Y0117524D02*
X0140784Y0116900D01*
X0142416Y0116900D01*
X0143922Y0117524D01*
X0145076Y0118678D01*
X0145700Y0120184D01*
X0145700Y0121816D01*
X0145076Y0123322D01*
X0143922Y0124476D01*
X0142416Y0125100D01*
X0140784Y0125100D01*
X0139278Y0124476D01*
X0138124Y0123322D01*
X0137500Y0121816D01*
X0137500Y0120184D01*
X0138124Y0118678D01*
X0139278Y0117524D01*
X0138170Y0118632D02*
X0135030Y0118632D01*
X0135553Y0119830D02*
X0137647Y0119830D01*
X0137500Y0121029D02*
X0135700Y0121029D01*
X0135530Y0122227D02*
X0137670Y0122227D01*
X0138227Y0123426D02*
X0134973Y0123426D01*
X0133564Y0124624D02*
X0139636Y0124624D01*
X0143564Y0124624D02*
X0149636Y0124624D01*
X0149278Y0124476D02*
X0148124Y0123322D01*
X0147500Y0121816D01*
X0147500Y0120184D01*
X0148124Y0118678D01*
X0149278Y0117524D01*
X0150784Y0116900D01*
X0152416Y0116900D01*
X0153922Y0117524D01*
X0155076Y0118678D01*
X0155700Y0120184D01*
X0155700Y0121816D01*
X0155076Y0123322D01*
X0153922Y0124476D01*
X0152416Y0125100D01*
X0150784Y0125100D01*
X0149278Y0124476D01*
X0148227Y0123426D02*
X0144973Y0123426D01*
X0145530Y0122227D02*
X0147670Y0122227D01*
X0147500Y0121029D02*
X0145700Y0121029D01*
X0145553Y0119830D02*
X0147647Y0119830D01*
X0148170Y0118632D02*
X0145030Y0118632D01*
X0143702Y0117433D02*
X0149498Y0117433D01*
X0150851Y0114765D02*
X0149467Y0114192D01*
X0148408Y0113133D01*
X0147835Y0111749D01*
X0147835Y0110251D01*
X0148408Y0108867D01*
X0149467Y0107808D01*
X0150851Y0107235D01*
X0152349Y0107235D01*
X0153733Y0107808D01*
X0154792Y0108867D01*
X0155365Y0110251D01*
X0155365Y0111749D01*
X0154792Y0113133D01*
X0153733Y0114192D01*
X0152349Y0114765D01*
X0150851Y0114765D01*
X0149112Y0113837D02*
X0141588Y0113837D01*
X0142497Y0112639D02*
X0148203Y0112639D01*
X0147835Y0111440D02*
X0142865Y0111440D01*
X0142862Y0110242D02*
X0147838Y0110242D01*
X0148335Y0109043D02*
X0142365Y0109043D01*
X0141270Y0107845D02*
X0149430Y0107845D01*
X0153770Y0107845D02*
X0159430Y0107845D01*
X0159467Y0107808D02*
X0160851Y0107235D01*
X0162349Y0107235D01*
X0163733Y0107808D01*
X0164792Y0108867D01*
X0165365Y0110251D01*
X0165365Y0111749D01*
X0164792Y0113133D01*
X0163733Y0114192D01*
X0162349Y0114765D01*
X0160851Y0114765D01*
X0159467Y0114192D01*
X0158408Y0113133D01*
X0157835Y0111749D01*
X0157835Y0110251D01*
X0158408Y0108867D01*
X0159467Y0107808D01*
X0158335Y0109043D02*
X0154865Y0109043D01*
X0155362Y0110242D02*
X0157838Y0110242D01*
X0157835Y0111440D02*
X0155365Y0111440D01*
X0154997Y0112639D02*
X0158203Y0112639D01*
X0159112Y0113837D02*
X0154088Y0113837D01*
X0153702Y0117433D02*
X0160372Y0117433D01*
X0160851Y0117235D02*
X0159467Y0117808D01*
X0158408Y0118867D01*
X0157835Y0120251D01*
X0157835Y0121749D01*
X0158408Y0123133D01*
X0159467Y0124192D01*
X0160851Y0124765D01*
X0162349Y0124765D01*
X0163733Y0124192D01*
X0164792Y0123133D01*
X0165365Y0121749D01*
X0165365Y0120251D01*
X0164792Y0118867D01*
X0163733Y0117808D01*
X0162349Y0117235D01*
X0160851Y0117235D01*
X0162828Y0117433D02*
X0168400Y0117433D01*
X0168400Y0118632D02*
X0164557Y0118632D01*
X0165191Y0119830D02*
X0168400Y0119830D01*
X0168400Y0121029D02*
X0165365Y0121029D01*
X0165167Y0122227D02*
X0168400Y0122227D01*
X0168400Y0123426D02*
X0164499Y0123426D01*
X0162690Y0124624D02*
X0168400Y0124624D01*
X0174800Y0124624D02*
X0177990Y0124624D01*
X0177835Y0124249D02*
X0177835Y0122751D01*
X0178408Y0121367D01*
X0179467Y0120308D01*
X0180851Y0119735D01*
X0182349Y0119735D01*
X0183733Y0120308D01*
X0184792Y0121367D01*
X0185365Y0122751D01*
X0185365Y0124249D01*
X0184792Y0125633D01*
X0183733Y0126692D01*
X0182349Y0127265D01*
X0180851Y0127265D01*
X0179467Y0126692D01*
X0178408Y0125633D01*
X0177835Y0124249D01*
X0177835Y0123426D02*
X0174800Y0123426D01*
X0174800Y0122227D02*
X0178052Y0122227D01*
X0178746Y0121029D02*
X0174800Y0121029D01*
X0174800Y0119830D02*
X0180621Y0119830D01*
X0182579Y0119830D02*
X0190621Y0119830D01*
X0190851Y0119735D02*
X0192349Y0119735D01*
X0193733Y0120308D01*
X0194792Y0121367D01*
X0195365Y0122751D01*
X0195365Y0124249D01*
X0194792Y0125633D01*
X0193733Y0126692D01*
X0192349Y0127265D01*
X0190851Y0127265D01*
X0189467Y0126692D01*
X0188408Y0125633D01*
X0187835Y0124249D01*
X0187835Y0122751D01*
X0188408Y0121367D01*
X0189467Y0120308D01*
X0190851Y0119735D01*
X0192579Y0119830D02*
X0210362Y0119830D01*
X0210138Y0119288D02*
X0210138Y0117712D01*
X0210741Y0116256D01*
X0211856Y0115141D01*
X0213312Y0114538D01*
X0214888Y0114538D01*
X0216344Y0115141D01*
X0217459Y0116256D01*
X0218062Y0117712D01*
X0218062Y0119288D01*
X0217459Y0120744D01*
X0216344Y0121859D01*
X0214888Y0122462D01*
X0213312Y0122462D01*
X0211856Y0121859D01*
X0210741Y0120744D01*
X0210138Y0119288D01*
X0210138Y0118632D02*
X0174800Y0118632D01*
X0174800Y0117433D02*
X0210253Y0117433D01*
X0210762Y0116234D02*
X0174800Y0116234D01*
X0174800Y0115036D02*
X0212109Y0115036D01*
X0213312Y0112462D02*
X0211856Y0111859D01*
X0210741Y0110744D01*
X0210138Y0109288D01*
X0210138Y0107712D01*
X0210741Y0106256D01*
X0211856Y0105141D01*
X0213312Y0104538D01*
X0214888Y0104538D01*
X0216344Y0105141D01*
X0217459Y0106256D01*
X0218062Y0107712D01*
X0218062Y0109288D01*
X0217459Y0110744D01*
X0216344Y0111859D01*
X0214888Y0112462D01*
X0213312Y0112462D01*
X0211437Y0111440D02*
X0174800Y0111440D01*
X0174800Y0110242D02*
X0210533Y0110242D01*
X0210138Y0109043D02*
X0174800Y0109043D01*
X0174800Y0107845D02*
X0210138Y0107845D01*
X0210579Y0106646D02*
X0174800Y0106646D01*
X0174800Y0105448D02*
X0211549Y0105448D01*
X0213312Y0102462D02*
X0211856Y0101859D01*
X0210741Y0100744D01*
X0210138Y0099288D01*
X0210138Y0097712D01*
X0210741Y0096256D01*
X0211856Y0095141D01*
X0213312Y0094538D01*
X0214888Y0094538D01*
X0216344Y0095141D01*
X0217459Y0096256D01*
X0218062Y0097712D01*
X0218062Y0099288D01*
X0217459Y0100744D01*
X0216344Y0101859D01*
X0214888Y0102462D01*
X0213312Y0102462D01*
X0211849Y0101852D02*
X0205846Y0101852D01*
X0205884Y0101837D02*
X0205198Y0102121D01*
X0204471Y0102265D01*
X0204100Y0102265D01*
X0203729Y0102265D01*
X0203002Y0102121D01*
X0202316Y0101837D01*
X0201700Y0101425D01*
X0201175Y0100900D01*
X0200763Y0100284D01*
X0200479Y0099598D01*
X0200335Y0098871D01*
X0200335Y0098500D01*
X0200335Y0098129D01*
X0200479Y0097402D01*
X0200763Y0096716D01*
X0201175Y0096100D01*
X0201700Y0095575D01*
X0202316Y0095163D01*
X0203002Y0094879D01*
X0203729Y0094735D01*
X0204100Y0094735D01*
X0204471Y0094735D01*
X0205198Y0094879D01*
X0205884Y0095163D01*
X0206500Y0095575D01*
X0207025Y0096100D01*
X0207437Y0096716D01*
X0207721Y0097402D01*
X0207865Y0098129D01*
X0207865Y0098500D01*
X0207865Y0098871D01*
X0207721Y0099598D01*
X0207437Y0100284D01*
X0207025Y0100900D01*
X0206500Y0101425D01*
X0205884Y0101837D01*
X0207189Y0100654D02*
X0210704Y0100654D01*
X0210207Y0099455D02*
X0207749Y0099455D01*
X0207865Y0098500D02*
X0204100Y0098500D01*
X0204100Y0098500D01*
X0204100Y0102265D01*
X0204100Y0098500D01*
X0204100Y0098500D01*
X0204100Y0098500D01*
X0200335Y0098500D01*
X0204100Y0098500D01*
X0207865Y0098500D01*
X0207865Y0098257D02*
X0210138Y0098257D01*
X0210409Y0097058D02*
X0207578Y0097058D01*
X0206785Y0095860D02*
X0211137Y0095860D01*
X0213014Y0094661D02*
X0174800Y0094661D01*
X0174800Y0093463D02*
X0235033Y0093463D01*
X0235033Y0094661D02*
X0215186Y0094661D01*
X0214927Y0092659D02*
X0213273Y0092659D01*
X0211744Y0092026D01*
X0210574Y0090856D01*
X0209941Y0089327D01*
X0209941Y0087673D01*
X0210574Y0086144D01*
X0211744Y0084974D01*
X0213273Y0084341D01*
X0214927Y0084341D01*
X0216456Y0084974D01*
X0217626Y0086144D01*
X0218259Y0087673D01*
X0218259Y0089327D01*
X0217626Y0090856D01*
X0216456Y0092026D01*
X0214927Y0092659D01*
X0215880Y0092264D02*
X0235033Y0092264D01*
X0235033Y0091066D02*
X0217416Y0091066D01*
X0218035Y0089867D02*
X0235033Y0089867D01*
X0235033Y0088669D02*
X0218259Y0088669D01*
X0218175Y0087470D02*
X0235033Y0087470D01*
X0235033Y0086272D02*
X0217679Y0086272D01*
X0216555Y0085073D02*
X0235033Y0085073D01*
X0235033Y0083875D02*
X0174800Y0083875D01*
X0174800Y0085073D02*
X0211645Y0085073D01*
X0210521Y0086272D02*
X0174800Y0086272D01*
X0174800Y0087470D02*
X0210025Y0087470D01*
X0209941Y0088669D02*
X0174800Y0088669D01*
X0174800Y0089867D02*
X0210165Y0089867D01*
X0210784Y0091066D02*
X0174800Y0091066D01*
X0174800Y0092264D02*
X0212320Y0092264D01*
X0217063Y0095860D02*
X0235033Y0095860D01*
X0235033Y0097058D02*
X0217791Y0097058D01*
X0218062Y0098257D02*
X0235033Y0098257D01*
X0235033Y0099455D02*
X0217993Y0099455D01*
X0217496Y0100654D02*
X0235033Y0100654D01*
X0235033Y0101852D02*
X0216351Y0101852D01*
X0216651Y0105448D02*
X0235033Y0105448D01*
X0235033Y0106646D02*
X0217621Y0106646D01*
X0218062Y0107845D02*
X0235033Y0107845D01*
X0235033Y0109043D02*
X0218062Y0109043D01*
X0217667Y0110242D02*
X0235033Y0110242D01*
X0235033Y0111440D02*
X0216763Y0111440D01*
X0216091Y0115036D02*
X0235033Y0115036D01*
X0235033Y0116234D02*
X0217438Y0116234D01*
X0217947Y0117433D02*
X0235033Y0117433D01*
X0235033Y0118632D02*
X0218062Y0118632D01*
X0217838Y0119830D02*
X0235033Y0119830D01*
X0235033Y0121029D02*
X0217175Y0121029D01*
X0215456Y0122227D02*
X0235033Y0122227D01*
X0235033Y0123426D02*
X0195365Y0123426D01*
X0195210Y0124624D02*
X0198104Y0124624D01*
X0198312Y0124538D02*
X0199888Y0124538D01*
X0201344Y0125141D01*
X0202459Y0126256D01*
X0203062Y0127712D01*
X0203062Y0129288D01*
X0202459Y0130744D01*
X0201344Y0131859D01*
X0199888Y0132462D01*
X0198312Y0132462D01*
X0196856Y0131859D01*
X0195741Y0130744D01*
X0195138Y0129288D01*
X0195138Y0127712D01*
X0195741Y0126256D01*
X0196856Y0125141D01*
X0198312Y0124538D01*
X0200096Y0124624D02*
X0208104Y0124624D01*
X0208312Y0124538D02*
X0209888Y0124538D01*
X0211344Y0125141D01*
X0212459Y0126256D01*
X0213062Y0127712D01*
X0213062Y0129288D01*
X0212459Y0130744D01*
X0211344Y0131859D01*
X0209888Y0132462D01*
X0208312Y0132462D01*
X0206856Y0131859D01*
X0205741Y0130744D01*
X0205138Y0129288D01*
X0205138Y0127712D01*
X0205741Y0126256D01*
X0206856Y0125141D01*
X0208312Y0124538D01*
X0210096Y0124624D02*
X0218104Y0124624D01*
X0218312Y0124538D02*
X0219888Y0124538D01*
X0221344Y0125141D01*
X0222459Y0126256D01*
X0223062Y0127712D01*
X0223062Y0129288D01*
X0222459Y0130744D01*
X0221344Y0131859D01*
X0219888Y0132462D01*
X0218312Y0132462D01*
X0216856Y0131859D01*
X0215741Y0130744D01*
X0215138Y0129288D01*
X0215138Y0127712D01*
X0215741Y0126256D01*
X0216856Y0125141D01*
X0218312Y0124538D01*
X0220096Y0124624D02*
X0235033Y0124624D01*
X0235033Y0125823D02*
X0222026Y0125823D01*
X0222776Y0127021D02*
X0235033Y0127021D01*
X0235033Y0128220D02*
X0223062Y0128220D01*
X0223008Y0129418D02*
X0235033Y0129418D01*
X0235033Y0130617D02*
X0222512Y0130617D01*
X0221388Y0131815D02*
X0235033Y0131815D01*
X0235033Y0133014D02*
X0174800Y0133014D01*
X0174800Y0134212D02*
X0235033Y0134212D01*
X0235033Y0135411D02*
X0174800Y0135411D01*
X0174800Y0136609D02*
X0235033Y0136609D01*
X0235033Y0137808D02*
X0174800Y0137808D01*
X0174800Y0139006D02*
X0235033Y0139006D01*
X0235033Y0140205D02*
X0174800Y0140205D01*
X0174800Y0141403D02*
X0235033Y0141403D01*
X0235033Y0142602D02*
X0174800Y0142602D01*
X0174800Y0143800D02*
X0235033Y0143800D01*
X0235033Y0144999D02*
X0221001Y0144999D01*
X0221344Y0145141D02*
X0219888Y0144538D01*
X0218312Y0144538D01*
X0216856Y0145141D01*
X0215741Y0146256D01*
X0215138Y0147712D01*
X0215138Y0149288D01*
X0215741Y0150744D01*
X0216856Y0151859D01*
X0218312Y0152462D01*
X0219888Y0152462D01*
X0221344Y0151859D01*
X0222459Y0150744D01*
X0223062Y0149288D01*
X0223062Y0147712D01*
X0222459Y0146256D01*
X0221344Y0145141D01*
X0222401Y0146197D02*
X0235033Y0146197D01*
X0235033Y0147396D02*
X0222931Y0147396D01*
X0223062Y0148594D02*
X0235033Y0148594D01*
X0235033Y0149793D02*
X0222853Y0149793D01*
X0222212Y0150991D02*
X0235033Y0150991D01*
X0235033Y0152190D02*
X0220546Y0152190D01*
X0217654Y0152190D02*
X0210546Y0152190D01*
X0209888Y0152462D02*
X0208312Y0152462D01*
X0206856Y0151859D01*
X0205741Y0150744D01*
X0205138Y0149288D01*
X0205138Y0147712D01*
X0205741Y0146256D01*
X0206856Y0145141D01*
X0208312Y0144538D01*
X0209888Y0144538D01*
X0211344Y0145141D01*
X0212459Y0146256D01*
X0213062Y0147712D01*
X0213062Y0149288D01*
X0212459Y0150744D01*
X0211344Y0151859D01*
X0209888Y0152462D01*
X0207654Y0152190D02*
X0200546Y0152190D01*
X0199888Y0152462D02*
X0198312Y0152462D01*
X0196856Y0151859D01*
X0195741Y0150744D01*
X0195138Y0149288D01*
X0195138Y0147712D01*
X0195741Y0146256D01*
X0196856Y0145141D01*
X0198312Y0144538D01*
X0199888Y0144538D01*
X0201344Y0145141D01*
X0202459Y0146256D01*
X0203062Y0147712D01*
X0203062Y0149288D01*
X0202459Y0150744D01*
X0201344Y0151859D01*
X0199888Y0152462D01*
X0197654Y0152190D02*
X0195133Y0152190D01*
X0195365Y0152751D02*
X0194792Y0151367D01*
X0193733Y0150308D01*
X0192349Y0149735D01*
X0190851Y0149735D01*
X0189467Y0150308D01*
X0188408Y0151367D01*
X0187835Y0152751D01*
X0187835Y0154249D01*
X0188408Y0155633D01*
X0189467Y0156692D01*
X0190851Y0157265D01*
X0192349Y0157265D01*
X0193733Y0156692D01*
X0194792Y0155633D01*
X0195365Y0154249D01*
X0195365Y0152751D01*
X0195365Y0153388D02*
X0235033Y0153388D01*
X0235033Y0154587D02*
X0195225Y0154587D01*
X0194640Y0155785D02*
X0235033Y0155785D01*
X0235033Y0156984D02*
X0193028Y0156984D01*
X0190172Y0156984D02*
X0183028Y0156984D01*
X0182349Y0157265D02*
X0183733Y0156692D01*
X0184792Y0155633D01*
X0185365Y0154249D01*
X0185365Y0152751D01*
X0184792Y0151367D01*
X0183733Y0150308D01*
X0182349Y0149735D01*
X0180851Y0149735D01*
X0179467Y0150308D01*
X0178408Y0151367D01*
X0177835Y0152751D01*
X0177835Y0154249D01*
X0178408Y0155633D01*
X0179467Y0156692D01*
X0180851Y0157265D01*
X0182349Y0157265D01*
X0180172Y0156984D02*
X0174800Y0156984D01*
X0174800Y0158182D02*
X0235033Y0158182D01*
X0235033Y0159381D02*
X0174800Y0159381D01*
X0174800Y0160579D02*
X0235033Y0160579D01*
X0235033Y0161778D02*
X0174800Y0161778D01*
X0174800Y0162976D02*
X0179299Y0162976D01*
X0179467Y0162808D02*
X0180851Y0162235D01*
X0182349Y0162235D01*
X0183733Y0162808D01*
X0184792Y0163867D01*
X0185365Y0165251D01*
X0185365Y0166462D01*
X0199877Y0178900D01*
X0199970Y0178900D01*
X0200528Y0179458D01*
X0201127Y0179972D01*
X0201134Y0180064D01*
X0201200Y0180130D01*
X0201200Y0180919D01*
X0201261Y0181706D01*
X0201200Y0181777D01*
X0201200Y0185081D01*
X0201344Y0185141D01*
X0202459Y0186256D01*
X0203062Y0187712D01*
X0203062Y0189288D01*
X0202459Y0190744D01*
X0201344Y0191859D01*
X0199888Y0192462D01*
X0198312Y0192462D01*
X0196856Y0191859D01*
X0195741Y0190744D01*
X0195138Y0189288D01*
X0195138Y0187712D01*
X0195741Y0186256D01*
X0196856Y0185141D01*
X0197000Y0185081D01*
X0197000Y0181966D01*
X0182630Y0169649D01*
X0182349Y0169765D01*
X0180851Y0169765D01*
X0179467Y0169192D01*
X0178408Y0168133D01*
X0177835Y0166749D01*
X0177835Y0165251D01*
X0178408Y0163867D01*
X0179467Y0162808D01*
X0178280Y0164175D02*
X0174800Y0164175D01*
X0174800Y0165373D02*
X0177835Y0165373D01*
X0177835Y0166572D02*
X0174800Y0166572D01*
X0174800Y0167770D02*
X0178258Y0167770D01*
X0179244Y0168969D02*
X0174800Y0168969D01*
X0174800Y0170168D02*
X0183235Y0170168D01*
X0184634Y0171366D02*
X0174800Y0171366D01*
X0174800Y0172565D02*
X0186032Y0172565D01*
X0187430Y0173763D02*
X0174800Y0173763D01*
X0174800Y0174962D02*
X0188828Y0174962D01*
X0190227Y0176160D02*
X0174800Y0176160D01*
X0174800Y0177359D02*
X0191625Y0177359D01*
X0193023Y0178557D02*
X0174800Y0178557D01*
X0174800Y0179756D02*
X0194421Y0179756D01*
X0195820Y0180954D02*
X0174800Y0180954D01*
X0174800Y0182153D02*
X0197000Y0182153D01*
X0197000Y0183351D02*
X0174800Y0183351D01*
X0174800Y0184550D02*
X0197000Y0184550D01*
X0196248Y0185748D02*
X0174800Y0185748D01*
X0174800Y0186947D02*
X0195455Y0186947D01*
X0195138Y0188145D02*
X0174800Y0188145D01*
X0174800Y0189344D02*
X0195161Y0189344D01*
X0195657Y0190542D02*
X0174800Y0190542D01*
X0174800Y0191741D02*
X0196737Y0191741D01*
X0194792Y0193867D02*
X0195365Y0195251D01*
X0195365Y0196749D01*
X0194792Y0198133D01*
X0193733Y0199192D01*
X0192349Y0199765D01*
X0190851Y0199765D01*
X0189467Y0199192D01*
X0188408Y0198133D01*
X0187835Y0196749D01*
X0187835Y0195251D01*
X0188408Y0193867D01*
X0189467Y0192808D01*
X0190851Y0192235D01*
X0192349Y0192235D01*
X0193733Y0192808D01*
X0194792Y0193867D01*
X0194904Y0194138D02*
X0235033Y0194138D01*
X0235033Y0195336D02*
X0195365Y0195336D01*
X0195365Y0196535D02*
X0235033Y0196535D01*
X0235033Y0197733D02*
X0194958Y0197733D01*
X0193993Y0198932D02*
X0235033Y0198932D01*
X0235033Y0200130D02*
X0171995Y0200130D01*
X0173194Y0198932D02*
X0179207Y0198932D01*
X0179467Y0199192D02*
X0178408Y0198133D01*
X0177835Y0196749D01*
X0177835Y0195251D01*
X0178408Y0193867D01*
X0179467Y0192808D01*
X0180851Y0192235D01*
X0182349Y0192235D01*
X0183733Y0192808D01*
X0184792Y0193867D01*
X0185365Y0195251D01*
X0185365Y0196749D01*
X0184792Y0198133D01*
X0183733Y0199192D01*
X0182349Y0199765D01*
X0180851Y0199765D01*
X0179467Y0199192D01*
X0178242Y0197733D02*
X0174346Y0197733D01*
X0174800Y0196535D02*
X0177835Y0196535D01*
X0177835Y0195336D02*
X0174800Y0195336D01*
X0174800Y0194138D02*
X0178296Y0194138D01*
X0179336Y0192939D02*
X0174800Y0192939D01*
X0170797Y0201329D02*
X0235033Y0201329D01*
X0235033Y0202527D02*
X0169598Y0202527D01*
X0168400Y0203726D02*
X0235033Y0203726D01*
X0235033Y0204924D02*
X0197511Y0204924D01*
X0197445Y0204857D02*
X0197743Y0205155D01*
X0197953Y0205520D01*
X0198062Y0205927D01*
X0198062Y0208500D01*
X0198062Y0211073D01*
X0197953Y0211480D01*
X0197743Y0211845D01*
X0197445Y0212143D01*
X0197080Y0212353D01*
X0196673Y0212462D01*
X0194100Y0212462D01*
X0194100Y0208500D01*
X0194100Y0208500D01*
X0198062Y0208500D01*
X0194100Y0208500D01*
X0194100Y0208500D01*
X0194100Y0212462D01*
X0191527Y0212462D01*
X0191120Y0212353D01*
X0190755Y0212143D01*
X0190457Y0211845D01*
X0190247Y0211480D01*
X0190138Y0211073D01*
X0190138Y0208500D01*
X0194100Y0208500D01*
X0194100Y0204538D01*
X0196673Y0204538D01*
X0197080Y0204647D01*
X0197445Y0204857D01*
X0198062Y0206123D02*
X0235033Y0206123D01*
X0235033Y0207321D02*
X0198062Y0207321D01*
X0198062Y0208520D02*
X0235033Y0208520D01*
X0235033Y0209718D02*
X0198062Y0209718D01*
X0198062Y0210917D02*
X0235033Y0210917D01*
X0235033Y0212115D02*
X0197472Y0212115D01*
X0194100Y0212115D02*
X0194100Y0212115D01*
X0194100Y0210917D02*
X0194100Y0210917D01*
X0194100Y0209718D02*
X0194100Y0209718D01*
X0194100Y0208520D02*
X0194100Y0208520D01*
X0194100Y0208500D02*
X0194100Y0208500D01*
X0194100Y0208500D01*
X0194100Y0204538D01*
X0191527Y0204538D01*
X0191120Y0204647D01*
X0190755Y0204857D01*
X0190457Y0205155D01*
X0190247Y0205520D01*
X0190138Y0205927D01*
X0190138Y0208500D01*
X0194100Y0208500D01*
X0194100Y0207321D02*
X0194100Y0207321D01*
X0194100Y0206123D02*
X0194100Y0206123D01*
X0194100Y0204924D02*
X0194100Y0204924D01*
X0190689Y0204924D02*
X0185821Y0204924D01*
X0186344Y0205141D02*
X0187459Y0206256D01*
X0188062Y0207712D01*
X0188062Y0209288D01*
X0187459Y0210744D01*
X0186344Y0211859D01*
X0184888Y0212462D01*
X0183312Y0212462D01*
X0181856Y0211859D01*
X0180741Y0210744D01*
X0180138Y0209288D01*
X0180138Y0207712D01*
X0180741Y0206256D01*
X0181856Y0205141D01*
X0183312Y0204538D01*
X0184888Y0204538D01*
X0186344Y0205141D01*
X0187326Y0206123D02*
X0190138Y0206123D01*
X0190138Y0207321D02*
X0187900Y0207321D01*
X0188062Y0208520D02*
X0190138Y0208520D01*
X0190138Y0209718D02*
X0187884Y0209718D01*
X0187286Y0210917D02*
X0190138Y0210917D01*
X0190728Y0212115D02*
X0185725Y0212115D01*
X0182475Y0212115D02*
X0175725Y0212115D01*
X0176344Y0211859D02*
X0174888Y0212462D01*
X0173312Y0212462D01*
X0171856Y0211859D01*
X0170741Y0210744D01*
X0170138Y0209288D01*
X0170138Y0207712D01*
X0170741Y0206256D01*
X0171856Y0205141D01*
X0173312Y0204538D01*
X0174888Y0204538D01*
X0176344Y0205141D01*
X0177459Y0206256D01*
X0178062Y0207712D01*
X0178062Y0209288D01*
X0177459Y0210744D01*
X0176344Y0211859D01*
X0177286Y0210917D02*
X0180913Y0210917D01*
X0180316Y0209718D02*
X0177884Y0209718D01*
X0178062Y0208520D02*
X0180138Y0208520D01*
X0180300Y0207321D02*
X0177900Y0207321D01*
X0177326Y0206123D02*
X0180874Y0206123D01*
X0182379Y0204924D02*
X0175821Y0204924D01*
X0172379Y0204924D02*
X0167201Y0204924D01*
X0166003Y0206123D02*
X0170874Y0206123D01*
X0170300Y0207321D02*
X0164804Y0207321D01*
X0164800Y0208520D02*
X0170138Y0208520D01*
X0170316Y0209718D02*
X0164800Y0209718D01*
X0164800Y0210917D02*
X0170913Y0210917D01*
X0172475Y0212115D02*
X0164800Y0212115D01*
X0164800Y0213314D02*
X0235033Y0213314D01*
X0235033Y0214512D02*
X0164800Y0214512D01*
X0164800Y0215711D02*
X0235033Y0215711D01*
X0235033Y0216909D02*
X0164800Y0216909D01*
X0164800Y0218108D02*
X0235033Y0218108D01*
X0235033Y0219306D02*
X0164800Y0219306D01*
X0164800Y0220505D02*
X0166770Y0220505D01*
X0166967Y0220308D02*
X0168351Y0219735D01*
X0169849Y0219735D01*
X0171233Y0220308D01*
X0172292Y0221367D01*
X0172865Y0222751D01*
X0172865Y0224249D01*
X0172292Y0225633D01*
X0171233Y0226692D01*
X0169849Y0227265D01*
X0168351Y0227265D01*
X0166967Y0226692D01*
X0165908Y0225633D01*
X0165335Y0224249D01*
X0165335Y0222751D01*
X0165908Y0221367D01*
X0166967Y0220308D01*
X0165769Y0221703D02*
X0164800Y0221703D01*
X0164800Y0222902D02*
X0165335Y0222902D01*
X0165335Y0224101D02*
X0164800Y0224101D01*
X0164800Y0225299D02*
X0165770Y0225299D01*
X0164800Y0226498D02*
X0166773Y0226498D01*
X0164800Y0227696D02*
X0235033Y0227696D01*
X0235033Y0226498D02*
X0201427Y0226498D01*
X0201233Y0226692D02*
X0199849Y0227265D01*
X0198351Y0227265D01*
X0196967Y0226692D01*
X0195908Y0225633D01*
X0195335Y0224249D01*
X0195335Y0222751D01*
X0195908Y0221367D01*
X0196967Y0220308D01*
X0198351Y0219735D01*
X0199849Y0219735D01*
X0201233Y0220308D01*
X0202292Y0221367D01*
X0202865Y0222751D01*
X0202865Y0224249D01*
X0202292Y0225633D01*
X0201233Y0226692D01*
X0202430Y0225299D02*
X0235033Y0225299D01*
X0235033Y0224101D02*
X0202865Y0224101D01*
X0202865Y0222902D02*
X0235033Y0222902D01*
X0235033Y0221703D02*
X0202431Y0221703D01*
X0201430Y0220505D02*
X0235033Y0220505D01*
X0235033Y0192939D02*
X0193864Y0192939D01*
X0189336Y0192939D02*
X0183864Y0192939D01*
X0184904Y0194138D02*
X0188296Y0194138D01*
X0187835Y0195336D02*
X0185365Y0195336D01*
X0185365Y0196535D02*
X0187835Y0196535D01*
X0188242Y0197733D02*
X0184958Y0197733D01*
X0183993Y0198932D02*
X0189207Y0198932D01*
X0201463Y0191741D02*
X0206737Y0191741D01*
X0206856Y0191859D02*
X0205741Y0190744D01*
X0205138Y0189288D01*
X0205138Y0187712D01*
X0205741Y0186256D01*
X0206856Y0185141D01*
X0208312Y0184538D01*
X0209888Y0184538D01*
X0211344Y0185141D01*
X0212459Y0186256D01*
X0213062Y0187712D01*
X0213062Y0189288D01*
X0212459Y0190744D01*
X0211344Y0191859D01*
X0209888Y0192462D01*
X0208312Y0192462D01*
X0206856Y0191859D01*
X0205657Y0190542D02*
X0202543Y0190542D01*
X0203039Y0189344D02*
X0205161Y0189344D01*
X0205138Y0188145D02*
X0203062Y0188145D01*
X0202745Y0186947D02*
X0205455Y0186947D01*
X0206248Y0185748D02*
X0201952Y0185748D01*
X0201200Y0184550D02*
X0208283Y0184550D01*
X0209917Y0184550D02*
X0218283Y0184550D01*
X0218312Y0184538D02*
X0219888Y0184538D01*
X0221344Y0185141D01*
X0222459Y0186256D01*
X0223062Y0187712D01*
X0223062Y0189288D01*
X0222459Y0190744D01*
X0221344Y0191859D01*
X0219888Y0192462D01*
X0218312Y0192462D01*
X0216856Y0191859D01*
X0215741Y0190744D01*
X0215138Y0189288D01*
X0215138Y0187712D01*
X0215741Y0186256D01*
X0216856Y0185141D01*
X0218312Y0184538D01*
X0219917Y0184550D02*
X0235033Y0184550D01*
X0235033Y0185748D02*
X0221952Y0185748D01*
X0222745Y0186947D02*
X0235033Y0186947D01*
X0235033Y0188145D02*
X0223062Y0188145D01*
X0223039Y0189344D02*
X0235033Y0189344D01*
X0235033Y0190542D02*
X0222543Y0190542D01*
X0221463Y0191741D02*
X0235033Y0191741D01*
X0235033Y0183351D02*
X0201200Y0183351D01*
X0201200Y0182153D02*
X0235033Y0182153D01*
X0235033Y0180954D02*
X0201203Y0180954D01*
X0200875Y0179756D02*
X0235033Y0179756D01*
X0235033Y0178557D02*
X0199477Y0178557D01*
X0198078Y0177359D02*
X0235033Y0177359D01*
X0235033Y0176160D02*
X0196680Y0176160D01*
X0195282Y0174962D02*
X0235033Y0174962D01*
X0235033Y0173763D02*
X0193884Y0173763D01*
X0192485Y0172565D02*
X0235033Y0172565D01*
X0235033Y0171366D02*
X0221837Y0171366D01*
X0221344Y0171859D02*
X0222459Y0170744D01*
X0223062Y0169288D01*
X0223062Y0167712D01*
X0222459Y0166256D01*
X0221344Y0165141D01*
X0219888Y0164538D01*
X0218312Y0164538D01*
X0216856Y0165141D01*
X0215741Y0166256D01*
X0215138Y0167712D01*
X0215138Y0169288D01*
X0215741Y0170744D01*
X0216856Y0171859D01*
X0218312Y0172462D01*
X0219888Y0172462D01*
X0221344Y0171859D01*
X0222698Y0170168D02*
X0235033Y0170168D01*
X0235033Y0168969D02*
X0223062Y0168969D01*
X0223062Y0167770D02*
X0235033Y0167770D01*
X0235033Y0166572D02*
X0222590Y0166572D01*
X0221577Y0165373D02*
X0235033Y0165373D01*
X0235033Y0164175D02*
X0194920Y0164175D01*
X0194792Y0163867D02*
X0195365Y0165251D01*
X0195365Y0166749D01*
X0194792Y0168133D01*
X0193733Y0169192D01*
X0192349Y0169765D01*
X0190851Y0169765D01*
X0189467Y0169192D01*
X0188408Y0168133D01*
X0187835Y0166749D01*
X0187835Y0165251D01*
X0188408Y0163867D01*
X0189467Y0162808D01*
X0190851Y0162235D01*
X0192349Y0162235D01*
X0193733Y0162808D01*
X0194792Y0163867D01*
X0193901Y0162976D02*
X0235033Y0162976D01*
X0216623Y0165373D02*
X0211577Y0165373D01*
X0211344Y0165141D02*
X0212459Y0166256D01*
X0213062Y0167712D01*
X0213062Y0169288D01*
X0212459Y0170744D01*
X0211344Y0171859D01*
X0209888Y0172462D01*
X0208312Y0172462D01*
X0206856Y0171859D01*
X0205741Y0170744D01*
X0205138Y0169288D01*
X0205138Y0167712D01*
X0205741Y0166256D01*
X0206856Y0165141D01*
X0208312Y0164538D01*
X0209888Y0164538D01*
X0211344Y0165141D01*
X0212590Y0166572D02*
X0215610Y0166572D01*
X0215138Y0167770D02*
X0213062Y0167770D01*
X0213062Y0168969D02*
X0215138Y0168969D01*
X0215502Y0170168D02*
X0212698Y0170168D01*
X0211837Y0171366D02*
X0216363Y0171366D01*
X0206363Y0171366D02*
X0201837Y0171366D01*
X0201344Y0171859D02*
X0199888Y0172462D01*
X0198312Y0172462D01*
X0196856Y0171859D01*
X0195741Y0170744D01*
X0195138Y0169288D01*
X0195138Y0167712D01*
X0195741Y0166256D01*
X0196856Y0165141D01*
X0198312Y0164538D01*
X0199888Y0164538D01*
X0201344Y0165141D01*
X0202459Y0166256D01*
X0203062Y0167712D01*
X0203062Y0169288D01*
X0202459Y0170744D01*
X0201344Y0171859D01*
X0202698Y0170168D02*
X0205502Y0170168D01*
X0205138Y0168969D02*
X0203062Y0168969D01*
X0203062Y0167770D02*
X0205138Y0167770D01*
X0205610Y0166572D02*
X0202590Y0166572D01*
X0201577Y0165373D02*
X0206623Y0165373D01*
X0196623Y0165373D02*
X0195365Y0165373D01*
X0195365Y0166572D02*
X0195610Y0166572D01*
X0195138Y0167770D02*
X0194942Y0167770D01*
X0195138Y0168969D02*
X0193956Y0168969D01*
X0195502Y0170168D02*
X0189689Y0170168D01*
X0189244Y0168969D02*
X0188291Y0168969D01*
X0188258Y0167770D02*
X0186892Y0167770D01*
X0187835Y0166572D02*
X0185494Y0166572D01*
X0185365Y0165373D02*
X0187835Y0165373D01*
X0188280Y0164175D02*
X0184920Y0164175D01*
X0183901Y0162976D02*
X0189299Y0162976D01*
X0188560Y0155785D02*
X0184640Y0155785D01*
X0185225Y0154587D02*
X0187975Y0154587D01*
X0187835Y0153388D02*
X0185365Y0153388D01*
X0185133Y0152190D02*
X0188067Y0152190D01*
X0188784Y0150991D02*
X0184416Y0150991D01*
X0182489Y0149793D02*
X0190711Y0149793D01*
X0192489Y0149793D02*
X0195347Y0149793D01*
X0195138Y0148594D02*
X0174800Y0148594D01*
X0174800Y0147396D02*
X0195269Y0147396D01*
X0195799Y0146197D02*
X0174800Y0146197D01*
X0174800Y0144999D02*
X0197199Y0144999D01*
X0201001Y0144999D02*
X0207199Y0144999D01*
X0205799Y0146197D02*
X0202401Y0146197D01*
X0202931Y0147396D02*
X0205269Y0147396D01*
X0205138Y0148594D02*
X0203062Y0148594D01*
X0202853Y0149793D02*
X0205347Y0149793D01*
X0205988Y0150991D02*
X0202212Y0150991D01*
X0195988Y0150991D02*
X0194416Y0150991D01*
X0180711Y0149793D02*
X0174800Y0149793D01*
X0174800Y0150991D02*
X0178784Y0150991D01*
X0178067Y0152190D02*
X0174800Y0152190D01*
X0174800Y0153388D02*
X0177835Y0153388D01*
X0177975Y0154587D02*
X0174800Y0154587D01*
X0174800Y0155785D02*
X0178560Y0155785D01*
X0191087Y0171366D02*
X0196363Y0171366D01*
X0211463Y0191741D02*
X0216737Y0191741D01*
X0215657Y0190542D02*
X0212543Y0190542D01*
X0213039Y0189344D02*
X0215161Y0189344D01*
X0215138Y0188145D02*
X0213062Y0188145D01*
X0212745Y0186947D02*
X0215455Y0186947D01*
X0216248Y0185748D02*
X0211952Y0185748D01*
X0212212Y0150991D02*
X0215988Y0150991D01*
X0215347Y0149793D02*
X0212853Y0149793D01*
X0213062Y0148594D02*
X0215138Y0148594D01*
X0215269Y0147396D02*
X0212931Y0147396D01*
X0212401Y0146197D02*
X0215799Y0146197D01*
X0217199Y0144999D02*
X0211001Y0144999D01*
X0211388Y0131815D02*
X0216812Y0131815D01*
X0215688Y0130617D02*
X0212512Y0130617D01*
X0213008Y0129418D02*
X0215192Y0129418D01*
X0215138Y0128220D02*
X0213062Y0128220D01*
X0212776Y0127021D02*
X0215424Y0127021D01*
X0216174Y0125823D02*
X0212026Y0125823D01*
X0212744Y0122227D02*
X0195148Y0122227D01*
X0194454Y0121029D02*
X0211025Y0121029D01*
X0206174Y0125823D02*
X0202026Y0125823D01*
X0202776Y0127021D02*
X0205424Y0127021D01*
X0205138Y0128220D02*
X0203062Y0128220D01*
X0203008Y0129418D02*
X0205192Y0129418D01*
X0205688Y0130617D02*
X0202512Y0130617D01*
X0201388Y0131815D02*
X0206812Y0131815D01*
X0196812Y0131815D02*
X0174800Y0131815D01*
X0174800Y0130617D02*
X0195688Y0130617D01*
X0195192Y0129418D02*
X0174800Y0129418D01*
X0174800Y0128220D02*
X0195138Y0128220D01*
X0195424Y0127021D02*
X0192939Y0127021D01*
X0194602Y0125823D02*
X0196174Y0125823D01*
X0190261Y0127021D02*
X0182939Y0127021D01*
X0184602Y0125823D02*
X0188598Y0125823D01*
X0187990Y0124624D02*
X0185210Y0124624D01*
X0185365Y0123426D02*
X0187835Y0123426D01*
X0188052Y0122227D02*
X0185148Y0122227D01*
X0184454Y0121029D02*
X0188746Y0121029D01*
X0180261Y0127021D02*
X0174800Y0127021D01*
X0174800Y0125823D02*
X0178598Y0125823D01*
X0174800Y0113837D02*
X0235033Y0113837D01*
X0235033Y0112639D02*
X0174800Y0112639D01*
X0168400Y0112639D02*
X0164997Y0112639D01*
X0165365Y0111440D02*
X0168400Y0111440D01*
X0168400Y0110242D02*
X0165362Y0110242D01*
X0164865Y0109043D02*
X0168400Y0109043D01*
X0168400Y0107845D02*
X0163770Y0107845D01*
X0164088Y0113837D02*
X0168400Y0113837D01*
X0168400Y0104249D02*
X0131732Y0104249D01*
X0132752Y0103051D02*
X0168400Y0103051D01*
X0168400Y0101852D02*
X0133249Y0101852D01*
X0133259Y0100654D02*
X0168400Y0100654D01*
X0168400Y0099455D02*
X0132962Y0099455D01*
X0132239Y0098257D02*
X0168400Y0098257D01*
X0174800Y0098257D02*
X0180335Y0098257D01*
X0180335Y0098129D02*
X0180479Y0097402D01*
X0180763Y0096716D01*
X0181175Y0096100D01*
X0181700Y0095575D01*
X0182316Y0095163D01*
X0183002Y0094879D01*
X0183729Y0094735D01*
X0184100Y0094735D01*
X0184471Y0094735D01*
X0185198Y0094879D01*
X0185884Y0095163D01*
X0186500Y0095575D01*
X0187025Y0096100D01*
X0187437Y0096716D01*
X0187721Y0097402D01*
X0187865Y0098129D01*
X0187865Y0098500D01*
X0187865Y0098871D01*
X0187721Y0099598D01*
X0187437Y0100284D01*
X0187025Y0100900D01*
X0186500Y0101425D01*
X0185884Y0101837D01*
X0185198Y0102121D01*
X0184471Y0102265D01*
X0184100Y0102265D01*
X0183729Y0102265D01*
X0183002Y0102121D01*
X0182316Y0101837D01*
X0181700Y0101425D01*
X0181175Y0100900D01*
X0180763Y0100284D01*
X0180479Y0099598D01*
X0180335Y0098871D01*
X0180335Y0098500D01*
X0180335Y0098129D01*
X0180335Y0098500D02*
X0184100Y0098500D01*
X0184100Y0098500D01*
X0184100Y0102265D01*
X0184100Y0098500D01*
X0187865Y0098500D01*
X0184100Y0098500D01*
X0184100Y0098500D01*
X0184100Y0098500D01*
X0180335Y0098500D01*
X0180451Y0099455D02*
X0174800Y0099455D01*
X0174800Y0100654D02*
X0181011Y0100654D01*
X0182354Y0101852D02*
X0174800Y0101852D01*
X0174800Y0103051D02*
X0235033Y0103051D01*
X0235033Y0104249D02*
X0174800Y0104249D01*
X0174800Y0097058D02*
X0180622Y0097058D01*
X0181415Y0095860D02*
X0174800Y0095860D01*
X0174800Y0082676D02*
X0235033Y0082676D01*
X0235033Y0081478D02*
X0174800Y0081478D01*
X0174800Y0080279D02*
X0235033Y0080279D01*
X0235033Y0079081D02*
X0174800Y0079081D01*
X0174800Y0077882D02*
X0235033Y0077882D01*
X0235033Y0076684D02*
X0174800Y0076684D01*
X0174800Y0075485D02*
X0235033Y0075485D01*
X0235033Y0074287D02*
X0174354Y0074287D01*
X0173214Y0073088D02*
X0235033Y0073088D01*
X0235033Y0071890D02*
X0216592Y0071890D01*
X0216456Y0072026D02*
X0214927Y0072659D01*
X0213273Y0072659D01*
X0211744Y0072026D01*
X0210574Y0070856D01*
X0209941Y0069327D01*
X0209941Y0067673D01*
X0210574Y0066144D01*
X0211744Y0064974D01*
X0213273Y0064341D01*
X0214927Y0064341D01*
X0216456Y0064974D01*
X0217626Y0066144D01*
X0218259Y0067673D01*
X0218259Y0069327D01*
X0217626Y0070856D01*
X0216456Y0072026D01*
X0217694Y0070691D02*
X0235033Y0070691D01*
X0235033Y0069493D02*
X0218191Y0069493D01*
X0218259Y0068294D02*
X0235033Y0068294D01*
X0235033Y0067096D02*
X0218020Y0067096D01*
X0217379Y0065897D02*
X0235033Y0065897D01*
X0235033Y0064699D02*
X0215791Y0064699D01*
X0212409Y0064699D02*
X0203268Y0064699D01*
X0202070Y0063500D02*
X0235033Y0063500D01*
X0235033Y0062301D02*
X0200871Y0062301D01*
X0199673Y0061103D02*
X0235033Y0061103D01*
X0235033Y0059904D02*
X0198474Y0059904D01*
X0197276Y0058706D02*
X0235033Y0058706D01*
X0235033Y0057507D02*
X0196077Y0057507D01*
X0194879Y0056309D02*
X0235033Y0056309D01*
X0235033Y0055110D02*
X0193680Y0055110D01*
X0192482Y0053912D02*
X0235033Y0053912D01*
X0235033Y0052713D02*
X0191283Y0052713D01*
X0190085Y0051515D02*
X0235033Y0051515D01*
X0235033Y0050316D02*
X0188886Y0050316D01*
X0187688Y0049118D02*
X0235033Y0049118D01*
X0235033Y0047919D02*
X0186489Y0047919D01*
X0185291Y0046721D02*
X0235033Y0046721D01*
X0235033Y0043125D02*
X0007950Y0043125D01*
X0007950Y0041927D02*
X0235033Y0041927D01*
X0235033Y0040728D02*
X0007950Y0040728D01*
X0007950Y0039530D02*
X0235033Y0039530D01*
X0235033Y0038331D02*
X0007950Y0038331D01*
X0007950Y0044324D02*
X0104271Y0044324D01*
X0102861Y0045522D02*
X0007950Y0045522D01*
X0026200Y0074287D02*
X0165361Y0074287D01*
X0166560Y0075485D02*
X0026200Y0075485D01*
X0026200Y0086272D02*
X0083358Y0086272D01*
X0082160Y0087470D02*
X0026200Y0087470D01*
X0026200Y0088669D02*
X0080961Y0088669D01*
X0079763Y0089867D02*
X0026200Y0089867D01*
X0026200Y0091066D02*
X0078564Y0091066D01*
X0077366Y0092264D02*
X0026200Y0092264D01*
X0026200Y0093463D02*
X0076167Y0093463D01*
X0074969Y0094661D02*
X0026200Y0094661D01*
X0026200Y0095860D02*
X0073770Y0095860D01*
X0072572Y0097058D02*
X0026200Y0097058D01*
X0026200Y0098257D02*
X0071373Y0098257D01*
X0070175Y0099455D02*
X0026200Y0099455D01*
X0026200Y0100654D02*
X0069500Y0100654D01*
X0069500Y0101852D02*
X0026200Y0101852D01*
X0026200Y0103051D02*
X0069500Y0103051D01*
X0069500Y0104249D02*
X0026200Y0104249D01*
X0026200Y0105448D02*
X0069500Y0105448D01*
X0069500Y0106646D02*
X0026200Y0106646D01*
X0026270Y0107845D02*
X0069500Y0107845D01*
X0069500Y0109043D02*
X0027365Y0109043D01*
X0027862Y0110242D02*
X0069500Y0110242D01*
X0069500Y0111440D02*
X0027865Y0111440D01*
X0027497Y0112639D02*
X0069500Y0112639D01*
X0069500Y0113837D02*
X0026588Y0113837D01*
X0030587Y0118632D02*
X0007950Y0118632D01*
X0007950Y0119830D02*
X0030083Y0119830D01*
X0029941Y0121029D02*
X0007950Y0121029D01*
X0007950Y0122227D02*
X0030107Y0122227D01*
X0030644Y0123426D02*
X0007950Y0123426D01*
X0007950Y0124624D02*
X0031981Y0124624D01*
X0036789Y0137808D02*
X0041418Y0137808D01*
X0041391Y0137828D02*
X0041920Y0137443D01*
X0042503Y0137146D01*
X0043126Y0136943D01*
X0043773Y0136841D01*
X0044100Y0136841D01*
X0044100Y0141000D01*
X0044100Y0141000D01*
X0044100Y0141000D01*
X0039941Y0141000D01*
X0039941Y0141327D01*
X0040043Y0141974D01*
X0040246Y0142597D01*
X0040543Y0143180D01*
X0040928Y0143709D01*
X0041391Y0144172D01*
X0041920Y0144557D01*
X0042503Y0144854D01*
X0043126Y0145057D01*
X0043773Y0145159D01*
X0044100Y0145159D01*
X0044100Y0141000D01*
X0039941Y0141000D01*
X0039941Y0140673D01*
X0040043Y0140026D01*
X0040246Y0139403D01*
X0040543Y0138820D01*
X0040928Y0138291D01*
X0041391Y0137828D01*
X0040448Y0139006D02*
X0037776Y0139006D01*
X0038259Y0140205D02*
X0040015Y0140205D01*
X0039953Y0141403D02*
X0038259Y0141403D01*
X0037938Y0142602D02*
X0040248Y0142602D01*
X0041018Y0143800D02*
X0037182Y0143800D01*
X0035314Y0144999D02*
X0042948Y0144999D01*
X0044100Y0144999D02*
X0044100Y0144999D01*
X0044100Y0143800D02*
X0044100Y0143800D01*
X0044100Y0142602D02*
X0044100Y0142602D01*
X0044100Y0141403D02*
X0044100Y0141403D01*
X0044100Y0140205D02*
X0044100Y0140205D01*
X0044100Y0139006D02*
X0044100Y0139006D01*
X0044100Y0137808D02*
X0044100Y0137808D01*
X0042088Y0147396D02*
X0036112Y0147396D01*
X0037493Y0148594D02*
X0040707Y0148594D01*
X0040162Y0149793D02*
X0038038Y0149793D01*
X0038200Y0150991D02*
X0040000Y0150991D01*
X0040155Y0152190D02*
X0038045Y0152190D01*
X0037510Y0153388D02*
X0040690Y0153388D01*
X0042046Y0154587D02*
X0036154Y0154587D01*
X0007950Y0135411D02*
X0081291Y0135411D01*
X0080092Y0134212D02*
X0007950Y0134212D01*
X0007950Y0133014D02*
X0078894Y0133014D01*
X0077695Y0131815D02*
X0007950Y0131815D01*
X0007950Y0130617D02*
X0076497Y0130617D01*
X0073700Y0115036D02*
X0094594Y0115036D01*
X0089112Y0113837D02*
X0084088Y0113837D01*
X0083733Y0114192D02*
X0082349Y0114765D01*
X0080851Y0114765D01*
X0079467Y0114192D01*
X0078408Y0113133D01*
X0077835Y0111749D01*
X0077835Y0110251D01*
X0078408Y0108867D01*
X0079467Y0107808D01*
X0080851Y0107235D01*
X0082349Y0107235D01*
X0083733Y0107808D01*
X0084792Y0108867D01*
X0085365Y0110251D01*
X0085365Y0111749D01*
X0084792Y0113133D01*
X0083733Y0114192D01*
X0084997Y0112639D02*
X0088203Y0112639D01*
X0087835Y0111440D02*
X0085365Y0111440D01*
X0085362Y0110242D02*
X0087838Y0110242D01*
X0088335Y0109043D02*
X0084865Y0109043D01*
X0083770Y0107845D02*
X0089430Y0107845D01*
X0079430Y0107845D02*
X0073700Y0107845D01*
X0073700Y0109043D02*
X0078335Y0109043D01*
X0077838Y0110242D02*
X0073700Y0110242D01*
X0073700Y0111440D02*
X0077835Y0111440D01*
X0078203Y0112639D02*
X0073700Y0112639D01*
X0073700Y0113837D02*
X0079112Y0113837D01*
X0094070Y0188145D02*
X0101630Y0188145D01*
X0100710Y0189344D02*
X0094990Y0189344D01*
X0095365Y0190542D02*
X0100335Y0190542D01*
X0100335Y0191741D02*
X0095365Y0191741D01*
X0094872Y0192939D02*
X0100828Y0192939D01*
X0101913Y0194138D02*
X0093787Y0194138D01*
X0112650Y0244475D02*
X0123050Y0244475D01*
X0124248Y0245674D02*
X0111452Y0245674D01*
X0110253Y0246872D02*
X0116338Y0246872D01*
X0115322Y0248071D02*
X0109055Y0248071D01*
X0116989Y0254063D02*
X0032690Y0254063D01*
X0036831Y0273239D02*
X0097369Y0273239D01*
X0095252Y0274438D02*
X0038948Y0274438D01*
X0040068Y0275637D02*
X0094132Y0275637D01*
X0093636Y0276835D02*
X0040564Y0276835D01*
X0040885Y0278034D02*
X0093315Y0278034D01*
X0093315Y0279232D02*
X0040885Y0279232D01*
X0040661Y0280431D02*
X0093539Y0280431D01*
X0094035Y0281629D02*
X0040165Y0281629D01*
X0039182Y0282828D02*
X0095017Y0282828D01*
X0096803Y0284026D02*
X0037397Y0284026D01*
X0037238Y0298408D02*
X0096962Y0298408D01*
X0095083Y0299607D02*
X0039117Y0299607D01*
X0040138Y0300805D02*
X0094062Y0300805D01*
X0093566Y0302004D02*
X0040634Y0302004D01*
X0040885Y0303202D02*
X0093315Y0303202D01*
X0093315Y0304401D02*
X0040885Y0304401D01*
X0040591Y0305599D02*
X0093609Y0305599D01*
X0094105Y0306798D02*
X0040095Y0306798D01*
X0039014Y0307996D02*
X0095186Y0307996D01*
X0101295Y0284026D02*
X0130900Y0284026D01*
X0130900Y0282828D02*
X0103080Y0282828D01*
X0104063Y0281629D02*
X0130900Y0281629D01*
X0130900Y0280431D02*
X0104559Y0280431D01*
X0104783Y0279232D02*
X0130900Y0279232D01*
X0130900Y0278034D02*
X0104783Y0278034D01*
X0104462Y0276835D02*
X0130900Y0276835D01*
X0130900Y0275637D02*
X0103965Y0275637D01*
X0102846Y0274438D02*
X0130900Y0274438D01*
X0137300Y0274438D02*
X0140354Y0274438D01*
X0140903Y0273889D02*
X0143011Y0273016D01*
X0145292Y0273016D01*
X0147399Y0273889D01*
X0149012Y0275502D01*
X0149885Y0277609D01*
X0149885Y0279891D01*
X0149012Y0281998D01*
X0147399Y0283611D01*
X0145292Y0284484D01*
X0143011Y0284484D01*
X0140903Y0283611D01*
X0139290Y0281998D01*
X0138417Y0279891D01*
X0138417Y0277609D01*
X0139290Y0275502D01*
X0140903Y0273889D01*
X0142471Y0273239D02*
X0137300Y0273239D01*
X0137584Y0272041D02*
X0235033Y0272041D01*
X0235033Y0273239D02*
X0209729Y0273239D01*
X0209189Y0273016D02*
X0211297Y0273889D01*
X0212910Y0275502D01*
X0213783Y0277609D01*
X0213783Y0279891D01*
X0212910Y0281998D01*
X0211297Y0283611D01*
X0209189Y0284484D01*
X0206908Y0284484D01*
X0204801Y0283611D01*
X0203188Y0281998D01*
X0202315Y0279891D01*
X0202315Y0277609D01*
X0203188Y0275502D01*
X0204801Y0273889D01*
X0206908Y0273016D01*
X0209189Y0273016D01*
X0211846Y0274438D02*
X0235033Y0274438D01*
X0235033Y0275637D02*
X0212965Y0275637D01*
X0213462Y0276835D02*
X0235033Y0276835D01*
X0235033Y0278034D02*
X0213783Y0278034D01*
X0213783Y0279232D02*
X0235033Y0279232D01*
X0235033Y0280431D02*
X0213559Y0280431D01*
X0213063Y0281629D02*
X0235033Y0281629D01*
X0235033Y0282828D02*
X0212080Y0282828D01*
X0210295Y0284026D02*
X0235033Y0284026D01*
X0235033Y0285225D02*
X0137300Y0285225D01*
X0137300Y0286423D02*
X0235033Y0286423D01*
X0235033Y0287622D02*
X0137300Y0287622D01*
X0137300Y0288820D02*
X0235033Y0288820D01*
X0235033Y0290019D02*
X0137300Y0290019D01*
X0137300Y0291217D02*
X0235033Y0291217D01*
X0235033Y0292416D02*
X0137300Y0292416D01*
X0137300Y0293614D02*
X0235033Y0293614D01*
X0235033Y0294813D02*
X0137300Y0294813D01*
X0137300Y0296011D02*
X0235033Y0296011D01*
X0235033Y0297210D02*
X0137300Y0297210D01*
X0137300Y0298408D02*
X0142064Y0298408D01*
X0143011Y0298016D02*
X0145292Y0298016D01*
X0147399Y0298889D01*
X0149012Y0300502D01*
X0149885Y0302609D01*
X0149885Y0304891D01*
X0149012Y0306998D01*
X0147399Y0308611D01*
X0145292Y0309484D01*
X0143011Y0309484D01*
X0140903Y0308611D01*
X0139290Y0306998D01*
X0138417Y0304891D01*
X0138417Y0302609D01*
X0139290Y0300502D01*
X0140903Y0298889D01*
X0143011Y0298016D01*
X0140186Y0299607D02*
X0137300Y0299607D01*
X0137300Y0300805D02*
X0139165Y0300805D01*
X0138668Y0302004D02*
X0137300Y0302004D01*
X0137300Y0303202D02*
X0138417Y0303202D01*
X0138417Y0304401D02*
X0137300Y0304401D01*
X0137300Y0305599D02*
X0138711Y0305599D01*
X0139207Y0306798D02*
X0137300Y0306798D01*
X0137300Y0307996D02*
X0140289Y0307996D01*
X0142313Y0309195D02*
X0136949Y0309195D01*
X0135942Y0310393D02*
X0235033Y0310393D01*
X0235033Y0309195D02*
X0209887Y0309195D01*
X0209189Y0309484D02*
X0206908Y0309484D01*
X0204801Y0308611D01*
X0203188Y0306998D01*
X0202315Y0304891D01*
X0202315Y0302609D01*
X0203188Y0300502D01*
X0204801Y0298889D01*
X0206908Y0298016D01*
X0209189Y0298016D01*
X0211297Y0298889D01*
X0212910Y0300502D01*
X0213783Y0302609D01*
X0213783Y0304891D01*
X0212910Y0306998D01*
X0211297Y0308611D01*
X0209189Y0309484D01*
X0211911Y0307996D02*
X0235033Y0307996D01*
X0235033Y0306798D02*
X0212993Y0306798D01*
X0213489Y0305599D02*
X0235033Y0305599D01*
X0235033Y0304401D02*
X0213783Y0304401D01*
X0213783Y0303202D02*
X0235033Y0303202D01*
X0235033Y0302004D02*
X0213532Y0302004D01*
X0213035Y0300805D02*
X0235033Y0300805D01*
X0235033Y0299607D02*
X0212014Y0299607D01*
X0210136Y0298408D02*
X0235033Y0298408D01*
X0235033Y0311592D02*
X0134744Y0311592D01*
X0133545Y0312790D02*
X0235033Y0312790D01*
X0235033Y0313989D02*
X0132347Y0313989D01*
X0131148Y0315187D02*
X0235033Y0315187D01*
X0235033Y0316386D02*
X0129950Y0316386D01*
X0129736Y0317584D02*
X0235033Y0317584D01*
X0235033Y0318783D02*
X0130121Y0318783D01*
X0130121Y0319981D02*
X0235033Y0319981D01*
X0214155Y0321180D02*
X0130121Y0321180D01*
X0130900Y0304401D02*
X0125005Y0304401D01*
X0126978Y0303202D02*
X0130900Y0303202D01*
X0130900Y0302004D02*
X0128185Y0302004D01*
X0129005Y0300805D02*
X0130900Y0300805D01*
X0130900Y0299607D02*
X0129573Y0299607D01*
X0129934Y0298408D02*
X0130900Y0298408D01*
X0130900Y0297210D02*
X0130113Y0297210D01*
X0137300Y0284026D02*
X0141905Y0284026D01*
X0140120Y0282828D02*
X0137300Y0282828D01*
X0137300Y0281629D02*
X0139137Y0281629D01*
X0138641Y0280431D02*
X0137300Y0280431D01*
X0137300Y0279232D02*
X0138417Y0279232D01*
X0138417Y0278034D02*
X0137300Y0278034D01*
X0137300Y0276835D02*
X0138738Y0276835D01*
X0139235Y0275637D02*
X0137300Y0275637D01*
X0138783Y0270842D02*
X0235033Y0270842D01*
X0235033Y0269644D02*
X0139982Y0269644D01*
X0145831Y0273239D02*
X0206369Y0273239D01*
X0204252Y0274438D02*
X0147948Y0274438D01*
X0149068Y0275637D02*
X0203132Y0275637D01*
X0202636Y0276835D02*
X0149564Y0276835D01*
X0149885Y0278034D02*
X0202315Y0278034D01*
X0202315Y0279232D02*
X0149885Y0279232D01*
X0149661Y0280431D02*
X0202539Y0280431D01*
X0203035Y0281629D02*
X0149165Y0281629D01*
X0148182Y0282828D02*
X0204017Y0282828D01*
X0205803Y0284026D02*
X0146397Y0284026D01*
X0146238Y0298408D02*
X0205962Y0298408D01*
X0204083Y0299607D02*
X0148117Y0299607D01*
X0149138Y0300805D02*
X0203062Y0300805D01*
X0202566Y0302004D02*
X0149634Y0302004D01*
X0149885Y0303202D02*
X0202315Y0303202D01*
X0202315Y0304401D02*
X0149885Y0304401D01*
X0149591Y0305599D02*
X0202609Y0305599D01*
X0203105Y0306798D02*
X0149095Y0306798D01*
X0148014Y0307996D02*
X0204186Y0307996D01*
X0206211Y0309195D02*
X0145989Y0309195D01*
X0119189Y0254063D02*
X0119011Y0254063D01*
X0119011Y0252865D02*
X0119189Y0252865D01*
X0119189Y0251666D02*
X0119011Y0251666D01*
X0119011Y0250468D02*
X0119189Y0250468D01*
X0119189Y0250161D02*
X0123456Y0250161D01*
X0123456Y0249907D01*
X0123349Y0249230D01*
X0123137Y0248578D01*
X0122825Y0247967D01*
X0122422Y0247412D01*
X0121938Y0246927D01*
X0121383Y0246524D01*
X0120772Y0246213D01*
X0120120Y0246001D01*
X0119443Y0245894D01*
X0119189Y0245894D01*
X0119189Y0250161D01*
X0119189Y0249269D02*
X0119011Y0249269D01*
X0119011Y0248071D02*
X0119189Y0248071D01*
X0119189Y0246872D02*
X0119011Y0246872D01*
X0121862Y0246872D02*
X0125447Y0246872D01*
X0126645Y0248071D02*
X0122878Y0248071D01*
X0123355Y0249269D02*
X0127441Y0249269D01*
X0127913Y0250468D02*
X0123456Y0250468D01*
X0123220Y0251666D02*
X0128884Y0251666D01*
X0171427Y0226498D02*
X0196773Y0226498D01*
X0195770Y0225299D02*
X0172430Y0225299D01*
X0172865Y0224101D02*
X0195335Y0224101D01*
X0195335Y0222902D02*
X0172865Y0222902D01*
X0172431Y0221703D02*
X0195769Y0221703D01*
X0196770Y0220505D02*
X0171430Y0220505D01*
X0160510Y0124624D02*
X0153564Y0124624D01*
X0154973Y0123426D02*
X0158701Y0123426D01*
X0158033Y0122227D02*
X0155530Y0122227D01*
X0155700Y0121029D02*
X0157835Y0121029D01*
X0158009Y0119830D02*
X0155553Y0119830D01*
X0155030Y0118632D02*
X0158643Y0118632D01*
X0184100Y0101852D02*
X0184100Y0101852D01*
X0184100Y0100654D02*
X0184100Y0100654D01*
X0184100Y0099455D02*
X0184100Y0099455D01*
X0184100Y0098500D02*
X0184100Y0094735D01*
X0184100Y0098500D01*
X0184100Y0098500D01*
X0184100Y0098257D02*
X0184100Y0098257D01*
X0184100Y0097058D02*
X0184100Y0097058D01*
X0184100Y0095860D02*
X0184100Y0095860D01*
X0186785Y0095860D02*
X0191415Y0095860D01*
X0190908Y0096367D02*
X0191967Y0095308D01*
X0193351Y0094735D01*
X0194849Y0094735D01*
X0196233Y0095308D01*
X0197292Y0096367D01*
X0197865Y0097751D01*
X0197865Y0099249D01*
X0197292Y0100633D01*
X0196233Y0101692D01*
X0194849Y0102265D01*
X0193351Y0102265D01*
X0191967Y0101692D01*
X0190908Y0100633D01*
X0190335Y0099249D01*
X0190335Y0097751D01*
X0190908Y0096367D01*
X0190622Y0097058D02*
X0187578Y0097058D01*
X0187865Y0098257D02*
X0190335Y0098257D01*
X0190420Y0099455D02*
X0187749Y0099455D01*
X0187189Y0100654D02*
X0190929Y0100654D01*
X0192354Y0101852D02*
X0185846Y0101852D01*
X0195846Y0101852D02*
X0202354Y0101852D01*
X0204100Y0101852D02*
X0204100Y0101852D01*
X0204100Y0100654D02*
X0204100Y0100654D01*
X0204100Y0099455D02*
X0204100Y0099455D01*
X0204100Y0098500D02*
X0204100Y0094735D01*
X0204100Y0098500D01*
X0204100Y0098500D01*
X0204100Y0098257D02*
X0204100Y0098257D01*
X0204100Y0097058D02*
X0204100Y0097058D01*
X0204100Y0095860D02*
X0204100Y0095860D01*
X0201415Y0095860D02*
X0196785Y0095860D01*
X0197578Y0097058D02*
X0200622Y0097058D01*
X0200335Y0098257D02*
X0197865Y0098257D01*
X0197780Y0099455D02*
X0200451Y0099455D01*
X0201011Y0100654D02*
X0197271Y0100654D01*
X0194849Y0072265D02*
X0193351Y0072265D01*
X0191967Y0071692D01*
X0190908Y0070633D01*
X0190335Y0069249D01*
X0190335Y0067751D01*
X0190908Y0066367D01*
X0191967Y0065308D01*
X0193351Y0064735D01*
X0194849Y0064735D01*
X0196233Y0065308D01*
X0197292Y0066367D01*
X0197865Y0067751D01*
X0197865Y0069249D01*
X0197292Y0070633D01*
X0196233Y0071692D01*
X0194849Y0072265D01*
X0195756Y0071890D02*
X0202444Y0071890D01*
X0200966Y0070691D02*
X0197234Y0070691D01*
X0197764Y0069493D02*
X0200436Y0069493D01*
X0200335Y0068294D02*
X0197865Y0068294D01*
X0197594Y0067096D02*
X0199726Y0067096D01*
X0198527Y0065897D02*
X0196822Y0065897D01*
X0191378Y0065897D02*
X0186822Y0065897D01*
X0187594Y0067096D02*
X0190606Y0067096D01*
X0190335Y0068294D02*
X0187865Y0068294D01*
X0187764Y0069493D02*
X0190436Y0069493D01*
X0190966Y0070691D02*
X0187234Y0070691D01*
X0185756Y0071890D02*
X0192444Y0071890D01*
X0182444Y0071890D02*
X0172015Y0071890D01*
X0170817Y0070691D02*
X0180966Y0070691D01*
X0180436Y0069493D02*
X0169618Y0069493D01*
X0168420Y0068294D02*
X0180335Y0068294D01*
X0159393Y0077882D02*
X0153807Y0077882D01*
X0153733Y0077808D02*
X0154792Y0078867D01*
X0155365Y0080251D01*
X0155365Y0081749D01*
X0154792Y0083133D01*
X0153733Y0084192D01*
X0152349Y0084765D01*
X0150851Y0084765D01*
X0149467Y0084192D01*
X0148408Y0083133D01*
X0147835Y0081749D01*
X0147835Y0080251D01*
X0148408Y0078867D01*
X0149467Y0077808D01*
X0150851Y0077235D01*
X0152349Y0077235D01*
X0153733Y0077808D01*
X0154881Y0079081D02*
X0158319Y0079081D01*
X0157835Y0080279D02*
X0155365Y0080279D01*
X0155365Y0081478D02*
X0157835Y0081478D01*
X0158219Y0082676D02*
X0154981Y0082676D01*
X0154050Y0083875D02*
X0159150Y0083875D01*
X0149150Y0083875D02*
X0141550Y0083875D01*
X0142481Y0082676D02*
X0148219Y0082676D01*
X0147835Y0081478D02*
X0142865Y0081478D01*
X0142865Y0080279D02*
X0147835Y0080279D01*
X0148319Y0079081D02*
X0142381Y0079081D01*
X0141307Y0077882D02*
X0149393Y0077882D01*
X0205756Y0071890D02*
X0211608Y0071890D01*
X0210506Y0070691D02*
X0207234Y0070691D01*
X0207764Y0069493D02*
X0210009Y0069493D01*
X0209941Y0068294D02*
X0207865Y0068294D01*
X0207594Y0067096D02*
X0210180Y0067096D01*
X0210821Y0065897D02*
X0206822Y0065897D01*
D28*
X0201600Y0040250D03*
X0233350Y0040250D03*
X0233350Y0086000D03*
X0225100Y0086000D03*
X0225100Y0131000D03*
X0233350Y0131000D03*
X0203850Y0133500D03*
X0181100Y0131000D03*
X0166100Y0141000D03*
X0166100Y0116000D03*
X0165100Y0088500D03*
X0177600Y0088500D03*
X0161600Y0053500D03*
X0161600Y0040250D03*
X0125100Y0088500D03*
X0126100Y0131000D03*
X0138350Y0170000D03*
X0145350Y0188250D03*
X0153350Y0170000D03*
X0165850Y0170000D03*
X0177600Y0176000D03*
X0178350Y0190000D03*
X0165850Y0190000D03*
X0153350Y0221000D03*
X0178350Y0221000D03*
X0202600Y0176000D03*
X0225100Y0176000D03*
X0233350Y0176000D03*
X0233350Y0221000D03*
X0225100Y0221000D03*
X0212600Y0221000D03*
X0233350Y0266000D03*
X0233350Y0306000D03*
X0190850Y0306000D03*
X0190850Y0344250D03*
X0153350Y0344250D03*
X0153350Y0306000D03*
X0153350Y0266000D03*
X0125850Y0266000D03*
X0125850Y0235500D03*
X0097350Y0186000D03*
X0107350Y0176000D03*
X0122350Y0176000D03*
X0086100Y0131000D03*
X0071100Y0131000D03*
X0071100Y0161000D03*
X0071100Y0176000D03*
X0059100Y0186000D03*
X0059100Y0196000D03*
X0049100Y0196000D03*
X0049100Y0186000D03*
X0059100Y0228500D03*
X0039100Y0238500D03*
X0048350Y0266000D03*
X0048350Y0306000D03*
X0048350Y0344250D03*
X0009850Y0306000D03*
X0009850Y0266000D03*
X0009850Y0221000D03*
X0018350Y0221000D03*
X0018350Y0176000D03*
X0009850Y0176000D03*
X0009850Y0131000D03*
X0018350Y0131000D03*
X0018350Y0086000D03*
X0009850Y0086000D03*
X0028350Y0086000D03*
X0041600Y0053500D03*
X0041600Y0040250D03*
X0009850Y0040250D03*
X0075100Y0088500D03*
X0092600Y0088500D03*
X0081600Y0053500D03*
X0081600Y0040250D03*
X0121600Y0040250D03*
X0090850Y0266000D03*
X0090850Y0306000D03*
X0090850Y0344250D03*
X0125850Y0344250D03*
X0125850Y0308500D03*
X0190850Y0266000D03*
D29*
X0144100Y0208500D02*
X0161600Y0191000D01*
X0161600Y0151000D01*
X0151600Y0151000D02*
X0145350Y0157250D01*
X0145350Y0174750D01*
X0151600Y0181000D01*
X0151600Y0191000D01*
X0144100Y0208500D02*
X0140100Y0208500D01*
X0129100Y0191000D02*
X0119100Y0181000D01*
X0084100Y0181000D01*
X0054100Y0151000D01*
X0071600Y0122750D02*
X0071600Y0101000D01*
X0091600Y0081000D01*
X0104100Y0081000D02*
X0104100Y0091000D01*
X0097850Y0097250D01*
X0097850Y0114750D01*
X0091600Y0121000D01*
X0071600Y0122750D02*
X0091600Y0142750D01*
X0091600Y0151000D01*
X0064100Y0191000D02*
X0044100Y0191000D01*
X0024100Y0111000D02*
X0024100Y0063500D01*
X0039100Y0048500D01*
X0106600Y0048500D01*
X0136600Y0048500D02*
X0184100Y0048500D01*
X0204100Y0068500D01*
X0181600Y0166000D02*
X0199100Y0181000D01*
X0199100Y0188500D01*
M02*
