G75*
%MOIN*%
%OFA0B0*%
%FSLAX25Y25*%
%IPPOS*%
%LPD*%
%AMOC8*
5,1,8,0,0,1.08239X$1,22.5*
%
%ADD10C,0.05118*%
%ADD11R,0.04331X0.04331*%
%ADD12C,0.04331*%
%ADD13R,0.07087X0.07087*%
%ADD14C,0.07087*%
%ADD15C,0.08268*%
%ADD16C,0.13843*%
%ADD17C,0.06299*%
%ADD18C,0.05512*%
%ADD19R,0.05512X0.05512*%
%ADD20R,0.04724X0.04724*%
%ADD21C,0.04724*%
%ADD22C,0.05000*%
%ADD23R,0.09449X0.09449*%
%ADD24C,0.09449*%
%ADD25C,0.00000*%
D10*
X0034100Y0121000D03*
X0034100Y0141000D03*
X0044100Y0141000D03*
X0064100Y0141000D03*
X0079850Y0141000D03*
X0079850Y0121000D03*
X0114100Y0101000D03*
X0114100Y0081000D03*
X0129100Y0081000D03*
X0129100Y0101000D03*
X0129100Y0171000D03*
X0129100Y0191000D03*
X0114100Y0191000D03*
X0114100Y0171000D03*
X0131600Y0228500D03*
X0131600Y0248500D03*
X0054100Y0221000D03*
X0054100Y0201000D03*
X0214100Y0088500D03*
X0214100Y0068500D03*
D11*
X0149095Y0228570D03*
X0084355Y0228430D03*
D12*
X0084352Y0220570D03*
X0099100Y0228500D03*
X0109100Y0228500D03*
X0109100Y0258500D03*
X0099100Y0258500D03*
X0079100Y0243500D03*
X0064100Y0221000D03*
X0049100Y0243500D03*
X0044100Y0221000D03*
X0034100Y0221000D03*
X0034100Y0191000D03*
X0044100Y0191000D03*
X0064100Y0191000D03*
X0091600Y0191000D03*
X0104100Y0191000D03*
X0104100Y0161000D03*
X0091600Y0161000D03*
X0091600Y0111000D03*
X0081600Y0111000D03*
X0104100Y0111000D03*
X0104100Y0081000D03*
X0091600Y0081000D03*
X0081600Y0081000D03*
X0139100Y0081000D03*
X0151600Y0081000D03*
X0161600Y0081000D03*
X0184100Y0068500D03*
X0194100Y0068500D03*
X0204100Y0068500D03*
X0204100Y0098500D03*
X0194100Y0098500D03*
X0184100Y0098500D03*
X0181600Y0123500D03*
X0191600Y0123500D03*
X0191600Y0153500D03*
X0181600Y0153500D03*
X0181600Y0166000D03*
X0191600Y0166000D03*
X0191600Y0196000D03*
X0181600Y0196000D03*
X0169100Y0223500D03*
X0149098Y0236430D03*
X0151600Y0191000D03*
X0139100Y0191000D03*
X0139100Y0161000D03*
X0151600Y0161000D03*
X0161600Y0151000D03*
X0161600Y0121000D03*
X0161600Y0111000D03*
X0151600Y0111000D03*
X0139100Y0111000D03*
X0199100Y0223500D03*
X0024100Y0181000D03*
X0024100Y0151000D03*
X0024100Y0141000D03*
X0024100Y0111000D03*
D13*
X0069100Y0233563D03*
X0214100Y0233563D03*
D14*
X0194100Y0233563D03*
X0174100Y0233563D03*
X0049100Y0233563D03*
X0029100Y0233563D03*
D15*
X0035151Y0278750D03*
X0035151Y0303750D03*
X0035151Y0328750D03*
X0099049Y0328750D03*
X0099049Y0303750D03*
X0099049Y0278750D03*
X0144151Y0278750D03*
X0144151Y0303750D03*
X0144151Y0328750D03*
X0208049Y0328750D03*
X0208049Y0303750D03*
X0208049Y0278750D03*
D16*
X0121600Y0296588D03*
X0121600Y0320210D03*
D17*
X0116600Y0058500D03*
X0116600Y0048500D03*
X0106600Y0048500D03*
X0106600Y0058500D03*
X0126600Y0058500D03*
X0126600Y0048500D03*
X0136600Y0048500D03*
X0136600Y0058500D03*
D18*
X0089100Y0236750D03*
X0119100Y0250250D03*
D19*
X0119100Y0228500D03*
X0089100Y0258500D03*
D20*
X0029100Y0245750D03*
X0194100Y0208500D03*
D21*
X0184100Y0208500D03*
X0174100Y0208500D03*
X0199100Y0188500D03*
X0209100Y0188500D03*
X0219100Y0188500D03*
X0219100Y0168500D03*
X0209100Y0168500D03*
X0199100Y0168500D03*
X0199100Y0148500D03*
X0209100Y0148500D03*
X0219100Y0148500D03*
X0219100Y0128500D03*
X0214100Y0118500D03*
X0214100Y0108500D03*
X0214100Y0098500D03*
X0209100Y0128500D03*
X0199100Y0128500D03*
X0029100Y0255750D03*
D22*
X0034100Y0181000D03*
X0044100Y0181000D03*
X0054100Y0181000D03*
X0064100Y0181000D03*
X0064100Y0151000D03*
X0054100Y0151000D03*
X0044100Y0151000D03*
X0034100Y0151000D03*
X0091600Y0151000D03*
X0101600Y0151000D03*
X0111600Y0151000D03*
X0121600Y0151000D03*
X0131600Y0151000D03*
X0141600Y0151000D03*
X0151600Y0151000D03*
X0151600Y0121000D03*
X0141600Y0121000D03*
X0131600Y0121000D03*
X0121600Y0121000D03*
X0111600Y0121000D03*
X0101600Y0121000D03*
X0091600Y0121000D03*
D23*
X0140100Y0208500D03*
D24*
X0121600Y0208500D03*
X0103100Y0208500D03*
D25*
X0005350Y0035000D02*
X0237633Y0035000D01*
X0237633Y0323031D01*
X0215980Y0323031D01*
X0215980Y0350591D01*
X0027004Y0350591D01*
X0027004Y0323031D01*
X0005350Y0323031D01*
X0005350Y0035000D01*
M02*
