%
M48
M72
T01C0.01575
T02C0.01969
T03C0.02362
T04C0.02756
T05C0.03150
T06C0.03200
T07C0.04000
T08C0.04331
T09C0.05512
T10C0.08661
T11C0.09843
%
T01
X30000Y114100
X30000Y134100
X30000Y144100
X30000Y154100
X30000Y184100
X30000Y204100
X30000Y224100
X30000Y234100
X30000Y244100
X60000Y244100
X60000Y234100
X60000Y224100
X60000Y204100
X80000Y194100
X80000Y184100
X90000Y184100
X90000Y154100
X80000Y154100
X60000Y144100
X60000Y134100
X60000Y114100
X120000Y149160
X120000Y157040
X132500Y169100
X132500Y196600
X132500Y206600
X162500Y206600
X162500Y196600
X182500Y179100
X212500Y179100
X212500Y169100
X212500Y139100
X202500Y129100
X172500Y129100
X132500Y139100
X80000Y224100
X132500Y256600
X132500Y266600
X162500Y266600
X162500Y256600
X182500Y271600
X212500Y271600
X197500Y36600
X180000Y36600
X150000Y36600
X227500Y36600
T02
X9500Y8850
X9500Y37100
X9500Y79600
X9500Y122100
X18750Y122100
X18750Y164600
X9500Y164600
X9500Y207100
X18750Y207100
X40000Y229100
X40000Y239100
X38750Y254600
X18750Y249600
X9500Y249600
X9500Y292100
X19500Y292100
X9500Y334600
X48000Y334600
X48000Y294600
X70070Y244105
X77930Y244102
X84500Y237100
X95500Y237100
X101070Y244105
X105000Y251600
X108930Y244102
X115500Y234600
X125500Y212100
X130500Y182100
X115500Y172100
X105000Y172350
X94995Y194170
X94998Y202030
X98000Y217100
X84500Y217100
X64500Y179100
X46250Y164600
X46250Y122100
X49500Y79600
X47000Y37100
X47000Y8850
X84500Y8850
X84500Y37100
X84500Y79600
X84500Y122100
X80002Y135170
X80005Y143030
X103000Y142100
X115750Y142100
X115250Y122350
X104750Y122350
X126250Y101850
X126250Y91350
X149998Y54530
X149995Y46670
X159500Y37100
X172500Y46600
X172500Y56600
X172500Y66600
X171250Y76850
X171250Y99350
X171250Y116850
X162500Y139100
X162500Y149100
X160500Y162100
X162500Y169100
X152500Y169100
X145500Y162100
X152500Y149100
X142500Y139100
X160500Y182100
X172500Y169100
X182500Y169100
X192500Y169100
X192500Y149100
X182500Y149100
X183000Y139600
X172500Y149100
X180500Y212100
X180500Y242100
X151430Y281595
X143570Y281598
X153000Y294600
X148000Y257100
X148000Y234600
X148000Y212100
X119930Y265095
X115000Y274100
X112070Y265098
X105000Y261600
X125000Y274100
X123000Y294600
X125500Y337100
X125500Y375350
X153000Y375350
X153000Y334600
X190500Y334600
X190500Y294600
X220500Y252100
X233000Y252100
X233000Y209600
X220500Y209600
X220500Y167100
X233000Y167100
X233000Y124600
X220500Y124600
X233000Y82100
X208000Y52100
X200000Y21600
X197000Y8850
X190000Y21600
X180000Y21600
X159500Y8850
X132500Y21600
X122000Y8850
X112500Y21600
X122000Y37100
X41250Y212100
X90500Y294600
X90500Y334600
X90500Y375350
X48000Y375350
X190500Y375350
X233000Y337100
X233000Y294600
X233000Y39600
X233000Y8850
T03
X187500Y46600
X187500Y66600
X192500Y139100
X202500Y149100
X202500Y169100
X172500Y179100
X152500Y179100
X142500Y169100
X142500Y149100
X172500Y139100
X122500Y226600
X122500Y246600
X70000Y224100
X70000Y204100
X60000Y194350
X50000Y214100
X40000Y194350
X30000Y214100
X35000Y124100
X55000Y124100
T04
X98250Y282350
X120000Y282350
T05
X112500Y74100
X112500Y64100
X112500Y54100
X112500Y34100
X132500Y34100
X132500Y54100
X132500Y64100
X132500Y74100
T06
X157500Y76600
X157500Y86600
X187500Y86600
X187500Y76600
X197500Y76600
X197500Y66600
X197500Y56600
X197500Y46600
X227500Y46600
X227500Y56600
X227500Y66600
X227500Y76600
X162500Y216600
X162500Y226600
X162500Y236600
X162500Y246600
X132500Y246600
X132500Y236600
X132500Y226600
X132500Y216600
X70000Y184100
X60000Y184100
X50000Y184100
X40000Y184100
X40000Y154100
X50000Y154100
X60000Y154100
X70000Y154100
T07
X155000Y21600
X165000Y21600
X215000Y21600
X225000Y21600
T08
X141250Y180163
X121250Y180163
X101250Y180163
X68750Y260163
X48750Y260163
X28750Y260163
X173750Y260163
X193750Y260163
X213750Y260163
T09
X207699Y308350
X207699Y333350
X207699Y358350
X143801Y358350
X143801Y333350
X143801Y308350
X98449Y308350
X98449Y333350
X98449Y358350
X34551Y358350
X34551Y333350
X34551Y308350
T10
X205000Y239100
X205000Y218850
X205000Y198700
T11
X121250Y325663
X121250Y349285
M30
