G75*
%MOIN*%
%OFA0B0*%
%FSLAX25Y25*%
%IPPOS*%
%LPD*%
%AMOC8*
5,1,8,0,0,1.08239X$1,22.5*
%
%ADD10C,0.08268*%
%ADD11C,0.05512*%
%ADD12R,0.05512X0.05512*%
%ADD13C,0.04724*%
%ADD14C,0.04331*%
%ADD15R,0.04331X0.04331*%
%ADD16C,0.05118*%
%ADD17R,0.04724X0.04724*%
%ADD18R,0.07087X0.07087*%
%ADD19C,0.07087*%
%ADD20C,0.13843*%
%ADD21C,0.06299*%
%ADD22C,0.00000*%
%ADD23C,0.01200*%
%ADD24C,0.03346*%
%ADD25C,0.01000*%
%ADD26C,0.03200*%
D10*
X0034425Y0215413D03*
X0034425Y0240413D03*
X0034425Y0265413D03*
X0098323Y0265413D03*
X0098323Y0240413D03*
X0098323Y0215413D03*
X0143926Y0215350D03*
X0143926Y0240350D03*
X0143926Y0265350D03*
X0207824Y0265350D03*
X0207824Y0240350D03*
X0207824Y0215350D03*
D11*
X0133000Y0176850D03*
D12*
X0154750Y0176850D03*
D13*
X0183750Y0111600D03*
X0183750Y0101600D03*
X0183750Y0091600D03*
X0186250Y0079100D03*
X0053750Y0076600D03*
X0053750Y0096600D03*
X0053750Y0106600D03*
X0053750Y0116600D03*
X0053750Y0126600D03*
X0053750Y0136600D03*
X0053750Y0146600D03*
D14*
X0068750Y0146600D03*
X0068750Y0156600D03*
X0068750Y0126600D03*
X0068750Y0116600D03*
X0068750Y0106600D03*
X0068750Y0096600D03*
X0068750Y0086600D03*
X0098750Y0086600D03*
X0098750Y0096600D03*
X0098750Y0106600D03*
X0098750Y0116600D03*
X0098750Y0126600D03*
X0111690Y0136600D03*
X0098750Y0146600D03*
X0098750Y0156600D03*
X0136250Y0146600D03*
X0136250Y0124100D03*
X0154750Y0136600D03*
X0158750Y0124100D03*
X0169000Y0124100D03*
X0173750Y0136600D03*
X0191250Y0127040D03*
X0203750Y0136600D03*
X0169000Y0094100D03*
X0158750Y0094100D03*
X0161250Y0076600D03*
X0151250Y0076600D03*
X0141250Y0076600D03*
X0136250Y0094100D03*
X0103750Y0076600D03*
X0103750Y0046600D03*
X0141250Y0046600D03*
X0151250Y0046600D03*
X0161250Y0046600D03*
X0154750Y0166600D03*
X0031310Y0139100D03*
X0026250Y0126600D03*
X0026250Y0096600D03*
D15*
X0039190Y0139100D03*
X0103810Y0136600D03*
X0136250Y0136600D03*
X0191250Y0119160D03*
D16*
X0201250Y0111600D03*
X0201250Y0091600D03*
X0165250Y0136600D03*
X0165250Y0156600D03*
X0183750Y0146600D03*
X0203750Y0146600D03*
X0147500Y0114100D03*
X0147500Y0094100D03*
X0173750Y0039100D03*
X0193750Y0039100D03*
X0093750Y0056600D03*
X0081250Y0056600D03*
X0081250Y0076600D03*
X0093750Y0076600D03*
X0088750Y0136600D03*
X0068750Y0136600D03*
X0038750Y0116600D03*
X0038750Y0096600D03*
D17*
X0053750Y0086600D03*
X0196250Y0079100D03*
D18*
X0213750Y0049163D03*
X0213750Y0169163D03*
X0068750Y0169163D03*
X0068750Y0049163D03*
D19*
X0048750Y0049163D03*
X0028750Y0049163D03*
X0028750Y0169163D03*
X0048750Y0169163D03*
X0173750Y0169163D03*
X0193750Y0169163D03*
X0193750Y0049163D03*
X0173750Y0049163D03*
D20*
X0121125Y0233238D03*
X0121125Y0256860D03*
D21*
X0116250Y0026600D03*
X0116250Y0016600D03*
X0106250Y0016600D03*
X0106250Y0026600D03*
X0126250Y0026600D03*
X0126250Y0016600D03*
X0136250Y0016600D03*
X0136250Y0026600D03*
D22*
X0237283Y0006600D02*
X0005000Y0006600D01*
X0005000Y0259631D01*
X0026654Y0259631D01*
X0026654Y0287191D01*
X0215630Y0287191D01*
X0215630Y0259631D01*
X0237283Y0259631D01*
X0237283Y0006600D01*
D23*
X0234683Y0009200D02*
X0007600Y0009200D01*
X0007600Y0257031D01*
X0027171Y0257031D01*
X0028126Y0257427D01*
X0028858Y0258159D01*
X0029254Y0259114D01*
X0029254Y0262933D01*
X0029521Y0262408D01*
X0030052Y0261678D01*
X0030690Y0261039D01*
X0031420Y0260509D01*
X0032224Y0260099D01*
X0033083Y0259820D01*
X0033825Y0259703D01*
X0033825Y0264813D01*
X0035025Y0264813D01*
X0035025Y0259703D01*
X0035768Y0259820D01*
X0036626Y0260099D01*
X0037430Y0260509D01*
X0038161Y0261039D01*
X0038799Y0261678D01*
X0039329Y0262408D01*
X0039739Y0263212D01*
X0040018Y0264070D01*
X0040135Y0264813D01*
X0035025Y0264813D01*
X0035025Y0266013D01*
X0033825Y0266013D01*
X0033825Y0271123D01*
X0033083Y0271006D01*
X0032224Y0270727D01*
X0031420Y0270317D01*
X0030690Y0269787D01*
X0030052Y0269148D01*
X0029521Y0268418D01*
X0029254Y0267893D01*
X0029254Y0284591D01*
X0213030Y0284591D01*
X0213030Y0267765D01*
X0212685Y0268598D01*
X0211072Y0270211D01*
X0208964Y0271084D01*
X0206683Y0271084D01*
X0204576Y0270211D01*
X0202963Y0268598D01*
X0202090Y0266491D01*
X0202090Y0264209D01*
X0202963Y0262102D01*
X0204576Y0260489D01*
X0206683Y0259616D01*
X0208964Y0259616D01*
X0211072Y0260489D01*
X0212685Y0262102D01*
X0213030Y0262935D01*
X0213030Y0259114D01*
X0213426Y0258159D01*
X0214157Y0257427D01*
X0215113Y0257031D01*
X0234683Y0257031D01*
X0234683Y0009200D01*
X0234683Y0009203D02*
X0007600Y0009203D01*
X0007600Y0010401D02*
X0234683Y0010401D01*
X0234683Y0011600D02*
X0007600Y0011600D01*
X0007600Y0012799D02*
X0103335Y0012799D01*
X0103560Y0012573D02*
X0102223Y0013910D01*
X0101500Y0015655D01*
X0101500Y0017545D01*
X0102223Y0019290D01*
X0103560Y0020627D01*
X0105305Y0021350D01*
X0107195Y0021350D01*
X0108940Y0020627D01*
X0110277Y0019290D01*
X0111000Y0017545D01*
X0111000Y0015655D01*
X0110277Y0013910D01*
X0108940Y0012573D01*
X0107195Y0011850D01*
X0105305Y0011850D01*
X0103560Y0012573D01*
X0102187Y0013997D02*
X0007600Y0013997D01*
X0007600Y0015196D02*
X0101691Y0015196D01*
X0101500Y0016394D02*
X0007600Y0016394D01*
X0007600Y0017593D02*
X0101520Y0017593D01*
X0102017Y0018791D02*
X0007600Y0018791D01*
X0007600Y0019990D02*
X0102923Y0019990D01*
X0104915Y0021188D02*
X0007600Y0021188D01*
X0007600Y0022387D02*
X0104011Y0022387D01*
X0103560Y0022573D02*
X0105305Y0021850D01*
X0107195Y0021850D01*
X0108940Y0022573D01*
X0110277Y0023910D01*
X0111000Y0025655D01*
X0111000Y0027545D01*
X0110277Y0029290D01*
X0108940Y0030627D01*
X0107195Y0031350D01*
X0105305Y0031350D01*
X0103560Y0030627D01*
X0102223Y0029290D01*
X0101979Y0028700D01*
X0037120Y0028700D01*
X0015850Y0049970D01*
X0015850Y0199480D01*
X0029263Y0212893D01*
X0029564Y0212165D01*
X0031177Y0210552D01*
X0033285Y0209679D01*
X0035566Y0209679D01*
X0037673Y0210552D01*
X0039286Y0212165D01*
X0040159Y0214272D01*
X0040159Y0216554D01*
X0039286Y0218661D01*
X0037673Y0220274D01*
X0035566Y0221147D01*
X0033285Y0221147D01*
X0031177Y0220274D01*
X0029564Y0218661D01*
X0029063Y0217450D01*
X0027880Y0217450D01*
X0026650Y0216220D01*
X0011650Y0201220D01*
X0011650Y0048230D01*
X0012880Y0047000D01*
X0035380Y0024500D01*
X0101979Y0024500D01*
X0102223Y0023910D01*
X0103560Y0022573D01*
X0102548Y0023585D02*
X0007600Y0023585D01*
X0007600Y0024784D02*
X0035097Y0024784D01*
X0033898Y0025982D02*
X0007600Y0025982D01*
X0007600Y0027181D02*
X0032699Y0027181D01*
X0031501Y0028379D02*
X0007600Y0028379D01*
X0007600Y0029578D02*
X0030302Y0029578D01*
X0029104Y0030776D02*
X0007600Y0030776D01*
X0007600Y0031975D02*
X0027905Y0031975D01*
X0026707Y0033173D02*
X0007600Y0033173D01*
X0007600Y0034372D02*
X0025508Y0034372D01*
X0024310Y0035570D02*
X0007600Y0035570D01*
X0007600Y0036769D02*
X0023111Y0036769D01*
X0021913Y0037967D02*
X0007600Y0037967D01*
X0007600Y0039166D02*
X0020714Y0039166D01*
X0019516Y0040364D02*
X0007600Y0040364D01*
X0007600Y0041563D02*
X0018317Y0041563D01*
X0017119Y0042761D02*
X0007600Y0042761D01*
X0007600Y0043960D02*
X0015920Y0043960D01*
X0014722Y0045158D02*
X0007600Y0045158D01*
X0007600Y0046357D02*
X0013523Y0046357D01*
X0012325Y0047555D02*
X0007600Y0047555D01*
X0007600Y0048754D02*
X0011650Y0048754D01*
X0011650Y0049952D02*
X0007600Y0049952D01*
X0007600Y0051151D02*
X0011650Y0051151D01*
X0011650Y0052349D02*
X0007600Y0052349D01*
X0007600Y0053548D02*
X0011650Y0053548D01*
X0011650Y0054746D02*
X0007600Y0054746D01*
X0007600Y0055945D02*
X0011650Y0055945D01*
X0011650Y0057143D02*
X0007600Y0057143D01*
X0007600Y0058342D02*
X0011650Y0058342D01*
X0011650Y0059540D02*
X0007600Y0059540D01*
X0007600Y0060739D02*
X0011650Y0060739D01*
X0011650Y0061937D02*
X0007600Y0061937D01*
X0007600Y0063136D02*
X0011650Y0063136D01*
X0011650Y0064334D02*
X0007600Y0064334D01*
X0007600Y0065533D02*
X0011650Y0065533D01*
X0011650Y0066732D02*
X0007600Y0066732D01*
X0007600Y0067930D02*
X0011650Y0067930D01*
X0011650Y0069129D02*
X0007600Y0069129D01*
X0007600Y0070327D02*
X0011650Y0070327D01*
X0011650Y0071526D02*
X0007600Y0071526D01*
X0007600Y0072724D02*
X0011650Y0072724D01*
X0011650Y0073923D02*
X0007600Y0073923D01*
X0007600Y0075121D02*
X0011650Y0075121D01*
X0011650Y0076320D02*
X0007600Y0076320D01*
X0007600Y0077518D02*
X0011650Y0077518D01*
X0011650Y0078717D02*
X0007600Y0078717D01*
X0007600Y0079915D02*
X0011650Y0079915D01*
X0011650Y0081114D02*
X0007600Y0081114D01*
X0007600Y0082312D02*
X0011650Y0082312D01*
X0011650Y0083511D02*
X0007600Y0083511D01*
X0007600Y0084709D02*
X0011650Y0084709D01*
X0011650Y0085908D02*
X0007600Y0085908D01*
X0007600Y0087106D02*
X0011650Y0087106D01*
X0011650Y0088305D02*
X0007600Y0088305D01*
X0007600Y0089503D02*
X0011650Y0089503D01*
X0011650Y0090702D02*
X0007600Y0090702D01*
X0007600Y0091900D02*
X0011650Y0091900D01*
X0011650Y0093099D02*
X0007600Y0093099D01*
X0007600Y0094297D02*
X0011650Y0094297D01*
X0011650Y0095496D02*
X0007600Y0095496D01*
X0007600Y0096694D02*
X0011650Y0096694D01*
X0011650Y0097893D02*
X0007600Y0097893D01*
X0007600Y0099091D02*
X0011650Y0099091D01*
X0011650Y0100290D02*
X0007600Y0100290D01*
X0007600Y0101488D02*
X0011650Y0101488D01*
X0011650Y0102687D02*
X0007600Y0102687D01*
X0007600Y0103885D02*
X0011650Y0103885D01*
X0011650Y0105084D02*
X0007600Y0105084D01*
X0007600Y0106282D02*
X0011650Y0106282D01*
X0011650Y0107481D02*
X0007600Y0107481D01*
X0007600Y0108679D02*
X0011650Y0108679D01*
X0011650Y0109878D02*
X0007600Y0109878D01*
X0007600Y0111076D02*
X0011650Y0111076D01*
X0011650Y0112275D02*
X0007600Y0112275D01*
X0007600Y0113473D02*
X0011650Y0113473D01*
X0011650Y0114672D02*
X0007600Y0114672D01*
X0007600Y0115870D02*
X0011650Y0115870D01*
X0011650Y0117069D02*
X0007600Y0117069D01*
X0007600Y0118268D02*
X0011650Y0118268D01*
X0011650Y0119466D02*
X0007600Y0119466D01*
X0007600Y0120665D02*
X0011650Y0120665D01*
X0011650Y0121863D02*
X0007600Y0121863D01*
X0007600Y0123062D02*
X0011650Y0123062D01*
X0011650Y0124260D02*
X0007600Y0124260D01*
X0007600Y0125459D02*
X0011650Y0125459D01*
X0011650Y0126657D02*
X0007600Y0126657D01*
X0007600Y0127856D02*
X0011650Y0127856D01*
X0011650Y0129054D02*
X0007600Y0129054D01*
X0007600Y0130253D02*
X0011650Y0130253D01*
X0011650Y0131451D02*
X0007600Y0131451D01*
X0007600Y0132650D02*
X0011650Y0132650D01*
X0011650Y0133848D02*
X0007600Y0133848D01*
X0007600Y0135047D02*
X0011650Y0135047D01*
X0011650Y0136245D02*
X0007600Y0136245D01*
X0007600Y0137444D02*
X0011650Y0137444D01*
X0011650Y0138642D02*
X0007600Y0138642D01*
X0007600Y0139841D02*
X0011650Y0139841D01*
X0011650Y0141039D02*
X0007600Y0141039D01*
X0007600Y0142238D02*
X0011650Y0142238D01*
X0011650Y0143436D02*
X0007600Y0143436D01*
X0007600Y0144635D02*
X0011650Y0144635D01*
X0011650Y0145833D02*
X0007600Y0145833D01*
X0007600Y0147032D02*
X0011650Y0147032D01*
X0011650Y0148230D02*
X0007600Y0148230D01*
X0007600Y0149429D02*
X0011650Y0149429D01*
X0011650Y0150627D02*
X0007600Y0150627D01*
X0007600Y0151826D02*
X0011650Y0151826D01*
X0011650Y0153024D02*
X0007600Y0153024D01*
X0007600Y0154223D02*
X0011650Y0154223D01*
X0011650Y0155421D02*
X0007600Y0155421D01*
X0007600Y0156620D02*
X0011650Y0156620D01*
X0011650Y0157818D02*
X0007600Y0157818D01*
X0007600Y0159017D02*
X0011650Y0159017D01*
X0011650Y0160215D02*
X0007600Y0160215D01*
X0007600Y0161414D02*
X0011650Y0161414D01*
X0011650Y0162612D02*
X0007600Y0162612D01*
X0007600Y0163811D02*
X0011650Y0163811D01*
X0011650Y0165009D02*
X0007600Y0165009D01*
X0007600Y0166208D02*
X0011650Y0166208D01*
X0011650Y0167406D02*
X0007600Y0167406D01*
X0007600Y0168605D02*
X0011650Y0168605D01*
X0011650Y0169803D02*
X0007600Y0169803D01*
X0007600Y0171002D02*
X0011650Y0171002D01*
X0011650Y0172201D02*
X0007600Y0172201D01*
X0007600Y0173399D02*
X0011650Y0173399D01*
X0011650Y0174598D02*
X0007600Y0174598D01*
X0007600Y0175796D02*
X0011650Y0175796D01*
X0011650Y0176995D02*
X0007600Y0176995D01*
X0007600Y0178193D02*
X0011650Y0178193D01*
X0011650Y0179392D02*
X0007600Y0179392D01*
X0007600Y0180590D02*
X0011650Y0180590D01*
X0011650Y0181789D02*
X0007600Y0181789D01*
X0007600Y0182987D02*
X0011650Y0182987D01*
X0011650Y0184186D02*
X0007600Y0184186D01*
X0007600Y0185384D02*
X0011650Y0185384D01*
X0011650Y0186583D02*
X0007600Y0186583D01*
X0007600Y0187781D02*
X0011650Y0187781D01*
X0011650Y0188980D02*
X0007600Y0188980D01*
X0007600Y0190178D02*
X0011650Y0190178D01*
X0011650Y0191377D02*
X0007600Y0191377D01*
X0007600Y0192575D02*
X0011650Y0192575D01*
X0011650Y0193774D02*
X0007600Y0193774D01*
X0007600Y0194972D02*
X0011650Y0194972D01*
X0011650Y0196171D02*
X0007600Y0196171D01*
X0007600Y0197369D02*
X0011650Y0197369D01*
X0011650Y0198568D02*
X0007600Y0198568D01*
X0007600Y0199766D02*
X0011650Y0199766D01*
X0011650Y0200965D02*
X0007600Y0200965D01*
X0007600Y0202163D02*
X0012593Y0202163D01*
X0013792Y0203362D02*
X0007600Y0203362D01*
X0007600Y0204560D02*
X0014990Y0204560D01*
X0016189Y0205759D02*
X0007600Y0205759D01*
X0007600Y0206957D02*
X0017388Y0206957D01*
X0018586Y0208156D02*
X0007600Y0208156D01*
X0007600Y0209354D02*
X0019785Y0209354D01*
X0020983Y0210553D02*
X0007600Y0210553D01*
X0007600Y0211751D02*
X0022182Y0211751D01*
X0023380Y0212950D02*
X0007600Y0212950D01*
X0007600Y0214148D02*
X0024579Y0214148D01*
X0025777Y0215347D02*
X0007600Y0215347D01*
X0007600Y0216545D02*
X0026976Y0216545D01*
X0029184Y0217744D02*
X0007600Y0217744D01*
X0007600Y0218942D02*
X0029846Y0218942D01*
X0031044Y0220141D02*
X0007600Y0220141D01*
X0007600Y0221339D02*
X0131550Y0221339D01*
X0131550Y0220141D02*
X0101704Y0220141D01*
X0101571Y0220274D02*
X0099463Y0221147D01*
X0097182Y0221147D01*
X0095075Y0220274D01*
X0093462Y0218661D01*
X0092589Y0216554D01*
X0092589Y0214272D01*
X0093462Y0212165D01*
X0095075Y0210552D01*
X0097182Y0209679D01*
X0099463Y0209679D01*
X0101571Y0210552D01*
X0103184Y0212165D01*
X0104057Y0214272D01*
X0104057Y0216554D01*
X0103184Y0218661D01*
X0101571Y0220274D01*
X0102902Y0218942D02*
X0131550Y0218942D01*
X0131550Y0217744D02*
X0103564Y0217744D01*
X0104057Y0216545D02*
X0131550Y0216545D01*
X0131550Y0215347D02*
X0104057Y0215347D01*
X0104005Y0214148D02*
X0131550Y0214148D01*
X0131550Y0212950D02*
X0103509Y0212950D01*
X0102770Y0211751D02*
X0131550Y0211751D01*
X0131550Y0210553D02*
X0101572Y0210553D01*
X0095074Y0210553D02*
X0037674Y0210553D01*
X0038872Y0211751D02*
X0093876Y0211751D01*
X0093137Y0212950D02*
X0039611Y0212950D01*
X0040108Y0214148D02*
X0092640Y0214148D01*
X0092589Y0215347D02*
X0040159Y0215347D01*
X0040159Y0216545D02*
X0092589Y0216545D01*
X0093082Y0217744D02*
X0039666Y0217744D01*
X0039005Y0218942D02*
X0093743Y0218942D01*
X0094942Y0220141D02*
X0037806Y0220141D01*
X0029978Y0211751D02*
X0028121Y0211751D01*
X0026923Y0210553D02*
X0031176Y0210553D01*
X0025724Y0209354D02*
X0131550Y0209354D01*
X0131550Y0208156D02*
X0024526Y0208156D01*
X0023327Y0206957D02*
X0131550Y0206957D01*
X0131550Y0205759D02*
X0022129Y0205759D01*
X0020930Y0204560D02*
X0131550Y0204560D01*
X0131550Y0203362D02*
X0019732Y0203362D01*
X0018533Y0202163D02*
X0131550Y0202163D01*
X0131550Y0200965D02*
X0017335Y0200965D01*
X0016136Y0199766D02*
X0131550Y0199766D01*
X0131550Y0198568D02*
X0015850Y0198568D01*
X0015850Y0197369D02*
X0131550Y0197369D01*
X0131550Y0197226D02*
X0131546Y0197216D01*
X0131550Y0196591D01*
X0131550Y0195963D01*
X0131554Y0195954D01*
X0131554Y0195943D01*
X0131797Y0195366D01*
X0132037Y0194787D01*
X0132045Y0194780D01*
X0132049Y0194770D01*
X0132494Y0194330D01*
X0132937Y0193887D01*
X0132947Y0193883D01*
X0150394Y0176654D01*
X0150394Y0173431D01*
X0151331Y0172494D01*
X0151550Y0172494D01*
X0151550Y0168714D01*
X0150985Y0167349D01*
X0150985Y0165851D01*
X0151558Y0164467D01*
X0152617Y0163408D01*
X0154001Y0162835D01*
X0155499Y0162835D01*
X0156883Y0163408D01*
X0157942Y0164467D01*
X0158515Y0165851D01*
X0158515Y0167349D01*
X0157950Y0168714D01*
X0157950Y0172494D01*
X0158169Y0172494D01*
X0159106Y0173431D01*
X0159106Y0180269D01*
X0158169Y0181206D01*
X0154893Y0181206D01*
X0137950Y0197937D01*
X0137950Y0253737D01*
X0137463Y0254913D01*
X0136563Y0255813D01*
X0133963Y0258413D01*
X0133063Y0259313D01*
X0131887Y0259800D01*
X0129131Y0259800D01*
X0128349Y0261687D01*
X0125952Y0264084D01*
X0122820Y0265381D01*
X0119430Y0265381D01*
X0116298Y0264084D01*
X0113901Y0261687D01*
X0112604Y0258555D01*
X0112604Y0255165D01*
X0113901Y0252033D01*
X0116298Y0249636D01*
X0119430Y0248339D01*
X0122820Y0248339D01*
X0125952Y0249636D01*
X0128349Y0252033D01*
X0128915Y0253400D01*
X0129925Y0253400D01*
X0131550Y0251775D01*
X0131550Y0197226D01*
X0131550Y0196171D02*
X0015850Y0196171D01*
X0015850Y0194972D02*
X0131961Y0194972D01*
X0133058Y0193774D02*
X0015850Y0193774D01*
X0015850Y0192575D02*
X0134272Y0192575D01*
X0135485Y0191377D02*
X0015850Y0191377D01*
X0015850Y0190178D02*
X0136699Y0190178D01*
X0137913Y0188980D02*
X0015850Y0188980D01*
X0015850Y0187781D02*
X0139126Y0187781D01*
X0140340Y0186583D02*
X0015850Y0186583D01*
X0015850Y0185384D02*
X0141554Y0185384D01*
X0142767Y0184186D02*
X0015850Y0184186D01*
X0015850Y0182987D02*
X0143981Y0182987D01*
X0145195Y0181789D02*
X0015850Y0181789D01*
X0015850Y0180590D02*
X0130746Y0180590D01*
X0130717Y0180575D02*
X0130162Y0180172D01*
X0129677Y0179688D01*
X0129274Y0179133D01*
X0128963Y0178522D01*
X0128751Y0177870D01*
X0128644Y0177193D01*
X0128644Y0176939D01*
X0132911Y0176939D01*
X0132911Y0181206D01*
X0132657Y0181206D01*
X0131980Y0181099D01*
X0131328Y0180887D01*
X0130717Y0180575D01*
X0129462Y0179392D02*
X0015850Y0179392D01*
X0015850Y0178193D02*
X0128856Y0178193D01*
X0128644Y0176995D02*
X0015850Y0176995D01*
X0015850Y0175796D02*
X0128762Y0175796D01*
X0128751Y0175830D02*
X0128963Y0175178D01*
X0129274Y0174567D01*
X0129677Y0174012D01*
X0130162Y0173527D01*
X0130717Y0173124D01*
X0131328Y0172813D01*
X0131980Y0172601D01*
X0132657Y0172494D01*
X0132911Y0172494D01*
X0132911Y0176761D01*
X0133089Y0176761D01*
X0133089Y0176939D01*
X0137356Y0176939D01*
X0137356Y0177193D01*
X0137249Y0177870D01*
X0137037Y0178522D01*
X0136725Y0179133D01*
X0136322Y0179688D01*
X0135838Y0180172D01*
X0135283Y0180575D01*
X0134672Y0180887D01*
X0134020Y0181099D01*
X0133343Y0181206D01*
X0133089Y0181206D01*
X0133089Y0176939D01*
X0132911Y0176939D01*
X0132911Y0176761D01*
X0128644Y0176761D01*
X0128644Y0176507D01*
X0128751Y0175830D01*
X0129259Y0174598D02*
X0015850Y0174598D01*
X0015850Y0173399D02*
X0025712Y0173399D01*
X0025837Y0173523D02*
X0024390Y0172076D01*
X0023607Y0170186D01*
X0023607Y0168140D01*
X0024390Y0166250D01*
X0025837Y0164803D01*
X0026650Y0164466D01*
X0026650Y0148230D01*
X0029150Y0145730D01*
X0029150Y0142265D01*
X0028118Y0141233D01*
X0027545Y0139849D01*
X0027545Y0138351D01*
X0028118Y0136967D01*
X0029177Y0135908D01*
X0030561Y0135335D01*
X0032059Y0135335D01*
X0033443Y0135908D01*
X0034502Y0136967D01*
X0035075Y0138351D01*
X0035075Y0139849D01*
X0034502Y0141233D01*
X0033443Y0142292D01*
X0033350Y0142331D01*
X0033350Y0147470D01*
X0032120Y0148700D01*
X0030850Y0149970D01*
X0030850Y0164466D01*
X0031663Y0164803D01*
X0033110Y0166250D01*
X0033893Y0168140D01*
X0033893Y0170186D01*
X0033110Y0172076D01*
X0031663Y0173523D01*
X0029773Y0174306D01*
X0027727Y0174306D01*
X0025837Y0173523D01*
X0024514Y0172201D02*
X0015850Y0172201D01*
X0015850Y0171002D02*
X0023945Y0171002D01*
X0023607Y0169803D02*
X0015850Y0169803D01*
X0015850Y0168605D02*
X0023607Y0168605D01*
X0023910Y0167406D02*
X0015850Y0167406D01*
X0015850Y0166208D02*
X0024431Y0166208D01*
X0025630Y0165009D02*
X0015850Y0165009D01*
X0015850Y0163811D02*
X0026650Y0163811D01*
X0026650Y0162612D02*
X0015850Y0162612D01*
X0015850Y0161414D02*
X0026650Y0161414D01*
X0026650Y0160215D02*
X0015850Y0160215D01*
X0015850Y0159017D02*
X0026650Y0159017D01*
X0026650Y0157818D02*
X0015850Y0157818D01*
X0015850Y0156620D02*
X0026650Y0156620D01*
X0026650Y0155421D02*
X0015850Y0155421D01*
X0015850Y0154223D02*
X0026650Y0154223D01*
X0026650Y0153024D02*
X0015850Y0153024D01*
X0015850Y0151826D02*
X0026650Y0151826D01*
X0026650Y0150627D02*
X0015850Y0150627D01*
X0015850Y0149429D02*
X0026650Y0149429D01*
X0026650Y0148230D02*
X0015850Y0148230D01*
X0015850Y0147032D02*
X0027848Y0147032D01*
X0029047Y0145833D02*
X0015850Y0145833D01*
X0015850Y0144635D02*
X0029150Y0144635D01*
X0029150Y0143436D02*
X0015850Y0143436D01*
X0015850Y0142238D02*
X0029123Y0142238D01*
X0028038Y0141039D02*
X0015850Y0141039D01*
X0015850Y0139841D02*
X0027545Y0139841D01*
X0027545Y0138642D02*
X0015850Y0138642D01*
X0015850Y0137444D02*
X0027920Y0137444D01*
X0028840Y0136245D02*
X0015850Y0136245D01*
X0015850Y0135047D02*
X0037090Y0135047D01*
X0037090Y0135335D02*
X0037090Y0130410D01*
X0035380Y0128700D01*
X0029456Y0128700D01*
X0029442Y0128733D01*
X0028383Y0129792D01*
X0026999Y0130365D01*
X0025501Y0130365D01*
X0024117Y0129792D01*
X0023058Y0128733D01*
X0022485Y0127349D01*
X0022485Y0125851D01*
X0023058Y0124467D01*
X0024117Y0123408D01*
X0025501Y0122835D01*
X0026999Y0122835D01*
X0028383Y0123408D01*
X0029442Y0124467D01*
X0029456Y0124500D01*
X0037120Y0124500D01*
X0038350Y0125730D01*
X0041290Y0128670D01*
X0041290Y0135335D01*
X0042018Y0135335D01*
X0042955Y0136272D01*
X0042955Y0141928D01*
X0042502Y0142382D01*
X0044620Y0144500D01*
X0050331Y0144500D01*
X0050391Y0144356D01*
X0051506Y0143241D01*
X0052962Y0142638D01*
X0054538Y0142638D01*
X0055994Y0143241D01*
X0057109Y0144356D01*
X0057169Y0144500D01*
X0065544Y0144500D01*
X0065558Y0144467D01*
X0066617Y0143408D01*
X0068001Y0142835D01*
X0069499Y0142835D01*
X0070883Y0143408D01*
X0071942Y0144467D01*
X0072515Y0145851D01*
X0072515Y0147349D01*
X0071942Y0148733D01*
X0070883Y0149792D01*
X0069499Y0150365D01*
X0068001Y0150365D01*
X0066617Y0149792D01*
X0065558Y0148733D01*
X0065544Y0148700D01*
X0057169Y0148700D01*
X0057109Y0148844D01*
X0055994Y0149959D01*
X0054538Y0150562D01*
X0052962Y0150562D01*
X0051506Y0149959D01*
X0050391Y0148844D01*
X0050331Y0148700D01*
X0042880Y0148700D01*
X0041650Y0147470D01*
X0037090Y0142910D01*
X0037090Y0142865D01*
X0036362Y0142865D01*
X0035425Y0141928D01*
X0035425Y0136272D01*
X0036362Y0135335D01*
X0037090Y0135335D01*
X0037090Y0133848D02*
X0015850Y0133848D01*
X0015850Y0132650D02*
X0037090Y0132650D01*
X0037090Y0131451D02*
X0015850Y0131451D01*
X0015850Y0130253D02*
X0025229Y0130253D01*
X0027271Y0130253D02*
X0036933Y0130253D01*
X0035734Y0129054D02*
X0029121Y0129054D01*
X0029235Y0124260D02*
X0038440Y0124260D01*
X0038078Y0125459D02*
X0039639Y0125459D01*
X0039277Y0126657D02*
X0040837Y0126657D01*
X0041650Y0127470D02*
X0036650Y0122470D01*
X0036650Y0120232D01*
X0036394Y0120126D01*
X0035224Y0118956D01*
X0034591Y0117427D01*
X0034591Y0115773D01*
X0035224Y0114244D01*
X0036394Y0113074D01*
X0036650Y0112968D01*
X0036650Y0110730D01*
X0041650Y0105730D01*
X0042880Y0104500D01*
X0050331Y0104500D01*
X0050391Y0104356D01*
X0051506Y0103241D01*
X0052962Y0102638D01*
X0054538Y0102638D01*
X0055994Y0103241D01*
X0056317Y0103563D01*
X0064150Y0095730D01*
X0065380Y0094500D01*
X0065544Y0094500D01*
X0065558Y0094467D01*
X0066617Y0093408D01*
X0068001Y0092835D01*
X0069499Y0092835D01*
X0070883Y0093408D01*
X0071942Y0094467D01*
X0072515Y0095851D01*
X0072515Y0097349D01*
X0071942Y0098733D01*
X0070883Y0099792D01*
X0069499Y0100365D01*
X0068001Y0100365D01*
X0066617Y0099792D01*
X0066322Y0099497D01*
X0057203Y0108616D01*
X0057109Y0108844D01*
X0055994Y0109959D01*
X0054538Y0110562D01*
X0052962Y0110562D01*
X0051506Y0109959D01*
X0050391Y0108844D01*
X0050331Y0108700D01*
X0044620Y0108700D01*
X0040850Y0112470D01*
X0040850Y0112968D01*
X0041106Y0113074D01*
X0042276Y0114244D01*
X0042909Y0115773D01*
X0042909Y0117427D01*
X0042276Y0118956D01*
X0041106Y0120126D01*
X0040850Y0120232D01*
X0040850Y0120730D01*
X0044620Y0124500D01*
X0050331Y0124500D01*
X0050391Y0124356D01*
X0051506Y0123241D01*
X0052962Y0122638D01*
X0054538Y0122638D01*
X0055994Y0123241D01*
X0057109Y0124356D01*
X0057712Y0125812D01*
X0057712Y0127388D01*
X0057109Y0128844D01*
X0055994Y0129959D01*
X0054538Y0130562D01*
X0052962Y0130562D01*
X0051506Y0129959D01*
X0050391Y0128844D01*
X0050331Y0128700D01*
X0042880Y0128700D01*
X0041650Y0127470D01*
X0042036Y0127856D02*
X0040475Y0127856D01*
X0041290Y0129054D02*
X0050601Y0129054D01*
X0052214Y0130253D02*
X0041290Y0130253D01*
X0041290Y0131451D02*
X0066650Y0131451D01*
X0066650Y0130253D02*
X0055286Y0130253D01*
X0056899Y0129054D02*
X0065879Y0129054D01*
X0065558Y0128733D02*
X0064985Y0127349D01*
X0064985Y0125851D01*
X0065558Y0124467D01*
X0066617Y0123408D01*
X0068001Y0122835D01*
X0069499Y0122835D01*
X0070883Y0123408D01*
X0071942Y0124467D01*
X0072515Y0125851D01*
X0072515Y0127349D01*
X0071942Y0128733D01*
X0070883Y0129792D01*
X0070850Y0129806D01*
X0070850Y0132968D01*
X0071106Y0133074D01*
X0072276Y0134244D01*
X0072909Y0135773D01*
X0072909Y0137427D01*
X0072276Y0138956D01*
X0071106Y0140126D01*
X0069577Y0140759D01*
X0067923Y0140759D01*
X0066394Y0140126D01*
X0065224Y0138956D01*
X0065118Y0138700D01*
X0057169Y0138700D01*
X0057109Y0138844D01*
X0055994Y0139959D01*
X0054538Y0140562D01*
X0052962Y0140562D01*
X0051506Y0139959D01*
X0050391Y0138844D01*
X0049788Y0137388D01*
X0049788Y0135812D01*
X0050391Y0134356D01*
X0051506Y0133241D01*
X0052962Y0132638D01*
X0054538Y0132638D01*
X0055994Y0133241D01*
X0057109Y0134356D01*
X0057169Y0134500D01*
X0065118Y0134500D01*
X0065224Y0134244D01*
X0066394Y0133074D01*
X0066650Y0132968D01*
X0066650Y0129806D01*
X0066617Y0129792D01*
X0065558Y0128733D01*
X0065195Y0127856D02*
X0057519Y0127856D01*
X0057712Y0126657D02*
X0064985Y0126657D01*
X0065147Y0125459D02*
X0057566Y0125459D01*
X0057013Y0124260D02*
X0065765Y0124260D01*
X0067453Y0123062D02*
X0055561Y0123062D01*
X0054538Y0120562D02*
X0052962Y0120562D01*
X0051506Y0119959D01*
X0050391Y0118844D01*
X0049788Y0117388D01*
X0049788Y0115812D01*
X0050391Y0114356D01*
X0051506Y0113241D01*
X0052962Y0112638D01*
X0054538Y0112638D01*
X0055994Y0113241D01*
X0057109Y0114356D01*
X0057169Y0114500D01*
X0065544Y0114500D01*
X0065558Y0114467D01*
X0066617Y0113408D01*
X0068001Y0112835D01*
X0069499Y0112835D01*
X0070883Y0113408D01*
X0071942Y0114467D01*
X0071956Y0114500D01*
X0074620Y0114500D01*
X0084620Y0124500D01*
X0089620Y0124500D01*
X0099620Y0134500D01*
X0100045Y0134500D01*
X0100045Y0133772D01*
X0100982Y0132835D01*
X0106638Y0132835D01*
X0107575Y0133772D01*
X0107575Y0139428D01*
X0106638Y0140365D01*
X0100982Y0140365D01*
X0100045Y0139428D01*
X0100045Y0138700D01*
X0097880Y0138700D01*
X0096650Y0137470D01*
X0087880Y0128700D01*
X0082880Y0128700D01*
X0081650Y0127470D01*
X0072880Y0118700D01*
X0071956Y0118700D01*
X0071942Y0118733D01*
X0070883Y0119792D01*
X0069499Y0120365D01*
X0068001Y0120365D01*
X0066617Y0119792D01*
X0065558Y0118733D01*
X0065544Y0118700D01*
X0057169Y0118700D01*
X0057109Y0118844D01*
X0055994Y0119959D01*
X0054538Y0120562D01*
X0056487Y0119466D02*
X0066291Y0119466D01*
X0071209Y0119466D02*
X0073646Y0119466D01*
X0074845Y0120665D02*
X0040850Y0120665D01*
X0041766Y0119466D02*
X0051013Y0119466D01*
X0050152Y0118268D02*
X0042561Y0118268D01*
X0042909Y0117069D02*
X0049788Y0117069D01*
X0049788Y0115870D02*
X0042909Y0115870D01*
X0042453Y0114672D02*
X0050260Y0114672D01*
X0051273Y0113473D02*
X0041505Y0113473D01*
X0041045Y0112275D02*
X0081455Y0112275D01*
X0080257Y0111076D02*
X0042243Y0111076D01*
X0043442Y0109878D02*
X0051425Y0109878D01*
X0056075Y0109878D02*
X0066824Y0109878D01*
X0066617Y0109792D02*
X0065558Y0108733D01*
X0064985Y0107349D01*
X0064985Y0105851D01*
X0065558Y0104467D01*
X0066617Y0103408D01*
X0068001Y0102835D01*
X0069499Y0102835D01*
X0070883Y0103408D01*
X0071942Y0104467D01*
X0071956Y0104500D01*
X0079620Y0104500D01*
X0089620Y0114500D01*
X0095544Y0114500D01*
X0095558Y0114467D01*
X0096617Y0113408D01*
X0098001Y0112835D01*
X0099499Y0112835D01*
X0100883Y0113408D01*
X0101942Y0114467D01*
X0102515Y0115851D01*
X0102515Y0117349D01*
X0101942Y0118733D01*
X0100883Y0119792D01*
X0100850Y0119806D01*
X0100850Y0123394D01*
X0100883Y0123408D01*
X0101942Y0124467D01*
X0102515Y0125851D01*
X0102515Y0127349D01*
X0101942Y0128733D01*
X0100883Y0129792D01*
X0099499Y0130365D01*
X0098001Y0130365D01*
X0096617Y0129792D01*
X0095558Y0128733D01*
X0094985Y0127349D01*
X0094985Y0125851D01*
X0095558Y0124467D01*
X0096617Y0123408D01*
X0096650Y0123394D01*
X0096650Y0119806D01*
X0096617Y0119792D01*
X0095558Y0118733D01*
X0095544Y0118700D01*
X0087880Y0118700D01*
X0086650Y0117470D01*
X0077880Y0108700D01*
X0071956Y0108700D01*
X0071942Y0108733D01*
X0070883Y0109792D01*
X0069499Y0110365D01*
X0068001Y0110365D01*
X0066617Y0109792D01*
X0065536Y0108679D02*
X0057177Y0108679D01*
X0058339Y0107481D02*
X0065039Y0107481D01*
X0064985Y0106282D02*
X0059537Y0106282D01*
X0060736Y0105084D02*
X0065302Y0105084D01*
X0066140Y0103885D02*
X0061934Y0103885D01*
X0063133Y0102687D02*
X0110311Y0102687D01*
X0109113Y0101488D02*
X0064331Y0101488D01*
X0065530Y0100290D02*
X0067819Y0100290D01*
X0069681Y0100290D02*
X0097819Y0100290D01*
X0098001Y0100365D02*
X0096617Y0099792D01*
X0095558Y0098733D01*
X0094985Y0097349D01*
X0094985Y0095851D01*
X0095550Y0094486D01*
X0095550Y0088714D01*
X0094985Y0087349D01*
X0094985Y0085851D01*
X0095558Y0084467D01*
X0096617Y0083408D01*
X0098001Y0082835D01*
X0099499Y0082835D01*
X0100883Y0083408D01*
X0101942Y0084467D01*
X0102515Y0085851D01*
X0102515Y0087349D01*
X0101950Y0088714D01*
X0101950Y0093400D01*
X0109387Y0093400D01*
X0110563Y0093887D01*
X0111463Y0094787D01*
X0137018Y0120343D01*
X0138383Y0120908D01*
X0139442Y0121967D01*
X0140015Y0123351D01*
X0140015Y0124849D01*
X0139450Y0126214D01*
X0139450Y0133207D01*
X0139643Y0133400D01*
X0152636Y0133400D01*
X0154001Y0132835D01*
X0155499Y0132835D01*
X0156864Y0133400D01*
X0162568Y0133400D01*
X0162894Y0133074D01*
X0164423Y0132441D01*
X0166077Y0132441D01*
X0167606Y0133074D01*
X0167932Y0133400D01*
X0171636Y0133400D01*
X0173001Y0132835D01*
X0174499Y0132835D01*
X0175883Y0133408D01*
X0176942Y0134467D01*
X0177515Y0135851D01*
X0177515Y0137349D01*
X0176942Y0138733D01*
X0175883Y0139792D01*
X0174499Y0140365D01*
X0173001Y0140365D01*
X0171636Y0139800D01*
X0167932Y0139800D01*
X0167606Y0140126D01*
X0166077Y0140759D01*
X0164423Y0140759D01*
X0162894Y0140126D01*
X0162568Y0139800D01*
X0156864Y0139800D01*
X0155499Y0140365D01*
X0154001Y0140365D01*
X0152636Y0139800D01*
X0139643Y0139800D01*
X0139078Y0140365D01*
X0133422Y0140365D01*
X0132485Y0139428D01*
X0132485Y0133772D01*
X0133050Y0133207D01*
X0133050Y0126214D01*
X0132493Y0124868D01*
X0107425Y0099800D01*
X0100864Y0099800D01*
X0099499Y0100365D01*
X0098001Y0100365D01*
X0099681Y0100290D02*
X0107914Y0100290D01*
X0111510Y0103885D02*
X0101360Y0103885D01*
X0101150Y0103675D02*
X0101675Y0104200D01*
X0102087Y0104816D01*
X0102371Y0105502D01*
X0102515Y0106229D01*
X0102515Y0106600D01*
X0102515Y0106971D01*
X0102371Y0107698D01*
X0102087Y0108384D01*
X0101675Y0109000D01*
X0101150Y0109525D01*
X0100534Y0109937D01*
X0099848Y0110221D01*
X0099121Y0110365D01*
X0098750Y0110365D01*
X0098379Y0110365D01*
X0097652Y0110221D01*
X0096966Y0109937D01*
X0096350Y0109525D01*
X0095825Y0109000D01*
X0095413Y0108384D01*
X0095129Y0107698D01*
X0094985Y0106971D01*
X0094985Y0106600D01*
X0094985Y0106229D01*
X0095129Y0105502D01*
X0095413Y0104816D01*
X0095825Y0104200D01*
X0096350Y0103675D01*
X0096966Y0103263D01*
X0097652Y0102979D01*
X0098379Y0102835D01*
X0098750Y0102835D01*
X0099121Y0102835D01*
X0099848Y0102979D01*
X0100534Y0103263D01*
X0101150Y0103675D01*
X0102198Y0105084D02*
X0112708Y0105084D01*
X0113907Y0106282D02*
X0102515Y0106282D01*
X0102515Y0106600D02*
X0098750Y0106600D01*
X0102515Y0106600D01*
X0102414Y0107481D02*
X0115105Y0107481D01*
X0116304Y0108679D02*
X0101889Y0108679D01*
X0100622Y0109878D02*
X0117502Y0109878D01*
X0118701Y0111076D02*
X0086196Y0111076D01*
X0084998Y0109878D02*
X0096878Y0109878D01*
X0095611Y0108679D02*
X0083799Y0108679D01*
X0082601Y0107481D02*
X0095086Y0107481D01*
X0094985Y0106600D02*
X0098750Y0106600D01*
X0098750Y0106600D01*
X0098750Y0106600D01*
X0098750Y0110365D01*
X0098750Y0106600D01*
X0098750Y0102835D01*
X0098750Y0106600D01*
X0098750Y0106600D01*
X0098750Y0106600D01*
X0094985Y0106600D01*
X0094985Y0106282D02*
X0081402Y0106282D01*
X0080204Y0105084D02*
X0095302Y0105084D01*
X0096140Y0103885D02*
X0071360Y0103885D01*
X0071584Y0099091D02*
X0095916Y0099091D01*
X0095210Y0097893D02*
X0072290Y0097893D01*
X0072515Y0096694D02*
X0094985Y0096694D01*
X0095132Y0095496D02*
X0072368Y0095496D01*
X0071772Y0094297D02*
X0095550Y0094297D01*
X0095550Y0093099D02*
X0070137Y0093099D01*
X0067363Y0093099D02*
X0055850Y0093099D01*
X0055850Y0093181D02*
X0055994Y0093241D01*
X0057109Y0094356D01*
X0057712Y0095812D01*
X0057712Y0097388D01*
X0057109Y0098844D01*
X0055994Y0099959D01*
X0054538Y0100562D01*
X0052962Y0100562D01*
X0051506Y0099959D01*
X0050391Y0098844D01*
X0050331Y0098700D01*
X0042382Y0098700D01*
X0042276Y0098956D01*
X0041106Y0100126D01*
X0039577Y0100759D01*
X0037923Y0100759D01*
X0036394Y0100126D01*
X0035224Y0098956D01*
X0035118Y0098700D01*
X0029456Y0098700D01*
X0029442Y0098733D01*
X0028383Y0099792D01*
X0026999Y0100365D01*
X0025501Y0100365D01*
X0024117Y0099792D01*
X0023058Y0098733D01*
X0022485Y0097349D01*
X0022485Y0095851D01*
X0023058Y0094467D01*
X0024117Y0093408D01*
X0025501Y0092835D01*
X0026999Y0092835D01*
X0028383Y0093408D01*
X0029442Y0094467D01*
X0029456Y0094500D01*
X0035118Y0094500D01*
X0035224Y0094244D01*
X0036394Y0093074D01*
X0037923Y0092441D01*
X0039577Y0092441D01*
X0041106Y0093074D01*
X0042276Y0094244D01*
X0042382Y0094500D01*
X0050331Y0094500D01*
X0050391Y0094356D01*
X0051506Y0093241D01*
X0051650Y0093181D01*
X0051650Y0090562D01*
X0050725Y0090562D01*
X0049788Y0089625D01*
X0049788Y0083575D01*
X0050725Y0082638D01*
X0056775Y0082638D01*
X0057712Y0083575D01*
X0057712Y0084500D01*
X0065544Y0084500D01*
X0065558Y0084467D01*
X0066617Y0083408D01*
X0068001Y0082835D01*
X0069499Y0082835D01*
X0070883Y0083408D01*
X0071942Y0084467D01*
X0072515Y0085851D01*
X0072515Y0087349D01*
X0071942Y0088733D01*
X0070883Y0089792D01*
X0069499Y0090365D01*
X0068001Y0090365D01*
X0066617Y0089792D01*
X0065558Y0088733D01*
X0065544Y0088700D01*
X0057712Y0088700D01*
X0057712Y0089625D01*
X0056775Y0090562D01*
X0055850Y0090562D01*
X0055850Y0093181D01*
X0055850Y0091900D02*
X0095550Y0091900D01*
X0095550Y0090702D02*
X0055850Y0090702D01*
X0057712Y0089503D02*
X0066328Y0089503D01*
X0065728Y0094297D02*
X0057051Y0094297D01*
X0057581Y0095496D02*
X0064384Y0095496D01*
X0063186Y0096694D02*
X0057712Y0096694D01*
X0057503Y0097893D02*
X0061987Y0097893D01*
X0060789Y0099091D02*
X0056862Y0099091D01*
X0055196Y0100290D02*
X0059590Y0100290D01*
X0058392Y0101488D02*
X0015850Y0101488D01*
X0015850Y0100290D02*
X0025319Y0100290D01*
X0027181Y0100290D02*
X0036790Y0100290D01*
X0035360Y0099091D02*
X0029084Y0099091D01*
X0029272Y0094297D02*
X0035202Y0094297D01*
X0036369Y0093099D02*
X0027637Y0093099D01*
X0024863Y0093099D02*
X0015850Y0093099D01*
X0015850Y0094297D02*
X0023228Y0094297D01*
X0022632Y0095496D02*
X0015850Y0095496D01*
X0015850Y0096694D02*
X0022485Y0096694D01*
X0022710Y0097893D02*
X0015850Y0097893D01*
X0015850Y0099091D02*
X0023416Y0099091D01*
X0015850Y0102687D02*
X0052843Y0102687D01*
X0054657Y0102687D02*
X0057193Y0102687D01*
X0052304Y0100290D02*
X0040710Y0100290D01*
X0042140Y0099091D02*
X0050638Y0099091D01*
X0050449Y0094297D02*
X0042298Y0094297D01*
X0041131Y0093099D02*
X0051650Y0093099D01*
X0051650Y0091900D02*
X0015850Y0091900D01*
X0015850Y0090702D02*
X0051650Y0090702D01*
X0049788Y0089503D02*
X0015850Y0089503D01*
X0015850Y0088305D02*
X0049788Y0088305D01*
X0049788Y0087106D02*
X0015850Y0087106D01*
X0015850Y0085908D02*
X0049788Y0085908D01*
X0049788Y0084709D02*
X0015850Y0084709D01*
X0015850Y0083511D02*
X0049852Y0083511D01*
X0051506Y0079959D02*
X0050391Y0078844D01*
X0049788Y0077388D01*
X0049788Y0075812D01*
X0050391Y0074356D01*
X0051506Y0073241D01*
X0052962Y0072638D01*
X0054538Y0072638D01*
X0055994Y0073241D01*
X0057109Y0074356D01*
X0057169Y0074500D01*
X0077618Y0074500D01*
X0077724Y0074244D01*
X0078894Y0073074D01*
X0079150Y0072968D01*
X0079150Y0068230D01*
X0084150Y0063230D01*
X0085380Y0062000D01*
X0157120Y0062000D01*
X0162120Y0067000D01*
X0163350Y0068230D01*
X0163350Y0073394D01*
X0163383Y0073408D01*
X0164442Y0074467D01*
X0165015Y0075851D01*
X0165015Y0077349D01*
X0164442Y0078733D01*
X0163383Y0079792D01*
X0161999Y0080365D01*
X0160501Y0080365D01*
X0159117Y0079792D01*
X0158058Y0078733D01*
X0157485Y0077349D01*
X0157485Y0075851D01*
X0158058Y0074467D01*
X0159117Y0073408D01*
X0159150Y0073394D01*
X0159150Y0069970D01*
X0155380Y0066200D01*
X0087120Y0066200D01*
X0083350Y0069970D01*
X0083350Y0072968D01*
X0083606Y0073074D01*
X0084776Y0074244D01*
X0085409Y0075773D01*
X0085409Y0077427D01*
X0084776Y0078956D01*
X0083606Y0080126D01*
X0082077Y0080759D01*
X0080423Y0080759D01*
X0078894Y0080126D01*
X0077724Y0078956D01*
X0077618Y0078700D01*
X0057169Y0078700D01*
X0057109Y0078844D01*
X0055994Y0079959D01*
X0054538Y0080562D01*
X0052962Y0080562D01*
X0051506Y0079959D01*
X0051462Y0079915D02*
X0015850Y0079915D01*
X0015850Y0078717D02*
X0050338Y0078717D01*
X0049842Y0077518D02*
X0015850Y0077518D01*
X0015850Y0076320D02*
X0049788Y0076320D01*
X0050074Y0075121D02*
X0015850Y0075121D01*
X0015850Y0073923D02*
X0050824Y0073923D01*
X0052754Y0072724D02*
X0015850Y0072724D01*
X0015850Y0071526D02*
X0079150Y0071526D01*
X0079150Y0072724D02*
X0054746Y0072724D01*
X0056676Y0073923D02*
X0078046Y0073923D01*
X0077625Y0078717D02*
X0057162Y0078717D01*
X0056038Y0079915D02*
X0078683Y0079915D01*
X0083817Y0079915D02*
X0091183Y0079915D01*
X0091394Y0080126D02*
X0090224Y0078956D01*
X0089591Y0077427D01*
X0089591Y0075773D01*
X0090224Y0074244D01*
X0091394Y0073074D01*
X0091650Y0072968D01*
X0091650Y0071980D01*
X0094150Y0069480D01*
X0095380Y0068250D01*
X0149620Y0068250D01*
X0150850Y0069480D01*
X0153350Y0071980D01*
X0153350Y0073394D01*
X0153383Y0073408D01*
X0154442Y0074467D01*
X0155015Y0075851D01*
X0155015Y0077349D01*
X0154442Y0078733D01*
X0153772Y0079403D01*
X0154870Y0080500D01*
X0168130Y0080500D01*
X0170400Y0078230D01*
X0171630Y0077000D01*
X0182831Y0077000D01*
X0182891Y0076856D01*
X0184006Y0075741D01*
X0185462Y0075138D01*
X0187038Y0075138D01*
X0188494Y0075741D01*
X0189609Y0076856D01*
X0190212Y0078312D01*
X0190212Y0079888D01*
X0189609Y0081344D01*
X0188494Y0082459D01*
X0187038Y0083062D01*
X0185462Y0083062D01*
X0184006Y0082459D01*
X0182891Y0081344D01*
X0182831Y0081200D01*
X0173370Y0081200D01*
X0169870Y0084700D01*
X0153130Y0084700D01*
X0151900Y0083470D01*
X0149150Y0080720D01*
X0149150Y0079806D01*
X0149117Y0079792D01*
X0148058Y0078733D01*
X0147485Y0077349D01*
X0147485Y0075851D01*
X0148058Y0074467D01*
X0148978Y0073547D01*
X0147880Y0072450D01*
X0097120Y0072450D01*
X0096301Y0073269D01*
X0097276Y0074244D01*
X0097909Y0075773D01*
X0097909Y0077427D01*
X0097276Y0078956D01*
X0096106Y0080126D01*
X0094577Y0080759D01*
X0092923Y0080759D01*
X0091394Y0080126D01*
X0090125Y0078717D02*
X0084875Y0078717D01*
X0085371Y0077518D02*
X0089629Y0077518D01*
X0089591Y0076320D02*
X0085409Y0076320D01*
X0085139Y0075121D02*
X0089861Y0075121D01*
X0090546Y0073923D02*
X0084454Y0073923D01*
X0083350Y0072724D02*
X0091650Y0072724D01*
X0092105Y0071526D02*
X0083350Y0071526D01*
X0083350Y0070327D02*
X0093303Y0070327D01*
X0094150Y0069480D02*
X0094150Y0069480D01*
X0094502Y0069129D02*
X0084191Y0069129D01*
X0085390Y0067930D02*
X0157110Y0067930D01*
X0155912Y0066732D02*
X0086588Y0066732D01*
X0084244Y0063136D02*
X0015850Y0063136D01*
X0015850Y0064334D02*
X0083046Y0064334D01*
X0081847Y0065533D02*
X0015850Y0065533D01*
X0015850Y0066732D02*
X0080649Y0066732D01*
X0079450Y0067930D02*
X0015850Y0067930D01*
X0015850Y0069129D02*
X0079150Y0069129D01*
X0079150Y0070327D02*
X0015850Y0070327D01*
X0015850Y0061937D02*
X0226650Y0061937D01*
X0226650Y0060739D02*
X0094626Y0060739D01*
X0094577Y0060759D02*
X0092923Y0060759D01*
X0091394Y0060126D01*
X0090224Y0058956D01*
X0089591Y0057427D01*
X0089591Y0055773D01*
X0090224Y0054244D01*
X0091394Y0053074D01*
X0091650Y0052968D01*
X0091650Y0052470D01*
X0090443Y0051263D01*
X0073893Y0051263D01*
X0073893Y0053369D01*
X0072956Y0054306D01*
X0064544Y0054306D01*
X0063607Y0053369D01*
X0063607Y0044957D01*
X0064544Y0044020D01*
X0072956Y0044020D01*
X0073893Y0044957D01*
X0073893Y0047063D01*
X0092183Y0047063D01*
X0094620Y0049500D01*
X0095850Y0050730D01*
X0095850Y0052968D01*
X0096106Y0053074D01*
X0097276Y0054244D01*
X0097909Y0055773D01*
X0097909Y0057427D01*
X0097276Y0058956D01*
X0096106Y0060126D01*
X0094577Y0060759D01*
X0092874Y0060739D02*
X0082126Y0060739D01*
X0082077Y0060759D02*
X0080423Y0060759D01*
X0078894Y0060126D01*
X0077724Y0058956D01*
X0077618Y0058700D01*
X0030380Y0058700D01*
X0029150Y0057470D01*
X0029150Y0057470D01*
X0027880Y0056200D01*
X0026650Y0054970D01*
X0026650Y0053860D01*
X0025837Y0053523D01*
X0024390Y0052076D01*
X0023607Y0050186D01*
X0023607Y0048140D01*
X0024390Y0046250D01*
X0025837Y0044803D01*
X0027727Y0044020D01*
X0029773Y0044020D01*
X0031663Y0044803D01*
X0033110Y0046250D01*
X0033893Y0048140D01*
X0033893Y0050186D01*
X0033110Y0052076D01*
X0031663Y0053523D01*
X0031295Y0053676D01*
X0032120Y0054500D01*
X0077618Y0054500D01*
X0077724Y0054244D01*
X0078894Y0053074D01*
X0080423Y0052441D01*
X0082077Y0052441D01*
X0083606Y0053074D01*
X0084776Y0054244D01*
X0085409Y0055773D01*
X0085409Y0057427D01*
X0084776Y0058956D01*
X0083606Y0060126D01*
X0082077Y0060759D01*
X0080374Y0060739D02*
X0015850Y0060739D01*
X0015850Y0059540D02*
X0078309Y0059540D01*
X0078420Y0053548D02*
X0073714Y0053548D01*
X0073893Y0052349D02*
X0091530Y0052349D01*
X0090920Y0053548D02*
X0084080Y0053548D01*
X0084984Y0054746D02*
X0090016Y0054746D01*
X0089591Y0055945D02*
X0085409Y0055945D01*
X0085409Y0057143D02*
X0089591Y0057143D01*
X0089970Y0058342D02*
X0085030Y0058342D01*
X0084191Y0059540D02*
X0090809Y0059540D01*
X0096691Y0059540D02*
X0226650Y0059540D01*
X0226650Y0058342D02*
X0192478Y0058342D01*
X0192120Y0058700D02*
X0194620Y0056200D01*
X0195850Y0054970D01*
X0195850Y0053860D01*
X0196663Y0053523D01*
X0198110Y0052076D01*
X0198893Y0050186D01*
X0198893Y0048140D01*
X0198110Y0046250D01*
X0196663Y0044803D01*
X0194773Y0044020D01*
X0192727Y0044020D01*
X0190837Y0044803D01*
X0189390Y0046250D01*
X0188607Y0048140D01*
X0188607Y0050186D01*
X0189390Y0052076D01*
X0190837Y0053523D01*
X0191204Y0053676D01*
X0190380Y0054500D01*
X0144620Y0054500D01*
X0143350Y0053230D01*
X0143350Y0049806D01*
X0143383Y0049792D01*
X0144442Y0048733D01*
X0145015Y0047349D01*
X0145015Y0045851D01*
X0144442Y0044467D01*
X0143383Y0043408D01*
X0141999Y0042835D01*
X0140501Y0042835D01*
X0139117Y0043408D01*
X0138058Y0044467D01*
X0137485Y0045851D01*
X0137485Y0047349D01*
X0138058Y0048733D01*
X0139117Y0049792D01*
X0139150Y0049806D01*
X0139150Y0054970D01*
X0141650Y0057470D01*
X0142880Y0058700D01*
X0192120Y0058700D01*
X0193676Y0057143D02*
X0226650Y0057143D01*
X0226650Y0055945D02*
X0194875Y0055945D01*
X0195850Y0054746D02*
X0226650Y0054746D01*
X0226650Y0053548D02*
X0218714Y0053548D01*
X0218893Y0053369D02*
X0217956Y0054306D01*
X0209544Y0054306D01*
X0208607Y0053369D01*
X0208607Y0044957D01*
X0209544Y0044020D01*
X0210700Y0044020D01*
X0210380Y0043700D01*
X0195380Y0043700D01*
X0194833Y0043153D01*
X0194577Y0043259D01*
X0192923Y0043259D01*
X0191394Y0042626D01*
X0190224Y0041456D01*
X0189591Y0039927D01*
X0189591Y0038273D01*
X0190224Y0036744D01*
X0191324Y0035644D01*
X0190380Y0034700D01*
X0162120Y0034700D01*
X0153397Y0043422D01*
X0154442Y0044467D01*
X0155015Y0045851D01*
X0155015Y0047349D01*
X0154442Y0048733D01*
X0153383Y0049792D01*
X0151999Y0050365D01*
X0150501Y0050365D01*
X0149117Y0049792D01*
X0148058Y0048733D01*
X0147485Y0047349D01*
X0147485Y0045851D01*
X0148058Y0044467D01*
X0149117Y0043408D01*
X0149150Y0043394D01*
X0149150Y0041730D01*
X0160380Y0030500D01*
X0192120Y0030500D01*
X0194620Y0033000D01*
X0195850Y0034230D01*
X0195850Y0035468D01*
X0196106Y0035574D01*
X0197276Y0036744D01*
X0197909Y0038273D01*
X0197909Y0039500D01*
X0212120Y0039500D01*
X0214620Y0042000D01*
X0215850Y0043230D01*
X0215850Y0044020D01*
X0217956Y0044020D01*
X0218893Y0044957D01*
X0218893Y0053369D01*
X0218893Y0052349D02*
X0226650Y0052349D01*
X0226650Y0051151D02*
X0218893Y0051151D01*
X0218893Y0049952D02*
X0226633Y0049952D01*
X0226650Y0049970D02*
X0205380Y0028700D01*
X0140521Y0028700D01*
X0140277Y0029290D01*
X0138940Y0030627D01*
X0137195Y0031350D01*
X0135305Y0031350D01*
X0133560Y0030627D01*
X0132223Y0029290D01*
X0131500Y0027545D01*
X0131500Y0025655D01*
X0132223Y0023910D01*
X0133560Y0022573D01*
X0135305Y0021850D01*
X0137195Y0021850D01*
X0138940Y0022573D01*
X0140277Y0023910D01*
X0140521Y0024500D01*
X0207120Y0024500D01*
X0208350Y0025730D01*
X0230850Y0048230D01*
X0230850Y0172470D01*
X0229620Y0173700D01*
X0185870Y0217450D01*
X0149263Y0217450D01*
X0148787Y0218598D01*
X0147174Y0220211D01*
X0145067Y0221084D01*
X0142786Y0221084D01*
X0140678Y0220211D01*
X0139065Y0218598D01*
X0138192Y0216491D01*
X0138192Y0214209D01*
X0139065Y0212102D01*
X0140678Y0210489D01*
X0142786Y0209616D01*
X0145067Y0209616D01*
X0147174Y0210489D01*
X0148787Y0212102D01*
X0149263Y0213250D01*
X0184130Y0213250D01*
X0226650Y0170730D01*
X0226650Y0049970D01*
X0225434Y0048754D02*
X0218893Y0048754D01*
X0218893Y0047555D02*
X0224235Y0047555D01*
X0223037Y0046357D02*
X0218893Y0046357D01*
X0218893Y0045158D02*
X0221838Y0045158D01*
X0220640Y0043960D02*
X0215850Y0043960D01*
X0215381Y0042761D02*
X0219441Y0042761D01*
X0218243Y0041563D02*
X0214183Y0041563D01*
X0212984Y0040364D02*
X0217044Y0040364D01*
X0215846Y0039166D02*
X0197909Y0039166D01*
X0197783Y0037967D02*
X0214647Y0037967D01*
X0213449Y0036769D02*
X0197286Y0036769D01*
X0196096Y0035570D02*
X0212250Y0035570D01*
X0211052Y0034372D02*
X0195850Y0034372D01*
X0194793Y0033173D02*
X0209853Y0033173D01*
X0208655Y0031975D02*
X0193595Y0031975D01*
X0192396Y0030776D02*
X0207456Y0030776D01*
X0206258Y0029578D02*
X0139989Y0029578D01*
X0138579Y0030776D02*
X0160104Y0030776D01*
X0158905Y0031975D02*
X0033845Y0031975D01*
X0032647Y0033173D02*
X0157707Y0033173D01*
X0156508Y0034372D02*
X0031448Y0034372D01*
X0030250Y0035570D02*
X0155310Y0035570D01*
X0154111Y0036769D02*
X0029051Y0036769D01*
X0027853Y0037967D02*
X0152913Y0037967D01*
X0151714Y0039166D02*
X0026654Y0039166D01*
X0025456Y0040364D02*
X0049516Y0040364D01*
X0049150Y0040730D02*
X0050380Y0039500D01*
X0102120Y0039500D01*
X0104620Y0042000D01*
X0105850Y0043230D01*
X0105850Y0043394D01*
X0105883Y0043408D01*
X0106942Y0044467D01*
X0107515Y0045851D01*
X0107515Y0047349D01*
X0106942Y0048733D01*
X0105883Y0049792D01*
X0104499Y0050365D01*
X0103001Y0050365D01*
X0101617Y0049792D01*
X0100558Y0048733D01*
X0099985Y0047349D01*
X0099985Y0045851D01*
X0100558Y0044467D01*
X0100853Y0044172D01*
X0100380Y0043700D01*
X0052120Y0043700D01*
X0051206Y0044613D01*
X0051663Y0044803D01*
X0053110Y0046250D01*
X0053893Y0048140D01*
X0053893Y0050186D01*
X0053110Y0052076D01*
X0051663Y0053523D01*
X0049773Y0054306D01*
X0047727Y0054306D01*
X0045837Y0053523D01*
X0044390Y0052076D01*
X0043607Y0050186D01*
X0043607Y0048140D01*
X0044390Y0046250D01*
X0045837Y0044803D01*
X0046650Y0044466D01*
X0046650Y0043230D01*
X0049150Y0040730D01*
X0048317Y0041563D02*
X0024257Y0041563D01*
X0023059Y0042761D02*
X0047119Y0042761D01*
X0046650Y0043960D02*
X0021860Y0043960D01*
X0020662Y0045158D02*
X0025481Y0045158D01*
X0024345Y0046357D02*
X0019463Y0046357D01*
X0018264Y0047555D02*
X0023849Y0047555D01*
X0023607Y0048754D02*
X0017066Y0048754D01*
X0015867Y0049952D02*
X0023607Y0049952D01*
X0024006Y0051151D02*
X0015850Y0051151D01*
X0015850Y0052349D02*
X0024663Y0052349D01*
X0025896Y0053548D02*
X0015850Y0053548D01*
X0015850Y0054746D02*
X0026650Y0054746D01*
X0027625Y0055945D02*
X0015850Y0055945D01*
X0015850Y0057143D02*
X0028824Y0057143D01*
X0027880Y0056200D02*
X0027880Y0056200D01*
X0030022Y0058342D02*
X0015850Y0058342D01*
X0031604Y0053548D02*
X0045896Y0053548D01*
X0044663Y0052349D02*
X0032837Y0052349D01*
X0033494Y0051151D02*
X0044006Y0051151D01*
X0043607Y0049952D02*
X0033893Y0049952D01*
X0033893Y0048754D02*
X0043607Y0048754D01*
X0043849Y0047555D02*
X0033651Y0047555D01*
X0033155Y0046357D02*
X0044345Y0046357D01*
X0045481Y0045158D02*
X0032019Y0045158D01*
X0035044Y0030776D02*
X0103921Y0030776D01*
X0102511Y0029578D02*
X0036242Y0029578D01*
X0051860Y0043960D02*
X0100640Y0043960D01*
X0100272Y0045158D02*
X0073893Y0045158D01*
X0073893Y0046357D02*
X0099985Y0046357D01*
X0100070Y0047555D02*
X0092675Y0047555D01*
X0093874Y0048754D02*
X0100579Y0048754D01*
X0102004Y0049952D02*
X0095072Y0049952D01*
X0095850Y0051151D02*
X0139150Y0051151D01*
X0139150Y0052349D02*
X0095850Y0052349D01*
X0096580Y0053548D02*
X0139150Y0053548D01*
X0139150Y0054746D02*
X0097484Y0054746D01*
X0097909Y0055945D02*
X0140125Y0055945D01*
X0141324Y0057143D02*
X0097909Y0057143D01*
X0097530Y0058342D02*
X0142522Y0058342D01*
X0143668Y0053548D02*
X0170896Y0053548D01*
X0170837Y0053523D02*
X0169390Y0052076D01*
X0169053Y0051263D01*
X0165443Y0051263D01*
X0165380Y0051200D01*
X0162880Y0051200D01*
X0162032Y0050352D01*
X0161999Y0050365D01*
X0160501Y0050365D01*
X0159117Y0049792D01*
X0158058Y0048733D01*
X0157485Y0047349D01*
X0157485Y0045851D01*
X0158058Y0044467D01*
X0159117Y0043408D01*
X0160501Y0042835D01*
X0161999Y0042835D01*
X0163383Y0043408D01*
X0164442Y0044467D01*
X0165015Y0045851D01*
X0165015Y0047000D01*
X0167120Y0047000D01*
X0167183Y0047063D01*
X0169053Y0047063D01*
X0169390Y0046250D01*
X0170837Y0044803D01*
X0171650Y0044466D01*
X0171650Y0042732D01*
X0171394Y0042626D01*
X0170224Y0041456D01*
X0169591Y0039927D01*
X0169591Y0038273D01*
X0170224Y0036744D01*
X0171394Y0035574D01*
X0172923Y0034941D01*
X0174577Y0034941D01*
X0176106Y0035574D01*
X0177276Y0036744D01*
X0177909Y0038273D01*
X0177909Y0039927D01*
X0177276Y0041456D01*
X0176106Y0042626D01*
X0175850Y0042732D01*
X0175850Y0044466D01*
X0176663Y0044803D01*
X0178110Y0046250D01*
X0178893Y0048140D01*
X0178893Y0050186D01*
X0178110Y0052076D01*
X0176663Y0053523D01*
X0174773Y0054306D01*
X0172727Y0054306D01*
X0170837Y0053523D01*
X0169663Y0052349D02*
X0143350Y0052349D01*
X0143350Y0051151D02*
X0162831Y0051151D01*
X0159504Y0049952D02*
X0152996Y0049952D01*
X0154421Y0048754D02*
X0158079Y0048754D01*
X0157570Y0047555D02*
X0154930Y0047555D01*
X0155015Y0046357D02*
X0157485Y0046357D01*
X0157772Y0045158D02*
X0154728Y0045158D01*
X0153935Y0043960D02*
X0158565Y0043960D01*
X0155257Y0041563D02*
X0170331Y0041563D01*
X0169772Y0040364D02*
X0156456Y0040364D01*
X0157654Y0039166D02*
X0169591Y0039166D01*
X0169717Y0037967D02*
X0158853Y0037967D01*
X0160051Y0036769D02*
X0170214Y0036769D01*
X0171403Y0035570D02*
X0161250Y0035570D01*
X0163935Y0043960D02*
X0171650Y0043960D01*
X0171650Y0042761D02*
X0154059Y0042761D01*
X0150516Y0040364D02*
X0102984Y0040364D01*
X0104183Y0041563D02*
X0149317Y0041563D01*
X0149150Y0042761D02*
X0105381Y0042761D01*
X0106435Y0043960D02*
X0138565Y0043960D01*
X0137772Y0045158D02*
X0107228Y0045158D01*
X0107515Y0046357D02*
X0137485Y0046357D01*
X0137570Y0047555D02*
X0107430Y0047555D01*
X0106921Y0048754D02*
X0138079Y0048754D01*
X0139150Y0049952D02*
X0105496Y0049952D01*
X0108579Y0030776D02*
X0113921Y0030776D01*
X0113560Y0030627D02*
X0112223Y0029290D01*
X0111500Y0027545D01*
X0111500Y0025655D01*
X0112223Y0023910D01*
X0113560Y0022573D01*
X0115305Y0021850D01*
X0117195Y0021850D01*
X0118940Y0022573D01*
X0120277Y0023910D01*
X0121000Y0025655D01*
X0121000Y0027545D01*
X0120277Y0029290D01*
X0118940Y0030627D01*
X0117195Y0031350D01*
X0115305Y0031350D01*
X0113560Y0030627D01*
X0112511Y0029578D02*
X0109989Y0029578D01*
X0110654Y0028379D02*
X0111846Y0028379D01*
X0111500Y0027181D02*
X0111000Y0027181D01*
X0111000Y0025982D02*
X0111500Y0025982D01*
X0111861Y0024784D02*
X0110639Y0024784D01*
X0109952Y0023585D02*
X0112548Y0023585D01*
X0114011Y0022387D02*
X0108489Y0022387D01*
X0107585Y0021188D02*
X0114915Y0021188D01*
X0115305Y0021350D02*
X0113560Y0020627D01*
X0112223Y0019290D01*
X0111500Y0017545D01*
X0111500Y0015655D01*
X0112223Y0013910D01*
X0113560Y0012573D01*
X0115305Y0011850D01*
X0117195Y0011850D01*
X0118940Y0012573D01*
X0120277Y0013910D01*
X0121000Y0015655D01*
X0121000Y0017545D01*
X0120277Y0019290D01*
X0118940Y0020627D01*
X0117195Y0021350D01*
X0115305Y0021350D01*
X0117585Y0021188D02*
X0124915Y0021188D01*
X0125305Y0021350D02*
X0123560Y0020627D01*
X0122223Y0019290D01*
X0121500Y0017545D01*
X0121500Y0015655D01*
X0122223Y0013910D01*
X0123560Y0012573D01*
X0125305Y0011850D01*
X0127195Y0011850D01*
X0128940Y0012573D01*
X0130277Y0013910D01*
X0131000Y0015655D01*
X0131000Y0017545D01*
X0130277Y0019290D01*
X0128940Y0020627D01*
X0127195Y0021350D01*
X0125305Y0021350D01*
X0125138Y0021967D02*
X0125876Y0021850D01*
X0125964Y0021850D01*
X0125964Y0026314D01*
X0126536Y0026314D01*
X0126536Y0026886D01*
X0131000Y0026886D01*
X0131000Y0026974D01*
X0130883Y0027712D01*
X0130652Y0028423D01*
X0130312Y0029089D01*
X0129873Y0029694D01*
X0129344Y0030223D01*
X0128739Y0030662D01*
X0128073Y0031002D01*
X0127362Y0031233D01*
X0126624Y0031350D01*
X0126536Y0031350D01*
X0126536Y0026886D01*
X0125964Y0026886D01*
X0125964Y0031350D01*
X0125876Y0031350D01*
X0125138Y0031233D01*
X0124427Y0031002D01*
X0123761Y0030662D01*
X0123156Y0030223D01*
X0122627Y0029694D01*
X0122188Y0029089D01*
X0121848Y0028423D01*
X0121617Y0027712D01*
X0121500Y0026974D01*
X0121500Y0026886D01*
X0125964Y0026886D01*
X0125964Y0026314D01*
X0121500Y0026314D01*
X0121500Y0026226D01*
X0121617Y0025488D01*
X0121848Y0024777D01*
X0122188Y0024111D01*
X0122627Y0023506D01*
X0123156Y0022977D01*
X0123761Y0022538D01*
X0124427Y0022198D01*
X0125138Y0021967D01*
X0125964Y0022387D02*
X0126536Y0022387D01*
X0126536Y0021850D02*
X0126624Y0021850D01*
X0127362Y0021967D01*
X0128073Y0022198D01*
X0128739Y0022538D01*
X0129344Y0022977D01*
X0129873Y0023506D01*
X0130312Y0024111D01*
X0130652Y0024777D01*
X0130883Y0025488D01*
X0131000Y0026226D01*
X0131000Y0026314D01*
X0126536Y0026314D01*
X0126536Y0021850D01*
X0127585Y0021188D02*
X0134915Y0021188D01*
X0135305Y0021350D02*
X0133560Y0020627D01*
X0132223Y0019290D01*
X0131500Y0017545D01*
X0131500Y0015655D01*
X0132223Y0013910D01*
X0133560Y0012573D01*
X0135305Y0011850D01*
X0137195Y0011850D01*
X0138940Y0012573D01*
X0140277Y0013910D01*
X0141000Y0015655D01*
X0141000Y0017545D01*
X0140277Y0019290D01*
X0138940Y0020627D01*
X0137195Y0021350D01*
X0135305Y0021350D01*
X0134011Y0022387D02*
X0128443Y0022387D01*
X0129930Y0023585D02*
X0132548Y0023585D01*
X0131861Y0024784D02*
X0130654Y0024784D01*
X0130961Y0025982D02*
X0131500Y0025982D01*
X0131500Y0027181D02*
X0130967Y0027181D01*
X0130666Y0028379D02*
X0131846Y0028379D01*
X0132511Y0029578D02*
X0129957Y0029578D01*
X0128516Y0030776D02*
X0133921Y0030776D01*
X0126536Y0030776D02*
X0125964Y0030776D01*
X0125964Y0029578D02*
X0126536Y0029578D01*
X0126536Y0028379D02*
X0125964Y0028379D01*
X0125964Y0027181D02*
X0126536Y0027181D01*
X0126536Y0025982D02*
X0125964Y0025982D01*
X0125964Y0024784D02*
X0126536Y0024784D01*
X0126536Y0023585D02*
X0125964Y0023585D01*
X0124057Y0022387D02*
X0118489Y0022387D01*
X0119952Y0023585D02*
X0122570Y0023585D01*
X0121846Y0024784D02*
X0120639Y0024784D01*
X0121000Y0025982D02*
X0121539Y0025982D01*
X0121533Y0027181D02*
X0121000Y0027181D01*
X0120654Y0028379D02*
X0121834Y0028379D01*
X0122543Y0029578D02*
X0119989Y0029578D01*
X0118579Y0030776D02*
X0123984Y0030776D01*
X0122923Y0019990D02*
X0119577Y0019990D01*
X0120483Y0018791D02*
X0122017Y0018791D01*
X0121520Y0017593D02*
X0120980Y0017593D01*
X0121000Y0016394D02*
X0121500Y0016394D01*
X0121691Y0015196D02*
X0120809Y0015196D01*
X0120313Y0013997D02*
X0122187Y0013997D01*
X0123335Y0012799D02*
X0119165Y0012799D01*
X0113335Y0012799D02*
X0109165Y0012799D01*
X0110313Y0013997D02*
X0112187Y0013997D01*
X0111691Y0015196D02*
X0110809Y0015196D01*
X0111000Y0016394D02*
X0111500Y0016394D01*
X0111520Y0017593D02*
X0110980Y0017593D01*
X0110483Y0018791D02*
X0112017Y0018791D01*
X0112923Y0019990D02*
X0109577Y0019990D01*
X0129577Y0019990D02*
X0132923Y0019990D01*
X0132017Y0018791D02*
X0130483Y0018791D01*
X0130980Y0017593D02*
X0131520Y0017593D01*
X0131500Y0016394D02*
X0131000Y0016394D01*
X0130809Y0015196D02*
X0131691Y0015196D01*
X0132187Y0013997D02*
X0130313Y0013997D01*
X0129165Y0012799D02*
X0133335Y0012799D01*
X0139165Y0012799D02*
X0234683Y0012799D01*
X0234683Y0013997D02*
X0140313Y0013997D01*
X0140809Y0015196D02*
X0234683Y0015196D01*
X0234683Y0016394D02*
X0141000Y0016394D01*
X0140980Y0017593D02*
X0234683Y0017593D01*
X0234683Y0018791D02*
X0140483Y0018791D01*
X0139577Y0019990D02*
X0234683Y0019990D01*
X0234683Y0021188D02*
X0137585Y0021188D01*
X0138489Y0022387D02*
X0234683Y0022387D01*
X0234683Y0023585D02*
X0139952Y0023585D01*
X0143935Y0043960D02*
X0148565Y0043960D01*
X0147772Y0045158D02*
X0144728Y0045158D01*
X0145015Y0046357D02*
X0147485Y0046357D01*
X0147570Y0047555D02*
X0144930Y0047555D01*
X0144421Y0048754D02*
X0148079Y0048754D01*
X0149504Y0049952D02*
X0143350Y0049952D01*
X0158256Y0063136D02*
X0226650Y0063136D01*
X0226650Y0064334D02*
X0159454Y0064334D01*
X0160653Y0065533D02*
X0226650Y0065533D01*
X0226650Y0066732D02*
X0161851Y0066732D01*
X0163050Y0067930D02*
X0226650Y0067930D01*
X0226650Y0069129D02*
X0163350Y0069129D01*
X0163350Y0070327D02*
X0226650Y0070327D01*
X0226650Y0071526D02*
X0163350Y0071526D01*
X0163350Y0072724D02*
X0226650Y0072724D01*
X0226650Y0073923D02*
X0163898Y0073923D01*
X0164713Y0075121D02*
X0226650Y0075121D01*
X0226650Y0076320D02*
X0200212Y0076320D01*
X0200212Y0076075D02*
X0200212Y0077592D01*
X0202120Y0079500D01*
X0203350Y0080730D01*
X0203350Y0087968D01*
X0203606Y0088074D01*
X0204776Y0089244D01*
X0205409Y0090773D01*
X0205409Y0092427D01*
X0205303Y0092683D01*
X0210850Y0098230D01*
X0210850Y0124970D01*
X0205850Y0129970D01*
X0205850Y0133394D01*
X0205883Y0133408D01*
X0206942Y0134467D01*
X0207515Y0135851D01*
X0207515Y0137349D01*
X0206942Y0138733D01*
X0205883Y0139792D01*
X0205850Y0139806D01*
X0205850Y0142968D01*
X0206106Y0143074D01*
X0207276Y0144244D01*
X0207909Y0145773D01*
X0207909Y0147427D01*
X0207276Y0148956D01*
X0206106Y0150126D01*
X0204577Y0150759D01*
X0202923Y0150759D01*
X0201394Y0150126D01*
X0200224Y0148956D01*
X0199591Y0147427D01*
X0199591Y0145773D01*
X0200224Y0144244D01*
X0201394Y0143074D01*
X0201650Y0142968D01*
X0201650Y0139806D01*
X0201617Y0139792D01*
X0200558Y0138733D01*
X0199985Y0137349D01*
X0199985Y0135851D01*
X0200558Y0134467D01*
X0201617Y0133408D01*
X0201650Y0133394D01*
X0201650Y0128230D01*
X0202880Y0127000D01*
X0202880Y0127000D01*
X0206650Y0123230D01*
X0206650Y0099970D01*
X0202333Y0095653D01*
X0202077Y0095759D01*
X0200423Y0095759D01*
X0198894Y0095126D01*
X0197724Y0093956D01*
X0197618Y0093700D01*
X0187169Y0093700D01*
X0187109Y0093844D01*
X0185994Y0094959D01*
X0184538Y0095562D01*
X0182962Y0095562D01*
X0181506Y0094959D01*
X0180391Y0093844D01*
X0179788Y0092388D01*
X0179788Y0090812D01*
X0180391Y0089356D01*
X0181506Y0088241D01*
X0182962Y0087638D01*
X0184538Y0087638D01*
X0185994Y0088241D01*
X0187109Y0089356D01*
X0187169Y0089500D01*
X0197618Y0089500D01*
X0197724Y0089244D01*
X0198894Y0088074D01*
X0199150Y0087968D01*
X0199150Y0083062D01*
X0193225Y0083062D01*
X0192288Y0082125D01*
X0192288Y0076075D01*
X0193225Y0075138D01*
X0199275Y0075138D01*
X0200212Y0076075D01*
X0200212Y0077518D02*
X0226650Y0077518D01*
X0226650Y0078717D02*
X0201336Y0078717D01*
X0202535Y0079915D02*
X0226650Y0079915D01*
X0226650Y0081114D02*
X0203350Y0081114D01*
X0203350Y0082312D02*
X0226650Y0082312D01*
X0226650Y0083511D02*
X0203350Y0083511D01*
X0203350Y0084709D02*
X0226650Y0084709D01*
X0226650Y0085908D02*
X0203350Y0085908D01*
X0203350Y0087106D02*
X0226650Y0087106D01*
X0226650Y0088305D02*
X0203837Y0088305D01*
X0204883Y0089503D02*
X0226650Y0089503D01*
X0226650Y0090702D02*
X0205380Y0090702D01*
X0205409Y0091900D02*
X0226650Y0091900D01*
X0226650Y0093099D02*
X0205719Y0093099D01*
X0206917Y0094297D02*
X0226650Y0094297D01*
X0226650Y0095496D02*
X0208116Y0095496D01*
X0209314Y0096694D02*
X0226650Y0096694D01*
X0226650Y0097893D02*
X0210513Y0097893D01*
X0210850Y0099091D02*
X0226650Y0099091D01*
X0226650Y0100290D02*
X0210850Y0100290D01*
X0210850Y0101488D02*
X0226650Y0101488D01*
X0226650Y0102687D02*
X0210850Y0102687D01*
X0210850Y0103885D02*
X0226650Y0103885D01*
X0226650Y0105084D02*
X0210850Y0105084D01*
X0210850Y0106282D02*
X0226650Y0106282D01*
X0226650Y0107481D02*
X0210850Y0107481D01*
X0210850Y0108679D02*
X0226650Y0108679D01*
X0226650Y0109878D02*
X0210850Y0109878D01*
X0210850Y0111076D02*
X0226650Y0111076D01*
X0226650Y0112275D02*
X0210850Y0112275D01*
X0210850Y0113473D02*
X0226650Y0113473D01*
X0226650Y0114672D02*
X0210850Y0114672D01*
X0210850Y0115870D02*
X0226650Y0115870D01*
X0226650Y0117069D02*
X0210850Y0117069D01*
X0210850Y0118268D02*
X0226650Y0118268D01*
X0226650Y0119466D02*
X0210850Y0119466D01*
X0210850Y0120665D02*
X0226650Y0120665D01*
X0226650Y0121863D02*
X0210850Y0121863D01*
X0210850Y0123062D02*
X0226650Y0123062D01*
X0226650Y0124260D02*
X0210850Y0124260D01*
X0210361Y0125459D02*
X0226650Y0125459D01*
X0226650Y0126657D02*
X0209163Y0126657D01*
X0207964Y0127856D02*
X0226650Y0127856D01*
X0226650Y0129054D02*
X0206766Y0129054D01*
X0205850Y0130253D02*
X0226650Y0130253D01*
X0226650Y0131451D02*
X0205850Y0131451D01*
X0205850Y0132650D02*
X0226650Y0132650D01*
X0226650Y0133848D02*
X0206323Y0133848D01*
X0207182Y0135047D02*
X0226650Y0135047D01*
X0226650Y0136245D02*
X0207515Y0136245D01*
X0207476Y0137444D02*
X0226650Y0137444D01*
X0226650Y0138642D02*
X0206980Y0138642D01*
X0205850Y0139841D02*
X0226650Y0139841D01*
X0226650Y0141039D02*
X0205850Y0141039D01*
X0205850Y0142238D02*
X0226650Y0142238D01*
X0226650Y0143436D02*
X0206468Y0143436D01*
X0207438Y0144635D02*
X0226650Y0144635D01*
X0226650Y0145833D02*
X0207909Y0145833D01*
X0207909Y0147032D02*
X0226650Y0147032D01*
X0226650Y0148230D02*
X0207576Y0148230D01*
X0206803Y0149429D02*
X0226650Y0149429D01*
X0226650Y0150627D02*
X0204895Y0150627D01*
X0202605Y0150627D02*
X0185850Y0150627D01*
X0185850Y0150232D02*
X0185850Y0152470D01*
X0184620Y0153700D01*
X0175850Y0162470D01*
X0175850Y0164466D01*
X0176663Y0164803D01*
X0178110Y0166250D01*
X0178893Y0168140D01*
X0178893Y0170186D01*
X0178110Y0172076D01*
X0176663Y0173523D01*
X0174773Y0174306D01*
X0172727Y0174306D01*
X0170837Y0173523D01*
X0169390Y0172076D01*
X0168607Y0170186D01*
X0168607Y0168140D01*
X0169390Y0166250D01*
X0170837Y0164803D01*
X0171650Y0164466D01*
X0171650Y0160730D01*
X0181650Y0150730D01*
X0181650Y0150232D01*
X0181394Y0150126D01*
X0180224Y0148956D01*
X0179591Y0147427D01*
X0179591Y0145773D01*
X0180224Y0144244D01*
X0181394Y0143074D01*
X0182923Y0142441D01*
X0184577Y0142441D01*
X0186106Y0143074D01*
X0187276Y0144244D01*
X0187909Y0145773D01*
X0187909Y0147427D01*
X0187276Y0148956D01*
X0186106Y0150126D01*
X0185850Y0150232D01*
X0186803Y0149429D02*
X0200697Y0149429D01*
X0199924Y0148230D02*
X0187576Y0148230D01*
X0187909Y0147032D02*
X0199591Y0147032D01*
X0199591Y0145833D02*
X0187909Y0145833D01*
X0187438Y0144635D02*
X0200062Y0144635D01*
X0201032Y0143436D02*
X0186468Y0143436D01*
X0181032Y0143436D02*
X0138293Y0143436D01*
X0138034Y0143263D02*
X0138650Y0143675D01*
X0139175Y0144200D01*
X0139587Y0144816D01*
X0139871Y0145502D01*
X0140015Y0146229D01*
X0140015Y0146600D01*
X0140015Y0146971D01*
X0139871Y0147698D01*
X0139587Y0148384D01*
X0139175Y0149000D01*
X0138650Y0149525D01*
X0138034Y0149937D01*
X0137348Y0150221D01*
X0136621Y0150365D01*
X0136250Y0150365D01*
X0135879Y0150365D01*
X0135152Y0150221D01*
X0134466Y0149937D01*
X0133850Y0149525D01*
X0133325Y0149000D01*
X0132913Y0148384D01*
X0132629Y0147698D01*
X0132485Y0146971D01*
X0132485Y0146600D01*
X0132485Y0146229D01*
X0132629Y0145502D01*
X0132913Y0144816D01*
X0133325Y0144200D01*
X0133850Y0143675D01*
X0134466Y0143263D01*
X0135152Y0142979D01*
X0135879Y0142835D01*
X0136250Y0142835D01*
X0136621Y0142835D01*
X0137348Y0142979D01*
X0138034Y0143263D01*
X0136250Y0143436D02*
X0136250Y0143436D01*
X0136250Y0142835D02*
X0136250Y0146600D01*
X0136250Y0146600D01*
X0136250Y0150365D01*
X0136250Y0146600D01*
X0140015Y0146600D01*
X0136250Y0146600D01*
X0136250Y0146600D01*
X0136250Y0146600D01*
X0132485Y0146600D01*
X0136250Y0146600D01*
X0136250Y0146600D01*
X0136250Y0142835D01*
X0136250Y0144635D02*
X0136250Y0144635D01*
X0136250Y0145833D02*
X0136250Y0145833D01*
X0136250Y0147032D02*
X0136250Y0147032D01*
X0136250Y0148230D02*
X0136250Y0148230D01*
X0136250Y0149429D02*
X0136250Y0149429D01*
X0138746Y0149429D02*
X0180697Y0149429D01*
X0179924Y0148230D02*
X0139650Y0148230D01*
X0140003Y0147032D02*
X0179591Y0147032D01*
X0179591Y0145833D02*
X0139937Y0145833D01*
X0139465Y0144635D02*
X0180062Y0144635D01*
X0181650Y0150627D02*
X0085193Y0150627D01*
X0086391Y0149429D02*
X0096254Y0149429D01*
X0096350Y0149525D02*
X0095825Y0149000D01*
X0095413Y0148384D01*
X0095129Y0147698D01*
X0094985Y0146971D01*
X0094985Y0146600D01*
X0094985Y0146229D01*
X0095129Y0145502D01*
X0095413Y0144816D01*
X0095825Y0144200D01*
X0096350Y0143675D01*
X0096966Y0143263D01*
X0097652Y0142979D01*
X0098379Y0142835D01*
X0098750Y0142835D01*
X0099121Y0142835D01*
X0099848Y0142979D01*
X0100534Y0143263D01*
X0101150Y0143675D01*
X0101675Y0144200D01*
X0102087Y0144816D01*
X0102371Y0145502D01*
X0102515Y0146229D01*
X0102515Y0146600D01*
X0102515Y0146971D01*
X0102371Y0147698D01*
X0102087Y0148384D01*
X0101675Y0149000D01*
X0101150Y0149525D01*
X0100534Y0149937D01*
X0099848Y0150221D01*
X0099121Y0150365D01*
X0098750Y0150365D01*
X0098379Y0150365D01*
X0097652Y0150221D01*
X0096966Y0149937D01*
X0096350Y0149525D01*
X0095350Y0148230D02*
X0087590Y0148230D01*
X0088788Y0147032D02*
X0094997Y0147032D01*
X0094985Y0146600D02*
X0098750Y0146600D01*
X0102515Y0146600D01*
X0098750Y0146600D01*
X0098750Y0146600D01*
X0098750Y0146600D01*
X0098750Y0150365D01*
X0098750Y0146600D01*
X0098750Y0142835D01*
X0098750Y0146600D01*
X0098750Y0146600D01*
X0098750Y0146600D01*
X0094985Y0146600D01*
X0095063Y0145833D02*
X0089987Y0145833D01*
X0089620Y0146200D02*
X0077120Y0158700D01*
X0071956Y0158700D01*
X0071942Y0158733D01*
X0070883Y0159792D01*
X0069499Y0160365D01*
X0068001Y0160365D01*
X0066617Y0159792D01*
X0065558Y0158733D01*
X0064985Y0157349D01*
X0064985Y0155851D01*
X0065558Y0154467D01*
X0066617Y0153408D01*
X0068001Y0152835D01*
X0069499Y0152835D01*
X0070883Y0153408D01*
X0071942Y0154467D01*
X0071956Y0154500D01*
X0075380Y0154500D01*
X0086650Y0143230D01*
X0086650Y0140232D01*
X0086394Y0140126D01*
X0085224Y0138956D01*
X0084591Y0137427D01*
X0084591Y0135773D01*
X0085224Y0134244D01*
X0086394Y0133074D01*
X0087923Y0132441D01*
X0089577Y0132441D01*
X0091106Y0133074D01*
X0092276Y0134244D01*
X0092909Y0135773D01*
X0092909Y0137427D01*
X0092276Y0138956D01*
X0091106Y0140126D01*
X0090850Y0140232D01*
X0090850Y0144970D01*
X0089620Y0146200D01*
X0090850Y0144635D02*
X0095535Y0144635D01*
X0096707Y0143436D02*
X0090850Y0143436D01*
X0090850Y0142238D02*
X0201650Y0142238D01*
X0201650Y0141039D02*
X0090850Y0141039D01*
X0091391Y0139841D02*
X0100457Y0139841D01*
X0097822Y0138642D02*
X0092406Y0138642D01*
X0092902Y0137444D02*
X0096624Y0137444D01*
X0095425Y0136245D02*
X0092909Y0136245D01*
X0092608Y0135047D02*
X0094227Y0135047D01*
X0093028Y0133848D02*
X0091880Y0133848D01*
X0091830Y0132650D02*
X0090081Y0132650D01*
X0090631Y0131451D02*
X0070850Y0131451D01*
X0070850Y0130253D02*
X0089433Y0130253D01*
X0088234Y0129054D02*
X0071621Y0129054D01*
X0072305Y0127856D02*
X0082036Y0127856D01*
X0080837Y0126657D02*
X0072515Y0126657D01*
X0072353Y0125459D02*
X0079639Y0125459D01*
X0078440Y0124260D02*
X0071735Y0124260D01*
X0070047Y0123062D02*
X0077242Y0123062D01*
X0076043Y0121863D02*
X0041983Y0121863D01*
X0043181Y0123062D02*
X0051939Y0123062D01*
X0050487Y0124260D02*
X0044380Y0124260D01*
X0037242Y0123062D02*
X0027547Y0123062D01*
X0024953Y0123062D02*
X0015850Y0123062D01*
X0015850Y0124260D02*
X0023265Y0124260D01*
X0022647Y0125459D02*
X0015850Y0125459D01*
X0015850Y0126657D02*
X0022485Y0126657D01*
X0022695Y0127856D02*
X0015850Y0127856D01*
X0015850Y0129054D02*
X0023379Y0129054D01*
X0015850Y0121863D02*
X0036650Y0121863D01*
X0036650Y0120665D02*
X0015850Y0120665D01*
X0015850Y0119466D02*
X0035734Y0119466D01*
X0034939Y0118268D02*
X0015850Y0118268D01*
X0015850Y0117069D02*
X0034591Y0117069D01*
X0034591Y0115870D02*
X0015850Y0115870D01*
X0015850Y0114672D02*
X0035047Y0114672D01*
X0035995Y0113473D02*
X0015850Y0113473D01*
X0015850Y0112275D02*
X0036650Y0112275D01*
X0036650Y0111076D02*
X0015850Y0111076D01*
X0015850Y0109878D02*
X0037502Y0109878D01*
X0038701Y0108679D02*
X0015850Y0108679D01*
X0015850Y0107481D02*
X0039899Y0107481D01*
X0041098Y0106282D02*
X0015850Y0106282D01*
X0015850Y0105084D02*
X0042296Y0105084D01*
X0050861Y0103885D02*
X0015850Y0103885D01*
X0015850Y0082312D02*
X0139150Y0082312D01*
X0139150Y0082470D02*
X0139150Y0079806D01*
X0139117Y0079792D01*
X0138058Y0078733D01*
X0138044Y0078700D01*
X0106956Y0078700D01*
X0106942Y0078733D01*
X0105883Y0079792D01*
X0104499Y0080365D01*
X0103001Y0080365D01*
X0101617Y0079792D01*
X0100558Y0078733D01*
X0099985Y0077349D01*
X0099985Y0075851D01*
X0100558Y0074467D01*
X0101617Y0073408D01*
X0103001Y0072835D01*
X0104499Y0072835D01*
X0105883Y0073408D01*
X0106942Y0074467D01*
X0106956Y0074500D01*
X0138044Y0074500D01*
X0138058Y0074467D01*
X0139117Y0073408D01*
X0140501Y0072835D01*
X0141999Y0072835D01*
X0143383Y0073408D01*
X0144442Y0074467D01*
X0145015Y0075851D01*
X0145015Y0077349D01*
X0144442Y0078733D01*
X0143383Y0079792D01*
X0143350Y0079806D01*
X0143350Y0080730D01*
X0149600Y0086980D01*
X0149600Y0090468D01*
X0149856Y0090574D01*
X0151026Y0091744D01*
X0151659Y0093273D01*
X0151659Y0094927D01*
X0151026Y0096456D01*
X0149856Y0097626D01*
X0148327Y0098259D01*
X0146673Y0098259D01*
X0145144Y0097626D01*
X0143974Y0096456D01*
X0143341Y0094927D01*
X0143341Y0093273D01*
X0143974Y0091744D01*
X0145144Y0090574D01*
X0145400Y0090468D01*
X0145400Y0088720D01*
X0140380Y0083700D01*
X0139150Y0082470D01*
X0139150Y0081114D02*
X0015850Y0081114D01*
X0051604Y0053548D02*
X0063786Y0053548D01*
X0063607Y0052349D02*
X0052837Y0052349D01*
X0053494Y0051151D02*
X0063607Y0051151D01*
X0063607Y0049952D02*
X0053893Y0049952D01*
X0053893Y0048754D02*
X0063607Y0048754D01*
X0063607Y0047555D02*
X0053651Y0047555D01*
X0053155Y0046357D02*
X0063607Y0046357D01*
X0063607Y0045158D02*
X0052019Y0045158D01*
X0057648Y0083511D02*
X0066514Y0083511D01*
X0070986Y0083511D02*
X0096514Y0083511D01*
X0095458Y0084709D02*
X0072042Y0084709D01*
X0072515Y0085908D02*
X0094985Y0085908D01*
X0094985Y0087106D02*
X0072515Y0087106D01*
X0072119Y0088305D02*
X0095381Y0088305D01*
X0095550Y0089503D02*
X0071172Y0089503D01*
X0070676Y0109878D02*
X0079058Y0109878D01*
X0074792Y0114672D02*
X0083852Y0114672D01*
X0082654Y0113473D02*
X0070948Y0113473D01*
X0066552Y0113473D02*
X0056227Y0113473D01*
X0054567Y0132650D02*
X0066650Y0132650D01*
X0065620Y0133848D02*
X0056602Y0133848D01*
X0052933Y0132650D02*
X0041290Y0132650D01*
X0041290Y0133848D02*
X0050898Y0133848D01*
X0050105Y0135047D02*
X0041290Y0135047D01*
X0042929Y0136245D02*
X0049788Y0136245D01*
X0049811Y0137444D02*
X0042955Y0137444D01*
X0042955Y0138642D02*
X0050307Y0138642D01*
X0051387Y0139841D02*
X0042955Y0139841D01*
X0042955Y0141039D02*
X0086650Y0141039D01*
X0086650Y0142238D02*
X0042646Y0142238D01*
X0043556Y0143436D02*
X0051310Y0143436D01*
X0056190Y0143436D02*
X0066589Y0143436D01*
X0066109Y0139841D02*
X0056113Y0139841D01*
X0056525Y0149429D02*
X0066254Y0149429D01*
X0067543Y0153024D02*
X0030850Y0153024D01*
X0030850Y0151826D02*
X0078054Y0151826D01*
X0076856Y0153024D02*
X0069957Y0153024D01*
X0071698Y0154223D02*
X0075657Y0154223D01*
X0079200Y0156620D02*
X0094985Y0156620D01*
X0094985Y0156600D02*
X0098750Y0156600D01*
X0102515Y0156600D01*
X0102515Y0156971D01*
X0102371Y0157698D01*
X0102087Y0158384D01*
X0101675Y0159000D01*
X0101150Y0159525D01*
X0100534Y0159937D01*
X0099848Y0160221D01*
X0099121Y0160365D01*
X0098750Y0160365D01*
X0098379Y0160365D01*
X0097652Y0160221D01*
X0096966Y0159937D01*
X0096350Y0159525D01*
X0095825Y0159000D01*
X0095413Y0158384D01*
X0095129Y0157698D01*
X0094985Y0156971D01*
X0094985Y0156600D01*
X0094985Y0156229D01*
X0095129Y0155502D01*
X0095413Y0154816D01*
X0095825Y0154200D01*
X0096350Y0153675D01*
X0096966Y0153263D01*
X0097652Y0152979D01*
X0098379Y0152835D01*
X0098750Y0152835D01*
X0099121Y0152835D01*
X0099848Y0152979D01*
X0100534Y0153263D01*
X0101150Y0153675D01*
X0101675Y0154200D01*
X0102087Y0154816D01*
X0102371Y0155502D01*
X0102515Y0156229D01*
X0102515Y0156600D01*
X0098750Y0156600D01*
X0098750Y0156600D01*
X0098750Y0156600D01*
X0098750Y0160365D01*
X0098750Y0156600D01*
X0098750Y0152835D01*
X0098750Y0156600D01*
X0098750Y0156600D01*
X0098750Y0156600D01*
X0094985Y0156600D01*
X0095163Y0155421D02*
X0080398Y0155421D01*
X0081597Y0154223D02*
X0095810Y0154223D01*
X0097543Y0153024D02*
X0082795Y0153024D01*
X0083994Y0151826D02*
X0180554Y0151826D01*
X0179356Y0153024D02*
X0167393Y0153024D01*
X0167430Y0153043D02*
X0167959Y0153428D01*
X0168422Y0153891D01*
X0168807Y0154420D01*
X0169104Y0155003D01*
X0169307Y0155626D01*
X0169409Y0156273D01*
X0169409Y0156600D01*
X0169409Y0156927D01*
X0169307Y0157574D01*
X0169104Y0158197D01*
X0168807Y0158780D01*
X0168422Y0159309D01*
X0167959Y0159772D01*
X0167430Y0160157D01*
X0166847Y0160454D01*
X0166224Y0160657D01*
X0165577Y0160759D01*
X0165250Y0160759D01*
X0165250Y0156600D01*
X0165250Y0156600D01*
X0169409Y0156600D01*
X0165250Y0156600D01*
X0165250Y0156600D01*
X0165250Y0156600D01*
X0161091Y0156600D01*
X0161091Y0156927D01*
X0161193Y0157574D01*
X0161396Y0158197D01*
X0161693Y0158780D01*
X0162078Y0159309D01*
X0162541Y0159772D01*
X0163070Y0160157D01*
X0163653Y0160454D01*
X0164276Y0160657D01*
X0164923Y0160759D01*
X0165250Y0160759D01*
X0165250Y0156600D01*
X0165250Y0152441D01*
X0165577Y0152441D01*
X0166224Y0152543D01*
X0166847Y0152746D01*
X0167430Y0153043D01*
X0168664Y0154223D02*
X0178157Y0154223D01*
X0176959Y0155421D02*
X0169240Y0155421D01*
X0169409Y0156620D02*
X0175760Y0156620D01*
X0174562Y0157818D02*
X0169227Y0157818D01*
X0168635Y0159017D02*
X0173363Y0159017D01*
X0172165Y0160215D02*
X0167315Y0160215D01*
X0165250Y0160215D02*
X0165250Y0160215D01*
X0165250Y0159017D02*
X0165250Y0159017D01*
X0165250Y0157818D02*
X0165250Y0157818D01*
X0165250Y0156620D02*
X0165250Y0156620D01*
X0165250Y0156600D02*
X0161091Y0156600D01*
X0161091Y0156273D01*
X0161193Y0155626D01*
X0161396Y0155003D01*
X0161693Y0154420D01*
X0162078Y0153891D01*
X0162541Y0153428D01*
X0163070Y0153043D01*
X0163653Y0152746D01*
X0164276Y0152543D01*
X0164923Y0152441D01*
X0165250Y0152441D01*
X0165250Y0156600D01*
X0165250Y0156600D01*
X0165250Y0155421D02*
X0165250Y0155421D01*
X0165250Y0154223D02*
X0165250Y0154223D01*
X0165250Y0153024D02*
X0165250Y0153024D01*
X0163107Y0153024D02*
X0099957Y0153024D01*
X0098750Y0153024D02*
X0098750Y0153024D01*
X0098750Y0154223D02*
X0098750Y0154223D01*
X0098750Y0155421D02*
X0098750Y0155421D01*
X0098750Y0156620D02*
X0098750Y0156620D01*
X0098750Y0157818D02*
X0098750Y0157818D01*
X0098750Y0159017D02*
X0098750Y0159017D01*
X0098750Y0160215D02*
X0098750Y0160215D01*
X0099861Y0160215D02*
X0163185Y0160215D01*
X0161865Y0159017D02*
X0101658Y0159017D01*
X0102321Y0157818D02*
X0161273Y0157818D01*
X0161091Y0156620D02*
X0102515Y0156620D01*
X0102337Y0155421D02*
X0161260Y0155421D01*
X0161836Y0154223D02*
X0101690Y0154223D01*
X0101246Y0149429D02*
X0133754Y0149429D01*
X0132850Y0148230D02*
X0102150Y0148230D01*
X0102503Y0147032D02*
X0132497Y0147032D01*
X0132563Y0145833D02*
X0102437Y0145833D01*
X0101965Y0144635D02*
X0133035Y0144635D01*
X0134207Y0143436D02*
X0100793Y0143436D01*
X0098750Y0143436D02*
X0098750Y0143436D01*
X0098750Y0144635D02*
X0098750Y0144635D01*
X0098750Y0145833D02*
X0098750Y0145833D01*
X0098750Y0147032D02*
X0098750Y0147032D01*
X0098750Y0148230D02*
X0098750Y0148230D01*
X0098750Y0149429D02*
X0098750Y0149429D01*
X0095179Y0157818D02*
X0078001Y0157818D01*
X0079253Y0150627D02*
X0030850Y0150627D01*
X0031391Y0149429D02*
X0050975Y0149429D01*
X0042410Y0148230D02*
X0032590Y0148230D01*
X0033350Y0147032D02*
X0041212Y0147032D01*
X0040013Y0145833D02*
X0033350Y0145833D01*
X0033350Y0144635D02*
X0038815Y0144635D01*
X0037616Y0143436D02*
X0033350Y0143436D01*
X0033497Y0142238D02*
X0035734Y0142238D01*
X0035425Y0141039D02*
X0034582Y0141039D01*
X0035075Y0139841D02*
X0035425Y0139841D01*
X0035425Y0138642D02*
X0035075Y0138642D01*
X0035425Y0137444D02*
X0034699Y0137444D01*
X0035451Y0136245D02*
X0033780Y0136245D01*
X0030850Y0154223D02*
X0065802Y0154223D01*
X0065163Y0155421D02*
X0030850Y0155421D01*
X0030850Y0156620D02*
X0064985Y0156620D01*
X0065179Y0157818D02*
X0030850Y0157818D01*
X0030850Y0159017D02*
X0065842Y0159017D01*
X0067639Y0160215D02*
X0030850Y0160215D01*
X0030850Y0161414D02*
X0171650Y0161414D01*
X0171650Y0162612D02*
X0030850Y0162612D01*
X0030850Y0163811D02*
X0152214Y0163811D01*
X0151333Y0165009D02*
X0073786Y0165009D01*
X0073784Y0165002D02*
X0073893Y0165409D01*
X0073893Y0168680D01*
X0069233Y0168680D01*
X0069233Y0169646D01*
X0068267Y0169646D01*
X0068267Y0174306D01*
X0064996Y0174306D01*
X0064589Y0174197D01*
X0064224Y0173987D01*
X0063926Y0173689D01*
X0063716Y0173324D01*
X0063607Y0172917D01*
X0063607Y0169646D01*
X0068267Y0169646D01*
X0068267Y0168680D01*
X0063607Y0168680D01*
X0063607Y0165409D01*
X0063716Y0165002D01*
X0063926Y0164637D01*
X0064224Y0164339D01*
X0064589Y0164129D01*
X0064996Y0164020D01*
X0068267Y0164020D01*
X0068267Y0168680D01*
X0069233Y0168680D01*
X0069233Y0164020D01*
X0072504Y0164020D01*
X0072911Y0164129D01*
X0073276Y0164339D01*
X0073574Y0164637D01*
X0073784Y0165002D01*
X0073893Y0166208D02*
X0150985Y0166208D01*
X0151008Y0167406D02*
X0073893Y0167406D01*
X0073893Y0168605D02*
X0151505Y0168605D01*
X0151550Y0169803D02*
X0073893Y0169803D01*
X0073893Y0169646D02*
X0073893Y0172917D01*
X0073784Y0173324D01*
X0073574Y0173689D01*
X0073276Y0173987D01*
X0072911Y0174197D01*
X0072504Y0174306D01*
X0069233Y0174306D01*
X0069233Y0169646D01*
X0073893Y0169646D01*
X0073893Y0171002D02*
X0151550Y0171002D01*
X0151550Y0172201D02*
X0073893Y0172201D01*
X0073741Y0173399D02*
X0130339Y0173399D01*
X0132911Y0173399D02*
X0133089Y0173399D01*
X0133089Y0172494D02*
X0133343Y0172494D01*
X0134020Y0172601D01*
X0134672Y0172813D01*
X0135283Y0173124D01*
X0135838Y0173527D01*
X0136322Y0174012D01*
X0136725Y0174567D01*
X0137037Y0175178D01*
X0137249Y0175830D01*
X0137356Y0176507D01*
X0137356Y0176761D01*
X0133089Y0176761D01*
X0133089Y0172494D01*
X0133089Y0174598D02*
X0132911Y0174598D01*
X0132911Y0175796D02*
X0133089Y0175796D01*
X0133089Y0176995D02*
X0132911Y0176995D01*
X0132911Y0178193D02*
X0133089Y0178193D01*
X0133089Y0179392D02*
X0132911Y0179392D01*
X0132911Y0180590D02*
X0133089Y0180590D01*
X0135254Y0180590D02*
X0146408Y0180590D01*
X0147622Y0179392D02*
X0136538Y0179392D01*
X0137144Y0178193D02*
X0148836Y0178193D01*
X0150049Y0176995D02*
X0137356Y0176995D01*
X0137238Y0175796D02*
X0150394Y0175796D01*
X0150394Y0174598D02*
X0136741Y0174598D01*
X0135661Y0173399D02*
X0150426Y0173399D01*
X0157950Y0172201D02*
X0169514Y0172201D01*
X0168945Y0171002D02*
X0157950Y0171002D01*
X0157950Y0169803D02*
X0168607Y0169803D01*
X0168607Y0168605D02*
X0157995Y0168605D01*
X0158492Y0167406D02*
X0168910Y0167406D01*
X0169431Y0166208D02*
X0158515Y0166208D01*
X0158167Y0165009D02*
X0170630Y0165009D01*
X0171650Y0163811D02*
X0157286Y0163811D01*
X0159074Y0173399D02*
X0170712Y0173399D01*
X0176788Y0173399D02*
X0190712Y0173399D01*
X0190837Y0173523D02*
X0189390Y0172076D01*
X0188607Y0170186D01*
X0188607Y0168140D01*
X0189390Y0166250D01*
X0190837Y0164803D01*
X0192727Y0164020D01*
X0194773Y0164020D01*
X0196663Y0164803D01*
X0198110Y0166250D01*
X0198893Y0168140D01*
X0198893Y0170186D01*
X0198110Y0172076D01*
X0196663Y0173523D01*
X0194773Y0174306D01*
X0192727Y0174306D01*
X0190837Y0173523D01*
X0189514Y0172201D02*
X0177986Y0172201D01*
X0178555Y0171002D02*
X0188945Y0171002D01*
X0188607Y0169803D02*
X0178893Y0169803D01*
X0178893Y0168605D02*
X0188607Y0168605D01*
X0188910Y0167406D02*
X0178589Y0167406D01*
X0178069Y0166208D02*
X0189431Y0166208D01*
X0190630Y0165009D02*
X0176870Y0165009D01*
X0175850Y0163811D02*
X0226650Y0163811D01*
X0226650Y0165009D02*
X0218786Y0165009D01*
X0218784Y0165002D02*
X0218893Y0165409D01*
X0218893Y0168680D01*
X0214233Y0168680D01*
X0214233Y0169646D01*
X0213267Y0169646D01*
X0213267Y0174306D01*
X0209996Y0174306D01*
X0209589Y0174197D01*
X0209224Y0173987D01*
X0208926Y0173689D01*
X0208716Y0173324D01*
X0208607Y0172917D01*
X0208607Y0169646D01*
X0213267Y0169646D01*
X0213267Y0168680D01*
X0208607Y0168680D01*
X0208607Y0165409D01*
X0208716Y0165002D01*
X0208926Y0164637D01*
X0209224Y0164339D01*
X0209589Y0164129D01*
X0209996Y0164020D01*
X0213267Y0164020D01*
X0213267Y0168680D01*
X0214233Y0168680D01*
X0214233Y0164020D01*
X0217504Y0164020D01*
X0217911Y0164129D01*
X0218276Y0164339D01*
X0218574Y0164637D01*
X0218784Y0165002D01*
X0218893Y0166208D02*
X0226650Y0166208D01*
X0226650Y0167406D02*
X0218893Y0167406D01*
X0218893Y0168605D02*
X0226650Y0168605D01*
X0226650Y0169803D02*
X0218893Y0169803D01*
X0218893Y0169646D02*
X0218893Y0172917D01*
X0218784Y0173324D01*
X0218574Y0173689D01*
X0218276Y0173987D01*
X0217911Y0174197D01*
X0217504Y0174306D01*
X0214233Y0174306D01*
X0214233Y0169646D01*
X0218893Y0169646D01*
X0218893Y0171002D02*
X0226378Y0171002D01*
X0225180Y0172201D02*
X0218893Y0172201D01*
X0218741Y0173399D02*
X0223981Y0173399D01*
X0222783Y0174598D02*
X0159106Y0174598D01*
X0159106Y0175796D02*
X0221584Y0175796D01*
X0220386Y0176995D02*
X0159106Y0176995D01*
X0159106Y0178193D02*
X0219187Y0178193D01*
X0217989Y0179392D02*
X0159106Y0179392D01*
X0158784Y0180590D02*
X0216790Y0180590D01*
X0215592Y0181789D02*
X0154303Y0181789D01*
X0153089Y0182987D02*
X0214393Y0182987D01*
X0213195Y0184186D02*
X0151876Y0184186D01*
X0150662Y0185384D02*
X0211996Y0185384D01*
X0210797Y0186583D02*
X0149448Y0186583D01*
X0148235Y0187781D02*
X0209599Y0187781D01*
X0208400Y0188980D02*
X0147021Y0188980D01*
X0145807Y0190178D02*
X0207202Y0190178D01*
X0206003Y0191377D02*
X0144594Y0191377D01*
X0143380Y0192575D02*
X0204805Y0192575D01*
X0203606Y0193774D02*
X0142166Y0193774D01*
X0140953Y0194972D02*
X0202408Y0194972D01*
X0201209Y0196171D02*
X0139739Y0196171D01*
X0138525Y0197369D02*
X0200011Y0197369D01*
X0198812Y0198568D02*
X0137950Y0198568D01*
X0137950Y0199766D02*
X0197614Y0199766D01*
X0196415Y0200965D02*
X0137950Y0200965D01*
X0137950Y0202163D02*
X0195217Y0202163D01*
X0194018Y0203362D02*
X0137950Y0203362D01*
X0137950Y0204560D02*
X0192820Y0204560D01*
X0191621Y0205759D02*
X0137950Y0205759D01*
X0137950Y0206957D02*
X0190423Y0206957D01*
X0189224Y0208156D02*
X0137950Y0208156D01*
X0137950Y0209354D02*
X0188026Y0209354D01*
X0186827Y0210553D02*
X0147238Y0210553D01*
X0148436Y0211751D02*
X0185629Y0211751D01*
X0184430Y0212950D02*
X0149138Y0212950D01*
X0149141Y0217744D02*
X0202609Y0217744D01*
X0202963Y0218598D02*
X0202090Y0216491D01*
X0202090Y0214209D01*
X0202963Y0212102D01*
X0204576Y0210489D01*
X0206683Y0209616D01*
X0208964Y0209616D01*
X0211072Y0210489D01*
X0212685Y0212102D01*
X0213558Y0214209D01*
X0213558Y0216491D01*
X0212685Y0218598D01*
X0211072Y0220211D01*
X0208964Y0221084D01*
X0206683Y0221084D01*
X0204576Y0220211D01*
X0202963Y0218598D01*
X0203307Y0218942D02*
X0148443Y0218942D01*
X0147244Y0220141D02*
X0204506Y0220141D01*
X0202113Y0216545D02*
X0186774Y0216545D01*
X0187973Y0215347D02*
X0202090Y0215347D01*
X0202115Y0214148D02*
X0189171Y0214148D01*
X0190370Y0212950D02*
X0202612Y0212950D01*
X0203314Y0211751D02*
X0191568Y0211751D01*
X0192767Y0210553D02*
X0204512Y0210553D01*
X0211136Y0210553D02*
X0234683Y0210553D01*
X0234683Y0211751D02*
X0212334Y0211751D01*
X0213036Y0212950D02*
X0234683Y0212950D01*
X0234683Y0214148D02*
X0213532Y0214148D01*
X0213558Y0215347D02*
X0234683Y0215347D01*
X0234683Y0216545D02*
X0213535Y0216545D01*
X0213038Y0217744D02*
X0234683Y0217744D01*
X0234683Y0218942D02*
X0212340Y0218942D01*
X0211142Y0220141D02*
X0234683Y0220141D01*
X0234683Y0221339D02*
X0137950Y0221339D01*
X0137950Y0220141D02*
X0140608Y0220141D01*
X0139410Y0218942D02*
X0137950Y0218942D01*
X0137950Y0217744D02*
X0138712Y0217744D01*
X0138215Y0216545D02*
X0137950Y0216545D01*
X0137950Y0215347D02*
X0138192Y0215347D01*
X0138218Y0214148D02*
X0137950Y0214148D01*
X0137950Y0212950D02*
X0138714Y0212950D01*
X0139416Y0211751D02*
X0137950Y0211751D01*
X0137950Y0210553D02*
X0140614Y0210553D01*
X0137950Y0222538D02*
X0234683Y0222538D01*
X0234683Y0223737D02*
X0137950Y0223737D01*
X0137950Y0224935D02*
X0234683Y0224935D01*
X0234683Y0226134D02*
X0137950Y0226134D01*
X0137950Y0227332D02*
X0234683Y0227332D01*
X0234683Y0228531D02*
X0137950Y0228531D01*
X0137950Y0229729D02*
X0234683Y0229729D01*
X0234683Y0230928D02*
X0137950Y0230928D01*
X0137950Y0232126D02*
X0234683Y0232126D01*
X0234683Y0233325D02*
X0137950Y0233325D01*
X0137950Y0234523D02*
X0234683Y0234523D01*
X0234683Y0235722D02*
X0211304Y0235722D01*
X0211072Y0235489D02*
X0212685Y0237102D01*
X0213558Y0239209D01*
X0213558Y0241491D01*
X0212685Y0243598D01*
X0211072Y0245211D01*
X0208964Y0246084D01*
X0206683Y0246084D01*
X0204576Y0245211D01*
X0202963Y0243598D01*
X0202090Y0241491D01*
X0202090Y0239209D01*
X0202963Y0237102D01*
X0204576Y0235489D01*
X0206683Y0234616D01*
X0208964Y0234616D01*
X0211072Y0235489D01*
X0212503Y0236920D02*
X0234683Y0236920D01*
X0234683Y0238119D02*
X0213106Y0238119D01*
X0213558Y0239317D02*
X0234683Y0239317D01*
X0234683Y0240516D02*
X0213558Y0240516D01*
X0213465Y0241714D02*
X0234683Y0241714D01*
X0234683Y0242913D02*
X0212969Y0242913D01*
X0212172Y0244111D02*
X0234683Y0244111D01*
X0234683Y0245310D02*
X0210833Y0245310D01*
X0204814Y0245310D02*
X0146936Y0245310D01*
X0147174Y0245211D02*
X0145067Y0246084D01*
X0142786Y0246084D01*
X0140678Y0245211D01*
X0139065Y0243598D01*
X0138192Y0241491D01*
X0138192Y0239209D01*
X0139065Y0237102D01*
X0140678Y0235489D01*
X0142786Y0234616D01*
X0145067Y0234616D01*
X0147174Y0235489D01*
X0148787Y0237102D01*
X0149660Y0239209D01*
X0149660Y0241491D01*
X0148787Y0243598D01*
X0147174Y0245211D01*
X0148274Y0244111D02*
X0203476Y0244111D01*
X0202679Y0242913D02*
X0149071Y0242913D01*
X0149567Y0241714D02*
X0202183Y0241714D01*
X0202090Y0240516D02*
X0149660Y0240516D01*
X0149660Y0239317D02*
X0202090Y0239317D01*
X0202542Y0238119D02*
X0149208Y0238119D01*
X0148605Y0236920D02*
X0203145Y0236920D01*
X0204343Y0235722D02*
X0147407Y0235722D01*
X0140446Y0235722D02*
X0137950Y0235722D01*
X0137950Y0236920D02*
X0139247Y0236920D01*
X0138644Y0238119D02*
X0137950Y0238119D01*
X0137950Y0239317D02*
X0138192Y0239317D01*
X0138192Y0240516D02*
X0137950Y0240516D01*
X0137950Y0241714D02*
X0138285Y0241714D01*
X0137950Y0242913D02*
X0138781Y0242913D01*
X0139578Y0244111D02*
X0137950Y0244111D01*
X0137950Y0245310D02*
X0140917Y0245310D01*
X0137950Y0246508D02*
X0234683Y0246508D01*
X0234683Y0247707D02*
X0137950Y0247707D01*
X0137950Y0248905D02*
X0234683Y0248905D01*
X0234683Y0250104D02*
X0137950Y0250104D01*
X0137950Y0251302D02*
X0234683Y0251302D01*
X0234683Y0252501D02*
X0137950Y0252501D01*
X0137950Y0253699D02*
X0234683Y0253699D01*
X0234683Y0254898D02*
X0137469Y0254898D01*
X0136279Y0256096D02*
X0234683Y0256096D01*
X0214477Y0257295D02*
X0135081Y0257295D01*
X0133882Y0258493D02*
X0213287Y0258493D01*
X0213030Y0259692D02*
X0209147Y0259692D01*
X0211473Y0260890D02*
X0213030Y0260890D01*
X0213030Y0262089D02*
X0212672Y0262089D01*
X0212899Y0268081D02*
X0213030Y0268081D01*
X0213030Y0269280D02*
X0212003Y0269280D01*
X0213030Y0270478D02*
X0210426Y0270478D01*
X0213030Y0271677D02*
X0029254Y0271677D01*
X0029254Y0272875D02*
X0213030Y0272875D01*
X0213030Y0274074D02*
X0029254Y0274074D01*
X0029254Y0275272D02*
X0213030Y0275272D01*
X0213030Y0276471D02*
X0029254Y0276471D01*
X0029254Y0277670D02*
X0213030Y0277670D01*
X0213030Y0278868D02*
X0029254Y0278868D01*
X0029254Y0280067D02*
X0213030Y0280067D01*
X0213030Y0281265D02*
X0029254Y0281265D01*
X0029254Y0282464D02*
X0213030Y0282464D01*
X0213030Y0283662D02*
X0029254Y0283662D01*
X0035025Y0271123D02*
X0035025Y0266013D01*
X0040135Y0266013D01*
X0040018Y0266756D01*
X0039739Y0267614D01*
X0039329Y0268418D01*
X0038799Y0269148D01*
X0038161Y0269787D01*
X0037430Y0270317D01*
X0036626Y0270727D01*
X0035768Y0271006D01*
X0035025Y0271123D01*
X0035025Y0270478D02*
X0033825Y0270478D01*
X0033825Y0269280D02*
X0035025Y0269280D01*
X0035025Y0268081D02*
X0033825Y0268081D01*
X0033825Y0266883D02*
X0035025Y0266883D01*
X0035025Y0265684D02*
X0092589Y0265684D01*
X0092589Y0266554D02*
X0092589Y0264272D01*
X0093462Y0262165D01*
X0095075Y0260552D01*
X0097182Y0259679D01*
X0099463Y0259679D01*
X0101571Y0260552D01*
X0103184Y0262165D01*
X0104057Y0264272D01*
X0104057Y0266554D01*
X0103184Y0268661D01*
X0101571Y0270274D01*
X0099463Y0271147D01*
X0097182Y0271147D01*
X0095075Y0270274D01*
X0093462Y0268661D01*
X0092589Y0266554D01*
X0092725Y0266883D02*
X0039977Y0266883D01*
X0039501Y0268081D02*
X0093222Y0268081D01*
X0094081Y0269280D02*
X0038667Y0269280D01*
X0037114Y0270478D02*
X0095569Y0270478D01*
X0092589Y0264486D02*
X0040084Y0264486D01*
X0039763Y0263287D02*
X0092997Y0263287D01*
X0093538Y0262089D02*
X0039098Y0262089D01*
X0037955Y0260890D02*
X0094737Y0260890D01*
X0097152Y0259692D02*
X0029254Y0259692D01*
X0029254Y0260890D02*
X0030895Y0260890D01*
X0029753Y0262089D02*
X0029254Y0262089D01*
X0028996Y0258493D02*
X0112604Y0258493D01*
X0112604Y0257295D02*
X0027806Y0257295D01*
X0033825Y0260890D02*
X0035025Y0260890D01*
X0035025Y0262089D02*
X0033825Y0262089D01*
X0033825Y0263287D02*
X0035025Y0263287D01*
X0035025Y0264486D02*
X0033825Y0264486D01*
X0029350Y0268081D02*
X0029254Y0268081D01*
X0029254Y0269280D02*
X0030183Y0269280D01*
X0029254Y0270478D02*
X0031737Y0270478D01*
X0033285Y0246147D02*
X0031177Y0245274D01*
X0029564Y0243661D01*
X0028691Y0241554D01*
X0028691Y0239272D01*
X0029564Y0237165D01*
X0031177Y0235552D01*
X0033285Y0234679D01*
X0035566Y0234679D01*
X0037673Y0235552D01*
X0039286Y0237165D01*
X0040159Y0239272D01*
X0040159Y0241554D01*
X0039286Y0243661D01*
X0037673Y0245274D01*
X0035566Y0246147D01*
X0033285Y0246147D01*
X0031264Y0245310D02*
X0007600Y0245310D01*
X0007600Y0246508D02*
X0131550Y0246508D01*
X0131550Y0245310D02*
X0101484Y0245310D01*
X0101571Y0245274D02*
X0099463Y0246147D01*
X0097182Y0246147D01*
X0095075Y0245274D01*
X0093462Y0243661D01*
X0092589Y0241554D01*
X0092589Y0239272D01*
X0093462Y0237165D01*
X0095075Y0235552D01*
X0097182Y0234679D01*
X0099463Y0234679D01*
X0101571Y0235552D01*
X0103184Y0237165D01*
X0104057Y0239272D01*
X0104057Y0241554D01*
X0103184Y0243661D01*
X0101571Y0245274D01*
X0102734Y0244111D02*
X0131550Y0244111D01*
X0131550Y0242913D02*
X0103494Y0242913D01*
X0103990Y0241714D02*
X0120224Y0241714D01*
X0120525Y0241714D02*
X0121725Y0241714D01*
X0121725Y0241754D02*
X0122791Y0241613D01*
X0123870Y0241324D01*
X0124902Y0240897D01*
X0125869Y0240338D01*
X0126755Y0239658D01*
X0127545Y0238868D01*
X0128225Y0237982D01*
X0128784Y0237015D01*
X0129211Y0235983D01*
X0129500Y0234904D01*
X0129641Y0233838D01*
X0121725Y0233838D01*
X0120525Y0233838D01*
X0120525Y0241754D01*
X0119459Y0241613D01*
X0118380Y0241324D01*
X0117348Y0240897D01*
X0116381Y0240338D01*
X0115494Y0239658D01*
X0114705Y0238868D01*
X0114025Y0237982D01*
X0113466Y0237015D01*
X0113039Y0235983D01*
X0112750Y0234904D01*
X0112609Y0233838D01*
X0120525Y0233838D01*
X0120525Y0232638D01*
X0112609Y0232638D01*
X0112750Y0231572D01*
X0113039Y0230493D01*
X0113466Y0229461D01*
X0114025Y0228494D01*
X0114705Y0227607D01*
X0115494Y0226818D01*
X0116381Y0226138D01*
X0117348Y0225579D01*
X0118380Y0225152D01*
X0119459Y0224863D01*
X0120525Y0224722D01*
X0120525Y0232638D01*
X0121725Y0232638D01*
X0121725Y0233838D01*
X0121725Y0241754D01*
X0122026Y0241714D02*
X0131550Y0241714D01*
X0131550Y0240516D02*
X0125562Y0240516D01*
X0127097Y0239317D02*
X0131550Y0239317D01*
X0131550Y0238119D02*
X0128121Y0238119D01*
X0128823Y0236920D02*
X0131550Y0236920D01*
X0131550Y0235722D02*
X0129281Y0235722D01*
X0129551Y0234523D02*
X0131550Y0234523D01*
X0131550Y0233325D02*
X0121725Y0233325D01*
X0121725Y0232638D02*
X0129641Y0232638D01*
X0129500Y0231572D01*
X0129211Y0230493D01*
X0128784Y0229461D01*
X0128225Y0228494D01*
X0127545Y0227607D01*
X0126755Y0226818D01*
X0125869Y0226138D01*
X0124902Y0225579D01*
X0123870Y0225152D01*
X0122791Y0224863D01*
X0121725Y0224722D01*
X0121725Y0232638D01*
X0121725Y0232126D02*
X0120525Y0232126D01*
X0120525Y0230928D02*
X0121725Y0230928D01*
X0121725Y0229729D02*
X0120525Y0229729D01*
X0120525Y0228531D02*
X0121725Y0228531D01*
X0121725Y0227332D02*
X0120525Y0227332D01*
X0120525Y0226134D02*
X0121725Y0226134D01*
X0121725Y0224935D02*
X0120525Y0224935D01*
X0119188Y0224935D02*
X0007600Y0224935D01*
X0007600Y0223737D02*
X0131550Y0223737D01*
X0131550Y0224935D02*
X0123061Y0224935D01*
X0125862Y0226134D02*
X0131550Y0226134D01*
X0131550Y0227332D02*
X0127270Y0227332D01*
X0128247Y0228531D02*
X0131550Y0228531D01*
X0131550Y0229729D02*
X0128895Y0229729D01*
X0129328Y0230928D02*
X0131550Y0230928D01*
X0131550Y0232126D02*
X0129573Y0232126D01*
X0121725Y0234523D02*
X0120525Y0234523D01*
X0120525Y0233325D02*
X0007600Y0233325D01*
X0007600Y0234523D02*
X0112699Y0234523D01*
X0112969Y0235722D02*
X0101740Y0235722D01*
X0102939Y0236920D02*
X0113427Y0236920D01*
X0114129Y0238119D02*
X0103579Y0238119D01*
X0104057Y0239317D02*
X0115153Y0239317D01*
X0116688Y0240516D02*
X0104057Y0240516D01*
X0112677Y0232126D02*
X0007600Y0232126D01*
X0007600Y0230928D02*
X0112922Y0230928D01*
X0113355Y0229729D02*
X0007600Y0229729D01*
X0007600Y0228531D02*
X0114003Y0228531D01*
X0114980Y0227332D02*
X0007600Y0227332D01*
X0007600Y0226134D02*
X0116388Y0226134D01*
X0120525Y0235722D02*
X0121725Y0235722D01*
X0121725Y0236920D02*
X0120525Y0236920D01*
X0120525Y0238119D02*
X0121725Y0238119D01*
X0121725Y0239317D02*
X0120525Y0239317D01*
X0120525Y0240516D02*
X0121725Y0240516D01*
X0124188Y0248905D02*
X0131550Y0248905D01*
X0131550Y0247707D02*
X0007600Y0247707D01*
X0007600Y0248905D02*
X0118062Y0248905D01*
X0115830Y0250104D02*
X0007600Y0250104D01*
X0007600Y0251302D02*
X0114632Y0251302D01*
X0113707Y0252501D02*
X0007600Y0252501D01*
X0007600Y0253699D02*
X0113211Y0253699D01*
X0112714Y0254898D02*
X0007600Y0254898D01*
X0007600Y0256096D02*
X0112604Y0256096D01*
X0113075Y0259692D02*
X0099494Y0259692D01*
X0101909Y0260890D02*
X0113571Y0260890D01*
X0114303Y0262089D02*
X0103108Y0262089D01*
X0103649Y0263287D02*
X0115501Y0263287D01*
X0117268Y0264486D02*
X0104057Y0264486D01*
X0104057Y0265684D02*
X0143326Y0265684D01*
X0143326Y0265950D02*
X0143326Y0264750D01*
X0138216Y0264750D01*
X0138334Y0264007D01*
X0138612Y0263149D01*
X0139022Y0262345D01*
X0139553Y0261615D01*
X0140191Y0260976D01*
X0140921Y0260446D01*
X0141725Y0260036D01*
X0142583Y0259757D01*
X0143326Y0259640D01*
X0143326Y0264750D01*
X0144526Y0264750D01*
X0144526Y0259640D01*
X0145269Y0259757D01*
X0146127Y0260036D01*
X0146931Y0260446D01*
X0147662Y0260976D01*
X0148300Y0261615D01*
X0148830Y0262345D01*
X0149240Y0263149D01*
X0149519Y0264007D01*
X0149636Y0264750D01*
X0144526Y0264750D01*
X0144526Y0265950D01*
X0143326Y0265950D01*
X0138216Y0265950D01*
X0138334Y0266693D01*
X0138612Y0267551D01*
X0139022Y0268355D01*
X0139553Y0269085D01*
X0140191Y0269724D01*
X0140921Y0270254D01*
X0141725Y0270664D01*
X0142583Y0270943D01*
X0143326Y0271060D01*
X0143326Y0265950D01*
X0143326Y0266883D02*
X0144526Y0266883D01*
X0144526Y0265950D02*
X0144526Y0271060D01*
X0145269Y0270943D01*
X0146127Y0270664D01*
X0146931Y0270254D01*
X0147662Y0269724D01*
X0148300Y0269085D01*
X0148830Y0268355D01*
X0149240Y0267551D01*
X0149519Y0266693D01*
X0149636Y0265950D01*
X0144526Y0265950D01*
X0144526Y0265684D02*
X0202090Y0265684D01*
X0202090Y0264486D02*
X0149595Y0264486D01*
X0149285Y0263287D02*
X0202472Y0263287D01*
X0202976Y0262089D02*
X0148644Y0262089D01*
X0147543Y0260890D02*
X0204175Y0260890D01*
X0206501Y0259692D02*
X0144855Y0259692D01*
X0144526Y0259692D02*
X0143326Y0259692D01*
X0142997Y0259692D02*
X0132148Y0259692D01*
X0128679Y0260890D02*
X0140309Y0260890D01*
X0139208Y0262089D02*
X0127947Y0262089D01*
X0126749Y0263287D02*
X0138567Y0263287D01*
X0138258Y0264486D02*
X0124982Y0264486D01*
X0128543Y0252501D02*
X0130824Y0252501D01*
X0131550Y0251302D02*
X0127618Y0251302D01*
X0126420Y0250104D02*
X0131550Y0250104D01*
X0143326Y0260890D02*
X0144526Y0260890D01*
X0144526Y0262089D02*
X0143326Y0262089D01*
X0143326Y0263287D02*
X0144526Y0263287D01*
X0144526Y0264486D02*
X0143326Y0264486D01*
X0143326Y0268081D02*
X0144526Y0268081D01*
X0144526Y0269280D02*
X0143326Y0269280D01*
X0143326Y0270478D02*
X0144526Y0270478D01*
X0146491Y0270478D02*
X0205222Y0270478D01*
X0203645Y0269280D02*
X0148105Y0269280D01*
X0148970Y0268081D02*
X0202749Y0268081D01*
X0202252Y0266883D02*
X0149457Y0266883D01*
X0141361Y0270478D02*
X0101077Y0270478D01*
X0102565Y0269280D02*
X0139747Y0269280D01*
X0138883Y0268081D02*
X0103424Y0268081D01*
X0103920Y0266883D02*
X0138395Y0266883D01*
X0131550Y0222538D02*
X0007600Y0222538D01*
X0007600Y0235722D02*
X0031008Y0235722D01*
X0029809Y0236920D02*
X0007600Y0236920D01*
X0007600Y0238119D02*
X0029169Y0238119D01*
X0028691Y0239317D02*
X0007600Y0239317D01*
X0007600Y0240516D02*
X0028691Y0240516D01*
X0028758Y0241714D02*
X0007600Y0241714D01*
X0007600Y0242913D02*
X0029254Y0242913D01*
X0030015Y0244111D02*
X0007600Y0244111D01*
X0037587Y0245310D02*
X0095161Y0245310D01*
X0093912Y0244111D02*
X0038836Y0244111D01*
X0039596Y0242913D02*
X0093152Y0242913D01*
X0092656Y0241714D02*
X0040093Y0241714D01*
X0040159Y0240516D02*
X0092589Y0240516D01*
X0092589Y0239317D02*
X0040159Y0239317D01*
X0039681Y0238119D02*
X0093067Y0238119D01*
X0093707Y0236920D02*
X0039041Y0236920D01*
X0037843Y0235722D02*
X0094905Y0235722D01*
X0051446Y0173562D02*
X0050724Y0173929D01*
X0049954Y0174180D01*
X0049233Y0174294D01*
X0049233Y0169646D01*
X0053881Y0169646D01*
X0053767Y0170367D01*
X0053516Y0171137D01*
X0053149Y0171859D01*
X0052673Y0172514D01*
X0052101Y0173086D01*
X0051446Y0173562D01*
X0051670Y0173399D02*
X0063759Y0173399D01*
X0063607Y0172201D02*
X0052901Y0172201D01*
X0053560Y0171002D02*
X0063607Y0171002D01*
X0063607Y0169803D02*
X0053856Y0169803D01*
X0053881Y0168680D02*
X0049233Y0168680D01*
X0049233Y0169646D01*
X0048267Y0169646D01*
X0048267Y0174294D01*
X0047546Y0174180D01*
X0046776Y0173929D01*
X0046054Y0173562D01*
X0045399Y0173086D01*
X0044827Y0172514D01*
X0044351Y0171859D01*
X0043984Y0171137D01*
X0043733Y0170367D01*
X0043619Y0169646D01*
X0048267Y0169646D01*
X0048267Y0168680D01*
X0049233Y0168680D01*
X0049233Y0164032D01*
X0049954Y0164146D01*
X0050724Y0164397D01*
X0051446Y0164764D01*
X0052101Y0165240D01*
X0052673Y0165812D01*
X0053149Y0166467D01*
X0053516Y0167189D01*
X0053767Y0167959D01*
X0053881Y0168680D01*
X0053869Y0168605D02*
X0063607Y0168605D01*
X0063607Y0167406D02*
X0053587Y0167406D01*
X0052961Y0166208D02*
X0063607Y0166208D01*
X0063714Y0165009D02*
X0051783Y0165009D01*
X0049233Y0165009D02*
X0048267Y0165009D01*
X0048267Y0164032D02*
X0047546Y0164146D01*
X0046776Y0164397D01*
X0046054Y0164764D01*
X0045399Y0165240D01*
X0044827Y0165812D01*
X0044351Y0166467D01*
X0043984Y0167189D01*
X0043733Y0167959D01*
X0043619Y0168680D01*
X0048267Y0168680D01*
X0048267Y0164032D01*
X0048267Y0166208D02*
X0049233Y0166208D01*
X0049233Y0167406D02*
X0048267Y0167406D01*
X0048267Y0168605D02*
X0049233Y0168605D01*
X0049233Y0169803D02*
X0048267Y0169803D01*
X0048267Y0171002D02*
X0049233Y0171002D01*
X0049233Y0172201D02*
X0048267Y0172201D01*
X0048267Y0173399D02*
X0049233Y0173399D01*
X0045830Y0173399D02*
X0031788Y0173399D01*
X0032986Y0172201D02*
X0044599Y0172201D01*
X0043940Y0171002D02*
X0033555Y0171002D01*
X0033893Y0169803D02*
X0043644Y0169803D01*
X0043631Y0168605D02*
X0033893Y0168605D01*
X0033589Y0167406D02*
X0043913Y0167406D01*
X0044539Y0166208D02*
X0033069Y0166208D01*
X0031870Y0165009D02*
X0045717Y0165009D01*
X0068267Y0165009D02*
X0069233Y0165009D01*
X0069233Y0166208D02*
X0068267Y0166208D01*
X0068267Y0167406D02*
X0069233Y0167406D01*
X0069233Y0168605D02*
X0068267Y0168605D01*
X0068267Y0169803D02*
X0069233Y0169803D01*
X0069233Y0171002D02*
X0068267Y0171002D01*
X0068267Y0172201D02*
X0069233Y0172201D01*
X0069233Y0173399D02*
X0068267Y0173399D01*
X0069861Y0160215D02*
X0097639Y0160215D01*
X0095842Y0159017D02*
X0071658Y0159017D01*
X0071246Y0149429D02*
X0080451Y0149429D01*
X0081650Y0148230D02*
X0072150Y0148230D01*
X0072515Y0147032D02*
X0082848Y0147032D01*
X0084047Y0145833D02*
X0072508Y0145833D01*
X0072012Y0144635D02*
X0085245Y0144635D01*
X0086444Y0143436D02*
X0070911Y0143436D01*
X0071391Y0139841D02*
X0086109Y0139841D01*
X0085094Y0138642D02*
X0072406Y0138642D01*
X0072902Y0137444D02*
X0084598Y0137444D01*
X0084591Y0136245D02*
X0072909Y0136245D01*
X0072608Y0135047D02*
X0084892Y0135047D01*
X0085620Y0133848D02*
X0071880Y0133848D01*
X0070850Y0132650D02*
X0087419Y0132650D01*
X0092975Y0127856D02*
X0095195Y0127856D01*
X0094985Y0126657D02*
X0091777Y0126657D01*
X0090578Y0125459D02*
X0095147Y0125459D01*
X0095765Y0124260D02*
X0084380Y0124260D01*
X0083181Y0123062D02*
X0096650Y0123062D01*
X0096650Y0121863D02*
X0081983Y0121863D01*
X0080784Y0120665D02*
X0096650Y0120665D01*
X0096291Y0119466D02*
X0079586Y0119466D01*
X0078387Y0118268D02*
X0087448Y0118268D01*
X0086249Y0117069D02*
X0077189Y0117069D01*
X0075990Y0115870D02*
X0085051Y0115870D01*
X0088593Y0113473D02*
X0096552Y0113473D01*
X0098750Y0109878D02*
X0098750Y0109878D01*
X0098750Y0108679D02*
X0098750Y0108679D01*
X0098750Y0107481D02*
X0098750Y0107481D01*
X0098750Y0106282D02*
X0098750Y0106282D01*
X0098750Y0105084D02*
X0098750Y0105084D01*
X0098750Y0103885D02*
X0098750Y0103885D01*
X0100948Y0113473D02*
X0121098Y0113473D01*
X0119899Y0112275D02*
X0087395Y0112275D01*
X0100850Y0120665D02*
X0128289Y0120665D01*
X0129488Y0121863D02*
X0100850Y0121863D01*
X0100850Y0123062D02*
X0130686Y0123062D01*
X0131885Y0124260D02*
X0101735Y0124260D01*
X0102353Y0125459D02*
X0132737Y0125459D01*
X0133050Y0126657D02*
X0102515Y0126657D01*
X0102305Y0127856D02*
X0133050Y0127856D01*
X0133050Y0129054D02*
X0101621Y0129054D01*
X0099771Y0130253D02*
X0133050Y0130253D01*
X0133050Y0131451D02*
X0096571Y0131451D01*
X0097729Y0130253D02*
X0095372Y0130253D01*
X0095879Y0129054D02*
X0094174Y0129054D01*
X0097769Y0132650D02*
X0133050Y0132650D01*
X0132485Y0133848D02*
X0114263Y0133848D01*
X0114090Y0133675D02*
X0114615Y0134200D01*
X0115027Y0134816D01*
X0115311Y0135502D01*
X0115455Y0136229D01*
X0115455Y0136600D01*
X0115455Y0136971D01*
X0115311Y0137698D01*
X0115027Y0138384D01*
X0114615Y0139000D01*
X0114090Y0139525D01*
X0113474Y0139937D01*
X0112788Y0140221D01*
X0112061Y0140365D01*
X0111690Y0140365D01*
X0111319Y0140365D01*
X0110592Y0140221D01*
X0109906Y0139937D01*
X0109290Y0139525D01*
X0108765Y0139000D01*
X0108353Y0138384D01*
X0108069Y0137698D01*
X0107925Y0136971D01*
X0107925Y0136600D01*
X0107925Y0136229D01*
X0108069Y0135502D01*
X0108353Y0134816D01*
X0108765Y0134200D01*
X0109290Y0133675D01*
X0109906Y0133263D01*
X0110592Y0132979D01*
X0111319Y0132835D01*
X0111690Y0132835D01*
X0112061Y0132835D01*
X0112788Y0132979D01*
X0113474Y0133263D01*
X0114090Y0133675D01*
X0115122Y0135047D02*
X0132485Y0135047D01*
X0132485Y0136245D02*
X0115455Y0136245D01*
X0115455Y0136600D02*
X0111690Y0136600D01*
X0111690Y0136600D01*
X0107925Y0136600D01*
X0111690Y0136600D01*
X0115455Y0136600D01*
X0115361Y0137444D02*
X0132485Y0137444D01*
X0132485Y0138642D02*
X0114854Y0138642D01*
X0113617Y0139841D02*
X0132897Y0139841D01*
X0139603Y0139841D02*
X0152734Y0139841D01*
X0156766Y0139841D02*
X0162609Y0139841D01*
X0167891Y0139841D02*
X0171734Y0139841D01*
X0175766Y0139841D02*
X0201650Y0139841D01*
X0200520Y0138642D02*
X0176980Y0138642D01*
X0177476Y0137444D02*
X0200024Y0137444D01*
X0199985Y0136245D02*
X0177515Y0136245D01*
X0177182Y0135047D02*
X0200318Y0135047D01*
X0201177Y0133848D02*
X0176323Y0133848D01*
X0171400Y0127025D02*
X0170784Y0127437D01*
X0170098Y0127721D01*
X0169371Y0127865D01*
X0169000Y0127865D01*
X0168629Y0127865D01*
X0167902Y0127721D01*
X0167216Y0127437D01*
X0166600Y0127025D01*
X0166075Y0126500D01*
X0165663Y0125884D01*
X0165379Y0125198D01*
X0165235Y0124471D01*
X0165235Y0124100D01*
X0165235Y0123729D01*
X0165379Y0123002D01*
X0165663Y0122316D01*
X0166075Y0121700D01*
X0166600Y0121175D01*
X0167216Y0120763D01*
X0167902Y0120479D01*
X0168629Y0120335D01*
X0169000Y0120335D01*
X0169371Y0120335D01*
X0170098Y0120479D01*
X0170784Y0120763D01*
X0171400Y0121175D01*
X0171925Y0121700D01*
X0172337Y0122316D01*
X0172621Y0123002D01*
X0172765Y0123729D01*
X0172765Y0124100D01*
X0172765Y0124471D01*
X0172621Y0125198D01*
X0172337Y0125884D01*
X0171925Y0126500D01*
X0171400Y0127025D01*
X0171768Y0126657D02*
X0187487Y0126657D01*
X0187485Y0126669D02*
X0187629Y0125942D01*
X0187913Y0125256D01*
X0188325Y0124640D01*
X0188850Y0124115D01*
X0189466Y0123703D01*
X0190152Y0123419D01*
X0190879Y0123275D01*
X0191250Y0123275D01*
X0191621Y0123275D01*
X0192348Y0123419D01*
X0193034Y0123703D01*
X0193650Y0124115D01*
X0194175Y0124640D01*
X0194587Y0125256D01*
X0194871Y0125942D01*
X0195015Y0126669D01*
X0195015Y0127040D01*
X0195015Y0127411D01*
X0194871Y0128138D01*
X0194587Y0128824D01*
X0194175Y0129440D01*
X0193650Y0129965D01*
X0193034Y0130377D01*
X0192348Y0130661D01*
X0191621Y0130805D01*
X0191250Y0130805D01*
X0190879Y0130805D01*
X0190152Y0130661D01*
X0189466Y0130377D01*
X0188850Y0129965D01*
X0188325Y0129440D01*
X0187913Y0128824D01*
X0187629Y0128138D01*
X0187485Y0127411D01*
X0187485Y0127040D01*
X0187485Y0126669D01*
X0187485Y0127040D02*
X0191250Y0127040D01*
X0191250Y0123275D01*
X0191250Y0127040D01*
X0191250Y0127040D01*
X0191250Y0127040D01*
X0191250Y0130805D01*
X0191250Y0127040D01*
X0195015Y0127040D01*
X0191250Y0127040D01*
X0191250Y0127040D01*
X0191250Y0127040D01*
X0187485Y0127040D01*
X0187573Y0127856D02*
X0169420Y0127856D01*
X0169000Y0127856D02*
X0169000Y0127856D01*
X0169000Y0127865D02*
X0169000Y0124100D01*
X0169000Y0124100D01*
X0169000Y0127865D01*
X0168580Y0127856D02*
X0159170Y0127856D01*
X0159121Y0127865D02*
X0158750Y0127865D01*
X0158379Y0127865D01*
X0157652Y0127721D01*
X0156966Y0127437D01*
X0156350Y0127025D01*
X0155825Y0126500D01*
X0155413Y0125884D01*
X0155129Y0125198D01*
X0154985Y0124471D01*
X0154985Y0124100D01*
X0154985Y0123729D01*
X0155129Y0123002D01*
X0155413Y0122316D01*
X0155825Y0121700D01*
X0156350Y0121175D01*
X0156966Y0120763D01*
X0157652Y0120479D01*
X0158379Y0120335D01*
X0158750Y0120335D01*
X0159121Y0120335D01*
X0159848Y0120479D01*
X0160534Y0120763D01*
X0161150Y0121175D01*
X0161675Y0121700D01*
X0162087Y0122316D01*
X0162371Y0123002D01*
X0162515Y0123729D01*
X0162515Y0124100D01*
X0162515Y0124471D01*
X0162371Y0125198D01*
X0162087Y0125884D01*
X0161675Y0126500D01*
X0161150Y0127025D01*
X0160534Y0127437D01*
X0159848Y0127721D01*
X0159121Y0127865D01*
X0158750Y0127865D02*
X0158750Y0124100D01*
X0158750Y0124100D01*
X0162515Y0124100D01*
X0158750Y0124100D01*
X0158750Y0124100D01*
X0158750Y0124100D01*
X0154985Y0124100D01*
X0158750Y0124100D01*
X0158750Y0127865D01*
X0158750Y0127856D02*
X0158750Y0127856D01*
X0158330Y0127856D02*
X0139450Y0127856D01*
X0139450Y0129054D02*
X0188067Y0129054D01*
X0189281Y0130253D02*
X0139450Y0130253D01*
X0139450Y0131451D02*
X0201650Y0131451D01*
X0201650Y0130253D02*
X0193219Y0130253D01*
X0194433Y0129054D02*
X0201650Y0129054D01*
X0202025Y0127856D02*
X0194927Y0127856D01*
X0195013Y0126657D02*
X0203223Y0126657D01*
X0204422Y0125459D02*
X0194671Y0125459D01*
X0193795Y0124260D02*
X0205620Y0124260D01*
X0206650Y0123062D02*
X0172633Y0123062D01*
X0172765Y0124100D02*
X0169000Y0124100D01*
X0172765Y0124100D01*
X0172765Y0124260D02*
X0188705Y0124260D01*
X0188422Y0122925D02*
X0187485Y0121988D01*
X0187485Y0116332D01*
X0188422Y0115395D01*
X0189150Y0115395D01*
X0189150Y0114970D01*
X0187880Y0113700D01*
X0187169Y0113700D01*
X0187109Y0113844D01*
X0185994Y0114959D01*
X0184538Y0115562D01*
X0182962Y0115562D01*
X0181506Y0114959D01*
X0180391Y0113844D01*
X0180331Y0113700D01*
X0175380Y0113700D01*
X0174150Y0112470D01*
X0166900Y0105220D01*
X0166900Y0097306D01*
X0166867Y0097292D01*
X0165808Y0096233D01*
X0165235Y0094849D01*
X0165235Y0093351D01*
X0165808Y0091967D01*
X0166867Y0090908D01*
X0168251Y0090335D01*
X0169749Y0090335D01*
X0171133Y0090908D01*
X0172192Y0091967D01*
X0172765Y0093351D01*
X0172765Y0094849D01*
X0172192Y0096233D01*
X0171133Y0097292D01*
X0171100Y0097306D01*
X0171100Y0103480D01*
X0177120Y0109500D01*
X0180331Y0109500D01*
X0180391Y0109356D01*
X0181506Y0108241D01*
X0182962Y0107638D01*
X0184538Y0107638D01*
X0185994Y0108241D01*
X0187109Y0109356D01*
X0187169Y0109500D01*
X0189620Y0109500D01*
X0192120Y0112000D01*
X0193350Y0113230D01*
X0193350Y0115395D01*
X0194078Y0115395D01*
X0195015Y0116332D01*
X0195015Y0121988D01*
X0194078Y0122925D01*
X0188422Y0122925D01*
X0187485Y0121863D02*
X0172034Y0121863D01*
X0170545Y0120665D02*
X0187485Y0120665D01*
X0187485Y0119466D02*
X0136141Y0119466D01*
X0134943Y0118268D02*
X0187485Y0118268D01*
X0187485Y0117069D02*
X0150413Y0117069D01*
X0149856Y0117626D02*
X0148327Y0118259D01*
X0146673Y0118259D01*
X0145144Y0117626D01*
X0143974Y0116456D01*
X0143868Y0116200D01*
X0140380Y0116200D01*
X0139150Y0114970D01*
X0134150Y0109970D01*
X0134150Y0097306D01*
X0134117Y0097292D01*
X0133058Y0096233D01*
X0132485Y0094849D01*
X0132485Y0093351D01*
X0133058Y0091967D01*
X0134117Y0090908D01*
X0135501Y0090335D01*
X0136999Y0090335D01*
X0138383Y0090908D01*
X0139442Y0091967D01*
X0140015Y0093351D01*
X0140015Y0094849D01*
X0139442Y0096233D01*
X0138383Y0097292D01*
X0138350Y0097306D01*
X0138350Y0108230D01*
X0142120Y0112000D01*
X0143868Y0112000D01*
X0143974Y0111744D01*
X0145144Y0110574D01*
X0146673Y0109941D01*
X0148327Y0109941D01*
X0149856Y0110574D01*
X0151026Y0111744D01*
X0151132Y0112000D01*
X0152880Y0112000D01*
X0156650Y0108230D01*
X0156650Y0097306D01*
X0156617Y0097292D01*
X0155558Y0096233D01*
X0154985Y0094849D01*
X0154985Y0093351D01*
X0155558Y0091967D01*
X0156617Y0090908D01*
X0156650Y0090894D01*
X0156650Y0089480D01*
X0159150Y0086980D01*
X0160380Y0085750D01*
X0175370Y0085750D01*
X0176600Y0086980D01*
X0179100Y0089480D01*
X0179100Y0098230D01*
X0180343Y0099473D01*
X0180391Y0099356D01*
X0181506Y0098241D01*
X0182962Y0097638D01*
X0184538Y0097638D01*
X0185994Y0098241D01*
X0187109Y0099356D01*
X0187169Y0099500D01*
X0197120Y0099500D01*
X0202120Y0104500D01*
X0203350Y0105730D01*
X0203350Y0107968D01*
X0203606Y0108074D01*
X0204776Y0109244D01*
X0205409Y0110773D01*
X0205409Y0112427D01*
X0204776Y0113956D01*
X0203606Y0115126D01*
X0202077Y0115759D01*
X0200423Y0115759D01*
X0198894Y0115126D01*
X0197724Y0113956D01*
X0197091Y0112427D01*
X0197091Y0110773D01*
X0197724Y0109244D01*
X0198894Y0108074D01*
X0199150Y0107968D01*
X0199150Y0107470D01*
X0195380Y0103700D01*
X0187169Y0103700D01*
X0187109Y0103844D01*
X0185994Y0104959D01*
X0184538Y0105562D01*
X0182962Y0105562D01*
X0181506Y0104959D01*
X0180391Y0103844D01*
X0180331Y0103700D01*
X0178630Y0103700D01*
X0176130Y0101200D01*
X0174900Y0099970D01*
X0174900Y0091220D01*
X0173630Y0089950D01*
X0162120Y0089950D01*
X0161022Y0091047D01*
X0161942Y0091967D01*
X0162515Y0093351D01*
X0162515Y0094849D01*
X0161942Y0096233D01*
X0160883Y0097292D01*
X0160850Y0097306D01*
X0160850Y0109970D01*
X0155850Y0114970D01*
X0154620Y0116200D01*
X0151132Y0116200D01*
X0151026Y0116456D01*
X0149856Y0117626D01*
X0144587Y0117069D02*
X0133744Y0117069D01*
X0132546Y0115870D02*
X0140051Y0115870D01*
X0138852Y0114672D02*
X0131347Y0114672D01*
X0130149Y0113473D02*
X0137654Y0113473D01*
X0136455Y0112275D02*
X0128950Y0112275D01*
X0127752Y0111076D02*
X0135257Y0111076D01*
X0134150Y0109878D02*
X0126553Y0109878D01*
X0125355Y0108679D02*
X0134150Y0108679D01*
X0134150Y0107481D02*
X0124156Y0107481D01*
X0122958Y0106282D02*
X0134150Y0106282D01*
X0134150Y0105084D02*
X0121759Y0105084D01*
X0120561Y0103885D02*
X0134150Y0103885D01*
X0134150Y0102687D02*
X0119362Y0102687D01*
X0118164Y0101488D02*
X0134150Y0101488D01*
X0134150Y0100290D02*
X0116965Y0100290D01*
X0115767Y0099091D02*
X0134150Y0099091D01*
X0134150Y0097893D02*
X0114568Y0097893D01*
X0113370Y0096694D02*
X0133519Y0096694D01*
X0132753Y0095496D02*
X0112171Y0095496D01*
X0110973Y0094297D02*
X0132485Y0094297D01*
X0132589Y0093099D02*
X0101950Y0093099D01*
X0101950Y0091900D02*
X0133125Y0091900D01*
X0134615Y0090702D02*
X0101950Y0090702D01*
X0101950Y0089503D02*
X0145400Y0089503D01*
X0145016Y0090702D02*
X0137885Y0090702D01*
X0139375Y0091900D02*
X0143909Y0091900D01*
X0143413Y0093099D02*
X0139911Y0093099D01*
X0140015Y0094297D02*
X0143341Y0094297D01*
X0143576Y0095496D02*
X0139747Y0095496D01*
X0138981Y0096694D02*
X0144213Y0096694D01*
X0145789Y0097893D02*
X0138350Y0097893D01*
X0138350Y0099091D02*
X0156650Y0099091D01*
X0156650Y0097893D02*
X0149211Y0097893D01*
X0150787Y0096694D02*
X0156019Y0096694D01*
X0155253Y0095496D02*
X0151424Y0095496D01*
X0151659Y0094297D02*
X0154985Y0094297D01*
X0155089Y0093099D02*
X0151587Y0093099D01*
X0151091Y0091900D02*
X0155625Y0091900D01*
X0156650Y0090702D02*
X0149984Y0090702D01*
X0149600Y0089503D02*
X0156650Y0089503D01*
X0157825Y0088305D02*
X0149600Y0088305D01*
X0149600Y0087106D02*
X0159024Y0087106D01*
X0160222Y0085908D02*
X0148528Y0085908D01*
X0147329Y0084709D02*
X0199150Y0084709D01*
X0199150Y0083511D02*
X0171059Y0083511D01*
X0172258Y0082312D02*
X0183859Y0082312D01*
X0188641Y0082312D02*
X0192475Y0082312D01*
X0192288Y0081114D02*
X0189705Y0081114D01*
X0190201Y0079915D02*
X0192288Y0079915D01*
X0192288Y0078717D02*
X0190212Y0078717D01*
X0189883Y0077518D02*
X0192288Y0077518D01*
X0192288Y0076320D02*
X0189073Y0076320D01*
X0183427Y0076320D02*
X0165015Y0076320D01*
X0164945Y0077518D02*
X0171112Y0077518D01*
X0169914Y0078717D02*
X0164449Y0078717D01*
X0163086Y0079915D02*
X0168715Y0079915D01*
X0175528Y0085908D02*
X0199150Y0085908D01*
X0199150Y0087106D02*
X0176726Y0087106D01*
X0177925Y0088305D02*
X0181442Y0088305D01*
X0180330Y0089503D02*
X0179100Y0089503D01*
X0179100Y0090702D02*
X0179833Y0090702D01*
X0179788Y0091900D02*
X0179100Y0091900D01*
X0179100Y0093099D02*
X0180082Y0093099D01*
X0180844Y0094297D02*
X0179100Y0094297D01*
X0179100Y0095496D02*
X0182802Y0095496D01*
X0184698Y0095496D02*
X0199787Y0095496D01*
X0198066Y0094297D02*
X0186656Y0094297D01*
X0185154Y0097893D02*
X0204573Y0097893D01*
X0205771Y0099091D02*
X0186845Y0099091D01*
X0182346Y0097893D02*
X0179100Y0097893D01*
X0179100Y0096694D02*
X0203374Y0096694D01*
X0206650Y0100290D02*
X0197910Y0100290D01*
X0199108Y0101488D02*
X0206650Y0101488D01*
X0206650Y0102687D02*
X0200307Y0102687D01*
X0201505Y0103885D02*
X0206650Y0103885D01*
X0206650Y0105084D02*
X0202704Y0105084D01*
X0203350Y0106282D02*
X0206650Y0106282D01*
X0206650Y0107481D02*
X0203350Y0107481D01*
X0204211Y0108679D02*
X0206650Y0108679D01*
X0206650Y0109878D02*
X0205038Y0109878D01*
X0205409Y0111076D02*
X0206650Y0111076D01*
X0206650Y0112275D02*
X0205409Y0112275D01*
X0204976Y0113473D02*
X0206650Y0113473D01*
X0206650Y0114672D02*
X0204060Y0114672D01*
X0206650Y0115870D02*
X0194554Y0115870D01*
X0195015Y0117069D02*
X0206650Y0117069D01*
X0206650Y0118268D02*
X0195015Y0118268D01*
X0195015Y0119466D02*
X0206650Y0119466D01*
X0206650Y0120665D02*
X0195015Y0120665D01*
X0195015Y0121863D02*
X0206650Y0121863D01*
X0198440Y0114672D02*
X0193350Y0114672D01*
X0193350Y0113473D02*
X0197524Y0113473D01*
X0197091Y0112275D02*
X0192395Y0112275D01*
X0191196Y0111076D02*
X0197091Y0111076D01*
X0197462Y0109878D02*
X0189998Y0109878D01*
X0188852Y0114672D02*
X0186281Y0114672D01*
X0187946Y0115870D02*
X0154949Y0115870D01*
X0156148Y0114672D02*
X0181219Y0114672D01*
X0181067Y0108679D02*
X0176299Y0108679D01*
X0175101Y0107481D02*
X0199150Y0107481D01*
X0198289Y0108679D02*
X0186433Y0108679D01*
X0185693Y0105084D02*
X0196764Y0105084D01*
X0197963Y0106282D02*
X0173902Y0106282D01*
X0172704Y0105084D02*
X0181807Y0105084D01*
X0180432Y0103885D02*
X0171505Y0103885D01*
X0171100Y0102687D02*
X0177617Y0102687D01*
X0176419Y0101488D02*
X0171100Y0101488D01*
X0171100Y0100290D02*
X0175220Y0100290D01*
X0174900Y0099091D02*
X0171100Y0099091D01*
X0171100Y0097893D02*
X0174900Y0097893D01*
X0174900Y0096694D02*
X0171731Y0096694D01*
X0172497Y0095496D02*
X0174900Y0095496D01*
X0174900Y0094297D02*
X0172765Y0094297D01*
X0172661Y0093099D02*
X0174900Y0093099D01*
X0174900Y0091900D02*
X0172125Y0091900D01*
X0170635Y0090702D02*
X0174382Y0090702D01*
X0167365Y0090702D02*
X0161368Y0090702D01*
X0161875Y0091900D02*
X0165875Y0091900D01*
X0165339Y0093099D02*
X0162411Y0093099D01*
X0162515Y0094297D02*
X0165235Y0094297D01*
X0165503Y0095496D02*
X0162247Y0095496D01*
X0161481Y0096694D02*
X0166269Y0096694D01*
X0166900Y0097893D02*
X0160850Y0097893D01*
X0160850Y0099091D02*
X0166900Y0099091D01*
X0166900Y0100290D02*
X0160850Y0100290D01*
X0160850Y0101488D02*
X0166900Y0101488D01*
X0166900Y0102687D02*
X0160850Y0102687D01*
X0160850Y0103885D02*
X0166900Y0103885D01*
X0166900Y0105084D02*
X0160850Y0105084D01*
X0160850Y0106282D02*
X0167963Y0106282D01*
X0169161Y0107481D02*
X0160850Y0107481D01*
X0160850Y0108679D02*
X0170360Y0108679D01*
X0171558Y0109878D02*
X0160850Y0109878D01*
X0159743Y0111076D02*
X0172757Y0111076D01*
X0173955Y0112275D02*
X0158545Y0112275D01*
X0157346Y0113473D02*
X0175154Y0113473D01*
X0169000Y0120335D02*
X0169000Y0124100D01*
X0169000Y0124100D01*
X0169000Y0124100D01*
X0165235Y0124100D01*
X0169000Y0124100D01*
X0169000Y0124100D01*
X0169000Y0120335D01*
X0169000Y0120665D02*
X0169000Y0120665D01*
X0169000Y0121863D02*
X0169000Y0121863D01*
X0169000Y0123062D02*
X0169000Y0123062D01*
X0169000Y0124260D02*
X0169000Y0124260D01*
X0169000Y0125459D02*
X0169000Y0125459D01*
X0169000Y0126657D02*
X0169000Y0126657D01*
X0166232Y0126657D02*
X0161518Y0126657D01*
X0162263Y0125459D02*
X0165487Y0125459D01*
X0165235Y0124260D02*
X0162515Y0124260D01*
X0162383Y0123062D02*
X0165367Y0123062D01*
X0165966Y0121863D02*
X0161784Y0121863D01*
X0160295Y0120665D02*
X0167455Y0120665D01*
X0172513Y0125459D02*
X0187829Y0125459D01*
X0191250Y0125459D02*
X0191250Y0125459D01*
X0191250Y0126657D02*
X0191250Y0126657D01*
X0191250Y0127856D02*
X0191250Y0127856D01*
X0191250Y0129054D02*
X0191250Y0129054D01*
X0191250Y0130253D02*
X0191250Y0130253D01*
X0191250Y0124260D02*
X0191250Y0124260D01*
X0201650Y0132650D02*
X0166581Y0132650D01*
X0163919Y0132650D02*
X0139450Y0132650D01*
X0139450Y0126657D02*
X0155982Y0126657D01*
X0155237Y0125459D02*
X0139763Y0125459D01*
X0140015Y0124260D02*
X0154985Y0124260D01*
X0155117Y0123062D02*
X0139895Y0123062D01*
X0139338Y0121863D02*
X0155716Y0121863D01*
X0157205Y0120665D02*
X0137795Y0120665D01*
X0141196Y0111076D02*
X0144642Y0111076D01*
X0139998Y0109878D02*
X0155002Y0109878D01*
X0153804Y0111076D02*
X0150358Y0111076D01*
X0156201Y0108679D02*
X0138799Y0108679D01*
X0138350Y0107481D02*
X0156650Y0107481D01*
X0156650Y0106282D02*
X0138350Y0106282D01*
X0138350Y0105084D02*
X0156650Y0105084D01*
X0156650Y0103885D02*
X0138350Y0103885D01*
X0138350Y0102687D02*
X0156650Y0102687D01*
X0156650Y0101488D02*
X0138350Y0101488D01*
X0138350Y0100290D02*
X0156650Y0100290D01*
X0144985Y0088305D02*
X0102119Y0088305D01*
X0102515Y0087106D02*
X0143786Y0087106D01*
X0142588Y0085908D02*
X0102515Y0085908D01*
X0102042Y0084709D02*
X0141389Y0084709D01*
X0140191Y0083511D02*
X0100986Y0083511D01*
X0101914Y0079915D02*
X0096317Y0079915D01*
X0097375Y0078717D02*
X0100551Y0078717D01*
X0100055Y0077518D02*
X0097871Y0077518D01*
X0097909Y0076320D02*
X0099985Y0076320D01*
X0100287Y0075121D02*
X0097639Y0075121D01*
X0096954Y0073923D02*
X0101102Y0073923D01*
X0096846Y0072724D02*
X0148154Y0072724D01*
X0148602Y0073923D02*
X0143898Y0073923D01*
X0144713Y0075121D02*
X0147787Y0075121D01*
X0147485Y0076320D02*
X0145015Y0076320D01*
X0144945Y0077518D02*
X0147555Y0077518D01*
X0148051Y0078717D02*
X0144449Y0078717D01*
X0143350Y0079915D02*
X0149150Y0079915D01*
X0149544Y0081114D02*
X0143734Y0081114D01*
X0144932Y0082312D02*
X0150742Y0082312D01*
X0151941Y0083511D02*
X0146131Y0083511D01*
X0139150Y0079915D02*
X0105586Y0079915D01*
X0106949Y0078717D02*
X0138051Y0078717D01*
X0138602Y0073923D02*
X0106398Y0073923D01*
X0102027Y0114672D02*
X0122297Y0114672D01*
X0123495Y0115870D02*
X0102515Y0115870D01*
X0102515Y0117069D02*
X0124694Y0117069D01*
X0125892Y0118268D02*
X0102135Y0118268D01*
X0101209Y0119466D02*
X0127091Y0119466D01*
X0111690Y0132835D02*
X0111690Y0136600D01*
X0111690Y0136600D01*
X0111690Y0140365D01*
X0111690Y0136600D01*
X0111690Y0136600D01*
X0111690Y0136600D01*
X0111690Y0132835D01*
X0111690Y0133848D02*
X0111690Y0133848D01*
X0111690Y0135047D02*
X0111690Y0135047D01*
X0111690Y0136245D02*
X0111690Y0136245D01*
X0111690Y0137444D02*
X0111690Y0137444D01*
X0111690Y0138642D02*
X0111690Y0138642D01*
X0111690Y0139841D02*
X0111690Y0139841D01*
X0109763Y0139841D02*
X0107163Y0139841D01*
X0107575Y0138642D02*
X0108526Y0138642D01*
X0108019Y0137444D02*
X0107575Y0137444D01*
X0107575Y0136245D02*
X0107925Y0136245D01*
X0108258Y0135047D02*
X0107575Y0135047D01*
X0107575Y0133848D02*
X0109117Y0133848D01*
X0100045Y0133848D02*
X0098968Y0133848D01*
X0153350Y0072724D02*
X0159150Y0072724D01*
X0159150Y0071526D02*
X0152895Y0071526D01*
X0151697Y0070327D02*
X0159150Y0070327D01*
X0158309Y0069129D02*
X0150498Y0069129D01*
X0153898Y0073923D02*
X0158602Y0073923D01*
X0157787Y0075121D02*
X0154713Y0075121D01*
X0155015Y0076320D02*
X0157485Y0076320D01*
X0157555Y0077518D02*
X0154945Y0077518D01*
X0154449Y0078717D02*
X0158051Y0078717D01*
X0159414Y0079915D02*
X0154285Y0079915D01*
X0176604Y0053548D02*
X0190896Y0053548D01*
X0189663Y0052349D02*
X0177837Y0052349D01*
X0178494Y0051151D02*
X0189006Y0051151D01*
X0188607Y0049952D02*
X0178893Y0049952D01*
X0178893Y0048754D02*
X0188607Y0048754D01*
X0188849Y0047555D02*
X0178651Y0047555D01*
X0178155Y0046357D02*
X0189345Y0046357D01*
X0190481Y0045158D02*
X0177019Y0045158D01*
X0175850Y0043960D02*
X0210640Y0043960D01*
X0208607Y0045158D02*
X0197019Y0045158D01*
X0198155Y0046357D02*
X0208607Y0046357D01*
X0208607Y0047555D02*
X0198651Y0047555D01*
X0198893Y0048754D02*
X0208607Y0048754D01*
X0208607Y0049952D02*
X0198893Y0049952D01*
X0198494Y0051151D02*
X0208607Y0051151D01*
X0208607Y0052349D02*
X0197837Y0052349D01*
X0196604Y0053548D02*
X0208786Y0053548D01*
X0222984Y0040364D02*
X0234683Y0040364D01*
X0234683Y0039166D02*
X0221786Y0039166D01*
X0220587Y0037967D02*
X0234683Y0037967D01*
X0234683Y0036769D02*
X0219389Y0036769D01*
X0218190Y0035570D02*
X0234683Y0035570D01*
X0234683Y0034372D02*
X0216992Y0034372D01*
X0215793Y0033173D02*
X0234683Y0033173D01*
X0234683Y0031975D02*
X0214595Y0031975D01*
X0213396Y0030776D02*
X0234683Y0030776D01*
X0234683Y0029578D02*
X0212198Y0029578D01*
X0210999Y0028379D02*
X0234683Y0028379D01*
X0234683Y0027181D02*
X0209800Y0027181D01*
X0208602Y0025982D02*
X0234683Y0025982D01*
X0234683Y0024784D02*
X0207403Y0024784D01*
X0191250Y0035570D02*
X0176096Y0035570D01*
X0177286Y0036769D02*
X0190214Y0036769D01*
X0189717Y0037967D02*
X0177783Y0037967D01*
X0177909Y0039166D02*
X0189591Y0039166D01*
X0189772Y0040364D02*
X0177728Y0040364D01*
X0177169Y0041563D02*
X0190331Y0041563D01*
X0191721Y0042761D02*
X0175850Y0042761D01*
X0170481Y0045158D02*
X0164728Y0045158D01*
X0165015Y0046357D02*
X0169345Y0046357D01*
X0186058Y0088305D02*
X0198663Y0088305D01*
X0195566Y0103885D02*
X0187068Y0103885D01*
X0180655Y0099091D02*
X0179961Y0099091D01*
X0158750Y0120335D02*
X0158750Y0124100D01*
X0158750Y0124100D01*
X0158750Y0120335D01*
X0158750Y0120665D02*
X0158750Y0120665D01*
X0158750Y0121863D02*
X0158750Y0121863D01*
X0158750Y0123062D02*
X0158750Y0123062D01*
X0158750Y0124260D02*
X0158750Y0124260D01*
X0158750Y0125459D02*
X0158750Y0125459D01*
X0158750Y0126657D02*
X0158750Y0126657D01*
X0184097Y0154223D02*
X0226650Y0154223D01*
X0226650Y0155421D02*
X0182898Y0155421D01*
X0181700Y0156620D02*
X0226650Y0156620D01*
X0226650Y0157818D02*
X0180501Y0157818D01*
X0179303Y0159017D02*
X0226650Y0159017D01*
X0226650Y0160215D02*
X0178104Y0160215D01*
X0176906Y0161414D02*
X0226650Y0161414D01*
X0226650Y0162612D02*
X0175850Y0162612D01*
X0185295Y0153024D02*
X0226650Y0153024D01*
X0226650Y0151826D02*
X0185850Y0151826D01*
X0196870Y0165009D02*
X0208714Y0165009D01*
X0208607Y0166208D02*
X0198069Y0166208D01*
X0198589Y0167406D02*
X0208607Y0167406D01*
X0208607Y0168605D02*
X0198893Y0168605D01*
X0198893Y0169803D02*
X0208607Y0169803D01*
X0208607Y0171002D02*
X0198555Y0171002D01*
X0197986Y0172201D02*
X0208607Y0172201D01*
X0208759Y0173399D02*
X0196788Y0173399D01*
X0213267Y0173399D02*
X0214233Y0173399D01*
X0214233Y0172201D02*
X0213267Y0172201D01*
X0213267Y0171002D02*
X0214233Y0171002D01*
X0214233Y0169803D02*
X0213267Y0169803D01*
X0213267Y0168605D02*
X0214233Y0168605D01*
X0214233Y0167406D02*
X0213267Y0167406D01*
X0213267Y0166208D02*
X0214233Y0166208D01*
X0214233Y0165009D02*
X0213267Y0165009D01*
X0225127Y0178193D02*
X0234683Y0178193D01*
X0234683Y0176995D02*
X0226325Y0176995D01*
X0227524Y0175796D02*
X0234683Y0175796D01*
X0234683Y0174598D02*
X0228722Y0174598D01*
X0229921Y0173399D02*
X0234683Y0173399D01*
X0234683Y0172201D02*
X0230850Y0172201D01*
X0230850Y0171002D02*
X0234683Y0171002D01*
X0234683Y0169803D02*
X0230850Y0169803D01*
X0230850Y0168605D02*
X0234683Y0168605D01*
X0234683Y0167406D02*
X0230850Y0167406D01*
X0230850Y0166208D02*
X0234683Y0166208D01*
X0234683Y0165009D02*
X0230850Y0165009D01*
X0230850Y0163811D02*
X0234683Y0163811D01*
X0234683Y0162612D02*
X0230850Y0162612D01*
X0230850Y0161414D02*
X0234683Y0161414D01*
X0234683Y0160215D02*
X0230850Y0160215D01*
X0230850Y0159017D02*
X0234683Y0159017D01*
X0234683Y0157818D02*
X0230850Y0157818D01*
X0230850Y0156620D02*
X0234683Y0156620D01*
X0234683Y0155421D02*
X0230850Y0155421D01*
X0230850Y0154223D02*
X0234683Y0154223D01*
X0234683Y0153024D02*
X0230850Y0153024D01*
X0230850Y0151826D02*
X0234683Y0151826D01*
X0234683Y0150627D02*
X0230850Y0150627D01*
X0230850Y0149429D02*
X0234683Y0149429D01*
X0234683Y0148230D02*
X0230850Y0148230D01*
X0230850Y0147032D02*
X0234683Y0147032D01*
X0234683Y0145833D02*
X0230850Y0145833D01*
X0230850Y0144635D02*
X0234683Y0144635D01*
X0234683Y0143436D02*
X0230850Y0143436D01*
X0230850Y0142238D02*
X0234683Y0142238D01*
X0234683Y0141039D02*
X0230850Y0141039D01*
X0230850Y0139841D02*
X0234683Y0139841D01*
X0234683Y0138642D02*
X0230850Y0138642D01*
X0230850Y0137444D02*
X0234683Y0137444D01*
X0234683Y0136245D02*
X0230850Y0136245D01*
X0230850Y0135047D02*
X0234683Y0135047D01*
X0234683Y0133848D02*
X0230850Y0133848D01*
X0230850Y0132650D02*
X0234683Y0132650D01*
X0234683Y0131451D02*
X0230850Y0131451D01*
X0230850Y0130253D02*
X0234683Y0130253D01*
X0234683Y0129054D02*
X0230850Y0129054D01*
X0230850Y0127856D02*
X0234683Y0127856D01*
X0234683Y0126657D02*
X0230850Y0126657D01*
X0230850Y0125459D02*
X0234683Y0125459D01*
X0234683Y0124260D02*
X0230850Y0124260D01*
X0230850Y0123062D02*
X0234683Y0123062D01*
X0234683Y0121863D02*
X0230850Y0121863D01*
X0230850Y0120665D02*
X0234683Y0120665D01*
X0234683Y0119466D02*
X0230850Y0119466D01*
X0230850Y0118268D02*
X0234683Y0118268D01*
X0234683Y0117069D02*
X0230850Y0117069D01*
X0230850Y0115870D02*
X0234683Y0115870D01*
X0234683Y0114672D02*
X0230850Y0114672D01*
X0230850Y0113473D02*
X0234683Y0113473D01*
X0234683Y0112275D02*
X0230850Y0112275D01*
X0230850Y0111076D02*
X0234683Y0111076D01*
X0234683Y0109878D02*
X0230850Y0109878D01*
X0230850Y0108679D02*
X0234683Y0108679D01*
X0234683Y0107481D02*
X0230850Y0107481D01*
X0230850Y0106282D02*
X0234683Y0106282D01*
X0234683Y0105084D02*
X0230850Y0105084D01*
X0230850Y0103885D02*
X0234683Y0103885D01*
X0234683Y0102687D02*
X0230850Y0102687D01*
X0230850Y0101488D02*
X0234683Y0101488D01*
X0234683Y0100290D02*
X0230850Y0100290D01*
X0230850Y0099091D02*
X0234683Y0099091D01*
X0234683Y0097893D02*
X0230850Y0097893D01*
X0230850Y0096694D02*
X0234683Y0096694D01*
X0234683Y0095496D02*
X0230850Y0095496D01*
X0230850Y0094297D02*
X0234683Y0094297D01*
X0234683Y0093099D02*
X0230850Y0093099D01*
X0230850Y0091900D02*
X0234683Y0091900D01*
X0234683Y0090702D02*
X0230850Y0090702D01*
X0230850Y0089503D02*
X0234683Y0089503D01*
X0234683Y0088305D02*
X0230850Y0088305D01*
X0230850Y0087106D02*
X0234683Y0087106D01*
X0234683Y0085908D02*
X0230850Y0085908D01*
X0230850Y0084709D02*
X0234683Y0084709D01*
X0234683Y0083511D02*
X0230850Y0083511D01*
X0230850Y0082312D02*
X0234683Y0082312D01*
X0234683Y0081114D02*
X0230850Y0081114D01*
X0230850Y0079915D02*
X0234683Y0079915D01*
X0234683Y0078717D02*
X0230850Y0078717D01*
X0230850Y0077518D02*
X0234683Y0077518D01*
X0234683Y0076320D02*
X0230850Y0076320D01*
X0230850Y0075121D02*
X0234683Y0075121D01*
X0234683Y0073923D02*
X0230850Y0073923D01*
X0230850Y0072724D02*
X0234683Y0072724D01*
X0234683Y0071526D02*
X0230850Y0071526D01*
X0230850Y0070327D02*
X0234683Y0070327D01*
X0234683Y0069129D02*
X0230850Y0069129D01*
X0230850Y0067930D02*
X0234683Y0067930D01*
X0234683Y0066732D02*
X0230850Y0066732D01*
X0230850Y0065533D02*
X0234683Y0065533D01*
X0234683Y0064334D02*
X0230850Y0064334D01*
X0230850Y0063136D02*
X0234683Y0063136D01*
X0234683Y0061937D02*
X0230850Y0061937D01*
X0230850Y0060739D02*
X0234683Y0060739D01*
X0234683Y0059540D02*
X0230850Y0059540D01*
X0230850Y0058342D02*
X0234683Y0058342D01*
X0234683Y0057143D02*
X0230850Y0057143D01*
X0230850Y0055945D02*
X0234683Y0055945D01*
X0234683Y0054746D02*
X0230850Y0054746D01*
X0230850Y0053548D02*
X0234683Y0053548D01*
X0234683Y0052349D02*
X0230850Y0052349D01*
X0230850Y0051151D02*
X0234683Y0051151D01*
X0234683Y0049952D02*
X0230850Y0049952D01*
X0230850Y0048754D02*
X0234683Y0048754D01*
X0234683Y0047555D02*
X0230175Y0047555D01*
X0228977Y0046357D02*
X0234683Y0046357D01*
X0234683Y0045158D02*
X0227778Y0045158D01*
X0226580Y0043960D02*
X0234683Y0043960D01*
X0234683Y0042761D02*
X0225381Y0042761D01*
X0224183Y0041563D02*
X0234683Y0041563D01*
X0234683Y0179392D02*
X0223928Y0179392D01*
X0222730Y0180590D02*
X0234683Y0180590D01*
X0234683Y0181789D02*
X0221531Y0181789D01*
X0220333Y0182987D02*
X0234683Y0182987D01*
X0234683Y0184186D02*
X0219134Y0184186D01*
X0217936Y0185384D02*
X0234683Y0185384D01*
X0234683Y0186583D02*
X0216737Y0186583D01*
X0215539Y0187781D02*
X0234683Y0187781D01*
X0234683Y0188980D02*
X0214340Y0188980D01*
X0213142Y0190178D02*
X0234683Y0190178D01*
X0234683Y0191377D02*
X0211943Y0191377D01*
X0210745Y0192575D02*
X0234683Y0192575D01*
X0234683Y0193774D02*
X0209546Y0193774D01*
X0208348Y0194972D02*
X0234683Y0194972D01*
X0234683Y0196171D02*
X0207149Y0196171D01*
X0205951Y0197369D02*
X0234683Y0197369D01*
X0234683Y0198568D02*
X0204752Y0198568D01*
X0203554Y0199766D02*
X0234683Y0199766D01*
X0234683Y0200965D02*
X0202355Y0200965D01*
X0201157Y0202163D02*
X0234683Y0202163D01*
X0234683Y0203362D02*
X0199958Y0203362D01*
X0198760Y0204560D02*
X0234683Y0204560D01*
X0234683Y0205759D02*
X0197561Y0205759D01*
X0196362Y0206957D02*
X0234683Y0206957D01*
X0234683Y0208156D02*
X0195164Y0208156D01*
X0193965Y0209354D02*
X0234683Y0209354D01*
D24*
X0233000Y0201600D03*
X0233000Y0161600D03*
X0233000Y0121600D03*
X0220500Y0121600D03*
X0193000Y0109100D03*
X0193000Y0096600D03*
X0191250Y0085600D03*
X0183750Y0060850D03*
X0183750Y0038350D03*
X0201250Y0020850D03*
X0201250Y0010850D03*
X0204250Y0037350D03*
X0204250Y0046100D03*
X0233000Y0041600D03*
X0233000Y0010850D03*
X0233000Y0081600D03*
X0220500Y0081600D03*
X0161250Y0020850D03*
X0161250Y0010850D03*
X0151750Y0034850D03*
X0121250Y0043350D03*
X0111250Y0043350D03*
X0121250Y0010850D03*
X0081250Y0010850D03*
X0081250Y0021350D03*
X0081250Y0030850D03*
X0058750Y0048350D03*
X0058750Y0060850D03*
X0041250Y0030850D03*
X0041250Y0021350D03*
X0041250Y0010850D03*
X0009500Y0010850D03*
X0009500Y0041600D03*
X0009500Y0081600D03*
X0022000Y0081600D03*
X0046250Y0117100D03*
X0022000Y0121600D03*
X0009500Y0121600D03*
X0009500Y0161600D03*
X0019500Y0161600D03*
X0009500Y0201600D03*
X0009500Y0241600D03*
X0048000Y0241600D03*
X0048000Y0279850D03*
X0090500Y0279850D03*
X0125500Y0279850D03*
X0153000Y0279850D03*
X0153000Y0241600D03*
X0125500Y0244100D03*
X0125500Y0201600D03*
X0153000Y0201600D03*
X0123000Y0164100D03*
X0133500Y0159100D03*
X0123250Y0121600D03*
X0110750Y0121600D03*
X0083750Y0093350D03*
X0111250Y0081600D03*
X0121250Y0081600D03*
X0148000Y0104100D03*
X0195500Y0161600D03*
X0190500Y0201600D03*
X0190500Y0241600D03*
X0190500Y0279850D03*
X0233000Y0241600D03*
X0090500Y0201600D03*
X0048000Y0201600D03*
X0078750Y0133350D03*
D25*
X0083750Y0126600D02*
X0088750Y0126600D01*
X0098750Y0136600D01*
X0103810Y0136600D01*
X0098750Y0126600D02*
X0098750Y0116600D01*
X0088750Y0116600D01*
X0078750Y0106600D01*
X0068750Y0106600D01*
X0068750Y0116600D02*
X0073750Y0116600D01*
X0083750Y0126600D01*
X0088750Y0136600D02*
X0088750Y0144100D01*
X0076250Y0156600D01*
X0068750Y0156600D01*
X0068750Y0146600D02*
X0053750Y0146600D01*
X0043750Y0146600D01*
X0039190Y0142040D01*
X0039190Y0139100D01*
X0039190Y0129540D01*
X0036250Y0126600D01*
X0026250Y0126600D01*
X0031250Y0139100D02*
X0031250Y0146600D01*
X0028750Y0149100D01*
X0028750Y0169163D01*
X0031250Y0139100D02*
X0031310Y0139100D01*
X0043750Y0126600D02*
X0053750Y0126600D01*
X0053750Y0136600D02*
X0068750Y0136600D01*
X0068750Y0126600D01*
X0068750Y0116600D02*
X0053750Y0116600D01*
X0053750Y0106600D02*
X0043750Y0106600D01*
X0038750Y0111600D01*
X0038750Y0116600D01*
X0038750Y0121600D01*
X0043750Y0126600D01*
X0053750Y0106600D02*
X0056250Y0106600D01*
X0066250Y0096600D01*
X0068750Y0096600D01*
X0068750Y0086600D02*
X0053750Y0086600D01*
X0053750Y0096600D01*
X0038750Y0096600D01*
X0026250Y0096600D01*
X0053750Y0076600D02*
X0081250Y0076600D01*
X0081250Y0069100D01*
X0086250Y0064100D01*
X0156250Y0064100D01*
X0161250Y0069100D01*
X0161250Y0076600D01*
X0154000Y0082600D02*
X0169000Y0082600D01*
X0172500Y0079100D01*
X0186250Y0079100D01*
X0196250Y0079100D02*
X0198750Y0079100D01*
X0201250Y0081600D01*
X0201250Y0091600D01*
X0208750Y0099100D01*
X0208750Y0124100D01*
X0203750Y0129100D01*
X0203750Y0136600D01*
X0203750Y0146600D01*
X0183750Y0146600D02*
X0183750Y0151600D01*
X0173750Y0161600D01*
X0173750Y0169163D01*
X0185000Y0215350D02*
X0143926Y0215350D01*
X0185000Y0215350D02*
X0228750Y0171600D01*
X0228750Y0049100D01*
X0206250Y0026600D01*
X0136250Y0026600D01*
X0141250Y0046600D02*
X0141250Y0054100D01*
X0143750Y0056600D01*
X0191250Y0056600D01*
X0193750Y0054100D01*
X0193750Y0049163D01*
X0196250Y0041600D02*
X0211250Y0041600D01*
X0213750Y0044100D01*
X0213750Y0049163D01*
X0196250Y0041600D02*
X0193750Y0039100D01*
X0193750Y0035100D01*
X0191250Y0032600D01*
X0161250Y0032600D01*
X0151250Y0042600D01*
X0151250Y0046600D01*
X0161250Y0046600D02*
X0163750Y0049100D01*
X0166250Y0049100D01*
X0166313Y0049163D01*
X0173750Y0049163D01*
X0173750Y0039100D01*
X0148750Y0070350D02*
X0151250Y0072850D01*
X0151250Y0076600D01*
X0151250Y0079850D01*
X0154000Y0082600D01*
X0161250Y0087850D02*
X0158750Y0090350D01*
X0158750Y0094100D01*
X0158750Y0109100D01*
X0153750Y0114100D01*
X0147500Y0114100D01*
X0141250Y0114100D01*
X0136250Y0109100D01*
X0136250Y0094100D01*
X0147500Y0087850D02*
X0141250Y0081600D01*
X0141250Y0076600D01*
X0103750Y0076600D01*
X0096250Y0070350D02*
X0148750Y0070350D01*
X0147500Y0087850D02*
X0147500Y0094100D01*
X0161250Y0087850D02*
X0174500Y0087850D01*
X0177000Y0090350D01*
X0177000Y0099100D01*
X0179500Y0101600D01*
X0183750Y0101600D01*
X0196250Y0101600D01*
X0201250Y0106600D01*
X0201250Y0111600D01*
X0191250Y0114100D02*
X0191250Y0119160D01*
X0191250Y0114100D02*
X0188750Y0111600D01*
X0183750Y0111600D01*
X0176250Y0111600D01*
X0169000Y0104350D01*
X0169000Y0094100D01*
X0183750Y0091600D02*
X0201250Y0091600D01*
X0106250Y0026600D02*
X0036250Y0026600D01*
X0013750Y0049100D01*
X0013750Y0200350D01*
X0028750Y0215350D01*
X0034362Y0215350D01*
X0034425Y0215413D01*
X0093750Y0076600D02*
X0093750Y0072850D01*
X0096250Y0070350D01*
X0093750Y0056600D02*
X0093750Y0051600D01*
X0091313Y0049163D01*
X0068750Y0049163D01*
X0081250Y0056600D02*
X0031250Y0056600D01*
X0028750Y0054100D01*
X0028750Y0049163D01*
X0048750Y0049163D02*
X0048750Y0044100D01*
X0051250Y0041600D01*
X0101250Y0041600D01*
X0103750Y0044100D01*
X0103750Y0046600D01*
D26*
X0098750Y0086600D02*
X0098750Y0096600D01*
X0108750Y0096600D01*
X0136250Y0124100D01*
X0136250Y0136600D01*
X0154750Y0136600D01*
X0165250Y0136600D01*
X0173750Y0136600D01*
X0154750Y0166600D02*
X0154750Y0176850D01*
X0134750Y0196600D01*
X0134750Y0253100D01*
X0131250Y0256600D01*
X0121385Y0256600D01*
X0121125Y0256860D01*
M02*
