%
M48
M72
T01C0.01575
T02C0.01969
T03C0.02362
T04C0.02756
T05C0.03543
T06C0.05512
T07C0.09843
%
T01
X43750Y81800
X53750Y81800
X68750Y86800
X68750Y96800
X68750Y106800
X68750Y116800
X68750Y126800
X68750Y136800
X68750Y146800
X68750Y156800
X88750Y136800
X98750Y126800
X103810Y136800
X111690Y136800
X98750Y146800
X98750Y156800
X98750Y116800
X98750Y106800
X98750Y96800
X98750Y86800
X93750Y76800
X103750Y76800
X93750Y56800
X81250Y56800
X81250Y76800
X103750Y46800
X141250Y46800
X151250Y46800
X161250Y46800
X173750Y36800
X193750Y36800
X196250Y79300
X186250Y79300
X201250Y91800
X201250Y111800
X191250Y119360
X191250Y127240
X201250Y136800
X201250Y146800
X181250Y146800
X171250Y136800
X171250Y124300
X161250Y124300
X151250Y114300
X141250Y124300
X134750Y151800
X148750Y151860
X148750Y159740
X163250Y151800
X163250Y171800
X134750Y181800
X141250Y94300
X151250Y94300
X161250Y94300
X171250Y94300
X161250Y76800
X151250Y76800
X141250Y76800
X38750Y96800
X26250Y96800
X38750Y116800
X26250Y126800
X28810Y139300
X36690Y139300
T02
X53750Y136800
X53750Y126800
X53750Y116800
X53750Y106800
X53750Y96800
X53750Y146800
X148750Y169300
X148750Y189300
X183750Y111800
X183750Y101800
X183750Y91800
T03
X116250Y109300
T04
X116250Y26800
X116250Y16800
X106250Y16800
X106250Y26800
X126250Y26800
X126250Y16800
X136250Y16800
X136250Y26800
T05
X28750Y49363
X48750Y49363
X68750Y49363
X68750Y169363
X48750Y169363
X28750Y169363
X173750Y169363
X193750Y169363
X213750Y169363
X213750Y49363
X193750Y49363
X173750Y49363
T06
X143926Y215550
X143926Y240550
X143926Y265550
X98323Y265613
X98323Y240613
X98323Y215613
X34425Y215613
X34425Y240613
X34425Y265613
X207824Y265550
X207824Y240550
X207824Y215550
T07
X121125Y233438
X121125Y257060
M30
