G75*
%MOIN*%
%OFA0B0*%
%FSLAX25Y25*%
%IPPOS*%
%LPD*%
%AMOC8*
5,1,8,0,0,1.08239X$1,22.5*
%
%ADD10C,0.08268*%
%ADD11C,0.04724*%
%ADD12R,0.04724X0.04724*%
%ADD13C,0.04331*%
%ADD14R,0.04331X0.04331*%
%ADD15C,0.03937*%
%ADD16R,0.03937X0.03937*%
%ADD17R,0.06299X0.06299*%
%ADD18C,0.06299*%
%ADD19C,0.13843*%
%ADD20C,0.05512*%
%ADD21C,0.00000*%
%ADD22C,0.01000*%
%ADD23C,0.03200*%
%ADD24R,0.03562X0.03562*%
D10*
X0034425Y0215613D03*
X0034425Y0240613D03*
X0034425Y0265613D03*
X0098323Y0265613D03*
X0098323Y0240613D03*
X0098323Y0215613D03*
X0143926Y0215550D03*
X0143926Y0240550D03*
X0143926Y0265550D03*
X0207824Y0265550D03*
X0207824Y0240550D03*
X0207824Y0215550D03*
D11*
X0148750Y0189300D03*
X0183750Y0111800D03*
X0183750Y0101800D03*
X0183750Y0091800D03*
X0053750Y0096800D03*
X0053750Y0106800D03*
X0053750Y0116800D03*
X0053750Y0126800D03*
X0053750Y0136800D03*
X0053750Y0146800D03*
D12*
X0148750Y0169300D03*
D13*
X0148750Y0159740D03*
X0134750Y0151800D03*
X0141250Y0124300D03*
X0151250Y0114300D03*
X0161250Y0124300D03*
X0171250Y0124300D03*
X0171250Y0136800D03*
X0181250Y0146800D03*
X0191250Y0127240D03*
X0201250Y0136800D03*
X0201250Y0146800D03*
X0171250Y0094300D03*
X0161250Y0094300D03*
X0151250Y0094300D03*
X0141250Y0094300D03*
X0141250Y0076800D03*
X0151250Y0076800D03*
X0161250Y0076800D03*
X0161250Y0046800D03*
X0151250Y0046800D03*
X0141250Y0046800D03*
X0173750Y0036800D03*
X0193750Y0036800D03*
X0111690Y0136800D03*
X0098750Y0126800D03*
X0098750Y0116800D03*
X0098750Y0106800D03*
X0098750Y0096800D03*
X0098750Y0086800D03*
X0093750Y0076800D03*
X0103750Y0076800D03*
X0093750Y0056800D03*
X0081250Y0056800D03*
X0081250Y0076800D03*
X0068750Y0086800D03*
X0068750Y0096800D03*
X0068750Y0106800D03*
X0068750Y0116800D03*
X0068750Y0126800D03*
X0068750Y0136800D03*
X0068750Y0146800D03*
X0068750Y0156800D03*
X0088750Y0136800D03*
X0098750Y0146800D03*
X0098750Y0156800D03*
X0134750Y0181800D03*
X0028810Y0139300D03*
X0026250Y0126800D03*
X0026250Y0096800D03*
X0103750Y0046800D03*
D14*
X0103810Y0136800D03*
X0148750Y0151860D03*
X0191250Y0119360D03*
X0036690Y0139300D03*
D15*
X0038750Y0116800D03*
X0038750Y0096800D03*
X0043750Y0081800D03*
X0163250Y0151800D03*
X0163250Y0171800D03*
X0201250Y0111800D03*
X0201250Y0091800D03*
X0186250Y0079300D03*
D16*
X0196250Y0079300D03*
X0053750Y0081800D03*
D17*
X0068750Y0049363D03*
X0068750Y0169363D03*
X0213750Y0169363D03*
X0213750Y0049363D03*
D18*
X0193750Y0049363D03*
X0173750Y0049363D03*
X0173750Y0169363D03*
X0193750Y0169363D03*
X0048750Y0169363D03*
X0028750Y0169363D03*
X0028750Y0049363D03*
X0048750Y0049363D03*
D19*
X0121125Y0233438D03*
X0121125Y0257060D03*
D20*
X0116250Y0026800D03*
X0116250Y0016800D03*
X0106250Y0016800D03*
X0106250Y0026800D03*
X0126250Y0026800D03*
X0126250Y0016800D03*
X0136250Y0016800D03*
X0136250Y0026800D03*
D21*
X0237283Y0006800D02*
X0005000Y0006800D01*
X0005000Y0259831D01*
X0026654Y0259831D01*
X0026654Y0287391D01*
X0215630Y0287391D01*
X0215630Y0259831D01*
X0237283Y0259831D01*
X0237283Y0006800D01*
D22*
X0208750Y0026800D02*
X0136250Y0026800D01*
X0141250Y0046800D02*
X0141250Y0054300D01*
X0143750Y0056800D01*
X0191250Y0056800D01*
X0193750Y0054300D01*
X0193750Y0049363D01*
X0196250Y0041800D02*
X0211250Y0041800D01*
X0213750Y0044300D01*
X0213750Y0049363D01*
X0231250Y0049300D02*
X0208750Y0026800D01*
X0193750Y0039300D02*
X0196250Y0041800D01*
X0193750Y0039300D02*
X0193750Y0036800D01*
X0193750Y0034300D01*
X0191250Y0031800D01*
X0161250Y0031800D01*
X0151250Y0041800D01*
X0151250Y0046800D01*
X0161250Y0046800D02*
X0163750Y0049300D01*
X0166250Y0049300D01*
X0166313Y0049363D01*
X0173750Y0049363D01*
X0173750Y0036800D01*
X0156250Y0064300D02*
X0161250Y0069300D01*
X0161250Y0076800D01*
X0168750Y0081800D02*
X0171250Y0079300D01*
X0186250Y0079300D01*
X0196250Y0079300D02*
X0198750Y0079300D01*
X0201250Y0081800D01*
X0201250Y0091800D01*
X0201250Y0094300D01*
X0206250Y0099300D01*
X0206250Y0129300D01*
X0201250Y0134300D01*
X0201250Y0136800D01*
X0201250Y0146800D01*
X0181250Y0146800D02*
X0181250Y0151800D01*
X0173750Y0159300D01*
X0173750Y0169363D01*
X0191250Y0186800D02*
X0162500Y0215550D01*
X0143926Y0215550D01*
X0191250Y0186800D02*
X0216250Y0186800D01*
X0231250Y0171800D01*
X0231250Y0049300D01*
X0201250Y0091800D02*
X0183750Y0091800D01*
X0178750Y0091800D02*
X0178750Y0099300D01*
X0181250Y0101800D01*
X0183750Y0101800D01*
X0196250Y0101800D01*
X0201250Y0106800D01*
X0201250Y0111800D01*
X0191250Y0114300D02*
X0191250Y0119360D01*
X0191250Y0114300D02*
X0188750Y0111800D01*
X0183750Y0111800D01*
X0178750Y0111800D01*
X0171250Y0104300D01*
X0171250Y0094300D01*
X0176250Y0089300D02*
X0178750Y0091800D01*
X0176250Y0089300D02*
X0163750Y0089300D01*
X0161250Y0091800D01*
X0161250Y0094300D01*
X0161250Y0109300D01*
X0156250Y0114300D01*
X0151250Y0114300D01*
X0146250Y0114300D01*
X0141250Y0109300D01*
X0141250Y0094300D01*
X0143750Y0086800D02*
X0148750Y0086800D01*
X0151250Y0089300D01*
X0151250Y0094300D01*
X0143750Y0086800D02*
X0141250Y0084300D01*
X0141250Y0076800D01*
X0103750Y0076800D01*
X0096250Y0070550D02*
X0148750Y0070550D01*
X0151250Y0073050D01*
X0151250Y0076800D01*
X0151250Y0079300D01*
X0153750Y0081800D01*
X0168750Y0081800D01*
X0156250Y0064300D02*
X0086250Y0064300D01*
X0081250Y0069300D01*
X0081250Y0076800D01*
X0073750Y0076800D01*
X0071250Y0074300D01*
X0046250Y0074300D01*
X0043750Y0076800D01*
X0043750Y0081800D01*
X0053750Y0081800D02*
X0053750Y0096800D01*
X0038750Y0096800D01*
X0026250Y0096800D01*
X0038750Y0111800D02*
X0043750Y0106800D01*
X0053750Y0106800D01*
X0056250Y0106800D01*
X0066250Y0096800D01*
X0068750Y0096800D01*
X0068750Y0086800D02*
X0063750Y0086800D01*
X0058750Y0081800D01*
X0053750Y0081800D01*
X0068750Y0106800D02*
X0078750Y0106800D01*
X0088750Y0116800D01*
X0098750Y0116800D01*
X0098750Y0126800D01*
X0098750Y0136800D02*
X0103810Y0136800D01*
X0098750Y0136800D02*
X0088750Y0126800D01*
X0083750Y0126800D01*
X0073750Y0116800D01*
X0068750Y0116800D01*
X0053750Y0116800D01*
X0053750Y0126800D02*
X0043750Y0126800D01*
X0038750Y0121800D01*
X0038750Y0116800D01*
X0038750Y0111800D01*
X0026250Y0126800D02*
X0026250Y0129300D01*
X0028750Y0131800D01*
X0033750Y0131800D01*
X0036250Y0134300D01*
X0036250Y0138860D01*
X0036690Y0139300D01*
X0036690Y0144740D01*
X0038750Y0146800D01*
X0053750Y0146800D01*
X0068750Y0146800D01*
X0068750Y0136800D02*
X0068750Y0126800D01*
X0068750Y0136800D02*
X0053750Y0136800D01*
X0068750Y0156800D02*
X0076250Y0156800D01*
X0088750Y0144300D01*
X0088750Y0136800D01*
X0093750Y0076800D02*
X0093750Y0073050D01*
X0096250Y0070550D01*
X0093750Y0056800D02*
X0093750Y0051800D01*
X0091313Y0049363D01*
X0068750Y0049363D01*
X0081250Y0056800D02*
X0031250Y0056800D01*
X0028750Y0054300D01*
X0028750Y0049363D01*
X0011250Y0049300D02*
X0033750Y0026800D01*
X0106250Y0026800D01*
X0101250Y0041800D02*
X0103750Y0044300D01*
X0103750Y0046800D01*
X0101250Y0041800D02*
X0051250Y0041800D01*
X0048750Y0044300D01*
X0048750Y0049363D01*
X0011250Y0049300D02*
X0011250Y0196800D01*
X0030063Y0215613D01*
X0034425Y0215613D01*
X0028750Y0169363D02*
X0028750Y0139360D01*
X0028810Y0139300D01*
D23*
X0098750Y0096800D02*
X0098750Y0086800D01*
X0098750Y0096800D02*
X0121250Y0096800D01*
X0128750Y0104300D01*
X0128750Y0116800D01*
X0136250Y0124300D01*
X0141250Y0124300D01*
X0147750Y0124300D01*
X0163250Y0139800D01*
X0166250Y0136800D01*
X0171250Y0136800D01*
X0163250Y0139800D02*
X0163250Y0151800D01*
X0163190Y0151860D01*
X0148750Y0151860D01*
X0148690Y0151800D01*
X0134750Y0151800D01*
X0126250Y0134300D02*
X0126250Y0173300D01*
X0134750Y0181800D01*
X0134750Y0180800D01*
X0142250Y0180800D01*
X0148750Y0174300D01*
X0148750Y0169300D01*
X0134750Y0181800D02*
X0134750Y0253300D01*
X0131250Y0256800D01*
X0121385Y0256800D01*
X0121125Y0257060D01*
X0126250Y0134300D02*
X0116250Y0124300D01*
X0116250Y0109300D01*
D24*
X0116250Y0109300D03*
M02*
