%
M48
M72
T01C0.01575
T02C0.01969
T03C0.02362
T04C0.02756
T05C0.03543
T06C0.04331
T07C0.05512
T08C0.09843
%
T01
X68750Y86600
X68750Y96600
X68750Y106600
X68750Y116600
X68750Y126600
X68750Y146600
X68750Y156600
X98750Y156600
X98750Y146600
X98750Y126600
X98750Y116600
X98750Y106600
X98750Y96600
X98750Y86600
X103750Y76600
X103750Y46600
X141250Y46600
X151250Y46600
X161250Y46600
X161250Y76600
X151250Y76600
X141250Y76600
X136250Y94100
X158750Y94100
X169000Y94100
X169000Y124100
X158750Y124100
X154750Y136600
X136250Y136600
X136250Y146600
X136250Y124100
X154750Y166600
X173750Y136600
X203750Y136600
X26250Y126600
X26250Y96600
T02
X9500Y10850
X9500Y41600
X9500Y81600
X22000Y81600
X46250Y117100
X53750Y116600
X53750Y106600
X53750Y96600
X53750Y86600
X61250Y81600
X53750Y76600
X58750Y60850
X58750Y48350
X41250Y30850
X41250Y21350
X41250Y10850
X81250Y10850
X81250Y21350
X81250Y30850
X111250Y43350
X121250Y43350
X121250Y10850
X151750Y34850
X161250Y20850
X161250Y10850
X183750Y38350
X183750Y60850
X186250Y79100
X191250Y85600
X196250Y79100
X183750Y91600
X183750Y101600
X183750Y111600
X192245Y118420
X192248Y126280
X193000Y109100
X193000Y96600
X220500Y81600
X233000Y81600
X204250Y46100
X204250Y37350
X201250Y20850
X201250Y10850
X233000Y10850
X233000Y41600
X233000Y121600
X220500Y121600
X233000Y161600
X233000Y201600
X233000Y241600
X190500Y241600
X190500Y279850
X153000Y279850
X125500Y279850
X125500Y244100
X153000Y241600
X153000Y201600
X125500Y201600
X123000Y164100
X133500Y159100
X146250Y141600
X146250Y131600
X148000Y104100
X163750Y104100
X146500Y80350
X154750Y69600
X121250Y81600
X111250Y81600
X88250Y69850
X83750Y93350
X81250Y116600
X78750Y133350
X53750Y136600
X48750Y141600
X53750Y146600
X48750Y151600
X48750Y161600
X39180Y139095
X31320Y139098
X22000Y121600
X9500Y121600
X9500Y161600
X19500Y161600
X9500Y201600
X9500Y241600
X48000Y241600
X48000Y279850
X90500Y279850
X90500Y201600
X48000Y201600
X105320Y136605
X113180Y136602
X110750Y121600
X121500Y121850
X53750Y126600
X190500Y201600
X195500Y161600
T03
X203750Y146600
X183750Y146600
X165250Y136600
X165250Y156600
X147500Y114100
X147500Y94100
X173750Y39100
X193750Y39100
X201250Y91600
X201250Y111600
X93750Y76600
X81250Y76600
X81250Y56600
X93750Y56600
X38750Y96600
X38750Y116600
X68750Y136600
X88750Y136600
T04
X133000Y176850
X154750Y176850
T05
X136250Y26600
X136250Y16600
X126250Y16600
X126250Y26600
X116250Y26600
X116250Y16600
X106250Y16600
X106250Y26600
T06
X68750Y49163
X48750Y49163
X28750Y49163
X28750Y169163
X48750Y169163
X68750Y169163
X173750Y169163
X193750Y169163
X213750Y169163
X213750Y49163
X193750Y49163
X173750Y49163
T07
X143926Y215350
X143926Y240350
X143926Y265350
X98323Y265413
X98323Y240413
X98323Y215413
X34425Y215413
X34425Y240413
X34425Y265413
X207824Y265350
X207824Y240350
X207824Y215350
T08
X121125Y233238
X121125Y256860
M30
