G75*
%MOIN*%
%OFA0B0*%
%FSLAX25Y25*%
%IPPOS*%
%LPD*%
%AMOC8*
5,1,8,0,0,1.08239X$1,22.5*
%
%ADD10C,0.00500*%
%ADD11C,0.00600*%
%ADD12C,0.00800*%
%ADD13C,0.00000*%
D10*
X0018750Y0058163D02*
X0022805Y0058163D01*
X0026742Y0058163D02*
X0030797Y0058163D01*
X0034734Y0058163D02*
X0038789Y0058163D01*
X0042726Y0058163D02*
X0046781Y0058163D01*
X0050719Y0058163D02*
X0054774Y0058163D01*
X0058711Y0058163D02*
X0062766Y0058163D01*
X0066703Y0058163D02*
X0070758Y0058163D01*
X0074695Y0058163D02*
X0078750Y0058163D01*
X0078750Y0062501D01*
X0078750Y0066438D02*
X0078750Y0070776D01*
X0078750Y0074713D02*
X0078750Y0079050D01*
X0078750Y0082987D02*
X0078750Y0087325D01*
X0078750Y0091262D02*
X0078750Y0095600D01*
X0091250Y0095600D02*
X0091250Y0091262D01*
X0091250Y0087325D02*
X0091250Y0082987D01*
X0091250Y0079050D02*
X0091250Y0074713D01*
X0091250Y0070776D02*
X0091250Y0066438D01*
X0091250Y0062501D02*
X0091250Y0058163D01*
X0095305Y0058163D01*
X0099242Y0058163D02*
X0103297Y0058163D01*
X0107234Y0058163D02*
X0111289Y0058163D01*
X0115226Y0058163D02*
X0119281Y0058163D01*
X0123219Y0058163D02*
X0127274Y0058163D01*
X0131211Y0058163D02*
X0135266Y0058163D01*
X0139203Y0058163D02*
X0143258Y0058163D01*
X0147195Y0058163D02*
X0151250Y0058163D01*
X0151250Y0062501D01*
X0151250Y0066438D02*
X0151250Y0070776D01*
X0151250Y0074713D02*
X0151250Y0079050D01*
X0151250Y0082987D02*
X0151250Y0087325D01*
X0151250Y0091262D02*
X0151250Y0095600D01*
X0163750Y0095600D02*
X0163750Y0091262D01*
X0163750Y0087325D02*
X0163750Y0082987D01*
X0163750Y0079050D02*
X0163750Y0074713D01*
X0163750Y0070776D02*
X0163750Y0066438D01*
X0163750Y0062501D02*
X0163750Y0058163D01*
X0167805Y0058163D01*
X0171742Y0058163D02*
X0175797Y0058163D01*
X0179734Y0058163D02*
X0183789Y0058163D01*
X0187726Y0058163D02*
X0191781Y0058163D01*
X0195719Y0058163D02*
X0199774Y0058163D01*
X0203711Y0058163D02*
X0207766Y0058163D01*
X0211703Y0058163D02*
X0215758Y0058163D01*
X0219695Y0058163D02*
X0223750Y0058163D01*
X0223750Y0062501D01*
X0223750Y0066438D02*
X0223750Y0070776D01*
X0223750Y0074713D02*
X0223750Y0079050D01*
X0223750Y0082987D02*
X0223750Y0087325D01*
X0223750Y0091262D02*
X0223750Y0095600D01*
X0224472Y0113100D02*
X0228750Y0113100D01*
X0220535Y0113100D02*
X0216257Y0113100D01*
X0212320Y0113100D02*
X0208041Y0113100D01*
X0204104Y0113100D02*
X0199826Y0113100D01*
X0195889Y0113100D02*
X0191611Y0113100D01*
X0159757Y0121435D02*
X0159943Y0122158D01*
X0160143Y0122877D01*
X0160360Y0123592D01*
X0160591Y0124302D01*
X0160837Y0125007D01*
X0161099Y0125706D01*
X0163028Y0113100D02*
X0158750Y0113100D01*
X0156250Y0113100D02*
X0151972Y0113100D01*
X0148035Y0113100D02*
X0143757Y0113100D01*
X0139820Y0113100D02*
X0135541Y0113100D01*
X0131604Y0113100D02*
X0127326Y0113100D01*
X0123389Y0113100D02*
X0119111Y0113100D01*
X0087257Y0121435D02*
X0087443Y0122158D01*
X0087643Y0122877D01*
X0087860Y0123592D01*
X0088091Y0124302D01*
X0088337Y0125007D01*
X0088599Y0125706D01*
X0090528Y0113100D02*
X0086250Y0113100D01*
X0083750Y0113100D02*
X0079472Y0113100D01*
X0075535Y0113100D02*
X0071257Y0113100D01*
X0067320Y0113100D02*
X0063041Y0113100D01*
X0059104Y0113100D02*
X0054826Y0113100D01*
X0050889Y0113100D02*
X0046611Y0113100D01*
X0014757Y0121435D02*
X0014943Y0122158D01*
X0015143Y0122877D01*
X0015360Y0123592D01*
X0015591Y0124302D01*
X0015837Y0125007D01*
X0016099Y0125706D01*
X0018028Y0113100D02*
X0013750Y0113100D01*
X0021965Y0113100D02*
X0026243Y0113100D01*
X0030180Y0113100D02*
X0034459Y0113100D01*
X0038396Y0113100D02*
X0042674Y0113100D01*
X0022469Y0136215D02*
X0022968Y0136771D01*
X0023479Y0137315D01*
X0024001Y0137849D01*
X0024535Y0138371D01*
X0025079Y0138882D01*
X0025635Y0139381D01*
X0048750Y0139885D02*
X0048750Y0135607D01*
X0048750Y0131670D02*
X0048750Y0127391D01*
X0048750Y0123454D02*
X0048750Y0119176D01*
X0048750Y0115239D02*
X0048750Y0110961D01*
X0040414Y0079107D02*
X0039691Y0079293D01*
X0038972Y0079494D01*
X0038258Y0079710D01*
X0037548Y0079941D01*
X0036843Y0080188D01*
X0036144Y0080449D01*
X0048750Y0082378D02*
X0048750Y0078100D01*
X0048750Y0086315D02*
X0048750Y0090593D01*
X0048750Y0094530D02*
X0048750Y0098809D01*
X0048750Y0102746D02*
X0048750Y0107024D01*
X0057086Y0079107D02*
X0057809Y0079293D01*
X0058528Y0079494D01*
X0059242Y0079710D01*
X0059952Y0079941D01*
X0060657Y0080188D01*
X0061356Y0080449D01*
X0020041Y0093081D02*
X0019620Y0093698D01*
X0019213Y0094323D01*
X0018819Y0094957D01*
X0018439Y0095600D01*
X0018073Y0096250D01*
X0017720Y0096909D01*
X0018750Y0095600D02*
X0018750Y0091262D01*
X0018750Y0087325D02*
X0018750Y0082987D01*
X0018750Y0079050D02*
X0018750Y0074713D01*
X0018750Y0070776D02*
X0018750Y0066438D01*
X0018750Y0062501D02*
X0018750Y0058163D01*
X0077459Y0093081D02*
X0077880Y0093698D01*
X0078287Y0094323D01*
X0078681Y0094957D01*
X0079061Y0095600D01*
X0079427Y0096250D01*
X0079780Y0096909D01*
X0094465Y0113100D02*
X0098743Y0113100D01*
X0102680Y0113100D02*
X0106959Y0113100D01*
X0110896Y0113100D02*
X0115174Y0113100D01*
X0094969Y0136215D02*
X0095468Y0136771D01*
X0095979Y0137315D01*
X0096501Y0137849D01*
X0097035Y0138371D01*
X0097579Y0138882D01*
X0098135Y0139381D01*
X0121250Y0139885D02*
X0121250Y0135607D01*
X0121250Y0131670D02*
X0121250Y0127391D01*
X0121250Y0123454D02*
X0121250Y0119176D01*
X0121250Y0115239D02*
X0121250Y0110961D01*
X0112914Y0079107D02*
X0112191Y0079293D01*
X0111472Y0079494D01*
X0110758Y0079710D01*
X0110048Y0079941D01*
X0109343Y0080188D01*
X0108644Y0080449D01*
X0121250Y0082378D02*
X0121250Y0078100D01*
X0121250Y0086315D02*
X0121250Y0090593D01*
X0121250Y0094530D02*
X0121250Y0098809D01*
X0121250Y0102746D02*
X0121250Y0107024D01*
X0129586Y0079107D02*
X0130309Y0079293D01*
X0131028Y0079494D01*
X0131742Y0079710D01*
X0132452Y0079941D01*
X0133157Y0080188D01*
X0133856Y0080449D01*
X0092541Y0093081D02*
X0092120Y0093698D01*
X0091713Y0094323D01*
X0091319Y0094957D01*
X0090939Y0095600D01*
X0090573Y0096250D01*
X0090220Y0096909D01*
X0090220Y0129291D02*
X0090573Y0129949D01*
X0090939Y0130600D01*
X0091319Y0131242D01*
X0091713Y0131877D01*
X0092120Y0132502D01*
X0092541Y0133119D01*
X0121250Y0143822D02*
X0121250Y0148100D01*
X0129585Y0147093D02*
X0130308Y0146907D01*
X0131027Y0146707D01*
X0131742Y0146490D01*
X0132452Y0146259D01*
X0133157Y0146013D01*
X0133856Y0145751D01*
X0144365Y0139381D02*
X0144921Y0138882D01*
X0145465Y0138371D01*
X0145999Y0137849D01*
X0146521Y0137315D01*
X0147032Y0136771D01*
X0147531Y0136215D01*
X0166965Y0113100D02*
X0171243Y0113100D01*
X0175180Y0113100D02*
X0179459Y0113100D01*
X0183396Y0113100D02*
X0187674Y0113100D01*
X0167469Y0136215D02*
X0167968Y0136771D01*
X0168479Y0137315D01*
X0169001Y0137849D01*
X0169535Y0138371D01*
X0170079Y0138882D01*
X0170635Y0139381D01*
X0193750Y0139885D02*
X0193750Y0135607D01*
X0193750Y0131670D02*
X0193750Y0127391D01*
X0193750Y0123454D02*
X0193750Y0119176D01*
X0193750Y0115239D02*
X0193750Y0110961D01*
X0185414Y0079107D02*
X0184691Y0079293D01*
X0183972Y0079494D01*
X0183258Y0079710D01*
X0182548Y0079941D01*
X0181843Y0080188D01*
X0181144Y0080449D01*
X0193750Y0082378D02*
X0193750Y0078100D01*
X0193750Y0086315D02*
X0193750Y0090593D01*
X0193750Y0094530D02*
X0193750Y0098809D01*
X0193750Y0102746D02*
X0193750Y0107024D01*
X0202086Y0079107D02*
X0202809Y0079293D01*
X0203528Y0079494D01*
X0204242Y0079710D01*
X0204952Y0079941D01*
X0205657Y0080188D01*
X0206356Y0080449D01*
X0165041Y0093081D02*
X0164620Y0093698D01*
X0164213Y0094323D01*
X0163819Y0094957D01*
X0163439Y0095600D01*
X0163073Y0096250D01*
X0162720Y0096909D01*
X0162720Y0129291D02*
X0163073Y0129949D01*
X0163439Y0130600D01*
X0163819Y0131242D01*
X0164213Y0131877D01*
X0164620Y0132502D01*
X0165041Y0133119D01*
X0193750Y0143822D02*
X0193750Y0148100D01*
X0191781Y0175663D02*
X0187726Y0175663D01*
X0183789Y0175663D02*
X0179734Y0175663D01*
X0175797Y0175663D02*
X0171742Y0175663D01*
X0167805Y0175663D02*
X0163750Y0175663D01*
X0163750Y0180001D01*
X0163750Y0183938D02*
X0163750Y0188276D01*
X0163750Y0192213D02*
X0163750Y0196550D01*
X0163750Y0200487D02*
X0163750Y0204825D01*
X0163750Y0208762D02*
X0163750Y0213100D01*
X0163028Y0230600D02*
X0158750Y0230600D01*
X0166965Y0230600D02*
X0171243Y0230600D01*
X0175180Y0230600D02*
X0179459Y0230600D01*
X0183396Y0230600D02*
X0187674Y0230600D01*
X0191611Y0230600D02*
X0195889Y0230600D01*
X0227743Y0238935D02*
X0227557Y0239658D01*
X0227357Y0240377D01*
X0227140Y0241092D01*
X0226909Y0241802D01*
X0226663Y0242507D01*
X0226401Y0243206D01*
X0224472Y0230600D02*
X0228750Y0230600D01*
X0220535Y0230600D02*
X0216257Y0230600D01*
X0212320Y0230600D02*
X0208041Y0230600D01*
X0204104Y0230600D02*
X0199826Y0230600D01*
X0220031Y0253715D02*
X0219532Y0254271D01*
X0219021Y0254815D01*
X0218499Y0255349D01*
X0217965Y0255871D01*
X0217421Y0256382D01*
X0216865Y0256881D01*
X0193750Y0257385D02*
X0193750Y0253107D01*
X0193750Y0249170D02*
X0193750Y0244891D01*
X0193750Y0240954D02*
X0193750Y0236676D01*
X0193750Y0232739D02*
X0193750Y0228461D01*
X0185414Y0196607D02*
X0184691Y0196793D01*
X0183972Y0196994D01*
X0183258Y0197210D01*
X0182548Y0197441D01*
X0181843Y0197688D01*
X0181144Y0197949D01*
X0193750Y0199878D02*
X0193750Y0195600D01*
X0193750Y0203815D02*
X0193750Y0208093D01*
X0193750Y0212030D02*
X0193750Y0216309D01*
X0193750Y0220246D02*
X0193750Y0224524D01*
X0202086Y0196607D02*
X0202809Y0196793D01*
X0203528Y0196994D01*
X0204242Y0197210D01*
X0204952Y0197441D01*
X0205657Y0197688D01*
X0206356Y0197949D01*
X0223750Y0196550D02*
X0223750Y0192213D01*
X0223750Y0188276D02*
X0223750Y0183938D01*
X0223750Y0180001D02*
X0223750Y0175663D01*
X0219695Y0175663D01*
X0215758Y0175663D02*
X0211703Y0175663D01*
X0207766Y0175663D02*
X0203711Y0175663D01*
X0199774Y0175663D02*
X0195719Y0175663D01*
X0223750Y0200487D02*
X0223750Y0204825D01*
X0223750Y0208762D02*
X0223750Y0213100D01*
X0224780Y0246791D02*
X0224427Y0247449D01*
X0224061Y0248100D01*
X0223681Y0248742D01*
X0223287Y0249377D01*
X0222880Y0250002D01*
X0222459Y0250619D01*
X0193750Y0261322D02*
X0193750Y0265600D01*
X0202085Y0264593D02*
X0202808Y0264407D01*
X0203527Y0264207D01*
X0204242Y0263990D01*
X0204952Y0263759D01*
X0205657Y0263513D01*
X0206356Y0263251D01*
X0228464Y0235067D02*
X0228551Y0234325D01*
X0228623Y0233582D01*
X0228678Y0232838D01*
X0228718Y0232092D01*
X0228742Y0231346D01*
X0228750Y0230600D01*
X0198217Y0265314D02*
X0197475Y0265401D01*
X0196732Y0265473D01*
X0195988Y0265528D01*
X0195242Y0265568D01*
X0194496Y0265592D01*
X0193750Y0265600D01*
X0185415Y0264593D02*
X0184692Y0264407D01*
X0183973Y0264207D01*
X0183258Y0263990D01*
X0182548Y0263759D01*
X0181843Y0263513D01*
X0181144Y0263251D01*
X0170635Y0256881D02*
X0170079Y0256382D01*
X0169535Y0255871D01*
X0169001Y0255349D01*
X0168479Y0254815D01*
X0167968Y0254271D01*
X0167469Y0253715D01*
X0161099Y0243206D02*
X0160837Y0242507D01*
X0160591Y0241802D01*
X0160360Y0241092D01*
X0160143Y0240377D01*
X0159943Y0239658D01*
X0159757Y0238935D01*
X0189283Y0265314D02*
X0190025Y0265401D01*
X0190768Y0265473D01*
X0191512Y0265528D01*
X0192258Y0265568D01*
X0193004Y0265592D01*
X0193750Y0265600D01*
X0209941Y0261630D02*
X0210599Y0261277D01*
X0211250Y0260911D01*
X0211892Y0260531D01*
X0212527Y0260137D01*
X0213152Y0259730D01*
X0213769Y0259309D01*
X0177559Y0261630D02*
X0176901Y0261277D01*
X0176250Y0260911D01*
X0175608Y0260531D01*
X0174973Y0260137D01*
X0174348Y0259730D01*
X0173731Y0259309D01*
X0159036Y0235067D02*
X0158949Y0234325D01*
X0158877Y0233582D01*
X0158822Y0232838D01*
X0158782Y0232092D01*
X0158758Y0231346D01*
X0158750Y0230600D01*
X0162720Y0246791D02*
X0163073Y0247449D01*
X0163439Y0248100D01*
X0163819Y0248742D01*
X0164213Y0249377D01*
X0164620Y0250002D01*
X0165041Y0250619D01*
X0159757Y0222264D02*
X0159943Y0221541D01*
X0160144Y0220822D01*
X0160360Y0220108D01*
X0160591Y0219398D01*
X0160838Y0218693D01*
X0161099Y0217994D01*
X0222459Y0210581D02*
X0222880Y0211198D01*
X0223287Y0211823D01*
X0223681Y0212457D01*
X0224061Y0213100D01*
X0224427Y0213750D01*
X0224780Y0214409D01*
X0165041Y0210581D02*
X0164620Y0211198D01*
X0164213Y0211823D01*
X0163819Y0212457D01*
X0163439Y0213100D01*
X0163073Y0213750D01*
X0162720Y0214409D01*
X0193750Y0195600D02*
X0194497Y0195608D01*
X0195243Y0195632D01*
X0195988Y0195672D01*
X0196733Y0195727D01*
X0197476Y0195799D01*
X0198217Y0195886D01*
X0170635Y0204319D02*
X0170079Y0204818D01*
X0169535Y0205329D01*
X0169001Y0205851D01*
X0168479Y0206385D01*
X0167968Y0206929D01*
X0167469Y0207485D01*
X0216865Y0204319D02*
X0217421Y0204818D01*
X0217965Y0205329D01*
X0218499Y0205851D01*
X0219021Y0206385D01*
X0219532Y0206929D01*
X0220031Y0207485D01*
X0193750Y0195600D02*
X0193003Y0195608D01*
X0192257Y0195632D01*
X0191512Y0195672D01*
X0190767Y0195727D01*
X0190024Y0195799D01*
X0189283Y0195886D01*
X0190215Y0230600D02*
X0190217Y0230719D01*
X0190223Y0230837D01*
X0190233Y0230956D01*
X0190247Y0231074D01*
X0190265Y0231191D01*
X0190287Y0231308D01*
X0190312Y0231424D01*
X0190342Y0231539D01*
X0190375Y0231653D01*
X0190413Y0231766D01*
X0190454Y0231877D01*
X0190498Y0231987D01*
X0190547Y0232095D01*
X0190599Y0232202D01*
X0190655Y0232307D01*
X0190714Y0232410D01*
X0190776Y0232511D01*
X0190842Y0232610D01*
X0190911Y0232707D01*
X0190984Y0232801D01*
X0191059Y0232892D01*
X0191138Y0232982D01*
X0191219Y0233068D01*
X0191303Y0233152D01*
X0191391Y0233232D01*
X0191480Y0233310D01*
X0191573Y0233385D01*
X0191667Y0233456D01*
X0191765Y0233525D01*
X0191864Y0233590D01*
X0191965Y0233651D01*
X0192069Y0233710D01*
X0192174Y0233764D01*
X0192282Y0233816D01*
X0192390Y0233863D01*
X0192501Y0233907D01*
X0192613Y0233947D01*
X0192726Y0233983D01*
X0192840Y0234016D01*
X0192955Y0234044D01*
X0193071Y0234069D01*
X0193188Y0234090D01*
X0193306Y0234107D01*
X0193424Y0234120D01*
X0193542Y0234129D01*
X0193661Y0234134D01*
X0193780Y0234135D01*
X0193898Y0234132D01*
X0194017Y0234125D01*
X0194135Y0234114D01*
X0194253Y0234099D01*
X0194370Y0234080D01*
X0194487Y0234057D01*
X0194603Y0234031D01*
X0194717Y0234000D01*
X0194831Y0233966D01*
X0194944Y0233927D01*
X0195055Y0233885D01*
X0195164Y0233840D01*
X0195272Y0233790D01*
X0195379Y0233737D01*
X0195483Y0233681D01*
X0195586Y0233621D01*
X0195686Y0233558D01*
X0195784Y0233491D01*
X0195880Y0233421D01*
X0195974Y0233348D01*
X0196065Y0233272D01*
X0196153Y0233192D01*
X0196239Y0233110D01*
X0196322Y0233025D01*
X0196402Y0232937D01*
X0196479Y0232847D01*
X0196553Y0232754D01*
X0196624Y0232659D01*
X0196691Y0232561D01*
X0196756Y0232461D01*
X0196816Y0232359D01*
X0196874Y0232255D01*
X0196928Y0232149D01*
X0196978Y0232041D01*
X0197024Y0231932D01*
X0197067Y0231821D01*
X0197106Y0231709D01*
X0197142Y0231596D01*
X0197173Y0231481D01*
X0197201Y0231366D01*
X0197225Y0231250D01*
X0197245Y0231132D01*
X0197261Y0231015D01*
X0197273Y0230897D01*
X0197281Y0230778D01*
X0197285Y0230659D01*
X0197285Y0230541D01*
X0197281Y0230422D01*
X0197273Y0230303D01*
X0197261Y0230185D01*
X0197245Y0230068D01*
X0197225Y0229950D01*
X0197201Y0229834D01*
X0197173Y0229719D01*
X0197142Y0229604D01*
X0197106Y0229491D01*
X0197067Y0229379D01*
X0197024Y0229268D01*
X0196978Y0229159D01*
X0196928Y0229051D01*
X0196874Y0228945D01*
X0196816Y0228841D01*
X0196756Y0228739D01*
X0196691Y0228639D01*
X0196624Y0228541D01*
X0196553Y0228446D01*
X0196479Y0228353D01*
X0196402Y0228263D01*
X0196322Y0228175D01*
X0196239Y0228090D01*
X0196153Y0228008D01*
X0196065Y0227928D01*
X0195974Y0227852D01*
X0195880Y0227779D01*
X0195784Y0227709D01*
X0195686Y0227642D01*
X0195586Y0227579D01*
X0195483Y0227519D01*
X0195379Y0227463D01*
X0195272Y0227410D01*
X0195164Y0227360D01*
X0195055Y0227315D01*
X0194944Y0227273D01*
X0194831Y0227234D01*
X0194717Y0227200D01*
X0194603Y0227169D01*
X0194487Y0227143D01*
X0194370Y0227120D01*
X0194253Y0227101D01*
X0194135Y0227086D01*
X0194017Y0227075D01*
X0193898Y0227068D01*
X0193780Y0227065D01*
X0193661Y0227066D01*
X0193542Y0227071D01*
X0193424Y0227080D01*
X0193306Y0227093D01*
X0193188Y0227110D01*
X0193071Y0227131D01*
X0192955Y0227156D01*
X0192840Y0227184D01*
X0192726Y0227217D01*
X0192613Y0227253D01*
X0192501Y0227293D01*
X0192390Y0227337D01*
X0192282Y0227384D01*
X0192174Y0227436D01*
X0192069Y0227490D01*
X0191965Y0227549D01*
X0191864Y0227610D01*
X0191765Y0227675D01*
X0191667Y0227744D01*
X0191573Y0227815D01*
X0191480Y0227890D01*
X0191391Y0227968D01*
X0191303Y0228048D01*
X0191219Y0228132D01*
X0191138Y0228218D01*
X0191059Y0228308D01*
X0190984Y0228399D01*
X0190911Y0228493D01*
X0190842Y0228590D01*
X0190776Y0228689D01*
X0190714Y0228790D01*
X0190655Y0228893D01*
X0190599Y0228998D01*
X0190547Y0229105D01*
X0190498Y0229213D01*
X0190454Y0229323D01*
X0190413Y0229434D01*
X0190375Y0229547D01*
X0190342Y0229661D01*
X0190312Y0229776D01*
X0190287Y0229892D01*
X0190265Y0230009D01*
X0190247Y0230126D01*
X0190233Y0230244D01*
X0190223Y0230363D01*
X0190217Y0230481D01*
X0190215Y0230600D01*
X0228464Y0226133D02*
X0228551Y0226874D01*
X0228623Y0227617D01*
X0228678Y0228362D01*
X0228718Y0229107D01*
X0228742Y0229853D01*
X0228750Y0230600D01*
X0159036Y0226133D02*
X0158949Y0226874D01*
X0158877Y0227617D01*
X0158822Y0228362D01*
X0158782Y0229107D01*
X0158758Y0229853D01*
X0158750Y0230600D01*
X0209941Y0199570D02*
X0210600Y0199923D01*
X0211250Y0200289D01*
X0211893Y0200669D01*
X0212527Y0201063D01*
X0213152Y0201470D01*
X0213769Y0201891D01*
X0177559Y0199570D02*
X0176900Y0199923D01*
X0176250Y0200289D01*
X0175607Y0200669D01*
X0174973Y0201063D01*
X0174348Y0201470D01*
X0173731Y0201891D01*
X0226401Y0217994D02*
X0226662Y0218693D01*
X0226909Y0219398D01*
X0227140Y0220108D01*
X0227356Y0220822D01*
X0227557Y0221541D01*
X0227743Y0222264D01*
X0202085Y0147093D02*
X0202808Y0146907D01*
X0203527Y0146707D01*
X0204242Y0146490D01*
X0204952Y0146259D01*
X0205657Y0146013D01*
X0206356Y0145751D01*
X0216865Y0139381D02*
X0217421Y0138882D01*
X0217965Y0138371D01*
X0218499Y0137849D01*
X0219021Y0137315D01*
X0219532Y0136771D01*
X0220031Y0136215D01*
X0226401Y0125706D02*
X0226663Y0125007D01*
X0226909Y0124302D01*
X0227140Y0123592D01*
X0227357Y0122877D01*
X0227557Y0122158D01*
X0227743Y0121435D01*
X0228464Y0117567D02*
X0228551Y0116825D01*
X0228623Y0116082D01*
X0228678Y0115338D01*
X0228718Y0114592D01*
X0228742Y0113846D01*
X0228750Y0113100D01*
X0224780Y0129291D02*
X0224427Y0129949D01*
X0224061Y0130600D01*
X0223681Y0131242D01*
X0223287Y0131877D01*
X0222880Y0132502D01*
X0222459Y0133119D01*
X0198217Y0147814D02*
X0197475Y0147901D01*
X0196732Y0147973D01*
X0195988Y0148028D01*
X0195242Y0148068D01*
X0194496Y0148092D01*
X0193750Y0148100D01*
X0185415Y0147093D02*
X0184692Y0146907D01*
X0183973Y0146707D01*
X0183258Y0146490D01*
X0182548Y0146259D01*
X0181843Y0146013D01*
X0181144Y0145751D01*
X0189283Y0147814D02*
X0190025Y0147901D01*
X0190768Y0147973D01*
X0191512Y0148028D01*
X0192258Y0148068D01*
X0193004Y0148092D01*
X0193750Y0148100D01*
X0209941Y0144130D02*
X0210599Y0143777D01*
X0211250Y0143411D01*
X0211892Y0143031D01*
X0212527Y0142637D01*
X0213152Y0142230D01*
X0213769Y0141809D01*
X0177559Y0144130D02*
X0176901Y0143777D01*
X0176250Y0143411D01*
X0175608Y0143031D01*
X0174973Y0142637D01*
X0174348Y0142230D01*
X0173731Y0141809D01*
X0159036Y0117567D02*
X0158949Y0116825D01*
X0158877Y0116082D01*
X0158822Y0115338D01*
X0158782Y0114592D01*
X0158758Y0113846D01*
X0158750Y0113100D01*
X0193750Y0078100D02*
X0194497Y0078108D01*
X0195243Y0078132D01*
X0195988Y0078172D01*
X0196733Y0078227D01*
X0197476Y0078299D01*
X0198217Y0078386D01*
X0170635Y0086819D02*
X0170079Y0087318D01*
X0169535Y0087829D01*
X0169001Y0088351D01*
X0168479Y0088885D01*
X0167968Y0089429D01*
X0167469Y0089985D01*
X0222459Y0093081D02*
X0222880Y0093698D01*
X0223287Y0094323D01*
X0223681Y0094957D01*
X0224061Y0095600D01*
X0224427Y0096250D01*
X0224780Y0096909D01*
X0193750Y0078100D02*
X0193003Y0078108D01*
X0192257Y0078132D01*
X0191512Y0078172D01*
X0190767Y0078227D01*
X0190024Y0078299D01*
X0189283Y0078386D01*
X0216865Y0086819D02*
X0217421Y0087318D01*
X0217965Y0087829D01*
X0218499Y0088351D01*
X0219021Y0088885D01*
X0219532Y0089429D01*
X0220031Y0089985D01*
X0159036Y0108633D02*
X0158949Y0109374D01*
X0158877Y0110117D01*
X0158822Y0110862D01*
X0158782Y0111607D01*
X0158758Y0112353D01*
X0158750Y0113100D01*
X0159757Y0104764D02*
X0159943Y0104041D01*
X0160144Y0103322D01*
X0160360Y0102608D01*
X0160591Y0101898D01*
X0160838Y0101193D01*
X0161099Y0100494D01*
X0228464Y0108633D02*
X0228551Y0109374D01*
X0228623Y0110117D01*
X0228678Y0110862D01*
X0228718Y0111607D01*
X0228742Y0112353D01*
X0228750Y0113100D01*
X0227743Y0104764D02*
X0227557Y0104041D01*
X0227356Y0103322D01*
X0227140Y0102608D01*
X0226909Y0101898D01*
X0226662Y0101193D01*
X0226401Y0100494D01*
X0190215Y0113100D02*
X0190217Y0113219D01*
X0190223Y0113337D01*
X0190233Y0113456D01*
X0190247Y0113574D01*
X0190265Y0113691D01*
X0190287Y0113808D01*
X0190312Y0113924D01*
X0190342Y0114039D01*
X0190375Y0114153D01*
X0190413Y0114266D01*
X0190454Y0114377D01*
X0190498Y0114487D01*
X0190547Y0114595D01*
X0190599Y0114702D01*
X0190655Y0114807D01*
X0190714Y0114910D01*
X0190776Y0115011D01*
X0190842Y0115110D01*
X0190911Y0115207D01*
X0190984Y0115301D01*
X0191059Y0115392D01*
X0191138Y0115482D01*
X0191219Y0115568D01*
X0191303Y0115652D01*
X0191391Y0115732D01*
X0191480Y0115810D01*
X0191573Y0115885D01*
X0191667Y0115956D01*
X0191765Y0116025D01*
X0191864Y0116090D01*
X0191965Y0116151D01*
X0192069Y0116210D01*
X0192174Y0116264D01*
X0192282Y0116316D01*
X0192390Y0116363D01*
X0192501Y0116407D01*
X0192613Y0116447D01*
X0192726Y0116483D01*
X0192840Y0116516D01*
X0192955Y0116544D01*
X0193071Y0116569D01*
X0193188Y0116590D01*
X0193306Y0116607D01*
X0193424Y0116620D01*
X0193542Y0116629D01*
X0193661Y0116634D01*
X0193780Y0116635D01*
X0193898Y0116632D01*
X0194017Y0116625D01*
X0194135Y0116614D01*
X0194253Y0116599D01*
X0194370Y0116580D01*
X0194487Y0116557D01*
X0194603Y0116531D01*
X0194717Y0116500D01*
X0194831Y0116466D01*
X0194944Y0116427D01*
X0195055Y0116385D01*
X0195164Y0116340D01*
X0195272Y0116290D01*
X0195379Y0116237D01*
X0195483Y0116181D01*
X0195586Y0116121D01*
X0195686Y0116058D01*
X0195784Y0115991D01*
X0195880Y0115921D01*
X0195974Y0115848D01*
X0196065Y0115772D01*
X0196153Y0115692D01*
X0196239Y0115610D01*
X0196322Y0115525D01*
X0196402Y0115437D01*
X0196479Y0115347D01*
X0196553Y0115254D01*
X0196624Y0115159D01*
X0196691Y0115061D01*
X0196756Y0114961D01*
X0196816Y0114859D01*
X0196874Y0114755D01*
X0196928Y0114649D01*
X0196978Y0114541D01*
X0197024Y0114432D01*
X0197067Y0114321D01*
X0197106Y0114209D01*
X0197142Y0114096D01*
X0197173Y0113981D01*
X0197201Y0113866D01*
X0197225Y0113750D01*
X0197245Y0113632D01*
X0197261Y0113515D01*
X0197273Y0113397D01*
X0197281Y0113278D01*
X0197285Y0113159D01*
X0197285Y0113041D01*
X0197281Y0112922D01*
X0197273Y0112803D01*
X0197261Y0112685D01*
X0197245Y0112568D01*
X0197225Y0112450D01*
X0197201Y0112334D01*
X0197173Y0112219D01*
X0197142Y0112104D01*
X0197106Y0111991D01*
X0197067Y0111879D01*
X0197024Y0111768D01*
X0196978Y0111659D01*
X0196928Y0111551D01*
X0196874Y0111445D01*
X0196816Y0111341D01*
X0196756Y0111239D01*
X0196691Y0111139D01*
X0196624Y0111041D01*
X0196553Y0110946D01*
X0196479Y0110853D01*
X0196402Y0110763D01*
X0196322Y0110675D01*
X0196239Y0110590D01*
X0196153Y0110508D01*
X0196065Y0110428D01*
X0195974Y0110352D01*
X0195880Y0110279D01*
X0195784Y0110209D01*
X0195686Y0110142D01*
X0195586Y0110079D01*
X0195483Y0110019D01*
X0195379Y0109963D01*
X0195272Y0109910D01*
X0195164Y0109860D01*
X0195055Y0109815D01*
X0194944Y0109773D01*
X0194831Y0109734D01*
X0194717Y0109700D01*
X0194603Y0109669D01*
X0194487Y0109643D01*
X0194370Y0109620D01*
X0194253Y0109601D01*
X0194135Y0109586D01*
X0194017Y0109575D01*
X0193898Y0109568D01*
X0193780Y0109565D01*
X0193661Y0109566D01*
X0193542Y0109571D01*
X0193424Y0109580D01*
X0193306Y0109593D01*
X0193188Y0109610D01*
X0193071Y0109631D01*
X0192955Y0109656D01*
X0192840Y0109684D01*
X0192726Y0109717D01*
X0192613Y0109753D01*
X0192501Y0109793D01*
X0192390Y0109837D01*
X0192282Y0109884D01*
X0192174Y0109936D01*
X0192069Y0109990D01*
X0191965Y0110049D01*
X0191864Y0110110D01*
X0191765Y0110175D01*
X0191667Y0110244D01*
X0191573Y0110315D01*
X0191480Y0110390D01*
X0191391Y0110468D01*
X0191303Y0110548D01*
X0191219Y0110632D01*
X0191138Y0110718D01*
X0191059Y0110808D01*
X0190984Y0110899D01*
X0190911Y0110993D01*
X0190842Y0111090D01*
X0190776Y0111189D01*
X0190714Y0111290D01*
X0190655Y0111393D01*
X0190599Y0111498D01*
X0190547Y0111605D01*
X0190498Y0111713D01*
X0190454Y0111823D01*
X0190413Y0111934D01*
X0190375Y0112047D01*
X0190342Y0112161D01*
X0190312Y0112276D01*
X0190287Y0112392D01*
X0190265Y0112509D01*
X0190247Y0112626D01*
X0190233Y0112744D01*
X0190223Y0112863D01*
X0190217Y0112981D01*
X0190215Y0113100D01*
X0209941Y0082070D02*
X0210600Y0082423D01*
X0211250Y0082789D01*
X0211893Y0083169D01*
X0212527Y0083563D01*
X0213152Y0083970D01*
X0213769Y0084391D01*
X0177559Y0082070D02*
X0176900Y0082423D01*
X0176250Y0082789D01*
X0175607Y0083169D01*
X0174973Y0083563D01*
X0174348Y0083970D01*
X0173731Y0084391D01*
X0155243Y0121435D02*
X0155057Y0122158D01*
X0154857Y0122877D01*
X0154640Y0123592D01*
X0154409Y0124302D01*
X0154163Y0125007D01*
X0153901Y0125706D01*
X0125717Y0147814D02*
X0124975Y0147901D01*
X0124232Y0147973D01*
X0123488Y0148028D01*
X0122742Y0148068D01*
X0121996Y0148092D01*
X0121250Y0148100D01*
X0112915Y0147093D02*
X0112192Y0146907D01*
X0111473Y0146707D01*
X0110758Y0146490D01*
X0110048Y0146259D01*
X0109343Y0146013D01*
X0108644Y0145751D01*
X0116783Y0147814D02*
X0117525Y0147901D01*
X0118268Y0147973D01*
X0119012Y0148028D01*
X0119758Y0148068D01*
X0120504Y0148092D01*
X0121250Y0148100D01*
X0155964Y0117567D02*
X0156051Y0116825D01*
X0156123Y0116082D01*
X0156178Y0115338D01*
X0156218Y0114592D01*
X0156242Y0113846D01*
X0156250Y0113100D01*
X0152280Y0129291D02*
X0151927Y0129949D01*
X0151561Y0130600D01*
X0151181Y0131242D01*
X0150787Y0131877D01*
X0150380Y0132502D01*
X0149959Y0133119D01*
X0141269Y0141809D02*
X0140652Y0142230D01*
X0140027Y0142637D01*
X0139392Y0143031D01*
X0138750Y0143411D01*
X0138099Y0143777D01*
X0137441Y0144130D01*
X0105059Y0144130D02*
X0104401Y0143777D01*
X0103750Y0143411D01*
X0103108Y0143031D01*
X0102473Y0142637D01*
X0101848Y0142230D01*
X0101231Y0141809D01*
X0086536Y0117567D02*
X0086449Y0116825D01*
X0086377Y0116082D01*
X0086322Y0115338D01*
X0086282Y0114592D01*
X0086258Y0113846D01*
X0086250Y0113100D01*
X0121250Y0078100D02*
X0121997Y0078108D01*
X0122743Y0078132D01*
X0123488Y0078172D01*
X0124233Y0078227D01*
X0124976Y0078299D01*
X0125717Y0078386D01*
X0098135Y0086819D02*
X0097579Y0087318D01*
X0097035Y0087829D01*
X0096501Y0088351D01*
X0095979Y0088885D01*
X0095468Y0089429D01*
X0094969Y0089985D01*
X0149959Y0093081D02*
X0150380Y0093698D01*
X0150787Y0094323D01*
X0151181Y0094957D01*
X0151561Y0095600D01*
X0151927Y0096250D01*
X0152280Y0096909D01*
X0121250Y0078100D02*
X0120503Y0078108D01*
X0119757Y0078132D01*
X0119012Y0078172D01*
X0118267Y0078227D01*
X0117524Y0078299D01*
X0116783Y0078386D01*
X0144365Y0086819D02*
X0144921Y0087318D01*
X0145465Y0087829D01*
X0145999Y0088351D01*
X0146521Y0088885D01*
X0147032Y0089429D01*
X0147531Y0089985D01*
X0086536Y0108633D02*
X0086449Y0109374D01*
X0086377Y0110117D01*
X0086322Y0110862D01*
X0086282Y0111607D01*
X0086258Y0112353D01*
X0086250Y0113100D01*
X0087257Y0104764D02*
X0087443Y0104041D01*
X0087644Y0103322D01*
X0087860Y0102608D01*
X0088091Y0101898D01*
X0088338Y0101193D01*
X0088599Y0100494D01*
X0155964Y0108633D02*
X0156051Y0109374D01*
X0156123Y0110117D01*
X0156178Y0110862D01*
X0156218Y0111607D01*
X0156242Y0112353D01*
X0156250Y0113100D01*
X0155243Y0104764D02*
X0155057Y0104041D01*
X0154856Y0103322D01*
X0154640Y0102608D01*
X0154409Y0101898D01*
X0154162Y0101193D01*
X0153901Y0100494D01*
X0117715Y0113100D02*
X0117717Y0113219D01*
X0117723Y0113337D01*
X0117733Y0113456D01*
X0117747Y0113574D01*
X0117765Y0113691D01*
X0117787Y0113808D01*
X0117812Y0113924D01*
X0117842Y0114039D01*
X0117875Y0114153D01*
X0117913Y0114266D01*
X0117954Y0114377D01*
X0117998Y0114487D01*
X0118047Y0114595D01*
X0118099Y0114702D01*
X0118155Y0114807D01*
X0118214Y0114910D01*
X0118276Y0115011D01*
X0118342Y0115110D01*
X0118411Y0115207D01*
X0118484Y0115301D01*
X0118559Y0115392D01*
X0118638Y0115482D01*
X0118719Y0115568D01*
X0118803Y0115652D01*
X0118891Y0115732D01*
X0118980Y0115810D01*
X0119073Y0115885D01*
X0119167Y0115956D01*
X0119265Y0116025D01*
X0119364Y0116090D01*
X0119465Y0116151D01*
X0119569Y0116210D01*
X0119674Y0116264D01*
X0119782Y0116316D01*
X0119890Y0116363D01*
X0120001Y0116407D01*
X0120113Y0116447D01*
X0120226Y0116483D01*
X0120340Y0116516D01*
X0120455Y0116544D01*
X0120571Y0116569D01*
X0120688Y0116590D01*
X0120806Y0116607D01*
X0120924Y0116620D01*
X0121042Y0116629D01*
X0121161Y0116634D01*
X0121280Y0116635D01*
X0121398Y0116632D01*
X0121517Y0116625D01*
X0121635Y0116614D01*
X0121753Y0116599D01*
X0121870Y0116580D01*
X0121987Y0116557D01*
X0122103Y0116531D01*
X0122217Y0116500D01*
X0122331Y0116466D01*
X0122444Y0116427D01*
X0122555Y0116385D01*
X0122664Y0116340D01*
X0122772Y0116290D01*
X0122879Y0116237D01*
X0122983Y0116181D01*
X0123086Y0116121D01*
X0123186Y0116058D01*
X0123284Y0115991D01*
X0123380Y0115921D01*
X0123474Y0115848D01*
X0123565Y0115772D01*
X0123653Y0115692D01*
X0123739Y0115610D01*
X0123822Y0115525D01*
X0123902Y0115437D01*
X0123979Y0115347D01*
X0124053Y0115254D01*
X0124124Y0115159D01*
X0124191Y0115061D01*
X0124256Y0114961D01*
X0124316Y0114859D01*
X0124374Y0114755D01*
X0124428Y0114649D01*
X0124478Y0114541D01*
X0124524Y0114432D01*
X0124567Y0114321D01*
X0124606Y0114209D01*
X0124642Y0114096D01*
X0124673Y0113981D01*
X0124701Y0113866D01*
X0124725Y0113750D01*
X0124745Y0113632D01*
X0124761Y0113515D01*
X0124773Y0113397D01*
X0124781Y0113278D01*
X0124785Y0113159D01*
X0124785Y0113041D01*
X0124781Y0112922D01*
X0124773Y0112803D01*
X0124761Y0112685D01*
X0124745Y0112568D01*
X0124725Y0112450D01*
X0124701Y0112334D01*
X0124673Y0112219D01*
X0124642Y0112104D01*
X0124606Y0111991D01*
X0124567Y0111879D01*
X0124524Y0111768D01*
X0124478Y0111659D01*
X0124428Y0111551D01*
X0124374Y0111445D01*
X0124316Y0111341D01*
X0124256Y0111239D01*
X0124191Y0111139D01*
X0124124Y0111041D01*
X0124053Y0110946D01*
X0123979Y0110853D01*
X0123902Y0110763D01*
X0123822Y0110675D01*
X0123739Y0110590D01*
X0123653Y0110508D01*
X0123565Y0110428D01*
X0123474Y0110352D01*
X0123380Y0110279D01*
X0123284Y0110209D01*
X0123186Y0110142D01*
X0123086Y0110079D01*
X0122983Y0110019D01*
X0122879Y0109963D01*
X0122772Y0109910D01*
X0122664Y0109860D01*
X0122555Y0109815D01*
X0122444Y0109773D01*
X0122331Y0109734D01*
X0122217Y0109700D01*
X0122103Y0109669D01*
X0121987Y0109643D01*
X0121870Y0109620D01*
X0121753Y0109601D01*
X0121635Y0109586D01*
X0121517Y0109575D01*
X0121398Y0109568D01*
X0121280Y0109565D01*
X0121161Y0109566D01*
X0121042Y0109571D01*
X0120924Y0109580D01*
X0120806Y0109593D01*
X0120688Y0109610D01*
X0120571Y0109631D01*
X0120455Y0109656D01*
X0120340Y0109684D01*
X0120226Y0109717D01*
X0120113Y0109753D01*
X0120001Y0109793D01*
X0119890Y0109837D01*
X0119782Y0109884D01*
X0119674Y0109936D01*
X0119569Y0109990D01*
X0119465Y0110049D01*
X0119364Y0110110D01*
X0119265Y0110175D01*
X0119167Y0110244D01*
X0119073Y0110315D01*
X0118980Y0110390D01*
X0118891Y0110468D01*
X0118803Y0110548D01*
X0118719Y0110632D01*
X0118638Y0110718D01*
X0118559Y0110808D01*
X0118484Y0110899D01*
X0118411Y0110993D01*
X0118342Y0111090D01*
X0118276Y0111189D01*
X0118214Y0111290D01*
X0118155Y0111393D01*
X0118099Y0111498D01*
X0118047Y0111605D01*
X0117998Y0111713D01*
X0117954Y0111823D01*
X0117913Y0111934D01*
X0117875Y0112047D01*
X0117842Y0112161D01*
X0117812Y0112276D01*
X0117787Y0112392D01*
X0117765Y0112509D01*
X0117747Y0112626D01*
X0117733Y0112744D01*
X0117723Y0112863D01*
X0117717Y0112981D01*
X0117715Y0113100D01*
X0137441Y0082070D02*
X0138100Y0082423D01*
X0138750Y0082789D01*
X0139393Y0083169D01*
X0140027Y0083563D01*
X0140652Y0083970D01*
X0141269Y0084391D01*
X0105059Y0082070D02*
X0104400Y0082423D01*
X0103750Y0082789D01*
X0103107Y0083169D01*
X0102473Y0083563D01*
X0101848Y0083970D01*
X0101231Y0084391D01*
X0082743Y0121435D02*
X0082557Y0122158D01*
X0082357Y0122877D01*
X0082140Y0123592D01*
X0081909Y0124302D01*
X0081663Y0125007D01*
X0081401Y0125706D01*
X0075031Y0136215D02*
X0074532Y0136771D01*
X0074021Y0137315D01*
X0073499Y0137849D01*
X0072965Y0138371D01*
X0072421Y0138882D01*
X0071865Y0139381D01*
X0048750Y0143822D02*
X0048750Y0148100D01*
X0046781Y0175663D02*
X0042726Y0175663D01*
X0038789Y0175663D02*
X0034734Y0175663D01*
X0030797Y0175663D02*
X0026742Y0175663D01*
X0022805Y0175663D02*
X0018750Y0175663D01*
X0018750Y0180001D01*
X0018750Y0183938D02*
X0018750Y0188276D01*
X0018750Y0192213D02*
X0018750Y0196550D01*
X0018750Y0200487D02*
X0018750Y0204825D01*
X0018750Y0208762D02*
X0018750Y0213100D01*
X0018028Y0230600D02*
X0013750Y0230600D01*
X0021965Y0230600D02*
X0026243Y0230600D01*
X0030180Y0230600D02*
X0034459Y0230600D01*
X0038396Y0230600D02*
X0042674Y0230600D01*
X0046611Y0230600D02*
X0050889Y0230600D01*
X0082743Y0238935D02*
X0082557Y0239658D01*
X0082357Y0240377D01*
X0082140Y0241092D01*
X0081909Y0241802D01*
X0081663Y0242507D01*
X0081401Y0243206D01*
X0079472Y0230600D02*
X0083750Y0230600D01*
X0075535Y0230600D02*
X0071257Y0230600D01*
X0067320Y0230600D02*
X0063041Y0230600D01*
X0059104Y0230600D02*
X0054826Y0230600D01*
X0075031Y0253715D02*
X0074532Y0254271D01*
X0074021Y0254815D01*
X0073499Y0255349D01*
X0072965Y0255871D01*
X0072421Y0256382D01*
X0071865Y0256881D01*
X0048750Y0257385D02*
X0048750Y0253107D01*
X0048750Y0249170D02*
X0048750Y0244891D01*
X0048750Y0240954D02*
X0048750Y0236676D01*
X0048750Y0232739D02*
X0048750Y0228461D01*
X0040414Y0196607D02*
X0039691Y0196793D01*
X0038972Y0196994D01*
X0038258Y0197210D01*
X0037548Y0197441D01*
X0036843Y0197688D01*
X0036144Y0197949D01*
X0048750Y0199878D02*
X0048750Y0195600D01*
X0048750Y0203815D02*
X0048750Y0208093D01*
X0048750Y0212030D02*
X0048750Y0216309D01*
X0048750Y0220246D02*
X0048750Y0224524D01*
X0057086Y0196607D02*
X0057809Y0196793D01*
X0058528Y0196994D01*
X0059242Y0197210D01*
X0059952Y0197441D01*
X0060657Y0197688D01*
X0061356Y0197949D01*
X0078750Y0196550D02*
X0078750Y0192213D01*
X0078750Y0188276D02*
X0078750Y0183938D01*
X0078750Y0180001D02*
X0078750Y0175663D01*
X0074695Y0175663D01*
X0070758Y0175663D02*
X0066703Y0175663D01*
X0062766Y0175663D02*
X0058711Y0175663D01*
X0054774Y0175663D02*
X0050719Y0175663D01*
X0078750Y0200487D02*
X0078750Y0204825D01*
X0078750Y0208762D02*
X0078750Y0213100D01*
X0079780Y0246791D02*
X0079427Y0247449D01*
X0079061Y0248100D01*
X0078681Y0248742D01*
X0078287Y0249377D01*
X0077880Y0250002D01*
X0077459Y0250619D01*
X0048750Y0261322D02*
X0048750Y0265600D01*
X0057085Y0264593D02*
X0057808Y0264407D01*
X0058527Y0264207D01*
X0059242Y0263990D01*
X0059952Y0263759D01*
X0060657Y0263513D01*
X0061356Y0263251D01*
X0083464Y0235067D02*
X0083551Y0234325D01*
X0083623Y0233582D01*
X0083678Y0232838D01*
X0083718Y0232092D01*
X0083742Y0231346D01*
X0083750Y0230600D01*
X0053217Y0265314D02*
X0052475Y0265401D01*
X0051732Y0265473D01*
X0050988Y0265528D01*
X0050242Y0265568D01*
X0049496Y0265592D01*
X0048750Y0265600D01*
X0040415Y0264593D02*
X0039692Y0264407D01*
X0038973Y0264207D01*
X0038258Y0263990D01*
X0037548Y0263759D01*
X0036843Y0263513D01*
X0036144Y0263251D01*
X0025635Y0256881D02*
X0025079Y0256382D01*
X0024535Y0255871D01*
X0024001Y0255349D01*
X0023479Y0254815D01*
X0022968Y0254271D01*
X0022469Y0253715D01*
X0016099Y0243206D02*
X0015837Y0242507D01*
X0015591Y0241802D01*
X0015360Y0241092D01*
X0015143Y0240377D01*
X0014943Y0239658D01*
X0014757Y0238935D01*
X0044283Y0265314D02*
X0045025Y0265401D01*
X0045768Y0265473D01*
X0046512Y0265528D01*
X0047258Y0265568D01*
X0048004Y0265592D01*
X0048750Y0265600D01*
X0064941Y0261630D02*
X0065599Y0261277D01*
X0066250Y0260911D01*
X0066892Y0260531D01*
X0067527Y0260137D01*
X0068152Y0259730D01*
X0068769Y0259309D01*
X0032559Y0261630D02*
X0031901Y0261277D01*
X0031250Y0260911D01*
X0030608Y0260531D01*
X0029973Y0260137D01*
X0029348Y0259730D01*
X0028731Y0259309D01*
X0014036Y0235067D02*
X0013949Y0234325D01*
X0013877Y0233582D01*
X0013822Y0232838D01*
X0013782Y0232092D01*
X0013758Y0231346D01*
X0013750Y0230600D01*
X0017720Y0246791D02*
X0018073Y0247449D01*
X0018439Y0248100D01*
X0018819Y0248742D01*
X0019213Y0249377D01*
X0019620Y0250002D01*
X0020041Y0250619D01*
X0014757Y0222264D02*
X0014943Y0221541D01*
X0015144Y0220822D01*
X0015360Y0220108D01*
X0015591Y0219398D01*
X0015838Y0218693D01*
X0016099Y0217994D01*
X0077459Y0210581D02*
X0077880Y0211198D01*
X0078287Y0211823D01*
X0078681Y0212457D01*
X0079061Y0213100D01*
X0079427Y0213750D01*
X0079780Y0214409D01*
X0020041Y0210581D02*
X0019620Y0211198D01*
X0019213Y0211823D01*
X0018819Y0212457D01*
X0018439Y0213100D01*
X0018073Y0213750D01*
X0017720Y0214409D01*
X0048750Y0195600D02*
X0049497Y0195608D01*
X0050243Y0195632D01*
X0050988Y0195672D01*
X0051733Y0195727D01*
X0052476Y0195799D01*
X0053217Y0195886D01*
X0025635Y0204319D02*
X0025079Y0204818D01*
X0024535Y0205329D01*
X0024001Y0205851D01*
X0023479Y0206385D01*
X0022968Y0206929D01*
X0022469Y0207485D01*
X0071865Y0204319D02*
X0072421Y0204818D01*
X0072965Y0205329D01*
X0073499Y0205851D01*
X0074021Y0206385D01*
X0074532Y0206929D01*
X0075031Y0207485D01*
X0048750Y0195600D02*
X0048003Y0195608D01*
X0047257Y0195632D01*
X0046512Y0195672D01*
X0045767Y0195727D01*
X0045024Y0195799D01*
X0044283Y0195886D01*
X0045215Y0230600D02*
X0045217Y0230719D01*
X0045223Y0230837D01*
X0045233Y0230956D01*
X0045247Y0231074D01*
X0045265Y0231191D01*
X0045287Y0231308D01*
X0045312Y0231424D01*
X0045342Y0231539D01*
X0045375Y0231653D01*
X0045413Y0231766D01*
X0045454Y0231877D01*
X0045498Y0231987D01*
X0045547Y0232095D01*
X0045599Y0232202D01*
X0045655Y0232307D01*
X0045714Y0232410D01*
X0045776Y0232511D01*
X0045842Y0232610D01*
X0045911Y0232707D01*
X0045984Y0232801D01*
X0046059Y0232892D01*
X0046138Y0232982D01*
X0046219Y0233068D01*
X0046303Y0233152D01*
X0046391Y0233232D01*
X0046480Y0233310D01*
X0046573Y0233385D01*
X0046667Y0233456D01*
X0046765Y0233525D01*
X0046864Y0233590D01*
X0046965Y0233651D01*
X0047069Y0233710D01*
X0047174Y0233764D01*
X0047282Y0233816D01*
X0047390Y0233863D01*
X0047501Y0233907D01*
X0047613Y0233947D01*
X0047726Y0233983D01*
X0047840Y0234016D01*
X0047955Y0234044D01*
X0048071Y0234069D01*
X0048188Y0234090D01*
X0048306Y0234107D01*
X0048424Y0234120D01*
X0048542Y0234129D01*
X0048661Y0234134D01*
X0048780Y0234135D01*
X0048898Y0234132D01*
X0049017Y0234125D01*
X0049135Y0234114D01*
X0049253Y0234099D01*
X0049370Y0234080D01*
X0049487Y0234057D01*
X0049603Y0234031D01*
X0049717Y0234000D01*
X0049831Y0233966D01*
X0049944Y0233927D01*
X0050055Y0233885D01*
X0050164Y0233840D01*
X0050272Y0233790D01*
X0050379Y0233737D01*
X0050483Y0233681D01*
X0050586Y0233621D01*
X0050686Y0233558D01*
X0050784Y0233491D01*
X0050880Y0233421D01*
X0050974Y0233348D01*
X0051065Y0233272D01*
X0051153Y0233192D01*
X0051239Y0233110D01*
X0051322Y0233025D01*
X0051402Y0232937D01*
X0051479Y0232847D01*
X0051553Y0232754D01*
X0051624Y0232659D01*
X0051691Y0232561D01*
X0051756Y0232461D01*
X0051816Y0232359D01*
X0051874Y0232255D01*
X0051928Y0232149D01*
X0051978Y0232041D01*
X0052024Y0231932D01*
X0052067Y0231821D01*
X0052106Y0231709D01*
X0052142Y0231596D01*
X0052173Y0231481D01*
X0052201Y0231366D01*
X0052225Y0231250D01*
X0052245Y0231132D01*
X0052261Y0231015D01*
X0052273Y0230897D01*
X0052281Y0230778D01*
X0052285Y0230659D01*
X0052285Y0230541D01*
X0052281Y0230422D01*
X0052273Y0230303D01*
X0052261Y0230185D01*
X0052245Y0230068D01*
X0052225Y0229950D01*
X0052201Y0229834D01*
X0052173Y0229719D01*
X0052142Y0229604D01*
X0052106Y0229491D01*
X0052067Y0229379D01*
X0052024Y0229268D01*
X0051978Y0229159D01*
X0051928Y0229051D01*
X0051874Y0228945D01*
X0051816Y0228841D01*
X0051756Y0228739D01*
X0051691Y0228639D01*
X0051624Y0228541D01*
X0051553Y0228446D01*
X0051479Y0228353D01*
X0051402Y0228263D01*
X0051322Y0228175D01*
X0051239Y0228090D01*
X0051153Y0228008D01*
X0051065Y0227928D01*
X0050974Y0227852D01*
X0050880Y0227779D01*
X0050784Y0227709D01*
X0050686Y0227642D01*
X0050586Y0227579D01*
X0050483Y0227519D01*
X0050379Y0227463D01*
X0050272Y0227410D01*
X0050164Y0227360D01*
X0050055Y0227315D01*
X0049944Y0227273D01*
X0049831Y0227234D01*
X0049717Y0227200D01*
X0049603Y0227169D01*
X0049487Y0227143D01*
X0049370Y0227120D01*
X0049253Y0227101D01*
X0049135Y0227086D01*
X0049017Y0227075D01*
X0048898Y0227068D01*
X0048780Y0227065D01*
X0048661Y0227066D01*
X0048542Y0227071D01*
X0048424Y0227080D01*
X0048306Y0227093D01*
X0048188Y0227110D01*
X0048071Y0227131D01*
X0047955Y0227156D01*
X0047840Y0227184D01*
X0047726Y0227217D01*
X0047613Y0227253D01*
X0047501Y0227293D01*
X0047390Y0227337D01*
X0047282Y0227384D01*
X0047174Y0227436D01*
X0047069Y0227490D01*
X0046965Y0227549D01*
X0046864Y0227610D01*
X0046765Y0227675D01*
X0046667Y0227744D01*
X0046573Y0227815D01*
X0046480Y0227890D01*
X0046391Y0227968D01*
X0046303Y0228048D01*
X0046219Y0228132D01*
X0046138Y0228218D01*
X0046059Y0228308D01*
X0045984Y0228399D01*
X0045911Y0228493D01*
X0045842Y0228590D01*
X0045776Y0228689D01*
X0045714Y0228790D01*
X0045655Y0228893D01*
X0045599Y0228998D01*
X0045547Y0229105D01*
X0045498Y0229213D01*
X0045454Y0229323D01*
X0045413Y0229434D01*
X0045375Y0229547D01*
X0045342Y0229661D01*
X0045312Y0229776D01*
X0045287Y0229892D01*
X0045265Y0230009D01*
X0045247Y0230126D01*
X0045233Y0230244D01*
X0045223Y0230363D01*
X0045217Y0230481D01*
X0045215Y0230600D01*
X0083464Y0226133D02*
X0083551Y0226874D01*
X0083623Y0227617D01*
X0083678Y0228362D01*
X0083718Y0229107D01*
X0083742Y0229853D01*
X0083750Y0230600D01*
X0014036Y0226133D02*
X0013949Y0226874D01*
X0013877Y0227617D01*
X0013822Y0228362D01*
X0013782Y0229107D01*
X0013758Y0229853D01*
X0013750Y0230600D01*
X0064941Y0199570D02*
X0065600Y0199923D01*
X0066250Y0200289D01*
X0066893Y0200669D01*
X0067527Y0201063D01*
X0068152Y0201470D01*
X0068769Y0201891D01*
X0032559Y0199570D02*
X0031900Y0199923D01*
X0031250Y0200289D01*
X0030607Y0200669D01*
X0029973Y0201063D01*
X0029348Y0201470D01*
X0028731Y0201891D01*
X0081401Y0217994D02*
X0081662Y0218693D01*
X0081909Y0219398D01*
X0082140Y0220108D01*
X0082356Y0220822D01*
X0082557Y0221541D01*
X0082743Y0222264D01*
X0116292Y0277750D02*
X0117560Y0277750D01*
X0116926Y0277750D02*
X0116926Y0279652D01*
X0117560Y0279018D01*
X0118502Y0279652D02*
X0119136Y0279652D01*
X0118819Y0279652D02*
X0118819Y0278067D01*
X0119136Y0277750D01*
X0119453Y0277750D01*
X0119770Y0278067D01*
X0061356Y0145751D02*
X0060657Y0146013D01*
X0059952Y0146259D01*
X0059242Y0146490D01*
X0058527Y0146707D01*
X0057808Y0146907D01*
X0057085Y0147093D01*
X0083464Y0117567D02*
X0083551Y0116825D01*
X0083623Y0116082D01*
X0083678Y0115338D01*
X0083718Y0114592D01*
X0083742Y0113846D01*
X0083750Y0113100D01*
X0079780Y0129291D02*
X0079427Y0129949D01*
X0079061Y0130600D01*
X0078681Y0131242D01*
X0078287Y0131877D01*
X0077880Y0132502D01*
X0077459Y0133119D01*
X0053217Y0147814D02*
X0052475Y0147901D01*
X0051732Y0147973D01*
X0050988Y0148028D01*
X0050242Y0148068D01*
X0049496Y0148092D01*
X0048750Y0148100D01*
X0040415Y0147093D02*
X0039692Y0146907D01*
X0038973Y0146707D01*
X0038258Y0146490D01*
X0037548Y0146259D01*
X0036843Y0146013D01*
X0036144Y0145751D01*
X0044283Y0147814D02*
X0045025Y0147901D01*
X0045768Y0147973D01*
X0046512Y0148028D01*
X0047258Y0148068D01*
X0048004Y0148092D01*
X0048750Y0148100D01*
X0064941Y0144130D02*
X0065599Y0143777D01*
X0066250Y0143411D01*
X0066892Y0143031D01*
X0067527Y0142637D01*
X0068152Y0142230D01*
X0068769Y0141809D01*
X0032559Y0144130D02*
X0031901Y0143777D01*
X0031250Y0143411D01*
X0030608Y0143031D01*
X0029973Y0142637D01*
X0029348Y0142230D01*
X0028731Y0141809D01*
X0014036Y0117567D02*
X0013949Y0116825D01*
X0013877Y0116082D01*
X0013822Y0115338D01*
X0013782Y0114592D01*
X0013758Y0113846D01*
X0013750Y0113100D01*
X0017720Y0129291D02*
X0018073Y0129949D01*
X0018439Y0130600D01*
X0018819Y0131242D01*
X0019213Y0131877D01*
X0019620Y0132502D01*
X0020041Y0133119D01*
X0014757Y0104764D02*
X0014943Y0104041D01*
X0015144Y0103322D01*
X0015360Y0102608D01*
X0015591Y0101898D01*
X0015838Y0101193D01*
X0016099Y0100494D01*
X0048750Y0078100D02*
X0049497Y0078108D01*
X0050243Y0078132D01*
X0050988Y0078172D01*
X0051733Y0078227D01*
X0052476Y0078299D01*
X0053217Y0078386D01*
X0025635Y0086819D02*
X0025079Y0087318D01*
X0024535Y0087829D01*
X0024001Y0088351D01*
X0023479Y0088885D01*
X0022968Y0089429D01*
X0022469Y0089985D01*
X0071865Y0086819D02*
X0072421Y0087318D01*
X0072965Y0087829D01*
X0073499Y0088351D01*
X0074021Y0088885D01*
X0074532Y0089429D01*
X0075031Y0089985D01*
X0048750Y0078100D02*
X0048003Y0078108D01*
X0047257Y0078132D01*
X0046512Y0078172D01*
X0045767Y0078227D01*
X0045024Y0078299D01*
X0044283Y0078386D01*
X0045215Y0113100D02*
X0045217Y0113219D01*
X0045223Y0113337D01*
X0045233Y0113456D01*
X0045247Y0113574D01*
X0045265Y0113691D01*
X0045287Y0113808D01*
X0045312Y0113924D01*
X0045342Y0114039D01*
X0045375Y0114153D01*
X0045413Y0114266D01*
X0045454Y0114377D01*
X0045498Y0114487D01*
X0045547Y0114595D01*
X0045599Y0114702D01*
X0045655Y0114807D01*
X0045714Y0114910D01*
X0045776Y0115011D01*
X0045842Y0115110D01*
X0045911Y0115207D01*
X0045984Y0115301D01*
X0046059Y0115392D01*
X0046138Y0115482D01*
X0046219Y0115568D01*
X0046303Y0115652D01*
X0046391Y0115732D01*
X0046480Y0115810D01*
X0046573Y0115885D01*
X0046667Y0115956D01*
X0046765Y0116025D01*
X0046864Y0116090D01*
X0046965Y0116151D01*
X0047069Y0116210D01*
X0047174Y0116264D01*
X0047282Y0116316D01*
X0047390Y0116363D01*
X0047501Y0116407D01*
X0047613Y0116447D01*
X0047726Y0116483D01*
X0047840Y0116516D01*
X0047955Y0116544D01*
X0048071Y0116569D01*
X0048188Y0116590D01*
X0048306Y0116607D01*
X0048424Y0116620D01*
X0048542Y0116629D01*
X0048661Y0116634D01*
X0048780Y0116635D01*
X0048898Y0116632D01*
X0049017Y0116625D01*
X0049135Y0116614D01*
X0049253Y0116599D01*
X0049370Y0116580D01*
X0049487Y0116557D01*
X0049603Y0116531D01*
X0049717Y0116500D01*
X0049831Y0116466D01*
X0049944Y0116427D01*
X0050055Y0116385D01*
X0050164Y0116340D01*
X0050272Y0116290D01*
X0050379Y0116237D01*
X0050483Y0116181D01*
X0050586Y0116121D01*
X0050686Y0116058D01*
X0050784Y0115991D01*
X0050880Y0115921D01*
X0050974Y0115848D01*
X0051065Y0115772D01*
X0051153Y0115692D01*
X0051239Y0115610D01*
X0051322Y0115525D01*
X0051402Y0115437D01*
X0051479Y0115347D01*
X0051553Y0115254D01*
X0051624Y0115159D01*
X0051691Y0115061D01*
X0051756Y0114961D01*
X0051816Y0114859D01*
X0051874Y0114755D01*
X0051928Y0114649D01*
X0051978Y0114541D01*
X0052024Y0114432D01*
X0052067Y0114321D01*
X0052106Y0114209D01*
X0052142Y0114096D01*
X0052173Y0113981D01*
X0052201Y0113866D01*
X0052225Y0113750D01*
X0052245Y0113632D01*
X0052261Y0113515D01*
X0052273Y0113397D01*
X0052281Y0113278D01*
X0052285Y0113159D01*
X0052285Y0113041D01*
X0052281Y0112922D01*
X0052273Y0112803D01*
X0052261Y0112685D01*
X0052245Y0112568D01*
X0052225Y0112450D01*
X0052201Y0112334D01*
X0052173Y0112219D01*
X0052142Y0112104D01*
X0052106Y0111991D01*
X0052067Y0111879D01*
X0052024Y0111768D01*
X0051978Y0111659D01*
X0051928Y0111551D01*
X0051874Y0111445D01*
X0051816Y0111341D01*
X0051756Y0111239D01*
X0051691Y0111139D01*
X0051624Y0111041D01*
X0051553Y0110946D01*
X0051479Y0110853D01*
X0051402Y0110763D01*
X0051322Y0110675D01*
X0051239Y0110590D01*
X0051153Y0110508D01*
X0051065Y0110428D01*
X0050974Y0110352D01*
X0050880Y0110279D01*
X0050784Y0110209D01*
X0050686Y0110142D01*
X0050586Y0110079D01*
X0050483Y0110019D01*
X0050379Y0109963D01*
X0050272Y0109910D01*
X0050164Y0109860D01*
X0050055Y0109815D01*
X0049944Y0109773D01*
X0049831Y0109734D01*
X0049717Y0109700D01*
X0049603Y0109669D01*
X0049487Y0109643D01*
X0049370Y0109620D01*
X0049253Y0109601D01*
X0049135Y0109586D01*
X0049017Y0109575D01*
X0048898Y0109568D01*
X0048780Y0109565D01*
X0048661Y0109566D01*
X0048542Y0109571D01*
X0048424Y0109580D01*
X0048306Y0109593D01*
X0048188Y0109610D01*
X0048071Y0109631D01*
X0047955Y0109656D01*
X0047840Y0109684D01*
X0047726Y0109717D01*
X0047613Y0109753D01*
X0047501Y0109793D01*
X0047390Y0109837D01*
X0047282Y0109884D01*
X0047174Y0109936D01*
X0047069Y0109990D01*
X0046965Y0110049D01*
X0046864Y0110110D01*
X0046765Y0110175D01*
X0046667Y0110244D01*
X0046573Y0110315D01*
X0046480Y0110390D01*
X0046391Y0110468D01*
X0046303Y0110548D01*
X0046219Y0110632D01*
X0046138Y0110718D01*
X0046059Y0110808D01*
X0045984Y0110899D01*
X0045911Y0110993D01*
X0045842Y0111090D01*
X0045776Y0111189D01*
X0045714Y0111290D01*
X0045655Y0111393D01*
X0045599Y0111498D01*
X0045547Y0111605D01*
X0045498Y0111713D01*
X0045454Y0111823D01*
X0045413Y0111934D01*
X0045375Y0112047D01*
X0045342Y0112161D01*
X0045312Y0112276D01*
X0045287Y0112392D01*
X0045265Y0112509D01*
X0045247Y0112626D01*
X0045233Y0112744D01*
X0045223Y0112863D01*
X0045217Y0112981D01*
X0045215Y0113100D01*
X0083464Y0108633D02*
X0083551Y0109374D01*
X0083623Y0110117D01*
X0083678Y0110862D01*
X0083718Y0111607D01*
X0083742Y0112353D01*
X0083750Y0113100D01*
X0014036Y0108633D02*
X0013949Y0109374D01*
X0013877Y0110117D01*
X0013822Y0110862D01*
X0013782Y0111607D01*
X0013758Y0112353D01*
X0013750Y0113100D01*
X0064941Y0082070D02*
X0065600Y0082423D01*
X0066250Y0082789D01*
X0066893Y0083169D01*
X0067527Y0083563D01*
X0068152Y0083970D01*
X0068769Y0084391D01*
X0032559Y0082070D02*
X0031900Y0082423D01*
X0031250Y0082789D01*
X0030607Y0083169D01*
X0029973Y0083563D01*
X0029348Y0083970D01*
X0028731Y0084391D01*
X0081401Y0100494D02*
X0081662Y0101193D01*
X0081909Y0101898D01*
X0082140Y0102608D01*
X0082356Y0103322D01*
X0082557Y0104041D01*
X0082743Y0104764D01*
D11*
X0057658Y0068304D02*
X0055456Y0068304D01*
X0054722Y0067570D01*
X0054722Y0066836D01*
X0055456Y0066102D01*
X0057658Y0066102D01*
X0057658Y0063900D02*
X0057658Y0068304D01*
X0055456Y0066102D02*
X0054722Y0065368D01*
X0054722Y0064634D01*
X0055456Y0063900D01*
X0057658Y0063900D01*
X0053054Y0063900D02*
X0053054Y0066836D01*
X0051586Y0068304D01*
X0050118Y0066836D01*
X0050118Y0063900D01*
X0048450Y0064634D02*
X0047716Y0063900D01*
X0046248Y0063900D01*
X0045514Y0064634D01*
X0045514Y0065368D01*
X0046248Y0066102D01*
X0047716Y0066102D01*
X0048450Y0066836D01*
X0048450Y0067570D01*
X0047716Y0068304D01*
X0046248Y0068304D01*
X0045514Y0067570D01*
X0043846Y0067570D02*
X0043846Y0066836D01*
X0043112Y0066102D01*
X0041644Y0066102D01*
X0040910Y0065368D01*
X0040910Y0064634D01*
X0041644Y0063900D01*
X0043112Y0063900D01*
X0043846Y0064634D01*
X0043846Y0067570D02*
X0043112Y0068304D01*
X0041644Y0068304D01*
X0040910Y0067570D01*
X0050118Y0066102D02*
X0053054Y0066102D01*
X0108806Y0068304D02*
X0111742Y0068304D01*
X0111742Y0063900D01*
X0108806Y0063900D01*
X0110274Y0066102D02*
X0111742Y0066102D01*
X0113410Y0063900D02*
X0116346Y0063900D01*
X0116346Y0068304D01*
X0118014Y0067570D02*
X0118014Y0066836D01*
X0118748Y0066102D01*
X0120950Y0066102D01*
X0120950Y0068304D02*
X0118748Y0068304D01*
X0118014Y0067570D01*
X0118748Y0066102D02*
X0118014Y0065368D01*
X0118014Y0064634D01*
X0118748Y0063900D01*
X0120950Y0063900D01*
X0120950Y0068304D01*
X0122618Y0068304D02*
X0125554Y0068304D01*
X0125554Y0063900D01*
X0122618Y0063900D01*
X0124086Y0066102D02*
X0125554Y0066102D01*
X0127222Y0066102D02*
X0127956Y0065368D01*
X0130158Y0065368D01*
X0130158Y0063900D02*
X0130158Y0068304D01*
X0127956Y0068304D01*
X0127222Y0067570D01*
X0127222Y0066102D01*
X0128690Y0065368D02*
X0127222Y0063900D01*
X0131826Y0068304D02*
X0134762Y0068304D01*
X0133294Y0068304D02*
X0133294Y0063900D01*
X0179004Y0063900D02*
X0180472Y0065368D01*
X0179738Y0065368D02*
X0181940Y0065368D01*
X0181940Y0063900D02*
X0181940Y0068304D01*
X0179738Y0068304D01*
X0179004Y0067570D01*
X0179004Y0066102D01*
X0179738Y0065368D01*
X0183608Y0064634D02*
X0183608Y0068304D01*
X0186544Y0068304D02*
X0186544Y0064634D01*
X0185810Y0063900D01*
X0184342Y0063900D01*
X0183608Y0064634D01*
X0188212Y0064634D02*
X0188212Y0067570D01*
X0188946Y0068304D01*
X0190414Y0068304D01*
X0191148Y0067570D01*
X0191148Y0064634D01*
X0190414Y0063900D01*
X0188946Y0063900D01*
X0188212Y0064634D01*
X0192816Y0068304D02*
X0195752Y0068304D01*
X0194284Y0068304D02*
X0194284Y0063900D01*
X0197420Y0063900D02*
X0197420Y0068304D01*
X0200356Y0068304D02*
X0197420Y0063900D01*
X0200356Y0063900D02*
X0200356Y0068304D01*
X0202024Y0067570D02*
X0202758Y0068304D01*
X0204226Y0068304D01*
X0204960Y0067570D01*
X0204960Y0064634D01*
X0204226Y0063900D01*
X0202758Y0063900D01*
X0202024Y0064634D01*
X0202024Y0067570D01*
X0206628Y0067570D02*
X0207362Y0068304D01*
X0208830Y0068304D01*
X0209564Y0067570D01*
X0209564Y0064634D01*
X0208830Y0063900D01*
X0207362Y0063900D01*
X0206628Y0064634D01*
X0198888Y0181400D02*
X0197420Y0182868D01*
X0197420Y0185804D01*
X0195752Y0185070D02*
X0195752Y0182134D01*
X0195018Y0181400D01*
X0193550Y0181400D01*
X0192816Y0182134D01*
X0192816Y0185070D01*
X0193550Y0185804D01*
X0195018Y0185804D01*
X0195752Y0185070D01*
X0198888Y0181400D02*
X0200356Y0182868D01*
X0200356Y0185804D01*
X0191148Y0185804D02*
X0191148Y0181400D01*
X0188212Y0181400D01*
X0056891Y0182134D02*
X0056157Y0181400D01*
X0054689Y0181400D01*
X0053955Y0182134D01*
X0053955Y0183602D01*
X0055423Y0183602D01*
X0056891Y0185070D02*
X0056891Y0182134D01*
X0056891Y0185070D02*
X0056157Y0185804D01*
X0054689Y0185804D01*
X0053955Y0185070D01*
X0052287Y0184336D02*
X0052287Y0181400D01*
X0052287Y0183602D02*
X0049351Y0183602D01*
X0049351Y0184336D02*
X0049351Y0181400D01*
X0047683Y0181400D02*
X0046215Y0181400D01*
X0046949Y0181400D02*
X0046949Y0185804D01*
X0047683Y0185804D02*
X0046215Y0185804D01*
X0044613Y0185804D02*
X0041678Y0181400D01*
X0041678Y0185804D01*
X0044613Y0185804D02*
X0044613Y0181400D01*
X0049351Y0184336D02*
X0050819Y0185804D01*
X0052287Y0184336D01*
D12*
X0103283Y0233163D02*
X0111551Y0233163D01*
X0103283Y0233163D02*
X0103283Y0275289D01*
X0138717Y0275289D01*
X0138717Y0254423D01*
X0138700Y0255275D02*
X0138700Y0235900D01*
X0138717Y0235919D02*
X0138717Y0233163D01*
X0130449Y0233163D01*
D13*
X0237283Y0006600D02*
X0005000Y0006600D01*
X0005000Y0259631D01*
X0026654Y0259631D01*
X0026654Y0287191D01*
X0215630Y0287191D01*
X0215630Y0259631D01*
X0237283Y0259631D01*
X0237283Y0006600D01*
M02*
