G75*
%MOIN*%
%OFA0B0*%
%FSLAX25Y25*%
%IPPOS*%
%LPD*%
%AMOC8*
5,1,8,0,0,1.08239X$1,22.5*
%
%ADD10C,0.08268*%
%ADD11C,0.05512*%
%ADD12R,0.05512X0.05512*%
%ADD13R,0.07087X0.07087*%
%ADD14C,0.07087*%
%ADD15R,0.04331X0.04331*%
%ADD16C,0.04331*%
%ADD17C,0.13843*%
%ADD18C,0.06299*%
%ADD19C,0.05118*%
%ADD20C,0.00000*%
%ADD21C,0.05000*%
%ADD22C,0.04724*%
%ADD23R,0.04724X0.04724*%
%ADD24C,0.01200*%
%ADD25C,0.03346*%
%ADD26C,0.01000*%
%ADD27C,0.03200*%
D10*
X0034425Y0215413D03*
X0034425Y0240413D03*
X0034425Y0265413D03*
X0098323Y0265413D03*
X0098323Y0240413D03*
X0098323Y0215413D03*
X0143801Y0215350D03*
X0143801Y0240350D03*
X0143801Y0265350D03*
X0207699Y0265350D03*
X0207699Y0240350D03*
X0207699Y0215350D03*
D11*
X0128750Y0168100D03*
D12*
X0128750Y0189850D03*
D13*
X0068750Y0169163D03*
X0068750Y0051663D03*
X0141250Y0051663D03*
X0213750Y0051663D03*
X0213750Y0169163D03*
D14*
X0193750Y0169163D03*
X0173750Y0169163D03*
X0173750Y0051663D03*
X0193750Y0051663D03*
X0121250Y0051663D03*
X0101250Y0051663D03*
X0048750Y0051663D03*
X0028750Y0051663D03*
X0028750Y0169163D03*
X0048750Y0169163D03*
D15*
X0103750Y0159160D03*
X0116310Y0073350D03*
D16*
X0124190Y0073350D03*
X0126250Y0084100D03*
X0116250Y0084100D03*
X0101000Y0087850D03*
X0091250Y0096600D03*
X0091250Y0106600D03*
X0101000Y0117850D03*
X0116250Y0114100D03*
X0126250Y0114100D03*
X0126250Y0121850D03*
X0148750Y0095600D03*
X0148750Y0086350D03*
X0148750Y0077100D03*
X0178750Y0077100D03*
X0178750Y0086350D03*
X0178750Y0095600D03*
X0198750Y0106600D03*
X0188750Y0126600D03*
X0188750Y0136600D03*
X0218750Y0136600D03*
X0218750Y0126600D03*
X0218750Y0106600D03*
X0218750Y0076600D03*
X0198750Y0076600D03*
X0126250Y0151850D03*
X0118750Y0159100D03*
X0103750Y0167040D03*
X0088750Y0180350D03*
X0058750Y0180350D03*
X0041250Y0156600D03*
X0041250Y0126600D03*
X0061250Y0106600D03*
X0061250Y0096600D03*
X0058750Y0076600D03*
X0058750Y0066600D03*
X0028750Y0066600D03*
X0028750Y0076600D03*
X0118750Y0189100D03*
X0148750Y0181600D03*
X0178750Y0181600D03*
D17*
X0121000Y0233163D03*
X0121000Y0256785D03*
D18*
X0116250Y0026600D03*
X0116250Y0016600D03*
X0106250Y0016600D03*
X0106250Y0026600D03*
X0126250Y0026600D03*
X0126250Y0016600D03*
X0136250Y0016600D03*
X0136250Y0026600D03*
D19*
X0151250Y0066600D03*
X0171250Y0066600D03*
X0188750Y0076600D03*
X0191250Y0064100D03*
X0208750Y0076600D03*
X0211250Y0064100D03*
X0208750Y0096600D03*
X0198750Y0116600D03*
X0188750Y0096600D03*
X0168750Y0105600D03*
X0148750Y0105600D03*
X0116250Y0126600D03*
X0101250Y0126600D03*
X0101250Y0146600D03*
X0091250Y0159100D03*
X0071250Y0159100D03*
X0051250Y0151600D03*
X0051250Y0131600D03*
X0051250Y0116600D03*
X0036250Y0106600D03*
X0051250Y0096600D03*
X0036250Y0086600D03*
X0021250Y0086600D03*
X0021250Y0106600D03*
X0031250Y0131600D03*
X0031250Y0151600D03*
X0028750Y0180350D03*
X0048750Y0180350D03*
X0116250Y0146600D03*
X0148750Y0154100D03*
X0168750Y0154100D03*
X0188750Y0181600D03*
X0208750Y0181600D03*
X0198750Y0146600D03*
X0218750Y0146600D03*
X0218750Y0116600D03*
X0073750Y0086600D03*
X0073750Y0066600D03*
D20*
X0005000Y0006600D02*
X0237283Y0006600D01*
X0237283Y0259631D01*
X0215630Y0259631D01*
X0215630Y0287191D01*
X0026654Y0287191D01*
X0026654Y0259631D01*
X0005000Y0259631D01*
X0005000Y0006600D01*
D21*
X0061250Y0116600D03*
X0061250Y0126600D03*
X0061250Y0136600D03*
X0061250Y0146600D03*
X0091250Y0146600D03*
X0091250Y0136600D03*
X0091250Y0126600D03*
X0091250Y0116600D03*
X0148750Y0114100D03*
X0158750Y0114100D03*
X0168750Y0114100D03*
X0178750Y0114100D03*
X0178750Y0144100D03*
X0168750Y0144100D03*
X0158750Y0144100D03*
X0148750Y0144100D03*
D22*
X0093000Y0087850D03*
X0083750Y0067850D03*
D23*
X0093000Y0067850D03*
X0083750Y0087850D03*
D24*
X0079788Y0088305D02*
X0077546Y0088305D01*
X0077276Y0088956D02*
X0076106Y0090126D01*
X0074577Y0090759D01*
X0072923Y0090759D01*
X0071394Y0090126D01*
X0070224Y0088956D01*
X0069591Y0087427D01*
X0069591Y0085773D01*
X0070224Y0084244D01*
X0071394Y0083074D01*
X0072923Y0082441D01*
X0074577Y0082441D01*
X0076106Y0083074D01*
X0077276Y0084244D01*
X0077909Y0085773D01*
X0077909Y0087427D01*
X0077276Y0088956D01*
X0076729Y0089503D02*
X0079788Y0089503D01*
X0079788Y0090702D02*
X0074716Y0090702D01*
X0072784Y0090702D02*
X0068350Y0090702D01*
X0068350Y0091900D02*
X0105550Y0091900D01*
X0105550Y0090702D02*
X0103473Y0090702D01*
X0103133Y0091042D02*
X0104192Y0089983D01*
X0104765Y0088599D01*
X0104765Y0087101D01*
X0104192Y0085717D01*
X0103133Y0084658D01*
X0101749Y0084085D01*
X0100251Y0084085D01*
X0098867Y0084658D01*
X0097808Y0085717D01*
X0097235Y0087101D01*
X0097235Y0088599D01*
X0097808Y0089983D01*
X0098867Y0091042D01*
X0100251Y0091615D01*
X0101749Y0091615D01*
X0103133Y0091042D01*
X0104391Y0089503D02*
X0105550Y0089503D01*
X0105550Y0088305D02*
X0104765Y0088305D01*
X0104765Y0087106D02*
X0105550Y0087106D01*
X0105550Y0085908D02*
X0104271Y0085908D01*
X0103184Y0084709D02*
X0105550Y0084709D01*
X0105550Y0083511D02*
X0076542Y0083511D01*
X0077469Y0084709D02*
X0079904Y0084709D01*
X0079788Y0084825D02*
X0080725Y0083888D01*
X0086775Y0083888D01*
X0087712Y0084825D01*
X0087712Y0090875D01*
X0086775Y0091812D01*
X0080725Y0091812D01*
X0079788Y0090875D01*
X0079788Y0084825D01*
X0079788Y0085908D02*
X0077909Y0085908D01*
X0077909Y0087106D02*
X0079788Y0087106D01*
X0087712Y0087106D02*
X0089038Y0087106D01*
X0089038Y0087062D02*
X0089641Y0085606D01*
X0090756Y0084491D01*
X0092212Y0083888D01*
X0093788Y0083888D01*
X0095244Y0084491D01*
X0096359Y0085606D01*
X0096962Y0087062D01*
X0096962Y0088638D01*
X0096359Y0090094D01*
X0095244Y0091209D01*
X0093788Y0091812D01*
X0092212Y0091812D01*
X0090756Y0091209D01*
X0089641Y0090094D01*
X0089038Y0088638D01*
X0089038Y0087062D01*
X0089038Y0088305D02*
X0087712Y0088305D01*
X0087712Y0089503D02*
X0089396Y0089503D01*
X0090248Y0090702D02*
X0087712Y0090702D01*
X0089466Y0093263D02*
X0088850Y0093675D01*
X0088325Y0094200D01*
X0087913Y0094816D01*
X0087629Y0095502D01*
X0087485Y0096229D01*
X0087485Y0096600D01*
X0091250Y0096600D01*
X0095015Y0096600D01*
X0095015Y0096971D01*
X0094871Y0097698D01*
X0094587Y0098384D01*
X0094175Y0099000D01*
X0093650Y0099525D01*
X0093034Y0099937D01*
X0092348Y0100221D01*
X0091621Y0100365D01*
X0091250Y0100365D01*
X0090879Y0100365D01*
X0090152Y0100221D01*
X0089466Y0099937D01*
X0088850Y0099525D01*
X0088325Y0099000D01*
X0087913Y0098384D01*
X0087629Y0097698D01*
X0087485Y0096971D01*
X0087485Y0096600D01*
X0091250Y0096600D01*
X0091250Y0096600D01*
X0091250Y0096600D01*
X0091250Y0100365D01*
X0091250Y0096600D01*
X0095015Y0096600D01*
X0095015Y0096229D01*
X0094871Y0095502D01*
X0094587Y0094816D01*
X0094175Y0094200D01*
X0093650Y0093675D01*
X0093034Y0093263D01*
X0092348Y0092979D01*
X0091621Y0092835D01*
X0091250Y0092835D01*
X0091250Y0096600D01*
X0091250Y0096600D01*
X0091250Y0096600D01*
X0091250Y0092835D01*
X0090879Y0092835D01*
X0090152Y0092979D01*
X0089466Y0093263D01*
X0089863Y0093099D02*
X0067721Y0093099D01*
X0067120Y0093700D02*
X0068350Y0092470D01*
X0068350Y0063230D01*
X0067120Y0062000D01*
X0067120Y0062000D01*
X0060850Y0055730D01*
X0060850Y0044970D01*
X0087120Y0018700D01*
X0101979Y0018700D01*
X0102223Y0019290D01*
X0103560Y0020627D01*
X0105305Y0021350D01*
X0107195Y0021350D01*
X0108940Y0020627D01*
X0110277Y0019290D01*
X0111000Y0017545D01*
X0111000Y0015655D01*
X0110277Y0013910D01*
X0108940Y0012573D01*
X0107195Y0011850D01*
X0105305Y0011850D01*
X0103560Y0012573D01*
X0102223Y0013910D01*
X0101979Y0014500D01*
X0085380Y0014500D01*
X0057880Y0042000D01*
X0057880Y0042000D01*
X0056650Y0043230D01*
X0056650Y0057470D01*
X0064150Y0064970D01*
X0064150Y0090730D01*
X0062032Y0092848D01*
X0061999Y0092835D01*
X0060501Y0092835D01*
X0059117Y0093408D01*
X0058058Y0094467D01*
X0057485Y0095851D01*
X0057485Y0097349D01*
X0058058Y0098733D01*
X0059117Y0099792D01*
X0060501Y0100365D01*
X0061999Y0100365D01*
X0063383Y0099792D01*
X0064442Y0098733D01*
X0065015Y0097349D01*
X0065015Y0095851D01*
X0065002Y0095818D01*
X0067120Y0093700D01*
X0066523Y0094297D02*
X0088260Y0094297D01*
X0087632Y0095496D02*
X0065324Y0095496D01*
X0065015Y0096694D02*
X0087485Y0096694D01*
X0087710Y0097893D02*
X0064790Y0097893D01*
X0064084Y0099091D02*
X0088416Y0099091D01*
X0090500Y0100290D02*
X0062181Y0100290D01*
X0060319Y0100290D02*
X0053210Y0100290D01*
X0053606Y0100126D02*
X0052077Y0100759D01*
X0050423Y0100759D01*
X0048894Y0100126D01*
X0047724Y0098956D01*
X0047091Y0097427D01*
X0047091Y0095773D01*
X0047724Y0094244D01*
X0048894Y0093074D01*
X0050423Y0092441D01*
X0052077Y0092441D01*
X0053606Y0093074D01*
X0054776Y0094244D01*
X0055409Y0095773D01*
X0055409Y0097427D01*
X0054776Y0098956D01*
X0053606Y0100126D01*
X0054640Y0099091D02*
X0058416Y0099091D01*
X0057710Y0097893D02*
X0055216Y0097893D01*
X0055409Y0096694D02*
X0057485Y0096694D01*
X0057632Y0095496D02*
X0055294Y0095496D01*
X0054798Y0094297D02*
X0058228Y0094297D01*
X0059863Y0093099D02*
X0053631Y0093099D01*
X0048869Y0093099D02*
X0007600Y0093099D01*
X0007600Y0094297D02*
X0047702Y0094297D01*
X0047206Y0095496D02*
X0007600Y0095496D01*
X0007600Y0096694D02*
X0047091Y0096694D01*
X0047284Y0097893D02*
X0007600Y0097893D01*
X0007600Y0099091D02*
X0047860Y0099091D01*
X0049290Y0100290D02*
X0007600Y0100290D01*
X0007600Y0101488D02*
X0105550Y0101488D01*
X0105550Y0100290D02*
X0092000Y0100290D01*
X0091250Y0100290D02*
X0091250Y0100290D01*
X0091250Y0099091D02*
X0091250Y0099091D01*
X0091250Y0097893D02*
X0091250Y0097893D01*
X0091250Y0096694D02*
X0091250Y0096694D01*
X0091250Y0095496D02*
X0091250Y0095496D01*
X0091250Y0094297D02*
X0091250Y0094297D01*
X0091250Y0093099D02*
X0091250Y0093099D01*
X0092637Y0093099D02*
X0105550Y0093099D01*
X0105550Y0094297D02*
X0094240Y0094297D01*
X0094868Y0095496D02*
X0105550Y0095496D01*
X0105550Y0096694D02*
X0095015Y0096694D01*
X0094790Y0097893D02*
X0105550Y0097893D01*
X0105550Y0099091D02*
X0094084Y0099091D01*
X0091999Y0102835D02*
X0093383Y0103408D01*
X0094442Y0104467D01*
X0095015Y0105851D01*
X0095015Y0107349D01*
X0094442Y0108733D01*
X0093383Y0109792D01*
X0091999Y0110365D01*
X0090501Y0110365D01*
X0089117Y0109792D01*
X0088058Y0108733D01*
X0087485Y0107349D01*
X0087485Y0105851D01*
X0088058Y0104467D01*
X0089117Y0103408D01*
X0090501Y0102835D01*
X0091999Y0102835D01*
X0093860Y0103885D02*
X0105550Y0103885D01*
X0105550Y0102687D02*
X0037671Y0102687D01*
X0037077Y0102441D02*
X0038606Y0103074D01*
X0039776Y0104244D01*
X0040409Y0105773D01*
X0040409Y0107427D01*
X0039776Y0108956D01*
X0038606Y0110126D01*
X0037077Y0110759D01*
X0035423Y0110759D01*
X0033894Y0110126D01*
X0032724Y0108956D01*
X0032091Y0107427D01*
X0032091Y0105773D01*
X0032724Y0104244D01*
X0033894Y0103074D01*
X0035423Y0102441D01*
X0037077Y0102441D01*
X0034829Y0102687D02*
X0022671Y0102687D01*
X0022077Y0102441D02*
X0023606Y0103074D01*
X0024776Y0104244D01*
X0025409Y0105773D01*
X0025409Y0107427D01*
X0024776Y0108956D01*
X0023606Y0110126D01*
X0022077Y0110759D01*
X0020423Y0110759D01*
X0018894Y0110126D01*
X0017724Y0108956D01*
X0017091Y0107427D01*
X0017091Y0105773D01*
X0017724Y0104244D01*
X0018894Y0103074D01*
X0020423Y0102441D01*
X0022077Y0102441D01*
X0019829Y0102687D02*
X0007600Y0102687D01*
X0007600Y0103885D02*
X0018083Y0103885D01*
X0017376Y0105084D02*
X0007600Y0105084D01*
X0007600Y0106282D02*
X0017091Y0106282D01*
X0017113Y0107481D02*
X0007600Y0107481D01*
X0007600Y0108679D02*
X0017610Y0108679D01*
X0018646Y0109878D02*
X0007600Y0109878D01*
X0007600Y0111076D02*
X0105550Y0111076D01*
X0105550Y0109878D02*
X0093176Y0109878D01*
X0094464Y0108679D02*
X0105550Y0108679D01*
X0105550Y0107481D02*
X0094961Y0107481D01*
X0095015Y0106282D02*
X0105550Y0106282D01*
X0105550Y0105084D02*
X0094698Y0105084D01*
X0089324Y0109878D02*
X0063176Y0109878D01*
X0063383Y0109792D02*
X0061999Y0110365D01*
X0060501Y0110365D01*
X0059117Y0109792D01*
X0058058Y0108733D01*
X0057485Y0107349D01*
X0057485Y0105851D01*
X0058058Y0104467D01*
X0059117Y0103408D01*
X0060501Y0102835D01*
X0061999Y0102835D01*
X0063383Y0103408D01*
X0064442Y0104467D01*
X0065015Y0105851D01*
X0065015Y0107349D01*
X0064442Y0108733D01*
X0063383Y0109792D01*
X0064464Y0108679D02*
X0088036Y0108679D01*
X0087539Y0107481D02*
X0064961Y0107481D01*
X0065015Y0106282D02*
X0087485Y0106282D01*
X0087802Y0105084D02*
X0064698Y0105084D01*
X0063860Y0103885D02*
X0088640Y0103885D01*
X0090434Y0112500D02*
X0088928Y0113124D01*
X0087774Y0114278D01*
X0087150Y0115784D01*
X0087150Y0117416D01*
X0087774Y0118922D01*
X0088928Y0120076D01*
X0090434Y0120700D01*
X0092066Y0120700D01*
X0093572Y0120076D01*
X0094726Y0118922D01*
X0095350Y0117416D01*
X0095350Y0115784D01*
X0094726Y0114278D01*
X0093572Y0113124D01*
X0092066Y0112500D01*
X0090434Y0112500D01*
X0088578Y0113473D02*
X0063922Y0113473D01*
X0063921Y0113473D02*
X0064377Y0113929D01*
X0064757Y0114451D01*
X0065050Y0115026D01*
X0065249Y0115640D01*
X0065350Y0116277D01*
X0065350Y0116400D01*
X0061450Y0116400D01*
X0061450Y0116800D01*
X0065350Y0116800D01*
X0065350Y0116923D01*
X0065249Y0117560D01*
X0065050Y0118174D01*
X0064757Y0118749D01*
X0064377Y0119271D01*
X0063921Y0119727D01*
X0063399Y0120107D01*
X0062824Y0120400D01*
X0062210Y0120599D01*
X0061573Y0120700D01*
X0061450Y0120700D01*
X0061450Y0116800D01*
X0061050Y0116800D01*
X0061050Y0120700D01*
X0060927Y0120700D01*
X0060290Y0120599D01*
X0059676Y0120400D01*
X0059101Y0120107D01*
X0058579Y0119727D01*
X0058123Y0119271D01*
X0057743Y0118749D01*
X0057450Y0118174D01*
X0057251Y0117560D01*
X0057150Y0116923D01*
X0057150Y0116800D01*
X0061050Y0116800D01*
X0061050Y0116400D01*
X0061450Y0116400D01*
X0061450Y0112500D01*
X0061573Y0112500D01*
X0062210Y0112601D01*
X0062824Y0112800D01*
X0063399Y0113093D01*
X0063921Y0113473D01*
X0064869Y0114672D02*
X0087611Y0114672D01*
X0087150Y0115870D02*
X0065286Y0115870D01*
X0065327Y0117069D02*
X0087150Y0117069D01*
X0087503Y0118268D02*
X0065002Y0118268D01*
X0064182Y0119466D02*
X0088318Y0119466D01*
X0090349Y0120665D02*
X0061797Y0120665D01*
X0061450Y0120665D02*
X0061050Y0120665D01*
X0060703Y0120665D02*
X0052305Y0120665D01*
X0052077Y0120759D02*
X0050423Y0120759D01*
X0048894Y0120126D01*
X0047724Y0118956D01*
X0047091Y0117427D01*
X0047091Y0115773D01*
X0047724Y0114244D01*
X0048894Y0113074D01*
X0050423Y0112441D01*
X0052077Y0112441D01*
X0053606Y0113074D01*
X0054776Y0114244D01*
X0055409Y0115773D01*
X0055409Y0117427D01*
X0054776Y0118956D01*
X0053606Y0120126D01*
X0052077Y0120759D01*
X0050195Y0120665D02*
X0007600Y0120665D01*
X0007600Y0121863D02*
X0105550Y0121863D01*
X0105550Y0120665D02*
X0103510Y0120665D01*
X0103133Y0121042D02*
X0104192Y0119983D01*
X0104765Y0118599D01*
X0104765Y0117101D01*
X0104192Y0115717D01*
X0103133Y0114658D01*
X0101749Y0114085D01*
X0100251Y0114085D01*
X0098867Y0114658D01*
X0097808Y0115717D01*
X0097235Y0117101D01*
X0097235Y0118599D01*
X0097808Y0119983D01*
X0098867Y0121042D01*
X0100251Y0121615D01*
X0101749Y0121615D01*
X0103133Y0121042D01*
X0102077Y0122441D02*
X0103606Y0123074D01*
X0104776Y0124244D01*
X0105409Y0125773D01*
X0105409Y0127427D01*
X0104776Y0128956D01*
X0103606Y0130126D01*
X0102077Y0130759D01*
X0100423Y0130759D01*
X0098894Y0130126D01*
X0097724Y0128956D01*
X0097091Y0127427D01*
X0097091Y0125773D01*
X0097724Y0124244D01*
X0098894Y0123074D01*
X0100423Y0122441D01*
X0102077Y0122441D01*
X0103576Y0123062D02*
X0105550Y0123062D01*
X0105550Y0124260D02*
X0104782Y0124260D01*
X0105279Y0125459D02*
X0105550Y0125459D01*
X0105550Y0126657D02*
X0105409Y0126657D01*
X0105550Y0127856D02*
X0105232Y0127856D01*
X0105550Y0129054D02*
X0104678Y0129054D01*
X0105550Y0130253D02*
X0103300Y0130253D01*
X0105550Y0131451D02*
X0055409Y0131451D01*
X0055409Y0130773D02*
X0054776Y0129244D01*
X0053606Y0128074D01*
X0052077Y0127441D01*
X0050423Y0127441D01*
X0048894Y0128074D01*
X0047724Y0129244D01*
X0047091Y0130773D01*
X0047091Y0132427D01*
X0047724Y0133956D01*
X0048894Y0135126D01*
X0050423Y0135759D01*
X0052077Y0135759D01*
X0053606Y0135126D01*
X0054776Y0133956D01*
X0055409Y0132427D01*
X0055409Y0130773D01*
X0055194Y0130253D02*
X0059354Y0130253D01*
X0058928Y0130076D02*
X0057774Y0128922D01*
X0057150Y0127416D01*
X0057150Y0125784D01*
X0057774Y0124278D01*
X0058928Y0123124D01*
X0060434Y0122500D01*
X0062066Y0122500D01*
X0063572Y0123124D01*
X0064726Y0124278D01*
X0065350Y0125784D01*
X0065350Y0127416D01*
X0064726Y0128922D01*
X0063572Y0130076D01*
X0062066Y0130700D01*
X0060434Y0130700D01*
X0058928Y0130076D01*
X0057906Y0129054D02*
X0054586Y0129054D01*
X0053078Y0127856D02*
X0057332Y0127856D01*
X0057150Y0126657D02*
X0045015Y0126657D01*
X0045015Y0127349D02*
X0044442Y0128733D01*
X0043383Y0129792D01*
X0041999Y0130365D01*
X0040501Y0130365D01*
X0039117Y0129792D01*
X0038058Y0128733D01*
X0037485Y0127349D01*
X0037485Y0125851D01*
X0038058Y0124467D01*
X0039117Y0123408D01*
X0040501Y0122835D01*
X0041999Y0122835D01*
X0043383Y0123408D01*
X0044442Y0124467D01*
X0045015Y0125851D01*
X0045015Y0127349D01*
X0044805Y0127856D02*
X0049422Y0127856D01*
X0047914Y0129054D02*
X0044121Y0129054D01*
X0042271Y0130253D02*
X0047306Y0130253D01*
X0047091Y0131451D02*
X0035409Y0131451D01*
X0035409Y0131600D02*
X0031250Y0131600D01*
X0031250Y0131600D01*
X0031250Y0135759D01*
X0031577Y0135759D01*
X0032224Y0135657D01*
X0032847Y0135454D01*
X0033430Y0135157D01*
X0033959Y0134772D01*
X0034422Y0134309D01*
X0034807Y0133780D01*
X0035104Y0133197D01*
X0035307Y0132574D01*
X0035409Y0131927D01*
X0035409Y0131600D01*
X0031250Y0131600D01*
X0031250Y0131600D01*
X0031250Y0131600D01*
X0027091Y0131600D01*
X0027091Y0131927D01*
X0027193Y0132574D01*
X0027396Y0133197D01*
X0027693Y0133780D01*
X0028078Y0134309D01*
X0028541Y0134772D01*
X0029070Y0135157D01*
X0029653Y0135454D01*
X0030276Y0135657D01*
X0030923Y0135759D01*
X0031250Y0135759D01*
X0031250Y0131600D01*
X0031250Y0127441D01*
X0031577Y0127441D01*
X0032224Y0127543D01*
X0032847Y0127746D01*
X0033430Y0128043D01*
X0033959Y0128428D01*
X0034422Y0128891D01*
X0034807Y0129420D01*
X0035104Y0130003D01*
X0035307Y0130626D01*
X0035409Y0131273D01*
X0035409Y0131600D01*
X0035282Y0132650D02*
X0047183Y0132650D01*
X0047680Y0133848D02*
X0034757Y0133848D01*
X0033582Y0135047D02*
X0048815Y0135047D01*
X0053685Y0135047D02*
X0057456Y0135047D01*
X0057150Y0135784D02*
X0057774Y0134278D01*
X0058928Y0133124D01*
X0060434Y0132500D01*
X0062066Y0132500D01*
X0063572Y0133124D01*
X0064726Y0134278D01*
X0065350Y0135784D01*
X0065350Y0137416D01*
X0064726Y0138922D01*
X0063572Y0140076D01*
X0062066Y0140700D01*
X0060434Y0140700D01*
X0058928Y0140076D01*
X0057774Y0138922D01*
X0057150Y0137416D01*
X0057150Y0135784D01*
X0057150Y0136245D02*
X0007600Y0136245D01*
X0007600Y0135047D02*
X0028918Y0135047D01*
X0027743Y0133848D02*
X0007600Y0133848D01*
X0007600Y0132650D02*
X0027218Y0132650D01*
X0027091Y0131600D02*
X0027091Y0131273D01*
X0027193Y0130626D01*
X0027396Y0130003D01*
X0027693Y0129420D01*
X0028078Y0128891D01*
X0028541Y0128428D01*
X0029070Y0128043D01*
X0029653Y0127746D01*
X0030276Y0127543D01*
X0030923Y0127441D01*
X0031250Y0127441D01*
X0031250Y0131600D01*
X0031250Y0131600D01*
X0027091Y0131600D01*
X0027091Y0131451D02*
X0007600Y0131451D01*
X0007600Y0130253D02*
X0027315Y0130253D01*
X0027959Y0129054D02*
X0007600Y0129054D01*
X0007600Y0127856D02*
X0029438Y0127856D01*
X0031250Y0127856D02*
X0031250Y0127856D01*
X0031250Y0129054D02*
X0031250Y0129054D01*
X0031250Y0130253D02*
X0031250Y0130253D01*
X0031250Y0131451D02*
X0031250Y0131451D01*
X0031250Y0132650D02*
X0031250Y0132650D01*
X0031250Y0133848D02*
X0031250Y0133848D01*
X0031250Y0135047D02*
X0031250Y0135047D01*
X0035185Y0130253D02*
X0040229Y0130253D01*
X0038379Y0129054D02*
X0034541Y0129054D01*
X0033062Y0127856D02*
X0037695Y0127856D01*
X0037485Y0126657D02*
X0007600Y0126657D01*
X0007600Y0125459D02*
X0037647Y0125459D01*
X0038265Y0124260D02*
X0007600Y0124260D01*
X0007600Y0123062D02*
X0039953Y0123062D01*
X0042547Y0123062D02*
X0059079Y0123062D01*
X0057792Y0124260D02*
X0044235Y0124260D01*
X0044853Y0125459D02*
X0057285Y0125459D01*
X0058318Y0119466D02*
X0054266Y0119466D01*
X0055061Y0118268D02*
X0057498Y0118268D01*
X0057173Y0117069D02*
X0055409Y0117069D01*
X0055409Y0115870D02*
X0057214Y0115870D01*
X0057251Y0115640D02*
X0057450Y0115026D01*
X0057743Y0114451D01*
X0058123Y0113929D01*
X0058579Y0113473D01*
X0059101Y0113093D01*
X0059676Y0112800D01*
X0060290Y0112601D01*
X0060927Y0112500D01*
X0061050Y0112500D01*
X0061050Y0116400D01*
X0057150Y0116400D01*
X0057150Y0116277D01*
X0057251Y0115640D01*
X0057631Y0114672D02*
X0054953Y0114672D01*
X0054005Y0113473D02*
X0058578Y0113473D01*
X0061050Y0113473D02*
X0061450Y0113473D01*
X0061450Y0114672D02*
X0061050Y0114672D01*
X0061050Y0115870D02*
X0061450Y0115870D01*
X0061450Y0117069D02*
X0061050Y0117069D01*
X0061050Y0118268D02*
X0061450Y0118268D01*
X0061450Y0119466D02*
X0061050Y0119466D01*
X0063421Y0123062D02*
X0089079Y0123062D01*
X0088928Y0123124D02*
X0090434Y0122500D01*
X0092066Y0122500D01*
X0093572Y0123124D01*
X0094726Y0124278D01*
X0095350Y0125784D01*
X0095350Y0127416D01*
X0094726Y0128922D01*
X0093572Y0130076D01*
X0092066Y0130700D01*
X0090434Y0130700D01*
X0088928Y0130076D01*
X0087774Y0128922D01*
X0087150Y0127416D01*
X0087150Y0125784D01*
X0087774Y0124278D01*
X0088928Y0123124D01*
X0087792Y0124260D02*
X0064708Y0124260D01*
X0065215Y0125459D02*
X0087285Y0125459D01*
X0087150Y0126657D02*
X0065350Y0126657D01*
X0065168Y0127856D02*
X0087332Y0127856D01*
X0087906Y0129054D02*
X0064594Y0129054D01*
X0063146Y0130253D02*
X0089354Y0130253D01*
X0090434Y0132500D02*
X0088928Y0133124D01*
X0087774Y0134278D01*
X0087150Y0135784D01*
X0087150Y0137416D01*
X0087774Y0138922D01*
X0088928Y0140076D01*
X0090434Y0140700D01*
X0092066Y0140700D01*
X0093572Y0140076D01*
X0094726Y0138922D01*
X0095350Y0137416D01*
X0095350Y0135784D01*
X0094726Y0134278D01*
X0093572Y0133124D01*
X0092066Y0132500D01*
X0090434Y0132500D01*
X0090073Y0132650D02*
X0062427Y0132650D01*
X0064296Y0133848D02*
X0088204Y0133848D01*
X0087456Y0135047D02*
X0065044Y0135047D01*
X0065350Y0136245D02*
X0087150Y0136245D01*
X0087162Y0137444D02*
X0065338Y0137444D01*
X0064842Y0138642D02*
X0087658Y0138642D01*
X0088692Y0139841D02*
X0063808Y0139841D01*
X0062066Y0142500D02*
X0063572Y0143124D01*
X0064726Y0144278D01*
X0065350Y0145784D01*
X0065350Y0147416D01*
X0064726Y0148922D01*
X0063572Y0150076D01*
X0062066Y0150700D01*
X0060434Y0150700D01*
X0058928Y0150076D01*
X0057774Y0148922D01*
X0057150Y0147416D01*
X0057150Y0145784D01*
X0057774Y0144278D01*
X0058928Y0143124D01*
X0060434Y0142500D01*
X0062066Y0142500D01*
X0063885Y0143436D02*
X0088615Y0143436D01*
X0088928Y0143124D02*
X0090434Y0142500D01*
X0092066Y0142500D01*
X0093572Y0143124D01*
X0094726Y0144278D01*
X0095350Y0145784D01*
X0095350Y0147416D01*
X0094726Y0148922D01*
X0093572Y0150076D01*
X0092066Y0150700D01*
X0090434Y0150700D01*
X0088928Y0150076D01*
X0087774Y0148922D01*
X0087150Y0147416D01*
X0087150Y0145784D01*
X0087774Y0144278D01*
X0088928Y0143124D01*
X0087626Y0144635D02*
X0064874Y0144635D01*
X0065350Y0145833D02*
X0087150Y0145833D01*
X0087150Y0147032D02*
X0065350Y0147032D01*
X0065013Y0148230D02*
X0087487Y0148230D01*
X0088281Y0149429D02*
X0064219Y0149429D01*
X0062241Y0150627D02*
X0090259Y0150627D01*
X0092241Y0150627D02*
X0100105Y0150627D01*
X0100423Y0150759D02*
X0098894Y0150126D01*
X0097724Y0148956D01*
X0097091Y0147427D01*
X0097091Y0145773D01*
X0097724Y0144244D01*
X0098894Y0143074D01*
X0100423Y0142441D01*
X0102077Y0142441D01*
X0103606Y0143074D01*
X0104776Y0144244D01*
X0105409Y0145773D01*
X0105409Y0147427D01*
X0104776Y0148956D01*
X0103606Y0150126D01*
X0102077Y0150759D01*
X0100423Y0150759D01*
X0102395Y0150627D02*
X0105550Y0150627D01*
X0105550Y0149429D02*
X0104303Y0149429D01*
X0105076Y0148230D02*
X0105550Y0148230D01*
X0105550Y0147032D02*
X0105409Y0147032D01*
X0105409Y0145833D02*
X0105550Y0145833D01*
X0105550Y0144635D02*
X0104938Y0144635D01*
X0105550Y0143436D02*
X0103968Y0143436D01*
X0105550Y0142238D02*
X0007600Y0142238D01*
X0007600Y0143436D02*
X0058615Y0143436D01*
X0057626Y0144635D02*
X0007600Y0144635D01*
X0007600Y0145833D02*
X0057150Y0145833D01*
X0057150Y0147032D02*
X0007600Y0147032D01*
X0007600Y0148230D02*
X0028738Y0148230D01*
X0028894Y0148074D02*
X0027724Y0149244D01*
X0027091Y0150773D01*
X0027091Y0152427D01*
X0027724Y0153956D01*
X0028894Y0155126D01*
X0030423Y0155759D01*
X0032077Y0155759D01*
X0033606Y0155126D01*
X0034776Y0153956D01*
X0035409Y0152427D01*
X0035409Y0150773D01*
X0034776Y0149244D01*
X0033606Y0148074D01*
X0032077Y0147441D01*
X0030423Y0147441D01*
X0028894Y0148074D01*
X0027648Y0149429D02*
X0007600Y0149429D01*
X0007600Y0150627D02*
X0027151Y0150627D01*
X0027091Y0151826D02*
X0007600Y0151826D01*
X0007600Y0153024D02*
X0027338Y0153024D01*
X0027991Y0154223D02*
X0007600Y0154223D01*
X0007600Y0155421D02*
X0029607Y0155421D01*
X0032893Y0155421D02*
X0037663Y0155421D01*
X0037485Y0155851D02*
X0038058Y0154467D01*
X0039117Y0153408D01*
X0040501Y0152835D01*
X0041999Y0152835D01*
X0043383Y0153408D01*
X0044442Y0154467D01*
X0045015Y0155851D01*
X0045015Y0157349D01*
X0044442Y0158733D01*
X0043383Y0159792D01*
X0041999Y0160365D01*
X0040501Y0160365D01*
X0039117Y0159792D01*
X0038058Y0158733D01*
X0037485Y0157349D01*
X0037485Y0155851D01*
X0037485Y0156620D02*
X0007600Y0156620D01*
X0007600Y0157818D02*
X0037679Y0157818D01*
X0038342Y0159017D02*
X0007600Y0159017D01*
X0007600Y0160215D02*
X0040139Y0160215D01*
X0042361Y0160215D02*
X0067239Y0160215D01*
X0067193Y0160074D02*
X0067091Y0159427D01*
X0067091Y0159100D01*
X0071250Y0159100D01*
X0075409Y0159100D01*
X0075409Y0159427D01*
X0075307Y0160074D01*
X0075104Y0160697D01*
X0074807Y0161280D01*
X0074422Y0161809D01*
X0073959Y0162272D01*
X0073430Y0162657D01*
X0072847Y0162954D01*
X0072224Y0163157D01*
X0071577Y0163259D01*
X0071250Y0163259D01*
X0071250Y0159100D01*
X0071250Y0159100D01*
X0071250Y0159100D01*
X0075409Y0159100D01*
X0075409Y0158773D01*
X0075307Y0158126D01*
X0075104Y0157503D01*
X0074807Y0156920D01*
X0074422Y0156391D01*
X0073959Y0155928D01*
X0073430Y0155543D01*
X0072847Y0155246D01*
X0072224Y0155043D01*
X0071577Y0154941D01*
X0071250Y0154941D01*
X0071250Y0159100D01*
X0071250Y0159100D01*
X0071250Y0159100D01*
X0071250Y0163259D01*
X0070923Y0163259D01*
X0070276Y0163157D01*
X0069653Y0162954D01*
X0069070Y0162657D01*
X0068541Y0162272D01*
X0068078Y0161809D01*
X0067693Y0161280D01*
X0067396Y0160697D01*
X0067193Y0160074D01*
X0067091Y0159100D02*
X0067091Y0158773D01*
X0067193Y0158126D01*
X0067396Y0157503D01*
X0067693Y0156920D01*
X0068078Y0156391D01*
X0068541Y0155928D01*
X0069070Y0155543D01*
X0069653Y0155246D01*
X0070276Y0155043D01*
X0070923Y0154941D01*
X0071250Y0154941D01*
X0071250Y0159100D01*
X0067091Y0159100D01*
X0067091Y0159017D02*
X0044158Y0159017D01*
X0044821Y0157818D02*
X0067293Y0157818D01*
X0067911Y0156620D02*
X0045015Y0156620D01*
X0044837Y0155421D02*
X0049607Y0155421D01*
X0048894Y0155126D02*
X0047724Y0153956D01*
X0047091Y0152427D01*
X0047091Y0150773D01*
X0047724Y0149244D01*
X0048894Y0148074D01*
X0050423Y0147441D01*
X0052077Y0147441D01*
X0053606Y0148074D01*
X0054776Y0149244D01*
X0055409Y0150773D01*
X0055409Y0152427D01*
X0054776Y0153956D01*
X0053606Y0155126D01*
X0052077Y0155759D01*
X0050423Y0155759D01*
X0048894Y0155126D01*
X0047991Y0154223D02*
X0044198Y0154223D01*
X0042457Y0153024D02*
X0047338Y0153024D01*
X0047091Y0151826D02*
X0035409Y0151826D01*
X0035349Y0150627D02*
X0047151Y0150627D01*
X0047648Y0149429D02*
X0034852Y0149429D01*
X0033762Y0148230D02*
X0048738Y0148230D01*
X0053762Y0148230D02*
X0057487Y0148230D01*
X0058281Y0149429D02*
X0054852Y0149429D01*
X0055349Y0150627D02*
X0060259Y0150627D01*
X0055409Y0151826D02*
X0105550Y0151826D01*
X0105550Y0152237D02*
X0105550Y0068463D01*
X0106037Y0067287D01*
X0106937Y0066387D01*
X0106937Y0066387D01*
X0108050Y0065275D01*
X0108050Y0038463D01*
X0108537Y0037287D01*
X0113050Y0032775D01*
X0113050Y0030117D01*
X0112223Y0029290D01*
X0111500Y0027545D01*
X0111500Y0025655D01*
X0112223Y0023910D01*
X0113560Y0022573D01*
X0115305Y0021850D01*
X0117195Y0021850D01*
X0118940Y0022573D01*
X0120277Y0023910D01*
X0121000Y0025655D01*
X0121000Y0027545D01*
X0120277Y0029290D01*
X0119450Y0030117D01*
X0119450Y0034737D01*
X0118963Y0035913D01*
X0118063Y0036813D01*
X0114450Y0040425D01*
X0114450Y0067237D01*
X0113963Y0068413D01*
X0113063Y0069313D01*
X0111950Y0070425D01*
X0111950Y0150275D01*
X0113963Y0152287D01*
X0114450Y0153463D01*
X0114450Y0180275D01*
X0119518Y0185343D01*
X0120883Y0185908D01*
X0121942Y0186967D01*
X0122515Y0188351D01*
X0122515Y0189849D01*
X0121942Y0191233D01*
X0120883Y0192292D01*
X0119499Y0192865D01*
X0118001Y0192865D01*
X0116617Y0192292D01*
X0115558Y0191233D01*
X0114993Y0189868D01*
X0109437Y0184313D01*
X0108537Y0183413D01*
X0108050Y0182237D01*
X0108050Y0155425D01*
X0106937Y0154313D01*
X0106037Y0153413D01*
X0105550Y0152237D01*
X0105876Y0153024D02*
X0055162Y0153024D01*
X0054509Y0154223D02*
X0106847Y0154223D01*
X0106937Y0154313D02*
X0106937Y0154313D01*
X0106578Y0155395D02*
X0107515Y0156332D01*
X0107515Y0161988D01*
X0106578Y0162925D01*
X0100922Y0162925D01*
X0099985Y0161988D01*
X0099985Y0156332D01*
X0100922Y0155395D01*
X0106578Y0155395D01*
X0106605Y0155421D02*
X0108046Y0155421D01*
X0108050Y0156620D02*
X0107515Y0156620D01*
X0107515Y0157818D02*
X0108050Y0157818D01*
X0108050Y0159017D02*
X0107515Y0159017D01*
X0107515Y0160215D02*
X0108050Y0160215D01*
X0108050Y0161414D02*
X0107515Y0161414D01*
X0108050Y0162612D02*
X0106891Y0162612D01*
X0108050Y0163811D02*
X0105695Y0163811D01*
X0105534Y0163703D02*
X0106150Y0164115D01*
X0106675Y0164640D01*
X0107087Y0165256D01*
X0107371Y0165942D01*
X0107515Y0166669D01*
X0107515Y0167040D01*
X0107515Y0167411D01*
X0107371Y0168138D01*
X0107087Y0168824D01*
X0106675Y0169440D01*
X0106150Y0169965D01*
X0105534Y0170377D01*
X0104848Y0170661D01*
X0104121Y0170805D01*
X0103750Y0170805D01*
X0103379Y0170805D01*
X0102652Y0170661D01*
X0101966Y0170377D01*
X0101350Y0169965D01*
X0100825Y0169440D01*
X0100413Y0168824D01*
X0100129Y0168138D01*
X0099985Y0167411D01*
X0099985Y0167040D01*
X0099985Y0166669D01*
X0100129Y0165942D01*
X0100413Y0165256D01*
X0100825Y0164640D01*
X0101350Y0164115D01*
X0101966Y0163703D01*
X0102652Y0163419D01*
X0103379Y0163275D01*
X0103750Y0163275D01*
X0104121Y0163275D01*
X0104848Y0163419D01*
X0105534Y0163703D01*
X0103750Y0163811D02*
X0103750Y0163811D01*
X0103750Y0163275D02*
X0103750Y0167040D01*
X0103750Y0167040D01*
X0103750Y0167040D01*
X0103750Y0170805D01*
X0103750Y0167040D01*
X0107515Y0167040D01*
X0103750Y0167040D01*
X0103750Y0167040D01*
X0103750Y0163275D01*
X0103750Y0165009D02*
X0103750Y0165009D01*
X0103750Y0166208D02*
X0103750Y0166208D01*
X0103750Y0167040D02*
X0099985Y0167040D01*
X0103750Y0167040D01*
X0103750Y0167040D01*
X0103750Y0167406D02*
X0103750Y0167406D01*
X0103750Y0168605D02*
X0103750Y0168605D01*
X0103750Y0169803D02*
X0103750Y0169803D01*
X0106312Y0169803D02*
X0108050Y0169803D01*
X0108050Y0168605D02*
X0107177Y0168605D01*
X0107515Y0167406D02*
X0108050Y0167406D01*
X0108050Y0166208D02*
X0107424Y0166208D01*
X0106922Y0165009D02*
X0108050Y0165009D01*
X0108050Y0171002D02*
X0073893Y0171002D01*
X0073893Y0172201D02*
X0108050Y0172201D01*
X0108050Y0173399D02*
X0073863Y0173399D01*
X0073893Y0173369D02*
X0072956Y0174306D01*
X0064544Y0174306D01*
X0063607Y0173369D01*
X0063607Y0164957D01*
X0064544Y0164020D01*
X0072956Y0164020D01*
X0073893Y0164957D01*
X0073893Y0173369D01*
X0073893Y0169803D02*
X0101188Y0169803D01*
X0100323Y0168605D02*
X0073893Y0168605D01*
X0073893Y0167406D02*
X0099985Y0167406D01*
X0100076Y0166208D02*
X0073893Y0166208D01*
X0073893Y0165009D02*
X0100578Y0165009D01*
X0101805Y0163811D02*
X0007600Y0163811D01*
X0007600Y0165009D02*
X0025630Y0165009D01*
X0025837Y0164803D02*
X0027727Y0164020D01*
X0029773Y0164020D01*
X0031663Y0164803D01*
X0033110Y0166250D01*
X0033893Y0168140D01*
X0033893Y0170186D01*
X0033110Y0172076D01*
X0031663Y0173523D01*
X0029773Y0174306D01*
X0027727Y0174306D01*
X0025837Y0173523D01*
X0024390Y0172076D01*
X0023607Y0170186D01*
X0023607Y0168140D01*
X0024390Y0166250D01*
X0025837Y0164803D01*
X0024431Y0166208D02*
X0007600Y0166208D01*
X0007600Y0167406D02*
X0023910Y0167406D01*
X0023607Y0168605D02*
X0007600Y0168605D01*
X0007600Y0169803D02*
X0023607Y0169803D01*
X0023945Y0171002D02*
X0007600Y0171002D01*
X0007600Y0172201D02*
X0024514Y0172201D01*
X0025712Y0173399D02*
X0007600Y0173399D01*
X0007600Y0174598D02*
X0108050Y0174598D01*
X0108050Y0175796D02*
X0007600Y0175796D01*
X0007600Y0176995D02*
X0026224Y0176995D01*
X0026394Y0176824D02*
X0027923Y0176191D01*
X0029577Y0176191D01*
X0031106Y0176824D01*
X0032276Y0177994D01*
X0032909Y0179523D01*
X0032909Y0181177D01*
X0032276Y0182706D01*
X0031106Y0183876D01*
X0029577Y0184509D01*
X0027923Y0184509D01*
X0026394Y0183876D01*
X0025224Y0182706D01*
X0024591Y0181177D01*
X0024591Y0179523D01*
X0025224Y0177994D01*
X0026394Y0176824D01*
X0025142Y0178193D02*
X0007600Y0178193D01*
X0007600Y0179392D02*
X0024645Y0179392D01*
X0024591Y0180590D02*
X0007600Y0180590D01*
X0007600Y0181789D02*
X0024844Y0181789D01*
X0025505Y0182987D02*
X0007600Y0182987D01*
X0007600Y0184186D02*
X0027142Y0184186D01*
X0030358Y0184186D02*
X0047142Y0184186D01*
X0046394Y0183876D02*
X0045224Y0182706D01*
X0044591Y0181177D01*
X0044591Y0179523D01*
X0045224Y0177994D01*
X0046394Y0176824D01*
X0047923Y0176191D01*
X0049577Y0176191D01*
X0051106Y0176824D01*
X0052276Y0177994D01*
X0052909Y0179523D01*
X0052909Y0181177D01*
X0052276Y0182706D01*
X0051106Y0183876D01*
X0049577Y0184509D01*
X0047923Y0184509D01*
X0046394Y0183876D01*
X0045505Y0182987D02*
X0031995Y0182987D01*
X0032656Y0181789D02*
X0044844Y0181789D01*
X0044591Y0180590D02*
X0032909Y0180590D01*
X0032855Y0179392D02*
X0044645Y0179392D01*
X0045142Y0178193D02*
X0032358Y0178193D01*
X0031276Y0176995D02*
X0046224Y0176995D01*
X0047727Y0174306D02*
X0045837Y0173523D01*
X0044390Y0172076D01*
X0043607Y0170186D01*
X0043607Y0168140D01*
X0044390Y0166250D01*
X0045837Y0164803D01*
X0047727Y0164020D01*
X0049773Y0164020D01*
X0051663Y0164803D01*
X0053110Y0166250D01*
X0053893Y0168140D01*
X0053893Y0170186D01*
X0053110Y0172076D01*
X0051663Y0173523D01*
X0049773Y0174306D01*
X0047727Y0174306D01*
X0045712Y0173399D02*
X0031788Y0173399D01*
X0032986Y0172201D02*
X0044514Y0172201D01*
X0043945Y0171002D02*
X0033555Y0171002D01*
X0033893Y0169803D02*
X0043607Y0169803D01*
X0043607Y0168605D02*
X0033893Y0168605D01*
X0033589Y0167406D02*
X0043910Y0167406D01*
X0044431Y0166208D02*
X0033069Y0166208D01*
X0031870Y0165009D02*
X0045630Y0165009D01*
X0051870Y0165009D02*
X0063607Y0165009D01*
X0063607Y0166208D02*
X0053069Y0166208D01*
X0053589Y0167406D02*
X0063607Y0167406D01*
X0063607Y0168605D02*
X0053893Y0168605D01*
X0053893Y0169803D02*
X0063607Y0169803D01*
X0063607Y0171002D02*
X0053555Y0171002D01*
X0052986Y0172201D02*
X0063607Y0172201D01*
X0063637Y0173399D02*
X0051788Y0173399D01*
X0051276Y0176995D02*
X0057011Y0176995D01*
X0056617Y0177158D02*
X0058001Y0176585D01*
X0059499Y0176585D01*
X0060883Y0177158D01*
X0061942Y0178217D01*
X0062515Y0179601D01*
X0062515Y0181099D01*
X0061942Y0182483D01*
X0060883Y0183542D01*
X0059499Y0184115D01*
X0058001Y0184115D01*
X0056617Y0183542D01*
X0055558Y0182483D01*
X0054985Y0181099D01*
X0054985Y0179601D01*
X0055558Y0178217D01*
X0056617Y0177158D01*
X0055582Y0178193D02*
X0052358Y0178193D01*
X0052855Y0179392D02*
X0055071Y0179392D01*
X0054985Y0180590D02*
X0052909Y0180590D01*
X0052656Y0181789D02*
X0055270Y0181789D01*
X0056062Y0182987D02*
X0051995Y0182987D01*
X0050358Y0184186D02*
X0109310Y0184186D01*
X0108361Y0182987D02*
X0091438Y0182987D01*
X0091942Y0182483D02*
X0090883Y0183542D01*
X0089499Y0184115D01*
X0088001Y0184115D01*
X0086617Y0183542D01*
X0085558Y0182483D01*
X0084985Y0181099D01*
X0084985Y0179601D01*
X0085558Y0178217D01*
X0086617Y0177158D01*
X0088001Y0176585D01*
X0089499Y0176585D01*
X0090883Y0177158D01*
X0091942Y0178217D01*
X0092515Y0179601D01*
X0092515Y0181099D01*
X0091942Y0182483D01*
X0092230Y0181789D02*
X0108050Y0181789D01*
X0108050Y0180590D02*
X0092515Y0180590D01*
X0092429Y0179392D02*
X0108050Y0179392D01*
X0108050Y0178193D02*
X0091918Y0178193D01*
X0090489Y0176995D02*
X0108050Y0176995D01*
X0110509Y0185384D02*
X0007600Y0185384D01*
X0007600Y0186583D02*
X0111707Y0186583D01*
X0112906Y0187781D02*
X0007600Y0187781D01*
X0007600Y0188980D02*
X0114104Y0188980D01*
X0115121Y0190178D02*
X0007600Y0190178D01*
X0007600Y0191377D02*
X0115702Y0191377D01*
X0117301Y0192575D02*
X0007600Y0192575D01*
X0007600Y0193774D02*
X0124899Y0193774D01*
X0125331Y0194206D02*
X0124394Y0193269D01*
X0124394Y0186431D01*
X0125331Y0185494D01*
X0132169Y0185494D01*
X0133106Y0186431D01*
X0133106Y0193269D01*
X0132169Y0194206D01*
X0125331Y0194206D01*
X0124394Y0192575D02*
X0120199Y0192575D01*
X0121798Y0191377D02*
X0124394Y0191377D01*
X0124394Y0190178D02*
X0122379Y0190178D01*
X0122515Y0188980D02*
X0124394Y0188980D01*
X0124394Y0187781D02*
X0122279Y0187781D01*
X0121558Y0186583D02*
X0124394Y0186583D01*
X0119618Y0185384D02*
X0187018Y0185384D01*
X0186394Y0185126D02*
X0185224Y0183956D01*
X0184591Y0182427D01*
X0184591Y0180773D01*
X0185224Y0179244D01*
X0186394Y0178074D01*
X0187923Y0177441D01*
X0189577Y0177441D01*
X0191106Y0178074D01*
X0192276Y0179244D01*
X0192909Y0180773D01*
X0192909Y0182427D01*
X0192276Y0183956D01*
X0191106Y0185126D01*
X0189577Y0185759D01*
X0187923Y0185759D01*
X0186394Y0185126D01*
X0185454Y0184186D02*
X0181489Y0184186D01*
X0181942Y0183733D02*
X0180883Y0184792D01*
X0179499Y0185365D01*
X0178001Y0185365D01*
X0176617Y0184792D01*
X0175558Y0183733D01*
X0174985Y0182349D01*
X0174985Y0180851D01*
X0175558Y0179467D01*
X0176617Y0178408D01*
X0178001Y0177835D01*
X0179499Y0177835D01*
X0180883Y0178408D01*
X0181942Y0179467D01*
X0182515Y0180851D01*
X0182515Y0182349D01*
X0181942Y0183733D01*
X0182251Y0182987D02*
X0184823Y0182987D01*
X0184591Y0181789D02*
X0182515Y0181789D01*
X0182407Y0180590D02*
X0184667Y0180590D01*
X0185163Y0179392D02*
X0181867Y0179392D01*
X0180364Y0178193D02*
X0186275Y0178193D01*
X0191225Y0178193D02*
X0206275Y0178193D01*
X0206394Y0178074D02*
X0207923Y0177441D01*
X0209577Y0177441D01*
X0211106Y0178074D01*
X0212276Y0179244D01*
X0212382Y0179500D01*
X0215380Y0179500D01*
X0224150Y0170730D01*
X0224150Y0039970D01*
X0202880Y0018700D01*
X0140521Y0018700D01*
X0140277Y0019290D01*
X0138940Y0020627D01*
X0137195Y0021350D01*
X0135305Y0021350D01*
X0133560Y0020627D01*
X0132223Y0019290D01*
X0131500Y0017545D01*
X0131500Y0015655D01*
X0132223Y0013910D01*
X0133560Y0012573D01*
X0135305Y0011850D01*
X0137195Y0011850D01*
X0138940Y0012573D01*
X0140277Y0013910D01*
X0140521Y0014500D01*
X0204620Y0014500D01*
X0227120Y0037000D01*
X0228350Y0038230D01*
X0228350Y0172470D01*
X0218350Y0182470D01*
X0217120Y0183700D01*
X0212382Y0183700D01*
X0212276Y0183956D01*
X0211106Y0185126D01*
X0209577Y0185759D01*
X0207923Y0185759D01*
X0206394Y0185126D01*
X0205224Y0183956D01*
X0204591Y0182427D01*
X0204591Y0180773D01*
X0205224Y0179244D01*
X0206394Y0178074D01*
X0205163Y0179392D02*
X0192337Y0179392D01*
X0192833Y0180590D02*
X0204667Y0180590D01*
X0204591Y0181789D02*
X0192909Y0181789D01*
X0192677Y0182987D02*
X0204823Y0182987D01*
X0205454Y0184186D02*
X0192046Y0184186D01*
X0190482Y0185384D02*
X0207018Y0185384D01*
X0210482Y0185384D02*
X0234683Y0185384D01*
X0234683Y0184186D02*
X0212046Y0184186D01*
X0212337Y0179392D02*
X0215489Y0179392D01*
X0216687Y0178193D02*
X0211225Y0178193D01*
X0209996Y0174306D02*
X0209589Y0174197D01*
X0209224Y0173987D01*
X0208926Y0173689D01*
X0208716Y0173324D01*
X0208607Y0172917D01*
X0208607Y0169646D01*
X0213267Y0169646D01*
X0213267Y0174306D01*
X0209996Y0174306D01*
X0208759Y0173399D02*
X0196788Y0173399D01*
X0196663Y0173523D02*
X0194773Y0174306D01*
X0192727Y0174306D01*
X0190837Y0173523D01*
X0189390Y0172076D01*
X0188607Y0170186D01*
X0188607Y0168140D01*
X0189390Y0166250D01*
X0190837Y0164803D01*
X0192727Y0164020D01*
X0194773Y0164020D01*
X0196663Y0164803D01*
X0198110Y0166250D01*
X0198893Y0168140D01*
X0198893Y0170186D01*
X0198110Y0172076D01*
X0196663Y0173523D01*
X0197986Y0172201D02*
X0208607Y0172201D01*
X0208607Y0171002D02*
X0198555Y0171002D01*
X0198893Y0169803D02*
X0208607Y0169803D01*
X0208607Y0168680D02*
X0208607Y0165409D01*
X0208716Y0165002D01*
X0208926Y0164637D01*
X0209224Y0164339D01*
X0209589Y0164129D01*
X0209996Y0164020D01*
X0213267Y0164020D01*
X0213267Y0168680D01*
X0208607Y0168680D01*
X0208607Y0168605D02*
X0198893Y0168605D01*
X0198589Y0167406D02*
X0208607Y0167406D01*
X0208607Y0166208D02*
X0198069Y0166208D01*
X0196870Y0165009D02*
X0208714Y0165009D01*
X0213267Y0165009D02*
X0214233Y0165009D01*
X0214233Y0164020D02*
X0217504Y0164020D01*
X0217911Y0164129D01*
X0218276Y0164339D01*
X0218574Y0164637D01*
X0218784Y0165002D01*
X0218893Y0165409D01*
X0218893Y0168680D01*
X0214233Y0168680D01*
X0214233Y0169646D01*
X0213267Y0169646D01*
X0213267Y0168680D01*
X0214233Y0168680D01*
X0214233Y0164020D01*
X0214233Y0166208D02*
X0213267Y0166208D01*
X0213267Y0167406D02*
X0214233Y0167406D01*
X0214233Y0168605D02*
X0213267Y0168605D01*
X0213267Y0169803D02*
X0214233Y0169803D01*
X0214233Y0169646D02*
X0214233Y0174306D01*
X0217504Y0174306D01*
X0217911Y0174197D01*
X0218276Y0173987D01*
X0218574Y0173689D01*
X0218784Y0173324D01*
X0218893Y0172917D01*
X0218893Y0169646D01*
X0214233Y0169646D01*
X0214233Y0171002D02*
X0213267Y0171002D01*
X0213267Y0172201D02*
X0214233Y0172201D01*
X0214233Y0173399D02*
X0213267Y0173399D01*
X0217886Y0176995D02*
X0114450Y0176995D01*
X0114450Y0178193D02*
X0147136Y0178193D01*
X0146966Y0178263D02*
X0147652Y0177979D01*
X0148379Y0177835D01*
X0148750Y0177835D01*
X0149121Y0177835D01*
X0149848Y0177979D01*
X0150534Y0178263D01*
X0151150Y0178675D01*
X0151675Y0179200D01*
X0152087Y0179816D01*
X0152371Y0180502D01*
X0152515Y0181229D01*
X0152515Y0181600D01*
X0152515Y0181971D01*
X0152371Y0182698D01*
X0152087Y0183384D01*
X0151675Y0184000D01*
X0151150Y0184525D01*
X0150534Y0184937D01*
X0149848Y0185221D01*
X0149121Y0185365D01*
X0148750Y0185365D01*
X0148379Y0185365D01*
X0147652Y0185221D01*
X0146966Y0184937D01*
X0146350Y0184525D01*
X0145825Y0184000D01*
X0145413Y0183384D01*
X0145129Y0182698D01*
X0144985Y0181971D01*
X0144985Y0181600D01*
X0144985Y0181229D01*
X0145129Y0180502D01*
X0145413Y0179816D01*
X0145825Y0179200D01*
X0146350Y0178675D01*
X0146966Y0178263D01*
X0145697Y0179392D02*
X0114450Y0179392D01*
X0114766Y0180590D02*
X0145112Y0180590D01*
X0144985Y0181600D02*
X0148750Y0181600D01*
X0152515Y0181600D01*
X0148750Y0181600D01*
X0148750Y0181600D01*
X0148750Y0181600D01*
X0148750Y0185365D01*
X0148750Y0181600D01*
X0148750Y0177835D01*
X0148750Y0181600D01*
X0148750Y0181600D01*
X0148750Y0181600D01*
X0144985Y0181600D01*
X0144985Y0181789D02*
X0115964Y0181789D01*
X0117163Y0182987D02*
X0145249Y0182987D01*
X0146011Y0184186D02*
X0118361Y0184186D01*
X0114450Y0175796D02*
X0219084Y0175796D01*
X0220283Y0174598D02*
X0114450Y0174598D01*
X0114450Y0173399D02*
X0170712Y0173399D01*
X0170837Y0173523D02*
X0169390Y0172076D01*
X0168607Y0170186D01*
X0168607Y0168140D01*
X0169390Y0166250D01*
X0170837Y0164803D01*
X0172727Y0164020D01*
X0174773Y0164020D01*
X0176663Y0164803D01*
X0178110Y0166250D01*
X0178893Y0168140D01*
X0178893Y0170186D01*
X0178110Y0172076D01*
X0176663Y0173523D01*
X0174773Y0174306D01*
X0172727Y0174306D01*
X0170837Y0173523D01*
X0169514Y0172201D02*
X0130226Y0172201D01*
X0130422Y0172137D02*
X0129770Y0172349D01*
X0129093Y0172456D01*
X0128839Y0172456D01*
X0128839Y0168189D01*
X0128661Y0168189D01*
X0128661Y0172456D01*
X0128407Y0172456D01*
X0127730Y0172349D01*
X0127078Y0172137D01*
X0126467Y0171825D01*
X0125912Y0171422D01*
X0125427Y0170938D01*
X0125024Y0170383D01*
X0124713Y0169772D01*
X0124501Y0169120D01*
X0124394Y0168443D01*
X0124394Y0168189D01*
X0128661Y0168189D01*
X0128661Y0168011D01*
X0124394Y0168011D01*
X0124394Y0167757D01*
X0124501Y0167080D01*
X0124713Y0166428D01*
X0125024Y0165817D01*
X0125427Y0165262D01*
X0125912Y0164777D01*
X0126467Y0164374D01*
X0127078Y0164063D01*
X0127730Y0163851D01*
X0128407Y0163744D01*
X0128661Y0163744D01*
X0128661Y0168011D01*
X0128839Y0168011D01*
X0128839Y0168189D01*
X0133106Y0168189D01*
X0133106Y0168443D01*
X0132999Y0169120D01*
X0132787Y0169772D01*
X0132475Y0170383D01*
X0132072Y0170938D01*
X0131588Y0171422D01*
X0131033Y0171825D01*
X0130422Y0172137D01*
X0128839Y0172201D02*
X0128661Y0172201D01*
X0128661Y0171002D02*
X0128839Y0171002D01*
X0128839Y0169803D02*
X0128661Y0169803D01*
X0128661Y0168605D02*
X0128839Y0168605D01*
X0128839Y0168011D02*
X0133106Y0168011D01*
X0133106Y0167757D01*
X0132999Y0167080D01*
X0132787Y0166428D01*
X0132475Y0165817D01*
X0132072Y0165262D01*
X0131588Y0164777D01*
X0131033Y0164374D01*
X0130422Y0164063D01*
X0129770Y0163851D01*
X0129093Y0163744D01*
X0128839Y0163744D01*
X0128839Y0168011D01*
X0128839Y0167406D02*
X0128661Y0167406D01*
X0128661Y0166208D02*
X0128839Y0166208D01*
X0128839Y0165009D02*
X0128661Y0165009D01*
X0128661Y0163811D02*
X0128839Y0163811D01*
X0129515Y0163811D02*
X0224150Y0163811D01*
X0224150Y0165009D02*
X0218786Y0165009D01*
X0218893Y0166208D02*
X0224150Y0166208D01*
X0224150Y0167406D02*
X0218893Y0167406D01*
X0218893Y0168605D02*
X0224150Y0168605D01*
X0224150Y0169803D02*
X0218893Y0169803D01*
X0218893Y0171002D02*
X0223878Y0171002D01*
X0222680Y0172201D02*
X0218893Y0172201D01*
X0218741Y0173399D02*
X0221481Y0173399D01*
X0225024Y0175796D02*
X0234683Y0175796D01*
X0234683Y0174598D02*
X0226222Y0174598D01*
X0227421Y0173399D02*
X0234683Y0173399D01*
X0234683Y0172201D02*
X0228350Y0172201D01*
X0228350Y0171002D02*
X0234683Y0171002D01*
X0234683Y0169803D02*
X0228350Y0169803D01*
X0228350Y0168605D02*
X0234683Y0168605D01*
X0234683Y0167406D02*
X0228350Y0167406D01*
X0228350Y0166208D02*
X0234683Y0166208D01*
X0234683Y0165009D02*
X0228350Y0165009D01*
X0228350Y0163811D02*
X0234683Y0163811D01*
X0234683Y0162612D02*
X0228350Y0162612D01*
X0228350Y0161414D02*
X0234683Y0161414D01*
X0234683Y0160215D02*
X0228350Y0160215D01*
X0228350Y0159017D02*
X0234683Y0159017D01*
X0234683Y0157818D02*
X0228350Y0157818D01*
X0228350Y0156620D02*
X0234683Y0156620D01*
X0234683Y0155421D02*
X0228350Y0155421D01*
X0228350Y0154223D02*
X0234683Y0154223D01*
X0234683Y0153024D02*
X0228350Y0153024D01*
X0228350Y0151826D02*
X0234683Y0151826D01*
X0234683Y0150627D02*
X0228350Y0150627D01*
X0228350Y0149429D02*
X0234683Y0149429D01*
X0234683Y0148230D02*
X0228350Y0148230D01*
X0228350Y0147032D02*
X0234683Y0147032D01*
X0234683Y0145833D02*
X0228350Y0145833D01*
X0228350Y0144635D02*
X0234683Y0144635D01*
X0234683Y0143436D02*
X0228350Y0143436D01*
X0228350Y0142238D02*
X0234683Y0142238D01*
X0234683Y0141039D02*
X0228350Y0141039D01*
X0228350Y0139841D02*
X0234683Y0139841D01*
X0234683Y0138642D02*
X0228350Y0138642D01*
X0228350Y0137444D02*
X0234683Y0137444D01*
X0234683Y0136245D02*
X0228350Y0136245D01*
X0228350Y0135047D02*
X0234683Y0135047D01*
X0234683Y0133848D02*
X0228350Y0133848D01*
X0228350Y0132650D02*
X0234683Y0132650D01*
X0234683Y0131451D02*
X0228350Y0131451D01*
X0228350Y0130253D02*
X0234683Y0130253D01*
X0234683Y0129054D02*
X0228350Y0129054D01*
X0228350Y0127856D02*
X0234683Y0127856D01*
X0234683Y0126657D02*
X0228350Y0126657D01*
X0228350Y0125459D02*
X0234683Y0125459D01*
X0234683Y0124260D02*
X0228350Y0124260D01*
X0228350Y0123062D02*
X0234683Y0123062D01*
X0234683Y0121863D02*
X0228350Y0121863D01*
X0228350Y0120665D02*
X0234683Y0120665D01*
X0234683Y0119466D02*
X0228350Y0119466D01*
X0228350Y0118268D02*
X0234683Y0118268D01*
X0234683Y0117069D02*
X0228350Y0117069D01*
X0228350Y0115870D02*
X0234683Y0115870D01*
X0234683Y0114672D02*
X0228350Y0114672D01*
X0228350Y0113473D02*
X0234683Y0113473D01*
X0234683Y0112275D02*
X0228350Y0112275D01*
X0228350Y0111076D02*
X0234683Y0111076D01*
X0234683Y0109878D02*
X0228350Y0109878D01*
X0228350Y0108679D02*
X0234683Y0108679D01*
X0234683Y0107481D02*
X0228350Y0107481D01*
X0228350Y0106282D02*
X0234683Y0106282D01*
X0234683Y0105084D02*
X0228350Y0105084D01*
X0228350Y0103885D02*
X0234683Y0103885D01*
X0234683Y0102687D02*
X0228350Y0102687D01*
X0228350Y0101488D02*
X0234683Y0101488D01*
X0234683Y0100290D02*
X0228350Y0100290D01*
X0228350Y0099091D02*
X0234683Y0099091D01*
X0234683Y0097893D02*
X0228350Y0097893D01*
X0228350Y0096694D02*
X0234683Y0096694D01*
X0234683Y0095496D02*
X0228350Y0095496D01*
X0228350Y0094297D02*
X0234683Y0094297D01*
X0234683Y0093099D02*
X0228350Y0093099D01*
X0228350Y0091900D02*
X0234683Y0091900D01*
X0234683Y0090702D02*
X0228350Y0090702D01*
X0228350Y0089503D02*
X0234683Y0089503D01*
X0234683Y0088305D02*
X0228350Y0088305D01*
X0228350Y0087106D02*
X0234683Y0087106D01*
X0234683Y0085908D02*
X0228350Y0085908D01*
X0228350Y0084709D02*
X0234683Y0084709D01*
X0234683Y0083511D02*
X0228350Y0083511D01*
X0228350Y0082312D02*
X0234683Y0082312D01*
X0234683Y0081114D02*
X0228350Y0081114D01*
X0228350Y0079915D02*
X0234683Y0079915D01*
X0234683Y0078717D02*
X0228350Y0078717D01*
X0228350Y0077518D02*
X0234683Y0077518D01*
X0234683Y0076320D02*
X0228350Y0076320D01*
X0228350Y0075121D02*
X0234683Y0075121D01*
X0234683Y0073923D02*
X0228350Y0073923D01*
X0228350Y0072724D02*
X0234683Y0072724D01*
X0234683Y0071526D02*
X0228350Y0071526D01*
X0228350Y0070327D02*
X0234683Y0070327D01*
X0234683Y0069129D02*
X0228350Y0069129D01*
X0228350Y0067930D02*
X0234683Y0067930D01*
X0234683Y0066732D02*
X0228350Y0066732D01*
X0228350Y0065533D02*
X0234683Y0065533D01*
X0234683Y0064334D02*
X0228350Y0064334D01*
X0228350Y0063136D02*
X0234683Y0063136D01*
X0234683Y0061937D02*
X0228350Y0061937D01*
X0228350Y0060739D02*
X0234683Y0060739D01*
X0234683Y0059540D02*
X0228350Y0059540D01*
X0228350Y0058342D02*
X0234683Y0058342D01*
X0234683Y0057143D02*
X0228350Y0057143D01*
X0228350Y0055945D02*
X0234683Y0055945D01*
X0234683Y0054746D02*
X0228350Y0054746D01*
X0228350Y0053548D02*
X0234683Y0053548D01*
X0234683Y0052349D02*
X0228350Y0052349D01*
X0228350Y0051151D02*
X0234683Y0051151D01*
X0234683Y0049952D02*
X0228350Y0049952D01*
X0228350Y0048754D02*
X0234683Y0048754D01*
X0234683Y0047555D02*
X0228350Y0047555D01*
X0228350Y0046357D02*
X0234683Y0046357D01*
X0234683Y0045158D02*
X0228350Y0045158D01*
X0228350Y0043960D02*
X0234683Y0043960D01*
X0234683Y0042761D02*
X0228350Y0042761D01*
X0228350Y0041563D02*
X0234683Y0041563D01*
X0234683Y0040364D02*
X0228350Y0040364D01*
X0228350Y0039166D02*
X0234683Y0039166D01*
X0234683Y0037967D02*
X0228087Y0037967D01*
X0226889Y0036769D02*
X0234683Y0036769D01*
X0234683Y0035570D02*
X0225690Y0035570D01*
X0224492Y0034372D02*
X0234683Y0034372D01*
X0234683Y0033173D02*
X0223293Y0033173D01*
X0222095Y0031975D02*
X0234683Y0031975D01*
X0234683Y0030776D02*
X0220896Y0030776D01*
X0219698Y0029578D02*
X0234683Y0029578D01*
X0234683Y0028379D02*
X0218499Y0028379D01*
X0217300Y0027181D02*
X0234683Y0027181D01*
X0234683Y0025982D02*
X0216102Y0025982D01*
X0214903Y0024784D02*
X0234683Y0024784D01*
X0234683Y0023585D02*
X0213705Y0023585D01*
X0212506Y0022387D02*
X0234683Y0022387D01*
X0234683Y0021188D02*
X0211308Y0021188D01*
X0210109Y0019990D02*
X0234683Y0019990D01*
X0234683Y0018791D02*
X0208911Y0018791D01*
X0207712Y0017593D02*
X0234683Y0017593D01*
X0234683Y0016394D02*
X0206514Y0016394D01*
X0205315Y0015196D02*
X0234683Y0015196D01*
X0234683Y0013997D02*
X0140313Y0013997D01*
X0139165Y0012799D02*
X0234683Y0012799D01*
X0234683Y0011600D02*
X0007600Y0011600D01*
X0007600Y0010401D02*
X0234683Y0010401D01*
X0234683Y0009203D02*
X0007600Y0009203D01*
X0007600Y0009200D02*
X0007600Y0257031D01*
X0027171Y0257031D01*
X0028126Y0257427D01*
X0028858Y0258159D01*
X0029254Y0259114D01*
X0029254Y0262933D01*
X0029521Y0262408D01*
X0030052Y0261678D01*
X0030690Y0261039D01*
X0031420Y0260509D01*
X0032224Y0260099D01*
X0033083Y0259820D01*
X0033825Y0259703D01*
X0033825Y0264813D01*
X0035025Y0264813D01*
X0035025Y0259703D01*
X0035768Y0259820D01*
X0036626Y0260099D01*
X0037430Y0260509D01*
X0038161Y0261039D01*
X0038799Y0261678D01*
X0039329Y0262408D01*
X0039739Y0263212D01*
X0040018Y0264070D01*
X0040135Y0264813D01*
X0035025Y0264813D01*
X0035025Y0266013D01*
X0033825Y0266013D01*
X0033825Y0271123D01*
X0033083Y0271006D01*
X0032224Y0270727D01*
X0031420Y0270317D01*
X0030690Y0269787D01*
X0030052Y0269148D01*
X0029521Y0268418D01*
X0029254Y0267893D01*
X0029254Y0284591D01*
X0213030Y0284591D01*
X0213030Y0267463D01*
X0212560Y0268598D01*
X0210947Y0270211D01*
X0208839Y0271084D01*
X0206558Y0271084D01*
X0204451Y0270211D01*
X0202838Y0268598D01*
X0201965Y0266491D01*
X0201965Y0264209D01*
X0202838Y0262102D01*
X0204451Y0260489D01*
X0206558Y0259616D01*
X0208839Y0259616D01*
X0210947Y0260489D01*
X0212560Y0262102D01*
X0213030Y0263237D01*
X0213030Y0259114D01*
X0213426Y0258159D01*
X0214157Y0257427D01*
X0215113Y0257031D01*
X0234683Y0257031D01*
X0234683Y0009200D01*
X0007600Y0009200D01*
X0007600Y0012799D02*
X0103335Y0012799D01*
X0102187Y0013997D02*
X0007600Y0013997D01*
X0007600Y0015196D02*
X0084685Y0015196D01*
X0083486Y0016394D02*
X0007600Y0016394D01*
X0007600Y0017593D02*
X0082288Y0017593D01*
X0081089Y0018791D02*
X0007600Y0018791D01*
X0007600Y0019990D02*
X0079891Y0019990D01*
X0078692Y0021188D02*
X0007600Y0021188D01*
X0007600Y0022387D02*
X0077494Y0022387D01*
X0076295Y0023585D02*
X0007600Y0023585D01*
X0007600Y0024784D02*
X0075097Y0024784D01*
X0073898Y0025982D02*
X0007600Y0025982D01*
X0007600Y0027181D02*
X0072699Y0027181D01*
X0071501Y0028379D02*
X0007600Y0028379D01*
X0007600Y0029578D02*
X0070302Y0029578D01*
X0069104Y0030776D02*
X0007600Y0030776D01*
X0007600Y0031975D02*
X0067905Y0031975D01*
X0066707Y0033173D02*
X0007600Y0033173D01*
X0007600Y0034372D02*
X0065508Y0034372D01*
X0064310Y0035570D02*
X0007600Y0035570D01*
X0007600Y0036769D02*
X0063111Y0036769D01*
X0061913Y0037967D02*
X0007600Y0037967D01*
X0007600Y0039166D02*
X0060714Y0039166D01*
X0059516Y0040364D02*
X0007600Y0040364D01*
X0007600Y0041563D02*
X0058317Y0041563D01*
X0057119Y0042761D02*
X0007600Y0042761D01*
X0007600Y0043960D02*
X0056650Y0043960D01*
X0056650Y0045158D02*
X0007600Y0045158D01*
X0007600Y0046357D02*
X0056650Y0046357D01*
X0056650Y0047555D02*
X0051916Y0047555D01*
X0051663Y0047303D02*
X0053110Y0048750D01*
X0053893Y0050640D01*
X0053893Y0052686D01*
X0053110Y0054576D01*
X0051663Y0056023D01*
X0049773Y0056806D01*
X0047727Y0056806D01*
X0045837Y0056023D01*
X0044390Y0054576D01*
X0043607Y0052686D01*
X0043607Y0050640D01*
X0044390Y0048750D01*
X0045837Y0047303D01*
X0047727Y0046520D01*
X0049773Y0046520D01*
X0051663Y0047303D01*
X0053112Y0048754D02*
X0056650Y0048754D01*
X0056650Y0049952D02*
X0053609Y0049952D01*
X0053893Y0051151D02*
X0056650Y0051151D01*
X0056650Y0052349D02*
X0053893Y0052349D01*
X0053536Y0053548D02*
X0056650Y0053548D01*
X0056650Y0054746D02*
X0052940Y0054746D01*
X0051742Y0055945D02*
X0056650Y0055945D01*
X0056650Y0057143D02*
X0007600Y0057143D01*
X0007600Y0055945D02*
X0025758Y0055945D01*
X0025837Y0056023D02*
X0024390Y0054576D01*
X0023607Y0052686D01*
X0023607Y0050640D01*
X0024390Y0048750D01*
X0025837Y0047303D01*
X0027727Y0046520D01*
X0029773Y0046520D01*
X0031663Y0047303D01*
X0033110Y0048750D01*
X0033893Y0050640D01*
X0033893Y0052686D01*
X0033110Y0054576D01*
X0031663Y0056023D01*
X0029773Y0056806D01*
X0027727Y0056806D01*
X0025837Y0056023D01*
X0024560Y0054746D02*
X0007600Y0054746D01*
X0007600Y0053548D02*
X0023964Y0053548D01*
X0023607Y0052349D02*
X0007600Y0052349D01*
X0007600Y0051151D02*
X0023607Y0051151D01*
X0023891Y0049952D02*
X0007600Y0049952D01*
X0007600Y0048754D02*
X0024388Y0048754D01*
X0025584Y0047555D02*
X0007600Y0047555D01*
X0007600Y0058342D02*
X0057522Y0058342D01*
X0058721Y0059540D02*
X0007600Y0059540D01*
X0007600Y0060739D02*
X0059919Y0060739D01*
X0061118Y0061937D02*
X0007600Y0061937D01*
X0007600Y0063136D02*
X0027273Y0063136D01*
X0026617Y0063408D02*
X0028001Y0062835D01*
X0029499Y0062835D01*
X0030883Y0063408D01*
X0031942Y0064467D01*
X0032515Y0065851D01*
X0032515Y0067349D01*
X0031942Y0068733D01*
X0030883Y0069792D01*
X0029499Y0070365D01*
X0028001Y0070365D01*
X0026617Y0069792D01*
X0025558Y0068733D01*
X0024985Y0067349D01*
X0024985Y0065851D01*
X0025558Y0064467D01*
X0026617Y0063408D01*
X0025690Y0064334D02*
X0007600Y0064334D01*
X0007600Y0065533D02*
X0025116Y0065533D01*
X0024985Y0066732D02*
X0007600Y0066732D01*
X0007600Y0067930D02*
X0025225Y0067930D01*
X0025954Y0069129D02*
X0007600Y0069129D01*
X0007600Y0070327D02*
X0027909Y0070327D01*
X0029591Y0070327D02*
X0057909Y0070327D01*
X0058001Y0070365D02*
X0056617Y0069792D01*
X0055558Y0068733D01*
X0054985Y0067349D01*
X0054985Y0065851D01*
X0055558Y0064467D01*
X0056617Y0063408D01*
X0058001Y0062835D01*
X0059499Y0062835D01*
X0060883Y0063408D01*
X0061942Y0064467D01*
X0062515Y0065851D01*
X0062515Y0067349D01*
X0061942Y0068733D01*
X0060883Y0069792D01*
X0059499Y0070365D01*
X0058001Y0070365D01*
X0059591Y0070327D02*
X0064150Y0070327D01*
X0064150Y0069129D02*
X0061546Y0069129D01*
X0062275Y0067930D02*
X0064150Y0067930D01*
X0064150Y0066732D02*
X0062515Y0066732D01*
X0062384Y0065533D02*
X0064150Y0065533D01*
X0063515Y0064334D02*
X0061810Y0064334D01*
X0062316Y0063136D02*
X0060226Y0063136D01*
X0064660Y0059540D02*
X0108050Y0059540D01*
X0108050Y0058342D02*
X0063462Y0058342D01*
X0062263Y0057143D02*
X0108050Y0057143D01*
X0108050Y0055945D02*
X0104242Y0055945D01*
X0104163Y0056023D02*
X0102273Y0056806D01*
X0100227Y0056806D01*
X0098337Y0056023D01*
X0096890Y0054576D01*
X0096107Y0052686D01*
X0096107Y0050640D01*
X0096890Y0048750D01*
X0098337Y0047303D01*
X0100227Y0046520D01*
X0102273Y0046520D01*
X0104163Y0047303D01*
X0105610Y0048750D01*
X0106393Y0050640D01*
X0106393Y0052686D01*
X0105610Y0054576D01*
X0104163Y0056023D01*
X0105440Y0054746D02*
X0108050Y0054746D01*
X0108050Y0053548D02*
X0106036Y0053548D01*
X0106393Y0052349D02*
X0108050Y0052349D01*
X0108050Y0051151D02*
X0106393Y0051151D01*
X0106109Y0049952D02*
X0108050Y0049952D01*
X0108050Y0048754D02*
X0105612Y0048754D01*
X0104416Y0047555D02*
X0108050Y0047555D01*
X0108050Y0046357D02*
X0060850Y0046357D01*
X0060850Y0047555D02*
X0063607Y0047555D01*
X0063607Y0047457D02*
X0064544Y0046520D01*
X0072956Y0046520D01*
X0073893Y0047457D01*
X0073893Y0055869D01*
X0072956Y0056806D01*
X0064544Y0056806D01*
X0063607Y0055869D01*
X0063607Y0047457D01*
X0063607Y0048754D02*
X0060850Y0048754D01*
X0060850Y0049952D02*
X0063607Y0049952D01*
X0063607Y0051151D02*
X0060850Y0051151D01*
X0060850Y0052349D02*
X0063607Y0052349D01*
X0063607Y0053548D02*
X0060850Y0053548D01*
X0060850Y0054746D02*
X0063607Y0054746D01*
X0063683Y0055945D02*
X0061065Y0055945D01*
X0065859Y0060739D02*
X0108050Y0060739D01*
X0108050Y0061937D02*
X0067057Y0061937D01*
X0068256Y0063136D02*
X0071332Y0063136D01*
X0071394Y0063074D02*
X0072923Y0062441D01*
X0074577Y0062441D01*
X0076106Y0063074D01*
X0077276Y0064244D01*
X0077909Y0065773D01*
X0077909Y0067427D01*
X0077276Y0068956D01*
X0076106Y0070126D01*
X0074577Y0070759D01*
X0072923Y0070759D01*
X0071394Y0070126D01*
X0070224Y0068956D01*
X0069591Y0067427D01*
X0069591Y0065773D01*
X0070224Y0064244D01*
X0071394Y0063074D01*
X0070187Y0064334D02*
X0068350Y0064334D01*
X0068350Y0065533D02*
X0069690Y0065533D01*
X0069591Y0066732D02*
X0068350Y0066732D01*
X0068350Y0067930D02*
X0069799Y0067930D01*
X0070397Y0069129D02*
X0068350Y0069129D01*
X0068350Y0070327D02*
X0071880Y0070327D01*
X0068350Y0071526D02*
X0082270Y0071526D01*
X0082962Y0071812D02*
X0081506Y0071209D01*
X0080391Y0070094D01*
X0079788Y0068638D01*
X0079788Y0067062D01*
X0080391Y0065606D01*
X0081506Y0064491D01*
X0082962Y0063888D01*
X0084538Y0063888D01*
X0085994Y0064491D01*
X0087109Y0065606D01*
X0087712Y0067062D01*
X0087712Y0068638D01*
X0087109Y0070094D01*
X0085994Y0071209D01*
X0084538Y0071812D01*
X0082962Y0071812D01*
X0085230Y0071526D02*
X0089688Y0071526D01*
X0089975Y0071812D02*
X0089038Y0070875D01*
X0089038Y0064825D01*
X0089975Y0063888D01*
X0096025Y0063888D01*
X0096962Y0064825D01*
X0096962Y0070875D01*
X0096025Y0071812D01*
X0089975Y0071812D01*
X0089038Y0070327D02*
X0086876Y0070327D01*
X0087509Y0069129D02*
X0089038Y0069129D01*
X0089038Y0067930D02*
X0087712Y0067930D01*
X0087575Y0066732D02*
X0089038Y0066732D01*
X0089038Y0065533D02*
X0087036Y0065533D01*
X0085617Y0064334D02*
X0089528Y0064334D01*
X0096472Y0064334D02*
X0108050Y0064334D01*
X0108050Y0063136D02*
X0076168Y0063136D01*
X0077313Y0064334D02*
X0081883Y0064334D01*
X0080464Y0065533D02*
X0077810Y0065533D01*
X0077909Y0066732D02*
X0079925Y0066732D01*
X0079788Y0067930D02*
X0077701Y0067930D01*
X0077103Y0069129D02*
X0079991Y0069129D01*
X0080624Y0070327D02*
X0075620Y0070327D01*
X0068350Y0072724D02*
X0105550Y0072724D01*
X0105550Y0071526D02*
X0096312Y0071526D01*
X0096962Y0070327D02*
X0105550Y0070327D01*
X0105550Y0069129D02*
X0096962Y0069129D01*
X0096962Y0067930D02*
X0105771Y0067930D01*
X0106593Y0066732D02*
X0096962Y0066732D01*
X0096962Y0065533D02*
X0107791Y0065533D01*
X0112048Y0070327D02*
X0112739Y0070327D01*
X0112545Y0070522D02*
X0113482Y0069585D01*
X0119138Y0069585D01*
X0120075Y0070522D01*
X0120075Y0076178D01*
X0119138Y0077115D01*
X0113482Y0077115D01*
X0112545Y0076178D01*
X0112545Y0070522D01*
X0112545Y0071526D02*
X0111950Y0071526D01*
X0111950Y0072724D02*
X0112545Y0072724D01*
X0112545Y0073923D02*
X0111950Y0073923D01*
X0111950Y0075121D02*
X0112545Y0075121D01*
X0112686Y0076320D02*
X0111950Y0076320D01*
X0111950Y0077518D02*
X0144985Y0077518D01*
X0144985Y0077849D02*
X0144985Y0076351D01*
X0145558Y0074967D01*
X0146617Y0073908D01*
X0148001Y0073335D01*
X0149499Y0073335D01*
X0150883Y0073908D01*
X0151942Y0074967D01*
X0152515Y0076351D01*
X0152515Y0077849D01*
X0151942Y0079233D01*
X0150883Y0080292D01*
X0149499Y0080865D01*
X0148001Y0080865D01*
X0146617Y0080292D01*
X0145558Y0079233D01*
X0144985Y0077849D01*
X0145344Y0078717D02*
X0111950Y0078717D01*
X0111950Y0079915D02*
X0146240Y0079915D01*
X0148001Y0082585D02*
X0149499Y0082585D01*
X0150883Y0083158D01*
X0151942Y0084217D01*
X0152515Y0085601D01*
X0152515Y0087099D01*
X0151942Y0088483D01*
X0150883Y0089542D01*
X0149499Y0090115D01*
X0148001Y0090115D01*
X0146617Y0089542D01*
X0145558Y0088483D01*
X0144985Y0087099D01*
X0144985Y0085601D01*
X0145558Y0084217D01*
X0146617Y0083158D01*
X0148001Y0082585D01*
X0146264Y0083511D02*
X0130015Y0083511D01*
X0130015Y0083351D02*
X0129442Y0081967D01*
X0128383Y0080908D01*
X0126999Y0080335D01*
X0125501Y0080335D01*
X0124117Y0080908D01*
X0123058Y0081967D01*
X0122485Y0083351D01*
X0122485Y0084849D01*
X0123058Y0086233D01*
X0124117Y0087292D01*
X0125501Y0087865D01*
X0126999Y0087865D01*
X0128383Y0087292D01*
X0129442Y0086233D01*
X0130015Y0084849D01*
X0130015Y0083351D01*
X0129585Y0082312D02*
X0159150Y0082312D01*
X0159150Y0081114D02*
X0128589Y0081114D01*
X0130015Y0084709D02*
X0145354Y0084709D01*
X0144985Y0085908D02*
X0129577Y0085908D01*
X0128569Y0087106D02*
X0144988Y0087106D01*
X0145484Y0088305D02*
X0111950Y0088305D01*
X0111950Y0089503D02*
X0146578Y0089503D01*
X0147843Y0091900D02*
X0111950Y0091900D01*
X0111950Y0090702D02*
X0159150Y0090702D01*
X0159150Y0091900D02*
X0149657Y0091900D01*
X0149499Y0091835D02*
X0150883Y0092408D01*
X0151942Y0093467D01*
X0152515Y0094851D01*
X0152515Y0096349D01*
X0151942Y0097733D01*
X0150883Y0098792D01*
X0149499Y0099365D01*
X0148001Y0099365D01*
X0146617Y0098792D01*
X0145558Y0097733D01*
X0144985Y0096349D01*
X0144985Y0094851D01*
X0145558Y0093467D01*
X0146617Y0092408D01*
X0148001Y0091835D01*
X0149499Y0091835D01*
X0151574Y0093099D02*
X0159150Y0093099D01*
X0159150Y0094297D02*
X0152286Y0094297D01*
X0152515Y0095496D02*
X0159150Y0095496D01*
X0159150Y0096694D02*
X0152372Y0096694D01*
X0151782Y0097893D02*
X0159150Y0097893D01*
X0159150Y0099091D02*
X0150161Y0099091D01*
X0149577Y0101441D02*
X0147923Y0101441D01*
X0146394Y0102074D01*
X0145224Y0103244D01*
X0144591Y0104773D01*
X0144591Y0106427D01*
X0145224Y0107956D01*
X0146394Y0109126D01*
X0147923Y0109759D01*
X0149577Y0109759D01*
X0151106Y0109126D01*
X0152276Y0107956D01*
X0152909Y0106427D01*
X0152909Y0104773D01*
X0152276Y0103244D01*
X0151106Y0102074D01*
X0149577Y0101441D01*
X0149692Y0101488D02*
X0159150Y0101488D01*
X0159150Y0100290D02*
X0111950Y0100290D01*
X0111950Y0101488D02*
X0147808Y0101488D01*
X0145781Y0102687D02*
X0111950Y0102687D01*
X0111950Y0103885D02*
X0144958Y0103885D01*
X0144591Y0105084D02*
X0111950Y0105084D01*
X0111950Y0106282D02*
X0144591Y0106282D01*
X0145027Y0107481D02*
X0111950Y0107481D01*
X0111950Y0108679D02*
X0145948Y0108679D01*
X0146428Y0110624D02*
X0147934Y0110000D01*
X0149566Y0110000D01*
X0151072Y0110624D01*
X0152226Y0111778D01*
X0152850Y0113284D01*
X0152850Y0114916D01*
X0152226Y0116422D01*
X0151072Y0117576D01*
X0149566Y0118200D01*
X0147934Y0118200D01*
X0146428Y0117576D01*
X0145274Y0116422D01*
X0144650Y0114916D01*
X0144650Y0113284D01*
X0145274Y0111778D01*
X0146428Y0110624D01*
X0145975Y0111076D02*
X0128551Y0111076D01*
X0128383Y0110908D02*
X0129442Y0111967D01*
X0130015Y0113351D01*
X0130015Y0114849D01*
X0129442Y0116233D01*
X0128383Y0117292D01*
X0126999Y0117865D01*
X0125501Y0117865D01*
X0124117Y0117292D01*
X0123058Y0116233D01*
X0122485Y0114849D01*
X0122485Y0113351D01*
X0123058Y0111967D01*
X0124117Y0110908D01*
X0125501Y0110335D01*
X0126999Y0110335D01*
X0128383Y0110908D01*
X0129570Y0112275D02*
X0145068Y0112275D01*
X0144650Y0113473D02*
X0130015Y0113473D01*
X0130015Y0114672D02*
X0144650Y0114672D01*
X0145046Y0115870D02*
X0129592Y0115870D01*
X0128606Y0117069D02*
X0145921Y0117069D01*
X0151579Y0117069D02*
X0155921Y0117069D01*
X0156428Y0117576D02*
X0155274Y0116422D01*
X0154650Y0114916D01*
X0154650Y0113284D01*
X0155274Y0111778D01*
X0156428Y0110624D01*
X0157934Y0110000D01*
X0159566Y0110000D01*
X0161072Y0110624D01*
X0162226Y0111778D01*
X0162850Y0113284D01*
X0162850Y0114916D01*
X0162226Y0116422D01*
X0161072Y0117576D01*
X0159566Y0118200D01*
X0157934Y0118200D01*
X0156428Y0117576D01*
X0155046Y0115870D02*
X0152454Y0115870D01*
X0152850Y0114672D02*
X0154650Y0114672D01*
X0154650Y0113473D02*
X0152850Y0113473D01*
X0152432Y0112275D02*
X0155068Y0112275D01*
X0155975Y0111076D02*
X0151525Y0111076D01*
X0151552Y0108679D02*
X0159610Y0108679D01*
X0159150Y0108220D02*
X0159150Y0065470D01*
X0155380Y0061700D01*
X0122880Y0061700D01*
X0121650Y0060470D01*
X0119150Y0057970D01*
X0119150Y0056360D01*
X0118337Y0056023D01*
X0116890Y0054576D01*
X0116107Y0052686D01*
X0116107Y0050640D01*
X0116890Y0048750D01*
X0118337Y0047303D01*
X0120227Y0046520D01*
X0122273Y0046520D01*
X0124163Y0047303D01*
X0125610Y0048750D01*
X0126393Y0050640D01*
X0126393Y0052686D01*
X0125610Y0054576D01*
X0124163Y0056023D01*
X0123442Y0056322D01*
X0124620Y0057500D01*
X0157120Y0057500D01*
X0162120Y0062500D01*
X0163350Y0063730D01*
X0163350Y0106480D01*
X0167182Y0110312D01*
X0167934Y0110000D01*
X0169566Y0110000D01*
X0171072Y0110624D01*
X0172226Y0111778D01*
X0172850Y0113284D01*
X0172850Y0114916D01*
X0172226Y0116422D01*
X0171072Y0117576D01*
X0169566Y0118200D01*
X0167934Y0118200D01*
X0166428Y0117576D01*
X0165274Y0116422D01*
X0164650Y0114916D01*
X0164650Y0113720D01*
X0160380Y0109450D01*
X0159150Y0108220D01*
X0159150Y0107481D02*
X0152473Y0107481D01*
X0152909Y0106282D02*
X0159150Y0106282D01*
X0159150Y0105084D02*
X0152909Y0105084D01*
X0152541Y0103885D02*
X0159150Y0103885D01*
X0159150Y0102687D02*
X0151719Y0102687D01*
X0147339Y0099091D02*
X0111950Y0099091D01*
X0111950Y0097893D02*
X0145718Y0097893D01*
X0145128Y0096694D02*
X0111950Y0096694D01*
X0111950Y0095496D02*
X0144985Y0095496D01*
X0145214Y0094297D02*
X0111950Y0094297D01*
X0111950Y0093099D02*
X0145926Y0093099D01*
X0150922Y0089503D02*
X0159150Y0089503D01*
X0159150Y0088305D02*
X0152016Y0088305D01*
X0152512Y0087106D02*
X0159150Y0087106D01*
X0159150Y0085908D02*
X0152515Y0085908D01*
X0152146Y0084709D02*
X0159150Y0084709D01*
X0159150Y0083511D02*
X0151236Y0083511D01*
X0151260Y0079915D02*
X0159150Y0079915D01*
X0159150Y0078717D02*
X0152156Y0078717D01*
X0152515Y0077518D02*
X0159150Y0077518D01*
X0159150Y0076320D02*
X0152502Y0076320D01*
X0152006Y0075121D02*
X0159150Y0075121D01*
X0159150Y0073923D02*
X0150898Y0073923D01*
X0150423Y0070759D02*
X0148894Y0070126D01*
X0147724Y0068956D01*
X0147091Y0067427D01*
X0147091Y0065773D01*
X0147724Y0064244D01*
X0148894Y0063074D01*
X0150423Y0062441D01*
X0152077Y0062441D01*
X0153606Y0063074D01*
X0154776Y0064244D01*
X0155409Y0065773D01*
X0155409Y0067427D01*
X0154776Y0068956D01*
X0153606Y0070126D01*
X0152077Y0070759D01*
X0150423Y0070759D01*
X0149380Y0070327D02*
X0126443Y0070327D01*
X0126590Y0070425D02*
X0127115Y0070950D01*
X0127527Y0071566D01*
X0127811Y0072252D01*
X0127955Y0072979D01*
X0127955Y0073350D01*
X0127955Y0073721D01*
X0127811Y0074448D01*
X0127527Y0075134D01*
X0127115Y0075750D01*
X0126590Y0076275D01*
X0125974Y0076687D01*
X0125288Y0076971D01*
X0124561Y0077115D01*
X0124190Y0077115D01*
X0123819Y0077115D01*
X0123092Y0076971D01*
X0122406Y0076687D01*
X0121790Y0076275D01*
X0121265Y0075750D01*
X0120853Y0075134D01*
X0120569Y0074448D01*
X0120425Y0073721D01*
X0120425Y0073350D01*
X0120425Y0072979D01*
X0120569Y0072252D01*
X0120853Y0071566D01*
X0121265Y0070950D01*
X0121790Y0070425D01*
X0122406Y0070013D01*
X0123092Y0069729D01*
X0123819Y0069585D01*
X0124190Y0069585D01*
X0124561Y0069585D01*
X0125288Y0069729D01*
X0125974Y0070013D01*
X0126590Y0070425D01*
X0127499Y0071526D02*
X0159150Y0071526D01*
X0159150Y0072724D02*
X0127905Y0072724D01*
X0127955Y0073350D02*
X0124190Y0073350D01*
X0124190Y0073350D01*
X0120425Y0073350D01*
X0124190Y0073350D01*
X0127955Y0073350D01*
X0127915Y0073923D02*
X0146602Y0073923D01*
X0145494Y0075121D02*
X0127532Y0075121D01*
X0126523Y0076320D02*
X0144998Y0076320D01*
X0147897Y0069129D02*
X0113247Y0069129D01*
X0114163Y0067930D02*
X0147299Y0067930D01*
X0147091Y0066732D02*
X0114450Y0066732D01*
X0114450Y0065533D02*
X0147190Y0065533D01*
X0147687Y0064334D02*
X0114450Y0064334D01*
X0114450Y0063136D02*
X0148832Y0063136D01*
X0153668Y0063136D02*
X0156816Y0063136D01*
X0155618Y0061937D02*
X0114450Y0061937D01*
X0114450Y0060739D02*
X0121919Y0060739D01*
X0120721Y0059540D02*
X0114450Y0059540D01*
X0114450Y0058342D02*
X0119522Y0058342D01*
X0119150Y0057143D02*
X0114450Y0057143D01*
X0114450Y0055945D02*
X0118258Y0055945D01*
X0117060Y0054746D02*
X0114450Y0054746D01*
X0114450Y0053548D02*
X0116464Y0053548D01*
X0116107Y0052349D02*
X0114450Y0052349D01*
X0114450Y0051151D02*
X0116107Y0051151D01*
X0116391Y0049952D02*
X0114450Y0049952D01*
X0114450Y0048754D02*
X0116888Y0048754D01*
X0118084Y0047555D02*
X0114450Y0047555D01*
X0114450Y0046357D02*
X0224150Y0046357D01*
X0224150Y0047555D02*
X0218893Y0047555D01*
X0218893Y0047457D02*
X0218893Y0055869D01*
X0217956Y0056806D01*
X0209544Y0056806D01*
X0208607Y0055869D01*
X0208607Y0047457D01*
X0209544Y0046520D01*
X0217956Y0046520D01*
X0218893Y0047457D01*
X0218893Y0048754D02*
X0224150Y0048754D01*
X0224150Y0049952D02*
X0218893Y0049952D01*
X0218893Y0051151D02*
X0224150Y0051151D01*
X0224150Y0052349D02*
X0218893Y0052349D01*
X0218893Y0053548D02*
X0224150Y0053548D01*
X0224150Y0054746D02*
X0218893Y0054746D01*
X0218817Y0055945D02*
X0224150Y0055945D01*
X0224150Y0057143D02*
X0124263Y0057143D01*
X0124242Y0055945D02*
X0136183Y0055945D01*
X0136107Y0055869D02*
X0137044Y0056806D01*
X0145456Y0056806D01*
X0146393Y0055869D01*
X0146393Y0047457D01*
X0145456Y0046520D01*
X0137044Y0046520D01*
X0136107Y0047457D01*
X0136107Y0055869D01*
X0136107Y0054746D02*
X0125440Y0054746D01*
X0126036Y0053548D02*
X0136107Y0053548D01*
X0136107Y0052349D02*
X0126393Y0052349D01*
X0126393Y0051151D02*
X0136107Y0051151D01*
X0136107Y0049952D02*
X0126109Y0049952D01*
X0125612Y0048754D02*
X0136107Y0048754D01*
X0136107Y0047555D02*
X0124416Y0047555D01*
X0115710Y0039166D02*
X0223346Y0039166D01*
X0224150Y0040364D02*
X0114511Y0040364D01*
X0114450Y0041563D02*
X0224150Y0041563D01*
X0224150Y0042761D02*
X0114450Y0042761D01*
X0114450Y0043960D02*
X0224150Y0043960D01*
X0224150Y0045158D02*
X0114450Y0045158D01*
X0108050Y0045158D02*
X0060850Y0045158D01*
X0061860Y0043960D02*
X0108050Y0043960D01*
X0108050Y0042761D02*
X0063059Y0042761D01*
X0064257Y0041563D02*
X0108050Y0041563D01*
X0108050Y0040364D02*
X0065456Y0040364D01*
X0066654Y0039166D02*
X0108050Y0039166D01*
X0108256Y0037967D02*
X0067853Y0037967D01*
X0069051Y0036769D02*
X0109056Y0036769D01*
X0110254Y0035570D02*
X0070250Y0035570D01*
X0071448Y0034372D02*
X0111453Y0034372D01*
X0112651Y0033173D02*
X0072647Y0033173D01*
X0073845Y0031975D02*
X0113050Y0031975D01*
X0113050Y0030776D02*
X0108579Y0030776D01*
X0108940Y0030627D02*
X0107195Y0031350D01*
X0105305Y0031350D01*
X0103560Y0030627D01*
X0102223Y0029290D01*
X0101500Y0027545D01*
X0101500Y0025655D01*
X0102223Y0023910D01*
X0103560Y0022573D01*
X0105305Y0021850D01*
X0107195Y0021850D01*
X0108940Y0022573D01*
X0110277Y0023910D01*
X0111000Y0025655D01*
X0111000Y0027545D01*
X0110277Y0029290D01*
X0108940Y0030627D01*
X0109989Y0029578D02*
X0112511Y0029578D01*
X0111846Y0028379D02*
X0110654Y0028379D01*
X0111000Y0027181D02*
X0111500Y0027181D01*
X0111500Y0025982D02*
X0111000Y0025982D01*
X0110639Y0024784D02*
X0111861Y0024784D01*
X0112548Y0023585D02*
X0109952Y0023585D01*
X0108489Y0022387D02*
X0114011Y0022387D01*
X0114915Y0021188D02*
X0107585Y0021188D01*
X0109577Y0019990D02*
X0112923Y0019990D01*
X0113560Y0020627D02*
X0112223Y0019290D01*
X0111500Y0017545D01*
X0111500Y0015655D01*
X0112223Y0013910D01*
X0113560Y0012573D01*
X0115305Y0011850D01*
X0117195Y0011850D01*
X0118940Y0012573D01*
X0120277Y0013910D01*
X0121000Y0015655D01*
X0121000Y0017545D01*
X0120277Y0019290D01*
X0118940Y0020627D01*
X0117195Y0021350D01*
X0115305Y0021350D01*
X0113560Y0020627D01*
X0112017Y0018791D02*
X0110483Y0018791D01*
X0110980Y0017593D02*
X0111520Y0017593D01*
X0111500Y0016394D02*
X0111000Y0016394D01*
X0110809Y0015196D02*
X0111691Y0015196D01*
X0112187Y0013997D02*
X0110313Y0013997D01*
X0109165Y0012799D02*
X0113335Y0012799D01*
X0119165Y0012799D02*
X0123335Y0012799D01*
X0123560Y0012573D02*
X0125305Y0011850D01*
X0127195Y0011850D01*
X0128940Y0012573D01*
X0130277Y0013910D01*
X0131000Y0015655D01*
X0131000Y0017545D01*
X0130277Y0019290D01*
X0128940Y0020627D01*
X0127195Y0021350D01*
X0125305Y0021350D01*
X0123560Y0020627D01*
X0122223Y0019290D01*
X0121500Y0017545D01*
X0121500Y0015655D01*
X0122223Y0013910D01*
X0123560Y0012573D01*
X0122187Y0013997D02*
X0120313Y0013997D01*
X0120809Y0015196D02*
X0121691Y0015196D01*
X0121500Y0016394D02*
X0121000Y0016394D01*
X0120980Y0017593D02*
X0121520Y0017593D01*
X0122017Y0018791D02*
X0120483Y0018791D01*
X0119577Y0019990D02*
X0122923Y0019990D01*
X0124915Y0021188D02*
X0117585Y0021188D01*
X0118489Y0022387D02*
X0124057Y0022387D01*
X0123761Y0022538D02*
X0124427Y0022198D01*
X0125138Y0021967D01*
X0125876Y0021850D01*
X0125964Y0021850D01*
X0125964Y0026314D01*
X0126536Y0026314D01*
X0126536Y0026886D01*
X0131000Y0026886D01*
X0131000Y0026974D01*
X0130883Y0027712D01*
X0130652Y0028423D01*
X0130312Y0029089D01*
X0129873Y0029694D01*
X0129344Y0030223D01*
X0128739Y0030662D01*
X0128073Y0031002D01*
X0127362Y0031233D01*
X0126624Y0031350D01*
X0126536Y0031350D01*
X0126536Y0026886D01*
X0125964Y0026886D01*
X0125964Y0031350D01*
X0125876Y0031350D01*
X0125138Y0031233D01*
X0124427Y0031002D01*
X0123761Y0030662D01*
X0123156Y0030223D01*
X0122627Y0029694D01*
X0122188Y0029089D01*
X0121848Y0028423D01*
X0121617Y0027712D01*
X0121500Y0026974D01*
X0121500Y0026886D01*
X0125964Y0026886D01*
X0125964Y0026314D01*
X0121500Y0026314D01*
X0121500Y0026226D01*
X0121617Y0025488D01*
X0121848Y0024777D01*
X0122188Y0024111D01*
X0122627Y0023506D01*
X0123156Y0022977D01*
X0123761Y0022538D01*
X0122570Y0023585D02*
X0119952Y0023585D01*
X0120639Y0024784D02*
X0121846Y0024784D01*
X0121539Y0025982D02*
X0121000Y0025982D01*
X0121000Y0027181D02*
X0121533Y0027181D01*
X0121834Y0028379D02*
X0120654Y0028379D01*
X0119989Y0029578D02*
X0122543Y0029578D01*
X0123984Y0030776D02*
X0119450Y0030776D01*
X0119450Y0031975D02*
X0216155Y0031975D01*
X0217353Y0033173D02*
X0119450Y0033173D01*
X0119450Y0034372D02*
X0218552Y0034372D01*
X0219750Y0035570D02*
X0119105Y0035570D01*
X0118107Y0036769D02*
X0220949Y0036769D01*
X0222147Y0037967D02*
X0116908Y0037967D01*
X0125964Y0030776D02*
X0126536Y0030776D01*
X0126536Y0029578D02*
X0125964Y0029578D01*
X0125964Y0028379D02*
X0126536Y0028379D01*
X0126536Y0027181D02*
X0125964Y0027181D01*
X0126536Y0026314D02*
X0131000Y0026314D01*
X0131000Y0026226D01*
X0130883Y0025488D01*
X0130652Y0024777D01*
X0130312Y0024111D01*
X0129873Y0023506D01*
X0129344Y0022977D01*
X0128739Y0022538D01*
X0128073Y0022198D01*
X0127362Y0021967D01*
X0126624Y0021850D01*
X0126536Y0021850D01*
X0126536Y0026314D01*
X0126536Y0025982D02*
X0125964Y0025982D01*
X0125964Y0024784D02*
X0126536Y0024784D01*
X0126536Y0023585D02*
X0125964Y0023585D01*
X0125964Y0022387D02*
X0126536Y0022387D01*
X0127585Y0021188D02*
X0134915Y0021188D01*
X0135305Y0021850D02*
X0137195Y0021850D01*
X0138940Y0022573D01*
X0140277Y0023910D01*
X0141000Y0025655D01*
X0141000Y0027545D01*
X0140277Y0029290D01*
X0138940Y0030627D01*
X0137195Y0031350D01*
X0135305Y0031350D01*
X0133560Y0030627D01*
X0132223Y0029290D01*
X0131500Y0027545D01*
X0131500Y0025655D01*
X0132223Y0023910D01*
X0133560Y0022573D01*
X0135305Y0021850D01*
X0134011Y0022387D02*
X0128443Y0022387D01*
X0129930Y0023585D02*
X0132548Y0023585D01*
X0131861Y0024784D02*
X0130654Y0024784D01*
X0130961Y0025982D02*
X0131500Y0025982D01*
X0131500Y0027181D02*
X0130967Y0027181D01*
X0130666Y0028379D02*
X0131846Y0028379D01*
X0132511Y0029578D02*
X0129957Y0029578D01*
X0128516Y0030776D02*
X0133921Y0030776D01*
X0138579Y0030776D02*
X0214956Y0030776D01*
X0213758Y0029578D02*
X0139989Y0029578D01*
X0140654Y0028379D02*
X0212559Y0028379D01*
X0211361Y0027181D02*
X0141000Y0027181D01*
X0141000Y0025982D02*
X0210162Y0025982D01*
X0208964Y0024784D02*
X0140639Y0024784D01*
X0139952Y0023585D02*
X0207765Y0023585D01*
X0206567Y0022387D02*
X0138489Y0022387D01*
X0137585Y0021188D02*
X0205368Y0021188D01*
X0204170Y0019990D02*
X0139577Y0019990D01*
X0140483Y0018791D02*
X0202971Y0018791D01*
X0194773Y0046520D02*
X0192727Y0046520D01*
X0190837Y0047303D01*
X0189390Y0048750D01*
X0188607Y0050640D01*
X0188607Y0052686D01*
X0189390Y0054576D01*
X0190837Y0056023D01*
X0192727Y0056806D01*
X0194773Y0056806D01*
X0196663Y0056023D01*
X0198110Y0054576D01*
X0198893Y0052686D01*
X0198893Y0050640D01*
X0198110Y0048750D01*
X0196663Y0047303D01*
X0194773Y0046520D01*
X0196916Y0047555D02*
X0208607Y0047555D01*
X0208607Y0048754D02*
X0198112Y0048754D01*
X0198609Y0049952D02*
X0208607Y0049952D01*
X0208607Y0051151D02*
X0198893Y0051151D01*
X0198893Y0052349D02*
X0208607Y0052349D01*
X0208607Y0053548D02*
X0198536Y0053548D01*
X0197940Y0054746D02*
X0208607Y0054746D01*
X0208683Y0055945D02*
X0196742Y0055945D01*
X0193606Y0060574D02*
X0194776Y0061744D01*
X0195409Y0063273D01*
X0195409Y0064927D01*
X0194776Y0066456D01*
X0193606Y0067626D01*
X0192077Y0068259D01*
X0190423Y0068259D01*
X0188894Y0067626D01*
X0187724Y0066456D01*
X0187091Y0064927D01*
X0187091Y0063273D01*
X0187724Y0061744D01*
X0188894Y0060574D01*
X0190423Y0059941D01*
X0192077Y0059941D01*
X0193606Y0060574D01*
X0193771Y0060739D02*
X0208729Y0060739D01*
X0208894Y0060574D02*
X0210423Y0059941D01*
X0212077Y0059941D01*
X0213606Y0060574D01*
X0214776Y0061744D01*
X0215409Y0063273D01*
X0215409Y0064927D01*
X0214776Y0066456D01*
X0213606Y0067626D01*
X0212077Y0068259D01*
X0210423Y0068259D01*
X0208894Y0067626D01*
X0207724Y0066456D01*
X0207091Y0064927D01*
X0207091Y0063273D01*
X0207724Y0061744D01*
X0208894Y0060574D01*
X0207644Y0061937D02*
X0194856Y0061937D01*
X0195352Y0063136D02*
X0207148Y0063136D01*
X0207091Y0064334D02*
X0195409Y0064334D01*
X0195158Y0065533D02*
X0207342Y0065533D01*
X0208000Y0066732D02*
X0194500Y0066732D01*
X0192872Y0067930D02*
X0209628Y0067930D01*
X0212872Y0067930D02*
X0224150Y0067930D01*
X0224150Y0066732D02*
X0214500Y0066732D01*
X0215158Y0065533D02*
X0224150Y0065533D01*
X0224150Y0064334D02*
X0215409Y0064334D01*
X0215352Y0063136D02*
X0224150Y0063136D01*
X0224150Y0061937D02*
X0214856Y0061937D01*
X0213771Y0060739D02*
X0224150Y0060739D01*
X0224150Y0059540D02*
X0159160Y0059540D01*
X0157962Y0058342D02*
X0224150Y0058342D01*
X0224150Y0069129D02*
X0174603Y0069129D01*
X0174776Y0068956D02*
X0173606Y0070126D01*
X0172077Y0070759D01*
X0170423Y0070759D01*
X0168894Y0070126D01*
X0167724Y0068956D01*
X0167091Y0067427D01*
X0167091Y0065773D01*
X0167724Y0064244D01*
X0168894Y0063074D01*
X0170423Y0062441D01*
X0172077Y0062441D01*
X0173606Y0063074D01*
X0174776Y0064244D01*
X0175409Y0065773D01*
X0175409Y0067427D01*
X0174776Y0068956D01*
X0175201Y0067930D02*
X0189628Y0067930D01*
X0188000Y0066732D02*
X0175409Y0066732D01*
X0175310Y0065533D02*
X0187342Y0065533D01*
X0187091Y0064334D02*
X0174813Y0064334D01*
X0173668Y0063136D02*
X0187148Y0063136D01*
X0187644Y0061937D02*
X0161557Y0061937D01*
X0160359Y0060739D02*
X0188729Y0060739D01*
X0190758Y0055945D02*
X0176742Y0055945D01*
X0176663Y0056023D02*
X0174773Y0056806D01*
X0172727Y0056806D01*
X0170837Y0056023D01*
X0169390Y0054576D01*
X0168607Y0052686D01*
X0168607Y0050640D01*
X0169390Y0048750D01*
X0170837Y0047303D01*
X0172727Y0046520D01*
X0174773Y0046520D01*
X0176663Y0047303D01*
X0178110Y0048750D01*
X0178893Y0050640D01*
X0178893Y0052686D01*
X0178110Y0054576D01*
X0176663Y0056023D01*
X0177940Y0054746D02*
X0189560Y0054746D01*
X0188964Y0053548D02*
X0178536Y0053548D01*
X0178893Y0052349D02*
X0188607Y0052349D01*
X0188607Y0051151D02*
X0178893Y0051151D01*
X0178609Y0049952D02*
X0188891Y0049952D01*
X0189388Y0048754D02*
X0178112Y0048754D01*
X0176916Y0047555D02*
X0190584Y0047555D01*
X0173120Y0070327D02*
X0224150Y0070327D01*
X0224150Y0071526D02*
X0163350Y0071526D01*
X0163350Y0072724D02*
X0187239Y0072724D01*
X0187923Y0072441D02*
X0186394Y0073074D01*
X0185224Y0074244D01*
X0184591Y0075773D01*
X0184591Y0077427D01*
X0185224Y0078956D01*
X0186394Y0080126D01*
X0187923Y0080759D01*
X0189577Y0080759D01*
X0191106Y0080126D01*
X0192276Y0078956D01*
X0192909Y0077427D01*
X0192909Y0075773D01*
X0192276Y0074244D01*
X0191106Y0073074D01*
X0189577Y0072441D01*
X0187923Y0072441D01*
X0190261Y0072724D02*
X0207239Y0072724D01*
X0207923Y0072441D02*
X0209577Y0072441D01*
X0211106Y0073074D01*
X0212276Y0074244D01*
X0212909Y0075773D01*
X0212909Y0077427D01*
X0212276Y0078956D01*
X0211106Y0080126D01*
X0209577Y0080759D01*
X0207923Y0080759D01*
X0206394Y0080126D01*
X0205224Y0078956D01*
X0204591Y0077427D01*
X0204591Y0075773D01*
X0205224Y0074244D01*
X0206394Y0073074D01*
X0207923Y0072441D01*
X0210261Y0072724D02*
X0224150Y0072724D01*
X0224150Y0073923D02*
X0221398Y0073923D01*
X0220883Y0073408D02*
X0221942Y0074467D01*
X0222515Y0075851D01*
X0222515Y0077349D01*
X0221942Y0078733D01*
X0220883Y0079792D01*
X0219499Y0080365D01*
X0218001Y0080365D01*
X0216617Y0079792D01*
X0215558Y0078733D01*
X0214985Y0077349D01*
X0214985Y0075851D01*
X0215558Y0074467D01*
X0216617Y0073408D01*
X0218001Y0072835D01*
X0219499Y0072835D01*
X0220883Y0073408D01*
X0222213Y0075121D02*
X0224150Y0075121D01*
X0224150Y0076320D02*
X0222515Y0076320D01*
X0222445Y0077518D02*
X0224150Y0077518D01*
X0224150Y0078717D02*
X0221949Y0078717D01*
X0220586Y0079915D02*
X0224150Y0079915D01*
X0224150Y0081114D02*
X0163350Y0081114D01*
X0163350Y0082312D02*
X0224150Y0082312D01*
X0224150Y0083511D02*
X0181236Y0083511D01*
X0180883Y0083158D02*
X0181942Y0084217D01*
X0182515Y0085601D01*
X0182515Y0087099D01*
X0181942Y0088483D01*
X0180883Y0089542D01*
X0179499Y0090115D01*
X0178001Y0090115D01*
X0176617Y0089542D01*
X0175558Y0088483D01*
X0174985Y0087099D01*
X0174985Y0085601D01*
X0175558Y0084217D01*
X0176617Y0083158D01*
X0178001Y0082585D01*
X0179499Y0082585D01*
X0180883Y0083158D01*
X0182146Y0084709D02*
X0224150Y0084709D01*
X0224150Y0085908D02*
X0182515Y0085908D01*
X0182512Y0087106D02*
X0224150Y0087106D01*
X0224150Y0088305D02*
X0182016Y0088305D01*
X0180922Y0089503D02*
X0224150Y0089503D01*
X0224150Y0090702D02*
X0163350Y0090702D01*
X0163350Y0091900D02*
X0177843Y0091900D01*
X0178001Y0091835D02*
X0176617Y0092408D01*
X0175558Y0093467D01*
X0174985Y0094851D01*
X0174985Y0096349D01*
X0175558Y0097733D01*
X0176617Y0098792D01*
X0178001Y0099365D01*
X0179499Y0099365D01*
X0180883Y0098792D01*
X0181942Y0097733D01*
X0182515Y0096349D01*
X0182515Y0094851D01*
X0181942Y0093467D01*
X0180883Y0092408D01*
X0179499Y0091835D01*
X0178001Y0091835D01*
X0179657Y0091900D02*
X0224150Y0091900D01*
X0224150Y0093099D02*
X0211131Y0093099D01*
X0211106Y0093074D02*
X0212276Y0094244D01*
X0212909Y0095773D01*
X0212909Y0097427D01*
X0212276Y0098956D01*
X0211106Y0100126D01*
X0209577Y0100759D01*
X0207923Y0100759D01*
X0206394Y0100126D01*
X0205224Y0098956D01*
X0204591Y0097427D01*
X0204591Y0095773D01*
X0205224Y0094244D01*
X0206394Y0093074D01*
X0207923Y0092441D01*
X0209577Y0092441D01*
X0211106Y0093074D01*
X0212298Y0094297D02*
X0224150Y0094297D01*
X0224150Y0095496D02*
X0212794Y0095496D01*
X0212909Y0096694D02*
X0224150Y0096694D01*
X0224150Y0097893D02*
X0212716Y0097893D01*
X0212140Y0099091D02*
X0224150Y0099091D01*
X0224150Y0100290D02*
X0210710Y0100290D01*
X0206790Y0100290D02*
X0190710Y0100290D01*
X0191106Y0100126D02*
X0189577Y0100759D01*
X0187923Y0100759D01*
X0186394Y0100126D01*
X0185224Y0098956D01*
X0184591Y0097427D01*
X0184591Y0095773D01*
X0185224Y0094244D01*
X0186394Y0093074D01*
X0187923Y0092441D01*
X0189577Y0092441D01*
X0191106Y0093074D01*
X0192276Y0094244D01*
X0192909Y0095773D01*
X0192909Y0097427D01*
X0192276Y0098956D01*
X0191106Y0100126D01*
X0192140Y0099091D02*
X0205360Y0099091D01*
X0204784Y0097893D02*
X0192716Y0097893D01*
X0192909Y0096694D02*
X0204591Y0096694D01*
X0204706Y0095496D02*
X0192794Y0095496D01*
X0192298Y0094297D02*
X0205202Y0094297D01*
X0206369Y0093099D02*
X0191131Y0093099D01*
X0186369Y0093099D02*
X0181574Y0093099D01*
X0182286Y0094297D02*
X0185202Y0094297D01*
X0184706Y0095496D02*
X0182515Y0095496D01*
X0182372Y0096694D02*
X0184591Y0096694D01*
X0184784Y0097893D02*
X0181782Y0097893D01*
X0180161Y0099091D02*
X0185360Y0099091D01*
X0186790Y0100290D02*
X0163350Y0100290D01*
X0163350Y0101488D02*
X0167808Y0101488D01*
X0167923Y0101441D02*
X0169577Y0101441D01*
X0171106Y0102074D01*
X0172276Y0103244D01*
X0172909Y0104773D01*
X0172909Y0106427D01*
X0172276Y0107956D01*
X0171106Y0109126D01*
X0169577Y0109759D01*
X0167923Y0109759D01*
X0166394Y0109126D01*
X0165224Y0107956D01*
X0164591Y0106427D01*
X0164591Y0104773D01*
X0165224Y0103244D01*
X0166394Y0102074D01*
X0167923Y0101441D01*
X0169692Y0101488D02*
X0224150Y0101488D01*
X0224150Y0102687D02*
X0171719Y0102687D01*
X0172541Y0103885D02*
X0196140Y0103885D01*
X0196617Y0103408D02*
X0198001Y0102835D01*
X0199499Y0102835D01*
X0200883Y0103408D01*
X0201942Y0104467D01*
X0202515Y0105851D01*
X0202515Y0107349D01*
X0201942Y0108733D01*
X0200883Y0109792D01*
X0199499Y0110365D01*
X0198001Y0110365D01*
X0196617Y0109792D01*
X0195558Y0108733D01*
X0194985Y0107349D01*
X0194985Y0105851D01*
X0195558Y0104467D01*
X0196617Y0103408D01*
X0195302Y0105084D02*
X0172909Y0105084D01*
X0172909Y0106282D02*
X0194985Y0106282D01*
X0195039Y0107481D02*
X0172473Y0107481D01*
X0171552Y0108679D02*
X0195536Y0108679D01*
X0196824Y0109878D02*
X0166748Y0109878D01*
X0165948Y0108679D02*
X0165549Y0108679D01*
X0165027Y0107481D02*
X0164351Y0107481D01*
X0164591Y0106282D02*
X0163350Y0106282D01*
X0163350Y0105084D02*
X0164591Y0105084D01*
X0164958Y0103885D02*
X0163350Y0103885D01*
X0163350Y0102687D02*
X0165781Y0102687D01*
X0163350Y0099091D02*
X0177339Y0099091D01*
X0175718Y0097893D02*
X0163350Y0097893D01*
X0163350Y0096694D02*
X0175128Y0096694D01*
X0174985Y0095496D02*
X0163350Y0095496D01*
X0163350Y0094297D02*
X0175214Y0094297D01*
X0175926Y0093099D02*
X0163350Y0093099D01*
X0163350Y0089503D02*
X0176578Y0089503D01*
X0175484Y0088305D02*
X0163350Y0088305D01*
X0163350Y0087106D02*
X0174988Y0087106D01*
X0174985Y0085908D02*
X0163350Y0085908D01*
X0163350Y0084709D02*
X0175354Y0084709D01*
X0176264Y0083511D02*
X0163350Y0083511D01*
X0163350Y0079915D02*
X0176240Y0079915D01*
X0176617Y0080292D02*
X0175558Y0079233D01*
X0174985Y0077849D01*
X0174985Y0076351D01*
X0175558Y0074967D01*
X0176617Y0073908D01*
X0178001Y0073335D01*
X0179499Y0073335D01*
X0180883Y0073908D01*
X0181942Y0074967D01*
X0182515Y0076351D01*
X0182515Y0077849D01*
X0181942Y0079233D01*
X0180883Y0080292D01*
X0179499Y0080865D01*
X0178001Y0080865D01*
X0176617Y0080292D01*
X0175344Y0078717D02*
X0163350Y0078717D01*
X0163350Y0077518D02*
X0174985Y0077518D01*
X0174998Y0076320D02*
X0163350Y0076320D01*
X0163350Y0075121D02*
X0175494Y0075121D01*
X0176602Y0073923D02*
X0163350Y0073923D01*
X0163350Y0070327D02*
X0169380Y0070327D01*
X0167897Y0069129D02*
X0163350Y0069129D01*
X0163350Y0067930D02*
X0167299Y0067930D01*
X0167091Y0066732D02*
X0163350Y0066732D01*
X0163350Y0065533D02*
X0167190Y0065533D01*
X0167687Y0064334D02*
X0163350Y0064334D01*
X0162756Y0063136D02*
X0168832Y0063136D01*
X0170758Y0055945D02*
X0146317Y0055945D01*
X0146393Y0054746D02*
X0169560Y0054746D01*
X0168964Y0053548D02*
X0146393Y0053548D01*
X0146393Y0052349D02*
X0168607Y0052349D01*
X0168607Y0051151D02*
X0146393Y0051151D01*
X0146393Y0049952D02*
X0168891Y0049952D01*
X0169388Y0048754D02*
X0146393Y0048754D01*
X0146393Y0047555D02*
X0170584Y0047555D01*
X0158015Y0064334D02*
X0154813Y0064334D01*
X0155310Y0065533D02*
X0159150Y0065533D01*
X0159150Y0066732D02*
X0155409Y0066732D01*
X0155201Y0067930D02*
X0159150Y0067930D01*
X0159150Y0069129D02*
X0154603Y0069129D01*
X0153120Y0070327D02*
X0159150Y0070327D01*
X0180898Y0073923D02*
X0185546Y0073923D01*
X0184861Y0075121D02*
X0182006Y0075121D01*
X0182502Y0076320D02*
X0184591Y0076320D01*
X0184629Y0077518D02*
X0182515Y0077518D01*
X0182156Y0078717D02*
X0185125Y0078717D01*
X0186183Y0079915D02*
X0181260Y0079915D01*
X0191317Y0079915D02*
X0196914Y0079915D01*
X0196617Y0079792D02*
X0195558Y0078733D01*
X0194985Y0077349D01*
X0194985Y0075851D01*
X0195558Y0074467D01*
X0196617Y0073408D01*
X0198001Y0072835D01*
X0199499Y0072835D01*
X0200883Y0073408D01*
X0201942Y0074467D01*
X0202515Y0075851D01*
X0202515Y0077349D01*
X0201942Y0078733D01*
X0200883Y0079792D01*
X0199499Y0080365D01*
X0198001Y0080365D01*
X0196617Y0079792D01*
X0195551Y0078717D02*
X0192375Y0078717D01*
X0192871Y0077518D02*
X0195055Y0077518D01*
X0194985Y0076320D02*
X0192909Y0076320D01*
X0192639Y0075121D02*
X0195287Y0075121D01*
X0196102Y0073923D02*
X0191954Y0073923D01*
X0201398Y0073923D02*
X0205546Y0073923D01*
X0204861Y0075121D02*
X0202213Y0075121D01*
X0202515Y0076320D02*
X0204591Y0076320D01*
X0204629Y0077518D02*
X0202445Y0077518D01*
X0201949Y0078717D02*
X0205125Y0078717D01*
X0206183Y0079915D02*
X0200586Y0079915D01*
X0211317Y0079915D02*
X0216914Y0079915D01*
X0215551Y0078717D02*
X0212375Y0078717D01*
X0212871Y0077518D02*
X0215055Y0077518D01*
X0214985Y0076320D02*
X0212909Y0076320D01*
X0212639Y0075121D02*
X0215287Y0075121D01*
X0216102Y0073923D02*
X0211954Y0073923D01*
X0218001Y0102835D02*
X0219499Y0102835D01*
X0220883Y0103408D01*
X0221942Y0104467D01*
X0222515Y0105851D01*
X0222515Y0107349D01*
X0221942Y0108733D01*
X0220883Y0109792D01*
X0219499Y0110365D01*
X0218001Y0110365D01*
X0216617Y0109792D01*
X0215558Y0108733D01*
X0214985Y0107349D01*
X0214985Y0105851D01*
X0215558Y0104467D01*
X0216617Y0103408D01*
X0218001Y0102835D01*
X0216140Y0103885D02*
X0201360Y0103885D01*
X0202198Y0105084D02*
X0215302Y0105084D01*
X0214985Y0106282D02*
X0202515Y0106282D01*
X0202461Y0107481D02*
X0215039Y0107481D01*
X0215536Y0108679D02*
X0201964Y0108679D01*
X0200676Y0109878D02*
X0216824Y0109878D01*
X0217923Y0112441D02*
X0219577Y0112441D01*
X0221106Y0113074D01*
X0222276Y0114244D01*
X0222909Y0115773D01*
X0222909Y0117427D01*
X0222276Y0118956D01*
X0221106Y0120126D01*
X0219577Y0120759D01*
X0217923Y0120759D01*
X0216394Y0120126D01*
X0215224Y0118956D01*
X0214591Y0117427D01*
X0214591Y0115773D01*
X0215224Y0114244D01*
X0216394Y0113074D01*
X0217923Y0112441D01*
X0215995Y0113473D02*
X0201505Y0113473D01*
X0201106Y0113074D02*
X0202276Y0114244D01*
X0202909Y0115773D01*
X0202909Y0117427D01*
X0202276Y0118956D01*
X0201106Y0120126D01*
X0199577Y0120759D01*
X0197923Y0120759D01*
X0196394Y0120126D01*
X0195224Y0118956D01*
X0194591Y0117427D01*
X0194591Y0115773D01*
X0195224Y0114244D01*
X0196394Y0113074D01*
X0197923Y0112441D01*
X0199577Y0112441D01*
X0201106Y0113074D01*
X0202453Y0114672D02*
X0215047Y0114672D01*
X0214591Y0115870D02*
X0202909Y0115870D01*
X0202909Y0117069D02*
X0214591Y0117069D01*
X0214939Y0118268D02*
X0202561Y0118268D01*
X0201766Y0119466D02*
X0215734Y0119466D01*
X0217695Y0120665D02*
X0199805Y0120665D01*
X0197695Y0120665D02*
X0129835Y0120665D01*
X0130015Y0121101D02*
X0129442Y0119717D01*
X0128383Y0118658D01*
X0126999Y0118085D01*
X0125501Y0118085D01*
X0124117Y0118658D01*
X0123058Y0119717D01*
X0122485Y0121101D01*
X0122485Y0122599D01*
X0123058Y0123983D01*
X0124117Y0125042D01*
X0125501Y0125615D01*
X0126999Y0125615D01*
X0128383Y0125042D01*
X0129442Y0123983D01*
X0130015Y0122599D01*
X0130015Y0121101D01*
X0130015Y0121863D02*
X0224150Y0121863D01*
X0224150Y0120665D02*
X0219805Y0120665D01*
X0219499Y0122835D02*
X0220883Y0123408D01*
X0221942Y0124467D01*
X0222515Y0125851D01*
X0222515Y0127349D01*
X0221942Y0128733D01*
X0220883Y0129792D01*
X0219499Y0130365D01*
X0218001Y0130365D01*
X0216617Y0129792D01*
X0215558Y0128733D01*
X0214985Y0127349D01*
X0214985Y0125851D01*
X0215558Y0124467D01*
X0216617Y0123408D01*
X0218001Y0122835D01*
X0219499Y0122835D01*
X0220047Y0123062D02*
X0224150Y0123062D01*
X0224150Y0124260D02*
X0221735Y0124260D01*
X0222353Y0125459D02*
X0224150Y0125459D01*
X0224150Y0126657D02*
X0222515Y0126657D01*
X0222305Y0127856D02*
X0224150Y0127856D01*
X0224150Y0129054D02*
X0221621Y0129054D01*
X0219771Y0130253D02*
X0224150Y0130253D01*
X0224150Y0131451D02*
X0111950Y0131451D01*
X0111950Y0130253D02*
X0114200Y0130253D01*
X0113894Y0130126D02*
X0112724Y0128956D01*
X0112091Y0127427D01*
X0112091Y0125773D01*
X0112724Y0124244D01*
X0113894Y0123074D01*
X0115423Y0122441D01*
X0117077Y0122441D01*
X0118606Y0123074D01*
X0119776Y0124244D01*
X0120409Y0125773D01*
X0120409Y0127427D01*
X0119776Y0128956D01*
X0118606Y0130126D01*
X0117077Y0130759D01*
X0115423Y0130759D01*
X0113894Y0130126D01*
X0112822Y0129054D02*
X0111950Y0129054D01*
X0111950Y0127856D02*
X0112268Y0127856D01*
X0112091Y0126657D02*
X0111950Y0126657D01*
X0111950Y0125459D02*
X0112221Y0125459D01*
X0111950Y0124260D02*
X0112717Y0124260D01*
X0111950Y0123062D02*
X0113924Y0123062D01*
X0111950Y0121863D02*
X0122485Y0121863D01*
X0122665Y0120665D02*
X0111950Y0120665D01*
X0111950Y0119466D02*
X0123309Y0119466D01*
X0125060Y0118268D02*
X0111950Y0118268D01*
X0111950Y0117069D02*
X0113916Y0117069D01*
X0113850Y0117025D02*
X0113325Y0116500D01*
X0112913Y0115884D01*
X0112629Y0115198D01*
X0112485Y0114471D01*
X0112485Y0114100D01*
X0112485Y0113729D01*
X0112629Y0113002D01*
X0112913Y0112316D01*
X0113325Y0111700D01*
X0113850Y0111175D01*
X0114466Y0110763D01*
X0115152Y0110479D01*
X0115879Y0110335D01*
X0116250Y0110335D01*
X0116621Y0110335D01*
X0117348Y0110479D01*
X0118034Y0110763D01*
X0118650Y0111175D01*
X0119175Y0111700D01*
X0119587Y0112316D01*
X0119871Y0113002D01*
X0120015Y0113729D01*
X0120015Y0114100D01*
X0120015Y0114471D01*
X0119871Y0115198D01*
X0119587Y0115884D01*
X0119175Y0116500D01*
X0118650Y0117025D01*
X0118034Y0117437D01*
X0117348Y0117721D01*
X0116621Y0117865D01*
X0116250Y0117865D01*
X0115879Y0117865D01*
X0115152Y0117721D01*
X0114466Y0117437D01*
X0113850Y0117025D01*
X0112908Y0115870D02*
X0111950Y0115870D01*
X0111950Y0114672D02*
X0112525Y0114672D01*
X0112485Y0114100D02*
X0116250Y0114100D01*
X0116250Y0114100D01*
X0116250Y0117865D01*
X0116250Y0114100D01*
X0120015Y0114100D01*
X0116250Y0114100D01*
X0116250Y0114100D01*
X0116250Y0114100D01*
X0116250Y0110335D01*
X0116250Y0114100D01*
X0116250Y0114100D01*
X0112485Y0114100D01*
X0112535Y0113473D02*
X0111950Y0113473D01*
X0111950Y0112275D02*
X0112941Y0112275D01*
X0111950Y0111076D02*
X0113998Y0111076D01*
X0116250Y0111076D02*
X0116250Y0111076D01*
X0116250Y0112275D02*
X0116250Y0112275D01*
X0116250Y0113473D02*
X0116250Y0113473D01*
X0116250Y0114672D02*
X0116250Y0114672D01*
X0116250Y0115870D02*
X0116250Y0115870D01*
X0116250Y0117069D02*
X0116250Y0117069D01*
X0118584Y0117069D02*
X0123894Y0117069D01*
X0122908Y0115870D02*
X0119592Y0115870D01*
X0119975Y0114672D02*
X0122485Y0114672D01*
X0122485Y0113473D02*
X0119964Y0113473D01*
X0119559Y0112275D02*
X0122930Y0112275D01*
X0123949Y0111076D02*
X0118502Y0111076D01*
X0111950Y0109878D02*
X0160808Y0109878D01*
X0161525Y0111076D02*
X0162007Y0111076D01*
X0162432Y0112275D02*
X0163205Y0112275D01*
X0162850Y0113473D02*
X0164404Y0113473D01*
X0164650Y0114672D02*
X0162850Y0114672D01*
X0162454Y0115870D02*
X0165046Y0115870D01*
X0165921Y0117069D02*
X0161579Y0117069D01*
X0171579Y0117069D02*
X0175921Y0117069D01*
X0176079Y0117227D02*
X0175623Y0116771D01*
X0175243Y0116249D01*
X0174950Y0115674D01*
X0174751Y0115060D01*
X0174650Y0114423D01*
X0174650Y0114300D01*
X0178550Y0114300D01*
X0178550Y0118200D01*
X0178427Y0118200D01*
X0177790Y0118099D01*
X0177176Y0117900D01*
X0176601Y0117607D01*
X0176079Y0117227D01*
X0175051Y0115870D02*
X0172454Y0115870D01*
X0172850Y0114672D02*
X0174689Y0114672D01*
X0174650Y0113900D02*
X0174650Y0113777D01*
X0174751Y0113140D01*
X0174950Y0112526D01*
X0175243Y0111951D01*
X0175623Y0111429D01*
X0176079Y0110973D01*
X0176601Y0110593D01*
X0177176Y0110300D01*
X0177790Y0110101D01*
X0178427Y0110000D01*
X0178550Y0110000D01*
X0178550Y0113900D01*
X0174650Y0113900D01*
X0174698Y0113473D02*
X0172850Y0113473D01*
X0172432Y0112275D02*
X0175078Y0112275D01*
X0175975Y0111076D02*
X0171525Y0111076D01*
X0178550Y0111076D02*
X0178950Y0111076D01*
X0178950Y0110000D02*
X0179073Y0110000D01*
X0179710Y0110101D01*
X0180324Y0110300D01*
X0180899Y0110593D01*
X0181421Y0110973D01*
X0181877Y0111429D01*
X0182257Y0111951D01*
X0182550Y0112526D01*
X0182749Y0113140D01*
X0182850Y0113777D01*
X0182850Y0113900D01*
X0178950Y0113900D01*
X0178950Y0114300D01*
X0178550Y0114300D01*
X0178550Y0113900D01*
X0178950Y0113900D01*
X0178950Y0110000D01*
X0178950Y0112275D02*
X0178550Y0112275D01*
X0178550Y0113473D02*
X0178950Y0113473D01*
X0178950Y0114300D02*
X0182850Y0114300D01*
X0182850Y0114423D01*
X0182749Y0115060D01*
X0182550Y0115674D01*
X0182257Y0116249D01*
X0181877Y0116771D01*
X0181421Y0117227D01*
X0180899Y0117607D01*
X0180324Y0117900D01*
X0179710Y0118099D01*
X0179073Y0118200D01*
X0178950Y0118200D01*
X0178950Y0114300D01*
X0178950Y0114672D02*
X0178550Y0114672D01*
X0178550Y0115870D02*
X0178950Y0115870D01*
X0178950Y0117069D02*
X0178550Y0117069D01*
X0181579Y0117069D02*
X0194591Y0117069D01*
X0194591Y0115870D02*
X0182449Y0115870D01*
X0182811Y0114672D02*
X0195047Y0114672D01*
X0195995Y0113473D02*
X0182802Y0113473D01*
X0182422Y0112275D02*
X0224150Y0112275D01*
X0224150Y0113473D02*
X0221505Y0113473D01*
X0222453Y0114672D02*
X0224150Y0114672D01*
X0224150Y0115870D02*
X0222909Y0115870D01*
X0222909Y0117069D02*
X0224150Y0117069D01*
X0224150Y0118268D02*
X0222561Y0118268D01*
X0221766Y0119466D02*
X0224150Y0119466D01*
X0217453Y0123062D02*
X0190047Y0123062D01*
X0189499Y0122835D02*
X0190883Y0123408D01*
X0191942Y0124467D01*
X0192515Y0125851D01*
X0192515Y0127349D01*
X0191942Y0128733D01*
X0190883Y0129792D01*
X0189499Y0130365D01*
X0188001Y0130365D01*
X0186617Y0129792D01*
X0185558Y0128733D01*
X0184985Y0127349D01*
X0184985Y0125851D01*
X0185558Y0124467D01*
X0186617Y0123408D01*
X0188001Y0122835D01*
X0189499Y0122835D01*
X0187453Y0123062D02*
X0129824Y0123062D01*
X0129165Y0124260D02*
X0185765Y0124260D01*
X0185147Y0125459D02*
X0127377Y0125459D01*
X0125123Y0125459D02*
X0120279Y0125459D01*
X0120409Y0126657D02*
X0184985Y0126657D01*
X0185195Y0127856D02*
X0120232Y0127856D01*
X0119678Y0129054D02*
X0185879Y0129054D01*
X0187729Y0130253D02*
X0118300Y0130253D01*
X0119782Y0124260D02*
X0123335Y0124260D01*
X0122676Y0123062D02*
X0118576Y0123062D01*
X0127440Y0118268D02*
X0194939Y0118268D01*
X0195734Y0119466D02*
X0129191Y0119466D01*
X0111950Y0132650D02*
X0224150Y0132650D01*
X0224150Y0133848D02*
X0221323Y0133848D01*
X0220883Y0133408D02*
X0221942Y0134467D01*
X0222515Y0135851D01*
X0222515Y0137349D01*
X0221942Y0138733D01*
X0220883Y0139792D01*
X0219499Y0140365D01*
X0218001Y0140365D01*
X0216617Y0139792D01*
X0215558Y0138733D01*
X0214985Y0137349D01*
X0214985Y0135851D01*
X0215558Y0134467D01*
X0216617Y0133408D01*
X0218001Y0132835D01*
X0219499Y0132835D01*
X0220883Y0133408D01*
X0222182Y0135047D02*
X0224150Y0135047D01*
X0224150Y0136245D02*
X0222515Y0136245D01*
X0222476Y0137444D02*
X0224150Y0137444D01*
X0224150Y0138642D02*
X0221980Y0138642D01*
X0220766Y0139841D02*
X0224150Y0139841D01*
X0224150Y0141039D02*
X0181487Y0141039D01*
X0181072Y0140624D02*
X0182226Y0141778D01*
X0182850Y0143284D01*
X0182850Y0144916D01*
X0182226Y0146422D01*
X0181072Y0147576D01*
X0179566Y0148200D01*
X0177934Y0148200D01*
X0176428Y0147576D01*
X0175274Y0146422D01*
X0174650Y0144916D01*
X0174650Y0143284D01*
X0175274Y0141778D01*
X0176428Y0140624D01*
X0177934Y0140000D01*
X0179566Y0140000D01*
X0181072Y0140624D01*
X0182416Y0142238D02*
X0224150Y0142238D01*
X0224150Y0143436D02*
X0221468Y0143436D01*
X0221106Y0143074D02*
X0222276Y0144244D01*
X0222909Y0145773D01*
X0222909Y0147427D01*
X0222276Y0148956D01*
X0221106Y0150126D01*
X0219577Y0150759D01*
X0217923Y0150759D01*
X0216394Y0150126D01*
X0215224Y0148956D01*
X0214591Y0147427D01*
X0214591Y0145773D01*
X0215224Y0144244D01*
X0216394Y0143074D01*
X0217923Y0142441D01*
X0219577Y0142441D01*
X0221106Y0143074D01*
X0222438Y0144635D02*
X0224150Y0144635D01*
X0224150Y0145833D02*
X0222909Y0145833D01*
X0222909Y0147032D02*
X0224150Y0147032D01*
X0224150Y0148230D02*
X0222576Y0148230D01*
X0221803Y0149429D02*
X0224150Y0149429D01*
X0224150Y0150627D02*
X0219895Y0150627D01*
X0217605Y0150627D02*
X0199895Y0150627D01*
X0199577Y0150759D02*
X0197923Y0150759D01*
X0196394Y0150126D01*
X0195224Y0148956D01*
X0194591Y0147427D01*
X0194591Y0145773D01*
X0195224Y0144244D01*
X0196394Y0143074D01*
X0197923Y0142441D01*
X0199577Y0142441D01*
X0201106Y0143074D01*
X0202276Y0144244D01*
X0202909Y0145773D01*
X0202909Y0147427D01*
X0202276Y0148956D01*
X0201106Y0150126D01*
X0199577Y0150759D01*
X0197605Y0150627D02*
X0171046Y0150627D01*
X0170930Y0150543D02*
X0171459Y0150928D01*
X0171922Y0151391D01*
X0172307Y0151920D01*
X0172604Y0152503D01*
X0172807Y0153126D01*
X0172909Y0153773D01*
X0172909Y0154100D01*
X0172909Y0154427D01*
X0172807Y0155074D01*
X0172604Y0155697D01*
X0172307Y0156280D01*
X0171922Y0156809D01*
X0171459Y0157272D01*
X0170930Y0157657D01*
X0170347Y0157954D01*
X0169724Y0158157D01*
X0169077Y0158259D01*
X0168750Y0158259D01*
X0168750Y0154100D01*
X0172909Y0154100D01*
X0168750Y0154100D01*
X0168750Y0154100D01*
X0168750Y0154100D01*
X0168750Y0149941D01*
X0169077Y0149941D01*
X0169724Y0150043D01*
X0170347Y0150246D01*
X0170930Y0150543D01*
X0172239Y0151826D02*
X0224150Y0151826D01*
X0224150Y0153024D02*
X0172774Y0153024D01*
X0172909Y0154223D02*
X0224150Y0154223D01*
X0224150Y0155421D02*
X0172694Y0155421D01*
X0172060Y0156620D02*
X0224150Y0156620D01*
X0224150Y0157818D02*
X0170613Y0157818D01*
X0168750Y0157818D02*
X0168750Y0157818D01*
X0168750Y0158259D02*
X0168423Y0158259D01*
X0167776Y0158157D01*
X0167153Y0157954D01*
X0166570Y0157657D01*
X0166041Y0157272D01*
X0165578Y0156809D01*
X0165193Y0156280D01*
X0164896Y0155697D01*
X0164693Y0155074D01*
X0164591Y0154427D01*
X0164591Y0154100D01*
X0168750Y0154100D01*
X0168750Y0154100D01*
X0168750Y0154100D01*
X0168750Y0158259D01*
X0168750Y0156620D02*
X0168750Y0156620D01*
X0168750Y0155421D02*
X0168750Y0155421D01*
X0168750Y0154223D02*
X0168750Y0154223D01*
X0168750Y0154100D02*
X0164591Y0154100D01*
X0164591Y0153773D01*
X0164693Y0153126D01*
X0164896Y0152503D01*
X0165193Y0151920D01*
X0165578Y0151391D01*
X0166041Y0150928D01*
X0166570Y0150543D01*
X0167153Y0150246D01*
X0167776Y0150043D01*
X0168423Y0149941D01*
X0168750Y0149941D01*
X0168750Y0154100D01*
X0168750Y0153024D02*
X0168750Y0153024D01*
X0168750Y0151826D02*
X0168750Y0151826D01*
X0168750Y0150627D02*
X0168750Y0150627D01*
X0166454Y0150627D02*
X0151159Y0150627D01*
X0151106Y0150574D02*
X0152276Y0151744D01*
X0152909Y0153273D01*
X0152909Y0154927D01*
X0152276Y0156456D01*
X0151106Y0157626D01*
X0149577Y0158259D01*
X0147923Y0158259D01*
X0146394Y0157626D01*
X0145224Y0156456D01*
X0144591Y0154927D01*
X0144591Y0153273D01*
X0145224Y0151744D01*
X0146394Y0150574D01*
X0147923Y0149941D01*
X0149577Y0149941D01*
X0151106Y0150574D01*
X0152310Y0151826D02*
X0165261Y0151826D01*
X0164726Y0153024D02*
X0152806Y0153024D01*
X0152909Y0154223D02*
X0164591Y0154223D01*
X0164806Y0155421D02*
X0152704Y0155421D01*
X0152112Y0156620D02*
X0165440Y0156620D01*
X0166887Y0157818D02*
X0150641Y0157818D01*
X0146859Y0157818D02*
X0122295Y0157818D01*
X0122515Y0158351D02*
X0121942Y0156967D01*
X0120883Y0155908D01*
X0119499Y0155335D01*
X0118001Y0155335D01*
X0116617Y0155908D01*
X0115558Y0156967D01*
X0114985Y0158351D01*
X0114985Y0159849D01*
X0115558Y0161233D01*
X0116617Y0162292D01*
X0118001Y0162865D01*
X0119499Y0162865D01*
X0120883Y0162292D01*
X0121942Y0161233D01*
X0122515Y0159849D01*
X0122515Y0158351D01*
X0122515Y0159017D02*
X0224150Y0159017D01*
X0224150Y0160215D02*
X0122364Y0160215D01*
X0121761Y0161414D02*
X0224150Y0161414D01*
X0224150Y0162612D02*
X0120110Y0162612D01*
X0117390Y0162612D02*
X0114450Y0162612D01*
X0114450Y0161414D02*
X0115739Y0161414D01*
X0115136Y0160215D02*
X0114450Y0160215D01*
X0114450Y0159017D02*
X0114985Y0159017D01*
X0115205Y0157818D02*
X0114450Y0157818D01*
X0114450Y0156620D02*
X0115905Y0156620D01*
X0114450Y0155421D02*
X0117792Y0155421D01*
X0119708Y0155421D02*
X0125033Y0155421D01*
X0125501Y0155615D02*
X0124117Y0155042D01*
X0123058Y0153983D01*
X0122485Y0152599D01*
X0122485Y0151101D01*
X0123058Y0149717D01*
X0124117Y0148658D01*
X0125501Y0148085D01*
X0126999Y0148085D01*
X0128383Y0148658D01*
X0129442Y0149717D01*
X0130015Y0151101D01*
X0130015Y0152599D01*
X0129442Y0153983D01*
X0128383Y0155042D01*
X0126999Y0155615D01*
X0125501Y0155615D01*
X0127467Y0155421D02*
X0144796Y0155421D01*
X0144591Y0154223D02*
X0129202Y0154223D01*
X0129839Y0153024D02*
X0144694Y0153024D01*
X0145190Y0151826D02*
X0130015Y0151826D01*
X0129819Y0150627D02*
X0146341Y0150627D01*
X0147934Y0148200D02*
X0146428Y0147576D01*
X0145274Y0146422D01*
X0144650Y0144916D01*
X0144650Y0143284D01*
X0145274Y0141778D01*
X0146428Y0140624D01*
X0147934Y0140000D01*
X0149566Y0140000D01*
X0151072Y0140624D01*
X0152226Y0141778D01*
X0152850Y0143284D01*
X0152850Y0144916D01*
X0152226Y0146422D01*
X0151072Y0147576D01*
X0149566Y0148200D01*
X0147934Y0148200D01*
X0145884Y0147032D02*
X0120409Y0147032D01*
X0120409Y0147427D02*
X0120409Y0145773D01*
X0119776Y0144244D01*
X0118606Y0143074D01*
X0117077Y0142441D01*
X0115423Y0142441D01*
X0113894Y0143074D01*
X0112724Y0144244D01*
X0112091Y0145773D01*
X0112091Y0147427D01*
X0112724Y0148956D01*
X0113894Y0150126D01*
X0115423Y0150759D01*
X0117077Y0150759D01*
X0118606Y0150126D01*
X0119776Y0148956D01*
X0120409Y0147427D01*
X0120076Y0148230D02*
X0125149Y0148230D01*
X0123346Y0149429D02*
X0119303Y0149429D01*
X0117395Y0150627D02*
X0122681Y0150627D01*
X0122485Y0151826D02*
X0113501Y0151826D01*
X0114268Y0153024D02*
X0122661Y0153024D01*
X0123298Y0154223D02*
X0114450Y0154223D01*
X0115105Y0150627D02*
X0112303Y0150627D01*
X0111950Y0149429D02*
X0113197Y0149429D01*
X0112424Y0148230D02*
X0111950Y0148230D01*
X0111950Y0147032D02*
X0112091Y0147032D01*
X0112091Y0145833D02*
X0111950Y0145833D01*
X0111950Y0144635D02*
X0112562Y0144635D01*
X0111950Y0143436D02*
X0113532Y0143436D01*
X0111950Y0142238D02*
X0145084Y0142238D01*
X0144650Y0143436D02*
X0118968Y0143436D01*
X0119938Y0144635D02*
X0144650Y0144635D01*
X0145030Y0145833D02*
X0120409Y0145833D01*
X0127351Y0148230D02*
X0194924Y0148230D01*
X0194591Y0147032D02*
X0181616Y0147032D01*
X0182470Y0145833D02*
X0194591Y0145833D01*
X0195062Y0144635D02*
X0182850Y0144635D01*
X0182850Y0143436D02*
X0196032Y0143436D01*
X0201468Y0143436D02*
X0216032Y0143436D01*
X0215062Y0144635D02*
X0202438Y0144635D01*
X0202909Y0145833D02*
X0214591Y0145833D01*
X0214591Y0147032D02*
X0202909Y0147032D01*
X0202576Y0148230D02*
X0214924Y0148230D01*
X0215697Y0149429D02*
X0201803Y0149429D01*
X0195697Y0149429D02*
X0129154Y0149429D01*
X0121595Y0156620D02*
X0145388Y0156620D01*
X0151616Y0147032D02*
X0155884Y0147032D01*
X0156428Y0147576D02*
X0155274Y0146422D01*
X0154650Y0144916D01*
X0154650Y0143284D01*
X0155274Y0141778D01*
X0156428Y0140624D01*
X0157934Y0140000D01*
X0159566Y0140000D01*
X0161072Y0140624D01*
X0162226Y0141778D01*
X0162850Y0143284D01*
X0162850Y0144916D01*
X0162226Y0146422D01*
X0161072Y0147576D01*
X0159566Y0148200D01*
X0157934Y0148200D01*
X0156428Y0147576D01*
X0155030Y0145833D02*
X0152470Y0145833D01*
X0152850Y0144635D02*
X0154650Y0144635D01*
X0154650Y0143436D02*
X0152850Y0143436D01*
X0152416Y0142238D02*
X0155084Y0142238D01*
X0156013Y0141039D02*
X0151487Y0141039D01*
X0146013Y0141039D02*
X0111950Y0141039D01*
X0111950Y0139841D02*
X0186734Y0139841D01*
X0186617Y0139792D02*
X0185558Y0138733D01*
X0184985Y0137349D01*
X0184985Y0135851D01*
X0185558Y0134467D01*
X0186617Y0133408D01*
X0188001Y0132835D01*
X0189499Y0132835D01*
X0190883Y0133408D01*
X0191942Y0134467D01*
X0192515Y0135851D01*
X0192515Y0137349D01*
X0191942Y0138733D01*
X0190883Y0139792D01*
X0189499Y0140365D01*
X0188001Y0140365D01*
X0186617Y0139792D01*
X0185520Y0138642D02*
X0111950Y0138642D01*
X0111950Y0137444D02*
X0185024Y0137444D01*
X0184985Y0136245D02*
X0111950Y0136245D01*
X0111950Y0135047D02*
X0185318Y0135047D01*
X0186177Y0133848D02*
X0111950Y0133848D01*
X0105550Y0133848D02*
X0094296Y0133848D01*
X0095044Y0135047D02*
X0105550Y0135047D01*
X0105550Y0136245D02*
X0095350Y0136245D01*
X0095338Y0137444D02*
X0105550Y0137444D01*
X0105550Y0138642D02*
X0094842Y0138642D01*
X0093808Y0139841D02*
X0105550Y0139841D01*
X0105550Y0141039D02*
X0007600Y0141039D01*
X0007600Y0139841D02*
X0058692Y0139841D01*
X0057658Y0138642D02*
X0007600Y0138642D01*
X0007600Y0137444D02*
X0057162Y0137444D01*
X0058204Y0133848D02*
X0054820Y0133848D01*
X0055317Y0132650D02*
X0060073Y0132650D01*
X0048234Y0119466D02*
X0007600Y0119466D01*
X0007600Y0118268D02*
X0047439Y0118268D01*
X0047091Y0117069D02*
X0007600Y0117069D01*
X0007600Y0115870D02*
X0047091Y0115870D01*
X0047547Y0114672D02*
X0007600Y0114672D01*
X0007600Y0113473D02*
X0048495Y0113473D01*
X0040387Y0107481D02*
X0057539Y0107481D01*
X0057485Y0106282D02*
X0040409Y0106282D01*
X0040124Y0105084D02*
X0057802Y0105084D01*
X0058640Y0103885D02*
X0039417Y0103885D01*
X0039890Y0108679D02*
X0058036Y0108679D01*
X0059324Y0109878D02*
X0038854Y0109878D01*
X0033646Y0109878D02*
X0023854Y0109878D01*
X0024890Y0108679D02*
X0032610Y0108679D01*
X0032113Y0107481D02*
X0025387Y0107481D01*
X0025409Y0106282D02*
X0032091Y0106282D01*
X0032376Y0105084D02*
X0025124Y0105084D01*
X0024417Y0103885D02*
X0033083Y0103885D01*
X0035423Y0090759D02*
X0033894Y0090126D01*
X0032724Y0088956D01*
X0032091Y0087427D01*
X0032091Y0085773D01*
X0032724Y0084244D01*
X0033894Y0083074D01*
X0035423Y0082441D01*
X0037077Y0082441D01*
X0038606Y0083074D01*
X0039776Y0084244D01*
X0040409Y0085773D01*
X0040409Y0087427D01*
X0039776Y0088956D01*
X0038606Y0090126D01*
X0037077Y0090759D01*
X0035423Y0090759D01*
X0035284Y0090702D02*
X0022216Y0090702D01*
X0022077Y0090759D02*
X0020423Y0090759D01*
X0018894Y0090126D01*
X0017724Y0088956D01*
X0017091Y0087427D01*
X0017091Y0085773D01*
X0017724Y0084244D01*
X0018894Y0083074D01*
X0020423Y0082441D01*
X0022077Y0082441D01*
X0023606Y0083074D01*
X0024776Y0084244D01*
X0025409Y0085773D01*
X0025409Y0087427D01*
X0024776Y0088956D01*
X0023606Y0090126D01*
X0022077Y0090759D01*
X0020284Y0090702D02*
X0007600Y0090702D01*
X0007600Y0091900D02*
X0062980Y0091900D01*
X0064150Y0090702D02*
X0037216Y0090702D01*
X0039229Y0089503D02*
X0064150Y0089503D01*
X0064150Y0088305D02*
X0040046Y0088305D01*
X0040409Y0087106D02*
X0064150Y0087106D01*
X0064150Y0085908D02*
X0040409Y0085908D01*
X0039969Y0084709D02*
X0064150Y0084709D01*
X0064150Y0083511D02*
X0039042Y0083511D01*
X0033458Y0083511D02*
X0024042Y0083511D01*
X0024969Y0084709D02*
X0032531Y0084709D01*
X0032091Y0085908D02*
X0025409Y0085908D01*
X0025409Y0087106D02*
X0032091Y0087106D01*
X0032454Y0088305D02*
X0025046Y0088305D01*
X0024229Y0089503D02*
X0033271Y0089503D01*
X0029499Y0080365D02*
X0028001Y0080365D01*
X0026617Y0079792D01*
X0025558Y0078733D01*
X0024985Y0077349D01*
X0024985Y0075851D01*
X0025558Y0074467D01*
X0026617Y0073408D01*
X0028001Y0072835D01*
X0029499Y0072835D01*
X0030883Y0073408D01*
X0031942Y0074467D01*
X0032515Y0075851D01*
X0032515Y0077349D01*
X0031942Y0078733D01*
X0030883Y0079792D01*
X0029499Y0080365D01*
X0030586Y0079915D02*
X0056914Y0079915D01*
X0056617Y0079792D02*
X0055558Y0078733D01*
X0054985Y0077349D01*
X0054985Y0075851D01*
X0055558Y0074467D01*
X0056617Y0073408D01*
X0058001Y0072835D01*
X0059499Y0072835D01*
X0060883Y0073408D01*
X0061942Y0074467D01*
X0062515Y0075851D01*
X0062515Y0077349D01*
X0061942Y0078733D01*
X0060883Y0079792D01*
X0059499Y0080365D01*
X0058001Y0080365D01*
X0056617Y0079792D01*
X0055551Y0078717D02*
X0031949Y0078717D01*
X0032445Y0077518D02*
X0055055Y0077518D01*
X0054985Y0076320D02*
X0032515Y0076320D01*
X0032213Y0075121D02*
X0055287Y0075121D01*
X0056102Y0073923D02*
X0031398Y0073923D01*
X0031546Y0069129D02*
X0055954Y0069129D01*
X0055225Y0067930D02*
X0032275Y0067930D01*
X0032515Y0066732D02*
X0054985Y0066732D01*
X0055116Y0065533D02*
X0032384Y0065533D01*
X0031810Y0064334D02*
X0055690Y0064334D01*
X0057273Y0063136D02*
X0030226Y0063136D01*
X0031742Y0055945D02*
X0045758Y0055945D01*
X0044560Y0054746D02*
X0032940Y0054746D01*
X0033536Y0053548D02*
X0043964Y0053548D01*
X0043607Y0052349D02*
X0033893Y0052349D01*
X0033893Y0051151D02*
X0043607Y0051151D01*
X0043891Y0049952D02*
X0033609Y0049952D01*
X0033112Y0048754D02*
X0044388Y0048754D01*
X0045584Y0047555D02*
X0031916Y0047555D01*
X0026102Y0073923D02*
X0007600Y0073923D01*
X0007600Y0075121D02*
X0025287Y0075121D01*
X0024985Y0076320D02*
X0007600Y0076320D01*
X0007600Y0077518D02*
X0025055Y0077518D01*
X0025551Y0078717D02*
X0007600Y0078717D01*
X0007600Y0079915D02*
X0026914Y0079915D01*
X0018458Y0083511D02*
X0007600Y0083511D01*
X0007600Y0084709D02*
X0017531Y0084709D01*
X0017091Y0085908D02*
X0007600Y0085908D01*
X0007600Y0087106D02*
X0017091Y0087106D01*
X0017454Y0088305D02*
X0007600Y0088305D01*
X0007600Y0089503D02*
X0018271Y0089503D01*
X0007600Y0082312D02*
X0064150Y0082312D01*
X0064150Y0081114D02*
X0007600Y0081114D01*
X0007600Y0072724D02*
X0064150Y0072724D01*
X0064150Y0071526D02*
X0007600Y0071526D01*
X0007600Y0112275D02*
X0105550Y0112275D01*
X0105550Y0113473D02*
X0093922Y0113473D01*
X0094889Y0114672D02*
X0098853Y0114672D01*
X0097744Y0115870D02*
X0095350Y0115870D01*
X0095350Y0117069D02*
X0097248Y0117069D01*
X0097235Y0118268D02*
X0094997Y0118268D01*
X0094182Y0119466D02*
X0097594Y0119466D01*
X0098490Y0120665D02*
X0092151Y0120665D01*
X0093421Y0123062D02*
X0098924Y0123062D01*
X0097717Y0124260D02*
X0094708Y0124260D01*
X0095215Y0125459D02*
X0097221Y0125459D01*
X0097091Y0126657D02*
X0095350Y0126657D01*
X0095168Y0127856D02*
X0097268Y0127856D01*
X0097822Y0129054D02*
X0094594Y0129054D01*
X0093146Y0130253D02*
X0099200Y0130253D01*
X0105550Y0132650D02*
X0092427Y0132650D01*
X0093885Y0143436D02*
X0098532Y0143436D01*
X0097562Y0144635D02*
X0094874Y0144635D01*
X0095350Y0145833D02*
X0097091Y0145833D01*
X0097091Y0147032D02*
X0095350Y0147032D01*
X0095013Y0148230D02*
X0097424Y0148230D01*
X0098197Y0149429D02*
X0094219Y0149429D01*
X0092077Y0154941D02*
X0090423Y0154941D01*
X0088894Y0155574D01*
X0087724Y0156744D01*
X0087091Y0158273D01*
X0087091Y0159927D01*
X0087724Y0161456D01*
X0088894Y0162626D01*
X0090423Y0163259D01*
X0092077Y0163259D01*
X0093606Y0162626D01*
X0094776Y0161456D01*
X0095409Y0159927D01*
X0095409Y0158273D01*
X0094776Y0156744D01*
X0093606Y0155574D01*
X0092077Y0154941D01*
X0093237Y0155421D02*
X0100895Y0155421D01*
X0099985Y0156620D02*
X0094652Y0156620D01*
X0095221Y0157818D02*
X0099985Y0157818D01*
X0099985Y0159017D02*
X0095409Y0159017D01*
X0095290Y0160215D02*
X0099985Y0160215D01*
X0099985Y0161414D02*
X0094793Y0161414D01*
X0093619Y0162612D02*
X0100609Y0162612D01*
X0089263Y0155421D02*
X0073191Y0155421D01*
X0074589Y0156620D02*
X0087848Y0156620D01*
X0087279Y0157818D02*
X0075207Y0157818D01*
X0075409Y0159017D02*
X0087091Y0159017D01*
X0087210Y0160215D02*
X0075261Y0160215D01*
X0074710Y0161414D02*
X0087707Y0161414D01*
X0088881Y0162612D02*
X0073491Y0162612D01*
X0071250Y0162612D02*
X0071250Y0162612D01*
X0071250Y0161414D02*
X0071250Y0161414D01*
X0071250Y0160215D02*
X0071250Y0160215D01*
X0071250Y0159017D02*
X0071250Y0159017D01*
X0071250Y0157818D02*
X0071250Y0157818D01*
X0071250Y0156620D02*
X0071250Y0156620D01*
X0071250Y0155421D02*
X0071250Y0155421D01*
X0069309Y0155421D02*
X0052893Y0155421D01*
X0040043Y0153024D02*
X0035162Y0153024D01*
X0034509Y0154223D02*
X0038302Y0154223D01*
X0060489Y0176995D02*
X0087011Y0176995D01*
X0085582Y0178193D02*
X0061918Y0178193D01*
X0062429Y0179392D02*
X0085071Y0179392D01*
X0084985Y0180590D02*
X0062515Y0180590D01*
X0062230Y0181789D02*
X0085270Y0181789D01*
X0086062Y0182987D02*
X0061438Y0182987D01*
X0069009Y0162612D02*
X0007600Y0162612D01*
X0007600Y0161414D02*
X0067790Y0161414D01*
X0104406Y0119466D02*
X0105550Y0119466D01*
X0105550Y0118268D02*
X0104765Y0118268D01*
X0104752Y0117069D02*
X0105550Y0117069D01*
X0105550Y0115870D02*
X0104256Y0115870D01*
X0103147Y0114672D02*
X0105550Y0114672D01*
X0098527Y0090702D02*
X0095752Y0090702D01*
X0096604Y0089503D02*
X0097609Y0089503D01*
X0097235Y0088305D02*
X0096962Y0088305D01*
X0096962Y0087106D02*
X0097235Y0087106D01*
X0097729Y0085908D02*
X0096484Y0085908D01*
X0095463Y0084709D02*
X0098816Y0084709D01*
X0105550Y0082312D02*
X0068350Y0082312D01*
X0068350Y0081114D02*
X0105550Y0081114D01*
X0105550Y0079915D02*
X0068350Y0079915D01*
X0068350Y0078717D02*
X0105550Y0078717D01*
X0105550Y0077518D02*
X0068350Y0077518D01*
X0068350Y0076320D02*
X0105550Y0076320D01*
X0105550Y0075121D02*
X0068350Y0075121D01*
X0068350Y0073923D02*
X0105550Y0073923D01*
X0111950Y0081114D02*
X0113911Y0081114D01*
X0114117Y0080908D02*
X0115501Y0080335D01*
X0116999Y0080335D01*
X0118383Y0080908D01*
X0119442Y0081967D01*
X0120015Y0083351D01*
X0120015Y0084849D01*
X0119442Y0086233D01*
X0118383Y0087292D01*
X0116999Y0087865D01*
X0115501Y0087865D01*
X0114117Y0087292D01*
X0113058Y0086233D01*
X0112485Y0084849D01*
X0112485Y0083351D01*
X0113058Y0081967D01*
X0114117Y0080908D01*
X0112915Y0082312D02*
X0111950Y0082312D01*
X0111950Y0083511D02*
X0112485Y0083511D01*
X0112485Y0084709D02*
X0111950Y0084709D01*
X0111950Y0085908D02*
X0112923Y0085908D01*
X0111950Y0087106D02*
X0113931Y0087106D01*
X0118569Y0087106D02*
X0123931Y0087106D01*
X0122923Y0085908D02*
X0119577Y0085908D01*
X0120015Y0084709D02*
X0122485Y0084709D01*
X0122485Y0083511D02*
X0120015Y0083511D01*
X0119585Y0082312D02*
X0122915Y0082312D01*
X0123911Y0081114D02*
X0118589Y0081114D01*
X0119934Y0076320D02*
X0121857Y0076320D01*
X0120848Y0075121D02*
X0120075Y0075121D01*
X0120075Y0073923D02*
X0120465Y0073923D01*
X0120475Y0072724D02*
X0120075Y0072724D01*
X0120075Y0071526D02*
X0120880Y0071526D01*
X0119880Y0070327D02*
X0121937Y0070327D01*
X0124190Y0070327D02*
X0124190Y0070327D01*
X0124190Y0069585D02*
X0124190Y0073350D01*
X0124190Y0073350D01*
X0124190Y0077115D01*
X0124190Y0073350D01*
X0124190Y0073350D01*
X0124190Y0073350D01*
X0124190Y0069585D01*
X0124190Y0071526D02*
X0124190Y0071526D01*
X0124190Y0072724D02*
X0124190Y0072724D01*
X0124190Y0073923D02*
X0124190Y0073923D01*
X0124190Y0075121D02*
X0124190Y0075121D01*
X0124190Y0076320D02*
X0124190Y0076320D01*
X0098258Y0055945D02*
X0073817Y0055945D01*
X0073893Y0054746D02*
X0097060Y0054746D01*
X0096464Y0053548D02*
X0073893Y0053548D01*
X0073893Y0052349D02*
X0096107Y0052349D01*
X0096107Y0051151D02*
X0073893Y0051151D01*
X0073893Y0049952D02*
X0096391Y0049952D01*
X0096888Y0048754D02*
X0073893Y0048754D01*
X0073893Y0047555D02*
X0098084Y0047555D01*
X0103921Y0030776D02*
X0075044Y0030776D01*
X0076242Y0029578D02*
X0102511Y0029578D01*
X0101846Y0028379D02*
X0077441Y0028379D01*
X0078639Y0027181D02*
X0101500Y0027181D01*
X0101500Y0025982D02*
X0079838Y0025982D01*
X0081036Y0024784D02*
X0101861Y0024784D01*
X0102548Y0023585D02*
X0082235Y0023585D01*
X0083433Y0022387D02*
X0104011Y0022387D01*
X0104915Y0021188D02*
X0084632Y0021188D01*
X0085830Y0019990D02*
X0102923Y0019990D01*
X0102017Y0018791D02*
X0087029Y0018791D01*
X0129165Y0012799D02*
X0133335Y0012799D01*
X0132187Y0013997D02*
X0130313Y0013997D01*
X0130809Y0015196D02*
X0131691Y0015196D01*
X0131500Y0016394D02*
X0131000Y0016394D01*
X0130980Y0017593D02*
X0131520Y0017593D01*
X0132017Y0018791D02*
X0130483Y0018791D01*
X0129577Y0019990D02*
X0132923Y0019990D01*
X0090537Y0084709D02*
X0087596Y0084709D01*
X0087712Y0085908D02*
X0089516Y0085908D01*
X0070958Y0083511D02*
X0068350Y0083511D01*
X0068350Y0084709D02*
X0070031Y0084709D01*
X0069591Y0085908D02*
X0068350Y0085908D01*
X0068350Y0087106D02*
X0069591Y0087106D01*
X0069954Y0088305D02*
X0068350Y0088305D01*
X0068350Y0089503D02*
X0070771Y0089503D01*
X0064150Y0079915D02*
X0060586Y0079915D01*
X0061949Y0078717D02*
X0064150Y0078717D01*
X0064150Y0077518D02*
X0062445Y0077518D01*
X0062515Y0076320D02*
X0064150Y0076320D01*
X0064150Y0075121D02*
X0062213Y0075121D01*
X0061398Y0073923D02*
X0064150Y0073923D01*
X0114450Y0163811D02*
X0127985Y0163811D01*
X0125680Y0165009D02*
X0114450Y0165009D01*
X0114450Y0166208D02*
X0124825Y0166208D01*
X0124450Y0167406D02*
X0114450Y0167406D01*
X0114450Y0168605D02*
X0124420Y0168605D01*
X0124729Y0169803D02*
X0114450Y0169803D01*
X0114450Y0171002D02*
X0125492Y0171002D01*
X0127274Y0172201D02*
X0114450Y0172201D01*
X0132008Y0171002D02*
X0168945Y0171002D01*
X0168607Y0169803D02*
X0132771Y0169803D01*
X0133080Y0168605D02*
X0168607Y0168605D01*
X0168910Y0167406D02*
X0133050Y0167406D01*
X0132675Y0166208D02*
X0169431Y0166208D01*
X0170630Y0165009D02*
X0131820Y0165009D01*
X0148750Y0178193D02*
X0148750Y0178193D01*
X0148750Y0179392D02*
X0148750Y0179392D01*
X0148750Y0180590D02*
X0148750Y0180590D01*
X0148750Y0181789D02*
X0148750Y0181789D01*
X0148750Y0182987D02*
X0148750Y0182987D01*
X0148750Y0184186D02*
X0148750Y0184186D01*
X0151489Y0184186D02*
X0176011Y0184186D01*
X0175249Y0182987D02*
X0152251Y0182987D01*
X0152515Y0181789D02*
X0174985Y0181789D01*
X0175093Y0180590D02*
X0152388Y0180590D01*
X0151803Y0179392D02*
X0175633Y0179392D01*
X0177136Y0178193D02*
X0150364Y0178193D01*
X0133106Y0186583D02*
X0234683Y0186583D01*
X0234683Y0187781D02*
X0133106Y0187781D01*
X0133106Y0188980D02*
X0234683Y0188980D01*
X0234683Y0190178D02*
X0133106Y0190178D01*
X0133106Y0191377D02*
X0234683Y0191377D01*
X0234683Y0192575D02*
X0133106Y0192575D01*
X0132601Y0193774D02*
X0234683Y0193774D01*
X0234683Y0194972D02*
X0007600Y0194972D01*
X0007600Y0196171D02*
X0234683Y0196171D01*
X0234683Y0197369D02*
X0007600Y0197369D01*
X0007600Y0198568D02*
X0234683Y0198568D01*
X0234683Y0199766D02*
X0007600Y0199766D01*
X0007600Y0200965D02*
X0234683Y0200965D01*
X0234683Y0202163D02*
X0007600Y0202163D01*
X0007600Y0203362D02*
X0234683Y0203362D01*
X0234683Y0204560D02*
X0007600Y0204560D01*
X0007600Y0205759D02*
X0104828Y0205759D01*
X0104650Y0205937D02*
X0105587Y0205000D01*
X0106913Y0205000D01*
X0107850Y0205937D01*
X0107850Y0229763D01*
X0106913Y0230700D01*
X0105587Y0230700D01*
X0104650Y0229763D01*
X0104650Y0205937D01*
X0104650Y0206957D02*
X0007600Y0206957D01*
X0007600Y0208156D02*
X0104650Y0208156D01*
X0104650Y0209354D02*
X0007600Y0209354D01*
X0007600Y0210553D02*
X0031176Y0210553D01*
X0031177Y0210552D02*
X0033285Y0209679D01*
X0035566Y0209679D01*
X0037673Y0210552D01*
X0039286Y0212165D01*
X0040159Y0214272D01*
X0040159Y0216554D01*
X0039286Y0218661D01*
X0037673Y0220274D01*
X0035566Y0221147D01*
X0033285Y0221147D01*
X0031177Y0220274D01*
X0029564Y0218661D01*
X0028691Y0216554D01*
X0028691Y0214272D01*
X0029564Y0212165D01*
X0031177Y0210552D01*
X0029978Y0211751D02*
X0007600Y0211751D01*
X0007600Y0212950D02*
X0029239Y0212950D01*
X0028743Y0214148D02*
X0007600Y0214148D01*
X0007600Y0215347D02*
X0028691Y0215347D01*
X0028691Y0216545D02*
X0007600Y0216545D01*
X0007600Y0217744D02*
X0029184Y0217744D01*
X0029846Y0218942D02*
X0007600Y0218942D01*
X0007600Y0220141D02*
X0031044Y0220141D01*
X0037806Y0220141D02*
X0094942Y0220141D01*
X0095075Y0220274D02*
X0093462Y0218661D01*
X0092589Y0216554D01*
X0092589Y0214272D01*
X0093462Y0212165D01*
X0095075Y0210552D01*
X0097182Y0209679D01*
X0099463Y0209679D01*
X0101571Y0210552D01*
X0103184Y0212165D01*
X0104057Y0214272D01*
X0104057Y0216554D01*
X0103184Y0218661D01*
X0101571Y0220274D01*
X0099463Y0221147D01*
X0097182Y0221147D01*
X0095075Y0220274D01*
X0093743Y0218942D02*
X0039005Y0218942D01*
X0039666Y0217744D02*
X0093082Y0217744D01*
X0092589Y0216545D02*
X0040159Y0216545D01*
X0040159Y0215347D02*
X0092589Y0215347D01*
X0092640Y0214148D02*
X0040108Y0214148D01*
X0039611Y0212950D02*
X0093137Y0212950D01*
X0093876Y0211751D02*
X0038872Y0211751D01*
X0037674Y0210553D02*
X0095074Y0210553D01*
X0101572Y0210553D02*
X0104650Y0210553D01*
X0104650Y0211751D02*
X0102770Y0211751D01*
X0103509Y0212950D02*
X0104650Y0212950D01*
X0104650Y0214148D02*
X0104005Y0214148D01*
X0104057Y0215347D02*
X0104650Y0215347D01*
X0104650Y0216545D02*
X0104057Y0216545D01*
X0103564Y0217744D02*
X0104650Y0217744D01*
X0104650Y0218942D02*
X0102902Y0218942D01*
X0101704Y0220141D02*
X0104650Y0220141D01*
X0104650Y0221339D02*
X0007600Y0221339D01*
X0007600Y0222538D02*
X0104650Y0222538D01*
X0104650Y0223737D02*
X0007600Y0223737D01*
X0007600Y0224935D02*
X0104650Y0224935D01*
X0104650Y0226134D02*
X0007600Y0226134D01*
X0007600Y0227332D02*
X0104650Y0227332D01*
X0104650Y0228531D02*
X0007600Y0228531D01*
X0007600Y0229729D02*
X0104650Y0229729D01*
X0107850Y0229729D02*
X0113199Y0229729D01*
X0113341Y0229386D02*
X0113900Y0228419D01*
X0114580Y0227532D01*
X0115369Y0226743D01*
X0116256Y0226063D01*
X0117223Y0225504D01*
X0118255Y0225077D01*
X0119334Y0224788D01*
X0120400Y0224647D01*
X0120400Y0232563D01*
X0112484Y0232563D01*
X0112625Y0231497D01*
X0112914Y0230418D01*
X0113341Y0229386D01*
X0113835Y0228531D02*
X0107850Y0228531D01*
X0107850Y0227332D02*
X0114780Y0227332D01*
X0116163Y0226134D02*
X0107850Y0226134D01*
X0107850Y0224935D02*
X0118784Y0224935D01*
X0120400Y0224935D02*
X0121600Y0224935D01*
X0121600Y0224647D02*
X0122666Y0224788D01*
X0123745Y0225077D01*
X0124777Y0225504D01*
X0125744Y0226063D01*
X0126630Y0226743D01*
X0127420Y0227532D01*
X0128100Y0228419D01*
X0128659Y0229386D01*
X0129086Y0230418D01*
X0129375Y0231497D01*
X0129516Y0232563D01*
X0121600Y0232563D01*
X0121600Y0233763D01*
X0120400Y0233763D01*
X0120400Y0241679D01*
X0119334Y0241538D01*
X0118255Y0241249D01*
X0117223Y0240822D01*
X0116256Y0240263D01*
X0115369Y0239583D01*
X0114580Y0238793D01*
X0113900Y0237907D01*
X0113341Y0236940D01*
X0112914Y0235908D01*
X0112625Y0234829D01*
X0112484Y0233763D01*
X0120400Y0233763D01*
X0120400Y0232563D01*
X0121600Y0232563D01*
X0121600Y0224647D01*
X0121600Y0226134D02*
X0120400Y0226134D01*
X0120400Y0227332D02*
X0121600Y0227332D01*
X0121600Y0228531D02*
X0120400Y0228531D01*
X0120400Y0229729D02*
X0121600Y0229729D01*
X0121600Y0230928D02*
X0120400Y0230928D01*
X0120400Y0232126D02*
X0121600Y0232126D01*
X0121600Y0233325D02*
X0234683Y0233325D01*
X0234683Y0234523D02*
X0129416Y0234523D01*
X0129375Y0234829D02*
X0129086Y0235908D01*
X0128659Y0236940D01*
X0128100Y0237907D01*
X0127420Y0238793D01*
X0126630Y0239583D01*
X0125744Y0240263D01*
X0124777Y0240822D01*
X0123745Y0241249D01*
X0122666Y0241538D01*
X0121600Y0241679D01*
X0121600Y0233763D01*
X0129516Y0233763D01*
X0129375Y0234829D01*
X0129136Y0235722D02*
X0140321Y0235722D01*
X0140553Y0235489D02*
X0142661Y0234616D01*
X0144942Y0234616D01*
X0147049Y0235489D01*
X0148662Y0237102D01*
X0149535Y0239209D01*
X0149535Y0241491D01*
X0148662Y0243598D01*
X0147049Y0245211D01*
X0144942Y0246084D01*
X0142661Y0246084D01*
X0140553Y0245211D01*
X0138940Y0243598D01*
X0138067Y0241491D01*
X0138067Y0239209D01*
X0138940Y0237102D01*
X0140553Y0235489D01*
X0139122Y0236920D02*
X0128667Y0236920D01*
X0127938Y0238119D02*
X0138519Y0238119D01*
X0138067Y0239317D02*
X0126897Y0239317D01*
X0125307Y0240516D02*
X0138067Y0240516D01*
X0138160Y0241714D02*
X0103990Y0241714D01*
X0104057Y0241554D02*
X0103184Y0243661D01*
X0101571Y0245274D01*
X0099463Y0246147D01*
X0097182Y0246147D01*
X0095075Y0245274D01*
X0093462Y0243661D01*
X0092589Y0241554D01*
X0092589Y0239272D01*
X0093462Y0237165D01*
X0095075Y0235552D01*
X0097182Y0234679D01*
X0099463Y0234679D01*
X0101571Y0235552D01*
X0103184Y0237165D01*
X0104057Y0239272D01*
X0104057Y0241554D01*
X0104057Y0240516D02*
X0116693Y0240516D01*
X0115103Y0239317D02*
X0104057Y0239317D01*
X0103579Y0238119D02*
X0114062Y0238119D01*
X0113333Y0236920D02*
X0102939Y0236920D01*
X0101740Y0235722D02*
X0112864Y0235722D01*
X0112584Y0234523D02*
X0007600Y0234523D01*
X0007600Y0233325D02*
X0120400Y0233325D01*
X0120400Y0234523D02*
X0121600Y0234523D01*
X0121600Y0235722D02*
X0120400Y0235722D01*
X0120400Y0236920D02*
X0121600Y0236920D01*
X0121600Y0238119D02*
X0120400Y0238119D01*
X0120400Y0239317D02*
X0121600Y0239317D01*
X0121600Y0240516D02*
X0120400Y0240516D01*
X0119305Y0248264D02*
X0116173Y0249561D01*
X0113776Y0251958D01*
X0112479Y0255090D01*
X0112479Y0258480D01*
X0113776Y0261612D01*
X0116173Y0264009D01*
X0119305Y0265306D01*
X0122695Y0265306D01*
X0125827Y0264009D01*
X0128224Y0261612D01*
X0129521Y0258480D01*
X0129521Y0255090D01*
X0128224Y0251958D01*
X0125827Y0249561D01*
X0122695Y0248264D01*
X0119305Y0248264D01*
X0117756Y0248905D02*
X0007600Y0248905D01*
X0007600Y0247707D02*
X0234683Y0247707D01*
X0234683Y0248905D02*
X0124244Y0248905D01*
X0126370Y0250104D02*
X0234683Y0250104D01*
X0234683Y0251302D02*
X0127568Y0251302D01*
X0128449Y0252501D02*
X0234683Y0252501D01*
X0234683Y0253699D02*
X0128945Y0253699D01*
X0129442Y0254898D02*
X0234683Y0254898D01*
X0234683Y0256096D02*
X0129521Y0256096D01*
X0129521Y0257295D02*
X0214477Y0257295D01*
X0213287Y0258493D02*
X0129516Y0258493D01*
X0129019Y0259692D02*
X0142872Y0259692D01*
X0143201Y0259692D02*
X0144401Y0259692D01*
X0144401Y0259640D02*
X0145144Y0259757D01*
X0146002Y0260036D01*
X0146806Y0260446D01*
X0147537Y0260976D01*
X0148175Y0261615D01*
X0148705Y0262345D01*
X0149115Y0263149D01*
X0149394Y0264007D01*
X0149511Y0264750D01*
X0144401Y0264750D01*
X0144401Y0259640D01*
X0144730Y0259692D02*
X0206376Y0259692D01*
X0204050Y0260890D02*
X0147418Y0260890D01*
X0148519Y0262089D02*
X0202851Y0262089D01*
X0202347Y0263287D02*
X0149160Y0263287D01*
X0149470Y0264486D02*
X0201965Y0264486D01*
X0201965Y0265684D02*
X0144401Y0265684D01*
X0144401Y0265950D02*
X0149511Y0265950D01*
X0149394Y0266693D01*
X0149115Y0267551D01*
X0148705Y0268355D01*
X0148175Y0269085D01*
X0147537Y0269724D01*
X0146806Y0270254D01*
X0146002Y0270664D01*
X0145144Y0270943D01*
X0144401Y0271060D01*
X0144401Y0265950D01*
X0143201Y0265950D01*
X0143201Y0264750D01*
X0138091Y0264750D01*
X0138209Y0264007D01*
X0138487Y0263149D01*
X0138897Y0262345D01*
X0139428Y0261615D01*
X0140066Y0260976D01*
X0140796Y0260446D01*
X0141600Y0260036D01*
X0142458Y0259757D01*
X0143201Y0259640D01*
X0143201Y0264750D01*
X0144401Y0264750D01*
X0144401Y0265950D01*
X0144401Y0266883D02*
X0143201Y0266883D01*
X0143201Y0265950D02*
X0143201Y0271060D01*
X0142458Y0270943D01*
X0141600Y0270664D01*
X0140796Y0270254D01*
X0140066Y0269724D01*
X0139428Y0269085D01*
X0138897Y0268355D01*
X0138487Y0267551D01*
X0138209Y0266693D01*
X0138091Y0265950D01*
X0143201Y0265950D01*
X0143201Y0265684D02*
X0104057Y0265684D01*
X0104057Y0266554D02*
X0103184Y0268661D01*
X0101571Y0270274D01*
X0099463Y0271147D01*
X0097182Y0271147D01*
X0095075Y0270274D01*
X0093462Y0268661D01*
X0092589Y0266554D01*
X0092589Y0264272D01*
X0093462Y0262165D01*
X0095075Y0260552D01*
X0097182Y0259679D01*
X0099463Y0259679D01*
X0101571Y0260552D01*
X0103184Y0262165D01*
X0104057Y0264272D01*
X0104057Y0266554D01*
X0103920Y0266883D02*
X0138270Y0266883D01*
X0138758Y0268081D02*
X0103424Y0268081D01*
X0102565Y0269280D02*
X0139622Y0269280D01*
X0141236Y0270478D02*
X0101077Y0270478D01*
X0104057Y0264486D02*
X0117324Y0264486D01*
X0115451Y0263287D02*
X0103649Y0263287D01*
X0103108Y0262089D02*
X0114253Y0262089D01*
X0113477Y0260890D02*
X0101909Y0260890D01*
X0099494Y0259692D02*
X0112981Y0259692D01*
X0112484Y0258493D02*
X0028996Y0258493D01*
X0029254Y0259692D02*
X0097152Y0259692D01*
X0094737Y0260890D02*
X0037955Y0260890D01*
X0039098Y0262089D02*
X0093538Y0262089D01*
X0092997Y0263287D02*
X0039763Y0263287D01*
X0040084Y0264486D02*
X0092589Y0264486D01*
X0092589Y0265684D02*
X0035025Y0265684D01*
X0035025Y0266013D02*
X0040135Y0266013D01*
X0040018Y0266756D01*
X0039739Y0267614D01*
X0039329Y0268418D01*
X0038799Y0269148D01*
X0038161Y0269787D01*
X0037430Y0270317D01*
X0036626Y0270727D01*
X0035768Y0271006D01*
X0035025Y0271123D01*
X0035025Y0266013D01*
X0035025Y0266883D02*
X0033825Y0266883D01*
X0033825Y0268081D02*
X0035025Y0268081D01*
X0035025Y0269280D02*
X0033825Y0269280D01*
X0033825Y0270478D02*
X0035025Y0270478D01*
X0037114Y0270478D02*
X0095569Y0270478D01*
X0094081Y0269280D02*
X0038667Y0269280D01*
X0039501Y0268081D02*
X0093222Y0268081D01*
X0092725Y0266883D02*
X0039977Y0266883D01*
X0035025Y0264486D02*
X0033825Y0264486D01*
X0033825Y0263287D02*
X0035025Y0263287D01*
X0035025Y0262089D02*
X0033825Y0262089D01*
X0033825Y0260890D02*
X0035025Y0260890D01*
X0030895Y0260890D02*
X0029254Y0260890D01*
X0029254Y0262089D02*
X0029753Y0262089D01*
X0027806Y0257295D02*
X0112479Y0257295D01*
X0112479Y0256096D02*
X0007600Y0256096D01*
X0007600Y0254898D02*
X0112558Y0254898D01*
X0113055Y0253699D02*
X0007600Y0253699D01*
X0007600Y0252501D02*
X0113551Y0252501D01*
X0114432Y0251302D02*
X0007600Y0251302D01*
X0007600Y0250104D02*
X0115630Y0250104D01*
X0103494Y0242913D02*
X0138656Y0242913D01*
X0139453Y0244111D02*
X0102734Y0244111D01*
X0101484Y0245310D02*
X0140792Y0245310D01*
X0146811Y0245310D02*
X0204689Y0245310D01*
X0204451Y0245211D02*
X0202838Y0243598D01*
X0201965Y0241491D01*
X0201965Y0239209D01*
X0202838Y0237102D01*
X0204451Y0235489D01*
X0206558Y0234616D01*
X0208839Y0234616D01*
X0210947Y0235489D01*
X0212560Y0237102D01*
X0213433Y0239209D01*
X0213433Y0241491D01*
X0212560Y0243598D01*
X0210947Y0245211D01*
X0208839Y0246084D01*
X0206558Y0246084D01*
X0204451Y0245211D01*
X0203351Y0244111D02*
X0148149Y0244111D01*
X0148946Y0242913D02*
X0202554Y0242913D01*
X0202058Y0241714D02*
X0149442Y0241714D01*
X0149535Y0240516D02*
X0201965Y0240516D01*
X0201965Y0239317D02*
X0149535Y0239317D01*
X0149083Y0238119D02*
X0202417Y0238119D01*
X0203020Y0236920D02*
X0148480Y0236920D01*
X0147282Y0235722D02*
X0204218Y0235722D01*
X0211179Y0235722D02*
X0234683Y0235722D01*
X0234683Y0236920D02*
X0212378Y0236920D01*
X0212981Y0238119D02*
X0234683Y0238119D01*
X0234683Y0239317D02*
X0213433Y0239317D01*
X0213433Y0240516D02*
X0234683Y0240516D01*
X0234683Y0241714D02*
X0213340Y0241714D01*
X0212844Y0242913D02*
X0234683Y0242913D01*
X0234683Y0244111D02*
X0212047Y0244111D01*
X0210708Y0245310D02*
X0234683Y0245310D01*
X0234683Y0246508D02*
X0007600Y0246508D01*
X0007600Y0245310D02*
X0031264Y0245310D01*
X0031177Y0245274D02*
X0033285Y0246147D01*
X0035566Y0246147D01*
X0037673Y0245274D01*
X0039286Y0243661D01*
X0040159Y0241554D01*
X0040159Y0239272D01*
X0039286Y0237165D01*
X0037673Y0235552D01*
X0035566Y0234679D01*
X0033285Y0234679D01*
X0031177Y0235552D01*
X0029564Y0237165D01*
X0028691Y0239272D01*
X0028691Y0241554D01*
X0029564Y0243661D01*
X0031177Y0245274D01*
X0030015Y0244111D02*
X0007600Y0244111D01*
X0007600Y0242913D02*
X0029254Y0242913D01*
X0028758Y0241714D02*
X0007600Y0241714D01*
X0007600Y0240516D02*
X0028691Y0240516D01*
X0028691Y0239317D02*
X0007600Y0239317D01*
X0007600Y0238119D02*
X0029169Y0238119D01*
X0029809Y0236920D02*
X0007600Y0236920D01*
X0007600Y0235722D02*
X0031008Y0235722D01*
X0037843Y0235722D02*
X0094905Y0235722D01*
X0093707Y0236920D02*
X0039041Y0236920D01*
X0039681Y0238119D02*
X0093067Y0238119D01*
X0092589Y0239317D02*
X0040159Y0239317D01*
X0040159Y0240516D02*
X0092589Y0240516D01*
X0092656Y0241714D02*
X0040093Y0241714D01*
X0039596Y0242913D02*
X0093152Y0242913D01*
X0093912Y0244111D02*
X0038836Y0244111D01*
X0037587Y0245310D02*
X0095161Y0245310D01*
X0112542Y0232126D02*
X0007600Y0232126D01*
X0007600Y0230928D02*
X0112777Y0230928D01*
X0107850Y0223737D02*
X0234683Y0223737D01*
X0234683Y0224935D02*
X0123216Y0224935D01*
X0125837Y0226134D02*
X0234683Y0226134D01*
X0234683Y0227332D02*
X0127220Y0227332D01*
X0128165Y0228531D02*
X0234683Y0228531D01*
X0234683Y0229729D02*
X0128801Y0229729D01*
X0129223Y0230928D02*
X0234683Y0230928D01*
X0234683Y0232126D02*
X0129458Y0232126D01*
X0140553Y0220211D02*
X0138940Y0218598D01*
X0138067Y0216491D01*
X0138067Y0214209D01*
X0138940Y0212102D01*
X0140553Y0210489D01*
X0142661Y0209616D01*
X0144942Y0209616D01*
X0147049Y0210489D01*
X0148662Y0212102D01*
X0149535Y0214209D01*
X0149535Y0216491D01*
X0148662Y0218598D01*
X0147049Y0220211D01*
X0144942Y0221084D01*
X0142661Y0221084D01*
X0140553Y0220211D01*
X0140483Y0220141D02*
X0107850Y0220141D01*
X0107850Y0221339D02*
X0234683Y0221339D01*
X0234683Y0220141D02*
X0211017Y0220141D01*
X0210947Y0220211D02*
X0208839Y0221084D01*
X0206558Y0221084D01*
X0204451Y0220211D01*
X0202838Y0218598D01*
X0201965Y0216491D01*
X0201965Y0214209D01*
X0202838Y0212102D01*
X0204451Y0210489D01*
X0206558Y0209616D01*
X0208839Y0209616D01*
X0210947Y0210489D01*
X0212560Y0212102D01*
X0213433Y0214209D01*
X0213433Y0216491D01*
X0212560Y0218598D01*
X0210947Y0220211D01*
X0212215Y0218942D02*
X0234683Y0218942D01*
X0234683Y0217744D02*
X0212913Y0217744D01*
X0213410Y0216545D02*
X0234683Y0216545D01*
X0234683Y0215347D02*
X0213433Y0215347D01*
X0213407Y0214148D02*
X0234683Y0214148D01*
X0234683Y0212950D02*
X0212911Y0212950D01*
X0212209Y0211751D02*
X0234683Y0211751D01*
X0234683Y0210553D02*
X0211011Y0210553D01*
X0204387Y0210553D02*
X0147113Y0210553D01*
X0148311Y0211751D02*
X0203189Y0211751D01*
X0202487Y0212950D02*
X0149013Y0212950D01*
X0149510Y0214148D02*
X0201990Y0214148D01*
X0201965Y0215347D02*
X0149535Y0215347D01*
X0149512Y0216545D02*
X0201988Y0216545D01*
X0202484Y0217744D02*
X0149016Y0217744D01*
X0148318Y0218942D02*
X0203182Y0218942D01*
X0204381Y0220141D02*
X0147119Y0220141D01*
X0140489Y0210553D02*
X0107850Y0210553D01*
X0107850Y0211751D02*
X0139291Y0211751D01*
X0138589Y0212950D02*
X0107850Y0212950D01*
X0107850Y0214148D02*
X0138093Y0214148D01*
X0138067Y0215347D02*
X0107850Y0215347D01*
X0107850Y0216545D02*
X0138090Y0216545D01*
X0138587Y0217744D02*
X0107850Y0217744D01*
X0107850Y0218942D02*
X0139285Y0218942D01*
X0107850Y0222538D02*
X0234683Y0222538D01*
X0234683Y0209354D02*
X0107850Y0209354D01*
X0107850Y0208156D02*
X0234683Y0208156D01*
X0234683Y0206957D02*
X0107850Y0206957D01*
X0107672Y0205759D02*
X0234683Y0205759D01*
X0234683Y0182987D02*
X0217833Y0182987D01*
X0219031Y0181789D02*
X0234683Y0181789D01*
X0234683Y0180590D02*
X0220230Y0180590D01*
X0221428Y0179392D02*
X0234683Y0179392D01*
X0234683Y0178193D02*
X0222627Y0178193D01*
X0223825Y0176995D02*
X0234683Y0176995D01*
X0216734Y0139841D02*
X0190766Y0139841D01*
X0191980Y0138642D02*
X0215520Y0138642D01*
X0215024Y0137444D02*
X0192476Y0137444D01*
X0192515Y0136245D02*
X0214985Y0136245D01*
X0215318Y0135047D02*
X0192182Y0135047D01*
X0191323Y0133848D02*
X0216177Y0133848D01*
X0217729Y0130253D02*
X0189771Y0130253D01*
X0191621Y0129054D02*
X0215879Y0129054D01*
X0215195Y0127856D02*
X0192305Y0127856D01*
X0192515Y0126657D02*
X0214985Y0126657D01*
X0215147Y0125459D02*
X0192353Y0125459D01*
X0191735Y0124260D02*
X0215765Y0124260D01*
X0220676Y0109878D02*
X0224150Y0109878D01*
X0224150Y0111076D02*
X0181525Y0111076D01*
X0176012Y0141039D02*
X0171487Y0141039D01*
X0171072Y0140624D02*
X0172226Y0141778D01*
X0172850Y0143284D01*
X0172850Y0144916D01*
X0172226Y0146422D01*
X0171072Y0147576D01*
X0169566Y0148200D01*
X0167934Y0148200D01*
X0166428Y0147576D01*
X0165274Y0146422D01*
X0164650Y0144916D01*
X0164650Y0143284D01*
X0165274Y0141778D01*
X0166428Y0140624D01*
X0167934Y0140000D01*
X0169566Y0140000D01*
X0171072Y0140624D01*
X0172416Y0142238D02*
X0175084Y0142238D01*
X0174650Y0143436D02*
X0172850Y0143436D01*
X0172850Y0144635D02*
X0174650Y0144635D01*
X0175030Y0145833D02*
X0172470Y0145833D01*
X0171616Y0147032D02*
X0175884Y0147032D01*
X0165884Y0147032D02*
X0161616Y0147032D01*
X0162470Y0145833D02*
X0165030Y0145833D01*
X0164650Y0144635D02*
X0162850Y0144635D01*
X0162850Y0143436D02*
X0164650Y0143436D01*
X0165084Y0142238D02*
X0162416Y0142238D01*
X0161487Y0141039D02*
X0166013Y0141039D01*
X0176870Y0165009D02*
X0190630Y0165009D01*
X0189431Y0166208D02*
X0178069Y0166208D01*
X0178589Y0167406D02*
X0188910Y0167406D01*
X0188607Y0168605D02*
X0178893Y0168605D01*
X0178893Y0169803D02*
X0188607Y0169803D01*
X0188945Y0171002D02*
X0178555Y0171002D01*
X0177986Y0172201D02*
X0189514Y0172201D01*
X0190712Y0173399D02*
X0176788Y0173399D01*
X0221964Y0108679D02*
X0224150Y0108679D01*
X0224150Y0107481D02*
X0222461Y0107481D01*
X0222515Y0106282D02*
X0224150Y0106282D01*
X0224150Y0105084D02*
X0222198Y0105084D01*
X0221360Y0103885D02*
X0224150Y0103885D01*
X0213030Y0259692D02*
X0209022Y0259692D01*
X0211348Y0260890D02*
X0213030Y0260890D01*
X0213030Y0262089D02*
X0212547Y0262089D01*
X0212774Y0268081D02*
X0213030Y0268081D01*
X0213030Y0269280D02*
X0211878Y0269280D01*
X0213030Y0270478D02*
X0210301Y0270478D01*
X0213030Y0271677D02*
X0029254Y0271677D01*
X0029254Y0272875D02*
X0213030Y0272875D01*
X0213030Y0274074D02*
X0029254Y0274074D01*
X0029254Y0275272D02*
X0213030Y0275272D01*
X0213030Y0276471D02*
X0029254Y0276471D01*
X0029254Y0277670D02*
X0213030Y0277670D01*
X0213030Y0278868D02*
X0029254Y0278868D01*
X0029254Y0280067D02*
X0213030Y0280067D01*
X0213030Y0281265D02*
X0029254Y0281265D01*
X0029254Y0282464D02*
X0213030Y0282464D01*
X0213030Y0283662D02*
X0029254Y0283662D01*
X0029254Y0270478D02*
X0031737Y0270478D01*
X0030183Y0269280D02*
X0029254Y0269280D01*
X0029254Y0268081D02*
X0029350Y0268081D01*
X0124676Y0264486D02*
X0138133Y0264486D01*
X0138442Y0263287D02*
X0126549Y0263287D01*
X0127747Y0262089D02*
X0139083Y0262089D01*
X0140184Y0260890D02*
X0128523Y0260890D01*
X0143201Y0260890D02*
X0144401Y0260890D01*
X0144401Y0262089D02*
X0143201Y0262089D01*
X0143201Y0263287D02*
X0144401Y0263287D01*
X0144401Y0264486D02*
X0143201Y0264486D01*
X0143201Y0268081D02*
X0144401Y0268081D01*
X0144401Y0269280D02*
X0143201Y0269280D01*
X0143201Y0270478D02*
X0144401Y0270478D01*
X0146366Y0270478D02*
X0205097Y0270478D01*
X0203520Y0269280D02*
X0147980Y0269280D01*
X0148845Y0268081D02*
X0202624Y0268081D01*
X0202127Y0266883D02*
X0149332Y0266883D01*
D25*
X0153000Y0279850D03*
X0125500Y0279850D03*
X0125500Y0244100D03*
X0153000Y0241600D03*
X0153000Y0201600D03*
X0153750Y0166100D03*
X0138750Y0139100D03*
X0128750Y0139100D03*
X0116250Y0153600D03*
X0103750Y0153600D03*
X0096250Y0131600D03*
X0101250Y0111850D03*
X0101250Y0096350D03*
X0103250Y0072850D03*
X0106250Y0060850D03*
X0116250Y0060850D03*
X0131250Y0063850D03*
X0131250Y0055600D03*
X0136250Y0083850D03*
X0123750Y0091350D03*
X0153750Y0119100D03*
X0153750Y0129100D03*
X0183750Y0149850D03*
X0183750Y0158600D03*
X0183750Y0173600D03*
X0196250Y0183600D03*
X0190500Y0201600D03*
X0190500Y0241600D03*
X0190500Y0279850D03*
X0233000Y0241600D03*
X0233000Y0201600D03*
X0233000Y0161600D03*
X0220500Y0161600D03*
X0213000Y0121600D03*
X0233000Y0121600D03*
X0220500Y0082850D03*
X0233000Y0081600D03*
X0233000Y0041600D03*
X0233000Y0010850D03*
X0201250Y0010850D03*
X0201250Y0020850D03*
X0201250Y0030850D03*
X0183750Y0048350D03*
X0178750Y0058350D03*
X0165500Y0081600D03*
X0155500Y0081600D03*
X0183000Y0091600D03*
X0193000Y0091600D03*
X0193000Y0081600D03*
X0161250Y0030850D03*
X0161250Y0020850D03*
X0161250Y0010850D03*
X0121250Y0010850D03*
X0081250Y0010850D03*
X0081250Y0030850D03*
X0067250Y0059100D03*
X0055250Y0059100D03*
X0038750Y0059100D03*
X0017250Y0081600D03*
X0009500Y0081600D03*
X0028750Y0101600D03*
X0043750Y0101600D03*
X0018000Y0121600D03*
X0009500Y0121600D03*
X0009500Y0161600D03*
X0018000Y0161600D03*
X0046250Y0141600D03*
X0058750Y0159100D03*
X0076250Y0131600D03*
X0090500Y0201600D03*
X0090500Y0241600D03*
X0090500Y0279850D03*
X0048000Y0279850D03*
X0048000Y0241600D03*
X0048000Y0201600D03*
X0009500Y0201600D03*
X0009500Y0241600D03*
X0009500Y0041600D03*
X0009500Y0010850D03*
X0041250Y0010850D03*
X0041250Y0030850D03*
D26*
X0058750Y0044100D02*
X0058750Y0056600D01*
X0066250Y0064100D01*
X0066250Y0091600D01*
X0061250Y0096600D01*
X0058750Y0044100D02*
X0086250Y0016600D01*
X0106250Y0016600D01*
X0136250Y0016600D02*
X0203750Y0016600D01*
X0226250Y0039100D01*
X0226250Y0171600D01*
X0216250Y0181600D01*
X0208750Y0181600D01*
X0168750Y0114100D02*
X0168000Y0114100D01*
X0161250Y0107350D01*
X0161250Y0064600D01*
X0156250Y0059600D01*
X0123750Y0059600D01*
X0121250Y0057100D01*
X0121250Y0051663D01*
D27*
X0111250Y0039100D02*
X0116250Y0034100D01*
X0116250Y0026600D01*
X0111250Y0039100D02*
X0111250Y0066600D01*
X0108750Y0069100D01*
X0108750Y0151600D01*
X0111250Y0154100D01*
X0111250Y0181600D01*
X0118750Y0189100D01*
M02*
