%
M48
M72
T01C0.01575
T02C0.01969
T03C0.02362
T04C0.02756
T05C0.03200
T06C0.03543
T07C0.04331
T08C0.05512
T09C0.09843
%
T01
X28750Y66600
X28750Y76600
X58750Y76600
X58750Y66600
X61250Y96600
X61250Y106600
X41250Y126600
X41250Y156600
X58750Y180350
X88750Y180350
X103750Y167040
X103750Y159160
X118750Y159100
X126250Y151850
X126250Y121850
X126250Y114100
X116250Y114100
X101000Y117850
X91250Y106600
X91250Y96600
X101000Y87850
X116250Y84100
X126250Y84100
X124190Y73350
X116310Y73350
X148750Y77100
X148750Y86350
X148750Y95600
X178750Y95600
X178750Y86350
X178750Y77100
X198750Y76600
X218750Y76600
X218750Y106600
X218750Y126600
X218750Y136600
X198750Y106600
X188750Y126600
X188750Y136600
X178750Y181600
X148750Y181600
X118750Y189100
T02
X9500Y10850
X9500Y41600
X38750Y59100
X55250Y59100
X67250Y59100
X83750Y67850
X93000Y67850
X103250Y72850
X106250Y60850
X116250Y60850
X131250Y63850
X131250Y55600
X136250Y83850
X123750Y91350
X101250Y96350
X93000Y87850
X83750Y87850
X101250Y111850
X96250Y131600
X103750Y153600
X116250Y153600
X128750Y139100
X138750Y139100
X153750Y129100
X153750Y119100
X155500Y81600
X165500Y81600
X183000Y91600
X193000Y91600
X193000Y81600
X178750Y58350
X183750Y48350
X201250Y30850
X201250Y20850
X201250Y10850
X233000Y10850
X233000Y41600
X233000Y81600
X220500Y82850
X213000Y121600
X233000Y121600
X233000Y161600
X220500Y161600
X196250Y183600
X183750Y173600
X183750Y158600
X183750Y149850
X153750Y166100
X153000Y201600
X153000Y241600
X125500Y244100
X125500Y279850
X153000Y279850
X190500Y279850
X190500Y241600
X190500Y201600
X233000Y201600
X233000Y241600
X90500Y241600
X90500Y279850
X48000Y279850
X48000Y241600
X48000Y201600
X58750Y159100
X46250Y141600
X76250Y131600
X43750Y101600
X28750Y101600
X18000Y121600
X9500Y121600
X9500Y161600
X18000Y161600
X9500Y201600
X9500Y241600
X90500Y201600
X17250Y81600
X9500Y81600
X41250Y30850
X41250Y10850
X81250Y10850
X81250Y30850
X121250Y10850
X161250Y10850
X161250Y20850
X161250Y30850
T03
X151250Y66600
X171250Y66600
X188750Y76600
X191250Y64100
X208750Y76600
X211250Y64100
X208750Y96600
X198750Y116600
X188750Y96600
X168750Y105600
X148750Y105600
X116250Y126600
X101250Y126600
X101250Y146600
X91250Y159100
X71250Y159100
X51250Y151600
X51250Y131600
X51250Y116600
X36250Y106600
X51250Y96600
X36250Y86600
X21250Y86600
X21250Y106600
X31250Y131600
X31250Y151600
X28750Y180350
X48750Y180350
X116250Y146600
X148750Y154100
X168750Y154100
X188750Y181600
X208750Y181600
X198750Y146600
X218750Y146600
X218750Y116600
X73750Y86600
X73750Y66600
T04
X128750Y168100
X128750Y189850
T05
X148750Y144100
X158750Y144100
X168750Y144100
X178750Y144100
X178750Y114100
X168750Y114100
X158750Y114100
X148750Y114100
X91250Y116600
X91250Y126600
X91250Y136600
X91250Y146600
X61250Y146600
X61250Y136600
X61250Y126600
X61250Y116600
T06
X106250Y26600
X106250Y16600
X116250Y16600
X116250Y26600
X126250Y26600
X126250Y16600
X136250Y16600
X136250Y26600
T07
X141250Y51663
X121250Y51663
X101250Y51663
X68750Y51663
X48750Y51663
X28750Y51663
X28750Y169163
X48750Y169163
X68750Y169163
X173750Y169163
X193750Y169163
X213750Y169163
X213750Y51663
X193750Y51663
X173750Y51663
T08
X143801Y215350
X143801Y240350
X143801Y265350
X98323Y265413
X98323Y240413
X98323Y215413
X34425Y215413
X34425Y240413
X34425Y265413
X207699Y265350
X207699Y240350
X207699Y215350
T09
X121000Y233163
X121000Y256785
M30
