G75*
%MOIN*%
%OFA0B0*%
%FSLAX25Y25*%
%IPPOS*%
%LPD*%
%AMOC8*
5,1,8,0,0,1.08239X$1,22.5*
%
%ADD10C,0.00500*%
%ADD11C,0.00600*%
%ADD12C,0.00000*%
%ADD13C,0.00800*%
D10*
X0091250Y0090498D02*
X0095305Y0090498D01*
X0091250Y0090498D02*
X0091250Y0094836D01*
X0091250Y0098773D02*
X0091250Y0103111D01*
X0091250Y0107048D02*
X0091250Y0111386D01*
X0091250Y0115323D02*
X0091250Y0119661D01*
X0091250Y0123598D02*
X0091250Y0127935D01*
X0090528Y0145435D02*
X0086250Y0145435D01*
X0094465Y0145435D02*
X0098743Y0145435D01*
X0102680Y0145435D02*
X0106959Y0145435D01*
X0110896Y0145435D02*
X0115174Y0145435D01*
X0119111Y0145435D02*
X0123389Y0145435D01*
X0155243Y0153771D02*
X0155057Y0154494D01*
X0154857Y0155213D01*
X0154640Y0155928D01*
X0154409Y0156638D01*
X0154163Y0157343D01*
X0153901Y0158042D01*
X0163750Y0170498D02*
X0167805Y0170498D01*
X0171742Y0170498D02*
X0175797Y0170498D01*
X0179734Y0170498D02*
X0183789Y0170498D01*
X0187726Y0170498D02*
X0191781Y0170498D01*
X0195719Y0170498D02*
X0199774Y0170498D01*
X0203711Y0170498D02*
X0207766Y0170498D01*
X0211703Y0170498D02*
X0215758Y0170498D01*
X0219695Y0170498D02*
X0223750Y0170498D01*
X0223750Y0174836D01*
X0223750Y0178773D02*
X0223750Y0183111D01*
X0223750Y0187048D02*
X0223750Y0191386D01*
X0223750Y0195323D02*
X0223750Y0199661D01*
X0223750Y0203598D02*
X0223750Y0207935D01*
X0224472Y0225435D02*
X0228750Y0225435D01*
X0220535Y0225435D02*
X0216257Y0225435D01*
X0212320Y0225435D02*
X0208041Y0225435D01*
X0204104Y0225435D02*
X0199826Y0225435D01*
X0195889Y0225435D02*
X0191611Y0225435D01*
X0159757Y0233771D02*
X0159943Y0234494D01*
X0160143Y0235213D01*
X0160360Y0235928D01*
X0160591Y0236638D01*
X0160837Y0237343D01*
X0161099Y0238042D01*
X0163028Y0225435D02*
X0158750Y0225435D01*
X0166965Y0225435D02*
X0171243Y0225435D01*
X0175180Y0225435D02*
X0179459Y0225435D01*
X0183396Y0225435D02*
X0187674Y0225435D01*
X0167469Y0248551D02*
X0167968Y0249107D01*
X0168479Y0249651D01*
X0169001Y0250185D01*
X0169535Y0250707D01*
X0170079Y0251218D01*
X0170635Y0251717D01*
X0193750Y0252220D02*
X0193750Y0247942D01*
X0193750Y0244005D02*
X0193750Y0239727D01*
X0193750Y0235790D02*
X0193750Y0231512D01*
X0193750Y0227575D02*
X0193750Y0223296D01*
X0185414Y0191442D02*
X0184691Y0191628D01*
X0183972Y0191829D01*
X0183258Y0192045D01*
X0182548Y0192276D01*
X0181843Y0192523D01*
X0181144Y0192784D01*
X0193750Y0194714D02*
X0193750Y0190435D01*
X0193750Y0198651D02*
X0193750Y0202929D01*
X0193750Y0206866D02*
X0193750Y0211144D01*
X0193750Y0215081D02*
X0193750Y0219359D01*
X0202086Y0191442D02*
X0202809Y0191628D01*
X0203528Y0191829D01*
X0204242Y0192045D01*
X0204952Y0192276D01*
X0205657Y0192523D01*
X0206356Y0192784D01*
X0165041Y0205416D02*
X0164620Y0206033D01*
X0164213Y0206658D01*
X0163819Y0207292D01*
X0163439Y0207935D01*
X0163073Y0208585D01*
X0162720Y0209244D01*
X0163750Y0207935D02*
X0163750Y0203598D01*
X0163750Y0199661D02*
X0163750Y0195323D01*
X0163750Y0191386D02*
X0163750Y0187048D01*
X0163750Y0183111D02*
X0163750Y0178773D01*
X0163750Y0174836D02*
X0163750Y0170498D01*
X0156250Y0145435D02*
X0151972Y0145435D01*
X0148035Y0145435D02*
X0143757Y0145435D01*
X0139820Y0145435D02*
X0135541Y0145435D01*
X0131604Y0145435D02*
X0127326Y0145435D01*
X0147531Y0168551D02*
X0147032Y0169107D01*
X0146521Y0169651D01*
X0145999Y0170185D01*
X0145465Y0170707D01*
X0144921Y0171218D01*
X0144365Y0171717D01*
X0121250Y0172220D02*
X0121250Y0167942D01*
X0121250Y0164005D02*
X0121250Y0159727D01*
X0121250Y0155790D02*
X0121250Y0151512D01*
X0121250Y0147575D02*
X0121250Y0143296D01*
X0112914Y0111442D02*
X0112191Y0111628D01*
X0111472Y0111829D01*
X0110758Y0112045D01*
X0110048Y0112276D01*
X0109343Y0112523D01*
X0108644Y0112784D01*
X0121250Y0114714D02*
X0121250Y0110435D01*
X0121250Y0118651D02*
X0121250Y0122929D01*
X0121250Y0126866D02*
X0121250Y0131144D01*
X0121250Y0135081D02*
X0121250Y0139359D01*
X0129586Y0111442D02*
X0130309Y0111628D01*
X0131028Y0111829D01*
X0131742Y0112045D01*
X0132452Y0112276D01*
X0133157Y0112523D01*
X0133856Y0112784D01*
X0135266Y0090498D02*
X0131211Y0090498D01*
X0127274Y0090498D02*
X0123219Y0090498D01*
X0119281Y0090498D02*
X0115226Y0090498D01*
X0111289Y0090498D02*
X0107234Y0090498D01*
X0103297Y0090498D02*
X0099242Y0090498D01*
X0139203Y0090498D02*
X0143258Y0090498D01*
X0147195Y0090498D02*
X0151250Y0090498D01*
X0151250Y0094836D01*
X0151250Y0098773D02*
X0151250Y0103111D01*
X0151250Y0107048D02*
X0151250Y0111386D01*
X0151250Y0115323D02*
X0151250Y0119661D01*
X0151250Y0123598D02*
X0151250Y0127935D01*
X0172872Y0103119D02*
X0222085Y0103119D01*
X0222085Y0052187D01*
X0172872Y0052187D01*
X0172872Y0103119D01*
X0171169Y0097362D02*
X0171753Y0096778D01*
X0171753Y0095611D01*
X0171169Y0095027D01*
X0171753Y0093679D02*
X0168250Y0093679D01*
X0169418Y0092512D01*
X0168250Y0091344D01*
X0171753Y0091344D01*
X0171169Y0089996D02*
X0171753Y0089412D01*
X0171753Y0088245D01*
X0171169Y0087661D01*
X0170585Y0087661D01*
X0170001Y0088245D01*
X0170001Y0089412D01*
X0169418Y0089996D01*
X0168834Y0089996D01*
X0168250Y0089412D01*
X0168250Y0088245D01*
X0168834Y0087661D01*
X0168250Y0095027D02*
X0170585Y0097362D01*
X0171169Y0097362D01*
X0168250Y0097362D02*
X0168250Y0095027D01*
X0092541Y0125416D02*
X0092120Y0126033D01*
X0091713Y0126658D01*
X0091319Y0127292D01*
X0090939Y0127935D01*
X0090573Y0128585D01*
X0090220Y0129244D01*
X0087257Y0153771D02*
X0087443Y0154494D01*
X0087643Y0155213D01*
X0087860Y0155928D01*
X0088091Y0156638D01*
X0088337Y0157343D01*
X0088599Y0158042D01*
X0078750Y0170498D02*
X0074695Y0170498D01*
X0078750Y0170498D02*
X0078750Y0174836D01*
X0078750Y0178773D02*
X0078750Y0183111D01*
X0078750Y0187048D02*
X0078750Y0191386D01*
X0078750Y0195323D02*
X0078750Y0199661D01*
X0078750Y0203598D02*
X0078750Y0207935D01*
X0079472Y0225435D02*
X0083750Y0225435D01*
X0075535Y0225435D02*
X0071257Y0225435D01*
X0067320Y0225435D02*
X0063041Y0225435D01*
X0059104Y0225435D02*
X0054826Y0225435D01*
X0050889Y0225435D02*
X0046611Y0225435D01*
X0014757Y0233771D02*
X0014943Y0234494D01*
X0015143Y0235213D01*
X0015360Y0235928D01*
X0015591Y0236638D01*
X0015837Y0237343D01*
X0016099Y0238042D01*
X0018028Y0225435D02*
X0013750Y0225435D01*
X0021965Y0225435D02*
X0026243Y0225435D01*
X0030180Y0225435D02*
X0034459Y0225435D01*
X0038396Y0225435D02*
X0042674Y0225435D01*
X0022469Y0248551D02*
X0022968Y0249107D01*
X0023479Y0249651D01*
X0024001Y0250185D01*
X0024535Y0250707D01*
X0025079Y0251218D01*
X0025635Y0251717D01*
X0048750Y0252220D02*
X0048750Y0247942D01*
X0048750Y0244005D02*
X0048750Y0239727D01*
X0048750Y0235790D02*
X0048750Y0231512D01*
X0048750Y0227575D02*
X0048750Y0223296D01*
X0040414Y0191442D02*
X0039691Y0191628D01*
X0038972Y0191829D01*
X0038258Y0192045D01*
X0037548Y0192276D01*
X0036843Y0192523D01*
X0036144Y0192784D01*
X0048750Y0194714D02*
X0048750Y0190435D01*
X0048750Y0198651D02*
X0048750Y0202929D01*
X0048750Y0206866D02*
X0048750Y0211144D01*
X0048750Y0215081D02*
X0048750Y0219359D01*
X0057086Y0191442D02*
X0057809Y0191628D01*
X0058528Y0191829D01*
X0059242Y0192045D01*
X0059952Y0192276D01*
X0060657Y0192523D01*
X0061356Y0192784D01*
X0062766Y0170498D02*
X0058711Y0170498D01*
X0054774Y0170498D02*
X0050719Y0170498D01*
X0046781Y0170498D02*
X0042726Y0170498D01*
X0038789Y0170498D02*
X0034734Y0170498D01*
X0030797Y0170498D02*
X0026742Y0170498D01*
X0022805Y0170498D02*
X0018750Y0170498D01*
X0018750Y0174836D01*
X0018750Y0178773D02*
X0018750Y0183111D01*
X0018750Y0187048D02*
X0018750Y0191386D01*
X0018750Y0195323D02*
X0018750Y0199661D01*
X0018750Y0203598D02*
X0018750Y0207935D01*
X0017720Y0241627D02*
X0018073Y0242285D01*
X0018439Y0242936D01*
X0018819Y0243578D01*
X0019213Y0244213D01*
X0019620Y0244838D01*
X0020041Y0245455D01*
X0048750Y0256157D02*
X0048750Y0260435D01*
X0057085Y0259429D02*
X0057808Y0259243D01*
X0058527Y0259043D01*
X0059242Y0258826D01*
X0059952Y0258595D01*
X0060657Y0258349D01*
X0061356Y0258087D01*
X0071865Y0251717D02*
X0072421Y0251218D01*
X0072965Y0250707D01*
X0073499Y0250185D01*
X0074021Y0249651D01*
X0074532Y0249107D01*
X0075031Y0248551D01*
X0081401Y0238042D02*
X0081663Y0237343D01*
X0081909Y0236638D01*
X0082140Y0235928D01*
X0082357Y0235213D01*
X0082557Y0234494D01*
X0082743Y0233771D01*
X0083464Y0229903D02*
X0083551Y0229161D01*
X0083623Y0228418D01*
X0083678Y0227674D01*
X0083718Y0226928D01*
X0083742Y0226182D01*
X0083750Y0225436D01*
X0079780Y0241627D02*
X0079427Y0242285D01*
X0079061Y0242936D01*
X0078681Y0243578D01*
X0078287Y0244213D01*
X0077880Y0244838D01*
X0077459Y0245455D01*
X0053217Y0260150D02*
X0052475Y0260237D01*
X0051732Y0260309D01*
X0050988Y0260364D01*
X0050242Y0260404D01*
X0049496Y0260428D01*
X0048750Y0260436D01*
X0040415Y0259429D02*
X0039692Y0259243D01*
X0038973Y0259043D01*
X0038258Y0258826D01*
X0037548Y0258595D01*
X0036843Y0258349D01*
X0036144Y0258087D01*
X0044283Y0260150D02*
X0045025Y0260237D01*
X0045768Y0260309D01*
X0046512Y0260364D01*
X0047258Y0260404D01*
X0048004Y0260428D01*
X0048750Y0260436D01*
X0064941Y0256466D02*
X0065599Y0256113D01*
X0066250Y0255747D01*
X0066892Y0255367D01*
X0067527Y0254973D01*
X0068152Y0254566D01*
X0068769Y0254145D01*
X0032559Y0256466D02*
X0031901Y0256113D01*
X0031250Y0255747D01*
X0030608Y0255367D01*
X0029973Y0254973D01*
X0029348Y0254566D01*
X0028731Y0254145D01*
X0014036Y0229903D02*
X0013949Y0229161D01*
X0013877Y0228418D01*
X0013822Y0227674D01*
X0013782Y0226928D01*
X0013758Y0226182D01*
X0013750Y0225436D01*
X0048750Y0190435D02*
X0049497Y0190443D01*
X0050243Y0190467D01*
X0050988Y0190507D01*
X0051733Y0190562D01*
X0052476Y0190634D01*
X0053217Y0190721D01*
X0066703Y0170498D02*
X0070758Y0170498D01*
X0020041Y0205416D02*
X0019620Y0206033D01*
X0019213Y0206658D01*
X0018819Y0207292D01*
X0018439Y0207935D01*
X0018073Y0208585D01*
X0017720Y0209244D01*
X0077459Y0205416D02*
X0077880Y0206033D01*
X0078287Y0206658D01*
X0078681Y0207292D01*
X0079061Y0207935D01*
X0079427Y0208585D01*
X0079780Y0209244D01*
X0048750Y0190435D02*
X0048003Y0190443D01*
X0047257Y0190467D01*
X0046512Y0190507D01*
X0045767Y0190562D01*
X0045024Y0190634D01*
X0044283Y0190721D01*
X0025635Y0199154D02*
X0025079Y0199653D01*
X0024535Y0200164D01*
X0024001Y0200686D01*
X0023479Y0201220D01*
X0022968Y0201764D01*
X0022469Y0202320D01*
X0071865Y0199154D02*
X0072421Y0199653D01*
X0072965Y0200164D01*
X0073499Y0200686D01*
X0074021Y0201220D01*
X0074532Y0201764D01*
X0075031Y0202320D01*
X0045215Y0225435D02*
X0045217Y0225554D01*
X0045223Y0225672D01*
X0045233Y0225791D01*
X0045247Y0225909D01*
X0045265Y0226026D01*
X0045287Y0226143D01*
X0045312Y0226259D01*
X0045342Y0226374D01*
X0045375Y0226488D01*
X0045413Y0226601D01*
X0045454Y0226712D01*
X0045498Y0226822D01*
X0045547Y0226930D01*
X0045599Y0227037D01*
X0045655Y0227142D01*
X0045714Y0227245D01*
X0045776Y0227346D01*
X0045842Y0227445D01*
X0045911Y0227542D01*
X0045984Y0227636D01*
X0046059Y0227727D01*
X0046138Y0227817D01*
X0046219Y0227903D01*
X0046303Y0227987D01*
X0046391Y0228067D01*
X0046480Y0228145D01*
X0046573Y0228220D01*
X0046667Y0228291D01*
X0046765Y0228360D01*
X0046864Y0228425D01*
X0046965Y0228486D01*
X0047069Y0228545D01*
X0047174Y0228599D01*
X0047282Y0228651D01*
X0047390Y0228698D01*
X0047501Y0228742D01*
X0047613Y0228782D01*
X0047726Y0228818D01*
X0047840Y0228851D01*
X0047955Y0228879D01*
X0048071Y0228904D01*
X0048188Y0228925D01*
X0048306Y0228942D01*
X0048424Y0228955D01*
X0048542Y0228964D01*
X0048661Y0228969D01*
X0048780Y0228970D01*
X0048898Y0228967D01*
X0049017Y0228960D01*
X0049135Y0228949D01*
X0049253Y0228934D01*
X0049370Y0228915D01*
X0049487Y0228892D01*
X0049603Y0228866D01*
X0049717Y0228835D01*
X0049831Y0228801D01*
X0049944Y0228762D01*
X0050055Y0228720D01*
X0050164Y0228675D01*
X0050272Y0228625D01*
X0050379Y0228572D01*
X0050483Y0228516D01*
X0050586Y0228456D01*
X0050686Y0228393D01*
X0050784Y0228326D01*
X0050880Y0228256D01*
X0050974Y0228183D01*
X0051065Y0228107D01*
X0051153Y0228027D01*
X0051239Y0227945D01*
X0051322Y0227860D01*
X0051402Y0227772D01*
X0051479Y0227682D01*
X0051553Y0227589D01*
X0051624Y0227494D01*
X0051691Y0227396D01*
X0051756Y0227296D01*
X0051816Y0227194D01*
X0051874Y0227090D01*
X0051928Y0226984D01*
X0051978Y0226876D01*
X0052024Y0226767D01*
X0052067Y0226656D01*
X0052106Y0226544D01*
X0052142Y0226431D01*
X0052173Y0226316D01*
X0052201Y0226201D01*
X0052225Y0226085D01*
X0052245Y0225967D01*
X0052261Y0225850D01*
X0052273Y0225732D01*
X0052281Y0225613D01*
X0052285Y0225494D01*
X0052285Y0225376D01*
X0052281Y0225257D01*
X0052273Y0225138D01*
X0052261Y0225020D01*
X0052245Y0224903D01*
X0052225Y0224785D01*
X0052201Y0224669D01*
X0052173Y0224554D01*
X0052142Y0224439D01*
X0052106Y0224326D01*
X0052067Y0224214D01*
X0052024Y0224103D01*
X0051978Y0223994D01*
X0051928Y0223886D01*
X0051874Y0223780D01*
X0051816Y0223676D01*
X0051756Y0223574D01*
X0051691Y0223474D01*
X0051624Y0223376D01*
X0051553Y0223281D01*
X0051479Y0223188D01*
X0051402Y0223098D01*
X0051322Y0223010D01*
X0051239Y0222925D01*
X0051153Y0222843D01*
X0051065Y0222763D01*
X0050974Y0222687D01*
X0050880Y0222614D01*
X0050784Y0222544D01*
X0050686Y0222477D01*
X0050586Y0222414D01*
X0050483Y0222354D01*
X0050379Y0222298D01*
X0050272Y0222245D01*
X0050164Y0222195D01*
X0050055Y0222150D01*
X0049944Y0222108D01*
X0049831Y0222069D01*
X0049717Y0222035D01*
X0049603Y0222004D01*
X0049487Y0221978D01*
X0049370Y0221955D01*
X0049253Y0221936D01*
X0049135Y0221921D01*
X0049017Y0221910D01*
X0048898Y0221903D01*
X0048780Y0221900D01*
X0048661Y0221901D01*
X0048542Y0221906D01*
X0048424Y0221915D01*
X0048306Y0221928D01*
X0048188Y0221945D01*
X0048071Y0221966D01*
X0047955Y0221991D01*
X0047840Y0222019D01*
X0047726Y0222052D01*
X0047613Y0222088D01*
X0047501Y0222128D01*
X0047390Y0222172D01*
X0047282Y0222219D01*
X0047174Y0222271D01*
X0047069Y0222325D01*
X0046965Y0222384D01*
X0046864Y0222445D01*
X0046765Y0222510D01*
X0046667Y0222579D01*
X0046573Y0222650D01*
X0046480Y0222725D01*
X0046391Y0222803D01*
X0046303Y0222883D01*
X0046219Y0222967D01*
X0046138Y0223053D01*
X0046059Y0223143D01*
X0045984Y0223234D01*
X0045911Y0223328D01*
X0045842Y0223425D01*
X0045776Y0223524D01*
X0045714Y0223625D01*
X0045655Y0223728D01*
X0045599Y0223833D01*
X0045547Y0223940D01*
X0045498Y0224048D01*
X0045454Y0224158D01*
X0045413Y0224269D01*
X0045375Y0224382D01*
X0045342Y0224496D01*
X0045312Y0224611D01*
X0045287Y0224727D01*
X0045265Y0224844D01*
X0045247Y0224961D01*
X0045233Y0225079D01*
X0045223Y0225198D01*
X0045217Y0225316D01*
X0045215Y0225435D01*
X0014757Y0217099D02*
X0014943Y0216376D01*
X0015144Y0215657D01*
X0015360Y0214943D01*
X0015591Y0214233D01*
X0015838Y0213528D01*
X0016099Y0212829D01*
X0083464Y0220968D02*
X0083551Y0221709D01*
X0083623Y0222452D01*
X0083678Y0223197D01*
X0083718Y0223942D01*
X0083742Y0224688D01*
X0083750Y0225435D01*
X0014036Y0220968D02*
X0013949Y0221709D01*
X0013877Y0222452D01*
X0013822Y0223197D01*
X0013782Y0223942D01*
X0013758Y0224688D01*
X0013750Y0225435D01*
X0064941Y0194405D02*
X0065600Y0194758D01*
X0066250Y0195124D01*
X0066893Y0195504D01*
X0067527Y0195898D01*
X0068152Y0196305D01*
X0068769Y0196726D01*
X0032559Y0194405D02*
X0031900Y0194758D01*
X0031250Y0195124D01*
X0030607Y0195504D01*
X0029973Y0195898D01*
X0029348Y0196305D01*
X0028731Y0196726D01*
X0081401Y0212829D02*
X0081662Y0213528D01*
X0081909Y0214233D01*
X0082140Y0214943D01*
X0082356Y0215657D01*
X0082557Y0216376D01*
X0082743Y0217099D01*
X0121250Y0180435D02*
X0121250Y0176157D01*
X0129585Y0179429D02*
X0130308Y0179243D01*
X0131027Y0179043D01*
X0131742Y0178826D01*
X0132452Y0178595D01*
X0133157Y0178349D01*
X0133856Y0178087D01*
X0155964Y0149903D02*
X0156051Y0149161D01*
X0156123Y0148418D01*
X0156178Y0147674D01*
X0156218Y0146928D01*
X0156242Y0146182D01*
X0156250Y0145436D01*
X0152280Y0161627D02*
X0151927Y0162285D01*
X0151561Y0162936D01*
X0151181Y0163578D01*
X0150787Y0164213D01*
X0150380Y0164838D01*
X0149959Y0165455D01*
X0125717Y0180150D02*
X0124975Y0180237D01*
X0124232Y0180309D01*
X0123488Y0180364D01*
X0122742Y0180404D01*
X0121996Y0180428D01*
X0121250Y0180436D01*
X0112915Y0179429D02*
X0112192Y0179243D01*
X0111473Y0179043D01*
X0110758Y0178826D01*
X0110048Y0178595D01*
X0109343Y0178349D01*
X0108644Y0178087D01*
X0098135Y0171717D02*
X0097579Y0171218D01*
X0097035Y0170707D01*
X0096501Y0170185D01*
X0095979Y0169651D01*
X0095468Y0169107D01*
X0094969Y0168551D01*
X0116783Y0180150D02*
X0117525Y0180237D01*
X0118268Y0180309D01*
X0119012Y0180364D01*
X0119758Y0180404D01*
X0120504Y0180428D01*
X0121250Y0180436D01*
X0137441Y0176466D02*
X0138099Y0176113D01*
X0138750Y0175747D01*
X0139392Y0175367D01*
X0140027Y0174973D01*
X0140652Y0174566D01*
X0141269Y0174145D01*
X0105059Y0176466D02*
X0104401Y0176113D01*
X0103750Y0175747D01*
X0103108Y0175367D01*
X0102473Y0174973D01*
X0101848Y0174566D01*
X0101231Y0174145D01*
X0086536Y0149903D02*
X0086449Y0149161D01*
X0086377Y0148418D01*
X0086322Y0147674D01*
X0086282Y0146928D01*
X0086258Y0146182D01*
X0086250Y0145436D01*
X0090220Y0161627D02*
X0090573Y0162285D01*
X0090939Y0162936D01*
X0091319Y0163578D01*
X0091713Y0164213D01*
X0092120Y0164838D01*
X0092541Y0165455D01*
X0087257Y0137099D02*
X0087443Y0136376D01*
X0087644Y0135657D01*
X0087860Y0134943D01*
X0088091Y0134233D01*
X0088338Y0133528D01*
X0088599Y0132829D01*
X0121250Y0110435D02*
X0121997Y0110443D01*
X0122743Y0110467D01*
X0123488Y0110507D01*
X0124233Y0110562D01*
X0124976Y0110634D01*
X0125717Y0110721D01*
X0098135Y0119154D02*
X0097579Y0119653D01*
X0097035Y0120164D01*
X0096501Y0120686D01*
X0095979Y0121220D01*
X0095468Y0121764D01*
X0094969Y0122320D01*
X0149959Y0125416D02*
X0150380Y0126033D01*
X0150787Y0126658D01*
X0151181Y0127292D01*
X0151561Y0127935D01*
X0151927Y0128585D01*
X0152280Y0129244D01*
X0121250Y0110435D02*
X0120503Y0110443D01*
X0119757Y0110467D01*
X0119012Y0110507D01*
X0118267Y0110562D01*
X0117524Y0110634D01*
X0116783Y0110721D01*
X0144365Y0119154D02*
X0144921Y0119653D01*
X0145465Y0120164D01*
X0145999Y0120686D01*
X0146521Y0121220D01*
X0147032Y0121764D01*
X0147531Y0122320D01*
X0117715Y0145435D02*
X0117717Y0145554D01*
X0117723Y0145672D01*
X0117733Y0145791D01*
X0117747Y0145909D01*
X0117765Y0146026D01*
X0117787Y0146143D01*
X0117812Y0146259D01*
X0117842Y0146374D01*
X0117875Y0146488D01*
X0117913Y0146601D01*
X0117954Y0146712D01*
X0117998Y0146822D01*
X0118047Y0146930D01*
X0118099Y0147037D01*
X0118155Y0147142D01*
X0118214Y0147245D01*
X0118276Y0147346D01*
X0118342Y0147445D01*
X0118411Y0147542D01*
X0118484Y0147636D01*
X0118559Y0147727D01*
X0118638Y0147817D01*
X0118719Y0147903D01*
X0118803Y0147987D01*
X0118891Y0148067D01*
X0118980Y0148145D01*
X0119073Y0148220D01*
X0119167Y0148291D01*
X0119265Y0148360D01*
X0119364Y0148425D01*
X0119465Y0148486D01*
X0119569Y0148545D01*
X0119674Y0148599D01*
X0119782Y0148651D01*
X0119890Y0148698D01*
X0120001Y0148742D01*
X0120113Y0148782D01*
X0120226Y0148818D01*
X0120340Y0148851D01*
X0120455Y0148879D01*
X0120571Y0148904D01*
X0120688Y0148925D01*
X0120806Y0148942D01*
X0120924Y0148955D01*
X0121042Y0148964D01*
X0121161Y0148969D01*
X0121280Y0148970D01*
X0121398Y0148967D01*
X0121517Y0148960D01*
X0121635Y0148949D01*
X0121753Y0148934D01*
X0121870Y0148915D01*
X0121987Y0148892D01*
X0122103Y0148866D01*
X0122217Y0148835D01*
X0122331Y0148801D01*
X0122444Y0148762D01*
X0122555Y0148720D01*
X0122664Y0148675D01*
X0122772Y0148625D01*
X0122879Y0148572D01*
X0122983Y0148516D01*
X0123086Y0148456D01*
X0123186Y0148393D01*
X0123284Y0148326D01*
X0123380Y0148256D01*
X0123474Y0148183D01*
X0123565Y0148107D01*
X0123653Y0148027D01*
X0123739Y0147945D01*
X0123822Y0147860D01*
X0123902Y0147772D01*
X0123979Y0147682D01*
X0124053Y0147589D01*
X0124124Y0147494D01*
X0124191Y0147396D01*
X0124256Y0147296D01*
X0124316Y0147194D01*
X0124374Y0147090D01*
X0124428Y0146984D01*
X0124478Y0146876D01*
X0124524Y0146767D01*
X0124567Y0146656D01*
X0124606Y0146544D01*
X0124642Y0146431D01*
X0124673Y0146316D01*
X0124701Y0146201D01*
X0124725Y0146085D01*
X0124745Y0145967D01*
X0124761Y0145850D01*
X0124773Y0145732D01*
X0124781Y0145613D01*
X0124785Y0145494D01*
X0124785Y0145376D01*
X0124781Y0145257D01*
X0124773Y0145138D01*
X0124761Y0145020D01*
X0124745Y0144903D01*
X0124725Y0144785D01*
X0124701Y0144669D01*
X0124673Y0144554D01*
X0124642Y0144439D01*
X0124606Y0144326D01*
X0124567Y0144214D01*
X0124524Y0144103D01*
X0124478Y0143994D01*
X0124428Y0143886D01*
X0124374Y0143780D01*
X0124316Y0143676D01*
X0124256Y0143574D01*
X0124191Y0143474D01*
X0124124Y0143376D01*
X0124053Y0143281D01*
X0123979Y0143188D01*
X0123902Y0143098D01*
X0123822Y0143010D01*
X0123739Y0142925D01*
X0123653Y0142843D01*
X0123565Y0142763D01*
X0123474Y0142687D01*
X0123380Y0142614D01*
X0123284Y0142544D01*
X0123186Y0142477D01*
X0123086Y0142414D01*
X0122983Y0142354D01*
X0122879Y0142298D01*
X0122772Y0142245D01*
X0122664Y0142195D01*
X0122555Y0142150D01*
X0122444Y0142108D01*
X0122331Y0142069D01*
X0122217Y0142035D01*
X0122103Y0142004D01*
X0121987Y0141978D01*
X0121870Y0141955D01*
X0121753Y0141936D01*
X0121635Y0141921D01*
X0121517Y0141910D01*
X0121398Y0141903D01*
X0121280Y0141900D01*
X0121161Y0141901D01*
X0121042Y0141906D01*
X0120924Y0141915D01*
X0120806Y0141928D01*
X0120688Y0141945D01*
X0120571Y0141966D01*
X0120455Y0141991D01*
X0120340Y0142019D01*
X0120226Y0142052D01*
X0120113Y0142088D01*
X0120001Y0142128D01*
X0119890Y0142172D01*
X0119782Y0142219D01*
X0119674Y0142271D01*
X0119569Y0142325D01*
X0119465Y0142384D01*
X0119364Y0142445D01*
X0119265Y0142510D01*
X0119167Y0142579D01*
X0119073Y0142650D01*
X0118980Y0142725D01*
X0118891Y0142803D01*
X0118803Y0142883D01*
X0118719Y0142967D01*
X0118638Y0143053D01*
X0118559Y0143143D01*
X0118484Y0143234D01*
X0118411Y0143328D01*
X0118342Y0143425D01*
X0118276Y0143524D01*
X0118214Y0143625D01*
X0118155Y0143728D01*
X0118099Y0143833D01*
X0118047Y0143940D01*
X0117998Y0144048D01*
X0117954Y0144158D01*
X0117913Y0144269D01*
X0117875Y0144382D01*
X0117842Y0144496D01*
X0117812Y0144611D01*
X0117787Y0144727D01*
X0117765Y0144844D01*
X0117747Y0144961D01*
X0117733Y0145079D01*
X0117723Y0145198D01*
X0117717Y0145316D01*
X0117715Y0145435D01*
X0155964Y0140968D02*
X0156051Y0141709D01*
X0156123Y0142452D01*
X0156178Y0143197D01*
X0156218Y0143942D01*
X0156242Y0144688D01*
X0156250Y0145435D01*
X0086536Y0140968D02*
X0086449Y0141709D01*
X0086377Y0142452D01*
X0086322Y0143197D01*
X0086282Y0143942D01*
X0086258Y0144688D01*
X0086250Y0145435D01*
X0137441Y0114405D02*
X0138100Y0114758D01*
X0138750Y0115124D01*
X0139393Y0115504D01*
X0140027Y0115898D01*
X0140652Y0116305D01*
X0141269Y0116726D01*
X0105059Y0114405D02*
X0104400Y0114758D01*
X0103750Y0115124D01*
X0103107Y0115504D01*
X0102473Y0115898D01*
X0101848Y0116305D01*
X0101231Y0116726D01*
X0153901Y0132829D02*
X0154162Y0133528D01*
X0154409Y0134233D01*
X0154640Y0134943D01*
X0154856Y0135657D01*
X0155057Y0136376D01*
X0155243Y0137099D01*
X0216865Y0199154D02*
X0217421Y0199653D01*
X0217965Y0200164D01*
X0218499Y0200686D01*
X0219021Y0201220D01*
X0219532Y0201764D01*
X0220031Y0202320D01*
X0227743Y0233771D02*
X0227557Y0234494D01*
X0227357Y0235213D01*
X0227140Y0235928D01*
X0226909Y0236638D01*
X0226663Y0237343D01*
X0226401Y0238042D01*
X0220031Y0248551D02*
X0219532Y0249107D01*
X0219021Y0249651D01*
X0218499Y0250185D01*
X0217965Y0250707D01*
X0217421Y0251218D01*
X0216865Y0251717D01*
X0193750Y0256157D02*
X0193750Y0260435D01*
X0202085Y0259429D02*
X0202808Y0259243D01*
X0203527Y0259043D01*
X0204242Y0258826D01*
X0204952Y0258595D01*
X0205657Y0258349D01*
X0206356Y0258087D01*
X0228464Y0229903D02*
X0228551Y0229161D01*
X0228623Y0228418D01*
X0228678Y0227674D01*
X0228718Y0226928D01*
X0228742Y0226182D01*
X0228750Y0225436D01*
X0224780Y0241627D02*
X0224427Y0242285D01*
X0224061Y0242936D01*
X0223681Y0243578D01*
X0223287Y0244213D01*
X0222880Y0244838D01*
X0222459Y0245455D01*
X0198217Y0260150D02*
X0197475Y0260237D01*
X0196732Y0260309D01*
X0195988Y0260364D01*
X0195242Y0260404D01*
X0194496Y0260428D01*
X0193750Y0260436D01*
X0185415Y0259429D02*
X0184692Y0259243D01*
X0183973Y0259043D01*
X0183258Y0258826D01*
X0182548Y0258595D01*
X0181843Y0258349D01*
X0181144Y0258087D01*
X0189283Y0260150D02*
X0190025Y0260237D01*
X0190768Y0260309D01*
X0191512Y0260364D01*
X0192258Y0260404D01*
X0193004Y0260428D01*
X0193750Y0260436D01*
X0209941Y0256466D02*
X0210599Y0256113D01*
X0211250Y0255747D01*
X0211892Y0255367D01*
X0212527Y0254973D01*
X0213152Y0254566D01*
X0213769Y0254145D01*
X0177559Y0256466D02*
X0176901Y0256113D01*
X0176250Y0255747D01*
X0175608Y0255367D01*
X0174973Y0254973D01*
X0174348Y0254566D01*
X0173731Y0254145D01*
X0159036Y0229903D02*
X0158949Y0229161D01*
X0158877Y0228418D01*
X0158822Y0227674D01*
X0158782Y0226928D01*
X0158758Y0226182D01*
X0158750Y0225436D01*
X0162720Y0241627D02*
X0163073Y0242285D01*
X0163439Y0242936D01*
X0163819Y0243578D01*
X0164213Y0244213D01*
X0164620Y0244838D01*
X0165041Y0245455D01*
X0159757Y0217099D02*
X0159943Y0216376D01*
X0160144Y0215657D01*
X0160360Y0214943D01*
X0160591Y0214233D01*
X0160838Y0213528D01*
X0161099Y0212829D01*
X0193750Y0190435D02*
X0194497Y0190443D01*
X0195243Y0190467D01*
X0195988Y0190507D01*
X0196733Y0190562D01*
X0197476Y0190634D01*
X0198217Y0190721D01*
X0170635Y0199154D02*
X0170079Y0199653D01*
X0169535Y0200164D01*
X0169001Y0200686D01*
X0168479Y0201220D01*
X0167968Y0201764D01*
X0167469Y0202320D01*
X0222459Y0205416D02*
X0222880Y0206033D01*
X0223287Y0206658D01*
X0223681Y0207292D01*
X0224061Y0207935D01*
X0224427Y0208585D01*
X0224780Y0209244D01*
X0193750Y0190435D02*
X0193003Y0190443D01*
X0192257Y0190467D01*
X0191512Y0190507D01*
X0190767Y0190562D01*
X0190024Y0190634D01*
X0189283Y0190721D01*
X0190215Y0225435D02*
X0190217Y0225554D01*
X0190223Y0225672D01*
X0190233Y0225791D01*
X0190247Y0225909D01*
X0190265Y0226026D01*
X0190287Y0226143D01*
X0190312Y0226259D01*
X0190342Y0226374D01*
X0190375Y0226488D01*
X0190413Y0226601D01*
X0190454Y0226712D01*
X0190498Y0226822D01*
X0190547Y0226930D01*
X0190599Y0227037D01*
X0190655Y0227142D01*
X0190714Y0227245D01*
X0190776Y0227346D01*
X0190842Y0227445D01*
X0190911Y0227542D01*
X0190984Y0227636D01*
X0191059Y0227727D01*
X0191138Y0227817D01*
X0191219Y0227903D01*
X0191303Y0227987D01*
X0191391Y0228067D01*
X0191480Y0228145D01*
X0191573Y0228220D01*
X0191667Y0228291D01*
X0191765Y0228360D01*
X0191864Y0228425D01*
X0191965Y0228486D01*
X0192069Y0228545D01*
X0192174Y0228599D01*
X0192282Y0228651D01*
X0192390Y0228698D01*
X0192501Y0228742D01*
X0192613Y0228782D01*
X0192726Y0228818D01*
X0192840Y0228851D01*
X0192955Y0228879D01*
X0193071Y0228904D01*
X0193188Y0228925D01*
X0193306Y0228942D01*
X0193424Y0228955D01*
X0193542Y0228964D01*
X0193661Y0228969D01*
X0193780Y0228970D01*
X0193898Y0228967D01*
X0194017Y0228960D01*
X0194135Y0228949D01*
X0194253Y0228934D01*
X0194370Y0228915D01*
X0194487Y0228892D01*
X0194603Y0228866D01*
X0194717Y0228835D01*
X0194831Y0228801D01*
X0194944Y0228762D01*
X0195055Y0228720D01*
X0195164Y0228675D01*
X0195272Y0228625D01*
X0195379Y0228572D01*
X0195483Y0228516D01*
X0195586Y0228456D01*
X0195686Y0228393D01*
X0195784Y0228326D01*
X0195880Y0228256D01*
X0195974Y0228183D01*
X0196065Y0228107D01*
X0196153Y0228027D01*
X0196239Y0227945D01*
X0196322Y0227860D01*
X0196402Y0227772D01*
X0196479Y0227682D01*
X0196553Y0227589D01*
X0196624Y0227494D01*
X0196691Y0227396D01*
X0196756Y0227296D01*
X0196816Y0227194D01*
X0196874Y0227090D01*
X0196928Y0226984D01*
X0196978Y0226876D01*
X0197024Y0226767D01*
X0197067Y0226656D01*
X0197106Y0226544D01*
X0197142Y0226431D01*
X0197173Y0226316D01*
X0197201Y0226201D01*
X0197225Y0226085D01*
X0197245Y0225967D01*
X0197261Y0225850D01*
X0197273Y0225732D01*
X0197281Y0225613D01*
X0197285Y0225494D01*
X0197285Y0225376D01*
X0197281Y0225257D01*
X0197273Y0225138D01*
X0197261Y0225020D01*
X0197245Y0224903D01*
X0197225Y0224785D01*
X0197201Y0224669D01*
X0197173Y0224554D01*
X0197142Y0224439D01*
X0197106Y0224326D01*
X0197067Y0224214D01*
X0197024Y0224103D01*
X0196978Y0223994D01*
X0196928Y0223886D01*
X0196874Y0223780D01*
X0196816Y0223676D01*
X0196756Y0223574D01*
X0196691Y0223474D01*
X0196624Y0223376D01*
X0196553Y0223281D01*
X0196479Y0223188D01*
X0196402Y0223098D01*
X0196322Y0223010D01*
X0196239Y0222925D01*
X0196153Y0222843D01*
X0196065Y0222763D01*
X0195974Y0222687D01*
X0195880Y0222614D01*
X0195784Y0222544D01*
X0195686Y0222477D01*
X0195586Y0222414D01*
X0195483Y0222354D01*
X0195379Y0222298D01*
X0195272Y0222245D01*
X0195164Y0222195D01*
X0195055Y0222150D01*
X0194944Y0222108D01*
X0194831Y0222069D01*
X0194717Y0222035D01*
X0194603Y0222004D01*
X0194487Y0221978D01*
X0194370Y0221955D01*
X0194253Y0221936D01*
X0194135Y0221921D01*
X0194017Y0221910D01*
X0193898Y0221903D01*
X0193780Y0221900D01*
X0193661Y0221901D01*
X0193542Y0221906D01*
X0193424Y0221915D01*
X0193306Y0221928D01*
X0193188Y0221945D01*
X0193071Y0221966D01*
X0192955Y0221991D01*
X0192840Y0222019D01*
X0192726Y0222052D01*
X0192613Y0222088D01*
X0192501Y0222128D01*
X0192390Y0222172D01*
X0192282Y0222219D01*
X0192174Y0222271D01*
X0192069Y0222325D01*
X0191965Y0222384D01*
X0191864Y0222445D01*
X0191765Y0222510D01*
X0191667Y0222579D01*
X0191573Y0222650D01*
X0191480Y0222725D01*
X0191391Y0222803D01*
X0191303Y0222883D01*
X0191219Y0222967D01*
X0191138Y0223053D01*
X0191059Y0223143D01*
X0190984Y0223234D01*
X0190911Y0223328D01*
X0190842Y0223425D01*
X0190776Y0223524D01*
X0190714Y0223625D01*
X0190655Y0223728D01*
X0190599Y0223833D01*
X0190547Y0223940D01*
X0190498Y0224048D01*
X0190454Y0224158D01*
X0190413Y0224269D01*
X0190375Y0224382D01*
X0190342Y0224496D01*
X0190312Y0224611D01*
X0190287Y0224727D01*
X0190265Y0224844D01*
X0190247Y0224961D01*
X0190233Y0225079D01*
X0190223Y0225198D01*
X0190217Y0225316D01*
X0190215Y0225435D01*
X0228464Y0220968D02*
X0228551Y0221709D01*
X0228623Y0222452D01*
X0228678Y0223197D01*
X0228718Y0223942D01*
X0228742Y0224688D01*
X0228750Y0225435D01*
X0159036Y0220968D02*
X0158949Y0221709D01*
X0158877Y0222452D01*
X0158822Y0223197D01*
X0158782Y0223942D01*
X0158758Y0224688D01*
X0158750Y0225435D01*
X0209941Y0194405D02*
X0210600Y0194758D01*
X0211250Y0195124D01*
X0211893Y0195504D01*
X0212527Y0195898D01*
X0213152Y0196305D01*
X0213769Y0196726D01*
X0177559Y0194405D02*
X0176900Y0194758D01*
X0176250Y0195124D01*
X0175607Y0195504D01*
X0174973Y0195898D01*
X0174348Y0196305D01*
X0173731Y0196726D01*
X0226401Y0212829D02*
X0226662Y0213528D01*
X0226909Y0214233D01*
X0227140Y0214943D01*
X0227356Y0215657D01*
X0227557Y0216376D01*
X0227743Y0217099D01*
X0120020Y0274402D02*
X0119703Y0274085D01*
X0119386Y0274085D01*
X0119069Y0274402D01*
X0119069Y0275987D01*
X0119386Y0275987D02*
X0118752Y0275987D01*
X0117810Y0275670D02*
X0117493Y0275987D01*
X0116859Y0275987D01*
X0116542Y0275670D01*
X0116542Y0275353D01*
X0117810Y0274085D01*
X0116542Y0274085D01*
D11*
X0063062Y0180639D02*
X0061595Y0180639D01*
X0060861Y0179905D01*
X0061595Y0178437D02*
X0060861Y0177703D01*
X0060861Y0176969D01*
X0061595Y0176235D01*
X0063062Y0176235D01*
X0063796Y0176969D01*
X0063062Y0178437D02*
X0061595Y0178437D01*
X0063062Y0178437D02*
X0063796Y0179171D01*
X0063796Y0179905D01*
X0063062Y0180639D01*
X0059193Y0180639D02*
X0059193Y0176969D01*
X0058459Y0176235D01*
X0056991Y0176235D01*
X0056257Y0176969D01*
X0056257Y0180639D01*
X0054589Y0179905D02*
X0054589Y0179171D01*
X0053855Y0178437D01*
X0052387Y0178437D01*
X0051653Y0177703D01*
X0051653Y0176969D01*
X0052387Y0176235D01*
X0053855Y0176235D01*
X0054589Y0176969D01*
X0054589Y0179905D02*
X0053855Y0180639D01*
X0052387Y0180639D01*
X0051653Y0179905D01*
X0049985Y0180639D02*
X0047049Y0180639D01*
X0048517Y0180639D02*
X0048517Y0176235D01*
X0045381Y0176235D02*
X0045381Y0179171D01*
X0043913Y0180639D01*
X0042445Y0179171D01*
X0042445Y0176235D01*
X0040777Y0176235D02*
X0039309Y0176235D01*
X0040043Y0176235D02*
X0040043Y0180639D01*
X0040777Y0180639D02*
X0039309Y0180639D01*
X0037708Y0180639D02*
X0034772Y0176235D01*
X0034772Y0180639D01*
X0037708Y0180639D02*
X0037708Y0176235D01*
X0042445Y0178437D02*
X0045381Y0178437D01*
X0113410Y0100639D02*
X0116346Y0100639D01*
X0116346Y0096235D01*
X0113410Y0096235D01*
X0114878Y0098437D02*
X0116346Y0098437D01*
X0118014Y0096235D02*
X0118014Y0100639D01*
X0120950Y0100639D02*
X0118014Y0096235D01*
X0120950Y0096235D02*
X0120950Y0100639D01*
X0122618Y0099905D02*
X0122618Y0096969D01*
X0123352Y0096235D01*
X0124820Y0096235D01*
X0125554Y0096969D01*
X0125554Y0099905D01*
X0124820Y0100639D01*
X0123352Y0100639D01*
X0122618Y0099905D01*
X0127222Y0100639D02*
X0130158Y0100639D01*
X0128690Y0100639D02*
X0128690Y0096235D01*
X0181306Y0176235D02*
X0184242Y0176235D01*
X0184242Y0180639D01*
X0181306Y0180639D01*
X0182774Y0178437D02*
X0184242Y0178437D01*
X0185910Y0180639D02*
X0185910Y0176235D01*
X0188846Y0176235D02*
X0188846Y0180639D01*
X0187378Y0179171D01*
X0185910Y0180639D01*
X0190514Y0180639D02*
X0190514Y0176969D01*
X0191248Y0176235D01*
X0192716Y0176235D01*
X0193450Y0176969D01*
X0193450Y0180639D01*
X0198054Y0180639D02*
X0198054Y0176235D01*
X0195118Y0176235D01*
X0199722Y0176969D02*
X0199722Y0179905D01*
X0200456Y0180639D01*
X0201924Y0180639D01*
X0202658Y0179905D01*
X0202658Y0176969D01*
X0201924Y0176235D01*
X0200456Y0176235D01*
X0199722Y0176969D01*
X0204326Y0177703D02*
X0204326Y0180639D01*
X0204326Y0177703D02*
X0205794Y0176235D01*
X0207262Y0177703D01*
X0207262Y0180639D01*
D12*
X0237283Y0002935D02*
X0005000Y0002935D01*
X0005000Y0255967D01*
X0026654Y0255967D01*
X0026654Y0283526D01*
X0215630Y0283526D01*
X0215630Y0255967D01*
X0237283Y0255967D01*
X0237283Y0002935D01*
D13*
X0138967Y0229498D02*
X0130699Y0229498D01*
X0138967Y0229498D02*
X0138967Y0232254D01*
X0138950Y0232235D02*
X0138950Y0251610D01*
X0138967Y0250758D02*
X0138967Y0271624D01*
X0103533Y0271624D01*
X0103533Y0229498D01*
X0111801Y0229498D01*
M02*
