G75*
%MOIN*%
%OFA0B0*%
%FSLAX25Y25*%
%IPPOS*%
%LPD*%
%AMOC8*
5,1,8,0,0,1.08239X$1,22.5*
%
%ADD10C,0.08268*%
%ADD11C,0.04724*%
%ADD12R,0.04724X0.04724*%
%ADD13C,0.04331*%
%ADD14R,0.04331X0.04331*%
%ADD15C,0.03937*%
%ADD16R,0.03937X0.03937*%
%ADD17R,0.06299X0.06299*%
%ADD18C,0.06299*%
%ADD19C,0.13843*%
%ADD20C,0.05512*%
%ADD21C,0.00000*%
%ADD22C,0.01600*%
%ADD23C,0.01000*%
%ADD24R,0.03562X0.03562*%
%ADD25C,0.03200*%
D10*
X0034425Y0215613D03*
X0034425Y0240613D03*
X0034425Y0265613D03*
X0098323Y0265613D03*
X0098323Y0240613D03*
X0098323Y0215613D03*
X0143926Y0215550D03*
X0143926Y0240550D03*
X0143926Y0265550D03*
X0207824Y0265550D03*
X0207824Y0240550D03*
X0207824Y0215550D03*
D11*
X0148750Y0189300D03*
X0183750Y0111800D03*
X0183750Y0101800D03*
X0183750Y0091800D03*
X0053750Y0096800D03*
X0053750Y0106800D03*
X0053750Y0116800D03*
X0053750Y0126800D03*
X0053750Y0136800D03*
X0053750Y0146800D03*
D12*
X0148750Y0169300D03*
D13*
X0148750Y0159740D03*
X0134750Y0151800D03*
X0141250Y0124300D03*
X0151250Y0114300D03*
X0161250Y0124300D03*
X0171250Y0124300D03*
X0171250Y0136800D03*
X0181250Y0146800D03*
X0191250Y0127240D03*
X0201250Y0136800D03*
X0201250Y0146800D03*
X0171250Y0094300D03*
X0161250Y0094300D03*
X0151250Y0094300D03*
X0141250Y0094300D03*
X0141250Y0076800D03*
X0151250Y0076800D03*
X0161250Y0076800D03*
X0161250Y0046800D03*
X0151250Y0046800D03*
X0141250Y0046800D03*
X0173750Y0036800D03*
X0193750Y0036800D03*
X0111690Y0136800D03*
X0098750Y0126800D03*
X0098750Y0116800D03*
X0098750Y0106800D03*
X0098750Y0096800D03*
X0098750Y0086800D03*
X0093750Y0076800D03*
X0103750Y0076800D03*
X0093750Y0056800D03*
X0081250Y0056800D03*
X0081250Y0076800D03*
X0068750Y0086800D03*
X0068750Y0096800D03*
X0068750Y0106800D03*
X0068750Y0116800D03*
X0068750Y0126800D03*
X0068750Y0136800D03*
X0068750Y0146800D03*
X0068750Y0156800D03*
X0088750Y0136800D03*
X0098750Y0146800D03*
X0098750Y0156800D03*
X0134750Y0181800D03*
X0028810Y0139300D03*
X0026250Y0126800D03*
X0026250Y0096800D03*
X0103750Y0046800D03*
D14*
X0103810Y0136800D03*
X0148750Y0151860D03*
X0191250Y0119360D03*
X0036690Y0139300D03*
D15*
X0038750Y0116800D03*
X0038750Y0096800D03*
X0043750Y0081800D03*
X0163250Y0151800D03*
X0163250Y0171800D03*
X0201250Y0111800D03*
X0201250Y0091800D03*
X0186250Y0079300D03*
D16*
X0196250Y0079300D03*
X0053750Y0081800D03*
D17*
X0068750Y0049363D03*
X0068750Y0169363D03*
X0213750Y0169363D03*
X0213750Y0049363D03*
D18*
X0193750Y0049363D03*
X0173750Y0049363D03*
X0173750Y0169363D03*
X0193750Y0169363D03*
X0048750Y0169363D03*
X0028750Y0169363D03*
X0028750Y0049363D03*
X0048750Y0049363D03*
D19*
X0121125Y0233438D03*
X0121125Y0257060D03*
D20*
X0116250Y0026800D03*
X0116250Y0016800D03*
X0106250Y0016800D03*
X0106250Y0026800D03*
X0126250Y0026800D03*
X0126250Y0016800D03*
X0136250Y0016800D03*
X0136250Y0026800D03*
D21*
X0237283Y0006800D02*
X0005000Y0006800D01*
X0005000Y0259831D01*
X0026654Y0259831D01*
X0026654Y0287391D01*
X0215630Y0287391D01*
X0215630Y0259831D01*
X0237283Y0259831D01*
X0237283Y0006800D01*
D22*
X0234483Y0009600D02*
X0007800Y0009600D01*
X0007800Y0227500D01*
X0086950Y0227500D01*
X0086950Y0206054D01*
X0088004Y0205000D01*
X0106996Y0205000D01*
X0108050Y0206054D01*
X0108050Y0230046D01*
X0106996Y0231100D01*
X0105504Y0231100D01*
X0104450Y0230046D01*
X0104450Y0208600D01*
X0090550Y0208600D01*
X0090550Y0230046D01*
X0089496Y0231100D01*
X0007800Y0231100D01*
X0007800Y0257031D01*
X0027210Y0257031D01*
X0028240Y0257458D01*
X0029027Y0258245D01*
X0029454Y0259275D01*
X0029454Y0262361D01*
X0029899Y0261747D01*
X0030560Y0261087D01*
X0031315Y0260538D01*
X0032147Y0260114D01*
X0033036Y0259825D01*
X0033847Y0259697D01*
X0033847Y0265035D01*
X0035003Y0265035D01*
X0035003Y0259697D01*
X0035815Y0259825D01*
X0036703Y0260114D01*
X0037535Y0260538D01*
X0038291Y0261087D01*
X0038951Y0261747D01*
X0039500Y0262503D01*
X0039924Y0263335D01*
X0040213Y0264223D01*
X0040341Y0265035D01*
X0035003Y0265035D01*
X0035003Y0266191D01*
X0033847Y0266191D01*
X0033847Y0271529D01*
X0033036Y0271401D01*
X0032147Y0271112D01*
X0031315Y0270688D01*
X0030560Y0270139D01*
X0029899Y0269479D01*
X0029454Y0268865D01*
X0029454Y0284591D01*
X0119450Y0284591D01*
X0119450Y0265781D01*
X0119390Y0265781D01*
X0116185Y0264454D01*
X0113731Y0262000D01*
X0112404Y0258795D01*
X0112404Y0255325D01*
X0113731Y0252120D01*
X0116185Y0249667D01*
X0119390Y0248339D01*
X0122860Y0248339D01*
X0126065Y0249667D01*
X0128519Y0252120D01*
X0129846Y0255325D01*
X0129846Y0258795D01*
X0128519Y0262000D01*
X0126065Y0264454D01*
X0123050Y0265702D01*
X0123050Y0284591D01*
X0212830Y0284591D01*
X0212830Y0268936D01*
X0211185Y0270580D01*
X0209004Y0271484D01*
X0206643Y0271484D01*
X0204463Y0270580D01*
X0202793Y0268911D01*
X0201890Y0266730D01*
X0201890Y0264370D01*
X0202793Y0262189D01*
X0204463Y0260520D01*
X0206643Y0259616D01*
X0209004Y0259616D01*
X0211185Y0260520D01*
X0212830Y0262164D01*
X0212830Y0259275D01*
X0213256Y0258245D01*
X0214044Y0257458D01*
X0215073Y0257031D01*
X0234483Y0257031D01*
X0234483Y0208600D01*
X0200550Y0208600D01*
X0200550Y0232546D01*
X0199496Y0233600D01*
X0140504Y0233600D01*
X0139450Y0232546D01*
X0139450Y0231054D01*
X0140504Y0230000D01*
X0196950Y0230000D01*
X0196950Y0206054D01*
X0198004Y0205000D01*
X0214450Y0205000D01*
X0214450Y0174313D01*
X0213836Y0174313D01*
X0213836Y0169449D01*
X0213664Y0169449D01*
X0213664Y0174313D01*
X0213050Y0174313D01*
X0213050Y0202546D01*
X0211996Y0203600D01*
X0195550Y0203600D01*
X0195550Y0227546D01*
X0194496Y0228600D01*
X0140504Y0228600D01*
X0139450Y0227546D01*
X0139450Y0226054D01*
X0140504Y0225000D01*
X0191950Y0225000D01*
X0191950Y0201054D01*
X0193004Y0200000D01*
X0209450Y0200000D01*
X0209450Y0174796D01*
X0208450Y0173796D01*
X0208450Y0164804D01*
X0209504Y0163750D01*
X0217996Y0163750D01*
X0219050Y0164804D01*
X0219050Y0173796D01*
X0218050Y0174796D01*
X0218050Y0205000D01*
X0234483Y0205000D01*
X0234483Y0009600D01*
X0234483Y0010201D02*
X0007800Y0010201D01*
X0007800Y0011800D02*
X0234483Y0011800D01*
X0234483Y0013399D02*
X0139292Y0013399D01*
X0138831Y0012938D02*
X0140112Y0014219D01*
X0140229Y0014500D01*
X0199703Y0014500D01*
X0232203Y0047000D01*
X0233550Y0048347D01*
X0233550Y0137753D01*
X0213550Y0157753D01*
X0212203Y0159100D01*
X0199703Y0159100D01*
X0196050Y0162753D01*
X0196050Y0164958D01*
X0196554Y0165167D01*
X0197946Y0166559D01*
X0198700Y0168378D01*
X0198700Y0170348D01*
X0197946Y0172167D01*
X0196554Y0173559D01*
X0194735Y0174313D01*
X0192765Y0174313D01*
X0190946Y0173559D01*
X0189554Y0172167D01*
X0188800Y0170348D01*
X0188800Y0168378D01*
X0189554Y0166559D01*
X0190946Y0165167D01*
X0191450Y0164958D01*
X0191450Y0160847D01*
X0192797Y0159500D01*
X0197797Y0154500D01*
X0210297Y0154500D01*
X0228950Y0135847D01*
X0228950Y0050253D01*
X0197797Y0019100D01*
X0140229Y0019100D01*
X0140112Y0019381D01*
X0138831Y0020662D01*
X0137156Y0021356D01*
X0135344Y0021356D01*
X0133669Y0020662D01*
X0132388Y0019381D01*
X0131694Y0017706D01*
X0131694Y0015894D01*
X0132388Y0014219D01*
X0133669Y0012938D01*
X0135344Y0012244D01*
X0137156Y0012244D01*
X0138831Y0012938D01*
X0133208Y0013399D02*
X0129292Y0013399D01*
X0128831Y0012938D02*
X0130112Y0014219D01*
X0130806Y0015894D01*
X0130806Y0017706D01*
X0130112Y0019381D01*
X0128831Y0020662D01*
X0127412Y0021250D01*
X0130746Y0021250D01*
X0131800Y0022304D01*
X0131800Y0025638D01*
X0132388Y0024219D01*
X0133669Y0022938D01*
X0135344Y0022244D01*
X0137156Y0022244D01*
X0138831Y0022938D01*
X0140112Y0024219D01*
X0140806Y0025894D01*
X0140806Y0027706D01*
X0140112Y0029381D01*
X0138831Y0030662D01*
X0137156Y0031356D01*
X0135344Y0031356D01*
X0133669Y0030662D01*
X0132388Y0029381D01*
X0131800Y0027962D01*
X0131800Y0030046D01*
X0130746Y0031100D01*
X0130550Y0031100D01*
X0130550Y0142497D01*
X0169028Y0142426D01*
X0169029Y0142425D01*
X0169770Y0142425D01*
X0170517Y0142424D01*
X0170519Y0142425D01*
X0170521Y0142425D01*
X0171047Y0142952D01*
X0171574Y0143476D01*
X0171574Y0143478D01*
X0171575Y0143479D01*
X0171575Y0144222D01*
X0171576Y0144967D01*
X0171575Y0144969D01*
X0171575Y0164906D01*
X0172765Y0164413D01*
X0174735Y0164413D01*
X0176554Y0165167D01*
X0177946Y0166559D01*
X0178700Y0168378D01*
X0178700Y0170348D01*
X0177946Y0172167D01*
X0176554Y0173559D01*
X0174735Y0174313D01*
X0172765Y0174313D01*
X0171575Y0173819D01*
X0171575Y0184226D01*
X0171576Y0184968D01*
X0171575Y0184969D01*
X0171575Y0184971D01*
X0171048Y0185498D01*
X0155550Y0201044D01*
X0155550Y0201046D01*
X0155019Y0201577D01*
X0154498Y0202099D01*
X0154497Y0202099D01*
X0154496Y0202100D01*
X0153749Y0202100D01*
X0153007Y0202101D01*
X0153006Y0202100D01*
X0138050Y0202100D01*
X0138050Y0210046D01*
X0136996Y0211100D01*
X0135504Y0211100D01*
X0134450Y0210046D01*
X0134450Y0199554D01*
X0135504Y0198500D01*
X0153003Y0198500D01*
X0167975Y0183481D01*
X0167975Y0146028D01*
X0130550Y0146097D01*
X0130550Y0210046D01*
X0129496Y0211100D01*
X0128004Y0211100D01*
X0126950Y0210046D01*
X0126950Y0144303D01*
X0126949Y0143558D01*
X0126950Y0143556D01*
X0126950Y0031302D01*
X0126609Y0031356D01*
X0126250Y0031356D01*
X0126250Y0026800D01*
X0126250Y0026800D01*
X0126250Y0031356D01*
X0125891Y0031356D01*
X0125550Y0031302D01*
X0125550Y0210046D01*
X0124496Y0211100D01*
X0123004Y0211100D01*
X0121950Y0210046D01*
X0121950Y0031100D01*
X0121754Y0031100D01*
X0120700Y0030046D01*
X0120700Y0027962D01*
X0120112Y0029381D01*
X0119650Y0029843D01*
X0119650Y0106592D01*
X0119831Y0106773D01*
X0119831Y0111827D01*
X0118777Y0112881D01*
X0113723Y0112881D01*
X0112669Y0111827D01*
X0112669Y0106773D01*
X0112850Y0106592D01*
X0112850Y0029843D01*
X0112388Y0029381D01*
X0111694Y0027706D01*
X0111694Y0025894D01*
X0112388Y0024219D01*
X0113669Y0022938D01*
X0115344Y0022244D01*
X0117156Y0022244D01*
X0118831Y0022938D01*
X0120112Y0024219D01*
X0120700Y0025638D01*
X0120700Y0022304D01*
X0121754Y0021250D01*
X0125088Y0021250D01*
X0123669Y0020662D01*
X0122388Y0019381D01*
X0121694Y0017706D01*
X0121694Y0015894D01*
X0122388Y0014219D01*
X0123669Y0012938D01*
X0125344Y0012244D01*
X0127156Y0012244D01*
X0128831Y0012938D01*
X0130434Y0014997D02*
X0132066Y0014997D01*
X0131694Y0016596D02*
X0130806Y0016596D01*
X0130604Y0018194D02*
X0131896Y0018194D01*
X0132800Y0019793D02*
X0129700Y0019793D01*
X0130887Y0021391D02*
X0200088Y0021391D01*
X0198490Y0019793D02*
X0139700Y0019793D01*
X0138883Y0022990D02*
X0201687Y0022990D01*
X0203285Y0024588D02*
X0140265Y0024588D01*
X0140806Y0026187D02*
X0204884Y0026187D01*
X0206482Y0027785D02*
X0140773Y0027785D01*
X0140109Y0029384D02*
X0208081Y0029384D01*
X0209679Y0030982D02*
X0138059Y0030982D01*
X0134441Y0030982D02*
X0130863Y0030982D01*
X0130550Y0032581D02*
X0211278Y0032581D01*
X0212876Y0034179D02*
X0196737Y0034179D01*
X0197112Y0034554D02*
X0197715Y0036011D01*
X0197715Y0037589D01*
X0197112Y0039046D01*
X0195996Y0040162D01*
X0194539Y0040765D01*
X0192961Y0040765D01*
X0191504Y0040162D01*
X0190388Y0039046D01*
X0189785Y0037589D01*
X0189785Y0036011D01*
X0190388Y0034554D01*
X0191504Y0033438D01*
X0192961Y0032835D01*
X0194539Y0032835D01*
X0195996Y0033438D01*
X0197112Y0034554D01*
X0197619Y0035778D02*
X0214475Y0035778D01*
X0216074Y0037376D02*
X0197715Y0037376D01*
X0197141Y0038975D02*
X0217672Y0038975D01*
X0219271Y0040573D02*
X0195003Y0040573D01*
X0192497Y0040573D02*
X0175003Y0040573D01*
X0174539Y0040765D02*
X0172961Y0040765D01*
X0171504Y0040162D01*
X0170388Y0039046D01*
X0169785Y0037589D01*
X0169785Y0036011D01*
X0170388Y0034554D01*
X0171504Y0033438D01*
X0172961Y0032835D01*
X0174539Y0032835D01*
X0175996Y0033438D01*
X0177112Y0034554D01*
X0177715Y0036011D01*
X0177715Y0037589D01*
X0177112Y0039046D01*
X0175996Y0040162D01*
X0174539Y0040765D01*
X0172497Y0040573D02*
X0130550Y0040573D01*
X0130550Y0038975D02*
X0170359Y0038975D01*
X0169785Y0037376D02*
X0130550Y0037376D01*
X0130550Y0035778D02*
X0169881Y0035778D01*
X0170763Y0034179D02*
X0130550Y0034179D01*
X0126950Y0034179D02*
X0125550Y0034179D01*
X0125550Y0032581D02*
X0126950Y0032581D01*
X0126250Y0030982D02*
X0126250Y0030982D01*
X0126250Y0029384D02*
X0126250Y0029384D01*
X0126250Y0027785D02*
X0126250Y0027785D01*
X0121637Y0030982D02*
X0119650Y0030982D01*
X0119650Y0032581D02*
X0121950Y0032581D01*
X0121950Y0034179D02*
X0119650Y0034179D01*
X0119650Y0035778D02*
X0121950Y0035778D01*
X0121950Y0037376D02*
X0119650Y0037376D01*
X0119650Y0038975D02*
X0121950Y0038975D01*
X0121950Y0040573D02*
X0119650Y0040573D01*
X0119650Y0042172D02*
X0121950Y0042172D01*
X0121950Y0043770D02*
X0119650Y0043770D01*
X0119650Y0045369D02*
X0121950Y0045369D01*
X0121950Y0046967D02*
X0119650Y0046967D01*
X0119650Y0048566D02*
X0121950Y0048566D01*
X0121950Y0050164D02*
X0119650Y0050164D01*
X0119650Y0051763D02*
X0121950Y0051763D01*
X0121950Y0053361D02*
X0119650Y0053361D01*
X0119650Y0054960D02*
X0121950Y0054960D01*
X0121950Y0056558D02*
X0119650Y0056558D01*
X0119650Y0058157D02*
X0121950Y0058157D01*
X0121950Y0059755D02*
X0119650Y0059755D01*
X0119650Y0061354D02*
X0121950Y0061354D01*
X0121950Y0062952D02*
X0119650Y0062952D01*
X0119650Y0064551D02*
X0121950Y0064551D01*
X0121950Y0066149D02*
X0119650Y0066149D01*
X0119650Y0067748D02*
X0121950Y0067748D01*
X0121950Y0069346D02*
X0119650Y0069346D01*
X0119650Y0070945D02*
X0121950Y0070945D01*
X0121950Y0072543D02*
X0119650Y0072543D01*
X0119650Y0074142D02*
X0121950Y0074142D01*
X0121950Y0075740D02*
X0119650Y0075740D01*
X0119650Y0077339D02*
X0121950Y0077339D01*
X0121950Y0078937D02*
X0119650Y0078937D01*
X0119650Y0080536D02*
X0121950Y0080536D01*
X0121950Y0082134D02*
X0119650Y0082134D01*
X0119650Y0083733D02*
X0121950Y0083733D01*
X0121950Y0085332D02*
X0119650Y0085332D01*
X0119650Y0086930D02*
X0121950Y0086930D01*
X0121950Y0088529D02*
X0119650Y0088529D01*
X0119650Y0090127D02*
X0121950Y0090127D01*
X0121950Y0091726D02*
X0119650Y0091726D01*
X0119650Y0093324D02*
X0121950Y0093324D01*
X0121950Y0094923D02*
X0119650Y0094923D01*
X0119650Y0096521D02*
X0121950Y0096521D01*
X0121950Y0098120D02*
X0119650Y0098120D01*
X0119650Y0099718D02*
X0121950Y0099718D01*
X0121950Y0101317D02*
X0119650Y0101317D01*
X0119650Y0102915D02*
X0121950Y0102915D01*
X0121950Y0104514D02*
X0119650Y0104514D01*
X0119650Y0106112D02*
X0121950Y0106112D01*
X0121950Y0107711D02*
X0119831Y0107711D01*
X0119831Y0109309D02*
X0121950Y0109309D01*
X0121950Y0110908D02*
X0119831Y0110908D01*
X0119152Y0112506D02*
X0121950Y0112506D01*
X0121950Y0114105D02*
X0101663Y0114105D01*
X0102112Y0114554D02*
X0102715Y0116011D01*
X0102715Y0117589D01*
X0102112Y0119046D01*
X0100996Y0120162D01*
X0099539Y0120765D01*
X0097961Y0120765D01*
X0096504Y0120162D01*
X0095388Y0119046D01*
X0094785Y0117589D01*
X0094785Y0116011D01*
X0095388Y0114554D01*
X0096504Y0113438D01*
X0097961Y0112835D01*
X0099539Y0112835D01*
X0100996Y0113438D01*
X0102112Y0114554D01*
X0102588Y0115703D02*
X0121950Y0115703D01*
X0121950Y0117302D02*
X0102715Y0117302D01*
X0102172Y0118900D02*
X0121950Y0118900D01*
X0121950Y0120499D02*
X0100182Y0120499D01*
X0099539Y0122835D02*
X0097961Y0122835D01*
X0096504Y0123438D01*
X0095388Y0124554D01*
X0094785Y0126011D01*
X0094785Y0127589D01*
X0095388Y0129046D01*
X0096504Y0130162D01*
X0097961Y0130765D01*
X0099539Y0130765D01*
X0100996Y0130162D01*
X0102112Y0129046D01*
X0102715Y0127589D01*
X0102715Y0126011D01*
X0102112Y0124554D01*
X0100996Y0123438D01*
X0099539Y0122835D01*
X0101254Y0123696D02*
X0121950Y0123696D01*
X0121950Y0125294D02*
X0102418Y0125294D01*
X0102715Y0126893D02*
X0121950Y0126893D01*
X0121950Y0128491D02*
X0102341Y0128491D01*
X0101068Y0130090D02*
X0121950Y0130090D01*
X0121950Y0131688D02*
X0013550Y0131688D01*
X0013550Y0130090D02*
X0023932Y0130090D01*
X0024004Y0130162D02*
X0022888Y0129046D01*
X0022285Y0127589D01*
X0022285Y0126011D01*
X0022888Y0124554D01*
X0024004Y0123438D01*
X0025461Y0122835D01*
X0027039Y0122835D01*
X0028496Y0123438D01*
X0029612Y0124554D01*
X0030215Y0126011D01*
X0030215Y0127589D01*
X0029612Y0129046D01*
X0028496Y0130162D01*
X0027039Y0130765D01*
X0025461Y0130765D01*
X0024004Y0130162D01*
X0022659Y0128491D02*
X0013550Y0128491D01*
X0013550Y0126893D02*
X0022285Y0126893D01*
X0022582Y0125294D02*
X0013550Y0125294D01*
X0013550Y0123696D02*
X0023746Y0123696D01*
X0028754Y0123696D02*
X0050968Y0123696D01*
X0051392Y0123271D02*
X0052922Y0122638D01*
X0054578Y0122638D01*
X0056108Y0123271D01*
X0057279Y0124442D01*
X0057912Y0125972D01*
X0057912Y0127628D01*
X0057279Y0129158D01*
X0056108Y0130329D01*
X0054578Y0130962D01*
X0052922Y0130962D01*
X0051392Y0130329D01*
X0050221Y0129158D01*
X0049588Y0127628D01*
X0049588Y0125972D01*
X0050221Y0124442D01*
X0051392Y0123271D01*
X0049869Y0125294D02*
X0029918Y0125294D01*
X0030215Y0126893D02*
X0049588Y0126893D01*
X0049945Y0128491D02*
X0029841Y0128491D01*
X0028568Y0130090D02*
X0051154Y0130090D01*
X0052922Y0132638D02*
X0051392Y0133271D01*
X0050221Y0134442D01*
X0049588Y0135972D01*
X0049588Y0137628D01*
X0050221Y0139158D01*
X0051392Y0140329D01*
X0052922Y0140962D01*
X0054578Y0140962D01*
X0056108Y0140329D01*
X0057279Y0139158D01*
X0057912Y0137628D01*
X0057912Y0135972D01*
X0057279Y0134442D01*
X0056108Y0133271D01*
X0054578Y0132638D01*
X0052922Y0132638D01*
X0051377Y0133287D02*
X0013550Y0133287D01*
X0013550Y0134885D02*
X0050038Y0134885D01*
X0049588Y0136484D02*
X0040655Y0136484D01*
X0040655Y0136389D02*
X0040655Y0142211D01*
X0039601Y0143265D01*
X0033779Y0143265D01*
X0032725Y0142211D01*
X0032725Y0140211D01*
X0032172Y0141546D01*
X0031056Y0142662D01*
X0029599Y0143265D01*
X0028021Y0143265D01*
X0026564Y0142662D01*
X0025448Y0141546D01*
X0024845Y0140089D01*
X0024845Y0138511D01*
X0025448Y0137054D01*
X0026564Y0135938D01*
X0028021Y0135335D01*
X0029599Y0135335D01*
X0031056Y0135938D01*
X0032172Y0137054D01*
X0032725Y0138389D01*
X0032725Y0136389D01*
X0033779Y0135335D01*
X0039601Y0135335D01*
X0040655Y0136389D01*
X0040655Y0138082D02*
X0049776Y0138082D01*
X0050745Y0139681D02*
X0040655Y0139681D01*
X0040655Y0141279D02*
X0121950Y0141279D01*
X0121950Y0139681D02*
X0114417Y0139681D01*
X0114218Y0139880D02*
X0113568Y0140314D01*
X0112847Y0140613D01*
X0112081Y0140765D01*
X0111690Y0140765D01*
X0111299Y0140765D01*
X0110533Y0140613D01*
X0109812Y0140314D01*
X0109162Y0139880D01*
X0108610Y0139328D01*
X0108176Y0138678D01*
X0107877Y0137957D01*
X0107775Y0137445D01*
X0107775Y0139711D01*
X0106721Y0140765D01*
X0100899Y0140765D01*
X0099845Y0139711D01*
X0099845Y0133889D01*
X0100899Y0132835D01*
X0106721Y0132835D01*
X0107775Y0133889D01*
X0107775Y0136155D01*
X0107877Y0135643D01*
X0108176Y0134922D01*
X0108610Y0134272D01*
X0109162Y0133720D01*
X0109812Y0133286D01*
X0110533Y0132987D01*
X0111299Y0132835D01*
X0111690Y0132835D01*
X0112081Y0132835D01*
X0112847Y0132987D01*
X0113568Y0133286D01*
X0114218Y0133720D01*
X0114770Y0134272D01*
X0115204Y0134922D01*
X0115503Y0135643D01*
X0115655Y0136409D01*
X0115655Y0136800D01*
X0115655Y0137191D01*
X0115503Y0137957D01*
X0115204Y0138678D01*
X0114770Y0139328D01*
X0114218Y0139880D01*
X0115451Y0138082D02*
X0121950Y0138082D01*
X0121950Y0136484D02*
X0115655Y0136484D01*
X0115655Y0136800D02*
X0111690Y0136800D01*
X0115655Y0136800D01*
X0115180Y0134885D02*
X0121950Y0134885D01*
X0121950Y0133287D02*
X0113570Y0133287D01*
X0111690Y0133287D02*
X0111690Y0133287D01*
X0111690Y0132835D02*
X0111690Y0136800D01*
X0111690Y0136800D01*
X0111690Y0140765D01*
X0111690Y0136800D01*
X0111690Y0136800D01*
X0111690Y0136800D01*
X0111690Y0132835D01*
X0109810Y0133287D02*
X0107173Y0133287D01*
X0107775Y0134885D02*
X0108200Y0134885D01*
X0107929Y0138082D02*
X0107775Y0138082D01*
X0107775Y0139681D02*
X0108963Y0139681D01*
X0111690Y0139681D02*
X0111690Y0139681D01*
X0111690Y0138082D02*
X0111690Y0138082D01*
X0111690Y0136484D02*
X0111690Y0136484D01*
X0111690Y0134885D02*
X0111690Y0134885D01*
X0121950Y0142878D02*
X0099358Y0142878D01*
X0099141Y0142835D02*
X0099907Y0142987D01*
X0100628Y0143286D01*
X0101278Y0143720D01*
X0101830Y0144272D01*
X0102264Y0144922D01*
X0102563Y0145643D01*
X0102715Y0146409D01*
X0102715Y0146800D01*
X0102715Y0147191D01*
X0102563Y0147957D01*
X0102264Y0148678D01*
X0101830Y0149328D01*
X0101278Y0149880D01*
X0100628Y0150314D01*
X0099907Y0150613D01*
X0099141Y0150765D01*
X0098750Y0150765D01*
X0098359Y0150765D01*
X0097593Y0150613D01*
X0096872Y0150314D01*
X0096222Y0149880D01*
X0095670Y0149328D01*
X0095236Y0148678D01*
X0094937Y0147957D01*
X0094785Y0147191D01*
X0094785Y0146800D01*
X0094785Y0146409D01*
X0094937Y0145643D01*
X0095236Y0144922D01*
X0095670Y0144272D01*
X0096222Y0143720D01*
X0096872Y0143286D01*
X0097593Y0142987D01*
X0098359Y0142835D01*
X0098750Y0142835D01*
X0099141Y0142835D01*
X0098750Y0142835D02*
X0098750Y0146800D01*
X0102715Y0146800D01*
X0098750Y0146800D01*
X0098750Y0146800D01*
X0098750Y0146800D01*
X0098750Y0150765D01*
X0098750Y0146800D01*
X0098750Y0146800D01*
X0098750Y0146800D01*
X0094785Y0146800D01*
X0098750Y0146800D01*
X0098750Y0142835D01*
X0098750Y0142878D02*
X0098750Y0142878D01*
X0098142Y0142878D02*
X0069643Y0142878D01*
X0069539Y0142835D02*
X0070996Y0143438D01*
X0072112Y0144554D01*
X0072715Y0146011D01*
X0072715Y0147589D01*
X0072112Y0149046D01*
X0070996Y0150162D01*
X0069539Y0150765D01*
X0067961Y0150765D01*
X0066504Y0150162D01*
X0065388Y0149046D01*
X0064785Y0147589D01*
X0064785Y0146011D01*
X0065388Y0144554D01*
X0066504Y0143438D01*
X0067961Y0142835D01*
X0069539Y0142835D01*
X0067857Y0142878D02*
X0055158Y0142878D01*
X0054578Y0142638D02*
X0056108Y0143271D01*
X0057279Y0144442D01*
X0057912Y0145972D01*
X0057912Y0147628D01*
X0057279Y0149158D01*
X0056108Y0150329D01*
X0054578Y0150962D01*
X0052922Y0150962D01*
X0051392Y0150329D01*
X0050221Y0149158D01*
X0049588Y0147628D01*
X0049588Y0145972D01*
X0050221Y0144442D01*
X0051392Y0143271D01*
X0052922Y0142638D01*
X0054578Y0142638D01*
X0052342Y0142878D02*
X0039988Y0142878D01*
X0033392Y0142878D02*
X0030534Y0142878D01*
X0032282Y0141279D02*
X0032725Y0141279D01*
X0032725Y0138082D02*
X0032598Y0138082D01*
X0032725Y0136484D02*
X0031602Y0136484D01*
X0027086Y0142878D02*
X0020581Y0142878D01*
X0022179Y0144476D02*
X0050207Y0144476D01*
X0049588Y0146075D02*
X0023778Y0146075D01*
X0025376Y0147673D02*
X0049607Y0147673D01*
X0050336Y0149272D02*
X0026975Y0149272D01*
X0028573Y0150870D02*
X0052701Y0150870D01*
X0054799Y0150870D02*
X0121950Y0150870D01*
X0121950Y0149272D02*
X0101867Y0149272D01*
X0102619Y0147673D02*
X0121950Y0147673D01*
X0121950Y0146075D02*
X0102649Y0146075D01*
X0101967Y0144476D02*
X0121950Y0144476D01*
X0125550Y0144476D02*
X0126950Y0144476D01*
X0126950Y0142878D02*
X0125550Y0142878D01*
X0125550Y0141279D02*
X0126950Y0141279D01*
X0126950Y0139681D02*
X0125550Y0139681D01*
X0125550Y0138082D02*
X0126950Y0138082D01*
X0126950Y0136484D02*
X0125550Y0136484D01*
X0125550Y0134885D02*
X0126950Y0134885D01*
X0126950Y0133287D02*
X0125550Y0133287D01*
X0125550Y0131688D02*
X0126950Y0131688D01*
X0126950Y0130090D02*
X0125550Y0130090D01*
X0125550Y0128491D02*
X0126950Y0128491D01*
X0126950Y0126893D02*
X0125550Y0126893D01*
X0125550Y0125294D02*
X0126950Y0125294D01*
X0126950Y0123696D02*
X0125550Y0123696D01*
X0125550Y0122097D02*
X0126950Y0122097D01*
X0126950Y0120499D02*
X0125550Y0120499D01*
X0125550Y0118900D02*
X0126950Y0118900D01*
X0126950Y0117302D02*
X0125550Y0117302D01*
X0125550Y0115703D02*
X0126950Y0115703D01*
X0126950Y0114105D02*
X0125550Y0114105D01*
X0125550Y0112506D02*
X0126950Y0112506D01*
X0126950Y0110908D02*
X0125550Y0110908D01*
X0125550Y0109309D02*
X0126950Y0109309D01*
X0126950Y0107711D02*
X0125550Y0107711D01*
X0125550Y0106112D02*
X0126950Y0106112D01*
X0126950Y0104514D02*
X0125550Y0104514D01*
X0125550Y0102915D02*
X0126950Y0102915D01*
X0126950Y0101317D02*
X0125550Y0101317D01*
X0125550Y0099718D02*
X0126950Y0099718D01*
X0126950Y0098120D02*
X0125550Y0098120D01*
X0125550Y0096521D02*
X0126950Y0096521D01*
X0126950Y0094923D02*
X0125550Y0094923D01*
X0125550Y0093324D02*
X0126950Y0093324D01*
X0126950Y0091726D02*
X0125550Y0091726D01*
X0125550Y0090127D02*
X0126950Y0090127D01*
X0126950Y0088529D02*
X0125550Y0088529D01*
X0125550Y0086930D02*
X0126950Y0086930D01*
X0126950Y0085332D02*
X0125550Y0085332D01*
X0125550Y0083733D02*
X0126950Y0083733D01*
X0126950Y0082134D02*
X0125550Y0082134D01*
X0125550Y0080536D02*
X0126950Y0080536D01*
X0126950Y0078937D02*
X0125550Y0078937D01*
X0125550Y0077339D02*
X0126950Y0077339D01*
X0126950Y0075740D02*
X0125550Y0075740D01*
X0125550Y0074142D02*
X0126950Y0074142D01*
X0126950Y0072543D02*
X0125550Y0072543D01*
X0125550Y0070945D02*
X0126950Y0070945D01*
X0126950Y0069346D02*
X0125550Y0069346D01*
X0125550Y0067748D02*
X0126950Y0067748D01*
X0126950Y0066149D02*
X0125550Y0066149D01*
X0125550Y0064551D02*
X0126950Y0064551D01*
X0126950Y0062952D02*
X0125550Y0062952D01*
X0125550Y0061354D02*
X0126950Y0061354D01*
X0126950Y0059755D02*
X0125550Y0059755D01*
X0125550Y0058157D02*
X0126950Y0058157D01*
X0126950Y0056558D02*
X0125550Y0056558D01*
X0125550Y0054960D02*
X0126950Y0054960D01*
X0126950Y0053361D02*
X0125550Y0053361D01*
X0125550Y0051763D02*
X0126950Y0051763D01*
X0126950Y0050164D02*
X0125550Y0050164D01*
X0125550Y0048566D02*
X0126950Y0048566D01*
X0126950Y0046967D02*
X0125550Y0046967D01*
X0125550Y0045369D02*
X0126950Y0045369D01*
X0126950Y0043770D02*
X0125550Y0043770D01*
X0125550Y0042172D02*
X0126950Y0042172D01*
X0126950Y0040573D02*
X0125550Y0040573D01*
X0125550Y0038975D02*
X0126950Y0038975D01*
X0126950Y0037376D02*
X0125550Y0037376D01*
X0125550Y0035778D02*
X0126950Y0035778D01*
X0130550Y0042172D02*
X0220869Y0042172D01*
X0222468Y0043770D02*
X0163828Y0043770D01*
X0163496Y0043438D02*
X0164612Y0044554D01*
X0165215Y0046011D01*
X0165215Y0047589D01*
X0164612Y0049046D01*
X0163496Y0050162D01*
X0162039Y0050765D01*
X0160461Y0050765D01*
X0159004Y0050162D01*
X0157888Y0049046D01*
X0157285Y0047589D01*
X0157285Y0046011D01*
X0157888Y0044554D01*
X0159004Y0043438D01*
X0160461Y0042835D01*
X0162039Y0042835D01*
X0163496Y0043438D01*
X0164949Y0045369D02*
X0170744Y0045369D01*
X0170946Y0045167D02*
X0169554Y0046559D01*
X0168800Y0048378D01*
X0168800Y0050348D01*
X0169554Y0052167D01*
X0170946Y0053559D01*
X0172765Y0054313D01*
X0174735Y0054313D01*
X0176554Y0053559D01*
X0177946Y0052167D01*
X0178700Y0050348D01*
X0178700Y0048378D01*
X0177946Y0046559D01*
X0176554Y0045167D01*
X0174735Y0044413D01*
X0172765Y0044413D01*
X0170946Y0045167D01*
X0169385Y0046967D02*
X0165215Y0046967D01*
X0164811Y0048566D02*
X0168800Y0048566D01*
X0168800Y0050164D02*
X0163490Y0050164D01*
X0159010Y0050164D02*
X0153490Y0050164D01*
X0153496Y0050162D02*
X0152039Y0050765D01*
X0150461Y0050765D01*
X0149004Y0050162D01*
X0147888Y0049046D01*
X0147285Y0047589D01*
X0147285Y0046011D01*
X0147888Y0044554D01*
X0149004Y0043438D01*
X0150461Y0042835D01*
X0152039Y0042835D01*
X0153496Y0043438D01*
X0154612Y0044554D01*
X0155215Y0046011D01*
X0155215Y0047589D01*
X0154612Y0049046D01*
X0153496Y0050162D01*
X0154811Y0048566D02*
X0157689Y0048566D01*
X0157285Y0046967D02*
X0155215Y0046967D01*
X0154949Y0045369D02*
X0157551Y0045369D01*
X0158672Y0043770D02*
X0153828Y0043770D01*
X0148672Y0043770D02*
X0143828Y0043770D01*
X0143496Y0043438D02*
X0144612Y0044554D01*
X0145215Y0046011D01*
X0145215Y0047589D01*
X0144612Y0049046D01*
X0143496Y0050162D01*
X0142039Y0050765D01*
X0140461Y0050765D01*
X0139004Y0050162D01*
X0137888Y0049046D01*
X0137285Y0047589D01*
X0137285Y0046011D01*
X0137888Y0044554D01*
X0139004Y0043438D01*
X0140461Y0042835D01*
X0142039Y0042835D01*
X0143496Y0043438D01*
X0144949Y0045369D02*
X0147551Y0045369D01*
X0147285Y0046967D02*
X0145215Y0046967D01*
X0144811Y0048566D02*
X0147689Y0048566D01*
X0149010Y0050164D02*
X0143490Y0050164D01*
X0139010Y0050164D02*
X0130550Y0050164D01*
X0130550Y0048566D02*
X0137689Y0048566D01*
X0137285Y0046967D02*
X0130550Y0046967D01*
X0130550Y0045369D02*
X0137551Y0045369D01*
X0138672Y0043770D02*
X0130550Y0043770D01*
X0130550Y0051763D02*
X0169387Y0051763D01*
X0170749Y0053361D02*
X0130550Y0053361D01*
X0130550Y0054960D02*
X0228950Y0054960D01*
X0228950Y0056558D02*
X0130550Y0056558D01*
X0130550Y0058157D02*
X0228950Y0058157D01*
X0228950Y0059755D02*
X0130550Y0059755D01*
X0130550Y0061354D02*
X0228950Y0061354D01*
X0228950Y0062952D02*
X0130550Y0062952D01*
X0130550Y0064551D02*
X0228950Y0064551D01*
X0228950Y0066149D02*
X0130550Y0066149D01*
X0130550Y0067748D02*
X0228950Y0067748D01*
X0228950Y0069346D02*
X0130550Y0069346D01*
X0130550Y0070945D02*
X0228950Y0070945D01*
X0228950Y0072543D02*
X0130550Y0072543D01*
X0130550Y0074142D02*
X0138300Y0074142D01*
X0137888Y0074554D02*
X0139004Y0073438D01*
X0140461Y0072835D01*
X0142039Y0072835D01*
X0143496Y0073438D01*
X0144612Y0074554D01*
X0145215Y0076011D01*
X0145215Y0077589D01*
X0144612Y0079046D01*
X0143496Y0080162D01*
X0142039Y0080765D01*
X0140461Y0080765D01*
X0139004Y0080162D01*
X0137888Y0079046D01*
X0137285Y0077589D01*
X0137285Y0076011D01*
X0137888Y0074554D01*
X0137397Y0075740D02*
X0130550Y0075740D01*
X0130550Y0077339D02*
X0137285Y0077339D01*
X0137843Y0078937D02*
X0130550Y0078937D01*
X0130550Y0080536D02*
X0139908Y0080536D01*
X0142592Y0080536D02*
X0149908Y0080536D01*
X0150461Y0080765D02*
X0149004Y0080162D01*
X0147888Y0079046D01*
X0147285Y0077589D01*
X0147285Y0076011D01*
X0147888Y0074554D01*
X0149004Y0073438D01*
X0150461Y0072835D01*
X0152039Y0072835D01*
X0153496Y0073438D01*
X0154612Y0074554D01*
X0155215Y0076011D01*
X0155215Y0077589D01*
X0154612Y0079046D01*
X0153496Y0080162D01*
X0152039Y0080765D01*
X0150461Y0080765D01*
X0152592Y0080536D02*
X0159908Y0080536D01*
X0160461Y0080765D02*
X0159004Y0080162D01*
X0157888Y0079046D01*
X0157285Y0077589D01*
X0157285Y0076011D01*
X0157888Y0074554D01*
X0159004Y0073438D01*
X0160461Y0072835D01*
X0162039Y0072835D01*
X0163496Y0073438D01*
X0164612Y0074554D01*
X0165215Y0076011D01*
X0165215Y0077589D01*
X0164612Y0079046D01*
X0163496Y0080162D01*
X0162039Y0080765D01*
X0160461Y0080765D01*
X0162592Y0080536D02*
X0182683Y0080536D01*
X0182481Y0080050D02*
X0182481Y0078550D01*
X0183055Y0077165D01*
X0184115Y0076105D01*
X0185500Y0075531D01*
X0187000Y0075531D01*
X0188385Y0076105D01*
X0189445Y0077165D01*
X0190018Y0078550D01*
X0190018Y0080050D01*
X0189445Y0081435D01*
X0188385Y0082495D01*
X0187000Y0083068D01*
X0185500Y0083068D01*
X0184115Y0082495D01*
X0183055Y0081435D01*
X0182481Y0080050D01*
X0182481Y0078937D02*
X0164657Y0078937D01*
X0165215Y0077339D02*
X0182983Y0077339D01*
X0184996Y0075740D02*
X0165103Y0075740D01*
X0164200Y0074142D02*
X0228950Y0074142D01*
X0228950Y0075740D02*
X0199173Y0075740D01*
X0198964Y0075531D02*
X0200018Y0076586D01*
X0200018Y0082014D01*
X0198964Y0083068D01*
X0193536Y0083068D01*
X0192481Y0082014D01*
X0192481Y0076586D01*
X0193536Y0075531D01*
X0198964Y0075531D01*
X0200018Y0077339D02*
X0228950Y0077339D01*
X0228950Y0078937D02*
X0200018Y0078937D01*
X0200018Y0080536D02*
X0228950Y0080536D01*
X0228950Y0082134D02*
X0199898Y0082134D01*
X0200500Y0088031D02*
X0202000Y0088031D01*
X0203385Y0088605D01*
X0204445Y0089665D01*
X0205018Y0091050D01*
X0205018Y0092550D01*
X0204445Y0093935D01*
X0203385Y0094995D01*
X0202000Y0095568D01*
X0200500Y0095568D01*
X0199115Y0094995D01*
X0198055Y0093935D01*
X0197481Y0092550D01*
X0197481Y0091050D01*
X0198055Y0089665D01*
X0199115Y0088605D01*
X0200500Y0088031D01*
X0199300Y0088529D02*
X0186365Y0088529D01*
X0186108Y0088271D02*
X0187279Y0089442D01*
X0187912Y0090972D01*
X0187912Y0092628D01*
X0187279Y0094158D01*
X0186108Y0095329D01*
X0184578Y0095962D01*
X0182922Y0095962D01*
X0181392Y0095329D01*
X0180221Y0094158D01*
X0179588Y0092628D01*
X0179588Y0090972D01*
X0180221Y0089442D01*
X0181392Y0088271D01*
X0182922Y0087638D01*
X0184578Y0087638D01*
X0186108Y0088271D01*
X0187562Y0090127D02*
X0197864Y0090127D01*
X0197481Y0091726D02*
X0187912Y0091726D01*
X0187624Y0093324D02*
X0197802Y0093324D01*
X0199043Y0094923D02*
X0186514Y0094923D01*
X0185741Y0098120D02*
X0228950Y0098120D01*
X0228950Y0099718D02*
X0187393Y0099718D01*
X0187279Y0099442D02*
X0187912Y0100972D01*
X0187912Y0102628D01*
X0187279Y0104158D01*
X0186108Y0105329D01*
X0184578Y0105962D01*
X0182922Y0105962D01*
X0181392Y0105329D01*
X0180221Y0104158D01*
X0179588Y0102628D01*
X0179588Y0100972D01*
X0180221Y0099442D01*
X0181392Y0098271D01*
X0182922Y0097638D01*
X0184578Y0097638D01*
X0186108Y0098271D01*
X0187279Y0099442D01*
X0187912Y0101317D02*
X0228950Y0101317D01*
X0228950Y0102915D02*
X0187793Y0102915D01*
X0186923Y0104514D02*
X0228950Y0104514D01*
X0228950Y0106112D02*
X0130550Y0106112D01*
X0130550Y0104514D02*
X0180577Y0104514D01*
X0179707Y0102915D02*
X0130550Y0102915D01*
X0130550Y0101317D02*
X0179588Y0101317D01*
X0180107Y0099718D02*
X0130550Y0099718D01*
X0130550Y0098120D02*
X0140109Y0098120D01*
X0140461Y0098265D02*
X0139004Y0097662D01*
X0137888Y0096546D01*
X0137285Y0095089D01*
X0137285Y0093511D01*
X0137888Y0092054D01*
X0139004Y0090938D01*
X0140461Y0090335D01*
X0142039Y0090335D01*
X0143496Y0090938D01*
X0144612Y0092054D01*
X0145215Y0093511D01*
X0145215Y0095089D01*
X0144612Y0096546D01*
X0143496Y0097662D01*
X0142039Y0098265D01*
X0140461Y0098265D01*
X0142391Y0098120D02*
X0150109Y0098120D01*
X0150461Y0098265D02*
X0149004Y0097662D01*
X0147888Y0096546D01*
X0147285Y0095089D01*
X0147285Y0093511D01*
X0147888Y0092054D01*
X0149004Y0090938D01*
X0150461Y0090335D01*
X0152039Y0090335D01*
X0153496Y0090938D01*
X0154612Y0092054D01*
X0155215Y0093511D01*
X0155215Y0095089D01*
X0154612Y0096546D01*
X0153496Y0097662D01*
X0152039Y0098265D01*
X0150461Y0098265D01*
X0152391Y0098120D02*
X0160109Y0098120D01*
X0160461Y0098265D02*
X0159004Y0097662D01*
X0157888Y0096546D01*
X0157285Y0095089D01*
X0157285Y0093511D01*
X0157888Y0092054D01*
X0159004Y0090938D01*
X0160461Y0090335D01*
X0162039Y0090335D01*
X0163496Y0090938D01*
X0164612Y0092054D01*
X0165215Y0093511D01*
X0165215Y0095089D01*
X0164612Y0096546D01*
X0163496Y0097662D01*
X0162039Y0098265D01*
X0160461Y0098265D01*
X0162391Y0098120D02*
X0170109Y0098120D01*
X0170461Y0098265D02*
X0169004Y0097662D01*
X0167888Y0096546D01*
X0167285Y0095089D01*
X0167285Y0093511D01*
X0167888Y0092054D01*
X0169004Y0090938D01*
X0170461Y0090335D01*
X0172039Y0090335D01*
X0173496Y0090938D01*
X0174612Y0092054D01*
X0175215Y0093511D01*
X0175215Y0095089D01*
X0174612Y0096546D01*
X0173496Y0097662D01*
X0172039Y0098265D01*
X0170461Y0098265D01*
X0172391Y0098120D02*
X0181759Y0098120D01*
X0180986Y0094923D02*
X0175215Y0094923D01*
X0175138Y0093324D02*
X0179876Y0093324D01*
X0179588Y0091726D02*
X0174283Y0091726D01*
X0174622Y0096521D02*
X0228950Y0096521D01*
X0228950Y0094923D02*
X0203457Y0094923D01*
X0204698Y0093324D02*
X0228950Y0093324D01*
X0228950Y0091726D02*
X0205018Y0091726D01*
X0204636Y0090127D02*
X0228950Y0090127D01*
X0228950Y0088529D02*
X0203200Y0088529D01*
X0192602Y0082134D02*
X0188745Y0082134D01*
X0189817Y0080536D02*
X0192481Y0080536D01*
X0192481Y0078937D02*
X0190018Y0078937D01*
X0189517Y0077339D02*
X0192481Y0077339D01*
X0193327Y0075740D02*
X0187504Y0075740D01*
X0183755Y0082134D02*
X0130550Y0082134D01*
X0130550Y0083733D02*
X0228950Y0083733D01*
X0228950Y0085332D02*
X0130550Y0085332D01*
X0130550Y0086930D02*
X0228950Y0086930D01*
X0233550Y0086930D02*
X0234483Y0086930D01*
X0234483Y0085332D02*
X0233550Y0085332D01*
X0233550Y0083733D02*
X0234483Y0083733D01*
X0234483Y0082134D02*
X0233550Y0082134D01*
X0233550Y0080536D02*
X0234483Y0080536D01*
X0234483Y0078937D02*
X0233550Y0078937D01*
X0233550Y0077339D02*
X0234483Y0077339D01*
X0234483Y0075740D02*
X0233550Y0075740D01*
X0233550Y0074142D02*
X0234483Y0074142D01*
X0234483Y0072543D02*
X0233550Y0072543D01*
X0233550Y0070945D02*
X0234483Y0070945D01*
X0234483Y0069346D02*
X0233550Y0069346D01*
X0233550Y0067748D02*
X0234483Y0067748D01*
X0234483Y0066149D02*
X0233550Y0066149D01*
X0233550Y0064551D02*
X0234483Y0064551D01*
X0234483Y0062952D02*
X0233550Y0062952D01*
X0233550Y0061354D02*
X0234483Y0061354D01*
X0234483Y0059755D02*
X0233550Y0059755D01*
X0233550Y0058157D02*
X0234483Y0058157D01*
X0234483Y0056558D02*
X0233550Y0056558D01*
X0233550Y0054960D02*
X0234483Y0054960D01*
X0234483Y0053361D02*
X0233550Y0053361D01*
X0233550Y0051763D02*
X0234483Y0051763D01*
X0234483Y0050164D02*
X0233550Y0050164D01*
X0233550Y0048566D02*
X0234483Y0048566D01*
X0234483Y0046967D02*
X0232170Y0046967D01*
X0232203Y0047000D02*
X0232203Y0047000D01*
X0230571Y0045369D02*
X0234483Y0045369D01*
X0234483Y0043770D02*
X0228973Y0043770D01*
X0227374Y0042172D02*
X0234483Y0042172D01*
X0234483Y0040573D02*
X0225776Y0040573D01*
X0224177Y0038975D02*
X0234483Y0038975D01*
X0234483Y0037376D02*
X0222579Y0037376D01*
X0220980Y0035778D02*
X0234483Y0035778D01*
X0234483Y0034179D02*
X0219382Y0034179D01*
X0217783Y0032581D02*
X0234483Y0032581D01*
X0234483Y0030982D02*
X0216185Y0030982D01*
X0214586Y0029384D02*
X0234483Y0029384D01*
X0234483Y0027785D02*
X0212988Y0027785D01*
X0211389Y0026187D02*
X0234483Y0026187D01*
X0234483Y0024588D02*
X0209791Y0024588D01*
X0208192Y0022990D02*
X0234483Y0022990D01*
X0234483Y0021391D02*
X0206594Y0021391D01*
X0204995Y0019793D02*
X0234483Y0019793D01*
X0234483Y0018194D02*
X0203397Y0018194D01*
X0201798Y0016596D02*
X0234483Y0016596D01*
X0234483Y0014997D02*
X0200200Y0014997D01*
X0190763Y0034179D02*
X0176737Y0034179D01*
X0177619Y0035778D02*
X0189881Y0035778D01*
X0189785Y0037376D02*
X0177715Y0037376D01*
X0177141Y0038975D02*
X0190359Y0038975D01*
X0192765Y0044413D02*
X0190946Y0045167D01*
X0189554Y0046559D01*
X0188800Y0048378D01*
X0188800Y0050348D01*
X0189554Y0052167D01*
X0190946Y0053559D01*
X0192765Y0054313D01*
X0194735Y0054313D01*
X0196554Y0053559D01*
X0197946Y0052167D01*
X0198700Y0050348D01*
X0198700Y0048378D01*
X0197946Y0046559D01*
X0196554Y0045167D01*
X0194735Y0044413D01*
X0192765Y0044413D01*
X0190744Y0045369D02*
X0176756Y0045369D01*
X0178115Y0046967D02*
X0189385Y0046967D01*
X0188800Y0048566D02*
X0178700Y0048566D01*
X0178700Y0050164D02*
X0188800Y0050164D01*
X0189387Y0051763D02*
X0178113Y0051763D01*
X0176751Y0053361D02*
X0190749Y0053361D01*
X0196751Y0053361D02*
X0208904Y0053361D01*
X0208800Y0053258D02*
X0209855Y0054313D01*
X0217645Y0054313D01*
X0218700Y0053258D01*
X0218700Y0045468D01*
X0217645Y0044413D01*
X0209855Y0044413D01*
X0208800Y0045468D01*
X0208800Y0053258D01*
X0208800Y0051763D02*
X0198113Y0051763D01*
X0198700Y0050164D02*
X0208800Y0050164D01*
X0208800Y0048566D02*
X0198700Y0048566D01*
X0198115Y0046967D02*
X0208800Y0046967D01*
X0208899Y0045369D02*
X0196756Y0045369D01*
X0218601Y0045369D02*
X0224066Y0045369D01*
X0225665Y0046967D02*
X0218700Y0046967D01*
X0218700Y0048566D02*
X0227263Y0048566D01*
X0228862Y0050164D02*
X0218700Y0050164D01*
X0218700Y0051763D02*
X0228950Y0051763D01*
X0228950Y0053361D02*
X0218596Y0053361D01*
X0233550Y0088529D02*
X0234483Y0088529D01*
X0234483Y0090127D02*
X0233550Y0090127D01*
X0233550Y0091726D02*
X0234483Y0091726D01*
X0234483Y0093324D02*
X0233550Y0093324D01*
X0233550Y0094923D02*
X0234483Y0094923D01*
X0234483Y0096521D02*
X0233550Y0096521D01*
X0233550Y0098120D02*
X0234483Y0098120D01*
X0234483Y0099718D02*
X0233550Y0099718D01*
X0233550Y0101317D02*
X0234483Y0101317D01*
X0234483Y0102915D02*
X0233550Y0102915D01*
X0233550Y0104514D02*
X0234483Y0104514D01*
X0234483Y0106112D02*
X0233550Y0106112D01*
X0233550Y0107711D02*
X0234483Y0107711D01*
X0234483Y0109309D02*
X0233550Y0109309D01*
X0233550Y0110908D02*
X0234483Y0110908D01*
X0234483Y0112506D02*
X0233550Y0112506D01*
X0233550Y0114105D02*
X0234483Y0114105D01*
X0234483Y0115703D02*
X0233550Y0115703D01*
X0233550Y0117302D02*
X0234483Y0117302D01*
X0234483Y0118900D02*
X0233550Y0118900D01*
X0233550Y0120499D02*
X0234483Y0120499D01*
X0234483Y0122097D02*
X0233550Y0122097D01*
X0233550Y0123696D02*
X0234483Y0123696D01*
X0234483Y0125294D02*
X0233550Y0125294D01*
X0233550Y0126893D02*
X0234483Y0126893D01*
X0234483Y0128491D02*
X0233550Y0128491D01*
X0233550Y0130090D02*
X0234483Y0130090D01*
X0234483Y0131688D02*
X0233550Y0131688D01*
X0233550Y0133287D02*
X0234483Y0133287D01*
X0234483Y0134885D02*
X0233550Y0134885D01*
X0233550Y0136484D02*
X0234483Y0136484D01*
X0234483Y0138082D02*
X0233220Y0138082D01*
X0234483Y0139681D02*
X0231622Y0139681D01*
X0230023Y0141279D02*
X0234483Y0141279D01*
X0234483Y0142878D02*
X0228425Y0142878D01*
X0226826Y0144476D02*
X0234483Y0144476D01*
X0234483Y0146075D02*
X0225228Y0146075D01*
X0223629Y0147673D02*
X0234483Y0147673D01*
X0234483Y0149272D02*
X0222031Y0149272D01*
X0220432Y0150870D02*
X0234483Y0150870D01*
X0234483Y0152469D02*
X0218834Y0152469D01*
X0217235Y0154068D02*
X0234483Y0154068D01*
X0234483Y0155666D02*
X0215637Y0155666D01*
X0214038Y0157265D02*
X0234483Y0157265D01*
X0234483Y0158863D02*
X0212440Y0158863D01*
X0210730Y0154068D02*
X0171575Y0154068D01*
X0171575Y0155666D02*
X0196631Y0155666D01*
X0195033Y0157265D02*
X0171575Y0157265D01*
X0171575Y0158863D02*
X0193434Y0158863D01*
X0191836Y0160462D02*
X0171575Y0160462D01*
X0171575Y0162060D02*
X0191450Y0162060D01*
X0191450Y0163659D02*
X0171575Y0163659D01*
X0167975Y0163659D02*
X0149376Y0163659D01*
X0149141Y0163705D02*
X0149907Y0163553D01*
X0150628Y0163254D01*
X0151278Y0162820D01*
X0151830Y0162268D01*
X0152264Y0161618D01*
X0152563Y0160897D01*
X0152715Y0160131D01*
X0152715Y0159740D01*
X0148750Y0159740D01*
X0148750Y0159740D01*
X0152715Y0159740D01*
X0152715Y0159349D01*
X0152563Y0158583D01*
X0152264Y0157862D01*
X0151830Y0157212D01*
X0151278Y0156660D01*
X0150628Y0156226D01*
X0149907Y0155927D01*
X0149395Y0155825D01*
X0151661Y0155825D01*
X0152715Y0154771D01*
X0152715Y0148949D01*
X0151661Y0147895D01*
X0145839Y0147895D01*
X0144785Y0148949D01*
X0144785Y0154771D01*
X0145839Y0155825D01*
X0148105Y0155825D01*
X0147593Y0155927D01*
X0146872Y0156226D01*
X0146222Y0156660D01*
X0145670Y0157212D01*
X0145236Y0157862D01*
X0144937Y0158583D01*
X0144785Y0159349D01*
X0144785Y0159740D01*
X0148750Y0159740D01*
X0148750Y0159740D01*
X0148750Y0163705D01*
X0148359Y0163705D01*
X0147593Y0163553D01*
X0146872Y0163254D01*
X0146222Y0162820D01*
X0145670Y0162268D01*
X0145236Y0161618D01*
X0144937Y0160897D01*
X0144785Y0160131D01*
X0144785Y0159740D01*
X0148750Y0159740D01*
X0148750Y0159740D01*
X0148750Y0163705D01*
X0149141Y0163705D01*
X0148750Y0163659D02*
X0148750Y0163659D01*
X0148124Y0163659D02*
X0130550Y0163659D01*
X0130550Y0165257D02*
X0145523Y0165257D01*
X0145642Y0165138D02*
X0151858Y0165138D01*
X0152912Y0166192D01*
X0152912Y0172408D01*
X0151858Y0173462D01*
X0145642Y0173462D01*
X0144588Y0172408D01*
X0144588Y0166192D01*
X0145642Y0165138D01*
X0144588Y0166856D02*
X0130550Y0166856D01*
X0130550Y0168454D02*
X0144588Y0168454D01*
X0144588Y0170053D02*
X0130550Y0170053D01*
X0130550Y0171651D02*
X0144588Y0171651D01*
X0145430Y0173250D02*
X0130550Y0173250D01*
X0130550Y0174848D02*
X0161029Y0174848D01*
X0160848Y0174727D02*
X0160323Y0174202D01*
X0159910Y0173585D01*
X0159626Y0172899D01*
X0159481Y0172171D01*
X0159481Y0171800D01*
X0163250Y0171800D01*
X0163250Y0171800D01*
X0163250Y0175568D01*
X0162879Y0175568D01*
X0162151Y0175424D01*
X0161465Y0175140D01*
X0160848Y0174727D01*
X0159771Y0173250D02*
X0152070Y0173250D01*
X0152912Y0171651D02*
X0159481Y0171651D01*
X0159481Y0171800D02*
X0159481Y0171429D01*
X0159626Y0170701D01*
X0159910Y0170015D01*
X0160323Y0169398D01*
X0160848Y0168873D01*
X0161465Y0168460D01*
X0162151Y0168176D01*
X0162879Y0168031D01*
X0163250Y0168031D01*
X0163621Y0168031D01*
X0164349Y0168176D01*
X0165035Y0168460D01*
X0165652Y0168873D01*
X0166177Y0169398D01*
X0166590Y0170015D01*
X0166874Y0170701D01*
X0167018Y0171429D01*
X0167018Y0171800D01*
X0167018Y0172171D01*
X0166874Y0172899D01*
X0166590Y0173585D01*
X0166177Y0174202D01*
X0165652Y0174727D01*
X0165035Y0175140D01*
X0164349Y0175424D01*
X0163621Y0175568D01*
X0163250Y0175568D01*
X0163250Y0171800D01*
X0167018Y0171800D01*
X0163250Y0171800D01*
X0163250Y0171800D01*
X0163250Y0171800D01*
X0163250Y0168031D01*
X0163250Y0171800D01*
X0163250Y0171800D01*
X0159481Y0171800D01*
X0159895Y0170053D02*
X0152912Y0170053D01*
X0152912Y0168454D02*
X0161480Y0168454D01*
X0163250Y0168454D02*
X0163250Y0168454D01*
X0163250Y0170053D02*
X0163250Y0170053D01*
X0163250Y0171651D02*
X0163250Y0171651D01*
X0163250Y0173250D02*
X0163250Y0173250D01*
X0163250Y0174848D02*
X0163250Y0174848D01*
X0165471Y0174848D02*
X0167975Y0174848D01*
X0167975Y0173250D02*
X0166729Y0173250D01*
X0167018Y0171651D02*
X0167975Y0171651D01*
X0167975Y0170053D02*
X0166605Y0170053D01*
X0167975Y0168454D02*
X0165020Y0168454D01*
X0167975Y0166856D02*
X0152912Y0166856D01*
X0151977Y0165257D02*
X0167975Y0165257D01*
X0167975Y0162060D02*
X0151969Y0162060D01*
X0152650Y0160462D02*
X0167975Y0160462D01*
X0167975Y0158863D02*
X0152619Y0158863D01*
X0151865Y0157265D02*
X0167975Y0157265D01*
X0167975Y0155666D02*
X0151820Y0155666D01*
X0152715Y0154068D02*
X0160188Y0154068D01*
X0160055Y0153935D02*
X0159481Y0152550D01*
X0159481Y0151050D01*
X0160055Y0149665D01*
X0161115Y0148605D01*
X0162500Y0148031D01*
X0164000Y0148031D01*
X0165385Y0148605D01*
X0166445Y0149665D01*
X0167018Y0151050D01*
X0167018Y0152550D01*
X0166445Y0153935D01*
X0165385Y0154995D01*
X0164000Y0155568D01*
X0162500Y0155568D01*
X0161115Y0154995D01*
X0160055Y0153935D01*
X0159481Y0152469D02*
X0152715Y0152469D01*
X0152715Y0150870D02*
X0159556Y0150870D01*
X0160449Y0149272D02*
X0152715Y0149272D01*
X0144785Y0149272D02*
X0137830Y0149272D01*
X0138112Y0149554D02*
X0138715Y0151011D01*
X0138715Y0152589D01*
X0138112Y0154046D01*
X0136996Y0155162D01*
X0135539Y0155765D01*
X0133961Y0155765D01*
X0132504Y0155162D01*
X0131388Y0154046D01*
X0130785Y0152589D01*
X0130785Y0151011D01*
X0131388Y0149554D01*
X0132504Y0148438D01*
X0133961Y0147835D01*
X0135539Y0147835D01*
X0136996Y0148438D01*
X0138112Y0149554D01*
X0138657Y0150870D02*
X0144785Y0150870D01*
X0144785Y0152469D02*
X0138715Y0152469D01*
X0138090Y0154068D02*
X0144785Y0154068D01*
X0145680Y0155666D02*
X0135779Y0155666D01*
X0133721Y0155666D02*
X0130550Y0155666D01*
X0130550Y0154068D02*
X0131410Y0154068D01*
X0130785Y0152469D02*
X0130550Y0152469D01*
X0130550Y0150870D02*
X0130843Y0150870D01*
X0130550Y0149272D02*
X0131670Y0149272D01*
X0130550Y0147673D02*
X0167975Y0147673D01*
X0167975Y0146075D02*
X0142448Y0146075D01*
X0145635Y0157265D02*
X0130550Y0157265D01*
X0130550Y0158863D02*
X0144881Y0158863D01*
X0144850Y0160462D02*
X0130550Y0160462D01*
X0130550Y0162060D02*
X0145531Y0162060D01*
X0148750Y0162060D02*
X0148750Y0162060D01*
X0148750Y0160462D02*
X0148750Y0160462D01*
X0136996Y0178438D02*
X0138112Y0179554D01*
X0138715Y0181011D01*
X0138715Y0182589D01*
X0138112Y0184046D01*
X0136996Y0185162D01*
X0135539Y0185765D01*
X0133961Y0185765D01*
X0132504Y0185162D01*
X0131388Y0184046D01*
X0130785Y0182589D01*
X0130785Y0181011D01*
X0131388Y0179554D01*
X0132504Y0178438D01*
X0133961Y0177835D01*
X0135539Y0177835D01*
X0136996Y0178438D01*
X0136047Y0178045D02*
X0167975Y0178045D01*
X0167975Y0176447D02*
X0130550Y0176447D01*
X0130550Y0178045D02*
X0133453Y0178045D01*
X0131351Y0179644D02*
X0130550Y0179644D01*
X0130550Y0181242D02*
X0130785Y0181242D01*
X0130889Y0182841D02*
X0130550Y0182841D01*
X0130550Y0184439D02*
X0131781Y0184439D01*
X0130550Y0186038D02*
X0146159Y0186038D01*
X0146038Y0186125D02*
X0146569Y0185740D01*
X0147152Y0185443D01*
X0147775Y0185240D01*
X0148422Y0185138D01*
X0148750Y0185138D01*
X0149078Y0185138D01*
X0149725Y0185240D01*
X0150348Y0185443D01*
X0150931Y0185740D01*
X0151461Y0186125D01*
X0151925Y0186588D01*
X0152310Y0187119D01*
X0152607Y0187702D01*
X0152810Y0188325D01*
X0152912Y0188972D01*
X0152912Y0189300D01*
X0152912Y0189628D01*
X0152810Y0190275D01*
X0152607Y0190898D01*
X0152310Y0191481D01*
X0151925Y0192011D01*
X0151461Y0192475D01*
X0150931Y0192860D01*
X0150348Y0193157D01*
X0149725Y0193360D01*
X0149078Y0193462D01*
X0148750Y0193462D01*
X0148750Y0189300D01*
X0148750Y0189300D01*
X0152912Y0189300D01*
X0148750Y0189300D01*
X0148750Y0189300D01*
X0148750Y0189300D01*
X0144588Y0189300D01*
X0144588Y0189628D01*
X0144690Y0190275D01*
X0144893Y0190898D01*
X0145190Y0191481D01*
X0145575Y0192011D01*
X0146038Y0192475D01*
X0146569Y0192860D01*
X0147152Y0193157D01*
X0147775Y0193360D01*
X0148422Y0193462D01*
X0148750Y0193462D01*
X0148750Y0189300D01*
X0148750Y0185138D01*
X0148750Y0189300D01*
X0148750Y0189300D01*
X0144588Y0189300D01*
X0144588Y0188972D01*
X0144690Y0188325D01*
X0144893Y0187702D01*
X0145190Y0187119D01*
X0145575Y0186588D01*
X0146038Y0186125D01*
X0144926Y0187636D02*
X0130550Y0187636D01*
X0130550Y0189235D02*
X0144588Y0189235D01*
X0144872Y0190833D02*
X0130550Y0190833D01*
X0130550Y0192432D02*
X0145996Y0192432D01*
X0148750Y0192432D02*
X0148750Y0192432D01*
X0148750Y0190833D02*
X0148750Y0190833D01*
X0148750Y0189235D02*
X0148750Y0189235D01*
X0148750Y0187636D02*
X0148750Y0187636D01*
X0148750Y0186038D02*
X0148750Y0186038D01*
X0151341Y0186038D02*
X0165426Y0186038D01*
X0163833Y0187636D02*
X0152574Y0187636D01*
X0152912Y0189235D02*
X0162239Y0189235D01*
X0160646Y0190833D02*
X0152628Y0190833D01*
X0151504Y0192432D02*
X0159052Y0192432D01*
X0157459Y0194030D02*
X0130550Y0194030D01*
X0130550Y0195629D02*
X0155865Y0195629D01*
X0154271Y0197227D02*
X0130550Y0197227D01*
X0130550Y0198826D02*
X0135179Y0198826D01*
X0134450Y0200424D02*
X0130550Y0200424D01*
X0130550Y0202023D02*
X0134450Y0202023D01*
X0134450Y0203621D02*
X0130550Y0203621D01*
X0130550Y0205220D02*
X0134450Y0205220D01*
X0134450Y0206818D02*
X0130550Y0206818D01*
X0130550Y0208417D02*
X0134450Y0208417D01*
X0134450Y0210015D02*
X0130550Y0210015D01*
X0126950Y0210015D02*
X0125550Y0210015D01*
X0125550Y0208417D02*
X0126950Y0208417D01*
X0126950Y0206818D02*
X0125550Y0206818D01*
X0125550Y0205220D02*
X0126950Y0205220D01*
X0126950Y0203621D02*
X0125550Y0203621D01*
X0125550Y0202023D02*
X0126950Y0202023D01*
X0126950Y0200424D02*
X0125550Y0200424D01*
X0125550Y0198826D02*
X0126950Y0198826D01*
X0126950Y0197227D02*
X0125550Y0197227D01*
X0125550Y0195629D02*
X0126950Y0195629D01*
X0126950Y0194030D02*
X0125550Y0194030D01*
X0125550Y0192432D02*
X0126950Y0192432D01*
X0126950Y0190833D02*
X0125550Y0190833D01*
X0125550Y0189235D02*
X0126950Y0189235D01*
X0126950Y0187636D02*
X0125550Y0187636D01*
X0125550Y0186038D02*
X0126950Y0186038D01*
X0126950Y0184439D02*
X0125550Y0184439D01*
X0125550Y0182841D02*
X0126950Y0182841D01*
X0126950Y0181242D02*
X0125550Y0181242D01*
X0125550Y0179644D02*
X0126950Y0179644D01*
X0126950Y0178045D02*
X0125550Y0178045D01*
X0125550Y0176447D02*
X0126950Y0176447D01*
X0126950Y0174848D02*
X0125550Y0174848D01*
X0125550Y0173250D02*
X0126950Y0173250D01*
X0126950Y0171651D02*
X0125550Y0171651D01*
X0125550Y0170053D02*
X0126950Y0170053D01*
X0126950Y0168454D02*
X0125550Y0168454D01*
X0125550Y0166856D02*
X0126950Y0166856D01*
X0126950Y0165257D02*
X0125550Y0165257D01*
X0125550Y0163659D02*
X0126950Y0163659D01*
X0126950Y0162060D02*
X0125550Y0162060D01*
X0125550Y0160462D02*
X0126950Y0160462D01*
X0126950Y0158863D02*
X0125550Y0158863D01*
X0125550Y0157265D02*
X0126950Y0157265D01*
X0126950Y0155666D02*
X0125550Y0155666D01*
X0125550Y0154068D02*
X0126950Y0154068D01*
X0126950Y0152469D02*
X0125550Y0152469D01*
X0125550Y0150870D02*
X0126950Y0150870D01*
X0126950Y0149272D02*
X0125550Y0149272D01*
X0125550Y0147673D02*
X0126950Y0147673D01*
X0126950Y0146075D02*
X0125550Y0146075D01*
X0130550Y0141279D02*
X0223518Y0141279D01*
X0225116Y0139681D02*
X0203977Y0139681D01*
X0203496Y0140162D02*
X0202039Y0140765D01*
X0200461Y0140765D01*
X0199004Y0140162D01*
X0197888Y0139046D01*
X0197285Y0137589D01*
X0197285Y0136011D01*
X0197888Y0134554D01*
X0199004Y0133438D01*
X0200461Y0132835D01*
X0202039Y0132835D01*
X0203496Y0133438D01*
X0204612Y0134554D01*
X0205215Y0136011D01*
X0205215Y0137589D01*
X0204612Y0139046D01*
X0203496Y0140162D01*
X0205011Y0138082D02*
X0226715Y0138082D01*
X0228313Y0136484D02*
X0205215Y0136484D01*
X0204749Y0134885D02*
X0228950Y0134885D01*
X0228950Y0133287D02*
X0203130Y0133287D01*
X0199369Y0133287D02*
X0173130Y0133287D01*
X0173496Y0133438D02*
X0172039Y0132835D01*
X0170461Y0132835D01*
X0169004Y0133438D01*
X0167888Y0134554D01*
X0167285Y0136011D01*
X0167285Y0137589D01*
X0167888Y0139046D01*
X0169004Y0140162D01*
X0170461Y0140765D01*
X0172039Y0140765D01*
X0173496Y0140162D01*
X0174612Y0139046D01*
X0175215Y0137589D01*
X0175215Y0136011D01*
X0174612Y0134554D01*
X0173496Y0133438D01*
X0174749Y0134885D02*
X0197751Y0134885D01*
X0197285Y0136484D02*
X0175215Y0136484D01*
X0175011Y0138082D02*
X0197489Y0138082D01*
X0198523Y0139681D02*
X0173977Y0139681D01*
X0170973Y0142878D02*
X0180357Y0142878D01*
X0180461Y0142835D02*
X0179004Y0143438D01*
X0177888Y0144554D01*
X0177285Y0146011D01*
X0177285Y0147589D01*
X0177888Y0149046D01*
X0179004Y0150162D01*
X0180461Y0150765D01*
X0182039Y0150765D01*
X0183496Y0150162D01*
X0184612Y0149046D01*
X0185215Y0147589D01*
X0185215Y0146011D01*
X0184612Y0144554D01*
X0183496Y0143438D01*
X0182039Y0142835D01*
X0180461Y0142835D01*
X0182143Y0142878D02*
X0200357Y0142878D01*
X0200461Y0142835D02*
X0202039Y0142835D01*
X0203496Y0143438D01*
X0204612Y0144554D01*
X0205215Y0146011D01*
X0205215Y0147589D01*
X0204612Y0149046D01*
X0203496Y0150162D01*
X0202039Y0150765D01*
X0200461Y0150765D01*
X0199004Y0150162D01*
X0197888Y0149046D01*
X0197285Y0147589D01*
X0197285Y0146011D01*
X0197888Y0144554D01*
X0199004Y0143438D01*
X0200461Y0142835D01*
X0202143Y0142878D02*
X0221919Y0142878D01*
X0220321Y0144476D02*
X0204534Y0144476D01*
X0205215Y0146075D02*
X0218722Y0146075D01*
X0217124Y0147673D02*
X0205180Y0147673D01*
X0204386Y0149272D02*
X0215525Y0149272D01*
X0213927Y0150870D02*
X0171575Y0150870D01*
X0171575Y0149272D02*
X0178114Y0149272D01*
X0177320Y0147673D02*
X0171575Y0147673D01*
X0171575Y0146075D02*
X0177285Y0146075D01*
X0177966Y0144476D02*
X0171575Y0144476D01*
X0168523Y0139681D02*
X0130550Y0139681D01*
X0130550Y0138082D02*
X0167489Y0138082D01*
X0167285Y0136484D02*
X0130550Y0136484D01*
X0130550Y0134885D02*
X0167751Y0134885D01*
X0169369Y0133287D02*
X0130550Y0133287D01*
X0130550Y0131688D02*
X0228950Y0131688D01*
X0228950Y0130090D02*
X0194008Y0130090D01*
X0193778Y0130320D02*
X0193128Y0130754D01*
X0192407Y0131053D01*
X0191641Y0131205D01*
X0191250Y0131205D01*
X0190859Y0131205D01*
X0190093Y0131053D01*
X0189372Y0130754D01*
X0188722Y0130320D01*
X0188170Y0129768D01*
X0187736Y0129118D01*
X0187437Y0128397D01*
X0187285Y0127631D01*
X0187285Y0127240D01*
X0187285Y0126849D01*
X0187437Y0126083D01*
X0187736Y0125362D01*
X0188170Y0124712D01*
X0188722Y0124160D01*
X0189372Y0123726D01*
X0190093Y0123427D01*
X0190605Y0123325D01*
X0188339Y0123325D01*
X0187285Y0122271D01*
X0187285Y0116449D01*
X0188339Y0115395D01*
X0194161Y0115395D01*
X0195215Y0116449D01*
X0195215Y0122271D01*
X0194161Y0123325D01*
X0191895Y0123325D01*
X0192407Y0123427D01*
X0193128Y0123726D01*
X0193778Y0124160D01*
X0194330Y0124712D01*
X0194764Y0125362D01*
X0195063Y0126083D01*
X0195215Y0126849D01*
X0195215Y0127240D01*
X0195215Y0127631D01*
X0195063Y0128397D01*
X0194764Y0129118D01*
X0194330Y0129768D01*
X0193778Y0130320D01*
X0195024Y0128491D02*
X0228950Y0128491D01*
X0228950Y0126893D02*
X0195215Y0126893D01*
X0195215Y0127240D02*
X0191250Y0127240D01*
X0195215Y0127240D01*
X0194719Y0125294D02*
X0228950Y0125294D01*
X0228950Y0123696D02*
X0193055Y0123696D01*
X0195215Y0122097D02*
X0228950Y0122097D01*
X0228950Y0120499D02*
X0195215Y0120499D01*
X0195215Y0118900D02*
X0228950Y0118900D01*
X0228950Y0117302D02*
X0195215Y0117302D01*
X0194470Y0115703D02*
X0228950Y0115703D01*
X0228950Y0114105D02*
X0204275Y0114105D01*
X0204445Y0113935D02*
X0203385Y0114995D01*
X0202000Y0115568D01*
X0200500Y0115568D01*
X0199115Y0114995D01*
X0198055Y0113935D01*
X0197481Y0112550D01*
X0197481Y0111050D01*
X0198055Y0109665D01*
X0199115Y0108605D01*
X0200500Y0108031D01*
X0202000Y0108031D01*
X0203385Y0108605D01*
X0204445Y0109665D01*
X0205018Y0111050D01*
X0205018Y0112550D01*
X0204445Y0113935D01*
X0205018Y0112506D02*
X0228950Y0112506D01*
X0228950Y0110908D02*
X0204959Y0110908D01*
X0204089Y0109309D02*
X0228950Y0109309D01*
X0228950Y0107711D02*
X0184754Y0107711D01*
X0184578Y0107638D02*
X0186108Y0108271D01*
X0187279Y0109442D01*
X0187912Y0110972D01*
X0187912Y0112628D01*
X0187279Y0114158D01*
X0186108Y0115329D01*
X0184578Y0115962D01*
X0182922Y0115962D01*
X0181392Y0115329D01*
X0180221Y0114158D01*
X0179588Y0112628D01*
X0179588Y0110972D01*
X0180221Y0109442D01*
X0181392Y0108271D01*
X0182922Y0107638D01*
X0184578Y0107638D01*
X0182746Y0107711D02*
X0130550Y0107711D01*
X0130550Y0109309D02*
X0180355Y0109309D01*
X0179614Y0110908D02*
X0153422Y0110908D01*
X0153496Y0110938D02*
X0154612Y0112054D01*
X0155215Y0113511D01*
X0155215Y0115089D01*
X0154612Y0116546D01*
X0153496Y0117662D01*
X0152039Y0118265D01*
X0150461Y0118265D01*
X0149004Y0117662D01*
X0147888Y0116546D01*
X0147285Y0115089D01*
X0147285Y0113511D01*
X0147888Y0112054D01*
X0149004Y0110938D01*
X0150461Y0110335D01*
X0152039Y0110335D01*
X0153496Y0110938D01*
X0154799Y0112506D02*
X0179588Y0112506D01*
X0180200Y0114105D02*
X0155215Y0114105D01*
X0154961Y0115703D02*
X0182297Y0115703D01*
X0185203Y0115703D02*
X0188030Y0115703D01*
X0187300Y0114105D02*
X0198225Y0114105D01*
X0197481Y0112506D02*
X0187912Y0112506D01*
X0187886Y0110908D02*
X0197541Y0110908D01*
X0198411Y0109309D02*
X0187145Y0109309D01*
X0187285Y0117302D02*
X0153856Y0117302D01*
X0148644Y0117302D02*
X0130550Y0117302D01*
X0130550Y0118900D02*
X0187285Y0118900D01*
X0187285Y0120499D02*
X0172435Y0120499D01*
X0172407Y0120487D02*
X0173128Y0120786D01*
X0173778Y0121220D01*
X0174330Y0121772D01*
X0174764Y0122422D01*
X0175063Y0123143D01*
X0175215Y0123909D01*
X0175215Y0124300D01*
X0175215Y0124691D01*
X0175063Y0125457D01*
X0174764Y0126178D01*
X0174330Y0126828D01*
X0173778Y0127380D01*
X0173128Y0127814D01*
X0172407Y0128113D01*
X0171641Y0128265D01*
X0171250Y0128265D01*
X0170859Y0128265D01*
X0170093Y0128113D01*
X0169372Y0127814D01*
X0168722Y0127380D01*
X0168170Y0126828D01*
X0167736Y0126178D01*
X0167437Y0125457D01*
X0167285Y0124691D01*
X0167285Y0124300D01*
X0167285Y0123909D01*
X0167437Y0123143D01*
X0167736Y0122422D01*
X0168170Y0121772D01*
X0168722Y0121220D01*
X0169372Y0120786D01*
X0170093Y0120487D01*
X0170859Y0120335D01*
X0171250Y0120335D01*
X0171641Y0120335D01*
X0172407Y0120487D01*
X0171250Y0120499D02*
X0171250Y0120499D01*
X0171250Y0120335D02*
X0171250Y0124300D01*
X0171250Y0124300D01*
X0171250Y0128265D01*
X0171250Y0124300D01*
X0175215Y0124300D01*
X0171250Y0124300D01*
X0171250Y0124300D01*
X0171250Y0124300D01*
X0167285Y0124300D01*
X0171250Y0124300D01*
X0171250Y0124300D01*
X0171250Y0120335D01*
X0170065Y0120499D02*
X0162435Y0120499D01*
X0162407Y0120487D02*
X0163128Y0120786D01*
X0163778Y0121220D01*
X0164330Y0121772D01*
X0164764Y0122422D01*
X0165063Y0123143D01*
X0165215Y0123909D01*
X0165215Y0124300D01*
X0165215Y0124691D01*
X0165063Y0125457D01*
X0164764Y0126178D01*
X0164330Y0126828D01*
X0163778Y0127380D01*
X0163128Y0127814D01*
X0162407Y0128113D01*
X0161641Y0128265D01*
X0161250Y0128265D01*
X0160859Y0128265D01*
X0160093Y0128113D01*
X0159372Y0127814D01*
X0158722Y0127380D01*
X0158170Y0126828D01*
X0157736Y0126178D01*
X0157437Y0125457D01*
X0157285Y0124691D01*
X0157285Y0124300D01*
X0157285Y0123909D01*
X0157437Y0123143D01*
X0157736Y0122422D01*
X0158170Y0121772D01*
X0158722Y0121220D01*
X0159372Y0120786D01*
X0160093Y0120487D01*
X0160859Y0120335D01*
X0161250Y0120335D01*
X0161641Y0120335D01*
X0162407Y0120487D01*
X0161250Y0120499D02*
X0161250Y0120499D01*
X0161250Y0120335D02*
X0161250Y0124300D01*
X0161250Y0124300D01*
X0161250Y0128265D01*
X0161250Y0124300D01*
X0165215Y0124300D01*
X0161250Y0124300D01*
X0161250Y0124300D01*
X0161250Y0124300D01*
X0157285Y0124300D01*
X0161250Y0124300D01*
X0161250Y0124300D01*
X0161250Y0120335D01*
X0160065Y0120499D02*
X0142435Y0120499D01*
X0142039Y0120335D02*
X0143496Y0120938D01*
X0144612Y0122054D01*
X0145215Y0123511D01*
X0145215Y0125089D01*
X0144612Y0126546D01*
X0143496Y0127662D01*
X0142039Y0128265D01*
X0140461Y0128265D01*
X0139004Y0127662D01*
X0137888Y0126546D01*
X0137285Y0125089D01*
X0137285Y0123511D01*
X0137888Y0122054D01*
X0139004Y0120938D01*
X0140461Y0120335D01*
X0142039Y0120335D01*
X0140065Y0120499D02*
X0130550Y0120499D01*
X0130550Y0122097D02*
X0137870Y0122097D01*
X0137285Y0123696D02*
X0130550Y0123696D01*
X0130550Y0125294D02*
X0137370Y0125294D01*
X0138235Y0126893D02*
X0130550Y0126893D01*
X0130550Y0128491D02*
X0187476Y0128491D01*
X0187285Y0127240D02*
X0191250Y0127240D01*
X0191250Y0127240D01*
X0191250Y0127240D01*
X0191250Y0131205D01*
X0191250Y0127240D01*
X0187285Y0127240D01*
X0187285Y0126893D02*
X0174265Y0126893D01*
X0175095Y0125294D02*
X0187781Y0125294D01*
X0189445Y0123696D02*
X0175173Y0123696D01*
X0174547Y0122097D02*
X0187285Y0122097D01*
X0191250Y0127240D02*
X0191250Y0127240D01*
X0191250Y0128491D02*
X0191250Y0128491D01*
X0191250Y0130090D02*
X0191250Y0130090D01*
X0188492Y0130090D02*
X0130550Y0130090D01*
X0121950Y0122097D02*
X0013550Y0122097D01*
X0013550Y0120499D02*
X0037832Y0120499D01*
X0038000Y0120568D02*
X0036615Y0119995D01*
X0035555Y0118935D01*
X0034981Y0117550D01*
X0034981Y0116050D01*
X0035555Y0114665D01*
X0036615Y0113605D01*
X0038000Y0113031D01*
X0039500Y0113031D01*
X0040885Y0113605D01*
X0041945Y0114665D01*
X0042518Y0116050D01*
X0042518Y0117550D01*
X0041945Y0118935D01*
X0040885Y0119995D01*
X0039500Y0120568D01*
X0038000Y0120568D01*
X0039668Y0120499D02*
X0051803Y0120499D01*
X0051392Y0120329D02*
X0050221Y0119158D01*
X0049588Y0117628D01*
X0049588Y0115972D01*
X0050221Y0114442D01*
X0051392Y0113271D01*
X0052922Y0112638D01*
X0054578Y0112638D01*
X0056108Y0113271D01*
X0057279Y0114442D01*
X0057912Y0115972D01*
X0057912Y0117628D01*
X0057279Y0119158D01*
X0056108Y0120329D01*
X0054578Y0120962D01*
X0052922Y0120962D01*
X0051392Y0120329D01*
X0050115Y0118900D02*
X0041959Y0118900D01*
X0042518Y0117302D02*
X0049588Y0117302D01*
X0049699Y0115703D02*
X0042375Y0115703D01*
X0041384Y0114105D02*
X0050559Y0114105D01*
X0051392Y0110329D02*
X0050221Y0109158D01*
X0049588Y0107628D01*
X0049588Y0105972D01*
X0050221Y0104442D01*
X0051392Y0103271D01*
X0052922Y0102638D01*
X0054578Y0102638D01*
X0056108Y0103271D01*
X0057279Y0104442D01*
X0057912Y0105972D01*
X0057912Y0107628D01*
X0057279Y0109158D01*
X0056108Y0110329D01*
X0054578Y0110962D01*
X0052922Y0110962D01*
X0051392Y0110329D01*
X0050373Y0109309D02*
X0013550Y0109309D01*
X0013550Y0107711D02*
X0049622Y0107711D01*
X0049588Y0106112D02*
X0013550Y0106112D01*
X0013550Y0104514D02*
X0050192Y0104514D01*
X0052252Y0102915D02*
X0013550Y0102915D01*
X0013550Y0101317D02*
X0112850Y0101317D01*
X0112850Y0102915D02*
X0099545Y0102915D01*
X0099907Y0102987D02*
X0100628Y0103286D01*
X0101278Y0103720D01*
X0101830Y0104272D01*
X0102264Y0104922D01*
X0102563Y0105643D01*
X0102715Y0106409D01*
X0102715Y0106800D01*
X0102715Y0107191D01*
X0102563Y0107957D01*
X0102264Y0108678D01*
X0101830Y0109328D01*
X0101278Y0109880D01*
X0100628Y0110314D01*
X0099907Y0110613D01*
X0099141Y0110765D01*
X0098750Y0110765D01*
X0098359Y0110765D01*
X0097593Y0110613D01*
X0096872Y0110314D01*
X0096222Y0109880D01*
X0095670Y0109328D01*
X0095236Y0108678D01*
X0094937Y0107957D01*
X0094785Y0107191D01*
X0094785Y0106800D01*
X0094785Y0106409D01*
X0094937Y0105643D01*
X0095236Y0104922D01*
X0095670Y0104272D01*
X0096222Y0103720D01*
X0096872Y0103286D01*
X0097593Y0102987D01*
X0098359Y0102835D01*
X0098750Y0102835D01*
X0099141Y0102835D01*
X0099907Y0102987D01*
X0098750Y0102915D02*
X0098750Y0102915D01*
X0098750Y0102835D02*
X0098750Y0106800D01*
X0102715Y0106800D01*
X0098750Y0106800D01*
X0098750Y0106800D01*
X0098750Y0106800D01*
X0098750Y0110765D01*
X0098750Y0106800D01*
X0098750Y0106800D01*
X0098750Y0106800D01*
X0094785Y0106800D01*
X0098750Y0106800D01*
X0098750Y0102835D01*
X0097955Y0102915D02*
X0069733Y0102915D01*
X0069539Y0102835D02*
X0070996Y0103438D01*
X0072112Y0104554D01*
X0072715Y0106011D01*
X0072715Y0107589D01*
X0072112Y0109046D01*
X0070996Y0110162D01*
X0069539Y0110765D01*
X0067961Y0110765D01*
X0066504Y0110162D01*
X0065388Y0109046D01*
X0064785Y0107589D01*
X0064785Y0106011D01*
X0065388Y0104554D01*
X0066504Y0103438D01*
X0067961Y0102835D01*
X0069539Y0102835D01*
X0067767Y0102915D02*
X0055247Y0102915D01*
X0054578Y0100962D02*
X0052922Y0100962D01*
X0051392Y0100329D01*
X0050221Y0099158D01*
X0049588Y0097628D01*
X0049588Y0095972D01*
X0050221Y0094442D01*
X0051392Y0093271D01*
X0052922Y0092638D01*
X0054578Y0092638D01*
X0056108Y0093271D01*
X0057279Y0094442D01*
X0057912Y0095972D01*
X0057912Y0097628D01*
X0057279Y0099158D01*
X0056108Y0100329D01*
X0054578Y0100962D01*
X0056718Y0099718D02*
X0066060Y0099718D01*
X0066504Y0100162D02*
X0065388Y0099046D01*
X0064785Y0097589D01*
X0064785Y0096011D01*
X0065388Y0094554D01*
X0066504Y0093438D01*
X0067961Y0092835D01*
X0069539Y0092835D01*
X0070996Y0093438D01*
X0072112Y0094554D01*
X0072715Y0096011D01*
X0072715Y0097589D01*
X0072112Y0099046D01*
X0070996Y0100162D01*
X0069539Y0100765D01*
X0067961Y0100765D01*
X0066504Y0100162D01*
X0065005Y0098120D02*
X0057709Y0098120D01*
X0057912Y0096521D02*
X0064785Y0096521D01*
X0065236Y0094923D02*
X0057477Y0094923D01*
X0056160Y0093324D02*
X0066780Y0093324D01*
X0067961Y0090765D02*
X0066504Y0090162D01*
X0065388Y0089046D01*
X0064785Y0087589D01*
X0064785Y0086011D01*
X0065388Y0084554D01*
X0066504Y0083438D01*
X0067961Y0082835D01*
X0069539Y0082835D01*
X0070996Y0083438D01*
X0072112Y0084554D01*
X0072715Y0086011D01*
X0072715Y0087589D01*
X0072112Y0089046D01*
X0070996Y0090162D01*
X0069539Y0090765D01*
X0067961Y0090765D01*
X0066469Y0090127D02*
X0013550Y0090127D01*
X0013550Y0088529D02*
X0065174Y0088529D01*
X0064785Y0086930D02*
X0013550Y0086930D01*
X0013550Y0085332D02*
X0042428Y0085332D01*
X0043000Y0085568D02*
X0041615Y0084995D01*
X0040555Y0083935D01*
X0039981Y0082550D01*
X0039981Y0081050D01*
X0040555Y0079665D01*
X0041615Y0078605D01*
X0043000Y0078031D01*
X0044500Y0078031D01*
X0045885Y0078605D01*
X0046945Y0079665D01*
X0047518Y0081050D01*
X0047518Y0082550D01*
X0046945Y0083935D01*
X0045885Y0084995D01*
X0044500Y0085568D01*
X0043000Y0085568D01*
X0045072Y0085332D02*
X0050799Y0085332D01*
X0051036Y0085568D02*
X0049981Y0084514D01*
X0049981Y0079086D01*
X0051036Y0078031D01*
X0056464Y0078031D01*
X0057518Y0079086D01*
X0057518Y0084514D01*
X0056464Y0085568D01*
X0051036Y0085568D01*
X0049981Y0083733D02*
X0047028Y0083733D01*
X0047518Y0082134D02*
X0049981Y0082134D01*
X0049981Y0080536D02*
X0047305Y0080536D01*
X0046217Y0078937D02*
X0050130Y0078937D01*
X0057370Y0078937D02*
X0077843Y0078937D01*
X0077888Y0079046D02*
X0077285Y0077589D01*
X0077285Y0076011D01*
X0077888Y0074554D01*
X0079004Y0073438D01*
X0080461Y0072835D01*
X0082039Y0072835D01*
X0083496Y0073438D01*
X0084612Y0074554D01*
X0085215Y0076011D01*
X0085215Y0077589D01*
X0084612Y0079046D01*
X0083496Y0080162D01*
X0082039Y0080765D01*
X0080461Y0080765D01*
X0079004Y0080162D01*
X0077888Y0079046D01*
X0077285Y0077339D02*
X0013550Y0077339D01*
X0013550Y0078937D02*
X0041283Y0078937D01*
X0040195Y0080536D02*
X0013550Y0080536D01*
X0013550Y0082134D02*
X0039981Y0082134D01*
X0040472Y0083733D02*
X0013550Y0083733D01*
X0008950Y0083733D02*
X0007800Y0083733D01*
X0007800Y0082134D02*
X0008950Y0082134D01*
X0008950Y0080536D02*
X0007800Y0080536D01*
X0007800Y0078937D02*
X0008950Y0078937D01*
X0008950Y0077339D02*
X0007800Y0077339D01*
X0007800Y0075740D02*
X0008950Y0075740D01*
X0008950Y0074142D02*
X0007800Y0074142D01*
X0007800Y0072543D02*
X0008950Y0072543D01*
X0008950Y0070945D02*
X0007800Y0070945D01*
X0007800Y0069346D02*
X0008950Y0069346D01*
X0008950Y0067748D02*
X0007800Y0067748D01*
X0007800Y0066149D02*
X0008950Y0066149D01*
X0008950Y0064551D02*
X0007800Y0064551D01*
X0007800Y0062952D02*
X0008950Y0062952D01*
X0008950Y0061354D02*
X0007800Y0061354D01*
X0007800Y0059755D02*
X0008950Y0059755D01*
X0008950Y0058157D02*
X0007800Y0058157D01*
X0007800Y0056558D02*
X0008950Y0056558D01*
X0008950Y0054960D02*
X0007800Y0054960D01*
X0007800Y0053361D02*
X0008950Y0053361D01*
X0008950Y0051763D02*
X0007800Y0051763D01*
X0007800Y0050164D02*
X0008950Y0050164D01*
X0008950Y0048566D02*
X0007800Y0048566D01*
X0008950Y0048347D02*
X0010297Y0047000D01*
X0042797Y0014500D01*
X0102271Y0014500D01*
X0102388Y0014219D01*
X0103669Y0012938D01*
X0105344Y0012244D01*
X0107156Y0012244D01*
X0108831Y0012938D01*
X0110112Y0014219D01*
X0110806Y0015894D01*
X0110806Y0017706D01*
X0110112Y0019381D01*
X0108831Y0020662D01*
X0107156Y0021356D01*
X0105344Y0021356D01*
X0103669Y0020662D01*
X0102388Y0019381D01*
X0102271Y0019100D01*
X0044703Y0019100D01*
X0013550Y0050253D01*
X0013550Y0135847D01*
X0032203Y0154500D01*
X0065442Y0154500D01*
X0066504Y0153438D01*
X0067961Y0152835D01*
X0069539Y0152835D01*
X0070996Y0153438D01*
X0072112Y0154554D01*
X0072715Y0156011D01*
X0072715Y0157589D01*
X0072112Y0159046D01*
X0070996Y0160162D01*
X0069539Y0160765D01*
X0067961Y0160765D01*
X0066504Y0160162D01*
X0065442Y0159100D01*
X0030297Y0159100D01*
X0028950Y0157753D01*
X0008950Y0137753D01*
X0008950Y0048347D01*
X0007800Y0046967D02*
X0010330Y0046967D01*
X0011929Y0045369D02*
X0007800Y0045369D01*
X0007800Y0043770D02*
X0013527Y0043770D01*
X0015126Y0042172D02*
X0007800Y0042172D01*
X0007800Y0040573D02*
X0016724Y0040573D01*
X0018323Y0038975D02*
X0007800Y0038975D01*
X0007800Y0037376D02*
X0019921Y0037376D01*
X0021520Y0035778D02*
X0007800Y0035778D01*
X0007800Y0034179D02*
X0023118Y0034179D01*
X0024717Y0032581D02*
X0007800Y0032581D01*
X0007800Y0030982D02*
X0026315Y0030982D01*
X0027914Y0029384D02*
X0007800Y0029384D01*
X0007800Y0027785D02*
X0029512Y0027785D01*
X0031111Y0026187D02*
X0007800Y0026187D01*
X0007800Y0024588D02*
X0032709Y0024588D01*
X0034308Y0022990D02*
X0007800Y0022990D01*
X0007800Y0021391D02*
X0035906Y0021391D01*
X0037505Y0019793D02*
X0007800Y0019793D01*
X0007800Y0018194D02*
X0039103Y0018194D01*
X0040702Y0016596D02*
X0007800Y0016596D01*
X0007800Y0014997D02*
X0042300Y0014997D01*
X0044010Y0019793D02*
X0102800Y0019793D01*
X0103669Y0022938D02*
X0105344Y0022244D01*
X0107156Y0022244D01*
X0108831Y0022938D01*
X0110112Y0024219D01*
X0110806Y0025894D01*
X0110806Y0027706D01*
X0110112Y0029381D01*
X0108831Y0030662D01*
X0107156Y0031356D01*
X0105344Y0031356D01*
X0103669Y0030662D01*
X0102388Y0029381D01*
X0101694Y0027706D01*
X0101694Y0025894D01*
X0102388Y0024219D01*
X0103669Y0022938D01*
X0103617Y0022990D02*
X0040813Y0022990D01*
X0039215Y0024588D02*
X0102235Y0024588D01*
X0101694Y0026187D02*
X0037616Y0026187D01*
X0036018Y0027785D02*
X0101727Y0027785D01*
X0102391Y0029384D02*
X0034419Y0029384D01*
X0032821Y0030982D02*
X0104441Y0030982D01*
X0108059Y0030982D02*
X0112850Y0030982D01*
X0112850Y0032581D02*
X0031222Y0032581D01*
X0029624Y0034179D02*
X0112850Y0034179D01*
X0112850Y0035778D02*
X0028025Y0035778D01*
X0026426Y0037376D02*
X0112850Y0037376D01*
X0112850Y0038975D02*
X0024828Y0038975D01*
X0023229Y0040573D02*
X0112850Y0040573D01*
X0112850Y0042172D02*
X0021631Y0042172D01*
X0020032Y0043770D02*
X0101172Y0043770D01*
X0101504Y0043438D02*
X0102961Y0042835D01*
X0104539Y0042835D01*
X0105996Y0043438D01*
X0107112Y0044554D01*
X0107715Y0046011D01*
X0107715Y0047589D01*
X0107112Y0049046D01*
X0105996Y0050162D01*
X0104539Y0050765D01*
X0102961Y0050765D01*
X0101504Y0050162D01*
X0100388Y0049046D01*
X0099785Y0047589D01*
X0099785Y0046011D01*
X0100388Y0044554D01*
X0101504Y0043438D01*
X0100051Y0045369D02*
X0073601Y0045369D01*
X0073700Y0045468D02*
X0073700Y0053258D01*
X0072645Y0054313D01*
X0064855Y0054313D01*
X0063800Y0053258D01*
X0063800Y0045468D01*
X0064855Y0044413D01*
X0072645Y0044413D01*
X0073700Y0045468D01*
X0073700Y0046967D02*
X0099785Y0046967D01*
X0100189Y0048566D02*
X0073700Y0048566D01*
X0073700Y0050164D02*
X0101510Y0050164D01*
X0105990Y0050164D02*
X0112850Y0050164D01*
X0112850Y0048566D02*
X0107311Y0048566D01*
X0107715Y0046967D02*
X0112850Y0046967D01*
X0112850Y0045369D02*
X0107449Y0045369D01*
X0106328Y0043770D02*
X0112850Y0043770D01*
X0112850Y0051763D02*
X0073700Y0051763D01*
X0073596Y0053361D02*
X0079190Y0053361D01*
X0079004Y0053438D02*
X0080461Y0052835D01*
X0082039Y0052835D01*
X0083496Y0053438D01*
X0084612Y0054554D01*
X0085215Y0056011D01*
X0085215Y0057589D01*
X0084612Y0059046D01*
X0083496Y0060162D01*
X0082039Y0060765D01*
X0080461Y0060765D01*
X0079004Y0060162D01*
X0077888Y0059046D01*
X0077285Y0057589D01*
X0077285Y0056011D01*
X0077888Y0054554D01*
X0079004Y0053438D01*
X0077720Y0054960D02*
X0013550Y0054960D01*
X0013550Y0056558D02*
X0077285Y0056558D01*
X0077520Y0058157D02*
X0013550Y0058157D01*
X0013550Y0059755D02*
X0078597Y0059755D01*
X0083902Y0059755D02*
X0091097Y0059755D01*
X0091504Y0060162D02*
X0090388Y0059046D01*
X0089785Y0057589D01*
X0089785Y0056011D01*
X0090388Y0054554D01*
X0091504Y0053438D01*
X0092961Y0052835D01*
X0094539Y0052835D01*
X0095996Y0053438D01*
X0097112Y0054554D01*
X0097715Y0056011D01*
X0097715Y0057589D01*
X0097112Y0059046D01*
X0095996Y0060162D01*
X0094539Y0060765D01*
X0092961Y0060765D01*
X0091504Y0060162D01*
X0090020Y0058157D02*
X0084980Y0058157D01*
X0085215Y0056558D02*
X0089785Y0056558D01*
X0090220Y0054960D02*
X0084780Y0054960D01*
X0083310Y0053361D02*
X0091690Y0053361D01*
X0095810Y0053361D02*
X0112850Y0053361D01*
X0112850Y0054960D02*
X0097280Y0054960D01*
X0097715Y0056558D02*
X0112850Y0056558D01*
X0112850Y0058157D02*
X0097480Y0058157D01*
X0096402Y0059755D02*
X0112850Y0059755D01*
X0112850Y0061354D02*
X0013550Y0061354D01*
X0013550Y0062952D02*
X0112850Y0062952D01*
X0112850Y0064551D02*
X0013550Y0064551D01*
X0013550Y0066149D02*
X0112850Y0066149D01*
X0112850Y0067748D02*
X0013550Y0067748D01*
X0013550Y0069346D02*
X0112850Y0069346D01*
X0112850Y0070945D02*
X0013550Y0070945D01*
X0013550Y0072543D02*
X0112850Y0072543D01*
X0112850Y0074142D02*
X0106700Y0074142D01*
X0107112Y0074554D02*
X0107715Y0076011D01*
X0107715Y0077589D01*
X0107112Y0079046D01*
X0105996Y0080162D01*
X0104539Y0080765D01*
X0102961Y0080765D01*
X0101504Y0080162D01*
X0100388Y0079046D01*
X0099785Y0077589D01*
X0099785Y0076011D01*
X0100388Y0074554D01*
X0101504Y0073438D01*
X0102961Y0072835D01*
X0104539Y0072835D01*
X0105996Y0073438D01*
X0107112Y0074554D01*
X0107603Y0075740D02*
X0112850Y0075740D01*
X0112850Y0077339D02*
X0107715Y0077339D01*
X0107157Y0078937D02*
X0112850Y0078937D01*
X0112850Y0080536D02*
X0105092Y0080536D01*
X0102408Y0080536D02*
X0095092Y0080536D01*
X0094539Y0080765D02*
X0092961Y0080765D01*
X0091504Y0080162D01*
X0090388Y0079046D01*
X0089785Y0077589D01*
X0089785Y0076011D01*
X0090388Y0074554D01*
X0091504Y0073438D01*
X0092961Y0072835D01*
X0094539Y0072835D01*
X0095996Y0073438D01*
X0097112Y0074554D01*
X0097715Y0076011D01*
X0097715Y0077589D01*
X0097112Y0079046D01*
X0095996Y0080162D01*
X0094539Y0080765D01*
X0092408Y0080536D02*
X0082592Y0080536D01*
X0084657Y0078937D02*
X0090343Y0078937D01*
X0089785Y0077339D02*
X0085215Y0077339D01*
X0085103Y0075740D02*
X0089897Y0075740D01*
X0090800Y0074142D02*
X0084200Y0074142D01*
X0079908Y0080536D02*
X0057518Y0080536D01*
X0057518Y0082134D02*
X0112850Y0082134D01*
X0112850Y0083733D02*
X0101291Y0083733D01*
X0100996Y0083438D02*
X0102112Y0084554D01*
X0102715Y0086011D01*
X0102715Y0087589D01*
X0102112Y0089046D01*
X0100996Y0090162D01*
X0099539Y0090765D01*
X0097961Y0090765D01*
X0096504Y0090162D01*
X0095388Y0089046D01*
X0094785Y0087589D01*
X0094785Y0086011D01*
X0095388Y0084554D01*
X0096504Y0083438D01*
X0097961Y0082835D01*
X0099539Y0082835D01*
X0100996Y0083438D01*
X0102434Y0085332D02*
X0112850Y0085332D01*
X0112850Y0086930D02*
X0102715Y0086930D01*
X0102326Y0088529D02*
X0112850Y0088529D01*
X0112850Y0090127D02*
X0101031Y0090127D01*
X0099539Y0092835D02*
X0100996Y0093438D01*
X0102112Y0094554D01*
X0102715Y0096011D01*
X0102715Y0097589D01*
X0102112Y0099046D01*
X0100996Y0100162D01*
X0099539Y0100765D01*
X0097961Y0100765D01*
X0096504Y0100162D01*
X0095388Y0099046D01*
X0094785Y0097589D01*
X0094785Y0096011D01*
X0095388Y0094554D01*
X0096504Y0093438D01*
X0097961Y0092835D01*
X0099539Y0092835D01*
X0100720Y0093324D02*
X0112850Y0093324D01*
X0112850Y0091726D02*
X0013550Y0091726D01*
X0013550Y0093324D02*
X0024280Y0093324D01*
X0024004Y0093438D02*
X0025461Y0092835D01*
X0027039Y0092835D01*
X0028496Y0093438D01*
X0029612Y0094554D01*
X0030215Y0096011D01*
X0030215Y0097589D01*
X0029612Y0099046D01*
X0028496Y0100162D01*
X0027039Y0100765D01*
X0025461Y0100765D01*
X0024004Y0100162D01*
X0022888Y0099046D01*
X0022285Y0097589D01*
X0022285Y0096011D01*
X0022888Y0094554D01*
X0024004Y0093438D01*
X0022736Y0094923D02*
X0013550Y0094923D01*
X0013550Y0096521D02*
X0022285Y0096521D01*
X0022505Y0098120D02*
X0013550Y0098120D01*
X0013550Y0099718D02*
X0023560Y0099718D01*
X0028220Y0093324D02*
X0037294Y0093324D01*
X0036615Y0093605D02*
X0038000Y0093031D01*
X0039500Y0093031D01*
X0040885Y0093605D01*
X0041945Y0094665D01*
X0042518Y0096050D01*
X0042518Y0097550D01*
X0041945Y0098935D01*
X0040885Y0099995D01*
X0039500Y0100568D01*
X0038000Y0100568D01*
X0036615Y0099995D01*
X0035555Y0098935D01*
X0034981Y0097550D01*
X0034981Y0096050D01*
X0035555Y0094665D01*
X0036615Y0093605D01*
X0035449Y0094923D02*
X0029764Y0094923D01*
X0030215Y0096521D02*
X0034981Y0096521D01*
X0035218Y0098120D02*
X0029995Y0098120D01*
X0028940Y0099718D02*
X0036339Y0099718D01*
X0041161Y0099718D02*
X0050782Y0099718D01*
X0049791Y0098120D02*
X0042282Y0098120D01*
X0042518Y0096521D02*
X0049588Y0096521D01*
X0050023Y0094923D02*
X0042051Y0094923D01*
X0040206Y0093324D02*
X0051340Y0093324D01*
X0056701Y0085332D02*
X0065066Y0085332D01*
X0066209Y0083733D02*
X0057518Y0083733D01*
X0071291Y0083733D02*
X0096209Y0083733D01*
X0095066Y0085332D02*
X0072434Y0085332D01*
X0072715Y0086930D02*
X0094785Y0086930D01*
X0095174Y0088529D02*
X0072326Y0088529D01*
X0071031Y0090127D02*
X0096469Y0090127D01*
X0096780Y0093324D02*
X0070720Y0093324D01*
X0072264Y0094923D02*
X0095236Y0094923D01*
X0094785Y0096521D02*
X0072715Y0096521D01*
X0072495Y0098120D02*
X0095005Y0098120D01*
X0096060Y0099718D02*
X0071440Y0099718D01*
X0072072Y0104514D02*
X0095509Y0104514D01*
X0094844Y0106112D02*
X0072715Y0106112D01*
X0072665Y0107711D02*
X0094888Y0107711D01*
X0095658Y0109309D02*
X0071849Y0109309D01*
X0069539Y0112835D02*
X0070996Y0113438D01*
X0072112Y0114554D01*
X0072715Y0116011D01*
X0072715Y0117589D01*
X0072112Y0119046D01*
X0070996Y0120162D01*
X0069539Y0120765D01*
X0067961Y0120765D01*
X0066504Y0120162D01*
X0065388Y0119046D01*
X0064785Y0117589D01*
X0064785Y0116011D01*
X0065388Y0114554D01*
X0066504Y0113438D01*
X0067961Y0112835D01*
X0069539Y0112835D01*
X0071663Y0114105D02*
X0095837Y0114105D01*
X0094912Y0115703D02*
X0072588Y0115703D01*
X0072715Y0117302D02*
X0094785Y0117302D01*
X0095328Y0118900D02*
X0072172Y0118900D01*
X0070182Y0120499D02*
X0097318Y0120499D01*
X0096246Y0123696D02*
X0071254Y0123696D01*
X0070996Y0123438D02*
X0072112Y0124554D01*
X0072715Y0126011D01*
X0072715Y0127589D01*
X0072112Y0129046D01*
X0070996Y0130162D01*
X0069539Y0130765D01*
X0067961Y0130765D01*
X0066504Y0130162D01*
X0065388Y0129046D01*
X0064785Y0127589D01*
X0064785Y0126011D01*
X0065388Y0124554D01*
X0066504Y0123438D01*
X0067961Y0122835D01*
X0069539Y0122835D01*
X0070996Y0123438D01*
X0072418Y0125294D02*
X0095082Y0125294D01*
X0094785Y0126893D02*
X0072715Y0126893D01*
X0072341Y0128491D02*
X0095159Y0128491D01*
X0096432Y0130090D02*
X0071068Y0130090D01*
X0069539Y0132835D02*
X0070996Y0133438D01*
X0072112Y0134554D01*
X0072715Y0136011D01*
X0072715Y0137589D01*
X0072112Y0139046D01*
X0070996Y0140162D01*
X0069539Y0140765D01*
X0067961Y0140765D01*
X0066504Y0140162D01*
X0065388Y0139046D01*
X0064785Y0137589D01*
X0064785Y0136011D01*
X0065388Y0134554D01*
X0066504Y0133438D01*
X0067961Y0132835D01*
X0069539Y0132835D01*
X0070630Y0133287D02*
X0086869Y0133287D01*
X0086504Y0133438D02*
X0087961Y0132835D01*
X0089539Y0132835D01*
X0090996Y0133438D01*
X0092112Y0134554D01*
X0092715Y0136011D01*
X0092715Y0137589D01*
X0092112Y0139046D01*
X0090996Y0140162D01*
X0089539Y0140765D01*
X0087961Y0140765D01*
X0086504Y0140162D01*
X0085388Y0139046D01*
X0084785Y0137589D01*
X0084785Y0136011D01*
X0085388Y0134554D01*
X0086504Y0133438D01*
X0085251Y0134885D02*
X0072249Y0134885D01*
X0072715Y0136484D02*
X0084785Y0136484D01*
X0084989Y0138082D02*
X0072511Y0138082D01*
X0071477Y0139681D02*
X0086023Y0139681D01*
X0090630Y0133287D02*
X0100447Y0133287D01*
X0099845Y0134885D02*
X0092249Y0134885D01*
X0092715Y0136484D02*
X0099845Y0136484D01*
X0099845Y0138082D02*
X0092511Y0138082D01*
X0091477Y0139681D02*
X0099845Y0139681D01*
X0098750Y0144476D02*
X0098750Y0144476D01*
X0098750Y0146075D02*
X0098750Y0146075D01*
X0098750Y0147673D02*
X0098750Y0147673D01*
X0098750Y0149272D02*
X0098750Y0149272D01*
X0098750Y0152835D02*
X0098359Y0152835D01*
X0097593Y0152987D01*
X0096872Y0153286D01*
X0096222Y0153720D01*
X0095670Y0154272D01*
X0095236Y0154922D01*
X0094937Y0155643D01*
X0094785Y0156409D01*
X0094785Y0156800D01*
X0098750Y0156800D01*
X0102715Y0156800D01*
X0102715Y0157191D01*
X0102563Y0157957D01*
X0102264Y0158678D01*
X0101830Y0159328D01*
X0101278Y0159880D01*
X0100628Y0160314D01*
X0099907Y0160613D01*
X0099141Y0160765D01*
X0098750Y0160765D01*
X0098359Y0160765D01*
X0097593Y0160613D01*
X0096872Y0160314D01*
X0096222Y0159880D01*
X0095670Y0159328D01*
X0095236Y0158678D01*
X0094937Y0157957D01*
X0094785Y0157191D01*
X0094785Y0156800D01*
X0098750Y0156800D01*
X0098750Y0156800D01*
X0098750Y0156800D01*
X0098750Y0160765D01*
X0098750Y0156800D01*
X0102715Y0156800D01*
X0102715Y0156409D01*
X0102563Y0155643D01*
X0102264Y0154922D01*
X0101830Y0154272D01*
X0101278Y0153720D01*
X0100628Y0153286D01*
X0099907Y0152987D01*
X0099141Y0152835D01*
X0098750Y0152835D01*
X0098750Y0156800D01*
X0098750Y0156800D01*
X0098750Y0156800D01*
X0098750Y0152835D01*
X0098750Y0154068D02*
X0098750Y0154068D01*
X0098750Y0155666D02*
X0098750Y0155666D01*
X0098750Y0157265D02*
X0098750Y0157265D01*
X0098750Y0158863D02*
X0098750Y0158863D01*
X0098750Y0160462D02*
X0098750Y0160462D01*
X0100272Y0160462D02*
X0121950Y0160462D01*
X0121950Y0162060D02*
X0007800Y0162060D01*
X0007800Y0160462D02*
X0067228Y0160462D01*
X0068664Y0164413D02*
X0065363Y0164413D01*
X0064906Y0164536D01*
X0064495Y0164773D01*
X0064160Y0165108D01*
X0063923Y0165519D01*
X0063800Y0165976D01*
X0063800Y0169277D01*
X0068664Y0169277D01*
X0068664Y0169449D01*
X0068664Y0174313D01*
X0065363Y0174313D01*
X0064906Y0174190D01*
X0064495Y0173953D01*
X0064160Y0173618D01*
X0063923Y0173207D01*
X0063800Y0172750D01*
X0063800Y0169449D01*
X0068664Y0169449D01*
X0068836Y0169449D01*
X0068836Y0174313D01*
X0072137Y0174313D01*
X0072594Y0174190D01*
X0073005Y0173953D01*
X0073340Y0173618D01*
X0073577Y0173207D01*
X0073700Y0172750D01*
X0073700Y0169449D01*
X0068836Y0169449D01*
X0068836Y0169277D01*
X0073700Y0169277D01*
X0073700Y0165976D01*
X0073577Y0165519D01*
X0073340Y0165108D01*
X0073005Y0164773D01*
X0072594Y0164536D01*
X0072137Y0164413D01*
X0068836Y0164413D01*
X0068836Y0169277D01*
X0068664Y0169277D01*
X0068664Y0164413D01*
X0068664Y0165257D02*
X0068836Y0165257D01*
X0068836Y0166856D02*
X0068664Y0166856D01*
X0068664Y0168454D02*
X0068836Y0168454D01*
X0068836Y0170053D02*
X0068664Y0170053D01*
X0068664Y0171651D02*
X0068836Y0171651D01*
X0068836Y0173250D02*
X0068664Y0173250D01*
X0063947Y0173250D02*
X0051821Y0173250D01*
X0051974Y0173138D02*
X0051344Y0173596D01*
X0050650Y0173950D01*
X0049909Y0174191D01*
X0049140Y0174313D01*
X0048836Y0174313D01*
X0048836Y0169449D01*
X0048664Y0169449D01*
X0048664Y0174313D01*
X0048360Y0174313D01*
X0047591Y0174191D01*
X0046850Y0173950D01*
X0046156Y0173596D01*
X0045526Y0173138D01*
X0044975Y0172587D01*
X0044517Y0171957D01*
X0044163Y0171263D01*
X0043922Y0170522D01*
X0043800Y0169753D01*
X0043800Y0169449D01*
X0048664Y0169449D01*
X0048664Y0169277D01*
X0048836Y0169277D01*
X0048836Y0169449D01*
X0053700Y0169449D01*
X0053700Y0169753D01*
X0053578Y0170522D01*
X0053337Y0171263D01*
X0052983Y0171957D01*
X0052525Y0172587D01*
X0051974Y0173138D01*
X0053139Y0171651D02*
X0063800Y0171651D01*
X0063800Y0170053D02*
X0053652Y0170053D01*
X0053700Y0169277D02*
X0048836Y0169277D01*
X0048836Y0164413D01*
X0049140Y0164413D01*
X0049909Y0164535D01*
X0050650Y0164776D01*
X0051344Y0165130D01*
X0051974Y0165588D01*
X0052525Y0166139D01*
X0052983Y0166769D01*
X0053337Y0167463D01*
X0053578Y0168204D01*
X0053700Y0168973D01*
X0053700Y0169277D01*
X0053617Y0168454D02*
X0063800Y0168454D01*
X0063800Y0166856D02*
X0053027Y0166856D01*
X0051519Y0165257D02*
X0064074Y0165257D01*
X0070272Y0160462D02*
X0097228Y0160462D01*
X0095359Y0158863D02*
X0072188Y0158863D01*
X0072715Y0157265D02*
X0094799Y0157265D01*
X0094933Y0155666D02*
X0072572Y0155666D01*
X0071625Y0154068D02*
X0095875Y0154068D01*
X0095633Y0149272D02*
X0071886Y0149272D01*
X0072680Y0147673D02*
X0094881Y0147673D01*
X0094851Y0146075D02*
X0072715Y0146075D01*
X0072034Y0144476D02*
X0095533Y0144476D01*
X0101625Y0154068D02*
X0121950Y0154068D01*
X0121950Y0155666D02*
X0102567Y0155666D01*
X0102701Y0157265D02*
X0121950Y0157265D01*
X0121950Y0158863D02*
X0102141Y0158863D01*
X0121950Y0163659D02*
X0007800Y0163659D01*
X0007800Y0165257D02*
X0025856Y0165257D01*
X0025946Y0165167D02*
X0027765Y0164413D01*
X0029735Y0164413D01*
X0031554Y0165167D01*
X0032946Y0166559D01*
X0033700Y0168378D01*
X0033700Y0170348D01*
X0032946Y0172167D01*
X0031554Y0173559D01*
X0029735Y0174313D01*
X0027765Y0174313D01*
X0025946Y0173559D01*
X0024554Y0172167D01*
X0023800Y0170348D01*
X0023800Y0168378D01*
X0024554Y0166559D01*
X0025946Y0165167D01*
X0024431Y0166856D02*
X0007800Y0166856D01*
X0007800Y0168454D02*
X0023800Y0168454D01*
X0023800Y0170053D02*
X0007800Y0170053D01*
X0007800Y0171651D02*
X0024340Y0171651D01*
X0025637Y0173250D02*
X0007800Y0173250D01*
X0007800Y0174848D02*
X0121950Y0174848D01*
X0121950Y0173250D02*
X0073553Y0173250D01*
X0073700Y0171651D02*
X0121950Y0171651D01*
X0121950Y0170053D02*
X0073700Y0170053D01*
X0073700Y0168454D02*
X0121950Y0168454D01*
X0121950Y0166856D02*
X0073700Y0166856D01*
X0073426Y0165257D02*
X0121950Y0165257D01*
X0121950Y0176447D02*
X0007800Y0176447D01*
X0007800Y0178045D02*
X0121950Y0178045D01*
X0121950Y0179644D02*
X0007800Y0179644D01*
X0007800Y0181242D02*
X0121950Y0181242D01*
X0121950Y0182841D02*
X0007800Y0182841D01*
X0007800Y0184439D02*
X0121950Y0184439D01*
X0121950Y0186038D02*
X0007800Y0186038D01*
X0007800Y0187636D02*
X0121950Y0187636D01*
X0121950Y0189235D02*
X0007800Y0189235D01*
X0007800Y0190833D02*
X0121950Y0190833D01*
X0121950Y0192432D02*
X0007800Y0192432D01*
X0007800Y0194030D02*
X0121950Y0194030D01*
X0121950Y0195629D02*
X0007800Y0195629D01*
X0007800Y0197227D02*
X0121950Y0197227D01*
X0121950Y0198826D02*
X0007800Y0198826D01*
X0007800Y0200424D02*
X0121950Y0200424D01*
X0121950Y0202023D02*
X0007800Y0202023D01*
X0007800Y0203621D02*
X0121950Y0203621D01*
X0121950Y0205220D02*
X0107215Y0205220D01*
X0108050Y0206818D02*
X0121950Y0206818D01*
X0121950Y0208417D02*
X0108050Y0208417D01*
X0108050Y0210015D02*
X0121950Y0210015D01*
X0121925Y0224747D02*
X0122830Y0224866D01*
X0123934Y0225162D01*
X0124991Y0225599D01*
X0125981Y0226171D01*
X0126888Y0226867D01*
X0127696Y0227675D01*
X0128392Y0228582D01*
X0128964Y0229572D01*
X0129401Y0230629D01*
X0129697Y0231733D01*
X0129816Y0232638D01*
X0121925Y0232638D01*
X0121925Y0234238D01*
X0120325Y0234238D01*
X0120325Y0242129D01*
X0119420Y0242010D01*
X0118316Y0241714D01*
X0117259Y0241277D01*
X0116269Y0240705D01*
X0115362Y0240009D01*
X0114554Y0239201D01*
X0113858Y0238294D01*
X0113286Y0237304D01*
X0112849Y0236247D01*
X0112553Y0235143D01*
X0112434Y0234238D01*
X0120325Y0234238D01*
X0120325Y0232638D01*
X0112434Y0232638D01*
X0112553Y0231733D01*
X0112849Y0230629D01*
X0113286Y0229572D01*
X0113858Y0228582D01*
X0114554Y0227675D01*
X0115362Y0226867D01*
X0116269Y0226171D01*
X0117259Y0225599D01*
X0118316Y0225162D01*
X0119420Y0224866D01*
X0120325Y0224747D01*
X0120325Y0232638D01*
X0121925Y0232638D01*
X0121925Y0224747D01*
X0121925Y0226001D02*
X0120325Y0226001D01*
X0120325Y0227599D02*
X0121925Y0227599D01*
X0121925Y0229198D02*
X0120325Y0229198D01*
X0120325Y0230796D02*
X0121925Y0230796D01*
X0121925Y0232395D02*
X0120325Y0232395D01*
X0120325Y0233993D02*
X0007800Y0233993D01*
X0007800Y0232395D02*
X0112466Y0232395D01*
X0112804Y0230796D02*
X0107300Y0230796D01*
X0108050Y0229198D02*
X0113503Y0229198D01*
X0114630Y0227599D02*
X0108050Y0227599D01*
X0108050Y0226001D02*
X0116565Y0226001D01*
X0121925Y0233993D02*
X0234483Y0233993D01*
X0234483Y0232395D02*
X0200550Y0232395D01*
X0200550Y0230796D02*
X0234483Y0230796D01*
X0234483Y0229198D02*
X0200550Y0229198D01*
X0200550Y0227599D02*
X0234483Y0227599D01*
X0234483Y0226001D02*
X0200550Y0226001D01*
X0200550Y0224402D02*
X0234483Y0224402D01*
X0234483Y0222803D02*
X0200550Y0222803D01*
X0200550Y0221205D02*
X0205970Y0221205D01*
X0206643Y0221484D02*
X0204463Y0220580D01*
X0202793Y0218911D01*
X0201890Y0216730D01*
X0201890Y0214370D01*
X0202793Y0212189D01*
X0204463Y0210520D01*
X0206643Y0209616D01*
X0209004Y0209616D01*
X0211185Y0210520D01*
X0212854Y0212189D01*
X0213758Y0214370D01*
X0213758Y0216730D01*
X0212854Y0218911D01*
X0211185Y0220580D01*
X0209004Y0221484D01*
X0206643Y0221484D01*
X0203489Y0219606D02*
X0200550Y0219606D01*
X0200550Y0218008D02*
X0202419Y0218008D01*
X0201890Y0216409D02*
X0200550Y0216409D01*
X0200550Y0214811D02*
X0201890Y0214811D01*
X0202369Y0213212D02*
X0200550Y0213212D01*
X0200550Y0211614D02*
X0203368Y0211614D01*
X0205680Y0210015D02*
X0200550Y0210015D01*
X0196950Y0210015D02*
X0195550Y0210015D01*
X0195550Y0208417D02*
X0196950Y0208417D01*
X0196950Y0206818D02*
X0195550Y0206818D01*
X0195550Y0205220D02*
X0197785Y0205220D01*
X0195550Y0203621D02*
X0214450Y0203621D01*
X0214450Y0202023D02*
X0213050Y0202023D01*
X0213050Y0200424D02*
X0214450Y0200424D01*
X0214450Y0198826D02*
X0213050Y0198826D01*
X0213050Y0197227D02*
X0214450Y0197227D01*
X0214450Y0195629D02*
X0213050Y0195629D01*
X0213050Y0194030D02*
X0214450Y0194030D01*
X0214450Y0192432D02*
X0213050Y0192432D01*
X0213050Y0190833D02*
X0214450Y0190833D01*
X0214450Y0189235D02*
X0213050Y0189235D01*
X0213050Y0187636D02*
X0214450Y0187636D01*
X0214450Y0186038D02*
X0213050Y0186038D01*
X0213050Y0184439D02*
X0214450Y0184439D01*
X0214450Y0182841D02*
X0213050Y0182841D01*
X0213050Y0181242D02*
X0214450Y0181242D01*
X0214450Y0179644D02*
X0213050Y0179644D01*
X0213050Y0178045D02*
X0214450Y0178045D01*
X0214450Y0176447D02*
X0213050Y0176447D01*
X0213050Y0174848D02*
X0214450Y0174848D01*
X0213836Y0173250D02*
X0213664Y0173250D01*
X0213664Y0171651D02*
X0213836Y0171651D01*
X0213836Y0170053D02*
X0213664Y0170053D01*
X0208450Y0170053D02*
X0198700Y0170053D01*
X0198700Y0168454D02*
X0208450Y0168454D01*
X0208450Y0166856D02*
X0198069Y0166856D01*
X0196644Y0165257D02*
X0208450Y0165257D01*
X0208450Y0171651D02*
X0198160Y0171651D01*
X0196863Y0173250D02*
X0208450Y0173250D01*
X0209450Y0174848D02*
X0171575Y0174848D01*
X0171575Y0176447D02*
X0209450Y0176447D01*
X0209450Y0178045D02*
X0171575Y0178045D01*
X0171575Y0179644D02*
X0209450Y0179644D01*
X0209450Y0181242D02*
X0171575Y0181242D01*
X0171575Y0182841D02*
X0209450Y0182841D01*
X0209450Y0184439D02*
X0171575Y0184439D01*
X0170510Y0186038D02*
X0209450Y0186038D01*
X0209450Y0187636D02*
X0168916Y0187636D01*
X0167322Y0189235D02*
X0209450Y0189235D01*
X0209450Y0190833D02*
X0165729Y0190833D01*
X0164135Y0192432D02*
X0209450Y0192432D01*
X0209450Y0194030D02*
X0162542Y0194030D01*
X0160948Y0195629D02*
X0209450Y0195629D01*
X0209450Y0197227D02*
X0159355Y0197227D01*
X0157761Y0198826D02*
X0209450Y0198826D01*
X0218050Y0198826D02*
X0234483Y0198826D01*
X0234483Y0200424D02*
X0218050Y0200424D01*
X0218050Y0202023D02*
X0234483Y0202023D01*
X0234483Y0203621D02*
X0218050Y0203621D01*
X0212279Y0211614D02*
X0234483Y0211614D01*
X0234483Y0213212D02*
X0213278Y0213212D01*
X0213758Y0214811D02*
X0234483Y0214811D01*
X0234483Y0216409D02*
X0213758Y0216409D01*
X0213228Y0218008D02*
X0234483Y0218008D01*
X0234483Y0219606D02*
X0212159Y0219606D01*
X0209677Y0221205D02*
X0234483Y0221205D01*
X0234483Y0210015D02*
X0209968Y0210015D01*
X0218050Y0197227D02*
X0234483Y0197227D01*
X0234483Y0195629D02*
X0218050Y0195629D01*
X0218050Y0194030D02*
X0234483Y0194030D01*
X0234483Y0192432D02*
X0218050Y0192432D01*
X0218050Y0190833D02*
X0234483Y0190833D01*
X0234483Y0189235D02*
X0218050Y0189235D01*
X0218050Y0187636D02*
X0234483Y0187636D01*
X0234483Y0186038D02*
X0218050Y0186038D01*
X0218050Y0184439D02*
X0234483Y0184439D01*
X0234483Y0182841D02*
X0218050Y0182841D01*
X0218050Y0181242D02*
X0234483Y0181242D01*
X0234483Y0179644D02*
X0218050Y0179644D01*
X0218050Y0178045D02*
X0234483Y0178045D01*
X0234483Y0176447D02*
X0218050Y0176447D01*
X0218050Y0174848D02*
X0234483Y0174848D01*
X0234483Y0173250D02*
X0219050Y0173250D01*
X0219050Y0171651D02*
X0234483Y0171651D01*
X0234483Y0170053D02*
X0219050Y0170053D01*
X0219050Y0168454D02*
X0234483Y0168454D01*
X0234483Y0166856D02*
X0219050Y0166856D01*
X0219050Y0165257D02*
X0234483Y0165257D01*
X0234483Y0163659D02*
X0196050Y0163659D01*
X0196743Y0162060D02*
X0234483Y0162060D01*
X0234483Y0160462D02*
X0198341Y0160462D01*
X0190856Y0165257D02*
X0176644Y0165257D01*
X0178069Y0166856D02*
X0189431Y0166856D01*
X0188800Y0168454D02*
X0178700Y0168454D01*
X0178700Y0170053D02*
X0188800Y0170053D01*
X0189340Y0171651D02*
X0178160Y0171651D01*
X0176863Y0173250D02*
X0190637Y0173250D01*
X0184386Y0149272D02*
X0198114Y0149272D01*
X0197320Y0147673D02*
X0185180Y0147673D01*
X0185215Y0146075D02*
X0197285Y0146075D01*
X0197966Y0144476D02*
X0184534Y0144476D01*
X0171575Y0152469D02*
X0212328Y0152469D01*
X0171250Y0126893D02*
X0171250Y0126893D01*
X0171250Y0125294D02*
X0171250Y0125294D01*
X0171250Y0123696D02*
X0171250Y0123696D01*
X0171250Y0122097D02*
X0171250Y0122097D01*
X0167953Y0122097D02*
X0164547Y0122097D01*
X0165173Y0123696D02*
X0167327Y0123696D01*
X0167405Y0125294D02*
X0165095Y0125294D01*
X0164265Y0126893D02*
X0168235Y0126893D01*
X0161250Y0126893D02*
X0161250Y0126893D01*
X0161250Y0125294D02*
X0161250Y0125294D01*
X0161250Y0123696D02*
X0161250Y0123696D01*
X0161250Y0122097D02*
X0161250Y0122097D01*
X0157953Y0122097D02*
X0144630Y0122097D01*
X0145215Y0123696D02*
X0157327Y0123696D01*
X0157405Y0125294D02*
X0145130Y0125294D01*
X0144265Y0126893D02*
X0158235Y0126893D01*
X0147539Y0115703D02*
X0130550Y0115703D01*
X0130550Y0114105D02*
X0147285Y0114105D01*
X0147701Y0112506D02*
X0130550Y0112506D01*
X0130550Y0110908D02*
X0149078Y0110908D01*
X0147878Y0096521D02*
X0144622Y0096521D01*
X0145215Y0094923D02*
X0147285Y0094923D01*
X0147362Y0093324D02*
X0145138Y0093324D01*
X0144283Y0091726D02*
X0148217Y0091726D01*
X0154283Y0091726D02*
X0158217Y0091726D01*
X0157362Y0093324D02*
X0155138Y0093324D01*
X0155215Y0094923D02*
X0157285Y0094923D01*
X0157878Y0096521D02*
X0154622Y0096521D01*
X0164622Y0096521D02*
X0167878Y0096521D01*
X0167285Y0094923D02*
X0165215Y0094923D01*
X0165138Y0093324D02*
X0167362Y0093324D01*
X0168217Y0091726D02*
X0164283Y0091726D01*
X0157843Y0078937D02*
X0154657Y0078937D01*
X0155215Y0077339D02*
X0157285Y0077339D01*
X0157397Y0075740D02*
X0155103Y0075740D01*
X0154200Y0074142D02*
X0158300Y0074142D01*
X0148300Y0074142D02*
X0144200Y0074142D01*
X0145103Y0075740D02*
X0147397Y0075740D01*
X0147285Y0077339D02*
X0145215Y0077339D01*
X0144657Y0078937D02*
X0147843Y0078937D01*
X0138217Y0091726D02*
X0130550Y0091726D01*
X0130550Y0093324D02*
X0137362Y0093324D01*
X0137285Y0094923D02*
X0130550Y0094923D01*
X0130550Y0096521D02*
X0137878Y0096521D01*
X0130550Y0090127D02*
X0179938Y0090127D01*
X0181135Y0088529D02*
X0130550Y0088529D01*
X0112850Y0094923D02*
X0102264Y0094923D01*
X0102715Y0096521D02*
X0112850Y0096521D01*
X0112850Y0098120D02*
X0102495Y0098120D01*
X0101440Y0099718D02*
X0112850Y0099718D01*
X0112850Y0104514D02*
X0101991Y0104514D01*
X0102656Y0106112D02*
X0112850Y0106112D01*
X0112669Y0107711D02*
X0102612Y0107711D01*
X0101842Y0109309D02*
X0112669Y0109309D01*
X0112669Y0110908D02*
X0054709Y0110908D01*
X0052791Y0110908D02*
X0013550Y0110908D01*
X0013550Y0112506D02*
X0113348Y0112506D01*
X0098750Y0109309D02*
X0098750Y0109309D01*
X0098750Y0107711D02*
X0098750Y0107711D01*
X0098750Y0106112D02*
X0098750Y0106112D01*
X0098750Y0104514D02*
X0098750Y0104514D01*
X0097157Y0078937D02*
X0100343Y0078937D01*
X0099785Y0077339D02*
X0097715Y0077339D01*
X0097603Y0075740D02*
X0099897Y0075740D01*
X0100800Y0074142D02*
X0096700Y0074142D01*
X0078300Y0074142D02*
X0013550Y0074142D01*
X0013550Y0075740D02*
X0077397Y0075740D01*
X0063904Y0053361D02*
X0051751Y0053361D01*
X0051554Y0053559D02*
X0049735Y0054313D01*
X0047765Y0054313D01*
X0045946Y0053559D01*
X0044554Y0052167D01*
X0043800Y0050348D01*
X0043800Y0048378D01*
X0044554Y0046559D01*
X0045946Y0045167D01*
X0047765Y0044413D01*
X0049735Y0044413D01*
X0051554Y0045167D01*
X0052946Y0046559D01*
X0053700Y0048378D01*
X0053700Y0050348D01*
X0052946Y0052167D01*
X0051554Y0053559D01*
X0053113Y0051763D02*
X0063800Y0051763D01*
X0063800Y0050164D02*
X0053700Y0050164D01*
X0053700Y0048566D02*
X0063800Y0048566D01*
X0063800Y0046967D02*
X0053115Y0046967D01*
X0051756Y0045369D02*
X0063899Y0045369D01*
X0045744Y0045369D02*
X0031756Y0045369D01*
X0031554Y0045167D02*
X0032946Y0046559D01*
X0033700Y0048378D01*
X0033700Y0050348D01*
X0032946Y0052167D01*
X0031554Y0053559D01*
X0029735Y0054313D01*
X0027765Y0054313D01*
X0025946Y0053559D01*
X0024554Y0052167D01*
X0023800Y0050348D01*
X0023800Y0048378D01*
X0024554Y0046559D01*
X0025946Y0045167D01*
X0027765Y0044413D01*
X0029735Y0044413D01*
X0031554Y0045167D01*
X0033115Y0046967D02*
X0044385Y0046967D01*
X0043800Y0048566D02*
X0033700Y0048566D01*
X0033700Y0050164D02*
X0043800Y0050164D01*
X0044387Y0051763D02*
X0033113Y0051763D01*
X0031751Y0053361D02*
X0045749Y0053361D01*
X0025749Y0053361D02*
X0013550Y0053361D01*
X0013550Y0051763D02*
X0024387Y0051763D01*
X0023800Y0050164D02*
X0013638Y0050164D01*
X0015237Y0048566D02*
X0023800Y0048566D01*
X0024385Y0046967D02*
X0016835Y0046967D01*
X0018434Y0045369D02*
X0025744Y0045369D01*
X0042412Y0021391D02*
X0121613Y0021391D01*
X0120700Y0022990D02*
X0118883Y0022990D01*
X0120265Y0024588D02*
X0120700Y0024588D01*
X0118831Y0020662D02*
X0117156Y0021356D01*
X0115344Y0021356D01*
X0113669Y0020662D01*
X0112388Y0019381D01*
X0111694Y0017706D01*
X0111694Y0015894D01*
X0112388Y0014219D01*
X0113669Y0012938D01*
X0115344Y0012244D01*
X0117156Y0012244D01*
X0118831Y0012938D01*
X0120112Y0014219D01*
X0120806Y0015894D01*
X0120806Y0017706D01*
X0120112Y0019381D01*
X0118831Y0020662D01*
X0119700Y0019793D02*
X0122800Y0019793D01*
X0121896Y0018194D02*
X0120604Y0018194D01*
X0120806Y0016596D02*
X0121694Y0016596D01*
X0122066Y0014997D02*
X0120434Y0014997D01*
X0119292Y0013399D02*
X0123208Y0013399D01*
X0131800Y0022990D02*
X0133617Y0022990D01*
X0132235Y0024588D02*
X0131800Y0024588D01*
X0131800Y0029384D02*
X0132391Y0029384D01*
X0120700Y0029384D02*
X0120109Y0029384D01*
X0113617Y0022990D02*
X0108883Y0022990D01*
X0110265Y0024588D02*
X0112235Y0024588D01*
X0111694Y0026187D02*
X0110806Y0026187D01*
X0110773Y0027785D02*
X0111727Y0027785D01*
X0112391Y0029384D02*
X0110109Y0029384D01*
X0109700Y0019793D02*
X0112800Y0019793D01*
X0111896Y0018194D02*
X0110604Y0018194D01*
X0110806Y0016596D02*
X0111694Y0016596D01*
X0112066Y0014997D02*
X0110434Y0014997D01*
X0109292Y0013399D02*
X0113208Y0013399D01*
X0103208Y0013399D02*
X0007800Y0013399D01*
X0007800Y0085332D02*
X0008950Y0085332D01*
X0008950Y0086930D02*
X0007800Y0086930D01*
X0007800Y0088529D02*
X0008950Y0088529D01*
X0008950Y0090127D02*
X0007800Y0090127D01*
X0007800Y0091726D02*
X0008950Y0091726D01*
X0008950Y0093324D02*
X0007800Y0093324D01*
X0007800Y0094923D02*
X0008950Y0094923D01*
X0008950Y0096521D02*
X0007800Y0096521D01*
X0007800Y0098120D02*
X0008950Y0098120D01*
X0008950Y0099718D02*
X0007800Y0099718D01*
X0007800Y0101317D02*
X0008950Y0101317D01*
X0008950Y0102915D02*
X0007800Y0102915D01*
X0007800Y0104514D02*
X0008950Y0104514D01*
X0008950Y0106112D02*
X0007800Y0106112D01*
X0007800Y0107711D02*
X0008950Y0107711D01*
X0008950Y0109309D02*
X0007800Y0109309D01*
X0007800Y0110908D02*
X0008950Y0110908D01*
X0008950Y0112506D02*
X0007800Y0112506D01*
X0007800Y0114105D02*
X0008950Y0114105D01*
X0008950Y0115703D02*
X0007800Y0115703D01*
X0007800Y0117302D02*
X0008950Y0117302D01*
X0008950Y0118900D02*
X0007800Y0118900D01*
X0007800Y0120499D02*
X0008950Y0120499D01*
X0008950Y0122097D02*
X0007800Y0122097D01*
X0007800Y0123696D02*
X0008950Y0123696D01*
X0008950Y0125294D02*
X0007800Y0125294D01*
X0007800Y0126893D02*
X0008950Y0126893D01*
X0008950Y0128491D02*
X0007800Y0128491D01*
X0007800Y0130090D02*
X0008950Y0130090D01*
X0008950Y0131688D02*
X0007800Y0131688D01*
X0007800Y0133287D02*
X0008950Y0133287D01*
X0008950Y0134885D02*
X0007800Y0134885D01*
X0007800Y0136484D02*
X0008950Y0136484D01*
X0009280Y0138082D02*
X0007800Y0138082D01*
X0007800Y0139681D02*
X0010878Y0139681D01*
X0012477Y0141279D02*
X0007800Y0141279D01*
X0007800Y0142878D02*
X0014075Y0142878D01*
X0015674Y0144476D02*
X0007800Y0144476D01*
X0007800Y0146075D02*
X0017272Y0146075D01*
X0018871Y0147673D02*
X0007800Y0147673D01*
X0007800Y0149272D02*
X0020469Y0149272D01*
X0022068Y0150870D02*
X0007800Y0150870D01*
X0007800Y0152469D02*
X0023666Y0152469D01*
X0025265Y0154068D02*
X0007800Y0154068D01*
X0007800Y0155666D02*
X0026863Y0155666D01*
X0028462Y0157265D02*
X0007800Y0157265D01*
X0007800Y0158863D02*
X0030060Y0158863D01*
X0031770Y0154068D02*
X0065875Y0154068D01*
X0065614Y0149272D02*
X0057164Y0149272D01*
X0057893Y0147673D02*
X0064820Y0147673D01*
X0064785Y0146075D02*
X0057912Y0146075D01*
X0057293Y0144476D02*
X0065466Y0144476D01*
X0066023Y0139681D02*
X0056755Y0139681D01*
X0057724Y0138082D02*
X0064989Y0138082D01*
X0064785Y0136484D02*
X0057912Y0136484D01*
X0057462Y0134885D02*
X0065251Y0134885D01*
X0066869Y0133287D02*
X0056123Y0133287D01*
X0056346Y0130090D02*
X0066432Y0130090D01*
X0065159Y0128491D02*
X0057555Y0128491D01*
X0057912Y0126893D02*
X0064785Y0126893D01*
X0065082Y0125294D02*
X0057631Y0125294D01*
X0056532Y0123696D02*
X0066246Y0123696D01*
X0067318Y0120499D02*
X0055697Y0120499D01*
X0057385Y0118900D02*
X0065328Y0118900D01*
X0064785Y0117302D02*
X0057912Y0117302D01*
X0057801Y0115703D02*
X0064912Y0115703D01*
X0065837Y0114105D02*
X0056941Y0114105D01*
X0057127Y0109309D02*
X0065651Y0109309D01*
X0064835Y0107711D02*
X0057878Y0107711D01*
X0057912Y0106112D02*
X0064785Y0106112D01*
X0065428Y0104514D02*
X0057308Y0104514D01*
X0036116Y0114105D02*
X0013550Y0114105D01*
X0013550Y0115703D02*
X0035125Y0115703D01*
X0034981Y0117302D02*
X0013550Y0117302D01*
X0013550Y0118900D02*
X0035541Y0118900D01*
X0026018Y0136484D02*
X0014187Y0136484D01*
X0015785Y0138082D02*
X0025022Y0138082D01*
X0024845Y0139681D02*
X0017384Y0139681D01*
X0018982Y0141279D02*
X0025338Y0141279D01*
X0030172Y0152469D02*
X0121950Y0152469D01*
X0138149Y0179644D02*
X0167975Y0179644D01*
X0167975Y0181242D02*
X0138715Y0181242D01*
X0138611Y0182841D02*
X0167975Y0182841D01*
X0167020Y0184439D02*
X0137719Y0184439D01*
X0138050Y0203621D02*
X0191950Y0203621D01*
X0191950Y0202023D02*
X0154574Y0202023D01*
X0156168Y0200424D02*
X0192580Y0200424D01*
X0191950Y0205220D02*
X0138050Y0205220D01*
X0138050Y0206818D02*
X0191950Y0206818D01*
X0191950Y0208417D02*
X0138050Y0208417D01*
X0138050Y0210015D02*
X0141782Y0210015D01*
X0142746Y0209616D02*
X0140565Y0210520D01*
X0138896Y0212189D01*
X0137992Y0214370D01*
X0137992Y0216730D01*
X0138896Y0218911D01*
X0140565Y0220580D01*
X0142746Y0221484D01*
X0145106Y0221484D01*
X0147287Y0220580D01*
X0148957Y0218911D01*
X0149860Y0216730D01*
X0149860Y0214370D01*
X0148957Y0212189D01*
X0147287Y0210520D01*
X0145106Y0209616D01*
X0142746Y0209616D01*
X0146070Y0210015D02*
X0191950Y0210015D01*
X0191950Y0211614D02*
X0148382Y0211614D01*
X0149381Y0213212D02*
X0191950Y0213212D01*
X0191950Y0214811D02*
X0149860Y0214811D01*
X0149860Y0216409D02*
X0191950Y0216409D01*
X0191950Y0218008D02*
X0149331Y0218008D01*
X0148261Y0219606D02*
X0191950Y0219606D01*
X0191950Y0221205D02*
X0145780Y0221205D01*
X0142073Y0221205D02*
X0108050Y0221205D01*
X0108050Y0222803D02*
X0191950Y0222803D01*
X0191950Y0224402D02*
X0108050Y0224402D01*
X0104450Y0224402D02*
X0090550Y0224402D01*
X0090550Y0226001D02*
X0104450Y0226001D01*
X0104450Y0227599D02*
X0090550Y0227599D01*
X0090550Y0229198D02*
X0104450Y0229198D01*
X0105200Y0230796D02*
X0089800Y0230796D01*
X0086950Y0226001D02*
X0007800Y0226001D01*
X0007800Y0224402D02*
X0086950Y0224402D01*
X0086950Y0222803D02*
X0007800Y0222803D01*
X0007800Y0221205D02*
X0032420Y0221205D01*
X0033245Y0221547D02*
X0031064Y0220643D01*
X0029395Y0218974D01*
X0028491Y0216793D01*
X0028491Y0214433D01*
X0029395Y0212252D01*
X0031064Y0210583D01*
X0033245Y0209679D01*
X0035606Y0209679D01*
X0037786Y0210583D01*
X0039456Y0212252D01*
X0040359Y0214433D01*
X0040359Y0216793D01*
X0039456Y0218974D01*
X0037786Y0220643D01*
X0035606Y0221547D01*
X0033245Y0221547D01*
X0030027Y0219606D02*
X0007800Y0219606D01*
X0007800Y0218008D02*
X0028994Y0218008D01*
X0028491Y0216409D02*
X0007800Y0216409D01*
X0007800Y0214811D02*
X0028491Y0214811D01*
X0028997Y0213212D02*
X0007800Y0213212D01*
X0007800Y0211614D02*
X0030033Y0211614D01*
X0032433Y0210015D02*
X0007800Y0210015D01*
X0007800Y0208417D02*
X0086950Y0208417D01*
X0086950Y0210015D02*
X0036417Y0210015D01*
X0038818Y0211614D02*
X0086950Y0211614D01*
X0086950Y0213212D02*
X0039854Y0213212D01*
X0040359Y0214811D02*
X0086950Y0214811D01*
X0086950Y0216409D02*
X0040359Y0216409D01*
X0039856Y0218008D02*
X0086950Y0218008D01*
X0086950Y0219606D02*
X0038823Y0219606D01*
X0036431Y0221205D02*
X0086950Y0221205D01*
X0090550Y0221205D02*
X0096317Y0221205D01*
X0097143Y0221547D02*
X0094962Y0220643D01*
X0093292Y0218974D01*
X0092389Y0216793D01*
X0092389Y0214433D01*
X0093292Y0212252D01*
X0094962Y0210583D01*
X0097143Y0209679D01*
X0099503Y0209679D01*
X0101684Y0210583D01*
X0103353Y0212252D01*
X0104257Y0214433D01*
X0104257Y0216793D01*
X0103353Y0218974D01*
X0101684Y0220643D01*
X0099503Y0221547D01*
X0097143Y0221547D01*
X0100328Y0221205D02*
X0104450Y0221205D01*
X0104450Y0222803D02*
X0090550Y0222803D01*
X0090550Y0219606D02*
X0093925Y0219606D01*
X0092892Y0218008D02*
X0090550Y0218008D01*
X0090550Y0216409D02*
X0092389Y0216409D01*
X0092389Y0214811D02*
X0090550Y0214811D01*
X0090550Y0213212D02*
X0092894Y0213212D01*
X0093930Y0211614D02*
X0090550Y0211614D01*
X0090550Y0210015D02*
X0096331Y0210015D01*
X0100315Y0210015D02*
X0104450Y0210015D01*
X0104450Y0211614D02*
X0102716Y0211614D01*
X0103751Y0213212D02*
X0104450Y0213212D01*
X0104450Y0214811D02*
X0104257Y0214811D01*
X0104257Y0216409D02*
X0104450Y0216409D01*
X0104450Y0218008D02*
X0103754Y0218008D01*
X0104450Y0219606D02*
X0102721Y0219606D01*
X0108050Y0219606D02*
X0139591Y0219606D01*
X0138522Y0218008D02*
X0108050Y0218008D01*
X0108050Y0216409D02*
X0137992Y0216409D01*
X0137992Y0214811D02*
X0108050Y0214811D01*
X0108050Y0213212D02*
X0138472Y0213212D01*
X0139471Y0211614D02*
X0108050Y0211614D01*
X0087785Y0205220D02*
X0007800Y0205220D01*
X0007800Y0206818D02*
X0086950Y0206818D01*
X0097143Y0234679D02*
X0099503Y0234679D01*
X0101684Y0235583D01*
X0103353Y0237252D01*
X0104257Y0239433D01*
X0104257Y0241793D01*
X0103353Y0243974D01*
X0101684Y0245643D01*
X0099503Y0246547D01*
X0097143Y0246547D01*
X0094962Y0245643D01*
X0093292Y0243974D01*
X0092389Y0241793D01*
X0092389Y0239433D01*
X0093292Y0237252D01*
X0094962Y0235583D01*
X0097143Y0234679D01*
X0094952Y0235592D02*
X0037796Y0235592D01*
X0037786Y0235583D02*
X0039456Y0237252D01*
X0040359Y0239433D01*
X0040359Y0241793D01*
X0039456Y0243974D01*
X0037786Y0245643D01*
X0035606Y0246547D01*
X0033245Y0246547D01*
X0031064Y0245643D01*
X0029395Y0243974D01*
X0028491Y0241793D01*
X0028491Y0239433D01*
X0029395Y0237252D01*
X0031064Y0235583D01*
X0033245Y0234679D01*
X0035606Y0234679D01*
X0037786Y0235583D01*
X0039394Y0237190D02*
X0093354Y0237190D01*
X0092656Y0238789D02*
X0040092Y0238789D01*
X0040359Y0240387D02*
X0092389Y0240387D01*
X0092469Y0241986D02*
X0040279Y0241986D01*
X0039617Y0243584D02*
X0093131Y0243584D01*
X0094501Y0245183D02*
X0038247Y0245183D01*
X0030603Y0245183D02*
X0007800Y0245183D01*
X0007800Y0246781D02*
X0234483Y0246781D01*
X0234483Y0245183D02*
X0211583Y0245183D01*
X0211185Y0245580D02*
X0209004Y0246484D01*
X0206643Y0246484D01*
X0204463Y0245580D01*
X0202793Y0243911D01*
X0201890Y0241730D01*
X0201890Y0239370D01*
X0202793Y0237189D01*
X0204463Y0235520D01*
X0206643Y0234616D01*
X0209004Y0234616D01*
X0211185Y0235520D01*
X0212854Y0237189D01*
X0213758Y0239370D01*
X0213758Y0241730D01*
X0212854Y0243911D01*
X0211185Y0245580D01*
X0212990Y0243584D02*
X0234483Y0243584D01*
X0234483Y0241986D02*
X0213652Y0241986D01*
X0213758Y0240387D02*
X0234483Y0240387D01*
X0234483Y0238789D02*
X0213517Y0238789D01*
X0212855Y0237190D02*
X0234483Y0237190D01*
X0234483Y0235592D02*
X0211257Y0235592D01*
X0204390Y0235592D02*
X0147360Y0235592D01*
X0147287Y0235520D02*
X0148957Y0237189D01*
X0149860Y0239370D01*
X0149860Y0241730D01*
X0148957Y0243911D01*
X0147287Y0245580D01*
X0145106Y0246484D01*
X0142746Y0246484D01*
X0140565Y0245580D01*
X0138896Y0243911D01*
X0137992Y0241730D01*
X0137992Y0239370D01*
X0138896Y0237189D01*
X0140565Y0235520D01*
X0142746Y0234616D01*
X0145106Y0234616D01*
X0147287Y0235520D01*
X0148957Y0237190D02*
X0202793Y0237190D01*
X0202131Y0238789D02*
X0149619Y0238789D01*
X0149860Y0240387D02*
X0201890Y0240387D01*
X0201996Y0241986D02*
X0149754Y0241986D01*
X0149092Y0243584D02*
X0202658Y0243584D01*
X0204065Y0245183D02*
X0147685Y0245183D01*
X0140167Y0245183D02*
X0102145Y0245183D01*
X0103515Y0243584D02*
X0138760Y0243584D01*
X0138098Y0241986D02*
X0122921Y0241986D01*
X0122830Y0242010D02*
X0121925Y0242129D01*
X0121925Y0234238D01*
X0129816Y0234238D01*
X0129697Y0235143D01*
X0129401Y0236247D01*
X0128964Y0237304D01*
X0128392Y0238294D01*
X0127696Y0239201D01*
X0126888Y0240009D01*
X0125981Y0240705D01*
X0124991Y0241277D01*
X0123934Y0241714D01*
X0122830Y0242010D01*
X0121925Y0241986D02*
X0120325Y0241986D01*
X0119329Y0241986D02*
X0104177Y0241986D01*
X0104257Y0240387D02*
X0115855Y0240387D01*
X0114238Y0238789D02*
X0103990Y0238789D01*
X0103292Y0237190D02*
X0113239Y0237190D01*
X0112673Y0235592D02*
X0101693Y0235592D01*
X0114275Y0251577D02*
X0007800Y0251577D01*
X0007800Y0253175D02*
X0113294Y0253175D01*
X0112632Y0254774D02*
X0007800Y0254774D01*
X0007800Y0256372D02*
X0112404Y0256372D01*
X0112404Y0257971D02*
X0028753Y0257971D01*
X0029454Y0259569D02*
X0112725Y0259569D01*
X0113387Y0261168D02*
X0102269Y0261168D01*
X0101684Y0260583D02*
X0103353Y0262252D01*
X0104257Y0264433D01*
X0104257Y0266793D01*
X0103353Y0268974D01*
X0101684Y0270643D01*
X0099503Y0271547D01*
X0097143Y0271547D01*
X0094962Y0270643D01*
X0093292Y0268974D01*
X0092389Y0266793D01*
X0092389Y0264433D01*
X0093292Y0262252D01*
X0094962Y0260583D01*
X0097143Y0259679D01*
X0099503Y0259679D01*
X0101684Y0260583D01*
X0103566Y0262766D02*
X0114498Y0262766D01*
X0116096Y0264365D02*
X0104229Y0264365D01*
X0104257Y0265963D02*
X0119450Y0265963D01*
X0119450Y0267562D02*
X0103938Y0267562D01*
X0103167Y0269160D02*
X0119450Y0269160D01*
X0119450Y0270759D02*
X0101406Y0270759D01*
X0095240Y0270759D02*
X0037396Y0270759D01*
X0037535Y0270688D02*
X0036703Y0271112D01*
X0035815Y0271401D01*
X0035003Y0271529D01*
X0035003Y0266191D01*
X0040341Y0266191D01*
X0040213Y0267003D01*
X0039924Y0267891D01*
X0039500Y0268723D01*
X0038951Y0269479D01*
X0038291Y0270139D01*
X0037535Y0270688D01*
X0039183Y0269160D02*
X0093478Y0269160D01*
X0092707Y0267562D02*
X0040031Y0267562D01*
X0040235Y0264365D02*
X0092417Y0264365D01*
X0092389Y0265963D02*
X0035003Y0265963D01*
X0035003Y0264365D02*
X0033847Y0264365D01*
X0033847Y0262766D02*
X0035003Y0262766D01*
X0035003Y0261168D02*
X0033847Y0261168D01*
X0038372Y0261168D02*
X0094376Y0261168D01*
X0093079Y0262766D02*
X0039634Y0262766D01*
X0035003Y0267562D02*
X0033847Y0267562D01*
X0033847Y0269160D02*
X0035003Y0269160D01*
X0035003Y0270759D02*
X0033847Y0270759D01*
X0031454Y0270759D02*
X0029454Y0270759D01*
X0029454Y0272357D02*
X0119450Y0272357D01*
X0119450Y0273956D02*
X0029454Y0273956D01*
X0029454Y0275554D02*
X0119450Y0275554D01*
X0119450Y0277153D02*
X0029454Y0277153D01*
X0029454Y0278751D02*
X0119450Y0278751D01*
X0119450Y0280350D02*
X0029454Y0280350D01*
X0029454Y0281948D02*
X0119450Y0281948D01*
X0119450Y0283547D02*
X0029454Y0283547D01*
X0029454Y0269160D02*
X0029668Y0269160D01*
X0029454Y0261168D02*
X0030479Y0261168D01*
X0029233Y0243584D02*
X0007800Y0243584D01*
X0007800Y0241986D02*
X0028571Y0241986D01*
X0028491Y0240387D02*
X0007800Y0240387D01*
X0007800Y0238789D02*
X0028758Y0238789D01*
X0029456Y0237190D02*
X0007800Y0237190D01*
X0007800Y0235592D02*
X0031055Y0235592D01*
X0007800Y0248380D02*
X0119291Y0248380D01*
X0115873Y0249978D02*
X0007800Y0249978D01*
X0031863Y0173250D02*
X0045679Y0173250D01*
X0044361Y0171651D02*
X0033160Y0171651D01*
X0033700Y0170053D02*
X0043848Y0170053D01*
X0043800Y0169277D02*
X0043800Y0168973D01*
X0043922Y0168204D01*
X0044163Y0167463D01*
X0044517Y0166769D01*
X0044975Y0166139D01*
X0045526Y0165588D01*
X0046156Y0165130D01*
X0046850Y0164776D01*
X0047591Y0164535D01*
X0048360Y0164413D01*
X0048664Y0164413D01*
X0048664Y0169277D01*
X0043800Y0169277D01*
X0043883Y0168454D02*
X0033700Y0168454D01*
X0033069Y0166856D02*
X0044473Y0166856D01*
X0045981Y0165257D02*
X0031644Y0165257D01*
X0048664Y0165257D02*
X0048836Y0165257D01*
X0048836Y0166856D02*
X0048664Y0166856D01*
X0048664Y0168454D02*
X0048836Y0168454D01*
X0048836Y0170053D02*
X0048664Y0170053D01*
X0048664Y0171651D02*
X0048836Y0171651D01*
X0048836Y0173250D02*
X0048664Y0173250D01*
X0120325Y0235592D02*
X0121925Y0235592D01*
X0121925Y0237190D02*
X0120325Y0237190D01*
X0120325Y0238789D02*
X0121925Y0238789D01*
X0121925Y0240387D02*
X0120325Y0240387D01*
X0126395Y0240387D02*
X0137992Y0240387D01*
X0138233Y0238789D02*
X0128012Y0238789D01*
X0129011Y0237190D02*
X0138895Y0237190D01*
X0140493Y0235592D02*
X0129577Y0235592D01*
X0129784Y0232395D02*
X0139450Y0232395D01*
X0139708Y0230796D02*
X0129446Y0230796D01*
X0128747Y0229198D02*
X0196950Y0229198D01*
X0196950Y0227599D02*
X0195497Y0227599D01*
X0195550Y0226001D02*
X0196950Y0226001D01*
X0196950Y0224402D02*
X0195550Y0224402D01*
X0195550Y0222803D02*
X0196950Y0222803D01*
X0196950Y0221205D02*
X0195550Y0221205D01*
X0195550Y0219606D02*
X0196950Y0219606D01*
X0196950Y0218008D02*
X0195550Y0218008D01*
X0195550Y0216409D02*
X0196950Y0216409D01*
X0196950Y0214811D02*
X0195550Y0214811D01*
X0195550Y0213212D02*
X0196950Y0213212D01*
X0196950Y0211614D02*
X0195550Y0211614D01*
X0213531Y0257971D02*
X0129846Y0257971D01*
X0129846Y0256372D02*
X0234483Y0256372D01*
X0234483Y0254774D02*
X0129618Y0254774D01*
X0128956Y0253175D02*
X0234483Y0253175D01*
X0234483Y0251577D02*
X0127975Y0251577D01*
X0126377Y0249978D02*
X0234483Y0249978D01*
X0234483Y0248380D02*
X0122958Y0248380D01*
X0129525Y0259569D02*
X0212830Y0259569D01*
X0212830Y0261168D02*
X0211833Y0261168D01*
X0212605Y0269160D02*
X0212830Y0269160D01*
X0212830Y0270759D02*
X0210754Y0270759D01*
X0212830Y0272357D02*
X0123050Y0272357D01*
X0123050Y0270759D02*
X0141079Y0270759D01*
X0140816Y0270625D02*
X0140061Y0270076D01*
X0139400Y0269416D01*
X0138851Y0268660D01*
X0138427Y0267828D01*
X0138138Y0266940D01*
X0138010Y0266128D01*
X0143348Y0266128D01*
X0143348Y0264972D01*
X0138010Y0264972D01*
X0138138Y0264160D01*
X0138427Y0263272D01*
X0138851Y0262440D01*
X0139400Y0261684D01*
X0140061Y0261024D01*
X0140816Y0260475D01*
X0141648Y0260051D01*
X0142537Y0259762D01*
X0143348Y0259634D01*
X0143348Y0264972D01*
X0144504Y0264972D01*
X0144504Y0259634D01*
X0145316Y0259762D01*
X0146204Y0260051D01*
X0147036Y0260475D01*
X0147792Y0261024D01*
X0148452Y0261684D01*
X0149001Y0262440D01*
X0149425Y0263272D01*
X0149714Y0264160D01*
X0149842Y0264972D01*
X0144504Y0264972D01*
X0144504Y0266128D01*
X0143348Y0266128D01*
X0143348Y0271466D01*
X0142537Y0271338D01*
X0141648Y0271049D01*
X0140816Y0270625D01*
X0139215Y0269160D02*
X0123050Y0269160D01*
X0123050Y0267562D02*
X0138341Y0267562D01*
X0138106Y0264365D02*
X0126154Y0264365D01*
X0127752Y0262766D02*
X0138685Y0262766D01*
X0139917Y0261168D02*
X0128863Y0261168D01*
X0123050Y0265963D02*
X0143348Y0265963D01*
X0144504Y0265963D02*
X0201890Y0265963D01*
X0201892Y0264365D02*
X0149746Y0264365D01*
X0149168Y0262766D02*
X0202554Y0262766D01*
X0203814Y0261168D02*
X0147936Y0261168D01*
X0144504Y0261168D02*
X0143348Y0261168D01*
X0143348Y0262766D02*
X0144504Y0262766D01*
X0144504Y0264365D02*
X0143348Y0264365D01*
X0144504Y0266128D02*
X0149842Y0266128D01*
X0149714Y0266940D01*
X0149425Y0267828D01*
X0149001Y0268660D01*
X0148452Y0269416D01*
X0147792Y0270076D01*
X0147036Y0270625D01*
X0146204Y0271049D01*
X0145316Y0271338D01*
X0144504Y0271466D01*
X0144504Y0266128D01*
X0144504Y0267562D02*
X0143348Y0267562D01*
X0143348Y0269160D02*
X0144504Y0269160D01*
X0144504Y0270759D02*
X0143348Y0270759D01*
X0146774Y0270759D02*
X0204893Y0270759D01*
X0203042Y0269160D02*
X0148638Y0269160D01*
X0149512Y0267562D02*
X0202234Y0267562D01*
X0212830Y0273956D02*
X0123050Y0273956D01*
X0123050Y0275554D02*
X0212830Y0275554D01*
X0212830Y0277153D02*
X0123050Y0277153D01*
X0123050Y0278751D02*
X0212830Y0278751D01*
X0212830Y0280350D02*
X0123050Y0280350D01*
X0123050Y0281948D02*
X0212830Y0281948D01*
X0212830Y0283547D02*
X0123050Y0283547D01*
X0127620Y0227599D02*
X0139503Y0227599D01*
X0139504Y0226001D02*
X0125685Y0226001D01*
X0166312Y0154068D02*
X0167975Y0154068D01*
X0167975Y0152469D02*
X0167018Y0152469D01*
X0166944Y0150870D02*
X0167975Y0150870D01*
X0167975Y0149272D02*
X0166051Y0149272D01*
D23*
X0193750Y0161800D02*
X0193750Y0169363D01*
X0193750Y0161800D02*
X0198750Y0156800D01*
X0211250Y0156800D01*
X0231250Y0136800D01*
X0231250Y0049300D01*
X0198750Y0016800D01*
X0136250Y0016800D01*
X0106250Y0016800D02*
X0043750Y0016800D01*
X0011250Y0049300D01*
X0011250Y0136800D01*
X0031250Y0156800D01*
X0068750Y0156800D01*
D24*
X0116250Y0109300D03*
D25*
X0116250Y0026800D01*
M02*
