G75*
%MOIN*%
%OFA0B0*%
%FSLAX25Y25*%
%IPPOS*%
%LPD*%
%AMOC8*
5,1,8,0,0,1.08239X$1,22.5*
%
%ADD10C,0.08268*%
%ADD11C,0.04724*%
%ADD12R,0.04724X0.04724*%
%ADD13C,0.04331*%
%ADD14R,0.04331X0.04331*%
%ADD15C,0.03937*%
%ADD16R,0.03937X0.03937*%
%ADD17R,0.06299X0.06299*%
%ADD18C,0.06299*%
%ADD19C,0.13843*%
%ADD20C,0.05512*%
%ADD21C,0.00000*%
D10*
X0034425Y0215613D03*
X0034425Y0240613D03*
X0034425Y0265613D03*
X0098323Y0265613D03*
X0098323Y0240613D03*
X0098323Y0215613D03*
X0143926Y0215550D03*
X0143926Y0240550D03*
X0143926Y0265550D03*
X0207824Y0265550D03*
X0207824Y0240550D03*
X0207824Y0215550D03*
D11*
X0148750Y0189300D03*
X0183750Y0111800D03*
X0183750Y0101800D03*
X0183750Y0091800D03*
X0053750Y0096800D03*
X0053750Y0106800D03*
X0053750Y0116800D03*
X0053750Y0126800D03*
X0053750Y0136800D03*
X0053750Y0146800D03*
D12*
X0148750Y0169300D03*
D13*
X0148750Y0159740D03*
X0134750Y0151800D03*
X0141250Y0124300D03*
X0151250Y0114300D03*
X0161250Y0124300D03*
X0171250Y0124300D03*
X0171250Y0136800D03*
X0181250Y0146800D03*
X0191250Y0127240D03*
X0201250Y0136800D03*
X0201250Y0146800D03*
X0171250Y0094300D03*
X0161250Y0094300D03*
X0151250Y0094300D03*
X0141250Y0094300D03*
X0141250Y0076800D03*
X0151250Y0076800D03*
X0161250Y0076800D03*
X0161250Y0046800D03*
X0151250Y0046800D03*
X0141250Y0046800D03*
X0173750Y0036800D03*
X0193750Y0036800D03*
X0111690Y0136800D03*
X0098750Y0126800D03*
X0098750Y0116800D03*
X0098750Y0106800D03*
X0098750Y0096800D03*
X0098750Y0086800D03*
X0093750Y0076800D03*
X0103750Y0076800D03*
X0093750Y0056800D03*
X0081250Y0056800D03*
X0081250Y0076800D03*
X0068750Y0086800D03*
X0068750Y0096800D03*
X0068750Y0106800D03*
X0068750Y0116800D03*
X0068750Y0126800D03*
X0068750Y0136800D03*
X0068750Y0146800D03*
X0068750Y0156800D03*
X0088750Y0136800D03*
X0098750Y0146800D03*
X0098750Y0156800D03*
X0134750Y0181800D03*
X0028810Y0139300D03*
X0026250Y0126800D03*
X0026250Y0096800D03*
X0103750Y0046800D03*
D14*
X0103810Y0136800D03*
X0148750Y0151860D03*
X0191250Y0119360D03*
X0036690Y0139300D03*
D15*
X0038750Y0116800D03*
X0038750Y0096800D03*
X0043750Y0081800D03*
X0163250Y0151800D03*
X0163250Y0171800D03*
X0201250Y0111800D03*
X0201250Y0091800D03*
X0186250Y0079300D03*
D16*
X0196250Y0079300D03*
X0053750Y0081800D03*
D17*
X0068750Y0049363D03*
X0068750Y0169363D03*
X0213750Y0169363D03*
X0213750Y0049363D03*
D18*
X0193750Y0049363D03*
X0173750Y0049363D03*
X0173750Y0169363D03*
X0193750Y0169363D03*
X0048750Y0169363D03*
X0028750Y0169363D03*
X0028750Y0049363D03*
X0048750Y0049363D03*
D19*
X0121125Y0233438D03*
X0121125Y0257060D03*
D20*
X0116250Y0026800D03*
X0116250Y0016800D03*
X0106250Y0016800D03*
X0106250Y0026800D03*
X0126250Y0026800D03*
X0126250Y0016800D03*
X0136250Y0016800D03*
X0136250Y0026800D03*
D21*
X0237283Y0006800D02*
X0005000Y0006800D01*
X0005000Y0259831D01*
X0026654Y0259831D01*
X0026654Y0287391D01*
X0215630Y0287391D01*
X0215630Y0259831D01*
X0237283Y0259831D01*
X0237283Y0006800D01*
M02*
