G75*
%MOIN*%
%OFA0B0*%
%FSLAX25Y25*%
%IPPOS*%
%LPD*%
%AMOC8*
5,1,8,0,0,1.08239X$1,22.5*
%
%ADD10C,0.00500*%
%ADD11C,0.00600*%
%ADD12C,0.00800*%
%ADD13C,0.00000*%
D10*
X0018750Y0055863D02*
X0022805Y0055863D01*
X0026742Y0055863D02*
X0030797Y0055863D01*
X0034734Y0055863D02*
X0038789Y0055863D01*
X0042726Y0055863D02*
X0046781Y0055863D01*
X0050719Y0055863D02*
X0054774Y0055863D01*
X0058711Y0055863D02*
X0062766Y0055863D01*
X0066703Y0055863D02*
X0070758Y0055863D01*
X0074695Y0055863D02*
X0078750Y0055863D01*
X0078750Y0060201D01*
X0078750Y0064138D02*
X0078750Y0068476D01*
X0078750Y0072413D02*
X0078750Y0076750D01*
X0078750Y0080687D02*
X0078750Y0085025D01*
X0078750Y0088962D02*
X0078750Y0093300D01*
X0079472Y0110800D02*
X0083750Y0110800D01*
X0075535Y0110800D02*
X0071257Y0110800D01*
X0067320Y0110800D02*
X0063041Y0110800D01*
X0059104Y0110800D02*
X0054826Y0110800D01*
X0050889Y0110800D02*
X0046611Y0110800D01*
X0014757Y0119135D02*
X0014943Y0119858D01*
X0015143Y0120577D01*
X0015360Y0121292D01*
X0015591Y0122002D01*
X0015837Y0122707D01*
X0016099Y0123406D01*
X0018028Y0110800D02*
X0013750Y0110800D01*
X0021965Y0110800D02*
X0026243Y0110800D01*
X0030180Y0110800D02*
X0034459Y0110800D01*
X0038396Y0110800D02*
X0042674Y0110800D01*
X0022469Y0133915D02*
X0022968Y0134471D01*
X0023479Y0135015D01*
X0024001Y0135549D01*
X0024535Y0136071D01*
X0025079Y0136582D01*
X0025635Y0137081D01*
X0048750Y0137585D02*
X0048750Y0133307D01*
X0048750Y0129370D02*
X0048750Y0125091D01*
X0048750Y0121154D02*
X0048750Y0116876D01*
X0048750Y0112939D02*
X0048750Y0108661D01*
X0040414Y0076807D02*
X0039691Y0076993D01*
X0038972Y0077194D01*
X0038258Y0077410D01*
X0037548Y0077641D01*
X0036843Y0077888D01*
X0036144Y0078149D01*
X0048750Y0080078D02*
X0048750Y0075800D01*
X0048750Y0084015D02*
X0048750Y0088293D01*
X0048750Y0092230D02*
X0048750Y0096509D01*
X0048750Y0100446D02*
X0048750Y0104724D01*
X0057086Y0076807D02*
X0057809Y0076993D01*
X0058528Y0077194D01*
X0059242Y0077410D01*
X0059952Y0077641D01*
X0060657Y0077888D01*
X0061356Y0078149D01*
X0020041Y0090781D02*
X0019620Y0091398D01*
X0019213Y0092023D01*
X0018819Y0092657D01*
X0018439Y0093300D01*
X0018073Y0093950D01*
X0017720Y0094609D01*
X0018750Y0093300D02*
X0018750Y0088962D01*
X0018750Y0085025D02*
X0018750Y0080687D01*
X0018750Y0076750D02*
X0018750Y0072413D01*
X0018750Y0068476D02*
X0018750Y0064138D01*
X0018750Y0060201D02*
X0018750Y0055863D01*
X0077459Y0090781D02*
X0077880Y0091398D01*
X0078287Y0092023D01*
X0078681Y0092657D01*
X0079061Y0093300D01*
X0079427Y0093950D01*
X0079780Y0094609D01*
X0082743Y0119135D02*
X0082557Y0119858D01*
X0082357Y0120577D01*
X0082140Y0121292D01*
X0081909Y0122002D01*
X0081663Y0122707D01*
X0081401Y0123406D01*
X0075031Y0133915D02*
X0074532Y0134471D01*
X0074021Y0135015D01*
X0073499Y0135549D01*
X0072965Y0136071D01*
X0072421Y0136582D01*
X0071865Y0137081D01*
X0048750Y0141522D02*
X0048750Y0145800D01*
X0046781Y0175863D02*
X0042726Y0175863D01*
X0038789Y0175863D02*
X0034734Y0175863D01*
X0030797Y0175863D02*
X0026742Y0175863D01*
X0022805Y0175863D02*
X0018750Y0175863D01*
X0018750Y0180201D01*
X0018750Y0184138D02*
X0018750Y0188476D01*
X0018750Y0192413D02*
X0018750Y0196750D01*
X0018750Y0200687D02*
X0018750Y0205025D01*
X0018750Y0208962D02*
X0018750Y0213300D01*
X0018028Y0230800D02*
X0013750Y0230800D01*
X0021965Y0230800D02*
X0026243Y0230800D01*
X0030180Y0230800D02*
X0034459Y0230800D01*
X0038396Y0230800D02*
X0042674Y0230800D01*
X0046611Y0230800D02*
X0050889Y0230800D01*
X0082743Y0239135D02*
X0082557Y0239858D01*
X0082357Y0240577D01*
X0082140Y0241292D01*
X0081909Y0242002D01*
X0081663Y0242707D01*
X0081401Y0243406D01*
X0079472Y0230800D02*
X0083750Y0230800D01*
X0075535Y0230800D02*
X0071257Y0230800D01*
X0067320Y0230800D02*
X0063041Y0230800D01*
X0059104Y0230800D02*
X0054826Y0230800D01*
X0075031Y0253915D02*
X0074532Y0254471D01*
X0074021Y0255015D01*
X0073499Y0255549D01*
X0072965Y0256071D01*
X0072421Y0256582D01*
X0071865Y0257081D01*
X0048750Y0257585D02*
X0048750Y0253307D01*
X0048750Y0249370D02*
X0048750Y0245091D01*
X0048750Y0241154D02*
X0048750Y0236876D01*
X0048750Y0232939D02*
X0048750Y0228661D01*
X0040414Y0196807D02*
X0039691Y0196993D01*
X0038972Y0197194D01*
X0038258Y0197410D01*
X0037548Y0197641D01*
X0036843Y0197888D01*
X0036144Y0198149D01*
X0048750Y0200078D02*
X0048750Y0195800D01*
X0048750Y0204015D02*
X0048750Y0208293D01*
X0048750Y0212230D02*
X0048750Y0216509D01*
X0048750Y0220446D02*
X0048750Y0224724D01*
X0057086Y0196807D02*
X0057809Y0196993D01*
X0058528Y0197194D01*
X0059242Y0197410D01*
X0059952Y0197641D01*
X0060657Y0197888D01*
X0061356Y0198149D01*
X0078750Y0196750D02*
X0078750Y0192413D01*
X0078750Y0188476D02*
X0078750Y0184138D01*
X0078750Y0180201D02*
X0078750Y0175863D01*
X0074695Y0175863D01*
X0070758Y0175863D02*
X0066703Y0175863D01*
X0062766Y0175863D02*
X0058711Y0175863D01*
X0054774Y0175863D02*
X0050719Y0175863D01*
X0078750Y0200687D02*
X0078750Y0205025D01*
X0078750Y0208962D02*
X0078750Y0213300D01*
X0079780Y0246991D02*
X0079427Y0247649D01*
X0079061Y0248300D01*
X0078681Y0248942D01*
X0078287Y0249577D01*
X0077880Y0250202D01*
X0077459Y0250819D01*
X0048750Y0261522D02*
X0048750Y0265800D01*
X0057085Y0264793D02*
X0057808Y0264607D01*
X0058527Y0264407D01*
X0059242Y0264190D01*
X0059952Y0263959D01*
X0060657Y0263713D01*
X0061356Y0263451D01*
X0083464Y0235267D02*
X0083551Y0234525D01*
X0083623Y0233782D01*
X0083678Y0233038D01*
X0083718Y0232292D01*
X0083742Y0231546D01*
X0083750Y0230800D01*
X0053217Y0265514D02*
X0052475Y0265601D01*
X0051732Y0265673D01*
X0050988Y0265728D01*
X0050242Y0265768D01*
X0049496Y0265792D01*
X0048750Y0265800D01*
X0040415Y0264793D02*
X0039692Y0264607D01*
X0038973Y0264407D01*
X0038258Y0264190D01*
X0037548Y0263959D01*
X0036843Y0263713D01*
X0036144Y0263451D01*
X0025635Y0257081D02*
X0025079Y0256582D01*
X0024535Y0256071D01*
X0024001Y0255549D01*
X0023479Y0255015D01*
X0022968Y0254471D01*
X0022469Y0253915D01*
X0016099Y0243406D02*
X0015837Y0242707D01*
X0015591Y0242002D01*
X0015360Y0241292D01*
X0015143Y0240577D01*
X0014943Y0239858D01*
X0014757Y0239135D01*
X0044283Y0265514D02*
X0045025Y0265601D01*
X0045768Y0265673D01*
X0046512Y0265728D01*
X0047258Y0265768D01*
X0048004Y0265792D01*
X0048750Y0265800D01*
X0064941Y0261830D02*
X0065599Y0261477D01*
X0066250Y0261111D01*
X0066892Y0260731D01*
X0067527Y0260337D01*
X0068152Y0259930D01*
X0068769Y0259509D01*
X0032559Y0261830D02*
X0031901Y0261477D01*
X0031250Y0261111D01*
X0030608Y0260731D01*
X0029973Y0260337D01*
X0029348Y0259930D01*
X0028731Y0259509D01*
X0014036Y0235267D02*
X0013949Y0234525D01*
X0013877Y0233782D01*
X0013822Y0233038D01*
X0013782Y0232292D01*
X0013758Y0231546D01*
X0013750Y0230800D01*
X0017720Y0246991D02*
X0018073Y0247649D01*
X0018439Y0248300D01*
X0018819Y0248942D01*
X0019213Y0249577D01*
X0019620Y0250202D01*
X0020041Y0250819D01*
X0014757Y0222464D02*
X0014943Y0221741D01*
X0015144Y0221022D01*
X0015360Y0220308D01*
X0015591Y0219598D01*
X0015838Y0218893D01*
X0016099Y0218194D01*
X0077459Y0210781D02*
X0077880Y0211398D01*
X0078287Y0212023D01*
X0078681Y0212657D01*
X0079061Y0213300D01*
X0079427Y0213950D01*
X0079780Y0214609D01*
X0020041Y0210781D02*
X0019620Y0211398D01*
X0019213Y0212023D01*
X0018819Y0212657D01*
X0018439Y0213300D01*
X0018073Y0213950D01*
X0017720Y0214609D01*
X0048750Y0195800D02*
X0049497Y0195808D01*
X0050243Y0195832D01*
X0050988Y0195872D01*
X0051733Y0195927D01*
X0052476Y0195999D01*
X0053217Y0196086D01*
X0025635Y0204519D02*
X0025079Y0205018D01*
X0024535Y0205529D01*
X0024001Y0206051D01*
X0023479Y0206585D01*
X0022968Y0207129D01*
X0022469Y0207685D01*
X0071865Y0204519D02*
X0072421Y0205018D01*
X0072965Y0205529D01*
X0073499Y0206051D01*
X0074021Y0206585D01*
X0074532Y0207129D01*
X0075031Y0207685D01*
X0048750Y0195800D02*
X0048003Y0195808D01*
X0047257Y0195832D01*
X0046512Y0195872D01*
X0045767Y0195927D01*
X0045024Y0195999D01*
X0044283Y0196086D01*
X0045215Y0230800D02*
X0045217Y0230919D01*
X0045223Y0231037D01*
X0045233Y0231156D01*
X0045247Y0231274D01*
X0045265Y0231391D01*
X0045287Y0231508D01*
X0045312Y0231624D01*
X0045342Y0231739D01*
X0045375Y0231853D01*
X0045413Y0231966D01*
X0045454Y0232077D01*
X0045498Y0232187D01*
X0045547Y0232295D01*
X0045599Y0232402D01*
X0045655Y0232507D01*
X0045714Y0232610D01*
X0045776Y0232711D01*
X0045842Y0232810D01*
X0045911Y0232907D01*
X0045984Y0233001D01*
X0046059Y0233092D01*
X0046138Y0233182D01*
X0046219Y0233268D01*
X0046303Y0233352D01*
X0046391Y0233432D01*
X0046480Y0233510D01*
X0046573Y0233585D01*
X0046667Y0233656D01*
X0046765Y0233725D01*
X0046864Y0233790D01*
X0046965Y0233851D01*
X0047069Y0233910D01*
X0047174Y0233964D01*
X0047282Y0234016D01*
X0047390Y0234063D01*
X0047501Y0234107D01*
X0047613Y0234147D01*
X0047726Y0234183D01*
X0047840Y0234216D01*
X0047955Y0234244D01*
X0048071Y0234269D01*
X0048188Y0234290D01*
X0048306Y0234307D01*
X0048424Y0234320D01*
X0048542Y0234329D01*
X0048661Y0234334D01*
X0048780Y0234335D01*
X0048898Y0234332D01*
X0049017Y0234325D01*
X0049135Y0234314D01*
X0049253Y0234299D01*
X0049370Y0234280D01*
X0049487Y0234257D01*
X0049603Y0234231D01*
X0049717Y0234200D01*
X0049831Y0234166D01*
X0049944Y0234127D01*
X0050055Y0234085D01*
X0050164Y0234040D01*
X0050272Y0233990D01*
X0050379Y0233937D01*
X0050483Y0233881D01*
X0050586Y0233821D01*
X0050686Y0233758D01*
X0050784Y0233691D01*
X0050880Y0233621D01*
X0050974Y0233548D01*
X0051065Y0233472D01*
X0051153Y0233392D01*
X0051239Y0233310D01*
X0051322Y0233225D01*
X0051402Y0233137D01*
X0051479Y0233047D01*
X0051553Y0232954D01*
X0051624Y0232859D01*
X0051691Y0232761D01*
X0051756Y0232661D01*
X0051816Y0232559D01*
X0051874Y0232455D01*
X0051928Y0232349D01*
X0051978Y0232241D01*
X0052024Y0232132D01*
X0052067Y0232021D01*
X0052106Y0231909D01*
X0052142Y0231796D01*
X0052173Y0231681D01*
X0052201Y0231566D01*
X0052225Y0231450D01*
X0052245Y0231332D01*
X0052261Y0231215D01*
X0052273Y0231097D01*
X0052281Y0230978D01*
X0052285Y0230859D01*
X0052285Y0230741D01*
X0052281Y0230622D01*
X0052273Y0230503D01*
X0052261Y0230385D01*
X0052245Y0230268D01*
X0052225Y0230150D01*
X0052201Y0230034D01*
X0052173Y0229919D01*
X0052142Y0229804D01*
X0052106Y0229691D01*
X0052067Y0229579D01*
X0052024Y0229468D01*
X0051978Y0229359D01*
X0051928Y0229251D01*
X0051874Y0229145D01*
X0051816Y0229041D01*
X0051756Y0228939D01*
X0051691Y0228839D01*
X0051624Y0228741D01*
X0051553Y0228646D01*
X0051479Y0228553D01*
X0051402Y0228463D01*
X0051322Y0228375D01*
X0051239Y0228290D01*
X0051153Y0228208D01*
X0051065Y0228128D01*
X0050974Y0228052D01*
X0050880Y0227979D01*
X0050784Y0227909D01*
X0050686Y0227842D01*
X0050586Y0227779D01*
X0050483Y0227719D01*
X0050379Y0227663D01*
X0050272Y0227610D01*
X0050164Y0227560D01*
X0050055Y0227515D01*
X0049944Y0227473D01*
X0049831Y0227434D01*
X0049717Y0227400D01*
X0049603Y0227369D01*
X0049487Y0227343D01*
X0049370Y0227320D01*
X0049253Y0227301D01*
X0049135Y0227286D01*
X0049017Y0227275D01*
X0048898Y0227268D01*
X0048780Y0227265D01*
X0048661Y0227266D01*
X0048542Y0227271D01*
X0048424Y0227280D01*
X0048306Y0227293D01*
X0048188Y0227310D01*
X0048071Y0227331D01*
X0047955Y0227356D01*
X0047840Y0227384D01*
X0047726Y0227417D01*
X0047613Y0227453D01*
X0047501Y0227493D01*
X0047390Y0227537D01*
X0047282Y0227584D01*
X0047174Y0227636D01*
X0047069Y0227690D01*
X0046965Y0227749D01*
X0046864Y0227810D01*
X0046765Y0227875D01*
X0046667Y0227944D01*
X0046573Y0228015D01*
X0046480Y0228090D01*
X0046391Y0228168D01*
X0046303Y0228248D01*
X0046219Y0228332D01*
X0046138Y0228418D01*
X0046059Y0228508D01*
X0045984Y0228599D01*
X0045911Y0228693D01*
X0045842Y0228790D01*
X0045776Y0228889D01*
X0045714Y0228990D01*
X0045655Y0229093D01*
X0045599Y0229198D01*
X0045547Y0229305D01*
X0045498Y0229413D01*
X0045454Y0229523D01*
X0045413Y0229634D01*
X0045375Y0229747D01*
X0045342Y0229861D01*
X0045312Y0229976D01*
X0045287Y0230092D01*
X0045265Y0230209D01*
X0045247Y0230326D01*
X0045233Y0230444D01*
X0045223Y0230563D01*
X0045217Y0230681D01*
X0045215Y0230800D01*
X0083464Y0226333D02*
X0083551Y0227074D01*
X0083623Y0227817D01*
X0083678Y0228562D01*
X0083718Y0229307D01*
X0083742Y0230053D01*
X0083750Y0230800D01*
X0014036Y0226333D02*
X0013949Y0227074D01*
X0013877Y0227817D01*
X0013822Y0228562D01*
X0013782Y0229307D01*
X0013758Y0230053D01*
X0013750Y0230800D01*
X0064941Y0199770D02*
X0065600Y0200123D01*
X0066250Y0200489D01*
X0066893Y0200869D01*
X0067527Y0201263D01*
X0068152Y0201670D01*
X0068769Y0202091D01*
X0032559Y0199770D02*
X0031900Y0200123D01*
X0031250Y0200489D01*
X0030607Y0200869D01*
X0029973Y0201263D01*
X0029348Y0201670D01*
X0028731Y0202091D01*
X0081401Y0218194D02*
X0081662Y0218893D01*
X0081909Y0219598D01*
X0082140Y0220308D01*
X0082356Y0221022D01*
X0082557Y0221741D01*
X0082743Y0222464D01*
X0116417Y0278025D02*
X0117685Y0278025D01*
X0117051Y0278025D02*
X0117051Y0279927D01*
X0117685Y0279293D01*
X0118627Y0279927D02*
X0119261Y0279927D01*
X0118944Y0279927D02*
X0118944Y0278342D01*
X0119261Y0278025D01*
X0119578Y0278025D01*
X0119895Y0278342D01*
X0158750Y0230800D02*
X0163028Y0230800D01*
X0166965Y0230800D02*
X0171243Y0230800D01*
X0175180Y0230800D02*
X0179459Y0230800D01*
X0183396Y0230800D02*
X0187674Y0230800D01*
X0191611Y0230800D02*
X0195889Y0230800D01*
X0227743Y0239135D02*
X0227557Y0239858D01*
X0227357Y0240577D01*
X0227140Y0241292D01*
X0226909Y0242002D01*
X0226663Y0242707D01*
X0226401Y0243406D01*
X0224472Y0230800D02*
X0228750Y0230800D01*
X0220535Y0230800D02*
X0216257Y0230800D01*
X0212320Y0230800D02*
X0208041Y0230800D01*
X0204104Y0230800D02*
X0199826Y0230800D01*
X0220031Y0253915D02*
X0219532Y0254471D01*
X0219021Y0255015D01*
X0218499Y0255549D01*
X0217965Y0256071D01*
X0217421Y0256582D01*
X0216865Y0257081D01*
X0193750Y0257585D02*
X0193750Y0253307D01*
X0193750Y0249370D02*
X0193750Y0245091D01*
X0193750Y0241154D02*
X0193750Y0236876D01*
X0193750Y0232939D02*
X0193750Y0228661D01*
X0185414Y0196807D02*
X0184691Y0196993D01*
X0183972Y0197194D01*
X0183258Y0197410D01*
X0182548Y0197641D01*
X0181843Y0197888D01*
X0181144Y0198149D01*
X0193750Y0200078D02*
X0193750Y0195800D01*
X0193750Y0204015D02*
X0193750Y0208293D01*
X0193750Y0212230D02*
X0193750Y0216509D01*
X0193750Y0220446D02*
X0193750Y0224724D01*
X0202086Y0196807D02*
X0202809Y0196993D01*
X0203528Y0197194D01*
X0204242Y0197410D01*
X0204952Y0197641D01*
X0205657Y0197888D01*
X0206356Y0198149D01*
X0223750Y0196750D02*
X0223750Y0192413D01*
X0223750Y0188476D02*
X0223750Y0184138D01*
X0223750Y0180201D02*
X0223750Y0175863D01*
X0219695Y0175863D01*
X0215758Y0175863D02*
X0211703Y0175863D01*
X0207766Y0175863D02*
X0203711Y0175863D01*
X0199774Y0175863D02*
X0195719Y0175863D01*
X0191781Y0175863D02*
X0187726Y0175863D01*
X0183789Y0175863D02*
X0179734Y0175863D01*
X0175797Y0175863D02*
X0171742Y0175863D01*
X0167805Y0175863D02*
X0163750Y0175863D01*
X0163750Y0180201D01*
X0163750Y0184138D02*
X0163750Y0188476D01*
X0163750Y0192413D02*
X0163750Y0196750D01*
X0163750Y0200687D02*
X0163750Y0205025D01*
X0163750Y0208962D02*
X0163750Y0213300D01*
X0159757Y0239135D02*
X0159943Y0239858D01*
X0160143Y0240577D01*
X0160360Y0241292D01*
X0160591Y0242002D01*
X0160837Y0242707D01*
X0161099Y0243406D01*
X0167469Y0253915D02*
X0167968Y0254471D01*
X0168479Y0255015D01*
X0169001Y0255549D01*
X0169535Y0256071D01*
X0170079Y0256582D01*
X0170635Y0257081D01*
X0193750Y0261522D02*
X0193750Y0265800D01*
X0202085Y0264793D02*
X0202808Y0264607D01*
X0203527Y0264407D01*
X0204242Y0264190D01*
X0204952Y0263959D01*
X0205657Y0263713D01*
X0206356Y0263451D01*
X0228464Y0235267D02*
X0228551Y0234525D01*
X0228623Y0233782D01*
X0228678Y0233038D01*
X0228718Y0232292D01*
X0228742Y0231546D01*
X0228750Y0230800D01*
X0223750Y0213300D02*
X0223750Y0208962D01*
X0223750Y0205025D02*
X0223750Y0200687D01*
X0165041Y0210781D02*
X0164620Y0211398D01*
X0164213Y0212023D01*
X0163819Y0212657D01*
X0163439Y0213300D01*
X0163073Y0213950D01*
X0162720Y0214609D01*
X0162720Y0246991D02*
X0163073Y0247649D01*
X0163439Y0248300D01*
X0163819Y0248942D01*
X0164213Y0249577D01*
X0164620Y0250202D01*
X0165041Y0250819D01*
X0181144Y0263451D02*
X0181843Y0263713D01*
X0182548Y0263959D01*
X0183258Y0264190D01*
X0183973Y0264407D01*
X0184692Y0264607D01*
X0185415Y0264793D01*
X0159036Y0235267D02*
X0158949Y0234525D01*
X0158877Y0233782D01*
X0158822Y0233038D01*
X0158782Y0232292D01*
X0158758Y0231546D01*
X0158750Y0230800D01*
X0189283Y0265514D02*
X0190025Y0265601D01*
X0190768Y0265673D01*
X0191512Y0265728D01*
X0192258Y0265768D01*
X0193004Y0265792D01*
X0193750Y0265800D01*
X0209941Y0261830D02*
X0210599Y0261477D01*
X0211250Y0261111D01*
X0211892Y0260731D01*
X0212527Y0260337D01*
X0213152Y0259930D01*
X0213769Y0259509D01*
X0198217Y0265514D02*
X0197475Y0265601D01*
X0196732Y0265673D01*
X0195988Y0265728D01*
X0195242Y0265768D01*
X0194496Y0265792D01*
X0193750Y0265800D01*
X0177559Y0261830D02*
X0176901Y0261477D01*
X0176250Y0261111D01*
X0175608Y0260731D01*
X0174973Y0260337D01*
X0174348Y0259930D01*
X0173731Y0259509D01*
X0222459Y0250819D02*
X0222880Y0250202D01*
X0223287Y0249577D01*
X0223681Y0248942D01*
X0224061Y0248300D01*
X0224427Y0247649D01*
X0224780Y0246991D01*
X0158750Y0230800D02*
X0158758Y0230053D01*
X0158782Y0229307D01*
X0158822Y0228562D01*
X0158877Y0227817D01*
X0158949Y0227074D01*
X0159036Y0226333D01*
X0193750Y0195800D02*
X0194497Y0195808D01*
X0195243Y0195832D01*
X0195988Y0195872D01*
X0196733Y0195927D01*
X0197476Y0195999D01*
X0198217Y0196086D01*
X0170635Y0204519D02*
X0170079Y0205018D01*
X0169535Y0205529D01*
X0169001Y0206051D01*
X0168479Y0206585D01*
X0167968Y0207129D01*
X0167469Y0207685D01*
X0222459Y0210781D02*
X0222880Y0211398D01*
X0223287Y0212023D01*
X0223681Y0212657D01*
X0224061Y0213300D01*
X0224427Y0213950D01*
X0224780Y0214609D01*
X0193750Y0195800D02*
X0193003Y0195808D01*
X0192257Y0195832D01*
X0191512Y0195872D01*
X0190767Y0195927D01*
X0190024Y0195999D01*
X0189283Y0196086D01*
X0216865Y0204519D02*
X0217421Y0205018D01*
X0217965Y0205529D01*
X0218499Y0206051D01*
X0219021Y0206585D01*
X0219532Y0207129D01*
X0220031Y0207685D01*
X0190215Y0230800D02*
X0190217Y0230919D01*
X0190223Y0231037D01*
X0190233Y0231156D01*
X0190247Y0231274D01*
X0190265Y0231391D01*
X0190287Y0231508D01*
X0190312Y0231624D01*
X0190342Y0231739D01*
X0190375Y0231853D01*
X0190413Y0231966D01*
X0190454Y0232077D01*
X0190498Y0232187D01*
X0190547Y0232295D01*
X0190599Y0232402D01*
X0190655Y0232507D01*
X0190714Y0232610D01*
X0190776Y0232711D01*
X0190842Y0232810D01*
X0190911Y0232907D01*
X0190984Y0233001D01*
X0191059Y0233092D01*
X0191138Y0233182D01*
X0191219Y0233268D01*
X0191303Y0233352D01*
X0191391Y0233432D01*
X0191480Y0233510D01*
X0191573Y0233585D01*
X0191667Y0233656D01*
X0191765Y0233725D01*
X0191864Y0233790D01*
X0191965Y0233851D01*
X0192069Y0233910D01*
X0192174Y0233964D01*
X0192282Y0234016D01*
X0192390Y0234063D01*
X0192501Y0234107D01*
X0192613Y0234147D01*
X0192726Y0234183D01*
X0192840Y0234216D01*
X0192955Y0234244D01*
X0193071Y0234269D01*
X0193188Y0234290D01*
X0193306Y0234307D01*
X0193424Y0234320D01*
X0193542Y0234329D01*
X0193661Y0234334D01*
X0193780Y0234335D01*
X0193898Y0234332D01*
X0194017Y0234325D01*
X0194135Y0234314D01*
X0194253Y0234299D01*
X0194370Y0234280D01*
X0194487Y0234257D01*
X0194603Y0234231D01*
X0194717Y0234200D01*
X0194831Y0234166D01*
X0194944Y0234127D01*
X0195055Y0234085D01*
X0195164Y0234040D01*
X0195272Y0233990D01*
X0195379Y0233937D01*
X0195483Y0233881D01*
X0195586Y0233821D01*
X0195686Y0233758D01*
X0195784Y0233691D01*
X0195880Y0233621D01*
X0195974Y0233548D01*
X0196065Y0233472D01*
X0196153Y0233392D01*
X0196239Y0233310D01*
X0196322Y0233225D01*
X0196402Y0233137D01*
X0196479Y0233047D01*
X0196553Y0232954D01*
X0196624Y0232859D01*
X0196691Y0232761D01*
X0196756Y0232661D01*
X0196816Y0232559D01*
X0196874Y0232455D01*
X0196928Y0232349D01*
X0196978Y0232241D01*
X0197024Y0232132D01*
X0197067Y0232021D01*
X0197106Y0231909D01*
X0197142Y0231796D01*
X0197173Y0231681D01*
X0197201Y0231566D01*
X0197225Y0231450D01*
X0197245Y0231332D01*
X0197261Y0231215D01*
X0197273Y0231097D01*
X0197281Y0230978D01*
X0197285Y0230859D01*
X0197285Y0230741D01*
X0197281Y0230622D01*
X0197273Y0230503D01*
X0197261Y0230385D01*
X0197245Y0230268D01*
X0197225Y0230150D01*
X0197201Y0230034D01*
X0197173Y0229919D01*
X0197142Y0229804D01*
X0197106Y0229691D01*
X0197067Y0229579D01*
X0197024Y0229468D01*
X0196978Y0229359D01*
X0196928Y0229251D01*
X0196874Y0229145D01*
X0196816Y0229041D01*
X0196756Y0228939D01*
X0196691Y0228839D01*
X0196624Y0228741D01*
X0196553Y0228646D01*
X0196479Y0228553D01*
X0196402Y0228463D01*
X0196322Y0228375D01*
X0196239Y0228290D01*
X0196153Y0228208D01*
X0196065Y0228128D01*
X0195974Y0228052D01*
X0195880Y0227979D01*
X0195784Y0227909D01*
X0195686Y0227842D01*
X0195586Y0227779D01*
X0195483Y0227719D01*
X0195379Y0227663D01*
X0195272Y0227610D01*
X0195164Y0227560D01*
X0195055Y0227515D01*
X0194944Y0227473D01*
X0194831Y0227434D01*
X0194717Y0227400D01*
X0194603Y0227369D01*
X0194487Y0227343D01*
X0194370Y0227320D01*
X0194253Y0227301D01*
X0194135Y0227286D01*
X0194017Y0227275D01*
X0193898Y0227268D01*
X0193780Y0227265D01*
X0193661Y0227266D01*
X0193542Y0227271D01*
X0193424Y0227280D01*
X0193306Y0227293D01*
X0193188Y0227310D01*
X0193071Y0227331D01*
X0192955Y0227356D01*
X0192840Y0227384D01*
X0192726Y0227417D01*
X0192613Y0227453D01*
X0192501Y0227493D01*
X0192390Y0227537D01*
X0192282Y0227584D01*
X0192174Y0227636D01*
X0192069Y0227690D01*
X0191965Y0227749D01*
X0191864Y0227810D01*
X0191765Y0227875D01*
X0191667Y0227944D01*
X0191573Y0228015D01*
X0191480Y0228090D01*
X0191391Y0228168D01*
X0191303Y0228248D01*
X0191219Y0228332D01*
X0191138Y0228418D01*
X0191059Y0228508D01*
X0190984Y0228599D01*
X0190911Y0228693D01*
X0190842Y0228790D01*
X0190776Y0228889D01*
X0190714Y0228990D01*
X0190655Y0229093D01*
X0190599Y0229198D01*
X0190547Y0229305D01*
X0190498Y0229413D01*
X0190454Y0229523D01*
X0190413Y0229634D01*
X0190375Y0229747D01*
X0190342Y0229861D01*
X0190312Y0229976D01*
X0190287Y0230092D01*
X0190265Y0230209D01*
X0190247Y0230326D01*
X0190233Y0230444D01*
X0190223Y0230563D01*
X0190217Y0230681D01*
X0190215Y0230800D01*
X0159757Y0222464D02*
X0159943Y0221741D01*
X0160144Y0221022D01*
X0160360Y0220308D01*
X0160591Y0219598D01*
X0160838Y0218893D01*
X0161099Y0218194D01*
X0228464Y0226333D02*
X0228551Y0227074D01*
X0228623Y0227817D01*
X0228678Y0228562D01*
X0228718Y0229307D01*
X0228742Y0230053D01*
X0228750Y0230800D01*
X0227743Y0222464D02*
X0227557Y0221741D01*
X0227356Y0221022D01*
X0227140Y0220308D01*
X0226909Y0219598D01*
X0226662Y0218893D01*
X0226401Y0218194D01*
X0177559Y0199770D02*
X0176900Y0200123D01*
X0176250Y0200489D01*
X0175607Y0200869D01*
X0174973Y0201263D01*
X0174348Y0201670D01*
X0173731Y0202091D01*
X0209941Y0199770D02*
X0210600Y0200123D01*
X0211250Y0200489D01*
X0211893Y0200869D01*
X0212527Y0201263D01*
X0213152Y0201670D01*
X0213769Y0202091D01*
X0193750Y0145800D02*
X0193750Y0141522D01*
X0193750Y0137585D02*
X0193750Y0133307D01*
X0193750Y0129370D02*
X0193750Y0125091D01*
X0193750Y0121154D02*
X0193750Y0116876D01*
X0193750Y0112939D02*
X0193750Y0108661D01*
X0185414Y0076807D02*
X0184691Y0076993D01*
X0183972Y0077194D01*
X0183258Y0077410D01*
X0182548Y0077641D01*
X0181843Y0077888D01*
X0181144Y0078149D01*
X0193750Y0080078D02*
X0193750Y0075800D01*
X0193750Y0084015D02*
X0193750Y0088293D01*
X0193750Y0092230D02*
X0193750Y0096509D01*
X0193750Y0100446D02*
X0193750Y0104724D01*
X0202086Y0076807D02*
X0202809Y0076993D01*
X0203528Y0077194D01*
X0204242Y0077410D01*
X0204952Y0077641D01*
X0205657Y0077888D01*
X0206356Y0078149D01*
X0223750Y0076750D02*
X0223750Y0072413D01*
X0223750Y0068476D02*
X0223750Y0064138D01*
X0223750Y0060201D02*
X0223750Y0055863D01*
X0219695Y0055863D01*
X0215758Y0055863D02*
X0211703Y0055863D01*
X0207766Y0055863D02*
X0203711Y0055863D01*
X0199774Y0055863D02*
X0195719Y0055863D01*
X0191781Y0055863D02*
X0187726Y0055863D01*
X0183789Y0055863D02*
X0179734Y0055863D01*
X0175797Y0055863D02*
X0171742Y0055863D01*
X0167805Y0055863D02*
X0163750Y0055863D01*
X0163750Y0060201D01*
X0163750Y0064138D02*
X0163750Y0068476D01*
X0163750Y0072413D02*
X0163750Y0076750D01*
X0163750Y0080687D02*
X0163750Y0085025D01*
X0163750Y0088962D02*
X0163750Y0093300D01*
X0163028Y0110800D02*
X0158750Y0110800D01*
X0166965Y0110800D02*
X0171243Y0110800D01*
X0175180Y0110800D02*
X0179459Y0110800D01*
X0183396Y0110800D02*
X0187674Y0110800D01*
X0191611Y0110800D02*
X0195889Y0110800D01*
X0227743Y0119135D02*
X0227557Y0119858D01*
X0227357Y0120577D01*
X0227140Y0121292D01*
X0226909Y0122002D01*
X0226663Y0122707D01*
X0226401Y0123406D01*
X0224472Y0110800D02*
X0228750Y0110800D01*
X0220535Y0110800D02*
X0216257Y0110800D01*
X0212320Y0110800D02*
X0208041Y0110800D01*
X0204104Y0110800D02*
X0199826Y0110800D01*
X0220031Y0133915D02*
X0219532Y0134471D01*
X0219021Y0135015D01*
X0218499Y0135549D01*
X0217965Y0136071D01*
X0217421Y0136582D01*
X0216865Y0137081D01*
X0206356Y0143451D02*
X0205657Y0143713D01*
X0204952Y0143959D01*
X0204242Y0144190D01*
X0203527Y0144407D01*
X0202808Y0144607D01*
X0202085Y0144793D01*
X0228464Y0115267D02*
X0228551Y0114525D01*
X0228623Y0113782D01*
X0228678Y0113038D01*
X0228718Y0112292D01*
X0228742Y0111546D01*
X0228750Y0110800D01*
X0223750Y0093300D02*
X0223750Y0088962D01*
X0223750Y0085025D02*
X0223750Y0080687D01*
X0165041Y0090781D02*
X0164620Y0091398D01*
X0164213Y0092023D01*
X0163819Y0092657D01*
X0163439Y0093300D01*
X0163073Y0093950D01*
X0162720Y0094609D01*
X0159757Y0119135D02*
X0159943Y0119858D01*
X0160143Y0120577D01*
X0160360Y0121292D01*
X0160591Y0122002D01*
X0160837Y0122707D01*
X0161099Y0123406D01*
X0167469Y0133915D02*
X0167968Y0134471D01*
X0168479Y0135015D01*
X0169001Y0135549D01*
X0169535Y0136071D01*
X0170079Y0136582D01*
X0170635Y0137081D01*
X0181144Y0143451D02*
X0181843Y0143713D01*
X0182548Y0143959D01*
X0183258Y0144190D01*
X0183973Y0144407D01*
X0184692Y0144607D01*
X0185415Y0144793D01*
X0159036Y0115267D02*
X0158949Y0114525D01*
X0158877Y0113782D01*
X0158822Y0113038D01*
X0158782Y0112292D01*
X0158758Y0111546D01*
X0158750Y0110800D01*
X0189283Y0145514D02*
X0190025Y0145601D01*
X0190768Y0145673D01*
X0191512Y0145728D01*
X0192258Y0145768D01*
X0193004Y0145792D01*
X0193750Y0145800D01*
X0209941Y0141830D02*
X0210599Y0141477D01*
X0211250Y0141111D01*
X0211892Y0140731D01*
X0212527Y0140337D01*
X0213152Y0139930D01*
X0213769Y0139509D01*
X0198217Y0145514D02*
X0197475Y0145601D01*
X0196732Y0145673D01*
X0195988Y0145728D01*
X0195242Y0145768D01*
X0194496Y0145792D01*
X0193750Y0145800D01*
X0177559Y0141830D02*
X0176901Y0141477D01*
X0176250Y0141111D01*
X0175608Y0140731D01*
X0174973Y0140337D01*
X0174348Y0139930D01*
X0173731Y0139509D01*
X0165041Y0130819D02*
X0164620Y0130202D01*
X0164213Y0129577D01*
X0163819Y0128942D01*
X0163439Y0128300D01*
X0163073Y0127649D01*
X0162720Y0126991D01*
X0159757Y0102464D02*
X0159943Y0101741D01*
X0160144Y0101022D01*
X0160360Y0100308D01*
X0160591Y0099598D01*
X0160838Y0098893D01*
X0161099Y0098194D01*
X0222459Y0090781D02*
X0222880Y0091398D01*
X0223287Y0092023D01*
X0223681Y0092657D01*
X0224061Y0093300D01*
X0224427Y0093950D01*
X0224780Y0094609D01*
X0224780Y0126991D02*
X0224427Y0127649D01*
X0224061Y0128300D01*
X0223681Y0128942D01*
X0223287Y0129577D01*
X0222880Y0130202D01*
X0222459Y0130819D01*
X0158750Y0110800D02*
X0158758Y0110053D01*
X0158782Y0109307D01*
X0158822Y0108562D01*
X0158877Y0107817D01*
X0158949Y0107074D01*
X0159036Y0106333D01*
X0193750Y0075800D02*
X0194497Y0075808D01*
X0195243Y0075832D01*
X0195988Y0075872D01*
X0196733Y0075927D01*
X0197476Y0075999D01*
X0198217Y0076086D01*
X0170635Y0084519D02*
X0170079Y0085018D01*
X0169535Y0085529D01*
X0169001Y0086051D01*
X0168479Y0086585D01*
X0167968Y0087129D01*
X0167469Y0087685D01*
X0216865Y0084519D02*
X0217421Y0085018D01*
X0217965Y0085529D01*
X0218499Y0086051D01*
X0219021Y0086585D01*
X0219532Y0087129D01*
X0220031Y0087685D01*
X0193750Y0075800D02*
X0193003Y0075808D01*
X0192257Y0075832D01*
X0191512Y0075872D01*
X0190767Y0075927D01*
X0190024Y0075999D01*
X0189283Y0076086D01*
X0190215Y0110800D02*
X0190217Y0110919D01*
X0190223Y0111037D01*
X0190233Y0111156D01*
X0190247Y0111274D01*
X0190265Y0111391D01*
X0190287Y0111508D01*
X0190312Y0111624D01*
X0190342Y0111739D01*
X0190375Y0111853D01*
X0190413Y0111966D01*
X0190454Y0112077D01*
X0190498Y0112187D01*
X0190547Y0112295D01*
X0190599Y0112402D01*
X0190655Y0112507D01*
X0190714Y0112610D01*
X0190776Y0112711D01*
X0190842Y0112810D01*
X0190911Y0112907D01*
X0190984Y0113001D01*
X0191059Y0113092D01*
X0191138Y0113182D01*
X0191219Y0113268D01*
X0191303Y0113352D01*
X0191391Y0113432D01*
X0191480Y0113510D01*
X0191573Y0113585D01*
X0191667Y0113656D01*
X0191765Y0113725D01*
X0191864Y0113790D01*
X0191965Y0113851D01*
X0192069Y0113910D01*
X0192174Y0113964D01*
X0192282Y0114016D01*
X0192390Y0114063D01*
X0192501Y0114107D01*
X0192613Y0114147D01*
X0192726Y0114183D01*
X0192840Y0114216D01*
X0192955Y0114244D01*
X0193071Y0114269D01*
X0193188Y0114290D01*
X0193306Y0114307D01*
X0193424Y0114320D01*
X0193542Y0114329D01*
X0193661Y0114334D01*
X0193780Y0114335D01*
X0193898Y0114332D01*
X0194017Y0114325D01*
X0194135Y0114314D01*
X0194253Y0114299D01*
X0194370Y0114280D01*
X0194487Y0114257D01*
X0194603Y0114231D01*
X0194717Y0114200D01*
X0194831Y0114166D01*
X0194944Y0114127D01*
X0195055Y0114085D01*
X0195164Y0114040D01*
X0195272Y0113990D01*
X0195379Y0113937D01*
X0195483Y0113881D01*
X0195586Y0113821D01*
X0195686Y0113758D01*
X0195784Y0113691D01*
X0195880Y0113621D01*
X0195974Y0113548D01*
X0196065Y0113472D01*
X0196153Y0113392D01*
X0196239Y0113310D01*
X0196322Y0113225D01*
X0196402Y0113137D01*
X0196479Y0113047D01*
X0196553Y0112954D01*
X0196624Y0112859D01*
X0196691Y0112761D01*
X0196756Y0112661D01*
X0196816Y0112559D01*
X0196874Y0112455D01*
X0196928Y0112349D01*
X0196978Y0112241D01*
X0197024Y0112132D01*
X0197067Y0112021D01*
X0197106Y0111909D01*
X0197142Y0111796D01*
X0197173Y0111681D01*
X0197201Y0111566D01*
X0197225Y0111450D01*
X0197245Y0111332D01*
X0197261Y0111215D01*
X0197273Y0111097D01*
X0197281Y0110978D01*
X0197285Y0110859D01*
X0197285Y0110741D01*
X0197281Y0110622D01*
X0197273Y0110503D01*
X0197261Y0110385D01*
X0197245Y0110268D01*
X0197225Y0110150D01*
X0197201Y0110034D01*
X0197173Y0109919D01*
X0197142Y0109804D01*
X0197106Y0109691D01*
X0197067Y0109579D01*
X0197024Y0109468D01*
X0196978Y0109359D01*
X0196928Y0109251D01*
X0196874Y0109145D01*
X0196816Y0109041D01*
X0196756Y0108939D01*
X0196691Y0108839D01*
X0196624Y0108741D01*
X0196553Y0108646D01*
X0196479Y0108553D01*
X0196402Y0108463D01*
X0196322Y0108375D01*
X0196239Y0108290D01*
X0196153Y0108208D01*
X0196065Y0108128D01*
X0195974Y0108052D01*
X0195880Y0107979D01*
X0195784Y0107909D01*
X0195686Y0107842D01*
X0195586Y0107779D01*
X0195483Y0107719D01*
X0195379Y0107663D01*
X0195272Y0107610D01*
X0195164Y0107560D01*
X0195055Y0107515D01*
X0194944Y0107473D01*
X0194831Y0107434D01*
X0194717Y0107400D01*
X0194603Y0107369D01*
X0194487Y0107343D01*
X0194370Y0107320D01*
X0194253Y0107301D01*
X0194135Y0107286D01*
X0194017Y0107275D01*
X0193898Y0107268D01*
X0193780Y0107265D01*
X0193661Y0107266D01*
X0193542Y0107271D01*
X0193424Y0107280D01*
X0193306Y0107293D01*
X0193188Y0107310D01*
X0193071Y0107331D01*
X0192955Y0107356D01*
X0192840Y0107384D01*
X0192726Y0107417D01*
X0192613Y0107453D01*
X0192501Y0107493D01*
X0192390Y0107537D01*
X0192282Y0107584D01*
X0192174Y0107636D01*
X0192069Y0107690D01*
X0191965Y0107749D01*
X0191864Y0107810D01*
X0191765Y0107875D01*
X0191667Y0107944D01*
X0191573Y0108015D01*
X0191480Y0108090D01*
X0191391Y0108168D01*
X0191303Y0108248D01*
X0191219Y0108332D01*
X0191138Y0108418D01*
X0191059Y0108508D01*
X0190984Y0108599D01*
X0190911Y0108693D01*
X0190842Y0108790D01*
X0190776Y0108889D01*
X0190714Y0108990D01*
X0190655Y0109093D01*
X0190599Y0109198D01*
X0190547Y0109305D01*
X0190498Y0109413D01*
X0190454Y0109523D01*
X0190413Y0109634D01*
X0190375Y0109747D01*
X0190342Y0109861D01*
X0190312Y0109976D01*
X0190287Y0110092D01*
X0190265Y0110209D01*
X0190247Y0110326D01*
X0190233Y0110444D01*
X0190223Y0110563D01*
X0190217Y0110681D01*
X0190215Y0110800D01*
X0228464Y0106333D02*
X0228551Y0107074D01*
X0228623Y0107817D01*
X0228678Y0108562D01*
X0228718Y0109307D01*
X0228742Y0110053D01*
X0228750Y0110800D01*
X0227743Y0102464D02*
X0227557Y0101741D01*
X0227356Y0101022D01*
X0227140Y0100308D01*
X0226909Y0099598D01*
X0226662Y0098893D01*
X0226401Y0098194D01*
X0177559Y0079770D02*
X0176900Y0080123D01*
X0176250Y0080489D01*
X0175607Y0080869D01*
X0174973Y0081263D01*
X0174348Y0081670D01*
X0173731Y0082091D01*
X0209941Y0079770D02*
X0210600Y0080123D01*
X0211250Y0080489D01*
X0211893Y0080869D01*
X0212527Y0081263D01*
X0213152Y0081670D01*
X0213769Y0082091D01*
X0079780Y0126991D02*
X0079427Y0127649D01*
X0079061Y0128300D01*
X0078681Y0128942D01*
X0078287Y0129577D01*
X0077880Y0130202D01*
X0077459Y0130819D01*
X0061356Y0143451D02*
X0060657Y0143713D01*
X0059952Y0143959D01*
X0059242Y0144190D01*
X0058527Y0144407D01*
X0057808Y0144607D01*
X0057085Y0144793D01*
X0083464Y0115267D02*
X0083551Y0114525D01*
X0083623Y0113782D01*
X0083678Y0113038D01*
X0083718Y0112292D01*
X0083742Y0111546D01*
X0083750Y0110800D01*
X0053217Y0145514D02*
X0052475Y0145601D01*
X0051732Y0145673D01*
X0050988Y0145728D01*
X0050242Y0145768D01*
X0049496Y0145792D01*
X0048750Y0145800D01*
X0040415Y0144793D02*
X0039692Y0144607D01*
X0038973Y0144407D01*
X0038258Y0144190D01*
X0037548Y0143959D01*
X0036843Y0143713D01*
X0036144Y0143451D01*
X0044283Y0145514D02*
X0045025Y0145601D01*
X0045768Y0145673D01*
X0046512Y0145728D01*
X0047258Y0145768D01*
X0048004Y0145792D01*
X0048750Y0145800D01*
X0064941Y0141830D02*
X0065599Y0141477D01*
X0066250Y0141111D01*
X0066892Y0140731D01*
X0067527Y0140337D01*
X0068152Y0139930D01*
X0068769Y0139509D01*
X0032559Y0141830D02*
X0031901Y0141477D01*
X0031250Y0141111D01*
X0030608Y0140731D01*
X0029973Y0140337D01*
X0029348Y0139930D01*
X0028731Y0139509D01*
X0014036Y0115267D02*
X0013949Y0114525D01*
X0013877Y0113782D01*
X0013822Y0113038D01*
X0013782Y0112292D01*
X0013758Y0111546D01*
X0013750Y0110800D01*
X0017720Y0126991D02*
X0018073Y0127649D01*
X0018439Y0128300D01*
X0018819Y0128942D01*
X0019213Y0129577D01*
X0019620Y0130202D01*
X0020041Y0130819D01*
X0014757Y0102464D02*
X0014943Y0101741D01*
X0015144Y0101022D01*
X0015360Y0100308D01*
X0015591Y0099598D01*
X0015838Y0098893D01*
X0016099Y0098194D01*
X0048750Y0075800D02*
X0049497Y0075808D01*
X0050243Y0075832D01*
X0050988Y0075872D01*
X0051733Y0075927D01*
X0052476Y0075999D01*
X0053217Y0076086D01*
X0025635Y0084519D02*
X0025079Y0085018D01*
X0024535Y0085529D01*
X0024001Y0086051D01*
X0023479Y0086585D01*
X0022968Y0087129D01*
X0022469Y0087685D01*
X0071865Y0084519D02*
X0072421Y0085018D01*
X0072965Y0085529D01*
X0073499Y0086051D01*
X0074021Y0086585D01*
X0074532Y0087129D01*
X0075031Y0087685D01*
X0048750Y0075800D02*
X0048003Y0075808D01*
X0047257Y0075832D01*
X0046512Y0075872D01*
X0045767Y0075927D01*
X0045024Y0075999D01*
X0044283Y0076086D01*
X0045215Y0110800D02*
X0045217Y0110919D01*
X0045223Y0111037D01*
X0045233Y0111156D01*
X0045247Y0111274D01*
X0045265Y0111391D01*
X0045287Y0111508D01*
X0045312Y0111624D01*
X0045342Y0111739D01*
X0045375Y0111853D01*
X0045413Y0111966D01*
X0045454Y0112077D01*
X0045498Y0112187D01*
X0045547Y0112295D01*
X0045599Y0112402D01*
X0045655Y0112507D01*
X0045714Y0112610D01*
X0045776Y0112711D01*
X0045842Y0112810D01*
X0045911Y0112907D01*
X0045984Y0113001D01*
X0046059Y0113092D01*
X0046138Y0113182D01*
X0046219Y0113268D01*
X0046303Y0113352D01*
X0046391Y0113432D01*
X0046480Y0113510D01*
X0046573Y0113585D01*
X0046667Y0113656D01*
X0046765Y0113725D01*
X0046864Y0113790D01*
X0046965Y0113851D01*
X0047069Y0113910D01*
X0047174Y0113964D01*
X0047282Y0114016D01*
X0047390Y0114063D01*
X0047501Y0114107D01*
X0047613Y0114147D01*
X0047726Y0114183D01*
X0047840Y0114216D01*
X0047955Y0114244D01*
X0048071Y0114269D01*
X0048188Y0114290D01*
X0048306Y0114307D01*
X0048424Y0114320D01*
X0048542Y0114329D01*
X0048661Y0114334D01*
X0048780Y0114335D01*
X0048898Y0114332D01*
X0049017Y0114325D01*
X0049135Y0114314D01*
X0049253Y0114299D01*
X0049370Y0114280D01*
X0049487Y0114257D01*
X0049603Y0114231D01*
X0049717Y0114200D01*
X0049831Y0114166D01*
X0049944Y0114127D01*
X0050055Y0114085D01*
X0050164Y0114040D01*
X0050272Y0113990D01*
X0050379Y0113937D01*
X0050483Y0113881D01*
X0050586Y0113821D01*
X0050686Y0113758D01*
X0050784Y0113691D01*
X0050880Y0113621D01*
X0050974Y0113548D01*
X0051065Y0113472D01*
X0051153Y0113392D01*
X0051239Y0113310D01*
X0051322Y0113225D01*
X0051402Y0113137D01*
X0051479Y0113047D01*
X0051553Y0112954D01*
X0051624Y0112859D01*
X0051691Y0112761D01*
X0051756Y0112661D01*
X0051816Y0112559D01*
X0051874Y0112455D01*
X0051928Y0112349D01*
X0051978Y0112241D01*
X0052024Y0112132D01*
X0052067Y0112021D01*
X0052106Y0111909D01*
X0052142Y0111796D01*
X0052173Y0111681D01*
X0052201Y0111566D01*
X0052225Y0111450D01*
X0052245Y0111332D01*
X0052261Y0111215D01*
X0052273Y0111097D01*
X0052281Y0110978D01*
X0052285Y0110859D01*
X0052285Y0110741D01*
X0052281Y0110622D01*
X0052273Y0110503D01*
X0052261Y0110385D01*
X0052245Y0110268D01*
X0052225Y0110150D01*
X0052201Y0110034D01*
X0052173Y0109919D01*
X0052142Y0109804D01*
X0052106Y0109691D01*
X0052067Y0109579D01*
X0052024Y0109468D01*
X0051978Y0109359D01*
X0051928Y0109251D01*
X0051874Y0109145D01*
X0051816Y0109041D01*
X0051756Y0108939D01*
X0051691Y0108839D01*
X0051624Y0108741D01*
X0051553Y0108646D01*
X0051479Y0108553D01*
X0051402Y0108463D01*
X0051322Y0108375D01*
X0051239Y0108290D01*
X0051153Y0108208D01*
X0051065Y0108128D01*
X0050974Y0108052D01*
X0050880Y0107979D01*
X0050784Y0107909D01*
X0050686Y0107842D01*
X0050586Y0107779D01*
X0050483Y0107719D01*
X0050379Y0107663D01*
X0050272Y0107610D01*
X0050164Y0107560D01*
X0050055Y0107515D01*
X0049944Y0107473D01*
X0049831Y0107434D01*
X0049717Y0107400D01*
X0049603Y0107369D01*
X0049487Y0107343D01*
X0049370Y0107320D01*
X0049253Y0107301D01*
X0049135Y0107286D01*
X0049017Y0107275D01*
X0048898Y0107268D01*
X0048780Y0107265D01*
X0048661Y0107266D01*
X0048542Y0107271D01*
X0048424Y0107280D01*
X0048306Y0107293D01*
X0048188Y0107310D01*
X0048071Y0107331D01*
X0047955Y0107356D01*
X0047840Y0107384D01*
X0047726Y0107417D01*
X0047613Y0107453D01*
X0047501Y0107493D01*
X0047390Y0107537D01*
X0047282Y0107584D01*
X0047174Y0107636D01*
X0047069Y0107690D01*
X0046965Y0107749D01*
X0046864Y0107810D01*
X0046765Y0107875D01*
X0046667Y0107944D01*
X0046573Y0108015D01*
X0046480Y0108090D01*
X0046391Y0108168D01*
X0046303Y0108248D01*
X0046219Y0108332D01*
X0046138Y0108418D01*
X0046059Y0108508D01*
X0045984Y0108599D01*
X0045911Y0108693D01*
X0045842Y0108790D01*
X0045776Y0108889D01*
X0045714Y0108990D01*
X0045655Y0109093D01*
X0045599Y0109198D01*
X0045547Y0109305D01*
X0045498Y0109413D01*
X0045454Y0109523D01*
X0045413Y0109634D01*
X0045375Y0109747D01*
X0045342Y0109861D01*
X0045312Y0109976D01*
X0045287Y0110092D01*
X0045265Y0110209D01*
X0045247Y0110326D01*
X0045233Y0110444D01*
X0045223Y0110563D01*
X0045217Y0110681D01*
X0045215Y0110800D01*
X0083464Y0106333D02*
X0083551Y0107074D01*
X0083623Y0107817D01*
X0083678Y0108562D01*
X0083718Y0109307D01*
X0083742Y0110053D01*
X0083750Y0110800D01*
X0014036Y0106333D02*
X0013949Y0107074D01*
X0013877Y0107817D01*
X0013822Y0108562D01*
X0013782Y0109307D01*
X0013758Y0110053D01*
X0013750Y0110800D01*
X0064941Y0079770D02*
X0065600Y0080123D01*
X0066250Y0080489D01*
X0066893Y0080869D01*
X0067527Y0081263D01*
X0068152Y0081670D01*
X0068769Y0082091D01*
X0032559Y0079770D02*
X0031900Y0080123D01*
X0031250Y0080489D01*
X0030607Y0080869D01*
X0029973Y0081263D01*
X0029348Y0081670D01*
X0028731Y0082091D01*
X0081401Y0098194D02*
X0081662Y0098893D01*
X0081909Y0099598D01*
X0082140Y0100308D01*
X0082356Y0101022D01*
X0082557Y0101741D01*
X0082743Y0102464D01*
D11*
X0062262Y0066004D02*
X0059326Y0066004D01*
X0060794Y0066004D02*
X0060794Y0061600D01*
X0057658Y0061600D02*
X0057658Y0066004D01*
X0055456Y0066004D01*
X0054722Y0065270D01*
X0054722Y0063802D01*
X0055456Y0063068D01*
X0057658Y0063068D01*
X0056190Y0063068D02*
X0054722Y0061600D01*
X0053054Y0061600D02*
X0050118Y0061600D01*
X0048450Y0061600D02*
X0046248Y0061600D01*
X0045514Y0062334D01*
X0045514Y0063068D01*
X0046248Y0063802D01*
X0048450Y0063802D01*
X0048450Y0066004D02*
X0046248Y0066004D01*
X0045514Y0065270D01*
X0045514Y0064536D01*
X0046248Y0063802D01*
X0048450Y0061600D02*
X0048450Y0066004D01*
X0050118Y0066004D02*
X0053054Y0066004D01*
X0053054Y0061600D01*
X0053054Y0063802D02*
X0051586Y0063802D01*
X0043846Y0066004D02*
X0043846Y0061600D01*
X0040910Y0061600D01*
X0039242Y0061600D02*
X0036306Y0061600D01*
X0037774Y0063802D02*
X0039242Y0063802D01*
X0039242Y0066004D02*
X0036306Y0066004D01*
X0039242Y0066004D02*
X0039242Y0061600D01*
X0041678Y0181600D02*
X0041678Y0186004D01*
X0044613Y0186004D02*
X0041678Y0181600D01*
X0044613Y0181600D02*
X0044613Y0186004D01*
X0046215Y0186004D02*
X0047683Y0186004D01*
X0046949Y0186004D02*
X0046949Y0181600D01*
X0047683Y0181600D02*
X0046215Y0181600D01*
X0049351Y0181600D02*
X0049351Y0184536D01*
X0050819Y0186004D01*
X0052287Y0184536D01*
X0052287Y0181600D01*
X0053955Y0182334D02*
X0053955Y0183802D01*
X0055423Y0183802D01*
X0056891Y0185270D02*
X0056891Y0182334D01*
X0056157Y0181600D01*
X0054689Y0181600D01*
X0053955Y0182334D01*
X0052287Y0183802D02*
X0049351Y0183802D01*
X0053955Y0185270D02*
X0054689Y0186004D01*
X0056157Y0186004D01*
X0056891Y0185270D01*
X0185910Y0065270D02*
X0186644Y0066004D01*
X0188112Y0066004D01*
X0188846Y0065270D01*
X0188846Y0064536D01*
X0188112Y0063802D01*
X0186644Y0063802D01*
X0185910Y0063068D01*
X0185910Y0062334D01*
X0186644Y0061600D01*
X0188112Y0061600D01*
X0188846Y0062334D01*
X0190514Y0062334D02*
X0191248Y0061600D01*
X0192716Y0061600D01*
X0193450Y0062334D01*
X0192716Y0063802D02*
X0191248Y0063802D01*
X0190514Y0063068D01*
X0190514Y0062334D01*
X0192716Y0063802D02*
X0193450Y0064536D01*
X0193450Y0065270D01*
X0192716Y0066004D01*
X0191248Y0066004D01*
X0190514Y0065270D01*
X0195118Y0064536D02*
X0195118Y0061600D01*
X0195118Y0063802D02*
X0198054Y0063802D01*
X0198054Y0064536D02*
X0196586Y0066004D01*
X0195118Y0064536D01*
X0198054Y0064536D02*
X0198054Y0061600D01*
X0199722Y0062334D02*
X0200456Y0061600D01*
X0202658Y0061600D01*
X0202658Y0066004D01*
X0200456Y0066004D01*
X0199722Y0065270D01*
X0199722Y0064536D01*
X0200456Y0063802D01*
X0202658Y0063802D01*
X0200456Y0063802D02*
X0199722Y0063068D01*
X0199722Y0062334D01*
X0198888Y0181600D02*
X0197420Y0183068D01*
X0197420Y0186004D01*
X0195752Y0185270D02*
X0195752Y0182334D01*
X0195018Y0181600D01*
X0193550Y0181600D01*
X0192816Y0182334D01*
X0192816Y0185270D01*
X0193550Y0186004D01*
X0195018Y0186004D01*
X0195752Y0185270D01*
X0198888Y0181600D02*
X0200356Y0183068D01*
X0200356Y0186004D01*
X0191148Y0186004D02*
X0191148Y0181600D01*
X0188212Y0181600D01*
D12*
X0138842Y0233438D02*
X0138842Y0236194D01*
X0138825Y0236175D02*
X0138825Y0255550D01*
X0138842Y0254698D02*
X0138842Y0275564D01*
X0103408Y0275564D01*
X0103408Y0233438D01*
X0111676Y0233438D01*
X0130574Y0233438D02*
X0138842Y0233438D01*
D13*
X0237283Y0006800D02*
X0005000Y0006800D01*
X0005000Y0259831D01*
X0026654Y0259831D01*
X0026654Y0287391D01*
X0215630Y0287391D01*
X0215630Y0259831D01*
X0237283Y0259831D01*
X0237283Y0006800D01*
M02*
