%
M48
M72
T01C0.01575
T02C0.01969
T03C0.02362
T04C0.02756
T05C0.03200
T06C0.03543
T07C0.04331
T08C0.05512
T09C0.09843
%
T01
X28750Y79100
X28750Y109100
X33750Y124100
X43750Y124100
X58750Y109100
X63750Y124100
X73750Y124100
X83750Y104100
X83750Y94100
X83750Y84100
X83750Y74100
X83750Y54100
X58750Y79100
X113750Y74100
X113750Y84100
X113750Y94100
X113750Y104100
X123810Y104100
X131690Y104100
X148750Y89100
X168750Y89100
X188750Y89100
X208750Y89100
X208750Y59100
X188750Y59100
X168750Y59100
X148750Y59100
X113750Y54100
X148750Y129100
X148750Y139100
X131690Y148100
X123810Y148100
X123750Y159100
X113750Y159100
X113750Y169100
X123750Y189100
X83750Y169100
X83750Y159100
X73750Y154100
X63750Y154100
X43750Y154100
X33750Y154100
X21250Y152040
X21250Y144160
X178750Y139100
X178750Y129100
X188750Y129100
X198810Y134100
X206690Y134100
X188750Y159100
T02
X9500Y10850
X9500Y41600
X22000Y61600
X18250Y81600
X9500Y81600
X38250Y116600
X18250Y121600
X9500Y121600
X38250Y139100
X55750Y154100
X58250Y164850
X58250Y174100
X58250Y184100
X48000Y201600
X18250Y161600
X9500Y161600
X9500Y201600
X9500Y241600
X48000Y241600
X48000Y279850
X90500Y279850
X90500Y241600
X90500Y201600
X125500Y201600
X153000Y201600
X149500Y164100
X153750Y154100
X147000Y151600
X138750Y164100
X136250Y151600
X111250Y154100
X101250Y154100
X91250Y121600
X73750Y104100
X73750Y94100
X73750Y84100
X51250Y93350
X68250Y116600
X68250Y131600
X68250Y144100
X118750Y121600
X136250Y114100
X150000Y114100
X153750Y109100
X153750Y119100
X161250Y136600
X163750Y154100
X173750Y154100
X198000Y156600
X218000Y156600
X233000Y161600
X233000Y201600
X233000Y241600
X190500Y241600
X190500Y279850
X153000Y279850
X125500Y279850
X125500Y244100
X153000Y241600
X190500Y201600
X224500Y121600
X218750Y119100
X218750Y109100
X218750Y99100
X218750Y89100
X224500Y81600
X233000Y81600
X218750Y69100
X198750Y69100
X198750Y89100
X198750Y99100
X198750Y109100
X198750Y119100
X178750Y91600
X153750Y99100
X147000Y81600
X136250Y81600
X123750Y58350
X133750Y50850
X161250Y24100
X161250Y10850
X196250Y24100
X201250Y10850
X215500Y41350
X233000Y41600
X233000Y10850
X196250Y46600
X233000Y121600
X121250Y10850
X96750Y24850
X96750Y40850
X78750Y40850
X81250Y10850
X43750Y38350
X41250Y10850
T03
X73750Y54100
X88750Y64100
X73750Y74100
X108750Y64100
X123750Y116600
X123750Y136600
X168750Y119100
X181250Y119100
X181250Y99100
X168750Y99100
X158750Y79100
X158750Y59100
X178750Y59100
X178750Y79100
X53750Y124100
X53750Y144100
T04
X43750Y104100
X43750Y84100
X133750Y169100
X133750Y189100
T05
X113750Y146600
X113750Y136600
X113750Y126600
X113750Y116600
X83750Y116600
X83750Y126600
X83750Y136600
X83750Y146600
T06
X106250Y29100
X106250Y19100
X116250Y19100
X116250Y29100
X126250Y29100
X126250Y19100
X136250Y19100
X136250Y29100
T07
X173750Y169163
X193750Y169163
X213750Y169163
X68750Y169163
X48750Y169163
X28750Y169163
T08
X34801Y214350
X34801Y239350
X34801Y264350
X98699Y264350
X98699Y239350
X98699Y214350
X143801Y214350
X143801Y239350
X143801Y264350
X207699Y264350
X207699Y239350
X207699Y214350
T09
X121250Y232188
X121250Y255810
M30
