G75*
%MOIN*%
%OFA0B0*%
%FSLAX25Y25*%
%IPPOS*%
%LPD*%
%AMOC8*
5,1,8,0,0,1.08239X$1,22.5*
%
%ADD10R,0.07087X0.07087*%
%ADD11C,0.07087*%
%ADD12C,0.08268*%
%ADD13C,0.13843*%
%ADD14C,0.06299*%
%ADD15C,0.00000*%
%ADD16C,0.05512*%
%ADD17R,0.05512X0.05512*%
%ADD18R,0.04331X0.04331*%
%ADD19C,0.04331*%
%ADD20C,0.05118*%
%ADD21C,0.04724*%
%ADD22C,0.05000*%
%ADD23R,0.04724X0.04724*%
D10*
X0068750Y0169163D03*
X0213750Y0169163D03*
D11*
X0193750Y0169163D03*
X0173750Y0169163D03*
X0048750Y0169163D03*
X0028750Y0169163D03*
D12*
X0034801Y0214350D03*
X0034801Y0239350D03*
X0034801Y0264350D03*
X0098699Y0264350D03*
X0098699Y0239350D03*
X0098699Y0214350D03*
X0143801Y0214350D03*
X0143801Y0239350D03*
X0143801Y0264350D03*
X0207699Y0264350D03*
X0207699Y0239350D03*
X0207699Y0214350D03*
D13*
X0121250Y0232188D03*
X0121250Y0255810D03*
D14*
X0116250Y0029100D03*
X0116250Y0019100D03*
X0106250Y0019100D03*
X0106250Y0029100D03*
X0126250Y0029100D03*
X0126250Y0019100D03*
X0136250Y0019100D03*
X0136250Y0029100D03*
D15*
X0237283Y0005600D02*
X0005000Y0005600D01*
X0005000Y0258631D01*
X0026654Y0258631D01*
X0026654Y0286191D01*
X0215630Y0286191D01*
X0215630Y0258631D01*
X0237283Y0258631D01*
X0237283Y0005600D01*
D16*
X0133750Y0169100D03*
X0043750Y0104100D03*
X0043750Y0084100D03*
D17*
X0133750Y0189100D03*
D18*
X0123810Y0148100D03*
X0123810Y0104100D03*
X0198810Y0134100D03*
X0021250Y0144160D03*
D19*
X0021250Y0152040D03*
X0033750Y0154100D03*
X0043750Y0154100D03*
X0063750Y0154100D03*
X0073750Y0154100D03*
X0083750Y0159100D03*
X0083750Y0169100D03*
X0113750Y0169100D03*
X0113750Y0159100D03*
X0123750Y0159100D03*
X0131690Y0148100D03*
X0148750Y0139100D03*
X0148750Y0129100D03*
X0131690Y0104100D03*
X0113750Y0104100D03*
X0113750Y0094100D03*
X0113750Y0084100D03*
X0113750Y0074100D03*
X0113750Y0054100D03*
X0083750Y0054100D03*
X0083750Y0074100D03*
X0083750Y0084100D03*
X0083750Y0094100D03*
X0083750Y0104100D03*
X0073750Y0124100D03*
X0063750Y0124100D03*
X0058750Y0109100D03*
X0043750Y0124100D03*
X0033750Y0124100D03*
X0028750Y0109100D03*
X0028750Y0079100D03*
X0058750Y0079100D03*
X0148750Y0089100D03*
X0168750Y0089100D03*
X0188750Y0089100D03*
X0208750Y0089100D03*
X0208750Y0059100D03*
X0188750Y0059100D03*
X0168750Y0059100D03*
X0148750Y0059100D03*
X0178750Y0129100D03*
X0178750Y0139100D03*
X0188750Y0129100D03*
X0206690Y0134100D03*
X0188750Y0159100D03*
X0123750Y0189100D03*
D20*
X0123750Y0136600D03*
X0123750Y0116600D03*
X0158750Y0079100D03*
X0158750Y0059100D03*
X0178750Y0059100D03*
X0178750Y0079100D03*
X0181250Y0099100D03*
X0168750Y0099100D03*
X0168750Y0119100D03*
X0181250Y0119100D03*
X0108750Y0064100D03*
X0088750Y0064100D03*
X0073750Y0054100D03*
X0073750Y0074100D03*
X0053750Y0124100D03*
X0053750Y0144100D03*
D21*
X0073750Y0104100D03*
X0073750Y0094100D03*
X0073750Y0084100D03*
X0153750Y0099100D03*
X0153750Y0109100D03*
X0153750Y0119100D03*
X0153750Y0154100D03*
X0163750Y0154100D03*
X0173750Y0154100D03*
X0198750Y0119100D03*
X0198750Y0109100D03*
X0198750Y0099100D03*
X0218750Y0099100D03*
X0218750Y0109100D03*
X0218750Y0119100D03*
X0218750Y0069100D03*
X0198750Y0069100D03*
D22*
X0113750Y0116600D03*
X0113750Y0126600D03*
X0113750Y0136600D03*
X0113750Y0146600D03*
X0083750Y0146600D03*
X0083750Y0136600D03*
X0083750Y0126600D03*
X0083750Y0116600D03*
D23*
X0198750Y0089100D03*
X0218750Y0089100D03*
M02*
