G75*
%MOIN*%
%OFA0B0*%
%FSLAX25Y25*%
%IPPOS*%
%LPD*%
%AMOC8*
5,1,8,0,0,1.08239X$1,22.5*
%
%ADD10R,0.07087X0.07087*%
%ADD11C,0.07087*%
%ADD12C,0.08268*%
%ADD13C,0.05512*%
%ADD14R,0.05512X0.05512*%
%ADD15R,0.04331X0.04331*%
%ADD16C,0.04331*%
%ADD17C,0.13843*%
%ADD18C,0.06299*%
%ADD19C,0.05118*%
%ADD20C,0.04700*%
%ADD21C,0.05000*%
%ADD22R,0.05000X0.05000*%
%ADD23C,0.05200*%
%ADD24C,0.00000*%
D10*
X0141250Y0151063D03*
X0213750Y0231063D03*
X0068750Y0231063D03*
D11*
X0048750Y0231063D03*
X0028750Y0231063D03*
X0101250Y0151063D03*
X0121250Y0151063D03*
X0173750Y0231063D03*
X0193750Y0231063D03*
D12*
X0207699Y0279250D03*
X0207699Y0304250D03*
X0207699Y0329250D03*
X0143801Y0329250D03*
X0143801Y0304250D03*
X0143801Y0279250D03*
X0098449Y0279250D03*
X0098449Y0304250D03*
X0098449Y0329250D03*
X0034551Y0329250D03*
X0034551Y0304250D03*
X0034551Y0279250D03*
D13*
X0132750Y0255000D03*
D14*
X0111000Y0255000D03*
D15*
X0076060Y0185000D03*
X0097430Y0137245D03*
X0102505Y0084930D03*
X0150000Y0124560D03*
X0172505Y0152430D03*
X0172570Y0193505D03*
X0204995Y0167570D03*
X0175000Y0096440D03*
X0047500Y0136060D03*
D16*
X0047500Y0143940D03*
X0040000Y0162500D03*
X0028750Y0162500D03*
X0028750Y0192500D03*
X0040000Y0197500D03*
X0040000Y0207500D03*
X0070000Y0207500D03*
X0070000Y0197500D03*
X0080000Y0197500D03*
X0083940Y0185000D03*
X0090000Y0172500D03*
X0090000Y0162500D03*
X0089570Y0137248D03*
X0087500Y0125000D03*
X0097500Y0125000D03*
X0115000Y0115000D03*
X0125000Y0115000D03*
X0127500Y0125000D03*
X0140000Y0115000D03*
X0150000Y0115000D03*
X0150000Y0132440D03*
X0172502Y0144570D03*
X0204998Y0175430D03*
X0180430Y0193502D03*
X0172500Y0210000D03*
X0202500Y0210000D03*
X0120000Y0207500D03*
X0120000Y0217500D03*
X0120000Y0172500D03*
X0120000Y0162500D03*
X0090000Y0207500D03*
X0090000Y0217500D03*
X0080000Y0227500D03*
X0070000Y0162500D03*
X0057500Y0125000D03*
X0047500Y0115000D03*
X0037500Y0115000D03*
X0027500Y0115000D03*
X0027500Y0085000D03*
X0037500Y0085000D03*
X0047500Y0085000D03*
X0102502Y0077070D03*
X0115000Y0085000D03*
X0125000Y0085000D03*
X0140000Y0085000D03*
X0145000Y0075000D03*
X0150000Y0085000D03*
X0175000Y0088560D03*
X0175000Y0075000D03*
D17*
X0121250Y0296563D03*
X0121250Y0320185D03*
D18*
X0117500Y0057500D03*
X0117500Y0047500D03*
X0127500Y0047500D03*
X0127500Y0057500D03*
X0137500Y0057500D03*
X0137500Y0047500D03*
X0107500Y0047500D03*
X0107500Y0057500D03*
D19*
X0097500Y0095000D03*
X0097500Y0115000D03*
X0065000Y0172500D03*
X0065000Y0185000D03*
X0045000Y0185000D03*
X0045000Y0172500D03*
X0028750Y0201250D03*
X0028750Y0221250D03*
X0045000Y0217500D03*
X0065000Y0217500D03*
X0090000Y0227500D03*
X0100000Y0227500D03*
X0100000Y0237500D03*
X0090000Y0247500D03*
X0120000Y0237500D03*
X0120000Y0227500D03*
X0120000Y0197500D03*
X0120000Y0182500D03*
X0100000Y0182500D03*
X0100000Y0197500D03*
X0047500Y0125000D03*
X0027500Y0125000D03*
X0027500Y0075000D03*
X0047500Y0075000D03*
X0160000Y0085000D03*
X0160000Y0105000D03*
X0188750Y0167500D03*
X0188750Y0187500D03*
X0192500Y0220000D03*
X0192500Y0242500D03*
X0172500Y0242500D03*
X0172500Y0220000D03*
D20*
X0185000Y0152500D03*
X0195000Y0152500D03*
X0205000Y0152500D03*
D21*
X0160000Y0177500D03*
X0160000Y0187500D03*
X0160000Y0197500D03*
X0160000Y0207500D03*
X0160000Y0217500D03*
X0160000Y0227500D03*
X0160000Y0237500D03*
X0130000Y0237500D03*
X0130000Y0227500D03*
X0130000Y0217500D03*
X0130000Y0207500D03*
X0130000Y0197500D03*
X0130000Y0187500D03*
X0130000Y0177500D03*
X0130000Y0167500D03*
X0087500Y0115000D03*
X0087500Y0105000D03*
X0087500Y0095000D03*
X0087500Y0085000D03*
X0057500Y0085000D03*
X0057500Y0095000D03*
X0057500Y0105000D03*
X0057500Y0115000D03*
D22*
X0160000Y0167500D03*
D23*
X0173500Y0167500D03*
X0173500Y0177500D03*
D24*
X0237283Y0035000D02*
X0005000Y0035000D01*
X0005000Y0323031D01*
X0026654Y0323031D01*
X0026654Y0350591D01*
X0215630Y0350591D01*
X0215630Y0323031D01*
X0237283Y0323031D01*
X0237283Y0035000D01*
M02*
