%
M48
M72
T01C0.01575
T02C0.01969
T03C0.02362
T04C0.02756
T05C0.03150
T06C0.03200
T07C0.03543
T08C0.04331
T09C0.05512
T10C0.09843
%
T01
X27500Y85000
X37500Y85000
X47500Y85000
X47500Y115000
X37500Y115000
X27500Y115000
X47500Y136060
X47500Y143940
X40000Y162500
X28750Y162500
X28750Y192500
X40000Y197500
X40000Y207500
X70000Y207500
X70000Y197500
X80000Y197500
X76060Y185000
X83940Y185000
X90000Y172500
X90000Y162500
X70000Y162500
X57500Y125000
X87500Y125000
X97500Y125000
X115000Y115000
X125000Y115000
X127500Y125000
X140000Y115000
X150000Y115000
X150000Y124560
X150000Y132440
X175000Y96440
X175000Y88560
X175000Y75000
X150000Y85000
X145000Y75000
X140000Y85000
X125000Y85000
X115000Y85000
X120000Y162500
X120000Y172500
X120000Y207500
X120000Y217500
X90000Y217500
X90000Y207500
X80000Y227500
X172500Y210000
X202500Y210000
T02
X9250Y39750
X9250Y86750
X18000Y86750
X41000Y62250
X41000Y39750
X81000Y39750
X81000Y62250
X102502Y77070
X102505Y84930
X127000Y99750
X138500Y99750
X125250Y134250
X107750Y134250
X97430Y137245
X89570Y137248
X70250Y134250
X73500Y99750
X121000Y39750
X161000Y39750
X161000Y62250
X201000Y62250
X201000Y39750
X232750Y39750
X232750Y86750
X222750Y86750
X222750Y131750
X232750Y131750
X205000Y152500
X195000Y152500
X185000Y152500
X180250Y159250
X172505Y152430
X172502Y144570
X150250Y174250
X139250Y174250
X116250Y177500
X105000Y175000
X92500Y190000
X105750Y220000
X116000Y222500
X139250Y221750
X150250Y221750
X172570Y193505
X180430Y193502
X182750Y221750
X190250Y266750
X190250Y306750
X190250Y345000
X152750Y345000
X125250Y345000
X125250Y309250
X152750Y306750
X152750Y266750
X125250Y266750
X90250Y266750
X90250Y306750
X90250Y345000
X47750Y345000
X47750Y306750
X47750Y266750
X57500Y222500
X60000Y202500
X71250Y177500
X18000Y176750
X9250Y176750
X9250Y221750
X18000Y221750
X9250Y266750
X9250Y306750
X9250Y131750
X18000Y131750
X204995Y167570
X204998Y175430
X222750Y176750
X232750Y176750
X232750Y221750
X222750Y221750
X232750Y266750
X232750Y306750
T03
X192500Y242500
X192500Y220000
X172500Y220000
X172500Y242500
X188750Y187500
X188750Y167500
X160000Y105000
X160000Y85000
X97500Y95000
X97500Y115000
X65000Y172500
X65000Y185000
X45000Y185000
X45000Y172500
X28750Y201250
X28750Y221250
X45000Y217500
X65000Y217500
X90000Y227500
X100000Y227500
X100000Y237500
X90000Y247500
X120000Y237500
X120000Y227500
X120000Y197500
X120000Y182500
X100000Y182500
X100000Y197500
X47500Y125000
X27500Y125000
X27500Y75000
X47500Y75000
T04
X111000Y255000
X132750Y255000
T05
X173500Y177500
X173500Y167500
T06
X160000Y167500
X160000Y177500
X160000Y187500
X160000Y197500
X160000Y207500
X160000Y217500
X160000Y227500
X160000Y237500
X130000Y237500
X130000Y227500
X130000Y217500
X130000Y207500
X130000Y197500
X130000Y187500
X130000Y177500
X130000Y167500
X87500Y115000
X87500Y105000
X87500Y95000
X87500Y85000
X57500Y85000
X57500Y95000
X57500Y105000
X57500Y115000
T07
X107500Y57500
X107500Y47500
X117500Y47500
X117500Y57500
X127500Y57500
X127500Y47500
X137500Y47500
X137500Y57500
T08
X141250Y151063
X121250Y151063
X101250Y151063
X68750Y231063
X48750Y231063
X28750Y231063
X173750Y231063
X193750Y231063
X213750Y231063
T09
X207699Y279250
X207699Y304250
X207699Y329250
X143801Y329250
X143801Y304250
X143801Y279250
X98449Y279250
X98449Y304250
X98449Y329250
X34551Y329250
X34551Y304250
X34551Y279250
T10
X121250Y296563
X121250Y320185
M30
