G75*
%MOIN*%
%OFA0B0*%
%FSLAX25Y25*%
%IPPOS*%
%LPD*%
%AMOC8*
5,1,8,0,0,1.08239X$1,22.5*
%
%ADD10R,0.07087X0.07087*%
%ADD11C,0.07087*%
%ADD12C,0.08268*%
%ADD13C,0.05512*%
%ADD14R,0.05512X0.05512*%
%ADD15R,0.04331X0.04331*%
%ADD16C,0.04331*%
%ADD17C,0.13843*%
%ADD18C,0.06299*%
%ADD19C,0.05118*%
%ADD20C,0.04700*%
%ADD21C,0.05000*%
%ADD22R,0.05000X0.05000*%
%ADD23C,0.05200*%
%ADD24C,0.00000*%
%ADD25C,0.01200*%
%ADD26C,0.03346*%
%ADD27C,0.01000*%
%ADD28C,0.03200*%
D10*
X0141250Y0151063D03*
X0213750Y0231063D03*
X0068750Y0231063D03*
D11*
X0048750Y0231063D03*
X0028750Y0231063D03*
X0101250Y0151063D03*
X0121250Y0151063D03*
X0173750Y0231063D03*
X0193750Y0231063D03*
D12*
X0207699Y0279250D03*
X0207699Y0304250D03*
X0207699Y0329250D03*
X0143801Y0329250D03*
X0143801Y0304250D03*
X0143801Y0279250D03*
X0098449Y0279250D03*
X0098449Y0304250D03*
X0098449Y0329250D03*
X0034551Y0329250D03*
X0034551Y0304250D03*
X0034551Y0279250D03*
D13*
X0132750Y0255000D03*
D14*
X0111000Y0255000D03*
D15*
X0076060Y0185000D03*
X0097430Y0137245D03*
X0102505Y0084930D03*
X0150000Y0124560D03*
X0172505Y0152430D03*
X0172570Y0193505D03*
X0204995Y0167570D03*
X0175000Y0096440D03*
X0047500Y0136060D03*
D16*
X0047500Y0143940D03*
X0040000Y0162500D03*
X0028750Y0162500D03*
X0028750Y0192500D03*
X0040000Y0197500D03*
X0040000Y0207500D03*
X0070000Y0207500D03*
X0070000Y0197500D03*
X0080000Y0197500D03*
X0083940Y0185000D03*
X0090000Y0172500D03*
X0090000Y0162500D03*
X0089570Y0137248D03*
X0087500Y0125000D03*
X0097500Y0125000D03*
X0115000Y0115000D03*
X0125000Y0115000D03*
X0127500Y0125000D03*
X0140000Y0115000D03*
X0150000Y0115000D03*
X0150000Y0132440D03*
X0172502Y0144570D03*
X0204998Y0175430D03*
X0180430Y0193502D03*
X0172500Y0210000D03*
X0202500Y0210000D03*
X0120000Y0207500D03*
X0120000Y0217500D03*
X0120000Y0172500D03*
X0120000Y0162500D03*
X0090000Y0207500D03*
X0090000Y0217500D03*
X0080000Y0227500D03*
X0070000Y0162500D03*
X0057500Y0125000D03*
X0047500Y0115000D03*
X0037500Y0115000D03*
X0027500Y0115000D03*
X0027500Y0085000D03*
X0037500Y0085000D03*
X0047500Y0085000D03*
X0102502Y0077070D03*
X0115000Y0085000D03*
X0125000Y0085000D03*
X0140000Y0085000D03*
X0145000Y0075000D03*
X0150000Y0085000D03*
X0175000Y0088560D03*
X0175000Y0075000D03*
D17*
X0121250Y0296563D03*
X0121250Y0320185D03*
D18*
X0117500Y0057500D03*
X0117500Y0047500D03*
X0127500Y0047500D03*
X0127500Y0057500D03*
X0137500Y0057500D03*
X0137500Y0047500D03*
X0107500Y0047500D03*
X0107500Y0057500D03*
D19*
X0097500Y0095000D03*
X0097500Y0115000D03*
X0065000Y0172500D03*
X0065000Y0185000D03*
X0045000Y0185000D03*
X0045000Y0172500D03*
X0028750Y0201250D03*
X0028750Y0221250D03*
X0045000Y0217500D03*
X0065000Y0217500D03*
X0090000Y0227500D03*
X0100000Y0227500D03*
X0100000Y0237500D03*
X0090000Y0247500D03*
X0120000Y0237500D03*
X0120000Y0227500D03*
X0120000Y0197500D03*
X0120000Y0182500D03*
X0100000Y0182500D03*
X0100000Y0197500D03*
X0047500Y0125000D03*
X0027500Y0125000D03*
X0027500Y0075000D03*
X0047500Y0075000D03*
X0160000Y0085000D03*
X0160000Y0105000D03*
X0188750Y0167500D03*
X0188750Y0187500D03*
X0192500Y0220000D03*
X0192500Y0242500D03*
X0172500Y0242500D03*
X0172500Y0220000D03*
D20*
X0185000Y0152500D03*
X0195000Y0152500D03*
X0205000Y0152500D03*
D21*
X0160000Y0177500D03*
X0160000Y0187500D03*
X0160000Y0197500D03*
X0160000Y0207500D03*
X0160000Y0217500D03*
X0160000Y0227500D03*
X0160000Y0237500D03*
X0130000Y0237500D03*
X0130000Y0227500D03*
X0130000Y0217500D03*
X0130000Y0207500D03*
X0130000Y0197500D03*
X0130000Y0187500D03*
X0130000Y0177500D03*
X0130000Y0167500D03*
X0087500Y0115000D03*
X0087500Y0105000D03*
X0087500Y0095000D03*
X0087500Y0085000D03*
X0057500Y0085000D03*
X0057500Y0095000D03*
X0057500Y0105000D03*
X0057500Y0115000D03*
D22*
X0160000Y0167500D03*
D23*
X0173500Y0167500D03*
X0173500Y0177500D03*
D24*
X0237283Y0035000D02*
X0005000Y0035000D01*
X0005000Y0323031D01*
X0026654Y0323031D01*
X0026654Y0350591D01*
X0215630Y0350591D01*
X0215630Y0323031D01*
X0237283Y0323031D01*
X0237283Y0035000D01*
D25*
X0234683Y0037600D02*
X0007600Y0037600D01*
X0007600Y0320431D01*
X0027171Y0320431D01*
X0028126Y0320827D01*
X0028858Y0321559D01*
X0029254Y0322514D01*
X0029254Y0327017D01*
X0029647Y0326245D01*
X0030178Y0325515D01*
X0030816Y0324876D01*
X0031546Y0324346D01*
X0032350Y0323936D01*
X0033208Y0323657D01*
X0033951Y0323540D01*
X0033951Y0328650D01*
X0035151Y0328650D01*
X0035151Y0323540D01*
X0035894Y0323657D01*
X0036752Y0323936D01*
X0037556Y0324346D01*
X0038287Y0324876D01*
X0038925Y0325515D01*
X0039455Y0326245D01*
X0039865Y0327049D01*
X0040144Y0327907D01*
X0040261Y0328650D01*
X0035151Y0328650D01*
X0035151Y0329850D01*
X0033951Y0329850D01*
X0033951Y0334960D01*
X0033208Y0334843D01*
X0032350Y0334564D01*
X0031546Y0334154D01*
X0030816Y0333624D01*
X0030178Y0332985D01*
X0029647Y0332255D01*
X0029254Y0331483D01*
X0029254Y0347991D01*
X0213030Y0347991D01*
X0213030Y0331363D01*
X0212560Y0332498D01*
X0210947Y0334111D01*
X0208839Y0334984D01*
X0206558Y0334984D01*
X0204451Y0334111D01*
X0202838Y0332498D01*
X0201965Y0330391D01*
X0201965Y0328109D01*
X0202838Y0326002D01*
X0204451Y0324389D01*
X0206558Y0323516D01*
X0208839Y0323516D01*
X0210947Y0324389D01*
X0212560Y0326002D01*
X0213030Y0327137D01*
X0213030Y0322514D01*
X0213426Y0321559D01*
X0214157Y0320827D01*
X0215113Y0320431D01*
X0234683Y0320431D01*
X0234683Y0037600D01*
X0234683Y0037640D02*
X0007600Y0037640D01*
X0007600Y0038839D02*
X0234683Y0038839D01*
X0234683Y0040037D02*
X0007600Y0040037D01*
X0007600Y0041236D02*
X0234683Y0041236D01*
X0234683Y0042434D02*
X0007600Y0042434D01*
X0007600Y0043633D02*
X0104650Y0043633D01*
X0104810Y0043473D02*
X0106555Y0042750D01*
X0108445Y0042750D01*
X0110190Y0043473D01*
X0111527Y0044810D01*
X0112250Y0046555D01*
X0112250Y0048445D01*
X0111527Y0050190D01*
X0110190Y0051527D01*
X0108445Y0052250D01*
X0106555Y0052250D01*
X0104810Y0051527D01*
X0103473Y0050190D01*
X0103229Y0049600D01*
X0048370Y0049600D01*
X0029600Y0068370D01*
X0029600Y0071368D01*
X0029856Y0071474D01*
X0031026Y0072644D01*
X0031659Y0074173D01*
X0031659Y0075827D01*
X0031026Y0077356D01*
X0029856Y0078526D01*
X0028327Y0079159D01*
X0026673Y0079159D01*
X0025144Y0078526D01*
X0023974Y0077356D01*
X0023341Y0075827D01*
X0023341Y0074173D01*
X0023974Y0072644D01*
X0025144Y0071474D01*
X0025400Y0071368D01*
X0025400Y0066630D01*
X0026630Y0065400D01*
X0046630Y0045400D01*
X0103229Y0045400D01*
X0103473Y0044810D01*
X0104810Y0043473D01*
X0103464Y0044831D02*
X0007600Y0044831D01*
X0007600Y0046030D02*
X0046000Y0046030D01*
X0044802Y0047228D02*
X0007600Y0047228D01*
X0007600Y0048427D02*
X0043603Y0048427D01*
X0042405Y0049625D02*
X0007600Y0049625D01*
X0007600Y0050824D02*
X0041206Y0050824D01*
X0040008Y0052022D02*
X0007600Y0052022D01*
X0007600Y0053221D02*
X0038809Y0053221D01*
X0037611Y0054419D02*
X0007600Y0054419D01*
X0007600Y0055618D02*
X0036412Y0055618D01*
X0035214Y0056816D02*
X0007600Y0056816D01*
X0007600Y0058015D02*
X0034015Y0058015D01*
X0032817Y0059213D02*
X0007600Y0059213D01*
X0007600Y0060412D02*
X0031618Y0060412D01*
X0030420Y0061610D02*
X0007600Y0061610D01*
X0007600Y0062809D02*
X0029221Y0062809D01*
X0028023Y0064007D02*
X0007600Y0064007D01*
X0007600Y0065206D02*
X0026824Y0065206D01*
X0025626Y0066404D02*
X0007600Y0066404D01*
X0007600Y0067603D02*
X0025400Y0067603D01*
X0025400Y0068801D02*
X0007600Y0068801D01*
X0007600Y0070000D02*
X0025400Y0070000D01*
X0025400Y0071199D02*
X0007600Y0071199D01*
X0007600Y0072397D02*
X0024221Y0072397D01*
X0023580Y0073596D02*
X0007600Y0073596D01*
X0007600Y0074794D02*
X0023341Y0074794D01*
X0023409Y0075993D02*
X0007600Y0075993D01*
X0007600Y0077191D02*
X0023906Y0077191D01*
X0025008Y0078390D02*
X0007600Y0078390D01*
X0007600Y0079588D02*
X0099696Y0079588D01*
X0099578Y0079470D02*
X0099166Y0078854D01*
X0098882Y0078168D01*
X0098737Y0077441D01*
X0098737Y0077070D01*
X0102502Y0077070D01*
X0098737Y0077070D01*
X0098737Y0076699D01*
X0098882Y0075972D01*
X0099166Y0075286D01*
X0099578Y0074670D01*
X0100102Y0074145D01*
X0100719Y0073733D01*
X0101404Y0073449D01*
X0102132Y0073305D01*
X0102502Y0073305D01*
X0102502Y0077070D01*
X0102502Y0077070D01*
X0102502Y0080835D01*
X0102132Y0080835D01*
X0101404Y0080691D01*
X0100719Y0080407D01*
X0100102Y0079995D01*
X0099578Y0079470D01*
X0098973Y0078390D02*
X0049992Y0078390D01*
X0049856Y0078526D02*
X0048327Y0079159D01*
X0046673Y0079159D01*
X0045144Y0078526D01*
X0043974Y0077356D01*
X0043341Y0075827D01*
X0043341Y0074173D01*
X0043974Y0072644D01*
X0045144Y0071474D01*
X0046673Y0070841D01*
X0048327Y0070841D01*
X0049856Y0071474D01*
X0051026Y0072644D01*
X0051659Y0074173D01*
X0051659Y0075827D01*
X0051026Y0077356D01*
X0049856Y0078526D01*
X0051094Y0077191D02*
X0098737Y0077191D01*
X0098878Y0075993D02*
X0051591Y0075993D01*
X0051659Y0074794D02*
X0099495Y0074794D01*
X0101051Y0073596D02*
X0051420Y0073596D01*
X0050779Y0072397D02*
X0120372Y0072397D01*
X0121570Y0073596D02*
X0103954Y0073596D01*
X0104286Y0073733D02*
X0104903Y0074145D01*
X0105427Y0074670D01*
X0105839Y0075286D01*
X0106123Y0075972D01*
X0106268Y0076699D01*
X0106268Y0077070D01*
X0106268Y0077441D01*
X0106123Y0078168D01*
X0105839Y0078854D01*
X0105427Y0079470D01*
X0104903Y0079995D01*
X0104286Y0080407D01*
X0103601Y0080691D01*
X0102873Y0080835D01*
X0102503Y0080835D01*
X0102503Y0077070D01*
X0106268Y0077070D01*
X0102503Y0077070D01*
X0102503Y0077070D01*
X0102502Y0077070D01*
X0102503Y0077070D01*
X0102503Y0073305D01*
X0102873Y0073305D01*
X0103601Y0073449D01*
X0104286Y0073733D01*
X0105510Y0074794D02*
X0122769Y0074794D01*
X0123967Y0075993D02*
X0106127Y0075993D01*
X0106268Y0077191D02*
X0125166Y0077191D01*
X0126364Y0078390D02*
X0106031Y0078390D01*
X0105309Y0079588D02*
X0127563Y0079588D01*
X0128761Y0080787D02*
X0103118Y0080787D01*
X0102503Y0080787D02*
X0102502Y0080787D01*
X0101887Y0080787D02*
X0007600Y0080787D01*
X0007600Y0081985D02*
X0025190Y0081985D01*
X0025367Y0081808D02*
X0026751Y0081235D01*
X0028249Y0081235D01*
X0029633Y0081808D01*
X0030692Y0082867D01*
X0031265Y0084251D01*
X0031265Y0085749D01*
X0030692Y0087133D01*
X0029633Y0088192D01*
X0028249Y0088765D01*
X0026751Y0088765D01*
X0025367Y0088192D01*
X0024308Y0087133D01*
X0023735Y0085749D01*
X0023735Y0084251D01*
X0024308Y0082867D01*
X0025367Y0081808D01*
X0024177Y0083184D02*
X0007600Y0083184D01*
X0007600Y0084382D02*
X0023735Y0084382D01*
X0023735Y0085581D02*
X0007600Y0085581D01*
X0007600Y0086779D02*
X0024161Y0086779D01*
X0025153Y0087978D02*
X0007600Y0087978D01*
X0007600Y0089176D02*
X0129300Y0089176D01*
X0129300Y0087978D02*
X0127347Y0087978D01*
X0127133Y0088192D02*
X0125749Y0088765D01*
X0124251Y0088765D01*
X0122867Y0088192D01*
X0121808Y0087133D01*
X0121235Y0085749D01*
X0121235Y0084251D01*
X0121808Y0082867D01*
X0122867Y0081808D01*
X0124251Y0081235D01*
X0125749Y0081235D01*
X0127133Y0081808D01*
X0128192Y0082867D01*
X0128765Y0084251D01*
X0128765Y0085749D01*
X0128192Y0087133D01*
X0127133Y0088192D01*
X0128339Y0086779D02*
X0129300Y0086779D01*
X0129300Y0085581D02*
X0128765Y0085581D01*
X0128765Y0084382D02*
X0129300Y0084382D01*
X0129300Y0083184D02*
X0128323Y0083184D01*
X0129300Y0081985D02*
X0127310Y0081985D01*
X0129300Y0081325D02*
X0115687Y0067713D01*
X0114787Y0066813D01*
X0114300Y0065637D01*
X0114300Y0061017D01*
X0113473Y0060190D01*
X0112750Y0058445D01*
X0112750Y0056555D01*
X0113473Y0054810D01*
X0114810Y0053473D01*
X0116555Y0052750D01*
X0118445Y0052750D01*
X0120190Y0053473D01*
X0121527Y0054810D01*
X0122250Y0056555D01*
X0122250Y0058445D01*
X0121527Y0060190D01*
X0120700Y0061017D01*
X0120700Y0063675D01*
X0135213Y0078187D01*
X0135700Y0079363D01*
X0135700Y0123137D01*
X0135213Y0124313D01*
X0134313Y0125213D01*
X0131813Y0127713D01*
X0130637Y0128200D01*
X0129614Y0128200D01*
X0128249Y0128765D01*
X0126751Y0128765D01*
X0126050Y0128475D01*
X0114200Y0140325D01*
X0114200Y0250644D01*
X0114419Y0250644D01*
X0115356Y0251581D01*
X0115356Y0258419D01*
X0114419Y0259356D01*
X0114200Y0259356D01*
X0114200Y0282887D01*
X0113713Y0284063D01*
X0112813Y0284963D01*
X0111950Y0285825D01*
X0111950Y0306175D01*
X0118059Y0312283D01*
X0119555Y0311664D01*
X0122945Y0311664D01*
X0126077Y0312961D01*
X0128474Y0315358D01*
X0129771Y0318490D01*
X0129771Y0321880D01*
X0128474Y0325012D01*
X0126077Y0327409D01*
X0122945Y0328706D01*
X0119555Y0328706D01*
X0116423Y0327409D01*
X0114026Y0325012D01*
X0112729Y0321880D01*
X0112729Y0318490D01*
X0113457Y0316732D01*
X0106937Y0310213D01*
X0106037Y0309313D01*
X0105550Y0308137D01*
X0105550Y0283863D01*
X0106037Y0282687D01*
X0107800Y0280925D01*
X0107800Y0259356D01*
X0107581Y0259356D01*
X0106644Y0258419D01*
X0106644Y0251581D01*
X0107581Y0250644D01*
X0107800Y0250644D01*
X0107800Y0138363D01*
X0108287Y0137187D01*
X0109187Y0136287D01*
X0122287Y0123187D01*
X0123187Y0122287D01*
X0124363Y0121800D01*
X0125386Y0121800D01*
X0126751Y0121235D01*
X0128249Y0121235D01*
X0128950Y0121525D01*
X0129300Y0121175D01*
X0129300Y0081325D01*
X0133018Y0075993D02*
X0141336Y0075993D01*
X0141235Y0075749D02*
X0141235Y0074251D01*
X0141808Y0072867D01*
X0142867Y0071808D01*
X0142900Y0071794D01*
X0142900Y0050870D01*
X0141730Y0049700D01*
X0141527Y0050190D01*
X0140190Y0051527D01*
X0138445Y0052250D01*
X0136555Y0052250D01*
X0134810Y0051527D01*
X0133473Y0050190D01*
X0132750Y0048445D01*
X0132750Y0046555D01*
X0133473Y0044810D01*
X0134810Y0043473D01*
X0136555Y0042750D01*
X0138445Y0042750D01*
X0140190Y0043473D01*
X0141527Y0044810D01*
X0141771Y0045400D01*
X0143370Y0045400D01*
X0144600Y0046630D01*
X0147100Y0049130D01*
X0147100Y0071794D01*
X0147133Y0071808D01*
X0148192Y0072867D01*
X0148765Y0074251D01*
X0148765Y0075749D01*
X0148192Y0077133D01*
X0147133Y0078192D01*
X0145749Y0078765D01*
X0144251Y0078765D01*
X0142867Y0078192D01*
X0141808Y0077133D01*
X0141235Y0075749D01*
X0141235Y0074794D02*
X0131820Y0074794D01*
X0130621Y0073596D02*
X0141506Y0073596D01*
X0142278Y0072397D02*
X0129423Y0072397D01*
X0128224Y0071199D02*
X0142900Y0071199D01*
X0142900Y0070000D02*
X0127025Y0070000D01*
X0125827Y0068801D02*
X0142900Y0068801D01*
X0142900Y0067603D02*
X0124628Y0067603D01*
X0123430Y0066404D02*
X0142900Y0066404D01*
X0142900Y0065206D02*
X0122231Y0065206D01*
X0121033Y0064007D02*
X0142900Y0064007D01*
X0142900Y0062809D02*
X0120700Y0062809D01*
X0120700Y0061610D02*
X0125105Y0061610D01*
X0125011Y0061562D02*
X0124406Y0061123D01*
X0123877Y0060594D01*
X0123438Y0059989D01*
X0123098Y0059323D01*
X0122867Y0058612D01*
X0122750Y0057874D01*
X0122750Y0057786D01*
X0127214Y0057786D01*
X0127214Y0062250D01*
X0127126Y0062250D01*
X0126388Y0062133D01*
X0125677Y0061902D01*
X0125011Y0061562D01*
X0123745Y0060412D02*
X0121305Y0060412D01*
X0121931Y0059213D02*
X0123063Y0059213D01*
X0122773Y0058015D02*
X0122250Y0058015D01*
X0122750Y0057214D02*
X0122750Y0057126D01*
X0122867Y0056388D01*
X0123098Y0055677D01*
X0123438Y0055011D01*
X0123877Y0054406D01*
X0124406Y0053877D01*
X0125011Y0053438D01*
X0125677Y0053098D01*
X0126388Y0052867D01*
X0127126Y0052750D01*
X0127214Y0052750D01*
X0127214Y0057214D01*
X0127786Y0057214D01*
X0127786Y0057786D01*
X0132250Y0057786D01*
X0132250Y0057874D01*
X0132133Y0058612D01*
X0131902Y0059323D01*
X0131562Y0059989D01*
X0131123Y0060594D01*
X0130594Y0061123D01*
X0129989Y0061562D01*
X0129323Y0061902D01*
X0128612Y0062133D01*
X0127874Y0062250D01*
X0127786Y0062250D01*
X0127786Y0057786D01*
X0127214Y0057786D01*
X0127214Y0057214D01*
X0122750Y0057214D01*
X0122799Y0056816D02*
X0122250Y0056816D01*
X0121861Y0055618D02*
X0123128Y0055618D01*
X0123867Y0054419D02*
X0121136Y0054419D01*
X0119581Y0053221D02*
X0125436Y0053221D01*
X0126007Y0052022D02*
X0118993Y0052022D01*
X0118445Y0052250D02*
X0116555Y0052250D01*
X0114810Y0051527D01*
X0113473Y0050190D01*
X0112750Y0048445D01*
X0112750Y0046555D01*
X0113473Y0044810D01*
X0114810Y0043473D01*
X0116555Y0042750D01*
X0118445Y0042750D01*
X0120190Y0043473D01*
X0121527Y0044810D01*
X0122250Y0046555D01*
X0122250Y0048445D01*
X0121527Y0050190D01*
X0120190Y0051527D01*
X0118445Y0052250D01*
X0116007Y0052022D02*
X0108993Y0052022D01*
X0108445Y0052750D02*
X0110190Y0053473D01*
X0111527Y0054810D01*
X0112250Y0056555D01*
X0112250Y0058445D01*
X0111527Y0060190D01*
X0110190Y0061527D01*
X0108445Y0062250D01*
X0106555Y0062250D01*
X0104810Y0061527D01*
X0103473Y0060190D01*
X0102750Y0058445D01*
X0102750Y0056555D01*
X0103473Y0054810D01*
X0104810Y0053473D01*
X0106555Y0052750D01*
X0108445Y0052750D01*
X0109581Y0053221D02*
X0115419Y0053221D01*
X0113864Y0054419D02*
X0111136Y0054419D01*
X0111861Y0055618D02*
X0113139Y0055618D01*
X0112750Y0056816D02*
X0112250Y0056816D01*
X0112250Y0058015D02*
X0112750Y0058015D01*
X0113069Y0059213D02*
X0111931Y0059213D01*
X0111305Y0060412D02*
X0113695Y0060412D01*
X0114300Y0061610D02*
X0109988Y0061610D01*
X0114300Y0062809D02*
X0035161Y0062809D01*
X0036359Y0061610D02*
X0105012Y0061610D01*
X0103695Y0060412D02*
X0037558Y0060412D01*
X0038756Y0059213D02*
X0103069Y0059213D01*
X0102750Y0058015D02*
X0039955Y0058015D01*
X0041153Y0056816D02*
X0102750Y0056816D01*
X0103139Y0055618D02*
X0042352Y0055618D01*
X0043550Y0054419D02*
X0103864Y0054419D01*
X0105419Y0053221D02*
X0044749Y0053221D01*
X0045948Y0052022D02*
X0106007Y0052022D01*
X0104107Y0050824D02*
X0047146Y0050824D01*
X0048345Y0049625D02*
X0103239Y0049625D01*
X0110893Y0050824D02*
X0114107Y0050824D01*
X0113239Y0049625D02*
X0111761Y0049625D01*
X0112250Y0048427D02*
X0112750Y0048427D01*
X0112750Y0047228D02*
X0112250Y0047228D01*
X0112032Y0046030D02*
X0112968Y0046030D01*
X0113464Y0044831D02*
X0111535Y0044831D01*
X0110350Y0043633D02*
X0114650Y0043633D01*
X0120350Y0043633D02*
X0124650Y0043633D01*
X0124810Y0043473D02*
X0126555Y0042750D01*
X0128445Y0042750D01*
X0130190Y0043473D01*
X0131527Y0044810D01*
X0132250Y0046555D01*
X0132250Y0048445D01*
X0131527Y0050190D01*
X0130190Y0051527D01*
X0128445Y0052250D01*
X0126555Y0052250D01*
X0124810Y0051527D01*
X0123473Y0050190D01*
X0122750Y0048445D01*
X0122750Y0046555D01*
X0123473Y0044810D01*
X0124810Y0043473D01*
X0123464Y0044831D02*
X0121535Y0044831D01*
X0122032Y0046030D02*
X0122968Y0046030D01*
X0122750Y0047228D02*
X0122250Y0047228D01*
X0122250Y0048427D02*
X0122750Y0048427D01*
X0123239Y0049625D02*
X0121761Y0049625D01*
X0120893Y0050824D02*
X0124107Y0050824D01*
X0127214Y0053221D02*
X0127786Y0053221D01*
X0127786Y0052750D02*
X0127874Y0052750D01*
X0128612Y0052867D01*
X0129323Y0053098D01*
X0129989Y0053438D01*
X0130594Y0053877D01*
X0131123Y0054406D01*
X0131562Y0055011D01*
X0131902Y0055677D01*
X0132133Y0056388D01*
X0132250Y0057126D01*
X0132250Y0057214D01*
X0127786Y0057214D01*
X0127786Y0052750D01*
X0128993Y0052022D02*
X0136007Y0052022D01*
X0136555Y0052750D02*
X0134810Y0053473D01*
X0133473Y0054810D01*
X0132750Y0056555D01*
X0132750Y0058445D01*
X0133473Y0060190D01*
X0134810Y0061527D01*
X0136555Y0062250D01*
X0138445Y0062250D01*
X0140190Y0061527D01*
X0141527Y0060190D01*
X0142250Y0058445D01*
X0142250Y0056555D01*
X0141527Y0054810D01*
X0140190Y0053473D01*
X0138445Y0052750D01*
X0136555Y0052750D01*
X0135419Y0053221D02*
X0129564Y0053221D01*
X0131133Y0054419D02*
X0133864Y0054419D01*
X0133139Y0055618D02*
X0131872Y0055618D01*
X0132201Y0056816D02*
X0132750Y0056816D01*
X0132750Y0058015D02*
X0132227Y0058015D01*
X0131937Y0059213D02*
X0133069Y0059213D01*
X0133695Y0060412D02*
X0131255Y0060412D01*
X0129895Y0061610D02*
X0135012Y0061610D01*
X0139988Y0061610D02*
X0142900Y0061610D01*
X0142900Y0060412D02*
X0141305Y0060412D01*
X0141931Y0059213D02*
X0142900Y0059213D01*
X0142900Y0058015D02*
X0142250Y0058015D01*
X0142250Y0056816D02*
X0142900Y0056816D01*
X0142900Y0055618D02*
X0141861Y0055618D01*
X0141136Y0054419D02*
X0142900Y0054419D01*
X0142900Y0053221D02*
X0139581Y0053221D01*
X0138993Y0052022D02*
X0142900Y0052022D01*
X0142854Y0050824D02*
X0140893Y0050824D01*
X0145198Y0047228D02*
X0234683Y0047228D01*
X0234683Y0046030D02*
X0144000Y0046030D01*
X0141535Y0044831D02*
X0234683Y0044831D01*
X0234683Y0043633D02*
X0140350Y0043633D01*
X0134650Y0043633D02*
X0130350Y0043633D01*
X0131535Y0044831D02*
X0133464Y0044831D01*
X0132968Y0046030D02*
X0132032Y0046030D01*
X0132250Y0047228D02*
X0132750Y0047228D01*
X0132750Y0048427D02*
X0132250Y0048427D01*
X0131761Y0049625D02*
X0133239Y0049625D01*
X0134107Y0050824D02*
X0130893Y0050824D01*
X0127786Y0054419D02*
X0127214Y0054419D01*
X0127214Y0055618D02*
X0127786Y0055618D01*
X0127786Y0056816D02*
X0127214Y0056816D01*
X0127214Y0058015D02*
X0127786Y0058015D01*
X0127786Y0059213D02*
X0127214Y0059213D01*
X0127214Y0060412D02*
X0127786Y0060412D01*
X0127786Y0061610D02*
X0127214Y0061610D01*
X0117975Y0070000D02*
X0029600Y0070000D01*
X0029600Y0071199D02*
X0045809Y0071199D01*
X0044221Y0072397D02*
X0030779Y0072397D01*
X0031420Y0073596D02*
X0043580Y0073596D01*
X0043341Y0074794D02*
X0031659Y0074794D01*
X0031591Y0075993D02*
X0043409Y0075993D01*
X0043906Y0077191D02*
X0031094Y0077191D01*
X0029992Y0078390D02*
X0045008Y0078390D01*
X0046751Y0081235D02*
X0045367Y0081808D01*
X0044308Y0082867D01*
X0043735Y0084251D01*
X0043735Y0085749D01*
X0044308Y0087133D01*
X0045367Y0088192D01*
X0046751Y0088765D01*
X0048249Y0088765D01*
X0049633Y0088192D01*
X0050692Y0087133D01*
X0051265Y0085749D01*
X0051265Y0084251D01*
X0050692Y0082867D01*
X0049633Y0081808D01*
X0048249Y0081235D01*
X0046751Y0081235D01*
X0045190Y0081985D02*
X0039810Y0081985D01*
X0039633Y0081808D02*
X0040692Y0082867D01*
X0041265Y0084251D01*
X0041265Y0085749D01*
X0040692Y0087133D01*
X0039633Y0088192D01*
X0038249Y0088765D01*
X0036751Y0088765D01*
X0035367Y0088192D01*
X0034308Y0087133D01*
X0033735Y0085749D01*
X0033735Y0084251D01*
X0034308Y0082867D01*
X0035367Y0081808D01*
X0036751Y0081235D01*
X0038249Y0081235D01*
X0039633Y0081808D01*
X0040823Y0083184D02*
X0044177Y0083184D01*
X0043735Y0084382D02*
X0041265Y0084382D01*
X0041265Y0085581D02*
X0043735Y0085581D01*
X0044161Y0086779D02*
X0040839Y0086779D01*
X0039847Y0087978D02*
X0045153Y0087978D01*
X0049847Y0087978D02*
X0054679Y0087978D01*
X0054829Y0088127D02*
X0054373Y0087671D01*
X0053993Y0087149D01*
X0053700Y0086574D01*
X0053501Y0085960D01*
X0053400Y0085323D01*
X0053400Y0085200D01*
X0057300Y0085200D01*
X0057300Y0089100D01*
X0057177Y0089100D01*
X0056540Y0088999D01*
X0055926Y0088800D01*
X0055351Y0088507D01*
X0054829Y0088127D01*
X0053805Y0086779D02*
X0050839Y0086779D01*
X0051265Y0085581D02*
X0053441Y0085581D01*
X0053400Y0084800D02*
X0053400Y0084677D01*
X0053501Y0084040D01*
X0053700Y0083426D01*
X0053993Y0082851D01*
X0054373Y0082329D01*
X0054829Y0081873D01*
X0055351Y0081493D01*
X0055926Y0081200D01*
X0056540Y0081001D01*
X0057177Y0080900D01*
X0057300Y0080900D01*
X0057300Y0084800D01*
X0057700Y0084800D01*
X0057700Y0085200D01*
X0061600Y0085200D01*
X0061600Y0085323D01*
X0061499Y0085960D01*
X0061300Y0086574D01*
X0061007Y0087149D01*
X0060627Y0087671D01*
X0060171Y0088127D01*
X0059649Y0088507D01*
X0059074Y0088800D01*
X0058460Y0088999D01*
X0057823Y0089100D01*
X0057700Y0089100D01*
X0057700Y0085200D01*
X0057300Y0085200D01*
X0057300Y0084800D01*
X0053400Y0084800D01*
X0053447Y0084382D02*
X0051265Y0084382D01*
X0050823Y0083184D02*
X0053824Y0083184D01*
X0054717Y0081985D02*
X0049810Y0081985D01*
X0057300Y0081985D02*
X0057700Y0081985D01*
X0057700Y0080900D02*
X0057823Y0080900D01*
X0058460Y0081001D01*
X0059074Y0081200D01*
X0059649Y0081493D01*
X0060171Y0081873D01*
X0060627Y0082329D01*
X0061007Y0082851D01*
X0061300Y0083426D01*
X0061499Y0084040D01*
X0061600Y0084677D01*
X0061600Y0084800D01*
X0057700Y0084800D01*
X0057700Y0080900D01*
X0057700Y0083184D02*
X0057300Y0083184D01*
X0057300Y0084382D02*
X0057700Y0084382D01*
X0057700Y0085581D02*
X0057300Y0085581D01*
X0057300Y0086779D02*
X0057700Y0086779D01*
X0057700Y0087978D02*
X0057300Y0087978D01*
X0056684Y0090900D02*
X0058316Y0090900D01*
X0059822Y0091524D01*
X0060976Y0092678D01*
X0061600Y0094184D01*
X0061600Y0095816D01*
X0060976Y0097322D01*
X0059822Y0098476D01*
X0058316Y0099100D01*
X0056684Y0099100D01*
X0055178Y0098476D01*
X0054024Y0097322D01*
X0053400Y0095816D01*
X0053400Y0094184D01*
X0054024Y0092678D01*
X0055178Y0091524D01*
X0056684Y0090900D01*
X0055129Y0091573D02*
X0007600Y0091573D01*
X0007600Y0090375D02*
X0129300Y0090375D01*
X0129300Y0091573D02*
X0099859Y0091573D01*
X0099680Y0091443D02*
X0100209Y0091828D01*
X0100672Y0092291D01*
X0101057Y0092820D01*
X0101354Y0093403D01*
X0101557Y0094026D01*
X0101659Y0094673D01*
X0101659Y0095000D01*
X0101659Y0095327D01*
X0101557Y0095974D01*
X0101354Y0096597D01*
X0101057Y0097180D01*
X0100672Y0097709D01*
X0100209Y0098172D01*
X0099680Y0098557D01*
X0099097Y0098854D01*
X0098474Y0099057D01*
X0097827Y0099159D01*
X0097500Y0099159D01*
X0097500Y0095000D01*
X0097500Y0095000D01*
X0101659Y0095000D01*
X0097500Y0095000D01*
X0097500Y0095000D01*
X0097500Y0095000D01*
X0093341Y0095000D01*
X0093341Y0095327D01*
X0093443Y0095974D01*
X0093646Y0096597D01*
X0093943Y0097180D01*
X0094328Y0097709D01*
X0094791Y0098172D01*
X0095320Y0098557D01*
X0095903Y0098854D01*
X0096526Y0099057D01*
X0097173Y0099159D01*
X0097500Y0099159D01*
X0097500Y0095000D01*
X0097500Y0090841D01*
X0097827Y0090841D01*
X0098474Y0090943D01*
X0099097Y0091146D01*
X0099680Y0091443D01*
X0101022Y0092772D02*
X0129300Y0092772D01*
X0129300Y0093970D02*
X0101538Y0093970D01*
X0101659Y0095169D02*
X0129300Y0095169D01*
X0129300Y0096367D02*
X0101429Y0096367D01*
X0100777Y0097566D02*
X0129300Y0097566D01*
X0129300Y0098764D02*
X0099273Y0098764D01*
X0097500Y0098764D02*
X0097500Y0098764D01*
X0097500Y0097566D02*
X0097500Y0097566D01*
X0097500Y0096367D02*
X0097500Y0096367D01*
X0097500Y0095169D02*
X0097500Y0095169D01*
X0097500Y0095000D02*
X0093341Y0095000D01*
X0093341Y0094673D01*
X0093443Y0094026D01*
X0093646Y0093403D01*
X0093943Y0092820D01*
X0094328Y0092291D01*
X0094791Y0091828D01*
X0095320Y0091443D01*
X0095903Y0091146D01*
X0096526Y0090943D01*
X0097173Y0090841D01*
X0097500Y0090841D01*
X0097500Y0095000D01*
X0097500Y0095000D01*
X0097500Y0093970D02*
X0097500Y0093970D01*
X0097500Y0092772D02*
X0097500Y0092772D01*
X0097500Y0091573D02*
X0097500Y0091573D01*
X0095141Y0091573D02*
X0089871Y0091573D01*
X0089822Y0091524D02*
X0090976Y0092678D01*
X0091600Y0094184D01*
X0091600Y0095816D01*
X0090976Y0097322D01*
X0089822Y0098476D01*
X0088316Y0099100D01*
X0086684Y0099100D01*
X0085178Y0098476D01*
X0084024Y0097322D01*
X0083400Y0095816D01*
X0083400Y0094184D01*
X0084024Y0092678D01*
X0085178Y0091524D01*
X0086684Y0090900D01*
X0088316Y0090900D01*
X0089822Y0091524D01*
X0091015Y0092772D02*
X0093978Y0092772D01*
X0093461Y0093970D02*
X0091511Y0093970D01*
X0091600Y0095169D02*
X0093341Y0095169D01*
X0093571Y0096367D02*
X0091371Y0096367D01*
X0090732Y0097566D02*
X0094223Y0097566D01*
X0095727Y0098764D02*
X0089126Y0098764D01*
X0088316Y0100900D02*
X0089822Y0101524D01*
X0090976Y0102678D01*
X0091600Y0104184D01*
X0091600Y0105816D01*
X0090976Y0107322D01*
X0089822Y0108476D01*
X0088316Y0109100D01*
X0086684Y0109100D01*
X0085178Y0108476D01*
X0084024Y0107322D01*
X0083400Y0105816D01*
X0083400Y0104184D01*
X0084024Y0102678D01*
X0085178Y0101524D01*
X0086684Y0100900D01*
X0088316Y0100900D01*
X0088946Y0101161D02*
X0129300Y0101161D01*
X0129300Y0099963D02*
X0007600Y0099963D01*
X0007600Y0101161D02*
X0056054Y0101161D01*
X0056684Y0100900D02*
X0058316Y0100900D01*
X0059822Y0101524D01*
X0060976Y0102678D01*
X0061600Y0104184D01*
X0061600Y0105816D01*
X0060976Y0107322D01*
X0059822Y0108476D01*
X0058316Y0109100D01*
X0056684Y0109100D01*
X0055178Y0108476D01*
X0054024Y0107322D01*
X0053400Y0105816D01*
X0053400Y0104184D01*
X0054024Y0102678D01*
X0055178Y0101524D01*
X0056684Y0100900D01*
X0058946Y0101161D02*
X0086054Y0101161D01*
X0084342Y0102360D02*
X0060658Y0102360D01*
X0061341Y0103558D02*
X0083659Y0103558D01*
X0083400Y0104757D02*
X0061600Y0104757D01*
X0061542Y0105955D02*
X0083458Y0105955D01*
X0083954Y0107154D02*
X0061046Y0107154D01*
X0059946Y0108352D02*
X0085054Y0108352D01*
X0086684Y0110900D02*
X0085178Y0111524D01*
X0084024Y0112678D01*
X0083400Y0114184D01*
X0083400Y0115816D01*
X0084024Y0117322D01*
X0085178Y0118476D01*
X0086684Y0119100D01*
X0088316Y0119100D01*
X0089822Y0118476D01*
X0090976Y0117322D01*
X0091600Y0115816D01*
X0091600Y0114184D01*
X0090976Y0112678D01*
X0089822Y0111524D01*
X0088316Y0110900D01*
X0086684Y0110900D01*
X0084754Y0111948D02*
X0060246Y0111948D01*
X0059822Y0111524D02*
X0060976Y0112678D01*
X0061600Y0114184D01*
X0061600Y0115816D01*
X0060976Y0117322D01*
X0059822Y0118476D01*
X0058316Y0119100D01*
X0056684Y0119100D01*
X0055178Y0118476D01*
X0054024Y0117322D01*
X0053400Y0115816D01*
X0053400Y0114184D01*
X0054024Y0112678D01*
X0055178Y0111524D01*
X0056684Y0110900D01*
X0058316Y0110900D01*
X0059822Y0111524D01*
X0061170Y0113146D02*
X0083830Y0113146D01*
X0083400Y0114345D02*
X0061600Y0114345D01*
X0061600Y0115543D02*
X0083400Y0115543D01*
X0083784Y0116742D02*
X0061216Y0116742D01*
X0060358Y0117940D02*
X0084642Y0117940D01*
X0086023Y0121536D02*
X0058976Y0121536D01*
X0059633Y0121808D02*
X0058249Y0121235D01*
X0056751Y0121235D01*
X0055367Y0121808D01*
X0054308Y0122867D01*
X0053735Y0124251D01*
X0053735Y0125749D01*
X0054308Y0127133D01*
X0055367Y0128192D01*
X0056751Y0128765D01*
X0058249Y0128765D01*
X0059633Y0128192D01*
X0060692Y0127133D01*
X0061265Y0125749D01*
X0061265Y0124251D01*
X0060692Y0122867D01*
X0059633Y0121808D01*
X0060560Y0122734D02*
X0084440Y0122734D01*
X0084308Y0122867D02*
X0085367Y0121808D01*
X0086751Y0121235D01*
X0088249Y0121235D01*
X0089633Y0121808D01*
X0090692Y0122867D01*
X0091265Y0124251D01*
X0091265Y0125749D01*
X0090692Y0127133D01*
X0089633Y0128192D01*
X0088249Y0128765D01*
X0086751Y0128765D01*
X0085367Y0128192D01*
X0084308Y0127133D01*
X0083735Y0125749D01*
X0083735Y0124251D01*
X0084308Y0122867D01*
X0083866Y0123933D02*
X0061134Y0123933D01*
X0061265Y0125132D02*
X0083735Y0125132D01*
X0083975Y0126330D02*
X0061025Y0126330D01*
X0060296Y0127529D02*
X0084704Y0127529D01*
X0086659Y0128727D02*
X0058341Y0128727D01*
X0056659Y0128727D02*
X0049370Y0128727D01*
X0049856Y0128526D02*
X0048327Y0129159D01*
X0046673Y0129159D01*
X0045144Y0128526D01*
X0043974Y0127356D01*
X0043341Y0125827D01*
X0043341Y0124173D01*
X0043974Y0122644D01*
X0045144Y0121474D01*
X0046673Y0120841D01*
X0048327Y0120841D01*
X0049856Y0121474D01*
X0051026Y0122644D01*
X0051659Y0124173D01*
X0051659Y0125827D01*
X0051026Y0127356D01*
X0049856Y0128526D01*
X0050853Y0127529D02*
X0054704Y0127529D01*
X0053975Y0126330D02*
X0051451Y0126330D01*
X0051659Y0125132D02*
X0053735Y0125132D01*
X0053866Y0123933D02*
X0051560Y0123933D01*
X0051063Y0122734D02*
X0054440Y0122734D01*
X0056023Y0121536D02*
X0049918Y0121536D01*
X0048249Y0118765D02*
X0046751Y0118765D01*
X0045367Y0118192D01*
X0044308Y0117133D01*
X0043735Y0115749D01*
X0043735Y0114251D01*
X0044308Y0112867D01*
X0045367Y0111808D01*
X0046751Y0111235D01*
X0048249Y0111235D01*
X0049633Y0111808D01*
X0050692Y0112867D01*
X0051265Y0114251D01*
X0051265Y0115749D01*
X0050692Y0117133D01*
X0049633Y0118192D01*
X0048249Y0118765D01*
X0049885Y0117940D02*
X0054642Y0117940D01*
X0053784Y0116742D02*
X0050854Y0116742D01*
X0051265Y0115543D02*
X0053400Y0115543D01*
X0053400Y0114345D02*
X0051265Y0114345D01*
X0050808Y0113146D02*
X0053830Y0113146D01*
X0054754Y0111948D02*
X0049773Y0111948D01*
X0045227Y0111948D02*
X0039773Y0111948D01*
X0039633Y0111808D02*
X0040692Y0112867D01*
X0041265Y0114251D01*
X0041265Y0115749D01*
X0040692Y0117133D01*
X0039633Y0118192D01*
X0038249Y0118765D01*
X0036751Y0118765D01*
X0035367Y0118192D01*
X0034308Y0117133D01*
X0033735Y0115749D01*
X0033735Y0114251D01*
X0034308Y0112867D01*
X0035367Y0111808D01*
X0036751Y0111235D01*
X0038249Y0111235D01*
X0039633Y0111808D01*
X0040808Y0113146D02*
X0044192Y0113146D01*
X0043735Y0114345D02*
X0041265Y0114345D01*
X0041265Y0115543D02*
X0043735Y0115543D01*
X0044146Y0116742D02*
X0040854Y0116742D01*
X0039885Y0117940D02*
X0045115Y0117940D01*
X0045082Y0121536D02*
X0029918Y0121536D01*
X0029856Y0121474D02*
X0031026Y0122644D01*
X0031659Y0124173D01*
X0031659Y0125827D01*
X0031026Y0127356D01*
X0029856Y0128526D01*
X0028327Y0129159D01*
X0026673Y0129159D01*
X0025144Y0128526D01*
X0023974Y0127356D01*
X0023341Y0125827D01*
X0023341Y0124173D01*
X0023974Y0122644D01*
X0025144Y0121474D01*
X0026673Y0120841D01*
X0028327Y0120841D01*
X0029856Y0121474D01*
X0031063Y0122734D02*
X0043937Y0122734D01*
X0043440Y0123933D02*
X0031560Y0123933D01*
X0031659Y0125132D02*
X0043341Y0125132D01*
X0043549Y0126330D02*
X0031451Y0126330D01*
X0030853Y0127529D02*
X0044147Y0127529D01*
X0045630Y0128727D02*
X0029370Y0128727D01*
X0025630Y0128727D02*
X0007600Y0128727D01*
X0007600Y0127529D02*
X0024147Y0127529D01*
X0023549Y0126330D02*
X0007600Y0126330D01*
X0007600Y0125132D02*
X0023341Y0125132D01*
X0023440Y0123933D02*
X0007600Y0123933D01*
X0007600Y0122734D02*
X0023937Y0122734D01*
X0025082Y0121536D02*
X0007600Y0121536D01*
X0007600Y0120337D02*
X0129300Y0120337D01*
X0129300Y0119139D02*
X0098376Y0119139D01*
X0098327Y0119159D02*
X0096673Y0119159D01*
X0095144Y0118526D01*
X0093974Y0117356D01*
X0093341Y0115827D01*
X0093341Y0114173D01*
X0093974Y0112644D01*
X0095144Y0111474D01*
X0096673Y0110841D01*
X0098327Y0110841D01*
X0099856Y0111474D01*
X0101026Y0112644D01*
X0101659Y0114173D01*
X0101659Y0115827D01*
X0101026Y0117356D01*
X0099856Y0118526D01*
X0098327Y0119159D01*
X0096624Y0119139D02*
X0007600Y0119139D01*
X0007600Y0117940D02*
X0025123Y0117940D01*
X0025100Y0117925D02*
X0024575Y0117400D01*
X0024163Y0116784D01*
X0023879Y0116098D01*
X0023735Y0115371D01*
X0023735Y0115000D01*
X0023735Y0114629D01*
X0023879Y0113902D01*
X0024163Y0113216D01*
X0024575Y0112600D01*
X0025100Y0112075D01*
X0025716Y0111663D01*
X0026402Y0111379D01*
X0027129Y0111235D01*
X0027500Y0111235D01*
X0027871Y0111235D01*
X0028598Y0111379D01*
X0029284Y0111663D01*
X0029900Y0112075D01*
X0030425Y0112600D01*
X0030837Y0113216D01*
X0031121Y0113902D01*
X0031265Y0114629D01*
X0031265Y0115000D01*
X0031265Y0115371D01*
X0031121Y0116098D01*
X0030837Y0116784D01*
X0030425Y0117400D01*
X0029900Y0117925D01*
X0029284Y0118337D01*
X0028598Y0118621D01*
X0027871Y0118765D01*
X0027500Y0118765D01*
X0027129Y0118765D01*
X0026402Y0118621D01*
X0025716Y0118337D01*
X0025100Y0117925D01*
X0024146Y0116742D02*
X0007600Y0116742D01*
X0007600Y0115543D02*
X0023769Y0115543D01*
X0023735Y0115000D02*
X0027500Y0115000D01*
X0027500Y0115000D01*
X0027500Y0118765D01*
X0027500Y0115000D01*
X0031265Y0115000D01*
X0027500Y0115000D01*
X0027500Y0115000D01*
X0027500Y0115000D01*
X0027500Y0111235D01*
X0027500Y0115000D01*
X0027500Y0115000D01*
X0023735Y0115000D01*
X0023791Y0114345D02*
X0007600Y0114345D01*
X0007600Y0113146D02*
X0024210Y0113146D01*
X0025290Y0111948D02*
X0007600Y0111948D01*
X0007600Y0110749D02*
X0129300Y0110749D01*
X0129300Y0109551D02*
X0007600Y0109551D01*
X0007600Y0108352D02*
X0055054Y0108352D01*
X0053954Y0107154D02*
X0007600Y0107154D01*
X0007600Y0105955D02*
X0053458Y0105955D01*
X0053400Y0104757D02*
X0007600Y0104757D01*
X0007600Y0103558D02*
X0053659Y0103558D01*
X0054342Y0102360D02*
X0007600Y0102360D01*
X0007600Y0098764D02*
X0055874Y0098764D01*
X0054267Y0097566D02*
X0007600Y0097566D01*
X0007600Y0096367D02*
X0053629Y0096367D01*
X0053400Y0095169D02*
X0007600Y0095169D01*
X0007600Y0093970D02*
X0053489Y0093970D01*
X0053985Y0092772D02*
X0007600Y0092772D01*
X0027500Y0111948D02*
X0027500Y0111948D01*
X0027500Y0113146D02*
X0027500Y0113146D01*
X0027500Y0114345D02*
X0027500Y0114345D01*
X0027500Y0115543D02*
X0027500Y0115543D01*
X0027500Y0116742D02*
X0027500Y0116742D01*
X0027500Y0117940D02*
X0027500Y0117940D01*
X0029877Y0117940D02*
X0035115Y0117940D01*
X0034146Y0116742D02*
X0030854Y0116742D01*
X0031231Y0115543D02*
X0033735Y0115543D01*
X0033735Y0114345D02*
X0031209Y0114345D01*
X0030790Y0113146D02*
X0034192Y0113146D01*
X0035227Y0111948D02*
X0029710Y0111948D01*
X0044672Y0132295D02*
X0043735Y0133232D01*
X0043735Y0138888D01*
X0044672Y0139825D01*
X0050328Y0139825D01*
X0051265Y0138888D01*
X0051265Y0133232D01*
X0050328Y0132295D01*
X0044672Y0132295D01*
X0044644Y0132323D02*
X0007600Y0132323D01*
X0007600Y0133521D02*
X0043735Y0133521D01*
X0043735Y0134720D02*
X0007600Y0134720D01*
X0007600Y0135918D02*
X0043735Y0135918D01*
X0043735Y0137117D02*
X0007600Y0137117D01*
X0007600Y0138315D02*
X0043735Y0138315D01*
X0044360Y0139514D02*
X0007600Y0139514D01*
X0007600Y0140712D02*
X0045453Y0140712D01*
X0045367Y0140748D02*
X0046751Y0140175D01*
X0048249Y0140175D01*
X0049633Y0140748D01*
X0050692Y0141807D01*
X0051265Y0143191D01*
X0051265Y0144689D01*
X0050692Y0146073D01*
X0049633Y0147132D01*
X0048249Y0147705D01*
X0046751Y0147705D01*
X0045367Y0147132D01*
X0044308Y0146073D01*
X0043735Y0144689D01*
X0043735Y0143191D01*
X0044308Y0141807D01*
X0045367Y0140748D01*
X0044265Y0141911D02*
X0007600Y0141911D01*
X0007600Y0143109D02*
X0043769Y0143109D01*
X0043735Y0144308D02*
X0007600Y0144308D01*
X0007600Y0145506D02*
X0044073Y0145506D01*
X0044940Y0146705D02*
X0007600Y0146705D01*
X0007600Y0147903D02*
X0097136Y0147903D01*
X0096890Y0148150D02*
X0098337Y0146703D01*
X0100227Y0145920D01*
X0102273Y0145920D01*
X0104163Y0146703D01*
X0105610Y0148150D01*
X0106393Y0150040D01*
X0106393Y0152086D01*
X0105610Y0153976D01*
X0104163Y0155423D01*
X0102273Y0156206D01*
X0100227Y0156206D01*
X0098337Y0155423D01*
X0096890Y0153976D01*
X0096107Y0152086D01*
X0096107Y0150040D01*
X0096890Y0148150D01*
X0096495Y0149102D02*
X0007600Y0149102D01*
X0007600Y0150300D02*
X0096107Y0150300D01*
X0096107Y0151499D02*
X0007600Y0151499D01*
X0007600Y0152697D02*
X0096360Y0152697D01*
X0096856Y0153896D02*
X0007600Y0153896D01*
X0007600Y0155094D02*
X0098008Y0155094D01*
X0093490Y0161087D02*
X0107800Y0161087D01*
X0107800Y0162285D02*
X0093765Y0162285D01*
X0093765Y0161751D02*
X0093192Y0160367D01*
X0092133Y0159308D01*
X0090749Y0158735D01*
X0089251Y0158735D01*
X0087867Y0159308D01*
X0086808Y0160367D01*
X0086235Y0161751D01*
X0086235Y0163249D01*
X0086808Y0164633D01*
X0087867Y0165692D01*
X0089251Y0166265D01*
X0090749Y0166265D01*
X0092133Y0165692D01*
X0093192Y0164633D01*
X0093765Y0163249D01*
X0093765Y0161751D01*
X0093668Y0163484D02*
X0107800Y0163484D01*
X0107800Y0164682D02*
X0093143Y0164682D01*
X0091677Y0165881D02*
X0107800Y0165881D01*
X0107800Y0167079D02*
X0007600Y0167079D01*
X0007600Y0165881D02*
X0027073Y0165881D01*
X0026617Y0165692D02*
X0025558Y0164633D01*
X0024985Y0163249D01*
X0024985Y0161751D01*
X0025558Y0160367D01*
X0026617Y0159308D01*
X0028001Y0158735D01*
X0029499Y0158735D01*
X0030883Y0159308D01*
X0031942Y0160367D01*
X0032515Y0161751D01*
X0032515Y0163249D01*
X0031942Y0164633D01*
X0030883Y0165692D01*
X0029499Y0166265D01*
X0028001Y0166265D01*
X0026617Y0165692D01*
X0025607Y0164682D02*
X0007600Y0164682D01*
X0007600Y0163484D02*
X0025082Y0163484D01*
X0024985Y0162285D02*
X0007600Y0162285D01*
X0007600Y0161087D02*
X0025260Y0161087D01*
X0026037Y0159888D02*
X0007600Y0159888D01*
X0007600Y0158690D02*
X0107800Y0158690D01*
X0107800Y0159888D02*
X0092713Y0159888D01*
X0087287Y0159888D02*
X0072713Y0159888D01*
X0073192Y0160367D02*
X0073765Y0161751D01*
X0073765Y0163249D01*
X0073192Y0164633D01*
X0072133Y0165692D01*
X0070749Y0166265D01*
X0069251Y0166265D01*
X0067867Y0165692D01*
X0066808Y0164633D01*
X0066235Y0163249D01*
X0066235Y0161751D01*
X0066808Y0160367D01*
X0067867Y0159308D01*
X0069251Y0158735D01*
X0070749Y0158735D01*
X0072133Y0159308D01*
X0073192Y0160367D01*
X0073490Y0161087D02*
X0086510Y0161087D01*
X0086235Y0162285D02*
X0073765Y0162285D01*
X0073668Y0163484D02*
X0086332Y0163484D01*
X0086857Y0164682D02*
X0073143Y0164682D01*
X0071677Y0165881D02*
X0088323Y0165881D01*
X0089251Y0168735D02*
X0087867Y0169308D01*
X0086808Y0170367D01*
X0086235Y0171751D01*
X0086235Y0173249D01*
X0086808Y0174633D01*
X0087867Y0175692D01*
X0089251Y0176265D01*
X0090749Y0176265D01*
X0092133Y0175692D01*
X0093192Y0174633D01*
X0093765Y0173249D01*
X0093765Y0171751D01*
X0093192Y0170367D01*
X0092133Y0169308D01*
X0090749Y0168735D01*
X0089251Y0168735D01*
X0087699Y0169476D02*
X0067858Y0169476D01*
X0067356Y0168974D02*
X0068526Y0170144D01*
X0069159Y0171673D01*
X0069159Y0173327D01*
X0068526Y0174856D01*
X0067356Y0176026D01*
X0065827Y0176659D01*
X0064173Y0176659D01*
X0062644Y0176026D01*
X0061474Y0174856D01*
X0060841Y0173327D01*
X0060841Y0171673D01*
X0061474Y0170144D01*
X0062644Y0168974D01*
X0064173Y0168341D01*
X0065827Y0168341D01*
X0067356Y0168974D01*
X0068746Y0170675D02*
X0086680Y0170675D01*
X0086235Y0171873D02*
X0069159Y0171873D01*
X0069159Y0173072D02*
X0086235Y0173072D01*
X0086658Y0174270D02*
X0068768Y0174270D01*
X0067913Y0175469D02*
X0087644Y0175469D01*
X0092356Y0175469D02*
X0107800Y0175469D01*
X0107800Y0174270D02*
X0093342Y0174270D01*
X0093765Y0173072D02*
X0107800Y0173072D01*
X0107800Y0171873D02*
X0093765Y0171873D01*
X0093320Y0170675D02*
X0107800Y0170675D01*
X0107800Y0169476D02*
X0092301Y0169476D01*
X0097644Y0178974D02*
X0099173Y0178341D01*
X0100827Y0178341D01*
X0102356Y0178974D01*
X0103526Y0180144D01*
X0104159Y0181673D01*
X0104159Y0183327D01*
X0103526Y0184856D01*
X0102356Y0186026D01*
X0100827Y0186659D01*
X0099173Y0186659D01*
X0097644Y0186026D01*
X0096474Y0184856D01*
X0095841Y0183327D01*
X0095841Y0181673D01*
X0096474Y0180144D01*
X0097644Y0178974D01*
X0097554Y0179065D02*
X0007600Y0179065D01*
X0007600Y0180263D02*
X0096425Y0180263D01*
X0095928Y0181462D02*
X0085237Y0181462D01*
X0084689Y0181235D02*
X0086073Y0181808D01*
X0087132Y0182867D01*
X0087705Y0184251D01*
X0087705Y0185749D01*
X0087132Y0187133D01*
X0086073Y0188192D01*
X0084689Y0188765D01*
X0083191Y0188765D01*
X0081807Y0188192D01*
X0080748Y0187133D01*
X0080175Y0185749D01*
X0080175Y0184251D01*
X0080748Y0182867D01*
X0081807Y0181808D01*
X0083191Y0181235D01*
X0084689Y0181235D01*
X0082643Y0181462D02*
X0079115Y0181462D01*
X0078888Y0181235D02*
X0079825Y0182172D01*
X0079825Y0187828D01*
X0078888Y0188765D01*
X0073232Y0188765D01*
X0072295Y0187828D01*
X0072295Y0182172D01*
X0073232Y0181235D01*
X0078888Y0181235D01*
X0079825Y0182660D02*
X0080955Y0182660D01*
X0080337Y0183859D02*
X0079825Y0183859D01*
X0079825Y0185057D02*
X0080175Y0185057D01*
X0080385Y0186256D02*
X0079825Y0186256D01*
X0079825Y0187454D02*
X0081069Y0187454D01*
X0082919Y0188653D02*
X0079001Y0188653D01*
X0079251Y0193735D02*
X0077867Y0194308D01*
X0076808Y0195367D01*
X0076235Y0196751D01*
X0076235Y0198249D01*
X0076808Y0199633D01*
X0077867Y0200692D01*
X0079251Y0201265D01*
X0080749Y0201265D01*
X0082133Y0200692D01*
X0083192Y0199633D01*
X0083765Y0198249D01*
X0083765Y0196751D01*
X0083192Y0195367D01*
X0082133Y0194308D01*
X0080749Y0193735D01*
X0079251Y0193735D01*
X0077530Y0194645D02*
X0072470Y0194645D01*
X0072133Y0194308D02*
X0073192Y0195367D01*
X0073765Y0196751D01*
X0073765Y0198249D01*
X0073192Y0199633D01*
X0072133Y0200692D01*
X0070749Y0201265D01*
X0069251Y0201265D01*
X0067867Y0200692D01*
X0066808Y0199633D01*
X0066235Y0198249D01*
X0066235Y0196751D01*
X0066808Y0195367D01*
X0067867Y0194308D01*
X0069251Y0193735D01*
X0070749Y0193735D01*
X0072133Y0194308D01*
X0073390Y0195844D02*
X0076610Y0195844D01*
X0076235Y0197042D02*
X0073765Y0197042D01*
X0073765Y0198241D02*
X0076235Y0198241D01*
X0076728Y0199439D02*
X0073272Y0199439D01*
X0072187Y0200638D02*
X0077813Y0200638D01*
X0082187Y0200638D02*
X0097256Y0200638D01*
X0097644Y0201026D02*
X0096474Y0199856D01*
X0095841Y0198327D01*
X0095841Y0196673D01*
X0096474Y0195144D01*
X0097644Y0193974D01*
X0099173Y0193341D01*
X0100827Y0193341D01*
X0102356Y0193974D01*
X0103526Y0195144D01*
X0104159Y0196673D01*
X0104159Y0198327D01*
X0103526Y0199856D01*
X0102356Y0201026D01*
X0100827Y0201659D01*
X0099173Y0201659D01*
X0097644Y0201026D01*
X0096302Y0199439D02*
X0083272Y0199439D01*
X0083765Y0198241D02*
X0095841Y0198241D01*
X0095841Y0197042D02*
X0083765Y0197042D01*
X0083390Y0195844D02*
X0096184Y0195844D01*
X0096973Y0194645D02*
X0082470Y0194645D01*
X0084961Y0188653D02*
X0107800Y0188653D01*
X0107800Y0189851D02*
X0031426Y0189851D01*
X0031942Y0190367D02*
X0032515Y0191751D01*
X0032515Y0193249D01*
X0031942Y0194633D01*
X0030883Y0195692D01*
X0029499Y0196265D01*
X0028001Y0196265D01*
X0026617Y0195692D01*
X0025558Y0194633D01*
X0024985Y0193249D01*
X0024985Y0191751D01*
X0025558Y0190367D01*
X0026617Y0189308D01*
X0028001Y0188735D01*
X0029499Y0188735D01*
X0030883Y0189308D01*
X0031942Y0190367D01*
X0032225Y0191050D02*
X0107800Y0191050D01*
X0107800Y0192248D02*
X0032515Y0192248D01*
X0032433Y0193447D02*
X0098917Y0193447D01*
X0101083Y0193447D02*
X0107800Y0193447D01*
X0107800Y0194645D02*
X0103027Y0194645D01*
X0103816Y0195844D02*
X0107800Y0195844D01*
X0107800Y0197042D02*
X0104159Y0197042D01*
X0104159Y0198241D02*
X0107800Y0198241D01*
X0107800Y0199439D02*
X0103698Y0199439D01*
X0102744Y0200638D02*
X0107800Y0200638D01*
X0107800Y0201836D02*
X0032909Y0201836D01*
X0032909Y0202077D02*
X0032276Y0203606D01*
X0031106Y0204776D01*
X0029577Y0205409D01*
X0027923Y0205409D01*
X0026394Y0204776D01*
X0025224Y0203606D01*
X0024591Y0202077D01*
X0024591Y0200423D01*
X0025224Y0198894D01*
X0026394Y0197724D01*
X0027923Y0197091D01*
X0029577Y0197091D01*
X0031106Y0197724D01*
X0032276Y0198894D01*
X0032909Y0200423D01*
X0032909Y0202077D01*
X0032512Y0203035D02*
X0107800Y0203035D01*
X0107800Y0204233D02*
X0091953Y0204233D01*
X0092133Y0204308D02*
X0093192Y0205367D01*
X0093765Y0206751D01*
X0093765Y0208249D01*
X0093192Y0209633D01*
X0092133Y0210692D01*
X0090749Y0211265D01*
X0089251Y0211265D01*
X0087867Y0210692D01*
X0086808Y0209633D01*
X0086235Y0208249D01*
X0086235Y0206751D01*
X0086808Y0205367D01*
X0087867Y0204308D01*
X0089251Y0203735D01*
X0090749Y0203735D01*
X0092133Y0204308D01*
X0093219Y0205432D02*
X0107800Y0205432D01*
X0107800Y0206630D02*
X0093715Y0206630D01*
X0093765Y0207829D02*
X0107800Y0207829D01*
X0107800Y0209027D02*
X0093443Y0209027D01*
X0092599Y0210226D02*
X0107800Y0210226D01*
X0107800Y0211424D02*
X0007600Y0211424D01*
X0007600Y0210226D02*
X0037401Y0210226D01*
X0037867Y0210692D02*
X0036808Y0209633D01*
X0036235Y0208249D01*
X0036235Y0206751D01*
X0036808Y0205367D01*
X0037867Y0204308D01*
X0039251Y0203735D01*
X0040749Y0203735D01*
X0042133Y0204308D01*
X0043192Y0205367D01*
X0043765Y0206751D01*
X0043765Y0208249D01*
X0043192Y0209633D01*
X0042133Y0210692D01*
X0040749Y0211265D01*
X0039251Y0211265D01*
X0037867Y0210692D01*
X0036557Y0209027D02*
X0007600Y0209027D01*
X0007600Y0207829D02*
X0036235Y0207829D01*
X0036285Y0206630D02*
X0007600Y0206630D01*
X0007600Y0205432D02*
X0036781Y0205432D01*
X0038047Y0204233D02*
X0031648Y0204233D01*
X0032909Y0200638D02*
X0037813Y0200638D01*
X0037867Y0200692D02*
X0036808Y0199633D01*
X0036235Y0198249D01*
X0036235Y0196751D01*
X0036808Y0195367D01*
X0037867Y0194308D01*
X0039251Y0193735D01*
X0040749Y0193735D01*
X0042133Y0194308D01*
X0043192Y0195367D01*
X0043765Y0196751D01*
X0043765Y0198249D01*
X0043192Y0199633D01*
X0042133Y0200692D01*
X0040749Y0201265D01*
X0039251Y0201265D01*
X0037867Y0200692D01*
X0036728Y0199439D02*
X0032502Y0199439D01*
X0031622Y0198241D02*
X0036235Y0198241D01*
X0036235Y0197042D02*
X0007600Y0197042D01*
X0007600Y0195844D02*
X0026983Y0195844D01*
X0025570Y0194645D02*
X0007600Y0194645D01*
X0007600Y0193447D02*
X0025067Y0193447D01*
X0024985Y0192248D02*
X0007600Y0192248D01*
X0007600Y0191050D02*
X0025275Y0191050D01*
X0026074Y0189851D02*
X0007600Y0189851D01*
X0007600Y0188653D02*
X0043008Y0188653D01*
X0042820Y0188557D02*
X0042291Y0188172D01*
X0041828Y0187709D01*
X0041443Y0187180D01*
X0041146Y0186597D01*
X0040943Y0185974D01*
X0040841Y0185327D01*
X0040841Y0185000D01*
X0045000Y0185000D01*
X0049159Y0185000D01*
X0049159Y0185327D01*
X0049057Y0185974D01*
X0048854Y0186597D01*
X0048557Y0187180D01*
X0048172Y0187709D01*
X0047709Y0188172D01*
X0047180Y0188557D01*
X0046597Y0188854D01*
X0045974Y0189057D01*
X0045327Y0189159D01*
X0045000Y0189159D01*
X0045000Y0185000D01*
X0045000Y0185000D01*
X0045000Y0185000D01*
X0049159Y0185000D01*
X0049159Y0184673D01*
X0049057Y0184026D01*
X0048854Y0183403D01*
X0048557Y0182820D01*
X0048172Y0182291D01*
X0047709Y0181828D01*
X0047180Y0181443D01*
X0046597Y0181146D01*
X0045974Y0180943D01*
X0045327Y0180841D01*
X0045000Y0180841D01*
X0045000Y0185000D01*
X0045000Y0185000D01*
X0045000Y0185000D01*
X0045000Y0189159D01*
X0044673Y0189159D01*
X0044026Y0189057D01*
X0043403Y0188854D01*
X0042820Y0188557D01*
X0041642Y0187454D02*
X0007600Y0187454D01*
X0007600Y0186256D02*
X0041035Y0186256D01*
X0040841Y0185057D02*
X0007600Y0185057D01*
X0007600Y0183859D02*
X0040998Y0183859D01*
X0040943Y0184026D02*
X0041146Y0183403D01*
X0041443Y0182820D01*
X0041828Y0182291D01*
X0042291Y0181828D01*
X0042820Y0181443D01*
X0043403Y0181146D01*
X0044026Y0180943D01*
X0044673Y0180841D01*
X0045000Y0180841D01*
X0045000Y0185000D01*
X0040841Y0185000D01*
X0040841Y0184673D01*
X0040943Y0184026D01*
X0041559Y0182660D02*
X0007600Y0182660D01*
X0007600Y0181462D02*
X0042794Y0181462D01*
X0045000Y0181462D02*
X0045000Y0181462D01*
X0045000Y0182660D02*
X0045000Y0182660D01*
X0045000Y0183859D02*
X0045000Y0183859D01*
X0045000Y0185057D02*
X0045000Y0185057D01*
X0045000Y0186256D02*
X0045000Y0186256D01*
X0045000Y0187454D02*
X0045000Y0187454D01*
X0045000Y0188653D02*
X0045000Y0188653D01*
X0046992Y0188653D02*
X0062950Y0188653D01*
X0062644Y0188526D02*
X0061474Y0187356D01*
X0060841Y0185827D01*
X0060841Y0184173D01*
X0061474Y0182644D01*
X0062644Y0181474D01*
X0064173Y0180841D01*
X0065827Y0180841D01*
X0067356Y0181474D01*
X0068526Y0182644D01*
X0069159Y0184173D01*
X0069159Y0185827D01*
X0068526Y0187356D01*
X0067356Y0188526D01*
X0065827Y0189159D01*
X0064173Y0189159D01*
X0062644Y0188526D01*
X0061572Y0187454D02*
X0048358Y0187454D01*
X0048965Y0186256D02*
X0061018Y0186256D01*
X0060841Y0185057D02*
X0049159Y0185057D01*
X0049002Y0183859D02*
X0060971Y0183859D01*
X0061467Y0182660D02*
X0048441Y0182660D01*
X0047206Y0181462D02*
X0062674Y0181462D01*
X0067326Y0181462D02*
X0073005Y0181462D01*
X0072295Y0182660D02*
X0068532Y0182660D01*
X0069029Y0183859D02*
X0072295Y0183859D01*
X0072295Y0185057D02*
X0069159Y0185057D01*
X0068982Y0186256D02*
X0072295Y0186256D01*
X0072295Y0187454D02*
X0068428Y0187454D01*
X0067050Y0188653D02*
X0073119Y0188653D01*
X0067530Y0194645D02*
X0042470Y0194645D01*
X0043390Y0195844D02*
X0066610Y0195844D01*
X0066235Y0197042D02*
X0043765Y0197042D01*
X0043765Y0198241D02*
X0066235Y0198241D01*
X0066728Y0199439D02*
X0043272Y0199439D01*
X0042187Y0200638D02*
X0067813Y0200638D01*
X0069251Y0203735D02*
X0070749Y0203735D01*
X0072133Y0204308D01*
X0073192Y0205367D01*
X0073765Y0206751D01*
X0073765Y0208249D01*
X0073192Y0209633D01*
X0072133Y0210692D01*
X0070749Y0211265D01*
X0069251Y0211265D01*
X0067867Y0210692D01*
X0066808Y0209633D01*
X0066235Y0208249D01*
X0066235Y0206751D01*
X0066808Y0205367D01*
X0067867Y0204308D01*
X0069251Y0203735D01*
X0068047Y0204233D02*
X0041953Y0204233D01*
X0043219Y0205432D02*
X0066781Y0205432D01*
X0066285Y0206630D02*
X0043715Y0206630D01*
X0043765Y0207829D02*
X0066235Y0207829D01*
X0066557Y0209027D02*
X0043443Y0209027D01*
X0042599Y0210226D02*
X0067401Y0210226D01*
X0065827Y0213341D02*
X0067356Y0213974D01*
X0068526Y0215144D01*
X0069159Y0216673D01*
X0069159Y0218327D01*
X0068526Y0219856D01*
X0067356Y0221026D01*
X0065827Y0221659D01*
X0064173Y0221659D01*
X0062644Y0221026D01*
X0061474Y0219856D01*
X0060841Y0218327D01*
X0060841Y0216673D01*
X0061474Y0215144D01*
X0062644Y0213974D01*
X0064173Y0213341D01*
X0065827Y0213341D01*
X0066987Y0213821D02*
X0089042Y0213821D01*
X0089251Y0213735D02*
X0090749Y0213735D01*
X0092133Y0214308D01*
X0093192Y0215367D01*
X0093765Y0216751D01*
X0093765Y0218249D01*
X0093192Y0219633D01*
X0092133Y0220692D01*
X0090749Y0221265D01*
X0089251Y0221265D01*
X0087867Y0220692D01*
X0086808Y0219633D01*
X0086235Y0218249D01*
X0086235Y0216751D01*
X0086808Y0215367D01*
X0087867Y0214308D01*
X0089251Y0213735D01*
X0090958Y0213821D02*
X0107800Y0213821D01*
X0107800Y0212623D02*
X0007600Y0212623D01*
X0007600Y0213821D02*
X0043059Y0213821D01*
X0042820Y0213943D02*
X0043403Y0213646D01*
X0044026Y0213443D01*
X0044673Y0213341D01*
X0045000Y0213341D01*
X0045327Y0213341D01*
X0045974Y0213443D01*
X0046597Y0213646D01*
X0047180Y0213943D01*
X0047709Y0214328D01*
X0048172Y0214791D01*
X0048557Y0215320D01*
X0048854Y0215903D01*
X0049057Y0216526D01*
X0049159Y0217173D01*
X0049159Y0217500D01*
X0049159Y0217827D01*
X0049057Y0218474D01*
X0048854Y0219097D01*
X0048557Y0219680D01*
X0048172Y0220209D01*
X0047709Y0220672D01*
X0047180Y0221057D01*
X0046597Y0221354D01*
X0045974Y0221557D01*
X0045327Y0221659D01*
X0045000Y0221659D01*
X0045000Y0217500D01*
X0049159Y0217500D01*
X0045000Y0217500D01*
X0045000Y0217500D01*
X0045000Y0217500D01*
X0045000Y0213341D01*
X0045000Y0217500D01*
X0045000Y0217500D01*
X0045000Y0217500D01*
X0040841Y0217500D01*
X0040841Y0217827D01*
X0040943Y0218474D01*
X0041146Y0219097D01*
X0041443Y0219680D01*
X0041828Y0220209D01*
X0042291Y0220672D01*
X0042820Y0221057D01*
X0043403Y0221354D01*
X0044026Y0221557D01*
X0044673Y0221659D01*
X0045000Y0221659D01*
X0045000Y0217500D01*
X0040841Y0217500D01*
X0040841Y0217173D01*
X0040943Y0216526D01*
X0041146Y0215903D01*
X0041443Y0215320D01*
X0041828Y0214791D01*
X0042291Y0214328D01*
X0042820Y0213943D01*
X0041661Y0215020D02*
X0007600Y0215020D01*
X0007600Y0216218D02*
X0041043Y0216218D01*
X0040841Y0217417D02*
X0030364Y0217417D01*
X0031106Y0217724D02*
X0029577Y0217091D01*
X0027923Y0217091D01*
X0026394Y0217724D01*
X0025224Y0218894D01*
X0024591Y0220423D01*
X0024591Y0222077D01*
X0025224Y0223606D01*
X0026394Y0224776D01*
X0027923Y0225409D01*
X0029577Y0225409D01*
X0031106Y0224776D01*
X0032276Y0223606D01*
X0032909Y0222077D01*
X0032909Y0220423D01*
X0032276Y0218894D01*
X0031106Y0217724D01*
X0031997Y0218615D02*
X0040989Y0218615D01*
X0041540Y0219814D02*
X0032657Y0219814D01*
X0032909Y0221012D02*
X0042759Y0221012D01*
X0045000Y0221012D02*
X0045000Y0221012D01*
X0045000Y0219814D02*
X0045000Y0219814D01*
X0045000Y0218615D02*
X0045000Y0218615D01*
X0045000Y0217417D02*
X0045000Y0217417D01*
X0045000Y0216218D02*
X0045000Y0216218D01*
X0045000Y0215020D02*
X0045000Y0215020D01*
X0045000Y0213821D02*
X0045000Y0213821D01*
X0046941Y0213821D02*
X0063013Y0213821D01*
X0061598Y0215020D02*
X0048339Y0215020D01*
X0048957Y0216218D02*
X0061029Y0216218D01*
X0060841Y0217417D02*
X0049159Y0217417D01*
X0049011Y0218615D02*
X0060960Y0218615D01*
X0061457Y0219814D02*
X0048460Y0219814D01*
X0047241Y0221012D02*
X0062631Y0221012D01*
X0067369Y0221012D02*
X0088640Y0221012D01*
X0086989Y0219814D02*
X0068543Y0219814D01*
X0069040Y0218615D02*
X0086386Y0218615D01*
X0086235Y0217417D02*
X0069159Y0217417D01*
X0068971Y0216218D02*
X0086455Y0216218D01*
X0087155Y0215020D02*
X0068402Y0215020D01*
X0072599Y0210226D02*
X0087401Y0210226D01*
X0086557Y0209027D02*
X0073443Y0209027D01*
X0073765Y0207829D02*
X0086235Y0207829D01*
X0086285Y0206630D02*
X0073715Y0206630D01*
X0073219Y0205432D02*
X0086781Y0205432D01*
X0088047Y0204233D02*
X0071953Y0204233D01*
X0079251Y0223735D02*
X0077867Y0224308D01*
X0076808Y0225367D01*
X0076235Y0226751D01*
X0076235Y0228249D01*
X0076808Y0229633D01*
X0077867Y0230692D01*
X0079251Y0231265D01*
X0080749Y0231265D01*
X0082133Y0230692D01*
X0083192Y0229633D01*
X0083765Y0228249D01*
X0083765Y0226751D01*
X0083192Y0225367D01*
X0082133Y0224308D01*
X0080749Y0223735D01*
X0079251Y0223735D01*
X0077567Y0224608D02*
X0031274Y0224608D01*
X0032357Y0223409D02*
X0089007Y0223409D01*
X0089173Y0223341D02*
X0090827Y0223341D01*
X0092356Y0223974D01*
X0093526Y0225144D01*
X0094159Y0226673D01*
X0094159Y0228327D01*
X0093526Y0229856D01*
X0092356Y0231026D01*
X0090827Y0231659D01*
X0089173Y0231659D01*
X0087644Y0231026D01*
X0086474Y0229856D01*
X0085841Y0228327D01*
X0085841Y0226673D01*
X0086474Y0225144D01*
X0087644Y0223974D01*
X0089173Y0223341D01*
X0090993Y0223409D02*
X0099007Y0223409D01*
X0099173Y0223341D02*
X0100827Y0223341D01*
X0102356Y0223974D01*
X0103526Y0225144D01*
X0104159Y0226673D01*
X0104159Y0228327D01*
X0103526Y0229856D01*
X0102356Y0231026D01*
X0100827Y0231659D01*
X0099173Y0231659D01*
X0097644Y0231026D01*
X0096474Y0229856D01*
X0095841Y0228327D01*
X0095841Y0226673D01*
X0096474Y0225144D01*
X0097644Y0223974D01*
X0099173Y0223341D01*
X0100993Y0223409D02*
X0107800Y0223409D01*
X0107800Y0222211D02*
X0032854Y0222211D01*
X0031663Y0226703D02*
X0029773Y0225920D01*
X0027727Y0225920D01*
X0025837Y0226703D01*
X0024390Y0228150D01*
X0023607Y0230040D01*
X0023607Y0232086D01*
X0024390Y0233976D01*
X0025837Y0235423D01*
X0027727Y0236206D01*
X0029773Y0236206D01*
X0031663Y0235423D01*
X0033110Y0233976D01*
X0033893Y0232086D01*
X0033893Y0230040D01*
X0033110Y0228150D01*
X0031663Y0226703D01*
X0031966Y0227005D02*
X0045534Y0227005D01*
X0045837Y0226703D02*
X0047727Y0225920D01*
X0049773Y0225920D01*
X0051663Y0226703D01*
X0053110Y0228150D01*
X0053893Y0230040D01*
X0053893Y0232086D01*
X0053110Y0233976D01*
X0051663Y0235423D01*
X0049773Y0236206D01*
X0047727Y0236206D01*
X0045837Y0235423D01*
X0044390Y0233976D01*
X0043607Y0232086D01*
X0043607Y0230040D01*
X0044390Y0228150D01*
X0045837Y0226703D01*
X0044367Y0228203D02*
X0033133Y0228203D01*
X0033629Y0229402D02*
X0043871Y0229402D01*
X0043607Y0230601D02*
X0033893Y0230601D01*
X0033893Y0231799D02*
X0043607Y0231799D01*
X0043984Y0232998D02*
X0033516Y0232998D01*
X0032891Y0234196D02*
X0044609Y0234196D01*
X0045808Y0235395D02*
X0031692Y0235395D01*
X0025808Y0235395D02*
X0007600Y0235395D01*
X0007600Y0236593D02*
X0095874Y0236593D01*
X0095841Y0236673D02*
X0096474Y0235144D01*
X0097644Y0233974D01*
X0099173Y0233341D01*
X0100827Y0233341D01*
X0102356Y0233974D01*
X0103526Y0235144D01*
X0104159Y0236673D01*
X0104159Y0238327D01*
X0103526Y0239856D01*
X0102356Y0241026D01*
X0100827Y0241659D01*
X0099173Y0241659D01*
X0097644Y0241026D01*
X0096474Y0239856D01*
X0095841Y0238327D01*
X0095841Y0236673D01*
X0095841Y0237792D02*
X0007600Y0237792D01*
X0007600Y0238990D02*
X0096116Y0238990D01*
X0096807Y0240189D02*
X0007600Y0240189D01*
X0007600Y0241387D02*
X0098516Y0241387D01*
X0101484Y0241387D02*
X0107800Y0241387D01*
X0107800Y0240189D02*
X0103193Y0240189D01*
X0103884Y0238990D02*
X0107800Y0238990D01*
X0107800Y0237792D02*
X0104159Y0237792D01*
X0104126Y0236593D02*
X0107800Y0236593D01*
X0107800Y0235395D02*
X0103630Y0235395D01*
X0102578Y0234196D02*
X0107800Y0234196D01*
X0107800Y0232998D02*
X0073893Y0232998D01*
X0073893Y0234196D02*
X0097422Y0234196D01*
X0096370Y0235395D02*
X0073686Y0235395D01*
X0073784Y0235224D02*
X0073574Y0235589D01*
X0073276Y0235887D01*
X0072911Y0236097D01*
X0072504Y0236206D01*
X0069233Y0236206D01*
X0069233Y0231546D01*
X0068267Y0231546D01*
X0068267Y0236206D01*
X0064996Y0236206D01*
X0064589Y0236097D01*
X0064224Y0235887D01*
X0063926Y0235589D01*
X0063716Y0235224D01*
X0063607Y0234817D01*
X0063607Y0231546D01*
X0068267Y0231546D01*
X0068267Y0230580D01*
X0063607Y0230580D01*
X0063607Y0227309D01*
X0063716Y0226902D01*
X0063926Y0226537D01*
X0064224Y0226239D01*
X0064589Y0226029D01*
X0064996Y0225920D01*
X0068267Y0225920D01*
X0068267Y0230580D01*
X0069233Y0230580D01*
X0069233Y0231546D01*
X0073893Y0231546D01*
X0073893Y0234817D01*
X0073784Y0235224D01*
X0073893Y0231799D02*
X0107800Y0231799D01*
X0107800Y0230601D02*
X0102781Y0230601D01*
X0103714Y0229402D02*
X0107800Y0229402D01*
X0107800Y0228203D02*
X0104159Y0228203D01*
X0104159Y0227005D02*
X0107800Y0227005D01*
X0107800Y0225806D02*
X0103800Y0225806D01*
X0102990Y0224608D02*
X0107800Y0224608D01*
X0107800Y0221012D02*
X0091360Y0221012D01*
X0093011Y0219814D02*
X0107800Y0219814D01*
X0107800Y0218615D02*
X0093614Y0218615D01*
X0093765Y0217417D02*
X0107800Y0217417D01*
X0107800Y0216218D02*
X0093545Y0216218D01*
X0092845Y0215020D02*
X0107800Y0215020D01*
X0114200Y0215020D02*
X0117155Y0215020D01*
X0116808Y0215367D02*
X0117867Y0214308D01*
X0119251Y0213735D01*
X0120749Y0213735D01*
X0122133Y0214308D01*
X0123192Y0215367D01*
X0123765Y0216751D01*
X0123765Y0218249D01*
X0123192Y0219633D01*
X0122133Y0220692D01*
X0120749Y0221265D01*
X0119251Y0221265D01*
X0117867Y0220692D01*
X0116808Y0219633D01*
X0116235Y0218249D01*
X0116235Y0216751D01*
X0116808Y0215367D01*
X0116455Y0216218D02*
X0114200Y0216218D01*
X0114200Y0217417D02*
X0116235Y0217417D01*
X0116386Y0218615D02*
X0114200Y0218615D01*
X0114200Y0219814D02*
X0116989Y0219814D01*
X0118640Y0221012D02*
X0114200Y0221012D01*
X0114200Y0222211D02*
X0168914Y0222211D01*
X0168974Y0222356D02*
X0168341Y0220827D01*
X0168341Y0219173D01*
X0168974Y0217644D01*
X0170144Y0216474D01*
X0171673Y0215841D01*
X0173327Y0215841D01*
X0174856Y0216474D01*
X0176026Y0217644D01*
X0176659Y0219173D01*
X0176659Y0220827D01*
X0176026Y0222356D01*
X0174856Y0223526D01*
X0173327Y0224159D01*
X0171673Y0224159D01*
X0170144Y0223526D01*
X0168974Y0222356D01*
X0168418Y0221012D02*
X0162234Y0221012D01*
X0162322Y0220976D02*
X0160816Y0221600D01*
X0159184Y0221600D01*
X0157678Y0220976D01*
X0156524Y0219822D01*
X0155900Y0218316D01*
X0155900Y0216684D01*
X0156524Y0215178D01*
X0157678Y0214024D01*
X0159184Y0213400D01*
X0160816Y0213400D01*
X0162322Y0214024D01*
X0163476Y0215178D01*
X0164100Y0216684D01*
X0164100Y0218316D01*
X0163476Y0219822D01*
X0162322Y0220976D01*
X0163479Y0219814D02*
X0168341Y0219814D01*
X0168572Y0218615D02*
X0163976Y0218615D01*
X0164100Y0217417D02*
X0169201Y0217417D01*
X0170761Y0216218D02*
X0163907Y0216218D01*
X0163318Y0215020D02*
X0234683Y0215020D01*
X0234683Y0216218D02*
X0194239Y0216218D01*
X0194097Y0216146D02*
X0194680Y0216443D01*
X0195209Y0216828D01*
X0195672Y0217291D01*
X0196057Y0217820D01*
X0196354Y0218403D01*
X0196557Y0219026D01*
X0196659Y0219673D01*
X0196659Y0220000D01*
X0196659Y0220327D01*
X0196557Y0220974D01*
X0196354Y0221597D01*
X0196057Y0222180D01*
X0195672Y0222709D01*
X0195209Y0223172D01*
X0194680Y0223557D01*
X0194097Y0223854D01*
X0193474Y0224057D01*
X0192827Y0224159D01*
X0192500Y0224159D01*
X0192500Y0220000D01*
X0196659Y0220000D01*
X0192500Y0220000D01*
X0192500Y0220000D01*
X0192500Y0220000D01*
X0192500Y0215841D01*
X0192827Y0215841D01*
X0193474Y0215943D01*
X0194097Y0216146D01*
X0192500Y0216218D02*
X0192500Y0216218D01*
X0192500Y0215841D02*
X0192500Y0220000D01*
X0192500Y0220000D01*
X0192500Y0220000D01*
X0188341Y0220000D01*
X0188341Y0220327D01*
X0188443Y0220974D01*
X0188646Y0221597D01*
X0188943Y0222180D01*
X0189328Y0222709D01*
X0189791Y0223172D01*
X0190320Y0223557D01*
X0190903Y0223854D01*
X0191526Y0224057D01*
X0192173Y0224159D01*
X0192500Y0224159D01*
X0192500Y0220000D01*
X0188341Y0220000D01*
X0188341Y0219673D01*
X0188443Y0219026D01*
X0188646Y0218403D01*
X0188943Y0217820D01*
X0189328Y0217291D01*
X0189791Y0216828D01*
X0190320Y0216443D01*
X0190903Y0216146D01*
X0191526Y0215943D01*
X0192173Y0215841D01*
X0192500Y0215841D01*
X0192500Y0217417D02*
X0192500Y0217417D01*
X0192500Y0218615D02*
X0192500Y0218615D01*
X0192500Y0219814D02*
X0192500Y0219814D01*
X0192500Y0221012D02*
X0192500Y0221012D01*
X0192500Y0222211D02*
X0192500Y0222211D01*
X0192500Y0223409D02*
X0192500Y0223409D01*
X0190117Y0223409D02*
X0174972Y0223409D01*
X0176086Y0222211D02*
X0188965Y0222211D01*
X0188456Y0221012D02*
X0176582Y0221012D01*
X0176659Y0219814D02*
X0188341Y0219814D01*
X0188577Y0218615D02*
X0176428Y0218615D01*
X0175799Y0217417D02*
X0189236Y0217417D01*
X0190761Y0216218D02*
X0174238Y0216218D01*
X0173249Y0213765D02*
X0171751Y0213765D01*
X0170367Y0213192D01*
X0169308Y0212133D01*
X0168735Y0210749D01*
X0168735Y0209251D01*
X0169308Y0207867D01*
X0170367Y0206808D01*
X0171751Y0206235D01*
X0173249Y0206235D01*
X0174633Y0206808D01*
X0175692Y0207867D01*
X0176265Y0209251D01*
X0176265Y0210749D01*
X0175692Y0212133D01*
X0174633Y0213192D01*
X0173249Y0213765D01*
X0175202Y0212623D02*
X0199798Y0212623D01*
X0199308Y0212133D02*
X0198735Y0210749D01*
X0198735Y0209251D01*
X0199308Y0207867D01*
X0200367Y0206808D01*
X0201751Y0206235D01*
X0203249Y0206235D01*
X0204633Y0206808D01*
X0205692Y0207867D01*
X0206265Y0209251D01*
X0206265Y0210749D01*
X0205692Y0212133D01*
X0204633Y0213192D01*
X0203249Y0213765D01*
X0201751Y0213765D01*
X0200367Y0213192D01*
X0199308Y0212133D01*
X0199014Y0211424D02*
X0175986Y0211424D01*
X0176265Y0210226D02*
X0198735Y0210226D01*
X0198827Y0209027D02*
X0176173Y0209027D01*
X0175654Y0207829D02*
X0199346Y0207829D01*
X0200796Y0206630D02*
X0174204Y0206630D01*
X0170796Y0206630D02*
X0164078Y0206630D01*
X0164100Y0206684D02*
X0163476Y0205178D01*
X0162322Y0204024D01*
X0160816Y0203400D01*
X0159184Y0203400D01*
X0157678Y0204024D01*
X0156524Y0205178D01*
X0155900Y0206684D01*
X0155900Y0208316D01*
X0156524Y0209822D01*
X0157678Y0210976D01*
X0159184Y0211600D01*
X0160816Y0211600D01*
X0162322Y0210976D01*
X0163476Y0209822D01*
X0164100Y0208316D01*
X0164100Y0206684D01*
X0164100Y0207829D02*
X0169346Y0207829D01*
X0168827Y0209027D02*
X0163805Y0209027D01*
X0163072Y0210226D02*
X0168735Y0210226D01*
X0169014Y0211424D02*
X0161240Y0211424D01*
X0161833Y0213821D02*
X0234683Y0213821D01*
X0234683Y0212623D02*
X0205202Y0212623D01*
X0205986Y0211424D02*
X0234683Y0211424D01*
X0234683Y0210226D02*
X0206265Y0210226D01*
X0206173Y0209027D02*
X0234683Y0209027D01*
X0234683Y0207829D02*
X0205654Y0207829D01*
X0204204Y0206630D02*
X0234683Y0206630D01*
X0234683Y0205432D02*
X0163581Y0205432D01*
X0162532Y0204233D02*
X0234683Y0204233D01*
X0234683Y0203035D02*
X0114200Y0203035D01*
X0114200Y0204233D02*
X0118047Y0204233D01*
X0117867Y0204308D02*
X0119251Y0203735D01*
X0120749Y0203735D01*
X0122133Y0204308D01*
X0123192Y0205367D01*
X0123765Y0206751D01*
X0123765Y0208249D01*
X0123192Y0209633D01*
X0122133Y0210692D01*
X0120749Y0211265D01*
X0119251Y0211265D01*
X0117867Y0210692D01*
X0116808Y0209633D01*
X0116235Y0208249D01*
X0116235Y0206751D01*
X0116808Y0205367D01*
X0117867Y0204308D01*
X0116781Y0205432D02*
X0114200Y0205432D01*
X0114200Y0206630D02*
X0116285Y0206630D01*
X0116235Y0207829D02*
X0114200Y0207829D01*
X0114200Y0209027D02*
X0116557Y0209027D01*
X0117401Y0210226D02*
X0114200Y0210226D01*
X0114200Y0211424D02*
X0128760Y0211424D01*
X0129184Y0211600D02*
X0127678Y0210976D01*
X0126524Y0209822D01*
X0125900Y0208316D01*
X0125900Y0206684D01*
X0126524Y0205178D01*
X0127678Y0204024D01*
X0129184Y0203400D01*
X0130816Y0203400D01*
X0132322Y0204024D01*
X0133476Y0205178D01*
X0134100Y0206684D01*
X0134100Y0208316D01*
X0133476Y0209822D01*
X0132322Y0210976D01*
X0130816Y0211600D01*
X0129184Y0211600D01*
X0129184Y0213400D02*
X0130816Y0213400D01*
X0132322Y0214024D01*
X0133476Y0215178D01*
X0134100Y0216684D01*
X0134100Y0218316D01*
X0133476Y0219822D01*
X0132322Y0220976D01*
X0130816Y0221600D01*
X0129184Y0221600D01*
X0127678Y0220976D01*
X0126524Y0219822D01*
X0125900Y0218316D01*
X0125900Y0216684D01*
X0126524Y0215178D01*
X0127678Y0214024D01*
X0129184Y0213400D01*
X0128167Y0213821D02*
X0120958Y0213821D01*
X0119042Y0213821D02*
X0114200Y0213821D01*
X0114200Y0212623D02*
X0169798Y0212623D01*
X0170028Y0223409D02*
X0160838Y0223409D01*
X0160816Y0223400D02*
X0162322Y0224024D01*
X0163476Y0225178D01*
X0164100Y0226684D01*
X0164100Y0228316D01*
X0163476Y0229822D01*
X0162322Y0230976D01*
X0160816Y0231600D01*
X0159184Y0231600D01*
X0157678Y0230976D01*
X0156524Y0229822D01*
X0155900Y0228316D01*
X0155900Y0226684D01*
X0156524Y0225178D01*
X0157678Y0224024D01*
X0159184Y0223400D01*
X0160816Y0223400D01*
X0159162Y0223409D02*
X0130838Y0223409D01*
X0130816Y0223400D02*
X0132322Y0224024D01*
X0133476Y0225178D01*
X0134100Y0226684D01*
X0134100Y0228316D01*
X0133476Y0229822D01*
X0132322Y0230976D01*
X0130816Y0231600D01*
X0129184Y0231600D01*
X0127678Y0230976D01*
X0126524Y0229822D01*
X0125900Y0228316D01*
X0125900Y0226684D01*
X0126524Y0225178D01*
X0127678Y0224024D01*
X0129184Y0223400D01*
X0130816Y0223400D01*
X0129162Y0223409D02*
X0120993Y0223409D01*
X0120827Y0223341D02*
X0122356Y0223974D01*
X0123526Y0225144D01*
X0124159Y0226673D01*
X0124159Y0228327D01*
X0123526Y0229856D01*
X0122356Y0231026D01*
X0120827Y0231659D01*
X0119173Y0231659D01*
X0117644Y0231026D01*
X0116474Y0229856D01*
X0115841Y0228327D01*
X0115841Y0226673D01*
X0116474Y0225144D01*
X0117644Y0223974D01*
X0119173Y0223341D01*
X0120827Y0223341D01*
X0119007Y0223409D02*
X0114200Y0223409D01*
X0114200Y0224608D02*
X0117010Y0224608D01*
X0116200Y0225806D02*
X0114200Y0225806D01*
X0114200Y0227005D02*
X0115841Y0227005D01*
X0115841Y0228203D02*
X0114200Y0228203D01*
X0114200Y0229402D02*
X0116286Y0229402D01*
X0117219Y0230601D02*
X0114200Y0230601D01*
X0114200Y0231799D02*
X0168607Y0231799D01*
X0168607Y0232086D02*
X0168607Y0230040D01*
X0169390Y0228150D01*
X0170837Y0226703D01*
X0172727Y0225920D01*
X0174773Y0225920D01*
X0176663Y0226703D01*
X0178110Y0228150D01*
X0178893Y0230040D01*
X0178893Y0232086D01*
X0178110Y0233976D01*
X0176663Y0235423D01*
X0174773Y0236206D01*
X0172727Y0236206D01*
X0170837Y0235423D01*
X0169390Y0233976D01*
X0168607Y0232086D01*
X0168984Y0232998D02*
X0114200Y0232998D01*
X0114200Y0234196D02*
X0117422Y0234196D01*
X0117644Y0233974D02*
X0119173Y0233341D01*
X0120827Y0233341D01*
X0122356Y0233974D01*
X0123526Y0235144D01*
X0124159Y0236673D01*
X0124159Y0238327D01*
X0123526Y0239856D01*
X0122356Y0241026D01*
X0120827Y0241659D01*
X0119173Y0241659D01*
X0117644Y0241026D01*
X0116474Y0239856D01*
X0115841Y0238327D01*
X0115841Y0236673D01*
X0116474Y0235144D01*
X0117644Y0233974D01*
X0116370Y0235395D02*
X0114200Y0235395D01*
X0114200Y0236593D02*
X0115874Y0236593D01*
X0115841Y0237792D02*
X0114200Y0237792D01*
X0114200Y0238990D02*
X0116116Y0238990D01*
X0116807Y0240189D02*
X0114200Y0240189D01*
X0114200Y0241387D02*
X0118516Y0241387D01*
X0121484Y0241387D02*
X0128671Y0241387D01*
X0129184Y0241600D02*
X0127678Y0240976D01*
X0126524Y0239822D01*
X0125900Y0238316D01*
X0125900Y0236684D01*
X0126524Y0235178D01*
X0127678Y0234024D01*
X0129184Y0233400D01*
X0130816Y0233400D01*
X0132322Y0234024D01*
X0133476Y0235178D01*
X0134100Y0236684D01*
X0134100Y0238316D01*
X0133476Y0239822D01*
X0132322Y0240976D01*
X0130816Y0241600D01*
X0129184Y0241600D01*
X0131329Y0241387D02*
X0158671Y0241387D01*
X0159184Y0241600D02*
X0157678Y0240976D01*
X0156524Y0239822D01*
X0155900Y0238316D01*
X0155900Y0236684D01*
X0156524Y0235178D01*
X0157678Y0234024D01*
X0159184Y0233400D01*
X0160816Y0233400D01*
X0162322Y0234024D01*
X0163476Y0235178D01*
X0164100Y0236684D01*
X0164100Y0238316D01*
X0163476Y0239822D01*
X0162322Y0240976D01*
X0160816Y0241600D01*
X0159184Y0241600D01*
X0161329Y0241387D02*
X0168459Y0241387D01*
X0168341Y0241673D02*
X0168974Y0240144D01*
X0170144Y0238974D01*
X0171673Y0238341D01*
X0173327Y0238341D01*
X0174856Y0238974D01*
X0176026Y0240144D01*
X0176659Y0241673D01*
X0176659Y0243327D01*
X0176026Y0244856D01*
X0174856Y0246026D01*
X0173327Y0246659D01*
X0171673Y0246659D01*
X0170144Y0246026D01*
X0168974Y0244856D01*
X0168341Y0243327D01*
X0168341Y0241673D01*
X0168341Y0242586D02*
X0114200Y0242586D01*
X0114200Y0243784D02*
X0168530Y0243784D01*
X0169101Y0244983D02*
X0114200Y0244983D01*
X0114200Y0246181D02*
X0170519Y0246181D01*
X0174481Y0246181D02*
X0190564Y0246181D01*
X0190320Y0246057D02*
X0189791Y0245672D01*
X0189328Y0245209D01*
X0188943Y0244680D01*
X0188646Y0244097D01*
X0188443Y0243474D01*
X0188341Y0242827D01*
X0188341Y0242500D01*
X0192500Y0242500D01*
X0196659Y0242500D01*
X0196659Y0242827D01*
X0196557Y0243474D01*
X0196354Y0244097D01*
X0196057Y0244680D01*
X0195672Y0245209D01*
X0195209Y0245672D01*
X0194680Y0246057D01*
X0194097Y0246354D01*
X0193474Y0246557D01*
X0192827Y0246659D01*
X0192500Y0246659D01*
X0192500Y0242500D01*
X0192500Y0242500D01*
X0192500Y0242500D01*
X0196659Y0242500D01*
X0196659Y0242173D01*
X0196557Y0241526D01*
X0196354Y0240903D01*
X0196057Y0240320D01*
X0195672Y0239791D01*
X0195209Y0239328D01*
X0194680Y0238943D01*
X0194097Y0238646D01*
X0193474Y0238443D01*
X0192827Y0238341D01*
X0192500Y0238341D01*
X0192500Y0242500D01*
X0192500Y0242500D01*
X0192500Y0242500D01*
X0192500Y0246659D01*
X0192173Y0246659D01*
X0191526Y0246557D01*
X0190903Y0246354D01*
X0190320Y0246057D01*
X0189163Y0244983D02*
X0175899Y0244983D01*
X0176470Y0243784D02*
X0188544Y0243784D01*
X0188341Y0242586D02*
X0176659Y0242586D01*
X0176541Y0241387D02*
X0188488Y0241387D01*
X0188443Y0241526D02*
X0188646Y0240903D01*
X0188943Y0240320D01*
X0189328Y0239791D01*
X0189791Y0239328D01*
X0190320Y0238943D01*
X0190903Y0238646D01*
X0191526Y0238443D01*
X0192173Y0238341D01*
X0192500Y0238341D01*
X0192500Y0242500D01*
X0188341Y0242500D01*
X0188341Y0242173D01*
X0188443Y0241526D01*
X0189038Y0240189D02*
X0176044Y0240189D01*
X0174872Y0238990D02*
X0190255Y0238990D01*
X0192500Y0238990D02*
X0192500Y0238990D01*
X0192500Y0240189D02*
X0192500Y0240189D01*
X0192500Y0241387D02*
X0192500Y0241387D01*
X0192500Y0242586D02*
X0192500Y0242586D01*
X0192500Y0243784D02*
X0192500Y0243784D01*
X0192500Y0244983D02*
X0192500Y0244983D01*
X0192500Y0246181D02*
X0192500Y0246181D01*
X0194436Y0246181D02*
X0234683Y0246181D01*
X0234683Y0244983D02*
X0195837Y0244983D01*
X0196456Y0243784D02*
X0234683Y0243784D01*
X0234683Y0242586D02*
X0196659Y0242586D01*
X0196511Y0241387D02*
X0234683Y0241387D01*
X0234683Y0240189D02*
X0195962Y0240189D01*
X0194745Y0238990D02*
X0234683Y0238990D01*
X0234683Y0237792D02*
X0164100Y0237792D01*
X0164062Y0236593D02*
X0234683Y0236593D01*
X0234683Y0235395D02*
X0218768Y0235395D01*
X0218893Y0235269D02*
X0217956Y0236206D01*
X0209544Y0236206D01*
X0208607Y0235269D01*
X0208607Y0226857D01*
X0209544Y0225920D01*
X0217956Y0225920D01*
X0218893Y0226857D01*
X0218893Y0235269D01*
X0218893Y0234196D02*
X0234683Y0234196D01*
X0234683Y0232998D02*
X0218893Y0232998D01*
X0218893Y0231799D02*
X0234683Y0231799D01*
X0234683Y0230601D02*
X0218893Y0230601D01*
X0218893Y0229402D02*
X0234683Y0229402D01*
X0234683Y0228203D02*
X0218893Y0228203D01*
X0218893Y0227005D02*
X0234683Y0227005D01*
X0234683Y0225806D02*
X0163736Y0225806D01*
X0164100Y0227005D02*
X0170534Y0227005D01*
X0169367Y0228203D02*
X0164100Y0228203D01*
X0163650Y0229402D02*
X0168871Y0229402D01*
X0168607Y0230601D02*
X0162698Y0230601D01*
X0162494Y0234196D02*
X0169609Y0234196D01*
X0170808Y0235395D02*
X0163566Y0235395D01*
X0163821Y0238990D02*
X0170128Y0238990D01*
X0168956Y0240189D02*
X0163110Y0240189D01*
X0156890Y0240189D02*
X0133110Y0240189D01*
X0133821Y0238990D02*
X0156179Y0238990D01*
X0155900Y0237792D02*
X0134100Y0237792D01*
X0134062Y0236593D02*
X0155938Y0236593D01*
X0156434Y0235395D02*
X0133566Y0235395D01*
X0132494Y0234196D02*
X0157506Y0234196D01*
X0157302Y0230601D02*
X0132698Y0230601D01*
X0133650Y0229402D02*
X0156350Y0229402D01*
X0155900Y0228203D02*
X0134100Y0228203D01*
X0134100Y0227005D02*
X0155900Y0227005D01*
X0156264Y0225806D02*
X0133736Y0225806D01*
X0132906Y0224608D02*
X0157094Y0224608D01*
X0157766Y0221012D02*
X0132234Y0221012D01*
X0133479Y0219814D02*
X0156521Y0219814D01*
X0156024Y0218615D02*
X0133976Y0218615D01*
X0134100Y0217417D02*
X0155900Y0217417D01*
X0156093Y0216218D02*
X0133907Y0216218D01*
X0133318Y0215020D02*
X0156682Y0215020D01*
X0158167Y0213821D02*
X0131833Y0213821D01*
X0131240Y0211424D02*
X0158760Y0211424D01*
X0156928Y0210226D02*
X0133072Y0210226D01*
X0133805Y0209027D02*
X0156195Y0209027D01*
X0155900Y0207829D02*
X0134100Y0207829D01*
X0134078Y0206630D02*
X0155922Y0206630D01*
X0156419Y0205432D02*
X0133581Y0205432D01*
X0132532Y0204233D02*
X0157468Y0204233D01*
X0159184Y0201600D02*
X0157678Y0200976D01*
X0156524Y0199822D01*
X0155900Y0198316D01*
X0155900Y0196684D01*
X0156524Y0195178D01*
X0157678Y0194024D01*
X0159184Y0193400D01*
X0160816Y0193400D01*
X0162322Y0194024D01*
X0163476Y0195178D01*
X0164100Y0196684D01*
X0164100Y0198316D01*
X0163476Y0199822D01*
X0162322Y0200976D01*
X0160816Y0201600D01*
X0159184Y0201600D01*
X0157339Y0200638D02*
X0132661Y0200638D01*
X0132322Y0200976D02*
X0130816Y0201600D01*
X0129184Y0201600D01*
X0127678Y0200976D01*
X0126524Y0199822D01*
X0125900Y0198316D01*
X0125900Y0196684D01*
X0126524Y0195178D01*
X0127678Y0194024D01*
X0129184Y0193400D01*
X0130816Y0193400D01*
X0132322Y0194024D01*
X0133476Y0195178D01*
X0134100Y0196684D01*
X0134100Y0198316D01*
X0133476Y0199822D01*
X0132322Y0200976D01*
X0133635Y0199439D02*
X0156365Y0199439D01*
X0155900Y0198241D02*
X0134100Y0198241D01*
X0134100Y0197042D02*
X0155900Y0197042D01*
X0156248Y0195844D02*
X0133752Y0195844D01*
X0132943Y0194645D02*
X0157057Y0194645D01*
X0159072Y0193447D02*
X0130928Y0193447D01*
X0130816Y0191600D02*
X0129184Y0191600D01*
X0127678Y0190976D01*
X0126524Y0189822D01*
X0125900Y0188316D01*
X0125900Y0186684D01*
X0126524Y0185178D01*
X0127678Y0184024D01*
X0129184Y0183400D01*
X0130816Y0183400D01*
X0132322Y0184024D01*
X0133476Y0185178D01*
X0134100Y0186684D01*
X0134100Y0188316D01*
X0133476Y0189822D01*
X0132322Y0190976D01*
X0130816Y0191600D01*
X0132144Y0191050D02*
X0157936Y0191050D01*
X0157851Y0191007D02*
X0157329Y0190627D01*
X0156873Y0190171D01*
X0156493Y0189649D01*
X0156200Y0189074D01*
X0156001Y0188460D01*
X0155900Y0187823D01*
X0155900Y0187700D01*
X0159800Y0187700D01*
X0159800Y0191600D01*
X0159677Y0191600D01*
X0159040Y0191499D01*
X0158426Y0191300D01*
X0157851Y0191007D01*
X0156640Y0189851D02*
X0133447Y0189851D01*
X0133960Y0188653D02*
X0156064Y0188653D01*
X0155900Y0187300D02*
X0155900Y0187177D01*
X0156001Y0186540D01*
X0156200Y0185926D01*
X0156493Y0185351D01*
X0156873Y0184829D01*
X0157329Y0184373D01*
X0157851Y0183993D01*
X0158426Y0183700D01*
X0159040Y0183501D01*
X0159677Y0183400D01*
X0159800Y0183400D01*
X0159800Y0187300D01*
X0160200Y0187300D01*
X0160200Y0187700D01*
X0164100Y0187700D01*
X0164100Y0187823D01*
X0163999Y0188460D01*
X0163800Y0189074D01*
X0163507Y0189649D01*
X0163127Y0190171D01*
X0162671Y0190627D01*
X0162149Y0191007D01*
X0161574Y0191300D01*
X0160960Y0191499D01*
X0160323Y0191600D01*
X0160200Y0191600D01*
X0160200Y0187700D01*
X0159800Y0187700D01*
X0159800Y0187300D01*
X0155900Y0187300D01*
X0156093Y0186256D02*
X0133922Y0186256D01*
X0134100Y0187454D02*
X0159800Y0187454D01*
X0160200Y0187454D02*
X0184591Y0187454D01*
X0184591Y0187500D02*
X0184591Y0187173D01*
X0184693Y0186526D01*
X0184896Y0185903D01*
X0185193Y0185320D01*
X0185578Y0184791D01*
X0186041Y0184328D01*
X0186570Y0183943D01*
X0187153Y0183646D01*
X0187776Y0183443D01*
X0188423Y0183341D01*
X0188750Y0183341D01*
X0189077Y0183341D01*
X0189724Y0183443D01*
X0190347Y0183646D01*
X0190930Y0183943D01*
X0191459Y0184328D01*
X0191922Y0184791D01*
X0192307Y0185320D01*
X0192604Y0185903D01*
X0192807Y0186526D01*
X0192909Y0187173D01*
X0192909Y0187500D01*
X0192909Y0187827D01*
X0192807Y0188474D01*
X0192604Y0189097D01*
X0192307Y0189680D01*
X0191922Y0190209D01*
X0191459Y0190672D01*
X0190930Y0191057D01*
X0190347Y0191354D01*
X0189724Y0191557D01*
X0189077Y0191659D01*
X0188750Y0191659D01*
X0188750Y0187500D01*
X0188750Y0187500D01*
X0192909Y0187500D01*
X0188750Y0187500D01*
X0188750Y0187500D01*
X0188750Y0187500D01*
X0184591Y0187500D01*
X0184591Y0187827D01*
X0184693Y0188474D01*
X0184896Y0189097D01*
X0185193Y0189680D01*
X0185578Y0190209D01*
X0186041Y0190672D01*
X0186570Y0191057D01*
X0187153Y0191354D01*
X0187776Y0191557D01*
X0188423Y0191659D01*
X0188750Y0191659D01*
X0188750Y0187500D01*
X0188750Y0183341D01*
X0188750Y0187500D01*
X0188750Y0187500D01*
X0184591Y0187500D01*
X0184751Y0188653D02*
X0163936Y0188653D01*
X0163360Y0189851D02*
X0169630Y0189851D01*
X0169742Y0189740D02*
X0168805Y0190677D01*
X0168805Y0196333D01*
X0169742Y0197270D01*
X0175398Y0197270D01*
X0176335Y0196333D01*
X0176335Y0190677D01*
X0175398Y0189740D01*
X0169742Y0189740D01*
X0168805Y0191050D02*
X0162064Y0191050D01*
X0160200Y0191050D02*
X0159800Y0191050D01*
X0159800Y0189851D02*
X0160200Y0189851D01*
X0160200Y0188653D02*
X0159800Y0188653D01*
X0160200Y0187300D02*
X0164100Y0187300D01*
X0164100Y0187177D01*
X0163999Y0186540D01*
X0163800Y0185926D01*
X0163507Y0185351D01*
X0163127Y0184829D01*
X0162671Y0184373D01*
X0162149Y0183993D01*
X0161574Y0183700D01*
X0160960Y0183501D01*
X0160323Y0183400D01*
X0160200Y0183400D01*
X0160200Y0187300D01*
X0160200Y0186256D02*
X0159800Y0186256D01*
X0159800Y0185057D02*
X0160200Y0185057D01*
X0160200Y0183859D02*
X0159800Y0183859D01*
X0158116Y0183859D02*
X0131923Y0183859D01*
X0133355Y0185057D02*
X0156707Y0185057D01*
X0158850Y0181462D02*
X0131150Y0181462D01*
X0130816Y0181600D02*
X0129184Y0181600D01*
X0127678Y0180976D01*
X0126524Y0179822D01*
X0125900Y0178316D01*
X0125900Y0176684D01*
X0126524Y0175178D01*
X0127678Y0174024D01*
X0129184Y0173400D01*
X0130816Y0173400D01*
X0132322Y0174024D01*
X0133476Y0175178D01*
X0134100Y0176684D01*
X0134100Y0178316D01*
X0133476Y0179822D01*
X0132322Y0180976D01*
X0130816Y0181600D01*
X0128850Y0181462D02*
X0124072Y0181462D01*
X0124159Y0181673D02*
X0123526Y0180144D01*
X0122356Y0178974D01*
X0120827Y0178341D01*
X0119173Y0178341D01*
X0117644Y0178974D01*
X0116474Y0180144D01*
X0115841Y0181673D01*
X0115841Y0183327D01*
X0116474Y0184856D01*
X0117644Y0186026D01*
X0119173Y0186659D01*
X0120827Y0186659D01*
X0122356Y0186026D01*
X0123526Y0184856D01*
X0124159Y0183327D01*
X0124159Y0181673D01*
X0124159Y0182660D02*
X0234683Y0182660D01*
X0234683Y0181462D02*
X0174899Y0181462D01*
X0175112Y0181392D02*
X0174484Y0181597D01*
X0173831Y0181700D01*
X0173687Y0181700D01*
X0173687Y0177687D01*
X0173313Y0177687D01*
X0173313Y0177313D01*
X0169300Y0177313D01*
X0169300Y0177169D01*
X0169403Y0176516D01*
X0169608Y0175888D01*
X0169908Y0175299D01*
X0170296Y0174764D01*
X0170764Y0174296D01*
X0171299Y0173908D01*
X0171888Y0173608D01*
X0172516Y0173403D01*
X0173169Y0173300D01*
X0173313Y0173300D01*
X0173313Y0177313D01*
X0173687Y0177313D01*
X0173687Y0173300D01*
X0173831Y0173300D01*
X0174484Y0173403D01*
X0175112Y0173608D01*
X0175701Y0173908D01*
X0176236Y0174296D01*
X0176704Y0174764D01*
X0177092Y0175299D01*
X0177392Y0175888D01*
X0177597Y0176516D01*
X0177700Y0177169D01*
X0177700Y0177313D01*
X0173687Y0177313D01*
X0173687Y0177687D01*
X0177700Y0177687D01*
X0177700Y0177831D01*
X0177597Y0178484D01*
X0177392Y0179112D01*
X0177092Y0179701D01*
X0176704Y0180236D01*
X0176236Y0180704D01*
X0175701Y0181092D01*
X0175112Y0181392D01*
X0173687Y0181462D02*
X0173313Y0181462D01*
X0173313Y0181700D02*
X0173169Y0181700D01*
X0172516Y0181597D01*
X0171888Y0181392D01*
X0171299Y0181092D01*
X0170764Y0180704D01*
X0170296Y0180236D01*
X0169908Y0179701D01*
X0169608Y0179112D01*
X0169403Y0178484D01*
X0169300Y0177831D01*
X0169300Y0177687D01*
X0173313Y0177687D01*
X0173313Y0181700D01*
X0172101Y0181462D02*
X0161150Y0181462D01*
X0160816Y0181600D02*
X0159184Y0181600D01*
X0157678Y0180976D01*
X0156524Y0179822D01*
X0155900Y0178316D01*
X0155900Y0176684D01*
X0156524Y0175178D01*
X0157678Y0174024D01*
X0159184Y0173400D01*
X0160816Y0173400D01*
X0162322Y0174024D01*
X0163476Y0175178D01*
X0164100Y0176684D01*
X0164100Y0178316D01*
X0163476Y0179822D01*
X0162322Y0180976D01*
X0160816Y0181600D01*
X0161884Y0183859D02*
X0186736Y0183859D01*
X0185384Y0185057D02*
X0163293Y0185057D01*
X0163907Y0186256D02*
X0184781Y0186256D01*
X0185317Y0189851D02*
X0181374Y0189851D01*
X0181528Y0189882D02*
X0182214Y0190166D01*
X0182830Y0190578D01*
X0183355Y0191102D01*
X0183767Y0191719D01*
X0184051Y0192404D01*
X0184195Y0193132D01*
X0184195Y0193502D01*
X0180430Y0193502D01*
X0180430Y0189737D01*
X0180801Y0189737D01*
X0181528Y0189882D01*
X0180430Y0189851D02*
X0180430Y0189851D01*
X0180430Y0189737D02*
X0180430Y0193502D01*
X0180430Y0193502D01*
X0180430Y0193503D01*
X0180430Y0197268D01*
X0180801Y0197268D01*
X0181528Y0197123D01*
X0182214Y0196839D01*
X0182830Y0196427D01*
X0183355Y0195903D01*
X0183767Y0195286D01*
X0184051Y0194601D01*
X0184195Y0193873D01*
X0184195Y0193503D01*
X0180430Y0193503D01*
X0180430Y0193503D01*
X0180430Y0197268D01*
X0180059Y0197268D01*
X0179332Y0197123D01*
X0178646Y0196839D01*
X0178030Y0196427D01*
X0177505Y0195903D01*
X0177093Y0195286D01*
X0176809Y0194601D01*
X0176665Y0193873D01*
X0176665Y0193503D01*
X0180430Y0193503D01*
X0180430Y0193502D01*
X0176665Y0193502D01*
X0176665Y0193132D01*
X0176809Y0192404D01*
X0177093Y0191719D01*
X0177505Y0191102D01*
X0178030Y0190578D01*
X0178646Y0190166D01*
X0179332Y0189882D01*
X0180059Y0189737D01*
X0180430Y0189737D01*
X0179486Y0189851D02*
X0175510Y0189851D01*
X0176335Y0191050D02*
X0177558Y0191050D01*
X0176874Y0192248D02*
X0176335Y0192248D01*
X0176335Y0193447D02*
X0176665Y0193447D01*
X0176828Y0194645D02*
X0176335Y0194645D01*
X0176335Y0195844D02*
X0177466Y0195844D01*
X0179136Y0197042D02*
X0175626Y0197042D01*
X0180430Y0197042D02*
X0180430Y0197042D01*
X0180430Y0195844D02*
X0180430Y0195844D01*
X0180430Y0194645D02*
X0180430Y0194645D01*
X0180430Y0193447D02*
X0180430Y0193447D01*
X0180430Y0192248D02*
X0180430Y0192248D01*
X0180430Y0191050D02*
X0180430Y0191050D01*
X0183302Y0191050D02*
X0186560Y0191050D01*
X0188750Y0191050D02*
X0188750Y0191050D01*
X0188750Y0189851D02*
X0188750Y0189851D01*
X0188750Y0188653D02*
X0188750Y0188653D01*
X0188750Y0187454D02*
X0188750Y0187454D01*
X0188750Y0186256D02*
X0188750Y0186256D01*
X0188750Y0185057D02*
X0188750Y0185057D01*
X0188750Y0183859D02*
X0188750Y0183859D01*
X0190764Y0183859D02*
X0234683Y0183859D01*
X0234683Y0185057D02*
X0192116Y0185057D01*
X0192719Y0186256D02*
X0234683Y0186256D01*
X0234683Y0187454D02*
X0192909Y0187454D01*
X0192749Y0188653D02*
X0234683Y0188653D01*
X0234683Y0189851D02*
X0192183Y0189851D01*
X0190940Y0191050D02*
X0234683Y0191050D01*
X0234683Y0192248D02*
X0183986Y0192248D01*
X0184195Y0193447D02*
X0234683Y0193447D01*
X0234683Y0194645D02*
X0184032Y0194645D01*
X0183394Y0195844D02*
X0234683Y0195844D01*
X0234683Y0197042D02*
X0181724Y0197042D01*
X0176677Y0180263D02*
X0234683Y0180263D01*
X0234683Y0179065D02*
X0206026Y0179065D01*
X0206096Y0179051D02*
X0205368Y0179195D01*
X0204998Y0179195D01*
X0204998Y0175430D01*
X0208763Y0175430D01*
X0208763Y0175801D01*
X0208618Y0176528D01*
X0208334Y0177214D01*
X0207922Y0177830D01*
X0207398Y0178355D01*
X0206781Y0178767D01*
X0206096Y0179051D01*
X0204998Y0179065D02*
X0204997Y0179065D01*
X0204997Y0179195D02*
X0204627Y0179195D01*
X0203899Y0179051D01*
X0203214Y0178767D01*
X0202597Y0178355D01*
X0202073Y0177830D01*
X0201661Y0177214D01*
X0201377Y0176528D01*
X0201232Y0175801D01*
X0201232Y0175430D01*
X0204997Y0175430D01*
X0201232Y0175430D01*
X0201232Y0175059D01*
X0201377Y0174332D01*
X0201661Y0173646D01*
X0202073Y0173030D01*
X0202597Y0172505D01*
X0203214Y0172093D01*
X0203899Y0171809D01*
X0204627Y0171665D01*
X0204997Y0171665D01*
X0204997Y0175430D01*
X0204997Y0175430D01*
X0204997Y0179195D01*
X0203969Y0179065D02*
X0177408Y0179065D01*
X0177694Y0177866D02*
X0202109Y0177866D01*
X0201435Y0176668D02*
X0177620Y0176668D01*
X0177179Y0175469D02*
X0201232Y0175469D01*
X0201402Y0174270D02*
X0176200Y0174270D01*
X0173687Y0174270D02*
X0173313Y0174270D01*
X0173313Y0175469D02*
X0173687Y0175469D01*
X0173687Y0176668D02*
X0173313Y0176668D01*
X0173313Y0177866D02*
X0173687Y0177866D01*
X0173687Y0179065D02*
X0173313Y0179065D01*
X0173313Y0180263D02*
X0173687Y0180263D01*
X0170323Y0180263D02*
X0163035Y0180263D01*
X0163790Y0179065D02*
X0169592Y0179065D01*
X0169306Y0177866D02*
X0164100Y0177866D01*
X0164093Y0176668D02*
X0169379Y0176668D01*
X0169821Y0175469D02*
X0163597Y0175469D01*
X0162569Y0174270D02*
X0170800Y0174270D01*
X0172665Y0171700D02*
X0171121Y0171061D01*
X0169939Y0169879D01*
X0169300Y0168335D01*
X0169300Y0166665D01*
X0169939Y0165121D01*
X0171121Y0163939D01*
X0172665Y0163300D01*
X0174335Y0163300D01*
X0175879Y0163939D01*
X0177061Y0165121D01*
X0177700Y0166665D01*
X0177700Y0168335D01*
X0177061Y0169879D01*
X0175879Y0171061D01*
X0174335Y0171700D01*
X0172665Y0171700D01*
X0170735Y0170675D02*
X0164088Y0170675D01*
X0164100Y0170663D02*
X0163163Y0171600D01*
X0156837Y0171600D01*
X0155900Y0170663D01*
X0155900Y0164337D01*
X0156837Y0163400D01*
X0163163Y0163400D01*
X0164100Y0164337D01*
X0164100Y0170663D01*
X0164100Y0169476D02*
X0169773Y0169476D01*
X0169300Y0168278D02*
X0164100Y0168278D01*
X0164100Y0167079D02*
X0169300Y0167079D01*
X0169625Y0165881D02*
X0164100Y0165881D01*
X0164100Y0164682D02*
X0170378Y0164682D01*
X0172221Y0163484D02*
X0163247Y0163484D01*
X0169677Y0156195D02*
X0168740Y0155258D01*
X0168740Y0149602D01*
X0169677Y0148665D01*
X0175333Y0148665D01*
X0176270Y0149602D01*
X0176270Y0155258D01*
X0175333Y0156195D01*
X0169677Y0156195D01*
X0168740Y0155094D02*
X0146319Y0155094D01*
X0146284Y0155224D02*
X0146074Y0155589D01*
X0145776Y0155887D01*
X0145411Y0156097D01*
X0145004Y0156206D01*
X0141733Y0156206D01*
X0141733Y0151546D01*
X0140767Y0151546D01*
X0140767Y0156206D01*
X0137496Y0156206D01*
X0137089Y0156097D01*
X0136724Y0155887D01*
X0136426Y0155589D01*
X0136216Y0155224D01*
X0136107Y0154817D01*
X0136107Y0151546D01*
X0140767Y0151546D01*
X0140767Y0150580D01*
X0136107Y0150580D01*
X0136107Y0147309D01*
X0136216Y0146902D01*
X0136426Y0146537D01*
X0136724Y0146239D01*
X0137089Y0146029D01*
X0137496Y0145920D01*
X0140767Y0145920D01*
X0140767Y0150580D01*
X0141733Y0150580D01*
X0141733Y0151546D01*
X0146393Y0151546D01*
X0146393Y0154817D01*
X0146284Y0155224D01*
X0146393Y0153896D02*
X0168740Y0153896D01*
X0168740Y0152697D02*
X0146393Y0152697D01*
X0146393Y0150580D02*
X0141733Y0150580D01*
X0141733Y0145920D01*
X0145004Y0145920D01*
X0145411Y0146029D01*
X0145776Y0146239D01*
X0146074Y0146537D01*
X0146284Y0146902D01*
X0146393Y0147309D01*
X0146393Y0150580D01*
X0146393Y0150300D02*
X0168740Y0150300D01*
X0168740Y0151499D02*
X0141733Y0151499D01*
X0140767Y0151499D02*
X0126393Y0151499D01*
X0126393Y0152086D02*
X0125610Y0153976D01*
X0124163Y0155423D01*
X0122273Y0156206D01*
X0120227Y0156206D01*
X0118337Y0155423D01*
X0116890Y0153976D01*
X0116107Y0152086D01*
X0116107Y0150040D01*
X0116890Y0148150D01*
X0118337Y0146703D01*
X0120227Y0145920D01*
X0122273Y0145920D01*
X0124163Y0146703D01*
X0125610Y0148150D01*
X0126393Y0150040D01*
X0126393Y0152086D01*
X0126140Y0152697D02*
X0136107Y0152697D01*
X0136107Y0153896D02*
X0125644Y0153896D01*
X0124492Y0155094D02*
X0136181Y0155094D01*
X0140767Y0155094D02*
X0141733Y0155094D01*
X0141733Y0153896D02*
X0140767Y0153896D01*
X0140767Y0152697D02*
X0141733Y0152697D01*
X0141733Y0150300D02*
X0140767Y0150300D01*
X0140767Y0149102D02*
X0141733Y0149102D01*
X0141733Y0147903D02*
X0140767Y0147903D01*
X0140767Y0146705D02*
X0141733Y0146705D01*
X0146170Y0146705D02*
X0169400Y0146705D01*
X0169578Y0146970D02*
X0169166Y0146354D01*
X0168882Y0145668D01*
X0168737Y0144941D01*
X0168737Y0144570D01*
X0172502Y0144570D01*
X0168737Y0144570D01*
X0168737Y0144199D01*
X0168882Y0143472D01*
X0169166Y0142786D01*
X0169578Y0142170D01*
X0170102Y0141645D01*
X0170719Y0141233D01*
X0171404Y0140949D01*
X0172132Y0140805D01*
X0172502Y0140805D01*
X0172502Y0144570D01*
X0172502Y0144570D01*
X0172502Y0148335D01*
X0172132Y0148335D01*
X0171404Y0148191D01*
X0170719Y0147907D01*
X0170102Y0147495D01*
X0169578Y0146970D01*
X0170714Y0147903D02*
X0146393Y0147903D01*
X0146393Y0149102D02*
X0169240Y0149102D01*
X0168850Y0145506D02*
X0114200Y0145506D01*
X0114200Y0144308D02*
X0168737Y0144308D01*
X0169032Y0143109D02*
X0114200Y0143109D01*
X0114200Y0141911D02*
X0169837Y0141911D01*
X0172502Y0141911D02*
X0172503Y0141911D01*
X0172503Y0140805D02*
X0172873Y0140805D01*
X0173601Y0140949D01*
X0174286Y0141233D01*
X0174903Y0141645D01*
X0175427Y0142170D01*
X0175839Y0142786D01*
X0176123Y0143472D01*
X0176268Y0144199D01*
X0176268Y0144570D01*
X0176268Y0144941D01*
X0176123Y0145668D01*
X0175839Y0146354D01*
X0175427Y0146970D01*
X0174903Y0147495D01*
X0174286Y0147907D01*
X0173601Y0148191D01*
X0172873Y0148335D01*
X0172503Y0148335D01*
X0172503Y0144570D01*
X0176268Y0144570D01*
X0172503Y0144570D01*
X0172503Y0144570D01*
X0172502Y0144570D01*
X0172503Y0144570D01*
X0172503Y0140805D01*
X0172502Y0143109D02*
X0172503Y0143109D01*
X0172502Y0144308D02*
X0172503Y0144308D01*
X0172502Y0145506D02*
X0172503Y0145506D01*
X0172502Y0146705D02*
X0172503Y0146705D01*
X0172502Y0147903D02*
X0172503Y0147903D01*
X0174291Y0147903D02*
X0234683Y0147903D01*
X0234683Y0146705D02*
X0175605Y0146705D01*
X0176155Y0145506D02*
X0234683Y0145506D01*
X0234683Y0144308D02*
X0176268Y0144308D01*
X0175973Y0143109D02*
X0234683Y0143109D01*
X0234683Y0141911D02*
X0175168Y0141911D01*
X0175770Y0149102D02*
X0182882Y0149102D01*
X0182762Y0149151D02*
X0184214Y0148550D01*
X0185786Y0148550D01*
X0187237Y0149151D01*
X0188349Y0150263D01*
X0188950Y0151714D01*
X0188950Y0153286D01*
X0188349Y0154737D01*
X0187237Y0155849D01*
X0185786Y0156450D01*
X0184214Y0156450D01*
X0182762Y0155849D01*
X0181651Y0154737D01*
X0181050Y0153286D01*
X0181050Y0151714D01*
X0181651Y0150263D01*
X0182762Y0149151D01*
X0181636Y0150300D02*
X0176270Y0150300D01*
X0176270Y0151499D02*
X0181139Y0151499D01*
X0181050Y0152697D02*
X0176270Y0152697D01*
X0176270Y0153896D02*
X0181303Y0153896D01*
X0182008Y0155094D02*
X0176270Y0155094D01*
X0174779Y0163484D02*
X0187578Y0163484D01*
X0187923Y0163341D02*
X0189577Y0163341D01*
X0191106Y0163974D01*
X0192276Y0165144D01*
X0192909Y0166673D01*
X0192909Y0168327D01*
X0192276Y0169856D01*
X0191106Y0171026D01*
X0189577Y0171659D01*
X0187923Y0171659D01*
X0186394Y0171026D01*
X0185224Y0169856D01*
X0184591Y0168327D01*
X0184591Y0166673D01*
X0185224Y0165144D01*
X0186394Y0163974D01*
X0187923Y0163341D01*
X0189922Y0163484D02*
X0234683Y0163484D01*
X0234683Y0164682D02*
X0208701Y0164682D01*
X0208760Y0164742D02*
X0208760Y0170398D01*
X0207823Y0171335D01*
X0202167Y0171335D01*
X0201230Y0170398D01*
X0201230Y0164742D01*
X0202167Y0163805D01*
X0207823Y0163805D01*
X0208760Y0164742D01*
X0208760Y0165881D02*
X0234683Y0165881D01*
X0234683Y0167079D02*
X0208760Y0167079D01*
X0208760Y0168278D02*
X0234683Y0168278D01*
X0234683Y0169476D02*
X0208760Y0169476D01*
X0208483Y0170675D02*
X0234683Y0170675D01*
X0234683Y0171873D02*
X0206251Y0171873D01*
X0206096Y0171809D02*
X0206781Y0172093D01*
X0207398Y0172505D01*
X0207922Y0173030D01*
X0208334Y0173646D01*
X0208618Y0174332D01*
X0208763Y0175059D01*
X0208763Y0175430D01*
X0204998Y0175430D01*
X0204998Y0175430D01*
X0204997Y0175430D01*
X0204998Y0175430D01*
X0204998Y0171665D01*
X0205368Y0171665D01*
X0206096Y0171809D01*
X0204998Y0171873D02*
X0204997Y0171873D01*
X0204997Y0173072D02*
X0204998Y0173072D01*
X0204997Y0174270D02*
X0204998Y0174270D01*
X0204997Y0175469D02*
X0204998Y0175469D01*
X0204997Y0176668D02*
X0204998Y0176668D01*
X0204997Y0177866D02*
X0204998Y0177866D01*
X0207886Y0177866D02*
X0234683Y0177866D01*
X0234683Y0176668D02*
X0208560Y0176668D01*
X0208763Y0175469D02*
X0234683Y0175469D01*
X0234683Y0174270D02*
X0208593Y0174270D01*
X0207950Y0173072D02*
X0234683Y0173072D01*
X0234683Y0162285D02*
X0123765Y0162285D01*
X0123765Y0161751D02*
X0123192Y0160367D01*
X0122133Y0159308D01*
X0120749Y0158735D01*
X0119251Y0158735D01*
X0117867Y0159308D01*
X0116808Y0160367D01*
X0116235Y0161751D01*
X0116235Y0163249D01*
X0116808Y0164633D01*
X0117867Y0165692D01*
X0119251Y0166265D01*
X0120749Y0166265D01*
X0122133Y0165692D01*
X0123192Y0164633D01*
X0123765Y0163249D01*
X0123765Y0161751D01*
X0123490Y0161087D02*
X0234683Y0161087D01*
X0234683Y0159888D02*
X0122713Y0159888D01*
X0123668Y0163484D02*
X0128982Y0163484D01*
X0129184Y0163400D02*
X0127678Y0164024D01*
X0126524Y0165178D01*
X0125900Y0166684D01*
X0125900Y0168316D01*
X0126524Y0169822D01*
X0127678Y0170976D01*
X0129184Y0171600D01*
X0130816Y0171600D01*
X0132322Y0170976D01*
X0133476Y0169822D01*
X0134100Y0168316D01*
X0134100Y0166684D01*
X0133476Y0165178D01*
X0132322Y0164024D01*
X0130816Y0163400D01*
X0129184Y0163400D01*
X0131018Y0163484D02*
X0156753Y0163484D01*
X0155900Y0164682D02*
X0132981Y0164682D01*
X0133767Y0165881D02*
X0155900Y0165881D01*
X0155900Y0167079D02*
X0134100Y0167079D01*
X0134100Y0168278D02*
X0155900Y0168278D01*
X0155900Y0169476D02*
X0133619Y0169476D01*
X0132623Y0170675D02*
X0155912Y0170675D01*
X0157431Y0174270D02*
X0132569Y0174270D01*
X0133597Y0175469D02*
X0156403Y0175469D01*
X0155907Y0176668D02*
X0134093Y0176668D01*
X0134100Y0177866D02*
X0155900Y0177866D01*
X0156210Y0179065D02*
X0133790Y0179065D01*
X0133035Y0180263D02*
X0156965Y0180263D01*
X0160928Y0193447D02*
X0168805Y0193447D01*
X0168805Y0194645D02*
X0162943Y0194645D01*
X0163752Y0195844D02*
X0168805Y0195844D01*
X0169514Y0197042D02*
X0164100Y0197042D01*
X0164100Y0198241D02*
X0234683Y0198241D01*
X0234683Y0199439D02*
X0163635Y0199439D01*
X0162661Y0200638D02*
X0234683Y0200638D01*
X0234683Y0201836D02*
X0114200Y0201836D01*
X0114200Y0200638D02*
X0117256Y0200638D01*
X0117644Y0201026D02*
X0116474Y0199856D01*
X0115841Y0198327D01*
X0115841Y0196673D01*
X0116474Y0195144D01*
X0117644Y0193974D01*
X0119173Y0193341D01*
X0120827Y0193341D01*
X0122356Y0193974D01*
X0123526Y0195144D01*
X0124159Y0196673D01*
X0124159Y0198327D01*
X0123526Y0199856D01*
X0122356Y0201026D01*
X0120827Y0201659D01*
X0119173Y0201659D01*
X0117644Y0201026D01*
X0116302Y0199439D02*
X0114200Y0199439D01*
X0114200Y0198241D02*
X0115841Y0198241D01*
X0115841Y0197042D02*
X0114200Y0197042D01*
X0114200Y0195844D02*
X0116184Y0195844D01*
X0116973Y0194645D02*
X0114200Y0194645D01*
X0114200Y0193447D02*
X0118917Y0193447D01*
X0121083Y0193447D02*
X0129072Y0193447D01*
X0127057Y0194645D02*
X0123027Y0194645D01*
X0123816Y0195844D02*
X0126248Y0195844D01*
X0125900Y0197042D02*
X0124159Y0197042D01*
X0124159Y0198241D02*
X0125900Y0198241D01*
X0126365Y0199439D02*
X0123698Y0199439D01*
X0122744Y0200638D02*
X0127339Y0200638D01*
X0127468Y0204233D02*
X0121953Y0204233D01*
X0123219Y0205432D02*
X0126419Y0205432D01*
X0125922Y0206630D02*
X0123715Y0206630D01*
X0123765Y0207829D02*
X0125900Y0207829D01*
X0126195Y0209027D02*
X0123443Y0209027D01*
X0122599Y0210226D02*
X0126928Y0210226D01*
X0126682Y0215020D02*
X0122845Y0215020D01*
X0123545Y0216218D02*
X0126093Y0216218D01*
X0125900Y0217417D02*
X0123765Y0217417D01*
X0123614Y0218615D02*
X0126024Y0218615D01*
X0126521Y0219814D02*
X0123011Y0219814D01*
X0121360Y0221012D02*
X0127766Y0221012D01*
X0127094Y0224608D02*
X0122990Y0224608D01*
X0123800Y0225806D02*
X0126264Y0225806D01*
X0125900Y0227005D02*
X0124159Y0227005D01*
X0124159Y0228203D02*
X0125900Y0228203D01*
X0126350Y0229402D02*
X0123714Y0229402D01*
X0122781Y0230601D02*
X0127302Y0230601D01*
X0127506Y0234196D02*
X0122578Y0234196D01*
X0123630Y0235395D02*
X0126434Y0235395D01*
X0125938Y0236593D02*
X0124126Y0236593D01*
X0124159Y0237792D02*
X0125900Y0237792D01*
X0126179Y0238990D02*
X0123884Y0238990D01*
X0123193Y0240189D02*
X0126890Y0240189D01*
X0131730Y0250751D02*
X0132407Y0250644D01*
X0132661Y0250644D01*
X0132661Y0254911D01*
X0132839Y0254911D01*
X0132839Y0255089D01*
X0137106Y0255089D01*
X0137106Y0255343D01*
X0136999Y0256020D01*
X0136787Y0256672D01*
X0136475Y0257283D01*
X0136072Y0257838D01*
X0135588Y0258322D01*
X0135033Y0258725D01*
X0134422Y0259037D01*
X0133770Y0259249D01*
X0133093Y0259356D01*
X0132839Y0259356D01*
X0132839Y0255089D01*
X0132661Y0255089D01*
X0132661Y0259356D01*
X0132407Y0259356D01*
X0131730Y0259249D01*
X0131078Y0259037D01*
X0130467Y0258725D01*
X0129912Y0258322D01*
X0129427Y0257838D01*
X0129024Y0257283D01*
X0128713Y0256672D01*
X0128501Y0256020D01*
X0128394Y0255343D01*
X0128394Y0255089D01*
X0132661Y0255089D01*
X0132661Y0254911D01*
X0128394Y0254911D01*
X0128394Y0254657D01*
X0128501Y0253980D01*
X0128713Y0253328D01*
X0129024Y0252717D01*
X0129427Y0252162D01*
X0129912Y0251677D01*
X0130467Y0251274D01*
X0131078Y0250963D01*
X0131730Y0250751D01*
X0131054Y0250975D02*
X0114750Y0250975D01*
X0114200Y0249777D02*
X0234683Y0249777D01*
X0234683Y0250975D02*
X0134446Y0250975D01*
X0134422Y0250963D02*
X0135033Y0251274D01*
X0135588Y0251677D01*
X0136072Y0252162D01*
X0136475Y0252717D01*
X0136787Y0253328D01*
X0136999Y0253980D01*
X0137106Y0254657D01*
X0137106Y0254911D01*
X0132839Y0254911D01*
X0132839Y0250644D01*
X0133093Y0250644D01*
X0133770Y0250751D01*
X0134422Y0250963D01*
X0132839Y0250975D02*
X0132661Y0250975D01*
X0132661Y0252174D02*
X0132839Y0252174D01*
X0132839Y0253372D02*
X0132661Y0253372D01*
X0132661Y0254571D02*
X0132839Y0254571D01*
X0132839Y0255769D02*
X0132661Y0255769D01*
X0132661Y0256968D02*
X0132839Y0256968D01*
X0132839Y0258166D02*
X0132661Y0258166D01*
X0129756Y0258166D02*
X0115356Y0258166D01*
X0115356Y0256968D02*
X0128864Y0256968D01*
X0128462Y0255769D02*
X0115356Y0255769D01*
X0115356Y0254571D02*
X0128408Y0254571D01*
X0128699Y0253372D02*
X0115356Y0253372D01*
X0115356Y0252174D02*
X0129419Y0252174D01*
X0136081Y0252174D02*
X0234683Y0252174D01*
X0234683Y0253372D02*
X0136801Y0253372D01*
X0137092Y0254571D02*
X0234683Y0254571D01*
X0234683Y0255769D02*
X0137038Y0255769D01*
X0136636Y0256968D02*
X0234683Y0256968D01*
X0234683Y0258166D02*
X0135744Y0258166D01*
X0142103Y0273747D02*
X0114200Y0273747D01*
X0114200Y0274945D02*
X0139997Y0274945D01*
X0140553Y0274389D02*
X0142661Y0273516D01*
X0144942Y0273516D01*
X0147049Y0274389D01*
X0148662Y0276002D01*
X0149535Y0278109D01*
X0149535Y0280391D01*
X0148662Y0282498D01*
X0147049Y0284111D01*
X0144942Y0284984D01*
X0142661Y0284984D01*
X0140553Y0284111D01*
X0138940Y0282498D01*
X0138067Y0280391D01*
X0138067Y0278109D01*
X0138940Y0276002D01*
X0140553Y0274389D01*
X0138881Y0276144D02*
X0114200Y0276144D01*
X0114200Y0277342D02*
X0138385Y0277342D01*
X0138067Y0278541D02*
X0114200Y0278541D01*
X0114200Y0279739D02*
X0138067Y0279739D01*
X0138294Y0280938D02*
X0114200Y0280938D01*
X0114200Y0282137D02*
X0138791Y0282137D01*
X0139777Y0283335D02*
X0114014Y0283335D01*
X0113242Y0284534D02*
X0141573Y0284534D01*
X0146029Y0284534D02*
X0205471Y0284534D01*
X0204451Y0284111D02*
X0202838Y0282498D01*
X0201965Y0280391D01*
X0201965Y0278109D01*
X0202838Y0276002D01*
X0204451Y0274389D01*
X0206558Y0273516D01*
X0208839Y0273516D01*
X0210947Y0274389D01*
X0212560Y0276002D01*
X0213433Y0278109D01*
X0213433Y0280391D01*
X0212560Y0282498D01*
X0210947Y0284111D01*
X0208839Y0284984D01*
X0206558Y0284984D01*
X0204451Y0284111D01*
X0203675Y0283335D02*
X0147825Y0283335D01*
X0148812Y0282137D02*
X0202688Y0282137D01*
X0202192Y0280938D02*
X0149308Y0280938D01*
X0149535Y0279739D02*
X0201965Y0279739D01*
X0201965Y0278541D02*
X0149535Y0278541D01*
X0149217Y0277342D02*
X0202283Y0277342D01*
X0202779Y0276144D02*
X0148721Y0276144D01*
X0147606Y0274945D02*
X0203894Y0274945D01*
X0206001Y0273747D02*
X0145499Y0273747D01*
X0128909Y0292786D02*
X0129336Y0293818D01*
X0129625Y0294897D01*
X0129766Y0295963D01*
X0121850Y0295963D01*
X0121850Y0297163D01*
X0120650Y0297163D01*
X0120650Y0305079D01*
X0119584Y0304938D01*
X0118505Y0304649D01*
X0117473Y0304222D01*
X0116506Y0303663D01*
X0115619Y0302983D01*
X0114830Y0302193D01*
X0114150Y0301307D01*
X0113591Y0300340D01*
X0113164Y0299308D01*
X0112875Y0298229D01*
X0112734Y0297163D01*
X0120650Y0297163D01*
X0120650Y0295963D01*
X0112734Y0295963D01*
X0112875Y0294897D01*
X0113164Y0293818D01*
X0113591Y0292786D01*
X0114150Y0291819D01*
X0114830Y0290932D01*
X0115619Y0290143D01*
X0116506Y0289463D01*
X0117473Y0288904D01*
X0118505Y0288477D01*
X0119584Y0288188D01*
X0120650Y0288047D01*
X0120650Y0295963D01*
X0121850Y0295963D01*
X0121850Y0288047D01*
X0122916Y0288188D01*
X0123995Y0288477D01*
X0125027Y0288904D01*
X0125994Y0289463D01*
X0126880Y0290143D01*
X0127670Y0290932D01*
X0128350Y0291819D01*
X0128909Y0292786D01*
X0128966Y0292923D02*
X0234683Y0292923D01*
X0234683Y0291725D02*
X0128278Y0291725D01*
X0127264Y0290526D02*
X0234683Y0290526D01*
X0234683Y0289328D02*
X0125760Y0289328D01*
X0122472Y0288129D02*
X0234683Y0288129D01*
X0234683Y0286931D02*
X0111950Y0286931D01*
X0111950Y0288129D02*
X0120028Y0288129D01*
X0120650Y0288129D02*
X0121850Y0288129D01*
X0121850Y0289328D02*
X0120650Y0289328D01*
X0120650Y0290526D02*
X0121850Y0290526D01*
X0121850Y0291725D02*
X0120650Y0291725D01*
X0120650Y0292923D02*
X0121850Y0292923D01*
X0121850Y0294122D02*
X0120650Y0294122D01*
X0120650Y0295320D02*
X0121850Y0295320D01*
X0121850Y0296519D02*
X0234683Y0296519D01*
X0234683Y0297717D02*
X0129693Y0297717D01*
X0129625Y0298229D02*
X0129336Y0299308D01*
X0128909Y0300340D01*
X0128350Y0301307D01*
X0127670Y0302193D01*
X0126880Y0302983D01*
X0125994Y0303663D01*
X0125027Y0304222D01*
X0123995Y0304649D01*
X0122916Y0304938D01*
X0121850Y0305079D01*
X0121850Y0297163D01*
X0129766Y0297163D01*
X0129625Y0298229D01*
X0129441Y0298916D02*
X0141696Y0298916D01*
X0142661Y0298516D02*
X0144942Y0298516D01*
X0147049Y0299389D01*
X0148662Y0301002D01*
X0149535Y0303109D01*
X0149535Y0305391D01*
X0148662Y0307498D01*
X0147049Y0309111D01*
X0144942Y0309984D01*
X0142661Y0309984D01*
X0140553Y0309111D01*
X0138940Y0307498D01*
X0138067Y0305391D01*
X0138067Y0303109D01*
X0138940Y0301002D01*
X0140553Y0299389D01*
X0142661Y0298516D01*
X0139828Y0300114D02*
X0129002Y0300114D01*
X0128346Y0301313D02*
X0138812Y0301313D01*
X0138315Y0302511D02*
X0127353Y0302511D01*
X0125914Y0303710D02*
X0138067Y0303710D01*
X0138067Y0304908D02*
X0123029Y0304908D01*
X0121850Y0304908D02*
X0120650Y0304908D01*
X0119471Y0304908D02*
X0111950Y0304908D01*
X0111950Y0303710D02*
X0116586Y0303710D01*
X0115147Y0302511D02*
X0111950Y0302511D01*
X0111950Y0301313D02*
X0114154Y0301313D01*
X0113498Y0300114D02*
X0111950Y0300114D01*
X0111950Y0298916D02*
X0113059Y0298916D01*
X0112807Y0297717D02*
X0111950Y0297717D01*
X0111950Y0296519D02*
X0120650Y0296519D01*
X0120650Y0297717D02*
X0121850Y0297717D01*
X0121850Y0298916D02*
X0120650Y0298916D01*
X0120650Y0300114D02*
X0121850Y0300114D01*
X0121850Y0301313D02*
X0120650Y0301313D01*
X0120650Y0302511D02*
X0121850Y0302511D01*
X0121850Y0303710D02*
X0120650Y0303710D01*
X0115478Y0309702D02*
X0141981Y0309702D01*
X0139946Y0308504D02*
X0114279Y0308504D01*
X0113081Y0307305D02*
X0138860Y0307305D01*
X0138364Y0306107D02*
X0111950Y0306107D01*
X0107625Y0310901D02*
X0007600Y0310901D01*
X0007600Y0312099D02*
X0108824Y0312099D01*
X0110022Y0313298D02*
X0007600Y0313298D01*
X0007600Y0314496D02*
X0111221Y0314496D01*
X0112419Y0315695D02*
X0007600Y0315695D01*
X0007600Y0316893D02*
X0113390Y0316893D01*
X0112894Y0318092D02*
X0007600Y0318092D01*
X0007600Y0319290D02*
X0112729Y0319290D01*
X0112729Y0320489D02*
X0027309Y0320489D01*
X0028911Y0321687D02*
X0112729Y0321687D01*
X0113145Y0322886D02*
X0029254Y0322886D01*
X0029254Y0324084D02*
X0032059Y0324084D01*
X0033951Y0324084D02*
X0035151Y0324084D01*
X0035151Y0325283D02*
X0033951Y0325283D01*
X0033951Y0326481D02*
X0035151Y0326481D01*
X0035151Y0327680D02*
X0033951Y0327680D01*
X0035151Y0328878D02*
X0092715Y0328878D01*
X0092715Y0328109D02*
X0093588Y0326002D01*
X0095201Y0324389D01*
X0097308Y0323516D01*
X0099589Y0323516D01*
X0101697Y0324389D01*
X0103310Y0326002D01*
X0104183Y0328109D01*
X0104183Y0330391D01*
X0103310Y0332498D01*
X0101697Y0334111D01*
X0099589Y0334984D01*
X0097308Y0334984D01*
X0095201Y0334111D01*
X0093588Y0332498D01*
X0092715Y0330391D01*
X0092715Y0328109D01*
X0092893Y0327680D02*
X0040070Y0327680D01*
X0039576Y0326481D02*
X0093389Y0326481D01*
X0094307Y0325283D02*
X0038693Y0325283D01*
X0037043Y0324084D02*
X0095936Y0324084D01*
X0100961Y0324084D02*
X0113642Y0324084D01*
X0114297Y0325283D02*
X0102591Y0325283D01*
X0103508Y0326481D02*
X0115496Y0326481D01*
X0117077Y0327680D02*
X0104005Y0327680D01*
X0104183Y0328878D02*
X0143201Y0328878D01*
X0143201Y0328650D02*
X0138091Y0328650D01*
X0138209Y0327907D01*
X0138487Y0327049D01*
X0138897Y0326245D01*
X0139428Y0325515D01*
X0140066Y0324876D01*
X0140796Y0324346D01*
X0141600Y0323936D01*
X0142458Y0323657D01*
X0143201Y0323540D01*
X0143201Y0328650D01*
X0143201Y0329850D01*
X0138091Y0329850D01*
X0138209Y0330593D01*
X0138487Y0331451D01*
X0138897Y0332255D01*
X0139428Y0332985D01*
X0140066Y0333624D01*
X0140796Y0334154D01*
X0141600Y0334564D01*
X0142458Y0334843D01*
X0143201Y0334960D01*
X0143201Y0329850D01*
X0144401Y0329850D01*
X0144401Y0334960D01*
X0145144Y0334843D01*
X0146002Y0334564D01*
X0146806Y0334154D01*
X0147537Y0333624D01*
X0148175Y0332985D01*
X0148705Y0332255D01*
X0149115Y0331451D01*
X0149394Y0330593D01*
X0149511Y0329850D01*
X0144401Y0329850D01*
X0144401Y0328650D01*
X0144401Y0323540D01*
X0145144Y0323657D01*
X0146002Y0323936D01*
X0146806Y0324346D01*
X0147537Y0324876D01*
X0148175Y0325515D01*
X0148705Y0326245D01*
X0149115Y0327049D01*
X0149394Y0327907D01*
X0149511Y0328650D01*
X0144401Y0328650D01*
X0143201Y0328650D01*
X0143201Y0327680D02*
X0144401Y0327680D01*
X0144401Y0328878D02*
X0201965Y0328878D01*
X0201965Y0330077D02*
X0149476Y0330077D01*
X0149172Y0331275D02*
X0202332Y0331275D01*
X0202828Y0332474D02*
X0148546Y0332474D01*
X0147469Y0333672D02*
X0204012Y0333672D01*
X0206286Y0334871D02*
X0144965Y0334871D01*
X0144401Y0334871D02*
X0143201Y0334871D01*
X0142637Y0334871D02*
X0099862Y0334871D01*
X0102135Y0333672D02*
X0140133Y0333672D01*
X0139056Y0332474D02*
X0103320Y0332474D01*
X0103816Y0331275D02*
X0138430Y0331275D01*
X0138127Y0330077D02*
X0104183Y0330077D01*
X0097036Y0334871D02*
X0035715Y0334871D01*
X0035894Y0334843D02*
X0035151Y0334960D01*
X0035151Y0329850D01*
X0040261Y0329850D01*
X0040144Y0330593D01*
X0039865Y0331451D01*
X0039455Y0332255D01*
X0038925Y0332985D01*
X0038287Y0333624D01*
X0037556Y0334154D01*
X0036752Y0334564D01*
X0035894Y0334843D01*
X0035151Y0334871D02*
X0033951Y0334871D01*
X0033387Y0334871D02*
X0029254Y0334871D01*
X0029254Y0336070D02*
X0213030Y0336070D01*
X0213030Y0337268D02*
X0029254Y0337268D01*
X0029254Y0338467D02*
X0213030Y0338467D01*
X0213030Y0339665D02*
X0029254Y0339665D01*
X0029254Y0340864D02*
X0213030Y0340864D01*
X0213030Y0342062D02*
X0029254Y0342062D01*
X0029254Y0343261D02*
X0213030Y0343261D01*
X0213030Y0344459D02*
X0029254Y0344459D01*
X0029254Y0345658D02*
X0213030Y0345658D01*
X0213030Y0346856D02*
X0029254Y0346856D01*
X0029254Y0333672D02*
X0030883Y0333672D01*
X0029806Y0332474D02*
X0029254Y0332474D01*
X0029254Y0326481D02*
X0029527Y0326481D01*
X0029254Y0325283D02*
X0030409Y0325283D01*
X0033951Y0330077D02*
X0035151Y0330077D01*
X0035151Y0331275D02*
X0033951Y0331275D01*
X0033951Y0332474D02*
X0035151Y0332474D01*
X0035151Y0333672D02*
X0033951Y0333672D01*
X0038219Y0333672D02*
X0094762Y0333672D01*
X0093578Y0332474D02*
X0039296Y0332474D01*
X0039922Y0331275D02*
X0093082Y0331275D01*
X0092715Y0330077D02*
X0040226Y0330077D01*
X0035692Y0309984D02*
X0033411Y0309984D01*
X0031303Y0309111D01*
X0029690Y0307498D01*
X0028817Y0305391D01*
X0028817Y0303109D01*
X0029690Y0301002D01*
X0031303Y0299389D01*
X0033411Y0298516D01*
X0035692Y0298516D01*
X0037799Y0299389D01*
X0039412Y0301002D01*
X0040285Y0303109D01*
X0040285Y0305391D01*
X0039412Y0307498D01*
X0037799Y0309111D01*
X0035692Y0309984D01*
X0036372Y0309702D02*
X0096628Y0309702D01*
X0097308Y0309984D02*
X0095201Y0309111D01*
X0093588Y0307498D01*
X0092715Y0305391D01*
X0092715Y0303109D01*
X0093588Y0301002D01*
X0095201Y0299389D01*
X0097308Y0298516D01*
X0099589Y0298516D01*
X0101697Y0299389D01*
X0103310Y0301002D01*
X0104183Y0303109D01*
X0104183Y0305391D01*
X0103310Y0307498D01*
X0101697Y0309111D01*
X0099589Y0309984D01*
X0097308Y0309984D01*
X0100269Y0309702D02*
X0106427Y0309702D01*
X0105702Y0308504D02*
X0102304Y0308504D01*
X0103390Y0307305D02*
X0105550Y0307305D01*
X0105550Y0306107D02*
X0103886Y0306107D01*
X0104183Y0304908D02*
X0105550Y0304908D01*
X0105550Y0303710D02*
X0104183Y0303710D01*
X0103935Y0302511D02*
X0105550Y0302511D01*
X0105550Y0301313D02*
X0103438Y0301313D01*
X0102422Y0300114D02*
X0105550Y0300114D01*
X0105550Y0298916D02*
X0100554Y0298916D01*
X0096344Y0298916D02*
X0036656Y0298916D01*
X0038524Y0300114D02*
X0094476Y0300114D01*
X0093459Y0301313D02*
X0039541Y0301313D01*
X0040037Y0302511D02*
X0092963Y0302511D01*
X0092715Y0303710D02*
X0040285Y0303710D01*
X0040285Y0304908D02*
X0092715Y0304908D01*
X0093012Y0306107D02*
X0039988Y0306107D01*
X0039492Y0307305D02*
X0093508Y0307305D01*
X0094594Y0308504D02*
X0038406Y0308504D01*
X0032731Y0309702D02*
X0007600Y0309702D01*
X0007600Y0308504D02*
X0030696Y0308504D01*
X0029610Y0307305D02*
X0007600Y0307305D01*
X0007600Y0306107D02*
X0029114Y0306107D01*
X0028817Y0304908D02*
X0007600Y0304908D01*
X0007600Y0303710D02*
X0028817Y0303710D01*
X0029065Y0302511D02*
X0007600Y0302511D01*
X0007600Y0301313D02*
X0029562Y0301313D01*
X0030578Y0300114D02*
X0007600Y0300114D01*
X0007600Y0298916D02*
X0032446Y0298916D01*
X0033411Y0284984D02*
X0031303Y0284111D01*
X0029690Y0282498D01*
X0028817Y0280391D01*
X0028817Y0278109D01*
X0029690Y0276002D01*
X0031303Y0274389D01*
X0033411Y0273516D01*
X0035692Y0273516D01*
X0037799Y0274389D01*
X0039412Y0276002D01*
X0040285Y0278109D01*
X0040285Y0280391D01*
X0039412Y0282498D01*
X0037799Y0284111D01*
X0035692Y0284984D01*
X0033411Y0284984D01*
X0032323Y0284534D02*
X0007600Y0284534D01*
X0007600Y0285732D02*
X0105550Y0285732D01*
X0105550Y0284534D02*
X0100677Y0284534D01*
X0101697Y0284111D02*
X0099589Y0284984D01*
X0097308Y0284984D01*
X0095201Y0284111D01*
X0093588Y0282498D01*
X0092715Y0280391D01*
X0092715Y0278109D01*
X0093588Y0276002D01*
X0095201Y0274389D01*
X0097308Y0273516D01*
X0099589Y0273516D01*
X0101697Y0274389D01*
X0103310Y0276002D01*
X0104183Y0278109D01*
X0104183Y0280391D01*
X0103310Y0282498D01*
X0101697Y0284111D01*
X0102473Y0283335D02*
X0105769Y0283335D01*
X0106588Y0282137D02*
X0103459Y0282137D01*
X0103956Y0280938D02*
X0107787Y0280938D01*
X0107800Y0279739D02*
X0104183Y0279739D01*
X0104183Y0278541D02*
X0107800Y0278541D01*
X0107800Y0277342D02*
X0103865Y0277342D01*
X0103369Y0276144D02*
X0107800Y0276144D01*
X0107800Y0274945D02*
X0102253Y0274945D01*
X0100147Y0273747D02*
X0107800Y0273747D01*
X0107800Y0272548D02*
X0007600Y0272548D01*
X0007600Y0271350D02*
X0107800Y0271350D01*
X0107800Y0270151D02*
X0007600Y0270151D01*
X0007600Y0268953D02*
X0107800Y0268953D01*
X0107800Y0267754D02*
X0007600Y0267754D01*
X0007600Y0266556D02*
X0107800Y0266556D01*
X0107800Y0265357D02*
X0007600Y0265357D01*
X0007600Y0264159D02*
X0107800Y0264159D01*
X0107800Y0262960D02*
X0007600Y0262960D01*
X0007600Y0261762D02*
X0107800Y0261762D01*
X0107800Y0260563D02*
X0007600Y0260563D01*
X0007600Y0259365D02*
X0107800Y0259365D01*
X0106644Y0258166D02*
X0007600Y0258166D01*
X0007600Y0256968D02*
X0106644Y0256968D01*
X0106644Y0255769D02*
X0007600Y0255769D01*
X0007600Y0254571D02*
X0106644Y0254571D01*
X0106644Y0253372D02*
X0007600Y0253372D01*
X0007600Y0252174D02*
X0106644Y0252174D01*
X0107250Y0250975D02*
X0092293Y0250975D01*
X0092180Y0251057D02*
X0091597Y0251354D01*
X0090974Y0251557D01*
X0090327Y0251659D01*
X0090000Y0251659D01*
X0090000Y0247500D01*
X0090000Y0247500D01*
X0094159Y0247500D01*
X0094159Y0247827D01*
X0094057Y0248474D01*
X0093854Y0249097D01*
X0093557Y0249680D01*
X0093172Y0250209D01*
X0092709Y0250672D01*
X0092180Y0251057D01*
X0093487Y0249777D02*
X0107800Y0249777D01*
X0107800Y0248578D02*
X0094023Y0248578D01*
X0094159Y0247500D02*
X0090000Y0247500D01*
X0090000Y0247500D01*
X0090000Y0247500D01*
X0085841Y0247500D01*
X0085841Y0247827D01*
X0085943Y0248474D01*
X0086146Y0249097D01*
X0086443Y0249680D01*
X0086828Y0250209D01*
X0087291Y0250672D01*
X0087820Y0251057D01*
X0088403Y0251354D01*
X0089026Y0251557D01*
X0089673Y0251659D01*
X0090000Y0251659D01*
X0090000Y0247500D01*
X0090000Y0243341D01*
X0090327Y0243341D01*
X0090974Y0243443D01*
X0091597Y0243646D01*
X0092180Y0243943D01*
X0092709Y0244328D01*
X0093172Y0244791D01*
X0093557Y0245320D01*
X0093854Y0245903D01*
X0094057Y0246526D01*
X0094159Y0247173D01*
X0094159Y0247500D01*
X0094159Y0247380D02*
X0107800Y0247380D01*
X0107800Y0246181D02*
X0093945Y0246181D01*
X0093312Y0244983D02*
X0107800Y0244983D01*
X0107800Y0243784D02*
X0091868Y0243784D01*
X0090000Y0243784D02*
X0090000Y0243784D01*
X0090000Y0243341D02*
X0090000Y0247500D01*
X0090000Y0247500D01*
X0085841Y0247500D01*
X0085841Y0247173D01*
X0085943Y0246526D01*
X0086146Y0245903D01*
X0086443Y0245320D01*
X0086828Y0244791D01*
X0087291Y0244328D01*
X0087820Y0243943D01*
X0088403Y0243646D01*
X0089026Y0243443D01*
X0089673Y0243341D01*
X0090000Y0243341D01*
X0090000Y0244983D02*
X0090000Y0244983D01*
X0090000Y0246181D02*
X0090000Y0246181D01*
X0090000Y0247380D02*
X0090000Y0247380D01*
X0090000Y0248578D02*
X0090000Y0248578D01*
X0090000Y0249777D02*
X0090000Y0249777D01*
X0090000Y0250975D02*
X0090000Y0250975D01*
X0087707Y0250975D02*
X0007600Y0250975D01*
X0007600Y0249777D02*
X0086513Y0249777D01*
X0085977Y0248578D02*
X0007600Y0248578D01*
X0007600Y0247380D02*
X0085841Y0247380D01*
X0086055Y0246181D02*
X0007600Y0246181D01*
X0007600Y0244983D02*
X0086688Y0244983D01*
X0088132Y0243784D02*
X0007600Y0243784D01*
X0007600Y0242586D02*
X0107800Y0242586D01*
X0114200Y0247380D02*
X0234683Y0247380D01*
X0234683Y0248578D02*
X0114200Y0248578D01*
X0114200Y0259365D02*
X0234683Y0259365D01*
X0234683Y0260563D02*
X0114200Y0260563D01*
X0114200Y0261762D02*
X0234683Y0261762D01*
X0234683Y0262960D02*
X0114200Y0262960D01*
X0114200Y0264159D02*
X0234683Y0264159D01*
X0234683Y0265357D02*
X0114200Y0265357D01*
X0114200Y0266556D02*
X0234683Y0266556D01*
X0234683Y0267754D02*
X0114200Y0267754D01*
X0114200Y0268953D02*
X0234683Y0268953D01*
X0234683Y0270151D02*
X0114200Y0270151D01*
X0114200Y0271350D02*
X0234683Y0271350D01*
X0234683Y0272548D02*
X0114200Y0272548D01*
X0112043Y0285732D02*
X0234683Y0285732D01*
X0234683Y0284534D02*
X0209927Y0284534D01*
X0211723Y0283335D02*
X0234683Y0283335D01*
X0234683Y0282137D02*
X0212709Y0282137D01*
X0213206Y0280938D02*
X0234683Y0280938D01*
X0234683Y0279739D02*
X0213433Y0279739D01*
X0213433Y0278541D02*
X0234683Y0278541D01*
X0234683Y0277342D02*
X0213115Y0277342D01*
X0212619Y0276144D02*
X0234683Y0276144D01*
X0234683Y0274945D02*
X0211503Y0274945D01*
X0209397Y0273747D02*
X0234683Y0273747D01*
X0234683Y0294122D02*
X0129418Y0294122D01*
X0129681Y0295320D02*
X0234683Y0295320D01*
X0234683Y0298916D02*
X0209804Y0298916D01*
X0208839Y0298516D02*
X0210947Y0299389D01*
X0212560Y0301002D01*
X0213433Y0303109D01*
X0213433Y0305391D01*
X0212560Y0307498D01*
X0210947Y0309111D01*
X0208839Y0309984D01*
X0206558Y0309984D01*
X0204451Y0309111D01*
X0202838Y0307498D01*
X0201965Y0305391D01*
X0201965Y0303109D01*
X0202838Y0301002D01*
X0204451Y0299389D01*
X0206558Y0298516D01*
X0208839Y0298516D01*
X0211672Y0300114D02*
X0234683Y0300114D01*
X0234683Y0301313D02*
X0212688Y0301313D01*
X0213185Y0302511D02*
X0234683Y0302511D01*
X0234683Y0303710D02*
X0213433Y0303710D01*
X0213433Y0304908D02*
X0234683Y0304908D01*
X0234683Y0306107D02*
X0213136Y0306107D01*
X0212640Y0307305D02*
X0234683Y0307305D01*
X0234683Y0308504D02*
X0211554Y0308504D01*
X0209519Y0309702D02*
X0234683Y0309702D01*
X0234683Y0310901D02*
X0116676Y0310901D01*
X0117875Y0312099D02*
X0118504Y0312099D01*
X0123996Y0312099D02*
X0234683Y0312099D01*
X0234683Y0313298D02*
X0126414Y0313298D01*
X0127612Y0314496D02*
X0234683Y0314496D01*
X0234683Y0315695D02*
X0128613Y0315695D01*
X0129110Y0316893D02*
X0234683Y0316893D01*
X0234683Y0318092D02*
X0129606Y0318092D01*
X0129771Y0319290D02*
X0234683Y0319290D01*
X0214974Y0320489D02*
X0129771Y0320489D01*
X0129771Y0321687D02*
X0213372Y0321687D01*
X0213030Y0322886D02*
X0129355Y0322886D01*
X0128858Y0324084D02*
X0141309Y0324084D01*
X0143201Y0324084D02*
X0144401Y0324084D01*
X0144401Y0325283D02*
X0143201Y0325283D01*
X0143201Y0326481D02*
X0144401Y0326481D01*
X0146293Y0324084D02*
X0205186Y0324084D01*
X0203557Y0325283D02*
X0147943Y0325283D01*
X0148826Y0326481D02*
X0202639Y0326481D01*
X0202143Y0327680D02*
X0149320Y0327680D01*
X0144401Y0330077D02*
X0143201Y0330077D01*
X0143201Y0331275D02*
X0144401Y0331275D01*
X0144401Y0332474D02*
X0143201Y0332474D01*
X0143201Y0333672D02*
X0144401Y0333672D01*
X0138777Y0326481D02*
X0127004Y0326481D01*
X0128203Y0325283D02*
X0139659Y0325283D01*
X0138282Y0327680D02*
X0125423Y0327680D01*
X0145622Y0309702D02*
X0205878Y0309702D01*
X0203844Y0308504D02*
X0147656Y0308504D01*
X0148742Y0307305D02*
X0202758Y0307305D01*
X0202262Y0306107D02*
X0149238Y0306107D01*
X0149535Y0304908D02*
X0201965Y0304908D01*
X0201965Y0303710D02*
X0149535Y0303710D01*
X0149287Y0302511D02*
X0202213Y0302511D01*
X0202709Y0301313D02*
X0148791Y0301313D01*
X0147774Y0300114D02*
X0203726Y0300114D01*
X0205594Y0298916D02*
X0145906Y0298916D01*
X0116740Y0289328D02*
X0111950Y0289328D01*
X0111950Y0290526D02*
X0115236Y0290526D01*
X0114222Y0291725D02*
X0111950Y0291725D01*
X0111950Y0292923D02*
X0113534Y0292923D01*
X0113082Y0294122D02*
X0111950Y0294122D01*
X0111950Y0295320D02*
X0112819Y0295320D01*
X0105550Y0295320D02*
X0007600Y0295320D01*
X0007600Y0294122D02*
X0105550Y0294122D01*
X0105550Y0292923D02*
X0007600Y0292923D01*
X0007600Y0291725D02*
X0105550Y0291725D01*
X0105550Y0290526D02*
X0007600Y0290526D01*
X0007600Y0289328D02*
X0105550Y0289328D01*
X0105550Y0288129D02*
X0007600Y0288129D01*
X0007600Y0286931D02*
X0105550Y0286931D01*
X0105550Y0296519D02*
X0007600Y0296519D01*
X0007600Y0297717D02*
X0105550Y0297717D01*
X0096221Y0284534D02*
X0036779Y0284534D01*
X0038575Y0283335D02*
X0094425Y0283335D01*
X0093438Y0282137D02*
X0039562Y0282137D01*
X0040058Y0280938D02*
X0092942Y0280938D01*
X0092715Y0279739D02*
X0040285Y0279739D01*
X0040285Y0278541D02*
X0092715Y0278541D01*
X0093033Y0277342D02*
X0039967Y0277342D01*
X0039471Y0276144D02*
X0093529Y0276144D01*
X0094644Y0274945D02*
X0038356Y0274945D01*
X0036249Y0273747D02*
X0096751Y0273747D01*
X0097219Y0230601D02*
X0092781Y0230601D01*
X0093714Y0229402D02*
X0096286Y0229402D01*
X0095841Y0228203D02*
X0094159Y0228203D01*
X0094159Y0227005D02*
X0095841Y0227005D01*
X0096200Y0225806D02*
X0093800Y0225806D01*
X0092990Y0224608D02*
X0097010Y0224608D01*
X0087010Y0224608D02*
X0082433Y0224608D01*
X0083374Y0225806D02*
X0086200Y0225806D01*
X0085841Y0227005D02*
X0083765Y0227005D01*
X0083765Y0228203D02*
X0085841Y0228203D01*
X0086286Y0229402D02*
X0083288Y0229402D01*
X0082224Y0230601D02*
X0087219Y0230601D01*
X0077776Y0230601D02*
X0069233Y0230601D01*
X0069233Y0230580D02*
X0073893Y0230580D01*
X0073893Y0227309D01*
X0073784Y0226902D01*
X0073574Y0226537D01*
X0073276Y0226239D01*
X0072911Y0226029D01*
X0072504Y0225920D01*
X0069233Y0225920D01*
X0069233Y0230580D01*
X0068267Y0230601D02*
X0053893Y0230601D01*
X0053893Y0231799D02*
X0063607Y0231799D01*
X0063607Y0232998D02*
X0053516Y0232998D01*
X0052891Y0234196D02*
X0063607Y0234196D01*
X0063814Y0235395D02*
X0051692Y0235395D01*
X0053629Y0229402D02*
X0063607Y0229402D01*
X0063607Y0228203D02*
X0053133Y0228203D01*
X0051966Y0227005D02*
X0063688Y0227005D01*
X0068267Y0227005D02*
X0069233Y0227005D01*
X0069233Y0228203D02*
X0068267Y0228203D01*
X0068267Y0229402D02*
X0069233Y0229402D01*
X0069233Y0231799D02*
X0068267Y0231799D01*
X0068267Y0232998D02*
X0069233Y0232998D01*
X0069233Y0234196D02*
X0068267Y0234196D01*
X0068267Y0235395D02*
X0069233Y0235395D01*
X0073893Y0229402D02*
X0076712Y0229402D01*
X0076235Y0228203D02*
X0073893Y0228203D01*
X0073812Y0227005D02*
X0076235Y0227005D01*
X0076626Y0225806D02*
X0007600Y0225806D01*
X0007600Y0224608D02*
X0026226Y0224608D01*
X0025143Y0223409D02*
X0007600Y0223409D01*
X0007600Y0222211D02*
X0024646Y0222211D01*
X0024591Y0221012D02*
X0007600Y0221012D01*
X0007600Y0219814D02*
X0024843Y0219814D01*
X0025503Y0218615D02*
X0007600Y0218615D01*
X0007600Y0217417D02*
X0027136Y0217417D01*
X0025534Y0227005D02*
X0007600Y0227005D01*
X0007600Y0228203D02*
X0024367Y0228203D01*
X0023871Y0229402D02*
X0007600Y0229402D01*
X0007600Y0230601D02*
X0023607Y0230601D01*
X0023607Y0231799D02*
X0007600Y0231799D01*
X0007600Y0232998D02*
X0023984Y0232998D01*
X0024609Y0234196D02*
X0007600Y0234196D01*
X0007600Y0204233D02*
X0025851Y0204233D01*
X0024988Y0203035D02*
X0007600Y0203035D01*
X0007600Y0201836D02*
X0024591Y0201836D01*
X0024591Y0200638D02*
X0007600Y0200638D01*
X0007600Y0199439D02*
X0024998Y0199439D01*
X0025877Y0198241D02*
X0007600Y0198241D01*
X0007600Y0177866D02*
X0107800Y0177866D01*
X0107800Y0176668D02*
X0007600Y0176668D01*
X0007600Y0175469D02*
X0042087Y0175469D01*
X0042291Y0175672D02*
X0041828Y0175209D01*
X0041443Y0174680D01*
X0041146Y0174097D01*
X0040943Y0173474D01*
X0040841Y0172827D01*
X0040841Y0172500D01*
X0045000Y0172500D01*
X0049159Y0172500D01*
X0049159Y0172827D01*
X0049057Y0173474D01*
X0048854Y0174097D01*
X0048557Y0174680D01*
X0048172Y0175209D01*
X0047709Y0175672D01*
X0047180Y0176057D01*
X0046597Y0176354D01*
X0045974Y0176557D01*
X0045327Y0176659D01*
X0045000Y0176659D01*
X0045000Y0172500D01*
X0045000Y0172500D01*
X0045000Y0172500D01*
X0049159Y0172500D01*
X0049159Y0172173D01*
X0049057Y0171526D01*
X0048854Y0170903D01*
X0048557Y0170320D01*
X0048172Y0169791D01*
X0047709Y0169328D01*
X0047180Y0168943D01*
X0046597Y0168646D01*
X0045974Y0168443D01*
X0045327Y0168341D01*
X0045000Y0168341D01*
X0045000Y0172500D01*
X0045000Y0172500D01*
X0045000Y0172500D01*
X0045000Y0176659D01*
X0044673Y0176659D01*
X0044026Y0176557D01*
X0043403Y0176354D01*
X0042820Y0176057D01*
X0042291Y0175672D01*
X0041234Y0174270D02*
X0007600Y0174270D01*
X0007600Y0173072D02*
X0040880Y0173072D01*
X0040841Y0172500D02*
X0040841Y0172173D01*
X0040943Y0171526D01*
X0041146Y0170903D01*
X0041443Y0170320D01*
X0041828Y0169791D01*
X0042291Y0169328D01*
X0042820Y0168943D01*
X0043403Y0168646D01*
X0044026Y0168443D01*
X0044673Y0168341D01*
X0045000Y0168341D01*
X0045000Y0172500D01*
X0040841Y0172500D01*
X0040888Y0171873D02*
X0007600Y0171873D01*
X0007600Y0170675D02*
X0041262Y0170675D01*
X0042142Y0169476D02*
X0007600Y0169476D01*
X0007600Y0168278D02*
X0107800Y0168278D01*
X0114200Y0168278D02*
X0125900Y0168278D01*
X0125900Y0167079D02*
X0114200Y0167079D01*
X0114200Y0165881D02*
X0118323Y0165881D01*
X0116857Y0164682D02*
X0114200Y0164682D01*
X0114200Y0163484D02*
X0116332Y0163484D01*
X0116235Y0162285D02*
X0114200Y0162285D01*
X0114200Y0161087D02*
X0116510Y0161087D01*
X0117287Y0159888D02*
X0114200Y0159888D01*
X0114200Y0158690D02*
X0234683Y0158690D01*
X0234683Y0157491D02*
X0114200Y0157491D01*
X0114200Y0156293D02*
X0183835Y0156293D01*
X0186165Y0156293D02*
X0193835Y0156293D01*
X0193848Y0156298D02*
X0193129Y0156000D01*
X0192482Y0155568D01*
X0191932Y0155018D01*
X0191500Y0154371D01*
X0191202Y0153652D01*
X0191050Y0152889D01*
X0191050Y0152500D01*
X0195000Y0152500D01*
X0198950Y0152500D01*
X0198950Y0152889D01*
X0198798Y0153652D01*
X0198500Y0154371D01*
X0198068Y0155018D01*
X0197518Y0155568D01*
X0196871Y0156000D01*
X0196152Y0156298D01*
X0195389Y0156450D01*
X0195000Y0156450D01*
X0195000Y0152500D01*
X0195000Y0152500D01*
X0195000Y0152500D01*
X0198950Y0152500D01*
X0198950Y0152111D01*
X0198798Y0151348D01*
X0198500Y0150629D01*
X0198068Y0149982D01*
X0197518Y0149432D01*
X0196871Y0149000D01*
X0196152Y0148702D01*
X0195389Y0148550D01*
X0195000Y0148550D01*
X0195000Y0152500D01*
X0195000Y0152500D01*
X0195000Y0152500D01*
X0195000Y0156450D01*
X0194611Y0156450D01*
X0193848Y0156298D01*
X0195000Y0156293D02*
X0195000Y0156293D01*
X0196165Y0156293D02*
X0203835Y0156293D01*
X0204214Y0156450D02*
X0202762Y0155849D01*
X0201651Y0154737D01*
X0201050Y0153286D01*
X0201050Y0151714D01*
X0201651Y0150263D01*
X0202762Y0149151D01*
X0204214Y0148550D01*
X0205786Y0148550D01*
X0207237Y0149151D01*
X0208349Y0150263D01*
X0208950Y0151714D01*
X0208950Y0153286D01*
X0208349Y0154737D01*
X0207237Y0155849D01*
X0205786Y0156450D01*
X0204214Y0156450D01*
X0206165Y0156293D02*
X0234683Y0156293D01*
X0234683Y0155094D02*
X0207992Y0155094D01*
X0208697Y0153896D02*
X0234683Y0153896D01*
X0234683Y0152697D02*
X0208950Y0152697D01*
X0208861Y0151499D02*
X0234683Y0151499D01*
X0234683Y0150300D02*
X0208364Y0150300D01*
X0207118Y0149102D02*
X0234683Y0149102D01*
X0234683Y0140712D02*
X0114200Y0140712D01*
X0115012Y0139514D02*
X0234683Y0139514D01*
X0234683Y0138315D02*
X0116210Y0138315D01*
X0117409Y0137117D02*
X0234683Y0137117D01*
X0234683Y0135918D02*
X0151442Y0135918D01*
X0152133Y0135632D02*
X0150749Y0136205D01*
X0149251Y0136205D01*
X0147867Y0135632D01*
X0146808Y0134573D01*
X0146235Y0133189D01*
X0146235Y0131691D01*
X0146808Y0130307D01*
X0147867Y0129248D01*
X0149251Y0128675D01*
X0150749Y0128675D01*
X0152133Y0129248D01*
X0153192Y0130307D01*
X0153765Y0131691D01*
X0153765Y0133189D01*
X0153192Y0134573D01*
X0152133Y0135632D01*
X0153045Y0134720D02*
X0234683Y0134720D01*
X0234683Y0133521D02*
X0153628Y0133521D01*
X0153765Y0132323D02*
X0234683Y0132323D01*
X0234683Y0131124D02*
X0153530Y0131124D01*
X0152811Y0129926D02*
X0234683Y0129926D01*
X0234683Y0128727D02*
X0150875Y0128727D01*
X0149124Y0128727D02*
X0128341Y0128727D01*
X0126659Y0128727D02*
X0125798Y0128727D01*
X0124600Y0129926D02*
X0147189Y0129926D01*
X0146469Y0131124D02*
X0123401Y0131124D01*
X0122203Y0132323D02*
X0146235Y0132323D01*
X0146372Y0133521D02*
X0121004Y0133521D01*
X0119806Y0134720D02*
X0146955Y0134720D01*
X0148558Y0135918D02*
X0118607Y0135918D01*
X0115549Y0129926D02*
X0007600Y0129926D01*
X0007600Y0131124D02*
X0114350Y0131124D01*
X0113152Y0132323D02*
X0050356Y0132323D01*
X0051265Y0133521D02*
X0089003Y0133521D01*
X0089199Y0133482D02*
X0089570Y0133482D01*
X0089941Y0133482D01*
X0090668Y0133627D01*
X0091354Y0133911D01*
X0091970Y0134323D01*
X0092495Y0134847D01*
X0092907Y0135464D01*
X0093191Y0136149D01*
X0093335Y0136877D01*
X0093335Y0137247D01*
X0089570Y0137247D01*
X0089570Y0133482D01*
X0089570Y0137247D01*
X0089570Y0137247D01*
X0089570Y0137248D01*
X0089570Y0141013D01*
X0089941Y0141013D01*
X0090668Y0140868D01*
X0091354Y0140584D01*
X0091970Y0140172D01*
X0092495Y0139648D01*
X0092907Y0139031D01*
X0093191Y0138346D01*
X0093335Y0137618D01*
X0093335Y0137248D01*
X0089570Y0137248D01*
X0089570Y0137248D01*
X0089570Y0141013D01*
X0089199Y0141013D01*
X0088472Y0140868D01*
X0087786Y0140584D01*
X0087170Y0140172D01*
X0086645Y0139648D01*
X0086233Y0139031D01*
X0085949Y0138346D01*
X0085805Y0137618D01*
X0085805Y0137248D01*
X0089570Y0137248D01*
X0089570Y0137247D01*
X0085805Y0137247D01*
X0085805Y0136877D01*
X0085949Y0136149D01*
X0086233Y0135464D01*
X0086645Y0134847D01*
X0087170Y0134323D01*
X0087786Y0133911D01*
X0088472Y0133627D01*
X0089199Y0133482D01*
X0089570Y0133521D02*
X0089570Y0133521D01*
X0090137Y0133521D02*
X0094560Y0133521D01*
X0094602Y0133480D02*
X0100258Y0133480D01*
X0101195Y0134417D01*
X0101195Y0140073D01*
X0100258Y0141010D01*
X0094602Y0141010D01*
X0093665Y0140073D01*
X0093665Y0134417D01*
X0094602Y0133480D01*
X0093665Y0134720D02*
X0092367Y0134720D01*
X0093095Y0135918D02*
X0093665Y0135918D01*
X0093665Y0137117D02*
X0093335Y0137117D01*
X0093197Y0138315D02*
X0093665Y0138315D01*
X0093665Y0139514D02*
X0092584Y0139514D01*
X0091045Y0140712D02*
X0094304Y0140712D01*
X0089570Y0140712D02*
X0089570Y0140712D01*
X0089570Y0139514D02*
X0089570Y0139514D01*
X0089570Y0138315D02*
X0089570Y0138315D01*
X0089570Y0137117D02*
X0089570Y0137117D01*
X0089570Y0135918D02*
X0089570Y0135918D01*
X0089570Y0134720D02*
X0089570Y0134720D01*
X0086773Y0134720D02*
X0051265Y0134720D01*
X0051265Y0135918D02*
X0086045Y0135918D01*
X0085805Y0137117D02*
X0051265Y0137117D01*
X0051265Y0138315D02*
X0085943Y0138315D01*
X0086556Y0139514D02*
X0050640Y0139514D01*
X0049547Y0140712D02*
X0088095Y0140712D01*
X0088341Y0128727D02*
X0096659Y0128727D01*
X0096751Y0128765D02*
X0095367Y0128192D01*
X0094308Y0127133D01*
X0093735Y0125749D01*
X0093735Y0124251D01*
X0094308Y0122867D01*
X0095367Y0121808D01*
X0096751Y0121235D01*
X0098249Y0121235D01*
X0099633Y0121808D01*
X0100692Y0122867D01*
X0101265Y0124251D01*
X0101265Y0125749D01*
X0100692Y0127133D01*
X0099633Y0128192D01*
X0098249Y0128765D01*
X0096751Y0128765D01*
X0098341Y0128727D02*
X0116747Y0128727D01*
X0117946Y0127529D02*
X0100296Y0127529D01*
X0101025Y0126330D02*
X0119144Y0126330D01*
X0120343Y0125132D02*
X0101265Y0125132D01*
X0101134Y0123933D02*
X0121541Y0123933D01*
X0122740Y0122734D02*
X0100560Y0122734D01*
X0098976Y0121536D02*
X0126024Y0121536D01*
X0125371Y0118765D02*
X0125000Y0118765D01*
X0124629Y0118765D01*
X0123902Y0118621D01*
X0123216Y0118337D01*
X0122600Y0117925D01*
X0122075Y0117400D01*
X0121663Y0116784D01*
X0121379Y0116098D01*
X0121235Y0115371D01*
X0121235Y0115000D01*
X0121235Y0114629D01*
X0121379Y0113902D01*
X0121663Y0113216D01*
X0122075Y0112600D01*
X0122600Y0112075D01*
X0123216Y0111663D01*
X0123902Y0111379D01*
X0124629Y0111235D01*
X0125000Y0111235D01*
X0125371Y0111235D01*
X0126098Y0111379D01*
X0126784Y0111663D01*
X0127400Y0112075D01*
X0127925Y0112600D01*
X0128337Y0113216D01*
X0128621Y0113902D01*
X0128765Y0114629D01*
X0128765Y0115000D01*
X0128765Y0115371D01*
X0128621Y0116098D01*
X0128337Y0116784D01*
X0127925Y0117400D01*
X0127400Y0117925D01*
X0126784Y0118337D01*
X0126098Y0118621D01*
X0125371Y0118765D01*
X0125000Y0118765D02*
X0125000Y0115000D01*
X0125000Y0115000D01*
X0128765Y0115000D01*
X0125000Y0115000D01*
X0125000Y0115000D01*
X0125000Y0115000D01*
X0121235Y0115000D01*
X0125000Y0115000D01*
X0125000Y0118765D01*
X0125000Y0117940D02*
X0125000Y0117940D01*
X0125000Y0116742D02*
X0125000Y0116742D01*
X0125000Y0115543D02*
X0125000Y0115543D01*
X0125000Y0115000D02*
X0125000Y0111235D01*
X0125000Y0115000D01*
X0125000Y0115000D01*
X0125000Y0114345D02*
X0125000Y0114345D01*
X0125000Y0113146D02*
X0125000Y0113146D01*
X0125000Y0111948D02*
X0125000Y0111948D01*
X0127210Y0111948D02*
X0129300Y0111948D01*
X0129300Y0113146D02*
X0128290Y0113146D01*
X0128709Y0114345D02*
X0129300Y0114345D01*
X0129300Y0115543D02*
X0128731Y0115543D01*
X0128354Y0116742D02*
X0129300Y0116742D01*
X0129300Y0117940D02*
X0127377Y0117940D01*
X0122623Y0117940D02*
X0117385Y0117940D01*
X0117133Y0118192D02*
X0118192Y0117133D01*
X0118765Y0115749D01*
X0118765Y0114251D01*
X0118192Y0112867D01*
X0117133Y0111808D01*
X0115749Y0111235D01*
X0114251Y0111235D01*
X0112867Y0111808D01*
X0111808Y0112867D01*
X0111235Y0114251D01*
X0111235Y0115749D01*
X0111808Y0117133D01*
X0112867Y0118192D01*
X0114251Y0118765D01*
X0115749Y0118765D01*
X0117133Y0118192D01*
X0118354Y0116742D02*
X0121646Y0116742D01*
X0121269Y0115543D02*
X0118765Y0115543D01*
X0118765Y0114345D02*
X0121291Y0114345D01*
X0121710Y0113146D02*
X0118308Y0113146D01*
X0117273Y0111948D02*
X0122790Y0111948D01*
X0129300Y0108352D02*
X0089946Y0108352D01*
X0091046Y0107154D02*
X0129300Y0107154D01*
X0129300Y0105955D02*
X0091542Y0105955D01*
X0091600Y0104757D02*
X0129300Y0104757D01*
X0129300Y0103558D02*
X0091341Y0103558D01*
X0090658Y0102360D02*
X0129300Y0102360D01*
X0135700Y0102360D02*
X0156758Y0102360D01*
X0156474Y0102644D02*
X0157644Y0101474D01*
X0159173Y0100841D01*
X0160827Y0100841D01*
X0162356Y0101474D01*
X0163526Y0102644D01*
X0164159Y0104173D01*
X0164159Y0105827D01*
X0163526Y0107356D01*
X0162356Y0108526D01*
X0160827Y0109159D01*
X0159173Y0109159D01*
X0157644Y0108526D01*
X0156474Y0107356D01*
X0155841Y0105827D01*
X0155841Y0104173D01*
X0156474Y0102644D01*
X0156095Y0103558D02*
X0135700Y0103558D01*
X0135700Y0104757D02*
X0155841Y0104757D01*
X0155894Y0105955D02*
X0135700Y0105955D01*
X0135700Y0107154D02*
X0156390Y0107154D01*
X0157471Y0108352D02*
X0135700Y0108352D01*
X0135700Y0109551D02*
X0234683Y0109551D01*
X0234683Y0110749D02*
X0135700Y0110749D01*
X0135700Y0111948D02*
X0137727Y0111948D01*
X0137867Y0111808D02*
X0139251Y0111235D01*
X0140749Y0111235D01*
X0142133Y0111808D01*
X0143192Y0112867D01*
X0143765Y0114251D01*
X0143765Y0115749D01*
X0143192Y0117133D01*
X0142133Y0118192D01*
X0140749Y0118765D01*
X0139251Y0118765D01*
X0137867Y0118192D01*
X0136808Y0117133D01*
X0136235Y0115749D01*
X0136235Y0114251D01*
X0136808Y0112867D01*
X0137867Y0111808D01*
X0136692Y0113146D02*
X0135700Y0113146D01*
X0135700Y0114345D02*
X0136235Y0114345D01*
X0136235Y0115543D02*
X0135700Y0115543D01*
X0135700Y0116742D02*
X0136646Y0116742D01*
X0135700Y0117940D02*
X0137615Y0117940D01*
X0135700Y0119139D02*
X0234683Y0119139D01*
X0234683Y0120337D02*
X0135700Y0120337D01*
X0135700Y0121536D02*
X0146431Y0121536D01*
X0146235Y0121732D02*
X0147172Y0120795D01*
X0152828Y0120795D01*
X0153765Y0121732D01*
X0153765Y0127388D01*
X0152828Y0128325D01*
X0147172Y0128325D01*
X0146235Y0127388D01*
X0146235Y0121732D01*
X0146235Y0122734D02*
X0135700Y0122734D01*
X0135370Y0123933D02*
X0146235Y0123933D01*
X0146235Y0125132D02*
X0134394Y0125132D01*
X0133195Y0126330D02*
X0146235Y0126330D01*
X0146375Y0127529D02*
X0131997Y0127529D01*
X0142385Y0117940D02*
X0147615Y0117940D01*
X0147867Y0118192D02*
X0146808Y0117133D01*
X0146235Y0115749D01*
X0146235Y0114251D01*
X0146808Y0112867D01*
X0147867Y0111808D01*
X0149251Y0111235D01*
X0150749Y0111235D01*
X0152133Y0111808D01*
X0153192Y0112867D01*
X0153765Y0114251D01*
X0153765Y0115749D01*
X0153192Y0117133D01*
X0152133Y0118192D01*
X0150749Y0118765D01*
X0149251Y0118765D01*
X0147867Y0118192D01*
X0146646Y0116742D02*
X0143354Y0116742D01*
X0143765Y0115543D02*
X0146235Y0115543D01*
X0146235Y0114345D02*
X0143765Y0114345D01*
X0143308Y0113146D02*
X0146692Y0113146D01*
X0147727Y0111948D02*
X0142273Y0111948D01*
X0135700Y0101161D02*
X0158399Y0101161D01*
X0161601Y0101161D02*
X0234683Y0101161D01*
X0234683Y0099963D02*
X0178071Y0099963D01*
X0177828Y0100205D02*
X0172172Y0100205D01*
X0171235Y0099268D01*
X0171235Y0093612D01*
X0172172Y0092675D01*
X0177828Y0092675D01*
X0178765Y0093612D01*
X0178765Y0099268D01*
X0177828Y0100205D01*
X0178765Y0098764D02*
X0234683Y0098764D01*
X0234683Y0097566D02*
X0178765Y0097566D01*
X0178765Y0096367D02*
X0234683Y0096367D01*
X0234683Y0095169D02*
X0178765Y0095169D01*
X0178765Y0093970D02*
X0234683Y0093970D01*
X0234683Y0092772D02*
X0177925Y0092772D01*
X0177133Y0091752D02*
X0175749Y0092325D01*
X0174251Y0092325D01*
X0172867Y0091752D01*
X0171808Y0090693D01*
X0171235Y0089309D01*
X0171235Y0087811D01*
X0171808Y0086427D01*
X0172867Y0085368D01*
X0174251Y0084795D01*
X0175749Y0084795D01*
X0177133Y0085368D01*
X0178192Y0086427D01*
X0178765Y0087811D01*
X0178765Y0089309D01*
X0178192Y0090693D01*
X0177133Y0091752D01*
X0177312Y0091573D02*
X0234683Y0091573D01*
X0234683Y0090375D02*
X0178324Y0090375D01*
X0178765Y0089176D02*
X0234683Y0089176D01*
X0234683Y0087978D02*
X0178765Y0087978D01*
X0178338Y0086779D02*
X0234683Y0086779D01*
X0234683Y0085581D02*
X0177346Y0085581D01*
X0172654Y0085581D02*
X0164159Y0085581D01*
X0164159Y0085827D02*
X0163526Y0087356D01*
X0162356Y0088526D01*
X0160827Y0089159D01*
X0159173Y0089159D01*
X0157644Y0088526D01*
X0156474Y0087356D01*
X0155841Y0085827D01*
X0155841Y0084173D01*
X0156474Y0082644D01*
X0157644Y0081474D01*
X0159173Y0080841D01*
X0160827Y0080841D01*
X0162356Y0081474D01*
X0163526Y0082644D01*
X0164159Y0084173D01*
X0164159Y0085827D01*
X0163765Y0086779D02*
X0171662Y0086779D01*
X0171235Y0087978D02*
X0162904Y0087978D01*
X0164159Y0084382D02*
X0234683Y0084382D01*
X0234683Y0083184D02*
X0163749Y0083184D01*
X0162867Y0081985D02*
X0234683Y0081985D01*
X0234683Y0080787D02*
X0135700Y0080787D01*
X0135700Y0081985D02*
X0137690Y0081985D01*
X0137867Y0081808D02*
X0139251Y0081235D01*
X0140749Y0081235D01*
X0142133Y0081808D01*
X0143192Y0082867D01*
X0143765Y0084251D01*
X0143765Y0085749D01*
X0143192Y0087133D01*
X0142133Y0088192D01*
X0140749Y0088765D01*
X0139251Y0088765D01*
X0137867Y0088192D01*
X0136808Y0087133D01*
X0136235Y0085749D01*
X0136235Y0084251D01*
X0136808Y0082867D01*
X0137867Y0081808D01*
X0136677Y0083184D02*
X0135700Y0083184D01*
X0135700Y0084382D02*
X0136235Y0084382D01*
X0136235Y0085581D02*
X0135700Y0085581D01*
X0135700Y0086779D02*
X0136661Y0086779D01*
X0135700Y0087978D02*
X0137653Y0087978D01*
X0135700Y0089176D02*
X0171235Y0089176D01*
X0171676Y0090375D02*
X0135700Y0090375D01*
X0135700Y0091573D02*
X0172688Y0091573D01*
X0172075Y0092772D02*
X0135700Y0092772D01*
X0135700Y0093970D02*
X0171235Y0093970D01*
X0171235Y0095169D02*
X0135700Y0095169D01*
X0135700Y0096367D02*
X0171235Y0096367D01*
X0171235Y0097566D02*
X0135700Y0097566D01*
X0135700Y0098764D02*
X0171235Y0098764D01*
X0171929Y0099963D02*
X0135700Y0099963D01*
X0142347Y0087978D02*
X0147653Y0087978D01*
X0147867Y0088192D02*
X0146808Y0087133D01*
X0146235Y0085749D01*
X0146235Y0084251D01*
X0146808Y0082867D01*
X0147867Y0081808D01*
X0149251Y0081235D01*
X0150749Y0081235D01*
X0152133Y0081808D01*
X0153192Y0082867D01*
X0153765Y0084251D01*
X0153765Y0085749D01*
X0153192Y0087133D01*
X0152133Y0088192D01*
X0150749Y0088765D01*
X0149251Y0088765D01*
X0147867Y0088192D01*
X0146661Y0086779D02*
X0143339Y0086779D01*
X0143765Y0085581D02*
X0146235Y0085581D01*
X0146235Y0084382D02*
X0143765Y0084382D01*
X0143323Y0083184D02*
X0146677Y0083184D01*
X0147690Y0081985D02*
X0142310Y0081985D01*
X0143344Y0078390D02*
X0135297Y0078390D01*
X0135700Y0079588D02*
X0234683Y0079588D01*
X0234683Y0078390D02*
X0176656Y0078390D01*
X0177133Y0078192D02*
X0175749Y0078765D01*
X0174251Y0078765D01*
X0172867Y0078192D01*
X0171808Y0077133D01*
X0171235Y0075749D01*
X0171235Y0074251D01*
X0171808Y0072867D01*
X0172867Y0071808D01*
X0174251Y0071235D01*
X0175749Y0071235D01*
X0177133Y0071808D01*
X0178192Y0072867D01*
X0178765Y0074251D01*
X0178765Y0075749D01*
X0178192Y0077133D01*
X0177133Y0078192D01*
X0178134Y0077191D02*
X0234683Y0077191D01*
X0234683Y0075993D02*
X0178664Y0075993D01*
X0178765Y0074794D02*
X0234683Y0074794D01*
X0234683Y0073596D02*
X0178494Y0073596D01*
X0177722Y0072397D02*
X0234683Y0072397D01*
X0234683Y0071199D02*
X0147100Y0071199D01*
X0147100Y0070000D02*
X0234683Y0070000D01*
X0234683Y0068801D02*
X0147100Y0068801D01*
X0147100Y0067603D02*
X0234683Y0067603D01*
X0234683Y0066404D02*
X0147100Y0066404D01*
X0147100Y0065206D02*
X0234683Y0065206D01*
X0234683Y0064007D02*
X0147100Y0064007D01*
X0147100Y0062809D02*
X0234683Y0062809D01*
X0234683Y0061610D02*
X0147100Y0061610D01*
X0147100Y0060412D02*
X0234683Y0060412D01*
X0234683Y0059213D02*
X0147100Y0059213D01*
X0147100Y0058015D02*
X0234683Y0058015D01*
X0234683Y0056816D02*
X0147100Y0056816D01*
X0147100Y0055618D02*
X0234683Y0055618D01*
X0234683Y0054419D02*
X0147100Y0054419D01*
X0147100Y0053221D02*
X0234683Y0053221D01*
X0234683Y0052022D02*
X0147100Y0052022D01*
X0147100Y0050824D02*
X0234683Y0050824D01*
X0234683Y0049625D02*
X0147100Y0049625D01*
X0146397Y0048427D02*
X0234683Y0048427D01*
X0234683Y0102360D02*
X0163242Y0102360D01*
X0163905Y0103558D02*
X0234683Y0103558D01*
X0234683Y0104757D02*
X0164159Y0104757D01*
X0164106Y0105955D02*
X0234683Y0105955D01*
X0234683Y0107154D02*
X0163610Y0107154D01*
X0162529Y0108352D02*
X0234683Y0108352D01*
X0234683Y0111948D02*
X0152273Y0111948D01*
X0153308Y0113146D02*
X0234683Y0113146D01*
X0234683Y0114345D02*
X0153765Y0114345D01*
X0153765Y0115543D02*
X0234683Y0115543D01*
X0234683Y0116742D02*
X0153354Y0116742D01*
X0152385Y0117940D02*
X0234683Y0117940D01*
X0234683Y0121536D02*
X0153569Y0121536D01*
X0153765Y0122734D02*
X0234683Y0122734D01*
X0234683Y0123933D02*
X0153765Y0123933D01*
X0153765Y0125132D02*
X0234683Y0125132D01*
X0234683Y0126330D02*
X0153765Y0126330D01*
X0153625Y0127529D02*
X0234683Y0127529D01*
X0203744Y0171873D02*
X0123765Y0171873D01*
X0123765Y0171751D02*
X0123192Y0170367D01*
X0122133Y0169308D01*
X0120749Y0168735D01*
X0119251Y0168735D01*
X0117867Y0169308D01*
X0116808Y0170367D01*
X0116235Y0171751D01*
X0116235Y0173249D01*
X0116808Y0174633D01*
X0117867Y0175692D01*
X0119251Y0176265D01*
X0120749Y0176265D01*
X0122133Y0175692D01*
X0123192Y0174633D01*
X0123765Y0173249D01*
X0123765Y0171751D01*
X0123320Y0170675D02*
X0127377Y0170675D01*
X0126381Y0169476D02*
X0122301Y0169476D01*
X0121677Y0165881D02*
X0126233Y0165881D01*
X0127019Y0164682D02*
X0123143Y0164682D01*
X0117699Y0169476D02*
X0114200Y0169476D01*
X0114200Y0170675D02*
X0116680Y0170675D01*
X0116235Y0171873D02*
X0114200Y0171873D01*
X0114200Y0173072D02*
X0116235Y0173072D01*
X0116658Y0174270D02*
X0114200Y0174270D01*
X0114200Y0175469D02*
X0117644Y0175469D01*
X0117554Y0179065D02*
X0114200Y0179065D01*
X0114200Y0180263D02*
X0116425Y0180263D01*
X0115928Y0181462D02*
X0114200Y0181462D01*
X0114200Y0182660D02*
X0115841Y0182660D01*
X0116061Y0183859D02*
X0114200Y0183859D01*
X0114200Y0185057D02*
X0116675Y0185057D01*
X0118199Y0186256D02*
X0114200Y0186256D01*
X0114200Y0187454D02*
X0125900Y0187454D01*
X0126040Y0188653D02*
X0114200Y0188653D01*
X0114200Y0189851D02*
X0126553Y0189851D01*
X0127856Y0191050D02*
X0114200Y0191050D01*
X0114200Y0192248D02*
X0168805Y0192248D01*
X0176265Y0170675D02*
X0186043Y0170675D01*
X0185067Y0169476D02*
X0177227Y0169476D01*
X0177700Y0168278D02*
X0184591Y0168278D01*
X0184591Y0167079D02*
X0177700Y0167079D01*
X0177375Y0165881D02*
X0184919Y0165881D01*
X0185686Y0164682D02*
X0176622Y0164682D01*
X0187992Y0155094D02*
X0192008Y0155094D01*
X0191303Y0153896D02*
X0188697Y0153896D01*
X0188950Y0152697D02*
X0191050Y0152697D01*
X0191050Y0152500D02*
X0191050Y0152111D01*
X0191202Y0151348D01*
X0191500Y0150629D01*
X0191932Y0149982D01*
X0192482Y0149432D01*
X0193129Y0149000D01*
X0193848Y0148702D01*
X0194611Y0148550D01*
X0195000Y0148550D01*
X0195000Y0152500D01*
X0191050Y0152500D01*
X0191172Y0151499D02*
X0188861Y0151499D01*
X0188364Y0150300D02*
X0191719Y0150300D01*
X0192976Y0149102D02*
X0187118Y0149102D01*
X0195000Y0149102D02*
X0195000Y0149102D01*
X0195000Y0150300D02*
X0195000Y0150300D01*
X0195000Y0151499D02*
X0195000Y0151499D01*
X0195000Y0152697D02*
X0195000Y0152697D01*
X0195000Y0153896D02*
X0195000Y0153896D01*
X0195000Y0155094D02*
X0195000Y0155094D01*
X0197992Y0155094D02*
X0202008Y0155094D01*
X0201303Y0153896D02*
X0198697Y0153896D01*
X0198950Y0152697D02*
X0201050Y0152697D01*
X0201139Y0151499D02*
X0198828Y0151499D01*
X0198281Y0150300D02*
X0201636Y0150300D01*
X0202882Y0149102D02*
X0197024Y0149102D01*
X0201289Y0164682D02*
X0191814Y0164682D01*
X0192581Y0165881D02*
X0201230Y0165881D01*
X0201230Y0167079D02*
X0192909Y0167079D01*
X0192909Y0168278D02*
X0201230Y0168278D01*
X0201230Y0169476D02*
X0192433Y0169476D01*
X0191457Y0170675D02*
X0201507Y0170675D01*
X0202045Y0173072D02*
X0123765Y0173072D01*
X0123342Y0174270D02*
X0127431Y0174270D01*
X0126403Y0175469D02*
X0122356Y0175469D01*
X0125907Y0176668D02*
X0114200Y0176668D01*
X0114200Y0177866D02*
X0125900Y0177866D01*
X0126210Y0179065D02*
X0122446Y0179065D01*
X0123575Y0180263D02*
X0126965Y0180263D01*
X0128077Y0183859D02*
X0123939Y0183859D01*
X0123325Y0185057D02*
X0126645Y0185057D01*
X0126078Y0186256D02*
X0121801Y0186256D01*
X0107800Y0186256D02*
X0101801Y0186256D01*
X0103325Y0185057D02*
X0107800Y0185057D01*
X0107800Y0183859D02*
X0103939Y0183859D01*
X0104159Y0182660D02*
X0107800Y0182660D01*
X0107800Y0181462D02*
X0104072Y0181462D01*
X0103575Y0180263D02*
X0107800Y0180263D01*
X0107800Y0179065D02*
X0102446Y0179065D01*
X0095841Y0182660D02*
X0086925Y0182660D01*
X0087543Y0183859D02*
X0096061Y0183859D01*
X0096675Y0185057D02*
X0087705Y0185057D01*
X0087496Y0186256D02*
X0098199Y0186256D01*
X0107800Y0187454D02*
X0086811Y0187454D01*
X0068323Y0165881D02*
X0041677Y0165881D01*
X0042133Y0165692D02*
X0040749Y0166265D01*
X0039251Y0166265D01*
X0037867Y0165692D01*
X0036808Y0164633D01*
X0036235Y0163249D01*
X0036235Y0161751D01*
X0036808Y0160367D01*
X0037867Y0159308D01*
X0039251Y0158735D01*
X0040749Y0158735D01*
X0042133Y0159308D01*
X0043192Y0160367D01*
X0043765Y0161751D01*
X0043765Y0163249D01*
X0043192Y0164633D01*
X0042133Y0165692D01*
X0043143Y0164682D02*
X0066857Y0164682D01*
X0066332Y0163484D02*
X0043668Y0163484D01*
X0043765Y0162285D02*
X0066235Y0162285D01*
X0066510Y0161087D02*
X0043490Y0161087D01*
X0042713Y0159888D02*
X0067287Y0159888D01*
X0062142Y0169476D02*
X0047858Y0169476D01*
X0048738Y0170675D02*
X0061254Y0170675D01*
X0060841Y0171873D02*
X0049112Y0171873D01*
X0049120Y0173072D02*
X0060841Y0173072D01*
X0061232Y0174270D02*
X0048766Y0174270D01*
X0047913Y0175469D02*
X0062087Y0175469D01*
X0045000Y0175469D02*
X0045000Y0175469D01*
X0045000Y0174270D02*
X0045000Y0174270D01*
X0045000Y0173072D02*
X0045000Y0173072D01*
X0045000Y0171873D02*
X0045000Y0171873D01*
X0045000Y0170675D02*
X0045000Y0170675D01*
X0045000Y0169476D02*
X0045000Y0169476D01*
X0038323Y0165881D02*
X0030427Y0165881D01*
X0031893Y0164682D02*
X0036857Y0164682D01*
X0036332Y0163484D02*
X0032418Y0163484D01*
X0032515Y0162285D02*
X0036235Y0162285D01*
X0036510Y0161087D02*
X0032240Y0161087D01*
X0031463Y0159888D02*
X0037287Y0159888D01*
X0050060Y0146705D02*
X0098335Y0146705D01*
X0100556Y0140712D02*
X0107800Y0140712D01*
X0107800Y0139514D02*
X0101195Y0139514D01*
X0101195Y0138315D02*
X0107820Y0138315D01*
X0108358Y0137117D02*
X0101195Y0137117D01*
X0101195Y0135918D02*
X0109556Y0135918D01*
X0110755Y0134720D02*
X0101195Y0134720D01*
X0100300Y0133521D02*
X0111953Y0133521D01*
X0107800Y0141911D02*
X0050735Y0141911D01*
X0051231Y0143109D02*
X0107800Y0143109D01*
X0107800Y0144308D02*
X0051265Y0144308D01*
X0050927Y0145506D02*
X0107800Y0145506D01*
X0107800Y0146705D02*
X0104165Y0146705D01*
X0105364Y0147903D02*
X0107800Y0147903D01*
X0107800Y0149102D02*
X0106005Y0149102D01*
X0106393Y0150300D02*
X0107800Y0150300D01*
X0107800Y0151499D02*
X0106393Y0151499D01*
X0106140Y0152697D02*
X0107800Y0152697D01*
X0107800Y0153896D02*
X0105644Y0153896D01*
X0104492Y0155094D02*
X0107800Y0155094D01*
X0107800Y0156293D02*
X0007600Y0156293D01*
X0007600Y0157491D02*
X0107800Y0157491D01*
X0114200Y0155094D02*
X0118008Y0155094D01*
X0116856Y0153896D02*
X0114200Y0153896D01*
X0114200Y0152697D02*
X0116360Y0152697D01*
X0116107Y0151499D02*
X0114200Y0151499D01*
X0114200Y0150300D02*
X0116107Y0150300D01*
X0116495Y0149102D02*
X0114200Y0149102D01*
X0114200Y0147903D02*
X0117136Y0147903D01*
X0118335Y0146705D02*
X0114200Y0146705D01*
X0124165Y0146705D02*
X0136330Y0146705D01*
X0136107Y0147903D02*
X0125364Y0147903D01*
X0126005Y0149102D02*
X0136107Y0149102D01*
X0136107Y0150300D02*
X0126393Y0150300D01*
X0112615Y0117940D02*
X0100441Y0117940D01*
X0101280Y0116742D02*
X0111646Y0116742D01*
X0111235Y0115543D02*
X0101659Y0115543D01*
X0101659Y0114345D02*
X0111235Y0114345D01*
X0111692Y0113146D02*
X0101234Y0113146D01*
X0100330Y0111948D02*
X0112727Y0111948D01*
X0096023Y0121536D02*
X0088976Y0121536D01*
X0090560Y0122734D02*
X0094440Y0122734D01*
X0093866Y0123933D02*
X0091134Y0123933D01*
X0091265Y0125132D02*
X0093735Y0125132D01*
X0093975Y0126330D02*
X0091025Y0126330D01*
X0090296Y0127529D02*
X0094704Y0127529D01*
X0094559Y0117940D02*
X0090358Y0117940D01*
X0091216Y0116742D02*
X0093720Y0116742D01*
X0093341Y0115543D02*
X0091600Y0115543D01*
X0091600Y0114345D02*
X0093341Y0114345D01*
X0093766Y0113146D02*
X0091170Y0113146D01*
X0090246Y0111948D02*
X0094670Y0111948D01*
X0085874Y0098764D02*
X0059126Y0098764D01*
X0060732Y0097566D02*
X0084267Y0097566D01*
X0083629Y0096367D02*
X0061371Y0096367D01*
X0061600Y0095169D02*
X0083400Y0095169D01*
X0083489Y0093970D02*
X0061511Y0093970D01*
X0061015Y0092772D02*
X0083985Y0092772D01*
X0085129Y0091573D02*
X0059871Y0091573D01*
X0060321Y0087978D02*
X0084679Y0087978D01*
X0085178Y0088476D02*
X0084024Y0087322D01*
X0083400Y0085816D01*
X0083400Y0084184D01*
X0084024Y0082678D01*
X0085178Y0081524D01*
X0086684Y0080900D01*
X0088316Y0080900D01*
X0089822Y0081524D01*
X0090976Y0082678D01*
X0091600Y0084184D01*
X0091600Y0085816D01*
X0090976Y0087322D01*
X0089822Y0088476D01*
X0088316Y0089100D01*
X0086684Y0089100D01*
X0085178Y0088476D01*
X0083799Y0086779D02*
X0061195Y0086779D01*
X0061559Y0085581D02*
X0083400Y0085581D01*
X0083400Y0084382D02*
X0061553Y0084382D01*
X0061176Y0083184D02*
X0083815Y0083184D01*
X0084717Y0081985D02*
X0060283Y0081985D01*
X0049191Y0071199D02*
X0119173Y0071199D01*
X0116776Y0068801D02*
X0029600Y0068801D01*
X0030367Y0067603D02*
X0115577Y0067603D01*
X0114618Y0066404D02*
X0031565Y0066404D01*
X0032764Y0065206D02*
X0114300Y0065206D01*
X0114300Y0064007D02*
X0033962Y0064007D01*
X0035190Y0081985D02*
X0029810Y0081985D01*
X0030823Y0083184D02*
X0034177Y0083184D01*
X0033735Y0084382D02*
X0031265Y0084382D01*
X0031265Y0085581D02*
X0033735Y0085581D01*
X0034161Y0086779D02*
X0030839Y0086779D01*
X0029847Y0087978D02*
X0035153Y0087978D01*
X0090321Y0087978D02*
X0098959Y0087978D01*
X0098740Y0087758D02*
X0098740Y0082102D01*
X0099677Y0081165D01*
X0105333Y0081165D01*
X0106270Y0082102D01*
X0106270Y0087758D01*
X0105333Y0088695D01*
X0099677Y0088695D01*
X0098740Y0087758D01*
X0098740Y0086779D02*
X0091201Y0086779D01*
X0091600Y0085581D02*
X0098740Y0085581D01*
X0098740Y0084382D02*
X0091600Y0084382D01*
X0091185Y0083184D02*
X0098740Y0083184D01*
X0098856Y0081985D02*
X0090283Y0081985D01*
X0102502Y0079588D02*
X0102503Y0079588D01*
X0102502Y0078390D02*
X0102503Y0078390D01*
X0102502Y0077191D02*
X0102503Y0077191D01*
X0102502Y0075993D02*
X0102503Y0075993D01*
X0102502Y0074794D02*
X0102503Y0074794D01*
X0102502Y0073596D02*
X0102503Y0073596D01*
X0106154Y0081985D02*
X0112690Y0081985D01*
X0112867Y0081808D02*
X0114251Y0081235D01*
X0115749Y0081235D01*
X0117133Y0081808D01*
X0118192Y0082867D01*
X0118765Y0084251D01*
X0118765Y0085749D01*
X0118192Y0087133D01*
X0117133Y0088192D01*
X0115749Y0088765D01*
X0114251Y0088765D01*
X0112867Y0088192D01*
X0111808Y0087133D01*
X0111235Y0085749D01*
X0111235Y0084251D01*
X0111808Y0082867D01*
X0112867Y0081808D01*
X0111677Y0083184D02*
X0106270Y0083184D01*
X0106270Y0084382D02*
X0111235Y0084382D01*
X0111235Y0085581D02*
X0106270Y0085581D01*
X0106270Y0086779D02*
X0111661Y0086779D01*
X0112653Y0087978D02*
X0106051Y0087978D01*
X0117347Y0087978D02*
X0122653Y0087978D01*
X0121661Y0086779D02*
X0118339Y0086779D01*
X0118765Y0085581D02*
X0121235Y0085581D01*
X0121235Y0084382D02*
X0118765Y0084382D01*
X0118323Y0083184D02*
X0121677Y0083184D01*
X0122690Y0081985D02*
X0117310Y0081985D01*
X0134217Y0077191D02*
X0141866Y0077191D01*
X0146656Y0078390D02*
X0173344Y0078390D01*
X0171866Y0077191D02*
X0148134Y0077191D01*
X0148664Y0075993D02*
X0171336Y0075993D01*
X0171235Y0074794D02*
X0148765Y0074794D01*
X0148494Y0073596D02*
X0171506Y0073596D01*
X0172278Y0072397D02*
X0147722Y0072397D01*
X0152310Y0081985D02*
X0157133Y0081985D01*
X0156251Y0083184D02*
X0153323Y0083184D01*
X0153765Y0084382D02*
X0155841Y0084382D01*
X0155841Y0085581D02*
X0153765Y0085581D01*
X0153339Y0086779D02*
X0156235Y0086779D01*
X0157096Y0087978D02*
X0152347Y0087978D01*
X0195764Y0217417D02*
X0234683Y0217417D01*
X0234683Y0218615D02*
X0196423Y0218615D01*
X0196659Y0219814D02*
X0234683Y0219814D01*
X0234683Y0221012D02*
X0196544Y0221012D01*
X0196035Y0222211D02*
X0234683Y0222211D01*
X0234683Y0223409D02*
X0194883Y0223409D01*
X0194773Y0225920D02*
X0192727Y0225920D01*
X0190837Y0226703D01*
X0189390Y0228150D01*
X0188607Y0230040D01*
X0188607Y0232086D01*
X0189390Y0233976D01*
X0190837Y0235423D01*
X0192727Y0236206D01*
X0194773Y0236206D01*
X0196663Y0235423D01*
X0198110Y0233976D01*
X0198893Y0232086D01*
X0198893Y0230040D01*
X0198110Y0228150D01*
X0196663Y0226703D01*
X0194773Y0225920D01*
X0196966Y0227005D02*
X0208607Y0227005D01*
X0208607Y0228203D02*
X0198133Y0228203D01*
X0198629Y0229402D02*
X0208607Y0229402D01*
X0208607Y0230601D02*
X0198893Y0230601D01*
X0198893Y0231799D02*
X0208607Y0231799D01*
X0208607Y0232998D02*
X0198516Y0232998D01*
X0197891Y0234196D02*
X0208607Y0234196D01*
X0208732Y0235395D02*
X0196692Y0235395D01*
X0190808Y0235395D02*
X0176692Y0235395D01*
X0177891Y0234196D02*
X0189609Y0234196D01*
X0188984Y0232998D02*
X0178516Y0232998D01*
X0178893Y0231799D02*
X0188607Y0231799D01*
X0188607Y0230601D02*
X0178893Y0230601D01*
X0178629Y0229402D02*
X0188871Y0229402D01*
X0189367Y0228203D02*
X0178133Y0228203D01*
X0176966Y0227005D02*
X0190534Y0227005D01*
X0162906Y0224608D02*
X0234683Y0224608D01*
X0213030Y0324084D02*
X0210211Y0324084D01*
X0211841Y0325283D02*
X0213030Y0325283D01*
X0213030Y0326481D02*
X0212758Y0326481D01*
X0212570Y0332474D02*
X0213030Y0332474D01*
X0213030Y0333672D02*
X0211385Y0333672D01*
X0213030Y0334871D02*
X0209112Y0334871D01*
X0036610Y0195844D02*
X0030517Y0195844D01*
X0031930Y0194645D02*
X0037530Y0194645D01*
X0032853Y0273747D02*
X0007600Y0273747D01*
X0007600Y0274945D02*
X0030747Y0274945D01*
X0029631Y0276144D02*
X0007600Y0276144D01*
X0007600Y0277342D02*
X0029135Y0277342D01*
X0028817Y0278541D02*
X0007600Y0278541D01*
X0007600Y0279739D02*
X0028817Y0279739D01*
X0029044Y0280938D02*
X0007600Y0280938D01*
X0007600Y0282137D02*
X0029541Y0282137D01*
X0030527Y0283335D02*
X0007600Y0283335D01*
D26*
X0009250Y0266750D03*
X0009250Y0306750D03*
X0047750Y0306750D03*
X0047750Y0345000D03*
X0090250Y0345000D03*
X0090250Y0306750D03*
X0090250Y0266750D03*
X0116000Y0222500D03*
X0105750Y0220000D03*
X0092500Y0190000D03*
X0105000Y0175000D03*
X0116250Y0177500D03*
X0139250Y0174250D03*
X0150250Y0174250D03*
X0125250Y0134250D03*
X0107750Y0134250D03*
X0127000Y0099750D03*
X0138500Y0099750D03*
X0161000Y0062250D03*
X0161000Y0039750D03*
X0121000Y0039750D03*
X0081000Y0039750D03*
X0081000Y0062250D03*
X0073500Y0099750D03*
X0070250Y0134250D03*
X0071250Y0177500D03*
X0060000Y0202500D03*
X0057500Y0222500D03*
X0047750Y0266750D03*
X0018000Y0221750D03*
X0009250Y0221750D03*
X0009250Y0176750D03*
X0018000Y0176750D03*
X0018000Y0131750D03*
X0009250Y0131750D03*
X0009250Y0086750D03*
X0018000Y0086750D03*
X0041000Y0062250D03*
X0041000Y0039750D03*
X0009250Y0039750D03*
X0139250Y0221750D03*
X0150250Y0221750D03*
X0152750Y0266750D03*
X0125250Y0266750D03*
X0152750Y0306750D03*
X0125250Y0309250D03*
X0125250Y0345000D03*
X0152750Y0345000D03*
X0190250Y0345000D03*
X0190250Y0306750D03*
X0190250Y0266750D03*
X0182750Y0221750D03*
X0222750Y0221750D03*
X0232750Y0221750D03*
X0232750Y0176750D03*
X0222750Y0176750D03*
X0222750Y0131750D03*
X0232750Y0131750D03*
X0232750Y0086750D03*
X0222750Y0086750D03*
X0201000Y0062250D03*
X0201000Y0039750D03*
X0232750Y0039750D03*
X0180250Y0159250D03*
X0232750Y0266750D03*
X0232750Y0306750D03*
D27*
X0145000Y0075000D02*
X0145000Y0050000D01*
X0142500Y0047500D01*
X0137500Y0047500D01*
X0107500Y0047500D02*
X0047500Y0047500D01*
X0027500Y0067500D01*
X0027500Y0075000D01*
D28*
X0111000Y0139000D02*
X0111000Y0255000D01*
X0111000Y0282250D01*
X0108750Y0284500D01*
X0108750Y0307500D01*
X0121250Y0320000D01*
X0121250Y0320185D01*
X0111000Y0139000D02*
X0125000Y0125000D01*
X0127500Y0125000D01*
X0130000Y0125000D01*
X0132500Y0122500D01*
X0132500Y0080000D01*
X0117500Y0065000D01*
X0117500Y0057500D01*
M02*
