G75*
%MOIN*%
%OFA0B0*%
%FSLAX25Y25*%
%IPPOS*%
%LPD*%
%AMOC8*
5,1,8,0,0,1.08239X$1,22.5*
%
%ADD10C,0.00500*%
%ADD11C,0.00600*%
%ADD12C,0.01000*%
%ADD13R,0.02000X0.10000*%
%ADD14C,0.00800*%
%ADD15C,0.00400*%
%ADD16C,0.00300*%
%ADD17C,0.00060*%
%ADD18C,0.00700*%
%ADD19C,0.00000*%
D10*
X0061250Y0121250D02*
X0062751Y0121250D01*
X0062001Y0121250D02*
X0062001Y0125754D01*
X0062751Y0125754D02*
X0061250Y0125754D01*
X0064319Y0125003D02*
X0064319Y0122001D01*
X0065070Y0121250D01*
X0066571Y0121250D01*
X0067322Y0122001D01*
X0068923Y0121250D02*
X0071926Y0121250D01*
X0070424Y0121250D02*
X0070424Y0125754D01*
X0068923Y0124253D01*
X0067322Y0125003D02*
X0066571Y0125754D01*
X0065070Y0125754D01*
X0064319Y0125003D01*
X0054101Y0135589D02*
X0054685Y0136173D01*
X0054685Y0137341D01*
X0054101Y0137925D01*
X0054101Y0139273D02*
X0054685Y0139856D01*
X0054685Y0141024D01*
X0054101Y0141608D01*
X0051766Y0141608D01*
X0051182Y0141024D01*
X0051182Y0139856D01*
X0051766Y0139273D01*
X0052350Y0139273D01*
X0052934Y0139856D01*
X0052934Y0141608D01*
X0051766Y0137925D02*
X0051182Y0137341D01*
X0051182Y0136173D01*
X0051766Y0135589D01*
X0054101Y0135589D01*
X0074332Y0177815D02*
X0073748Y0178399D01*
X0073748Y0180734D01*
X0074332Y0181318D01*
X0075499Y0181318D01*
X0076083Y0180734D01*
X0077431Y0180734D02*
X0078015Y0181318D01*
X0079182Y0181318D01*
X0079766Y0180734D01*
X0079766Y0180150D01*
X0077431Y0177815D01*
X0079766Y0177815D01*
X0081114Y0177815D02*
X0083449Y0177815D01*
X0082282Y0177815D02*
X0082282Y0181318D01*
X0081114Y0180150D01*
X0076083Y0178399D02*
X0075499Y0177815D01*
X0074332Y0177815D01*
X0096250Y0155813D02*
X0096250Y0146313D01*
X0106250Y0146313D01*
X0106250Y0155813D01*
X0096250Y0155813D01*
X0096179Y0144383D02*
X0095595Y0143799D01*
X0096179Y0144383D02*
X0097346Y0144383D01*
X0097930Y0143799D01*
X0097930Y0143215D01*
X0095595Y0140880D01*
X0097930Y0140880D01*
X0094247Y0141464D02*
X0093663Y0140880D01*
X0092496Y0140880D01*
X0091912Y0141464D01*
X0091912Y0143799D01*
X0092496Y0144383D01*
X0093663Y0144383D01*
X0094247Y0143799D01*
X0116250Y0146313D02*
X0126250Y0146313D01*
X0126250Y0155813D01*
X0116250Y0155813D01*
X0116250Y0146313D01*
X0136250Y0146313D02*
X0146250Y0146313D01*
X0146250Y0155813D01*
X0136250Y0155813D01*
X0136250Y0146313D01*
X0141744Y0159100D02*
X0144079Y0159100D01*
X0142912Y0159100D02*
X0142912Y0162603D01*
X0141744Y0161436D01*
X0154266Y0131949D02*
X0154850Y0131949D01*
X0155434Y0131366D01*
X0156017Y0131949D01*
X0156601Y0131949D01*
X0157185Y0131366D01*
X0157185Y0130198D01*
X0156601Y0129614D01*
X0157185Y0128266D02*
X0157185Y0125931D01*
X0154850Y0128266D01*
X0154266Y0128266D01*
X0153682Y0127682D01*
X0153682Y0126515D01*
X0154266Y0125931D01*
X0154266Y0124583D02*
X0153682Y0123999D01*
X0153682Y0122832D01*
X0154266Y0122248D01*
X0156601Y0122248D01*
X0157185Y0122832D01*
X0157185Y0123999D01*
X0156601Y0124583D01*
X0154266Y0129614D02*
X0153682Y0130198D01*
X0153682Y0131366D01*
X0154266Y0131949D01*
X0155434Y0131366D02*
X0155434Y0130782D01*
X0165951Y0146912D02*
X0168286Y0146912D01*
X0168870Y0147496D01*
X0168870Y0148663D01*
X0168286Y0149247D01*
X0167119Y0150595D02*
X0167119Y0152930D01*
X0168870Y0152346D02*
X0165367Y0152346D01*
X0167119Y0150595D01*
X0165951Y0149247D02*
X0165367Y0148663D01*
X0165367Y0147496D01*
X0165951Y0146912D01*
X0187884Y0147253D02*
X0187884Y0143750D01*
X0187884Y0144918D02*
X0189635Y0144918D01*
X0190219Y0145501D01*
X0190219Y0146669D01*
X0189635Y0147253D01*
X0187884Y0147253D01*
X0189051Y0144918D02*
X0190219Y0143750D01*
X0191567Y0143750D02*
X0191567Y0147253D01*
X0193902Y0147253D01*
X0195250Y0146669D02*
X0195834Y0147253D01*
X0197001Y0147253D01*
X0197585Y0146669D01*
X0197585Y0145501D02*
X0196418Y0145501D01*
X0197585Y0145501D02*
X0197585Y0144334D01*
X0197001Y0143750D01*
X0195834Y0143750D01*
X0195250Y0144334D01*
X0195250Y0146669D01*
X0192735Y0145501D02*
X0191567Y0145501D01*
X0191567Y0143750D02*
X0193902Y0143750D01*
X0198933Y0143750D02*
X0201268Y0143750D01*
X0200101Y0143750D02*
X0200101Y0147253D01*
X0198933Y0146085D01*
X0209211Y0166222D02*
X0211546Y0166222D01*
X0212130Y0166806D01*
X0212130Y0167973D01*
X0211546Y0168557D01*
X0211546Y0169905D02*
X0212130Y0170489D01*
X0212130Y0171656D01*
X0211546Y0172240D01*
X0210379Y0172240D01*
X0209795Y0171656D01*
X0209795Y0171073D01*
X0210379Y0169905D01*
X0208627Y0169905D01*
X0208627Y0172240D01*
X0209211Y0168557D02*
X0208627Y0167973D01*
X0208627Y0166806D01*
X0209211Y0166222D01*
X0179082Y0186954D02*
X0178498Y0186370D01*
X0177330Y0186370D01*
X0176747Y0186954D01*
X0176747Y0188121D02*
X0177914Y0188705D01*
X0178498Y0188705D01*
X0179082Y0188121D01*
X0179082Y0186954D01*
X0176747Y0188121D02*
X0176747Y0189873D01*
X0179082Y0189873D01*
X0175399Y0186370D02*
X0173063Y0186370D01*
X0174231Y0186370D02*
X0174231Y0189873D01*
X0173063Y0188705D01*
X0171716Y0189289D02*
X0171132Y0189873D01*
X0169964Y0189873D01*
X0169380Y0189289D01*
X0169380Y0186954D01*
X0169964Y0186370D01*
X0171132Y0186370D01*
X0171716Y0186954D01*
X0168750Y0226313D02*
X0178750Y0226313D01*
X0178750Y0235813D01*
X0168750Y0235813D01*
X0168750Y0226313D01*
X0188750Y0226313D02*
X0198750Y0226313D01*
X0198750Y0235813D01*
X0188750Y0235813D01*
X0188750Y0226313D01*
X0208750Y0226313D02*
X0218750Y0226313D01*
X0218750Y0235813D01*
X0208750Y0235813D01*
X0208750Y0226313D01*
X0214244Y0239100D02*
X0216579Y0239100D01*
X0215412Y0239100D02*
X0215412Y0242603D01*
X0214244Y0241436D01*
X0170731Y0097904D02*
X0169564Y0097904D01*
X0168980Y0097321D01*
X0168980Y0096737D01*
X0169564Y0095569D01*
X0167812Y0095569D01*
X0167812Y0097904D01*
X0170731Y0097904D02*
X0171315Y0097321D01*
X0171315Y0096153D01*
X0170731Y0095569D01*
X0171315Y0094221D02*
X0171315Y0091886D01*
X0168980Y0094221D01*
X0168396Y0094221D01*
X0167812Y0093637D01*
X0167812Y0092470D01*
X0168396Y0091886D01*
X0168396Y0090538D02*
X0167812Y0089954D01*
X0167812Y0088787D01*
X0168396Y0088203D01*
X0170731Y0088203D01*
X0171315Y0088787D01*
X0171315Y0089954D01*
X0170731Y0090538D01*
X0098870Y0084846D02*
X0098870Y0083679D01*
X0098286Y0083095D01*
X0098286Y0081747D02*
X0098870Y0081163D01*
X0098870Y0079996D01*
X0098286Y0079412D01*
X0095951Y0079412D01*
X0095367Y0079996D01*
X0095367Y0081163D01*
X0095951Y0081747D01*
X0095951Y0083095D02*
X0095367Y0083679D01*
X0095367Y0084846D01*
X0095951Y0085430D01*
X0096535Y0085430D01*
X0097119Y0084846D01*
X0097702Y0085430D01*
X0098286Y0085430D01*
X0098870Y0084846D01*
X0097119Y0084846D02*
X0097119Y0084263D01*
X0073750Y0226313D02*
X0063750Y0226313D01*
X0063750Y0235813D01*
X0073750Y0235813D01*
X0073750Y0226313D01*
X0071579Y0239100D02*
X0069244Y0239100D01*
X0070412Y0239100D02*
X0070412Y0242603D01*
X0069244Y0241436D01*
X0053750Y0235813D02*
X0053750Y0226313D01*
X0043750Y0226313D01*
X0043750Y0235813D01*
X0053750Y0235813D01*
X0033750Y0235813D02*
X0033750Y0226313D01*
X0023750Y0226313D01*
X0023750Y0235813D01*
X0033750Y0235813D01*
D11*
X0039842Y0243300D02*
X0039842Y0247704D01*
X0042778Y0247704D01*
X0044446Y0247704D02*
X0046648Y0247704D01*
X0047382Y0246970D01*
X0047382Y0244034D01*
X0046648Y0243300D01*
X0044446Y0243300D01*
X0044446Y0247704D01*
X0041310Y0245502D02*
X0039842Y0245502D01*
X0049050Y0244768D02*
X0051986Y0247704D01*
X0053654Y0247704D02*
X0055856Y0247704D01*
X0056590Y0246970D01*
X0056590Y0246236D01*
X0055856Y0245502D01*
X0053654Y0245502D01*
X0053654Y0243300D02*
X0053654Y0247704D01*
X0055856Y0245502D02*
X0056590Y0244768D01*
X0056590Y0244034D01*
X0055856Y0243300D01*
X0053654Y0243300D01*
X0051986Y0243300D02*
X0049784Y0245502D01*
X0049050Y0247704D02*
X0049050Y0243300D01*
X0040894Y0222382D02*
X0069106Y0222382D01*
X0069106Y0212618D01*
X0040894Y0212618D01*
X0040894Y0222382D01*
X0033632Y0225356D02*
X0033632Y0197144D01*
X0023868Y0197144D01*
X0023868Y0225356D01*
X0033632Y0225356D01*
X0044937Y0211500D02*
X0048937Y0211500D01*
X0049437Y0211000D01*
X0060563Y0211000D01*
X0061063Y0211500D01*
X0065063Y0211500D01*
X0065123Y0211498D01*
X0065184Y0211493D01*
X0065243Y0211484D01*
X0065302Y0211471D01*
X0065361Y0211455D01*
X0065418Y0211435D01*
X0065473Y0211412D01*
X0065528Y0211385D01*
X0065580Y0211356D01*
X0065631Y0211323D01*
X0065680Y0211287D01*
X0065726Y0211249D01*
X0065770Y0211207D01*
X0065812Y0211163D01*
X0065850Y0211117D01*
X0065886Y0211068D01*
X0065919Y0211017D01*
X0065948Y0210965D01*
X0065975Y0210910D01*
X0065998Y0210855D01*
X0066018Y0210798D01*
X0066034Y0210739D01*
X0066047Y0210680D01*
X0066056Y0210621D01*
X0066061Y0210560D01*
X0066063Y0210500D01*
X0066063Y0204500D01*
X0066061Y0204440D01*
X0066056Y0204379D01*
X0066047Y0204320D01*
X0066034Y0204261D01*
X0066018Y0204202D01*
X0065998Y0204145D01*
X0065975Y0204090D01*
X0065948Y0204035D01*
X0065919Y0203983D01*
X0065886Y0203932D01*
X0065850Y0203883D01*
X0065812Y0203837D01*
X0065770Y0203793D01*
X0065726Y0203751D01*
X0065680Y0203713D01*
X0065631Y0203677D01*
X0065580Y0203644D01*
X0065528Y0203615D01*
X0065473Y0203588D01*
X0065418Y0203565D01*
X0065361Y0203545D01*
X0065302Y0203529D01*
X0065243Y0203516D01*
X0065184Y0203507D01*
X0065123Y0203502D01*
X0065063Y0203500D01*
X0061063Y0203500D01*
X0060563Y0204000D01*
X0049437Y0204000D01*
X0048937Y0203500D01*
X0044937Y0203500D01*
X0044877Y0203502D01*
X0044816Y0203507D01*
X0044757Y0203516D01*
X0044698Y0203529D01*
X0044639Y0203545D01*
X0044582Y0203565D01*
X0044527Y0203588D01*
X0044472Y0203615D01*
X0044420Y0203644D01*
X0044369Y0203677D01*
X0044320Y0203713D01*
X0044274Y0203751D01*
X0044230Y0203793D01*
X0044188Y0203837D01*
X0044150Y0203883D01*
X0044114Y0203932D01*
X0044081Y0203983D01*
X0044052Y0204035D01*
X0044025Y0204090D01*
X0044002Y0204145D01*
X0043982Y0204202D01*
X0043966Y0204261D01*
X0043953Y0204320D01*
X0043944Y0204379D01*
X0043939Y0204440D01*
X0043937Y0204500D01*
X0043937Y0210500D01*
X0043939Y0210560D01*
X0043944Y0210621D01*
X0043953Y0210680D01*
X0043966Y0210739D01*
X0043982Y0210798D01*
X0044002Y0210855D01*
X0044025Y0210910D01*
X0044052Y0210965D01*
X0044081Y0211017D01*
X0044114Y0211068D01*
X0044150Y0211117D01*
X0044188Y0211163D01*
X0044230Y0211207D01*
X0044274Y0211249D01*
X0044320Y0211287D01*
X0044369Y0211323D01*
X0044420Y0211356D01*
X0044472Y0211385D01*
X0044527Y0211412D01*
X0044582Y0211435D01*
X0044639Y0211455D01*
X0044698Y0211471D01*
X0044757Y0211484D01*
X0044816Y0211493D01*
X0044877Y0211498D01*
X0044937Y0211500D01*
X0044937Y0201500D02*
X0048937Y0201500D01*
X0049437Y0201000D01*
X0060563Y0201000D01*
X0061063Y0201500D01*
X0065063Y0201500D01*
X0065123Y0201498D01*
X0065184Y0201493D01*
X0065243Y0201484D01*
X0065302Y0201471D01*
X0065361Y0201455D01*
X0065418Y0201435D01*
X0065473Y0201412D01*
X0065528Y0201385D01*
X0065580Y0201356D01*
X0065631Y0201323D01*
X0065680Y0201287D01*
X0065726Y0201249D01*
X0065770Y0201207D01*
X0065812Y0201163D01*
X0065850Y0201117D01*
X0065886Y0201068D01*
X0065919Y0201017D01*
X0065948Y0200965D01*
X0065975Y0200910D01*
X0065998Y0200855D01*
X0066018Y0200798D01*
X0066034Y0200739D01*
X0066047Y0200680D01*
X0066056Y0200621D01*
X0066061Y0200560D01*
X0066063Y0200500D01*
X0066063Y0194500D01*
X0066061Y0194440D01*
X0066056Y0194379D01*
X0066047Y0194320D01*
X0066034Y0194261D01*
X0066018Y0194202D01*
X0065998Y0194145D01*
X0065975Y0194090D01*
X0065948Y0194035D01*
X0065919Y0193983D01*
X0065886Y0193932D01*
X0065850Y0193883D01*
X0065812Y0193837D01*
X0065770Y0193793D01*
X0065726Y0193751D01*
X0065680Y0193713D01*
X0065631Y0193677D01*
X0065580Y0193644D01*
X0065528Y0193615D01*
X0065473Y0193588D01*
X0065418Y0193565D01*
X0065361Y0193545D01*
X0065302Y0193529D01*
X0065243Y0193516D01*
X0065184Y0193507D01*
X0065123Y0193502D01*
X0065063Y0193500D01*
X0061063Y0193500D01*
X0060563Y0194000D01*
X0049437Y0194000D01*
X0048937Y0193500D01*
X0044937Y0193500D01*
X0044877Y0193502D01*
X0044816Y0193507D01*
X0044757Y0193516D01*
X0044698Y0193529D01*
X0044639Y0193545D01*
X0044582Y0193565D01*
X0044527Y0193588D01*
X0044472Y0193615D01*
X0044420Y0193644D01*
X0044369Y0193677D01*
X0044320Y0193713D01*
X0044274Y0193751D01*
X0044230Y0193793D01*
X0044188Y0193837D01*
X0044150Y0193883D01*
X0044114Y0193932D01*
X0044081Y0193983D01*
X0044052Y0194035D01*
X0044025Y0194090D01*
X0044002Y0194145D01*
X0043982Y0194202D01*
X0043966Y0194261D01*
X0043953Y0194320D01*
X0043944Y0194379D01*
X0043939Y0194440D01*
X0043937Y0194500D01*
X0043937Y0200500D01*
X0043939Y0200560D01*
X0043944Y0200621D01*
X0043953Y0200680D01*
X0043966Y0200739D01*
X0043982Y0200798D01*
X0044002Y0200855D01*
X0044025Y0200910D01*
X0044052Y0200965D01*
X0044081Y0201017D01*
X0044114Y0201068D01*
X0044150Y0201117D01*
X0044188Y0201163D01*
X0044230Y0201207D01*
X0044274Y0201249D01*
X0044320Y0201287D01*
X0044369Y0201323D01*
X0044420Y0201356D01*
X0044472Y0201385D01*
X0044527Y0201412D01*
X0044582Y0201435D01*
X0044639Y0201455D01*
X0044698Y0201471D01*
X0044757Y0201484D01*
X0044816Y0201493D01*
X0044877Y0201498D01*
X0044937Y0201500D01*
X0040894Y0189882D02*
X0069106Y0189882D01*
X0069106Y0180118D01*
X0040894Y0180118D01*
X0040894Y0189882D01*
X0032750Y0187563D02*
X0032750Y0183563D01*
X0032250Y0183063D01*
X0032250Y0171937D01*
X0032750Y0171437D01*
X0032750Y0167437D01*
X0032748Y0167377D01*
X0032743Y0167316D01*
X0032734Y0167257D01*
X0032721Y0167198D01*
X0032705Y0167139D01*
X0032685Y0167082D01*
X0032662Y0167027D01*
X0032635Y0166972D01*
X0032606Y0166920D01*
X0032573Y0166869D01*
X0032537Y0166820D01*
X0032499Y0166774D01*
X0032457Y0166730D01*
X0032413Y0166688D01*
X0032367Y0166650D01*
X0032318Y0166614D01*
X0032267Y0166581D01*
X0032215Y0166552D01*
X0032160Y0166525D01*
X0032105Y0166502D01*
X0032048Y0166482D01*
X0031989Y0166466D01*
X0031930Y0166453D01*
X0031871Y0166444D01*
X0031810Y0166439D01*
X0031750Y0166437D01*
X0025750Y0166437D01*
X0025690Y0166439D01*
X0025629Y0166444D01*
X0025570Y0166453D01*
X0025511Y0166466D01*
X0025452Y0166482D01*
X0025395Y0166502D01*
X0025340Y0166525D01*
X0025285Y0166552D01*
X0025233Y0166581D01*
X0025182Y0166614D01*
X0025133Y0166650D01*
X0025087Y0166688D01*
X0025043Y0166730D01*
X0025001Y0166774D01*
X0024963Y0166820D01*
X0024927Y0166869D01*
X0024894Y0166920D01*
X0024865Y0166972D01*
X0024838Y0167027D01*
X0024815Y0167082D01*
X0024795Y0167139D01*
X0024779Y0167198D01*
X0024766Y0167257D01*
X0024757Y0167316D01*
X0024752Y0167377D01*
X0024750Y0167437D01*
X0024750Y0171437D01*
X0025250Y0171937D01*
X0025250Y0183063D01*
X0024750Y0183563D01*
X0024750Y0187563D01*
X0024752Y0187623D01*
X0024757Y0187684D01*
X0024766Y0187743D01*
X0024779Y0187802D01*
X0024795Y0187861D01*
X0024815Y0187918D01*
X0024838Y0187973D01*
X0024865Y0188028D01*
X0024894Y0188080D01*
X0024927Y0188131D01*
X0024963Y0188180D01*
X0025001Y0188226D01*
X0025043Y0188270D01*
X0025087Y0188312D01*
X0025133Y0188350D01*
X0025182Y0188386D01*
X0025233Y0188419D01*
X0025285Y0188448D01*
X0025340Y0188475D01*
X0025395Y0188498D01*
X0025452Y0188518D01*
X0025511Y0188534D01*
X0025570Y0188547D01*
X0025629Y0188556D01*
X0025690Y0188561D01*
X0025750Y0188563D01*
X0031750Y0188563D01*
X0031810Y0188561D01*
X0031871Y0188556D01*
X0031930Y0188547D01*
X0031989Y0188534D01*
X0032048Y0188518D01*
X0032105Y0188498D01*
X0032160Y0188475D01*
X0032215Y0188448D01*
X0032267Y0188419D01*
X0032318Y0188386D01*
X0032367Y0188350D01*
X0032413Y0188312D01*
X0032457Y0188270D01*
X0032499Y0188226D01*
X0032537Y0188180D01*
X0032573Y0188131D01*
X0032606Y0188080D01*
X0032635Y0188028D01*
X0032662Y0187973D01*
X0032685Y0187918D01*
X0032705Y0187861D01*
X0032721Y0187802D01*
X0032734Y0187743D01*
X0032743Y0187684D01*
X0032748Y0187623D01*
X0032750Y0187563D01*
X0040894Y0177382D02*
X0069106Y0177382D01*
X0069106Y0167618D01*
X0040894Y0167618D01*
X0040894Y0177382D01*
X0044937Y0166500D02*
X0048937Y0166500D01*
X0049437Y0166000D01*
X0060563Y0166000D01*
X0061063Y0166500D01*
X0065063Y0166500D01*
X0065123Y0166498D01*
X0065184Y0166493D01*
X0065243Y0166484D01*
X0065302Y0166471D01*
X0065361Y0166455D01*
X0065418Y0166435D01*
X0065473Y0166412D01*
X0065528Y0166385D01*
X0065580Y0166356D01*
X0065631Y0166323D01*
X0065680Y0166287D01*
X0065726Y0166249D01*
X0065770Y0166207D01*
X0065812Y0166163D01*
X0065850Y0166117D01*
X0065886Y0166068D01*
X0065919Y0166017D01*
X0065948Y0165965D01*
X0065975Y0165910D01*
X0065998Y0165855D01*
X0066018Y0165798D01*
X0066034Y0165739D01*
X0066047Y0165680D01*
X0066056Y0165621D01*
X0066061Y0165560D01*
X0066063Y0165500D01*
X0066063Y0159500D01*
X0066061Y0159440D01*
X0066056Y0159379D01*
X0066047Y0159320D01*
X0066034Y0159261D01*
X0066018Y0159202D01*
X0065998Y0159145D01*
X0065975Y0159090D01*
X0065948Y0159035D01*
X0065919Y0158983D01*
X0065886Y0158932D01*
X0065850Y0158883D01*
X0065812Y0158837D01*
X0065770Y0158793D01*
X0065726Y0158751D01*
X0065680Y0158713D01*
X0065631Y0158677D01*
X0065580Y0158644D01*
X0065528Y0158615D01*
X0065473Y0158588D01*
X0065418Y0158565D01*
X0065361Y0158545D01*
X0065302Y0158529D01*
X0065243Y0158516D01*
X0065184Y0158507D01*
X0065123Y0158502D01*
X0065063Y0158500D01*
X0061063Y0158500D01*
X0060563Y0159000D01*
X0049437Y0159000D01*
X0048937Y0158500D01*
X0044937Y0158500D01*
X0044877Y0158502D01*
X0044816Y0158507D01*
X0044757Y0158516D01*
X0044698Y0158529D01*
X0044639Y0158545D01*
X0044582Y0158565D01*
X0044527Y0158588D01*
X0044472Y0158615D01*
X0044420Y0158644D01*
X0044369Y0158677D01*
X0044320Y0158713D01*
X0044274Y0158751D01*
X0044230Y0158793D01*
X0044188Y0158837D01*
X0044150Y0158883D01*
X0044114Y0158932D01*
X0044081Y0158983D01*
X0044052Y0159035D01*
X0044025Y0159090D01*
X0044002Y0159145D01*
X0043982Y0159202D01*
X0043966Y0159261D01*
X0043953Y0159320D01*
X0043944Y0159379D01*
X0043939Y0159440D01*
X0043937Y0159500D01*
X0043937Y0165500D01*
X0043939Y0165560D01*
X0043944Y0165621D01*
X0043953Y0165680D01*
X0043966Y0165739D01*
X0043982Y0165798D01*
X0044002Y0165855D01*
X0044025Y0165910D01*
X0044052Y0165965D01*
X0044081Y0166017D01*
X0044114Y0166068D01*
X0044150Y0166117D01*
X0044188Y0166163D01*
X0044230Y0166207D01*
X0044274Y0166249D01*
X0044320Y0166287D01*
X0044369Y0166323D01*
X0044420Y0166356D01*
X0044472Y0166385D01*
X0044527Y0166412D01*
X0044582Y0166435D01*
X0044639Y0166455D01*
X0044698Y0166471D01*
X0044757Y0166484D01*
X0044816Y0166493D01*
X0044877Y0166498D01*
X0044937Y0166500D01*
X0039594Y0140000D02*
X0039596Y0140194D01*
X0039604Y0140388D01*
X0039615Y0140582D01*
X0039632Y0140775D01*
X0039653Y0140968D01*
X0039680Y0141160D01*
X0039710Y0141352D01*
X0039746Y0141542D01*
X0039786Y0141732D01*
X0039831Y0141921D01*
X0039880Y0142109D01*
X0039934Y0142295D01*
X0039993Y0142480D01*
X0040056Y0142663D01*
X0040124Y0142845D01*
X0040196Y0143025D01*
X0040272Y0143204D01*
X0040353Y0143380D01*
X0040438Y0143555D01*
X0040528Y0143727D01*
X0040621Y0143897D01*
X0040719Y0144064D01*
X0040821Y0144230D01*
X0040926Y0144392D01*
X0041036Y0144552D01*
X0041150Y0144710D01*
X0041267Y0144864D01*
X0041389Y0145016D01*
X0041514Y0145164D01*
X0041642Y0145309D01*
X0041774Y0145452D01*
X0041910Y0145590D01*
X0042048Y0145726D01*
X0042191Y0145858D01*
X0042336Y0145986D01*
X0042484Y0146111D01*
X0042636Y0146233D01*
X0042790Y0146350D01*
X0042948Y0146464D01*
X0043108Y0146574D01*
X0043270Y0146679D01*
X0043436Y0146781D01*
X0043603Y0146879D01*
X0043773Y0146972D01*
X0043945Y0147062D01*
X0044120Y0147147D01*
X0044296Y0147228D01*
X0044475Y0147304D01*
X0044655Y0147376D01*
X0044837Y0147444D01*
X0045020Y0147507D01*
X0045205Y0147566D01*
X0045391Y0147620D01*
X0045579Y0147669D01*
X0045768Y0147714D01*
X0045958Y0147754D01*
X0046148Y0147790D01*
X0046340Y0147820D01*
X0046532Y0147847D01*
X0046725Y0147868D01*
X0046918Y0147885D01*
X0047112Y0147896D01*
X0047306Y0147904D01*
X0047500Y0147906D01*
X0047694Y0147904D01*
X0047888Y0147896D01*
X0048082Y0147885D01*
X0048275Y0147868D01*
X0048468Y0147847D01*
X0048660Y0147820D01*
X0048852Y0147790D01*
X0049042Y0147754D01*
X0049232Y0147714D01*
X0049421Y0147669D01*
X0049609Y0147620D01*
X0049795Y0147566D01*
X0049980Y0147507D01*
X0050163Y0147444D01*
X0050345Y0147376D01*
X0050525Y0147304D01*
X0050704Y0147228D01*
X0050880Y0147147D01*
X0051055Y0147062D01*
X0051227Y0146972D01*
X0051397Y0146879D01*
X0051564Y0146781D01*
X0051730Y0146679D01*
X0051892Y0146574D01*
X0052052Y0146464D01*
X0052210Y0146350D01*
X0052364Y0146233D01*
X0052516Y0146111D01*
X0052664Y0145986D01*
X0052809Y0145858D01*
X0052952Y0145726D01*
X0053090Y0145590D01*
X0053226Y0145452D01*
X0053358Y0145309D01*
X0053486Y0145164D01*
X0053611Y0145016D01*
X0053733Y0144864D01*
X0053850Y0144710D01*
X0053964Y0144552D01*
X0054074Y0144392D01*
X0054179Y0144230D01*
X0054281Y0144064D01*
X0054379Y0143897D01*
X0054472Y0143727D01*
X0054562Y0143555D01*
X0054647Y0143380D01*
X0054728Y0143204D01*
X0054804Y0143025D01*
X0054876Y0142845D01*
X0054944Y0142663D01*
X0055007Y0142480D01*
X0055066Y0142295D01*
X0055120Y0142109D01*
X0055169Y0141921D01*
X0055214Y0141732D01*
X0055254Y0141542D01*
X0055290Y0141352D01*
X0055320Y0141160D01*
X0055347Y0140968D01*
X0055368Y0140775D01*
X0055385Y0140582D01*
X0055396Y0140388D01*
X0055404Y0140194D01*
X0055406Y0140000D01*
X0055404Y0139806D01*
X0055396Y0139612D01*
X0055385Y0139418D01*
X0055368Y0139225D01*
X0055347Y0139032D01*
X0055320Y0138840D01*
X0055290Y0138648D01*
X0055254Y0138458D01*
X0055214Y0138268D01*
X0055169Y0138079D01*
X0055120Y0137891D01*
X0055066Y0137705D01*
X0055007Y0137520D01*
X0054944Y0137337D01*
X0054876Y0137155D01*
X0054804Y0136975D01*
X0054728Y0136796D01*
X0054647Y0136620D01*
X0054562Y0136445D01*
X0054472Y0136273D01*
X0054379Y0136103D01*
X0054281Y0135936D01*
X0054179Y0135770D01*
X0054074Y0135608D01*
X0053964Y0135448D01*
X0053850Y0135290D01*
X0053733Y0135136D01*
X0053611Y0134984D01*
X0053486Y0134836D01*
X0053358Y0134691D01*
X0053226Y0134548D01*
X0053090Y0134410D01*
X0052952Y0134274D01*
X0052809Y0134142D01*
X0052664Y0134014D01*
X0052516Y0133889D01*
X0052364Y0133767D01*
X0052210Y0133650D01*
X0052052Y0133536D01*
X0051892Y0133426D01*
X0051730Y0133321D01*
X0051564Y0133219D01*
X0051397Y0133121D01*
X0051227Y0133028D01*
X0051055Y0132938D01*
X0050880Y0132853D01*
X0050704Y0132772D01*
X0050525Y0132696D01*
X0050345Y0132624D01*
X0050163Y0132556D01*
X0049980Y0132493D01*
X0049795Y0132434D01*
X0049609Y0132380D01*
X0049421Y0132331D01*
X0049232Y0132286D01*
X0049042Y0132246D01*
X0048852Y0132210D01*
X0048660Y0132180D01*
X0048468Y0132153D01*
X0048275Y0132132D01*
X0048082Y0132115D01*
X0047888Y0132104D01*
X0047694Y0132096D01*
X0047500Y0132094D01*
X0047306Y0132096D01*
X0047112Y0132104D01*
X0046918Y0132115D01*
X0046725Y0132132D01*
X0046532Y0132153D01*
X0046340Y0132180D01*
X0046148Y0132210D01*
X0045958Y0132246D01*
X0045768Y0132286D01*
X0045579Y0132331D01*
X0045391Y0132380D01*
X0045205Y0132434D01*
X0045020Y0132493D01*
X0044837Y0132556D01*
X0044655Y0132624D01*
X0044475Y0132696D01*
X0044296Y0132772D01*
X0044120Y0132853D01*
X0043945Y0132938D01*
X0043773Y0133028D01*
X0043603Y0133121D01*
X0043436Y0133219D01*
X0043270Y0133321D01*
X0043108Y0133426D01*
X0042948Y0133536D01*
X0042790Y0133650D01*
X0042636Y0133767D01*
X0042484Y0133889D01*
X0042336Y0134014D01*
X0042191Y0134142D01*
X0042048Y0134274D01*
X0041910Y0134410D01*
X0041774Y0134548D01*
X0041642Y0134691D01*
X0041514Y0134836D01*
X0041389Y0134984D01*
X0041267Y0135136D01*
X0041150Y0135290D01*
X0041036Y0135448D01*
X0040926Y0135608D01*
X0040821Y0135770D01*
X0040719Y0135936D01*
X0040621Y0136103D01*
X0040528Y0136273D01*
X0040438Y0136445D01*
X0040353Y0136620D01*
X0040272Y0136796D01*
X0040196Y0136975D01*
X0040124Y0137155D01*
X0040056Y0137337D01*
X0039993Y0137520D01*
X0039934Y0137705D01*
X0039880Y0137891D01*
X0039831Y0138079D01*
X0039786Y0138268D01*
X0039746Y0138458D01*
X0039710Y0138648D01*
X0039680Y0138840D01*
X0039653Y0139032D01*
X0039632Y0139225D01*
X0039615Y0139418D01*
X0039604Y0139612D01*
X0039596Y0139806D01*
X0039594Y0140000D01*
X0041442Y0136915D02*
X0043942Y0136915D01*
X0042700Y0138132D02*
X0042728Y0135667D01*
X0042500Y0130000D02*
X0035000Y0130000D01*
X0032500Y0130000D01*
X0027500Y0125000D02*
X0027502Y0124860D01*
X0027508Y0124720D01*
X0027518Y0124580D01*
X0027531Y0124440D01*
X0027549Y0124301D01*
X0027571Y0124162D01*
X0027596Y0124025D01*
X0027625Y0123887D01*
X0027658Y0123751D01*
X0027695Y0123616D01*
X0027736Y0123482D01*
X0027781Y0123349D01*
X0027829Y0123217D01*
X0027881Y0123087D01*
X0027936Y0122958D01*
X0027995Y0122831D01*
X0028058Y0122705D01*
X0028124Y0122581D01*
X0028193Y0122460D01*
X0028266Y0122340D01*
X0028343Y0122222D01*
X0028422Y0122107D01*
X0028505Y0121993D01*
X0028591Y0121883D01*
X0028680Y0121774D01*
X0028772Y0121668D01*
X0028867Y0121565D01*
X0028964Y0121464D01*
X0029065Y0121367D01*
X0029168Y0121272D01*
X0029274Y0121180D01*
X0029383Y0121091D01*
X0029493Y0121005D01*
X0029607Y0120922D01*
X0029722Y0120843D01*
X0029840Y0120766D01*
X0029960Y0120693D01*
X0030081Y0120624D01*
X0030205Y0120558D01*
X0030331Y0120495D01*
X0030458Y0120436D01*
X0030587Y0120381D01*
X0030717Y0120329D01*
X0030849Y0120281D01*
X0030982Y0120236D01*
X0031116Y0120195D01*
X0031251Y0120158D01*
X0031387Y0120125D01*
X0031525Y0120096D01*
X0031662Y0120071D01*
X0031801Y0120049D01*
X0031940Y0120031D01*
X0032080Y0120018D01*
X0032220Y0120008D01*
X0032360Y0120002D01*
X0032500Y0120000D01*
X0042500Y0120000D01*
X0047500Y0125000D02*
X0047498Y0125140D01*
X0047492Y0125280D01*
X0047482Y0125420D01*
X0047469Y0125560D01*
X0047451Y0125699D01*
X0047429Y0125838D01*
X0047404Y0125975D01*
X0047375Y0126113D01*
X0047342Y0126249D01*
X0047305Y0126384D01*
X0047264Y0126518D01*
X0047219Y0126651D01*
X0047171Y0126783D01*
X0047119Y0126913D01*
X0047064Y0127042D01*
X0047005Y0127169D01*
X0046942Y0127295D01*
X0046876Y0127419D01*
X0046807Y0127540D01*
X0046734Y0127660D01*
X0046657Y0127778D01*
X0046578Y0127893D01*
X0046495Y0128007D01*
X0046409Y0128117D01*
X0046320Y0128226D01*
X0046228Y0128332D01*
X0046133Y0128435D01*
X0046036Y0128536D01*
X0045935Y0128633D01*
X0045832Y0128728D01*
X0045726Y0128820D01*
X0045617Y0128909D01*
X0045507Y0128995D01*
X0045393Y0129078D01*
X0045278Y0129157D01*
X0045160Y0129234D01*
X0045040Y0129307D01*
X0044919Y0129376D01*
X0044795Y0129442D01*
X0044669Y0129505D01*
X0044542Y0129564D01*
X0044413Y0129619D01*
X0044283Y0129671D01*
X0044151Y0129719D01*
X0044018Y0129764D01*
X0043884Y0129805D01*
X0043749Y0129842D01*
X0043613Y0129875D01*
X0043475Y0129904D01*
X0043338Y0129929D01*
X0043199Y0129951D01*
X0043060Y0129969D01*
X0042920Y0129982D01*
X0042780Y0129992D01*
X0042640Y0129998D01*
X0042500Y0130000D01*
X0047500Y0125000D02*
X0047498Y0124860D01*
X0047492Y0124720D01*
X0047482Y0124580D01*
X0047469Y0124440D01*
X0047451Y0124301D01*
X0047429Y0124162D01*
X0047404Y0124025D01*
X0047375Y0123887D01*
X0047342Y0123751D01*
X0047305Y0123616D01*
X0047264Y0123482D01*
X0047219Y0123349D01*
X0047171Y0123217D01*
X0047119Y0123087D01*
X0047064Y0122958D01*
X0047005Y0122831D01*
X0046942Y0122705D01*
X0046876Y0122581D01*
X0046807Y0122460D01*
X0046734Y0122340D01*
X0046657Y0122222D01*
X0046578Y0122107D01*
X0046495Y0121993D01*
X0046409Y0121883D01*
X0046320Y0121774D01*
X0046228Y0121668D01*
X0046133Y0121565D01*
X0046036Y0121464D01*
X0045935Y0121367D01*
X0045832Y0121272D01*
X0045726Y0121180D01*
X0045617Y0121091D01*
X0045507Y0121005D01*
X0045393Y0120922D01*
X0045278Y0120843D01*
X0045160Y0120766D01*
X0045040Y0120693D01*
X0044919Y0120624D01*
X0044795Y0120558D01*
X0044669Y0120495D01*
X0044542Y0120436D01*
X0044413Y0120381D01*
X0044283Y0120329D01*
X0044151Y0120281D01*
X0044018Y0120236D01*
X0043884Y0120195D01*
X0043749Y0120158D01*
X0043613Y0120125D01*
X0043475Y0120096D01*
X0043338Y0120071D01*
X0043199Y0120049D01*
X0043060Y0120031D01*
X0042920Y0120018D01*
X0042780Y0120008D01*
X0042640Y0120002D01*
X0042500Y0120000D01*
X0040500Y0111063D02*
X0034500Y0111063D01*
X0034440Y0111061D01*
X0034379Y0111056D01*
X0034320Y0111047D01*
X0034261Y0111034D01*
X0034202Y0111018D01*
X0034145Y0110998D01*
X0034090Y0110975D01*
X0034035Y0110948D01*
X0033983Y0110919D01*
X0033932Y0110886D01*
X0033883Y0110850D01*
X0033837Y0110812D01*
X0033793Y0110770D01*
X0033751Y0110726D01*
X0033713Y0110680D01*
X0033677Y0110631D01*
X0033644Y0110580D01*
X0033615Y0110528D01*
X0033588Y0110473D01*
X0033565Y0110418D01*
X0033545Y0110361D01*
X0033529Y0110302D01*
X0033516Y0110243D01*
X0033507Y0110184D01*
X0033502Y0110123D01*
X0033500Y0110063D01*
X0033500Y0106063D01*
X0034000Y0105563D01*
X0034000Y0094437D01*
X0033500Y0093937D01*
X0033500Y0089937D01*
X0033502Y0089877D01*
X0033507Y0089816D01*
X0033516Y0089757D01*
X0033529Y0089698D01*
X0033545Y0089639D01*
X0033565Y0089582D01*
X0033588Y0089527D01*
X0033615Y0089472D01*
X0033644Y0089420D01*
X0033677Y0089369D01*
X0033713Y0089320D01*
X0033751Y0089274D01*
X0033793Y0089230D01*
X0033837Y0089188D01*
X0033883Y0089150D01*
X0033932Y0089114D01*
X0033983Y0089081D01*
X0034035Y0089052D01*
X0034090Y0089025D01*
X0034145Y0089002D01*
X0034202Y0088982D01*
X0034261Y0088966D01*
X0034320Y0088953D01*
X0034379Y0088944D01*
X0034440Y0088939D01*
X0034500Y0088937D01*
X0040500Y0088937D01*
X0040560Y0088939D01*
X0040621Y0088944D01*
X0040680Y0088953D01*
X0040739Y0088966D01*
X0040798Y0088982D01*
X0040855Y0089002D01*
X0040910Y0089025D01*
X0040965Y0089052D01*
X0041017Y0089081D01*
X0041068Y0089114D01*
X0041117Y0089150D01*
X0041163Y0089188D01*
X0041207Y0089230D01*
X0041249Y0089274D01*
X0041287Y0089320D01*
X0041323Y0089369D01*
X0041356Y0089420D01*
X0041385Y0089472D01*
X0041412Y0089527D01*
X0041435Y0089582D01*
X0041455Y0089639D01*
X0041471Y0089698D01*
X0041484Y0089757D01*
X0041493Y0089816D01*
X0041498Y0089877D01*
X0041500Y0089937D01*
X0041500Y0093937D01*
X0041000Y0094437D01*
X0041000Y0105563D01*
X0041500Y0106063D01*
X0041500Y0110063D01*
X0041498Y0110123D01*
X0041493Y0110184D01*
X0041484Y0110243D01*
X0041471Y0110302D01*
X0041455Y0110361D01*
X0041435Y0110418D01*
X0041412Y0110473D01*
X0041385Y0110528D01*
X0041356Y0110580D01*
X0041323Y0110631D01*
X0041287Y0110680D01*
X0041249Y0110726D01*
X0041207Y0110770D01*
X0041163Y0110812D01*
X0041117Y0110850D01*
X0041068Y0110886D01*
X0041017Y0110919D01*
X0040965Y0110948D01*
X0040910Y0110975D01*
X0040855Y0110998D01*
X0040798Y0111018D01*
X0040739Y0111034D01*
X0040680Y0111047D01*
X0040621Y0111056D01*
X0040560Y0111061D01*
X0040500Y0111063D01*
X0043500Y0110063D02*
X0043500Y0106063D01*
X0044000Y0105563D01*
X0044000Y0094437D01*
X0043500Y0093937D01*
X0043500Y0089937D01*
X0043502Y0089877D01*
X0043507Y0089816D01*
X0043516Y0089757D01*
X0043529Y0089698D01*
X0043545Y0089639D01*
X0043565Y0089582D01*
X0043588Y0089527D01*
X0043615Y0089472D01*
X0043644Y0089420D01*
X0043677Y0089369D01*
X0043713Y0089320D01*
X0043751Y0089274D01*
X0043793Y0089230D01*
X0043837Y0089188D01*
X0043883Y0089150D01*
X0043932Y0089114D01*
X0043983Y0089081D01*
X0044035Y0089052D01*
X0044090Y0089025D01*
X0044145Y0089002D01*
X0044202Y0088982D01*
X0044261Y0088966D01*
X0044320Y0088953D01*
X0044379Y0088944D01*
X0044440Y0088939D01*
X0044500Y0088937D01*
X0050500Y0088937D01*
X0050560Y0088939D01*
X0050621Y0088944D01*
X0050680Y0088953D01*
X0050739Y0088966D01*
X0050798Y0088982D01*
X0050855Y0089002D01*
X0050910Y0089025D01*
X0050965Y0089052D01*
X0051017Y0089081D01*
X0051068Y0089114D01*
X0051117Y0089150D01*
X0051163Y0089188D01*
X0051207Y0089230D01*
X0051249Y0089274D01*
X0051287Y0089320D01*
X0051323Y0089369D01*
X0051356Y0089420D01*
X0051385Y0089472D01*
X0051412Y0089527D01*
X0051435Y0089582D01*
X0051455Y0089639D01*
X0051471Y0089698D01*
X0051484Y0089757D01*
X0051493Y0089816D01*
X0051498Y0089877D01*
X0051500Y0089937D01*
X0051500Y0093937D01*
X0051000Y0094437D01*
X0051000Y0105563D01*
X0051500Y0106063D01*
X0051500Y0110063D01*
X0051498Y0110123D01*
X0051493Y0110184D01*
X0051484Y0110243D01*
X0051471Y0110302D01*
X0051455Y0110361D01*
X0051435Y0110418D01*
X0051412Y0110473D01*
X0051385Y0110528D01*
X0051356Y0110580D01*
X0051323Y0110631D01*
X0051287Y0110680D01*
X0051249Y0110726D01*
X0051207Y0110770D01*
X0051163Y0110812D01*
X0051117Y0110850D01*
X0051068Y0110886D01*
X0051017Y0110919D01*
X0050965Y0110948D01*
X0050910Y0110975D01*
X0050855Y0110998D01*
X0050798Y0111018D01*
X0050739Y0111034D01*
X0050680Y0111047D01*
X0050621Y0111056D01*
X0050560Y0111061D01*
X0050500Y0111063D01*
X0044500Y0111063D01*
X0044440Y0111061D01*
X0044379Y0111056D01*
X0044320Y0111047D01*
X0044261Y0111034D01*
X0044202Y0111018D01*
X0044145Y0110998D01*
X0044090Y0110975D01*
X0044035Y0110948D01*
X0043983Y0110919D01*
X0043932Y0110886D01*
X0043883Y0110850D01*
X0043837Y0110812D01*
X0043793Y0110770D01*
X0043751Y0110726D01*
X0043713Y0110680D01*
X0043677Y0110631D01*
X0043644Y0110580D01*
X0043615Y0110528D01*
X0043588Y0110473D01*
X0043565Y0110418D01*
X0043545Y0110361D01*
X0043529Y0110302D01*
X0043516Y0110243D01*
X0043507Y0110184D01*
X0043502Y0110123D01*
X0043500Y0110063D01*
X0031500Y0110063D02*
X0031500Y0106063D01*
X0031000Y0105563D01*
X0031000Y0094437D01*
X0031500Y0093937D01*
X0031500Y0089937D01*
X0031498Y0089877D01*
X0031493Y0089816D01*
X0031484Y0089757D01*
X0031471Y0089698D01*
X0031455Y0089639D01*
X0031435Y0089582D01*
X0031412Y0089527D01*
X0031385Y0089472D01*
X0031356Y0089420D01*
X0031323Y0089369D01*
X0031287Y0089320D01*
X0031249Y0089274D01*
X0031207Y0089230D01*
X0031163Y0089188D01*
X0031117Y0089150D01*
X0031068Y0089114D01*
X0031017Y0089081D01*
X0030965Y0089052D01*
X0030910Y0089025D01*
X0030855Y0089002D01*
X0030798Y0088982D01*
X0030739Y0088966D01*
X0030680Y0088953D01*
X0030621Y0088944D01*
X0030560Y0088939D01*
X0030500Y0088937D01*
X0024500Y0088937D01*
X0024440Y0088939D01*
X0024379Y0088944D01*
X0024320Y0088953D01*
X0024261Y0088966D01*
X0024202Y0088982D01*
X0024145Y0089002D01*
X0024090Y0089025D01*
X0024035Y0089052D01*
X0023983Y0089081D01*
X0023932Y0089114D01*
X0023883Y0089150D01*
X0023837Y0089188D01*
X0023793Y0089230D01*
X0023751Y0089274D01*
X0023713Y0089320D01*
X0023677Y0089369D01*
X0023644Y0089420D01*
X0023615Y0089472D01*
X0023588Y0089527D01*
X0023565Y0089582D01*
X0023545Y0089639D01*
X0023529Y0089698D01*
X0023516Y0089757D01*
X0023507Y0089816D01*
X0023502Y0089877D01*
X0023500Y0089937D01*
X0023500Y0093937D01*
X0024000Y0094437D01*
X0024000Y0105563D01*
X0023500Y0106063D01*
X0023500Y0110063D01*
X0023502Y0110123D01*
X0023507Y0110184D01*
X0023516Y0110243D01*
X0023529Y0110302D01*
X0023545Y0110361D01*
X0023565Y0110418D01*
X0023588Y0110473D01*
X0023615Y0110528D01*
X0023644Y0110580D01*
X0023677Y0110631D01*
X0023713Y0110680D01*
X0023751Y0110726D01*
X0023793Y0110770D01*
X0023837Y0110812D01*
X0023883Y0110850D01*
X0023932Y0110886D01*
X0023983Y0110919D01*
X0024035Y0110948D01*
X0024090Y0110975D01*
X0024145Y0110998D01*
X0024202Y0111018D01*
X0024261Y0111034D01*
X0024320Y0111047D01*
X0024379Y0111056D01*
X0024440Y0111061D01*
X0024500Y0111063D01*
X0030500Y0111063D01*
X0030560Y0111061D01*
X0030621Y0111056D01*
X0030680Y0111047D01*
X0030739Y0111034D01*
X0030798Y0111018D01*
X0030855Y0110998D01*
X0030910Y0110975D01*
X0030965Y0110948D01*
X0031017Y0110919D01*
X0031068Y0110886D01*
X0031117Y0110850D01*
X0031163Y0110812D01*
X0031207Y0110770D01*
X0031249Y0110726D01*
X0031287Y0110680D01*
X0031323Y0110631D01*
X0031356Y0110580D01*
X0031385Y0110528D01*
X0031412Y0110473D01*
X0031435Y0110418D01*
X0031455Y0110361D01*
X0031471Y0110302D01*
X0031484Y0110243D01*
X0031493Y0110184D01*
X0031498Y0110123D01*
X0031500Y0110063D01*
X0027500Y0125000D02*
X0027502Y0125140D01*
X0027508Y0125280D01*
X0027518Y0125420D01*
X0027531Y0125560D01*
X0027549Y0125699D01*
X0027571Y0125838D01*
X0027596Y0125975D01*
X0027625Y0126113D01*
X0027658Y0126249D01*
X0027695Y0126384D01*
X0027736Y0126518D01*
X0027781Y0126651D01*
X0027829Y0126783D01*
X0027881Y0126913D01*
X0027936Y0127042D01*
X0027995Y0127169D01*
X0028058Y0127295D01*
X0028124Y0127419D01*
X0028193Y0127540D01*
X0028266Y0127660D01*
X0028343Y0127778D01*
X0028422Y0127893D01*
X0028505Y0128007D01*
X0028591Y0128117D01*
X0028680Y0128226D01*
X0028772Y0128332D01*
X0028867Y0128435D01*
X0028964Y0128536D01*
X0029065Y0128633D01*
X0029168Y0128728D01*
X0029274Y0128820D01*
X0029383Y0128909D01*
X0029493Y0128995D01*
X0029607Y0129078D01*
X0029722Y0129157D01*
X0029840Y0129234D01*
X0029960Y0129307D01*
X0030081Y0129376D01*
X0030205Y0129442D01*
X0030331Y0129505D01*
X0030458Y0129564D01*
X0030587Y0129619D01*
X0030717Y0129671D01*
X0030849Y0129719D01*
X0030982Y0129764D01*
X0031116Y0129805D01*
X0031251Y0129842D01*
X0031387Y0129875D01*
X0031525Y0129904D01*
X0031662Y0129929D01*
X0031801Y0129951D01*
X0031940Y0129969D01*
X0032080Y0129982D01*
X0032220Y0129992D01*
X0032360Y0129998D01*
X0032500Y0130000D01*
X0061437Y0128000D02*
X0061437Y0122000D01*
X0061439Y0121940D01*
X0061444Y0121879D01*
X0061453Y0121820D01*
X0061466Y0121761D01*
X0061482Y0121702D01*
X0061502Y0121645D01*
X0061525Y0121590D01*
X0061552Y0121535D01*
X0061581Y0121483D01*
X0061614Y0121432D01*
X0061650Y0121383D01*
X0061688Y0121337D01*
X0061730Y0121293D01*
X0061774Y0121251D01*
X0061820Y0121213D01*
X0061869Y0121177D01*
X0061920Y0121144D01*
X0061972Y0121115D01*
X0062027Y0121088D01*
X0062082Y0121065D01*
X0062139Y0121045D01*
X0062198Y0121029D01*
X0062257Y0121016D01*
X0062316Y0121007D01*
X0062377Y0121002D01*
X0062437Y0121000D01*
X0066437Y0121000D01*
X0066937Y0121500D01*
X0078063Y0121500D01*
X0078563Y0121000D01*
X0082563Y0121000D01*
X0082623Y0121002D01*
X0082684Y0121007D01*
X0082743Y0121016D01*
X0082802Y0121029D01*
X0082861Y0121045D01*
X0082918Y0121065D01*
X0082973Y0121088D01*
X0083028Y0121115D01*
X0083080Y0121144D01*
X0083131Y0121177D01*
X0083180Y0121213D01*
X0083226Y0121251D01*
X0083270Y0121293D01*
X0083312Y0121337D01*
X0083350Y0121383D01*
X0083386Y0121432D01*
X0083419Y0121483D01*
X0083448Y0121535D01*
X0083475Y0121590D01*
X0083498Y0121645D01*
X0083518Y0121702D01*
X0083534Y0121761D01*
X0083547Y0121820D01*
X0083556Y0121879D01*
X0083561Y0121940D01*
X0083563Y0122000D01*
X0083563Y0128000D01*
X0083561Y0128060D01*
X0083556Y0128121D01*
X0083547Y0128180D01*
X0083534Y0128239D01*
X0083518Y0128298D01*
X0083498Y0128355D01*
X0083475Y0128410D01*
X0083448Y0128465D01*
X0083419Y0128517D01*
X0083386Y0128568D01*
X0083350Y0128617D01*
X0083312Y0128663D01*
X0083270Y0128707D01*
X0083226Y0128749D01*
X0083180Y0128787D01*
X0083131Y0128823D01*
X0083080Y0128856D01*
X0083028Y0128885D01*
X0082973Y0128912D01*
X0082918Y0128935D01*
X0082861Y0128955D01*
X0082802Y0128971D01*
X0082743Y0128984D01*
X0082684Y0128993D01*
X0082623Y0128998D01*
X0082563Y0129000D01*
X0078563Y0129000D01*
X0078063Y0128500D01*
X0066937Y0128500D01*
X0066437Y0129000D01*
X0062437Y0129000D01*
X0062377Y0128998D01*
X0062316Y0128993D01*
X0062257Y0128984D01*
X0062198Y0128971D01*
X0062139Y0128955D01*
X0062082Y0128935D01*
X0062027Y0128912D01*
X0061972Y0128885D01*
X0061920Y0128856D01*
X0061869Y0128823D01*
X0061820Y0128787D01*
X0061774Y0128749D01*
X0061730Y0128707D01*
X0061688Y0128663D01*
X0061650Y0128617D01*
X0061614Y0128568D01*
X0061581Y0128517D01*
X0061552Y0128465D01*
X0061525Y0128410D01*
X0061502Y0128355D01*
X0061482Y0128298D01*
X0061466Y0128239D01*
X0061453Y0128180D01*
X0061444Y0128121D01*
X0061439Y0128060D01*
X0061437Y0128000D01*
X0061000Y0120000D02*
X0068500Y0120000D01*
X0068502Y0119874D01*
X0068508Y0119749D01*
X0068518Y0119624D01*
X0068532Y0119499D01*
X0068549Y0119374D01*
X0068571Y0119250D01*
X0068596Y0119127D01*
X0068626Y0119005D01*
X0068659Y0118884D01*
X0068696Y0118764D01*
X0068736Y0118645D01*
X0068781Y0118528D01*
X0068829Y0118411D01*
X0068881Y0118297D01*
X0068936Y0118184D01*
X0068995Y0118073D01*
X0069057Y0117964D01*
X0069123Y0117857D01*
X0069192Y0117752D01*
X0069264Y0117649D01*
X0069339Y0117548D01*
X0069418Y0117450D01*
X0069500Y0117355D01*
X0069584Y0117262D01*
X0069672Y0117172D01*
X0069762Y0117084D01*
X0069855Y0117000D01*
X0069950Y0116918D01*
X0070048Y0116839D01*
X0070149Y0116764D01*
X0070252Y0116692D01*
X0070357Y0116623D01*
X0070464Y0116557D01*
X0070573Y0116495D01*
X0070684Y0116436D01*
X0070797Y0116381D01*
X0070911Y0116329D01*
X0071028Y0116281D01*
X0071145Y0116236D01*
X0071264Y0116196D01*
X0071384Y0116159D01*
X0071505Y0116126D01*
X0071627Y0116096D01*
X0071750Y0116071D01*
X0071874Y0116049D01*
X0071999Y0116032D01*
X0072124Y0116018D01*
X0072249Y0116008D01*
X0072374Y0116002D01*
X0072500Y0116000D01*
X0072626Y0116002D01*
X0072751Y0116008D01*
X0072876Y0116018D01*
X0073001Y0116032D01*
X0073126Y0116049D01*
X0073250Y0116071D01*
X0073373Y0116096D01*
X0073495Y0116126D01*
X0073616Y0116159D01*
X0073736Y0116196D01*
X0073855Y0116236D01*
X0073972Y0116281D01*
X0074089Y0116329D01*
X0074203Y0116381D01*
X0074316Y0116436D01*
X0074427Y0116495D01*
X0074536Y0116557D01*
X0074643Y0116623D01*
X0074748Y0116692D01*
X0074851Y0116764D01*
X0074952Y0116839D01*
X0075050Y0116918D01*
X0075145Y0117000D01*
X0075238Y0117084D01*
X0075328Y0117172D01*
X0075416Y0117262D01*
X0075500Y0117355D01*
X0075582Y0117450D01*
X0075661Y0117548D01*
X0075736Y0117649D01*
X0075808Y0117752D01*
X0075877Y0117857D01*
X0075943Y0117964D01*
X0076005Y0118073D01*
X0076064Y0118184D01*
X0076119Y0118297D01*
X0076171Y0118411D01*
X0076219Y0118528D01*
X0076264Y0118645D01*
X0076304Y0118764D01*
X0076341Y0118884D01*
X0076374Y0119005D01*
X0076404Y0119127D01*
X0076429Y0119250D01*
X0076451Y0119374D01*
X0076468Y0119499D01*
X0076482Y0119624D01*
X0076492Y0119749D01*
X0076498Y0119874D01*
X0076500Y0120000D01*
X0084000Y0120000D01*
X0084000Y0080000D01*
X0061000Y0080000D01*
X0061000Y0120000D01*
X0051606Y0079882D02*
X0051606Y0070118D01*
X0023394Y0070118D01*
X0023394Y0079882D01*
X0051606Y0079882D01*
X0092500Y0100000D02*
X0092500Y0110000D01*
X0092502Y0110140D01*
X0092508Y0110280D01*
X0092518Y0110420D01*
X0092531Y0110560D01*
X0092549Y0110699D01*
X0092571Y0110838D01*
X0092596Y0110975D01*
X0092625Y0111113D01*
X0092658Y0111249D01*
X0092695Y0111384D01*
X0092736Y0111518D01*
X0092781Y0111651D01*
X0092829Y0111783D01*
X0092881Y0111913D01*
X0092936Y0112042D01*
X0092995Y0112169D01*
X0093058Y0112295D01*
X0093124Y0112419D01*
X0093193Y0112540D01*
X0093266Y0112660D01*
X0093343Y0112778D01*
X0093422Y0112893D01*
X0093505Y0113007D01*
X0093591Y0113117D01*
X0093680Y0113226D01*
X0093772Y0113332D01*
X0093867Y0113435D01*
X0093964Y0113536D01*
X0094065Y0113633D01*
X0094168Y0113728D01*
X0094274Y0113820D01*
X0094383Y0113909D01*
X0094493Y0113995D01*
X0094607Y0114078D01*
X0094722Y0114157D01*
X0094840Y0114234D01*
X0094960Y0114307D01*
X0095081Y0114376D01*
X0095205Y0114442D01*
X0095331Y0114505D01*
X0095458Y0114564D01*
X0095587Y0114619D01*
X0095717Y0114671D01*
X0095849Y0114719D01*
X0095982Y0114764D01*
X0096116Y0114805D01*
X0096251Y0114842D01*
X0096387Y0114875D01*
X0096525Y0114904D01*
X0096662Y0114929D01*
X0096801Y0114951D01*
X0096940Y0114969D01*
X0097080Y0114982D01*
X0097220Y0114992D01*
X0097360Y0114998D01*
X0097500Y0115000D01*
X0097640Y0114998D01*
X0097780Y0114992D01*
X0097920Y0114982D01*
X0098060Y0114969D01*
X0098199Y0114951D01*
X0098338Y0114929D01*
X0098475Y0114904D01*
X0098613Y0114875D01*
X0098749Y0114842D01*
X0098884Y0114805D01*
X0099018Y0114764D01*
X0099151Y0114719D01*
X0099283Y0114671D01*
X0099413Y0114619D01*
X0099542Y0114564D01*
X0099669Y0114505D01*
X0099795Y0114442D01*
X0099919Y0114376D01*
X0100040Y0114307D01*
X0100160Y0114234D01*
X0100278Y0114157D01*
X0100393Y0114078D01*
X0100507Y0113995D01*
X0100617Y0113909D01*
X0100726Y0113820D01*
X0100832Y0113728D01*
X0100935Y0113633D01*
X0101036Y0113536D01*
X0101133Y0113435D01*
X0101228Y0113332D01*
X0101320Y0113226D01*
X0101409Y0113117D01*
X0101495Y0113007D01*
X0101578Y0112893D01*
X0101657Y0112778D01*
X0101734Y0112660D01*
X0101807Y0112540D01*
X0101876Y0112419D01*
X0101942Y0112295D01*
X0102005Y0112169D01*
X0102064Y0112042D01*
X0102119Y0111913D01*
X0102171Y0111783D01*
X0102219Y0111651D01*
X0102264Y0111518D01*
X0102305Y0111384D01*
X0102342Y0111249D01*
X0102375Y0111113D01*
X0102404Y0110975D01*
X0102429Y0110838D01*
X0102451Y0110699D01*
X0102469Y0110560D01*
X0102482Y0110420D01*
X0102492Y0110280D01*
X0102498Y0110140D01*
X0102500Y0110000D01*
X0102500Y0107500D01*
X0102500Y0100000D01*
X0102498Y0099860D01*
X0102492Y0099720D01*
X0102482Y0099580D01*
X0102469Y0099440D01*
X0102451Y0099301D01*
X0102429Y0099162D01*
X0102404Y0099025D01*
X0102375Y0098887D01*
X0102342Y0098751D01*
X0102305Y0098616D01*
X0102264Y0098482D01*
X0102219Y0098349D01*
X0102171Y0098217D01*
X0102119Y0098087D01*
X0102064Y0097958D01*
X0102005Y0097831D01*
X0101942Y0097705D01*
X0101876Y0097581D01*
X0101807Y0097460D01*
X0101734Y0097340D01*
X0101657Y0097222D01*
X0101578Y0097107D01*
X0101495Y0096993D01*
X0101409Y0096883D01*
X0101320Y0096774D01*
X0101228Y0096668D01*
X0101133Y0096565D01*
X0101036Y0096464D01*
X0100935Y0096367D01*
X0100832Y0096272D01*
X0100726Y0096180D01*
X0100617Y0096091D01*
X0100507Y0096005D01*
X0100393Y0095922D01*
X0100278Y0095843D01*
X0100160Y0095766D01*
X0100040Y0095693D01*
X0099919Y0095624D01*
X0099795Y0095558D01*
X0099669Y0095495D01*
X0099542Y0095436D01*
X0099413Y0095381D01*
X0099283Y0095329D01*
X0099151Y0095281D01*
X0099018Y0095236D01*
X0098884Y0095195D01*
X0098749Y0095158D01*
X0098613Y0095125D01*
X0098475Y0095096D01*
X0098338Y0095071D01*
X0098199Y0095049D01*
X0098060Y0095031D01*
X0097920Y0095018D01*
X0097780Y0095008D01*
X0097640Y0095002D01*
X0097500Y0095000D01*
X0097360Y0095002D01*
X0097220Y0095008D01*
X0097080Y0095018D01*
X0096940Y0095031D01*
X0096801Y0095049D01*
X0096662Y0095071D01*
X0096525Y0095096D01*
X0096387Y0095125D01*
X0096251Y0095158D01*
X0096116Y0095195D01*
X0095982Y0095236D01*
X0095849Y0095281D01*
X0095717Y0095329D01*
X0095587Y0095381D01*
X0095458Y0095436D01*
X0095331Y0095495D01*
X0095205Y0095558D01*
X0095081Y0095624D01*
X0094960Y0095693D01*
X0094840Y0095766D01*
X0094722Y0095843D01*
X0094607Y0095922D01*
X0094493Y0096005D01*
X0094383Y0096091D01*
X0094274Y0096180D01*
X0094168Y0096272D01*
X0094065Y0096367D01*
X0093964Y0096464D01*
X0093867Y0096565D01*
X0093772Y0096668D01*
X0093680Y0096774D01*
X0093591Y0096883D01*
X0093505Y0096993D01*
X0093422Y0097107D01*
X0093343Y0097222D01*
X0093266Y0097340D01*
X0093193Y0097460D01*
X0093124Y0097581D01*
X0093058Y0097705D01*
X0092995Y0097831D01*
X0092936Y0097958D01*
X0092881Y0098087D01*
X0092829Y0098217D01*
X0092781Y0098349D01*
X0092736Y0098482D01*
X0092695Y0098616D01*
X0092658Y0098751D01*
X0092625Y0098887D01*
X0092596Y0099025D01*
X0092571Y0099162D01*
X0092549Y0099301D01*
X0092531Y0099440D01*
X0092518Y0099580D01*
X0092508Y0099720D01*
X0092502Y0099860D01*
X0092500Y0100000D01*
X0092657Y0081000D02*
X0092660Y0081242D01*
X0092669Y0081483D01*
X0092684Y0081724D01*
X0092704Y0081965D01*
X0092731Y0082205D01*
X0092764Y0082444D01*
X0092802Y0082683D01*
X0092846Y0082920D01*
X0092896Y0083157D01*
X0092952Y0083392D01*
X0093014Y0083625D01*
X0093081Y0083857D01*
X0093154Y0084088D01*
X0093232Y0084316D01*
X0093317Y0084542D01*
X0093406Y0084767D01*
X0093501Y0084989D01*
X0093602Y0085208D01*
X0093708Y0085426D01*
X0093819Y0085640D01*
X0093936Y0085852D01*
X0094057Y0086060D01*
X0094184Y0086266D01*
X0094316Y0086468D01*
X0094453Y0086668D01*
X0094594Y0086863D01*
X0094740Y0087056D01*
X0094891Y0087244D01*
X0095047Y0087429D01*
X0095207Y0087610D01*
X0095371Y0087787D01*
X0095540Y0087960D01*
X0095713Y0088129D01*
X0095890Y0088293D01*
X0096071Y0088453D01*
X0096256Y0088609D01*
X0096444Y0088760D01*
X0096637Y0088906D01*
X0096832Y0089047D01*
X0097032Y0089184D01*
X0097234Y0089316D01*
X0097440Y0089443D01*
X0097648Y0089564D01*
X0097860Y0089681D01*
X0098074Y0089792D01*
X0098292Y0089898D01*
X0098511Y0089999D01*
X0098733Y0090094D01*
X0098958Y0090183D01*
X0099184Y0090268D01*
X0099412Y0090346D01*
X0099643Y0090419D01*
X0099875Y0090486D01*
X0100108Y0090548D01*
X0100343Y0090604D01*
X0100580Y0090654D01*
X0100817Y0090698D01*
X0101056Y0090736D01*
X0101295Y0090769D01*
X0101535Y0090796D01*
X0101776Y0090816D01*
X0102017Y0090831D01*
X0102258Y0090840D01*
X0102500Y0090843D01*
X0102742Y0090840D01*
X0102983Y0090831D01*
X0103224Y0090816D01*
X0103465Y0090796D01*
X0103705Y0090769D01*
X0103944Y0090736D01*
X0104183Y0090698D01*
X0104420Y0090654D01*
X0104657Y0090604D01*
X0104892Y0090548D01*
X0105125Y0090486D01*
X0105357Y0090419D01*
X0105588Y0090346D01*
X0105816Y0090268D01*
X0106042Y0090183D01*
X0106267Y0090094D01*
X0106489Y0089999D01*
X0106708Y0089898D01*
X0106926Y0089792D01*
X0107140Y0089681D01*
X0107352Y0089564D01*
X0107560Y0089443D01*
X0107766Y0089316D01*
X0107968Y0089184D01*
X0108168Y0089047D01*
X0108363Y0088906D01*
X0108556Y0088760D01*
X0108744Y0088609D01*
X0108929Y0088453D01*
X0109110Y0088293D01*
X0109287Y0088129D01*
X0109460Y0087960D01*
X0109629Y0087787D01*
X0109793Y0087610D01*
X0109953Y0087429D01*
X0110109Y0087244D01*
X0110260Y0087056D01*
X0110406Y0086863D01*
X0110547Y0086668D01*
X0110684Y0086468D01*
X0110816Y0086266D01*
X0110943Y0086060D01*
X0111064Y0085852D01*
X0111181Y0085640D01*
X0111292Y0085426D01*
X0111398Y0085208D01*
X0111499Y0084989D01*
X0111594Y0084767D01*
X0111683Y0084542D01*
X0111768Y0084316D01*
X0111846Y0084088D01*
X0111919Y0083857D01*
X0111986Y0083625D01*
X0112048Y0083392D01*
X0112104Y0083157D01*
X0112154Y0082920D01*
X0112198Y0082683D01*
X0112236Y0082444D01*
X0112269Y0082205D01*
X0112296Y0081965D01*
X0112316Y0081724D01*
X0112331Y0081483D01*
X0112340Y0081242D01*
X0112343Y0081000D01*
X0112340Y0080758D01*
X0112331Y0080517D01*
X0112316Y0080276D01*
X0112296Y0080035D01*
X0112269Y0079795D01*
X0112236Y0079556D01*
X0112198Y0079317D01*
X0112154Y0079080D01*
X0112104Y0078843D01*
X0112048Y0078608D01*
X0111986Y0078375D01*
X0111919Y0078143D01*
X0111846Y0077912D01*
X0111768Y0077684D01*
X0111683Y0077458D01*
X0111594Y0077233D01*
X0111499Y0077011D01*
X0111398Y0076792D01*
X0111292Y0076574D01*
X0111181Y0076360D01*
X0111064Y0076148D01*
X0110943Y0075940D01*
X0110816Y0075734D01*
X0110684Y0075532D01*
X0110547Y0075332D01*
X0110406Y0075137D01*
X0110260Y0074944D01*
X0110109Y0074756D01*
X0109953Y0074571D01*
X0109793Y0074390D01*
X0109629Y0074213D01*
X0109460Y0074040D01*
X0109287Y0073871D01*
X0109110Y0073707D01*
X0108929Y0073547D01*
X0108744Y0073391D01*
X0108556Y0073240D01*
X0108363Y0073094D01*
X0108168Y0072953D01*
X0107968Y0072816D01*
X0107766Y0072684D01*
X0107560Y0072557D01*
X0107352Y0072436D01*
X0107140Y0072319D01*
X0106926Y0072208D01*
X0106708Y0072102D01*
X0106489Y0072001D01*
X0106267Y0071906D01*
X0106042Y0071817D01*
X0105816Y0071732D01*
X0105588Y0071654D01*
X0105357Y0071581D01*
X0105125Y0071514D01*
X0104892Y0071452D01*
X0104657Y0071396D01*
X0104420Y0071346D01*
X0104183Y0071302D01*
X0103944Y0071264D01*
X0103705Y0071231D01*
X0103465Y0071204D01*
X0103224Y0071184D01*
X0102983Y0071169D01*
X0102742Y0071160D01*
X0102500Y0071157D01*
X0102258Y0071160D01*
X0102017Y0071169D01*
X0101776Y0071184D01*
X0101535Y0071204D01*
X0101295Y0071231D01*
X0101056Y0071264D01*
X0100817Y0071302D01*
X0100580Y0071346D01*
X0100343Y0071396D01*
X0100108Y0071452D01*
X0099875Y0071514D01*
X0099643Y0071581D01*
X0099412Y0071654D01*
X0099184Y0071732D01*
X0098958Y0071817D01*
X0098733Y0071906D01*
X0098511Y0072001D01*
X0098292Y0072102D01*
X0098074Y0072208D01*
X0097860Y0072319D01*
X0097648Y0072436D01*
X0097440Y0072557D01*
X0097234Y0072684D01*
X0097032Y0072816D01*
X0096832Y0072953D01*
X0096637Y0073094D01*
X0096444Y0073240D01*
X0096256Y0073391D01*
X0096071Y0073547D01*
X0095890Y0073707D01*
X0095713Y0073871D01*
X0095540Y0074040D01*
X0095371Y0074213D01*
X0095207Y0074390D01*
X0095047Y0074571D01*
X0094891Y0074756D01*
X0094740Y0074944D01*
X0094594Y0075137D01*
X0094453Y0075332D01*
X0094316Y0075532D01*
X0094184Y0075734D01*
X0094057Y0075940D01*
X0093936Y0076148D01*
X0093819Y0076360D01*
X0093708Y0076574D01*
X0093602Y0076792D01*
X0093501Y0077011D01*
X0093406Y0077233D01*
X0093317Y0077458D01*
X0093232Y0077684D01*
X0093154Y0077912D01*
X0093081Y0078143D01*
X0093014Y0078375D01*
X0092952Y0078608D01*
X0092896Y0078843D01*
X0092846Y0079080D01*
X0092802Y0079317D01*
X0092764Y0079556D01*
X0092731Y0079795D01*
X0092704Y0080035D01*
X0092684Y0080276D01*
X0092669Y0080517D01*
X0092660Y0080758D01*
X0092657Y0081000D01*
X0106220Y0084873D02*
X0108720Y0084873D01*
X0107440Y0083657D02*
X0107440Y0086257D01*
X0111000Y0089937D02*
X0111000Y0093937D01*
X0111500Y0094437D01*
X0111500Y0105563D01*
X0111000Y0106063D01*
X0111000Y0110063D01*
X0111002Y0110123D01*
X0111007Y0110184D01*
X0111016Y0110243D01*
X0111029Y0110302D01*
X0111045Y0110361D01*
X0111065Y0110418D01*
X0111088Y0110473D01*
X0111115Y0110528D01*
X0111144Y0110580D01*
X0111177Y0110631D01*
X0111213Y0110680D01*
X0111251Y0110726D01*
X0111293Y0110770D01*
X0111337Y0110812D01*
X0111383Y0110850D01*
X0111432Y0110886D01*
X0111483Y0110919D01*
X0111535Y0110948D01*
X0111590Y0110975D01*
X0111645Y0110998D01*
X0111702Y0111018D01*
X0111761Y0111034D01*
X0111820Y0111047D01*
X0111879Y0111056D01*
X0111940Y0111061D01*
X0112000Y0111063D01*
X0118000Y0111063D01*
X0118060Y0111061D01*
X0118121Y0111056D01*
X0118180Y0111047D01*
X0118239Y0111034D01*
X0118298Y0111018D01*
X0118355Y0110998D01*
X0118410Y0110975D01*
X0118465Y0110948D01*
X0118517Y0110919D01*
X0118568Y0110886D01*
X0118617Y0110850D01*
X0118663Y0110812D01*
X0118707Y0110770D01*
X0118749Y0110726D01*
X0118787Y0110680D01*
X0118823Y0110631D01*
X0118856Y0110580D01*
X0118885Y0110528D01*
X0118912Y0110473D01*
X0118935Y0110418D01*
X0118955Y0110361D01*
X0118971Y0110302D01*
X0118984Y0110243D01*
X0118993Y0110184D01*
X0118998Y0110123D01*
X0119000Y0110063D01*
X0119000Y0106063D01*
X0118500Y0105563D01*
X0118500Y0094437D01*
X0119000Y0093937D01*
X0119000Y0089937D01*
X0118998Y0089877D01*
X0118993Y0089816D01*
X0118984Y0089757D01*
X0118971Y0089698D01*
X0118955Y0089639D01*
X0118935Y0089582D01*
X0118912Y0089527D01*
X0118885Y0089472D01*
X0118856Y0089420D01*
X0118823Y0089369D01*
X0118787Y0089320D01*
X0118749Y0089274D01*
X0118707Y0089230D01*
X0118663Y0089188D01*
X0118617Y0089150D01*
X0118568Y0089114D01*
X0118517Y0089081D01*
X0118465Y0089052D01*
X0118410Y0089025D01*
X0118355Y0089002D01*
X0118298Y0088982D01*
X0118239Y0088966D01*
X0118180Y0088953D01*
X0118121Y0088944D01*
X0118060Y0088939D01*
X0118000Y0088937D01*
X0112000Y0088937D01*
X0111940Y0088939D01*
X0111879Y0088944D01*
X0111820Y0088953D01*
X0111761Y0088966D01*
X0111702Y0088982D01*
X0111645Y0089002D01*
X0111590Y0089025D01*
X0111535Y0089052D01*
X0111483Y0089081D01*
X0111432Y0089114D01*
X0111383Y0089150D01*
X0111337Y0089188D01*
X0111293Y0089230D01*
X0111251Y0089274D01*
X0111213Y0089320D01*
X0111177Y0089369D01*
X0111144Y0089420D01*
X0111115Y0089472D01*
X0111088Y0089527D01*
X0111065Y0089582D01*
X0111045Y0089639D01*
X0111029Y0089698D01*
X0111016Y0089757D01*
X0111007Y0089816D01*
X0111002Y0089877D01*
X0111000Y0089937D01*
X0121000Y0089937D02*
X0121000Y0093937D01*
X0121500Y0094437D01*
X0121500Y0105563D01*
X0121000Y0106063D01*
X0121000Y0110063D01*
X0121002Y0110123D01*
X0121007Y0110184D01*
X0121016Y0110243D01*
X0121029Y0110302D01*
X0121045Y0110361D01*
X0121065Y0110418D01*
X0121088Y0110473D01*
X0121115Y0110528D01*
X0121144Y0110580D01*
X0121177Y0110631D01*
X0121213Y0110680D01*
X0121251Y0110726D01*
X0121293Y0110770D01*
X0121337Y0110812D01*
X0121383Y0110850D01*
X0121432Y0110886D01*
X0121483Y0110919D01*
X0121535Y0110948D01*
X0121590Y0110975D01*
X0121645Y0110998D01*
X0121702Y0111018D01*
X0121761Y0111034D01*
X0121820Y0111047D01*
X0121879Y0111056D01*
X0121940Y0111061D01*
X0122000Y0111063D01*
X0128000Y0111063D01*
X0128060Y0111061D01*
X0128121Y0111056D01*
X0128180Y0111047D01*
X0128239Y0111034D01*
X0128298Y0111018D01*
X0128355Y0110998D01*
X0128410Y0110975D01*
X0128465Y0110948D01*
X0128517Y0110919D01*
X0128568Y0110886D01*
X0128617Y0110850D01*
X0128663Y0110812D01*
X0128707Y0110770D01*
X0128749Y0110726D01*
X0128787Y0110680D01*
X0128823Y0110631D01*
X0128856Y0110580D01*
X0128885Y0110528D01*
X0128912Y0110473D01*
X0128935Y0110418D01*
X0128955Y0110361D01*
X0128971Y0110302D01*
X0128984Y0110243D01*
X0128993Y0110184D01*
X0128998Y0110123D01*
X0129000Y0110063D01*
X0129000Y0106063D01*
X0128500Y0105563D01*
X0128500Y0094437D01*
X0129000Y0093937D01*
X0129000Y0089937D01*
X0128998Y0089877D01*
X0128993Y0089816D01*
X0128984Y0089757D01*
X0128971Y0089698D01*
X0128955Y0089639D01*
X0128935Y0089582D01*
X0128912Y0089527D01*
X0128885Y0089472D01*
X0128856Y0089420D01*
X0128823Y0089369D01*
X0128787Y0089320D01*
X0128749Y0089274D01*
X0128707Y0089230D01*
X0128663Y0089188D01*
X0128617Y0089150D01*
X0128568Y0089114D01*
X0128517Y0089081D01*
X0128465Y0089052D01*
X0128410Y0089025D01*
X0128355Y0089002D01*
X0128298Y0088982D01*
X0128239Y0088966D01*
X0128180Y0088953D01*
X0128121Y0088944D01*
X0128060Y0088939D01*
X0128000Y0088937D01*
X0122000Y0088937D01*
X0121940Y0088939D01*
X0121879Y0088944D01*
X0121820Y0088953D01*
X0121761Y0088966D01*
X0121702Y0088982D01*
X0121645Y0089002D01*
X0121590Y0089025D01*
X0121535Y0089052D01*
X0121483Y0089081D01*
X0121432Y0089114D01*
X0121383Y0089150D01*
X0121337Y0089188D01*
X0121293Y0089230D01*
X0121251Y0089274D01*
X0121213Y0089320D01*
X0121177Y0089369D01*
X0121144Y0089420D01*
X0121115Y0089472D01*
X0121088Y0089527D01*
X0121065Y0089582D01*
X0121045Y0089639D01*
X0121029Y0089698D01*
X0121016Y0089757D01*
X0121007Y0089816D01*
X0121002Y0089877D01*
X0121000Y0089937D01*
X0136000Y0089937D02*
X0136000Y0093937D01*
X0136500Y0094437D01*
X0136500Y0105563D01*
X0136000Y0106063D01*
X0136000Y0110063D01*
X0136002Y0110123D01*
X0136007Y0110184D01*
X0136016Y0110243D01*
X0136029Y0110302D01*
X0136045Y0110361D01*
X0136065Y0110418D01*
X0136088Y0110473D01*
X0136115Y0110528D01*
X0136144Y0110580D01*
X0136177Y0110631D01*
X0136213Y0110680D01*
X0136251Y0110726D01*
X0136293Y0110770D01*
X0136337Y0110812D01*
X0136383Y0110850D01*
X0136432Y0110886D01*
X0136483Y0110919D01*
X0136535Y0110948D01*
X0136590Y0110975D01*
X0136645Y0110998D01*
X0136702Y0111018D01*
X0136761Y0111034D01*
X0136820Y0111047D01*
X0136879Y0111056D01*
X0136940Y0111061D01*
X0137000Y0111063D01*
X0143000Y0111063D01*
X0143060Y0111061D01*
X0143121Y0111056D01*
X0143180Y0111047D01*
X0143239Y0111034D01*
X0143298Y0111018D01*
X0143355Y0110998D01*
X0143410Y0110975D01*
X0143465Y0110948D01*
X0143517Y0110919D01*
X0143568Y0110886D01*
X0143617Y0110850D01*
X0143663Y0110812D01*
X0143707Y0110770D01*
X0143749Y0110726D01*
X0143787Y0110680D01*
X0143823Y0110631D01*
X0143856Y0110580D01*
X0143885Y0110528D01*
X0143912Y0110473D01*
X0143935Y0110418D01*
X0143955Y0110361D01*
X0143971Y0110302D01*
X0143984Y0110243D01*
X0143993Y0110184D01*
X0143998Y0110123D01*
X0144000Y0110063D01*
X0144000Y0106063D01*
X0143500Y0105563D01*
X0143500Y0094437D01*
X0144000Y0093937D01*
X0144000Y0089937D01*
X0143998Y0089877D01*
X0143993Y0089816D01*
X0143984Y0089757D01*
X0143971Y0089698D01*
X0143955Y0089639D01*
X0143935Y0089582D01*
X0143912Y0089527D01*
X0143885Y0089472D01*
X0143856Y0089420D01*
X0143823Y0089369D01*
X0143787Y0089320D01*
X0143749Y0089274D01*
X0143707Y0089230D01*
X0143663Y0089188D01*
X0143617Y0089150D01*
X0143568Y0089114D01*
X0143517Y0089081D01*
X0143465Y0089052D01*
X0143410Y0089025D01*
X0143355Y0089002D01*
X0143298Y0088982D01*
X0143239Y0088966D01*
X0143180Y0088953D01*
X0143121Y0088944D01*
X0143060Y0088939D01*
X0143000Y0088937D01*
X0137000Y0088937D01*
X0136940Y0088939D01*
X0136879Y0088944D01*
X0136820Y0088953D01*
X0136761Y0088966D01*
X0136702Y0088982D01*
X0136645Y0089002D01*
X0136590Y0089025D01*
X0136535Y0089052D01*
X0136483Y0089081D01*
X0136432Y0089114D01*
X0136383Y0089150D01*
X0136337Y0089188D01*
X0136293Y0089230D01*
X0136251Y0089274D01*
X0136213Y0089320D01*
X0136177Y0089369D01*
X0136144Y0089420D01*
X0136115Y0089472D01*
X0136088Y0089527D01*
X0136065Y0089582D01*
X0136045Y0089639D01*
X0136029Y0089698D01*
X0136016Y0089757D01*
X0136007Y0089816D01*
X0136002Y0089877D01*
X0136000Y0089937D01*
X0146000Y0089937D02*
X0146000Y0093937D01*
X0146500Y0094437D01*
X0146500Y0105563D01*
X0146000Y0106063D01*
X0146000Y0110063D01*
X0146002Y0110123D01*
X0146007Y0110184D01*
X0146016Y0110243D01*
X0146029Y0110302D01*
X0146045Y0110361D01*
X0146065Y0110418D01*
X0146088Y0110473D01*
X0146115Y0110528D01*
X0146144Y0110580D01*
X0146177Y0110631D01*
X0146213Y0110680D01*
X0146251Y0110726D01*
X0146293Y0110770D01*
X0146337Y0110812D01*
X0146383Y0110850D01*
X0146432Y0110886D01*
X0146483Y0110919D01*
X0146535Y0110948D01*
X0146590Y0110975D01*
X0146645Y0110998D01*
X0146702Y0111018D01*
X0146761Y0111034D01*
X0146820Y0111047D01*
X0146879Y0111056D01*
X0146940Y0111061D01*
X0147000Y0111063D01*
X0153000Y0111063D01*
X0153060Y0111061D01*
X0153121Y0111056D01*
X0153180Y0111047D01*
X0153239Y0111034D01*
X0153298Y0111018D01*
X0153355Y0110998D01*
X0153410Y0110975D01*
X0153465Y0110948D01*
X0153517Y0110919D01*
X0153568Y0110886D01*
X0153617Y0110850D01*
X0153663Y0110812D01*
X0153707Y0110770D01*
X0153749Y0110726D01*
X0153787Y0110680D01*
X0153823Y0110631D01*
X0153856Y0110580D01*
X0153885Y0110528D01*
X0153912Y0110473D01*
X0153935Y0110418D01*
X0153955Y0110361D01*
X0153971Y0110302D01*
X0153984Y0110243D01*
X0153993Y0110184D01*
X0153998Y0110123D01*
X0154000Y0110063D01*
X0154000Y0106063D01*
X0153500Y0105563D01*
X0153500Y0094437D01*
X0154000Y0093937D01*
X0154000Y0089937D01*
X0153998Y0089877D01*
X0153993Y0089816D01*
X0153984Y0089757D01*
X0153971Y0089698D01*
X0153955Y0089639D01*
X0153935Y0089582D01*
X0153912Y0089527D01*
X0153885Y0089472D01*
X0153856Y0089420D01*
X0153823Y0089369D01*
X0153787Y0089320D01*
X0153749Y0089274D01*
X0153707Y0089230D01*
X0153663Y0089188D01*
X0153617Y0089150D01*
X0153568Y0089114D01*
X0153517Y0089081D01*
X0153465Y0089052D01*
X0153410Y0089025D01*
X0153355Y0089002D01*
X0153298Y0088982D01*
X0153239Y0088966D01*
X0153180Y0088953D01*
X0153121Y0088944D01*
X0153060Y0088939D01*
X0153000Y0088937D01*
X0147000Y0088937D01*
X0146940Y0088939D01*
X0146879Y0088944D01*
X0146820Y0088953D01*
X0146761Y0088966D01*
X0146702Y0088982D01*
X0146645Y0089002D01*
X0146590Y0089025D01*
X0146535Y0089052D01*
X0146483Y0089081D01*
X0146432Y0089114D01*
X0146383Y0089150D01*
X0146337Y0089188D01*
X0146293Y0089230D01*
X0146251Y0089274D01*
X0146213Y0089320D01*
X0146177Y0089369D01*
X0146144Y0089420D01*
X0146115Y0089472D01*
X0146088Y0089527D01*
X0146065Y0089582D01*
X0146045Y0089639D01*
X0146029Y0089698D01*
X0146016Y0089757D01*
X0146007Y0089816D01*
X0146002Y0089877D01*
X0146000Y0089937D01*
X0155000Y0090000D02*
X0155000Y0092500D01*
X0155000Y0100000D01*
X0155002Y0100140D01*
X0155008Y0100280D01*
X0155018Y0100420D01*
X0155031Y0100560D01*
X0155049Y0100699D01*
X0155071Y0100838D01*
X0155096Y0100975D01*
X0155125Y0101113D01*
X0155158Y0101249D01*
X0155195Y0101384D01*
X0155236Y0101518D01*
X0155281Y0101651D01*
X0155329Y0101783D01*
X0155381Y0101913D01*
X0155436Y0102042D01*
X0155495Y0102169D01*
X0155558Y0102295D01*
X0155624Y0102419D01*
X0155693Y0102540D01*
X0155766Y0102660D01*
X0155843Y0102778D01*
X0155922Y0102893D01*
X0156005Y0103007D01*
X0156091Y0103117D01*
X0156180Y0103226D01*
X0156272Y0103332D01*
X0156367Y0103435D01*
X0156464Y0103536D01*
X0156565Y0103633D01*
X0156668Y0103728D01*
X0156774Y0103820D01*
X0156883Y0103909D01*
X0156993Y0103995D01*
X0157107Y0104078D01*
X0157222Y0104157D01*
X0157340Y0104234D01*
X0157460Y0104307D01*
X0157581Y0104376D01*
X0157705Y0104442D01*
X0157831Y0104505D01*
X0157958Y0104564D01*
X0158087Y0104619D01*
X0158217Y0104671D01*
X0158349Y0104719D01*
X0158482Y0104764D01*
X0158616Y0104805D01*
X0158751Y0104842D01*
X0158887Y0104875D01*
X0159025Y0104904D01*
X0159162Y0104929D01*
X0159301Y0104951D01*
X0159440Y0104969D01*
X0159580Y0104982D01*
X0159720Y0104992D01*
X0159860Y0104998D01*
X0160000Y0105000D01*
X0160140Y0104998D01*
X0160280Y0104992D01*
X0160420Y0104982D01*
X0160560Y0104969D01*
X0160699Y0104951D01*
X0160838Y0104929D01*
X0160975Y0104904D01*
X0161113Y0104875D01*
X0161249Y0104842D01*
X0161384Y0104805D01*
X0161518Y0104764D01*
X0161651Y0104719D01*
X0161783Y0104671D01*
X0161913Y0104619D01*
X0162042Y0104564D01*
X0162169Y0104505D01*
X0162295Y0104442D01*
X0162419Y0104376D01*
X0162540Y0104307D01*
X0162660Y0104234D01*
X0162778Y0104157D01*
X0162893Y0104078D01*
X0163007Y0103995D01*
X0163117Y0103909D01*
X0163226Y0103820D01*
X0163332Y0103728D01*
X0163435Y0103633D01*
X0163536Y0103536D01*
X0163633Y0103435D01*
X0163728Y0103332D01*
X0163820Y0103226D01*
X0163909Y0103117D01*
X0163995Y0103007D01*
X0164078Y0102893D01*
X0164157Y0102778D01*
X0164234Y0102660D01*
X0164307Y0102540D01*
X0164376Y0102419D01*
X0164442Y0102295D01*
X0164505Y0102169D01*
X0164564Y0102042D01*
X0164619Y0101913D01*
X0164671Y0101783D01*
X0164719Y0101651D01*
X0164764Y0101518D01*
X0164805Y0101384D01*
X0164842Y0101249D01*
X0164875Y0101113D01*
X0164904Y0100975D01*
X0164929Y0100838D01*
X0164951Y0100699D01*
X0164969Y0100560D01*
X0164982Y0100420D01*
X0164992Y0100280D01*
X0164998Y0100140D01*
X0165000Y0100000D01*
X0165000Y0090000D01*
X0164998Y0089860D01*
X0164992Y0089720D01*
X0164982Y0089580D01*
X0164969Y0089440D01*
X0164951Y0089301D01*
X0164929Y0089162D01*
X0164904Y0089025D01*
X0164875Y0088887D01*
X0164842Y0088751D01*
X0164805Y0088616D01*
X0164764Y0088482D01*
X0164719Y0088349D01*
X0164671Y0088217D01*
X0164619Y0088087D01*
X0164564Y0087958D01*
X0164505Y0087831D01*
X0164442Y0087705D01*
X0164376Y0087581D01*
X0164307Y0087460D01*
X0164234Y0087340D01*
X0164157Y0087222D01*
X0164078Y0087107D01*
X0163995Y0086993D01*
X0163909Y0086883D01*
X0163820Y0086774D01*
X0163728Y0086668D01*
X0163633Y0086565D01*
X0163536Y0086464D01*
X0163435Y0086367D01*
X0163332Y0086272D01*
X0163226Y0086180D01*
X0163117Y0086091D01*
X0163007Y0086005D01*
X0162893Y0085922D01*
X0162778Y0085843D01*
X0162660Y0085766D01*
X0162540Y0085693D01*
X0162419Y0085624D01*
X0162295Y0085558D01*
X0162169Y0085495D01*
X0162042Y0085436D01*
X0161913Y0085381D01*
X0161783Y0085329D01*
X0161651Y0085281D01*
X0161518Y0085236D01*
X0161384Y0085195D01*
X0161249Y0085158D01*
X0161113Y0085125D01*
X0160975Y0085096D01*
X0160838Y0085071D01*
X0160699Y0085049D01*
X0160560Y0085031D01*
X0160420Y0085018D01*
X0160280Y0085008D01*
X0160140Y0085002D01*
X0160000Y0085000D01*
X0159860Y0085002D01*
X0159720Y0085008D01*
X0159580Y0085018D01*
X0159440Y0085031D01*
X0159301Y0085049D01*
X0159162Y0085071D01*
X0159025Y0085096D01*
X0158887Y0085125D01*
X0158751Y0085158D01*
X0158616Y0085195D01*
X0158482Y0085236D01*
X0158349Y0085281D01*
X0158217Y0085329D01*
X0158087Y0085381D01*
X0157958Y0085436D01*
X0157831Y0085495D01*
X0157705Y0085558D01*
X0157581Y0085624D01*
X0157460Y0085693D01*
X0157340Y0085766D01*
X0157222Y0085843D01*
X0157107Y0085922D01*
X0156993Y0086005D01*
X0156883Y0086091D01*
X0156774Y0086180D01*
X0156668Y0086272D01*
X0156565Y0086367D01*
X0156464Y0086464D01*
X0156367Y0086565D01*
X0156272Y0086668D01*
X0156180Y0086774D01*
X0156091Y0086883D01*
X0156005Y0086993D01*
X0155922Y0087107D01*
X0155843Y0087222D01*
X0155766Y0087340D01*
X0155693Y0087460D01*
X0155624Y0087581D01*
X0155558Y0087705D01*
X0155495Y0087831D01*
X0155436Y0087958D01*
X0155381Y0088087D01*
X0155329Y0088217D01*
X0155281Y0088349D01*
X0155236Y0088482D01*
X0155195Y0088616D01*
X0155158Y0088751D01*
X0155125Y0088887D01*
X0155096Y0089025D01*
X0155071Y0089162D01*
X0155049Y0089301D01*
X0155031Y0089440D01*
X0155018Y0089580D01*
X0155008Y0089720D01*
X0155002Y0089860D01*
X0155000Y0090000D01*
X0153937Y0079000D02*
X0149937Y0079000D01*
X0149877Y0078998D01*
X0149816Y0078993D01*
X0149757Y0078984D01*
X0149698Y0078971D01*
X0149639Y0078955D01*
X0149582Y0078935D01*
X0149527Y0078912D01*
X0149472Y0078885D01*
X0149420Y0078856D01*
X0149369Y0078823D01*
X0149320Y0078787D01*
X0149274Y0078749D01*
X0149230Y0078707D01*
X0149188Y0078663D01*
X0149150Y0078617D01*
X0149114Y0078568D01*
X0149081Y0078517D01*
X0149052Y0078465D01*
X0149025Y0078410D01*
X0149002Y0078355D01*
X0148982Y0078298D01*
X0148966Y0078239D01*
X0148953Y0078180D01*
X0148944Y0078121D01*
X0148939Y0078060D01*
X0148937Y0078000D01*
X0148937Y0072000D01*
X0148939Y0071940D01*
X0148944Y0071879D01*
X0148953Y0071820D01*
X0148966Y0071761D01*
X0148982Y0071702D01*
X0149002Y0071645D01*
X0149025Y0071590D01*
X0149052Y0071535D01*
X0149081Y0071483D01*
X0149114Y0071432D01*
X0149150Y0071383D01*
X0149188Y0071337D01*
X0149230Y0071293D01*
X0149274Y0071251D01*
X0149320Y0071213D01*
X0149369Y0071177D01*
X0149420Y0071144D01*
X0149472Y0071115D01*
X0149527Y0071088D01*
X0149582Y0071065D01*
X0149639Y0071045D01*
X0149698Y0071029D01*
X0149757Y0071016D01*
X0149816Y0071007D01*
X0149877Y0071002D01*
X0149937Y0071000D01*
X0153937Y0071000D01*
X0154437Y0071500D01*
X0165563Y0071500D01*
X0166063Y0071000D01*
X0170063Y0071000D01*
X0170123Y0071002D01*
X0170184Y0071007D01*
X0170243Y0071016D01*
X0170302Y0071029D01*
X0170361Y0071045D01*
X0170418Y0071065D01*
X0170473Y0071088D01*
X0170528Y0071115D01*
X0170580Y0071144D01*
X0170631Y0071177D01*
X0170680Y0071213D01*
X0170726Y0071251D01*
X0170770Y0071293D01*
X0170812Y0071337D01*
X0170850Y0071383D01*
X0170886Y0071432D01*
X0170919Y0071483D01*
X0170948Y0071535D01*
X0170975Y0071590D01*
X0170998Y0071645D01*
X0171018Y0071702D01*
X0171034Y0071761D01*
X0171047Y0071820D01*
X0171056Y0071879D01*
X0171061Y0071940D01*
X0171063Y0072000D01*
X0171063Y0078000D01*
X0171061Y0078060D01*
X0171056Y0078121D01*
X0171047Y0078180D01*
X0171034Y0078239D01*
X0171018Y0078298D01*
X0170998Y0078355D01*
X0170975Y0078410D01*
X0170948Y0078465D01*
X0170919Y0078517D01*
X0170886Y0078568D01*
X0170850Y0078617D01*
X0170812Y0078663D01*
X0170770Y0078707D01*
X0170726Y0078749D01*
X0170680Y0078787D01*
X0170631Y0078823D01*
X0170580Y0078856D01*
X0170528Y0078885D01*
X0170473Y0078912D01*
X0170418Y0078935D01*
X0170361Y0078955D01*
X0170302Y0078971D01*
X0170243Y0078984D01*
X0170184Y0078993D01*
X0170123Y0078998D01*
X0170063Y0079000D01*
X0166063Y0079000D01*
X0165563Y0078500D01*
X0154437Y0078500D01*
X0153937Y0079000D01*
X0167094Y0092500D02*
X0167096Y0092694D01*
X0167104Y0092888D01*
X0167115Y0093082D01*
X0167132Y0093275D01*
X0167153Y0093468D01*
X0167180Y0093660D01*
X0167210Y0093852D01*
X0167246Y0094042D01*
X0167286Y0094232D01*
X0167331Y0094421D01*
X0167380Y0094609D01*
X0167434Y0094795D01*
X0167493Y0094980D01*
X0167556Y0095163D01*
X0167624Y0095345D01*
X0167696Y0095525D01*
X0167772Y0095704D01*
X0167853Y0095880D01*
X0167938Y0096055D01*
X0168028Y0096227D01*
X0168121Y0096397D01*
X0168219Y0096564D01*
X0168321Y0096730D01*
X0168426Y0096892D01*
X0168536Y0097052D01*
X0168650Y0097210D01*
X0168767Y0097364D01*
X0168889Y0097516D01*
X0169014Y0097664D01*
X0169142Y0097809D01*
X0169274Y0097952D01*
X0169410Y0098090D01*
X0169548Y0098226D01*
X0169691Y0098358D01*
X0169836Y0098486D01*
X0169984Y0098611D01*
X0170136Y0098733D01*
X0170290Y0098850D01*
X0170448Y0098964D01*
X0170608Y0099074D01*
X0170770Y0099179D01*
X0170936Y0099281D01*
X0171103Y0099379D01*
X0171273Y0099472D01*
X0171445Y0099562D01*
X0171620Y0099647D01*
X0171796Y0099728D01*
X0171975Y0099804D01*
X0172155Y0099876D01*
X0172337Y0099944D01*
X0172520Y0100007D01*
X0172705Y0100066D01*
X0172891Y0100120D01*
X0173079Y0100169D01*
X0173268Y0100214D01*
X0173458Y0100254D01*
X0173648Y0100290D01*
X0173840Y0100320D01*
X0174032Y0100347D01*
X0174225Y0100368D01*
X0174418Y0100385D01*
X0174612Y0100396D01*
X0174806Y0100404D01*
X0175000Y0100406D01*
X0175194Y0100404D01*
X0175388Y0100396D01*
X0175582Y0100385D01*
X0175775Y0100368D01*
X0175968Y0100347D01*
X0176160Y0100320D01*
X0176352Y0100290D01*
X0176542Y0100254D01*
X0176732Y0100214D01*
X0176921Y0100169D01*
X0177109Y0100120D01*
X0177295Y0100066D01*
X0177480Y0100007D01*
X0177663Y0099944D01*
X0177845Y0099876D01*
X0178025Y0099804D01*
X0178204Y0099728D01*
X0178380Y0099647D01*
X0178555Y0099562D01*
X0178727Y0099472D01*
X0178897Y0099379D01*
X0179064Y0099281D01*
X0179230Y0099179D01*
X0179392Y0099074D01*
X0179552Y0098964D01*
X0179710Y0098850D01*
X0179864Y0098733D01*
X0180016Y0098611D01*
X0180164Y0098486D01*
X0180309Y0098358D01*
X0180452Y0098226D01*
X0180590Y0098090D01*
X0180726Y0097952D01*
X0180858Y0097809D01*
X0180986Y0097664D01*
X0181111Y0097516D01*
X0181233Y0097364D01*
X0181350Y0097210D01*
X0181464Y0097052D01*
X0181574Y0096892D01*
X0181679Y0096730D01*
X0181781Y0096564D01*
X0181879Y0096397D01*
X0181972Y0096227D01*
X0182062Y0096055D01*
X0182147Y0095880D01*
X0182228Y0095704D01*
X0182304Y0095525D01*
X0182376Y0095345D01*
X0182444Y0095163D01*
X0182507Y0094980D01*
X0182566Y0094795D01*
X0182620Y0094609D01*
X0182669Y0094421D01*
X0182714Y0094232D01*
X0182754Y0094042D01*
X0182790Y0093852D01*
X0182820Y0093660D01*
X0182847Y0093468D01*
X0182868Y0093275D01*
X0182885Y0093082D01*
X0182896Y0092888D01*
X0182904Y0092694D01*
X0182906Y0092500D01*
X0182904Y0092306D01*
X0182896Y0092112D01*
X0182885Y0091918D01*
X0182868Y0091725D01*
X0182847Y0091532D01*
X0182820Y0091340D01*
X0182790Y0091148D01*
X0182754Y0090958D01*
X0182714Y0090768D01*
X0182669Y0090579D01*
X0182620Y0090391D01*
X0182566Y0090205D01*
X0182507Y0090020D01*
X0182444Y0089837D01*
X0182376Y0089655D01*
X0182304Y0089475D01*
X0182228Y0089296D01*
X0182147Y0089120D01*
X0182062Y0088945D01*
X0181972Y0088773D01*
X0181879Y0088603D01*
X0181781Y0088436D01*
X0181679Y0088270D01*
X0181574Y0088108D01*
X0181464Y0087948D01*
X0181350Y0087790D01*
X0181233Y0087636D01*
X0181111Y0087484D01*
X0180986Y0087336D01*
X0180858Y0087191D01*
X0180726Y0087048D01*
X0180590Y0086910D01*
X0180452Y0086774D01*
X0180309Y0086642D01*
X0180164Y0086514D01*
X0180016Y0086389D01*
X0179864Y0086267D01*
X0179710Y0086150D01*
X0179552Y0086036D01*
X0179392Y0085926D01*
X0179230Y0085821D01*
X0179064Y0085719D01*
X0178897Y0085621D01*
X0178727Y0085528D01*
X0178555Y0085438D01*
X0178380Y0085353D01*
X0178204Y0085272D01*
X0178025Y0085196D01*
X0177845Y0085124D01*
X0177663Y0085056D01*
X0177480Y0084993D01*
X0177295Y0084934D01*
X0177109Y0084880D01*
X0176921Y0084831D01*
X0176732Y0084786D01*
X0176542Y0084746D01*
X0176352Y0084710D01*
X0176160Y0084680D01*
X0175968Y0084653D01*
X0175775Y0084632D01*
X0175582Y0084615D01*
X0175388Y0084604D01*
X0175194Y0084596D01*
X0175000Y0084594D01*
X0174806Y0084596D01*
X0174612Y0084604D01*
X0174418Y0084615D01*
X0174225Y0084632D01*
X0174032Y0084653D01*
X0173840Y0084680D01*
X0173648Y0084710D01*
X0173458Y0084746D01*
X0173268Y0084786D01*
X0173079Y0084831D01*
X0172891Y0084880D01*
X0172705Y0084934D01*
X0172520Y0084993D01*
X0172337Y0085056D01*
X0172155Y0085124D01*
X0171975Y0085196D01*
X0171796Y0085272D01*
X0171620Y0085353D01*
X0171445Y0085438D01*
X0171273Y0085528D01*
X0171103Y0085621D01*
X0170936Y0085719D01*
X0170770Y0085821D01*
X0170608Y0085926D01*
X0170448Y0086036D01*
X0170290Y0086150D01*
X0170136Y0086267D01*
X0169984Y0086389D01*
X0169836Y0086514D01*
X0169691Y0086642D01*
X0169548Y0086774D01*
X0169410Y0086910D01*
X0169274Y0087048D01*
X0169142Y0087191D01*
X0169014Y0087336D01*
X0168889Y0087484D01*
X0168767Y0087636D01*
X0168650Y0087790D01*
X0168536Y0087948D01*
X0168426Y0088108D01*
X0168321Y0088270D01*
X0168219Y0088436D01*
X0168121Y0088603D01*
X0168028Y0088773D01*
X0167938Y0088945D01*
X0167853Y0089120D01*
X0167772Y0089296D01*
X0167696Y0089475D01*
X0167624Y0089655D01*
X0167556Y0089837D01*
X0167493Y0090020D01*
X0167434Y0090205D01*
X0167380Y0090391D01*
X0167331Y0090579D01*
X0167286Y0090768D01*
X0167246Y0090958D01*
X0167210Y0091148D01*
X0167180Y0091340D01*
X0167153Y0091532D01*
X0167132Y0091725D01*
X0167115Y0091918D01*
X0167104Y0092112D01*
X0167096Y0092306D01*
X0167094Y0092500D01*
X0178558Y0095585D02*
X0181058Y0095585D01*
X0179800Y0094368D02*
X0179772Y0096833D01*
X0142094Y0128500D02*
X0142096Y0128694D01*
X0142104Y0128888D01*
X0142115Y0129082D01*
X0142132Y0129275D01*
X0142153Y0129468D01*
X0142180Y0129660D01*
X0142210Y0129852D01*
X0142246Y0130042D01*
X0142286Y0130232D01*
X0142331Y0130421D01*
X0142380Y0130609D01*
X0142434Y0130795D01*
X0142493Y0130980D01*
X0142556Y0131163D01*
X0142624Y0131345D01*
X0142696Y0131525D01*
X0142772Y0131704D01*
X0142853Y0131880D01*
X0142938Y0132055D01*
X0143028Y0132227D01*
X0143121Y0132397D01*
X0143219Y0132564D01*
X0143321Y0132730D01*
X0143426Y0132892D01*
X0143536Y0133052D01*
X0143650Y0133210D01*
X0143767Y0133364D01*
X0143889Y0133516D01*
X0144014Y0133664D01*
X0144142Y0133809D01*
X0144274Y0133952D01*
X0144410Y0134090D01*
X0144548Y0134226D01*
X0144691Y0134358D01*
X0144836Y0134486D01*
X0144984Y0134611D01*
X0145136Y0134733D01*
X0145290Y0134850D01*
X0145448Y0134964D01*
X0145608Y0135074D01*
X0145770Y0135179D01*
X0145936Y0135281D01*
X0146103Y0135379D01*
X0146273Y0135472D01*
X0146445Y0135562D01*
X0146620Y0135647D01*
X0146796Y0135728D01*
X0146975Y0135804D01*
X0147155Y0135876D01*
X0147337Y0135944D01*
X0147520Y0136007D01*
X0147705Y0136066D01*
X0147891Y0136120D01*
X0148079Y0136169D01*
X0148268Y0136214D01*
X0148458Y0136254D01*
X0148648Y0136290D01*
X0148840Y0136320D01*
X0149032Y0136347D01*
X0149225Y0136368D01*
X0149418Y0136385D01*
X0149612Y0136396D01*
X0149806Y0136404D01*
X0150000Y0136406D01*
X0150194Y0136404D01*
X0150388Y0136396D01*
X0150582Y0136385D01*
X0150775Y0136368D01*
X0150968Y0136347D01*
X0151160Y0136320D01*
X0151352Y0136290D01*
X0151542Y0136254D01*
X0151732Y0136214D01*
X0151921Y0136169D01*
X0152109Y0136120D01*
X0152295Y0136066D01*
X0152480Y0136007D01*
X0152663Y0135944D01*
X0152845Y0135876D01*
X0153025Y0135804D01*
X0153204Y0135728D01*
X0153380Y0135647D01*
X0153555Y0135562D01*
X0153727Y0135472D01*
X0153897Y0135379D01*
X0154064Y0135281D01*
X0154230Y0135179D01*
X0154392Y0135074D01*
X0154552Y0134964D01*
X0154710Y0134850D01*
X0154864Y0134733D01*
X0155016Y0134611D01*
X0155164Y0134486D01*
X0155309Y0134358D01*
X0155452Y0134226D01*
X0155590Y0134090D01*
X0155726Y0133952D01*
X0155858Y0133809D01*
X0155986Y0133664D01*
X0156111Y0133516D01*
X0156233Y0133364D01*
X0156350Y0133210D01*
X0156464Y0133052D01*
X0156574Y0132892D01*
X0156679Y0132730D01*
X0156781Y0132564D01*
X0156879Y0132397D01*
X0156972Y0132227D01*
X0157062Y0132055D01*
X0157147Y0131880D01*
X0157228Y0131704D01*
X0157304Y0131525D01*
X0157376Y0131345D01*
X0157444Y0131163D01*
X0157507Y0130980D01*
X0157566Y0130795D01*
X0157620Y0130609D01*
X0157669Y0130421D01*
X0157714Y0130232D01*
X0157754Y0130042D01*
X0157790Y0129852D01*
X0157820Y0129660D01*
X0157847Y0129468D01*
X0157868Y0129275D01*
X0157885Y0129082D01*
X0157896Y0128888D01*
X0157904Y0128694D01*
X0157906Y0128500D01*
X0157904Y0128306D01*
X0157896Y0128112D01*
X0157885Y0127918D01*
X0157868Y0127725D01*
X0157847Y0127532D01*
X0157820Y0127340D01*
X0157790Y0127148D01*
X0157754Y0126958D01*
X0157714Y0126768D01*
X0157669Y0126579D01*
X0157620Y0126391D01*
X0157566Y0126205D01*
X0157507Y0126020D01*
X0157444Y0125837D01*
X0157376Y0125655D01*
X0157304Y0125475D01*
X0157228Y0125296D01*
X0157147Y0125120D01*
X0157062Y0124945D01*
X0156972Y0124773D01*
X0156879Y0124603D01*
X0156781Y0124436D01*
X0156679Y0124270D01*
X0156574Y0124108D01*
X0156464Y0123948D01*
X0156350Y0123790D01*
X0156233Y0123636D01*
X0156111Y0123484D01*
X0155986Y0123336D01*
X0155858Y0123191D01*
X0155726Y0123048D01*
X0155590Y0122910D01*
X0155452Y0122774D01*
X0155309Y0122642D01*
X0155164Y0122514D01*
X0155016Y0122389D01*
X0154864Y0122267D01*
X0154710Y0122150D01*
X0154552Y0122036D01*
X0154392Y0121926D01*
X0154230Y0121821D01*
X0154064Y0121719D01*
X0153897Y0121621D01*
X0153727Y0121528D01*
X0153555Y0121438D01*
X0153380Y0121353D01*
X0153204Y0121272D01*
X0153025Y0121196D01*
X0152845Y0121124D01*
X0152663Y0121056D01*
X0152480Y0120993D01*
X0152295Y0120934D01*
X0152109Y0120880D01*
X0151921Y0120831D01*
X0151732Y0120786D01*
X0151542Y0120746D01*
X0151352Y0120710D01*
X0151160Y0120680D01*
X0150968Y0120653D01*
X0150775Y0120632D01*
X0150582Y0120615D01*
X0150388Y0120604D01*
X0150194Y0120596D01*
X0150000Y0120594D01*
X0149806Y0120596D01*
X0149612Y0120604D01*
X0149418Y0120615D01*
X0149225Y0120632D01*
X0149032Y0120653D01*
X0148840Y0120680D01*
X0148648Y0120710D01*
X0148458Y0120746D01*
X0148268Y0120786D01*
X0148079Y0120831D01*
X0147891Y0120880D01*
X0147705Y0120934D01*
X0147520Y0120993D01*
X0147337Y0121056D01*
X0147155Y0121124D01*
X0146975Y0121196D01*
X0146796Y0121272D01*
X0146620Y0121353D01*
X0146445Y0121438D01*
X0146273Y0121528D01*
X0146103Y0121621D01*
X0145936Y0121719D01*
X0145770Y0121821D01*
X0145608Y0121926D01*
X0145448Y0122036D01*
X0145290Y0122150D01*
X0145136Y0122267D01*
X0144984Y0122389D01*
X0144836Y0122514D01*
X0144691Y0122642D01*
X0144548Y0122774D01*
X0144410Y0122910D01*
X0144274Y0123048D01*
X0144142Y0123191D01*
X0144014Y0123336D01*
X0143889Y0123484D01*
X0143767Y0123636D01*
X0143650Y0123790D01*
X0143536Y0123948D01*
X0143426Y0124108D01*
X0143321Y0124270D01*
X0143219Y0124436D01*
X0143121Y0124603D01*
X0143028Y0124773D01*
X0142938Y0124945D01*
X0142853Y0125120D01*
X0142772Y0125296D01*
X0142696Y0125475D01*
X0142624Y0125655D01*
X0142556Y0125837D01*
X0142493Y0126020D01*
X0142434Y0126205D01*
X0142380Y0126391D01*
X0142331Y0126579D01*
X0142286Y0126768D01*
X0142246Y0126958D01*
X0142210Y0127148D01*
X0142180Y0127340D01*
X0142153Y0127532D01*
X0142132Y0127725D01*
X0142115Y0127918D01*
X0142104Y0128112D01*
X0142096Y0128306D01*
X0142094Y0128500D01*
X0143942Y0125415D02*
X0146442Y0125415D01*
X0145200Y0126632D02*
X0145228Y0124167D01*
X0123563Y0122000D02*
X0123563Y0128000D01*
X0123561Y0128060D01*
X0123556Y0128121D01*
X0123547Y0128180D01*
X0123534Y0128239D01*
X0123518Y0128298D01*
X0123498Y0128355D01*
X0123475Y0128410D01*
X0123448Y0128465D01*
X0123419Y0128517D01*
X0123386Y0128568D01*
X0123350Y0128617D01*
X0123312Y0128663D01*
X0123270Y0128707D01*
X0123226Y0128749D01*
X0123180Y0128787D01*
X0123131Y0128823D01*
X0123080Y0128856D01*
X0123028Y0128885D01*
X0122973Y0128912D01*
X0122918Y0128935D01*
X0122861Y0128955D01*
X0122802Y0128971D01*
X0122743Y0128984D01*
X0122684Y0128993D01*
X0122623Y0128998D01*
X0122563Y0129000D01*
X0118563Y0129000D01*
X0118063Y0128500D01*
X0106937Y0128500D01*
X0106437Y0129000D01*
X0102437Y0129000D01*
X0102377Y0128998D01*
X0102316Y0128993D01*
X0102257Y0128984D01*
X0102198Y0128971D01*
X0102139Y0128955D01*
X0102082Y0128935D01*
X0102027Y0128912D01*
X0101972Y0128885D01*
X0101920Y0128856D01*
X0101869Y0128823D01*
X0101820Y0128787D01*
X0101774Y0128749D01*
X0101730Y0128707D01*
X0101688Y0128663D01*
X0101650Y0128617D01*
X0101614Y0128568D01*
X0101581Y0128517D01*
X0101552Y0128465D01*
X0101525Y0128410D01*
X0101502Y0128355D01*
X0101482Y0128298D01*
X0101466Y0128239D01*
X0101453Y0128180D01*
X0101444Y0128121D01*
X0101439Y0128060D01*
X0101437Y0128000D01*
X0101437Y0122000D01*
X0101439Y0121940D01*
X0101444Y0121879D01*
X0101453Y0121820D01*
X0101466Y0121761D01*
X0101482Y0121702D01*
X0101502Y0121645D01*
X0101525Y0121590D01*
X0101552Y0121535D01*
X0101581Y0121483D01*
X0101614Y0121432D01*
X0101650Y0121383D01*
X0101688Y0121337D01*
X0101730Y0121293D01*
X0101774Y0121251D01*
X0101820Y0121213D01*
X0101869Y0121177D01*
X0101920Y0121144D01*
X0101972Y0121115D01*
X0102027Y0121088D01*
X0102082Y0121065D01*
X0102139Y0121045D01*
X0102198Y0121029D01*
X0102257Y0121016D01*
X0102316Y0121007D01*
X0102377Y0121002D01*
X0102437Y0121000D01*
X0106437Y0121000D01*
X0106937Y0121500D01*
X0118063Y0121500D01*
X0118563Y0121000D01*
X0122563Y0121000D01*
X0122623Y0121002D01*
X0122684Y0121007D01*
X0122743Y0121016D01*
X0122802Y0121029D01*
X0122861Y0121045D01*
X0122918Y0121065D01*
X0122973Y0121088D01*
X0123028Y0121115D01*
X0123080Y0121144D01*
X0123131Y0121177D01*
X0123180Y0121213D01*
X0123226Y0121251D01*
X0123270Y0121293D01*
X0123312Y0121337D01*
X0123350Y0121383D01*
X0123386Y0121432D01*
X0123419Y0121483D01*
X0123448Y0121535D01*
X0123475Y0121590D01*
X0123498Y0121645D01*
X0123518Y0121702D01*
X0123534Y0121761D01*
X0123547Y0121820D01*
X0123556Y0121879D01*
X0123561Y0121940D01*
X0123563Y0122000D01*
X0098757Y0132310D02*
X0096157Y0132310D01*
X0097373Y0133530D02*
X0097373Y0131030D01*
X0083657Y0137250D02*
X0083660Y0137492D01*
X0083669Y0137733D01*
X0083684Y0137974D01*
X0083704Y0138215D01*
X0083731Y0138455D01*
X0083764Y0138694D01*
X0083802Y0138933D01*
X0083846Y0139170D01*
X0083896Y0139407D01*
X0083952Y0139642D01*
X0084014Y0139875D01*
X0084081Y0140107D01*
X0084154Y0140338D01*
X0084232Y0140566D01*
X0084317Y0140792D01*
X0084406Y0141017D01*
X0084501Y0141239D01*
X0084602Y0141458D01*
X0084708Y0141676D01*
X0084819Y0141890D01*
X0084936Y0142102D01*
X0085057Y0142310D01*
X0085184Y0142516D01*
X0085316Y0142718D01*
X0085453Y0142918D01*
X0085594Y0143113D01*
X0085740Y0143306D01*
X0085891Y0143494D01*
X0086047Y0143679D01*
X0086207Y0143860D01*
X0086371Y0144037D01*
X0086540Y0144210D01*
X0086713Y0144379D01*
X0086890Y0144543D01*
X0087071Y0144703D01*
X0087256Y0144859D01*
X0087444Y0145010D01*
X0087637Y0145156D01*
X0087832Y0145297D01*
X0088032Y0145434D01*
X0088234Y0145566D01*
X0088440Y0145693D01*
X0088648Y0145814D01*
X0088860Y0145931D01*
X0089074Y0146042D01*
X0089292Y0146148D01*
X0089511Y0146249D01*
X0089733Y0146344D01*
X0089958Y0146433D01*
X0090184Y0146518D01*
X0090412Y0146596D01*
X0090643Y0146669D01*
X0090875Y0146736D01*
X0091108Y0146798D01*
X0091343Y0146854D01*
X0091580Y0146904D01*
X0091817Y0146948D01*
X0092056Y0146986D01*
X0092295Y0147019D01*
X0092535Y0147046D01*
X0092776Y0147066D01*
X0093017Y0147081D01*
X0093258Y0147090D01*
X0093500Y0147093D01*
X0093742Y0147090D01*
X0093983Y0147081D01*
X0094224Y0147066D01*
X0094465Y0147046D01*
X0094705Y0147019D01*
X0094944Y0146986D01*
X0095183Y0146948D01*
X0095420Y0146904D01*
X0095657Y0146854D01*
X0095892Y0146798D01*
X0096125Y0146736D01*
X0096357Y0146669D01*
X0096588Y0146596D01*
X0096816Y0146518D01*
X0097042Y0146433D01*
X0097267Y0146344D01*
X0097489Y0146249D01*
X0097708Y0146148D01*
X0097926Y0146042D01*
X0098140Y0145931D01*
X0098352Y0145814D01*
X0098560Y0145693D01*
X0098766Y0145566D01*
X0098968Y0145434D01*
X0099168Y0145297D01*
X0099363Y0145156D01*
X0099556Y0145010D01*
X0099744Y0144859D01*
X0099929Y0144703D01*
X0100110Y0144543D01*
X0100287Y0144379D01*
X0100460Y0144210D01*
X0100629Y0144037D01*
X0100793Y0143860D01*
X0100953Y0143679D01*
X0101109Y0143494D01*
X0101260Y0143306D01*
X0101406Y0143113D01*
X0101547Y0142918D01*
X0101684Y0142718D01*
X0101816Y0142516D01*
X0101943Y0142310D01*
X0102064Y0142102D01*
X0102181Y0141890D01*
X0102292Y0141676D01*
X0102398Y0141458D01*
X0102499Y0141239D01*
X0102594Y0141017D01*
X0102683Y0140792D01*
X0102768Y0140566D01*
X0102846Y0140338D01*
X0102919Y0140107D01*
X0102986Y0139875D01*
X0103048Y0139642D01*
X0103104Y0139407D01*
X0103154Y0139170D01*
X0103198Y0138933D01*
X0103236Y0138694D01*
X0103269Y0138455D01*
X0103296Y0138215D01*
X0103316Y0137974D01*
X0103331Y0137733D01*
X0103340Y0137492D01*
X0103343Y0137250D01*
X0103340Y0137008D01*
X0103331Y0136767D01*
X0103316Y0136526D01*
X0103296Y0136285D01*
X0103269Y0136045D01*
X0103236Y0135806D01*
X0103198Y0135567D01*
X0103154Y0135330D01*
X0103104Y0135093D01*
X0103048Y0134858D01*
X0102986Y0134625D01*
X0102919Y0134393D01*
X0102846Y0134162D01*
X0102768Y0133934D01*
X0102683Y0133708D01*
X0102594Y0133483D01*
X0102499Y0133261D01*
X0102398Y0133042D01*
X0102292Y0132824D01*
X0102181Y0132610D01*
X0102064Y0132398D01*
X0101943Y0132190D01*
X0101816Y0131984D01*
X0101684Y0131782D01*
X0101547Y0131582D01*
X0101406Y0131387D01*
X0101260Y0131194D01*
X0101109Y0131006D01*
X0100953Y0130821D01*
X0100793Y0130640D01*
X0100629Y0130463D01*
X0100460Y0130290D01*
X0100287Y0130121D01*
X0100110Y0129957D01*
X0099929Y0129797D01*
X0099744Y0129641D01*
X0099556Y0129490D01*
X0099363Y0129344D01*
X0099168Y0129203D01*
X0098968Y0129066D01*
X0098766Y0128934D01*
X0098560Y0128807D01*
X0098352Y0128686D01*
X0098140Y0128569D01*
X0097926Y0128458D01*
X0097708Y0128352D01*
X0097489Y0128251D01*
X0097267Y0128156D01*
X0097042Y0128067D01*
X0096816Y0127982D01*
X0096588Y0127904D01*
X0096357Y0127831D01*
X0096125Y0127764D01*
X0095892Y0127702D01*
X0095657Y0127646D01*
X0095420Y0127596D01*
X0095183Y0127552D01*
X0094944Y0127514D01*
X0094705Y0127481D01*
X0094465Y0127454D01*
X0094224Y0127434D01*
X0093983Y0127419D01*
X0093742Y0127410D01*
X0093500Y0127407D01*
X0093258Y0127410D01*
X0093017Y0127419D01*
X0092776Y0127434D01*
X0092535Y0127454D01*
X0092295Y0127481D01*
X0092056Y0127514D01*
X0091817Y0127552D01*
X0091580Y0127596D01*
X0091343Y0127646D01*
X0091108Y0127702D01*
X0090875Y0127764D01*
X0090643Y0127831D01*
X0090412Y0127904D01*
X0090184Y0127982D01*
X0089958Y0128067D01*
X0089733Y0128156D01*
X0089511Y0128251D01*
X0089292Y0128352D01*
X0089074Y0128458D01*
X0088860Y0128569D01*
X0088648Y0128686D01*
X0088440Y0128807D01*
X0088234Y0128934D01*
X0088032Y0129066D01*
X0087832Y0129203D01*
X0087637Y0129344D01*
X0087444Y0129490D01*
X0087256Y0129641D01*
X0087071Y0129797D01*
X0086890Y0129957D01*
X0086713Y0130121D01*
X0086540Y0130290D01*
X0086371Y0130463D01*
X0086207Y0130640D01*
X0086047Y0130821D01*
X0085891Y0131006D01*
X0085740Y0131194D01*
X0085594Y0131387D01*
X0085453Y0131582D01*
X0085316Y0131782D01*
X0085184Y0131984D01*
X0085057Y0132190D01*
X0084936Y0132398D01*
X0084819Y0132610D01*
X0084708Y0132824D01*
X0084602Y0133042D01*
X0084501Y0133261D01*
X0084406Y0133483D01*
X0084317Y0133708D01*
X0084232Y0133934D01*
X0084154Y0134162D01*
X0084081Y0134393D01*
X0084014Y0134625D01*
X0083952Y0134858D01*
X0083896Y0135093D01*
X0083846Y0135330D01*
X0083802Y0135567D01*
X0083764Y0135806D01*
X0083731Y0136045D01*
X0083704Y0136285D01*
X0083684Y0136526D01*
X0083669Y0136767D01*
X0083660Y0137008D01*
X0083657Y0137250D01*
X0094937Y0158500D02*
X0098937Y0158500D01*
X0099437Y0159000D01*
X0110563Y0159000D01*
X0111063Y0158500D01*
X0115063Y0158500D01*
X0115123Y0158502D01*
X0115184Y0158507D01*
X0115243Y0158516D01*
X0115302Y0158529D01*
X0115361Y0158545D01*
X0115418Y0158565D01*
X0115473Y0158588D01*
X0115528Y0158615D01*
X0115580Y0158644D01*
X0115631Y0158677D01*
X0115680Y0158713D01*
X0115726Y0158751D01*
X0115770Y0158793D01*
X0115812Y0158837D01*
X0115850Y0158883D01*
X0115886Y0158932D01*
X0115919Y0158983D01*
X0115948Y0159035D01*
X0115975Y0159090D01*
X0115998Y0159145D01*
X0116018Y0159202D01*
X0116034Y0159261D01*
X0116047Y0159320D01*
X0116056Y0159379D01*
X0116061Y0159440D01*
X0116063Y0159500D01*
X0116063Y0165500D01*
X0116061Y0165560D01*
X0116056Y0165621D01*
X0116047Y0165680D01*
X0116034Y0165739D01*
X0116018Y0165798D01*
X0115998Y0165855D01*
X0115975Y0165910D01*
X0115948Y0165965D01*
X0115919Y0166017D01*
X0115886Y0166068D01*
X0115850Y0166117D01*
X0115812Y0166163D01*
X0115770Y0166207D01*
X0115726Y0166249D01*
X0115680Y0166287D01*
X0115631Y0166323D01*
X0115580Y0166356D01*
X0115528Y0166385D01*
X0115473Y0166412D01*
X0115418Y0166435D01*
X0115361Y0166455D01*
X0115302Y0166471D01*
X0115243Y0166484D01*
X0115184Y0166493D01*
X0115123Y0166498D01*
X0115063Y0166500D01*
X0111063Y0166500D01*
X0110563Y0166000D01*
X0099437Y0166000D01*
X0098937Y0166500D01*
X0094937Y0166500D01*
X0094877Y0166498D01*
X0094816Y0166493D01*
X0094757Y0166484D01*
X0094698Y0166471D01*
X0094639Y0166455D01*
X0094582Y0166435D01*
X0094527Y0166412D01*
X0094472Y0166385D01*
X0094420Y0166356D01*
X0094369Y0166323D01*
X0094320Y0166287D01*
X0094274Y0166249D01*
X0094230Y0166207D01*
X0094188Y0166163D01*
X0094150Y0166117D01*
X0094114Y0166068D01*
X0094081Y0166017D01*
X0094052Y0165965D01*
X0094025Y0165910D01*
X0094002Y0165855D01*
X0093982Y0165798D01*
X0093966Y0165739D01*
X0093953Y0165680D01*
X0093944Y0165621D01*
X0093939Y0165560D01*
X0093937Y0165500D01*
X0093937Y0159500D01*
X0093939Y0159440D01*
X0093944Y0159379D01*
X0093953Y0159320D01*
X0093966Y0159261D01*
X0093982Y0159202D01*
X0094002Y0159145D01*
X0094025Y0159090D01*
X0094052Y0159035D01*
X0094081Y0158983D01*
X0094114Y0158932D01*
X0094150Y0158883D01*
X0094188Y0158837D01*
X0094230Y0158793D01*
X0094274Y0158751D01*
X0094320Y0158713D01*
X0094369Y0158677D01*
X0094420Y0158644D01*
X0094472Y0158615D01*
X0094527Y0158588D01*
X0094582Y0158565D01*
X0094639Y0158545D01*
X0094698Y0158529D01*
X0094757Y0158516D01*
X0094816Y0158507D01*
X0094877Y0158502D01*
X0094937Y0158500D01*
X0094937Y0168500D02*
X0098937Y0168500D01*
X0099437Y0169000D01*
X0110563Y0169000D01*
X0111063Y0168500D01*
X0115063Y0168500D01*
X0115411Y0167704D02*
X0116879Y0166236D01*
X0118347Y0167704D01*
X0118347Y0163300D01*
X0120015Y0163300D02*
X0121483Y0163300D01*
X0120749Y0163300D02*
X0120749Y0167704D01*
X0120015Y0167704D02*
X0121483Y0167704D01*
X0123085Y0167704D02*
X0126020Y0163300D01*
X0123085Y0163300D02*
X0126020Y0167704D01*
X0124106Y0177618D02*
X0095894Y0177618D01*
X0095894Y0187382D01*
X0124106Y0187382D01*
X0124106Y0177618D01*
X0116063Y0175500D02*
X0116063Y0169500D01*
X0116061Y0169440D01*
X0116056Y0169379D01*
X0116047Y0169320D01*
X0116034Y0169261D01*
X0116018Y0169202D01*
X0115998Y0169145D01*
X0115975Y0169090D01*
X0115948Y0169035D01*
X0115919Y0168983D01*
X0115886Y0168932D01*
X0115850Y0168883D01*
X0115812Y0168837D01*
X0115770Y0168793D01*
X0115726Y0168751D01*
X0115680Y0168713D01*
X0115631Y0168677D01*
X0115580Y0168644D01*
X0115528Y0168615D01*
X0115473Y0168588D01*
X0115418Y0168565D01*
X0115361Y0168545D01*
X0115302Y0168529D01*
X0115243Y0168516D01*
X0115184Y0168507D01*
X0115123Y0168502D01*
X0115063Y0168500D01*
X0115411Y0167704D02*
X0115411Y0163300D01*
X0116063Y0175500D02*
X0116061Y0175560D01*
X0116056Y0175621D01*
X0116047Y0175680D01*
X0116034Y0175739D01*
X0116018Y0175798D01*
X0115998Y0175855D01*
X0115975Y0175910D01*
X0115948Y0175965D01*
X0115919Y0176017D01*
X0115886Y0176068D01*
X0115850Y0176117D01*
X0115812Y0176163D01*
X0115770Y0176207D01*
X0115726Y0176249D01*
X0115680Y0176287D01*
X0115631Y0176323D01*
X0115580Y0176356D01*
X0115528Y0176385D01*
X0115473Y0176412D01*
X0115418Y0176435D01*
X0115361Y0176455D01*
X0115302Y0176471D01*
X0115243Y0176484D01*
X0115184Y0176493D01*
X0115123Y0176498D01*
X0115063Y0176500D01*
X0111063Y0176500D01*
X0110563Y0176000D01*
X0099437Y0176000D01*
X0098937Y0176500D01*
X0094937Y0176500D01*
X0094877Y0176498D01*
X0094816Y0176493D01*
X0094757Y0176484D01*
X0094698Y0176471D01*
X0094639Y0176455D01*
X0094582Y0176435D01*
X0094527Y0176412D01*
X0094472Y0176385D01*
X0094420Y0176356D01*
X0094369Y0176323D01*
X0094320Y0176287D01*
X0094274Y0176249D01*
X0094230Y0176207D01*
X0094188Y0176163D01*
X0094150Y0176117D01*
X0094114Y0176068D01*
X0094081Y0176017D01*
X0094052Y0175965D01*
X0094025Y0175910D01*
X0094002Y0175855D01*
X0093982Y0175798D01*
X0093966Y0175739D01*
X0093953Y0175680D01*
X0093944Y0175621D01*
X0093939Y0175560D01*
X0093937Y0175500D01*
X0093937Y0169500D01*
X0093939Y0169440D01*
X0093944Y0169379D01*
X0093953Y0169320D01*
X0093966Y0169261D01*
X0093982Y0169202D01*
X0094002Y0169145D01*
X0094025Y0169090D01*
X0094052Y0169035D01*
X0094081Y0168983D01*
X0094114Y0168932D01*
X0094150Y0168883D01*
X0094188Y0168837D01*
X0094230Y0168793D01*
X0094274Y0168751D01*
X0094320Y0168713D01*
X0094369Y0168677D01*
X0094420Y0168644D01*
X0094472Y0168615D01*
X0094527Y0168588D01*
X0094582Y0168565D01*
X0094639Y0168545D01*
X0094698Y0168529D01*
X0094757Y0168516D01*
X0094816Y0168507D01*
X0094877Y0168502D01*
X0094937Y0168500D01*
X0072094Y0185000D02*
X0072096Y0185194D01*
X0072104Y0185388D01*
X0072115Y0185582D01*
X0072132Y0185775D01*
X0072153Y0185968D01*
X0072180Y0186160D01*
X0072210Y0186352D01*
X0072246Y0186542D01*
X0072286Y0186732D01*
X0072331Y0186921D01*
X0072380Y0187109D01*
X0072434Y0187295D01*
X0072493Y0187480D01*
X0072556Y0187663D01*
X0072624Y0187845D01*
X0072696Y0188025D01*
X0072772Y0188204D01*
X0072853Y0188380D01*
X0072938Y0188555D01*
X0073028Y0188727D01*
X0073121Y0188897D01*
X0073219Y0189064D01*
X0073321Y0189230D01*
X0073426Y0189392D01*
X0073536Y0189552D01*
X0073650Y0189710D01*
X0073767Y0189864D01*
X0073889Y0190016D01*
X0074014Y0190164D01*
X0074142Y0190309D01*
X0074274Y0190452D01*
X0074410Y0190590D01*
X0074548Y0190726D01*
X0074691Y0190858D01*
X0074836Y0190986D01*
X0074984Y0191111D01*
X0075136Y0191233D01*
X0075290Y0191350D01*
X0075448Y0191464D01*
X0075608Y0191574D01*
X0075770Y0191679D01*
X0075936Y0191781D01*
X0076103Y0191879D01*
X0076273Y0191972D01*
X0076445Y0192062D01*
X0076620Y0192147D01*
X0076796Y0192228D01*
X0076975Y0192304D01*
X0077155Y0192376D01*
X0077337Y0192444D01*
X0077520Y0192507D01*
X0077705Y0192566D01*
X0077891Y0192620D01*
X0078079Y0192669D01*
X0078268Y0192714D01*
X0078458Y0192754D01*
X0078648Y0192790D01*
X0078840Y0192820D01*
X0079032Y0192847D01*
X0079225Y0192868D01*
X0079418Y0192885D01*
X0079612Y0192896D01*
X0079806Y0192904D01*
X0080000Y0192906D01*
X0080194Y0192904D01*
X0080388Y0192896D01*
X0080582Y0192885D01*
X0080775Y0192868D01*
X0080968Y0192847D01*
X0081160Y0192820D01*
X0081352Y0192790D01*
X0081542Y0192754D01*
X0081732Y0192714D01*
X0081921Y0192669D01*
X0082109Y0192620D01*
X0082295Y0192566D01*
X0082480Y0192507D01*
X0082663Y0192444D01*
X0082845Y0192376D01*
X0083025Y0192304D01*
X0083204Y0192228D01*
X0083380Y0192147D01*
X0083555Y0192062D01*
X0083727Y0191972D01*
X0083897Y0191879D01*
X0084064Y0191781D01*
X0084230Y0191679D01*
X0084392Y0191574D01*
X0084552Y0191464D01*
X0084710Y0191350D01*
X0084864Y0191233D01*
X0085016Y0191111D01*
X0085164Y0190986D01*
X0085309Y0190858D01*
X0085452Y0190726D01*
X0085590Y0190590D01*
X0085726Y0190452D01*
X0085858Y0190309D01*
X0085986Y0190164D01*
X0086111Y0190016D01*
X0086233Y0189864D01*
X0086350Y0189710D01*
X0086464Y0189552D01*
X0086574Y0189392D01*
X0086679Y0189230D01*
X0086781Y0189064D01*
X0086879Y0188897D01*
X0086972Y0188727D01*
X0087062Y0188555D01*
X0087147Y0188380D01*
X0087228Y0188204D01*
X0087304Y0188025D01*
X0087376Y0187845D01*
X0087444Y0187663D01*
X0087507Y0187480D01*
X0087566Y0187295D01*
X0087620Y0187109D01*
X0087669Y0186921D01*
X0087714Y0186732D01*
X0087754Y0186542D01*
X0087790Y0186352D01*
X0087820Y0186160D01*
X0087847Y0185968D01*
X0087868Y0185775D01*
X0087885Y0185582D01*
X0087896Y0185388D01*
X0087904Y0185194D01*
X0087906Y0185000D01*
X0087904Y0184806D01*
X0087896Y0184612D01*
X0087885Y0184418D01*
X0087868Y0184225D01*
X0087847Y0184032D01*
X0087820Y0183840D01*
X0087790Y0183648D01*
X0087754Y0183458D01*
X0087714Y0183268D01*
X0087669Y0183079D01*
X0087620Y0182891D01*
X0087566Y0182705D01*
X0087507Y0182520D01*
X0087444Y0182337D01*
X0087376Y0182155D01*
X0087304Y0181975D01*
X0087228Y0181796D01*
X0087147Y0181620D01*
X0087062Y0181445D01*
X0086972Y0181273D01*
X0086879Y0181103D01*
X0086781Y0180936D01*
X0086679Y0180770D01*
X0086574Y0180608D01*
X0086464Y0180448D01*
X0086350Y0180290D01*
X0086233Y0180136D01*
X0086111Y0179984D01*
X0085986Y0179836D01*
X0085858Y0179691D01*
X0085726Y0179548D01*
X0085590Y0179410D01*
X0085452Y0179274D01*
X0085309Y0179142D01*
X0085164Y0179014D01*
X0085016Y0178889D01*
X0084864Y0178767D01*
X0084710Y0178650D01*
X0084552Y0178536D01*
X0084392Y0178426D01*
X0084230Y0178321D01*
X0084064Y0178219D01*
X0083897Y0178121D01*
X0083727Y0178028D01*
X0083555Y0177938D01*
X0083380Y0177853D01*
X0083204Y0177772D01*
X0083025Y0177696D01*
X0082845Y0177624D01*
X0082663Y0177556D01*
X0082480Y0177493D01*
X0082295Y0177434D01*
X0082109Y0177380D01*
X0081921Y0177331D01*
X0081732Y0177286D01*
X0081542Y0177246D01*
X0081352Y0177210D01*
X0081160Y0177180D01*
X0080968Y0177153D01*
X0080775Y0177132D01*
X0080582Y0177115D01*
X0080388Y0177104D01*
X0080194Y0177096D01*
X0080000Y0177094D01*
X0079806Y0177096D01*
X0079612Y0177104D01*
X0079418Y0177115D01*
X0079225Y0177132D01*
X0079032Y0177153D01*
X0078840Y0177180D01*
X0078648Y0177210D01*
X0078458Y0177246D01*
X0078268Y0177286D01*
X0078079Y0177331D01*
X0077891Y0177380D01*
X0077705Y0177434D01*
X0077520Y0177493D01*
X0077337Y0177556D01*
X0077155Y0177624D01*
X0076975Y0177696D01*
X0076796Y0177772D01*
X0076620Y0177853D01*
X0076445Y0177938D01*
X0076273Y0178028D01*
X0076103Y0178121D01*
X0075936Y0178219D01*
X0075770Y0178321D01*
X0075608Y0178426D01*
X0075448Y0178536D01*
X0075290Y0178650D01*
X0075136Y0178767D01*
X0074984Y0178889D01*
X0074836Y0179014D01*
X0074691Y0179142D01*
X0074548Y0179274D01*
X0074410Y0179410D01*
X0074274Y0179548D01*
X0074142Y0179691D01*
X0074014Y0179836D01*
X0073889Y0179984D01*
X0073767Y0180136D01*
X0073650Y0180290D01*
X0073536Y0180448D01*
X0073426Y0180608D01*
X0073321Y0180770D01*
X0073219Y0180936D01*
X0073121Y0181103D01*
X0073028Y0181273D01*
X0072938Y0181445D01*
X0072853Y0181620D01*
X0072772Y0181796D01*
X0072696Y0181975D01*
X0072624Y0182155D01*
X0072556Y0182337D01*
X0072493Y0182520D01*
X0072434Y0182705D01*
X0072380Y0182891D01*
X0072331Y0183079D01*
X0072286Y0183268D01*
X0072246Y0183458D01*
X0072210Y0183648D01*
X0072180Y0183840D01*
X0072153Y0184032D01*
X0072132Y0184225D01*
X0072115Y0184418D01*
X0072104Y0184612D01*
X0072096Y0184806D01*
X0072094Y0185000D01*
X0075667Y0189772D02*
X0078132Y0189800D01*
X0076915Y0188558D02*
X0076915Y0191058D01*
X0077000Y0201437D02*
X0083000Y0201437D01*
X0083060Y0201439D01*
X0083121Y0201444D01*
X0083180Y0201453D01*
X0083239Y0201466D01*
X0083298Y0201482D01*
X0083355Y0201502D01*
X0083410Y0201525D01*
X0083465Y0201552D01*
X0083517Y0201581D01*
X0083568Y0201614D01*
X0083617Y0201650D01*
X0083663Y0201688D01*
X0083707Y0201730D01*
X0083749Y0201774D01*
X0083787Y0201820D01*
X0083823Y0201869D01*
X0083856Y0201920D01*
X0083885Y0201972D01*
X0083912Y0202027D01*
X0083935Y0202082D01*
X0083955Y0202139D01*
X0083971Y0202198D01*
X0083984Y0202257D01*
X0083993Y0202316D01*
X0083998Y0202377D01*
X0084000Y0202437D01*
X0084000Y0206437D01*
X0083500Y0206937D01*
X0083500Y0218063D01*
X0084000Y0218563D01*
X0084000Y0222563D01*
X0083998Y0222623D01*
X0083993Y0222684D01*
X0083984Y0222743D01*
X0083971Y0222802D01*
X0083955Y0222861D01*
X0083935Y0222918D01*
X0083912Y0222973D01*
X0083885Y0223028D01*
X0083856Y0223080D01*
X0083823Y0223131D01*
X0083787Y0223180D01*
X0083749Y0223226D01*
X0083707Y0223270D01*
X0083663Y0223312D01*
X0083617Y0223350D01*
X0083568Y0223386D01*
X0083517Y0223419D01*
X0083465Y0223448D01*
X0083410Y0223475D01*
X0083355Y0223498D01*
X0083298Y0223518D01*
X0083239Y0223534D01*
X0083180Y0223547D01*
X0083121Y0223556D01*
X0083060Y0223561D01*
X0083000Y0223563D01*
X0077000Y0223563D01*
X0076940Y0223561D01*
X0076879Y0223556D01*
X0076820Y0223547D01*
X0076761Y0223534D01*
X0076702Y0223518D01*
X0076645Y0223498D01*
X0076590Y0223475D01*
X0076535Y0223448D01*
X0076483Y0223419D01*
X0076432Y0223386D01*
X0076383Y0223350D01*
X0076337Y0223312D01*
X0076293Y0223270D01*
X0076251Y0223226D01*
X0076213Y0223180D01*
X0076177Y0223131D01*
X0076144Y0223080D01*
X0076115Y0223028D01*
X0076088Y0222973D01*
X0076065Y0222918D01*
X0076045Y0222861D01*
X0076029Y0222802D01*
X0076016Y0222743D01*
X0076007Y0222684D01*
X0076002Y0222623D01*
X0076000Y0222563D01*
X0076000Y0218563D01*
X0076500Y0218063D01*
X0076500Y0206937D01*
X0076000Y0206437D01*
X0076000Y0202437D01*
X0076002Y0202377D01*
X0076007Y0202316D01*
X0076016Y0202257D01*
X0076029Y0202198D01*
X0076045Y0202139D01*
X0076065Y0202082D01*
X0076088Y0202027D01*
X0076115Y0201972D01*
X0076144Y0201920D01*
X0076177Y0201869D01*
X0076213Y0201820D01*
X0076251Y0201774D01*
X0076293Y0201730D01*
X0076337Y0201688D01*
X0076383Y0201650D01*
X0076432Y0201614D01*
X0076483Y0201581D01*
X0076535Y0201552D01*
X0076590Y0201525D01*
X0076645Y0201502D01*
X0076702Y0201482D01*
X0076761Y0201466D01*
X0076820Y0201453D01*
X0076879Y0201444D01*
X0076940Y0201439D01*
X0077000Y0201437D01*
X0085118Y0223394D02*
X0094882Y0223394D01*
X0094882Y0251606D01*
X0085118Y0251606D01*
X0085118Y0223394D01*
X0093937Y0220500D02*
X0093937Y0214500D01*
X0093939Y0214440D01*
X0093944Y0214379D01*
X0093953Y0214320D01*
X0093966Y0214261D01*
X0093982Y0214202D01*
X0094002Y0214145D01*
X0094025Y0214090D01*
X0094052Y0214035D01*
X0094081Y0213983D01*
X0094114Y0213932D01*
X0094150Y0213883D01*
X0094188Y0213837D01*
X0094230Y0213793D01*
X0094274Y0213751D01*
X0094320Y0213713D01*
X0094369Y0213677D01*
X0094420Y0213644D01*
X0094472Y0213615D01*
X0094527Y0213588D01*
X0094582Y0213565D01*
X0094639Y0213545D01*
X0094698Y0213529D01*
X0094757Y0213516D01*
X0094816Y0213507D01*
X0094877Y0213502D01*
X0094937Y0213500D01*
X0098937Y0213500D01*
X0099437Y0214000D01*
X0110563Y0214000D01*
X0111063Y0213500D01*
X0115063Y0213500D01*
X0115123Y0213502D01*
X0115184Y0213507D01*
X0115243Y0213516D01*
X0115302Y0213529D01*
X0115361Y0213545D01*
X0115418Y0213565D01*
X0115473Y0213588D01*
X0115528Y0213615D01*
X0115580Y0213644D01*
X0115631Y0213677D01*
X0115680Y0213713D01*
X0115726Y0213751D01*
X0115770Y0213793D01*
X0115812Y0213837D01*
X0115850Y0213883D01*
X0115886Y0213932D01*
X0115919Y0213983D01*
X0115948Y0214035D01*
X0115975Y0214090D01*
X0115998Y0214145D01*
X0116018Y0214202D01*
X0116034Y0214261D01*
X0116047Y0214320D01*
X0116056Y0214379D01*
X0116061Y0214440D01*
X0116063Y0214500D01*
X0116063Y0220500D01*
X0116061Y0220560D01*
X0116056Y0220621D01*
X0116047Y0220680D01*
X0116034Y0220739D01*
X0116018Y0220798D01*
X0115998Y0220855D01*
X0115975Y0220910D01*
X0115948Y0220965D01*
X0115919Y0221017D01*
X0115886Y0221068D01*
X0115850Y0221117D01*
X0115812Y0221163D01*
X0115770Y0221207D01*
X0115726Y0221249D01*
X0115680Y0221287D01*
X0115631Y0221323D01*
X0115580Y0221356D01*
X0115528Y0221385D01*
X0115473Y0221412D01*
X0115418Y0221435D01*
X0115361Y0221455D01*
X0115302Y0221471D01*
X0115243Y0221484D01*
X0115184Y0221493D01*
X0115123Y0221498D01*
X0115063Y0221500D01*
X0111063Y0221500D01*
X0110563Y0221000D01*
X0099437Y0221000D01*
X0098937Y0221500D01*
X0094937Y0221500D01*
X0094877Y0221498D01*
X0094816Y0221493D01*
X0094757Y0221484D01*
X0094698Y0221471D01*
X0094639Y0221455D01*
X0094582Y0221435D01*
X0094527Y0221412D01*
X0094472Y0221385D01*
X0094420Y0221356D01*
X0094369Y0221323D01*
X0094320Y0221287D01*
X0094274Y0221249D01*
X0094230Y0221207D01*
X0094188Y0221163D01*
X0094150Y0221117D01*
X0094114Y0221068D01*
X0094081Y0221017D01*
X0094052Y0220965D01*
X0094025Y0220910D01*
X0094002Y0220855D01*
X0093982Y0220798D01*
X0093966Y0220739D01*
X0093953Y0220680D01*
X0093944Y0220621D01*
X0093939Y0220560D01*
X0093937Y0220500D01*
X0095894Y0222618D02*
X0095894Y0232382D01*
X0124106Y0232382D01*
X0124106Y0222618D01*
X0095894Y0222618D01*
X0095894Y0232618D02*
X0095894Y0242382D01*
X0124106Y0242382D01*
X0124106Y0232618D01*
X0095894Y0232618D01*
X0094937Y0211500D02*
X0098937Y0211500D01*
X0099437Y0211000D01*
X0110563Y0211000D01*
X0111063Y0211500D01*
X0115063Y0211500D01*
X0115123Y0211498D01*
X0115184Y0211493D01*
X0115243Y0211484D01*
X0115302Y0211471D01*
X0115361Y0211455D01*
X0115418Y0211435D01*
X0115473Y0211412D01*
X0115528Y0211385D01*
X0115580Y0211356D01*
X0115631Y0211323D01*
X0115680Y0211287D01*
X0115726Y0211249D01*
X0115770Y0211207D01*
X0115812Y0211163D01*
X0115850Y0211117D01*
X0115886Y0211068D01*
X0115919Y0211017D01*
X0115948Y0210965D01*
X0115975Y0210910D01*
X0115998Y0210855D01*
X0116018Y0210798D01*
X0116034Y0210739D01*
X0116047Y0210680D01*
X0116056Y0210621D01*
X0116061Y0210560D01*
X0116063Y0210500D01*
X0116063Y0204500D01*
X0116061Y0204440D01*
X0116056Y0204379D01*
X0116047Y0204320D01*
X0116034Y0204261D01*
X0116018Y0204202D01*
X0115998Y0204145D01*
X0115975Y0204090D01*
X0115948Y0204035D01*
X0115919Y0203983D01*
X0115886Y0203932D01*
X0115850Y0203883D01*
X0115812Y0203837D01*
X0115770Y0203793D01*
X0115726Y0203751D01*
X0115680Y0203713D01*
X0115631Y0203677D01*
X0115580Y0203644D01*
X0115528Y0203615D01*
X0115473Y0203588D01*
X0115418Y0203565D01*
X0115361Y0203545D01*
X0115302Y0203529D01*
X0115243Y0203516D01*
X0115184Y0203507D01*
X0115123Y0203502D01*
X0115063Y0203500D01*
X0111063Y0203500D01*
X0110563Y0204000D01*
X0099437Y0204000D01*
X0098937Y0203500D01*
X0094937Y0203500D01*
X0094877Y0203502D01*
X0094816Y0203507D01*
X0094757Y0203516D01*
X0094698Y0203529D01*
X0094639Y0203545D01*
X0094582Y0203565D01*
X0094527Y0203588D01*
X0094472Y0203615D01*
X0094420Y0203644D01*
X0094369Y0203677D01*
X0094320Y0203713D01*
X0094274Y0203751D01*
X0094230Y0203793D01*
X0094188Y0203837D01*
X0094150Y0203883D01*
X0094114Y0203932D01*
X0094081Y0203983D01*
X0094052Y0204035D01*
X0094025Y0204090D01*
X0094002Y0204145D01*
X0093982Y0204202D01*
X0093966Y0204261D01*
X0093953Y0204320D01*
X0093944Y0204379D01*
X0093939Y0204440D01*
X0093937Y0204500D01*
X0093937Y0210500D01*
X0093939Y0210560D01*
X0093944Y0210621D01*
X0093953Y0210680D01*
X0093966Y0210739D01*
X0093982Y0210798D01*
X0094002Y0210855D01*
X0094025Y0210910D01*
X0094052Y0210965D01*
X0094081Y0211017D01*
X0094114Y0211068D01*
X0094150Y0211117D01*
X0094188Y0211163D01*
X0094230Y0211207D01*
X0094274Y0211249D01*
X0094320Y0211287D01*
X0094369Y0211323D01*
X0094420Y0211356D01*
X0094472Y0211385D01*
X0094527Y0211412D01*
X0094582Y0211435D01*
X0094639Y0211455D01*
X0094698Y0211471D01*
X0094757Y0211484D01*
X0094816Y0211493D01*
X0094877Y0211498D01*
X0094937Y0211500D01*
X0095894Y0202382D02*
X0095894Y0192618D01*
X0124106Y0192618D01*
X0124106Y0202382D01*
X0095894Y0202382D01*
X0113750Y0250000D02*
X0113750Y0260000D01*
X0129750Y0260000D01*
X0129750Y0250000D01*
X0113750Y0250000D01*
X0117646Y0252800D02*
X0117646Y0257204D01*
X0119848Y0257204D01*
X0120582Y0256470D01*
X0120582Y0253534D01*
X0119848Y0252800D01*
X0117646Y0252800D01*
X0122250Y0252800D02*
X0125186Y0252800D01*
X0123718Y0252800D02*
X0123718Y0257204D01*
X0122250Y0255736D01*
X0148546Y0279550D02*
X0148546Y0282486D01*
X0148546Y0281018D02*
X0152950Y0281018D01*
X0152950Y0304550D02*
X0148546Y0304550D01*
X0148546Y0306752D01*
X0149280Y0307486D01*
X0150748Y0307486D01*
X0151482Y0306752D01*
X0151482Y0304550D01*
X0151482Y0306018D02*
X0152950Y0307486D01*
X0152216Y0329550D02*
X0152950Y0330284D01*
X0152950Y0331752D01*
X0152216Y0332486D01*
X0151482Y0332486D01*
X0150748Y0331752D01*
X0150748Y0330284D01*
X0150014Y0329550D01*
X0149280Y0329550D01*
X0148546Y0330284D01*
X0148546Y0331752D01*
X0149280Y0332486D01*
X0162738Y0337784D02*
X0163472Y0337050D01*
X0164940Y0337050D01*
X0165674Y0337784D01*
X0165674Y0340720D01*
X0164940Y0341454D01*
X0163472Y0341454D01*
X0162738Y0340720D01*
X0162738Y0337784D01*
X0167342Y0337784D02*
X0167342Y0341454D01*
X0167342Y0337784D02*
X0168076Y0337050D01*
X0169544Y0337050D01*
X0170278Y0337784D01*
X0170278Y0341454D01*
X0171946Y0341454D02*
X0174882Y0341454D01*
X0173414Y0341454D02*
X0173414Y0337050D01*
X0176550Y0337050D02*
X0176550Y0341454D01*
X0178752Y0341454D01*
X0179486Y0340720D01*
X0179486Y0339252D01*
X0178752Y0338518D01*
X0176550Y0338518D01*
X0181154Y0337784D02*
X0181888Y0337050D01*
X0183356Y0337050D01*
X0184090Y0337784D01*
X0184090Y0341454D01*
X0185758Y0341454D02*
X0188694Y0341454D01*
X0187226Y0341454D02*
X0187226Y0337050D01*
X0181154Y0337784D02*
X0181154Y0341454D01*
X0198546Y0334590D02*
X0202950Y0334590D01*
X0198546Y0331654D01*
X0202950Y0331654D01*
X0202216Y0329986D02*
X0202950Y0329252D01*
X0202950Y0327784D01*
X0202216Y0327050D01*
X0200748Y0327784D02*
X0200748Y0329252D01*
X0201482Y0329986D01*
X0202216Y0329986D01*
X0200748Y0327784D02*
X0200014Y0327050D01*
X0199280Y0327050D01*
X0198546Y0327784D01*
X0198546Y0329252D01*
X0199280Y0329986D01*
X0198546Y0309590D02*
X0202950Y0309590D01*
X0198546Y0306654D01*
X0202950Y0306654D01*
X0202950Y0304986D02*
X0201482Y0303518D01*
X0201482Y0304252D02*
X0201482Y0302050D01*
X0202950Y0302050D02*
X0198546Y0302050D01*
X0198546Y0304252D01*
X0199280Y0304986D01*
X0200748Y0304986D01*
X0201482Y0304252D01*
X0202950Y0284590D02*
X0198546Y0284590D01*
X0198546Y0281654D02*
X0202950Y0284590D01*
X0202950Y0281654D02*
X0198546Y0281654D01*
X0198546Y0279986D02*
X0198546Y0277050D01*
X0198546Y0278518D02*
X0202950Y0278518D01*
X0203892Y0247704D02*
X0203892Y0246970D01*
X0202424Y0245502D01*
X0202424Y0243300D01*
X0202424Y0245502D02*
X0200956Y0246970D01*
X0200956Y0247704D01*
X0199288Y0246236D02*
X0199288Y0243300D01*
X0199288Y0245502D02*
X0196352Y0245502D01*
X0196352Y0246236D02*
X0197820Y0247704D01*
X0199288Y0246236D01*
X0196606Y0247382D02*
X0196606Y0237618D01*
X0168394Y0237618D01*
X0168394Y0247382D01*
X0196606Y0247382D01*
X0196352Y0246236D02*
X0196352Y0243300D01*
X0194684Y0243300D02*
X0191748Y0243300D01*
X0191748Y0247704D01*
X0190080Y0247704D02*
X0187144Y0247704D01*
X0187144Y0243300D01*
X0190080Y0243300D01*
X0188612Y0245502D02*
X0187144Y0245502D01*
X0185476Y0246970D02*
X0184742Y0247704D01*
X0182540Y0247704D01*
X0182540Y0243300D01*
X0184742Y0243300D01*
X0185476Y0244034D01*
X0185476Y0246970D01*
X0196606Y0224882D02*
X0196606Y0215118D01*
X0168394Y0215118D01*
X0168394Y0224882D01*
X0196606Y0224882D01*
X0197563Y0214000D02*
X0193563Y0214000D01*
X0193063Y0213500D01*
X0181937Y0213500D01*
X0181437Y0214000D01*
X0177437Y0214000D01*
X0177377Y0213998D01*
X0177316Y0213993D01*
X0177257Y0213984D01*
X0177198Y0213971D01*
X0177139Y0213955D01*
X0177082Y0213935D01*
X0177027Y0213912D01*
X0176972Y0213885D01*
X0176920Y0213856D01*
X0176869Y0213823D01*
X0176820Y0213787D01*
X0176774Y0213749D01*
X0176730Y0213707D01*
X0176688Y0213663D01*
X0176650Y0213617D01*
X0176614Y0213568D01*
X0176581Y0213517D01*
X0176552Y0213465D01*
X0176525Y0213410D01*
X0176502Y0213355D01*
X0176482Y0213298D01*
X0176466Y0213239D01*
X0176453Y0213180D01*
X0176444Y0213121D01*
X0176439Y0213060D01*
X0176437Y0213000D01*
X0176437Y0207000D01*
X0176439Y0206940D01*
X0176444Y0206879D01*
X0176453Y0206820D01*
X0176466Y0206761D01*
X0176482Y0206702D01*
X0176502Y0206645D01*
X0176525Y0206590D01*
X0176552Y0206535D01*
X0176581Y0206483D01*
X0176614Y0206432D01*
X0176650Y0206383D01*
X0176688Y0206337D01*
X0176730Y0206293D01*
X0176774Y0206251D01*
X0176820Y0206213D01*
X0176869Y0206177D01*
X0176920Y0206144D01*
X0176972Y0206115D01*
X0177027Y0206088D01*
X0177082Y0206065D01*
X0177139Y0206045D01*
X0177198Y0206029D01*
X0177257Y0206016D01*
X0177316Y0206007D01*
X0177377Y0206002D01*
X0177437Y0206000D01*
X0181437Y0206000D01*
X0181937Y0206500D01*
X0193063Y0206500D01*
X0193563Y0206000D01*
X0197563Y0206000D01*
X0197623Y0206002D01*
X0197684Y0206007D01*
X0197743Y0206016D01*
X0197802Y0206029D01*
X0197861Y0206045D01*
X0197918Y0206065D01*
X0197973Y0206088D01*
X0198028Y0206115D01*
X0198080Y0206144D01*
X0198131Y0206177D01*
X0198180Y0206213D01*
X0198226Y0206251D01*
X0198270Y0206293D01*
X0198312Y0206337D01*
X0198350Y0206383D01*
X0198386Y0206432D01*
X0198419Y0206483D01*
X0198448Y0206535D01*
X0198475Y0206590D01*
X0198498Y0206645D01*
X0198518Y0206702D01*
X0198534Y0206761D01*
X0198547Y0206820D01*
X0198556Y0206879D01*
X0198561Y0206940D01*
X0198563Y0207000D01*
X0198563Y0213000D01*
X0198561Y0213060D01*
X0198556Y0213121D01*
X0198547Y0213180D01*
X0198534Y0213239D01*
X0198518Y0213298D01*
X0198498Y0213355D01*
X0198475Y0213410D01*
X0198448Y0213465D01*
X0198419Y0213517D01*
X0198386Y0213568D01*
X0198350Y0213617D01*
X0198312Y0213663D01*
X0198270Y0213707D01*
X0198226Y0213749D01*
X0198180Y0213787D01*
X0198131Y0213823D01*
X0198080Y0213856D01*
X0198028Y0213885D01*
X0197973Y0213912D01*
X0197918Y0213935D01*
X0197861Y0213955D01*
X0197802Y0213971D01*
X0197743Y0213984D01*
X0197684Y0213993D01*
X0197623Y0213998D01*
X0197563Y0214000D01*
X0166657Y0193500D02*
X0166660Y0193742D01*
X0166669Y0193983D01*
X0166684Y0194224D01*
X0166704Y0194465D01*
X0166731Y0194705D01*
X0166764Y0194944D01*
X0166802Y0195183D01*
X0166846Y0195420D01*
X0166896Y0195657D01*
X0166952Y0195892D01*
X0167014Y0196125D01*
X0167081Y0196357D01*
X0167154Y0196588D01*
X0167232Y0196816D01*
X0167317Y0197042D01*
X0167406Y0197267D01*
X0167501Y0197489D01*
X0167602Y0197708D01*
X0167708Y0197926D01*
X0167819Y0198140D01*
X0167936Y0198352D01*
X0168057Y0198560D01*
X0168184Y0198766D01*
X0168316Y0198968D01*
X0168453Y0199168D01*
X0168594Y0199363D01*
X0168740Y0199556D01*
X0168891Y0199744D01*
X0169047Y0199929D01*
X0169207Y0200110D01*
X0169371Y0200287D01*
X0169540Y0200460D01*
X0169713Y0200629D01*
X0169890Y0200793D01*
X0170071Y0200953D01*
X0170256Y0201109D01*
X0170444Y0201260D01*
X0170637Y0201406D01*
X0170832Y0201547D01*
X0171032Y0201684D01*
X0171234Y0201816D01*
X0171440Y0201943D01*
X0171648Y0202064D01*
X0171860Y0202181D01*
X0172074Y0202292D01*
X0172292Y0202398D01*
X0172511Y0202499D01*
X0172733Y0202594D01*
X0172958Y0202683D01*
X0173184Y0202768D01*
X0173412Y0202846D01*
X0173643Y0202919D01*
X0173875Y0202986D01*
X0174108Y0203048D01*
X0174343Y0203104D01*
X0174580Y0203154D01*
X0174817Y0203198D01*
X0175056Y0203236D01*
X0175295Y0203269D01*
X0175535Y0203296D01*
X0175776Y0203316D01*
X0176017Y0203331D01*
X0176258Y0203340D01*
X0176500Y0203343D01*
X0176742Y0203340D01*
X0176983Y0203331D01*
X0177224Y0203316D01*
X0177465Y0203296D01*
X0177705Y0203269D01*
X0177944Y0203236D01*
X0178183Y0203198D01*
X0178420Y0203154D01*
X0178657Y0203104D01*
X0178892Y0203048D01*
X0179125Y0202986D01*
X0179357Y0202919D01*
X0179588Y0202846D01*
X0179816Y0202768D01*
X0180042Y0202683D01*
X0180267Y0202594D01*
X0180489Y0202499D01*
X0180708Y0202398D01*
X0180926Y0202292D01*
X0181140Y0202181D01*
X0181352Y0202064D01*
X0181560Y0201943D01*
X0181766Y0201816D01*
X0181968Y0201684D01*
X0182168Y0201547D01*
X0182363Y0201406D01*
X0182556Y0201260D01*
X0182744Y0201109D01*
X0182929Y0200953D01*
X0183110Y0200793D01*
X0183287Y0200629D01*
X0183460Y0200460D01*
X0183629Y0200287D01*
X0183793Y0200110D01*
X0183953Y0199929D01*
X0184109Y0199744D01*
X0184260Y0199556D01*
X0184406Y0199363D01*
X0184547Y0199168D01*
X0184684Y0198968D01*
X0184816Y0198766D01*
X0184943Y0198560D01*
X0185064Y0198352D01*
X0185181Y0198140D01*
X0185292Y0197926D01*
X0185398Y0197708D01*
X0185499Y0197489D01*
X0185594Y0197267D01*
X0185683Y0197042D01*
X0185768Y0196816D01*
X0185846Y0196588D01*
X0185919Y0196357D01*
X0185986Y0196125D01*
X0186048Y0195892D01*
X0186104Y0195657D01*
X0186154Y0195420D01*
X0186198Y0195183D01*
X0186236Y0194944D01*
X0186269Y0194705D01*
X0186296Y0194465D01*
X0186316Y0194224D01*
X0186331Y0193983D01*
X0186340Y0193742D01*
X0186343Y0193500D01*
X0186340Y0193258D01*
X0186331Y0193017D01*
X0186316Y0192776D01*
X0186296Y0192535D01*
X0186269Y0192295D01*
X0186236Y0192056D01*
X0186198Y0191817D01*
X0186154Y0191580D01*
X0186104Y0191343D01*
X0186048Y0191108D01*
X0185986Y0190875D01*
X0185919Y0190643D01*
X0185846Y0190412D01*
X0185768Y0190184D01*
X0185683Y0189958D01*
X0185594Y0189733D01*
X0185499Y0189511D01*
X0185398Y0189292D01*
X0185292Y0189074D01*
X0185181Y0188860D01*
X0185064Y0188648D01*
X0184943Y0188440D01*
X0184816Y0188234D01*
X0184684Y0188032D01*
X0184547Y0187832D01*
X0184406Y0187637D01*
X0184260Y0187444D01*
X0184109Y0187256D01*
X0183953Y0187071D01*
X0183793Y0186890D01*
X0183629Y0186713D01*
X0183460Y0186540D01*
X0183287Y0186371D01*
X0183110Y0186207D01*
X0182929Y0186047D01*
X0182744Y0185891D01*
X0182556Y0185740D01*
X0182363Y0185594D01*
X0182168Y0185453D01*
X0181968Y0185316D01*
X0181766Y0185184D01*
X0181560Y0185057D01*
X0181352Y0184936D01*
X0181140Y0184819D01*
X0180926Y0184708D01*
X0180708Y0184602D01*
X0180489Y0184501D01*
X0180267Y0184406D01*
X0180042Y0184317D01*
X0179816Y0184232D01*
X0179588Y0184154D01*
X0179357Y0184081D01*
X0179125Y0184014D01*
X0178892Y0183952D01*
X0178657Y0183896D01*
X0178420Y0183846D01*
X0178183Y0183802D01*
X0177944Y0183764D01*
X0177705Y0183731D01*
X0177465Y0183704D01*
X0177224Y0183684D01*
X0176983Y0183669D01*
X0176742Y0183660D01*
X0176500Y0183657D01*
X0176258Y0183660D01*
X0176017Y0183669D01*
X0175776Y0183684D01*
X0175535Y0183704D01*
X0175295Y0183731D01*
X0175056Y0183764D01*
X0174817Y0183802D01*
X0174580Y0183846D01*
X0174343Y0183896D01*
X0174108Y0183952D01*
X0173875Y0184014D01*
X0173643Y0184081D01*
X0173412Y0184154D01*
X0173184Y0184232D01*
X0172958Y0184317D01*
X0172733Y0184406D01*
X0172511Y0184501D01*
X0172292Y0184602D01*
X0172074Y0184708D01*
X0171860Y0184819D01*
X0171648Y0184936D01*
X0171440Y0185057D01*
X0171234Y0185184D01*
X0171032Y0185316D01*
X0170832Y0185453D01*
X0170637Y0185594D01*
X0170444Y0185740D01*
X0170256Y0185891D01*
X0170071Y0186047D01*
X0169890Y0186207D01*
X0169713Y0186371D01*
X0169540Y0186540D01*
X0169371Y0186713D01*
X0169207Y0186890D01*
X0169047Y0187071D01*
X0168891Y0187256D01*
X0168740Y0187444D01*
X0168594Y0187637D01*
X0168453Y0187832D01*
X0168316Y0188032D01*
X0168184Y0188234D01*
X0168057Y0188440D01*
X0167936Y0188648D01*
X0167819Y0188860D01*
X0167708Y0189074D01*
X0167602Y0189292D01*
X0167501Y0189511D01*
X0167406Y0189733D01*
X0167317Y0189958D01*
X0167232Y0190184D01*
X0167154Y0190412D01*
X0167081Y0190643D01*
X0167014Y0190875D01*
X0166952Y0191108D01*
X0166896Y0191343D01*
X0166846Y0191580D01*
X0166802Y0191817D01*
X0166764Y0192056D01*
X0166731Y0192295D01*
X0166704Y0192535D01*
X0166684Y0192776D01*
X0166669Y0193017D01*
X0166660Y0193258D01*
X0166657Y0193500D01*
X0171243Y0198440D02*
X0173843Y0198440D01*
X0172627Y0197220D02*
X0172627Y0199720D01*
X0183750Y0182500D02*
X0183750Y0175000D01*
X0183750Y0172500D01*
X0184166Y0172600D02*
X0182698Y0172600D01*
X0182698Y0174802D01*
X0183432Y0175536D01*
X0184166Y0175536D01*
X0184900Y0174802D01*
X0184900Y0173334D01*
X0184166Y0172600D01*
X0182698Y0172600D02*
X0181230Y0174068D01*
X0180496Y0175536D01*
X0179406Y0176437D02*
X0179406Y0168563D01*
X0180496Y0168730D02*
X0181230Y0167996D01*
X0184166Y0167996D01*
X0184900Y0168730D01*
X0184900Y0170198D01*
X0184166Y0170932D01*
X0188750Y0167500D02*
X0188890Y0167502D01*
X0189030Y0167508D01*
X0189170Y0167518D01*
X0189310Y0167531D01*
X0189449Y0167549D01*
X0189588Y0167571D01*
X0189725Y0167596D01*
X0189863Y0167625D01*
X0189999Y0167658D01*
X0190134Y0167695D01*
X0190268Y0167736D01*
X0190401Y0167781D01*
X0190533Y0167829D01*
X0190663Y0167881D01*
X0190792Y0167936D01*
X0190919Y0167995D01*
X0191045Y0168058D01*
X0191169Y0168124D01*
X0191290Y0168193D01*
X0191410Y0168266D01*
X0191528Y0168343D01*
X0191643Y0168422D01*
X0191757Y0168505D01*
X0191867Y0168591D01*
X0191976Y0168680D01*
X0192082Y0168772D01*
X0192185Y0168867D01*
X0192286Y0168964D01*
X0192383Y0169065D01*
X0192478Y0169168D01*
X0192570Y0169274D01*
X0192659Y0169383D01*
X0192745Y0169493D01*
X0192828Y0169607D01*
X0192907Y0169722D01*
X0192984Y0169840D01*
X0193057Y0169960D01*
X0193126Y0170081D01*
X0193192Y0170205D01*
X0193255Y0170331D01*
X0193314Y0170458D01*
X0193369Y0170587D01*
X0193421Y0170717D01*
X0193469Y0170849D01*
X0193514Y0170982D01*
X0193555Y0171116D01*
X0193592Y0171251D01*
X0193625Y0171387D01*
X0193654Y0171525D01*
X0193679Y0171662D01*
X0193701Y0171801D01*
X0193719Y0171940D01*
X0193732Y0172080D01*
X0193742Y0172220D01*
X0193748Y0172360D01*
X0193750Y0172500D01*
X0193750Y0182500D01*
X0188750Y0187500D02*
X0188610Y0187498D01*
X0188470Y0187492D01*
X0188330Y0187482D01*
X0188190Y0187469D01*
X0188051Y0187451D01*
X0187912Y0187429D01*
X0187775Y0187404D01*
X0187637Y0187375D01*
X0187501Y0187342D01*
X0187366Y0187305D01*
X0187232Y0187264D01*
X0187099Y0187219D01*
X0186967Y0187171D01*
X0186837Y0187119D01*
X0186708Y0187064D01*
X0186581Y0187005D01*
X0186455Y0186942D01*
X0186331Y0186876D01*
X0186210Y0186807D01*
X0186090Y0186734D01*
X0185972Y0186657D01*
X0185857Y0186578D01*
X0185743Y0186495D01*
X0185633Y0186409D01*
X0185524Y0186320D01*
X0185418Y0186228D01*
X0185315Y0186133D01*
X0185214Y0186036D01*
X0185117Y0185935D01*
X0185022Y0185832D01*
X0184930Y0185726D01*
X0184841Y0185617D01*
X0184755Y0185507D01*
X0184672Y0185393D01*
X0184593Y0185278D01*
X0184516Y0185160D01*
X0184443Y0185040D01*
X0184374Y0184919D01*
X0184308Y0184795D01*
X0184245Y0184669D01*
X0184186Y0184542D01*
X0184131Y0184413D01*
X0184079Y0184283D01*
X0184031Y0184151D01*
X0183986Y0184018D01*
X0183945Y0183884D01*
X0183908Y0183749D01*
X0183875Y0183613D01*
X0183846Y0183475D01*
X0183821Y0183338D01*
X0183799Y0183199D01*
X0183781Y0183060D01*
X0183768Y0182920D01*
X0183758Y0182780D01*
X0183752Y0182640D01*
X0183750Y0182500D01*
X0188750Y0187500D02*
X0188890Y0187498D01*
X0189030Y0187492D01*
X0189170Y0187482D01*
X0189310Y0187469D01*
X0189449Y0187451D01*
X0189588Y0187429D01*
X0189725Y0187404D01*
X0189863Y0187375D01*
X0189999Y0187342D01*
X0190134Y0187305D01*
X0190268Y0187264D01*
X0190401Y0187219D01*
X0190533Y0187171D01*
X0190663Y0187119D01*
X0190792Y0187064D01*
X0190919Y0187005D01*
X0191045Y0186942D01*
X0191169Y0186876D01*
X0191290Y0186807D01*
X0191410Y0186734D01*
X0191528Y0186657D01*
X0191643Y0186578D01*
X0191757Y0186495D01*
X0191867Y0186409D01*
X0191976Y0186320D01*
X0192082Y0186228D01*
X0192185Y0186133D01*
X0192286Y0186036D01*
X0192383Y0185935D01*
X0192478Y0185832D01*
X0192570Y0185726D01*
X0192659Y0185617D01*
X0192745Y0185507D01*
X0192828Y0185393D01*
X0192907Y0185278D01*
X0192984Y0185160D01*
X0193057Y0185040D01*
X0193126Y0184919D01*
X0193192Y0184795D01*
X0193255Y0184669D01*
X0193314Y0184542D01*
X0193369Y0184413D01*
X0193421Y0184283D01*
X0193469Y0184151D01*
X0193514Y0184018D01*
X0193555Y0183884D01*
X0193592Y0183749D01*
X0193625Y0183613D01*
X0193654Y0183475D01*
X0193679Y0183338D01*
X0193701Y0183199D01*
X0193719Y0183060D01*
X0193732Y0182920D01*
X0193742Y0182780D01*
X0193748Y0182640D01*
X0193750Y0182500D01*
X0183750Y0172500D02*
X0183752Y0172360D01*
X0183758Y0172220D01*
X0183768Y0172080D01*
X0183781Y0171940D01*
X0183799Y0171801D01*
X0183821Y0171662D01*
X0183846Y0171525D01*
X0183875Y0171387D01*
X0183908Y0171251D01*
X0183945Y0171116D01*
X0183986Y0170982D01*
X0184031Y0170849D01*
X0184079Y0170717D01*
X0184131Y0170587D01*
X0184186Y0170458D01*
X0184245Y0170331D01*
X0184308Y0170205D01*
X0184374Y0170081D01*
X0184443Y0169960D01*
X0184516Y0169840D01*
X0184593Y0169722D01*
X0184672Y0169607D01*
X0184755Y0169493D01*
X0184841Y0169383D01*
X0184930Y0169274D01*
X0185022Y0169168D01*
X0185117Y0169065D01*
X0185214Y0168964D01*
X0185315Y0168867D01*
X0185418Y0168772D01*
X0185524Y0168680D01*
X0185633Y0168591D01*
X0185743Y0168505D01*
X0185857Y0168422D01*
X0185972Y0168343D01*
X0186090Y0168266D01*
X0186210Y0168193D01*
X0186331Y0168124D01*
X0186455Y0168058D01*
X0186581Y0167995D01*
X0186708Y0167936D01*
X0186837Y0167881D01*
X0186967Y0167829D01*
X0187099Y0167781D01*
X0187232Y0167736D01*
X0187366Y0167695D01*
X0187501Y0167658D01*
X0187637Y0167625D01*
X0187775Y0167596D01*
X0187912Y0167571D01*
X0188051Y0167549D01*
X0188190Y0167531D01*
X0188330Y0167518D01*
X0188470Y0167508D01*
X0188610Y0167502D01*
X0188750Y0167500D01*
X0186752Y0159000D02*
X0203248Y0159000D01*
X0200060Y0166243D02*
X0200060Y0168843D01*
X0201280Y0167627D02*
X0198780Y0167627D01*
X0195157Y0171500D02*
X0195160Y0171742D01*
X0195169Y0171983D01*
X0195184Y0172224D01*
X0195204Y0172465D01*
X0195231Y0172705D01*
X0195264Y0172944D01*
X0195302Y0173183D01*
X0195346Y0173420D01*
X0195396Y0173657D01*
X0195452Y0173892D01*
X0195514Y0174125D01*
X0195581Y0174357D01*
X0195654Y0174588D01*
X0195732Y0174816D01*
X0195817Y0175042D01*
X0195906Y0175267D01*
X0196001Y0175489D01*
X0196102Y0175708D01*
X0196208Y0175926D01*
X0196319Y0176140D01*
X0196436Y0176352D01*
X0196557Y0176560D01*
X0196684Y0176766D01*
X0196816Y0176968D01*
X0196953Y0177168D01*
X0197094Y0177363D01*
X0197240Y0177556D01*
X0197391Y0177744D01*
X0197547Y0177929D01*
X0197707Y0178110D01*
X0197871Y0178287D01*
X0198040Y0178460D01*
X0198213Y0178629D01*
X0198390Y0178793D01*
X0198571Y0178953D01*
X0198756Y0179109D01*
X0198944Y0179260D01*
X0199137Y0179406D01*
X0199332Y0179547D01*
X0199532Y0179684D01*
X0199734Y0179816D01*
X0199940Y0179943D01*
X0200148Y0180064D01*
X0200360Y0180181D01*
X0200574Y0180292D01*
X0200792Y0180398D01*
X0201011Y0180499D01*
X0201233Y0180594D01*
X0201458Y0180683D01*
X0201684Y0180768D01*
X0201912Y0180846D01*
X0202143Y0180919D01*
X0202375Y0180986D01*
X0202608Y0181048D01*
X0202843Y0181104D01*
X0203080Y0181154D01*
X0203317Y0181198D01*
X0203556Y0181236D01*
X0203795Y0181269D01*
X0204035Y0181296D01*
X0204276Y0181316D01*
X0204517Y0181331D01*
X0204758Y0181340D01*
X0205000Y0181343D01*
X0205242Y0181340D01*
X0205483Y0181331D01*
X0205724Y0181316D01*
X0205965Y0181296D01*
X0206205Y0181269D01*
X0206444Y0181236D01*
X0206683Y0181198D01*
X0206920Y0181154D01*
X0207157Y0181104D01*
X0207392Y0181048D01*
X0207625Y0180986D01*
X0207857Y0180919D01*
X0208088Y0180846D01*
X0208316Y0180768D01*
X0208542Y0180683D01*
X0208767Y0180594D01*
X0208989Y0180499D01*
X0209208Y0180398D01*
X0209426Y0180292D01*
X0209640Y0180181D01*
X0209852Y0180064D01*
X0210060Y0179943D01*
X0210266Y0179816D01*
X0210468Y0179684D01*
X0210668Y0179547D01*
X0210863Y0179406D01*
X0211056Y0179260D01*
X0211244Y0179109D01*
X0211429Y0178953D01*
X0211610Y0178793D01*
X0211787Y0178629D01*
X0211960Y0178460D01*
X0212129Y0178287D01*
X0212293Y0178110D01*
X0212453Y0177929D01*
X0212609Y0177744D01*
X0212760Y0177556D01*
X0212906Y0177363D01*
X0213047Y0177168D01*
X0213184Y0176968D01*
X0213316Y0176766D01*
X0213443Y0176560D01*
X0213564Y0176352D01*
X0213681Y0176140D01*
X0213792Y0175926D01*
X0213898Y0175708D01*
X0213999Y0175489D01*
X0214094Y0175267D01*
X0214183Y0175042D01*
X0214268Y0174816D01*
X0214346Y0174588D01*
X0214419Y0174357D01*
X0214486Y0174125D01*
X0214548Y0173892D01*
X0214604Y0173657D01*
X0214654Y0173420D01*
X0214698Y0173183D01*
X0214736Y0172944D01*
X0214769Y0172705D01*
X0214796Y0172465D01*
X0214816Y0172224D01*
X0214831Y0171983D01*
X0214840Y0171742D01*
X0214843Y0171500D01*
X0214840Y0171258D01*
X0214831Y0171017D01*
X0214816Y0170776D01*
X0214796Y0170535D01*
X0214769Y0170295D01*
X0214736Y0170056D01*
X0214698Y0169817D01*
X0214654Y0169580D01*
X0214604Y0169343D01*
X0214548Y0169108D01*
X0214486Y0168875D01*
X0214419Y0168643D01*
X0214346Y0168412D01*
X0214268Y0168184D01*
X0214183Y0167958D01*
X0214094Y0167733D01*
X0213999Y0167511D01*
X0213898Y0167292D01*
X0213792Y0167074D01*
X0213681Y0166860D01*
X0213564Y0166648D01*
X0213443Y0166440D01*
X0213316Y0166234D01*
X0213184Y0166032D01*
X0213047Y0165832D01*
X0212906Y0165637D01*
X0212760Y0165444D01*
X0212609Y0165256D01*
X0212453Y0165071D01*
X0212293Y0164890D01*
X0212129Y0164713D01*
X0211960Y0164540D01*
X0211787Y0164371D01*
X0211610Y0164207D01*
X0211429Y0164047D01*
X0211244Y0163891D01*
X0211056Y0163740D01*
X0210863Y0163594D01*
X0210668Y0163453D01*
X0210468Y0163316D01*
X0210266Y0163184D01*
X0210060Y0163057D01*
X0209852Y0162936D01*
X0209640Y0162819D01*
X0209426Y0162708D01*
X0209208Y0162602D01*
X0208989Y0162501D01*
X0208767Y0162406D01*
X0208542Y0162317D01*
X0208316Y0162232D01*
X0208088Y0162154D01*
X0207857Y0162081D01*
X0207625Y0162014D01*
X0207392Y0161952D01*
X0207157Y0161896D01*
X0206920Y0161846D01*
X0206683Y0161802D01*
X0206444Y0161764D01*
X0206205Y0161731D01*
X0205965Y0161704D01*
X0205724Y0161684D01*
X0205483Y0161669D01*
X0205242Y0161660D01*
X0205000Y0161657D01*
X0204758Y0161660D01*
X0204517Y0161669D01*
X0204276Y0161684D01*
X0204035Y0161704D01*
X0203795Y0161731D01*
X0203556Y0161764D01*
X0203317Y0161802D01*
X0203080Y0161846D01*
X0202843Y0161896D01*
X0202608Y0161952D01*
X0202375Y0162014D01*
X0202143Y0162081D01*
X0201912Y0162154D01*
X0201684Y0162232D01*
X0201458Y0162317D01*
X0201233Y0162406D01*
X0201011Y0162501D01*
X0200792Y0162602D01*
X0200574Y0162708D01*
X0200360Y0162819D01*
X0200148Y0162936D01*
X0199940Y0163057D01*
X0199734Y0163184D01*
X0199532Y0163316D01*
X0199332Y0163453D01*
X0199137Y0163594D01*
X0198944Y0163740D01*
X0198756Y0163891D01*
X0198571Y0164047D01*
X0198390Y0164207D01*
X0198213Y0164371D01*
X0198040Y0164540D01*
X0197871Y0164713D01*
X0197707Y0164890D01*
X0197547Y0165071D01*
X0197391Y0165256D01*
X0197240Y0165444D01*
X0197094Y0165637D01*
X0196953Y0165832D01*
X0196816Y0166032D01*
X0196684Y0166234D01*
X0196557Y0166440D01*
X0196436Y0166648D01*
X0196319Y0166860D01*
X0196208Y0167074D01*
X0196102Y0167292D01*
X0196001Y0167511D01*
X0195906Y0167733D01*
X0195817Y0167958D01*
X0195732Y0168184D01*
X0195654Y0168412D01*
X0195581Y0168643D01*
X0195514Y0168875D01*
X0195452Y0169108D01*
X0195396Y0169343D01*
X0195346Y0169580D01*
X0195302Y0169817D01*
X0195264Y0170056D01*
X0195231Y0170295D01*
X0195204Y0170535D01*
X0195184Y0170776D01*
X0195169Y0171017D01*
X0195160Y0171258D01*
X0195157Y0171500D01*
X0181230Y0170932D02*
X0180496Y0170198D01*
X0180496Y0168730D01*
X0173500Y0162657D02*
X0173348Y0162659D01*
X0173196Y0162665D01*
X0173044Y0162675D01*
X0172893Y0162688D01*
X0172742Y0162706D01*
X0172591Y0162727D01*
X0172441Y0162753D01*
X0172292Y0162782D01*
X0172143Y0162815D01*
X0171996Y0162852D01*
X0171849Y0162892D01*
X0171704Y0162937D01*
X0171560Y0162985D01*
X0171417Y0163037D01*
X0171275Y0163092D01*
X0171135Y0163151D01*
X0170996Y0163214D01*
X0170859Y0163280D01*
X0170724Y0163350D01*
X0170591Y0163423D01*
X0170460Y0163500D01*
X0170330Y0163580D01*
X0170203Y0163663D01*
X0170078Y0163749D01*
X0169955Y0163839D01*
X0169835Y0163932D01*
X0169717Y0164028D01*
X0169601Y0164127D01*
X0169488Y0164229D01*
X0169378Y0164333D01*
X0169270Y0164441D01*
X0169166Y0164551D01*
X0169064Y0164664D01*
X0168965Y0164780D01*
X0168869Y0164898D01*
X0168776Y0165018D01*
X0168686Y0165141D01*
X0168600Y0165266D01*
X0168517Y0165393D01*
X0168437Y0165523D01*
X0168360Y0165654D01*
X0168287Y0165787D01*
X0168217Y0165922D01*
X0168151Y0166059D01*
X0168088Y0166198D01*
X0168029Y0166338D01*
X0167974Y0166480D01*
X0167922Y0166623D01*
X0167874Y0166767D01*
X0167829Y0166912D01*
X0167789Y0167059D01*
X0167752Y0167206D01*
X0167719Y0167355D01*
X0167690Y0167504D01*
X0167664Y0167654D01*
X0167643Y0167805D01*
X0167625Y0167956D01*
X0167612Y0168107D01*
X0167602Y0168259D01*
X0167596Y0168411D01*
X0167594Y0168563D01*
X0167594Y0176437D01*
X0167596Y0176589D01*
X0167602Y0176741D01*
X0167612Y0176893D01*
X0167625Y0177044D01*
X0167643Y0177195D01*
X0167664Y0177346D01*
X0167690Y0177496D01*
X0167719Y0177645D01*
X0167752Y0177794D01*
X0167789Y0177941D01*
X0167829Y0178088D01*
X0167874Y0178233D01*
X0167922Y0178377D01*
X0167974Y0178520D01*
X0168029Y0178662D01*
X0168088Y0178802D01*
X0168151Y0178941D01*
X0168217Y0179078D01*
X0168287Y0179213D01*
X0168360Y0179346D01*
X0168437Y0179477D01*
X0168517Y0179607D01*
X0168600Y0179734D01*
X0168686Y0179859D01*
X0168776Y0179982D01*
X0168869Y0180102D01*
X0168965Y0180220D01*
X0169064Y0180336D01*
X0169166Y0180449D01*
X0169270Y0180559D01*
X0169378Y0180667D01*
X0169488Y0180771D01*
X0169601Y0180873D01*
X0169717Y0180972D01*
X0169835Y0181068D01*
X0169955Y0181161D01*
X0170078Y0181251D01*
X0170203Y0181337D01*
X0170330Y0181420D01*
X0170460Y0181500D01*
X0170591Y0181577D01*
X0170724Y0181650D01*
X0170859Y0181720D01*
X0170996Y0181786D01*
X0171135Y0181849D01*
X0171275Y0181908D01*
X0171417Y0181963D01*
X0171560Y0182015D01*
X0171704Y0182063D01*
X0171849Y0182108D01*
X0171996Y0182148D01*
X0172143Y0182185D01*
X0172292Y0182218D01*
X0172441Y0182247D01*
X0172591Y0182273D01*
X0172742Y0182294D01*
X0172893Y0182312D01*
X0173044Y0182325D01*
X0173196Y0182335D01*
X0173348Y0182341D01*
X0173500Y0182343D01*
X0173652Y0182341D01*
X0173804Y0182335D01*
X0173956Y0182325D01*
X0174107Y0182312D01*
X0174258Y0182294D01*
X0174409Y0182273D01*
X0174559Y0182247D01*
X0174708Y0182218D01*
X0174857Y0182185D01*
X0175004Y0182148D01*
X0175151Y0182108D01*
X0175296Y0182063D01*
X0175440Y0182015D01*
X0175583Y0181963D01*
X0175725Y0181908D01*
X0175865Y0181849D01*
X0176004Y0181786D01*
X0176141Y0181720D01*
X0176276Y0181650D01*
X0176409Y0181577D01*
X0176540Y0181500D01*
X0176670Y0181420D01*
X0176797Y0181337D01*
X0176922Y0181251D01*
X0177045Y0181161D01*
X0177165Y0181068D01*
X0177283Y0180972D01*
X0177399Y0180873D01*
X0177512Y0180771D01*
X0177622Y0180667D01*
X0177730Y0180559D01*
X0177834Y0180449D01*
X0177936Y0180336D01*
X0178035Y0180220D01*
X0178131Y0180102D01*
X0178224Y0179982D01*
X0178314Y0179859D01*
X0178400Y0179734D01*
X0178483Y0179607D01*
X0178563Y0179477D01*
X0178640Y0179346D01*
X0178713Y0179213D01*
X0178783Y0179078D01*
X0178849Y0178941D01*
X0178912Y0178802D01*
X0178971Y0178662D01*
X0179026Y0178520D01*
X0179078Y0178377D01*
X0179126Y0178233D01*
X0179171Y0178088D01*
X0179211Y0177941D01*
X0179248Y0177794D01*
X0179281Y0177645D01*
X0179310Y0177496D01*
X0179336Y0177346D01*
X0179357Y0177195D01*
X0179375Y0177044D01*
X0179388Y0176893D01*
X0179398Y0176741D01*
X0179404Y0176589D01*
X0179406Y0176437D01*
X0179406Y0168563D02*
X0179404Y0168411D01*
X0179398Y0168259D01*
X0179388Y0168107D01*
X0179375Y0167956D01*
X0179357Y0167805D01*
X0179336Y0167654D01*
X0179310Y0167504D01*
X0179281Y0167355D01*
X0179248Y0167206D01*
X0179211Y0167059D01*
X0179171Y0166912D01*
X0179126Y0166767D01*
X0179078Y0166623D01*
X0179026Y0166480D01*
X0178971Y0166338D01*
X0178912Y0166198D01*
X0178849Y0166059D01*
X0178783Y0165922D01*
X0178713Y0165787D01*
X0178640Y0165654D01*
X0178563Y0165523D01*
X0178483Y0165393D01*
X0178400Y0165266D01*
X0178314Y0165141D01*
X0178224Y0165018D01*
X0178131Y0164898D01*
X0178035Y0164780D01*
X0177936Y0164664D01*
X0177834Y0164551D01*
X0177730Y0164441D01*
X0177622Y0164333D01*
X0177512Y0164229D01*
X0177399Y0164127D01*
X0177283Y0164028D01*
X0177165Y0163932D01*
X0177045Y0163839D01*
X0176922Y0163749D01*
X0176797Y0163663D01*
X0176670Y0163580D01*
X0176540Y0163500D01*
X0176409Y0163423D01*
X0176276Y0163350D01*
X0176141Y0163280D01*
X0176004Y0163214D01*
X0175865Y0163151D01*
X0175725Y0163092D01*
X0175583Y0163037D01*
X0175440Y0162985D01*
X0175296Y0162937D01*
X0175151Y0162892D01*
X0175004Y0162852D01*
X0174857Y0162815D01*
X0174708Y0162782D01*
X0174559Y0162753D01*
X0174409Y0162727D01*
X0174258Y0162706D01*
X0174107Y0162688D01*
X0173956Y0162675D01*
X0173804Y0162665D01*
X0173652Y0162659D01*
X0173500Y0162657D01*
X0177440Y0153757D02*
X0177440Y0151157D01*
X0176220Y0152373D02*
X0178720Y0152373D01*
X0162657Y0148500D02*
X0162660Y0148742D01*
X0162669Y0148983D01*
X0162684Y0149224D01*
X0162704Y0149465D01*
X0162731Y0149705D01*
X0162764Y0149944D01*
X0162802Y0150183D01*
X0162846Y0150420D01*
X0162896Y0150657D01*
X0162952Y0150892D01*
X0163014Y0151125D01*
X0163081Y0151357D01*
X0163154Y0151588D01*
X0163232Y0151816D01*
X0163317Y0152042D01*
X0163406Y0152267D01*
X0163501Y0152489D01*
X0163602Y0152708D01*
X0163708Y0152926D01*
X0163819Y0153140D01*
X0163936Y0153352D01*
X0164057Y0153560D01*
X0164184Y0153766D01*
X0164316Y0153968D01*
X0164453Y0154168D01*
X0164594Y0154363D01*
X0164740Y0154556D01*
X0164891Y0154744D01*
X0165047Y0154929D01*
X0165207Y0155110D01*
X0165371Y0155287D01*
X0165540Y0155460D01*
X0165713Y0155629D01*
X0165890Y0155793D01*
X0166071Y0155953D01*
X0166256Y0156109D01*
X0166444Y0156260D01*
X0166637Y0156406D01*
X0166832Y0156547D01*
X0167032Y0156684D01*
X0167234Y0156816D01*
X0167440Y0156943D01*
X0167648Y0157064D01*
X0167860Y0157181D01*
X0168074Y0157292D01*
X0168292Y0157398D01*
X0168511Y0157499D01*
X0168733Y0157594D01*
X0168958Y0157683D01*
X0169184Y0157768D01*
X0169412Y0157846D01*
X0169643Y0157919D01*
X0169875Y0157986D01*
X0170108Y0158048D01*
X0170343Y0158104D01*
X0170580Y0158154D01*
X0170817Y0158198D01*
X0171056Y0158236D01*
X0171295Y0158269D01*
X0171535Y0158296D01*
X0171776Y0158316D01*
X0172017Y0158331D01*
X0172258Y0158340D01*
X0172500Y0158343D01*
X0172742Y0158340D01*
X0172983Y0158331D01*
X0173224Y0158316D01*
X0173465Y0158296D01*
X0173705Y0158269D01*
X0173944Y0158236D01*
X0174183Y0158198D01*
X0174420Y0158154D01*
X0174657Y0158104D01*
X0174892Y0158048D01*
X0175125Y0157986D01*
X0175357Y0157919D01*
X0175588Y0157846D01*
X0175816Y0157768D01*
X0176042Y0157683D01*
X0176267Y0157594D01*
X0176489Y0157499D01*
X0176708Y0157398D01*
X0176926Y0157292D01*
X0177140Y0157181D01*
X0177352Y0157064D01*
X0177560Y0156943D01*
X0177766Y0156816D01*
X0177968Y0156684D01*
X0178168Y0156547D01*
X0178363Y0156406D01*
X0178556Y0156260D01*
X0178744Y0156109D01*
X0178929Y0155953D01*
X0179110Y0155793D01*
X0179287Y0155629D01*
X0179460Y0155460D01*
X0179629Y0155287D01*
X0179793Y0155110D01*
X0179953Y0154929D01*
X0180109Y0154744D01*
X0180260Y0154556D01*
X0180406Y0154363D01*
X0180547Y0154168D01*
X0180684Y0153968D01*
X0180816Y0153766D01*
X0180943Y0153560D01*
X0181064Y0153352D01*
X0181181Y0153140D01*
X0181292Y0152926D01*
X0181398Y0152708D01*
X0181499Y0152489D01*
X0181594Y0152267D01*
X0181683Y0152042D01*
X0181768Y0151816D01*
X0181846Y0151588D01*
X0181919Y0151357D01*
X0181986Y0151125D01*
X0182048Y0150892D01*
X0182104Y0150657D01*
X0182154Y0150420D01*
X0182198Y0150183D01*
X0182236Y0149944D01*
X0182269Y0149705D01*
X0182296Y0149465D01*
X0182316Y0149224D01*
X0182331Y0148983D01*
X0182340Y0148742D01*
X0182343Y0148500D01*
X0182340Y0148258D01*
X0182331Y0148017D01*
X0182316Y0147776D01*
X0182296Y0147535D01*
X0182269Y0147295D01*
X0182236Y0147056D01*
X0182198Y0146817D01*
X0182154Y0146580D01*
X0182104Y0146343D01*
X0182048Y0146108D01*
X0181986Y0145875D01*
X0181919Y0145643D01*
X0181846Y0145412D01*
X0181768Y0145184D01*
X0181683Y0144958D01*
X0181594Y0144733D01*
X0181499Y0144511D01*
X0181398Y0144292D01*
X0181292Y0144074D01*
X0181181Y0143860D01*
X0181064Y0143648D01*
X0180943Y0143440D01*
X0180816Y0143234D01*
X0180684Y0143032D01*
X0180547Y0142832D01*
X0180406Y0142637D01*
X0180260Y0142444D01*
X0180109Y0142256D01*
X0179953Y0142071D01*
X0179793Y0141890D01*
X0179629Y0141713D01*
X0179460Y0141540D01*
X0179287Y0141371D01*
X0179110Y0141207D01*
X0178929Y0141047D01*
X0178744Y0140891D01*
X0178556Y0140740D01*
X0178363Y0140594D01*
X0178168Y0140453D01*
X0177968Y0140316D01*
X0177766Y0140184D01*
X0177560Y0140057D01*
X0177352Y0139936D01*
X0177140Y0139819D01*
X0176926Y0139708D01*
X0176708Y0139602D01*
X0176489Y0139501D01*
X0176267Y0139406D01*
X0176042Y0139317D01*
X0175816Y0139232D01*
X0175588Y0139154D01*
X0175357Y0139081D01*
X0175125Y0139014D01*
X0174892Y0138952D01*
X0174657Y0138896D01*
X0174420Y0138846D01*
X0174183Y0138802D01*
X0173944Y0138764D01*
X0173705Y0138731D01*
X0173465Y0138704D01*
X0173224Y0138684D01*
X0172983Y0138669D01*
X0172742Y0138660D01*
X0172500Y0138657D01*
X0172258Y0138660D01*
X0172017Y0138669D01*
X0171776Y0138684D01*
X0171535Y0138704D01*
X0171295Y0138731D01*
X0171056Y0138764D01*
X0170817Y0138802D01*
X0170580Y0138846D01*
X0170343Y0138896D01*
X0170108Y0138952D01*
X0169875Y0139014D01*
X0169643Y0139081D01*
X0169412Y0139154D01*
X0169184Y0139232D01*
X0168958Y0139317D01*
X0168733Y0139406D01*
X0168511Y0139501D01*
X0168292Y0139602D01*
X0168074Y0139708D01*
X0167860Y0139819D01*
X0167648Y0139936D01*
X0167440Y0140057D01*
X0167234Y0140184D01*
X0167032Y0140316D01*
X0166832Y0140453D01*
X0166637Y0140594D01*
X0166444Y0140740D01*
X0166256Y0140891D01*
X0166071Y0141047D01*
X0165890Y0141207D01*
X0165713Y0141371D01*
X0165540Y0141540D01*
X0165371Y0141713D01*
X0165207Y0141890D01*
X0165047Y0142071D01*
X0164891Y0142256D01*
X0164740Y0142444D01*
X0164594Y0142637D01*
X0164453Y0142832D01*
X0164316Y0143032D01*
X0164184Y0143234D01*
X0164057Y0143440D01*
X0163936Y0143648D01*
X0163819Y0143860D01*
X0163708Y0144074D01*
X0163602Y0144292D01*
X0163501Y0144511D01*
X0163406Y0144733D01*
X0163317Y0144958D01*
X0163232Y0145184D01*
X0163154Y0145412D01*
X0163081Y0145643D01*
X0163014Y0145875D01*
X0162952Y0146108D01*
X0162896Y0146343D01*
X0162846Y0146580D01*
X0162802Y0146817D01*
X0162764Y0147056D01*
X0162731Y0147295D01*
X0162704Y0147535D01*
X0162684Y0147776D01*
X0162669Y0148017D01*
X0162660Y0148258D01*
X0162657Y0148500D01*
X0093700Y0278518D02*
X0089296Y0278518D01*
X0089296Y0277050D02*
X0089296Y0279986D01*
X0089296Y0281654D02*
X0093700Y0284590D01*
X0089296Y0284590D01*
X0089296Y0281654D02*
X0093700Y0281654D01*
X0093700Y0302050D02*
X0089296Y0302050D01*
X0089296Y0304252D01*
X0090030Y0304986D01*
X0091498Y0304986D01*
X0092232Y0304252D01*
X0092232Y0302050D01*
X0092232Y0303518D02*
X0093700Y0304986D01*
X0093700Y0306654D02*
X0089296Y0306654D01*
X0093700Y0309590D01*
X0089296Y0309590D01*
X0090030Y0327050D02*
X0090764Y0327050D01*
X0091498Y0327784D01*
X0091498Y0329252D01*
X0092232Y0329986D01*
X0092966Y0329986D01*
X0093700Y0329252D01*
X0093700Y0327784D01*
X0092966Y0327050D01*
X0090030Y0327050D02*
X0089296Y0327784D01*
X0089296Y0329252D01*
X0090030Y0329986D01*
X0089296Y0331654D02*
X0093700Y0334590D01*
X0089296Y0334590D01*
X0089296Y0331654D02*
X0093700Y0331654D01*
X0074906Y0337050D02*
X0074906Y0341454D01*
X0073439Y0341454D02*
X0076374Y0341454D01*
X0071770Y0341454D02*
X0071770Y0337784D01*
X0071036Y0337050D01*
X0069569Y0337050D01*
X0068835Y0337784D01*
X0068835Y0341454D01*
X0067167Y0340720D02*
X0067167Y0339252D01*
X0066433Y0338518D01*
X0064231Y0338518D01*
X0064231Y0337050D02*
X0064231Y0341454D01*
X0066433Y0341454D01*
X0067167Y0340720D01*
X0062563Y0341454D02*
X0062563Y0337050D01*
X0059627Y0341454D01*
X0059627Y0337050D01*
X0058025Y0337050D02*
X0056557Y0337050D01*
X0057291Y0337050D02*
X0057291Y0341454D01*
X0056557Y0341454D02*
X0058025Y0341454D01*
X0043700Y0331752D02*
X0043700Y0330284D01*
X0042966Y0329550D01*
X0041498Y0330284D02*
X0041498Y0331752D01*
X0042232Y0332486D01*
X0042966Y0332486D01*
X0043700Y0331752D01*
X0041498Y0330284D02*
X0040764Y0329550D01*
X0040030Y0329550D01*
X0039296Y0330284D01*
X0039296Y0331752D01*
X0040030Y0332486D01*
X0040030Y0307486D02*
X0041498Y0307486D01*
X0042232Y0306752D01*
X0042232Y0304550D01*
X0042232Y0306018D02*
X0043700Y0307486D01*
X0043700Y0304550D02*
X0039296Y0304550D01*
X0039296Y0306752D01*
X0040030Y0307486D01*
X0039296Y0282486D02*
X0039296Y0279550D01*
X0039296Y0281018D02*
X0043700Y0281018D01*
D12*
X0049768Y0263896D02*
X0049768Y0252085D01*
X0083232Y0252085D01*
X0083232Y0263896D01*
X0106264Y0263896D01*
X0106264Y0344998D01*
X0088941Y0344998D01*
X0088941Y0356612D01*
X0044059Y0356612D01*
X0044059Y0344998D01*
X0026736Y0344998D01*
X0026736Y0263896D01*
X0049768Y0263896D01*
X0083232Y0263896D01*
X0135986Y0263896D02*
X0159018Y0263896D01*
X0159018Y0252085D01*
X0192482Y0252085D01*
X0192482Y0263896D01*
X0215514Y0263896D01*
X0215514Y0344998D01*
X0198191Y0344998D01*
X0198191Y0356612D01*
X0153309Y0356612D01*
X0153309Y0344998D01*
X0135986Y0344998D01*
X0135986Y0263896D01*
X0159018Y0263896D02*
X0192482Y0263896D01*
X0198191Y0344998D02*
X0153309Y0344998D01*
X0088941Y0344998D02*
X0044059Y0344998D01*
D13*
X0116250Y0255000D03*
D14*
X0135000Y0242500D02*
X0155000Y0242500D01*
X0155000Y0162500D01*
X0147750Y0162500D01*
X0147748Y0162604D01*
X0147742Y0162708D01*
X0147732Y0162812D01*
X0147719Y0162915D01*
X0147701Y0163017D01*
X0147679Y0163119D01*
X0147654Y0163220D01*
X0147625Y0163320D01*
X0147592Y0163419D01*
X0147555Y0163516D01*
X0147515Y0163612D01*
X0147471Y0163707D01*
X0147424Y0163799D01*
X0147373Y0163890D01*
X0147319Y0163979D01*
X0147261Y0164065D01*
X0147200Y0164150D01*
X0147136Y0164232D01*
X0147069Y0164312D01*
X0146999Y0164389D01*
X0146926Y0164463D01*
X0146850Y0164534D01*
X0146772Y0164603D01*
X0146691Y0164668D01*
X0146608Y0164731D01*
X0146522Y0164790D01*
X0146435Y0164846D01*
X0146345Y0164899D01*
X0146253Y0164948D01*
X0146160Y0164994D01*
X0146064Y0165036D01*
X0145968Y0165074D01*
X0145870Y0165109D01*
X0145770Y0165140D01*
X0145670Y0165167D01*
X0145568Y0165191D01*
X0145466Y0165210D01*
X0145363Y0165226D01*
X0145260Y0165238D01*
X0145156Y0165246D01*
X0145052Y0165250D01*
X0144948Y0165250D01*
X0144844Y0165246D01*
X0144740Y0165238D01*
X0144637Y0165226D01*
X0144534Y0165210D01*
X0144432Y0165191D01*
X0144330Y0165167D01*
X0144230Y0165140D01*
X0144130Y0165109D01*
X0144032Y0165074D01*
X0143936Y0165036D01*
X0143840Y0164994D01*
X0143747Y0164948D01*
X0143655Y0164899D01*
X0143565Y0164846D01*
X0143478Y0164790D01*
X0143392Y0164731D01*
X0143309Y0164668D01*
X0143228Y0164603D01*
X0143150Y0164534D01*
X0143074Y0164463D01*
X0143001Y0164389D01*
X0142931Y0164312D01*
X0142864Y0164232D01*
X0142800Y0164150D01*
X0142739Y0164065D01*
X0142681Y0163979D01*
X0142627Y0163890D01*
X0142576Y0163799D01*
X0142529Y0163707D01*
X0142485Y0163612D01*
X0142445Y0163516D01*
X0142408Y0163419D01*
X0142375Y0163320D01*
X0142346Y0163220D01*
X0142321Y0163119D01*
X0142299Y0163017D01*
X0142281Y0162915D01*
X0142268Y0162812D01*
X0142258Y0162708D01*
X0142252Y0162604D01*
X0142250Y0162500D01*
X0135000Y0162500D01*
X0135000Y0242500D01*
X0129913Y0069035D02*
X0115087Y0069035D01*
X0115087Y0065394D01*
X0092559Y0065394D01*
X0092559Y0039606D01*
X0152441Y0039606D01*
X0152441Y0065394D01*
X0129913Y0065394D01*
X0129913Y0069035D01*
X0156870Y0069035D01*
X0156870Y0035965D01*
X0088130Y0035965D01*
X0088130Y0069035D01*
X0115087Y0069035D01*
X0115087Y0065394D02*
X0115087Y0062933D01*
X0129913Y0062933D01*
X0129913Y0065394D01*
D15*
X0137696Y0093294D02*
X0137696Y0095596D01*
X0138463Y0096363D01*
X0139998Y0096363D01*
X0140765Y0095596D01*
X0140765Y0093294D01*
X0140765Y0094829D02*
X0142300Y0096363D01*
X0142300Y0097898D02*
X0142300Y0100967D01*
X0142300Y0099433D02*
X0137696Y0099433D01*
X0139231Y0097898D01*
X0139231Y0102502D02*
X0138463Y0102502D01*
X0137696Y0103269D01*
X0137696Y0104804D01*
X0138463Y0105571D01*
X0139231Y0105571D01*
X0139998Y0104804D01*
X0139998Y0103269D01*
X0139231Y0102502D01*
X0139998Y0103269D02*
X0140765Y0102502D01*
X0141533Y0102502D01*
X0142300Y0103269D01*
X0142300Y0104804D01*
X0141533Y0105571D01*
X0140765Y0105571D01*
X0139998Y0104804D01*
X0147696Y0105571D02*
X0147696Y0102502D01*
X0147696Y0105571D02*
X0148463Y0105571D01*
X0151533Y0102502D01*
X0152300Y0102502D01*
X0152300Y0100967D02*
X0152300Y0097898D01*
X0152300Y0096363D02*
X0150765Y0094829D01*
X0150765Y0095596D02*
X0150765Y0093294D01*
X0152300Y0093294D02*
X0147696Y0093294D01*
X0147696Y0095596D01*
X0148463Y0096363D01*
X0149998Y0096363D01*
X0150765Y0095596D01*
X0149231Y0097898D02*
X0147696Y0099433D01*
X0152300Y0099433D01*
X0142300Y0093294D02*
X0137696Y0093294D01*
X0127300Y0095596D02*
X0122696Y0095596D01*
X0122696Y0097898D01*
X0123463Y0098665D01*
X0124998Y0098665D01*
X0125765Y0097898D01*
X0125765Y0095596D01*
X0125765Y0097131D02*
X0127300Y0098665D01*
X0126533Y0100200D02*
X0127300Y0100967D01*
X0127300Y0102502D01*
X0126533Y0103269D01*
X0125765Y0103269D01*
X0124998Y0102502D01*
X0124998Y0101735D01*
X0124998Y0102502D02*
X0124231Y0103269D01*
X0123463Y0103269D01*
X0122696Y0102502D01*
X0122696Y0100967D01*
X0123463Y0100200D01*
X0117300Y0100200D02*
X0114231Y0103269D01*
X0113463Y0103269D01*
X0112696Y0102502D01*
X0112696Y0100967D01*
X0113463Y0100200D01*
X0113463Y0098665D02*
X0114998Y0098665D01*
X0115765Y0097898D01*
X0115765Y0095596D01*
X0115765Y0097131D02*
X0117300Y0098665D01*
X0117300Y0100200D02*
X0117300Y0103269D01*
X0113463Y0098665D02*
X0112696Y0097898D01*
X0112696Y0095596D01*
X0117300Y0095596D01*
X0115769Y0122700D02*
X0112700Y0122700D01*
X0114235Y0122700D02*
X0114235Y0127304D01*
X0112700Y0125769D01*
X0111165Y0125002D02*
X0110398Y0124235D01*
X0108096Y0124235D01*
X0109631Y0124235D02*
X0111165Y0122700D01*
X0111165Y0125002D02*
X0111165Y0126537D01*
X0110398Y0127304D01*
X0108096Y0127304D01*
X0108096Y0122700D01*
X0107502Y0160200D02*
X0105967Y0160200D01*
X0105200Y0160967D01*
X0105200Y0161735D01*
X0105967Y0162502D01*
X0107502Y0162502D01*
X0108269Y0161735D01*
X0108269Y0160967D01*
X0107502Y0160200D01*
X0107502Y0162502D02*
X0108269Y0163269D01*
X0108269Y0164037D01*
X0107502Y0164804D01*
X0105967Y0164804D01*
X0105200Y0164037D01*
X0105200Y0163269D01*
X0105967Y0162502D01*
X0103665Y0162502D02*
X0102898Y0161735D01*
X0100596Y0161735D01*
X0102131Y0161735D02*
X0103665Y0160200D01*
X0103665Y0162502D02*
X0103665Y0164037D01*
X0102898Y0164804D01*
X0100596Y0164804D01*
X0100596Y0160200D01*
X0100596Y0170200D02*
X0100596Y0174804D01*
X0102898Y0174804D01*
X0103665Y0174037D01*
X0103665Y0172502D01*
X0102898Y0171735D01*
X0100596Y0171735D01*
X0102131Y0171735D02*
X0103665Y0170200D01*
X0105200Y0170967D02*
X0105967Y0170200D01*
X0107502Y0170200D01*
X0108269Y0170967D01*
X0108269Y0174037D01*
X0107502Y0174804D01*
X0105967Y0174804D01*
X0105200Y0174037D01*
X0105200Y0173269D01*
X0105967Y0172502D01*
X0108269Y0172502D01*
X0107502Y0205200D02*
X0110571Y0205200D01*
X0109037Y0205200D02*
X0109037Y0209804D01*
X0107502Y0208269D01*
X0105967Y0205200D02*
X0102898Y0205200D01*
X0101363Y0205200D02*
X0099829Y0206735D01*
X0100596Y0206735D02*
X0098294Y0206735D01*
X0098294Y0205200D02*
X0098294Y0209804D01*
X0100596Y0209804D01*
X0101363Y0209037D01*
X0101363Y0207502D01*
X0100596Y0206735D01*
X0102898Y0208269D02*
X0104433Y0209804D01*
X0104433Y0205200D01*
X0104433Y0215200D02*
X0104433Y0219804D01*
X0102898Y0218269D01*
X0101363Y0217502D02*
X0101363Y0219037D01*
X0100596Y0219804D01*
X0098294Y0219804D01*
X0098294Y0215200D01*
X0098294Y0216735D02*
X0100596Y0216735D01*
X0101363Y0217502D01*
X0099829Y0216735D02*
X0101363Y0215200D01*
X0102898Y0215200D02*
X0105967Y0215200D01*
X0107502Y0215967D02*
X0110571Y0219037D01*
X0110571Y0215967D01*
X0109804Y0215200D01*
X0108269Y0215200D01*
X0107502Y0215967D01*
X0107502Y0219037D01*
X0108269Y0219804D01*
X0109804Y0219804D01*
X0110571Y0219037D01*
X0082300Y0217304D02*
X0082300Y0215769D01*
X0081533Y0215002D01*
X0079998Y0215002D02*
X0079231Y0216537D01*
X0079231Y0217304D01*
X0079998Y0218071D01*
X0081533Y0218071D01*
X0082300Y0217304D01*
X0079998Y0215002D02*
X0077696Y0215002D01*
X0077696Y0218071D01*
X0077696Y0211933D02*
X0082300Y0211933D01*
X0082300Y0213467D02*
X0082300Y0210398D01*
X0082300Y0208863D02*
X0080765Y0207329D01*
X0080765Y0208096D02*
X0080765Y0205794D01*
X0082300Y0205794D02*
X0077696Y0205794D01*
X0077696Y0208096D01*
X0078463Y0208863D01*
X0079998Y0208863D01*
X0080765Y0208096D01*
X0079231Y0210398D02*
X0077696Y0211933D01*
X0060571Y0209037D02*
X0059804Y0209804D01*
X0058269Y0209804D01*
X0057502Y0209037D01*
X0060571Y0209037D02*
X0060571Y0208269D01*
X0057502Y0205200D01*
X0060571Y0205200D01*
X0055967Y0205200D02*
X0052898Y0205200D01*
X0051363Y0205200D02*
X0049829Y0206735D01*
X0050596Y0206735D02*
X0048294Y0206735D01*
X0048294Y0205200D02*
X0048294Y0209804D01*
X0050596Y0209804D01*
X0051363Y0209037D01*
X0051363Y0207502D01*
X0050596Y0206735D01*
X0052898Y0208269D02*
X0054433Y0209804D01*
X0054433Y0205200D01*
X0054433Y0199804D02*
X0054433Y0195200D01*
X0055967Y0195200D02*
X0052898Y0195200D01*
X0051363Y0195200D02*
X0049829Y0196735D01*
X0050596Y0196735D02*
X0048294Y0196735D01*
X0048294Y0195200D02*
X0048294Y0199804D01*
X0050596Y0199804D01*
X0051363Y0199037D01*
X0051363Y0197502D01*
X0050596Y0196735D01*
X0052898Y0198269D02*
X0054433Y0199804D01*
X0057502Y0199037D02*
X0058269Y0199804D01*
X0059804Y0199804D01*
X0060571Y0199037D01*
X0060571Y0198269D01*
X0059804Y0197502D01*
X0060571Y0196735D01*
X0060571Y0195967D01*
X0059804Y0195200D01*
X0058269Y0195200D01*
X0057502Y0195967D01*
X0059037Y0197502D02*
X0059804Y0197502D01*
X0058269Y0164804D02*
X0055200Y0164804D01*
X0053665Y0164037D02*
X0053665Y0162502D01*
X0052898Y0161735D01*
X0050596Y0161735D01*
X0052131Y0161735D02*
X0053665Y0160200D01*
X0055200Y0160200D02*
X0055200Y0160967D01*
X0058269Y0164037D01*
X0058269Y0164804D01*
X0053665Y0164037D02*
X0052898Y0164804D01*
X0050596Y0164804D01*
X0050596Y0160200D01*
X0031050Y0170794D02*
X0026446Y0170794D01*
X0026446Y0173096D01*
X0027213Y0173863D01*
X0028748Y0173863D01*
X0029515Y0173096D01*
X0029515Y0170794D01*
X0029515Y0172329D02*
X0031050Y0173863D01*
X0031050Y0175398D02*
X0031050Y0178467D01*
X0031050Y0176933D02*
X0026446Y0176933D01*
X0027981Y0175398D01*
X0028748Y0180002D02*
X0026446Y0182304D01*
X0031050Y0182304D01*
X0028748Y0183071D02*
X0028748Y0180002D01*
X0065794Y0127304D02*
X0068096Y0127304D01*
X0068863Y0126537D01*
X0068863Y0125002D01*
X0068096Y0124235D01*
X0065794Y0124235D01*
X0067329Y0124235D02*
X0068863Y0122700D01*
X0070398Y0122700D02*
X0073467Y0122700D01*
X0071933Y0122700D02*
X0071933Y0127304D01*
X0070398Y0125769D01*
X0075002Y0125002D02*
X0077304Y0125002D01*
X0078071Y0124235D01*
X0078071Y0123467D01*
X0077304Y0122700D01*
X0075769Y0122700D01*
X0075002Y0123467D01*
X0075002Y0125002D01*
X0076537Y0126537D01*
X0078071Y0127304D01*
X0065794Y0127304D02*
X0065794Y0122700D01*
X0049033Y0103269D02*
X0048265Y0103269D01*
X0047498Y0102502D01*
X0047498Y0100200D01*
X0049033Y0100200D01*
X0049800Y0100967D01*
X0049800Y0102502D01*
X0049033Y0103269D01*
X0045963Y0101735D02*
X0047498Y0100200D01*
X0047498Y0098665D02*
X0048265Y0097898D01*
X0048265Y0095596D01*
X0048265Y0097131D02*
X0049800Y0098665D01*
X0047498Y0098665D02*
X0045963Y0098665D01*
X0045196Y0097898D01*
X0045196Y0095596D01*
X0049800Y0095596D01*
X0045963Y0101735D02*
X0045196Y0103269D01*
X0039800Y0102502D02*
X0039800Y0100967D01*
X0039033Y0100200D01*
X0037498Y0100200D02*
X0036731Y0101735D01*
X0036731Y0102502D01*
X0037498Y0103269D01*
X0039033Y0103269D01*
X0039800Y0102502D01*
X0037498Y0100200D02*
X0035196Y0100200D01*
X0035196Y0103269D01*
X0035963Y0098665D02*
X0035196Y0097898D01*
X0035196Y0095596D01*
X0039800Y0095596D01*
X0038265Y0095596D02*
X0038265Y0097898D01*
X0037498Y0098665D01*
X0035963Y0098665D01*
X0038265Y0097131D02*
X0039800Y0098665D01*
X0029800Y0098665D02*
X0028265Y0097131D01*
X0028265Y0097898D02*
X0028265Y0095596D01*
X0029800Y0095596D02*
X0025196Y0095596D01*
X0025196Y0097898D01*
X0025963Y0098665D01*
X0027498Y0098665D01*
X0028265Y0097898D01*
X0027498Y0100200D02*
X0027498Y0103269D01*
X0025196Y0102502D02*
X0027498Y0100200D01*
X0029800Y0102502D02*
X0025196Y0102502D01*
X0153294Y0077304D02*
X0153294Y0072700D01*
X0153294Y0074235D02*
X0155596Y0074235D01*
X0156363Y0075002D01*
X0156363Y0076537D01*
X0155596Y0077304D01*
X0153294Y0077304D01*
X0154829Y0074235D02*
X0156363Y0072700D01*
X0157898Y0072700D02*
X0160967Y0072700D01*
X0159433Y0072700D02*
X0159433Y0077304D01*
X0157898Y0075769D01*
X0162502Y0075769D02*
X0163269Y0075002D01*
X0165571Y0075002D01*
X0165571Y0073467D02*
X0165571Y0076537D01*
X0164804Y0077304D01*
X0163269Y0077304D01*
X0162502Y0076537D01*
X0162502Y0075769D01*
X0162502Y0073467D02*
X0163269Y0072700D01*
X0164804Y0072700D01*
X0165571Y0073467D01*
X0180794Y0207700D02*
X0180794Y0212304D01*
X0183096Y0212304D01*
X0183863Y0211537D01*
X0183863Y0210002D01*
X0183096Y0209235D01*
X0180794Y0209235D01*
X0182329Y0209235D02*
X0183863Y0207700D01*
X0185398Y0207700D02*
X0188467Y0210769D01*
X0188467Y0211537D01*
X0187700Y0212304D01*
X0186165Y0212304D01*
X0185398Y0211537D01*
X0185398Y0207700D02*
X0188467Y0207700D01*
X0190002Y0208467D02*
X0193071Y0211537D01*
X0193071Y0208467D01*
X0192304Y0207700D01*
X0190769Y0207700D01*
X0190002Y0208467D01*
X0190002Y0211537D01*
X0190769Y0212304D01*
X0192304Y0212304D01*
X0193071Y0211537D01*
D16*
X0186343Y0218150D02*
X0186960Y0218767D01*
X0186960Y0219384D01*
X0186343Y0220002D01*
X0184492Y0220002D01*
X0184492Y0218767D01*
X0185109Y0218150D01*
X0186343Y0218150D01*
X0184492Y0220002D02*
X0185726Y0221236D01*
X0186960Y0221853D01*
X0182043Y0221853D02*
X0182043Y0218150D01*
X0183277Y0218150D02*
X0180808Y0218150D01*
X0179594Y0218767D02*
X0178977Y0218150D01*
X0177742Y0218150D01*
X0177125Y0218767D01*
X0177125Y0221236D01*
X0177742Y0221853D01*
X0178977Y0221853D01*
X0179594Y0221236D01*
X0180808Y0220619D02*
X0182043Y0221853D01*
X0182043Y0240650D02*
X0182043Y0244353D01*
X0180808Y0243119D01*
X0179594Y0243736D02*
X0178977Y0244353D01*
X0177742Y0244353D01*
X0177125Y0243736D01*
X0177125Y0241267D01*
X0177742Y0240650D01*
X0178977Y0240650D01*
X0179594Y0241267D01*
X0180808Y0240650D02*
X0183277Y0240650D01*
X0184492Y0240650D02*
X0184492Y0241267D01*
X0186960Y0243736D01*
X0186960Y0244353D01*
X0184492Y0244353D01*
X0186897Y0181960D02*
X0187514Y0180726D01*
X0188748Y0179492D01*
X0188748Y0181343D01*
X0189366Y0181960D01*
X0189983Y0181960D01*
X0190600Y0181343D01*
X0190600Y0180109D01*
X0189983Y0179492D01*
X0188748Y0179492D01*
X0188131Y0178277D02*
X0187514Y0178277D01*
X0186897Y0177660D01*
X0186897Y0176426D01*
X0187514Y0175808D01*
X0187514Y0174594D02*
X0186897Y0173977D01*
X0186897Y0172742D01*
X0187514Y0172125D01*
X0189983Y0172125D01*
X0190600Y0172742D01*
X0190600Y0173977D01*
X0189983Y0174594D01*
X0190600Y0175808D02*
X0188131Y0178277D01*
X0190600Y0178277D02*
X0190600Y0175808D01*
X0161850Y0098843D02*
X0158147Y0098843D01*
X0159998Y0096992D01*
X0159998Y0099460D01*
X0159381Y0095777D02*
X0158764Y0095777D01*
X0158147Y0095160D01*
X0158147Y0093926D01*
X0158764Y0093308D01*
X0158764Y0092094D02*
X0158147Y0091477D01*
X0158147Y0090242D01*
X0158764Y0089625D01*
X0161233Y0089625D01*
X0161850Y0090242D01*
X0161850Y0091477D01*
X0161233Y0092094D01*
X0161850Y0093308D02*
X0159381Y0095777D01*
X0161850Y0095777D02*
X0161850Y0093308D01*
X0114460Y0180650D02*
X0111992Y0180650D01*
X0110777Y0180650D02*
X0108308Y0180650D01*
X0109543Y0180650D02*
X0109543Y0184353D01*
X0108308Y0183119D01*
X0107094Y0183736D02*
X0106477Y0184353D01*
X0105242Y0184353D01*
X0104625Y0183736D01*
X0104625Y0181267D01*
X0105242Y0180650D01*
X0106477Y0180650D01*
X0107094Y0181267D01*
X0111992Y0183119D02*
X0113226Y0184353D01*
X0113226Y0180650D01*
X0111992Y0195650D02*
X0114460Y0198119D01*
X0114460Y0198736D01*
X0113843Y0199353D01*
X0112609Y0199353D01*
X0111992Y0198736D01*
X0109543Y0199353D02*
X0109543Y0195650D01*
X0110777Y0195650D02*
X0108308Y0195650D01*
X0107094Y0196267D02*
X0106477Y0195650D01*
X0105242Y0195650D01*
X0104625Y0196267D01*
X0104625Y0198736D01*
X0105242Y0199353D01*
X0106477Y0199353D01*
X0107094Y0198736D01*
X0108308Y0198119D02*
X0109543Y0199353D01*
X0111992Y0195650D02*
X0114460Y0195650D01*
X0113843Y0225650D02*
X0112609Y0225650D01*
X0111992Y0226267D01*
X0110777Y0225650D02*
X0108308Y0225650D01*
X0109543Y0225650D02*
X0109543Y0229353D01*
X0108308Y0228119D01*
X0107094Y0228736D02*
X0106477Y0229353D01*
X0105242Y0229353D01*
X0104625Y0228736D01*
X0104625Y0226267D01*
X0105242Y0225650D01*
X0106477Y0225650D01*
X0107094Y0226267D01*
X0111992Y0228736D02*
X0112609Y0229353D01*
X0113843Y0229353D01*
X0114460Y0228736D01*
X0114460Y0228119D01*
X0113843Y0227502D01*
X0114460Y0226884D01*
X0114460Y0226267D01*
X0113843Y0225650D01*
X0113843Y0227502D02*
X0113226Y0227502D01*
X0113843Y0235650D02*
X0113843Y0239353D01*
X0111992Y0237502D01*
X0114460Y0237502D01*
X0110777Y0235650D02*
X0108308Y0235650D01*
X0109543Y0235650D02*
X0109543Y0239353D01*
X0108308Y0238119D01*
X0107094Y0238736D02*
X0106477Y0239353D01*
X0105242Y0239353D01*
X0104625Y0238736D01*
X0104625Y0236267D01*
X0105242Y0235650D01*
X0106477Y0235650D01*
X0107094Y0236267D01*
X0091850Y0235808D02*
X0089381Y0238277D01*
X0088764Y0238277D01*
X0088147Y0237660D01*
X0088147Y0236426D01*
X0088764Y0235808D01*
X0088764Y0234594D02*
X0088147Y0233977D01*
X0088147Y0232742D01*
X0088764Y0232125D01*
X0091233Y0232125D01*
X0091850Y0232742D01*
X0091850Y0233977D01*
X0091233Y0234594D01*
X0091850Y0235808D02*
X0091850Y0238277D01*
X0091850Y0239492D02*
X0089381Y0241960D01*
X0088764Y0241960D01*
X0088147Y0241343D01*
X0088147Y0240109D01*
X0088764Y0239492D01*
X0091850Y0239492D02*
X0091850Y0241960D01*
X0059460Y0218736D02*
X0059460Y0218119D01*
X0058843Y0217502D01*
X0057609Y0217502D01*
X0056992Y0218119D01*
X0056992Y0218736D01*
X0057609Y0219353D01*
X0058843Y0219353D01*
X0059460Y0218736D01*
X0058843Y0217502D02*
X0059460Y0216884D01*
X0059460Y0216267D01*
X0058843Y0215650D01*
X0057609Y0215650D01*
X0056992Y0216267D01*
X0056992Y0216884D01*
X0057609Y0217502D01*
X0055777Y0215650D02*
X0053308Y0215650D01*
X0054543Y0215650D02*
X0054543Y0219353D01*
X0053308Y0218119D01*
X0052094Y0218736D02*
X0051477Y0219353D01*
X0050242Y0219353D01*
X0049625Y0218736D01*
X0049625Y0216267D01*
X0050242Y0215650D01*
X0051477Y0215650D01*
X0052094Y0216267D01*
X0051477Y0186853D02*
X0050242Y0186853D01*
X0049625Y0186236D01*
X0049625Y0183767D01*
X0050242Y0183150D01*
X0051477Y0183150D01*
X0052094Y0183767D01*
X0053308Y0183150D02*
X0055777Y0185619D01*
X0055777Y0186236D01*
X0055160Y0186853D01*
X0053926Y0186853D01*
X0053308Y0186236D01*
X0052094Y0186236D02*
X0051477Y0186853D01*
X0053308Y0183150D02*
X0055777Y0183150D01*
X0056992Y0183767D02*
X0059460Y0186236D01*
X0059460Y0183767D01*
X0058843Y0183150D01*
X0057609Y0183150D01*
X0056992Y0183767D01*
X0056992Y0186236D01*
X0057609Y0186853D01*
X0058843Y0186853D01*
X0059460Y0186236D01*
X0058843Y0174353D02*
X0059460Y0173736D01*
X0056992Y0171267D01*
X0057609Y0170650D01*
X0058843Y0170650D01*
X0059460Y0171267D01*
X0059460Y0173736D01*
X0058843Y0174353D02*
X0057609Y0174353D01*
X0056992Y0173736D01*
X0056992Y0171267D01*
X0055777Y0170650D02*
X0053308Y0170650D01*
X0054543Y0170650D02*
X0054543Y0174353D01*
X0053308Y0173119D01*
X0052094Y0173736D02*
X0051477Y0174353D01*
X0050242Y0174353D01*
X0049625Y0173736D01*
X0049625Y0171267D01*
X0050242Y0170650D01*
X0051477Y0170650D01*
X0052094Y0171267D01*
X0029983Y0205875D02*
X0027514Y0205875D01*
X0026897Y0206492D01*
X0026897Y0207727D01*
X0027514Y0208344D01*
X0028131Y0209558D02*
X0026897Y0210793D01*
X0030600Y0210793D01*
X0030600Y0212027D02*
X0030600Y0209558D01*
X0029983Y0208344D02*
X0030600Y0207727D01*
X0030600Y0206492D01*
X0029983Y0205875D01*
X0029983Y0213242D02*
X0030600Y0213859D01*
X0030600Y0215093D01*
X0029983Y0215710D01*
X0027514Y0215710D01*
X0026897Y0215093D01*
X0026897Y0213859D01*
X0027514Y0213242D01*
X0028131Y0213242D01*
X0028748Y0213859D01*
X0028748Y0215710D01*
X0034584Y0126853D02*
X0033967Y0126236D01*
X0033967Y0123767D01*
X0034584Y0123150D01*
X0035818Y0123150D01*
X0036436Y0123767D01*
X0037650Y0123767D02*
X0037650Y0124384D01*
X0038267Y0125002D01*
X0039502Y0125002D01*
X0040119Y0124384D01*
X0040119Y0123767D01*
X0039502Y0123150D01*
X0038267Y0123150D01*
X0037650Y0123767D01*
X0038267Y0125002D02*
X0037650Y0125619D01*
X0037650Y0126236D01*
X0038267Y0126853D01*
X0039502Y0126853D01*
X0040119Y0126236D01*
X0040119Y0125619D01*
X0039502Y0125002D01*
X0036436Y0126236D02*
X0035818Y0126853D01*
X0034584Y0126853D01*
X0034584Y0076853D02*
X0033967Y0076236D01*
X0033967Y0073767D01*
X0034584Y0073150D01*
X0035818Y0073150D01*
X0036436Y0073767D01*
X0037650Y0073767D02*
X0037650Y0073150D01*
X0037650Y0073767D02*
X0040119Y0076236D01*
X0040119Y0076853D01*
X0037650Y0076853D01*
X0036436Y0076236D02*
X0035818Y0076853D01*
X0034584Y0076853D01*
X0095647Y0102084D02*
X0096264Y0101467D01*
X0098733Y0101467D01*
X0099350Y0102084D01*
X0099350Y0103318D01*
X0098733Y0103936D01*
X0099350Y0105150D02*
X0099350Y0107619D01*
X0099350Y0106384D02*
X0095647Y0106384D01*
X0096881Y0105150D01*
X0096264Y0103936D02*
X0095647Y0103318D01*
X0095647Y0102084D01*
D17*
X0186522Y0159143D02*
X0186946Y0158809D01*
X0186945Y0158809D02*
X0186793Y0158610D01*
X0186646Y0158408D01*
X0186504Y0158202D01*
X0186367Y0157992D01*
X0186236Y0157779D01*
X0186109Y0157563D01*
X0185988Y0157344D01*
X0185872Y0157122D01*
X0185762Y0156898D01*
X0185657Y0156670D01*
X0185557Y0156441D01*
X0185464Y0156209D01*
X0185376Y0155974D01*
X0185294Y0155738D01*
X0185218Y0155499D01*
X0185147Y0155259D01*
X0185083Y0155017D01*
X0185024Y0154774D01*
X0184971Y0154529D01*
X0184925Y0154283D01*
X0184884Y0154036D01*
X0184849Y0153788D01*
X0184821Y0153540D01*
X0184799Y0153290D01*
X0184782Y0153040D01*
X0184772Y0152790D01*
X0184768Y0152540D01*
X0184770Y0152290D01*
X0184778Y0152039D01*
X0184793Y0151790D01*
X0184813Y0151540D01*
X0184840Y0151291D01*
X0184872Y0151043D01*
X0184911Y0150796D01*
X0184956Y0150549D01*
X0185006Y0150304D01*
X0185063Y0150060D01*
X0185126Y0149818D01*
X0185194Y0149577D01*
X0185269Y0149338D01*
X0185349Y0149101D01*
X0185435Y0148866D01*
X0185527Y0148633D01*
X0185624Y0148403D01*
X0185727Y0148175D01*
X0185836Y0147949D01*
X0185950Y0147726D01*
X0186070Y0147506D01*
X0186195Y0147289D01*
X0186325Y0147075D01*
X0186460Y0146865D01*
X0186600Y0146658D01*
X0186746Y0146454D01*
X0186896Y0146254D01*
X0187052Y0146057D01*
X0187212Y0145865D01*
X0187376Y0145676D01*
X0187545Y0145492D01*
X0187719Y0145312D01*
X0187897Y0145136D01*
X0188080Y0144964D01*
X0188266Y0144797D01*
X0188457Y0144635D01*
X0188651Y0144477D01*
X0188849Y0144324D01*
X0189051Y0144176D01*
X0189256Y0144033D01*
X0189465Y0143895D01*
X0189678Y0143762D01*
X0189893Y0143635D01*
X0190111Y0143513D01*
X0190333Y0143396D01*
X0190557Y0143284D01*
X0190784Y0143178D01*
X0191013Y0143078D01*
X0191245Y0142983D01*
X0191479Y0142894D01*
X0191715Y0142811D01*
X0191953Y0142734D01*
X0191794Y0142218D01*
X0191543Y0142299D01*
X0191294Y0142387D01*
X0191048Y0142480D01*
X0190804Y0142580D01*
X0190562Y0142686D01*
X0190324Y0142797D01*
X0190088Y0142915D01*
X0189855Y0143038D01*
X0189624Y0143166D01*
X0189398Y0143301D01*
X0189174Y0143440D01*
X0188954Y0143586D01*
X0188738Y0143736D01*
X0188525Y0143892D01*
X0188317Y0144053D01*
X0188112Y0144219D01*
X0187911Y0144390D01*
X0187715Y0144566D01*
X0187523Y0144746D01*
X0187336Y0144932D01*
X0187153Y0145121D01*
X0186974Y0145316D01*
X0186801Y0145514D01*
X0186632Y0145717D01*
X0186469Y0145924D01*
X0186311Y0146134D01*
X0186157Y0146349D01*
X0186010Y0146567D01*
X0185867Y0146789D01*
X0185730Y0147014D01*
X0185599Y0147242D01*
X0185473Y0147474D01*
X0185353Y0147709D01*
X0185238Y0147946D01*
X0185130Y0148186D01*
X0185027Y0148429D01*
X0184930Y0148674D01*
X0184840Y0148922D01*
X0184755Y0149171D01*
X0184677Y0149423D01*
X0184605Y0149677D01*
X0184539Y0149932D01*
X0184479Y0150188D01*
X0184426Y0150447D01*
X0184378Y0150706D01*
X0184338Y0150966D01*
X0184303Y0151228D01*
X0184275Y0151490D01*
X0184254Y0151752D01*
X0184239Y0152016D01*
X0184230Y0152279D01*
X0184228Y0152543D01*
X0184232Y0152806D01*
X0184243Y0153069D01*
X0184260Y0153333D01*
X0184284Y0153595D01*
X0184314Y0153857D01*
X0184350Y0154118D01*
X0184393Y0154378D01*
X0184442Y0154637D01*
X0184498Y0154895D01*
X0184559Y0155151D01*
X0184627Y0155406D01*
X0184702Y0155658D01*
X0184782Y0155910D01*
X0184868Y0156159D01*
X0184961Y0156405D01*
X0185060Y0156650D01*
X0185164Y0156892D01*
X0185275Y0157131D01*
X0185391Y0157368D01*
X0185513Y0157601D01*
X0185640Y0157832D01*
X0185774Y0158059D01*
X0185913Y0158283D01*
X0186057Y0158504D01*
X0186206Y0158721D01*
X0186361Y0158934D01*
X0186521Y0159144D01*
X0186565Y0159109D01*
X0186406Y0158901D01*
X0186252Y0158688D01*
X0186103Y0158473D01*
X0185960Y0158253D01*
X0185822Y0158030D01*
X0185689Y0157804D01*
X0185562Y0157575D01*
X0185441Y0157342D01*
X0185325Y0157107D01*
X0185215Y0156869D01*
X0185111Y0156628D01*
X0185013Y0156385D01*
X0184921Y0156139D01*
X0184835Y0155892D01*
X0184755Y0155642D01*
X0184681Y0155390D01*
X0184614Y0155137D01*
X0184552Y0154882D01*
X0184497Y0154626D01*
X0184448Y0154368D01*
X0184406Y0154109D01*
X0184369Y0153850D01*
X0184340Y0153589D01*
X0184316Y0153328D01*
X0184299Y0153066D01*
X0184288Y0152804D01*
X0184284Y0152542D01*
X0184286Y0152280D01*
X0184295Y0152018D01*
X0184310Y0151756D01*
X0184331Y0151495D01*
X0184359Y0151234D01*
X0184393Y0150974D01*
X0184434Y0150715D01*
X0184481Y0150457D01*
X0184534Y0150200D01*
X0184593Y0149945D01*
X0184659Y0149691D01*
X0184731Y0149439D01*
X0184809Y0149189D01*
X0184893Y0148940D01*
X0184983Y0148694D01*
X0185079Y0148450D01*
X0185181Y0148209D01*
X0185289Y0147970D01*
X0185403Y0147733D01*
X0185522Y0147500D01*
X0185647Y0147270D01*
X0185778Y0147042D01*
X0185915Y0146818D01*
X0186056Y0146598D01*
X0186203Y0146381D01*
X0186356Y0146167D01*
X0186513Y0145958D01*
X0186676Y0145752D01*
X0186844Y0145551D01*
X0187016Y0145353D01*
X0187193Y0145160D01*
X0187375Y0144971D01*
X0187562Y0144787D01*
X0187753Y0144607D01*
X0187948Y0144432D01*
X0188148Y0144262D01*
X0188351Y0144097D01*
X0188559Y0143937D01*
X0188770Y0143782D01*
X0188986Y0143632D01*
X0189204Y0143488D01*
X0189427Y0143348D01*
X0189652Y0143215D01*
X0189881Y0143087D01*
X0190113Y0142964D01*
X0190348Y0142848D01*
X0190585Y0142737D01*
X0190826Y0142632D01*
X0191068Y0142533D01*
X0191313Y0142439D01*
X0191561Y0142352D01*
X0191810Y0142271D01*
X0191827Y0142325D01*
X0191579Y0142405D01*
X0191333Y0142492D01*
X0191089Y0142585D01*
X0190847Y0142683D01*
X0190608Y0142788D01*
X0190372Y0142898D01*
X0190138Y0143014D01*
X0189908Y0143136D01*
X0189680Y0143263D01*
X0189456Y0143396D01*
X0189235Y0143535D01*
X0189017Y0143678D01*
X0188803Y0143827D01*
X0188593Y0143982D01*
X0188386Y0144141D01*
X0188183Y0144305D01*
X0187985Y0144474D01*
X0187791Y0144648D01*
X0187601Y0144827D01*
X0187415Y0145011D01*
X0187234Y0145198D01*
X0187058Y0145390D01*
X0186886Y0145587D01*
X0186719Y0145787D01*
X0186558Y0145992D01*
X0186401Y0146201D01*
X0186249Y0146413D01*
X0186103Y0146629D01*
X0185962Y0146848D01*
X0185826Y0147071D01*
X0185696Y0147297D01*
X0185572Y0147526D01*
X0185453Y0147758D01*
X0185340Y0147993D01*
X0185232Y0148231D01*
X0185131Y0148471D01*
X0185035Y0148714D01*
X0184945Y0148959D01*
X0184862Y0149206D01*
X0184784Y0149455D01*
X0184713Y0149706D01*
X0184647Y0149958D01*
X0184588Y0150212D01*
X0184536Y0150468D01*
X0184489Y0150725D01*
X0184449Y0150982D01*
X0184415Y0151241D01*
X0184387Y0151500D01*
X0184366Y0151760D01*
X0184351Y0152021D01*
X0184342Y0152281D01*
X0184340Y0152542D01*
X0184344Y0152803D01*
X0184355Y0153063D01*
X0184372Y0153324D01*
X0184395Y0153584D01*
X0184425Y0153843D01*
X0184461Y0154101D01*
X0184503Y0154358D01*
X0184552Y0154615D01*
X0184607Y0154870D01*
X0184668Y0155123D01*
X0184735Y0155375D01*
X0184809Y0155625D01*
X0184888Y0155874D01*
X0184974Y0156120D01*
X0185065Y0156364D01*
X0185163Y0156606D01*
X0185266Y0156846D01*
X0185376Y0157083D01*
X0185491Y0157317D01*
X0185611Y0157548D01*
X0185738Y0157776D01*
X0185869Y0158001D01*
X0186007Y0158223D01*
X0186150Y0158441D01*
X0186298Y0158656D01*
X0186451Y0158867D01*
X0186609Y0159074D01*
X0186653Y0159040D01*
X0186496Y0158833D01*
X0186343Y0158624D01*
X0186196Y0158410D01*
X0186054Y0158193D01*
X0185917Y0157972D01*
X0185786Y0157748D01*
X0185661Y0157521D01*
X0185540Y0157291D01*
X0185426Y0157058D01*
X0185317Y0156823D01*
X0185214Y0156585D01*
X0185117Y0156344D01*
X0185026Y0156101D01*
X0184941Y0155856D01*
X0184862Y0155609D01*
X0184789Y0155360D01*
X0184722Y0155109D01*
X0184661Y0154857D01*
X0184607Y0154603D01*
X0184558Y0154349D01*
X0184516Y0154093D01*
X0184480Y0153836D01*
X0184451Y0153578D01*
X0184428Y0153319D01*
X0184411Y0153060D01*
X0184400Y0152801D01*
X0184396Y0152542D01*
X0184398Y0152282D01*
X0184407Y0152023D01*
X0184422Y0151764D01*
X0184443Y0151505D01*
X0184470Y0151247D01*
X0184504Y0150990D01*
X0184544Y0150734D01*
X0184590Y0150479D01*
X0184643Y0150224D01*
X0184702Y0149972D01*
X0184767Y0149721D01*
X0184838Y0149471D01*
X0184915Y0149223D01*
X0184998Y0148978D01*
X0185087Y0148734D01*
X0185183Y0148493D01*
X0185284Y0148254D01*
X0185390Y0148017D01*
X0185503Y0147783D01*
X0185621Y0147552D01*
X0185745Y0147324D01*
X0185875Y0147100D01*
X0186009Y0146878D01*
X0186150Y0146660D01*
X0186295Y0146445D01*
X0186446Y0146234D01*
X0186602Y0146026D01*
X0186763Y0145823D01*
X0186929Y0145623D01*
X0187099Y0145428D01*
X0187275Y0145237D01*
X0187455Y0145050D01*
X0187639Y0144868D01*
X0187828Y0144690D01*
X0188022Y0144517D01*
X0188219Y0144348D01*
X0188421Y0144185D01*
X0188626Y0144026D01*
X0188835Y0143873D01*
X0189048Y0143725D01*
X0189265Y0143582D01*
X0189485Y0143444D01*
X0189708Y0143312D01*
X0189934Y0143185D01*
X0190164Y0143064D01*
X0190396Y0142949D01*
X0190631Y0142839D01*
X0190869Y0142735D01*
X0191109Y0142637D01*
X0191352Y0142545D01*
X0191596Y0142458D01*
X0191843Y0142378D01*
X0191860Y0142432D01*
X0191614Y0142512D01*
X0191371Y0142597D01*
X0191130Y0142689D01*
X0190891Y0142787D01*
X0190654Y0142890D01*
X0190420Y0142999D01*
X0190189Y0143114D01*
X0189961Y0143235D01*
X0189736Y0143361D01*
X0189514Y0143492D01*
X0189295Y0143629D01*
X0189080Y0143771D01*
X0188868Y0143919D01*
X0188660Y0144071D01*
X0188455Y0144229D01*
X0188255Y0144391D01*
X0188058Y0144559D01*
X0187866Y0144731D01*
X0187678Y0144908D01*
X0187495Y0145089D01*
X0187316Y0145275D01*
X0187141Y0145465D01*
X0186971Y0145660D01*
X0186806Y0145858D01*
X0186646Y0146061D01*
X0186491Y0146267D01*
X0186341Y0146477D01*
X0186196Y0146691D01*
X0186057Y0146908D01*
X0185923Y0147128D01*
X0185794Y0147352D01*
X0185671Y0147579D01*
X0185553Y0147808D01*
X0185441Y0148041D01*
X0185335Y0148276D01*
X0185234Y0148514D01*
X0185140Y0148754D01*
X0185051Y0148996D01*
X0184968Y0149241D01*
X0184892Y0149487D01*
X0184821Y0149735D01*
X0184756Y0149985D01*
X0184698Y0150236D01*
X0184645Y0150489D01*
X0184599Y0150743D01*
X0184559Y0150998D01*
X0184526Y0151254D01*
X0184499Y0151511D01*
X0184477Y0151768D01*
X0184463Y0152025D01*
X0184454Y0152283D01*
X0184452Y0152542D01*
X0184456Y0152800D01*
X0184467Y0153057D01*
X0184484Y0153315D01*
X0184507Y0153572D01*
X0184536Y0153828D01*
X0184572Y0154084D01*
X0184614Y0154339D01*
X0184662Y0154592D01*
X0184716Y0154845D01*
X0184776Y0155095D01*
X0184843Y0155345D01*
X0184916Y0155592D01*
X0184994Y0155838D01*
X0185079Y0156082D01*
X0185170Y0156324D01*
X0185266Y0156563D01*
X0185368Y0156800D01*
X0185477Y0157034D01*
X0185590Y0157266D01*
X0185710Y0157495D01*
X0185835Y0157720D01*
X0185965Y0157943D01*
X0186101Y0158163D01*
X0186242Y0158379D01*
X0186389Y0158591D01*
X0186540Y0158800D01*
X0186697Y0159005D01*
X0186741Y0158970D01*
X0186585Y0158766D01*
X0186434Y0158559D01*
X0186289Y0158347D01*
X0186148Y0158132D01*
X0186013Y0157914D01*
X0185883Y0157693D01*
X0185759Y0157468D01*
X0185640Y0157241D01*
X0185527Y0157010D01*
X0185420Y0156777D01*
X0185318Y0156541D01*
X0185222Y0156303D01*
X0185132Y0156063D01*
X0185047Y0155820D01*
X0184969Y0155576D01*
X0184897Y0155330D01*
X0184831Y0155082D01*
X0184770Y0154832D01*
X0184716Y0154581D01*
X0184669Y0154329D01*
X0184627Y0154076D01*
X0184592Y0153821D01*
X0184562Y0153566D01*
X0184539Y0153311D01*
X0184523Y0153054D01*
X0184512Y0152798D01*
X0184508Y0152541D01*
X0184510Y0152285D01*
X0184519Y0152028D01*
X0184533Y0151772D01*
X0184554Y0151516D01*
X0184581Y0151261D01*
X0184615Y0151006D01*
X0184655Y0150752D01*
X0184700Y0150500D01*
X0184752Y0150248D01*
X0184811Y0149998D01*
X0184875Y0149750D01*
X0184945Y0149503D01*
X0185022Y0149258D01*
X0185104Y0149015D01*
X0185192Y0148774D01*
X0185286Y0148535D01*
X0185386Y0148298D01*
X0185492Y0148064D01*
X0185603Y0147833D01*
X0185720Y0147605D01*
X0185843Y0147379D01*
X0185971Y0147157D01*
X0186104Y0146937D01*
X0186243Y0146721D01*
X0186387Y0146509D01*
X0186536Y0146300D01*
X0186691Y0146095D01*
X0186850Y0145893D01*
X0187014Y0145696D01*
X0187183Y0145503D01*
X0187356Y0145314D01*
X0187534Y0145129D01*
X0187717Y0144948D01*
X0187904Y0144772D01*
X0188095Y0144601D01*
X0188291Y0144435D01*
X0188490Y0144273D01*
X0188693Y0144116D01*
X0188900Y0143964D01*
X0189111Y0143818D01*
X0189325Y0143676D01*
X0189543Y0143540D01*
X0189764Y0143409D01*
X0189988Y0143284D01*
X0190215Y0143164D01*
X0190445Y0143050D01*
X0190677Y0142941D01*
X0190912Y0142838D01*
X0191150Y0142741D01*
X0191390Y0142650D01*
X0191632Y0142565D01*
X0191876Y0142485D01*
X0191893Y0142539D01*
X0191650Y0142618D01*
X0191409Y0142703D01*
X0191170Y0142793D01*
X0190934Y0142890D01*
X0190700Y0142992D01*
X0190469Y0143100D01*
X0190240Y0143214D01*
X0190014Y0143333D01*
X0189792Y0143458D01*
X0189572Y0143588D01*
X0189355Y0143723D01*
X0189142Y0143864D01*
X0188933Y0144010D01*
X0188727Y0144161D01*
X0188525Y0144317D01*
X0188326Y0144478D01*
X0188132Y0144643D01*
X0187942Y0144814D01*
X0187756Y0144989D01*
X0187574Y0145168D01*
X0187397Y0145352D01*
X0187224Y0145540D01*
X0187056Y0145732D01*
X0186893Y0145929D01*
X0186735Y0146129D01*
X0186581Y0146333D01*
X0186433Y0146541D01*
X0186290Y0146752D01*
X0186152Y0146967D01*
X0186019Y0147185D01*
X0185892Y0147407D01*
X0185770Y0147631D01*
X0185653Y0147858D01*
X0185543Y0148088D01*
X0185437Y0148321D01*
X0185338Y0148556D01*
X0185244Y0148794D01*
X0185157Y0149033D01*
X0185075Y0149275D01*
X0184999Y0149519D01*
X0184929Y0149765D01*
X0184865Y0150012D01*
X0184807Y0150260D01*
X0184755Y0150511D01*
X0184710Y0150762D01*
X0184670Y0151014D01*
X0184637Y0151267D01*
X0184610Y0151521D01*
X0184589Y0151776D01*
X0184575Y0152030D01*
X0184566Y0152286D01*
X0184564Y0152541D01*
X0184568Y0152796D01*
X0184579Y0153051D01*
X0184595Y0153306D01*
X0184618Y0153560D01*
X0184647Y0153814D01*
X0184682Y0154067D01*
X0184724Y0154319D01*
X0184771Y0154570D01*
X0184825Y0154819D01*
X0184885Y0155068D01*
X0184951Y0155314D01*
X0185023Y0155559D01*
X0185100Y0155803D01*
X0185184Y0156044D01*
X0185274Y0156283D01*
X0185369Y0156520D01*
X0185471Y0156754D01*
X0185578Y0156986D01*
X0185690Y0157215D01*
X0185808Y0157441D01*
X0185932Y0157665D01*
X0186061Y0157885D01*
X0186196Y0158102D01*
X0186335Y0158316D01*
X0186480Y0158526D01*
X0186630Y0158733D01*
X0186785Y0158936D01*
X0186829Y0158901D01*
X0186675Y0158699D01*
X0186526Y0158494D01*
X0186382Y0158285D01*
X0186243Y0158072D01*
X0186109Y0157856D01*
X0185981Y0157637D01*
X0185858Y0157415D01*
X0185740Y0157190D01*
X0185628Y0156962D01*
X0185522Y0156731D01*
X0185421Y0156498D01*
X0185326Y0156262D01*
X0185237Y0156025D01*
X0185154Y0155785D01*
X0185076Y0155543D01*
X0185005Y0155299D01*
X0184939Y0155054D01*
X0184880Y0154807D01*
X0184826Y0154559D01*
X0184779Y0154309D01*
X0184738Y0154059D01*
X0184703Y0153807D01*
X0184674Y0153555D01*
X0184651Y0153302D01*
X0184634Y0153048D01*
X0184624Y0152795D01*
X0184620Y0152541D01*
X0184622Y0152287D01*
X0184631Y0152033D01*
X0184645Y0151779D01*
X0184666Y0151526D01*
X0184693Y0151274D01*
X0184726Y0151022D01*
X0184765Y0150771D01*
X0184810Y0150521D01*
X0184862Y0150272D01*
X0184919Y0150025D01*
X0184983Y0149779D01*
X0185053Y0149535D01*
X0185128Y0149293D01*
X0185210Y0149052D01*
X0185297Y0148814D01*
X0185390Y0148577D01*
X0185489Y0148343D01*
X0185593Y0148112D01*
X0185704Y0147883D01*
X0185819Y0147657D01*
X0185941Y0147434D01*
X0186067Y0147214D01*
X0186199Y0146997D01*
X0186337Y0146783D01*
X0186479Y0146573D01*
X0186627Y0146366D01*
X0186779Y0146163D01*
X0186937Y0145964D01*
X0187099Y0145769D01*
X0187266Y0145578D01*
X0187438Y0145390D01*
X0187614Y0145208D01*
X0187795Y0145029D01*
X0187980Y0144855D01*
X0188169Y0144686D01*
X0188362Y0144521D01*
X0188559Y0144361D01*
X0188760Y0144206D01*
X0188965Y0144056D01*
X0189174Y0143910D01*
X0189386Y0143771D01*
X0189601Y0143636D01*
X0189819Y0143506D01*
X0190041Y0143382D01*
X0190266Y0143264D01*
X0190493Y0143151D01*
X0190723Y0143043D01*
X0190956Y0142942D01*
X0191191Y0142846D01*
X0191428Y0142755D01*
X0191668Y0142671D01*
X0191909Y0142592D01*
X0191926Y0142646D01*
X0191686Y0142724D01*
X0191447Y0142808D01*
X0191211Y0142898D01*
X0190977Y0142993D01*
X0190746Y0143094D01*
X0190517Y0143201D01*
X0190291Y0143314D01*
X0190068Y0143432D01*
X0189847Y0143555D01*
X0189630Y0143684D01*
X0189416Y0143818D01*
X0189205Y0143957D01*
X0188998Y0144101D01*
X0188794Y0144251D01*
X0188594Y0144405D01*
X0188398Y0144564D01*
X0188206Y0144728D01*
X0188017Y0144896D01*
X0187833Y0145069D01*
X0187654Y0145247D01*
X0187479Y0145429D01*
X0187308Y0145615D01*
X0187142Y0145805D01*
X0186980Y0145999D01*
X0186823Y0146198D01*
X0186672Y0146399D01*
X0186525Y0146605D01*
X0186383Y0146814D01*
X0186247Y0147027D01*
X0186115Y0147242D01*
X0185989Y0147461D01*
X0185869Y0147683D01*
X0185754Y0147908D01*
X0185644Y0148136D01*
X0185540Y0148366D01*
X0185442Y0148598D01*
X0185349Y0148833D01*
X0185262Y0149071D01*
X0185181Y0149310D01*
X0185106Y0149551D01*
X0185037Y0149794D01*
X0184974Y0150038D01*
X0184917Y0150284D01*
X0184865Y0150532D01*
X0184820Y0150780D01*
X0184781Y0151030D01*
X0184748Y0151280D01*
X0184722Y0151531D01*
X0184701Y0151783D01*
X0184686Y0152035D01*
X0184678Y0152288D01*
X0184676Y0152540D01*
X0184680Y0152793D01*
X0184690Y0153045D01*
X0184707Y0153297D01*
X0184729Y0153549D01*
X0184758Y0153800D01*
X0184793Y0154050D01*
X0184834Y0154299D01*
X0184881Y0154547D01*
X0184934Y0154794D01*
X0184993Y0155040D01*
X0185059Y0155284D01*
X0185130Y0155526D01*
X0185207Y0155767D01*
X0185290Y0156006D01*
X0185378Y0156242D01*
X0185473Y0156476D01*
X0185573Y0156708D01*
X0185679Y0156938D01*
X0185790Y0157164D01*
X0185907Y0157388D01*
X0186029Y0157609D01*
X0186157Y0157827D01*
X0186290Y0158042D01*
X0186428Y0158253D01*
X0186571Y0158461D01*
X0186720Y0158666D01*
X0186873Y0158866D01*
X0186917Y0158832D01*
X0186765Y0158632D01*
X0186617Y0158429D01*
X0186474Y0158222D01*
X0186337Y0158012D01*
X0186205Y0157798D01*
X0186078Y0157581D01*
X0185956Y0157362D01*
X0185840Y0157139D01*
X0185729Y0156913D01*
X0185624Y0156685D01*
X0185524Y0156455D01*
X0185430Y0156222D01*
X0185342Y0155986D01*
X0185260Y0155749D01*
X0185183Y0155510D01*
X0185112Y0155269D01*
X0185048Y0155026D01*
X0184989Y0154782D01*
X0184936Y0154536D01*
X0184889Y0154289D01*
X0184848Y0154042D01*
X0184814Y0153793D01*
X0184785Y0153543D01*
X0184763Y0153293D01*
X0184746Y0153042D01*
X0184736Y0152791D01*
X0184732Y0152540D01*
X0184734Y0152289D01*
X0184742Y0152038D01*
X0184757Y0151787D01*
X0184777Y0151537D01*
X0184804Y0151287D01*
X0184837Y0151038D01*
X0184875Y0150790D01*
X0184920Y0150542D01*
X0184971Y0150297D01*
X0185028Y0150052D01*
X0185091Y0149809D01*
X0185160Y0149567D01*
X0185235Y0149327D01*
X0185315Y0149089D01*
X0185402Y0148853D01*
X0185494Y0148620D01*
X0185591Y0148388D01*
X0185695Y0148159D01*
X0185804Y0147933D01*
X0185918Y0147709D01*
X0186038Y0147489D01*
X0186164Y0147271D01*
X0186294Y0147056D01*
X0186430Y0146845D01*
X0186571Y0146637D01*
X0186717Y0146433D01*
X0186868Y0146232D01*
X0187024Y0146035D01*
X0187184Y0145842D01*
X0187349Y0145652D01*
X0187519Y0145467D01*
X0187694Y0145286D01*
X0187872Y0145110D01*
X0188055Y0144938D01*
X0188242Y0144770D01*
X0188434Y0144607D01*
X0188629Y0144449D01*
X0188828Y0144295D01*
X0189030Y0144147D01*
X0189236Y0144003D01*
X0189446Y0143865D01*
X0189659Y0143732D01*
X0189875Y0143604D01*
X0190094Y0143481D01*
X0190316Y0143364D01*
X0190541Y0143252D01*
X0190769Y0143146D01*
X0190999Y0143045D01*
X0191232Y0142950D01*
X0191466Y0142861D01*
X0191703Y0142777D01*
X0191942Y0142699D01*
X0198206Y0142218D02*
X0198047Y0142734D01*
X0198285Y0142811D01*
X0198521Y0142894D01*
X0198755Y0142983D01*
X0198987Y0143078D01*
X0199216Y0143178D01*
X0199443Y0143284D01*
X0199667Y0143396D01*
X0199889Y0143513D01*
X0200107Y0143635D01*
X0200322Y0143762D01*
X0200535Y0143895D01*
X0200744Y0144033D01*
X0200949Y0144176D01*
X0201151Y0144324D01*
X0201349Y0144477D01*
X0201543Y0144635D01*
X0201734Y0144797D01*
X0201920Y0144964D01*
X0202103Y0145136D01*
X0202281Y0145312D01*
X0202455Y0145492D01*
X0202624Y0145676D01*
X0202788Y0145865D01*
X0202948Y0146057D01*
X0203104Y0146254D01*
X0203254Y0146454D01*
X0203400Y0146658D01*
X0203540Y0146865D01*
X0203675Y0147075D01*
X0203805Y0147289D01*
X0203930Y0147506D01*
X0204050Y0147726D01*
X0204164Y0147949D01*
X0204273Y0148175D01*
X0204376Y0148403D01*
X0204473Y0148633D01*
X0204565Y0148866D01*
X0204651Y0149101D01*
X0204731Y0149338D01*
X0204806Y0149577D01*
X0204874Y0149818D01*
X0204937Y0150060D01*
X0204994Y0150304D01*
X0205044Y0150549D01*
X0205089Y0150796D01*
X0205128Y0151043D01*
X0205160Y0151291D01*
X0205187Y0151540D01*
X0205207Y0151790D01*
X0205222Y0152039D01*
X0205230Y0152290D01*
X0205232Y0152540D01*
X0205228Y0152790D01*
X0205218Y0153040D01*
X0205201Y0153290D01*
X0205179Y0153540D01*
X0205151Y0153788D01*
X0205116Y0154036D01*
X0205075Y0154283D01*
X0205029Y0154529D01*
X0204976Y0154774D01*
X0204917Y0155017D01*
X0204853Y0155259D01*
X0204782Y0155499D01*
X0204706Y0155738D01*
X0204624Y0155974D01*
X0204536Y0156209D01*
X0204443Y0156441D01*
X0204343Y0156670D01*
X0204238Y0156898D01*
X0204128Y0157122D01*
X0204012Y0157344D01*
X0203891Y0157563D01*
X0203764Y0157779D01*
X0203633Y0157992D01*
X0203496Y0158202D01*
X0203354Y0158408D01*
X0203207Y0158610D01*
X0203055Y0158809D01*
X0203478Y0159143D01*
X0203479Y0159144D01*
X0203639Y0158934D01*
X0203794Y0158721D01*
X0203943Y0158504D01*
X0204087Y0158283D01*
X0204226Y0158059D01*
X0204360Y0157832D01*
X0204487Y0157601D01*
X0204609Y0157368D01*
X0204725Y0157131D01*
X0204836Y0156892D01*
X0204940Y0156650D01*
X0205039Y0156405D01*
X0205132Y0156159D01*
X0205218Y0155910D01*
X0205298Y0155658D01*
X0205373Y0155406D01*
X0205441Y0155151D01*
X0205502Y0154895D01*
X0205558Y0154637D01*
X0205607Y0154378D01*
X0205650Y0154118D01*
X0205686Y0153857D01*
X0205716Y0153595D01*
X0205740Y0153333D01*
X0205757Y0153069D01*
X0205768Y0152806D01*
X0205772Y0152543D01*
X0205770Y0152279D01*
X0205761Y0152016D01*
X0205746Y0151752D01*
X0205725Y0151490D01*
X0205697Y0151228D01*
X0205662Y0150966D01*
X0205622Y0150706D01*
X0205574Y0150447D01*
X0205521Y0150188D01*
X0205461Y0149932D01*
X0205395Y0149677D01*
X0205323Y0149423D01*
X0205245Y0149171D01*
X0205160Y0148922D01*
X0205070Y0148674D01*
X0204973Y0148429D01*
X0204870Y0148186D01*
X0204762Y0147946D01*
X0204647Y0147709D01*
X0204527Y0147474D01*
X0204401Y0147242D01*
X0204270Y0147014D01*
X0204133Y0146789D01*
X0203990Y0146567D01*
X0203843Y0146349D01*
X0203689Y0146134D01*
X0203531Y0145924D01*
X0203368Y0145717D01*
X0203199Y0145514D01*
X0203026Y0145316D01*
X0202847Y0145121D01*
X0202664Y0144932D01*
X0202477Y0144746D01*
X0202285Y0144566D01*
X0202089Y0144390D01*
X0201888Y0144219D01*
X0201683Y0144053D01*
X0201475Y0143892D01*
X0201262Y0143736D01*
X0201046Y0143586D01*
X0200826Y0143440D01*
X0200602Y0143301D01*
X0200376Y0143166D01*
X0200145Y0143038D01*
X0199912Y0142915D01*
X0199676Y0142797D01*
X0199438Y0142686D01*
X0199196Y0142580D01*
X0198952Y0142480D01*
X0198706Y0142387D01*
X0198457Y0142299D01*
X0198206Y0142218D01*
X0198190Y0142271D01*
X0198439Y0142352D01*
X0198687Y0142439D01*
X0198932Y0142533D01*
X0199174Y0142632D01*
X0199415Y0142737D01*
X0199652Y0142848D01*
X0199887Y0142964D01*
X0200119Y0143087D01*
X0200348Y0143215D01*
X0200573Y0143348D01*
X0200796Y0143488D01*
X0201014Y0143632D01*
X0201230Y0143782D01*
X0201441Y0143937D01*
X0201649Y0144097D01*
X0201852Y0144262D01*
X0202052Y0144432D01*
X0202247Y0144607D01*
X0202438Y0144787D01*
X0202625Y0144971D01*
X0202807Y0145160D01*
X0202984Y0145353D01*
X0203156Y0145551D01*
X0203324Y0145752D01*
X0203487Y0145958D01*
X0203644Y0146167D01*
X0203797Y0146381D01*
X0203944Y0146598D01*
X0204085Y0146818D01*
X0204222Y0147042D01*
X0204353Y0147270D01*
X0204478Y0147500D01*
X0204597Y0147733D01*
X0204711Y0147970D01*
X0204819Y0148209D01*
X0204921Y0148450D01*
X0205017Y0148694D01*
X0205107Y0148940D01*
X0205191Y0149189D01*
X0205269Y0149439D01*
X0205341Y0149691D01*
X0205407Y0149945D01*
X0205466Y0150200D01*
X0205519Y0150457D01*
X0205566Y0150715D01*
X0205607Y0150974D01*
X0205641Y0151234D01*
X0205669Y0151495D01*
X0205690Y0151756D01*
X0205705Y0152018D01*
X0205714Y0152280D01*
X0205716Y0152542D01*
X0205712Y0152804D01*
X0205701Y0153066D01*
X0205684Y0153328D01*
X0205660Y0153589D01*
X0205631Y0153850D01*
X0205594Y0154109D01*
X0205552Y0154368D01*
X0205503Y0154626D01*
X0205448Y0154882D01*
X0205386Y0155137D01*
X0205319Y0155390D01*
X0205245Y0155642D01*
X0205165Y0155892D01*
X0205079Y0156139D01*
X0204987Y0156385D01*
X0204889Y0156628D01*
X0204785Y0156869D01*
X0204675Y0157107D01*
X0204559Y0157342D01*
X0204438Y0157575D01*
X0204311Y0157804D01*
X0204178Y0158030D01*
X0204040Y0158253D01*
X0203897Y0158473D01*
X0203748Y0158688D01*
X0203594Y0158901D01*
X0203435Y0159109D01*
X0203391Y0159074D01*
X0203549Y0158867D01*
X0203702Y0158656D01*
X0203850Y0158441D01*
X0203993Y0158223D01*
X0204131Y0158001D01*
X0204262Y0157776D01*
X0204389Y0157548D01*
X0204509Y0157317D01*
X0204624Y0157083D01*
X0204734Y0156846D01*
X0204837Y0156606D01*
X0204935Y0156364D01*
X0205026Y0156120D01*
X0205112Y0155874D01*
X0205191Y0155625D01*
X0205265Y0155375D01*
X0205332Y0155123D01*
X0205393Y0154870D01*
X0205448Y0154615D01*
X0205497Y0154358D01*
X0205539Y0154101D01*
X0205575Y0153843D01*
X0205605Y0153584D01*
X0205628Y0153324D01*
X0205645Y0153063D01*
X0205656Y0152803D01*
X0205660Y0152542D01*
X0205658Y0152281D01*
X0205649Y0152021D01*
X0205634Y0151760D01*
X0205613Y0151500D01*
X0205585Y0151241D01*
X0205551Y0150982D01*
X0205511Y0150725D01*
X0205464Y0150468D01*
X0205412Y0150212D01*
X0205353Y0149958D01*
X0205287Y0149706D01*
X0205216Y0149455D01*
X0205138Y0149206D01*
X0205055Y0148959D01*
X0204965Y0148714D01*
X0204869Y0148471D01*
X0204768Y0148231D01*
X0204660Y0147993D01*
X0204547Y0147758D01*
X0204428Y0147526D01*
X0204304Y0147297D01*
X0204174Y0147071D01*
X0204038Y0146848D01*
X0203897Y0146629D01*
X0203751Y0146413D01*
X0203599Y0146201D01*
X0203442Y0145992D01*
X0203281Y0145787D01*
X0203114Y0145587D01*
X0202942Y0145390D01*
X0202766Y0145198D01*
X0202585Y0145011D01*
X0202399Y0144827D01*
X0202209Y0144648D01*
X0202015Y0144474D01*
X0201817Y0144305D01*
X0201614Y0144141D01*
X0201407Y0143982D01*
X0201197Y0143827D01*
X0200983Y0143678D01*
X0200765Y0143535D01*
X0200544Y0143396D01*
X0200320Y0143263D01*
X0200092Y0143136D01*
X0199862Y0143014D01*
X0199628Y0142898D01*
X0199392Y0142788D01*
X0199153Y0142683D01*
X0198911Y0142585D01*
X0198667Y0142492D01*
X0198421Y0142405D01*
X0198173Y0142325D01*
X0198157Y0142378D01*
X0198404Y0142458D01*
X0198648Y0142545D01*
X0198891Y0142637D01*
X0199131Y0142735D01*
X0199369Y0142839D01*
X0199604Y0142949D01*
X0199836Y0143064D01*
X0200066Y0143185D01*
X0200292Y0143312D01*
X0200515Y0143444D01*
X0200735Y0143582D01*
X0200952Y0143725D01*
X0201165Y0143873D01*
X0201374Y0144026D01*
X0201579Y0144185D01*
X0201781Y0144348D01*
X0201978Y0144517D01*
X0202172Y0144690D01*
X0202361Y0144868D01*
X0202545Y0145050D01*
X0202725Y0145237D01*
X0202901Y0145428D01*
X0203071Y0145623D01*
X0203237Y0145823D01*
X0203398Y0146026D01*
X0203554Y0146234D01*
X0203705Y0146445D01*
X0203850Y0146660D01*
X0203991Y0146878D01*
X0204125Y0147100D01*
X0204255Y0147324D01*
X0204379Y0147552D01*
X0204497Y0147783D01*
X0204610Y0148017D01*
X0204716Y0148254D01*
X0204817Y0148493D01*
X0204913Y0148734D01*
X0205002Y0148978D01*
X0205085Y0149223D01*
X0205162Y0149471D01*
X0205233Y0149721D01*
X0205298Y0149972D01*
X0205357Y0150224D01*
X0205410Y0150479D01*
X0205456Y0150734D01*
X0205496Y0150990D01*
X0205530Y0151247D01*
X0205557Y0151505D01*
X0205578Y0151764D01*
X0205593Y0152023D01*
X0205602Y0152282D01*
X0205604Y0152542D01*
X0205600Y0152801D01*
X0205589Y0153060D01*
X0205572Y0153319D01*
X0205549Y0153578D01*
X0205520Y0153836D01*
X0205484Y0154093D01*
X0205442Y0154349D01*
X0205393Y0154603D01*
X0205339Y0154857D01*
X0205278Y0155109D01*
X0205211Y0155360D01*
X0205138Y0155609D01*
X0205059Y0155856D01*
X0204974Y0156101D01*
X0204883Y0156344D01*
X0204786Y0156585D01*
X0204683Y0156823D01*
X0204574Y0157058D01*
X0204460Y0157291D01*
X0204339Y0157521D01*
X0204214Y0157748D01*
X0204083Y0157972D01*
X0203946Y0158193D01*
X0203804Y0158410D01*
X0203657Y0158624D01*
X0203504Y0158833D01*
X0203347Y0159040D01*
X0203303Y0159005D01*
X0203460Y0158800D01*
X0203611Y0158591D01*
X0203758Y0158379D01*
X0203899Y0158163D01*
X0204035Y0157943D01*
X0204165Y0157720D01*
X0204290Y0157495D01*
X0204410Y0157266D01*
X0204523Y0157034D01*
X0204632Y0156800D01*
X0204734Y0156563D01*
X0204830Y0156324D01*
X0204921Y0156082D01*
X0205006Y0155838D01*
X0205084Y0155592D01*
X0205157Y0155345D01*
X0205224Y0155095D01*
X0205284Y0154845D01*
X0205338Y0154592D01*
X0205386Y0154339D01*
X0205428Y0154084D01*
X0205464Y0153828D01*
X0205493Y0153572D01*
X0205516Y0153315D01*
X0205533Y0153057D01*
X0205544Y0152800D01*
X0205548Y0152542D01*
X0205546Y0152283D01*
X0205537Y0152025D01*
X0205523Y0151768D01*
X0205501Y0151511D01*
X0205474Y0151254D01*
X0205441Y0150998D01*
X0205401Y0150743D01*
X0205355Y0150489D01*
X0205302Y0150236D01*
X0205244Y0149985D01*
X0205179Y0149735D01*
X0205108Y0149487D01*
X0205032Y0149241D01*
X0204949Y0148996D01*
X0204860Y0148754D01*
X0204766Y0148514D01*
X0204665Y0148276D01*
X0204559Y0148041D01*
X0204447Y0147808D01*
X0204329Y0147579D01*
X0204206Y0147352D01*
X0204077Y0147128D01*
X0203943Y0146908D01*
X0203804Y0146691D01*
X0203659Y0146477D01*
X0203509Y0146267D01*
X0203354Y0146061D01*
X0203194Y0145858D01*
X0203029Y0145660D01*
X0202859Y0145465D01*
X0202684Y0145275D01*
X0202505Y0145089D01*
X0202322Y0144908D01*
X0202134Y0144731D01*
X0201942Y0144559D01*
X0201745Y0144391D01*
X0201545Y0144229D01*
X0201340Y0144071D01*
X0201132Y0143919D01*
X0200920Y0143771D01*
X0200705Y0143629D01*
X0200486Y0143492D01*
X0200264Y0143361D01*
X0200039Y0143235D01*
X0199811Y0143114D01*
X0199580Y0142999D01*
X0199346Y0142890D01*
X0199109Y0142787D01*
X0198870Y0142689D01*
X0198629Y0142597D01*
X0198386Y0142512D01*
X0198140Y0142432D01*
X0198124Y0142485D01*
X0198368Y0142565D01*
X0198610Y0142650D01*
X0198850Y0142741D01*
X0199088Y0142838D01*
X0199323Y0142941D01*
X0199555Y0143050D01*
X0199785Y0143164D01*
X0200012Y0143284D01*
X0200236Y0143409D01*
X0200457Y0143540D01*
X0200675Y0143676D01*
X0200889Y0143818D01*
X0201100Y0143964D01*
X0201307Y0144116D01*
X0201510Y0144273D01*
X0201709Y0144435D01*
X0201905Y0144601D01*
X0202096Y0144772D01*
X0202283Y0144948D01*
X0202466Y0145129D01*
X0202644Y0145314D01*
X0202817Y0145503D01*
X0202986Y0145696D01*
X0203150Y0145893D01*
X0203309Y0146095D01*
X0203464Y0146300D01*
X0203613Y0146509D01*
X0203757Y0146721D01*
X0203896Y0146937D01*
X0204029Y0147157D01*
X0204157Y0147379D01*
X0204280Y0147605D01*
X0204397Y0147833D01*
X0204508Y0148064D01*
X0204614Y0148298D01*
X0204714Y0148535D01*
X0204808Y0148774D01*
X0204896Y0149015D01*
X0204978Y0149258D01*
X0205055Y0149503D01*
X0205125Y0149750D01*
X0205189Y0149998D01*
X0205248Y0150248D01*
X0205300Y0150500D01*
X0205345Y0150752D01*
X0205385Y0151006D01*
X0205419Y0151261D01*
X0205446Y0151516D01*
X0205467Y0151772D01*
X0205481Y0152028D01*
X0205490Y0152285D01*
X0205492Y0152541D01*
X0205488Y0152798D01*
X0205477Y0153054D01*
X0205461Y0153311D01*
X0205438Y0153566D01*
X0205408Y0153821D01*
X0205373Y0154076D01*
X0205331Y0154329D01*
X0205284Y0154581D01*
X0205230Y0154832D01*
X0205169Y0155082D01*
X0205103Y0155330D01*
X0205031Y0155576D01*
X0204953Y0155820D01*
X0204868Y0156063D01*
X0204778Y0156303D01*
X0204682Y0156541D01*
X0204580Y0156777D01*
X0204473Y0157010D01*
X0204360Y0157241D01*
X0204241Y0157468D01*
X0204117Y0157693D01*
X0203987Y0157914D01*
X0203852Y0158132D01*
X0203711Y0158347D01*
X0203566Y0158559D01*
X0203415Y0158766D01*
X0203259Y0158970D01*
X0203215Y0158936D01*
X0203370Y0158733D01*
X0203520Y0158526D01*
X0203665Y0158316D01*
X0203804Y0158102D01*
X0203939Y0157885D01*
X0204068Y0157665D01*
X0204192Y0157441D01*
X0204310Y0157215D01*
X0204422Y0156986D01*
X0204529Y0156754D01*
X0204631Y0156520D01*
X0204726Y0156283D01*
X0204816Y0156044D01*
X0204900Y0155803D01*
X0204977Y0155559D01*
X0205049Y0155314D01*
X0205115Y0155068D01*
X0205175Y0154819D01*
X0205229Y0154570D01*
X0205276Y0154319D01*
X0205318Y0154067D01*
X0205353Y0153814D01*
X0205382Y0153560D01*
X0205405Y0153306D01*
X0205421Y0153051D01*
X0205432Y0152796D01*
X0205436Y0152541D01*
X0205434Y0152286D01*
X0205425Y0152030D01*
X0205411Y0151776D01*
X0205390Y0151521D01*
X0205363Y0151267D01*
X0205330Y0151014D01*
X0205290Y0150762D01*
X0205245Y0150511D01*
X0205193Y0150260D01*
X0205135Y0150012D01*
X0205071Y0149765D01*
X0205001Y0149519D01*
X0204925Y0149275D01*
X0204843Y0149033D01*
X0204756Y0148794D01*
X0204662Y0148556D01*
X0204563Y0148321D01*
X0204457Y0148088D01*
X0204347Y0147858D01*
X0204230Y0147631D01*
X0204108Y0147407D01*
X0203981Y0147185D01*
X0203848Y0146967D01*
X0203710Y0146752D01*
X0203567Y0146541D01*
X0203419Y0146333D01*
X0203265Y0146129D01*
X0203107Y0145929D01*
X0202944Y0145732D01*
X0202776Y0145540D01*
X0202603Y0145352D01*
X0202426Y0145168D01*
X0202244Y0144989D01*
X0202058Y0144814D01*
X0201868Y0144643D01*
X0201674Y0144478D01*
X0201475Y0144317D01*
X0201273Y0144161D01*
X0201067Y0144010D01*
X0200858Y0143864D01*
X0200645Y0143723D01*
X0200428Y0143588D01*
X0200208Y0143458D01*
X0199986Y0143333D01*
X0199760Y0143214D01*
X0199531Y0143100D01*
X0199300Y0142992D01*
X0199066Y0142890D01*
X0198830Y0142793D01*
X0198591Y0142703D01*
X0198350Y0142618D01*
X0198107Y0142539D01*
X0198091Y0142592D01*
X0198332Y0142671D01*
X0198572Y0142755D01*
X0198809Y0142846D01*
X0199044Y0142942D01*
X0199277Y0143043D01*
X0199507Y0143151D01*
X0199734Y0143264D01*
X0199959Y0143382D01*
X0200181Y0143506D01*
X0200399Y0143636D01*
X0200614Y0143771D01*
X0200826Y0143910D01*
X0201035Y0144056D01*
X0201240Y0144206D01*
X0201441Y0144361D01*
X0201638Y0144521D01*
X0201831Y0144686D01*
X0202020Y0144855D01*
X0202205Y0145029D01*
X0202386Y0145208D01*
X0202562Y0145390D01*
X0202734Y0145578D01*
X0202901Y0145769D01*
X0203063Y0145964D01*
X0203221Y0146163D01*
X0203373Y0146366D01*
X0203521Y0146573D01*
X0203663Y0146783D01*
X0203801Y0146997D01*
X0203933Y0147214D01*
X0204059Y0147434D01*
X0204181Y0147657D01*
X0204296Y0147883D01*
X0204407Y0148112D01*
X0204511Y0148343D01*
X0204610Y0148577D01*
X0204703Y0148814D01*
X0204790Y0149052D01*
X0204872Y0149293D01*
X0204947Y0149535D01*
X0205017Y0149779D01*
X0205081Y0150025D01*
X0205138Y0150272D01*
X0205190Y0150521D01*
X0205235Y0150771D01*
X0205274Y0151022D01*
X0205307Y0151274D01*
X0205334Y0151526D01*
X0205355Y0151779D01*
X0205369Y0152033D01*
X0205378Y0152287D01*
X0205380Y0152541D01*
X0205376Y0152795D01*
X0205366Y0153048D01*
X0205349Y0153302D01*
X0205326Y0153555D01*
X0205297Y0153807D01*
X0205262Y0154059D01*
X0205221Y0154309D01*
X0205174Y0154559D01*
X0205120Y0154807D01*
X0205061Y0155054D01*
X0204995Y0155299D01*
X0204924Y0155543D01*
X0204846Y0155785D01*
X0204763Y0156025D01*
X0204674Y0156262D01*
X0204579Y0156498D01*
X0204478Y0156731D01*
X0204372Y0156962D01*
X0204260Y0157190D01*
X0204142Y0157415D01*
X0204019Y0157637D01*
X0203891Y0157856D01*
X0203757Y0158072D01*
X0203618Y0158285D01*
X0203474Y0158494D01*
X0203325Y0158699D01*
X0203171Y0158901D01*
X0203127Y0158866D01*
X0203280Y0158666D01*
X0203429Y0158461D01*
X0203572Y0158253D01*
X0203710Y0158042D01*
X0203843Y0157827D01*
X0203971Y0157609D01*
X0204093Y0157388D01*
X0204210Y0157164D01*
X0204321Y0156938D01*
X0204427Y0156708D01*
X0204527Y0156476D01*
X0204622Y0156242D01*
X0204710Y0156006D01*
X0204793Y0155767D01*
X0204870Y0155526D01*
X0204941Y0155284D01*
X0205007Y0155040D01*
X0205066Y0154794D01*
X0205119Y0154547D01*
X0205166Y0154299D01*
X0205207Y0154050D01*
X0205242Y0153800D01*
X0205271Y0153549D01*
X0205293Y0153297D01*
X0205310Y0153045D01*
X0205320Y0152793D01*
X0205324Y0152540D01*
X0205322Y0152288D01*
X0205314Y0152035D01*
X0205299Y0151783D01*
X0205278Y0151531D01*
X0205252Y0151280D01*
X0205219Y0151030D01*
X0205180Y0150780D01*
X0205135Y0150532D01*
X0205083Y0150284D01*
X0205026Y0150038D01*
X0204963Y0149794D01*
X0204894Y0149551D01*
X0204819Y0149310D01*
X0204738Y0149071D01*
X0204651Y0148833D01*
X0204558Y0148598D01*
X0204460Y0148366D01*
X0204356Y0148136D01*
X0204246Y0147908D01*
X0204131Y0147683D01*
X0204011Y0147461D01*
X0203885Y0147242D01*
X0203753Y0147027D01*
X0203617Y0146814D01*
X0203475Y0146605D01*
X0203328Y0146399D01*
X0203177Y0146198D01*
X0203020Y0145999D01*
X0202858Y0145805D01*
X0202692Y0145615D01*
X0202521Y0145429D01*
X0202346Y0145247D01*
X0202167Y0145069D01*
X0201983Y0144896D01*
X0201794Y0144728D01*
X0201602Y0144564D01*
X0201406Y0144405D01*
X0201206Y0144251D01*
X0201002Y0144101D01*
X0200795Y0143957D01*
X0200584Y0143818D01*
X0200370Y0143684D01*
X0200153Y0143555D01*
X0199932Y0143432D01*
X0199709Y0143314D01*
X0199483Y0143201D01*
X0199254Y0143094D01*
X0199023Y0142993D01*
X0198789Y0142898D01*
X0198553Y0142808D01*
X0198314Y0142724D01*
X0198074Y0142646D01*
X0198058Y0142699D01*
X0198297Y0142777D01*
X0198534Y0142861D01*
X0198768Y0142950D01*
X0199001Y0143045D01*
X0199231Y0143146D01*
X0199459Y0143252D01*
X0199684Y0143364D01*
X0199906Y0143481D01*
X0200125Y0143604D01*
X0200341Y0143732D01*
X0200554Y0143865D01*
X0200764Y0144003D01*
X0200970Y0144147D01*
X0201172Y0144295D01*
X0201371Y0144449D01*
X0201566Y0144607D01*
X0201758Y0144770D01*
X0201945Y0144938D01*
X0202128Y0145110D01*
X0202306Y0145286D01*
X0202481Y0145467D01*
X0202651Y0145652D01*
X0202816Y0145842D01*
X0202976Y0146035D01*
X0203132Y0146232D01*
X0203283Y0146433D01*
X0203429Y0146637D01*
X0203570Y0146845D01*
X0203706Y0147056D01*
X0203836Y0147271D01*
X0203962Y0147489D01*
X0204082Y0147709D01*
X0204196Y0147933D01*
X0204305Y0148159D01*
X0204409Y0148388D01*
X0204506Y0148620D01*
X0204598Y0148853D01*
X0204685Y0149089D01*
X0204765Y0149327D01*
X0204840Y0149567D01*
X0204909Y0149809D01*
X0204972Y0150052D01*
X0205029Y0150297D01*
X0205080Y0150542D01*
X0205125Y0150790D01*
X0205163Y0151038D01*
X0205196Y0151287D01*
X0205223Y0151537D01*
X0205243Y0151787D01*
X0205258Y0152038D01*
X0205266Y0152289D01*
X0205268Y0152540D01*
X0205264Y0152791D01*
X0205254Y0153042D01*
X0205237Y0153293D01*
X0205215Y0153543D01*
X0205186Y0153793D01*
X0205152Y0154042D01*
X0205111Y0154289D01*
X0205064Y0154536D01*
X0205011Y0154782D01*
X0204952Y0155026D01*
X0204888Y0155269D01*
X0204817Y0155510D01*
X0204740Y0155749D01*
X0204658Y0155986D01*
X0204570Y0156222D01*
X0204476Y0156455D01*
X0204376Y0156685D01*
X0204271Y0156913D01*
X0204160Y0157139D01*
X0204044Y0157362D01*
X0203922Y0157581D01*
X0203795Y0157798D01*
X0203663Y0158012D01*
X0203526Y0158222D01*
X0203383Y0158429D01*
X0203235Y0158632D01*
X0203083Y0158832D01*
D18*
X0146650Y0197939D02*
X0146650Y0199040D01*
X0146650Y0198490D02*
X0143347Y0198490D01*
X0143347Y0199040D02*
X0143347Y0197939D01*
X0143898Y0200395D02*
X0143347Y0200945D01*
X0143347Y0202046D01*
X0143898Y0202596D01*
X0143898Y0204078D02*
X0143347Y0204628D01*
X0143347Y0205729D01*
X0143898Y0206280D01*
X0144448Y0206280D01*
X0146650Y0204078D01*
X0146650Y0206280D01*
X0146100Y0202596D02*
X0146650Y0202046D01*
X0146650Y0200945D01*
X0146100Y0200395D01*
X0143898Y0200395D01*
D19*
X0237283Y0035000D02*
X0005000Y0035000D01*
X0005000Y0323031D01*
X0026654Y0323031D01*
X0026654Y0350591D01*
X0215630Y0350591D01*
X0215630Y0323031D01*
X0237283Y0323031D01*
X0237283Y0035000D01*
M02*
