G75*
%MOIN*%
%OFA0B0*%
%FSLAX25Y25*%
%IPPOS*%
%LPD*%
%AMOC8*
5,1,8,0,0,1.08239X$1,22.5*
%
%ADD10C,0.00500*%
%ADD11C,0.00600*%
%ADD12C,0.00800*%
%ADD13C,0.00000*%
D10*
X0091250Y0157563D02*
X0095305Y0157563D01*
X0091250Y0157563D02*
X0091250Y0161901D01*
X0091250Y0165838D02*
X0091250Y0170176D01*
X0091250Y0174113D02*
X0091250Y0178450D01*
X0091250Y0182387D02*
X0091250Y0186725D01*
X0091250Y0190662D02*
X0091250Y0195000D01*
X0090528Y0212500D02*
X0086250Y0212500D01*
X0094465Y0212500D02*
X0098743Y0212500D01*
X0102680Y0212500D02*
X0106959Y0212500D01*
X0110896Y0212500D02*
X0115174Y0212500D01*
X0119111Y0212500D02*
X0123389Y0212500D01*
X0155243Y0220835D02*
X0155057Y0221558D01*
X0154857Y0222277D01*
X0154640Y0222992D01*
X0154409Y0223702D01*
X0154163Y0224407D01*
X0153901Y0225106D01*
X0151972Y0212500D02*
X0156250Y0212500D01*
X0148035Y0212500D02*
X0143757Y0212500D01*
X0139820Y0212500D02*
X0135541Y0212500D01*
X0131604Y0212500D02*
X0127326Y0212500D01*
X0147531Y0235615D02*
X0147032Y0236171D01*
X0146521Y0236715D01*
X0145999Y0237249D01*
X0145465Y0237771D01*
X0144921Y0238282D01*
X0144365Y0238781D01*
X0163750Y0237563D02*
X0167805Y0237563D01*
X0171742Y0237563D02*
X0175797Y0237563D01*
X0179734Y0237563D02*
X0183789Y0237563D01*
X0187726Y0237563D02*
X0191781Y0237563D01*
X0195719Y0237563D02*
X0199774Y0237563D01*
X0203711Y0237563D02*
X0207766Y0237563D01*
X0211703Y0237563D02*
X0215758Y0237563D01*
X0219695Y0237563D02*
X0223750Y0237563D01*
X0223750Y0241901D01*
X0223750Y0245838D02*
X0223750Y0250176D01*
X0223750Y0254113D02*
X0223750Y0258450D01*
X0223750Y0262387D02*
X0223750Y0266725D01*
X0223750Y0270662D02*
X0223750Y0275000D01*
X0224472Y0292500D02*
X0228750Y0292500D01*
X0220535Y0292500D02*
X0216257Y0292500D01*
X0212320Y0292500D02*
X0208041Y0292500D01*
X0204104Y0292500D02*
X0199826Y0292500D01*
X0195889Y0292500D02*
X0191611Y0292500D01*
X0159757Y0300835D02*
X0159943Y0301558D01*
X0160143Y0302277D01*
X0160360Y0302992D01*
X0160591Y0303702D01*
X0160837Y0304407D01*
X0161099Y0305106D01*
X0163028Y0292500D02*
X0158750Y0292500D01*
X0166965Y0292500D02*
X0171243Y0292500D01*
X0175180Y0292500D02*
X0179459Y0292500D01*
X0183396Y0292500D02*
X0187674Y0292500D01*
X0167469Y0315615D02*
X0167968Y0316171D01*
X0168479Y0316715D01*
X0169001Y0317249D01*
X0169535Y0317771D01*
X0170079Y0318282D01*
X0170635Y0318781D01*
X0193750Y0319285D02*
X0193750Y0315007D01*
X0193750Y0311070D02*
X0193750Y0306791D01*
X0193750Y0302854D02*
X0193750Y0298576D01*
X0193750Y0294639D02*
X0193750Y0290361D01*
X0185414Y0258507D02*
X0184691Y0258693D01*
X0183972Y0258894D01*
X0183258Y0259110D01*
X0182548Y0259341D01*
X0181843Y0259588D01*
X0181144Y0259849D01*
X0193750Y0261778D02*
X0193750Y0257500D01*
X0193750Y0265715D02*
X0193750Y0269993D01*
X0193750Y0273930D02*
X0193750Y0278209D01*
X0193750Y0282146D02*
X0193750Y0286424D01*
X0202086Y0258507D02*
X0202809Y0258693D01*
X0203528Y0258894D01*
X0204242Y0259110D01*
X0204952Y0259341D01*
X0205657Y0259588D01*
X0206356Y0259849D01*
X0165041Y0272481D02*
X0164620Y0273098D01*
X0164213Y0273723D01*
X0163819Y0274357D01*
X0163439Y0275000D01*
X0163073Y0275650D01*
X0162720Y0276309D01*
X0163750Y0275000D02*
X0163750Y0270662D01*
X0163750Y0266725D02*
X0163750Y0262387D01*
X0163750Y0258450D02*
X0163750Y0254113D01*
X0163750Y0250176D02*
X0163750Y0245838D01*
X0163750Y0241901D02*
X0163750Y0237563D01*
X0151250Y0195000D02*
X0151250Y0190662D01*
X0151250Y0186725D02*
X0151250Y0182387D01*
X0151250Y0178450D02*
X0151250Y0174113D01*
X0151250Y0170176D02*
X0151250Y0165838D01*
X0151250Y0161901D02*
X0151250Y0157563D01*
X0147195Y0157563D01*
X0143258Y0157563D02*
X0139203Y0157563D01*
X0135266Y0157563D02*
X0131211Y0157563D01*
X0127274Y0157563D02*
X0123219Y0157563D01*
X0119281Y0157563D02*
X0115226Y0157563D01*
X0111289Y0157563D02*
X0107234Y0157563D01*
X0103297Y0157563D02*
X0099242Y0157563D01*
X0121250Y0177500D02*
X0121250Y0181778D01*
X0121250Y0185715D02*
X0121250Y0189993D01*
X0121250Y0193930D02*
X0121250Y0198209D01*
X0121250Y0202146D02*
X0121250Y0206424D01*
X0121250Y0210361D02*
X0121250Y0214639D01*
X0129585Y0246493D02*
X0130308Y0246307D01*
X0131027Y0246107D01*
X0131742Y0245890D01*
X0132452Y0245659D01*
X0133157Y0245413D01*
X0133856Y0245151D01*
X0121250Y0243222D02*
X0121250Y0247500D01*
X0121250Y0239285D02*
X0121250Y0235007D01*
X0121250Y0231070D02*
X0121250Y0226791D01*
X0121250Y0222854D02*
X0121250Y0218576D01*
X0112915Y0246493D02*
X0112192Y0246307D01*
X0111473Y0246107D01*
X0110758Y0245890D01*
X0110048Y0245659D01*
X0109343Y0245413D01*
X0108644Y0245151D01*
X0098135Y0238781D02*
X0097579Y0238282D01*
X0097035Y0237771D01*
X0096501Y0237249D01*
X0095979Y0236715D01*
X0095468Y0236171D01*
X0094969Y0235615D01*
X0078750Y0237563D02*
X0074695Y0237563D01*
X0078750Y0237563D02*
X0078750Y0241901D01*
X0078750Y0245838D02*
X0078750Y0250176D01*
X0078750Y0254113D02*
X0078750Y0258450D01*
X0078750Y0262387D02*
X0078750Y0266725D01*
X0078750Y0270662D02*
X0078750Y0275000D01*
X0079472Y0292500D02*
X0083750Y0292500D01*
X0075535Y0292500D02*
X0071257Y0292500D01*
X0067320Y0292500D02*
X0063041Y0292500D01*
X0059104Y0292500D02*
X0054826Y0292500D01*
X0050889Y0292500D02*
X0046611Y0292500D01*
X0014757Y0300835D02*
X0014943Y0301558D01*
X0015143Y0302277D01*
X0015360Y0302992D01*
X0015591Y0303702D01*
X0015837Y0304407D01*
X0016099Y0305106D01*
X0018028Y0292500D02*
X0013750Y0292500D01*
X0021965Y0292500D02*
X0026243Y0292500D01*
X0030180Y0292500D02*
X0034459Y0292500D01*
X0038396Y0292500D02*
X0042674Y0292500D01*
X0022469Y0315615D02*
X0022968Y0316171D01*
X0023479Y0316715D01*
X0024001Y0317249D01*
X0024535Y0317771D01*
X0025079Y0318282D01*
X0025635Y0318781D01*
X0048750Y0319285D02*
X0048750Y0315007D01*
X0048750Y0311070D02*
X0048750Y0306791D01*
X0048750Y0302854D02*
X0048750Y0298576D01*
X0048750Y0294639D02*
X0048750Y0290361D01*
X0040414Y0258507D02*
X0039691Y0258693D01*
X0038972Y0258894D01*
X0038258Y0259110D01*
X0037548Y0259341D01*
X0036843Y0259588D01*
X0036144Y0259849D01*
X0048750Y0261778D02*
X0048750Y0257500D01*
X0048750Y0265715D02*
X0048750Y0269993D01*
X0048750Y0273930D02*
X0048750Y0278209D01*
X0048750Y0282146D02*
X0048750Y0286424D01*
X0057086Y0258507D02*
X0057809Y0258693D01*
X0058528Y0258894D01*
X0059242Y0259110D01*
X0059952Y0259341D01*
X0060657Y0259588D01*
X0061356Y0259849D01*
X0062766Y0237563D02*
X0058711Y0237563D01*
X0054774Y0237563D02*
X0050719Y0237563D01*
X0046781Y0237563D02*
X0042726Y0237563D01*
X0038789Y0237563D02*
X0034734Y0237563D01*
X0030797Y0237563D02*
X0026742Y0237563D01*
X0022805Y0237563D02*
X0018750Y0237563D01*
X0018750Y0241901D01*
X0018750Y0245838D02*
X0018750Y0250176D01*
X0018750Y0254113D02*
X0018750Y0258450D01*
X0018750Y0262387D02*
X0018750Y0266725D01*
X0018750Y0270662D02*
X0018750Y0275000D01*
X0044283Y0327214D02*
X0045025Y0327301D01*
X0045768Y0327373D01*
X0046512Y0327428D01*
X0047258Y0327468D01*
X0048004Y0327492D01*
X0048750Y0327500D01*
X0048750Y0323222D01*
X0057085Y0326493D02*
X0057808Y0326307D01*
X0058527Y0326107D01*
X0059242Y0325890D01*
X0059952Y0325659D01*
X0060657Y0325413D01*
X0061356Y0325151D01*
X0071865Y0318781D02*
X0072421Y0318282D01*
X0072965Y0317771D01*
X0073499Y0317249D01*
X0074021Y0316715D01*
X0074532Y0316171D01*
X0075031Y0315615D01*
X0081401Y0305106D02*
X0081663Y0304407D01*
X0081909Y0303702D01*
X0082140Y0302992D01*
X0082357Y0302277D01*
X0082557Y0301558D01*
X0082743Y0300835D01*
X0083464Y0296967D02*
X0083551Y0296225D01*
X0083623Y0295482D01*
X0083678Y0294738D01*
X0083718Y0293992D01*
X0083742Y0293246D01*
X0083750Y0292500D01*
X0116542Y0341150D02*
X0117810Y0341150D01*
X0116542Y0342418D01*
X0116542Y0342735D01*
X0116859Y0343052D01*
X0117493Y0343052D01*
X0117810Y0342735D01*
X0118752Y0343052D02*
X0119386Y0343052D01*
X0119069Y0343052D02*
X0119069Y0341467D01*
X0119386Y0341150D01*
X0119703Y0341150D01*
X0120020Y0341467D01*
X0070758Y0237563D02*
X0066703Y0237563D01*
X0020041Y0272481D02*
X0019620Y0273098D01*
X0019213Y0273723D01*
X0018819Y0274357D01*
X0018439Y0275000D01*
X0018073Y0275650D01*
X0017720Y0276309D01*
X0017720Y0308691D02*
X0018073Y0309349D01*
X0018439Y0310000D01*
X0018819Y0310642D01*
X0019213Y0311277D01*
X0019620Y0311902D01*
X0020041Y0312519D01*
X0036144Y0325151D02*
X0036843Y0325413D01*
X0037548Y0325659D01*
X0038258Y0325890D01*
X0038973Y0326107D01*
X0039692Y0326307D01*
X0040415Y0326493D01*
X0014036Y0296967D02*
X0013949Y0296225D01*
X0013877Y0295482D01*
X0013822Y0294738D01*
X0013782Y0293992D01*
X0013758Y0293246D01*
X0013750Y0292500D01*
X0028731Y0321209D02*
X0029348Y0321630D01*
X0029973Y0322037D01*
X0030608Y0322431D01*
X0031250Y0322811D01*
X0031901Y0323177D01*
X0032559Y0323530D01*
X0064941Y0323530D02*
X0065599Y0323177D01*
X0066250Y0322811D01*
X0066892Y0322431D01*
X0067527Y0322037D01*
X0068152Y0321630D01*
X0068769Y0321209D01*
X0053217Y0327214D02*
X0052475Y0327301D01*
X0051732Y0327373D01*
X0050988Y0327428D01*
X0050242Y0327468D01*
X0049496Y0327492D01*
X0048750Y0327500D01*
X0077459Y0312519D02*
X0077880Y0311902D01*
X0078287Y0311277D01*
X0078681Y0310642D01*
X0079061Y0310000D01*
X0079427Y0309349D01*
X0079780Y0308691D01*
X0013750Y0292500D02*
X0013758Y0291753D01*
X0013782Y0291007D01*
X0013822Y0290262D01*
X0013877Y0289517D01*
X0013949Y0288774D01*
X0014036Y0288033D01*
X0048750Y0257500D02*
X0049497Y0257508D01*
X0050243Y0257532D01*
X0050988Y0257572D01*
X0051733Y0257627D01*
X0052476Y0257699D01*
X0053217Y0257786D01*
X0025635Y0266219D02*
X0025079Y0266718D01*
X0024535Y0267229D01*
X0024001Y0267751D01*
X0023479Y0268285D01*
X0022968Y0268829D01*
X0022469Y0269385D01*
X0077459Y0272481D02*
X0077880Y0273098D01*
X0078287Y0273723D01*
X0078681Y0274357D01*
X0079061Y0275000D01*
X0079427Y0275650D01*
X0079780Y0276309D01*
X0048750Y0257500D02*
X0048003Y0257508D01*
X0047257Y0257532D01*
X0046512Y0257572D01*
X0045767Y0257627D01*
X0045024Y0257699D01*
X0044283Y0257786D01*
X0071865Y0266219D02*
X0072421Y0266718D01*
X0072965Y0267229D01*
X0073499Y0267751D01*
X0074021Y0268285D01*
X0074532Y0268829D01*
X0075031Y0269385D01*
X0045215Y0292500D02*
X0045217Y0292619D01*
X0045223Y0292737D01*
X0045233Y0292856D01*
X0045247Y0292974D01*
X0045265Y0293091D01*
X0045287Y0293208D01*
X0045312Y0293324D01*
X0045342Y0293439D01*
X0045375Y0293553D01*
X0045413Y0293666D01*
X0045454Y0293777D01*
X0045498Y0293887D01*
X0045547Y0293995D01*
X0045599Y0294102D01*
X0045655Y0294207D01*
X0045714Y0294310D01*
X0045776Y0294411D01*
X0045842Y0294510D01*
X0045911Y0294607D01*
X0045984Y0294701D01*
X0046059Y0294792D01*
X0046138Y0294882D01*
X0046219Y0294968D01*
X0046303Y0295052D01*
X0046391Y0295132D01*
X0046480Y0295210D01*
X0046573Y0295285D01*
X0046667Y0295356D01*
X0046765Y0295425D01*
X0046864Y0295490D01*
X0046965Y0295551D01*
X0047069Y0295610D01*
X0047174Y0295664D01*
X0047282Y0295716D01*
X0047390Y0295763D01*
X0047501Y0295807D01*
X0047613Y0295847D01*
X0047726Y0295883D01*
X0047840Y0295916D01*
X0047955Y0295944D01*
X0048071Y0295969D01*
X0048188Y0295990D01*
X0048306Y0296007D01*
X0048424Y0296020D01*
X0048542Y0296029D01*
X0048661Y0296034D01*
X0048780Y0296035D01*
X0048898Y0296032D01*
X0049017Y0296025D01*
X0049135Y0296014D01*
X0049253Y0295999D01*
X0049370Y0295980D01*
X0049487Y0295957D01*
X0049603Y0295931D01*
X0049717Y0295900D01*
X0049831Y0295866D01*
X0049944Y0295827D01*
X0050055Y0295785D01*
X0050164Y0295740D01*
X0050272Y0295690D01*
X0050379Y0295637D01*
X0050483Y0295581D01*
X0050586Y0295521D01*
X0050686Y0295458D01*
X0050784Y0295391D01*
X0050880Y0295321D01*
X0050974Y0295248D01*
X0051065Y0295172D01*
X0051153Y0295092D01*
X0051239Y0295010D01*
X0051322Y0294925D01*
X0051402Y0294837D01*
X0051479Y0294747D01*
X0051553Y0294654D01*
X0051624Y0294559D01*
X0051691Y0294461D01*
X0051756Y0294361D01*
X0051816Y0294259D01*
X0051874Y0294155D01*
X0051928Y0294049D01*
X0051978Y0293941D01*
X0052024Y0293832D01*
X0052067Y0293721D01*
X0052106Y0293609D01*
X0052142Y0293496D01*
X0052173Y0293381D01*
X0052201Y0293266D01*
X0052225Y0293150D01*
X0052245Y0293032D01*
X0052261Y0292915D01*
X0052273Y0292797D01*
X0052281Y0292678D01*
X0052285Y0292559D01*
X0052285Y0292441D01*
X0052281Y0292322D01*
X0052273Y0292203D01*
X0052261Y0292085D01*
X0052245Y0291968D01*
X0052225Y0291850D01*
X0052201Y0291734D01*
X0052173Y0291619D01*
X0052142Y0291504D01*
X0052106Y0291391D01*
X0052067Y0291279D01*
X0052024Y0291168D01*
X0051978Y0291059D01*
X0051928Y0290951D01*
X0051874Y0290845D01*
X0051816Y0290741D01*
X0051756Y0290639D01*
X0051691Y0290539D01*
X0051624Y0290441D01*
X0051553Y0290346D01*
X0051479Y0290253D01*
X0051402Y0290163D01*
X0051322Y0290075D01*
X0051239Y0289990D01*
X0051153Y0289908D01*
X0051065Y0289828D01*
X0050974Y0289752D01*
X0050880Y0289679D01*
X0050784Y0289609D01*
X0050686Y0289542D01*
X0050586Y0289479D01*
X0050483Y0289419D01*
X0050379Y0289363D01*
X0050272Y0289310D01*
X0050164Y0289260D01*
X0050055Y0289215D01*
X0049944Y0289173D01*
X0049831Y0289134D01*
X0049717Y0289100D01*
X0049603Y0289069D01*
X0049487Y0289043D01*
X0049370Y0289020D01*
X0049253Y0289001D01*
X0049135Y0288986D01*
X0049017Y0288975D01*
X0048898Y0288968D01*
X0048780Y0288965D01*
X0048661Y0288966D01*
X0048542Y0288971D01*
X0048424Y0288980D01*
X0048306Y0288993D01*
X0048188Y0289010D01*
X0048071Y0289031D01*
X0047955Y0289056D01*
X0047840Y0289084D01*
X0047726Y0289117D01*
X0047613Y0289153D01*
X0047501Y0289193D01*
X0047390Y0289237D01*
X0047282Y0289284D01*
X0047174Y0289336D01*
X0047069Y0289390D01*
X0046965Y0289449D01*
X0046864Y0289510D01*
X0046765Y0289575D01*
X0046667Y0289644D01*
X0046573Y0289715D01*
X0046480Y0289790D01*
X0046391Y0289868D01*
X0046303Y0289948D01*
X0046219Y0290032D01*
X0046138Y0290118D01*
X0046059Y0290208D01*
X0045984Y0290299D01*
X0045911Y0290393D01*
X0045842Y0290490D01*
X0045776Y0290589D01*
X0045714Y0290690D01*
X0045655Y0290793D01*
X0045599Y0290898D01*
X0045547Y0291005D01*
X0045498Y0291113D01*
X0045454Y0291223D01*
X0045413Y0291334D01*
X0045375Y0291447D01*
X0045342Y0291561D01*
X0045312Y0291676D01*
X0045287Y0291792D01*
X0045265Y0291909D01*
X0045247Y0292026D01*
X0045233Y0292144D01*
X0045223Y0292263D01*
X0045217Y0292381D01*
X0045215Y0292500D01*
X0014757Y0284164D02*
X0014943Y0283441D01*
X0015144Y0282722D01*
X0015360Y0282008D01*
X0015591Y0281298D01*
X0015838Y0280593D01*
X0016099Y0279894D01*
X0083464Y0288033D02*
X0083551Y0288774D01*
X0083623Y0289517D01*
X0083678Y0290262D01*
X0083718Y0291007D01*
X0083742Y0291753D01*
X0083750Y0292500D01*
X0082743Y0284164D02*
X0082557Y0283441D01*
X0082356Y0282722D01*
X0082140Y0282008D01*
X0081909Y0281298D01*
X0081662Y0280593D01*
X0081401Y0279894D01*
X0032559Y0261470D02*
X0031900Y0261823D01*
X0031250Y0262189D01*
X0030607Y0262569D01*
X0029973Y0262963D01*
X0029348Y0263370D01*
X0028731Y0263791D01*
X0064941Y0261470D02*
X0065600Y0261823D01*
X0066250Y0262189D01*
X0066893Y0262569D01*
X0067527Y0262963D01*
X0068152Y0263370D01*
X0068769Y0263791D01*
X0088599Y0225106D02*
X0088337Y0224407D01*
X0088091Y0223702D01*
X0087860Y0222992D01*
X0087643Y0222277D01*
X0087443Y0221558D01*
X0087257Y0220835D01*
X0116783Y0247214D02*
X0117525Y0247301D01*
X0118268Y0247373D01*
X0119012Y0247428D01*
X0119758Y0247468D01*
X0120504Y0247492D01*
X0121250Y0247500D01*
X0155964Y0216967D02*
X0156051Y0216225D01*
X0156123Y0215482D01*
X0156178Y0214738D01*
X0156218Y0213992D01*
X0156242Y0213246D01*
X0156250Y0212500D01*
X0152280Y0228691D02*
X0151927Y0229349D01*
X0151561Y0230000D01*
X0151181Y0230642D01*
X0150787Y0231277D01*
X0150380Y0231902D01*
X0149959Y0232519D01*
X0125717Y0247214D02*
X0124975Y0247301D01*
X0124232Y0247373D01*
X0123488Y0247428D01*
X0122742Y0247468D01*
X0121996Y0247492D01*
X0121250Y0247500D01*
X0137441Y0243530D02*
X0138099Y0243177D01*
X0138750Y0242811D01*
X0139392Y0242431D01*
X0140027Y0242037D01*
X0140652Y0241630D01*
X0141269Y0241209D01*
X0105059Y0243530D02*
X0104401Y0243177D01*
X0103750Y0242811D01*
X0103108Y0242431D01*
X0102473Y0242037D01*
X0101848Y0241630D01*
X0101231Y0241209D01*
X0086536Y0216967D02*
X0086449Y0216225D01*
X0086377Y0215482D01*
X0086322Y0214738D01*
X0086282Y0213992D01*
X0086258Y0213246D01*
X0086250Y0212500D01*
X0090220Y0228691D02*
X0090573Y0229349D01*
X0090939Y0230000D01*
X0091319Y0230642D01*
X0091713Y0231277D01*
X0092120Y0231902D01*
X0092541Y0232519D01*
X0087257Y0204164D02*
X0087443Y0203441D01*
X0087644Y0202722D01*
X0087860Y0202008D01*
X0088091Y0201298D01*
X0088338Y0200593D01*
X0088599Y0199894D01*
X0129586Y0178507D02*
X0130309Y0178693D01*
X0131028Y0178894D01*
X0131742Y0179110D01*
X0132452Y0179341D01*
X0133157Y0179588D01*
X0133856Y0179849D01*
X0112914Y0178507D02*
X0112191Y0178693D01*
X0111472Y0178894D01*
X0110758Y0179110D01*
X0110048Y0179341D01*
X0109343Y0179588D01*
X0108644Y0179849D01*
X0149959Y0192481D02*
X0150380Y0193098D01*
X0150787Y0193723D01*
X0151181Y0194357D01*
X0151561Y0195000D01*
X0151927Y0195650D01*
X0152280Y0196309D01*
X0092541Y0192481D02*
X0092120Y0193098D01*
X0091713Y0193723D01*
X0091319Y0194357D01*
X0090939Y0195000D01*
X0090573Y0195650D01*
X0090220Y0196309D01*
X0121250Y0177500D02*
X0121997Y0177508D01*
X0122743Y0177532D01*
X0123488Y0177572D01*
X0124233Y0177627D01*
X0124976Y0177699D01*
X0125717Y0177786D01*
X0098135Y0186219D02*
X0097579Y0186718D01*
X0097035Y0187229D01*
X0096501Y0187751D01*
X0095979Y0188285D01*
X0095468Y0188829D01*
X0094969Y0189385D01*
X0144365Y0186219D02*
X0144921Y0186718D01*
X0145465Y0187229D01*
X0145999Y0187751D01*
X0146521Y0188285D01*
X0147032Y0188829D01*
X0147531Y0189385D01*
X0121250Y0177500D02*
X0120503Y0177508D01*
X0119757Y0177532D01*
X0119012Y0177572D01*
X0118267Y0177627D01*
X0117524Y0177699D01*
X0116783Y0177786D01*
X0117715Y0212500D02*
X0117717Y0212619D01*
X0117723Y0212737D01*
X0117733Y0212856D01*
X0117747Y0212974D01*
X0117765Y0213091D01*
X0117787Y0213208D01*
X0117812Y0213324D01*
X0117842Y0213439D01*
X0117875Y0213553D01*
X0117913Y0213666D01*
X0117954Y0213777D01*
X0117998Y0213887D01*
X0118047Y0213995D01*
X0118099Y0214102D01*
X0118155Y0214207D01*
X0118214Y0214310D01*
X0118276Y0214411D01*
X0118342Y0214510D01*
X0118411Y0214607D01*
X0118484Y0214701D01*
X0118559Y0214792D01*
X0118638Y0214882D01*
X0118719Y0214968D01*
X0118803Y0215052D01*
X0118891Y0215132D01*
X0118980Y0215210D01*
X0119073Y0215285D01*
X0119167Y0215356D01*
X0119265Y0215425D01*
X0119364Y0215490D01*
X0119465Y0215551D01*
X0119569Y0215610D01*
X0119674Y0215664D01*
X0119782Y0215716D01*
X0119890Y0215763D01*
X0120001Y0215807D01*
X0120113Y0215847D01*
X0120226Y0215883D01*
X0120340Y0215916D01*
X0120455Y0215944D01*
X0120571Y0215969D01*
X0120688Y0215990D01*
X0120806Y0216007D01*
X0120924Y0216020D01*
X0121042Y0216029D01*
X0121161Y0216034D01*
X0121280Y0216035D01*
X0121398Y0216032D01*
X0121517Y0216025D01*
X0121635Y0216014D01*
X0121753Y0215999D01*
X0121870Y0215980D01*
X0121987Y0215957D01*
X0122103Y0215931D01*
X0122217Y0215900D01*
X0122331Y0215866D01*
X0122444Y0215827D01*
X0122555Y0215785D01*
X0122664Y0215740D01*
X0122772Y0215690D01*
X0122879Y0215637D01*
X0122983Y0215581D01*
X0123086Y0215521D01*
X0123186Y0215458D01*
X0123284Y0215391D01*
X0123380Y0215321D01*
X0123474Y0215248D01*
X0123565Y0215172D01*
X0123653Y0215092D01*
X0123739Y0215010D01*
X0123822Y0214925D01*
X0123902Y0214837D01*
X0123979Y0214747D01*
X0124053Y0214654D01*
X0124124Y0214559D01*
X0124191Y0214461D01*
X0124256Y0214361D01*
X0124316Y0214259D01*
X0124374Y0214155D01*
X0124428Y0214049D01*
X0124478Y0213941D01*
X0124524Y0213832D01*
X0124567Y0213721D01*
X0124606Y0213609D01*
X0124642Y0213496D01*
X0124673Y0213381D01*
X0124701Y0213266D01*
X0124725Y0213150D01*
X0124745Y0213032D01*
X0124761Y0212915D01*
X0124773Y0212797D01*
X0124781Y0212678D01*
X0124785Y0212559D01*
X0124785Y0212441D01*
X0124781Y0212322D01*
X0124773Y0212203D01*
X0124761Y0212085D01*
X0124745Y0211968D01*
X0124725Y0211850D01*
X0124701Y0211734D01*
X0124673Y0211619D01*
X0124642Y0211504D01*
X0124606Y0211391D01*
X0124567Y0211279D01*
X0124524Y0211168D01*
X0124478Y0211059D01*
X0124428Y0210951D01*
X0124374Y0210845D01*
X0124316Y0210741D01*
X0124256Y0210639D01*
X0124191Y0210539D01*
X0124124Y0210441D01*
X0124053Y0210346D01*
X0123979Y0210253D01*
X0123902Y0210163D01*
X0123822Y0210075D01*
X0123739Y0209990D01*
X0123653Y0209908D01*
X0123565Y0209828D01*
X0123474Y0209752D01*
X0123380Y0209679D01*
X0123284Y0209609D01*
X0123186Y0209542D01*
X0123086Y0209479D01*
X0122983Y0209419D01*
X0122879Y0209363D01*
X0122772Y0209310D01*
X0122664Y0209260D01*
X0122555Y0209215D01*
X0122444Y0209173D01*
X0122331Y0209134D01*
X0122217Y0209100D01*
X0122103Y0209069D01*
X0121987Y0209043D01*
X0121870Y0209020D01*
X0121753Y0209001D01*
X0121635Y0208986D01*
X0121517Y0208975D01*
X0121398Y0208968D01*
X0121280Y0208965D01*
X0121161Y0208966D01*
X0121042Y0208971D01*
X0120924Y0208980D01*
X0120806Y0208993D01*
X0120688Y0209010D01*
X0120571Y0209031D01*
X0120455Y0209056D01*
X0120340Y0209084D01*
X0120226Y0209117D01*
X0120113Y0209153D01*
X0120001Y0209193D01*
X0119890Y0209237D01*
X0119782Y0209284D01*
X0119674Y0209336D01*
X0119569Y0209390D01*
X0119465Y0209449D01*
X0119364Y0209510D01*
X0119265Y0209575D01*
X0119167Y0209644D01*
X0119073Y0209715D01*
X0118980Y0209790D01*
X0118891Y0209868D01*
X0118803Y0209948D01*
X0118719Y0210032D01*
X0118638Y0210118D01*
X0118559Y0210208D01*
X0118484Y0210299D01*
X0118411Y0210393D01*
X0118342Y0210490D01*
X0118276Y0210589D01*
X0118214Y0210690D01*
X0118155Y0210793D01*
X0118099Y0210898D01*
X0118047Y0211005D01*
X0117998Y0211113D01*
X0117954Y0211223D01*
X0117913Y0211334D01*
X0117875Y0211447D01*
X0117842Y0211561D01*
X0117812Y0211676D01*
X0117787Y0211792D01*
X0117765Y0211909D01*
X0117747Y0212026D01*
X0117733Y0212144D01*
X0117723Y0212263D01*
X0117717Y0212381D01*
X0117715Y0212500D01*
X0155964Y0208033D02*
X0156051Y0208774D01*
X0156123Y0209517D01*
X0156178Y0210262D01*
X0156218Y0211007D01*
X0156242Y0211753D01*
X0156250Y0212500D01*
X0086536Y0208033D02*
X0086449Y0208774D01*
X0086377Y0209517D01*
X0086322Y0210262D01*
X0086282Y0211007D01*
X0086258Y0211753D01*
X0086250Y0212500D01*
X0137441Y0181470D02*
X0138100Y0181823D01*
X0138750Y0182189D01*
X0139393Y0182569D01*
X0140027Y0182963D01*
X0140652Y0183370D01*
X0141269Y0183791D01*
X0105059Y0181470D02*
X0104400Y0181823D01*
X0103750Y0182189D01*
X0103107Y0182569D01*
X0102473Y0182963D01*
X0101848Y0183370D01*
X0101231Y0183791D01*
X0153901Y0199894D02*
X0154162Y0200593D01*
X0154409Y0201298D01*
X0154640Y0202008D01*
X0154856Y0202722D01*
X0155057Y0203441D01*
X0155243Y0204164D01*
X0193750Y0257500D02*
X0194497Y0257508D01*
X0195243Y0257532D01*
X0195988Y0257572D01*
X0196733Y0257627D01*
X0197476Y0257699D01*
X0198217Y0257786D01*
X0170635Y0266219D02*
X0170079Y0266718D01*
X0169535Y0267229D01*
X0169001Y0267751D01*
X0168479Y0268285D01*
X0167968Y0268829D01*
X0167469Y0269385D01*
X0162720Y0308691D02*
X0163073Y0309349D01*
X0163439Y0310000D01*
X0163819Y0310642D01*
X0164213Y0311277D01*
X0164620Y0311902D01*
X0165041Y0312519D01*
X0193750Y0323222D02*
X0193750Y0327500D01*
X0202085Y0326493D02*
X0202808Y0326307D01*
X0203527Y0326107D01*
X0204242Y0325890D01*
X0204952Y0325659D01*
X0205657Y0325413D01*
X0206356Y0325151D01*
X0216865Y0318781D02*
X0217421Y0318282D01*
X0217965Y0317771D01*
X0218499Y0317249D01*
X0219021Y0316715D01*
X0219532Y0316171D01*
X0220031Y0315615D01*
X0226401Y0305106D02*
X0226663Y0304407D01*
X0226909Y0303702D01*
X0227140Y0302992D01*
X0227357Y0302277D01*
X0227557Y0301558D01*
X0227743Y0300835D01*
X0228464Y0296967D02*
X0228551Y0296225D01*
X0228623Y0295482D01*
X0228678Y0294738D01*
X0228718Y0293992D01*
X0228742Y0293246D01*
X0228750Y0292500D01*
X0224780Y0308691D02*
X0224427Y0309349D01*
X0224061Y0310000D01*
X0223681Y0310642D01*
X0223287Y0311277D01*
X0222880Y0311902D01*
X0222459Y0312519D01*
X0198217Y0327214D02*
X0197475Y0327301D01*
X0196732Y0327373D01*
X0195988Y0327428D01*
X0195242Y0327468D01*
X0194496Y0327492D01*
X0193750Y0327500D01*
X0185415Y0326493D02*
X0184692Y0326307D01*
X0183973Y0326107D01*
X0183258Y0325890D01*
X0182548Y0325659D01*
X0181843Y0325413D01*
X0181144Y0325151D01*
X0189283Y0327214D02*
X0190025Y0327301D01*
X0190768Y0327373D01*
X0191512Y0327428D01*
X0192258Y0327468D01*
X0193004Y0327492D01*
X0193750Y0327500D01*
X0209941Y0323530D02*
X0210599Y0323177D01*
X0211250Y0322811D01*
X0211892Y0322431D01*
X0212527Y0322037D01*
X0213152Y0321630D01*
X0213769Y0321209D01*
X0177559Y0323530D02*
X0176901Y0323177D01*
X0176250Y0322811D01*
X0175608Y0322431D01*
X0174973Y0322037D01*
X0174348Y0321630D01*
X0173731Y0321209D01*
X0159036Y0296967D02*
X0158949Y0296225D01*
X0158877Y0295482D01*
X0158822Y0294738D01*
X0158782Y0293992D01*
X0158758Y0293246D01*
X0158750Y0292500D01*
X0222459Y0272481D02*
X0222880Y0273098D01*
X0223287Y0273723D01*
X0223681Y0274357D01*
X0224061Y0275000D01*
X0224427Y0275650D01*
X0224780Y0276309D01*
X0193750Y0257500D02*
X0193003Y0257508D01*
X0192257Y0257532D01*
X0191512Y0257572D01*
X0190767Y0257627D01*
X0190024Y0257699D01*
X0189283Y0257786D01*
X0216865Y0266219D02*
X0217421Y0266718D01*
X0217965Y0267229D01*
X0218499Y0267751D01*
X0219021Y0268285D01*
X0219532Y0268829D01*
X0220031Y0269385D01*
X0159036Y0288033D02*
X0158949Y0288774D01*
X0158877Y0289517D01*
X0158822Y0290262D01*
X0158782Y0291007D01*
X0158758Y0291753D01*
X0158750Y0292500D01*
X0159757Y0284164D02*
X0159943Y0283441D01*
X0160144Y0282722D01*
X0160360Y0282008D01*
X0160591Y0281298D01*
X0160838Y0280593D01*
X0161099Y0279894D01*
X0228464Y0288033D02*
X0228551Y0288774D01*
X0228623Y0289517D01*
X0228678Y0290262D01*
X0228718Y0291007D01*
X0228742Y0291753D01*
X0228750Y0292500D01*
X0227743Y0284164D02*
X0227557Y0283441D01*
X0227356Y0282722D01*
X0227140Y0282008D01*
X0226909Y0281298D01*
X0226662Y0280593D01*
X0226401Y0279894D01*
X0190215Y0292500D02*
X0190217Y0292619D01*
X0190223Y0292737D01*
X0190233Y0292856D01*
X0190247Y0292974D01*
X0190265Y0293091D01*
X0190287Y0293208D01*
X0190312Y0293324D01*
X0190342Y0293439D01*
X0190375Y0293553D01*
X0190413Y0293666D01*
X0190454Y0293777D01*
X0190498Y0293887D01*
X0190547Y0293995D01*
X0190599Y0294102D01*
X0190655Y0294207D01*
X0190714Y0294310D01*
X0190776Y0294411D01*
X0190842Y0294510D01*
X0190911Y0294607D01*
X0190984Y0294701D01*
X0191059Y0294792D01*
X0191138Y0294882D01*
X0191219Y0294968D01*
X0191303Y0295052D01*
X0191391Y0295132D01*
X0191480Y0295210D01*
X0191573Y0295285D01*
X0191667Y0295356D01*
X0191765Y0295425D01*
X0191864Y0295490D01*
X0191965Y0295551D01*
X0192069Y0295610D01*
X0192174Y0295664D01*
X0192282Y0295716D01*
X0192390Y0295763D01*
X0192501Y0295807D01*
X0192613Y0295847D01*
X0192726Y0295883D01*
X0192840Y0295916D01*
X0192955Y0295944D01*
X0193071Y0295969D01*
X0193188Y0295990D01*
X0193306Y0296007D01*
X0193424Y0296020D01*
X0193542Y0296029D01*
X0193661Y0296034D01*
X0193780Y0296035D01*
X0193898Y0296032D01*
X0194017Y0296025D01*
X0194135Y0296014D01*
X0194253Y0295999D01*
X0194370Y0295980D01*
X0194487Y0295957D01*
X0194603Y0295931D01*
X0194717Y0295900D01*
X0194831Y0295866D01*
X0194944Y0295827D01*
X0195055Y0295785D01*
X0195164Y0295740D01*
X0195272Y0295690D01*
X0195379Y0295637D01*
X0195483Y0295581D01*
X0195586Y0295521D01*
X0195686Y0295458D01*
X0195784Y0295391D01*
X0195880Y0295321D01*
X0195974Y0295248D01*
X0196065Y0295172D01*
X0196153Y0295092D01*
X0196239Y0295010D01*
X0196322Y0294925D01*
X0196402Y0294837D01*
X0196479Y0294747D01*
X0196553Y0294654D01*
X0196624Y0294559D01*
X0196691Y0294461D01*
X0196756Y0294361D01*
X0196816Y0294259D01*
X0196874Y0294155D01*
X0196928Y0294049D01*
X0196978Y0293941D01*
X0197024Y0293832D01*
X0197067Y0293721D01*
X0197106Y0293609D01*
X0197142Y0293496D01*
X0197173Y0293381D01*
X0197201Y0293266D01*
X0197225Y0293150D01*
X0197245Y0293032D01*
X0197261Y0292915D01*
X0197273Y0292797D01*
X0197281Y0292678D01*
X0197285Y0292559D01*
X0197285Y0292441D01*
X0197281Y0292322D01*
X0197273Y0292203D01*
X0197261Y0292085D01*
X0197245Y0291968D01*
X0197225Y0291850D01*
X0197201Y0291734D01*
X0197173Y0291619D01*
X0197142Y0291504D01*
X0197106Y0291391D01*
X0197067Y0291279D01*
X0197024Y0291168D01*
X0196978Y0291059D01*
X0196928Y0290951D01*
X0196874Y0290845D01*
X0196816Y0290741D01*
X0196756Y0290639D01*
X0196691Y0290539D01*
X0196624Y0290441D01*
X0196553Y0290346D01*
X0196479Y0290253D01*
X0196402Y0290163D01*
X0196322Y0290075D01*
X0196239Y0289990D01*
X0196153Y0289908D01*
X0196065Y0289828D01*
X0195974Y0289752D01*
X0195880Y0289679D01*
X0195784Y0289609D01*
X0195686Y0289542D01*
X0195586Y0289479D01*
X0195483Y0289419D01*
X0195379Y0289363D01*
X0195272Y0289310D01*
X0195164Y0289260D01*
X0195055Y0289215D01*
X0194944Y0289173D01*
X0194831Y0289134D01*
X0194717Y0289100D01*
X0194603Y0289069D01*
X0194487Y0289043D01*
X0194370Y0289020D01*
X0194253Y0289001D01*
X0194135Y0288986D01*
X0194017Y0288975D01*
X0193898Y0288968D01*
X0193780Y0288965D01*
X0193661Y0288966D01*
X0193542Y0288971D01*
X0193424Y0288980D01*
X0193306Y0288993D01*
X0193188Y0289010D01*
X0193071Y0289031D01*
X0192955Y0289056D01*
X0192840Y0289084D01*
X0192726Y0289117D01*
X0192613Y0289153D01*
X0192501Y0289193D01*
X0192390Y0289237D01*
X0192282Y0289284D01*
X0192174Y0289336D01*
X0192069Y0289390D01*
X0191965Y0289449D01*
X0191864Y0289510D01*
X0191765Y0289575D01*
X0191667Y0289644D01*
X0191573Y0289715D01*
X0191480Y0289790D01*
X0191391Y0289868D01*
X0191303Y0289948D01*
X0191219Y0290032D01*
X0191138Y0290118D01*
X0191059Y0290208D01*
X0190984Y0290299D01*
X0190911Y0290393D01*
X0190842Y0290490D01*
X0190776Y0290589D01*
X0190714Y0290690D01*
X0190655Y0290793D01*
X0190599Y0290898D01*
X0190547Y0291005D01*
X0190498Y0291113D01*
X0190454Y0291223D01*
X0190413Y0291334D01*
X0190375Y0291447D01*
X0190342Y0291561D01*
X0190312Y0291676D01*
X0190287Y0291792D01*
X0190265Y0291909D01*
X0190247Y0292026D01*
X0190233Y0292144D01*
X0190223Y0292263D01*
X0190217Y0292381D01*
X0190215Y0292500D01*
X0209941Y0261470D02*
X0210600Y0261823D01*
X0211250Y0262189D01*
X0211893Y0262569D01*
X0212527Y0262963D01*
X0213152Y0263370D01*
X0213769Y0263791D01*
X0177559Y0261470D02*
X0176900Y0261823D01*
X0176250Y0262189D01*
X0175607Y0262569D01*
X0174973Y0262963D01*
X0174348Y0263370D01*
X0173731Y0263791D01*
D11*
X0183608Y0247704D02*
X0183608Y0246970D01*
X0185076Y0245502D01*
X0185076Y0243300D01*
X0185076Y0245502D02*
X0186544Y0246970D01*
X0186544Y0247704D01*
X0188212Y0246236D02*
X0188212Y0243300D01*
X0188212Y0245502D02*
X0191148Y0245502D01*
X0191148Y0246236D02*
X0189680Y0247704D01*
X0188212Y0246236D01*
X0191148Y0246236D02*
X0191148Y0243300D01*
X0192816Y0243300D02*
X0195752Y0243300D01*
X0195752Y0247704D01*
X0197420Y0247704D02*
X0200356Y0247704D01*
X0200356Y0243300D01*
X0197420Y0243300D01*
X0198888Y0245502D02*
X0200356Y0245502D01*
X0202024Y0246970D02*
X0202758Y0247704D01*
X0204960Y0247704D01*
X0204960Y0243300D01*
X0202758Y0243300D01*
X0202024Y0244034D01*
X0202024Y0246970D01*
X0127089Y0167704D02*
X0127089Y0163300D01*
X0125621Y0166236D02*
X0124153Y0167704D01*
X0124153Y0163300D01*
X0122485Y0163300D02*
X0121017Y0163300D01*
X0121751Y0163300D02*
X0121751Y0167704D01*
X0122485Y0167704D02*
X0121017Y0167704D01*
X0119415Y0167704D02*
X0116480Y0163300D01*
X0119415Y0163300D02*
X0116480Y0167704D01*
X0125621Y0166236D02*
X0127089Y0167704D01*
X0057658Y0243300D02*
X0057658Y0247704D01*
X0054722Y0247704D01*
X0053054Y0247704D02*
X0050852Y0247704D01*
X0050118Y0246970D01*
X0050118Y0244034D01*
X0050852Y0243300D01*
X0053054Y0243300D01*
X0053054Y0247704D01*
X0056190Y0245502D02*
X0057658Y0245502D01*
X0048450Y0244768D02*
X0045514Y0247704D01*
X0043846Y0247704D02*
X0041644Y0247704D01*
X0040910Y0246970D01*
X0040910Y0246236D01*
X0041644Y0245502D01*
X0043846Y0245502D01*
X0043846Y0243300D02*
X0043846Y0247704D01*
X0041644Y0245502D02*
X0040910Y0244768D01*
X0040910Y0244034D01*
X0041644Y0243300D01*
X0043846Y0243300D01*
X0045514Y0243300D02*
X0047716Y0245502D01*
X0048450Y0247704D02*
X0048450Y0243300D01*
D12*
X0103533Y0296563D02*
X0111801Y0296563D01*
X0103533Y0296563D02*
X0103533Y0338689D01*
X0138967Y0338689D01*
X0138967Y0317823D01*
X0138950Y0318675D02*
X0138950Y0299300D01*
X0138967Y0299319D02*
X0138967Y0296563D01*
X0130699Y0296563D01*
D13*
X0237283Y0035000D02*
X0005000Y0035000D01*
X0005000Y0323031D01*
X0026654Y0323031D01*
X0026654Y0350591D01*
X0215630Y0350591D01*
X0215630Y0323031D01*
X0237283Y0323031D01*
X0237283Y0035000D01*
M02*
