G75*
%MOIN*%
%OFA0B0*%
%FSLAX25Y25*%
%IPPOS*%
%LPD*%
%AMOC8*
5,1,8,0,0,1.08239X$1,22.5*
%
%ADD10R,0.07087X0.07087*%
%ADD11C,0.07087*%
%ADD12C,0.05118*%
%ADD13R,0.04331X0.04331*%
%ADD14C,0.04331*%
%ADD15C,0.08268*%
%ADD16C,0.13843*%
%ADD17C,0.06299*%
%ADD18C,0.00000*%
%ADD19C,0.05512*%
%ADD20R,0.05512X0.05512*%
%ADD21C,0.05000*%
%ADD22C,0.04724*%
%ADD23R,0.04724X0.04724*%
%ADD24C,0.05906*%
%ADD25R,0.05906X0.05906*%
%ADD26R,0.12661X0.12661*%
%ADD27C,0.12661*%
D10*
X0068750Y0048913D03*
X0068750Y0169163D03*
X0213750Y0169163D03*
X0213750Y0048913D03*
D11*
X0193750Y0048913D03*
X0173750Y0048913D03*
X0173750Y0169163D03*
X0193750Y0169163D03*
X0048750Y0169163D03*
X0028750Y0169163D03*
X0028750Y0048913D03*
X0048750Y0048913D03*
D12*
X0028750Y0059100D03*
X0028750Y0079100D03*
X0036250Y0101600D03*
X0048750Y0101600D03*
X0048750Y0121600D03*
X0048750Y0134100D03*
X0036250Y0121600D03*
X0028750Y0134100D03*
X0028750Y0154100D03*
X0048750Y0154100D03*
X0048750Y0181600D03*
X0028750Y0181600D03*
X0078750Y0164100D03*
X0098750Y0164100D03*
X0138750Y0146600D03*
X0138750Y0126600D03*
X0213750Y0079100D03*
X0213750Y0059100D03*
D13*
X0124495Y0164170D03*
X0108820Y0106605D03*
X0088755Y0099530D03*
D14*
X0088752Y0091670D03*
X0071250Y0101600D03*
X0068750Y0111600D03*
X0058750Y0121600D03*
X0058750Y0134100D03*
X0038750Y0134100D03*
X0026250Y0121600D03*
X0026250Y0091600D03*
X0058750Y0091600D03*
X0071250Y0071600D03*
X0098750Y0111600D03*
X0108750Y0121600D03*
X0118750Y0121600D03*
X0128750Y0121600D03*
X0116680Y0106602D03*
X0118750Y0151600D03*
X0108750Y0151600D03*
X0108750Y0164100D03*
X0124498Y0172030D03*
X0128750Y0151600D03*
X0108750Y0194100D03*
X0088750Y0181600D03*
X0058750Y0181600D03*
X0058750Y0164100D03*
X0038750Y0164100D03*
D15*
X0034801Y0214350D03*
X0034801Y0239350D03*
X0034801Y0264350D03*
X0098699Y0264350D03*
X0098699Y0239350D03*
X0098699Y0214350D03*
X0143801Y0214350D03*
X0143801Y0239350D03*
X0143801Y0264350D03*
X0207699Y0264350D03*
X0207699Y0239350D03*
X0207699Y0214350D03*
D16*
X0121250Y0232188D03*
X0121250Y0255810D03*
D17*
X0116250Y0029100D03*
X0116250Y0019100D03*
X0106250Y0019100D03*
X0106250Y0029100D03*
X0126250Y0029100D03*
X0126250Y0019100D03*
X0136250Y0019100D03*
X0136250Y0029100D03*
D18*
X0237283Y0005600D02*
X0005000Y0005600D01*
X0005000Y0258631D01*
X0026654Y0258631D01*
X0026654Y0286191D01*
X0215630Y0286191D01*
X0215630Y0258631D01*
X0237283Y0258631D01*
X0237283Y0005600D01*
D19*
X0098750Y0174100D03*
D20*
X0098750Y0194100D03*
D21*
X0098750Y0151600D03*
X0098750Y0141600D03*
X0098750Y0131600D03*
X0098750Y0121600D03*
X0068750Y0121600D03*
X0068750Y0131600D03*
X0068750Y0141600D03*
X0068750Y0151600D03*
D22*
X0148750Y0109100D03*
X0148750Y0099100D03*
X0148750Y0089100D03*
X0148750Y0079100D03*
X0148750Y0069100D03*
X0148750Y0059100D03*
X0163750Y0059100D03*
X0173750Y0059100D03*
X0183750Y0079100D03*
D23*
X0173750Y0079100D03*
X0163750Y0079100D03*
X0183750Y0059100D03*
D24*
X0183750Y0089100D03*
X0166250Y0099100D03*
D25*
X0166250Y0089100D03*
X0183750Y0099100D03*
D26*
X0121250Y0087350D03*
D27*
X0121250Y0069100D03*
X0121250Y0050950D03*
M02*
