G75*
%MOIN*%
%OFA0B0*%
%FSLAX25Y25*%
%IPPOS*%
%LPD*%
%AMOC8*
5,1,8,0,0,1.08239X$1,22.5*
%
%ADD10C,0.00500*%
%ADD11C,0.00600*%
%ADD12C,0.00800*%
%ADD13C,0.00000*%
D10*
X0018750Y0055413D02*
X0022805Y0055413D01*
X0026742Y0055413D02*
X0030797Y0055413D01*
X0034734Y0055413D02*
X0038789Y0055413D01*
X0042726Y0055413D02*
X0046781Y0055413D01*
X0050719Y0055413D02*
X0054774Y0055413D01*
X0058711Y0055413D02*
X0062766Y0055413D01*
X0066703Y0055413D02*
X0070758Y0055413D01*
X0074695Y0055413D02*
X0078750Y0055413D01*
X0078750Y0059751D01*
X0078750Y0063688D02*
X0078750Y0068026D01*
X0078750Y0071963D02*
X0078750Y0076300D01*
X0078750Y0080237D02*
X0078750Y0084575D01*
X0078750Y0088512D02*
X0078750Y0092850D01*
X0079472Y0110350D02*
X0083750Y0110350D01*
X0075535Y0110350D02*
X0071257Y0110350D01*
X0067320Y0110350D02*
X0063041Y0110350D01*
X0059104Y0110350D02*
X0054826Y0110350D01*
X0050889Y0110350D02*
X0046611Y0110350D01*
X0014757Y0118685D02*
X0014943Y0119408D01*
X0015143Y0120127D01*
X0015360Y0120842D01*
X0015591Y0121552D01*
X0015837Y0122257D01*
X0016099Y0122956D01*
X0018028Y0110350D02*
X0013750Y0110350D01*
X0021965Y0110350D02*
X0026243Y0110350D01*
X0030180Y0110350D02*
X0034459Y0110350D01*
X0038396Y0110350D02*
X0042674Y0110350D01*
X0022469Y0133465D02*
X0022968Y0134021D01*
X0023479Y0134565D01*
X0024001Y0135099D01*
X0024535Y0135621D01*
X0025079Y0136132D01*
X0025635Y0136631D01*
X0048750Y0137135D02*
X0048750Y0132857D01*
X0048750Y0128920D02*
X0048750Y0124641D01*
X0048750Y0120704D02*
X0048750Y0116426D01*
X0048750Y0112489D02*
X0048750Y0108211D01*
X0040414Y0076357D02*
X0039691Y0076543D01*
X0038972Y0076744D01*
X0038258Y0076960D01*
X0037548Y0077191D01*
X0036843Y0077438D01*
X0036144Y0077699D01*
X0048750Y0079628D02*
X0048750Y0075350D01*
X0048750Y0083565D02*
X0048750Y0087843D01*
X0048750Y0091780D02*
X0048750Y0096059D01*
X0048750Y0099996D02*
X0048750Y0104274D01*
X0057086Y0076357D02*
X0057809Y0076543D01*
X0058528Y0076744D01*
X0059242Y0076960D01*
X0059952Y0077191D01*
X0060657Y0077438D01*
X0061356Y0077699D01*
X0020041Y0090331D02*
X0019620Y0090948D01*
X0019213Y0091573D01*
X0018819Y0092207D01*
X0018439Y0092850D01*
X0018073Y0093500D01*
X0017720Y0094159D01*
X0018750Y0092850D02*
X0018750Y0088512D01*
X0018750Y0084575D02*
X0018750Y0080237D01*
X0018750Y0076300D02*
X0018750Y0071963D01*
X0018750Y0068026D02*
X0018750Y0063688D01*
X0018750Y0059751D02*
X0018750Y0055413D01*
X0077459Y0090331D02*
X0077880Y0090948D01*
X0078287Y0091573D01*
X0078681Y0092207D01*
X0079061Y0092850D01*
X0079427Y0093500D01*
X0079780Y0094159D01*
X0107000Y0074655D02*
X0107000Y0071652D01*
X0107000Y0073153D02*
X0111504Y0073153D01*
X0110003Y0071652D01*
X0111504Y0070051D02*
X0107000Y0070051D01*
X0108501Y0068549D01*
X0107000Y0067048D01*
X0111504Y0067048D01*
X0110753Y0065447D02*
X0111504Y0064696D01*
X0111504Y0063195D01*
X0110753Y0062444D01*
X0110003Y0062444D01*
X0109252Y0063195D01*
X0109252Y0064696D01*
X0108501Y0065447D01*
X0107751Y0065447D01*
X0107000Y0064696D01*
X0107000Y0063195D01*
X0107751Y0062444D01*
X0118750Y0069100D02*
X0123750Y0069100D01*
X0121250Y0071600D02*
X0121250Y0066600D01*
X0158750Y0110350D02*
X0163028Y0110350D01*
X0166965Y0110350D02*
X0171243Y0110350D01*
X0175180Y0110350D02*
X0179459Y0110350D01*
X0183396Y0110350D02*
X0187674Y0110350D01*
X0191611Y0110350D02*
X0195889Y0110350D01*
X0227743Y0118685D02*
X0227557Y0119408D01*
X0227357Y0120127D01*
X0227140Y0120842D01*
X0226909Y0121552D01*
X0226663Y0122257D01*
X0226401Y0122956D01*
X0224472Y0110350D02*
X0228750Y0110350D01*
X0220535Y0110350D02*
X0216257Y0110350D01*
X0212320Y0110350D02*
X0208041Y0110350D01*
X0204104Y0110350D02*
X0199826Y0110350D01*
X0220031Y0133465D02*
X0219532Y0134021D01*
X0219021Y0134565D01*
X0218499Y0135099D01*
X0217965Y0135621D01*
X0217421Y0136132D01*
X0216865Y0136631D01*
X0193750Y0137135D02*
X0193750Y0132857D01*
X0193750Y0128920D02*
X0193750Y0124641D01*
X0193750Y0120704D02*
X0193750Y0116426D01*
X0193750Y0112489D02*
X0193750Y0108211D01*
X0185414Y0076357D02*
X0184691Y0076543D01*
X0183972Y0076744D01*
X0183258Y0076960D01*
X0182548Y0077191D01*
X0181843Y0077438D01*
X0181144Y0077699D01*
X0193750Y0079628D02*
X0193750Y0075350D01*
X0193750Y0083565D02*
X0193750Y0087843D01*
X0193750Y0091780D02*
X0193750Y0096059D01*
X0193750Y0099996D02*
X0193750Y0104274D01*
X0202086Y0076357D02*
X0202809Y0076543D01*
X0203528Y0076744D01*
X0204242Y0076960D01*
X0204952Y0077191D01*
X0205657Y0077438D01*
X0206356Y0077699D01*
X0223750Y0076300D02*
X0223750Y0071963D01*
X0223750Y0068026D02*
X0223750Y0063688D01*
X0223750Y0059751D02*
X0223750Y0055413D01*
X0219695Y0055413D01*
X0215758Y0055413D02*
X0211703Y0055413D01*
X0207766Y0055413D02*
X0203711Y0055413D01*
X0199774Y0055413D02*
X0195719Y0055413D01*
X0191781Y0055413D02*
X0187726Y0055413D01*
X0183789Y0055413D02*
X0179734Y0055413D01*
X0175797Y0055413D02*
X0171742Y0055413D01*
X0167805Y0055413D02*
X0163750Y0055413D01*
X0163750Y0059751D01*
X0163750Y0063688D02*
X0163750Y0068026D01*
X0163750Y0071963D02*
X0163750Y0076300D01*
X0163750Y0080237D02*
X0163750Y0084575D01*
X0163750Y0088512D02*
X0163750Y0092850D01*
X0159757Y0118685D02*
X0159943Y0119408D01*
X0160143Y0120127D01*
X0160360Y0120842D01*
X0160591Y0121552D01*
X0160837Y0122257D01*
X0161099Y0122956D01*
X0167469Y0133465D02*
X0167968Y0134021D01*
X0168479Y0134565D01*
X0169001Y0135099D01*
X0169535Y0135621D01*
X0170079Y0136132D01*
X0170635Y0136631D01*
X0193750Y0141072D02*
X0193750Y0145350D01*
X0191781Y0175663D02*
X0187726Y0175663D01*
X0183789Y0175663D02*
X0179734Y0175663D01*
X0175797Y0175663D02*
X0171742Y0175663D01*
X0167805Y0175663D02*
X0163750Y0175663D01*
X0163750Y0180001D01*
X0163750Y0183938D02*
X0163750Y0188276D01*
X0163750Y0192213D02*
X0163750Y0196550D01*
X0163750Y0200487D02*
X0163750Y0204825D01*
X0163750Y0208762D02*
X0163750Y0213100D01*
X0163028Y0230600D02*
X0158750Y0230600D01*
X0166965Y0230600D02*
X0171243Y0230600D01*
X0175180Y0230600D02*
X0179459Y0230600D01*
X0183396Y0230600D02*
X0187674Y0230600D01*
X0191611Y0230600D02*
X0195889Y0230600D01*
X0227743Y0238935D02*
X0227557Y0239658D01*
X0227357Y0240377D01*
X0227140Y0241092D01*
X0226909Y0241802D01*
X0226663Y0242507D01*
X0226401Y0243206D01*
X0224472Y0230600D02*
X0228750Y0230600D01*
X0220535Y0230600D02*
X0216257Y0230600D01*
X0212320Y0230600D02*
X0208041Y0230600D01*
X0204104Y0230600D02*
X0199826Y0230600D01*
X0220031Y0253715D02*
X0219532Y0254271D01*
X0219021Y0254815D01*
X0218499Y0255349D01*
X0217965Y0255871D01*
X0217421Y0256382D01*
X0216865Y0256881D01*
X0193750Y0257385D02*
X0193750Y0253107D01*
X0193750Y0249170D02*
X0193750Y0244891D01*
X0193750Y0240954D02*
X0193750Y0236676D01*
X0193750Y0232739D02*
X0193750Y0228461D01*
X0185414Y0196607D02*
X0184691Y0196793D01*
X0183972Y0196994D01*
X0183258Y0197210D01*
X0182548Y0197441D01*
X0181843Y0197688D01*
X0181144Y0197949D01*
X0193750Y0199878D02*
X0193750Y0195600D01*
X0193750Y0203815D02*
X0193750Y0208093D01*
X0193750Y0212030D02*
X0193750Y0216309D01*
X0193750Y0220246D02*
X0193750Y0224524D01*
X0202086Y0196607D02*
X0202809Y0196793D01*
X0203528Y0196994D01*
X0204242Y0197210D01*
X0204952Y0197441D01*
X0205657Y0197688D01*
X0206356Y0197949D01*
X0223750Y0196550D02*
X0223750Y0192213D01*
X0223750Y0188276D02*
X0223750Y0183938D01*
X0223750Y0180001D02*
X0223750Y0175663D01*
X0219695Y0175663D01*
X0215758Y0175663D02*
X0211703Y0175663D01*
X0207766Y0175663D02*
X0203711Y0175663D01*
X0199774Y0175663D02*
X0195719Y0175663D01*
X0223750Y0200487D02*
X0223750Y0204825D01*
X0223750Y0208762D02*
X0223750Y0213100D01*
X0224780Y0246791D02*
X0224427Y0247449D01*
X0224061Y0248100D01*
X0223681Y0248742D01*
X0223287Y0249377D01*
X0222880Y0250002D01*
X0222459Y0250619D01*
X0193750Y0261322D02*
X0193750Y0265600D01*
X0202085Y0264593D02*
X0202808Y0264407D01*
X0203527Y0264207D01*
X0204242Y0263990D01*
X0204952Y0263759D01*
X0205657Y0263513D01*
X0206356Y0263251D01*
X0228464Y0235067D02*
X0228551Y0234325D01*
X0228623Y0233582D01*
X0228678Y0232838D01*
X0228718Y0232092D01*
X0228742Y0231346D01*
X0228750Y0230600D01*
X0198217Y0265314D02*
X0197475Y0265401D01*
X0196732Y0265473D01*
X0195988Y0265528D01*
X0195242Y0265568D01*
X0194496Y0265592D01*
X0193750Y0265600D01*
X0185415Y0264593D02*
X0184692Y0264407D01*
X0183973Y0264207D01*
X0183258Y0263990D01*
X0182548Y0263759D01*
X0181843Y0263513D01*
X0181144Y0263251D01*
X0170635Y0256881D02*
X0170079Y0256382D01*
X0169535Y0255871D01*
X0169001Y0255349D01*
X0168479Y0254815D01*
X0167968Y0254271D01*
X0167469Y0253715D01*
X0161099Y0243206D02*
X0160837Y0242507D01*
X0160591Y0241802D01*
X0160360Y0241092D01*
X0160143Y0240377D01*
X0159943Y0239658D01*
X0159757Y0238935D01*
X0189283Y0265314D02*
X0190025Y0265401D01*
X0190768Y0265473D01*
X0191512Y0265528D01*
X0192258Y0265568D01*
X0193004Y0265592D01*
X0193750Y0265600D01*
X0209941Y0261630D02*
X0210599Y0261277D01*
X0211250Y0260911D01*
X0211892Y0260531D01*
X0212527Y0260137D01*
X0213152Y0259730D01*
X0213769Y0259309D01*
X0177559Y0261630D02*
X0176901Y0261277D01*
X0176250Y0260911D01*
X0175608Y0260531D01*
X0174973Y0260137D01*
X0174348Y0259730D01*
X0173731Y0259309D01*
X0159036Y0235067D02*
X0158949Y0234325D01*
X0158877Y0233582D01*
X0158822Y0232838D01*
X0158782Y0232092D01*
X0158758Y0231346D01*
X0158750Y0230600D01*
X0162720Y0246791D02*
X0163073Y0247449D01*
X0163439Y0248100D01*
X0163819Y0248742D01*
X0164213Y0249377D01*
X0164620Y0250002D01*
X0165041Y0250619D01*
X0159757Y0222264D02*
X0159943Y0221541D01*
X0160144Y0220822D01*
X0160360Y0220108D01*
X0160591Y0219398D01*
X0160838Y0218693D01*
X0161099Y0217994D01*
X0222459Y0210581D02*
X0222880Y0211198D01*
X0223287Y0211823D01*
X0223681Y0212457D01*
X0224061Y0213100D01*
X0224427Y0213750D01*
X0224780Y0214409D01*
X0165041Y0210581D02*
X0164620Y0211198D01*
X0164213Y0211823D01*
X0163819Y0212457D01*
X0163439Y0213100D01*
X0163073Y0213750D01*
X0162720Y0214409D01*
X0193750Y0195600D02*
X0194497Y0195608D01*
X0195243Y0195632D01*
X0195988Y0195672D01*
X0196733Y0195727D01*
X0197476Y0195799D01*
X0198217Y0195886D01*
X0170635Y0204319D02*
X0170079Y0204818D01*
X0169535Y0205329D01*
X0169001Y0205851D01*
X0168479Y0206385D01*
X0167968Y0206929D01*
X0167469Y0207485D01*
X0216865Y0204319D02*
X0217421Y0204818D01*
X0217965Y0205329D01*
X0218499Y0205851D01*
X0219021Y0206385D01*
X0219532Y0206929D01*
X0220031Y0207485D01*
X0193750Y0195600D02*
X0193003Y0195608D01*
X0192257Y0195632D01*
X0191512Y0195672D01*
X0190767Y0195727D01*
X0190024Y0195799D01*
X0189283Y0195886D01*
X0190215Y0230600D02*
X0190217Y0230719D01*
X0190223Y0230837D01*
X0190233Y0230956D01*
X0190247Y0231074D01*
X0190265Y0231191D01*
X0190287Y0231308D01*
X0190312Y0231424D01*
X0190342Y0231539D01*
X0190375Y0231653D01*
X0190413Y0231766D01*
X0190454Y0231877D01*
X0190498Y0231987D01*
X0190547Y0232095D01*
X0190599Y0232202D01*
X0190655Y0232307D01*
X0190714Y0232410D01*
X0190776Y0232511D01*
X0190842Y0232610D01*
X0190911Y0232707D01*
X0190984Y0232801D01*
X0191059Y0232892D01*
X0191138Y0232982D01*
X0191219Y0233068D01*
X0191303Y0233152D01*
X0191391Y0233232D01*
X0191480Y0233310D01*
X0191573Y0233385D01*
X0191667Y0233456D01*
X0191765Y0233525D01*
X0191864Y0233590D01*
X0191965Y0233651D01*
X0192069Y0233710D01*
X0192174Y0233764D01*
X0192282Y0233816D01*
X0192390Y0233863D01*
X0192501Y0233907D01*
X0192613Y0233947D01*
X0192726Y0233983D01*
X0192840Y0234016D01*
X0192955Y0234044D01*
X0193071Y0234069D01*
X0193188Y0234090D01*
X0193306Y0234107D01*
X0193424Y0234120D01*
X0193542Y0234129D01*
X0193661Y0234134D01*
X0193780Y0234135D01*
X0193898Y0234132D01*
X0194017Y0234125D01*
X0194135Y0234114D01*
X0194253Y0234099D01*
X0194370Y0234080D01*
X0194487Y0234057D01*
X0194603Y0234031D01*
X0194717Y0234000D01*
X0194831Y0233966D01*
X0194944Y0233927D01*
X0195055Y0233885D01*
X0195164Y0233840D01*
X0195272Y0233790D01*
X0195379Y0233737D01*
X0195483Y0233681D01*
X0195586Y0233621D01*
X0195686Y0233558D01*
X0195784Y0233491D01*
X0195880Y0233421D01*
X0195974Y0233348D01*
X0196065Y0233272D01*
X0196153Y0233192D01*
X0196239Y0233110D01*
X0196322Y0233025D01*
X0196402Y0232937D01*
X0196479Y0232847D01*
X0196553Y0232754D01*
X0196624Y0232659D01*
X0196691Y0232561D01*
X0196756Y0232461D01*
X0196816Y0232359D01*
X0196874Y0232255D01*
X0196928Y0232149D01*
X0196978Y0232041D01*
X0197024Y0231932D01*
X0197067Y0231821D01*
X0197106Y0231709D01*
X0197142Y0231596D01*
X0197173Y0231481D01*
X0197201Y0231366D01*
X0197225Y0231250D01*
X0197245Y0231132D01*
X0197261Y0231015D01*
X0197273Y0230897D01*
X0197281Y0230778D01*
X0197285Y0230659D01*
X0197285Y0230541D01*
X0197281Y0230422D01*
X0197273Y0230303D01*
X0197261Y0230185D01*
X0197245Y0230068D01*
X0197225Y0229950D01*
X0197201Y0229834D01*
X0197173Y0229719D01*
X0197142Y0229604D01*
X0197106Y0229491D01*
X0197067Y0229379D01*
X0197024Y0229268D01*
X0196978Y0229159D01*
X0196928Y0229051D01*
X0196874Y0228945D01*
X0196816Y0228841D01*
X0196756Y0228739D01*
X0196691Y0228639D01*
X0196624Y0228541D01*
X0196553Y0228446D01*
X0196479Y0228353D01*
X0196402Y0228263D01*
X0196322Y0228175D01*
X0196239Y0228090D01*
X0196153Y0228008D01*
X0196065Y0227928D01*
X0195974Y0227852D01*
X0195880Y0227779D01*
X0195784Y0227709D01*
X0195686Y0227642D01*
X0195586Y0227579D01*
X0195483Y0227519D01*
X0195379Y0227463D01*
X0195272Y0227410D01*
X0195164Y0227360D01*
X0195055Y0227315D01*
X0194944Y0227273D01*
X0194831Y0227234D01*
X0194717Y0227200D01*
X0194603Y0227169D01*
X0194487Y0227143D01*
X0194370Y0227120D01*
X0194253Y0227101D01*
X0194135Y0227086D01*
X0194017Y0227075D01*
X0193898Y0227068D01*
X0193780Y0227065D01*
X0193661Y0227066D01*
X0193542Y0227071D01*
X0193424Y0227080D01*
X0193306Y0227093D01*
X0193188Y0227110D01*
X0193071Y0227131D01*
X0192955Y0227156D01*
X0192840Y0227184D01*
X0192726Y0227217D01*
X0192613Y0227253D01*
X0192501Y0227293D01*
X0192390Y0227337D01*
X0192282Y0227384D01*
X0192174Y0227436D01*
X0192069Y0227490D01*
X0191965Y0227549D01*
X0191864Y0227610D01*
X0191765Y0227675D01*
X0191667Y0227744D01*
X0191573Y0227815D01*
X0191480Y0227890D01*
X0191391Y0227968D01*
X0191303Y0228048D01*
X0191219Y0228132D01*
X0191138Y0228218D01*
X0191059Y0228308D01*
X0190984Y0228399D01*
X0190911Y0228493D01*
X0190842Y0228590D01*
X0190776Y0228689D01*
X0190714Y0228790D01*
X0190655Y0228893D01*
X0190599Y0228998D01*
X0190547Y0229105D01*
X0190498Y0229213D01*
X0190454Y0229323D01*
X0190413Y0229434D01*
X0190375Y0229547D01*
X0190342Y0229661D01*
X0190312Y0229776D01*
X0190287Y0229892D01*
X0190265Y0230009D01*
X0190247Y0230126D01*
X0190233Y0230244D01*
X0190223Y0230363D01*
X0190217Y0230481D01*
X0190215Y0230600D01*
X0228464Y0226133D02*
X0228551Y0226874D01*
X0228623Y0227617D01*
X0228678Y0228362D01*
X0228718Y0229107D01*
X0228742Y0229853D01*
X0228750Y0230600D01*
X0159036Y0226133D02*
X0158949Y0226874D01*
X0158877Y0227617D01*
X0158822Y0228362D01*
X0158782Y0229107D01*
X0158758Y0229853D01*
X0158750Y0230600D01*
X0209941Y0199570D02*
X0210600Y0199923D01*
X0211250Y0200289D01*
X0211893Y0200669D01*
X0212527Y0201063D01*
X0213152Y0201470D01*
X0213769Y0201891D01*
X0177559Y0199570D02*
X0176900Y0199923D01*
X0176250Y0200289D01*
X0175607Y0200669D01*
X0174973Y0201063D01*
X0174348Y0201470D01*
X0173731Y0201891D01*
X0226401Y0217994D02*
X0226662Y0218693D01*
X0226909Y0219398D01*
X0227140Y0220108D01*
X0227356Y0220822D01*
X0227557Y0221541D01*
X0227743Y0222264D01*
X0202085Y0144343D02*
X0202808Y0144157D01*
X0203527Y0143957D01*
X0204242Y0143740D01*
X0204952Y0143509D01*
X0205657Y0143263D01*
X0206356Y0143001D01*
X0228464Y0114817D02*
X0228551Y0114075D01*
X0228623Y0113332D01*
X0228678Y0112588D01*
X0228718Y0111842D01*
X0228742Y0111096D01*
X0228750Y0110350D01*
X0223750Y0092850D02*
X0223750Y0088512D01*
X0223750Y0084575D02*
X0223750Y0080237D01*
X0165041Y0090331D02*
X0164620Y0090948D01*
X0164213Y0091573D01*
X0163819Y0092207D01*
X0163439Y0092850D01*
X0163073Y0093500D01*
X0162720Y0094159D01*
X0162720Y0126541D02*
X0163073Y0127199D01*
X0163439Y0127850D01*
X0163819Y0128492D01*
X0164213Y0129127D01*
X0164620Y0129752D01*
X0165041Y0130369D01*
X0181144Y0143001D02*
X0181843Y0143263D01*
X0182548Y0143509D01*
X0183258Y0143740D01*
X0183973Y0143957D01*
X0184692Y0144157D01*
X0185415Y0144343D01*
X0159036Y0114817D02*
X0158949Y0114075D01*
X0158877Y0113332D01*
X0158822Y0112588D01*
X0158782Y0111842D01*
X0158758Y0111096D01*
X0158750Y0110350D01*
X0189283Y0145064D02*
X0190025Y0145151D01*
X0190768Y0145223D01*
X0191512Y0145278D01*
X0192258Y0145318D01*
X0193004Y0145342D01*
X0193750Y0145350D01*
X0209941Y0141380D02*
X0210599Y0141027D01*
X0211250Y0140661D01*
X0211892Y0140281D01*
X0212527Y0139887D01*
X0213152Y0139480D01*
X0213769Y0139059D01*
X0198217Y0145064D02*
X0197475Y0145151D01*
X0196732Y0145223D01*
X0195988Y0145278D01*
X0195242Y0145318D01*
X0194496Y0145342D01*
X0193750Y0145350D01*
X0177559Y0141380D02*
X0176901Y0141027D01*
X0176250Y0140661D01*
X0175608Y0140281D01*
X0174973Y0139887D01*
X0174348Y0139480D01*
X0173731Y0139059D01*
X0222459Y0130369D02*
X0222880Y0129752D01*
X0223287Y0129127D01*
X0223681Y0128492D01*
X0224061Y0127850D01*
X0224427Y0127199D01*
X0224780Y0126541D01*
X0158750Y0110350D02*
X0158758Y0109603D01*
X0158782Y0108857D01*
X0158822Y0108112D01*
X0158877Y0107367D01*
X0158949Y0106624D01*
X0159036Y0105883D01*
X0193750Y0075350D02*
X0194497Y0075358D01*
X0195243Y0075382D01*
X0195988Y0075422D01*
X0196733Y0075477D01*
X0197476Y0075549D01*
X0198217Y0075636D01*
X0170635Y0084069D02*
X0170079Y0084568D01*
X0169535Y0085079D01*
X0169001Y0085601D01*
X0168479Y0086135D01*
X0167968Y0086679D01*
X0167469Y0087235D01*
X0222459Y0090331D02*
X0222880Y0090948D01*
X0223287Y0091573D01*
X0223681Y0092207D01*
X0224061Y0092850D01*
X0224427Y0093500D01*
X0224780Y0094159D01*
X0193750Y0075350D02*
X0193003Y0075358D01*
X0192257Y0075382D01*
X0191512Y0075422D01*
X0190767Y0075477D01*
X0190024Y0075549D01*
X0189283Y0075636D01*
X0216865Y0084069D02*
X0217421Y0084568D01*
X0217965Y0085079D01*
X0218499Y0085601D01*
X0219021Y0086135D01*
X0219532Y0086679D01*
X0220031Y0087235D01*
X0190215Y0110350D02*
X0190217Y0110469D01*
X0190223Y0110587D01*
X0190233Y0110706D01*
X0190247Y0110824D01*
X0190265Y0110941D01*
X0190287Y0111058D01*
X0190312Y0111174D01*
X0190342Y0111289D01*
X0190375Y0111403D01*
X0190413Y0111516D01*
X0190454Y0111627D01*
X0190498Y0111737D01*
X0190547Y0111845D01*
X0190599Y0111952D01*
X0190655Y0112057D01*
X0190714Y0112160D01*
X0190776Y0112261D01*
X0190842Y0112360D01*
X0190911Y0112457D01*
X0190984Y0112551D01*
X0191059Y0112642D01*
X0191138Y0112732D01*
X0191219Y0112818D01*
X0191303Y0112902D01*
X0191391Y0112982D01*
X0191480Y0113060D01*
X0191573Y0113135D01*
X0191667Y0113206D01*
X0191765Y0113275D01*
X0191864Y0113340D01*
X0191965Y0113401D01*
X0192069Y0113460D01*
X0192174Y0113514D01*
X0192282Y0113566D01*
X0192390Y0113613D01*
X0192501Y0113657D01*
X0192613Y0113697D01*
X0192726Y0113733D01*
X0192840Y0113766D01*
X0192955Y0113794D01*
X0193071Y0113819D01*
X0193188Y0113840D01*
X0193306Y0113857D01*
X0193424Y0113870D01*
X0193542Y0113879D01*
X0193661Y0113884D01*
X0193780Y0113885D01*
X0193898Y0113882D01*
X0194017Y0113875D01*
X0194135Y0113864D01*
X0194253Y0113849D01*
X0194370Y0113830D01*
X0194487Y0113807D01*
X0194603Y0113781D01*
X0194717Y0113750D01*
X0194831Y0113716D01*
X0194944Y0113677D01*
X0195055Y0113635D01*
X0195164Y0113590D01*
X0195272Y0113540D01*
X0195379Y0113487D01*
X0195483Y0113431D01*
X0195586Y0113371D01*
X0195686Y0113308D01*
X0195784Y0113241D01*
X0195880Y0113171D01*
X0195974Y0113098D01*
X0196065Y0113022D01*
X0196153Y0112942D01*
X0196239Y0112860D01*
X0196322Y0112775D01*
X0196402Y0112687D01*
X0196479Y0112597D01*
X0196553Y0112504D01*
X0196624Y0112409D01*
X0196691Y0112311D01*
X0196756Y0112211D01*
X0196816Y0112109D01*
X0196874Y0112005D01*
X0196928Y0111899D01*
X0196978Y0111791D01*
X0197024Y0111682D01*
X0197067Y0111571D01*
X0197106Y0111459D01*
X0197142Y0111346D01*
X0197173Y0111231D01*
X0197201Y0111116D01*
X0197225Y0111000D01*
X0197245Y0110882D01*
X0197261Y0110765D01*
X0197273Y0110647D01*
X0197281Y0110528D01*
X0197285Y0110409D01*
X0197285Y0110291D01*
X0197281Y0110172D01*
X0197273Y0110053D01*
X0197261Y0109935D01*
X0197245Y0109818D01*
X0197225Y0109700D01*
X0197201Y0109584D01*
X0197173Y0109469D01*
X0197142Y0109354D01*
X0197106Y0109241D01*
X0197067Y0109129D01*
X0197024Y0109018D01*
X0196978Y0108909D01*
X0196928Y0108801D01*
X0196874Y0108695D01*
X0196816Y0108591D01*
X0196756Y0108489D01*
X0196691Y0108389D01*
X0196624Y0108291D01*
X0196553Y0108196D01*
X0196479Y0108103D01*
X0196402Y0108013D01*
X0196322Y0107925D01*
X0196239Y0107840D01*
X0196153Y0107758D01*
X0196065Y0107678D01*
X0195974Y0107602D01*
X0195880Y0107529D01*
X0195784Y0107459D01*
X0195686Y0107392D01*
X0195586Y0107329D01*
X0195483Y0107269D01*
X0195379Y0107213D01*
X0195272Y0107160D01*
X0195164Y0107110D01*
X0195055Y0107065D01*
X0194944Y0107023D01*
X0194831Y0106984D01*
X0194717Y0106950D01*
X0194603Y0106919D01*
X0194487Y0106893D01*
X0194370Y0106870D01*
X0194253Y0106851D01*
X0194135Y0106836D01*
X0194017Y0106825D01*
X0193898Y0106818D01*
X0193780Y0106815D01*
X0193661Y0106816D01*
X0193542Y0106821D01*
X0193424Y0106830D01*
X0193306Y0106843D01*
X0193188Y0106860D01*
X0193071Y0106881D01*
X0192955Y0106906D01*
X0192840Y0106934D01*
X0192726Y0106967D01*
X0192613Y0107003D01*
X0192501Y0107043D01*
X0192390Y0107087D01*
X0192282Y0107134D01*
X0192174Y0107186D01*
X0192069Y0107240D01*
X0191965Y0107299D01*
X0191864Y0107360D01*
X0191765Y0107425D01*
X0191667Y0107494D01*
X0191573Y0107565D01*
X0191480Y0107640D01*
X0191391Y0107718D01*
X0191303Y0107798D01*
X0191219Y0107882D01*
X0191138Y0107968D01*
X0191059Y0108058D01*
X0190984Y0108149D01*
X0190911Y0108243D01*
X0190842Y0108340D01*
X0190776Y0108439D01*
X0190714Y0108540D01*
X0190655Y0108643D01*
X0190599Y0108748D01*
X0190547Y0108855D01*
X0190498Y0108963D01*
X0190454Y0109073D01*
X0190413Y0109184D01*
X0190375Y0109297D01*
X0190342Y0109411D01*
X0190312Y0109526D01*
X0190287Y0109642D01*
X0190265Y0109759D01*
X0190247Y0109876D01*
X0190233Y0109994D01*
X0190223Y0110113D01*
X0190217Y0110231D01*
X0190215Y0110350D01*
X0159757Y0102014D02*
X0159943Y0101291D01*
X0160144Y0100572D01*
X0160360Y0099858D01*
X0160591Y0099148D01*
X0160838Y0098443D01*
X0161099Y0097744D01*
X0228464Y0105883D02*
X0228551Y0106624D01*
X0228623Y0107367D01*
X0228678Y0108112D01*
X0228718Y0108857D01*
X0228742Y0109603D01*
X0228750Y0110350D01*
X0227743Y0102014D02*
X0227557Y0101291D01*
X0227356Y0100572D01*
X0227140Y0099858D01*
X0226909Y0099148D01*
X0226662Y0098443D01*
X0226401Y0097744D01*
X0177559Y0079320D02*
X0176900Y0079673D01*
X0176250Y0080039D01*
X0175607Y0080419D01*
X0174973Y0080813D01*
X0174348Y0081220D01*
X0173731Y0081641D01*
X0209941Y0079320D02*
X0210600Y0079673D01*
X0211250Y0080039D01*
X0211893Y0080419D01*
X0212527Y0080813D01*
X0213152Y0081220D01*
X0213769Y0081641D01*
X0083750Y0230600D02*
X0079472Y0230600D01*
X0075535Y0230600D02*
X0071257Y0230600D01*
X0067320Y0230600D02*
X0063041Y0230600D01*
X0059104Y0230600D02*
X0054826Y0230600D01*
X0050889Y0230600D02*
X0046611Y0230600D01*
X0014757Y0238935D02*
X0014943Y0239658D01*
X0015143Y0240377D01*
X0015360Y0241092D01*
X0015591Y0241802D01*
X0015837Y0242507D01*
X0016099Y0243206D01*
X0018028Y0230600D02*
X0013750Y0230600D01*
X0021965Y0230600D02*
X0026243Y0230600D01*
X0030180Y0230600D02*
X0034459Y0230600D01*
X0038396Y0230600D02*
X0042674Y0230600D01*
X0022469Y0253715D02*
X0022968Y0254271D01*
X0023479Y0254815D01*
X0024001Y0255349D01*
X0024535Y0255871D01*
X0025079Y0256382D01*
X0025635Y0256881D01*
X0048750Y0257385D02*
X0048750Y0253107D01*
X0048750Y0249170D02*
X0048750Y0244891D01*
X0048750Y0240954D02*
X0048750Y0236676D01*
X0048750Y0232739D02*
X0048750Y0228461D01*
X0040414Y0196607D02*
X0039691Y0196793D01*
X0038972Y0196994D01*
X0038258Y0197210D01*
X0037548Y0197441D01*
X0036843Y0197688D01*
X0036144Y0197949D01*
X0048750Y0199878D02*
X0048750Y0195600D01*
X0048750Y0203815D02*
X0048750Y0208093D01*
X0048750Y0212030D02*
X0048750Y0216309D01*
X0048750Y0220246D02*
X0048750Y0224524D01*
X0057086Y0196607D02*
X0057809Y0196793D01*
X0058528Y0196994D01*
X0059242Y0197210D01*
X0059952Y0197441D01*
X0060657Y0197688D01*
X0061356Y0197949D01*
X0078750Y0196550D02*
X0078750Y0192213D01*
X0078750Y0188276D02*
X0078750Y0183938D01*
X0078750Y0180001D02*
X0078750Y0175663D01*
X0074695Y0175663D01*
X0070758Y0175663D02*
X0066703Y0175663D01*
X0062766Y0175663D02*
X0058711Y0175663D01*
X0054774Y0175663D02*
X0050719Y0175663D01*
X0046781Y0175663D02*
X0042726Y0175663D01*
X0038789Y0175663D02*
X0034734Y0175663D01*
X0030797Y0175663D02*
X0026742Y0175663D01*
X0022805Y0175663D02*
X0018750Y0175663D01*
X0018750Y0180001D01*
X0018750Y0183938D02*
X0018750Y0188276D01*
X0018750Y0192213D02*
X0018750Y0196550D01*
X0018750Y0200487D02*
X0018750Y0204825D01*
X0018750Y0208762D02*
X0018750Y0213100D01*
X0044283Y0265314D02*
X0045025Y0265401D01*
X0045768Y0265473D01*
X0046512Y0265528D01*
X0047258Y0265568D01*
X0048004Y0265592D01*
X0048750Y0265600D01*
X0048750Y0261322D01*
X0057085Y0264593D02*
X0057808Y0264407D01*
X0058527Y0264207D01*
X0059242Y0263990D01*
X0059952Y0263759D01*
X0060657Y0263513D01*
X0061356Y0263251D01*
X0071865Y0256881D02*
X0072421Y0256382D01*
X0072965Y0255871D01*
X0073499Y0255349D01*
X0074021Y0254815D01*
X0074532Y0254271D01*
X0075031Y0253715D01*
X0081401Y0243206D02*
X0081663Y0242507D01*
X0081909Y0241802D01*
X0082140Y0241092D01*
X0082357Y0240377D01*
X0082557Y0239658D01*
X0082743Y0238935D01*
X0078750Y0213100D02*
X0078750Y0208762D01*
X0078750Y0204825D02*
X0078750Y0200487D01*
X0020041Y0210581D02*
X0019620Y0211198D01*
X0019213Y0211823D01*
X0018819Y0212457D01*
X0018439Y0213100D01*
X0018073Y0213750D01*
X0017720Y0214409D01*
X0017720Y0246791D02*
X0018073Y0247449D01*
X0018439Y0248100D01*
X0018819Y0248742D01*
X0019213Y0249377D01*
X0019620Y0250002D01*
X0020041Y0250619D01*
X0036144Y0263251D02*
X0036843Y0263513D01*
X0037548Y0263759D01*
X0038258Y0263990D01*
X0038973Y0264207D01*
X0039692Y0264407D01*
X0040415Y0264593D01*
X0014036Y0235067D02*
X0013949Y0234325D01*
X0013877Y0233582D01*
X0013822Y0232838D01*
X0013782Y0232092D01*
X0013758Y0231346D01*
X0013750Y0230600D01*
X0028731Y0259309D02*
X0029348Y0259730D01*
X0029973Y0260137D01*
X0030608Y0260531D01*
X0031250Y0260911D01*
X0031901Y0261277D01*
X0032559Y0261630D01*
X0064941Y0261630D02*
X0065599Y0261277D01*
X0066250Y0260911D01*
X0066892Y0260531D01*
X0067527Y0260137D01*
X0068152Y0259730D01*
X0068769Y0259309D01*
X0083464Y0235067D02*
X0083551Y0234325D01*
X0083623Y0233582D01*
X0083678Y0232838D01*
X0083718Y0232092D01*
X0083742Y0231346D01*
X0083750Y0230600D01*
X0079780Y0246791D02*
X0079427Y0247449D01*
X0079061Y0248100D01*
X0078681Y0248742D01*
X0078287Y0249377D01*
X0077880Y0250002D01*
X0077459Y0250619D01*
X0053217Y0265314D02*
X0052475Y0265401D01*
X0051732Y0265473D01*
X0050988Y0265528D01*
X0050242Y0265568D01*
X0049496Y0265592D01*
X0048750Y0265600D01*
X0014757Y0222264D02*
X0014943Y0221541D01*
X0015144Y0220822D01*
X0015360Y0220108D01*
X0015591Y0219398D01*
X0015838Y0218693D01*
X0016099Y0217994D01*
X0077459Y0210581D02*
X0077880Y0211198D01*
X0078287Y0211823D01*
X0078681Y0212457D01*
X0079061Y0213100D01*
X0079427Y0213750D01*
X0079780Y0214409D01*
X0048750Y0195600D02*
X0048003Y0195608D01*
X0047257Y0195632D01*
X0046512Y0195672D01*
X0045767Y0195727D01*
X0045024Y0195799D01*
X0044283Y0195886D01*
X0025635Y0204319D02*
X0025079Y0204818D01*
X0024535Y0205329D01*
X0024001Y0205851D01*
X0023479Y0206385D01*
X0022968Y0206929D01*
X0022469Y0207485D01*
X0048750Y0195600D02*
X0049497Y0195608D01*
X0050243Y0195632D01*
X0050988Y0195672D01*
X0051733Y0195727D01*
X0052476Y0195799D01*
X0053217Y0195886D01*
X0071865Y0204319D02*
X0072421Y0204818D01*
X0072965Y0205329D01*
X0073499Y0205851D01*
X0074021Y0206385D01*
X0074532Y0206929D01*
X0075031Y0207485D01*
X0014036Y0226133D02*
X0013949Y0226874D01*
X0013877Y0227617D01*
X0013822Y0228362D01*
X0013782Y0229107D01*
X0013758Y0229853D01*
X0013750Y0230600D01*
X0083464Y0226133D02*
X0083551Y0226874D01*
X0083623Y0227617D01*
X0083678Y0228362D01*
X0083718Y0229107D01*
X0083742Y0229853D01*
X0083750Y0230600D01*
X0082743Y0222264D02*
X0082557Y0221541D01*
X0082356Y0220822D01*
X0082140Y0220108D01*
X0081909Y0219398D01*
X0081662Y0218693D01*
X0081401Y0217994D01*
X0045215Y0230600D02*
X0045217Y0230719D01*
X0045223Y0230837D01*
X0045233Y0230956D01*
X0045247Y0231074D01*
X0045265Y0231191D01*
X0045287Y0231308D01*
X0045312Y0231424D01*
X0045342Y0231539D01*
X0045375Y0231653D01*
X0045413Y0231766D01*
X0045454Y0231877D01*
X0045498Y0231987D01*
X0045547Y0232095D01*
X0045599Y0232202D01*
X0045655Y0232307D01*
X0045714Y0232410D01*
X0045776Y0232511D01*
X0045842Y0232610D01*
X0045911Y0232707D01*
X0045984Y0232801D01*
X0046059Y0232892D01*
X0046138Y0232982D01*
X0046219Y0233068D01*
X0046303Y0233152D01*
X0046391Y0233232D01*
X0046480Y0233310D01*
X0046573Y0233385D01*
X0046667Y0233456D01*
X0046765Y0233525D01*
X0046864Y0233590D01*
X0046965Y0233651D01*
X0047069Y0233710D01*
X0047174Y0233764D01*
X0047282Y0233816D01*
X0047390Y0233863D01*
X0047501Y0233907D01*
X0047613Y0233947D01*
X0047726Y0233983D01*
X0047840Y0234016D01*
X0047955Y0234044D01*
X0048071Y0234069D01*
X0048188Y0234090D01*
X0048306Y0234107D01*
X0048424Y0234120D01*
X0048542Y0234129D01*
X0048661Y0234134D01*
X0048780Y0234135D01*
X0048898Y0234132D01*
X0049017Y0234125D01*
X0049135Y0234114D01*
X0049253Y0234099D01*
X0049370Y0234080D01*
X0049487Y0234057D01*
X0049603Y0234031D01*
X0049717Y0234000D01*
X0049831Y0233966D01*
X0049944Y0233927D01*
X0050055Y0233885D01*
X0050164Y0233840D01*
X0050272Y0233790D01*
X0050379Y0233737D01*
X0050483Y0233681D01*
X0050586Y0233621D01*
X0050686Y0233558D01*
X0050784Y0233491D01*
X0050880Y0233421D01*
X0050974Y0233348D01*
X0051065Y0233272D01*
X0051153Y0233192D01*
X0051239Y0233110D01*
X0051322Y0233025D01*
X0051402Y0232937D01*
X0051479Y0232847D01*
X0051553Y0232754D01*
X0051624Y0232659D01*
X0051691Y0232561D01*
X0051756Y0232461D01*
X0051816Y0232359D01*
X0051874Y0232255D01*
X0051928Y0232149D01*
X0051978Y0232041D01*
X0052024Y0231932D01*
X0052067Y0231821D01*
X0052106Y0231709D01*
X0052142Y0231596D01*
X0052173Y0231481D01*
X0052201Y0231366D01*
X0052225Y0231250D01*
X0052245Y0231132D01*
X0052261Y0231015D01*
X0052273Y0230897D01*
X0052281Y0230778D01*
X0052285Y0230659D01*
X0052285Y0230541D01*
X0052281Y0230422D01*
X0052273Y0230303D01*
X0052261Y0230185D01*
X0052245Y0230068D01*
X0052225Y0229950D01*
X0052201Y0229834D01*
X0052173Y0229719D01*
X0052142Y0229604D01*
X0052106Y0229491D01*
X0052067Y0229379D01*
X0052024Y0229268D01*
X0051978Y0229159D01*
X0051928Y0229051D01*
X0051874Y0228945D01*
X0051816Y0228841D01*
X0051756Y0228739D01*
X0051691Y0228639D01*
X0051624Y0228541D01*
X0051553Y0228446D01*
X0051479Y0228353D01*
X0051402Y0228263D01*
X0051322Y0228175D01*
X0051239Y0228090D01*
X0051153Y0228008D01*
X0051065Y0227928D01*
X0050974Y0227852D01*
X0050880Y0227779D01*
X0050784Y0227709D01*
X0050686Y0227642D01*
X0050586Y0227579D01*
X0050483Y0227519D01*
X0050379Y0227463D01*
X0050272Y0227410D01*
X0050164Y0227360D01*
X0050055Y0227315D01*
X0049944Y0227273D01*
X0049831Y0227234D01*
X0049717Y0227200D01*
X0049603Y0227169D01*
X0049487Y0227143D01*
X0049370Y0227120D01*
X0049253Y0227101D01*
X0049135Y0227086D01*
X0049017Y0227075D01*
X0048898Y0227068D01*
X0048780Y0227065D01*
X0048661Y0227066D01*
X0048542Y0227071D01*
X0048424Y0227080D01*
X0048306Y0227093D01*
X0048188Y0227110D01*
X0048071Y0227131D01*
X0047955Y0227156D01*
X0047840Y0227184D01*
X0047726Y0227217D01*
X0047613Y0227253D01*
X0047501Y0227293D01*
X0047390Y0227337D01*
X0047282Y0227384D01*
X0047174Y0227436D01*
X0047069Y0227490D01*
X0046965Y0227549D01*
X0046864Y0227610D01*
X0046765Y0227675D01*
X0046667Y0227744D01*
X0046573Y0227815D01*
X0046480Y0227890D01*
X0046391Y0227968D01*
X0046303Y0228048D01*
X0046219Y0228132D01*
X0046138Y0228218D01*
X0046059Y0228308D01*
X0045984Y0228399D01*
X0045911Y0228493D01*
X0045842Y0228590D01*
X0045776Y0228689D01*
X0045714Y0228790D01*
X0045655Y0228893D01*
X0045599Y0228998D01*
X0045547Y0229105D01*
X0045498Y0229213D01*
X0045454Y0229323D01*
X0045413Y0229434D01*
X0045375Y0229547D01*
X0045342Y0229661D01*
X0045312Y0229776D01*
X0045287Y0229892D01*
X0045265Y0230009D01*
X0045247Y0230126D01*
X0045233Y0230244D01*
X0045223Y0230363D01*
X0045217Y0230481D01*
X0045215Y0230600D01*
X0064941Y0199570D02*
X0065600Y0199923D01*
X0066250Y0200289D01*
X0066893Y0200669D01*
X0067527Y0201063D01*
X0068152Y0201470D01*
X0068769Y0201891D01*
X0032559Y0199570D02*
X0031900Y0199923D01*
X0031250Y0200289D01*
X0030607Y0200669D01*
X0029973Y0201063D01*
X0029348Y0201470D01*
X0028731Y0201891D01*
X0048750Y0145350D02*
X0048750Y0141072D01*
X0057085Y0144343D02*
X0057808Y0144157D01*
X0058527Y0143957D01*
X0059242Y0143740D01*
X0059952Y0143509D01*
X0060657Y0143263D01*
X0061356Y0143001D01*
X0071865Y0136631D02*
X0072421Y0136132D01*
X0072965Y0135621D01*
X0073499Y0135099D01*
X0074021Y0134565D01*
X0074532Y0134021D01*
X0075031Y0133465D01*
X0081401Y0122956D02*
X0081663Y0122257D01*
X0081909Y0121552D01*
X0082140Y0120842D01*
X0082357Y0120127D01*
X0082557Y0119408D01*
X0082743Y0118685D01*
X0083464Y0114817D02*
X0083551Y0114075D01*
X0083623Y0113332D01*
X0083678Y0112588D01*
X0083718Y0111842D01*
X0083742Y0111096D01*
X0083750Y0110350D01*
X0079780Y0126541D02*
X0079427Y0127199D01*
X0079061Y0127850D01*
X0078681Y0128492D01*
X0078287Y0129127D01*
X0077880Y0129752D01*
X0077459Y0130369D01*
X0053217Y0145064D02*
X0052475Y0145151D01*
X0051732Y0145223D01*
X0050988Y0145278D01*
X0050242Y0145318D01*
X0049496Y0145342D01*
X0048750Y0145350D01*
X0040415Y0144343D02*
X0039692Y0144157D01*
X0038973Y0143957D01*
X0038258Y0143740D01*
X0037548Y0143509D01*
X0036843Y0143263D01*
X0036144Y0143001D01*
X0044283Y0145064D02*
X0045025Y0145151D01*
X0045768Y0145223D01*
X0046512Y0145278D01*
X0047258Y0145318D01*
X0048004Y0145342D01*
X0048750Y0145350D01*
X0064941Y0141380D02*
X0065599Y0141027D01*
X0066250Y0140661D01*
X0066892Y0140281D01*
X0067527Y0139887D01*
X0068152Y0139480D01*
X0068769Y0139059D01*
X0032559Y0141380D02*
X0031901Y0141027D01*
X0031250Y0140661D01*
X0030608Y0140281D01*
X0029973Y0139887D01*
X0029348Y0139480D01*
X0028731Y0139059D01*
X0014036Y0114817D02*
X0013949Y0114075D01*
X0013877Y0113332D01*
X0013822Y0112588D01*
X0013782Y0111842D01*
X0013758Y0111096D01*
X0013750Y0110350D01*
X0017720Y0126541D02*
X0018073Y0127199D01*
X0018439Y0127850D01*
X0018819Y0128492D01*
X0019213Y0129127D01*
X0019620Y0129752D01*
X0020041Y0130369D01*
X0014757Y0102014D02*
X0014943Y0101291D01*
X0015144Y0100572D01*
X0015360Y0099858D01*
X0015591Y0099148D01*
X0015838Y0098443D01*
X0016099Y0097744D01*
X0048750Y0075350D02*
X0049497Y0075358D01*
X0050243Y0075382D01*
X0050988Y0075422D01*
X0051733Y0075477D01*
X0052476Y0075549D01*
X0053217Y0075636D01*
X0025635Y0084069D02*
X0025079Y0084568D01*
X0024535Y0085079D01*
X0024001Y0085601D01*
X0023479Y0086135D01*
X0022968Y0086679D01*
X0022469Y0087235D01*
X0071865Y0084069D02*
X0072421Y0084568D01*
X0072965Y0085079D01*
X0073499Y0085601D01*
X0074021Y0086135D01*
X0074532Y0086679D01*
X0075031Y0087235D01*
X0048750Y0075350D02*
X0048003Y0075358D01*
X0047257Y0075382D01*
X0046512Y0075422D01*
X0045767Y0075477D01*
X0045024Y0075549D01*
X0044283Y0075636D01*
X0045215Y0110350D02*
X0045217Y0110469D01*
X0045223Y0110587D01*
X0045233Y0110706D01*
X0045247Y0110824D01*
X0045265Y0110941D01*
X0045287Y0111058D01*
X0045312Y0111174D01*
X0045342Y0111289D01*
X0045375Y0111403D01*
X0045413Y0111516D01*
X0045454Y0111627D01*
X0045498Y0111737D01*
X0045547Y0111845D01*
X0045599Y0111952D01*
X0045655Y0112057D01*
X0045714Y0112160D01*
X0045776Y0112261D01*
X0045842Y0112360D01*
X0045911Y0112457D01*
X0045984Y0112551D01*
X0046059Y0112642D01*
X0046138Y0112732D01*
X0046219Y0112818D01*
X0046303Y0112902D01*
X0046391Y0112982D01*
X0046480Y0113060D01*
X0046573Y0113135D01*
X0046667Y0113206D01*
X0046765Y0113275D01*
X0046864Y0113340D01*
X0046965Y0113401D01*
X0047069Y0113460D01*
X0047174Y0113514D01*
X0047282Y0113566D01*
X0047390Y0113613D01*
X0047501Y0113657D01*
X0047613Y0113697D01*
X0047726Y0113733D01*
X0047840Y0113766D01*
X0047955Y0113794D01*
X0048071Y0113819D01*
X0048188Y0113840D01*
X0048306Y0113857D01*
X0048424Y0113870D01*
X0048542Y0113879D01*
X0048661Y0113884D01*
X0048780Y0113885D01*
X0048898Y0113882D01*
X0049017Y0113875D01*
X0049135Y0113864D01*
X0049253Y0113849D01*
X0049370Y0113830D01*
X0049487Y0113807D01*
X0049603Y0113781D01*
X0049717Y0113750D01*
X0049831Y0113716D01*
X0049944Y0113677D01*
X0050055Y0113635D01*
X0050164Y0113590D01*
X0050272Y0113540D01*
X0050379Y0113487D01*
X0050483Y0113431D01*
X0050586Y0113371D01*
X0050686Y0113308D01*
X0050784Y0113241D01*
X0050880Y0113171D01*
X0050974Y0113098D01*
X0051065Y0113022D01*
X0051153Y0112942D01*
X0051239Y0112860D01*
X0051322Y0112775D01*
X0051402Y0112687D01*
X0051479Y0112597D01*
X0051553Y0112504D01*
X0051624Y0112409D01*
X0051691Y0112311D01*
X0051756Y0112211D01*
X0051816Y0112109D01*
X0051874Y0112005D01*
X0051928Y0111899D01*
X0051978Y0111791D01*
X0052024Y0111682D01*
X0052067Y0111571D01*
X0052106Y0111459D01*
X0052142Y0111346D01*
X0052173Y0111231D01*
X0052201Y0111116D01*
X0052225Y0111000D01*
X0052245Y0110882D01*
X0052261Y0110765D01*
X0052273Y0110647D01*
X0052281Y0110528D01*
X0052285Y0110409D01*
X0052285Y0110291D01*
X0052281Y0110172D01*
X0052273Y0110053D01*
X0052261Y0109935D01*
X0052245Y0109818D01*
X0052225Y0109700D01*
X0052201Y0109584D01*
X0052173Y0109469D01*
X0052142Y0109354D01*
X0052106Y0109241D01*
X0052067Y0109129D01*
X0052024Y0109018D01*
X0051978Y0108909D01*
X0051928Y0108801D01*
X0051874Y0108695D01*
X0051816Y0108591D01*
X0051756Y0108489D01*
X0051691Y0108389D01*
X0051624Y0108291D01*
X0051553Y0108196D01*
X0051479Y0108103D01*
X0051402Y0108013D01*
X0051322Y0107925D01*
X0051239Y0107840D01*
X0051153Y0107758D01*
X0051065Y0107678D01*
X0050974Y0107602D01*
X0050880Y0107529D01*
X0050784Y0107459D01*
X0050686Y0107392D01*
X0050586Y0107329D01*
X0050483Y0107269D01*
X0050379Y0107213D01*
X0050272Y0107160D01*
X0050164Y0107110D01*
X0050055Y0107065D01*
X0049944Y0107023D01*
X0049831Y0106984D01*
X0049717Y0106950D01*
X0049603Y0106919D01*
X0049487Y0106893D01*
X0049370Y0106870D01*
X0049253Y0106851D01*
X0049135Y0106836D01*
X0049017Y0106825D01*
X0048898Y0106818D01*
X0048780Y0106815D01*
X0048661Y0106816D01*
X0048542Y0106821D01*
X0048424Y0106830D01*
X0048306Y0106843D01*
X0048188Y0106860D01*
X0048071Y0106881D01*
X0047955Y0106906D01*
X0047840Y0106934D01*
X0047726Y0106967D01*
X0047613Y0107003D01*
X0047501Y0107043D01*
X0047390Y0107087D01*
X0047282Y0107134D01*
X0047174Y0107186D01*
X0047069Y0107240D01*
X0046965Y0107299D01*
X0046864Y0107360D01*
X0046765Y0107425D01*
X0046667Y0107494D01*
X0046573Y0107565D01*
X0046480Y0107640D01*
X0046391Y0107718D01*
X0046303Y0107798D01*
X0046219Y0107882D01*
X0046138Y0107968D01*
X0046059Y0108058D01*
X0045984Y0108149D01*
X0045911Y0108243D01*
X0045842Y0108340D01*
X0045776Y0108439D01*
X0045714Y0108540D01*
X0045655Y0108643D01*
X0045599Y0108748D01*
X0045547Y0108855D01*
X0045498Y0108963D01*
X0045454Y0109073D01*
X0045413Y0109184D01*
X0045375Y0109297D01*
X0045342Y0109411D01*
X0045312Y0109526D01*
X0045287Y0109642D01*
X0045265Y0109759D01*
X0045247Y0109876D01*
X0045233Y0109994D01*
X0045223Y0110113D01*
X0045217Y0110231D01*
X0045215Y0110350D01*
X0083464Y0105883D02*
X0083551Y0106624D01*
X0083623Y0107367D01*
X0083678Y0108112D01*
X0083718Y0108857D01*
X0083742Y0109603D01*
X0083750Y0110350D01*
X0014036Y0105883D02*
X0013949Y0106624D01*
X0013877Y0107367D01*
X0013822Y0108112D01*
X0013782Y0108857D01*
X0013758Y0109603D01*
X0013750Y0110350D01*
X0064941Y0079320D02*
X0065600Y0079673D01*
X0066250Y0080039D01*
X0066893Y0080419D01*
X0067527Y0080813D01*
X0068152Y0081220D01*
X0068769Y0081641D01*
X0032559Y0079320D02*
X0031900Y0079673D01*
X0031250Y0080039D01*
X0030607Y0080419D01*
X0029973Y0080813D01*
X0029348Y0081220D01*
X0028731Y0081641D01*
X0081401Y0097744D02*
X0081662Y0098443D01*
X0081909Y0099148D01*
X0082140Y0099858D01*
X0082356Y0100572D01*
X0082557Y0101291D01*
X0082743Y0102014D01*
X0116542Y0276775D02*
X0117810Y0276775D01*
X0117176Y0276775D02*
X0117176Y0278677D01*
X0117810Y0278043D01*
X0118752Y0278677D02*
X0119386Y0278677D01*
X0119069Y0278677D02*
X0119069Y0277092D01*
X0119386Y0276775D01*
X0119703Y0276775D01*
X0120020Y0277092D01*
D11*
X0181306Y0185804D02*
X0184242Y0185804D01*
X0184242Y0181400D01*
X0181306Y0181400D01*
X0182774Y0183602D02*
X0184242Y0183602D01*
X0185910Y0185804D02*
X0185910Y0181400D01*
X0188846Y0181400D02*
X0188846Y0185804D01*
X0187378Y0184336D01*
X0185910Y0185804D01*
X0190514Y0185804D02*
X0190514Y0182134D01*
X0191248Y0181400D01*
X0192716Y0181400D01*
X0193450Y0182134D01*
X0193450Y0185804D01*
X0198054Y0185804D02*
X0198054Y0181400D01*
X0195118Y0181400D01*
X0199722Y0182134D02*
X0199722Y0185070D01*
X0200456Y0185804D01*
X0201924Y0185804D01*
X0202658Y0185070D01*
X0202658Y0182134D01*
X0201924Y0181400D01*
X0200456Y0181400D01*
X0199722Y0182134D01*
X0204326Y0182868D02*
X0205794Y0181400D01*
X0207262Y0182868D01*
X0207262Y0185804D01*
X0204326Y0185804D02*
X0204326Y0182868D01*
X0130250Y0094100D02*
X0130250Y0044100D01*
X0130225Y0044100D02*
X0112250Y0044100D01*
X0112250Y0094100D01*
X0130150Y0094100D01*
X0176702Y0065554D02*
X0179638Y0065554D01*
X0179638Y0061150D01*
X0176702Y0061150D01*
X0178170Y0063352D02*
X0179638Y0063352D01*
X0181306Y0064820D02*
X0182040Y0065554D01*
X0183508Y0065554D01*
X0184242Y0064820D01*
X0184242Y0061884D01*
X0183508Y0061150D01*
X0182040Y0061150D01*
X0181306Y0061884D01*
X0185910Y0061150D02*
X0185910Y0065554D01*
X0188846Y0065554D02*
X0185910Y0061150D01*
X0188846Y0061150D02*
X0188846Y0065554D01*
X0190514Y0065554D02*
X0193450Y0065554D01*
X0193450Y0061150D01*
X0190514Y0061150D01*
X0191982Y0063352D02*
X0193450Y0063352D01*
X0195118Y0062618D02*
X0195118Y0061884D01*
X0195852Y0061150D01*
X0197320Y0061150D01*
X0198054Y0061884D01*
X0197320Y0063352D02*
X0195852Y0063352D01*
X0195118Y0062618D01*
X0195118Y0064820D02*
X0195852Y0065554D01*
X0197320Y0065554D01*
X0198054Y0064820D01*
X0198054Y0064086D01*
X0197320Y0063352D01*
X0199722Y0065554D02*
X0202658Y0065554D01*
X0202658Y0061150D01*
X0199722Y0061150D01*
X0201190Y0063352D02*
X0202658Y0063352D01*
X0204326Y0063352D02*
X0204326Y0064820D01*
X0205060Y0065554D01*
X0207262Y0065554D01*
X0207262Y0061150D01*
X0207262Y0062618D02*
X0205060Y0062618D01*
X0204326Y0063352D01*
X0205794Y0062618D02*
X0204326Y0061150D01*
X0208930Y0063352D02*
X0209664Y0062618D01*
X0211866Y0062618D01*
X0211866Y0061150D02*
X0211866Y0065554D01*
X0209664Y0065554D01*
X0208930Y0064820D01*
X0208930Y0063352D01*
X0057658Y0065554D02*
X0054722Y0065554D01*
X0056190Y0065554D02*
X0056190Y0061150D01*
X0053054Y0061884D02*
X0052320Y0061150D01*
X0050852Y0061150D01*
X0050118Y0061884D01*
X0050118Y0064820D01*
X0050852Y0065554D01*
X0052320Y0065554D01*
X0053054Y0064820D01*
X0053054Y0061884D01*
X0048450Y0061150D02*
X0048450Y0065554D01*
X0045514Y0061150D01*
X0045514Y0065554D01*
X0043846Y0065554D02*
X0043846Y0061150D01*
X0040910Y0061150D01*
X0042378Y0063352D02*
X0043846Y0063352D01*
X0043846Y0065554D02*
X0040910Y0065554D01*
X0041678Y0181400D02*
X0041678Y0185804D01*
X0044613Y0185804D02*
X0041678Y0181400D01*
X0044613Y0181400D02*
X0044613Y0185804D01*
X0046215Y0185804D02*
X0047683Y0185804D01*
X0046949Y0185804D02*
X0046949Y0181400D01*
X0047683Y0181400D02*
X0046215Y0181400D01*
X0049351Y0181400D02*
X0049351Y0184336D01*
X0050819Y0185804D01*
X0052287Y0184336D01*
X0052287Y0181400D01*
X0053955Y0182134D02*
X0053955Y0183602D01*
X0055423Y0183602D01*
X0056891Y0185070D02*
X0056891Y0182134D01*
X0056157Y0181400D01*
X0054689Y0181400D01*
X0053955Y0182134D01*
X0052287Y0183602D02*
X0049351Y0183602D01*
X0053955Y0185070D02*
X0054689Y0185804D01*
X0056157Y0185804D01*
X0056891Y0185070D01*
D12*
X0103533Y0232188D02*
X0111801Y0232188D01*
X0103533Y0232188D02*
X0103533Y0274314D01*
X0138967Y0274314D01*
X0138967Y0253448D01*
X0138950Y0254300D02*
X0138950Y0234925D01*
X0138967Y0234944D02*
X0138967Y0232188D01*
X0130699Y0232188D01*
D13*
X0237283Y0005600D02*
X0005000Y0005600D01*
X0005000Y0258631D01*
X0026654Y0258631D01*
X0026654Y0286191D01*
X0215630Y0286191D01*
X0215630Y0258631D01*
X0237283Y0258631D01*
X0237283Y0005600D01*
M02*
