%
M48
M72
T01C0.01575
T02C0.01969
T03C0.02362
T04C0.02756
T05C0.03150
T06C0.03200
T07C0.03543
T08C0.04331
T09C0.05512
T10C0.08661
T11C0.09843
%
T01
X71250Y71600
X58750Y91600
X71250Y101600
X68750Y111600
X58750Y121600
X58750Y134100
X38750Y134100
X26250Y121600
X26250Y91600
X38750Y164100
X58750Y164100
X58750Y181600
X88750Y181600
X108750Y194100
X108750Y164100
X108750Y151600
X118750Y151600
X128750Y151600
X128750Y121600
X118750Y121600
X108750Y121600
X98750Y111600
T02
X9500Y10850
X9500Y41600
X9500Y81600
X24500Y114100
X9500Y121600
X9500Y161600
X19500Y161600
X49000Y144100
X49000Y111600
X80500Y76600
X88752Y91670
X88755Y99530
X100500Y101600
X108820Y106605
X116680Y106602
X125500Y109100
X140500Y109100
X148750Y109100
X148750Y99100
X148750Y89100
X148750Y79100
X148750Y69100
X148750Y59100
X136250Y69100
X136250Y46600
X111250Y46600
X100500Y46600
X81250Y46600
X81250Y34100
X81250Y24100
X81250Y10850
X58000Y54100
X41250Y46600
X41250Y34100
X41250Y24100
X41250Y10850
X100500Y76600
X111250Y76600
X136250Y91600
X163750Y79100
X163750Y69100
X163750Y59100
X173750Y59100
X183750Y59100
X183750Y79100
X173750Y79100
X161250Y46600
X161250Y34100
X161250Y24100
X161250Y10850
X201250Y10850
X201250Y24100
X201250Y34100
X233000Y41600
X233000Y10850
X233000Y81600
X233000Y121600
X218000Y121600
X233000Y161600
X200500Y161600
X190500Y201600
X190500Y241600
X190500Y279850
X153000Y279850
X125500Y279850
X125500Y244100
X153000Y241600
X153000Y201600
X125500Y201600
X125500Y184100
X124498Y172030
X124495Y164170
X143000Y159100
X155500Y159100
X155500Y134100
X143000Y134100
X93000Y126600
X93000Y146600
X84000Y146600
X84000Y169100
X93000Y169100
X90500Y201600
X48000Y201600
X48000Y241600
X48000Y279850
X9500Y241600
X9500Y201600
X90500Y279850
X233000Y241600
X233000Y201600
X121250Y10850
T03
X48750Y101600
X36250Y101600
X36250Y121600
X28750Y134100
X28750Y154100
X48750Y154100
X48750Y134100
X48750Y121600
X78750Y164100
X98750Y164100
X138750Y146600
X138750Y126600
X213750Y79100
X213750Y59100
X48750Y181600
X28750Y181600
X28750Y79100
X28750Y59100
T04
X98750Y174100
X98750Y194100
T05
X166250Y99100
X166250Y89100
X183750Y89100
X183750Y99100
T06
X98750Y121600
X98750Y131600
X98750Y141600
X98750Y151600
X68750Y151600
X68750Y141600
X68750Y131600
X68750Y121600
T07
X106250Y29100
X106250Y19100
X116250Y19100
X116250Y29100
X126250Y29100
X126250Y19100
X136250Y19100
X136250Y29100
T08
X173750Y48913
X193750Y48913
X213750Y48913
X213750Y169163
X193750Y169163
X173750Y169163
X68750Y169163
X48750Y169163
X28750Y169163
X28750Y48913
X48750Y48913
X68750Y48913
T09
X98699Y214350
X98699Y239350
X98699Y264350
X143801Y264350
X143801Y239350
X143801Y214350
X207699Y214350
X207699Y239350
X207699Y264350
X34801Y264350
X34801Y239350
X34801Y214350
T10
X121250Y87350
X121250Y69100
X121250Y50950
T11
X121250Y232188
X121250Y255810
M30
